<?xml version="1.0" encoding="UTF-8" standalone="no"?>
<!DOCTYPE svg PUBLIC "-//W3C//DTD SVG 1.1//EN"
 "http://www.w3.org/Graphics/SVG/1.1/DTD/svg11.dtd">
<!-- Generated by graphviz version 2.34.0 (20130907.0111)
 -->
<!-- Title: idWinFloat Pages: 1 -->
<svg width="73pt" height="154pt"
 viewBox="0.00 0.00 73.00 154.00" xmlns="http://www.w3.org/2000/svg" xmlns:xlink="http://www.w3.org/1999/xlink">
<g id="graph0" class="graph" transform="scale(1 1) rotate(0) translate(4 150)">
<title>idWinFloat</title>
<polygon fill="white" stroke="white" points="-4,4 -4,-150 69,-150 69,4 -4,4"/>
<!-- Node1 -->
<g id="node1" class="node"><title>Node1</title>
<polygon fill="#bfbfbf" stroke="black" points="-0.5,-0.5 -0.5,-19.5 62.5,-19.5 62.5,-0.5 -0.5,-0.5"/>
<text text-anchor="middle" x="31" y="-7.5" font-family="Arial" font-size="10.00">idWinFloat</text>
</g>
<!-- Node2 -->
<g id="node2" class="node"><title>Node2</title>
<g id="a_node2"><a xlink:href="classid_win_var.html" target="_top" xlink:title="idWinVar">
<polygon fill="white" stroke="black" points="3,-58.5 3,-77.5 59,-77.5 59,-58.5 3,-58.5"/>
<text text-anchor="middle" x="31" y="-65.5" font-family="Arial" font-size="10.00">idWinVar</text>
</a>
</g>
</g>
<!-- Node2&#45;&gt;Node1 -->
<g id="edge1" class="edge"><title>Node2&#45;&gt;Node1</title>
<path fill="none" stroke="midnightblue" d="M31,-47.953C31,-38.2875 31,-27.0312 31,-19.5052"/>
<polygon fill="midnightblue" stroke="midnightblue" points="27.5001,-48.25 31,-58.25 34.5001,-48.25 27.5001,-48.25"/>
</g>
<!-- Node3 -->
<g id="node3" class="node"><title>Node3</title>
<g id="a_node3"><a xlink:href="classid_dict.html" target="_top" xlink:title="idDict">
<polygon fill="white" stroke="black" points="10.5,-126.5 10.5,-145.5 51.5,-145.5 51.5,-126.5 10.5,-126.5"/>
<text text-anchor="middle" x="31" y="-133.5" font-family="Arial" font-size="10.00">idDict</text>
</a>
</g>
</g>
<!-- Node3&#45;&gt;Node2 -->
<g id="edge2" class="edge"><title>Node3&#45;&gt;Node2</title>
<path fill="none" stroke="#9a32cd" stroke-dasharray="5,2" d="M31,-116.041C31,-103.472 31,-87.5631 31,-77.8411"/>
<polygon fill="#9a32cd" stroke="#9a32cd" points="27.5001,-116.372 31,-126.372 34.5001,-116.372 27.5001,-116.372"/>
<text text-anchor="middle" x="48" y="-99.5" font-family="Arial" font-size="10.00"> guiDict</text>
</g>
</g>
</svg>
