<?xml version="1.0" encoding="UTF-8" standalone="no"?>
<!DOCTYPE svg PUBLIC "-//W3C//DTD SVG 1.1//EN"
 "http://www.w3.org/Graphics/SVG/1.1/DTD/svg11.dtd">
<!-- Generated by graphviz version 2.34.0 (20130907.0111)
 -->
<!-- Title: rvDebuggerServer Pages: 1 -->
<svg width="722pt" height="405pt"
 viewBox="0.00 0.00 722.00 405.00" xmlns="http://www.w3.org/2000/svg" xmlns:xlink="http://www.w3.org/1999/xlink">
<g id="graph0" class="graph" transform="scale(1 1) rotate(0) translate(4 401)">
<title>rvDebuggerServer</title>
<polygon fill="white" stroke="white" points="-4,4 -4,-401 718,-401 718,4 -4,4"/>
<!-- Node1 -->
<g id="node1" class="node"><title>Node1</title>
<polygon fill="#bfbfbf" stroke="black" points="622,-114.5 622,-133.5 714,-133.5 714,-114.5 622,-114.5"/>
<text text-anchor="middle" x="668" y="-121.5" font-family="Arial" font-size="10.00">rvDebuggerServer</text>
</g>
<!-- Node2 -->
<g id="node2" class="node"><title>Node2</title>
<g id="a_node2"><a xlink:href="classid_str.html" target="_top" xlink:title="idStr">
<polygon fill="white" stroke="black" points="383.5,-199.5 383.5,-218.5 420.5,-218.5 420.5,-199.5 383.5,-199.5"/>
<text text-anchor="middle" x="402" y="-206.5" font-family="Arial" font-size="10.00">idStr</text>
</a>
</g>
</g>
<!-- Node2&#45;&gt;Node1 -->
<g id="edge1" class="edge"><title>Node2&#45;&gt;Node1</title>
<path fill="none" stroke="#9a32cd" stroke-dasharray="5,2" d="M431.054,-207.134C478.86,-203.618 573.866,-195.074 604,-181 627.788,-169.89 648.954,-146.673 659.643,-133.556"/>
<polygon fill="#9a32cd" stroke="#9a32cd" points="430.521,-203.663 420.795,-207.864 431.018,-210.645 430.521,-203.663"/>
<text text-anchor="middle" x="552" y="-203" font-family="Arial" font-size="10.00"> mLastStatementFile</text>
</g>
<!-- Node3 -->
<g id="node3" class="node"><title>Node3</title>
<g id="a_node3"><a xlink:href="classid_program.html" target="_top" xlink:title="idProgram">
<polygon fill="white" stroke="black" points="242.5,-163.5 242.5,-182.5 303.5,-182.5 303.5,-163.5 242.5,-163.5"/>
<text text-anchor="middle" x="273" y="-170.5" font-family="Arial" font-size="10.00">idProgram</text>
</a>
</g>
</g>
<!-- Node3&#45;&gt;Node1 -->
<g id="edge2" class="edge"><title>Node3&#45;&gt;Node1</title>
<path fill="none" stroke="#9a32cd" stroke-dasharray="5,2" d="M313.933,-170.582C376.219,-166.429 500.135,-156.637 604,-139 612.646,-137.532 621.872,-135.566 630.522,-133.542"/>
<polygon fill="#9a32cd" stroke="#9a32cd" points="313.508,-167.102 303.757,-171.246 313.964,-174.087 313.508,-167.102"/>
<text text-anchor="middle" x="402" y="-172" font-family="Arial" font-size="10.00"> mBreakProgram</text>
</g>
<!-- Node4 -->
<g id="node4" class="node"><title>Node4</title>
<g id="a_node4"><a xlink:href="classid_var_def.html" target="_top" xlink:title="idVarDef">
<polygon fill="white" stroke="black" points="0.5,-281.5 0.5,-300.5 53.5,-300.5 53.5,-281.5 0.5,-281.5"/>
<text text-anchor="middle" x="27" y="-288.5" font-family="Arial" font-size="10.00">idVarDef</text>
</a>
</g>
</g>
<!-- Node4&#45;&gt;Node3 -->
<g id="edge3" class="edge"><title>Node4&#45;&gt;Node3</title>
<path fill="none" stroke="#9a32cd" stroke-dasharray="5,2" d="M42.2328,-273.736C50.304,-264.688 60.9743,-253.88 72,-246 125.378,-207.851 200.885,-187.509 242.173,-178.621"/>
<polygon fill="#9a32cd" stroke="#9a32cd" points="39.491,-271.556 35.6156,-281.417 44.7943,-276.125 39.491,-271.556"/>
<text text-anchor="middle" x="105" y="-260" font-family="Arial" font-size="10.00"> returnDef</text>
<text text-anchor="middle" x="105" y="-249" font-family="Arial" font-size="10.00">returnStringDef</text>
</g>
<!-- Node4&#45;&gt;Node4 -->
<g id="edge14" class="edge"><title>Node4&#45;&gt;Node4</title>
<path fill="none" stroke="#9a32cd" stroke-dasharray="5,2" d="M12.6358,-310.766C13.764,-315.497 18.5521,-319 27,-319 40.8633,-319 44.8706,-309.565 39.0221,-300.757"/>
<polygon fill="#9a32cd" stroke="#9a32cd" points="16.1074,-311.292 14.9779,-300.757 9.29151,-309.697 16.1074,-311.292"/>
<text text-anchor="middle" x="27" y="-322" font-family="Arial" font-size="10.00"> scope</text>
</g>
<!-- Node6 -->
<g id="node6" class="node"><title>Node6</title>
<g id="a_node6"><a xlink:href="classfunction__t.html" target="_top" xlink:title="function_t">
<polygon fill="white" stroke="black" points="372.5,-260.5 372.5,-279.5 431.5,-279.5 431.5,-260.5 372.5,-260.5"/>
<text text-anchor="middle" x="402" y="-267.5" font-family="Arial" font-size="10.00">function_t</text>
</a>
</g>
</g>
<!-- Node4&#45;&gt;Node6 -->
<g id="edge9" class="edge"><title>Node4&#45;&gt;Node6</title>
<path fill="none" stroke="#9a32cd" stroke-dasharray="5,2" d="M63.6794,-294.519C66.4927,-294.712 69.2918,-294.877 72,-295 175.193,-299.681 201.202,-291.161 304,-281 326.938,-278.733 352.88,-275.77 372.161,-273.49"/>
<polygon fill="#9a32cd" stroke="#9a32cd" points="63.8112,-291.018 53.5664,-293.719 63.2595,-297.996 63.8112,-291.018"/>
<text text-anchor="middle" x="190" y="-298" font-family="Arial" font-size="10.00"> def</text>
</g>
<!-- Node8 -->
<g id="node8" class="node"><title>Node8</title>
<g id="a_node8"><a xlink:href="classid_type_def.html" target="_top" xlink:title="idTypeDef">
<polygon fill="white" stroke="black" points="160.5,-253.5 160.5,-272.5 219.5,-272.5 219.5,-253.5 160.5,-253.5"/>
<text text-anchor="middle" x="190" y="-260.5" font-family="Arial" font-size="10.00">idTypeDef</text>
</a>
</g>
</g>
<!-- Node4&#45;&gt;Node8 -->
<g id="edge8" class="edge"><title>Node4&#45;&gt;Node8</title>
<path fill="none" stroke="#9a32cd" stroke-dasharray="5,2" d="M63.6657,-284.797C92.7636,-279.737 133.336,-272.681 160.35,-267.983"/>
<polygon fill="#9a32cd" stroke="#9a32cd" points="62.7633,-281.402 53.5109,-286.563 63.9628,-288.298 62.7633,-281.402"/>
<text text-anchor="middle" x="105" y="-285" font-family="Arial" font-size="10.00"> def</text>
</g>
<!-- Node5 -->
<g id="node5" class="node"><title>Node5</title>
<g id="a_node5"><a xlink:href="unionvar_eval__s.html" target="_top" xlink:title="varEval_s">
<polygon fill="white" stroke="black" points="639.5,-323.5 639.5,-342.5 696.5,-342.5 696.5,-323.5 639.5,-323.5"/>
<text text-anchor="middle" x="668" y="-330.5" font-family="Arial" font-size="10.00">varEval_s</text>
</a>
</g>
</g>
<!-- Node5&#45;&gt;Node4 -->
<g id="edge4" class="edge"><title>Node5&#45;&gt;Node4</title>
<path fill="none" stroke="#9a32cd" stroke-dasharray="5,2" d="M637.851,-346.594C627.388,-350.926 615.364,-355.293 604,-358 551.04,-370.615 536.387,-366.553 482,-369 337.255,-375.512 295.489,-406.196 156,-367 108.478,-353.647 60.6158,-317.913 39.3744,-300.628"/>
<polygon fill="#9a32cd" stroke="#9a32cd" points="639.536,-349.679 647.333,-342.506 636.764,-343.251 639.536,-349.679"/>
<text text-anchor="middle" x="273" y="-389" font-family="Arial" font-size="10.00"> value</text>
</g>
<!-- Node5&#45;&gt;Node5 -->
<g id="edge11" class="edge"><title>Node5&#45;&gt;Node5</title>
<path fill="none" stroke="#9a32cd" stroke-dasharray="5,2" d="M646.52,-352.4C647.954,-357.315 655.114,-361 668,-361 688.617,-361 694.577,-351.565 685.879,-342.757"/>
<polygon fill="#9a32cd" stroke="#9a32cd" points="649.901,-353.35 650.121,-342.757 643.343,-350.9 649.901,-353.35"/>
<text text-anchor="middle" x="668" y="-364" font-family="Arial" font-size="10.00"> evalPtr</text>
</g>
<!-- Node6&#45;&gt;Node1 -->
<g id="edge16" class="edge"><title>Node6&#45;&gt;Node1</title>
<path fill="none" stroke="#9a32cd" stroke-dasharray="5,2" d="M441.704,-262.695C492.417,-252.572 577.966,-233.436 604,-215 634.422,-193.457 654.915,-152.306 663.057,-133.637"/>
<polygon fill="#9a32cd" stroke="#9a32cd" points="440.884,-259.289 431.749,-264.655 442.237,-266.157 440.884,-259.289"/>
<text text-anchor="middle" x="552" y="-263" font-family="Arial" font-size="10.00"> mBreakStepOverFunc1</text>
<text text-anchor="middle" x="552" y="-252" font-family="Arial" font-size="10.00">mBreakStepOverFunc2</text>
</g>
<!-- Node6&#45;&gt;Node5 -->
<g id="edge5" class="edge"><title>Node6&#45;&gt;Node5</title>
<path fill="none" stroke="#9a32cd" stroke-dasharray="5,2" d="M441.834,-271.572C483.007,-274.159 549.49,-280.991 604,-299 621.702,-304.848 640.289,-315.516 652.646,-323.348"/>
<polygon fill="#9a32cd" stroke="#9a32cd" points="441.866,-268.068 431.681,-270.988 441.464,-275.056 441.866,-268.068"/>
<text text-anchor="middle" x="552" y="-302" font-family="Arial" font-size="10.00"> functionPtr</text>
</g>
<!-- Node7 -->
<g id="node7" class="node"><title>Node7</title>
<g id="a_node7"><a xlink:href="classid_list.html" target="_top" xlink:title="idList\&lt; int \&gt;">
<polygon fill="white" stroke="black" points="156,-338.5 156,-357.5 224,-357.5 224,-338.5 156,-338.5"/>
<text text-anchor="middle" x="190" y="-345.5" font-family="Arial" font-size="10.00">idList&lt; int &gt;</text>
</a>
</g>
</g>
<!-- Node7&#45;&gt;Node6 -->
<g id="edge6" class="edge"><title>Node7&#45;&gt;Node6</title>
<path fill="none" stroke="#9a32cd" stroke-dasharray="5,2" d="M234.254,-346.499C256.824,-343.835 283.851,-337.508 304,-323 316.618,-313.914 309.686,-302.495 322,-293 336.48,-281.835 356.23,-276.085 372.36,-273.126"/>
<polygon fill="#9a32cd" stroke="#9a32cd" points="233.849,-343.022 224.239,-347.481 234.533,-349.988 233.849,-343.022"/>
<text text-anchor="middle" x="273" y="-348" font-family="Arial" font-size="10.00"> parmSize</text>
</g>
<!-- Node8&#45;&gt;Node6 -->
<g id="edge7" class="edge"><title>Node8&#45;&gt;Node6</title>
<path fill="none" stroke="#9a32cd" stroke-dasharray="5,2" d="M229.979,-264.299C271.233,-265.674 335.366,-267.812 372.252,-269.042"/>
<polygon fill="#9a32cd" stroke="#9a32cd" points="229.87,-260.794 219.759,-263.959 229.637,-267.79 229.87,-260.794"/>
<text text-anchor="middle" x="273" y="-269" font-family="Arial" font-size="10.00"> type</text>
</g>
<!-- Node9 -->
<g id="node9" class="node"><title>Node9</title>
<g id="a_node9"><a xlink:href="classid_event_def.html" target="_top" xlink:title="idEventDef">
<polygon fill="white" stroke="black" points="159,-215.5 159,-234.5 221,-234.5 221,-215.5 159,-215.5"/>
<text text-anchor="middle" x="190" y="-222.5" font-family="Arial" font-size="10.00">idEventDef</text>
</a>
</g>
</g>
<!-- Node9&#45;&gt;Node6 -->
<g id="edge10" class="edge"><title>Node9&#45;&gt;Node6</title>
<path fill="none" stroke="#9a32cd" stroke-dasharray="5,2" d="M231.042,-233.464C252.654,-238.043 279.792,-243.809 304,-249 326.912,-253.913 352.856,-259.533 372.144,-263.722"/>
<polygon fill="#9a32cd" stroke="#9a32cd" points="231.731,-230.033 221.223,-231.385 230.281,-236.881 231.731,-230.033"/>
<text text-anchor="middle" x="273" y="-252" font-family="Arial" font-size="10.00"> eventdef</text>
</g>
<!-- Node10 -->
<g id="node10" class="node"><title>Node10</title>
<g id="a_node10"><a xlink:href="classid_vec3.html" target="_top" xlink:title="idVec3">
<polygon fill="white" stroke="black" points="378.5,-340.5 378.5,-359.5 425.5,-359.5 425.5,-340.5 378.5,-340.5"/>
<text text-anchor="middle" x="402" y="-347.5" font-family="Arial" font-size="10.00">idVec3</text>
</a>
</g>
</g>
<!-- Node10&#45;&gt;Node5 -->
<g id="edge12" class="edge"><title>Node10&#45;&gt;Node5</title>
<path fill="none" stroke="#9a32cd" stroke-dasharray="5,2" d="M435.616,-347.9C488.114,-344.519 590.42,-337.931 639.475,-334.772"/>
<polygon fill="#9a32cd" stroke="#9a32cd" points="435.263,-344.415 425.508,-348.551 435.713,-351.401 435.263,-344.415"/>
<text text-anchor="middle" x="552" y="-346" font-family="Arial" font-size="10.00"> vectorPtr</text>
</g>
<!-- Node11 -->
<g id="node11" class="node"><title>Node11</title>
<g id="a_node11"><a xlink:href="classid_script_object.html" target="_top" xlink:title="idScriptObject">
<polygon fill="white" stroke="black" points="363,-302.5 363,-321.5 441,-321.5 441,-302.5 363,-302.5"/>
<text text-anchor="middle" x="402" y="-309.5" font-family="Arial" font-size="10.00">idScriptObject</text>
</a>
</g>
</g>
<!-- Node11&#45;&gt;Node5 -->
<g id="edge13" class="edge"><title>Node11&#45;&gt;Node5</title>
<path fill="none" stroke="#9a32cd" stroke-dasharray="5,2" d="M451.475,-312.74C492.27,-313.764 552.094,-316.2 604,-322 615.586,-323.295 628.266,-325.378 639.194,-327.385"/>
<polygon fill="#9a32cd" stroke="#9a32cd" points="451.35,-309.237 441.272,-312.504 451.188,-316.235 451.35,-309.237"/>
<text text-anchor="middle" x="552" y="-325" font-family="Arial" font-size="10.00"> objectPtrPtr</text>
</g>
<!-- Node12 -->
<g id="node12" class="node"><title>Node12</title>
<g id="a_node12"><a xlink:href="structnetadr__t.html" target="_top" xlink:title="netadr_t">
<polygon fill="white" stroke="black" points="376,-114.5 376,-133.5 428,-133.5 428,-114.5 376,-114.5"/>
<text text-anchor="middle" x="402" y="-121.5" font-family="Arial" font-size="10.00">netadr_t</text>
</a>
</g>
</g>
<!-- Node12&#45;&gt;Node1 -->
<g id="edge15" class="edge"><title>Node12&#45;&gt;Node1</title>
<path fill="none" stroke="#9a32cd" stroke-dasharray="5,2" d="M438.393,-124C485.718,-124 569.661,-124 621.596,-124"/>
<polygon fill="#9a32cd" stroke="#9a32cd" points="438.313,-120.5 428.313,-124 438.313,-127.5 438.313,-120.5"/>
<text text-anchor="middle" x="552" y="-127" font-family="Arial" font-size="10.00"> mClientAdr</text>
</g>
<!-- Node13 -->
<g id="node13" class="node"><title>Node13</title>
<g id="a_node13"><a xlink:href="classid_list.html" target="_top" xlink:title="idList\&lt; rvDebuggerBreakpoint * \&gt;">
<polygon fill="white" stroke="black" points="322.5,-76.5 322.5,-95.5 481.5,-95.5 481.5,-76.5 322.5,-76.5"/>
<text text-anchor="middle" x="402" y="-83.5" font-family="Arial" font-size="10.00">idList&lt; rvDebuggerBreakpoint * &gt;</text>
</a>
</g>
</g>
<!-- Node13&#45;&gt;Node1 -->
<g id="edge17" class="edge"><title>Node13&#45;&gt;Node1</title>
<path fill="none" stroke="#9a32cd" stroke-dasharray="5,2" d="M491.807,-93.8474C526.891,-97.5505 567.476,-102.586 604,-109 612.527,-110.497 621.624,-112.451 630.177,-114.451"/>
<polygon fill="#9a32cd" stroke="#9a32cd" points="491.894,-90.3378 481.587,-92.7897 491.173,-97.3006 491.894,-90.3378"/>
<text text-anchor="middle" x="552" y="-112" font-family="Arial" font-size="10.00"> mBreakpoints</text>
</g>
<!-- Node14 -->
<g id="node14" class="node"><title>Node14</title>
<g id="a_node14"><a xlink:href="classid_interpreter.html" target="_top" xlink:title="idInterpreter">
<polygon fill="white" stroke="black" points="368,-38.5 368,-57.5 436,-57.5 436,-38.5 368,-38.5"/>
<text text-anchor="middle" x="402" y="-45.5" font-family="Arial" font-size="10.00">idInterpreter</text>
</a>
</g>
</g>
<!-- Node14&#45;&gt;Node1 -->
<g id="edge18" class="edge"><title>Node14&#45;&gt;Node1</title>
<path fill="none" stroke="#9a32cd" stroke-dasharray="5,2" d="M446.341,-49.3052C488.093,-51.8394 552.349,-59.1439 604,-80 624.288,-88.192 644.437,-103.946 656.299,-114.211"/>
<polygon fill="#9a32cd" stroke="#9a32cd" points="446.407,-45.8038 436.232,-48.7584 446.028,-52.7935 446.407,-45.8038"/>
<text text-anchor="middle" x="552" y="-83" font-family="Arial" font-size="10.00"> mBreakInterpreter</text>
</g>
<!-- Node15 -->
<g id="node15" class="node"><title>Node15</title>
<g id="a_node15"><a xlink:href="classid_port.html" target="_top" xlink:title="idPort">
<polygon fill="white" stroke="black" points="381,-0.5 381,-19.5 423,-19.5 423,-0.5 381,-0.5"/>
<text text-anchor="middle" x="402" y="-7.5" font-family="Arial" font-size="10.00">idPort</text>
</a>
</g>
</g>
<!-- Node15&#45;&gt;Node1 -->
<g id="edge19" class="edge"><title>Node15&#45;&gt;Node1</title>
<path fill="none" stroke="#9a32cd" stroke-dasharray="5,2" d="M433.227,-7.67193C474.737,-5.91542 550.338,-7.99876 604,-40 634.061,-57.9265 654.468,-96.2132 662.793,-114.236"/>
<polygon fill="#9a32cd" stroke="#9a32cd" points="433,-4.17892 423.198,-8.20072 433.369,-11.1692 433,-4.17892"/>
<text text-anchor="middle" x="552" y="-43" font-family="Arial" font-size="10.00"> mPort</text>
</g>
</g>
</svg>
