<?xml version="1.0" encoding="UTF-8" standalone="no"?>
<!DOCTYPE svg PUBLIC "-//W3C//DTD SVG 1.1//EN"
 "http://www.w3.org/Graphics/SVG/1.1/DTD/svg11.dtd">
<!-- Generated by graphviz version 2.34.0 (20130907.0111)
 -->
<!-- Title: CEditViewDlg Pages: 1 -->
<svg width="494pt" height="392pt"
 viewBox="0.00 0.00 494.00 392.00" xmlns="http://www.w3.org/2000/svg" xmlns:xlink="http://www.w3.org/1999/xlink">
<g id="graph0" class="graph" transform="scale(1 1) rotate(0) translate(4 388)">
<title>CEditViewDlg</title>
<polygon fill="white" stroke="white" points="-4,4 -4,-388 490,-388 490,4 -4,4"/>
<!-- Node1 -->
<g id="node1" class="node"><title>Node1</title>
<polygon fill="#bfbfbf" stroke="black" points="115,-0.5 115,-19.5 191,-19.5 191,-0.5 115,-0.5"/>
<text text-anchor="middle" x="153" y="-7.5" font-family="Arial" font-size="10.00">CEditViewDlg</text>
</g>
<!-- Node2 -->
<g id="node2" class="node"><title>Node2</title>
<polygon fill="white" stroke="#bfbfbf" points="0,-160.5 0,-179.5 50,-179.5 50,-160.5 0,-160.5"/>
<text text-anchor="middle" x="25" y="-167.5" font-family="Arial" font-size="10.00">CDialog</text>
</g>
<!-- Node2&#45;&gt;Node1 -->
<g id="edge1" class="edge"><title>Node2&#45;&gt;Node1</title>
<path fill="none" stroke="midnightblue" d="M34.7892,-151.419C38.7244,-144.62 43.4111,-136.843 48,-130 67.2593,-101.282 72.1641,-93.9649 95,-68 110.85,-49.9777 131.226,-30.7555 143.128,-19.8744"/>
<polygon fill="midnightblue" stroke="midnightblue" points="31.5511,-150.034 29.6602,-160.458 37.6393,-153.488 31.5511,-150.034"/>
</g>
<!-- Node4 -->
<g id="node4" class="node"><title>Node4</title>
<g id="a_node4"><a xlink:href="class_c_media_preview_dlg.html" target="_top" xlink:title="CMediaPreviewDlg">
<polygon fill="white" stroke="black" points="104.5,-80.5 104.5,-99.5 201.5,-99.5 201.5,-80.5 104.5,-80.5"/>
<text text-anchor="middle" x="153" y="-87.5" font-family="Arial" font-size="10.00">CMediaPreviewDlg</text>
</a>
</g>
</g>
<!-- Node2&#45;&gt;Node4 -->
<g id="edge4" class="edge"><title>Node2&#45;&gt;Node4</title>
<path fill="none" stroke="midnightblue" d="M39.5995,-152.753C46.9905,-145.174 56.4141,-136.431 66,-130 85.5188,-116.905 110.152,-106.338 128.22,-99.5234"/>
<polygon fill="midnightblue" stroke="midnightblue" points="36.7568,-150.667 32.4659,-160.355 41.8612,-155.458 36.7568,-150.667"/>
</g>
<!-- Node3 -->
<g id="node3" class="node"><title>Node3</title>
<g id="a_node3"><a xlink:href="classid_str.html" target="_top" xlink:title="idStr">
<polygon fill="white" stroke="black" points="354.5,-160.5 354.5,-179.5 391.5,-179.5 391.5,-160.5 354.5,-160.5"/>
<text text-anchor="middle" x="373" y="-167.5" font-family="Arial" font-size="10.00">idStr</text>
</a>
</g>
</g>
<!-- Node3&#45;&gt;Node1 -->
<g id="edge2" class="edge"><title>Node3&#45;&gt;Node1</title>
<path fill="none" stroke="#9a32cd" stroke-dasharray="5,2" d="M364.906,-150.843C361.269,-143.866 356.541,-136.116 351,-130 303.234,-77.2729 282.516,-71.9635 220,-38 206.666,-30.756 190.969,-24.3279 178.121,-19.5628"/>
<polygon fill="#9a32cd" stroke="#9a32cd" points="361.933,-152.737 369.422,-160.232 368.242,-149.703 361.933,-152.737"/>
<text text-anchor="middle" x="355.5" y="-104" font-family="Arial" font-size="10.00"> editText</text>
<text text-anchor="middle" x="355.5" y="-93" font-family="Arial" font-size="10.00">findStr</text>
<text text-anchor="middle" x="355.5" y="-82" font-family="Arial" font-size="10.00">matName</text>
<text text-anchor="middle" x="355.5" y="-71" font-family="Arial" font-size="10.00">fileName</text>
</g>
<!-- Node3&#45;&gt;Node4 -->
<g id="edge5" class="edge"><title>Node3&#45;&gt;Node4</title>
<path fill="none" stroke="#9a32cd" stroke-dasharray="5,2" d="M347.481,-155.693C331.296,-147.585 309.756,-137.398 290,-130 256.419,-117.425 216.927,-106.584 188.994,-99.5458"/>
<polygon fill="#9a32cd" stroke="#9a32cd" points="346.302,-159.02 356.803,-160.429 349.473,-152.779 346.302,-159.02"/>
<text text-anchor="middle" x="333" y="-133.5" font-family="Arial" font-size="10.00"> media</text>
</g>
<!-- Node4&#45;&gt;Node1 -->
<g id="edge3" class="edge"><title>Node4&#45;&gt;Node1</title>
<path fill="none" stroke="#9a32cd" stroke-dasharray="5,2" d="M153,-70.0719C153,-54.1448 153,-32.0781 153,-19.9238"/>
<polygon fill="#9a32cd" stroke="#9a32cd" points="149.5,-70.3546 153,-80.3546 156.5,-70.3546 149.5,-70.3546"/>
<text text-anchor="middle" x="184.5" y="-41.5" font-family="Arial" font-size="10.00"> mediaPreview</text>
</g>
<!-- Node5 -->
<g id="node5" class="node"><title>Node5</title>
<g id="a_node5"><a xlink:href="classid_g_l_widget.html" target="_top" xlink:title="idGLWidget">
<polygon fill="white" stroke="black" points="119,-228.5 119,-247.5 187,-247.5 187,-228.5 119,-228.5"/>
<text text-anchor="middle" x="153" y="-235.5" font-family="Arial" font-size="10.00">idGLWidget</text>
</a>
</g>
</g>
<!-- Node5&#45;&gt;Node4 -->
<g id="edge6" class="edge"><title>Node5&#45;&gt;Node4</title>
<path fill="none" stroke="#9a32cd" stroke-dasharray="5,2" d="M153,-218.121C153,-186.272 153,-123.068 153,-99.8348"/>
<polygon fill="#9a32cd" stroke="#9a32cd" points="149.5,-218.304 153,-228.304 156.5,-218.304 149.5,-218.304"/>
<text text-anchor="middle" x="180" y="-167.5" font-family="Arial" font-size="10.00"> wndPreview</text>
</g>
<!-- Node6 -->
<g id="node6" class="node"><title>Node6</title>
<polygon fill="white" stroke="#bfbfbf" points="171,-296.5 171,-315.5 215,-315.5 215,-296.5 171,-296.5"/>
<text text-anchor="middle" x="193" y="-303.5" font-family="Arial" font-size="10.00">CWnd</text>
</g>
<!-- Node6&#45;&gt;Node5 -->
<g id="edge7" class="edge"><title>Node6&#45;&gt;Node5</title>
<path fill="none" stroke="midnightblue" d="M182.432,-287.563C174.686,-274.781 164.491,-257.96 158.358,-247.841"/>
<polygon fill="midnightblue" stroke="midnightblue" points="179.594,-289.634 187.771,-296.372 185.581,-286.006 179.594,-289.634"/>
</g>
<!-- Node7 -->
<g id="node7" class="node"><title>Node7</title>
<g id="a_node7"><a xlink:href="classid_g_l_drawable.html" target="_top" xlink:title="idGLDrawable">
<polygon fill="white" stroke="black" points="72.5,-296.5 72.5,-315.5 149.5,-315.5 149.5,-296.5 72.5,-296.5"/>
<text text-anchor="middle" x="111" y="-303.5" font-family="Arial" font-size="10.00">idGLDrawable</text>
</a>
</g>
</g>
<!-- Node7&#45;&gt;Node4 -->
<g id="edge9" class="edge"><title>Node7&#45;&gt;Node4</title>
<path fill="none" stroke="#9a32cd" stroke-dasharray="5,2" d="M102.197,-287.143C92.8305,-265.758 80.4508,-228.948 89,-198 100.181,-157.523 131.17,-116.946 145.524,-99.6658"/>
<polygon fill="#9a32cd" stroke="#9a32cd" points="99.065,-288.709 106.448,-296.308 105.415,-285.764 99.065,-288.709"/>
<text text-anchor="middle" x="119" y="-201.5" font-family="Arial" font-size="10.00"> testDrawable</text>
</g>
<!-- Node7&#45;&gt;Node5 -->
<g id="edge8" class="edge"><title>Node7&#45;&gt;Node5</title>
<path fill="none" stroke="#9a32cd" stroke-dasharray="5,2" d="M108.004,-286.042C107.818,-279.344 108.671,-271.993 112,-266 116.47,-257.953 124.465,-251.891 132.216,-247.57"/>
<polygon fill="#9a32cd" stroke="#9a32cd" points="104.557,-286.745 109.043,-296.343 111.521,-286.042 104.557,-286.745"/>
<text text-anchor="middle" x="133" y="-269.5" font-family="Arial" font-size="10.00"> drawable</text>
</g>
<!-- Node9 -->
<g id="node9" class="node"><title>Node9</title>
<g id="a_node9"><a xlink:href="classid_g_l_drawable_world.html" target="_top" xlink:title="idGLDrawableWorld">
<polygon fill="white" stroke="black" points="226,-228.5 226,-247.5 328,-247.5 328,-228.5 226,-228.5"/>
<text text-anchor="middle" x="277" y="-235.5" font-family="Arial" font-size="10.00">idGLDrawableWorld</text>
</a>
</g>
</g>
<!-- Node7&#45;&gt;Node9 -->
<g id="edge12" class="edge"><title>Node7&#45;&gt;Node9</title>
<path fill="none" stroke="midnightblue" d="M142.349,-292.536C175.462,-279.371 226.779,-258.967 255.556,-247.526"/>
<polygon fill="midnightblue" stroke="midnightblue" points="140.701,-289.425 132.702,-296.372 143.287,-295.929 140.701,-289.425"/>
</g>
<!-- Node8 -->
<g id="node8" class="node"><title>Node8</title>
<g id="a_node8"><a xlink:href="classid_g_l_drawable_material.html" target="_top" xlink:title="idGLDrawableMaterial">
<polygon fill="white" stroke="black" points="225.5,-160.5 225.5,-179.5 336.5,-179.5 336.5,-160.5 225.5,-160.5"/>
<text text-anchor="middle" x="281" y="-167.5" font-family="Arial" font-size="10.00">idGLDrawableMaterial</text>
</a>
</g>
</g>
<!-- Node8&#45;&gt;Node4 -->
<g id="edge10" class="edge"><title>Node8&#45;&gt;Node4</title>
<path fill="none" stroke="#9a32cd" stroke-dasharray="5,2" d="M255.63,-155.458C247.973,-151.254 239.588,-146.532 232,-142 208.174,-127.769 181.155,-109.948 165.69,-99.5814"/>
<polygon fill="#9a32cd" stroke="#9a32cd" points="254.047,-158.582 264.505,-160.282 257.39,-152.431 254.047,-158.582"/>
<text text-anchor="middle" x="261" y="-133.5" font-family="Arial" font-size="10.00"> drawMaterial</text>
</g>
<!-- Node9&#45;&gt;Node8 -->
<g id="edge11" class="edge"><title>Node9&#45;&gt;Node8</title>
<path fill="none" stroke="midnightblue" d="M278.149,-218.041C278.911,-205.472 279.875,-189.563 280.464,-179.841"/>
<polygon fill="midnightblue" stroke="midnightblue" points="274.634,-218.178 277.523,-228.372 281.622,-218.602 274.634,-218.178"/>
</g>
<!-- Node10 -->
<g id="node10" class="node"><title>Node10</title>
<g id="a_node10"><a xlink:href="classid_render_world.html" target="_top" xlink:title="idRenderWorld">
<polygon fill="white" stroke="black" points="233,-296.5 233,-315.5 313,-315.5 313,-296.5 233,-296.5"/>
<text text-anchor="middle" x="273" y="-303.5" font-family="Arial" font-size="10.00">idRenderWorld</text>
</a>
</g>
</g>
<!-- Node10&#45;&gt;Node9 -->
<g id="edge13" class="edge"><title>Node10&#45;&gt;Node9</title>
<path fill="none" stroke="#9a32cd" stroke-dasharray="5,2" d="M274.149,-286.041C274.911,-273.472 275.875,-257.563 276.464,-247.841"/>
<polygon fill="#9a32cd" stroke="#9a32cd" points="270.634,-286.178 273.523,-296.372 277.622,-286.602 270.634,-286.178"/>
<text text-anchor="middle" x="289" y="-269.5" font-family="Arial" font-size="10.00"> world</text>
</g>
<!-- Node11 -->
<g id="node11" class="node"><title>Node11</title>
<g id="a_node11"><a xlink:href="classid_render_model.html" target="_top" xlink:title="idRenderModel">
<polygon fill="white" stroke="black" points="331.5,-296.5 331.5,-315.5 412.5,-315.5 412.5,-296.5 331.5,-296.5"/>
<text text-anchor="middle" x="372" y="-303.5" font-family="Arial" font-size="10.00">idRenderModel</text>
</a>
</g>
</g>
<!-- Node11&#45;&gt;Node9 -->
<g id="edge14" class="edge"><title>Node11&#45;&gt;Node9</title>
<path fill="none" stroke="#9a32cd" stroke-dasharray="5,2" d="M351.321,-290.634C332.438,-277.515 305.142,-258.551 289.423,-247.63"/>
<polygon fill="#9a32cd" stroke="#9a32cd" points="349.371,-293.54 359.58,-296.372 353.365,-287.792 349.371,-293.54"/>
<text text-anchor="middle" x="360" y="-269.5" font-family="Arial" font-size="10.00"> worldModel</text>
</g>
<!-- Node12 -->
<g id="node12" class="node"><title>Node12</title>
<g id="a_node12"><a xlink:href="classid_material.html" target="_top" xlink:title="idMaterial">
<polygon fill="white" stroke="black" points="381.5,-228.5 381.5,-247.5 440.5,-247.5 440.5,-228.5 381.5,-228.5"/>
<text text-anchor="middle" x="411" y="-235.5" font-family="Arial" font-size="10.00">idMaterial</text>
</a>
</g>
</g>
<!-- Node12&#45;&gt;Node8 -->
<g id="edge15" class="edge"><title>Node12&#45;&gt;Node8</title>
<path fill="none" stroke="#9a32cd" stroke-dasharray="5,2" d="M384.781,-223.689C358.902,-210.55 320.094,-190.848 297.999,-179.63"/>
<polygon fill="#9a32cd" stroke="#9a32cd" points="383.504,-226.966 394.005,-228.372 386.673,-220.724 383.504,-226.966"/>
<text text-anchor="middle" x="377" y="-201.5" font-family="Arial" font-size="10.00"> material</text>
</g>
<!-- Node13 -->
<g id="node13" class="node"><title>Node13</title>
<g id="a_node13"><a xlink:href="classid_decl.html" target="_top" xlink:title="idDecl">
<polygon fill="white" stroke="black" points="431,-296.5 431,-315.5 475,-315.5 475,-296.5 431,-296.5"/>
<text text-anchor="middle" x="453" y="-303.5" font-family="Arial" font-size="10.00">idDecl</text>
</a>
</g>
</g>
<!-- Node13&#45;&gt;Node12 -->
<g id="edge16" class="edge"><title>Node13&#45;&gt;Node12</title>
<path fill="none" stroke="midnightblue" d="M441.904,-287.563C433.77,-274.781 423.065,-257.96 416.626,-247.841"/>
<polygon fill="midnightblue" stroke="midnightblue" points="439.188,-289.814 447.509,-296.372 445.093,-286.056 439.188,-289.814"/>
</g>
<!-- Node14 -->
<g id="node14" class="node"><title>Node14</title>
<g id="a_node14"><a xlink:href="classid_decl_base.html" target="_top" xlink:title="idDeclBase">
<polygon fill="white" stroke="black" points="420,-364.5 420,-383.5 486,-383.5 486,-364.5 420,-364.5"/>
<text text-anchor="middle" x="453" y="-371.5" font-family="Arial" font-size="10.00">idDeclBase</text>
</a>
</g>
</g>
<!-- Node14&#45;&gt;Node13 -->
<g id="edge17" class="edge"><title>Node14&#45;&gt;Node13</title>
<path fill="none" stroke="#9a32cd" stroke-dasharray="5,2" d="M453,-354.041C453,-341.472 453,-325.563 453,-315.841"/>
<polygon fill="#9a32cd" stroke="#9a32cd" points="449.5,-354.372 453,-364.372 456.5,-354.372 449.5,-354.372"/>
<text text-anchor="middle" x="465.5" y="-337.5" font-family="Arial" font-size="10.00"> base</text>
</g>
</g>
</svg>
