<?xml version="1.0" encoding="UTF-8" standalone="no"?>
<!DOCTYPE svg PUBLIC "-//W3C//DTD SVG 1.1//EN"
 "http://www.w3.org/Graphics/SVG/1.1/DTD/svg11.dtd">
<!-- Generated by graphviz version 2.34.0 (20130907.0111)
 -->
<!-- Title: CPropTreeItemCheck Pages: 1 -->
<svg width="159pt" height="84pt"
 viewBox="0.00 0.00 159.00 84.00" xmlns="http://www.w3.org/2000/svg" xmlns:xlink="http://www.w3.org/1999/xlink">
<g id="graph0" class="graph" transform="scale(1 1) rotate(0) translate(4 80)">
<title>CPropTreeItemCheck</title>
<polygon fill="white" stroke="white" points="-4,4 -4,-80 155,-80 155,4 -4,4"/>
<!-- Node1 -->
<g id="node1" class="node"><title>Node1</title>
<polygon fill="#bfbfbf" stroke="black" points="13.5,-0.5 13.5,-19.5 122.5,-19.5 122.5,-0.5 13.5,-0.5"/>
<text text-anchor="middle" x="68" y="-7.5" font-family="Arial" font-size="10.00">CPropTreeItemCheck</text>
</g>
<!-- Node2 -->
<g id="node2" class="node"><title>Node2</title>
<polygon fill="white" stroke="#bfbfbf" points="0,-56.5 0,-75.5 52,-75.5 52,-56.5 0,-56.5"/>
<text text-anchor="middle" x="26" y="-63.5" font-family="Arial" font-size="10.00">CButton</text>
</g>
<!-- Node2&#45;&gt;Node1 -->
<g id="edge1" class="edge"><title>Node2&#45;&gt;Node1</title>
<path fill="none" stroke="midnightblue" d="M39.1102,-48.144C46.4278,-38.7357 55.2409,-27.4046 61.1936,-19.7511"/>
<polygon fill="midnightblue" stroke="midnightblue" points="36.3122,-46.0406 32.9354,-56.083 41.8376,-50.3383 36.3122,-46.0406"/>
</g>
<!-- Node3 -->
<g id="node3" class="node"><title>Node3</title>
<g id="a_node3"><a xlink:href="class_c_prop_tree_item.html" target="_top" xlink:title="CPropTreeItem">
<polygon fill="white" stroke="black" points="70.5,-56.5 70.5,-75.5 151.5,-75.5 151.5,-56.5 70.5,-56.5"/>
<text text-anchor="middle" x="111" y="-63.5" font-family="Arial" font-size="10.00">CPropTreeItem</text>
</a>
</g>
</g>
<!-- Node3&#45;&gt;Node1 -->
<g id="edge2" class="edge"><title>Node3&#45;&gt;Node1</title>
<path fill="none" stroke="midnightblue" d="M97.5776,-48.144C90.0858,-38.7357 81.0629,-27.4046 74.9685,-19.7511"/>
<polygon fill="midnightblue" stroke="midnightblue" points="94.9321,-50.4404 103.899,-56.083 100.408,-46.0799 94.9321,-50.4404"/>
</g>
</g>
</svg>
