<?xml version="1.0" encoding="UTF-8" standalone="no"?>
<!DOCTYPE svg PUBLIC "-//W3C//DTD SVG 1.1//EN"
 "http://www.w3.org/Graphics/SVG/1.1/DTD/svg11.dtd">
<!-- Generated by graphviz version 2.34.0 (20130907.0111)
 -->
<!-- Title: CPropTreeList Pages: 1 -->
<svg width="328pt" height="289pt"
 viewBox="0.00 0.00 328.00 288.50" xmlns="http://www.w3.org/2000/svg" xmlns:xlink="http://www.w3.org/1999/xlink">
<g id="graph0" class="graph" transform="scale(1 1) rotate(0) translate(4 284.5)">
<title>CPropTreeList</title>
<polygon fill="white" stroke="white" points="-4,4 -4,-284.5 324,-284.5 324,4 -4,4"/>
<!-- Node1 -->
<g id="node1" class="node"><title>Node1</title>
<polygon fill="#bfbfbf" stroke="black" points="102,-203 102,-222 180,-222 180,-203 102,-203"/>
<text text-anchor="middle" x="141" y="-210" font-family="Arial" font-size="10.00">CPropTreeList</text>
</g>
<!-- Node3 -->
<g id="node3" class="node"><title>Node3</title>
<g id="a_node3"><a xlink:href="class_c_prop_tree.html" target="_top" xlink:title="CPropTree">
<polygon fill="white" stroke="black" points="119,-135 119,-154 181,-154 181,-135 119,-135"/>
<text text-anchor="middle" x="150" y="-142" font-family="Arial" font-size="10.00">CPropTree</text>
</a>
</g>
</g>
<!-- Node1&#45;&gt;Node3 -->
<g id="edge4" class="edge"><title>Node1&#45;&gt;Node3</title>
<path fill="none" stroke="#9a32cd" stroke-dasharray="5,2" d="M117.261,-196.945C109.134,-190.029 103.169,-181.349 108,-172.5 112.403,-164.435 120.361,-158.42 128.174,-154.14"/>
<polygon fill="#9a32cd" stroke="#9a32cd" points="115.31,-199.856 125.433,-202.984 119.471,-194.226 115.31,-199.856"/>
<text text-anchor="middle" x="124.5" y="-176" font-family="Arial" font-size="10.00"> m_List</text>
</g>
<!-- Node2 -->
<g id="node2" class="node"><title>Node2</title>
<polygon fill="white" stroke="#bfbfbf" points="163,-261 163,-280 207,-280 207,-261 163,-261"/>
<text text-anchor="middle" x="185" y="-268" font-family="Arial" font-size="10.00">CWnd</text>
</g>
<!-- Node2&#45;&gt;Node1 -->
<g id="edge1" class="edge"><title>Node2&#45;&gt;Node1</title>
<path fill="none" stroke="midnightblue" d="M171.744,-252.629C163.803,-242.522 154.046,-230.104 147.683,-222.005"/>
<polygon fill="midnightblue" stroke="midnightblue" points="169.195,-255.049 178.125,-260.75 174.699,-250.724 169.195,-255.049"/>
</g>
<!-- Node2&#45;&gt;Node3 -->
<g id="edge3" class="edge"><title>Node2&#45;&gt;Node3</title>
<path fill="none" stroke="midnightblue" d="M192.521,-251.382C199.77,-230.878 207.785,-197.133 194,-172.5 189.448,-164.366 181.333,-158.385 173.301,-154.15"/>
<polygon fill="midnightblue" stroke="midnightblue" points="189.23,-250.189 188.919,-260.78 195.766,-252.694 189.23,-250.189"/>
</g>
<!-- Node3&#45;&gt;Node1 -->
<g id="edge2" class="edge"><title>Node3&#45;&gt;Node1</title>
<path fill="none" stroke="#9a32cd" stroke-dasharray="5,2" d="M147.429,-164.35C145.701,-177.028 143.503,-193.143 142.177,-202.872"/>
<polygon fill="#9a32cd" stroke="#9a32cd" points="150.911,-164.722 148.794,-154.341 143.975,-163.776 150.911,-164.722"/>
<text text-anchor="middle" x="168.5" y="-176" font-family="Arial" font-size="10.00"> m_pProp</text>
</g>
<!-- Node4 -->
<g id="node4" class="node"><title>Node4</title>
<g id="a_node4"><a xlink:href="class_c_prop_tree_item.html" target="_top" xlink:title="CPropTreeItem">
<polygon fill="white" stroke="black" points="170.5,-18 170.5,-37 251.5,-37 251.5,-18 170.5,-18"/>
<text text-anchor="middle" x="211" y="-25" font-family="Arial" font-size="10.00">CPropTreeItem</text>
</a>
</g>
</g>
<!-- Node3&#45;&gt;Node4 -->
<g id="edge6" class="edge"><title>Node3&#45;&gt;Node4</title>
<path fill="none" stroke="#9a32cd" stroke-dasharray="5,2" d="M154.649,-124.84C158.775,-110.064 165.61,-89.2028 175,-72.5 182.545,-59.0784 194.263,-45.6755 202.266,-37.2525"/>
<polygon fill="#9a32cd" stroke="#9a32cd" points="151.192,-124.222 152.024,-134.784 157.96,-126.009 151.192,-124.222"/>
<text text-anchor="middle" x="196.5" y="-92" font-family="Arial" font-size="10.00"> m_pProp</text>
</g>
<!-- Node5 -->
<g id="node5" class="node"><title>Node5</title>
<g id="a_node5"><a xlink:href="class_c_prop_tree_info.html" target="_top" xlink:title="CPropTreeInfo">
<polygon fill="white" stroke="black" points="18.5,-18 18.5,-37 95.5,-37 95.5,-18 18.5,-18"/>
<text text-anchor="middle" x="57" y="-25" font-family="Arial" font-size="10.00">CPropTreeInfo</text>
</a>
</g>
</g>
<!-- Node3&#45;&gt;Node5 -->
<g id="edge10" class="edge"><title>Node3&#45;&gt;Node5</title>
<path fill="none" stroke="#9a32cd" stroke-dasharray="5,2" d="M108.582,-142.82C88.76,-140.135 66.6418,-133.188 54,-116.5 36,-92.7392 47.1625,-54.1175 53.5042,-37.061"/>
<polygon fill="#9a32cd" stroke="#9a32cd" points="108.368,-146.316 118.675,-143.864 109.089,-139.353 108.368,-146.316"/>
<text text-anchor="middle" x="75.5" y="-92" font-family="Arial" font-size="10.00"> m_pProp</text>
</g>
<!-- Node4&#45;&gt;Node3 -->
<g id="edge5" class="edge"><title>Node4&#45;&gt;Node3</title>
<path fill="none" stroke="#9a32cd" stroke-dasharray="5,2" d="M219.859,-46.495C227.856,-65.5831 236.355,-95.7855 222,-116.5 212.799,-129.777 196.211,-136.535 181.274,-139.97"/>
<polygon fill="#9a32cd" stroke="#9a32cd" points="222.942,-44.8192 215.617,-37.1647 216.57,-47.7166 222.942,-44.8192"/>
<text text-anchor="middle" x="261" y="-108.5" font-family="Arial" font-size="10.00"> m_Root</text>
<text text-anchor="middle" x="261" y="-97.5" font-family="Arial" font-size="10.00">m_pVisbleList</text>
<text text-anchor="middle" x="261" y="-86.5" font-family="Arial" font-size="10.00">m_pFocus</text>
<text text-anchor="middle" x="261" y="-75.5" font-family="Arial" font-size="10.00">s_pFound</text>
</g>
<!-- Node4&#45;&gt;Node4 -->
<g id="edge7" class="edge"><title>Node4&#45;&gt;Node4</title>
<path fill="none" stroke="#9a32cd" stroke-dasharray="5,2" d="M238.895,-39.2608C254.547,-41.5082 269,-37.5879 269,-27.5 269,-15.3184 247.924,-12.1302 229.113,-17.9355"/>
<polygon fill="#9a32cd" stroke="#9a32cd" points="239.637,-35.8404 229.113,-37.0645 238.103,-42.6703 239.637,-35.8404"/>
<text text-anchor="middle" x="294.5" y="-47" font-family="Arial" font-size="10.00"> m_pParent</text>
<text text-anchor="middle" x="294.5" y="-36" font-family="Arial" font-size="10.00">m_pVis</text>
<text text-anchor="middle" x="294.5" y="-25" font-family="Arial" font-size="10.00">m_pSibling</text>
<text text-anchor="middle" x="294.5" y="-14" font-family="Arial" font-size="10.00">m_pChild</text>
<text text-anchor="middle" x="294.5" y="-3" font-family="Arial" font-size="10.00">m_lParam</text>
</g>
<!-- Node5&#45;&gt;Node3 -->
<g id="edge8" class="edge"><title>Node5&#45;&gt;Node3</title>
<path fill="none" stroke="#9a32cd" stroke-dasharray="5,2" d="M75.1104,-43.9543C83.6815,-51.8914 93.6279,-62.0714 101,-72.5 113.508,-90.194 109.332,-98.9204 122,-116.5 126.896,-123.294 133.618,-129.841 139.249,-134.786"/>
<polygon fill="#9a32cd" stroke="#9a32cd" points="77.2302,-41.1546 67.4432,-37.0969 72.5637,-46.3722 77.2302,-41.1546"/>
<text text-anchor="middle" x="138" y="-92" font-family="Arial" font-size="10.00"> m_Info</text>
</g>
<!-- Node6 -->
<g id="node6" class="node"><title>Node6</title>
<polygon fill="white" stroke="#bfbfbf" points="-0.5,-135 -0.5,-154 48.5,-154 48.5,-135 -0.5,-135"/>
<text text-anchor="middle" x="24" y="-142" font-family="Arial" font-size="10.00">CStatic</text>
</g>
<!-- Node6&#45;&gt;Node5 -->
<g id="edge9" class="edge"><title>Node6&#45;&gt;Node5</title>
<path fill="none" stroke="midnightblue" d="M26.6312,-124.425C28.895,-109.973 32.6481,-89.7307 38,-72.5 41.949,-59.7861 48.3836,-45.7771 52.6543,-37.0582"/>
<polygon fill="midnightblue" stroke="midnightblue" points="23.1263,-124.203 25.1329,-134.606 30.0517,-125.222 23.1263,-124.203"/>
</g>
</g>
</svg>
