<?xml version="1.0" encoding="UTF-8" standalone="no"?>
<!DOCTYPE svg PUBLIC "-//W3C//DTD SVG 1.1//EN"
 "http://www.w3.org/Graphics/SVG/1.1/DTD/svg11.dtd">
<!-- Generated by graphviz version 2.34.0 (20130907.0111)
 -->
<!-- Title: rvGEZOrderModifier Pages: 1 -->
<!--zoomable 1168 -->
<svg id="main" version="1.1" xmlns="http://www.w3.org/2000/svg" xmlns:xlink="http://www.w3.org/1999/xlink" xml:space="preserve" onload="init(evt)">
<style type="text/css"><![CDATA[
.edge:hover path { stroke: red; }
.edge:hover polygon { stroke: red; fill: red; }
]]></style>
<script type="text/javascript"><![CDATA[
var edges = document.getElementsByTagName('g');
if (edges && edges.length) {
  for (var i=0;i<edges.length;i++) {
    if (edges[i].id.substr(0,4)=='edge') {
      edges[i].setAttribute('class','edge');
    }
  }
}
]]></script>
        <defs>
                <circle id="rim" cx="0" cy="0" r="7"/>
                <circle id="rim2" cx="0" cy="0" r="3.5"/>
                <g id="zoomPlus">
                        <use xlink:href="#rim" fill="#404040">
                                <set attributeName="fill" to="#808080" begin="zoomplus.mouseover" end="zoomplus.mouseout"/>
                        </use>
                        <path d="M-4,0h8M0,-4v8" fill="none" stroke="white" stroke-width="1.5" pointer-events="none"/>
                </g>
                <g id="zoomMin">
                        <use xlink:href="#rim" fill="#404040">
                                <set attributeName="fill" to="#808080" begin="zoomminus.mouseover" end="zoomminus.mouseout"/>
                        </use>
                        <path d="M-4,0h8" fill="none" stroke="white" stroke-width="1.5" pointer-events="none"/>
                </g>
                <g id="dirArrow">
                        <path fill="none" stroke="white" stroke-width="1.5" d="M0,-3.0v7 M-2.5,-0.5L0,-3.0L2.5,-0.5"/>
                </g>
               <g id="resetDef">
                       <use xlink:href="#rim2" fill="#404040">
                               <set attributeName="fill" to="#808080" begin="reset.mouseover" end="reset.mouseout"/>
                       </use>
               </g>
        </defs>

<script type="text/javascript">
var viewWidth = 1274;
var viewHeight = 1168;
var sectionId = 'dynsection-1';
</script>
<script xlink:href="svgpan.js"/>
<svg id="graph" class="graph">
<g id="viewport">
<title>rvGEZOrderModifier</title>
<polygon fill="white" stroke="white" points="-4,4 -4,-1164 1270,-1164 1270,4 -4,4"/>
<!-- Node1 -->
<g id="node1" class="node"><title>Node1</title>
<polygon fill="#bfbfbf" stroke="black" points="1164.5,-496.5 1164.5,-515.5 1265.5,-515.5 1265.5,-496.5 1164.5,-496.5"/>
<text text-anchor="middle" x="1215" y="-503.5" font-family="Arial" font-size="10.00">rvGEZOrderModifier</text>
</g>
<!-- Node2 -->
<g id="node2" class="node"><title>Node2</title>
<g id="a_node2"><a xlink:href="classrv_g_e_modifier.html" target="_top" xlink:title="rvGEModifier">
<polygon fill="white" stroke="black" points="1054.5,-522.5 1054.5,-541.5 1125.5,-541.5 1125.5,-522.5 1054.5,-522.5"/>
<text text-anchor="middle" x="1090" y="-529.5" font-family="Arial" font-size="10.00">rvGEModifier</text>
</a>
</g>
</g>
<!-- Node2&#45;&gt;Node1 -->
<g id="edge1" class="edge"><title>Node2&#45;&gt;Node1</title>
<path fill="none" stroke="midnightblue" d="M1135.62,-522.568C1146.37,-520.296 1157.86,-517.867 1168.64,-515.587"/>
<polygon fill="midnightblue" stroke="midnightblue" points="1134.65,-519.196 1125.59,-524.688 1136.1,-526.044 1134.65,-519.196"/>
</g>
<!-- Node3 -->
<g id="node3" class="node"><title>Node3</title>
<g id="a_node3"><a xlink:href="classid_str.html" target="_top" xlink:title="idStr">
<polygon fill="white" stroke="black" points="145.5,-1010.5 145.5,-1029.5 182.5,-1029.5 182.5,-1010.5 145.5,-1010.5"/>
<text text-anchor="middle" x="164" y="-1017.5" font-family="Arial" font-size="10.00">idStr</text>
</a>
</g>
</g>
<!-- Node3&#45;&gt;Node2 -->
<g id="edge2" class="edge"><title>Node3&#45;&gt;Node2</title>
<path fill="none" stroke="#9a32cd" stroke-dasharray="5,2" d="M172.833,-1039.11C188.968,-1075.02 229.543,-1149 290,-1149 290,-1149 290,-1149 902,-1149 1034.64,-1149 1081.96,-620.187 1088.25,-541.692"/>
<polygon fill="#9a32cd" stroke="#9a32cd" points="175.947,-1037.49 168.773,-1029.7 169.519,-1040.26 175.947,-1037.49"/>
<text text-anchor="middle" x="641" y="-1152" font-family="Arial" font-size="10.00"> mName</text>
</g>
<!-- Node4 -->
<g id="node4" class="node"><title>Node4</title>
<g id="a_node4"><a xlink:href="classid_window.html" target="_top" xlink:title="idWindow">
<polygon fill="white" stroke="black" points="704.5,-503.5 704.5,-522.5 763.5,-522.5 763.5,-503.5 704.5,-503.5"/>
<text text-anchor="middle" x="734" y="-510.5" font-family="Arial" font-size="10.00">idWindow</text>
</a>
</g>
</g>
<!-- Node3&#45;&gt;Node4 -->
<g id="edge11" class="edge"><title>Node3&#45;&gt;Node4</title>
<path fill="none" stroke="#9a32cd" stroke-dasharray="5,2" d="M192.63,-1027.51C209.215,-1031.93 230.761,-1037.51 250,-1042 438.802,-1086.07 559.558,-1202.97 686,-1056 722.255,-1013.86 731.553,-591.518 732.835,-522.512"/>
<polygon fill="#9a32cd" stroke="#9a32cd" points="193.086,-1024.01 182.521,-1024.8 191.273,-1030.77 193.086,-1024.01"/>
<text text-anchor="middle" x="387" y="-1123" font-family="Arial" font-size="10.00"> comment</text>
<text text-anchor="middle" x="387" y="-1112" font-family="Arial" font-size="10.00">cmd</text>
<text text-anchor="middle" x="387" y="-1101" font-family="Arial" font-size="10.00">name</text>
</g>
<!-- Node12 -->
<g id="node12" class="node"><title>Node12</title>
<g id="a_node12"><a xlink:href="classid_win_str.html" target="_top" xlink:title="idWinStr">
<polygon fill="white" stroke="black" points="264,-828.5 264,-847.5 318,-847.5 318,-828.5 264,-828.5"/>
<text text-anchor="middle" x="291" y="-835.5" font-family="Arial" font-size="10.00">idWinStr</text>
</a>
</g>
</g>
<!-- Node3&#45;&gt;Node12 -->
<g id="edge16" class="edge"><title>Node3&#45;&gt;Node12</title>
<path fill="none" stroke="#9a32cd" stroke-dasharray="5,2" d="M170.71,-1000.82C181.295,-968.313 206.897,-902.109 250,-863 256.429,-857.167 264.392,-851.878 271.516,-847.683"/>
<polygon fill="#9a32cd" stroke="#9a32cd" points="167.337,-999.88 167.692,-1010.47 174.018,-1001.97 167.337,-999.88"/>
<text text-anchor="middle" x="221" y="-915" font-family="Arial" font-size="10.00"> data</text>
</g>
<!-- Node18 -->
<g id="node18" class="node"><title>Node18</title>
<g id="a_node18"><a xlink:href="classid_win_background.html" target="_top" xlink:title="idWinBackground">
<polygon fill="white" stroke="black" points="463.5,-899.5 463.5,-918.5 556.5,-918.5 556.5,-899.5 463.5,-899.5"/>
<text text-anchor="middle" x="510" y="-906.5" font-family="Arial" font-size="10.00">idWinBackground</text>
</a>
</g>
</g>
<!-- Node3&#45;&gt;Node18 -->
<g id="edge26" class="edge"><title>Node3&#45;&gt;Node18</title>
<path fill="none" stroke="#9a32cd" stroke-dasharray="5,2" d="M181.949,-1003.04C198.046,-987.971 223.644,-966.59 250,-955 320.233,-924.114 409.827,-913.955 463.124,-910.621"/>
<polygon fill="#9a32cd" stroke="#9a32cd" points="179.224,-1000.8 174.443,-1010.26 184.076,-1005.85 179.224,-1000.8"/>
<text text-anchor="middle" x="291" y="-958" font-family="Arial" font-size="10.00"> data</text>
</g>
<!-- Node4&#45;&gt;Node1 -->
<g id="edge51" class="edge"><title>Node4&#45;&gt;Node1</title>
<path fill="none" stroke="#9a32cd" stroke-dasharray="5,2" d="M773.675,-509.564C830.948,-504.847 941.708,-497.147 1036,-499 1079.29,-499.851 1128.47,-501.865 1164.14,-503.515"/>
<polygon fill="#9a32cd" stroke="#9a32cd" points="773.292,-506.083 763.62,-510.407 773.877,-513.059 773.292,-506.083"/>
<text text-anchor="middle" x="1005" y="-513" font-family="Arial" font-size="10.00"> mUndoBefore</text>
<text text-anchor="middle" x="1005" y="-502" font-family="Arial" font-size="10.00">mBefore</text>
</g>
<!-- Node4&#45;&gt;Node2 -->
<g id="edge3" class="edge"><title>Node4&#45;&gt;Node2</title>
<path fill="none" stroke="#9a32cd" stroke-dasharray="5,2" d="M773.758,-515.08C843.262,-518.811 988.025,-526.58 1054.4,-530.143"/>
<polygon fill="#9a32cd" stroke="#9a32cd" points="773.843,-511.58 763.669,-514.539 773.467,-518.57 773.843,-511.58"/>
<text text-anchor="middle" x="901" y="-527" font-family="Arial" font-size="10.00"> mWindow</text>
</g>
<!-- Node4&#45;&gt;Node4 -->
<g id="edge13" class="edge"><title>Node4&#45;&gt;Node4</title>
<path fill="none" stroke="#9a32cd" stroke-dasharray="5,2" d="M721.109,-532.766C722.122,-537.497 726.419,-541 734,-541 746.441,-541 750.038,-531.565 744.789,-522.757"/>
<polygon fill="#9a32cd" stroke="#9a32cd" points="724.581,-533.263 723.211,-522.757 717.73,-531.824 724.581,-533.263"/>
<text text-anchor="middle" x="734" y="-577" font-family="Arial" font-size="10.00"> captureChild</text>
<text text-anchor="middle" x="734" y="-566" font-family="Arial" font-size="10.00">overChild</text>
<text text-anchor="middle" x="734" y="-555" font-family="Arial" font-size="10.00">parent</text>
<text text-anchor="middle" x="734" y="-544" font-family="Arial" font-size="10.00">focusedChild</text>
</g>
<!-- Node35 -->
<g id="node35" class="node"><title>Node35</title>
<g id="a_node35"><a xlink:href="classrv_g_e_window_wrapper.html" target="_top" xlink:title="rvGEWindowWrapper">
<polygon fill="white" stroke="black" points="846.5,-235.5 846.5,-254.5 955.5,-254.5 955.5,-235.5 846.5,-235.5"/>
<text text-anchor="middle" x="901" y="-242.5" font-family="Arial" font-size="10.00">rvGEWindowWrapper</text>
</a>
</g>
</g>
<!-- Node4&#45;&gt;Node35 -->
<g id="edge48" class="edge"><title>Node4&#45;&gt;Node35</title>
<path fill="none" stroke="#9a32cd" stroke-dasharray="5,2" d="M746.127,-494.927C778.139,-442.932 869.732,-294.162 894.025,-254.704"/>
<polygon fill="#9a32cd" stroke="#9a32cd" points="743.135,-493.111 740.872,-503.462 749.096,-496.781 743.135,-493.111"/>
<text text-anchor="middle" x="805" y="-436" font-family="Arial" font-size="10.00"> mWindow</text>
</g>
<!-- Node5 -->
<g id="node5" class="node"><title>Node5</title>
<g id="a_node5"><a xlink:href="classid_device_context.html" target="_top" xlink:title="idDeviceContext">
<polygon fill="white" stroke="black" points="467,-629.5 467,-648.5 553,-648.5 553,-629.5 467,-629.5"/>
<text text-anchor="middle" x="510" y="-636.5" font-family="Arial" font-size="10.00">idDeviceContext</text>
</a>
</g>
</g>
<!-- Node5&#45;&gt;Node4 -->
<g id="edge4" class="edge"><title>Node5&#45;&gt;Node4</title>
<path fill="none" stroke="#9a32cd" stroke-dasharray="5,2" d="M552.76,-650.816C590.956,-658.982 647.249,-664.081 686,-637 724.685,-609.965 731.552,-546.713 732.753,-522.584"/>
<polygon fill="#9a32cd" stroke="#9a32cd" points="553.508,-647.397 542.979,-648.574 551.944,-654.22 553.508,-647.397"/>
<text text-anchor="middle" x="641" y="-660" font-family="Arial" font-size="10.00"> dc</text>
</g>
<!-- Node6 -->
<g id="node6" class="node"><title>Node6</title>
<g id="a_node6"><a xlink:href="classid_vec4.html" target="_top" xlink:title="idVec4">
<polygon fill="white" stroke="black" points="267.5,-607.5 267.5,-626.5 314.5,-626.5 314.5,-607.5 267.5,-607.5"/>
<text text-anchor="middle" x="291" y="-614.5" font-family="Arial" font-size="10.00">idVec4</text>
</a>
</g>
</g>
<!-- Node6&#45;&gt;Node5 -->
<g id="edge5" class="edge"><title>Node6&#45;&gt;Node5</title>
<path fill="none" stroke="#9a32cd" stroke-dasharray="5,2" d="M325.267,-618.923C351.991,-620.612 390.463,-623.366 424,-627 437.928,-628.509 453.087,-630.528 466.697,-632.479"/>
<polygon fill="#9a32cd" stroke="#9a32cd" points="325.13,-615.408 314.934,-618.286 324.7,-622.395 325.13,-615.408"/>
<text text-anchor="middle" x="387" y="-718" font-family="Arial" font-size="10.00"> colorRed</text>
<text text-anchor="middle" x="387" y="-707" font-family="Arial" font-size="10.00">colorNone</text>
<text text-anchor="middle" x="387" y="-696" font-family="Arial" font-size="10.00">colorYellow</text>
<text text-anchor="middle" x="387" y="-685" font-family="Arial" font-size="10.00">colorPurple</text>
<text text-anchor="middle" x="387" y="-674" font-family="Arial" font-size="10.00">colorBlue</text>
<text text-anchor="middle" x="387" y="-663" font-family="Arial" font-size="10.00">colorWhite</text>
<text text-anchor="middle" x="387" y="-652" font-family="Arial" font-size="10.00">colorGreen</text>
<text text-anchor="middle" x="387" y="-641" font-family="Arial" font-size="10.00">colorOrange</text>
<text text-anchor="middle" x="387" y="-630" font-family="Arial" font-size="10.00">colorBlack</text>
</g>
<!-- Node7 -->
<g id="node7" class="node"><title>Node7</title>
<g id="a_node7"><a xlink:href="classid_win_vec4.html" target="_top" xlink:title="idWinVec4">
<polygon fill="white" stroke="black" points="478,-591.5 478,-610.5 542,-610.5 542,-591.5 478,-591.5"/>
<text text-anchor="middle" x="510" y="-598.5" font-family="Arial" font-size="10.00">idWinVec4</text>
</a>
</g>
</g>
<!-- Node6&#45;&gt;Node7 -->
<g id="edge9" class="edge"><title>Node6&#45;&gt;Node7</title>
<path fill="none" stroke="#9a32cd" stroke-dasharray="5,2" d="M324.359,-604.404C332.596,-601.755 341.52,-599.354 350,-598 394.031,-590.972 445.787,-594.005 477.997,-597.202"/>
<polygon fill="#9a32cd" stroke="#9a32cd" points="323.053,-601.151 314.729,-607.705 325.323,-607.773 323.053,-601.151"/>
<text text-anchor="middle" x="387" y="-601" font-family="Arial" font-size="10.00"> data</text>
</g>
<!-- Node7&#45;&gt;Node4 -->
<g id="edge6" class="edge"><title>Node7&#45;&gt;Node4</title>
<path fill="none" stroke="#9a32cd" stroke-dasharray="5,2" d="M551.924,-591.756C601.757,-580.414 680.068,-562.28 686,-559 702.586,-549.829 717.424,-533.21 725.807,-522.658"/>
<polygon fill="#9a32cd" stroke="#9a32cd" points="551.04,-588.368 542.064,-593.996 552.59,-595.194 551.04,-588.368"/>
<text text-anchor="middle" x="641" y="-627" font-family="Arial" font-size="10.00"> foreColor</text>
<text text-anchor="middle" x="641" y="-616" font-family="Arial" font-size="10.00">matColor</text>
<text text-anchor="middle" x="641" y="-605" font-family="Arial" font-size="10.00">hoverColor</text>
<text text-anchor="middle" x="641" y="-594" font-family="Arial" font-size="10.00">borderColor</text>
<text text-anchor="middle" x="641" y="-583" font-family="Arial" font-size="10.00">backColor</text>
</g>
<!-- Node8 -->
<g id="node8" class="node"><title>Node8</title>
<g id="a_node8"><a xlink:href="classid_win_var.html" target="_top" xlink:title="idWinVar">
<polygon fill="white" stroke="black" points="136,-611.5 136,-630.5 192,-630.5 192,-611.5 136,-611.5"/>
<text text-anchor="middle" x="164" y="-618.5" font-family="Arial" font-size="10.00">idWinVar</text>
</a>
</g>
</g>
<!-- Node8&#45;&gt;Node7 -->
<g id="edge7" class="edge"><title>Node8&#45;&gt;Node7</title>
<path fill="none" stroke="midnightblue" d="M202.077,-609.459C216.856,-605.256 234.105,-600.843 250,-598 326.227,-584.364 346.754,-583.574 424,-589 441.84,-590.253 461.632,-592.968 477.626,-595.499"/>
<polygon fill="midnightblue" stroke="midnightblue" points="200.907,-606.154 192.286,-612.313 202.866,-612.874 200.907,-606.154"/>
</g>
<!-- Node8&#45;&gt;Node12 -->
<g id="edge15" class="edge"><title>Node8&#45;&gt;Node12</title>
<path fill="none" stroke="midnightblue" d="M168.923,-640.577C174.885,-667.376 187.931,-716.335 210,-753 228.916,-784.426 261.075,-813.905 278.295,-828.48"/>
<polygon fill="midnightblue" stroke="midnightblue" points="172.294,-639.605 166.795,-630.549 165.447,-641.057 172.294,-639.605"/>
</g>
<!-- Node13 -->
<g id="node13" class="node"><title>Node13</title>
<g id="a_node13"><a xlink:href="classid_win_rectangle.html" target="_top" xlink:title="idWinRectangle">
<polygon fill="white" stroke="black" points="467.5,-256.5 467.5,-275.5 552.5,-275.5 552.5,-256.5 467.5,-256.5"/>
<text text-anchor="middle" x="510" y="-263.5" font-family="Arial" font-size="10.00">idWinRectangle</text>
</a>
</g>
</g>
<!-- Node8&#45;&gt;Node13 -->
<g id="edge18" class="edge"><title>Node8&#45;&gt;Node13</title>
<path fill="none" stroke="midnightblue" d="M166.357,-601.133C171.642,-530.33 193.433,-292.153 250,-247 282.638,-220.947 403.664,-242.549 468.066,-256.479"/>
<polygon fill="midnightblue" stroke="midnightblue" points="162.849,-601.114 165.624,-611.339 169.831,-601.615 162.849,-601.114"/>
</g>
<!-- Node16 -->
<g id="node16" class="node"><title>Node16</title>
<g id="a_node16"><a xlink:href="classid_win_float.html" target="_top" xlink:title="idWinFloat">
<polygon fill="white" stroke="black" points="355.5,-760.5 355.5,-779.5 418.5,-779.5 418.5,-760.5 355.5,-760.5"/>
<text text-anchor="middle" x="387" y="-767.5" font-family="Arial" font-size="10.00">idWinFloat</text>
</a>
</g>
</g>
<!-- Node8&#45;&gt;Node16 -->
<g id="edge22" class="edge"><title>Node8&#45;&gt;Node16</title>
<path fill="none" stroke="midnightblue" d="M180.753,-638.409C189.333,-647.825 200.174,-659.62 210,-670 227.501,-688.488 229.138,-696.41 250,-711 289.939,-738.932 305.051,-737.161 350,-756 353.463,-757.452 357.134,-758.938 360.756,-760.375"/>
<polygon fill="midnightblue" stroke="midnightblue" points="183.194,-635.89 173.879,-630.842 178.013,-640.597 183.194,-635.89"/>
</g>
<!-- Node27 -->
<g id="node27" class="node"><title>Node27</title>
<g id="a_node27"><a xlink:href="classid_win_bool.html" target="_top" xlink:title="idWinBool">
<polygon fill="white" stroke="black" points="356.5,-735.5 356.5,-754.5 417.5,-754.5 417.5,-735.5 356.5,-735.5"/>
<text text-anchor="middle" x="387" y="-742.5" font-family="Arial" font-size="10.00">idWinBool</text>
</a>
</g>
</g>
<!-- Node8&#45;&gt;Node27 -->
<g id="edge36" class="edge"><title>Node8&#45;&gt;Node27</title>
<path fill="none" stroke="midnightblue" d="M188.41,-636.211C222.961,-658.332 290.008,-700.007 350,-730 353.755,-731.877 357.802,-733.725 361.781,-735.447"/>
<polygon fill="midnightblue" stroke="midnightblue" points="190.257,-633.238 179.954,-630.772 186.47,-639.125 190.257,-633.238"/>
</g>
<!-- Node9 -->
<g id="node9" class="node"><title>Node9</title>
<g id="a_node9"><a xlink:href="classid_dict.html" target="_top" xlink:title="idDict">
<polygon fill="white" stroke="black" points="12.5,-154.5 12.5,-173.5 53.5,-173.5 53.5,-154.5 12.5,-154.5"/>
<text text-anchor="middle" x="33" y="-161.5" font-family="Arial" font-size="10.00">idDict</text>
</a>
</g>
</g>
<!-- Node9&#45;&gt;Node8 -->
<g id="edge8" class="edge"><title>Node9&#45;&gt;Node8</title>
<path fill="none" stroke="#9a32cd" stroke-dasharray="5,2" d="M39.5162,-183.542C61.6998,-262.13 143.986,-553.639 160.211,-611.12"/>
<polygon fill="#9a32cd" stroke="#9a32cd" points="42.7794,-182.218 36.6943,-173.545 36.0426,-184.12 42.7794,-182.218"/>
<text text-anchor="middle" x="101" y="-463" font-family="Arial" font-size="10.00"> guiDict</text>
</g>
<!-- Node9&#45;&gt;Node35 -->
<g id="edge50" class="edge"><title>Node9&#45;&gt;Node35</title>
<path fill="none" stroke="#9a32cd" stroke-dasharray="5,2" d="M39.2281,-144.523C52.2007,-101.07 90.1993,-0 163,-0 163,-0 163,-0 735,-0 850.64,-0 890.58,-190.099 898.456,-235.396"/>
<polygon fill="#9a32cd" stroke="#9a32cd" points="35.8358,-143.656 36.4632,-154.232 42.5682,-145.573 35.8358,-143.656"/>
<text text-anchor="middle" x="387" y="-25" font-family="Arial" font-size="10.00"> mScripts</text>
<text text-anchor="middle" x="387" y="-14" font-family="Arial" font-size="10.00">mState</text>
<text text-anchor="middle" x="387" y="-3" font-family="Arial" font-size="10.00">mVariables</text>
</g>
<!-- Node10 -->
<g id="node10" class="node"><title>Node10</title>
<g id="a_node10"><a xlink:href="classid_list.html" target="_top" xlink:title="idList\&lt; float \&gt;">
<polygon fill="white" stroke="black" points="472,-408.5 472,-427.5 548,-427.5 548,-408.5 472,-408.5"/>
<text text-anchor="middle" x="510" y="-415.5" font-family="Arial" font-size="10.00">idList&lt; float &gt;</text>
</a>
</g>
</g>
<!-- Node10&#45;&gt;Node4 -->
<g id="edge10" class="edge"><title>Node10&#45;&gt;Node4</title>
<path fill="none" stroke="#9a32cd" stroke-dasharray="5,2" d="M558.44,-408.958C595.934,-404.423 648.089,-404.159 686,-428 713.55,-445.326 726.273,-484.839 730.867,-503.238"/>
<polygon fill="#9a32cd" stroke="#9a32cd" points="557.717,-405.524 548.277,-410.334 558.656,-412.46 557.717,-405.524"/>
<text text-anchor="middle" x="641" y="-442" font-family="Arial" font-size="10.00"> saveRegs</text>
<text text-anchor="middle" x="641" y="-431" font-family="Arial" font-size="10.00">expressionRegisters</text>
</g>
<!-- Node11 -->
<g id="node11" class="node"><title>Node11</title>
<g id="a_node11"><a xlink:href="classid_list.html" target="_top" xlink:title="idList\&lt; idWindow * \&gt;">
<polygon fill="white" stroke="black" points="456.5,-370.5 456.5,-389.5 563.5,-389.5 563.5,-370.5 456.5,-370.5"/>
<text text-anchor="middle" x="510" y="-377.5" font-family="Arial" font-size="10.00">idList&lt; idWindow * &gt;</text>
</a>
</g>
</g>
<!-- Node11&#45;&gt;Node4 -->
<g id="edge12" class="edge"><title>Node11&#45;&gt;Node4</title>
<path fill="none" stroke="#9a32cd" stroke-dasharray="5,2" d="M573.737,-376.997C616.557,-376.226 668.56,-378.206 686,-391 723.335,-418.389 731.013,-479.598 732.591,-503.334"/>
<polygon fill="#9a32cd" stroke="#9a32cd" points="573.554,-373.5 563.638,-377.232 573.717,-380.499 573.554,-373.5"/>
<text text-anchor="middle" x="641" y="-394" font-family="Arial" font-size="10.00"> children</text>
</g>
<!-- Node12&#45;&gt;Node4 -->
<g id="edge14" class="edge"><title>Node12&#45;&gt;Node4</title>
<path fill="none" stroke="#9a32cd" stroke-dasharray="5,2" d="M328.404,-837.56C383.727,-835.924 491.658,-828.912 578,-800 630.274,-782.496 653.484,-783.517 686,-739 712.12,-703.24 728.169,-560.794 732.069,-522.513"/>
<polygon fill="#9a32cd" stroke="#9a32cd" points="328.291,-834.062 318.383,-837.814 328.468,-841.06 328.291,-834.062"/>
<text text-anchor="middle" x="510" y="-831" font-family="Arial" font-size="10.00"> text</text>
</g>
<!-- Node12&#45;&gt;Node18 -->
<g id="edge25" class="edge"><title>Node12&#45;&gt;Node18</title>
<path fill="none" stroke="midnightblue" d="M327.826,-849.722C370.277,-863.611 440.204,-886.491 479.615,-899.386"/>
<polygon fill="midnightblue" stroke="midnightblue" points="328.768,-846.348 318.175,-846.564 326.591,-853 328.768,-846.348"/>
</g>
<!-- Node13&#45;&gt;Node4 -->
<g id="edge17" class="edge"><title>Node13&#45;&gt;Node4</title>
<path fill="none" stroke="#9a32cd" stroke-dasharray="5,2" d="M555.872,-254.444C594.956,-247.28 650.742,-244.473 686,-275 721.423,-305.67 730.775,-462.813 732.616,-503.416"/>
<polygon fill="#9a32cd" stroke="#9a32cd" points="554.943,-251.061 545.82,-256.449 556.312,-257.925 554.943,-251.061"/>
<text text-anchor="middle" x="641" y="-278" font-family="Arial" font-size="10.00"> rect</text>
</g>
<!-- Node14 -->
<g id="node14" class="node"><title>Node14</title>
<g id="a_node14"><a xlink:href="classid_rectangle.html" target="_top" xlink:title="idRectangle">
<polygon fill="white" stroke="black" points="257,-256.5 257,-275.5 325,-275.5 325,-256.5 257,-256.5"/>
<text text-anchor="middle" x="291" y="-263.5" font-family="Arial" font-size="10.00">idRectangle</text>
</a>
</g>
</g>
<!-- Node14&#45;&gt;Node4 -->
<g id="edge39" class="edge"><title>Node14&#45;&gt;Node4</title>
<path fill="none" stroke="#9a32cd" stroke-dasharray="5,2" d="M302.735,-284.269C324.4,-319.479 376.884,-396.799 442,-437 443.432,-437.884 631.443,-486.675 704.464,-505.605"/>
<polygon fill="#9a32cd" stroke="#9a32cd" points="305.62,-282.275 297.457,-275.52 299.626,-285.891 305.62,-282.275"/>
<text text-anchor="middle" x="510" y="-496" font-family="Arial" font-size="10.00"> drawRect</text>
<text text-anchor="middle" x="510" y="-485" font-family="Arial" font-size="10.00">clientRect</text>
<text text-anchor="middle" x="510" y="-474" font-family="Arial" font-size="10.00">textRect</text>
</g>
<!-- Node14&#45;&gt;Node13 -->
<g id="edge19" class="edge"><title>Node14&#45;&gt;Node13</title>
<path fill="none" stroke="#9a32cd" stroke-dasharray="5,2" d="M335.779,-266C374.173,-266 429.608,-266 467.354,-266"/>
<polygon fill="#9a32cd" stroke="#9a32cd" points="335.431,-262.5 325.431,-266 335.431,-269.5 335.431,-262.5"/>
<text text-anchor="middle" x="387" y="-269" font-family="Arial" font-size="10.00"> data</text>
</g>
<!-- Node14&#45;&gt;Node35 -->
<g id="edge49" class="edge"><title>Node14&#45;&gt;Node35</title>
<path fill="none" stroke="#9a32cd" stroke-dasharray="5,2" d="M299.27,-246.804C316.563,-204.121 364.583,-101.603 442,-57 501.586,-22.6698 527.313,-45.3373 596,-42 635.953,-40.0588 648.846,-27.1813 686,-42 789.217,-83.168 871.213,-200.403 893.8,-235.168"/>
<polygon fill="#9a32cd" stroke="#9a32cd" points="295.94,-245.708 295.536,-256.295 302.454,-248.27 295.94,-245.708"/>
<text text-anchor="middle" x="641" y="-56" font-family="Arial" font-size="10.00"> mScreenRect</text>
<text text-anchor="middle" x="641" y="-45" font-family="Arial" font-size="10.00">mClientRect</text>
</g>
<!-- Node15 -->
<g id="node15" class="node"><title>Node15</title>
<g id="a_node15"><a xlink:href="classid_list.html" target="_top" xlink:title="idList\&lt; wexpOp_t \&gt;">
<polygon fill="white" stroke="black" points="459.5,-332.5 459.5,-351.5 560.5,-351.5 560.5,-332.5 459.5,-332.5"/>
<text text-anchor="middle" x="510" y="-339.5" font-family="Arial" font-size="10.00">idList&lt; wexpOp_t &gt;</text>
</a>
</g>
</g>
<!-- Node15&#45;&gt;Node4 -->
<g id="edge20" class="edge"><title>Node15&#45;&gt;Node4</title>
<path fill="none" stroke="#9a32cd" stroke-dasharray="5,2" d="M556.968,-330.58C595.532,-323.886 649.941,-321.557 686,-350 710.858,-369.608 727.113,-471.251 731.682,-503.305"/>
<polygon fill="#9a32cd" stroke="#9a32cd" points="556.208,-327.162 547.033,-332.46 557.51,-334.04 556.208,-327.162"/>
<text text-anchor="middle" x="641" y="-364" font-family="Arial" font-size="10.00"> saveOps</text>
<text text-anchor="middle" x="641" y="-353" font-family="Arial" font-size="10.00">ops</text>
</g>
<!-- Node16&#45;&gt;Node4 -->
<g id="edge21" class="edge"><title>Node16&#45;&gt;Node4</title>
<path fill="none" stroke="#9a32cd" stroke-dasharray="5,2" d="M429.042,-773.518C494.521,-776.616 621.767,-771.864 686,-697 731.514,-643.953 733.878,-552.579 733.346,-522.737"/>
<polygon fill="#9a32cd" stroke="#9a32cd" points="428.883,-770.003 418.703,-772.938 428.491,-776.992 428.883,-770.003"/>
<text text-anchor="middle" x="510" y="-788" font-family="Arial" font-size="10.00"> textScale</text>
<text text-anchor="middle" x="510" y="-777" font-family="Arial" font-size="10.00">rotate</text>
</g>
<!-- Node17 -->
<g id="node17" class="node"><title>Node17</title>
<g id="a_node17"><a xlink:href="classid_list.html" target="_top" xlink:title="idList\&lt; idWinVar * \&gt;">
<polygon fill="white" stroke="black" points="458,-294.5 458,-313.5 562,-313.5 562,-294.5 458,-294.5"/>
<text text-anchor="middle" x="510" y="-301.5" font-family="Arial" font-size="10.00">idList&lt; idWinVar * &gt;</text>
</a>
</g>
</g>
<!-- Node17&#45;&gt;Node4 -->
<g id="edge23" class="edge"><title>Node17&#45;&gt;Node4</title>
<path fill="none" stroke="#9a32cd" stroke-dasharray="5,2" d="M572.147,-294.533C615.509,-289.285 668.911,-286.271 686,-300 718.547,-326.149 729.895,-465.274 732.417,-503.357"/>
<polygon fill="#9a32cd" stroke="#9a32cd" points="571.699,-291.061 562.219,-295.792 572.58,-298.006 571.699,-291.061"/>
<text text-anchor="middle" x="641" y="-314" font-family="Arial" font-size="10.00"> definedVars</text>
<text text-anchor="middle" x="641" y="-303" font-family="Arial" font-size="10.00">updateVars</text>
</g>
<!-- Node18&#45;&gt;Node4 -->
<g id="edge24" class="edge"><title>Node18&#45;&gt;Node4</title>
<path fill="none" stroke="#9a32cd" stroke-dasharray="5,2" d="M566.77,-908.176C611.612,-906.261 669.722,-900.538 686,-884 738.146,-831.019 734.608,-575.955 733.282,-522.742"/>
<polygon fill="#9a32cd" stroke="#9a32cd" points="566.422,-904.686 556.559,-908.557 566.683,-911.681 566.422,-904.686"/>
<text text-anchor="middle" x="641" y="-909" font-family="Arial" font-size="10.00"> backGroundName</text>
</g>
<!-- Node19 -->
<g id="node19" class="node"><title>Node19</title>
<g id="a_node19"><a xlink:href="classid_material.html" target="_top" xlink:title="idMaterial">
<polygon fill="white" stroke="black" points="261.5,-872.5 261.5,-891.5 320.5,-891.5 320.5,-872.5 261.5,-872.5"/>
<text text-anchor="middle" x="291" y="-879.5" font-family="Arial" font-size="10.00">idMaterial</text>
</a>
</g>
</g>
<!-- Node19&#45;&gt;Node4 -->
<g id="edge45" class="edge"><title>Node19&#45;&gt;Node4</title>
<path fill="none" stroke="#9a32cd" stroke-dasharray="5,2" d="M331.072,-881.467C387.196,-879.642 493.208,-872.214 578,-843 630.539,-824.898 654.235,-825.596 686,-780 716.066,-736.843 729.458,-565.532 732.374,-522.73"/>
<polygon fill="#9a32cd" stroke="#9a32cd" points="330.759,-877.974 320.862,-881.754 330.956,-884.972 330.759,-877.974"/>
<text text-anchor="middle" x="510" y="-875" font-family="Arial" font-size="10.00"> background</text>
</g>
<!-- Node19&#45;&gt;Node18 -->
<g id="edge27" class="edge"><title>Node19&#45;&gt;Node18</title>
<path fill="none" stroke="#9a32cd" stroke-dasharray="5,2" d="M330.771,-886.824C367.952,-891.45 424.088,-898.435 463.398,-903.326"/>
<polygon fill="#9a32cd" stroke="#9a32cd" points="331.172,-883.347 320.816,-885.585 330.307,-890.293 331.172,-883.347"/>
<text text-anchor="middle" x="387" y="-900" font-family="Arial" font-size="10.00"> mat</text>
</g>
<!-- Node20 -->
<g id="node20" class="node"><title>Node20</title>
<g id="a_node20"><a xlink:href="classid_decl.html" target="_top" xlink:title="idDecl">
<polygon fill="white" stroke="black" points="142,-872.5 142,-891.5 186,-891.5 186,-872.5 142,-872.5"/>
<text text-anchor="middle" x="164" y="-879.5" font-family="Arial" font-size="10.00">idDecl</text>
</a>
</g>
</g>
<!-- Node20&#45;&gt;Node19 -->
<g id="edge28" class="edge"><title>Node20&#45;&gt;Node19</title>
<path fill="none" stroke="midnightblue" d="M196.314,-882C216.211,-882 241.778,-882 261.175,-882"/>
<polygon fill="midnightblue" stroke="midnightblue" points="196.205,-878.5 186.205,-882 196.205,-885.5 196.205,-878.5"/>
</g>
<!-- Node21 -->
<g id="node21" class="node"><title>Node21</title>
<g id="a_node21"><a xlink:href="classid_decl_base.html" target="_top" xlink:title="idDeclBase">
<polygon fill="white" stroke="black" points="0,-872.5 0,-891.5 66,-891.5 66,-872.5 0,-872.5"/>
<text text-anchor="middle" x="33" y="-879.5" font-family="Arial" font-size="10.00">idDeclBase</text>
</a>
</g>
</g>
<!-- Node21&#45;&gt;Node20 -->
<g id="edge29" class="edge"><title>Node21&#45;&gt;Node20</title>
<path fill="none" stroke="#9a32cd" stroke-dasharray="5,2" d="M76.2792,-882C98.1687,-882 123.948,-882 141.678,-882"/>
<polygon fill="#9a32cd" stroke="#9a32cd" points="76.2194,-878.5 66.2194,-882 76.2193,-885.5 76.2194,-878.5"/>
<text text-anchor="middle" x="101" y="-885" font-family="Arial" font-size="10.00"> base</text>
</g>
<!-- Node22 -->
<g id="node22" class="node"><title>Node22</title>
<g id="a_node22"><a xlink:href="classid_list.html" target="_top" xlink:title="idList\&lt; idTimeLineEvent * \&gt;">
<polygon fill="white" stroke="black" points="442.5,-218.5 442.5,-237.5 577.5,-237.5 577.5,-218.5 442.5,-218.5"/>
<text text-anchor="middle" x="510" y="-225.5" font-family="Arial" font-size="10.00">idList&lt; idTimeLineEvent * &gt;</text>
</a>
</g>
</g>
<!-- Node22&#45;&gt;Node4 -->
<g id="edge30" class="edge"><title>Node22&#45;&gt;Node4</title>
<path fill="none" stroke="#9a32cd" stroke-dasharray="5,2" d="M551.903,-216.167C591.164,-207.537 649.704,-202.224 686,-234 727.578,-270.4 732.376,-458.336 732.928,-503.319"/>
<polygon fill="#9a32cd" stroke="#9a32cd" points="551.046,-212.773 542.116,-218.474 552.652,-219.586 551.046,-212.773"/>
<text text-anchor="middle" x="641" y="-237" font-family="Arial" font-size="10.00"> timeLineEvents</text>
</g>
<!-- Node23 -->
<g id="node23" class="node"><title>Node23</title>
<g id="a_node23"><a xlink:href="classid_gui_script_list.html" target="_top" xlink:title="idGuiScriptList">
<polygon fill="white" stroke="black" points="470,-180.5 470,-199.5 550,-199.5 550,-180.5 470,-180.5"/>
<text text-anchor="middle" x="510" y="-187.5" font-family="Arial" font-size="10.00">idGuiScriptList</text>
</a>
</g>
</g>
<!-- Node23&#45;&gt;Node4 -->
<g id="edge31" class="edge"><title>Node23&#45;&gt;Node4</title>
<path fill="none" stroke="#9a32cd" stroke-dasharray="5,2" d="M560.256,-184.639C605.453,-180.891 668.028,-179.036 686,-195 733.356,-237.067 733.684,-454.565 733.15,-503.302"/>
<polygon fill="#9a32cd" stroke="#9a32cd" points="559.693,-181.175 550.04,-185.542 560.309,-188.148 559.693,-181.175"/>
<text text-anchor="middle" x="641" y="-198" font-family="Arial" font-size="10.00"> scripts</text>
</g>
<!-- Node24 -->
<g id="node24" class="node"><title>Node24</title>
<g id="a_node24"><a xlink:href="classid_register_list.html" target="_top" xlink:title="idRegisterList">
<polygon fill="white" stroke="black" points="472,-142.5 472,-161.5 548,-161.5 548,-142.5 472,-142.5"/>
<text text-anchor="middle" x="510" y="-149.5" font-family="Arial" font-size="10.00">idRegisterList</text>
</a>
</g>
</g>
<!-- Node24&#45;&gt;Node4 -->
<g id="edge32" class="edge"><title>Node24&#45;&gt;Node4</title>
<path fill="none" stroke="#9a32cd" stroke-dasharray="5,2" d="M558.492,-149.662C603.989,-148.517 668.274,-150.13 686,-167 736.061,-214.642 734.232,-451.873 733.233,-503.198"/>
<polygon fill="#9a32cd" stroke="#9a32cd" points="558.122,-146.171 548.233,-149.974 558.335,-153.168 558.122,-146.171"/>
<text text-anchor="middle" x="641" y="-170" font-family="Arial" font-size="10.00"> regList</text>
</g>
<!-- Node25 -->
<g id="node25" class="node"><title>Node25</title>
<g id="a_node25"><a xlink:href="classid_user_interface_local.html" target="_top" xlink:title="idUserInterfaceLocal">
<polygon fill="white" stroke="black" points="458,-975.5 458,-994.5 562,-994.5 562,-975.5 458,-975.5"/>
<text text-anchor="middle" x="510" y="-982.5" font-family="Arial" font-size="10.00">idUserInterfaceLocal</text>
</a>
</g>
</g>
<!-- Node25&#45;&gt;Node4 -->
<g id="edge33" class="edge"><title>Node25&#45;&gt;Node4</title>
<path fill="none" stroke="#9a32cd" stroke-dasharray="5,2" d="M572.324,-983.283C616.379,-980.669 670.602,-974.153 686,-958 717.157,-925.316 730.487,-584.949 732.672,-522.735"/>
<polygon fill="#9a32cd" stroke="#9a32cd" points="572.035,-979.793 562.237,-983.825 572.411,-986.783 572.035,-979.793"/>
<text text-anchor="middle" x="641" y="-984" font-family="Arial" font-size="10.00"> gui</text>
</g>
<!-- Node26 -->
<g id="node26" class="node"><title>Node26</title>
<g id="a_node26"><a xlink:href="classid_user_interface.html" target="_top" xlink:title="idUserInterface">
<polygon fill="white" stroke="black" points="250.5,-975.5 250.5,-994.5 331.5,-994.5 331.5,-975.5 250.5,-975.5"/>
<text text-anchor="middle" x="291" y="-982.5" font-family="Arial" font-size="10.00">idUserInterface</text>
</a>
</g>
</g>
<!-- Node26&#45;&gt;Node25 -->
<g id="edge34" class="edge"><title>Node26&#45;&gt;Node25</title>
<path fill="none" stroke="midnightblue" d="M341.937,-985C376.672,-985 422.842,-985 457.841,-985"/>
<polygon fill="midnightblue" stroke="midnightblue" points="341.549,-981.5 331.549,-985 341.549,-988.5 341.549,-981.5"/>
</g>
<!-- Node27&#45;&gt;Node4 -->
<g id="edge35" class="edge"><title>Node27&#45;&gt;Node4</title>
<path fill="none" stroke="#9a32cd" stroke-dasharray="5,2" d="M423.671,-728.258C434.199,-715.893 430.752,-706.361 442,-699 533.335,-639.226 602.369,-741.15 686,-671 732.045,-632.377 734.174,-550.8 733.453,-522.73"/>
<polygon fill="#9a32cd" stroke="#9a32cd" points="420.996,-725.975 416.203,-735.424 425.842,-731.026 420.996,-725.975"/>
<text text-anchor="middle" x="510" y="-735" font-family="Arial" font-size="10.00"> noTime</text>
<text text-anchor="middle" x="510" y="-724" font-family="Arial" font-size="10.00">hideCursor</text>
<text text-anchor="middle" x="510" y="-713" font-family="Arial" font-size="10.00">noEvents</text>
<text text-anchor="middle" x="510" y="-702" font-family="Arial" font-size="10.00">visible</text>
</g>
<!-- Node28 -->
<g id="node28" class="node"><title>Node28</title>
<g id="a_node28"><a xlink:href="classid_vec2.html" target="_top" xlink:title="idVec2">
<polygon fill="white" stroke="black" points="486.5,-104.5 486.5,-123.5 533.5,-123.5 533.5,-104.5 486.5,-104.5"/>
<text text-anchor="middle" x="510" y="-111.5" font-family="Arial" font-size="10.00">idVec2</text>
</a>
</g>
</g>
<!-- Node28&#45;&gt;Node4 -->
<g id="edge37" class="edge"><title>Node28&#45;&gt;Node4</title>
<path fill="none" stroke="#9a32cd" stroke-dasharray="5,2" d="M543.353,-104.608C582.514,-95.427 647.931,-87.4555 686,-123 714.787,-149.878 729.891,-445.797 732.566,-503.337"/>
<polygon fill="#9a32cd" stroke="#9a32cd" points="542.373,-101.245 533.522,-107.068 544.072,-108.036 542.373,-101.245"/>
<text text-anchor="middle" x="641" y="-137" font-family="Arial" font-size="10.00"> origin</text>
<text text-anchor="middle" x="641" y="-126" font-family="Arial" font-size="10.00">shear</text>
</g>
<!-- Node29 -->
<g id="node29" class="node"><title>Node29</title>
<g id="a_node29"><a xlink:href="classid_list.html" target="_top" xlink:title="idList\&lt; drawWin_t \&gt;">
<polygon fill="white" stroke="black" points="458,-66.5 458,-85.5 562,-85.5 562,-66.5 458,-66.5"/>
<text text-anchor="middle" x="510" y="-73.5" font-family="Arial" font-size="10.00">idList&lt; drawWin_t &gt;</text>
</a>
</g>
</g>
<!-- Node29&#45;&gt;Node4 -->
<g id="edge38" class="edge"><title>Node29&#45;&gt;Node4</title>
<path fill="none" stroke="#9a32cd" stroke-dasharray="5,2" d="M572.308,-69.9325C616.053,-67.0718 669.877,-67.0337 686,-82 717.996,-111.701 730.6,-441.545 732.682,-503.129"/>
<polygon fill="#9a32cd" stroke="#9a32cd" points="572.018,-66.4443 562.292,-70.6466 572.515,-73.4265 572.018,-66.4443"/>
<text text-anchor="middle" x="641" y="-85" font-family="Arial" font-size="10.00"> drawWindows</text>
</g>
<!-- Node30 -->
<g id="node30" class="node"><title>Node30</title>
<g id="a_node30"><a xlink:href="classid_list.html" target="_top" xlink:title="idList\&lt; idTransitionData \&gt;">
<polygon fill="white" stroke="black" points="446,-937.5 446,-956.5 574,-956.5 574,-937.5 446,-937.5"/>
<text text-anchor="middle" x="510" y="-944.5" font-family="Arial" font-size="10.00">idList&lt; idTransitionData &gt;</text>
</a>
</g>
</g>
<!-- Node30&#45;&gt;Node4 -->
<g id="edge40" class="edge"><title>Node30&#45;&gt;Node4</title>
<path fill="none" stroke="#9a32cd" stroke-dasharray="5,2" d="M584.376,-944.87C625.741,-942.036 671.891,-935.58 686,-921 714.697,-891.346 729.927,-581.681 732.579,-522.681"/>
<polygon fill="#9a32cd" stroke="#9a32cd" points="584.026,-941.385 574.263,-945.499 584.461,-948.371 584.026,-941.385"/>
<text text-anchor="middle" x="641" y="-946" font-family="Arial" font-size="10.00"> transitions</text>
</g>
<!-- Node31 -->
<g id="node31" class="node"><title>Node31</title>
<g id="a_node31"><a xlink:href="classid_c_var.html" target="_top" xlink:title="idCVar">
<polygon fill="white" stroke="black" points="487,-1013.5 487,-1032.5 533,-1032.5 533,-1013.5 487,-1013.5"/>
<text text-anchor="middle" x="510" y="-1020.5" font-family="Arial" font-size="10.00">idCVar</text>
</a>
</g>
</g>
<!-- Node31&#45;&gt;Node4 -->
<g id="edge41" class="edge"><title>Node31&#45;&gt;Node4</title>
<path fill="none" stroke="#9a32cd" stroke-dasharray="5,2" d="M543.027,-1028.55C582.716,-1033.4 649.552,-1034.55 686,-996 719.788,-960.262 731.041,-587.889 732.758,-522.709"/>
<polygon fill="#9a32cd" stroke="#9a32cd" points="543.461,-1025.08 533.078,-1027.19 542.511,-1032.01 543.461,-1025.08"/>
<text text-anchor="middle" x="641" y="-1044" font-family="Arial" font-size="10.00"> gui_debug</text>
<text text-anchor="middle" x="641" y="-1033" font-family="Arial" font-size="10.00">gui_edit</text>
</g>
<!-- Node31&#45;&gt;Node31 -->
<g id="edge43" class="edge"><title>Node31&#45;&gt;Node31</title>
<path fill="none" stroke="#9a32cd" stroke-dasharray="5,2" d="M487.307,-1042.03C488.544,-1047.13 496.109,-1051 510,-1051 531.684,-1051 537.952,-1041.57 528.804,-1032.76"/>
<polygon fill="#9a32cd" stroke="#9a32cd" points="490.555,-1043.33 491.196,-1032.76 484.1,-1040.62 490.555,-1043.33"/>
<text text-anchor="middle" x="510" y="-1065" font-family="Arial" font-size="10.00"> next</text>
<text text-anchor="middle" x="510" y="-1054" font-family="Arial" font-size="10.00">internalVar</text>
</g>
<!-- Node32 -->
<g id="node32" class="node"><title>Node32</title>
<g id="a_node32"><a xlink:href="classid_cmd_args.html" target="_top" xlink:title="idCmdArgs">
<polygon fill="white" stroke="black" points="258.5,-1013.5 258.5,-1032.5 323.5,-1032.5 323.5,-1013.5 258.5,-1013.5"/>
<text text-anchor="middle" x="291" y="-1020.5" font-family="Arial" font-size="10.00">idCmdArgs</text>
</a>
</g>
</g>
<!-- Node32&#45;&gt;Node31 -->
<g id="edge42" class="edge"><title>Node32&#45;&gt;Node31</title>
<path fill="none" stroke="#9a32cd" stroke-dasharray="5,2" d="M333.742,-1023C379.48,-1023 451.108,-1023 486.979,-1023"/>
<polygon fill="#9a32cd" stroke="#9a32cd" points="333.554,-1019.5 323.554,-1023 333.554,-1026.5 333.554,-1019.5"/>
<text text-anchor="middle" x="387" y="-1026" font-family="Arial" font-size="10.00"> valueCompletion</text>
</g>
<!-- Node33 -->
<g id="node33" class="node"><title>Node33</title>
<g id="a_node33"><a xlink:href="structid_reg_entry.html" target="_top" xlink:title="idRegEntry">
<polygon fill="white" stroke="black" points="477.5,-515.5 477.5,-534.5 542.5,-534.5 542.5,-515.5 477.5,-515.5"/>
<text text-anchor="middle" x="510" y="-522.5" font-family="Arial" font-size="10.00">idRegEntry</text>
</a>
</g>
</g>
<!-- Node33&#45;&gt;Node4 -->
<g id="edge44" class="edge"><title>Node33&#45;&gt;Node4</title>
<path fill="none" stroke="#9a32cd" stroke-dasharray="5,2" d="M552.911,-518.55C566.611,-516.717 581.922,-514.959 596,-514 633.375,-511.455 676.618,-511.663 704.361,-512.2"/>
<polygon fill="#9a32cd" stroke="#9a32cd" points="552.22,-515.112 542.797,-519.955 553.183,-522.046 552.22,-515.112"/>
<text text-anchor="middle" x="641" y="-517" font-family="Arial" font-size="10.00"> RegisterVars</text>
</g>
<!-- Node34 -->
<g id="node34" class="node"><title>Node34</title>
<g id="a_node34"><a xlink:href="classid_list.html" target="_top" xlink:title="idList\&lt; rvNamedEvent * \&gt;">
<polygon fill="white" stroke="black" points="447,-553.5 447,-572.5 573,-572.5 573,-553.5 447,-553.5"/>
<text text-anchor="middle" x="510" y="-560.5" font-family="Arial" font-size="10.00">idList&lt; rvNamedEvent * &gt;</text>
</a>
</g>
</g>
<!-- Node34&#45;&gt;Node4 -->
<g id="edge46" class="edge"><title>Node34&#45;&gt;Node4</title>
<path fill="none" stroke="#9a32cd" stroke-dasharray="5,2" d="M567.024,-551.373C601.424,-544.101 646.343,-534.365 686,-525 691.901,-523.606 698.201,-522.048 704.208,-520.527"/>
<polygon fill="#9a32cd" stroke="#9a32cd" points="566.223,-547.965 557.16,-553.452 567.667,-554.815 566.223,-547.965"/>
<text text-anchor="middle" x="641" y="-547" font-family="Arial" font-size="10.00"> namedEvents</text>
</g>
<!-- Node35&#45;&gt;Node2 -->
<g id="edge47" class="edge"><title>Node35&#45;&gt;Node2</title>
<path fill="none" stroke="#9a32cd" stroke-dasharray="5,2" d="M913.882,-263.236C949.71,-318.223 1055.87,-481.147 1082.75,-522.415"/>
<polygon fill="#9a32cd" stroke="#9a32cd" points="916.613,-261.017 908.222,-254.549 910.749,-264.838 916.613,-261.017"/>
<text text-anchor="middle" x="1005" y="-450" font-family="Arial" font-size="10.00"> mWrapper</text>
</g>
</g>
</svg>
        <g id="navigator" transform="translate(0 0)" fill="#404254">
                <rect fill="#f2f5e9" fill-opacity="0.5" stroke="#606060" stroke-width=".5" x="0" y="0" width="60" height="60"/>
                <use id="zoomplus" xlink:href="#zoomPlus" x="17" y="9" onmousedown="handleZoom(evt,'in')"/>
                <use id="zoomminus" xlink:href="#zoomMin" x="42" y="9" onmousedown="handleZoom(evt,'out')"/>
                <use id="reset" xlink:href="#resetDef" x="30" y="36" onmousedown="handleReset()"/>
                <g id="arrowUp" xlink:href="#dirArrow" transform="translate(30 24)" onmousedown="handlePan(0,-1)">
                  <use xlink:href="#rim" fill="#404040">
                        <set attributeName="fill" to="#808080" begin="arrowUp.mouseover" end="arrowUp.mouseout"/>
                  </use>
                  <path fill="none" stroke="white" stroke-width="1.5" d="M0,-3.0v7 M-2.5,-0.5L0,-3.0L2.5,-0.5"/>
                </g>
                <g id="arrowRight" xlink:href="#dirArrow" transform="rotate(90) translate(36 -43)" onmousedown="handlePan(1,0)">
                  <use xlink:href="#rim" fill="#404040">
                        <set attributeName="fill" to="#808080" begin="arrowRight.mouseover" end="arrowRight.mouseout"/>
                  </use>
                  <path fill="none" stroke="white" stroke-width="1.5" d="M0,-3.0v7 M-2.5,-0.5L0,-3.0L2.5,-0.5"/>
                </g>
                <g id="arrowDown" xlink:href="#dirArrow" transform="rotate(180) translate(-30 -48)" onmousedown="handlePan(0,1)">
                  <use xlink:href="#rim" fill="#404040">
                        <set attributeName="fill" to="#808080" begin="arrowDown.mouseover" end="arrowDown.mouseout"/>
                  </use>
                  <path fill="none" stroke="white" stroke-width="1.5" d="M0,-3.0v7 M-2.5,-0.5L0,-3.0L2.5,-0.5"/>
                </g>
                <g id="arrowLeft" xlink:href="#dirArrow" transform="rotate(270) translate(-36 17)" onmousedown="handlePan(-1,0)">
                  <use xlink:href="#rim" fill="#404040">
                        <set attributeName="fill" to="#808080" begin="arrowLeft.mouseover" end="arrowLeft.mouseout"/>
                  </use>
                  <path fill="none" stroke="white" stroke-width="1.5" d="M0,-3.0v7 M-2.5,-0.5L0,-3.0L2.5,-0.5"/>
                </g>
        </g>
        <svg viewBox="0 0 15 15" width="100%" height="30px" preserveAspectRatio="xMaxYMin meet">
         <g id="arrow_out" transform="scale(0.3 0.3)">
          <a xlink:href="classrv_g_e_z_order_modifier__coll__graph_org.svg" target="_base">
           <rect id="button" ry="5" rx="5" y="6" x="6" height="38" width="38"
                fill="#f2f5e9" fill-opacity="0.5" stroke="#606060" stroke-width="1.0"/>
           <path id="arrow"
             d="M 11.500037,31.436501 C 11.940474,20.09759 22.043105,11.32322 32.158766,21.979434 L 37.068811,17.246167 C 37.068811,17.246167 37.088388,32 37.088388,32 L 22.160133,31.978069 C 22.160133,31.978069 26.997745,27.140456 26.997745,27.140456 C 18.528582,18.264221 13.291696,25.230495 11.500037,31.436501 z"
             style="fill:#404040;"/>
          </a>
         </g>
        </svg>
</svg>
