<?xml version="1.0" encoding="UTF-8" standalone="no"?>
<!DOCTYPE svg PUBLIC "-//W3C//DTD SVG 1.1//EN"
 "http://www.w3.org/Graphics/SVG/1.1/DTD/svg11.dtd">
<!-- Generated by graphviz version 2.34.0 (20130907.0111)
 -->
<!-- Title: idPhysics_Parametric Pages: 1 -->
<svg width="120pt" height="196pt"
 viewBox="0.00 0.00 120.00 196.00" xmlns="http://www.w3.org/2000/svg" xmlns:xlink="http://www.w3.org/1999/xlink">
<g id="graph0" class="graph" transform="scale(1 1) rotate(0) translate(4 192)">
<title>idPhysics_Parametric</title>
<polygon fill="white" stroke="white" points="-4,4 -4,-192 116,-192 116,4 -4,4"/>
<!-- Node1 -->
<g id="node1" class="node"><title>Node1</title>
<polygon fill="#bfbfbf" stroke="black" points="0,-0.5 0,-19.5 112,-19.5 112,-0.5 0,-0.5"/>
<text text-anchor="middle" x="56" y="-7.5" font-family="Arial" font-size="10.00">idPhysics_Parametric</text>
</g>
<!-- Node2 -->
<g id="node2" class="node"><title>Node2</title>
<g id="a_node2"><a xlink:href="classid_physics___base.html" target="_top" xlink:title="idPhysics_Base">
<polygon fill="white" stroke="black" points="12.5,-56.5 12.5,-75.5 99.5,-75.5 99.5,-56.5 12.5,-56.5"/>
<text text-anchor="middle" x="56" y="-63.5" font-family="Arial" font-size="10.00">idPhysics_Base</text>
</a>
</g>
</g>
<!-- Node2&#45;&gt;Node1 -->
<g id="edge1" class="edge"><title>Node2&#45;&gt;Node1</title>
<path fill="none" stroke="midnightblue" d="M49.5276,-46.1005C48.8956,-37.1357 49.3427,-26.8579 50.869,-19.7511"/>
<polygon fill="midnightblue" stroke="midnightblue" points="46.0658,-46.6216 50.8337,-56.083 53.0067,-45.7134 46.0658,-46.6216"/>
</g>
<!-- Node2&#45;&gt;Node1 -->
<g id="edge6" class="edge"><title>Node2&#45;&gt;Node1</title>
<path fill="none" stroke="midnightblue" d="M62.4724,-46.1005C63.1044,-37.1357 62.6573,-26.8579 61.131,-19.7511"/>
<polygon fill="midnightblue" stroke="midnightblue" points="58.9933,-45.7134 61.1663,-56.083 65.9342,-46.6216 58.9933,-45.7134"/>
</g>
<!-- Node3 -->
<g id="node3" class="node"><title>Node3</title>
<g id="a_node3"><a xlink:href="classid_physics.html" target="_top" xlink:title="idPhysics">
<polygon fill="white" stroke="black" points="26.5,-112.5 26.5,-131.5 85.5,-131.5 85.5,-112.5 26.5,-112.5"/>
<text text-anchor="middle" x="56" y="-119.5" font-family="Arial" font-size="10.00">idPhysics</text>
</a>
</g>
</g>
<!-- Node3&#45;&gt;Node2 -->
<g id="edge2" class="edge"><title>Node3&#45;&gt;Node2</title>
<path fill="none" stroke="midnightblue" d="M49.5276,-102.101C48.8956,-93.1357 49.3427,-82.8579 50.869,-75.7511"/>
<polygon fill="midnightblue" stroke="midnightblue" points="46.0658,-102.622 50.8337,-112.083 53.0067,-101.713 46.0658,-102.622"/>
</g>
<!-- Node3&#45;&gt;Node2 -->
<g id="edge5" class="edge"><title>Node3&#45;&gt;Node2</title>
<path fill="none" stroke="midnightblue" d="M62.4724,-102.101C63.1044,-93.1357 62.6573,-82.8579 61.131,-75.7511"/>
<polygon fill="midnightblue" stroke="midnightblue" points="58.9933,-101.713 61.1663,-112.083 65.9342,-102.622 58.9933,-101.713"/>
</g>
<!-- Node4 -->
<g id="node4" class="node"><title>Node4</title>
<g id="a_node4"><a xlink:href="classid_class.html" target="_top" xlink:title="idClass">
<polygon fill="white" stroke="black" points="31.5,-168.5 31.5,-187.5 80.5,-187.5 80.5,-168.5 31.5,-168.5"/>
<text text-anchor="middle" x="56" y="-175.5" font-family="Arial" font-size="10.00">idClass</text>
</a>
</g>
</g>
<!-- Node4&#45;&gt;Node3 -->
<g id="edge3" class="edge"><title>Node4&#45;&gt;Node3</title>
<path fill="none" stroke="midnightblue" d="M49.5276,-158.101C48.8956,-149.136 49.3427,-138.858 50.869,-131.751"/>
<polygon fill="midnightblue" stroke="midnightblue" points="46.0658,-158.622 50.8337,-168.083 53.0067,-157.713 46.0658,-158.622"/>
</g>
<!-- Node4&#45;&gt;Node3 -->
<g id="edge4" class="edge"><title>Node4&#45;&gt;Node3</title>
<path fill="none" stroke="midnightblue" d="M62.4724,-158.101C63.1044,-149.136 62.6573,-138.858 61.131,-131.751"/>
<polygon fill="midnightblue" stroke="midnightblue" points="58.9933,-157.713 61.1663,-168.083 65.9342,-158.622 58.9933,-157.713"/>
</g>
</g>
</svg>
