<?xml version="1.0" encoding="UTF-8" standalone="no"?>
<!DOCTYPE svg PUBLIC "-//W3C//DTD SVG 1.1//EN"
 "http://www.w3.org/Graphics/SVG/1.1/DTD/svg11.dtd">
<!-- Generated by graphviz version 2.34.0 (20130907.0111)
 -->
<!-- Title: idCameraDef Pages: 1 -->
<!--zoomable 227 -->
<svg id="main" version="1.1" xmlns="http://www.w3.org/2000/svg" xmlns:xlink="http://www.w3.org/1999/xlink" xml:space="preserve" onload="init(evt)">
<style type="text/css"><![CDATA[
.edge:hover path { stroke: red; }
.edge:hover polygon { stroke: red; fill: red; }
]]></style>
<script type="text/javascript"><![CDATA[
var edges = document.getElementsByTagName('g');
if (edges && edges.length) {
  for (var i=0;i<edges.length;i++) {
    if (edges[i].id.substr(0,4)=='edge') {
      edges[i].setAttribute('class','edge');
    }
  }
}
]]></script>
        <defs>
                <circle id="rim" cx="0" cy="0" r="7"/>
                <circle id="rim2" cx="0" cy="0" r="3.5"/>
                <g id="zoomPlus">
                        <use xlink:href="#rim" fill="#404040">
                                <set attributeName="fill" to="#808080" begin="zoomplus.mouseover" end="zoomplus.mouseout"/>
                        </use>
                        <path d="M-4,0h8M0,-4v8" fill="none" stroke="white" stroke-width="1.5" pointer-events="none"/>
                </g>
                <g id="zoomMin">
                        <use xlink:href="#rim" fill="#404040">
                                <set attributeName="fill" to="#808080" begin="zoomminus.mouseover" end="zoomminus.mouseout"/>
                        </use>
                        <path d="M-4,0h8" fill="none" stroke="white" stroke-width="1.5" pointer-events="none"/>
                </g>
                <g id="dirArrow">
                        <path fill="none" stroke="white" stroke-width="1.5" d="M0,-3.0v7 M-2.5,-0.5L0,-3.0L2.5,-0.5"/>
                </g>
               <g id="resetDef">
                       <use xlink:href="#rim2" fill="#404040">
                               <set attributeName="fill" to="#808080" begin="reset.mouseover" end="reset.mouseout"/>
                       </use>
               </g>
        </defs>

<script type="text/javascript">
var viewWidth = 690;
var viewHeight = 227;
var sectionId = 'dynsection-0';
</script>
<script xlink:href="svgpan.js"/>
<svg id="graph" class="graph">
<g id="viewport">
<title>idCameraDef</title>
<polygon fill="white" stroke="white" points="-4,4 -4,-223 686,-223 686,4 -4,4"/>
<!-- Node1 -->
<g id="node1" class="node"><title>Node1</title>
<polygon fill="#bfbfbf" stroke="black" points="610,-104.5 610,-123.5 682,-123.5 682,-104.5 610,-104.5"/>
<text text-anchor="middle" x="646" y="-111.5" font-family="Arial" font-size="10.00">idCameraDef</text>
</g>
<!-- Node2 -->
<g id="node2" class="node"><title>Node2</title>
<g id="a_node2"><a xlink:href="classid_list.html" target="_top" xlink:title="idList\&lt; idCameraEvent * \&gt;">
<polygon fill="white" stroke="black" points="366,-199.5 366,-218.5 496,-218.5 496,-199.5 366,-199.5"/>
<text text-anchor="middle" x="431" y="-206.5" font-family="Arial" font-size="10.00">idList&lt; idCameraEvent * &gt;</text>
</a>
</g>
</g>
<!-- Node2&#45;&gt;Node1 -->
<g id="edge1" class="edge"><title>Node2&#45;&gt;Node1</title>
<path fill="none" stroke="#9a32cd" stroke-dasharray="5,2" d="M506.538,-204.557C534.83,-200.269 566.38,-192.163 592,-177 614.141,-163.896 631.348,-138.073 639.614,-123.896"/>
<polygon fill="#9a32cd" stroke="#9a32cd" points="505.707,-201.139 496.278,-205.971 506.662,-208.073 505.707,-201.139"/>
<text text-anchor="middle" x="556" y="-204" font-family="Arial" font-size="10.00"> events</text>
</g>
<!-- Node3 -->
<g id="node3" class="node"><title>Node3</title>
<g id="a_node3"><a xlink:href="classid_list.html" target="_top" xlink:title="idList\&lt; idCameraPosition * \&gt;">
<polygon fill="white" stroke="black" points="360.5,-161.5 360.5,-180.5 501.5,-180.5 501.5,-161.5 360.5,-161.5"/>
<text text-anchor="middle" x="431" y="-168.5" font-family="Arial" font-size="10.00">idList&lt; idCameraPosition * &gt;</text>
</a>
</g>
</g>
<!-- Node3&#45;&gt;Node1 -->
<g id="edge2" class="edge"><title>Node3&#45;&gt;Node1</title>
<path fill="none" stroke="#9a32cd" stroke-dasharray="5,2" d="M511.829,-164.704C537.926,-161.029 566.694,-155.211 592,-146 606.746,-140.632 621.911,-130.979 632.221,-123.674"/>
<polygon fill="#9a32cd" stroke="#9a32cd" points="511.047,-161.277 501.592,-166.057 511.964,-168.217 511.047,-161.277"/>
<text text-anchor="middle" x="556" y="-165" font-family="Arial" font-size="10.00"> targetPositions</text>
</g>
<!-- Node4 -->
<g id="node4" class="node"><title>Node4</title>
<g id="a_node4"><a xlink:href="classid_str.html" target="_top" xlink:title="idStr">
<polygon fill="white" stroke="black" points="207.5,-114.5 207.5,-133.5 244.5,-133.5 244.5,-114.5 207.5,-114.5"/>
<text text-anchor="middle" x="226" y="-121.5" font-family="Arial" font-size="10.00">idStr</text>
</a>
</g>
</g>
<!-- Node4&#45;&gt;Node1 -->
<g id="edge3" class="edge"><title>Node4&#45;&gt;Node1</title>
<path fill="none" stroke="#9a32cd" stroke-dasharray="5,2" d="M254.879,-124.101C315.981,-124.2 466.281,-123.772 592,-118 597.807,-117.733 603.966,-117.356 609.952,-116.938"/>
<polygon fill="#9a32cd" stroke="#9a32cd" points="254.87,-120.601 244.862,-124.079 254.854,-127.601 254.87,-120.601"/>
<text text-anchor="middle" x="431" y="-126" font-family="Arial" font-size="10.00"> name</text>
</g>
<!-- Node6 -->
<g id="node6" class="node"><title>Node6</title>
<g id="a_node6"><a xlink:href="classid_camera_position.html" target="_top" xlink:title="idCameraPosition">
<polygon fill="white" stroke="black" points="384.5,-76.5 384.5,-95.5 477.5,-95.5 477.5,-76.5 384.5,-76.5"/>
<text text-anchor="middle" x="431" y="-83.5" font-family="Arial" font-size="10.00">idCameraPosition</text>
</a>
</g>
</g>
<!-- Node4&#45;&gt;Node6 -->
<g id="edge8" class="edge"><title>Node4&#45;&gt;Node6</title>
<path fill="none" stroke="#9a32cd" stroke-dasharray="5,2" d="M254.542,-116.882C267.652,-113.628 283.581,-109.869 298,-107 326.562,-101.317 358.844,-96.1595 384.333,-92.3775"/>
<polygon fill="#9a32cd" stroke="#9a32cd" points="253.558,-113.52 244.715,-119.356 255.267,-120.308 253.558,-113.52"/>
<text text-anchor="middle" x="320" y="-110" font-family="Arial" font-size="10.00"> name</text>
</g>
<!-- Node5 -->
<g id="node5" class="node"><title>Node5</title>
<g id="a_node5"><a xlink:href="classid_camera_f_o_v.html" target="_top" xlink:title="idCameraFOV">
<polygon fill="white" stroke="black" points="392,-38.5 392,-57.5 470,-57.5 470,-38.5 392,-38.5"/>
<text text-anchor="middle" x="431" y="-45.5" font-family="Arial" font-size="10.00">idCameraFOV</text>
</a>
</g>
</g>
<!-- Node5&#45;&gt;Node1 -->
<g id="edge4" class="edge"><title>Node5&#45;&gt;Node1</title>
<path fill="none" stroke="#9a32cd" stroke-dasharray="5,2" d="M480.33,-53.9749C512.724,-59.009 555.895,-67.7342 592,-82 606.395,-87.6876 621.365,-97.1017 631.709,-104.25"/>
<polygon fill="#9a32cd" stroke="#9a32cd" points="480.621,-50.4797 470.214,-52.4679 479.589,-57.4032 480.621,-50.4797"/>
<text text-anchor="middle" x="556" y="-85" font-family="Arial" font-size="10.00"> fov</text>
</g>
<!-- Node6&#45;&gt;Node1 -->
<g id="edge5" class="edge"><title>Node6&#45;&gt;Node1</title>
<path fill="none" stroke="#9a32cd" stroke-dasharray="5,2" d="M487.623,-93.2893C518.392,-97.3243 557.312,-102.433 592,-107 597.797,-107.763 603.951,-108.575 609.934,-109.365"/>
<polygon fill="#9a32cd" stroke="#9a32cd" points="487.889,-89.7943 477.519,-91.9644 486.979,-96.7349 487.889,-89.7943"/>
<text text-anchor="middle" x="556" y="-110" font-family="Arial" font-size="10.00"> cameraPosition</text>
</g>
<!-- Node7 -->
<g id="node7" class="node"><title>Node7</title>
<g id="a_node7"><a xlink:href="classid_point_list_interface.html" target="_top" xlink:title="idPointListInterface">
<polygon fill="white" stroke="black" points="176.5,-69.5 176.5,-88.5 275.5,-88.5 275.5,-69.5 176.5,-69.5"/>
<text text-anchor="middle" x="226" y="-76.5" font-family="Arial" font-size="10.00">idPointListInterface</text>
</a>
</g>
</g>
<!-- Node7&#45;&gt;Node6 -->
<g id="edge6" class="edge"><title>Node7&#45;&gt;Node6</title>
<path fill="none" stroke="midnightblue" d="M285.963,-81.0332C317.263,-82.1125 355.15,-83.419 384.211,-84.4211"/>
<polygon fill="midnightblue" stroke="midnightblue" points="285.738,-77.5235 275.624,-80.6767 285.497,-84.5193 285.738,-77.5235"/>
</g>
<!-- Node8 -->
<g id="node8" class="node"><title>Node8</title>
<g id="a_node8"><a xlink:href="classid_list.html" target="_top" xlink:title="idList\&lt; int \&gt;">
<polygon fill="white" stroke="black" points="0,-69.5 0,-88.5 68,-88.5 68,-69.5 0,-69.5"/>
<text text-anchor="middle" x="34" y="-76.5" font-family="Arial" font-size="10.00">idList&lt; int &gt;</text>
</a>
</g>
</g>
<!-- Node8&#45;&gt;Node7 -->
<g id="edge7" class="edge"><title>Node8&#45;&gt;Node7</title>
<path fill="none" stroke="#9a32cd" stroke-dasharray="5,2" d="M78.3853,-79C107.547,-79 146.027,-79 176.248,-79"/>
<polygon fill="#9a32cd" stroke="#9a32cd" points="78.0955,-75.5001 68.0955,-79 78.0954,-82.5001 78.0955,-75.5001"/>
<text text-anchor="middle" x="120" y="-82" font-family="Arial" font-size="10.00"> selectedPoints</text>
</g>
<!-- Node9 -->
<g id="node9" class="node"><title>Node9</title>
<g id="a_node9"><a xlink:href="classid_list.html" target="_top" xlink:title="idList\&lt; idVelocity * \&gt;">
<polygon fill="white" stroke="black" points="172.5,-31.5 172.5,-50.5 279.5,-50.5 279.5,-31.5 172.5,-31.5"/>
<text text-anchor="middle" x="226" y="-38.5" font-family="Arial" font-size="10.00">idList&lt; idVelocity * &gt;</text>
</a>
</g>
</g>
<!-- Node9&#45;&gt;Node6 -->
<g id="edge9" class="edge"><title>Node9&#45;&gt;Node6</title>
<path fill="none" stroke="#9a32cd" stroke-dasharray="5,2" d="M281.06,-52.6425C300.306,-56.8162 322.129,-61.5821 342,-66 357.141,-69.3663 373.732,-73.1199 388.387,-76.458"/>
<polygon fill="#9a32cd" stroke="#9a32cd" points="281.769,-49.215 271.255,-50.5188 280.288,-56.0564 281.769,-49.215"/>
<text text-anchor="middle" x="320" y="-69" font-family="Arial" font-size="10.00"> velocities</text>
</g>
<!-- Node10 -->
<g id="node10" class="node"><title>Node10</title>
<g id="a_node10"><a xlink:href="classid_vec3.html" target="_top" xlink:title="idVec3">
<polygon fill="white" stroke="black" points="407.5,-0.5 407.5,-19.5 454.5,-19.5 454.5,-0.5 407.5,-0.5"/>
<text text-anchor="middle" x="431" y="-7.5" font-family="Arial" font-size="10.00">idVec3</text>
</a>
</g>
</g>
<!-- Node10&#45;&gt;Node1 -->
<g id="edge10" class="edge"><title>Node10&#45;&gt;Node1</title>
<path fill="none" stroke="#9a32cd" stroke-dasharray="5,2" d="M465.109,-11.3106C499.289,-14.0428 552.983,-22.2984 592,-47 614.807,-61.4387 631.973,-89.2113 639.992,-104.061"/>
<polygon fill="#9a32cd" stroke="#9a32cd" points="464.955,-7.79215 454.74,-10.6038 464.479,-14.7759 464.955,-7.79215"/>
<text text-anchor="middle" x="556" y="-50" font-family="Arial" font-size="10.00"> lastDirection</text>
</g>
</g>
</svg>
        <g id="navigator" transform="translate(0 0)" fill="#404254">
                <rect fill="#f2f5e9" fill-opacity="0.5" stroke="#606060" stroke-width=".5" x="0" y="0" width="60" height="60"/>
                <use id="zoomplus" xlink:href="#zoomPlus" x="17" y="9" onmousedown="handleZoom(evt,'in')"/>
                <use id="zoomminus" xlink:href="#zoomMin" x="42" y="9" onmousedown="handleZoom(evt,'out')"/>
                <use id="reset" xlink:href="#resetDef" x="30" y="36" onmousedown="handleReset()"/>
                <g id="arrowUp" xlink:href="#dirArrow" transform="translate(30 24)" onmousedown="handlePan(0,-1)">
                  <use xlink:href="#rim" fill="#404040">
                        <set attributeName="fill" to="#808080" begin="arrowUp.mouseover" end="arrowUp.mouseout"/>
                  </use>
                  <path fill="none" stroke="white" stroke-width="1.5" d="M0,-3.0v7 M-2.5,-0.5L0,-3.0L2.5,-0.5"/>
                </g>
                <g id="arrowRight" xlink:href="#dirArrow" transform="rotate(90) translate(36 -43)" onmousedown="handlePan(1,0)">
                  <use xlink:href="#rim" fill="#404040">
                        <set attributeName="fill" to="#808080" begin="arrowRight.mouseover" end="arrowRight.mouseout"/>
                  </use>
                  <path fill="none" stroke="white" stroke-width="1.5" d="M0,-3.0v7 M-2.5,-0.5L0,-3.0L2.5,-0.5"/>
                </g>
                <g id="arrowDown" xlink:href="#dirArrow" transform="rotate(180) translate(-30 -48)" onmousedown="handlePan(0,1)">
                  <use xlink:href="#rim" fill="#404040">
                        <set attributeName="fill" to="#808080" begin="arrowDown.mouseover" end="arrowDown.mouseout"/>
                  </use>
                  <path fill="none" stroke="white" stroke-width="1.5" d="M0,-3.0v7 M-2.5,-0.5L0,-3.0L2.5,-0.5"/>
                </g>
                <g id="arrowLeft" xlink:href="#dirArrow" transform="rotate(270) translate(-36 17)" onmousedown="handlePan(-1,0)">
                  <use xlink:href="#rim" fill="#404040">
                        <set attributeName="fill" to="#808080" begin="arrowLeft.mouseover" end="arrowLeft.mouseout"/>
                  </use>
                  <path fill="none" stroke="white" stroke-width="1.5" d="M0,-3.0v7 M-2.5,-0.5L0,-3.0L2.5,-0.5"/>
                </g>
        </g>
        <svg viewBox="0 0 15 15" width="100%" height="30px" preserveAspectRatio="xMaxYMin meet">
         <g id="arrow_out" transform="scale(0.3 0.3)">
          <a xlink:href="classid_camera_def__coll__graph_org.svg" target="_base">
           <rect id="button" ry="5" rx="5" y="6" x="6" height="38" width="38"
                fill="#f2f5e9" fill-opacity="0.5" stroke="#606060" stroke-width="1.0"/>
           <path id="arrow"
             d="M 11.500037,31.436501 C 11.940474,20.09759 22.043105,11.32322 32.158766,21.979434 L 37.068811,17.246167 C 37.068811,17.246167 37.088388,32 37.088388,32 L 22.160133,31.978069 C 22.160133,31.978069 26.997745,27.140456 26.997745,27.140456 C 18.528582,18.264221 13.291696,25.230495 11.500037,31.436501 z"
             style="fill:#404040;"/>
          </a>
         </g>
        </svg>
</svg>
