<?xml version="1.0" encoding="UTF-8" standalone="no"?>
<!DOCTYPE svg PUBLIC "-//W3C//DTD SVG 1.1//EN"
 "http://www.w3.org/Graphics/SVG/1.1/DTD/svg11.dtd">
<!-- Generated by graphviz version 2.34.0 (20130907.0111)
 -->
<!-- Title: idExplodable Pages: 1 -->
<svg width="80pt" height="140pt"
 viewBox="0.00 0.00 80.00 140.00" xmlns="http://www.w3.org/2000/svg" xmlns:xlink="http://www.w3.org/1999/xlink">
<g id="graph0" class="graph" transform="scale(1 1) rotate(0) translate(4 136)">
<title>idExplodable</title>
<polygon fill="white" stroke="white" points="-4,4 -4,-136 76,-136 76,4 -4,4"/>
<!-- Node1 -->
<g id="node1" class="node"><title>Node1</title>
<polygon fill="#bfbfbf" stroke="black" points="0,-0.5 0,-19.5 72,-19.5 72,-0.5 0,-0.5"/>
<text text-anchor="middle" x="36" y="-7.5" font-family="Arial" font-size="10.00">idExplodable</text>
</g>
<!-- Node2 -->
<g id="node2" class="node"><title>Node2</title>
<g id="a_node2"><a xlink:href="classid_entity.html" target="_top" xlink:title="idEntity">
<polygon fill="white" stroke="black" points="11,-56.5 11,-75.5 61,-75.5 61,-56.5 11,-56.5"/>
<text text-anchor="middle" x="36" y="-63.5" font-family="Arial" font-size="10.00">idEntity</text>
</a>
</g>
</g>
<!-- Node2&#45;&gt;Node1 -->
<g id="edge1" class="edge"><title>Node2&#45;&gt;Node1</title>
<path fill="none" stroke="midnightblue" d="M29.5276,-46.1005C28.8956,-37.1357 29.3427,-26.8579 30.869,-19.7511"/>
<polygon fill="midnightblue" stroke="midnightblue" points="26.0658,-46.6216 30.8337,-56.083 33.0067,-45.7134 26.0658,-46.6216"/>
</g>
<!-- Node2&#45;&gt;Node1 -->
<g id="edge4" class="edge"><title>Node2&#45;&gt;Node1</title>
<path fill="none" stroke="midnightblue" d="M42.4724,-46.1005C43.1044,-37.1357 42.6573,-26.8579 41.131,-19.7511"/>
<polygon fill="midnightblue" stroke="midnightblue" points="38.9933,-45.7134 41.1663,-56.083 45.9342,-46.6216 38.9933,-45.7134"/>
</g>
<!-- Node3 -->
<g id="node3" class="node"><title>Node3</title>
<g id="a_node3"><a xlink:href="classid_class.html" target="_top" xlink:title="idClass">
<polygon fill="white" stroke="black" points="11.5,-112.5 11.5,-131.5 60.5,-131.5 60.5,-112.5 11.5,-112.5"/>
<text text-anchor="middle" x="36" y="-119.5" font-family="Arial" font-size="10.00">idClass</text>
</a>
</g>
</g>
<!-- Node3&#45;&gt;Node2 -->
<g id="edge2" class="edge"><title>Node3&#45;&gt;Node2</title>
<path fill="none" stroke="midnightblue" d="M29.5276,-102.101C28.8956,-93.1357 29.3427,-82.8579 30.869,-75.7511"/>
<polygon fill="midnightblue" stroke="midnightblue" points="26.0658,-102.622 30.8337,-112.083 33.0067,-101.713 26.0658,-102.622"/>
</g>
<!-- Node3&#45;&gt;Node2 -->
<g id="edge3" class="edge"><title>Node3&#45;&gt;Node2</title>
<path fill="none" stroke="midnightblue" d="M42.4724,-102.101C43.1044,-93.1357 42.6573,-82.8579 41.131,-75.7511"/>
<polygon fill="midnightblue" stroke="midnightblue" points="38.9933,-101.713 41.1663,-112.083 45.9342,-102.622 38.9933,-101.713"/>
</g>
</g>
</svg>
