<?xml version="1.0" encoding="UTF-8" standalone="no"?>
<!DOCTYPE svg PUBLIC "-//W3C//DTD SVG 1.1//EN"
 "http://www.w3.org/Graphics/SVG/1.1/DTD/svg11.dtd">
<!-- Generated by graphviz version 2.34.0 (20130907.0111)
 -->
<!-- Title: MaterialEditView Pages: 1 -->
<!--zoomable 535 -->
<svg id="main" version="1.1" xmlns="http://www.w3.org/2000/svg" xmlns:xlink="http://www.w3.org/1999/xlink" xml:space="preserve" onload="init(evt)">
<style type="text/css"><![CDATA[
.edge:hover path { stroke: red; }
.edge:hover polygon { stroke: red; fill: red; }
]]></style>
<script type="text/javascript"><![CDATA[
var edges = document.getElementsByTagName('g');
if (edges && edges.length) {
  for (var i=0;i<edges.length;i++) {
    if (edges[i].id.substr(0,4)=='edge') {
      edges[i].setAttribute('class','edge');
    }
  }
}
]]></script>
        <defs>
                <circle id="rim" cx="0" cy="0" r="7"/>
                <circle id="rim2" cx="0" cy="0" r="3.5"/>
                <g id="zoomPlus">
                        <use xlink:href="#rim" fill="#404040">
                                <set attributeName="fill" to="#808080" begin="zoomplus.mouseover" end="zoomplus.mouseout"/>
                        </use>
                        <path d="M-4,0h8M0,-4v8" fill="none" stroke="white" stroke-width="1.5" pointer-events="none"/>
                </g>
                <g id="zoomMin">
                        <use xlink:href="#rim" fill="#404040">
                                <set attributeName="fill" to="#808080" begin="zoomminus.mouseover" end="zoomminus.mouseout"/>
                        </use>
                        <path d="M-4,0h8" fill="none" stroke="white" stroke-width="1.5" pointer-events="none"/>
                </g>
                <g id="dirArrow">
                        <path fill="none" stroke="white" stroke-width="1.5" d="M0,-3.0v7 M-2.5,-0.5L0,-3.0L2.5,-0.5"/>
                </g>
               <g id="resetDef">
                       <use xlink:href="#rim2" fill="#404040">
                               <set attributeName="fill" to="#808080" begin="reset.mouseover" end="reset.mouseout"/>
                       </use>
               </g>
        </defs>

<script type="text/javascript">
var viewWidth = 1480;
var viewHeight = 535;
var sectionId = 'dynsection-1';
</script>
<script xlink:href="svgpan.js"/>
<svg id="graph" class="graph">
<g id="viewport">
<title>MaterialEditView</title>
<polygon fill="white" stroke="white" points="-4,4 -4,-531 1476,-531 1476,4 -4,4"/>
<!-- Node1 -->
<g id="node1" class="node"><title>Node1</title>
<polygon fill="#bfbfbf" stroke="black" points="1382.5,-289.5 1382.5,-308.5 1471.5,-308.5 1471.5,-289.5 1382.5,-289.5"/>
<text text-anchor="middle" x="1427" y="-296.5" font-family="Arial" font-size="10.00">MaterialEditView</text>
</g>
<!-- Node2 -->
<g id="node2" class="node"><title>Node2</title>
<polygon fill="white" stroke="#bfbfbf" points="499.5,-501.5 499.5,-520.5 566.5,-520.5 566.5,-501.5 499.5,-501.5"/>
<text text-anchor="middle" x="533" y="-508.5" font-family="Arial" font-size="10.00">CFormView</text>
</g>
<!-- Node2&#45;&gt;Node1 -->
<g id="edge1" class="edge"><title>Node2&#45;&gt;Node1</title>
<path fill="none" stroke="midnightblue" d="M576.954,-515.816C622.74,-520.528 697.393,-527 762,-527 762,-527 762,-527 1230,-527 1347.19,-527 1409.57,-351.657 1423.15,-308.507"/>
<polygon fill="midnightblue" stroke="midnightblue" points="577.108,-512.313 566.798,-514.751 576.378,-519.275 577.108,-512.313"/>
</g>
<!-- Node22 -->
<g id="node22" class="node"><title>Node22</title>
<g id="a_node22"><a xlink:href="class_c_prop_tree_view.html" target="_top" xlink:title="CPropTreeView">
<polygon fill="white" stroke="black" points="721.5,-479.5 721.5,-498.5 804.5,-498.5 804.5,-479.5 721.5,-479.5"/>
<text text-anchor="middle" x="763" y="-486.5" font-family="Arial" font-size="10.00">CPropTreeView</text>
</a>
</g>
</g>
<!-- Node2&#45;&gt;Node22 -->
<g id="edge29" class="edge"><title>Node2&#45;&gt;Node22</title>
<path fill="none" stroke="midnightblue" d="M576.723,-506.878C618.158,-502.879 680.573,-496.857 721.306,-492.927"/>
<polygon fill="midnightblue" stroke="midnightblue" points="576.284,-503.404 566.667,-507.848 576.957,-510.371 576.284,-503.404"/>
</g>
<!-- Node3 -->
<g id="node3" class="node"><title>Node3</title>
<g id="a_node3"><a xlink:href="class_material_view.html" target="_top" xlink:title="MaterialView">
<polygon fill="white" stroke="black" points="727,-268.5 727,-287.5 799,-287.5 799,-268.5 727,-268.5"/>
<text text-anchor="middle" x="763" y="-275.5" font-family="Arial" font-size="10.00">MaterialView</text>
</a>
</g>
</g>
<!-- Node3&#45;&gt;Node1 -->
<g id="edge2" class="edge"><title>Node3&#45;&gt;Node1</title>
<path fill="none" stroke="midnightblue" d="M809.221,-276.147C899.576,-272.893 1108.8,-267.602 1284,-280 1317.12,-282.344 1354.32,-287.41 1382.33,-291.722"/>
<polygon fill="midnightblue" stroke="midnightblue" points="808.921,-272.656 799.057,-276.523 809.18,-279.651 808.921,-272.656"/>
</g>
<!-- Node18 -->
<g id="node18" class="node"><title>Node18</title>
<g id="a_node18"><a xlink:href="class_stage_view.html" target="_top" xlink:title="StageView">
<polygon fill="white" stroke="black" points="1197.5,-289.5 1197.5,-308.5 1260.5,-308.5 1260.5,-289.5 1197.5,-289.5"/>
<text text-anchor="middle" x="1229" y="-296.5" font-family="Arial" font-size="10.00">StageView</text>
</a>
</g>
</g>
<!-- Node3&#45;&gt;Node18 -->
<g id="edge25" class="edge"><title>Node3&#45;&gt;Node18</title>
<path fill="none" stroke="midnightblue" d="M809.315,-280.051C903.388,-284.309 1117.73,-294.009 1197.41,-297.616"/>
<polygon fill="midnightblue" stroke="midnightblue" points="809.404,-276.551 799.256,-279.596 809.088,-283.544 809.404,-276.551"/>
</g>
<!-- Node21 -->
<g id="node21" class="node"><title>Node21</title>
<g id="a_node21"><a xlink:href="class_material_prop_tree_view.html" target="_top" xlink:title="MaterialPropTreeView">
<polygon fill="white" stroke="black" points="940.5,-371.5 940.5,-390.5 1051.5,-390.5 1051.5,-371.5 940.5,-371.5"/>
<text text-anchor="middle" x="996" y="-378.5" font-family="Arial" font-size="10.00">MaterialPropTreeView</text>
</a>
</g>
</g>
<!-- Node3&#45;&gt;Node21 -->
<g id="edge30" class="edge"><title>Node3&#45;&gt;Node21</title>
<path fill="none" stroke="midnightblue" d="M804.284,-290.741C836.73,-301.546 883.171,-318.248 922,-337 943.32,-347.296 966.506,-361.91 980.897,-371.422"/>
<polygon fill="midnightblue" stroke="midnightblue" points="805.28,-287.384 794.687,-287.581 803.091,-294.033 805.28,-287.384"/>
</g>
<!-- Node4 -->
<g id="node4" class="node"><title>Node4</title>
<g id="a_node4"><a xlink:href="class_material_doc_manager.html" target="_top" xlink:title="MaterialDocManager">
<polygon fill="white" stroke="black" points="480,-309.5 480,-328.5 586,-328.5 586,-309.5 480,-309.5"/>
<text text-anchor="middle" x="533" y="-316.5" font-family="Arial" font-size="10.00">MaterialDocManager</text>
</a>
</g>
</g>
<!-- Node4&#45;&gt;Node3 -->
<g id="edge3" class="edge"><title>Node4&#45;&gt;Node3</title>
<path fill="none" stroke="#9a32cd" stroke-dasharray="5,2" d="M569.866,-306.329C580.721,-302.875 592.749,-299.423 604,-297 645.729,-288.014 694.638,-282.954 726.862,-280.354"/>
<polygon fill="#9a32cd" stroke="#9a32cd" points="568.694,-303.03 560.283,-309.472 570.875,-309.682 568.694,-303.03"/>
<text text-anchor="middle" x="651" y="-300" font-family="Arial" font-size="10.00"> materialDocManager</text>
</g>
<!-- Node9 -->
<g id="node9" class="node"><title>Node9</title>
<g id="a_node9"><a xlink:href="class_material_doc.html" target="_top" xlink:title="MaterialDoc">
<polygon fill="white" stroke="black" points="729,-319.5 729,-338.5 797,-338.5 797,-319.5 729,-319.5"/>
<text text-anchor="middle" x="763" y="-326.5" font-family="Arial" font-size="10.00">MaterialDoc</text>
</a>
</g>
</g>
<!-- Node4&#45;&gt;Node9 -->
<g id="edge13" class="edge"><title>Node4&#45;&gt;Node9</title>
<path fill="none" stroke="#9a32cd" stroke-dasharray="5,2" d="M596.349,-313.624C627.041,-311.957 664.547,-311.384 698,-315 708.064,-316.088 718.866,-318.111 728.676,-320.289"/>
<polygon fill="#9a32cd" stroke="#9a32cd" points="595.992,-310.139 586.218,-314.226 596.408,-317.126 595.992,-310.139"/>
<text text-anchor="middle" x="651" y="-318" font-family="Arial" font-size="10.00"> manager</text>
</g>
<!-- Node5 -->
<g id="node5" class="node"><title>Node5</title>
<g id="a_node5"><a xlink:href="classid_str.html" target="_top" xlink:title="idStr">
<polygon fill="white" stroke="black" points="262.5,-200.5 262.5,-219.5 299.5,-219.5 299.5,-200.5 262.5,-200.5"/>
<text text-anchor="middle" x="281" y="-207.5" font-family="Arial" font-size="10.00">idStr</text>
</a>
</g>
</g>
<!-- Node5&#45;&gt;Node1 -->
<g id="edge21" class="edge"><title>Node5&#45;&gt;Node1</title>
<path fill="none" stroke="#9a32cd" stroke-dasharray="5,2" d="M310.112,-205.209C383.94,-193.06 589.537,-162 762,-162 762,-162 762,-162 1230,-162 1318.84,-162 1396.12,-257.734 1419.08,-289.147"/>
<polygon fill="#9a32cd" stroke="#9a32cd" points="309.096,-201.83 299.806,-206.924 310.245,-208.735 309.096,-201.83"/>
<text text-anchor="middle" x="875" y="-165" font-family="Arial" font-size="10.00"> currentMaterialName</text>
</g>
<!-- Node5&#45;&gt;Node4 -->
<g id="edge4" class="edge"><title>Node5&#45;&gt;Node4</title>
<path fill="none" stroke="#9a32cd" stroke-dasharray="5,2" d="M309.52,-213.376C346.108,-218.725 411.968,-231.397 462,-258 487.334,-271.471 511.28,-295.7 523.52,-309.214"/>
<polygon fill="#9a32cd" stroke="#9a32cd" points="309.97,-209.905 299.584,-212 309.009,-216.839 309.97,-209.905"/>
<text text-anchor="middle" x="417" y="-272" font-family="Arial" font-size="10.00"> copyMaterial</text>
<text text-anchor="middle" x="417" y="-261" font-family="Arial" font-size="10.00">copyStageMaterial</text>
</g>
<!-- Node5&#45;&gt;Node9 -->
<g id="edge9" class="edge"><title>Node5&#45;&gt;Node9</title>
<path fill="none" stroke="#9a32cd" stroke-dasharray="5,2" d="M309.786,-208.427C379.783,-205.712 567.098,-206.262 698,-279 707.89,-284.495 707.322,-289.741 716,-297 725.701,-305.114 737.411,-313.24 746.589,-319.272"/>
<polygon fill="#9a32cd" stroke="#9a32cd" points="309.421,-204.94 299.586,-208.881 309.732,-211.933 309.421,-204.94"/>
<text text-anchor="middle" x="533" y="-238" font-family="Arial" font-size="10.00"> name</text>
</g>
<!-- Node6 -->
<g id="node6" class="node"><title>Node6</title>
<g id="a_node6"><a xlink:href="classid_list.html" target="_top" xlink:title="idList\&lt; MaterialModifier * \&gt;">
<polygon fill="white" stroke="black" points="214.5,-348.5 214.5,-367.5 347.5,-367.5 347.5,-348.5 214.5,-348.5"/>
<text text-anchor="middle" x="281" y="-355.5" font-family="Arial" font-size="10.00">idList&lt; MaterialModifier * &gt;</text>
</a>
</g>
</g>
<!-- Node6&#45;&gt;Node4 -->
<g id="edge5" class="edge"><title>Node6&#45;&gt;Node4</title>
<path fill="none" stroke="#9a32cd" stroke-dasharray="5,2" d="M357.84,-349.231C390.045,-345.159 427.945,-339.91 462,-334 471.184,-332.406 480.995,-330.459 490.277,-328.502"/>
<polygon fill="#9a32cd" stroke="#9a32cd" points="357.085,-345.798 347.596,-350.51 357.953,-352.744 357.085,-345.798"/>
<text text-anchor="middle" x="417" y="-361" font-family="Arial" font-size="10.00"> undoModifiers</text>
<text text-anchor="middle" x="417" y="-350" font-family="Arial" font-size="10.00">redoModifiers</text>
</g>
<!-- Node7 -->
<g id="node7" class="node"><title>Node7</title>
<g id="a_node7"><a xlink:href="struct_m_e_stage__t.html" target="_top" xlink:title="MEStage_t">
<polygon fill="white" stroke="black" points="248.5,-254.5 248.5,-273.5 313.5,-273.5 313.5,-254.5 248.5,-254.5"/>
<text text-anchor="middle" x="281" y="-261.5" font-family="Arial" font-size="10.00">MEStage_t</text>
</a>
</g>
</g>
<!-- Node7&#45;&gt;Node4 -->
<g id="edge6" class="edge"><title>Node7&#45;&gt;Node4</title>
<path fill="none" stroke="#9a32cd" stroke-dasharray="5,2" d="M323.518,-273.134C369.121,-283.167 442.031,-299.207 488.433,-309.415"/>
<polygon fill="#9a32cd" stroke="#9a32cd" points="324.181,-269.696 313.663,-270.966 322.677,-276.533 324.181,-269.696"/>
<text text-anchor="middle" x="417" y="-305" font-family="Arial" font-size="10.00"> copyStage</text>
</g>
<!-- Node8 -->
<g id="node8" class="node"><title>Node8</title>
<g id="a_node8"><a xlink:href="classid_dict.html" target="_top" xlink:title="idDict">
<polygon fill="white" stroke="black" points="36.5,-209.5 36.5,-228.5 77.5,-228.5 77.5,-209.5 36.5,-209.5"/>
<text text-anchor="middle" x="57" y="-216.5" font-family="Arial" font-size="10.00">idDict</text>
</a>
</g>
</g>
<!-- Node8&#45;&gt;Node7 -->
<g id="edge7" class="edge"><title>Node8&#45;&gt;Node7</title>
<path fill="none" stroke="#9a32cd" stroke-dasharray="5,2" d="M87.55,-224.99C129.356,-233.464 205.445,-248.888 248.36,-257.587"/>
<polygon fill="#9a32cd" stroke="#9a32cd" points="88.197,-221.55 77.701,-222.993 86.8064,-228.41 88.197,-221.55"/>
<text text-anchor="middle" x="161" y="-248" font-family="Arial" font-size="10.00"> stageData</text>
</g>
<!-- Node10 -->
<g id="node10" class="node"><title>Node10</title>
<g id="a_node10"><a xlink:href="struct_m_e_material__t.html" target="_top" xlink:title="MEMaterial_t">
<polygon fill="white" stroke="black" points="244,-140.5 244,-159.5 318,-159.5 318,-140.5 244,-140.5"/>
<text text-anchor="middle" x="281" y="-147.5" font-family="Arial" font-size="10.00">MEMaterial_t</text>
</a>
</g>
</g>
<!-- Node8&#45;&gt;Node10 -->
<g id="edge12" class="edge"><title>Node8&#45;&gt;Node10</title>
<path fill="none" stroke="#9a32cd" stroke-dasharray="5,2" d="M87.3417,-209.88C129.352,-196.823 206.285,-172.911 249.126,-159.596"/>
<polygon fill="#9a32cd" stroke="#9a32cd" points="86.2116,-206.566 77.701,-212.877 88.2892,-213.251 86.2116,-206.566"/>
<text text-anchor="middle" x="161" y="-197" font-family="Arial" font-size="10.00"> materialData</text>
</g>
<!-- Node9&#45;&gt;Node4 -->
<g id="edge8" class="edge"><title>Node9&#45;&gt;Node4</title>
<path fill="none" stroke="#9a32cd" stroke-dasharray="5,2" d="M718.696,-330.141C686.917,-330.634 642.729,-330.603 604,-328 598.254,-327.614 592.259,-327.066 586.299,-326.429"/>
<polygon fill="#9a32cd" stroke="#9a32cd" points="719.037,-333.635 728.972,-329.956 718.911,-326.636 719.037,-333.635"/>
<text text-anchor="middle" x="651" y="-333" font-family="Arial" font-size="10.00"> currentMaterial</text>
</g>
<!-- Node9&#45;&gt;Node18 -->
<g id="edge26" class="edge"><title>Node9&#45;&gt;Node18</title>
<path fill="none" stroke="#9a32cd" stroke-dasharray="5,2" d="M807.168,-327.349C879.432,-324.411 1029.43,-317.575 1156,-307 1169.54,-305.869 1184.47,-304.268 1197.2,-302.796"/>
<polygon fill="#9a32cd" stroke="#9a32cd" points="806.934,-323.855 797.082,-327.754 807.215,-330.849 806.934,-323.855"/>
<text text-anchor="middle" x="996" y="-324" font-family="Arial" font-size="10.00"> currentMaterial</text>
</g>
<!-- Node9&#45;&gt;Node21 -->
<g id="edge32" class="edge"><title>Node9&#45;&gt;Node21</title>
<path fill="none" stroke="#9a32cd" stroke-dasharray="5,2" d="M807.01,-336.897C838.878,-342.945 883.305,-351.792 922,-361 935.167,-364.133 949.556,-367.983 962.052,-371.465"/>
<polygon fill="#9a32cd" stroke="#9a32cd" points="807.603,-333.447 797.127,-335.034 806.306,-340.326 807.603,-333.447"/>
<text text-anchor="middle" x="875" y="-364" font-family="Arial" font-size="10.00"> currentMaterial</text>
</g>
<!-- Node10&#45;&gt;Node9 -->
<g id="edge10" class="edge"><title>Node10&#45;&gt;Node9</title>
<path fill="none" stroke="#9a32cd" stroke-dasharray="5,2" d="M328.202,-144.461C414.183,-136.968 598.99,-134.578 698,-236 717.746,-256.227 699.462,-274.076 716,-297 722.716,-306.31 733.014,-313.836 742.165,-319.245"/>
<polygon fill="#9a32cd" stroke="#9a32cd" points="327.85,-140.979 318.219,-145.394 328.501,-147.949 327.85,-140.979"/>
<text text-anchor="middle" x="533" y="-169" font-family="Arial" font-size="10.00"> editMaterial</text>
</g>
<!-- Node11 -->
<g id="node11" class="node"><title>Node11</title>
<g id="a_node11"><a xlink:href="classid_list.html" target="_top" xlink:title="idList\&lt; MEStage_t * \&gt;">
<polygon fill="white" stroke="black" points="0.5,-140.5 0.5,-159.5 113.5,-159.5 113.5,-140.5 0.5,-140.5"/>
<text text-anchor="middle" x="57" y="-147.5" font-family="Arial" font-size="10.00">idList&lt; MEStage_t * &gt;</text>
</a>
</g>
</g>
<!-- Node11&#45;&gt;Node10 -->
<g id="edge11" class="edge"><title>Node11&#45;&gt;Node10</title>
<path fill="none" stroke="#9a32cd" stroke-dasharray="5,2" d="M123.754,-150C162.982,-150 211.306,-150 243.736,-150"/>
<polygon fill="#9a32cd" stroke="#9a32cd" points="123.733,-146.5 113.733,-150 123.733,-153.5 123.733,-146.5"/>
<text text-anchor="middle" x="161" y="-153" font-family="Arial" font-size="10.00"> stages</text>
</g>
<!-- Node12 -->
<g id="node12" class="node"><title>Node12</title>
<g id="a_node12"><a xlink:href="class_source_modify_owner.html" target="_top" xlink:title="SourceModifyOwner">
<polygon fill="white" stroke="black" points="481,-415.5 481,-434.5 585,-434.5 585,-415.5 481,-415.5"/>
<text text-anchor="middle" x="533" y="-422.5" font-family="Arial" font-size="10.00">SourceModifyOwner</text>
</a>
</g>
</g>
<!-- Node12&#45;&gt;Node1 -->
<g id="edge20" class="edge"><title>Node12&#45;&gt;Node1</title>
<path fill="none" stroke="#8b1a1a" d="M595.482,-435.839C641.246,-442.973 705.331,-451 762,-451 762,-451 762,-451 1230,-451 1323.44,-451 1399.3,-341.785 1420.25,-308.508"/>
<polygon fill="#8b1a1a" stroke="#8b1a1a" points="595.85,-432.354 585.424,-434.24 594.75,-439.267 595.85,-432.354"/>
</g>
<!-- Node12&#45;&gt;Node9 -->
<g id="edge14" class="edge"><title>Node12&#45;&gt;Node9</title>
<path fill="none" stroke="#9a32cd" stroke-dasharray="5,2" d="M595.289,-419.962C628.187,-414.771 668.015,-404.26 698,-383 709.765,-374.658 705.514,-365.902 716,-356 723.406,-349.006 732.94,-343.038 741.407,-338.505"/>
<polygon fill="#9a32cd" stroke="#9a32cd" points="594.715,-416.509 585.321,-421.409 595.72,-423.437 594.715,-416.509"/>
<text text-anchor="middle" x="651" y="-421" font-family="Arial" font-size="10.00"> sourceModifyOwner</text>
</g>
<!-- Node13 -->
<g id="node13" class="node"><title>Node13</title>
<g id="a_node13"><a xlink:href="classid_material.html" target="_top" xlink:title="idMaterial">
<polygon fill="white" stroke="black" points="503.5,-377.5 503.5,-396.5 562.5,-396.5 562.5,-377.5 503.5,-377.5"/>
<text text-anchor="middle" x="533" y="-384.5" font-family="Arial" font-size="10.00">idMaterial</text>
</a>
</g>
</g>
<!-- Node13&#45;&gt;Node9 -->
<g id="edge15" class="edge"><title>Node13&#45;&gt;Node9</title>
<path fill="none" stroke="#9a32cd" stroke-dasharray="5,2" d="M572.618,-377.176C616.527,-366.006 687.476,-347.958 728.934,-337.411"/>
<polygon fill="#9a32cd" stroke="#9a32cd" points="571.705,-373.797 562.876,-379.654 573.431,-380.581 571.705,-373.797"/>
<text text-anchor="middle" x="651" y="-371" font-family="Arial" font-size="10.00"> renderMaterial</text>
</g>
<!-- Node14 -->
<g id="node14" class="node"><title>Node14</title>
<g id="a_node14"><a xlink:href="classid_decl.html" target="_top" xlink:title="idDecl">
<polygon fill="white" stroke="black" points="259,-429.5 259,-448.5 303,-448.5 303,-429.5 259,-429.5"/>
<text text-anchor="middle" x="281" y="-436.5" font-family="Arial" font-size="10.00">idDecl</text>
</a>
</g>
</g>
<!-- Node14&#45;&gt;Node13 -->
<g id="edge16" class="edge"><title>Node14&#45;&gt;Node13</title>
<path fill="none" stroke="midnightblue" d="M313.112,-438.574C349.628,-437.272 411.598,-432.54 462,-416 470.695,-413.146 471.677,-409.804 480,-406 487.43,-402.604 495.659,-399.368 503.337,-396.561"/>
<polygon fill="midnightblue" stroke="midnightblue" points="312.971,-435.077 303.078,-438.867 313.176,-442.074 312.971,-435.077"/>
</g>
<!-- Node15 -->
<g id="node15" class="node"><title>Node15</title>
<g id="a_node15"><a xlink:href="classid_decl_base.html" target="_top" xlink:title="idDeclBase">
<polygon fill="white" stroke="black" points="24,-429.5 24,-448.5 90,-448.5 90,-429.5 24,-429.5"/>
<text text-anchor="middle" x="57" y="-436.5" font-family="Arial" font-size="10.00">idDeclBase</text>
</a>
</g>
</g>
<!-- Node15&#45;&gt;Node14 -->
<g id="edge17" class="edge"><title>Node15&#45;&gt;Node14</title>
<path fill="none" stroke="#9a32cd" stroke-dasharray="5,2" d="M100.52,-439C147.836,-439 222.398,-439 258.71,-439"/>
<polygon fill="#9a32cd" stroke="#9a32cd" points="100.281,-435.5 90.2807,-439 100.281,-442.5 100.281,-435.5"/>
<text text-anchor="middle" x="161" y="-442" font-family="Arial" font-size="10.00"> base</text>
</g>
<!-- Node16 -->
<g id="node16" class="node"><title>Node16</title>
<g id="a_node16"><a xlink:href="classid_hash_table.html" target="_top" xlink:title="idHashTable\&lt; MaterialDoc * \&gt;">
<polygon fill="white" stroke="black" points="208,-310.5 208,-329.5 354,-329.5 354,-310.5 208,-310.5"/>
<text text-anchor="middle" x="281" y="-317.5" font-family="Arial" font-size="10.00">idHashTable&lt; MaterialDoc * &gt;</text>
</a>
</g>
</g>
<!-- Node16&#45;&gt;Node4 -->
<g id="edge18" class="edge"><title>Node16&#45;&gt;Node4</title>
<path fill="none" stroke="#9a32cd" stroke-dasharray="5,2" d="M364.343,-319.671C402.345,-319.519 446.323,-319.343 479.701,-319.209"/>
<polygon fill="#9a32cd" stroke="#9a32cd" points="364.296,-316.171 354.31,-319.711 364.324,-323.171 364.296,-316.171"/>
<text text-anchor="middle" x="417" y="-322" font-family="Arial" font-size="10.00"> inProgressMaterials</text>
</g>
<!-- Node17 -->
<g id="node17" class="node"><title>Node17</title>
<g id="a_node17"><a xlink:href="classid_list.html" target="_top" xlink:title="idList\&lt; MaterialView * \&gt;">
<polygon fill="white" stroke="black" points="221,-391.5 221,-410.5 341,-410.5 341,-391.5 221,-391.5"/>
<text text-anchor="middle" x="281" y="-398.5" font-family="Arial" font-size="10.00">idList&lt; MaterialView * &gt;</text>
</a>
</g>
</g>
<!-- Node17&#45;&gt;Node4 -->
<g id="edge19" class="edge"><title>Node17&#45;&gt;Node4</title>
<path fill="none" stroke="#9a32cd" stroke-dasharray="5,2" d="M351.174,-398.344C385.618,-395.029 427.221,-387.938 462,-373 486.539,-362.46 510.058,-341.301 522.608,-328.828"/>
<polygon fill="#9a32cd" stroke="#9a32cd" points="350.852,-394.859 341.196,-399.22 351.464,-401.832 350.852,-394.859"/>
<text text-anchor="middle" x="417" y="-398" font-family="Arial" font-size="10.00"> materialViews</text>
</g>
<!-- Node18&#45;&gt;Node1 -->
<g id="edge22" class="edge"><title>Node18&#45;&gt;Node1</title>
<path fill="none" stroke="#9a32cd" stroke-dasharray="5,2" d="M1270.7,-299C1303.25,-299 1348.79,-299 1382.14,-299"/>
<polygon fill="#9a32cd" stroke="#9a32cd" points="1270.63,-295.5 1260.63,-299 1270.62,-302.5 1270.63,-295.5"/>
<text text-anchor="middle" x="1333" y="-302" font-family="Arial" font-size="10.00"> m_stageView</text>
</g>
<!-- Node19 -->
<g id="node19" class="node"><title>Node19</title>
<g id="a_node19"><a xlink:href="class_toggle_list_view.html" target="_top" xlink:title="ToggleListView">
<polygon fill="white" stroke="black" points="955,-190.5 955,-209.5 1037,-209.5 1037,-190.5 955,-190.5"/>
<text text-anchor="middle" x="996" y="-197.5" font-family="Arial" font-size="10.00">ToggleListView</text>
</a>
</g>
</g>
<!-- Node19&#45;&gt;Node18 -->
<g id="edge23" class="edge"><title>Node19&#45;&gt;Node18</title>
<path fill="none" stroke="midnightblue" d="M1033.62,-213.061C1066.14,-224.943 1114.75,-243.417 1156,-262 1174.96,-270.543 1196.07,-281.575 1210.49,-289.362"/>
<polygon fill="midnightblue" stroke="midnightblue" points="1034.67,-209.717 1024.07,-209.592 1032.28,-216.296 1034.67,-209.717"/>
</g>
<!-- Node20 -->
<g id="node20" class="node"><title>Node20</title>
<polygon fill="white" stroke="#bfbfbf" points="733,-190.5 733,-209.5 793,-209.5 793,-190.5 733,-190.5"/>
<text text-anchor="middle" x="763" y="-197.5" font-family="Arial" font-size="10.00">CListView</text>
</g>
<!-- Node20&#45;&gt;Node19 -->
<g id="edge24" class="edge"><title>Node20&#45;&gt;Node19</title>
<path fill="none" stroke="midnightblue" d="M803.43,-200C845.63,-200 912.229,-200 954.744,-200"/>
<polygon fill="midnightblue" stroke="midnightblue" points="803.256,-196.5 793.256,-200 803.256,-203.5 803.256,-196.5"/>
</g>
<!-- Node21&#45;&gt;Node1 -->
<g id="edge39" class="edge"><title>Node21&#45;&gt;Node1</title>
<path fill="none" stroke="#9a32cd" stroke-dasharray="5,2" d="M1061.73,-377.639C1090.7,-375.535 1125.2,-372.2 1156,-367 1243.7,-352.192 1344.81,-323.541 1394.75,-308.597"/>
<polygon fill="#9a32cd" stroke="#9a32cd" points="1061.46,-374.149 1051.73,-378.333 1061.95,-381.133 1061.46,-374.149"/>
<text text-anchor="middle" x="1229" y="-366" font-family="Arial" font-size="10.00"> m_materialPropertyView</text>
</g>
<!-- Node21&#45;&gt;Node18 -->
<g id="edge27" class="edge"><title>Node21&#45;&gt;Node18</title>
<path fill="none" stroke="#9a32cd" stroke-dasharray="5,2" d="M1033.03,-368.112C1044.76,-364.063 1057.89,-359.69 1070,-356 1107.85,-344.473 1118.85,-346.613 1156,-333 1174.95,-326.056 1195.7,-315.974 1210.04,-308.591"/>
<polygon fill="#9a32cd" stroke="#9a32cd" points="1031.85,-364.819 1023.55,-371.416 1034.15,-371.429 1031.85,-364.819"/>
<text text-anchor="middle" x="1113" y="-359" font-family="Arial" font-size="10.00"> m_propView</text>
</g>
<!-- Node22&#45;&gt;Node21 -->
<g id="edge28" class="edge"><title>Node22&#45;&gt;Node21</title>
<path fill="none" stroke="midnightblue" d="M797.561,-475.638C829.833,-462.537 879.798,-441.586 922,-421 941.873,-411.306 964.066,-398.912 978.708,-390.507"/>
<polygon fill="midnightblue" stroke="midnightblue" points="796.103,-472.452 788.142,-479.443 798.725,-478.942 796.103,-472.452"/>
</g>
<!-- Node23 -->
<g id="node23" class="node"><title>Node23</title>
<g id="a_node23"><a xlink:href="classrv_registry_options.html" target="_top" xlink:title="rvRegistryOptions">
<polygon fill="white" stroke="black" points="716.5,-365.5 716.5,-384.5 809.5,-384.5 809.5,-365.5 716.5,-365.5"/>
<text text-anchor="middle" x="763" y="-372.5" font-family="Arial" font-size="10.00">rvRegistryOptions</text>
</a>
</g>
</g>
<!-- Node23&#45;&gt;Node21 -->
<g id="edge31" class="edge"><title>Node23&#45;&gt;Node21</title>
<path fill="none" stroke="#9a32cd" stroke-dasharray="5,2" d="M820.098,-376.457C856.561,-377.404 903.876,-378.633 940.098,-379.574"/>
<polygon fill="#9a32cd" stroke="#9a32cd" points="819.726,-372.946 809.638,-376.185 819.544,-379.944 819.726,-372.946"/>
<text text-anchor="middle" x="875" y="-382" font-family="Arial" font-size="10.00"> registry</text>
</g>
<!-- Node24 -->
<g id="node24" class="node"><title>Node24</title>
<g id="a_node24"><a xlink:href="classid_list.html" target="_top" xlink:title="idList\&lt; type \&gt;">
<polygon fill="white" stroke="black" points="724.5,-403.5 724.5,-422.5 801.5,-422.5 801.5,-403.5 724.5,-403.5"/>
<text text-anchor="middle" x="763" y="-410.5" font-family="Arial" font-size="10.00">idList&lt; type &gt;</text>
</a>
</g>
</g>
<!-- Node24&#45;&gt;Node21 -->
<g id="edge33" class="edge"><title>Node24&#45;&gt;Node21</title>
<path fill="none" stroke="#9a32cd" stroke-dasharray="5,2" d="M811.965,-407.945C843.334,-404.464 885.174,-399.489 922,-394 929.003,-392.956 936.366,-391.761 943.612,-390.527"/>
<polygon fill="#9a32cd" stroke="#9a32cd" points="811.309,-404.496 801.751,-409.067 812.073,-411.455 811.309,-404.496"/>
<text text-anchor="middle" x="875" y="-409" font-family="Arial" font-size="10.00"> currentPropDefs</text>
</g>
<!-- Node25 -->
<g id="node25" class="node"><title>Node25</title>
<g id="a_node25"><a xlink:href="class_c_syntax_rich_edit_ctrl.html" target="_top" xlink:title="CSyntaxRichEditCtrl">
<polygon fill="white" stroke="black" points="1176,-76.5 1176,-95.5 1282,-95.5 1282,-76.5 1176,-76.5"/>
<text text-anchor="middle" x="1229" y="-83.5" font-family="Arial" font-size="10.00">CSyntaxRichEditCtrl</text>
</a>
</g>
</g>
<!-- Node25&#45;&gt;Node1 -->
<g id="edge34" class="edge"><title>Node25&#45;&gt;Node1</title>
<path fill="none" stroke="#9a32cd" stroke-dasharray="5,2" d="M1291.89,-97.8965C1316.98,-105.443 1344.56,-117.595 1364,-137 1408.55,-181.463 1421.68,-261.303 1425,-289.12"/>
<polygon fill="#9a32cd" stroke="#9a32cd" points="1292.63,-94.4687 1282.06,-95.1286 1290.73,-101.207 1292.63,-94.4687"/>
<text text-anchor="middle" x="1333" y="-140" font-family="Arial" font-size="10.00"> m_textView</text>
</g>
<!-- Node26 -->
<g id="node26" class="node"><title>Node26</title>
<polygon fill="white" stroke="#bfbfbf" points="958.5,-76.5 958.5,-95.5 1033.5,-95.5 1033.5,-76.5 958.5,-76.5"/>
<text text-anchor="middle" x="996" y="-83.5" font-family="Arial" font-size="10.00">CRichEditCtrl</text>
</g>
<!-- Node26&#45;&gt;Node25 -->
<g id="edge35" class="edge"><title>Node26&#45;&gt;Node25</title>
<path fill="none" stroke="midnightblue" d="M1043.94,-86C1082.16,-86 1136.07,-86 1175.68,-86"/>
<polygon fill="midnightblue" stroke="midnightblue" points="1043.6,-82.5001 1033.6,-86 1043.6,-89.5001 1043.6,-82.5001"/>
</g>
<!-- Node27 -->
<g id="node27" class="node"><title>Node27</title>
<g id="a_node27"><a xlink:href="classid_list.html" target="_top" xlink:title="idList\&lt; keyWord_t \&gt;">
<polygon fill="white" stroke="black" points="943.5,-38.5 943.5,-57.5 1048.5,-57.5 1048.5,-38.5 943.5,-38.5"/>
<text text-anchor="middle" x="996" y="-45.5" font-family="Arial" font-size="10.00">idList&lt; keyWord_t &gt;</text>
</a>
</g>
</g>
<!-- Node27&#45;&gt;Node25 -->
<g id="edge36" class="edge"><title>Node27&#45;&gt;Node25</title>
<path fill="none" stroke="#9a32cd" stroke-dasharray="5,2" d="M1058.84,-56.0415C1088.33,-60.1067 1124.06,-65.368 1156,-71 1165.18,-72.6185 1174.98,-74.5337 1184.3,-76.4447"/>
<polygon fill="#9a32cd" stroke="#9a32cd" points="1059.07,-52.5403 1048.69,-54.6549 1058.12,-59.4759 1059.07,-52.5403"/>
<text text-anchor="middle" x="1113" y="-74" font-family="Arial" font-size="10.00"> keyWordsFromFile</text>
</g>
<!-- Node28 -->
<g id="node28" class="node"><title>Node28</title>
<g id="a_node28"><a xlink:href="structkey_word__t.html" target="_top" xlink:title="keyWord_t">
<polygon fill="white" stroke="black" points="964,-0.5 964,-19.5 1028,-19.5 1028,-0.5 964,-0.5"/>
<text text-anchor="middle" x="996" y="-7.5" font-family="Arial" font-size="10.00">keyWord_t</text>
</a>
</g>
</g>
<!-- Node28&#45;&gt;Node25 -->
<g id="edge37" class="edge"><title>Node28&#45;&gt;Node25</title>
<path fill="none" stroke="#9a32cd" stroke-dasharray="5,2" d="M1038.13,-15.1322C1070.86,-20.0772 1117.4,-29.0566 1156,-44 1177.73,-52.4115 1200.6,-66.8549 1214.59,-76.4162"/>
<polygon fill="#9a32cd" stroke="#9a32cd" points="1038.42,-11.6373 1028.02,-13.666 1037.41,-18.5648 1038.42,-11.6373"/>
<text text-anchor="middle" x="1113" y="-47" font-family="Arial" font-size="10.00"> keyWords</text>
</g>
<!-- Node29 -->
<g id="node29" class="node"><title>Node29</title>
<g id="a_node29"><a xlink:href="classid_hash_index.html" target="_top" xlink:title="idHashIndex">
<polygon fill="white" stroke="black" points="961,-114.5 961,-133.5 1031,-133.5 1031,-114.5 961,-114.5"/>
<text text-anchor="middle" x="996" y="-121.5" font-family="Arial" font-size="10.00">idHashIndex</text>
</a>
</g>
</g>
<!-- Node29&#45;&gt;Node25 -->
<g id="edge38" class="edge"><title>Node29&#45;&gt;Node25</title>
<path fill="none" stroke="#9a32cd" stroke-dasharray="5,2" d="M1041.11,-117.852C1073.06,-113.274 1117.28,-106.684 1156,-100 1163.91,-98.6354 1172.28,-97.0945 1180.42,-95.5469"/>
<polygon fill="#9a32cd" stroke="#9a32cd" points="1040.59,-114.39 1031.18,-119.266 1041.58,-121.321 1040.59,-114.39"/>
<text text-anchor="middle" x="1113" y="-116" font-family="Arial" font-size="10.00"> keyWordHash</text>
</g>
</g>
</svg>
        <g id="navigator" transform="translate(0 0)" fill="#404254">
                <rect fill="#f2f5e9" fill-opacity="0.5" stroke="#606060" stroke-width=".5" x="0" y="0" width="60" height="60"/>
                <use id="zoomplus" xlink:href="#zoomPlus" x="17" y="9" onmousedown="handleZoom(evt,'in')"/>
                <use id="zoomminus" xlink:href="#zoomMin" x="42" y="9" onmousedown="handleZoom(evt,'out')"/>
                <use id="reset" xlink:href="#resetDef" x="30" y="36" onmousedown="handleReset()"/>
                <g id="arrowUp" xlink:href="#dirArrow" transform="translate(30 24)" onmousedown="handlePan(0,-1)">
                  <use xlink:href="#rim" fill="#404040">
                        <set attributeName="fill" to="#808080" begin="arrowUp.mouseover" end="arrowUp.mouseout"/>
                  </use>
                  <path fill="none" stroke="white" stroke-width="1.5" d="M0,-3.0v7 M-2.5,-0.5L0,-3.0L2.5,-0.5"/>
                </g>
                <g id="arrowRight" xlink:href="#dirArrow" transform="rotate(90) translate(36 -43)" onmousedown="handlePan(1,0)">
                  <use xlink:href="#rim" fill="#404040">
                        <set attributeName="fill" to="#808080" begin="arrowRight.mouseover" end="arrowRight.mouseout"/>
                  </use>
                  <path fill="none" stroke="white" stroke-width="1.5" d="M0,-3.0v7 M-2.5,-0.5L0,-3.0L2.5,-0.5"/>
                </g>
                <g id="arrowDown" xlink:href="#dirArrow" transform="rotate(180) translate(-30 -48)" onmousedown="handlePan(0,1)">
                  <use xlink:href="#rim" fill="#404040">
                        <set attributeName="fill" to="#808080" begin="arrowDown.mouseover" end="arrowDown.mouseout"/>
                  </use>
                  <path fill="none" stroke="white" stroke-width="1.5" d="M0,-3.0v7 M-2.5,-0.5L0,-3.0L2.5,-0.5"/>
                </g>
                <g id="arrowLeft" xlink:href="#dirArrow" transform="rotate(270) translate(-36 17)" onmousedown="handlePan(-1,0)">
                  <use xlink:href="#rim" fill="#404040">
                        <set attributeName="fill" to="#808080" begin="arrowLeft.mouseover" end="arrowLeft.mouseout"/>
                  </use>
                  <path fill="none" stroke="white" stroke-width="1.5" d="M0,-3.0v7 M-2.5,-0.5L0,-3.0L2.5,-0.5"/>
                </g>
        </g>
        <svg viewBox="0 0 15 15" width="100%" height="30px" preserveAspectRatio="xMaxYMin meet">
         <g id="arrow_out" transform="scale(0.3 0.3)">
          <a xlink:href="class_material_edit_view__coll__graph_org.svg" target="_base">
           <rect id="button" ry="5" rx="5" y="6" x="6" height="38" width="38"
                fill="#f2f5e9" fill-opacity="0.5" stroke="#606060" stroke-width="1.0"/>
           <path id="arrow"
             d="M 11.500037,31.436501 C 11.940474,20.09759 22.043105,11.32322 32.158766,21.979434 L 37.068811,17.246167 C 37.068811,17.246167 37.088388,32 37.088388,32 L 22.160133,31.978069 C 22.160133,31.978069 26.997745,27.140456 26.997745,27.140456 C 18.528582,18.264221 13.291696,25.230495 11.500037,31.436501 z"
             style="fill:#404040;"/>
          </a>
         </g>
        </svg>
</svg>
