<?xml version="1.0" encoding="UTF-8" standalone="no"?>
<!DOCTYPE svg PUBLIC "-//W3C//DTD SVG 1.1//EN"
 "http://www.w3.org/Graphics/SVG/1.1/DTD/svg11.dtd">
<!-- Generated by graphviz version 2.34.0 (20130907.0111)
 -->
<!-- Title: StageMoveModifier Pages: 1 -->
<svg width="942pt" height="358pt"
 viewBox="0.00 0.00 942.00 358.00" xmlns="http://www.w3.org/2000/svg" xmlns:xlink="http://www.w3.org/1999/xlink">
<g id="graph0" class="graph" transform="scale(1 1) rotate(0) translate(4 354)">
<title>StageMoveModifier</title>
<polygon fill="white" stroke="white" points="-4,4 -4,-354 938,-354 938,4 -4,4"/>
<!-- Node1 -->
<g id="node1" class="node"><title>Node1</title>
<polygon fill="#bfbfbf" stroke="black" points="836,-292.5 836,-311.5 934,-311.5 934,-292.5 836,-292.5"/>
<text text-anchor="middle" x="885" y="-299.5" font-family="Arial" font-size="10.00">StageMoveModifier</text>
</g>
<!-- Node2 -->
<g id="node2" class="node"><title>Node2</title>
<g id="a_node2"><a xlink:href="class_material_modifier.html" target="_top" xlink:title="MaterialModifier">
<polygon fill="white" stroke="black" points="712.5,-292.5 712.5,-311.5 797.5,-311.5 797.5,-292.5 712.5,-292.5"/>
<text text-anchor="middle" x="755" y="-299.5" font-family="Arial" font-size="10.00">MaterialModifier</text>
</a>
</g>
</g>
<!-- Node2&#45;&gt;Node1 -->
<g id="edge1" class="edge"><title>Node2&#45;&gt;Node1</title>
<path fill="none" stroke="midnightblue" d="M807.856,-302C817.15,-302 826.799,-302 835.979,-302"/>
<polygon fill="midnightblue" stroke="midnightblue" points="807.558,-298.5 797.558,-302 807.558,-305.5 807.558,-298.5"/>
</g>
<!-- Node3 -->
<g id="node3" class="node"><title>Node3</title>
<g id="a_node3"><a xlink:href="classid_str.html" target="_top" xlink:title="idStr">
<polygon fill="white" stroke="black" points="262.5,-301.5 262.5,-320.5 299.5,-320.5 299.5,-301.5 262.5,-301.5"/>
<text text-anchor="middle" x="281" y="-308.5" font-family="Arial" font-size="10.00">idStr</text>
</a>
</g>
</g>
<!-- Node3&#45;&gt;Node2 -->
<g id="edge2" class="edge"><title>Node3&#45;&gt;Node2</title>
<path fill="none" stroke="#9a32cd" stroke-dasharray="5,2" d="M309.467,-316.332C327.228,-319.517 350.888,-323.269 372,-325 514.633,-336.692 553.401,-351.699 694,-325 708.029,-322.336 723.029,-316.586 734.522,-311.502"/>
<polygon fill="#9a32cd" stroke="#9a32cd" points="309.97,-312.866 299.501,-314.494 308.7,-319.749 309.97,-312.866"/>
<text text-anchor="middle" x="533" y="-342" font-family="Arial" font-size="10.00"> materialName</text>
</g>
<!-- Node4 -->
<g id="node4" class="node"><title>Node4</title>
<g id="a_node4"><a xlink:href="class_material_doc_manager.html" target="_top" xlink:title="MaterialDocManager">
<polygon fill="white" stroke="black" points="480,-180.5 480,-199.5 586,-199.5 586,-180.5 480,-180.5"/>
<text text-anchor="middle" x="533" y="-187.5" font-family="Arial" font-size="10.00">MaterialDocManager</text>
</a>
</g>
</g>
<!-- Node3&#45;&gt;Node4 -->
<g id="edge4" class="edge"><title>Node3&#45;&gt;Node4</title>
<path fill="none" stroke="#9a32cd" stroke-dasharray="5,2" d="M309.406,-299.215C327.102,-291.81 350.713,-282.312 372,-275 411.377,-261.474 425.279,-268.624 462,-249 486.671,-235.816 510.505,-212.873 522.993,-199.822"/>
<polygon fill="#9a32cd" stroke="#9a32cd" points="307.584,-296.185 299.733,-303.3 310.307,-302.633 307.584,-296.185"/>
<text text-anchor="middle" x="417" y="-289" font-family="Arial" font-size="10.00"> copyMaterial</text>
<text text-anchor="middle" x="417" y="-278" font-family="Arial" font-size="10.00">copyStageMaterial</text>
</g>
<!-- Node8 -->
<g id="node8" class="node"><title>Node8</title>
<g id="a_node8"><a xlink:href="class_material_doc.html" target="_top" xlink:title="MaterialDoc">
<polygon fill="white" stroke="black" points="721,-104.5 721,-123.5 789,-123.5 789,-104.5 721,-104.5"/>
<text text-anchor="middle" x="755" y="-111.5" font-family="Arial" font-size="10.00">MaterialDoc</text>
</a>
</g>
</g>
<!-- Node3&#45;&gt;Node8 -->
<g id="edge9" class="edge"><title>Node3&#45;&gt;Node8</title>
<path fill="none" stroke="#9a32cd" stroke-dasharray="5,2" d="M310.099,-312.943C392.867,-318.085 633.723,-328.704 694,-283 746.595,-243.12 753.227,-153.393 753.953,-123.727"/>
<polygon fill="#9a32cd" stroke="#9a32cd" points="310.141,-309.439 299.937,-312.289 309.692,-316.424 310.141,-309.439"/>
<text text-anchor="middle" x="533" y="-320" font-family="Arial" font-size="10.00"> name</text>
</g>
<!-- Node4&#45;&gt;Node2 -->
<g id="edge3" class="edge"><title>Node4&#45;&gt;Node2</title>
<path fill="none" stroke="#9a32cd" stroke-dasharray="5,2" d="M561.769,-204.137C607.274,-227.303 696.528,-272.741 735.29,-292.475"/>
<polygon fill="#9a32cd" stroke="#9a32cd" points="563.257,-200.967 552.757,-199.549 560.081,-207.205 563.257,-200.967"/>
<text text-anchor="middle" x="649" y="-271" font-family="Arial" font-size="10.00"> manager</text>
</g>
<!-- Node4&#45;&gt;Node8 -->
<g id="edge13" class="edge"><title>Node4&#45;&gt;Node8</title>
<path fill="none" stroke="#9a32cd" stroke-dasharray="5,2" d="M550.234,-173.094C563.458,-160.429 583.274,-143.825 604,-135 641.863,-118.878 689.491,-114.62 720.794,-113.745"/>
<polygon fill="#9a32cd" stroke="#9a32cd" points="547.538,-170.838 542.903,-180.366 552.468,-175.808 547.538,-170.838"/>
<text text-anchor="middle" x="649" y="-138" font-family="Arial" font-size="10.00"> manager</text>
</g>
<!-- Node5 -->
<g id="node5" class="node"><title>Node5</title>
<g id="a_node5"><a xlink:href="classid_list.html" target="_top" xlink:title="idList\&lt; MaterialModifier * \&gt;">
<polygon fill="white" stroke="black" points="214.5,-227.5 214.5,-246.5 347.5,-246.5 347.5,-227.5 214.5,-227.5"/>
<text text-anchor="middle" x="281" y="-234.5" font-family="Arial" font-size="10.00">idList&lt; MaterialModifier * &gt;</text>
</a>
</g>
</g>
<!-- Node5&#45;&gt;Node4 -->
<g id="edge5" class="edge"><title>Node5&#45;&gt;Node4</title>
<path fill="none" stroke="#9a32cd" stroke-dasharray="5,2" d="M356.254,-225.875C388.806,-220.676 427.401,-214.075 462,-207 472.782,-204.795 484.423,-202.098 495.058,-199.506"/>
<polygon fill="#9a32cd" stroke="#9a32cd" points="355.686,-222.421 346.357,-227.443 356.781,-229.335 355.686,-222.421"/>
<text text-anchor="middle" x="417" y="-237" font-family="Arial" font-size="10.00"> undoModifiers</text>
<text text-anchor="middle" x="417" y="-226" font-family="Arial" font-size="10.00">redoModifiers</text>
</g>
<!-- Node6 -->
<g id="node6" class="node"><title>Node6</title>
<g id="a_node6"><a xlink:href="struct_m_e_stage__t.html" target="_top" xlink:title="MEStage_t">
<polygon fill="white" stroke="black" points="248.5,-189.5 248.5,-208.5 313.5,-208.5 313.5,-189.5 248.5,-189.5"/>
<text text-anchor="middle" x="281" y="-196.5" font-family="Arial" font-size="10.00">MEStage_t</text>
</a>
</g>
</g>
<!-- Node6&#45;&gt;Node4 -->
<g id="edge6" class="edge"><title>Node6&#45;&gt;Node4</title>
<path fill="none" stroke="#9a32cd" stroke-dasharray="5,2" d="M323.748,-197.497C366.595,-195.955 433.372,-193.551 479.711,-191.882"/>
<polygon fill="#9a32cd" stroke="#9a32cd" points="323.53,-194.003 313.663,-197.86 323.782,-200.998 323.53,-194.003"/>
<text text-anchor="middle" x="417" y="-198" font-family="Arial" font-size="10.00"> copyStage</text>
</g>
<!-- Node7 -->
<g id="node7" class="node"><title>Node7</title>
<g id="a_node7"><a xlink:href="classid_dict.html" target="_top" xlink:title="idDict">
<polygon fill="white" stroke="black" points="36.5,-140.5 36.5,-159.5 77.5,-159.5 77.5,-140.5 36.5,-140.5"/>
<text text-anchor="middle" x="57" y="-147.5" font-family="Arial" font-size="10.00">idDict</text>
</a>
</g>
</g>
<!-- Node7&#45;&gt;Node6 -->
<g id="edge7" class="edge"><title>Node7&#45;&gt;Node6</title>
<path fill="none" stroke="#9a32cd" stroke-dasharray="5,2" d="M87.55,-156.522C129.356,-165.75 205.445,-182.544 248.36,-192.017"/>
<polygon fill="#9a32cd" stroke="#9a32cd" points="88.2204,-153.086 77.701,-154.348 86.7116,-159.922 88.2204,-153.086"/>
<text text-anchor="middle" x="161" y="-181" font-family="Arial" font-size="10.00"> stageData</text>
</g>
<!-- Node9 -->
<g id="node9" class="node"><title>Node9</title>
<g id="a_node9"><a xlink:href="struct_m_e_material__t.html" target="_top" xlink:title="MEMaterial_t">
<polygon fill="white" stroke="black" points="244,-75.5 244,-94.5 318,-94.5 318,-75.5 244,-75.5"/>
<text text-anchor="middle" x="281" y="-82.5" font-family="Arial" font-size="10.00">MEMaterial_t</text>
</a>
</g>
</g>
<!-- Node7&#45;&gt;Node9 -->
<g id="edge12" class="edge"><title>Node7&#45;&gt;Node9</title>
<path fill="none" stroke="#9a32cd" stroke-dasharray="5,2" d="M87.7111,-140.509C117.9,-130.955 166.057,-115.96 208,-104 219.562,-100.703 232.226,-97.294 243.665,-94.2895"/>
<polygon fill="#9a32cd" stroke="#9a32cd" points="86.2946,-137.286 77.8219,-143.648 88.4122,-143.958 86.2946,-137.286"/>
<text text-anchor="middle" x="161" y="-129" font-family="Arial" font-size="10.00"> materialData</text>
</g>
<!-- Node8&#45;&gt;Node4 -->
<g id="edge8" class="edge"><title>Node8&#45;&gt;Node4</title>
<path fill="none" stroke="#9a32cd" stroke-dasharray="5,2" d="M731.809,-129.47C720.836,-136.548 707.152,-144.552 694,-150 659.214,-164.409 617.948,-174.569 586.037,-181.044"/>
<polygon fill="#9a32cd" stroke="#9a32cd" points="733.924,-132.267 740.317,-123.818 730.051,-126.436 733.924,-132.267"/>
<text text-anchor="middle" x="649" y="-180" font-family="Arial" font-size="10.00"> currentMaterial</text>
</g>
<!-- Node9&#45;&gt;Node8 -->
<g id="edge10" class="edge"><title>Node9&#45;&gt;Node8</title>
<path fill="none" stroke="#9a32cd" stroke-dasharray="5,2" d="M328.425,-87.8524C423.479,-93.6926 638.245,-106.888 720.804,-111.96"/>
<polygon fill="#9a32cd" stroke="#9a32cd" points="328.449,-84.3474 318.253,-87.2274 328.02,-91.3342 328.449,-84.3474"/>
<text text-anchor="middle" x="533" y="-106" font-family="Arial" font-size="10.00"> editMaterial</text>
</g>
<!-- Node10 -->
<g id="node10" class="node"><title>Node10</title>
<g id="a_node10"><a xlink:href="classid_list.html" target="_top" xlink:title="idList\&lt; MEStage_t * \&gt;">
<polygon fill="white" stroke="black" points="0.5,-75.5 0.5,-94.5 113.5,-94.5 113.5,-75.5 0.5,-75.5"/>
<text text-anchor="middle" x="57" y="-82.5" font-family="Arial" font-size="10.00">idList&lt; MEStage_t * &gt;</text>
</a>
</g>
</g>
<!-- Node10&#45;&gt;Node9 -->
<g id="edge11" class="edge"><title>Node10&#45;&gt;Node9</title>
<path fill="none" stroke="#9a32cd" stroke-dasharray="5,2" d="M123.754,-85C162.982,-85 211.306,-85 243.736,-85"/>
<polygon fill="#9a32cd" stroke="#9a32cd" points="123.733,-81.5001 113.733,-85 123.733,-88.5001 123.733,-81.5001"/>
<text text-anchor="middle" x="161" y="-88" font-family="Arial" font-size="10.00"> stages</text>
</g>
<!-- Node11 -->
<g id="node11" class="node"><title>Node11</title>
<g id="a_node11"><a xlink:href="class_source_modify_owner.html" target="_top" xlink:title="SourceModifyOwner">
<polygon fill="white" stroke="black" points="481,-38.5 481,-57.5 585,-57.5 585,-38.5 481,-38.5"/>
<text text-anchor="middle" x="533" y="-45.5" font-family="Arial" font-size="10.00">SourceModifyOwner</text>
</a>
</g>
</g>
<!-- Node11&#45;&gt;Node8 -->
<g id="edge14" class="edge"><title>Node11&#45;&gt;Node8</title>
<path fill="none" stroke="#9a32cd" stroke-dasharray="5,2" d="M595.176,-48.7433C625.801,-50.9096 662.882,-56.3178 694,-69 714.016,-77.1577 733.302,-93.6571 744.389,-104.25"/>
<polygon fill="#9a32cd" stroke="#9a32cd" points="595.249,-45.2414 585.055,-48.1271 594.824,-52.2284 595.249,-45.2414"/>
<text text-anchor="middle" x="649" y="-72" font-family="Arial" font-size="10.00"> sourceModifyOwner</text>
</g>
<!-- Node12 -->
<g id="node12" class="node"><title>Node12</title>
<g id="a_node12"><a xlink:href="classid_material.html" target="_top" xlink:title="idMaterial">
<polygon fill="white" stroke="black" points="503.5,-0.5 503.5,-19.5 562.5,-19.5 562.5,-0.5 503.5,-0.5"/>
<text text-anchor="middle" x="533" y="-7.5" font-family="Arial" font-size="10.00">idMaterial</text>
</a>
</g>
</g>
<!-- Node12&#45;&gt;Node8 -->
<g id="edge15" class="edge"><title>Node12&#45;&gt;Node8</title>
<path fill="none" stroke="#9a32cd" stroke-dasharray="5,2" d="M572.818,-8.17728C607.025,-8.32015 657.026,-12.9309 694,-35 722.098,-51.7712 741.539,-87.1642 749.695,-104.299"/>
<polygon fill="#9a32cd" stroke="#9a32cd" points="572.711,-4.67795 562.741,-8.262 572.77,-11.6777 572.711,-4.67795"/>
<text text-anchor="middle" x="649" y="-38" font-family="Arial" font-size="10.00"> renderMaterial</text>
</g>
<!-- Node13 -->
<g id="node13" class="node"><title>Node13</title>
<g id="a_node13"><a xlink:href="classid_decl.html" target="_top" xlink:title="idDecl">
<polygon fill="white" stroke="black" points="259,-0.5 259,-19.5 303,-19.5 303,-0.5 259,-0.5"/>
<text text-anchor="middle" x="281" y="-7.5" font-family="Arial" font-size="10.00">idDecl</text>
</a>
</g>
</g>
<!-- Node13&#45;&gt;Node12 -->
<g id="edge16" class="edge"><title>Node13&#45;&gt;Node12</title>
<path fill="none" stroke="midnightblue" d="M313.621,-10C362.579,-10 455.99,-10 503.185,-10"/>
<polygon fill="midnightblue" stroke="midnightblue" points="313.315,-6.5001 303.315,-10 313.315,-13.5001 313.315,-6.5001"/>
</g>
<!-- Node14 -->
<g id="node14" class="node"><title>Node14</title>
<g id="a_node14"><a xlink:href="classid_decl_base.html" target="_top" xlink:title="idDeclBase">
<polygon fill="white" stroke="black" points="24,-0.5 24,-19.5 90,-19.5 90,-0.5 24,-0.5"/>
<text text-anchor="middle" x="57" y="-7.5" font-family="Arial" font-size="10.00">idDeclBase</text>
</a>
</g>
</g>
<!-- Node14&#45;&gt;Node13 -->
<g id="edge17" class="edge"><title>Node14&#45;&gt;Node13</title>
<path fill="none" stroke="#9a32cd" stroke-dasharray="5,2" d="M100.52,-10C147.836,-10 222.398,-10 258.71,-10"/>
<polygon fill="#9a32cd" stroke="#9a32cd" points="100.281,-6.5001 90.2807,-10 100.281,-13.5001 100.281,-6.5001"/>
<text text-anchor="middle" x="161" y="-13" font-family="Arial" font-size="10.00"> base</text>
</g>
<!-- Node15 -->
<g id="node15" class="node"><title>Node15</title>
<g id="a_node15"><a xlink:href="classid_hash_table.html" target="_top" xlink:title="idHashTable\&lt; MaterialDoc * \&gt;">
<polygon fill="white" stroke="black" points="208,-151.5 208,-170.5 354,-170.5 354,-151.5 208,-151.5"/>
<text text-anchor="middle" x="281" y="-158.5" font-family="Arial" font-size="10.00">idHashTable&lt; MaterialDoc * &gt;</text>
</a>
</g>
</g>
<!-- Node15&#45;&gt;Node4 -->
<g id="edge18" class="edge"><title>Node15&#45;&gt;Node4</title>
<path fill="none" stroke="#9a32cd" stroke-dasharray="5,2" d="M364.65,-166.691C395.299,-169.237 430.304,-172.658 462,-177 469.103,-177.973 476.58,-179.172 483.898,-180.446"/>
<polygon fill="#9a32cd" stroke="#9a32cd" points="364.685,-163.182 354.434,-165.861 364.118,-170.159 364.685,-163.182"/>
<text text-anchor="middle" x="417" y="-180" font-family="Arial" font-size="10.00"> inProgressMaterials</text>
</g>
<!-- Node16 -->
<g id="node16" class="node"><title>Node16</title>
<g id="a_node16"><a xlink:href="classid_list.html" target="_top" xlink:title="idList\&lt; MaterialView * \&gt;">
<polygon fill="white" stroke="black" points="221,-113.5 221,-132.5 341,-132.5 341,-113.5 221,-113.5"/>
<text text-anchor="middle" x="281" y="-120.5" font-family="Arial" font-size="10.00">idList&lt; MaterialView * &gt;</text>
</a>
</g>
</g>
<!-- Node16&#45;&gt;Node4 -->
<g id="edge19" class="edge"><title>Node16&#45;&gt;Node4</title>
<path fill="none" stroke="#9a32cd" stroke-dasharray="5,2" d="M351.477,-128.662C385.457,-132.813 426.568,-139.921 462,-152 482.549,-159.005 504.221,-171.71 517.91,-180.489"/>
<polygon fill="#9a32cd" stroke="#9a32cd" points="351.511,-125.142 341.175,-127.466 350.704,-132.095 351.511,-125.142"/>
<text text-anchor="middle" x="417" y="-155" font-family="Arial" font-size="10.00"> materialViews</text>
</g>
</g>
</svg>
