<?xml version="1.0" encoding="UTF-8" standalone="no"?>
<!DOCTYPE svg PUBLIC "-//W3C//DTD SVG 1.1//EN"
 "http://www.w3.org/Graphics/SVG/1.1/DTD/svg11.dtd">
<!-- Generated by graphviz version 2.34.0 (20130907.0111)
 -->
<!-- Title: idSoundChannel Pages: 1 -->
<svg width="541pt" height="232pt"
 viewBox="0.00 0.00 541.00 232.00" xmlns="http://www.w3.org/2000/svg" xmlns:xlink="http://www.w3.org/1999/xlink">
<g id="graph0" class="graph" transform="scale(1 1) rotate(0) translate(4 228)">
<title>idSoundChannel</title>
<polygon fill="white" stroke="white" points="-4,4 -4,-228 537,-228 537,4 -4,4"/>
<!-- Node1 -->
<g id="node1" class="node"><title>Node1</title>
<polygon fill="#bfbfbf" stroke="black" points="222.5,-0.5 222.5,-19.5 309.5,-19.5 309.5,-0.5 222.5,-0.5"/>
<text text-anchor="middle" x="266" y="-7.5" font-family="Arial" font-size="10.00">idSoundChannel</text>
</g>
<!-- Node2 -->
<g id="node2" class="node"><title>Node2</title>
<g id="a_node2"><a xlink:href="classid_sound_sample.html" target="_top" xlink:title="idSoundSample">
<polygon fill="white" stroke="black" points="15.5,-68.5 15.5,-87.5 100.5,-87.5 100.5,-68.5 15.5,-68.5"/>
<text text-anchor="middle" x="58" y="-75.5" font-family="Arial" font-size="10.00">idSoundSample</text>
</a>
</g>
</g>
<!-- Node2&#45;&gt;Node1 -->
<g id="edge1" class="edge"><title>Node2&#45;&gt;Node1</title>
<path fill="none" stroke="#9a32cd" stroke-dasharray="5,2" d="M77.2379,-62.475C89.2325,-54.103 105.322,-44.0667 121,-38 153.717,-25.3404 192.943,-18.4979 222.342,-14.872"/>
<polygon fill="#9a32cd" stroke="#9a32cd" points="75.0026,-59.7717 68.9383,-68.4594 79.0967,-65.4497 75.0026,-59.7717"/>
<text text-anchor="middle" x="152" y="-41.5" font-family="Arial" font-size="10.00"> leadinSample</text>
</g>
<!-- Node3 -->
<g id="node3" class="node"><title>Node3</title>
<g id="a_node3"><a xlink:href="classid_str.html" target="_top" xlink:title="idStr">
<polygon fill="white" stroke="black" points="-0.5,-136.5 -0.5,-155.5 36.5,-155.5 36.5,-136.5 -0.5,-136.5"/>
<text text-anchor="middle" x="18" y="-143.5" font-family="Arial" font-size="10.00">idStr</text>
</a>
</g>
</g>
<!-- Node3&#45;&gt;Node2 -->
<g id="edge2" class="edge"><title>Node3&#45;&gt;Node2</title>
<path fill="none" stroke="#9a32cd" stroke-dasharray="5,2" d="M28.5679,-127.563C36.3143,-114.781 46.5091,-97.9599 52.6417,-87.8411"/>
<polygon fill="#9a32cd" stroke="#9a32cd" points="25.4192,-126.006 23.2293,-136.372 31.4056,-129.634 25.4192,-126.006"/>
<text text-anchor="middle" x="56" y="-109.5" font-family="Arial" font-size="10.00"> name</text>
</g>
<!-- Node4 -->
<g id="node4" class="node"><title>Node4</title>
<g id="a_node4"><a xlink:href="structwaveformatex__s.html" target="_top" xlink:title="waveformatex_s">
<polygon fill="white" stroke="black" points="55,-136.5 55,-155.5 141,-155.5 141,-136.5 55,-136.5"/>
<text text-anchor="middle" x="98" y="-143.5" font-family="Arial" font-size="10.00">waveformatex_s</text>
</a>
</g>
</g>
<!-- Node4&#45;&gt;Node2 -->
<g id="edge3" class="edge"><title>Node4&#45;&gt;Node2</title>
<path fill="none" stroke="#9a32cd" stroke-dasharray="5,2" d="M87.4321,-127.563C79.6857,-114.781 69.4909,-97.9599 63.3583,-87.8411"/>
<polygon fill="#9a32cd" stroke="#9a32cd" points="84.5944,-129.634 92.7707,-136.372 90.5808,-126.006 84.5944,-129.634"/>
<text text-anchor="middle" x="104.5" y="-109.5" font-family="Arial" font-size="10.00"> objectInfo</text>
</g>
<!-- Node5 -->
<g id="node5" class="node"><title>Node5</title>
<g id="a_node5"><a xlink:href="classid_sound_fade.html" target="_top" xlink:title="idSoundFade">
<polygon fill="white" stroke="black" points="119,-68.5 119,-87.5 193,-87.5 193,-68.5 119,-68.5"/>
<text text-anchor="middle" x="156" y="-75.5" font-family="Arial" font-size="10.00">idSoundFade</text>
</a>
</g>
</g>
<!-- Node5&#45;&gt;Node1 -->
<g id="edge4" class="edge"><title>Node5&#45;&gt;Node1</title>
<path fill="none" stroke="#9a32cd" stroke-dasharray="5,2" d="M172.24,-61.5331C180.91,-53.8087 192.031,-44.7063 203,-38 215.081,-30.6133 229.544,-24.2598 241.563,-19.575"/>
<polygon fill="#9a32cd" stroke="#9a32cd" points="169.766,-59.0533 164.765,-68.3935 174.499,-64.2106 169.766,-59.0533"/>
<text text-anchor="middle" x="232.5" y="-41.5" font-family="Arial" font-size="10.00"> channelFade</text>
</g>
<!-- Node6 -->
<g id="node6" class="node"><title>Node6</title>
<g id="a_node6"><a xlink:href="structsound_shader_parms__t.html" target="_top" xlink:title="soundShaderParms_t">
<polygon fill="white" stroke="black" points="211,-68.5 211,-87.5 321,-87.5 321,-68.5 211,-68.5"/>
<text text-anchor="middle" x="266" y="-75.5" font-family="Arial" font-size="10.00">soundShaderParms_t</text>
</a>
</g>
</g>
<!-- Node6&#45;&gt;Node1 -->
<g id="edge5" class="edge"><title>Node6&#45;&gt;Node1</title>
<path fill="none" stroke="#9a32cd" stroke-dasharray="5,2" d="M266,-58.0413C266,-45.4724 266,-29.5631 266,-19.8411"/>
<polygon fill="#9a32cd" stroke="#9a32cd" points="262.5,-58.3716 266,-68.3717 269.5,-58.3717 262.5,-58.3716"/>
<text text-anchor="middle" x="281.5" y="-41.5" font-family="Arial" font-size="10.00"> parms</text>
</g>
<!-- Node7 -->
<g id="node7" class="node"><title>Node7</title>
<g id="a_node7"><a xlink:href="classid_sound_shader.html" target="_top" xlink:title="idSoundShader">
<polygon fill="white" stroke="black" points="339.5,-68.5 339.5,-87.5 422.5,-87.5 422.5,-68.5 339.5,-68.5"/>
<text text-anchor="middle" x="381" y="-75.5" font-family="Arial" font-size="10.00">idSoundShader</text>
</a>
</g>
</g>
<!-- Node7&#45;&gt;Node1 -->
<g id="edge6" class="edge"><title>Node7&#45;&gt;Node1</title>
<path fill="none" stroke="#9a32cd" stroke-dasharray="5,2" d="M357.199,-63.3401C334.309,-50.2036 300.411,-30.7487 281.038,-19.6305"/>
<polygon fill="#9a32cd" stroke="#9a32cd" points="355.55,-66.4296 365.966,-68.3717 359.035,-60.3584 355.55,-66.4296"/>
<text text-anchor="middle" x="364.5" y="-41.5" font-family="Arial" font-size="10.00"> soundShader</text>
</g>
<!-- Node8 -->
<g id="node8" class="node"><title>Node8</title>
<g id="a_node8"><a xlink:href="classid_decl.html" target="_top" xlink:title="idDecl">
<polygon fill="white" stroke="black" points="359,-136.5 359,-155.5 403,-155.5 403,-136.5 359,-136.5"/>
<text text-anchor="middle" x="381" y="-143.5" font-family="Arial" font-size="10.00">idDecl</text>
</a>
</g>
</g>
<!-- Node8&#45;&gt;Node7 -->
<g id="edge7" class="edge"><title>Node8&#45;&gt;Node7</title>
<path fill="none" stroke="midnightblue" d="M381,-126.041C381,-113.472 381,-97.5631 381,-87.8411"/>
<polygon fill="midnightblue" stroke="midnightblue" points="377.5,-126.372 381,-136.372 384.5,-126.372 377.5,-126.372"/>
</g>
<!-- Node9 -->
<g id="node9" class="node"><title>Node9</title>
<g id="a_node9"><a xlink:href="classid_decl_base.html" target="_top" xlink:title="idDeclBase">
<polygon fill="white" stroke="black" points="348,-204.5 348,-223.5 414,-223.5 414,-204.5 348,-204.5"/>
<text text-anchor="middle" x="381" y="-211.5" font-family="Arial" font-size="10.00">idDeclBase</text>
</a>
</g>
</g>
<!-- Node9&#45;&gt;Node8 -->
<g id="edge8" class="edge"><title>Node9&#45;&gt;Node8</title>
<path fill="none" stroke="#9a32cd" stroke-dasharray="5,2" d="M381,-194.041C381,-181.472 381,-165.563 381,-155.841"/>
<polygon fill="#9a32cd" stroke="#9a32cd" points="377.5,-194.372 381,-204.372 384.5,-194.372 377.5,-194.372"/>
<text text-anchor="middle" x="393.5" y="-177.5" font-family="Arial" font-size="10.00"> base</text>
</g>
<!-- Node10 -->
<g id="node10" class="node"><title>Node10</title>
<g id="a_node10"><a xlink:href="classid_sample_decoder.html" target="_top" xlink:title="idSampleDecoder">
<polygon fill="white" stroke="black" points="440.5,-68.5 440.5,-87.5 533.5,-87.5 533.5,-68.5 440.5,-68.5"/>
<text text-anchor="middle" x="487" y="-75.5" font-family="Arial" font-size="10.00">idSampleDecoder</text>
</a>
</g>
</g>
<!-- Node10&#45;&gt;Node1 -->
<g id="edge9" class="edge"><title>Node10&#45;&gt;Node1</title>
<path fill="none" stroke="#9a32cd" stroke-dasharray="5,2" d="M461.172,-63.7705C443.935,-55.3909 420.56,-44.8761 399,-38 369.818,-28.6933 335.977,-21.8761 309.734,-17.42"/>
<polygon fill="#9a32cd" stroke="#9a32cd" points="460.036,-67.1137 470.551,-68.4139 463.142,-60.8404 460.036,-67.1137"/>
<text text-anchor="middle" x="448" y="-41.5" font-family="Arial" font-size="10.00"> decoder</text>
</g>
</g>
</svg>
