<?xml version="1.0" encoding="UTF-8" standalone="no"?>
<!DOCTYPE svg PUBLIC "-//W3C//DTD SVG 1.1//EN"
 "http://www.w3.org/Graphics/SVG/1.1/DTD/svg11.dtd">
<!-- Generated by graphviz version 2.34.0 (20130907.0111)
 -->
<!-- Title: rvDebuggerScript Pages: 1 -->
<svg width="559pt" height="242pt"
 viewBox="0.00 0.00 559.32 242.00" xmlns="http://www.w3.org/2000/svg" xmlns:xlink="http://www.w3.org/1999/xlink">
<g id="graph0" class="graph" transform="scale(1 1) rotate(0) translate(4 238)">
<title>rvDebuggerScript</title>
<polygon fill="white" stroke="white" points="-4,4 -4,-238 555.317,-238 555.317,4 -4,4"/>
<!-- Node1 -->
<g id="node1" class="node"><title>Node1</title>
<polygon fill="#bfbfbf" stroke="black" points="293.317,-68.5 293.317,-87.5 383.317,-87.5 383.317,-68.5 293.317,-68.5"/>
<text text-anchor="middle" x="338.317" y="-75.5" font-family="Arial" font-size="10.00">rvDebuggerScript</text>
</g>
<!-- Node2 -->
<g id="node2" class="node"><title>Node2</title>
<g id="a_node2"><a xlink:href="classid_str.html" target="_top" xlink:title="idStr">
<polygon fill="white" stroke="black" points="391.817,-136.5 391.817,-155.5 428.817,-155.5 428.817,-136.5 391.817,-136.5"/>
<text text-anchor="middle" x="410.317" y="-143.5" font-family="Arial" font-size="10.00">idStr</text>
</a>
</g>
</g>
<!-- Node2&#45;&gt;Node1 -->
<g id="edge1" class="edge"><title>Node2&#45;&gt;Node1</title>
<path fill="none" stroke="#9a32cd" stroke-dasharray="5,2" d="M402.717,-126.765C399.115,-119.669 394.281,-111.854 388.317,-106 380.433,-98.2596 369.877,-92.124 360.496,-87.6707"/>
<polygon fill="#9a32cd" stroke="#9a32cd" points="399.755,-128.702 407.101,-136.336 406.119,-125.787 399.755,-128.702"/>
<text text-anchor="middle" x="424.317" y="-109.5" font-family="Arial" font-size="10.00"> mFilename</text>
</g>
<!-- Node3 -->
<g id="node3" class="node"><title>Node3</title>
<g id="a_node3"><a xlink:href="classid_program.html" target="_top" xlink:title="idProgram">
<polygon fill="white" stroke="black" points="312.817,-136.5 312.817,-155.5 373.817,-155.5 373.817,-136.5 312.817,-136.5"/>
<text text-anchor="middle" x="343.317" y="-143.5" font-family="Arial" font-size="10.00">idProgram</text>
</a>
</g>
</g>
<!-- Node3&#45;&gt;Node1 -->
<g id="edge2" class="edge"><title>Node3&#45;&gt;Node1</title>
<path fill="none" stroke="#9a32cd" stroke-dasharray="5,2" d="M340.189,-125.859C339.844,-123.225 339.538,-120.549 339.317,-118 338.418,-107.608 338.239,-95.6059 338.239,-87.6912"/>
<polygon fill="#9a32cd" stroke="#9a32cd" points="336.769,-126.66 341.71,-136.032 343.692,-125.624 336.769,-126.66"/>
<text text-anchor="middle" x="363.817" y="-109.5" font-family="Arial" font-size="10.00"> mProgram</text>
</g>
<!-- Node4 -->
<g id="node4" class="node"><title>Node4</title>
<g id="a_node4"><a xlink:href="classid_var_def.html" target="_top" xlink:title="idVarDef">
<polygon fill="white" stroke="black" points="218.817,-214.5 218.817,-233.5 271.817,-233.5 271.817,-214.5 218.817,-214.5"/>
<text text-anchor="middle" x="245.317" y="-221.5" font-family="Arial" font-size="10.00">idVarDef</text>
</a>
</g>
</g>
<!-- Node4&#45;&gt;Node3 -->
<g id="edge3" class="edge"><title>Node4&#45;&gt;Node3</title>
<path fill="none" stroke="#9a32cd" stroke-dasharray="5,2" d="M271.587,-209.412C278.544,-205.414 285.899,-200.813 292.317,-196 309.017,-183.477 326.028,-165.978 335.572,-155.634"/>
<polygon fill="#9a32cd" stroke="#9a32cd" points="269.53,-206.549 262.472,-214.451 272.917,-212.675 269.53,-206.549"/>
<text text-anchor="middle" x="349.817" y="-188" font-family="Arial" font-size="10.00"> returnDef</text>
<text text-anchor="middle" x="349.817" y="-177" font-family="Arial" font-size="10.00">returnStringDef</text>
</g>
<!-- Node4&#45;&gt;Node4 -->
<g id="edge14" class="edge"><title>Node4&#45;&gt;Node4</title>
<path fill="none" stroke="#9a32cd" stroke-dasharray="5,2" d="M281.994,-230.141C286.421,-229.032 289.317,-226.985 289.317,-224 289.317,-219.102 281.519,-216.729 271.953,-216.882"/>
<polygon fill="#9a32cd" stroke="#9a32cd" points="281.567,-226.666 271.953,-231.118 282.245,-233.633 281.567,-226.666"/>
<text text-anchor="middle" x="304.317" y="-221.5" font-family="Arial" font-size="10.00"> scope</text>
</g>
<!-- Node6 -->
<g id="node6" class="node"><title>Node6</title>
<g id="a_node6"><a xlink:href="classfunction__t.html" target="_top" xlink:title="function_t">
<polygon fill="white" stroke="black" points="182.817,-68.5 182.817,-87.5 241.817,-87.5 241.817,-68.5 182.817,-68.5"/>
<text text-anchor="middle" x="212.317" y="-75.5" font-family="Arial" font-size="10.00">function_t</text>
</a>
</g>
</g>
<!-- Node4&#45;&gt;Node6 -->
<g id="edge9" class="edge"><title>Node4&#45;&gt;Node6</title>
<path fill="none" stroke="#9a32cd" stroke-dasharray="5,2" d="M251.541,-204.566C252.277,-201.727 252.91,-198.806 253.317,-196 257.15,-169.576 256.395,-161.999 250.317,-136 247.049,-122.017 246.109,-118.063 238.317,-106 233.939,-99.2218 227.702,-92.6753 222.434,-87.7263"/>
<polygon fill="#9a32cd" stroke="#9a32cd" points="248.189,-203.56 248.644,-214.145 254.889,-205.586 248.189,-203.56"/>
<text text-anchor="middle" x="263.317" y="-143.5" font-family="Arial" font-size="10.00"> def</text>
</g>
<!-- Node8 -->
<g id="node8" class="node"><title>Node8</title>
<g id="a_node8"><a xlink:href="classid_type_def.html" target="_top" xlink:title="idTypeDef">
<polygon fill="white" stroke="black" points="182.817,-136.5 182.817,-155.5 241.817,-155.5 241.817,-136.5 182.817,-136.5"/>
<text text-anchor="middle" x="212.317" y="-143.5" font-family="Arial" font-size="10.00">idTypeDef</text>
</a>
</g>
</g>
<!-- Node4&#45;&gt;Node8 -->
<g id="edge8" class="edge"><title>Node4&#45;&gt;Node8</title>
<path fill="none" stroke="#9a32cd" stroke-dasharray="5,2" d="M237.36,-204.674C230.603,-189.113 221.207,-167.472 216.059,-155.616"/>
<polygon fill="#9a32cd" stroke="#9a32cd" points="234.339,-206.503 241.532,-214.282 240.759,-203.715 234.339,-206.503"/>
<text text-anchor="middle" x="241.317" y="-182.5" font-family="Arial" font-size="10.00"> def</text>
</g>
<!-- Node5 -->
<g id="node5" class="node"><title>Node5</title>
<g id="a_node5"><a xlink:href="unionvar_eval__s.html" target="_top" xlink:title="varEval_s">
<polygon fill="white" stroke="black" points="324.817,-0.5 324.817,-19.5 381.817,-19.5 381.817,-0.5 324.817,-0.5"/>
<text text-anchor="middle" x="353.317" y="-7.5" font-family="Arial" font-size="10.00">varEval_s</text>
</a>
</g>
</g>
<!-- Node5&#45;&gt;Node4 -->
<g id="edge4" class="edge"><title>Node5&#45;&gt;Node4</title>
<path fill="none" stroke="#9a32cd" stroke-dasharray="5,2" d="M314.646,-10.4875C238.081,-11.9002 69.2507,-27.7148 7.31742,-136 -38.1135,-215.432 147.398,-223.221 218.562,-223.349"/>
<polygon fill="#9a32cd" stroke="#9a32cd" points="314.855,-13.9855 324.816,-10.3756 314.778,-6.98594 314.855,-13.9855"/>
<text text-anchor="middle" x="39.8174" y="-109.5" font-family="Arial" font-size="10.00"> value</text>
</g>
<!-- Node5&#45;&gt;Node5 -->
<g id="edge11" class="edge"><title>Node5&#45;&gt;Node5</title>
<path fill="none" stroke="#9a32cd" stroke-dasharray="5,2" d="M392.078,-15.4023C396.47,-14.3906 399.317,-12.5898 399.317,-10 399.317,-5.75 391.651,-3.625 382.067,-3.625"/>
<polygon fill="#9a32cd" stroke="#9a32cd" points="391.682,-11.9241 382.067,-16.375 392.359,-18.8913 391.682,-11.9241"/>
<text text-anchor="middle" x="415.817" y="-7.5" font-family="Arial" font-size="10.00"> evalPtr</text>
</g>
<!-- Node6&#45;&gt;Node5 -->
<g id="edge5" class="edge"><title>Node6&#45;&gt;Node5</title>
<path fill="none" stroke="#9a32cd" stroke-dasharray="5,2" d="M240.016,-64.0346C268.081,-50.898 310.705,-30.9463 334.88,-19.6305"/>
<polygon fill="#9a32cd" stroke="#9a32cd" points="238.324,-60.9623 230.751,-68.3717 241.291,-67.3021 238.324,-60.9623"/>
<text text-anchor="middle" x="321.317" y="-41.5" font-family="Arial" font-size="10.00"> functionPtr</text>
</g>
<!-- Node7 -->
<g id="node7" class="node"><title>Node7</title>
<g id="a_node7"><a xlink:href="classid_list.html" target="_top" xlink:title="idList\&lt; int \&gt;">
<polygon fill="white" stroke="black" points="16.3174,-136.5 16.3174,-155.5 84.3174,-155.5 84.3174,-136.5 16.3174,-136.5"/>
<text text-anchor="middle" x="50.3174" y="-143.5" font-family="Arial" font-size="10.00">idList&lt; int &gt;</text>
</a>
</g>
</g>
<!-- Node7&#45;&gt;Node6 -->
<g id="edge6" class="edge"><title>Node7&#45;&gt;Node6</title>
<path fill="none" stroke="#9a32cd" stroke-dasharray="5,2" d="M68.7394,-130.249C79.6935,-122.099 94.1736,-112.367 108.317,-106 132.302,-95.2032 161.415,-88.109 182.732,-83.9141"/>
<polygon fill="#9a32cd" stroke="#9a32cd" points="66.5889,-127.487 60.7842,-136.351 70.8491,-133.042 66.5889,-127.487"/>
<text text-anchor="middle" x="130.817" y="-109.5" font-family="Arial" font-size="10.00"> parmSize</text>
</g>
<!-- Node8&#45;&gt;Node6 -->
<g id="edge7" class="edge"><title>Node8&#45;&gt;Node6</title>
<path fill="none" stroke="#9a32cd" stroke-dasharray="5,2" d="M212.317,-126.041C212.317,-113.472 212.317,-97.5631 212.317,-87.8411"/>
<polygon fill="#9a32cd" stroke="#9a32cd" points="208.818,-126.372 212.317,-136.372 215.818,-126.372 208.818,-126.372"/>
<text text-anchor="middle" x="223.317" y="-109.5" font-family="Arial" font-size="10.00"> type</text>
</g>
<!-- Node9 -->
<g id="node9" class="node"><title>Node9</title>
<g id="a_node9"><a xlink:href="classid_event_def.html" target="_top" xlink:title="idEventDef">
<polygon fill="white" stroke="black" points="102.317,-136.5 102.317,-155.5 164.317,-155.5 164.317,-136.5 102.317,-136.5"/>
<text text-anchor="middle" x="133.317" y="-143.5" font-family="Arial" font-size="10.00">idEventDef</text>
</a>
</g>
</g>
<!-- Node9&#45;&gt;Node6 -->
<g id="edge10" class="edge"><title>Node9&#45;&gt;Node6</title>
<path fill="none" stroke="#9a32cd" stroke-dasharray="5,2" d="M146.873,-128.424C153.275,-121.114 161.267,-112.685 169.317,-106 177.726,-99.0168 188.078,-92.4639 196.517,-87.5627"/>
<polygon fill="#9a32cd" stroke="#9a32cd" points="143.977,-126.428 140.181,-136.319 149.317,-130.954 143.977,-126.428"/>
<text text-anchor="middle" x="188.817" y="-109.5" font-family="Arial" font-size="10.00"> eventdef</text>
</g>
<!-- Node10 -->
<g id="node10" class="node"><title>Node10</title>
<g id="a_node10"><a xlink:href="classid_vec3.html" target="_top" xlink:title="idVec3">
<polygon fill="white" stroke="black" points="401.817,-68.5 401.817,-87.5 448.817,-87.5 448.817,-68.5 401.817,-68.5"/>
<text text-anchor="middle" x="425.317" y="-75.5" font-family="Arial" font-size="10.00">idVec3</text>
</a>
</g>
</g>
<!-- Node10&#45;&gt;Node5 -->
<g id="edge12" class="edge"><title>Node10&#45;&gt;Node5</title>
<path fill="none" stroke="#9a32cd" stroke-dasharray="5,2" d="M408.313,-61.4122C394.168,-48.4468 374.542,-30.4559 362.962,-19.8411"/>
<polygon fill="#9a32cd" stroke="#9a32cd" points="406.168,-64.1944 415.905,-68.3717 410.898,-59.0343 406.168,-64.1944"/>
<text text-anchor="middle" x="417.317" y="-41.5" font-family="Arial" font-size="10.00"> vectorPtr</text>
</g>
<!-- Node11 -->
<g id="node11" class="node"><title>Node11</title>
<g id="a_node11"><a xlink:href="classid_script_object.html" target="_top" xlink:title="idScriptObject">
<polygon fill="white" stroke="black" points="467.317,-68.5 467.317,-87.5 545.317,-87.5 545.317,-68.5 467.317,-68.5"/>
<text text-anchor="middle" x="506.317" y="-75.5" font-family="Arial" font-size="10.00">idScriptObject</text>
</a>
</g>
</g>
<!-- Node11&#45;&gt;Node5 -->
<g id="edge13" class="edge"><title>Node11&#45;&gt;Node5</title>
<path fill="none" stroke="#9a32cd" stroke-dasharray="5,2" d="M485.575,-62.5094C473.394,-54.479 457.459,-44.7785 442.317,-38 422.864,-29.2913 399.81,-22.385 382.04,-17.7377"/>
<polygon fill="#9a32cd" stroke="#9a32cd" points="483.836,-65.5582 494.084,-68.2488 487.751,-59.755 483.836,-65.5582"/>
<text text-anchor="middle" x="491.817" y="-41.5" font-family="Arial" font-size="10.00"> objectPtrPtr</text>
</g>
<!-- Node12 -->
<g id="node12" class="node"><title>Node12</title>
<g id="a_node12"><a xlink:href="classid_user_interface_local.html" target="_top" xlink:title="idUserInterfaceLocal">
<polygon fill="white" stroke="black" points="447.317,-136.5 447.317,-155.5 551.317,-155.5 551.317,-136.5 447.317,-136.5"/>
<text text-anchor="middle" x="499.317" y="-143.5" font-family="Arial" font-size="10.00">idUserInterfaceLocal</text>
</a>
</g>
</g>
<!-- Node12&#45;&gt;Node1 -->
<g id="edge15" class="edge"><title>Node12&#45;&gt;Node1</title>
<path fill="none" stroke="#9a32cd" stroke-dasharray="5,2" d="M484.929,-129.285C476.703,-121.196 465.765,-111.835 454.317,-106 441.929,-99.6852 410.538,-92.5529 383.531,-87.2053"/>
<polygon fill="#9a32cd" stroke="#9a32cd" points="482.44,-131.746 491.912,-136.493 487.468,-126.875 482.44,-131.746"/>
<text text-anchor="middle" x="496.817" y="-109.5" font-family="Arial" font-size="10.00"> mInterface</text>
</g>
<!-- Node13 -->
<g id="node13" class="node"><title>Node13</title>
<g id="a_node13"><a xlink:href="classid_user_interface.html" target="_top" xlink:title="idUserInterface">
<polygon fill="white" stroke="black" points="458.817,-214.5 458.817,-233.5 539.817,-233.5 539.817,-214.5 458.817,-214.5"/>
<text text-anchor="middle" x="499.317" y="-221.5" font-family="Arial" font-size="10.00">idUserInterface</text>
</a>
</g>
</g>
<!-- Node13&#45;&gt;Node12 -->
<g id="edge16" class="edge"><title>Node13&#45;&gt;Node12</title>
<path fill="none" stroke="midnightblue" d="M499.317,-204.224C499.317,-188.697 499.317,-167.358 499.317,-155.616"/>
<polygon fill="midnightblue" stroke="midnightblue" points="495.818,-204.282 499.317,-214.282 502.818,-204.282 495.818,-204.282"/>
</g>
</g>
</svg>
