<?xml version="1.0" encoding="UTF-8" standalone="no"?>
<!DOCTYPE svg PUBLIC "-//W3C//DTD SVG 1.1//EN"
 "http://www.w3.org/Graphics/SVG/1.1/DTD/svg11.dtd">
<!-- Generated by graphviz version 2.34.0 (20130907.0111)
 -->
<!-- Title: idGLDrawableWorld Pages: 1 -->
<svg width="282pt" height="96pt"
 viewBox="0.00 0.00 282.00 96.00" xmlns="http://www.w3.org/2000/svg" xmlns:xlink="http://www.w3.org/1999/xlink">
<g id="graph0" class="graph" transform="scale(1 1) rotate(0) translate(4 92)">
<title>idGLDrawableWorld</title>
<polygon fill="white" stroke="white" points="-4,4 -4,-92 278,-92 278,4 -4,4"/>
<!-- Node1 -->
<g id="node1" class="node"><title>Node1</title>
<polygon fill="#bfbfbf" stroke="black" points="84,-0.5 84,-19.5 186,-19.5 186,-0.5 84,-0.5"/>
<text text-anchor="middle" x="135" y="-7.5" font-family="Arial" font-size="10.00">idGLDrawableWorld</text>
</g>
<!-- Node2 -->
<g id="node2" class="node"><title>Node2</title>
<g id="a_node2"><a xlink:href="classid_g_l_drawable.html" target="_top" xlink:title="idGLDrawable">
<polygon fill="white" stroke="black" points="-0.5,-68.5 -0.5,-87.5 76.5,-87.5 76.5,-68.5 -0.5,-68.5"/>
<text text-anchor="middle" x="38" y="-75.5" font-family="Arial" font-size="10.00">idGLDrawable</text>
</a>
</g>
</g>
<!-- Node2&#45;&gt;Node1 -->
<g id="edge1" class="edge"><title>Node2&#45;&gt;Node1</title>
<path fill="none" stroke="midnightblue" d="M59.1143,-62.6336C78.3953,-49.5145 106.266,-30.551 122.316,-19.6305"/>
<polygon fill="midnightblue" stroke="midnightblue" points="56.9798,-59.8525 50.6811,-68.3717 60.9177,-65.6399 56.9798,-59.8525"/>
</g>
<!-- Node3 -->
<g id="node3" class="node"><title>Node3</title>
<g id="a_node3"><a xlink:href="classid_render_world.html" target="_top" xlink:title="idRenderWorld">
<polygon fill="white" stroke="black" points="95,-68.5 95,-87.5 175,-87.5 175,-68.5 95,-68.5"/>
<text text-anchor="middle" x="135" y="-75.5" font-family="Arial" font-size="10.00">idRenderWorld</text>
</a>
</g>
</g>
<!-- Node3&#45;&gt;Node1 -->
<g id="edge2" class="edge"><title>Node3&#45;&gt;Node1</title>
<path fill="none" stroke="#9a32cd" stroke-dasharray="5,2" d="M135,-58.0413C135,-45.4724 135,-29.5631 135,-19.8411"/>
<polygon fill="#9a32cd" stroke="#9a32cd" points="131.5,-58.3716 135,-68.3717 138.5,-58.3717 131.5,-58.3716"/>
<text text-anchor="middle" x="148" y="-41.5" font-family="Arial" font-size="10.00"> world</text>
</g>
<!-- Node4 -->
<g id="node4" class="node"><title>Node4</title>
<g id="a_node4"><a xlink:href="classid_render_model.html" target="_top" xlink:title="idRenderModel">
<polygon fill="white" stroke="black" points="193.5,-68.5 193.5,-87.5 274.5,-87.5 274.5,-68.5 193.5,-68.5"/>
<text text-anchor="middle" x="234" y="-75.5" font-family="Arial" font-size="10.00">idRenderModel</text>
</a>
</g>
</g>
<!-- Node4&#45;&gt;Node1 -->
<g id="edge3" class="edge"><title>Node4&#45;&gt;Node1</title>
<path fill="none" stroke="#9a32cd" stroke-dasharray="5,2" d="M212.717,-62.8113C193.029,-49.6863 164.401,-30.6004 147.946,-19.6305"/>
<polygon fill="#9a32cd" stroke="#9a32cd" points="210.795,-65.7368 221.057,-68.3717 214.678,-59.9124 210.795,-65.7368"/>
<text text-anchor="middle" x="220" y="-41.5" font-family="Arial" font-size="10.00"> worldModel</text>
</g>
</g>
</svg>
