<?xml version="1.0" encoding="UTF-8" standalone="no"?>
<!DOCTYPE svg PUBLIC "-//W3C//DTD SVG 1.1//EN"
 "http://www.w3.org/Graphics/SVG/1.1/DTD/svg11.dtd">
<!-- Generated by graphviz version 2.34.0 (20130907.0111)
 -->
<!-- Title: idDeclType Pages: 1 -->
<svg width="130pt" height="164pt"
 viewBox="0.00 0.00 130.00 164.00" xmlns="http://www.w3.org/2000/svg" xmlns:xlink="http://www.w3.org/1999/xlink">
<g id="graph0" class="graph" transform="scale(1 1) rotate(0) translate(4 160)">
<title>idDeclType</title>
<polygon fill="white" stroke="white" points="-4,4 -4,-160 126,-160 126,4 -4,4"/>
<!-- Node1 -->
<g id="node1" class="node"><title>Node1</title>
<polygon fill="#bfbfbf" stroke="black" points="20.5,-0.5 20.5,-19.5 85.5,-19.5 85.5,-0.5 20.5,-0.5"/>
<text text-anchor="middle" x="53" y="-7.5" font-family="Arial" font-size="10.00">idDeclType</text>
</g>
<!-- Node2 -->
<g id="node2" class="node"><title>Node2</title>
<g id="a_node2"><a xlink:href="classid_str.html" target="_top" xlink:title="idStr">
<polygon fill="white" stroke="black" points="-0.5,-68.5 -0.5,-87.5 36.5,-87.5 36.5,-68.5 -0.5,-68.5"/>
<text text-anchor="middle" x="18" y="-75.5" font-family="Arial" font-size="10.00">idStr</text>
</a>
</g>
</g>
<!-- Node2&#45;&gt;Node1 -->
<g id="edge1" class="edge"><title>Node2&#45;&gt;Node1</title>
<path fill="none" stroke="#9a32cd" stroke-dasharray="5,2" d="M15.2991,-58.1974C15.1437,-51.5154 15.9402,-44.1349 19,-38 22.8351,-30.3105 29.9969,-24.1152 36.762,-19.6083"/>
<polygon fill="#9a32cd" stroke="#9a32cd" points="11.839,-58.797 16.2276,-68.4401 18.8104,-58.1649 11.839,-58.797"/>
<text text-anchor="middle" x="43" y="-41.5" font-family="Arial" font-size="10.00"> typeName</text>
</g>
<!-- Node3 -->
<g id="node3" class="node"><title>Node3</title>
<g id="a_node3"><a xlink:href="classid_decl.html" target="_top" xlink:title="idDecl">
<polygon fill="white" stroke="black" points="67,-68.5 67,-87.5 111,-87.5 111,-68.5 67,-68.5"/>
<text text-anchor="middle" x="89" y="-75.5" font-family="Arial" font-size="10.00">idDecl</text>
</a>
</g>
</g>
<!-- Node3&#45;&gt;Node1 -->
<g id="edge2" class="edge"><title>Node3&#45;&gt;Node1</title>
<path fill="none" stroke="#9a32cd" stroke-dasharray="5,2" d="M79.4889,-59.563C72.5172,-46.7815 63.3418,-29.9599 57.8224,-19.8411"/>
<polygon fill="#9a32cd" stroke="#9a32cd" points="76.4324,-61.2687 84.2936,-68.3717 82.5777,-57.9167 76.4324,-61.2687"/>
<text text-anchor="middle" x="95" y="-41.5" font-family="Arial" font-size="10.00"> allocator</text>
</g>
<!-- Node4 -->
<g id="node4" class="node"><title>Node4</title>
<g id="a_node4"><a xlink:href="classid_decl_base.html" target="_top" xlink:title="idDeclBase">
<polygon fill="white" stroke="black" points="56,-136.5 56,-155.5 122,-155.5 122,-136.5 56,-136.5"/>
<text text-anchor="middle" x="89" y="-143.5" font-family="Arial" font-size="10.00">idDeclBase</text>
</a>
</g>
</g>
<!-- Node4&#45;&gt;Node3 -->
<g id="edge3" class="edge"><title>Node4&#45;&gt;Node3</title>
<path fill="none" stroke="#9a32cd" stroke-dasharray="5,2" d="M89,-126.041C89,-113.472 89,-97.5631 89,-87.8411"/>
<polygon fill="#9a32cd" stroke="#9a32cd" points="85.5001,-126.372 89,-136.372 92.5001,-126.372 85.5001,-126.372"/>
<text text-anchor="middle" x="101.5" y="-109.5" font-family="Arial" font-size="10.00"> base</text>
</g>
</g>
</svg>
