<?xml version="1.0" encoding="UTF-8" standalone="no"?>
<!DOCTYPE svg PUBLIC "-//W3C//DTD SVG 1.1//EN"
 "http://www.w3.org/Graphics/SVG/1.1/DTD/svg11.dtd">
<!-- Generated by graphviz version 2.34.0 (20130907.0111)
 -->
<!-- Title: idForce_Constant Pages: 1 -->
<svg width="442pt" height="292pt"
 viewBox="0.00 0.00 442.00 292.00" xmlns="http://www.w3.org/2000/svg" xmlns:xlink="http://www.w3.org/1999/xlink">
<g id="graph0" class="graph" transform="scale(1 1) rotate(0) translate(4 288)">
<title>idForce_Constant</title>
<polygon fill="white" stroke="white" points="-4,4 -4,-288 438,-288 438,4 -4,4"/>
<!-- Node1 -->
<g id="node1" class="node"><title>Node1</title>
<polygon fill="#bfbfbf" stroke="black" points="-0.5,-0.5 -0.5,-19.5 92.5,-19.5 92.5,-0.5 -0.5,-0.5"/>
<text text-anchor="middle" x="46" y="-7.5" font-family="Arial" font-size="10.00">idForce_Constant</text>
</g>
<!-- Node2 -->
<g id="node2" class="node"><title>Node2</title>
<g id="a_node2"><a xlink:href="classid_force.html" target="_top" xlink:title="idForce">
<polygon fill="white" stroke="black" points="21.5,-59.5 21.5,-78.5 70.5,-78.5 70.5,-59.5 21.5,-59.5"/>
<text text-anchor="middle" x="46" y="-66.5" font-family="Arial" font-size="10.00">idForce</text>
</a>
</g>
</g>
<!-- Node2&#45;&gt;Node1 -->
<g id="edge1" class="edge"><title>Node2&#45;&gt;Node1</title>
<path fill="none" stroke="midnightblue" d="M39.59,-48.9331C38.8505,-39.0243 39.3174,-27.4007 40.9906,-19.6571"/>
<polygon fill="midnightblue" stroke="midnightblue" points="36.1531,-49.6407 40.9375,-59.0938 43.0923,-48.7204 36.1531,-49.6407"/>
</g>
<!-- Node2&#45;&gt;Node1 -->
<g id="edge11" class="edge"><title>Node2&#45;&gt;Node1</title>
<path fill="none" stroke="midnightblue" d="M52.41,-48.9331C53.1495,-39.0243 52.6826,-27.4007 51.0094,-19.6571"/>
<polygon fill="midnightblue" stroke="midnightblue" points="48.9077,-48.7204 51.0625,-59.0938 55.8469,-49.6407 48.9077,-48.7204"/>
</g>
<!-- Node3 -->
<g id="node3" class="node"><title>Node3</title>
<g id="a_node3"><a xlink:href="classid_class.html" target="_top" xlink:title="idClass">
<polygon fill="white" stroke="black" points="63.5,-128.5 63.5,-147.5 112.5,-147.5 112.5,-128.5 63.5,-128.5"/>
<text text-anchor="middle" x="88" y="-135.5" font-family="Arial" font-size="10.00">idClass</text>
</a>
</g>
</g>
<!-- Node3&#45;&gt;Node2 -->
<g id="edge2" class="edge"><title>Node3&#45;&gt;Node2</title>
<path fill="none" stroke="midnightblue" d="M67.0845,-120.31C64.5546,-116.935 62.1568,-113.383 60,-110 53.2826,-99.4625 46.2112,-86.914 43.7483,-78.7185"/>
<polygon fill="midnightblue" stroke="midnightblue" points="64.503,-122.68 73.5828,-128.14 69.8895,-118.21 64.503,-122.68"/>
</g>
<!-- Node3&#45;&gt;Node2 -->
<g id="edge10" class="edge"><title>Node3&#45;&gt;Node2</title>
<path fill="none" stroke="midnightblue" d="M84.1557,-119.439C82.1453,-116.327 79.9719,-113.093 78,-110 71.2826,-99.4625 64.2112,-86.914 57.6752,-78.7185"/>
<polygon fill="midnightblue" stroke="midnightblue" points="81.2117,-121.336 89.3328,-128.14 87.2274,-117.756 81.2117,-121.336"/>
</g>
<!-- Node4 -->
<g id="node4" class="node"><title>Node4</title>
<g id="a_node4"><a xlink:href="classid_type_info.html" target="_top" xlink:title="idTypeInfo">
<polygon fill="white" stroke="black" points="170,-59.5 170,-78.5 230,-78.5 230,-59.5 170,-59.5"/>
<text text-anchor="middle" x="200" y="-66.5" font-family="Arial" font-size="10.00">idTypeInfo</text>
</a>
</g>
</g>
<!-- Node3&#45;&gt;Node4 -->
<g id="edge8" class="edge"><title>Node3&#45;&gt;Node4</title>
<path fill="none" stroke="#9a32cd" stroke-dasharray="5,2" d="M81.502,-118.153C80.3077,-111.175 80.5946,-103.607 85,-98 95.3786,-84.7912 139.409,-77.0333 169.873,-73.1516"/>
<polygon fill="#9a32cd" stroke="#9a32cd" points="78.2438,-119.515 84.2188,-128.264 85.0041,-117.699 78.2438,-119.515"/>
<text text-anchor="middle" x="119.5" y="-101.5" font-family="Arial" font-size="10.00"> CreateInstance</text>
</g>
<!-- Node4&#45;&gt;Node3 -->
<g id="edge3" class="edge"><title>Node4&#45;&gt;Node3</title>
<path fill="none" stroke="#9a32cd" stroke-dasharray="5,2" d="M185.961,-86.1013C178.321,-94.1114 168.336,-103.454 158,-110 144.025,-118.851 126.688,-125.565 112.764,-130.084"/>
<polygon fill="#9a32cd" stroke="#9a32cd" points="188.576,-88.4285 192.745,-78.6883 183.411,-83.7028 188.576,-88.4285"/>
<text text-anchor="middle" x="186.5" y="-101.5" font-family="Arial" font-size="10.00"> Type</text>
</g>
<!-- Node4&#45;&gt;Node4 -->
<g id="edge4" class="edge"><title>Node4&#45;&gt;Node4</title>
<path fill="none" stroke="#9a32cd" stroke-dasharray="5,2" d="M240.659,-73.7243C245.121,-72.8242 248,-71.2495 248,-69 248,-65.3086 240.248,-63.4341 230.467,-63.3764"/>
<polygon fill="#9a32cd" stroke="#9a32cd" points="240.121,-70.2582 230.467,-74.6236 240.736,-77.2311 240.121,-70.2582"/>
<text text-anchor="middle" x="260.5" y="-72" font-family="Arial" font-size="10.00"> next</text>
<text text-anchor="middle" x="260.5" y="-61" font-family="Arial" font-size="10.00">super</text>
</g>
<!-- Node5 -->
<g id="node5" class="node"><title>Node5</title>
<g id="a_node5"><a xlink:href="classid_hierarchy.html" target="_top" xlink:title="idHierarchy\&lt; idTypeInfo \&gt;">
<polygon fill="white" stroke="black" points="307.5,-128.5 307.5,-147.5 434.5,-147.5 434.5,-128.5 307.5,-128.5"/>
<text text-anchor="middle" x="371" y="-135.5" font-family="Arial" font-size="10.00">idHierarchy&lt; idTypeInfo &gt;</text>
</a>
</g>
</g>
<!-- Node5&#45;&gt;Node4 -->
<g id="edge5" class="edge"><title>Node5&#45;&gt;Node4</title>
<path fill="none" stroke="#9a32cd" stroke-dasharray="5,2" d="M339.493,-124.655C305.349,-111.277 251.76,-90.2803 221.921,-78.5888"/>
<polygon fill="#9a32cd" stroke="#9a32cd" points="338.407,-127.989 348.995,-128.378 340.961,-121.471 338.407,-127.989"/>
<text text-anchor="middle" x="313.5" y="-101.5" font-family="Arial" font-size="10.00"> node</text>
</g>
<!-- Node6 -->
<g id="node6" class="node"><title>Node6</title>
<g id="a_node6"><a xlink:href="structid_event_func.html" target="_top" xlink:title="idEventFunc\&lt; idClass \&gt;">
<polygon fill="white" stroke="black" points="118,-196.5 118,-215.5 238,-215.5 238,-196.5 118,-196.5"/>
<text text-anchor="middle" x="178" y="-203.5" font-family="Arial" font-size="10.00">idEventFunc&lt; idClass &gt;</text>
</a>
</g>
</g>
<!-- Node6&#45;&gt;Node3 -->
<g id="edge9" class="edge"><title>Node6&#45;&gt;Node3</title>
<path fill="none" stroke="#9a32cd" stroke-dasharray="5,2" d="M155.623,-190.786C149.508,-186.761 142.934,-182.302 137,-178 123.268,-168.044 108.076,-155.74 98.3031,-147.646"/>
<polygon fill="#9a32cd" stroke="#9a32cd" points="153.83,-193.795 164.124,-196.302 157.641,-187.923 153.83,-193.795"/>
<text text-anchor="middle" x="171.5" y="-169.5" font-family="Arial" font-size="10.00"> eventCallbacks</text>
</g>
<!-- Node6&#45;&gt;Node4 -->
<g id="edge6" class="edge"><title>Node6&#45;&gt;Node4</title>
<path fill="none" stroke="#9a32cd" stroke-dasharray="5,2" d="M198.444,-189.294C201.521,-185.927 204.247,-182.125 206,-178 220.614,-143.606 208.882,-97.4235 202.933,-78.5629"/>
<polygon fill="#9a32cd" stroke="#9a32cd" points="195.844,-186.933 190.921,-196.315 200.62,-192.051 195.844,-186.933"/>
<text text-anchor="middle" x="248.5" y="-135.5" font-family="Arial" font-size="10.00"> eventCallbacks</text>
</g>
<!-- Node7 -->
<g id="node7" class="node"><title>Node7</title>
<g id="a_node7"><a xlink:href="classid_event_def.html" target="_top" xlink:title="idEventDef">
<polygon fill="white" stroke="black" points="147,-264.5 147,-283.5 209,-283.5 209,-264.5 147,-264.5"/>
<text text-anchor="middle" x="178" y="-271.5" font-family="Arial" font-size="10.00">idEventDef</text>
</a>
</g>
</g>
<!-- Node7&#45;&gt;Node6 -->
<g id="edge7" class="edge"><title>Node7&#45;&gt;Node6</title>
<path fill="none" stroke="#9a32cd" stroke-dasharray="5,2" d="M178,-254.041C178,-241.472 178,-225.563 178,-215.841"/>
<polygon fill="#9a32cd" stroke="#9a32cd" points="174.5,-254.372 178,-264.372 181.5,-254.372 174.5,-254.372"/>
<text text-anchor="middle" x="191" y="-237.5" font-family="Arial" font-size="10.00"> event</text>
</g>
</g>
</svg>
