<?xml version="1.0" encoding="UTF-8" standalone="no"?>
<!DOCTYPE svg PUBLIC "-//W3C//DTD SVG 1.1//EN"
 "http://www.w3.org/Graphics/SVG/1.1/DTD/svg11.dtd">
<!-- Generated by graphviz version 2.34.0 (20130907.0111)
 -->
<!-- Title: idDeclTable Pages: 1 -->
<svg width="74pt" height="154pt"
 viewBox="0.00 0.00 74.00 154.00" xmlns="http://www.w3.org/2000/svg" xmlns:xlink="http://www.w3.org/1999/xlink">
<g id="graph0" class="graph" transform="scale(1 1) rotate(0) translate(4 150)">
<title>idDeclTable</title>
<polygon fill="white" stroke="white" points="-4,4 -4,-150 70,-150 70,4 -4,4"/>
<!-- Node1 -->
<g id="node1" class="node"><title>Node1</title>
<polygon fill="#bfbfbf" stroke="black" points="-0.5,-0.5 -0.5,-19.5 66.5,-19.5 66.5,-0.5 -0.5,-0.5"/>
<text text-anchor="middle" x="33" y="-7.5" font-family="Arial" font-size="10.00">idDeclTable</text>
</g>
<!-- Node2 -->
<g id="node2" class="node"><title>Node2</title>
<g id="a_node2"><a xlink:href="classid_decl.html" target="_top" xlink:title="idDecl">
<polygon fill="white" stroke="black" points="11,-58.5 11,-77.5 55,-77.5 55,-58.5 11,-58.5"/>
<text text-anchor="middle" x="33" y="-65.5" font-family="Arial" font-size="10.00">idDecl</text>
</a>
</g>
</g>
<!-- Node2&#45;&gt;Node1 -->
<g id="edge1" class="edge"><title>Node2&#45;&gt;Node1</title>
<path fill="none" stroke="midnightblue" d="M33,-47.953C33,-38.2875 33,-27.0312 33,-19.5052"/>
<polygon fill="midnightblue" stroke="midnightblue" points="29.5001,-48.25 33,-58.25 36.5001,-48.25 29.5001,-48.25"/>
</g>
<!-- Node3 -->
<g id="node3" class="node"><title>Node3</title>
<g id="a_node3"><a xlink:href="classid_decl_base.html" target="_top" xlink:title="idDeclBase">
<polygon fill="white" stroke="black" points="0,-126.5 0,-145.5 66,-145.5 66,-126.5 0,-126.5"/>
<text text-anchor="middle" x="33" y="-133.5" font-family="Arial" font-size="10.00">idDeclBase</text>
</a>
</g>
</g>
<!-- Node3&#45;&gt;Node2 -->
<g id="edge2" class="edge"><title>Node3&#45;&gt;Node2</title>
<path fill="none" stroke="#9a32cd" stroke-dasharray="5,2" d="M33,-116.041C33,-103.472 33,-87.5631 33,-77.8411"/>
<polygon fill="#9a32cd" stroke="#9a32cd" points="29.5001,-116.372 33,-126.372 36.5001,-116.372 29.5001,-116.372"/>
<text text-anchor="middle" x="45.5" y="-99.5" font-family="Arial" font-size="10.00"> base</text>
</g>
</g>
</svg>
