<?xml version="1.0" encoding="UTF-8" standalone="no"?>
<!DOCTYPE svg PUBLIC "-//W3C//DTD SVG 1.1//EN"
 "http://www.w3.org/Graphics/SVG/1.1/DTD/svg11.dtd">
<!-- Generated by graphviz version 2.34.0 (20130907.0111)
 -->
<!-- Title: BOEntity Pages: 1 -->
<!--zoomable 1210 -->
<svg id="main" version="1.1" xmlns="http://www.w3.org/2000/svg" xmlns:xlink="http://www.w3.org/1999/xlink" xml:space="preserve" onload="init(evt)">
<style type="text/css"><![CDATA[
.edge:hover path { stroke: red; }
.edge:hover polygon { stroke: red; fill: red; }
]]></style>
<script type="text/javascript"><![CDATA[
var edges = document.getElementsByTagName('g');
if (edges && edges.length) {
  for (var i=0;i<edges.length;i++) {
    if (edges[i].id.substr(0,4)=='edge') {
      edges[i].setAttribute('class','edge');
    }
  }
}
]]></script>
        <defs>
                <circle id="rim" cx="0" cy="0" r="7"/>
                <circle id="rim2" cx="0" cy="0" r="3.5"/>
                <g id="zoomPlus">
                        <use xlink:href="#rim" fill="#404040">
                                <set attributeName="fill" to="#808080" begin="zoomplus.mouseover" end="zoomplus.mouseout"/>
                        </use>
                        <path d="M-4,0h8M0,-4v8" fill="none" stroke="white" stroke-width="1.5" pointer-events="none"/>
                </g>
                <g id="zoomMin">
                        <use xlink:href="#rim" fill="#404040">
                                <set attributeName="fill" to="#808080" begin="zoomminus.mouseover" end="zoomminus.mouseout"/>
                        </use>
                        <path d="M-4,0h8" fill="none" stroke="white" stroke-width="1.5" pointer-events="none"/>
                </g>
                <g id="dirArrow">
                        <path fill="none" stroke="white" stroke-width="1.5" d="M0,-3.0v7 M-2.5,-0.5L0,-3.0L2.5,-0.5"/>
                </g>
               <g id="resetDef">
                       <use xlink:href="#rim2" fill="#404040">
                               <set attributeName="fill" to="#808080" begin="reset.mouseover" end="reset.mouseout"/>
                       </use>
               </g>
        </defs>

<script type="text/javascript">
var viewWidth = 1132;
var viewHeight = 1210;
var sectionId = 'dynsection-0';
</script>
<script xlink:href="svgpan.js"/>
<svg id="graph" class="graph">
<g id="viewport">
<title>BOEntity</title>
<polygon fill="white" stroke="white" points="-4,4 -4,-1206.07 1128,-1206.07 1128,4 -4,4"/>
<!-- Node1 -->
<g id="node1" class="node"><title>Node1</title>
<polygon fill="#bfbfbf" stroke="black" points="1068,-1033.57 1068,-1052.57 1124,-1052.57 1124,-1033.57 1068,-1033.57"/>
<text text-anchor="middle" x="1096" y="-1040.57" font-family="Arial" font-size="10.00">BOEntity</text>
</g>
<!-- Node2 -->
<g id="node2" class="node"><title>Node2</title>
<g id="a_node2"><a xlink:href="classid_str.html" target="_top" xlink:title="idStr">
<polygon fill="white" stroke="black" points="145.5,-905.571 145.5,-924.571 182.5,-924.571 182.5,-905.571 145.5,-905.571"/>
<text text-anchor="middle" x="164" y="-912.571" font-family="Arial" font-size="10.00">idStr</text>
</a>
</g>
</g>
<!-- Node2&#45;&gt;Node1 -->
<g id="edge1" class="edge"><title>Node2&#45;&gt;Node1</title>
<path fill="none" stroke="#9a32cd" stroke-dasharray="5,2" d="M165.668,-934.872C168.821,-994.141 186.857,-1166.07 290,-1166.07 290,-1166.07 290,-1166.07 944,-1166.07 1015.68,-1166.07 1072.19,-1081.72 1089.5,-1052.72"/>
<polygon fill="#9a32cd" stroke="#9a32cd" points="169.152,-934.44 165.215,-924.604 162.159,-934.749 169.152,-934.44"/>
<text text-anchor="middle" x="641" y="-1169.07" font-family="Arial" font-size="10.00"> materialName</text>
</g>
<!-- Node4 -->
<g id="node4" class="node"><title>Node4</title>
<g id="a_node4"><a xlink:href="classid_window.html" target="_top" xlink:title="idWindow">
<polygon fill="white" stroke="black" points="726.5,-611.571 726.5,-630.571 785.5,-630.571 785.5,-611.571 726.5,-611.571"/>
<text text-anchor="middle" x="756" y="-618.571" font-family="Arial" font-size="10.00">idWindow</text>
</a>
</g>
</g>
<!-- Node2&#45;&gt;Node4 -->
<g id="edge11" class="edge"><title>Node2&#45;&gt;Node4</title>
<path fill="none" stroke="#9a32cd" stroke-dasharray="5,2" d="M192.755,-910.08C228.846,-903.806 293.907,-893.235 350,-888.071 387.204,-884.646 656.764,-898.334 686,-875.071 706.113,-859.067 744.172,-674.986 753.094,-630.639"/>
<polygon fill="#9a32cd" stroke="#9a32cd" points="191.769,-906.699 182.526,-911.878 192.981,-913.594 191.769,-906.699"/>
<text text-anchor="middle" x="387" y="-913.071" font-family="Arial" font-size="10.00"> comment</text>
<text text-anchor="middle" x="387" y="-902.071" font-family="Arial" font-size="10.00">cmd</text>
<text text-anchor="middle" x="387" y="-891.071" font-family="Arial" font-size="10.00">name</text>
</g>
<!-- Node12 -->
<g id="node12" class="node"><title>Node12</title>
<g id="a_node12"><a xlink:href="classid_win_str.html" target="_top" xlink:title="idWinStr">
<polygon fill="white" stroke="black" points="264,-683.571 264,-702.571 318,-702.571 318,-683.571 264,-683.571"/>
<text text-anchor="middle" x="291" y="-690.571" font-family="Arial" font-size="10.00">idWinStr</text>
</a>
</g>
</g>
<!-- Node2&#45;&gt;Node12 -->
<g id="edge16" class="edge"><title>Node2&#45;&gt;Node12</title>
<path fill="none" stroke="#9a32cd" stroke-dasharray="5,2" d="M170.301,-895.745C180.928,-859.49 207.523,-779.988 250,-725.071 256.856,-716.208 266.653,-708.317 274.835,-702.589"/>
<polygon fill="#9a32cd" stroke="#9a32cd" points="166.887,-894.957 167.516,-905.533 173.619,-896.873 166.887,-894.957"/>
<text text-anchor="middle" x="221" y="-791.071" font-family="Arial" font-size="10.00"> data</text>
</g>
<!-- Node18 -->
<g id="node18" class="node"><title>Node18</title>
<g id="a_node18"><a xlink:href="classid_win_background.html" target="_top" xlink:title="idWinBackground">
<polygon fill="white" stroke="black" points="463.5,-919.571 463.5,-938.571 556.5,-938.571 556.5,-919.571 463.5,-919.571"/>
<text text-anchor="middle" x="510" y="-926.571" font-family="Arial" font-size="10.00">idWinBackground</text>
</a>
</g>
</g>
<!-- Node2&#45;&gt;Node18 -->
<g id="edge26" class="edge"><title>Node2&#45;&gt;Node18</title>
<path fill="none" stroke="#9a32cd" stroke-dasharray="5,2" d="M192.853,-916.828C229.049,-919.053 294.222,-922.863 350,-925.071 388.214,-926.585 431.618,-927.631 463.411,-928.273"/>
<polygon fill="#9a32cd" stroke="#9a32cd" points="192.79,-913.317 182.593,-916.192 192.357,-920.304 192.79,-913.317"/>
<text text-anchor="middle" x="291" y="-927.071" font-family="Arial" font-size="10.00"> data</text>
</g>
<!-- Node3 -->
<g id="node3" class="node"><title>Node3</title>
<g id="a_node3"><a xlink:href="classid_game_bust_out_window.html" target="_top" xlink:title="idGameBustOutWindow">
<polygon fill="white" stroke="black" points="882.5,-849.571 882.5,-868.571 1003.5,-868.571 1003.5,-849.571 882.5,-849.571"/>
<text text-anchor="middle" x="943" y="-856.571" font-family="Arial" font-size="10.00">idGameBustOutWindow</text>
</a>
</g>
</g>
<!-- Node3&#45;&gt;Node1 -->
<g id="edge2" class="edge"><title>Node3&#45;&gt;Node1</title>
<path fill="none" stroke="#9a32cd" stroke-dasharray="5,2" d="M958.613,-876.877C990.033,-915.165 1063.12,-1004.23 1087.17,-1033.53"/>
<polygon fill="#9a32cd" stroke="#9a32cd" points="960.955,-874.215 951.906,-868.705 955.544,-878.655 960.955,-874.215"/>
<text text-anchor="middle" x="1036" y="-986.071" font-family="Arial" font-size="10.00"> game</text>
</g>
<!-- Node4&#45;&gt;Node3 -->
<g id="edge3" class="edge"><title>Node4&#45;&gt;Node3</title>
<path fill="none" stroke="midnightblue" d="M770.744,-638.753C807.338,-685.83 906.263,-813.096 934.426,-849.327"/>
<polygon fill="midnightblue" stroke="midnightblue" points="773.382,-636.443 764.481,-630.696 767.855,-640.739 773.382,-636.443"/>
</g>
<!-- Node4&#45;&gt;Node4 -->
<g id="edge13" class="edge"><title>Node4&#45;&gt;Node4</title>
<path fill="none" stroke="#9a32cd" stroke-dasharray="5,2" d="M739.705,-640.471C740.793,-645.386 746.225,-649.071 756,-649.071 771.641,-649.071 776.162,-639.637 769.563,-630.828"/>
<polygon fill="#9a32cd" stroke="#9a32cd" points="743.078,-641.404 742.437,-630.828 736.343,-639.496 743.078,-641.404"/>
<text text-anchor="middle" x="756" y="-685.071" font-family="Arial" font-size="10.00"> captureChild</text>
<text text-anchor="middle" x="756" y="-674.071" font-family="Arial" font-size="10.00">overChild</text>
<text text-anchor="middle" x="756" y="-663.071" font-family="Arial" font-size="10.00">parent</text>
<text text-anchor="middle" x="756" y="-652.071" font-family="Arial" font-size="10.00">focusedChild</text>
</g>
<!-- Node5 -->
<g id="node5" class="node"><title>Node5</title>
<g id="a_node5"><a xlink:href="classid_device_context.html" target="_top" xlink:title="idDeviceContext">
<polygon fill="white" stroke="black" points="467,-767.571 467,-786.571 553,-786.571 553,-767.571 467,-767.571"/>
<text text-anchor="middle" x="510" y="-774.571" font-family="Arial" font-size="10.00">idDeviceContext</text>
</a>
</g>
</g>
<!-- Node5&#45;&gt;Node4 -->
<g id="edge4" class="edge"><title>Node5&#45;&gt;Node4</title>
<path fill="none" stroke="#9a32cd" stroke-dasharray="5,2" d="M563.219,-777.349C600.59,-775.092 650.385,-766.817 686,-741.071 725.536,-712.491 745.758,-653.781 752.436,-630.697"/>
<polygon fill="#9a32cd" stroke="#9a32cd" points="562.852,-773.862 553.03,-777.835 563.186,-780.854 562.852,-773.862"/>
<text text-anchor="middle" x="641" y="-776.071" font-family="Arial" font-size="10.00"> dc</text>
</g>
<!-- Node6 -->
<g id="node6" class="node"><title>Node6</title>
<g id="a_node6"><a xlink:href="classid_vec4.html" target="_top" xlink:title="idVec4">
<polygon fill="white" stroke="black" points="267.5,-734.571 267.5,-753.571 314.5,-753.571 314.5,-734.571 267.5,-734.571"/>
<text text-anchor="middle" x="291" y="-741.571" font-family="Arial" font-size="10.00">idVec4</text>
</a>
</g>
</g>
<!-- Node6&#45;&gt;Node1 -->
<g id="edge49" class="edge"><title>Node6&#45;&gt;Node1</title>
<path fill="none" stroke="#9a32cd" stroke-dasharray="5,2" d="M296.988,-763.492C305.04,-795.254 321.099,-860.359 332,-916.071 336.883,-941.026 331.401,-1011.73 350,-1029.07 401.89,-1077.44 438.06,-1043.07 509,-1043.07 509,-1043.07 509,-1043.07 944,-1043.07 987.386,-1043.07 1037.78,-1043.07 1068,-1043.07"/>
<polygon fill="#9a32cd" stroke="#9a32cd" points="300.359,-762.543 294.496,-753.718 293.576,-764.273 300.359,-762.543"/>
<text text-anchor="middle" x="756" y="-1046.07" font-family="Arial" font-size="10.00"> color</text>
</g>
<!-- Node6&#45;&gt;Node5 -->
<g id="edge5" class="edge"><title>Node6&#45;&gt;Node5</title>
<path fill="none" stroke="#9a32cd" stroke-dasharray="5,2" d="M324.827,-749.063C362.78,-754.835 425.341,-764.349 466.858,-770.663"/>
<polygon fill="#9a32cd" stroke="#9a32cd" points="325.225,-745.584 314.813,-747.541 324.173,-752.504 325.225,-745.584"/>
<text text-anchor="middle" x="387" y="-854.071" font-family="Arial" font-size="10.00"> colorRed</text>
<text text-anchor="middle" x="387" y="-843.071" font-family="Arial" font-size="10.00">colorNone</text>
<text text-anchor="middle" x="387" y="-832.071" font-family="Arial" font-size="10.00">colorYellow</text>
<text text-anchor="middle" x="387" y="-821.071" font-family="Arial" font-size="10.00">colorPurple</text>
<text text-anchor="middle" x="387" y="-810.071" font-family="Arial" font-size="10.00">colorBlue</text>
<text text-anchor="middle" x="387" y="-799.071" font-family="Arial" font-size="10.00">colorWhite</text>
<text text-anchor="middle" x="387" y="-788.071" font-family="Arial" font-size="10.00">colorGreen</text>
<text text-anchor="middle" x="387" y="-777.071" font-family="Arial" font-size="10.00">colorOrange</text>
<text text-anchor="middle" x="387" y="-766.071" font-family="Arial" font-size="10.00">colorBlack</text>
</g>
<!-- Node7 -->
<g id="node7" class="node"><title>Node7</title>
<g id="a_node7"><a xlink:href="classid_win_vec4.html" target="_top" xlink:title="idWinVec4">
<polygon fill="white" stroke="black" points="478,-548.571 478,-567.571 542,-567.571 542,-548.571 478,-548.571"/>
<text text-anchor="middle" x="510" y="-555.571" font-family="Arial" font-size="10.00">idWinVec4</text>
</a>
</g>
</g>
<!-- Node6&#45;&gt;Node7 -->
<g id="edge9" class="edge"><title>Node6&#45;&gt;Node7</title>
<path fill="none" stroke="#9a32cd" stroke-dasharray="5,2" d="M324.345,-733.563C354.832,-721.948 399.404,-700.228 424,-666.071 446.311,-635.088 416.854,-610.802 442,-582.071 451.114,-571.658 465.077,-565.763 477.903,-562.425"/>
<polygon fill="#9a32cd" stroke="#9a32cd" points="322.791,-730.404 314.595,-737.118 325.189,-736.981 322.791,-730.404"/>
<text text-anchor="middle" x="387" y="-723.071" font-family="Arial" font-size="10.00"> data</text>
</g>
<!-- Node7&#45;&gt;Node4 -->
<g id="edge6" class="edge"><title>Node7&#45;&gt;Node4</title>
<path fill="none" stroke="#9a32cd" stroke-dasharray="5,2" d="M551.92,-547.377C588.515,-539.933 642.871,-534.207 686,-552.071 715.268,-564.195 738.595,-595.424 749.043,-611.378"/>
<polygon fill="#9a32cd" stroke="#9a32cd" points="551.126,-543.967 542.093,-549.504 552.607,-550.809 551.126,-543.967"/>
<text text-anchor="middle" x="641" y="-599.071" font-family="Arial" font-size="10.00"> foreColor</text>
<text text-anchor="middle" x="641" y="-588.071" font-family="Arial" font-size="10.00">matColor</text>
<text text-anchor="middle" x="641" y="-577.071" font-family="Arial" font-size="10.00">hoverColor</text>
<text text-anchor="middle" x="641" y="-566.071" font-family="Arial" font-size="10.00">borderColor</text>
<text text-anchor="middle" x="641" y="-555.071" font-family="Arial" font-size="10.00">backColor</text>
</g>
<!-- Node8 -->
<g id="node8" class="node"><title>Node8</title>
<g id="a_node8"><a xlink:href="classid_win_var.html" target="_top" xlink:title="idWinVar">
<polygon fill="white" stroke="black" points="136,-548.571 136,-567.571 192,-567.571 192,-548.571 136,-548.571"/>
<text text-anchor="middle" x="164" y="-555.571" font-family="Arial" font-size="10.00">idWinVar</text>
</a>
</g>
</g>
<!-- Node8&#45;&gt;Node7 -->
<g id="edge7" class="edge"><title>Node8&#45;&gt;Node7</title>
<path fill="none" stroke="midnightblue" d="M202.584,-558.071C270.95,-558.071 414.432,-558.071 477.791,-558.071"/>
<polygon fill="midnightblue" stroke="midnightblue" points="202.281,-554.571 192.281,-558.071 202.281,-561.571 202.281,-554.571"/>
</g>
<!-- Node8&#45;&gt;Node12 -->
<g id="edge15" class="edge"><title>Node8&#45;&gt;Node12</title>
<path fill="none" stroke="midnightblue" d="M169.914,-577.558C176.124,-598.724 188.662,-632.406 210,-654.071 224.854,-669.153 246.721,-679.262 263.841,-685.401"/>
<polygon fill="midnightblue" stroke="midnightblue" points="173.248,-576.48 167.231,-567.76 166.497,-578.329 173.248,-576.48"/>
</g>
<!-- Node13 -->
<g id="node13" class="node"><title>Node13</title>
<g id="a_node13"><a xlink:href="classid_win_rectangle.html" target="_top" xlink:title="idWinRectangle">
<polygon fill="white" stroke="black" points="467.5,-162.571 467.5,-181.571 552.5,-181.571 552.5,-162.571 467.5,-162.571"/>
<text text-anchor="middle" x="510" y="-169.571" font-family="Arial" font-size="10.00">idWinRectangle</text>
</a>
</g>
</g>
<!-- Node8&#45;&gt;Node13 -->
<g id="edge18" class="edge"><title>Node8&#45;&gt;Node13</title>
<path fill="none" stroke="midnightblue" d="M165.603,-538.294C168.154,-490.456 181.41,-367.542 250,-301.071 320.624,-232.63 351.352,-229.215 442,-191.071 450.581,-187.461 460.061,-184.303 469.124,-181.653"/>
<polygon fill="midnightblue" stroke="midnightblue" points="162.096,-538.382 165.165,-548.522 169.09,-538.681 162.096,-538.382"/>
</g>
<!-- Node16 -->
<g id="node16" class="node"><title>Node16</title>
<g id="a_node16"><a xlink:href="classid_win_float.html" target="_top" xlink:title="idWinFloat">
<polygon fill="white" stroke="black" points="355.5,-637.571 355.5,-656.571 418.5,-656.571 418.5,-637.571 355.5,-637.571"/>
<text text-anchor="middle" x="387" y="-644.571" font-family="Arial" font-size="10.00">idWinFloat</text>
</a>
</g>
</g>
<!-- Node8&#45;&gt;Node16 -->
<g id="edge22" class="edge"><title>Node8&#45;&gt;Node16</title>
<path fill="none" stroke="midnightblue" d="M197.969,-571.348C242.969,-589.471 322.55,-621.519 362.185,-637.481"/>
<polygon fill="midnightblue" stroke="midnightblue" points="199.234,-568.085 188.651,-567.596 196.619,-574.578 199.234,-568.085"/>
</g>
<!-- Node27 -->
<g id="node27" class="node"><title>Node27</title>
<g id="a_node27"><a xlink:href="classid_win_bool.html" target="_top" xlink:title="idWinBool">
<polygon fill="white" stroke="black" points="356.5,-286.571 356.5,-305.571 417.5,-305.571 417.5,-286.571 356.5,-286.571"/>
<text text-anchor="middle" x="387" y="-293.571" font-family="Arial" font-size="10.00">idWinBool</text>
</a>
</g>
</g>
<!-- Node8&#45;&gt;Node27 -->
<g id="edge36" class="edge"><title>Node8&#45;&gt;Node27</title>
<path fill="none" stroke="midnightblue" d="M167.639,-537.975C174.101,-496.608 194.46,-401.284 250,-347.071 279.233,-318.537 325.93,-305.693 356.281,-300.108"/>
<polygon fill="midnightblue" stroke="midnightblue" points="164.137,-537.734 166.167,-548.132 171.065,-538.738 164.137,-537.734"/>
</g>
<!-- Node9 -->
<g id="node9" class="node"><title>Node9</title>
<g id="a_node9"><a xlink:href="classid_dict.html" target="_top" xlink:title="idDict">
<polygon fill="white" stroke="black" points="12.5,-548.571 12.5,-567.571 53.5,-567.571 53.5,-548.571 12.5,-548.571"/>
<text text-anchor="middle" x="33" y="-555.571" font-family="Arial" font-size="10.00">idDict</text>
</a>
</g>
</g>
<!-- Node9&#45;&gt;Node8 -->
<g id="edge8" class="edge"><title>Node9&#45;&gt;Node8</title>
<path fill="none" stroke="#9a32cd" stroke-dasharray="5,2" d="M63.8475,-558.071C85.4761,-558.071 114.498,-558.071 135.551,-558.071"/>
<polygon fill="#9a32cd" stroke="#9a32cd" points="63.5924,-554.571 53.5923,-558.071 63.5923,-561.571 63.5924,-554.571"/>
<text text-anchor="middle" x="101" y="-561.071" font-family="Arial" font-size="10.00"> guiDict</text>
</g>
<!-- Node10 -->
<g id="node10" class="node"><title>Node10</title>
<g id="a_node10"><a xlink:href="classid_list.html" target="_top" xlink:title="idList\&lt; float \&gt;">
<polygon fill="white" stroke="black" points="472,-510.571 472,-529.571 548,-529.571 548,-510.571 472,-510.571"/>
<text text-anchor="middle" x="510" y="-517.571" font-family="Arial" font-size="10.00">idList&lt; float &gt;</text>
</a>
</g>
</g>
<!-- Node10&#45;&gt;Node4 -->
<g id="edge10" class="edge"><title>Node10&#45;&gt;Node4</title>
<path fill="none" stroke="#9a32cd" stroke-dasharray="5,2" d="M549.99,-507.944C587.282,-498.727 643.912,-491.132 686,-514.071 725.011,-535.333 745.299,-589.17 752.216,-611.321"/>
<polygon fill="#9a32cd" stroke="#9a32cd" points="548.796,-504.639 540.013,-510.563 550.574,-511.41 548.796,-504.639"/>
<text text-anchor="middle" x="641" y="-528.071" font-family="Arial" font-size="10.00"> saveRegs</text>
<text text-anchor="middle" x="641" y="-517.071" font-family="Arial" font-size="10.00">expressionRegisters</text>
</g>
<!-- Node11 -->
<g id="node11" class="node"><title>Node11</title>
<g id="a_node11"><a xlink:href="classid_list.html" target="_top" xlink:title="idList\&lt; idWindow * \&gt;">
<polygon fill="white" stroke="black" points="456.5,-472.571 456.5,-491.571 563.5,-491.571 563.5,-472.571 456.5,-472.571"/>
<text text-anchor="middle" x="510" y="-479.571" font-family="Arial" font-size="10.00">idList&lt; idWindow * &gt;</text>
</a>
</g>
</g>
<!-- Node11&#45;&gt;Node4 -->
<g id="edge12" class="edge"><title>Node11&#45;&gt;Node4</title>
<path fill="none" stroke="#9a32cd" stroke-dasharray="5,2" d="M554.621,-470.384C592.307,-462.912 646.736,-458.65 686,-483.071 733.31,-512.498 749.292,-585.208 753.622,-611.44"/>
<polygon fill="#9a32cd" stroke="#9a32cd" points="553.509,-467.043 544.462,-472.556 554.973,-473.888 553.509,-467.043"/>
<text text-anchor="middle" x="641" y="-486.071" font-family="Arial" font-size="10.00"> children</text>
</g>
<!-- Node12&#45;&gt;Node4 -->
<g id="edge14" class="edge"><title>Node12&#45;&gt;Node4</title>
<path fill="none" stroke="#9a32cd" stroke-dasharray="5,2" d="M303.221,-674.698C313.46,-659.622 330.017,-639.038 350,-628.071 414.654,-592.588 645.243,-610.551 726.45,-618.2"/>
<polygon fill="#9a32cd" stroke="#9a32cd" points="300.188,-672.942 297.688,-683.237 306.063,-676.748 300.188,-672.942"/>
<text text-anchor="middle" x="510" y="-611.071" font-family="Arial" font-size="10.00"> text</text>
</g>
<!-- Node12&#45;&gt;Node18 -->
<g id="edge25" class="edge"><title>Node12&#45;&gt;Node18</title>
<path fill="none" stroke="midnightblue" d="M317.553,-708.803C323.125,-713.387 328.418,-718.86 332,-725.071 358.722,-771.409 316.382,-802.465 350,-844.071 372.1,-871.423 392.748,-855.951 424,-872.071 451.318,-886.163 480.532,-907.239 496.604,-919.425"/>
<polygon fill="midnightblue" stroke="midnightblue" points="319.48,-705.875 309.359,-702.742 315.317,-711.503 319.48,-705.875"/>
</g>
<!-- Node13&#45;&gt;Node4 -->
<g id="edge17" class="edge"><title>Node13&#45;&gt;Node4</title>
<path fill="none" stroke="#9a32cd" stroke-dasharray="5,2" d="M553.78,-160.345C593.126,-152.384 650.578,-148.33 686,-180.071 752.803,-239.932 755.212,-552.158 755.061,-611.372"/>
<polygon fill="#9a32cd" stroke="#9a32cd" points="552.966,-156.94 543.943,-162.492 554.459,-163.779 552.966,-156.94"/>
<text text-anchor="middle" x="641" y="-183.071" font-family="Arial" font-size="10.00"> rect</text>
</g>
<!-- Node14 -->
<g id="node14" class="node"><title>Node14</title>
<g id="a_node14"><a xlink:href="classid_rectangle.html" target="_top" xlink:title="idRectangle">
<polygon fill="white" stroke="black" points="257,-118.571 257,-137.571 325,-137.571 325,-118.571 257,-118.571"/>
<text text-anchor="middle" x="291" y="-125.571" font-family="Arial" font-size="10.00">idRectangle</text>
</a>
</g>
</g>
<!-- Node14&#45;&gt;Node4 -->
<g id="edge39" class="edge"><title>Node14&#45;&gt;Node4</title>
<path fill="none" stroke="#9a32cd" stroke-dasharray="5,2" d="M335.454,-123.329C428.284,-114.295 641.158,-99.7914 686,-151.071 748.975,-223.088 754.477,-550.58 754.955,-611.352"/>
<polygon fill="#9a32cd" stroke="#9a32cd" points="334.875,-119.869 325.272,-124.345 335.57,-126.835 334.875,-119.869"/>
<text text-anchor="middle" x="510" y="-142.071" font-family="Arial" font-size="10.00"> drawRect</text>
<text text-anchor="middle" x="510" y="-131.071" font-family="Arial" font-size="10.00">clientRect</text>
<text text-anchor="middle" x="510" y="-120.071" font-family="Arial" font-size="10.00">textRect</text>
</g>
<!-- Node14&#45;&gt;Node13 -->
<g id="edge19" class="edge"><title>Node14&#45;&gt;Node13</title>
<path fill="none" stroke="#9a32cd" stroke-dasharray="5,2" d="M335.288,-136.849C373.699,-144.637 429.447,-155.941 467.354,-163.627"/>
<polygon fill="#9a32cd" stroke="#9a32cd" points="335.927,-133.407 325.431,-134.85 334.536,-140.267 335.927,-133.407"/>
<text text-anchor="middle" x="387" y="-157.071" font-family="Arial" font-size="10.00"> data</text>
</g>
<!-- Node15 -->
<g id="node15" class="node"><title>Node15</title>
<g id="a_node15"><a xlink:href="classid_list.html" target="_top" xlink:title="idList\&lt; wexpOp_t \&gt;">
<polygon fill="white" stroke="black" points="459.5,-318.571 459.5,-337.571 560.5,-337.571 560.5,-318.571 459.5,-318.571"/>
<text text-anchor="middle" x="510" y="-325.571" font-family="Arial" font-size="10.00">idList&lt; wexpOp_t &gt;</text>
</a>
</g>
</g>
<!-- Node15&#45;&gt;Node4 -->
<g id="edge20" class="edge"><title>Node15&#45;&gt;Node4</title>
<path fill="none" stroke="#9a32cd" stroke-dasharray="5,2" d="M559.513,-316.884C598.176,-311.001 651.389,-310.108 686,-339.071 729.582,-375.542 749.923,-566.569 754.151,-611.57"/>
<polygon fill="#9a32cd" stroke="#9a32cd" points="558.803,-313.455 549.521,-318.563 559.962,-320.358 558.803,-313.455"/>
<text text-anchor="middle" x="641" y="-353.071" font-family="Arial" font-size="10.00"> saveOps</text>
<text text-anchor="middle" x="641" y="-342.071" font-family="Arial" font-size="10.00">ops</text>
</g>
<!-- Node16&#45;&gt;Node4 -->
<g id="edge21" class="edge"><title>Node16&#45;&gt;Node4</title>
<path fill="none" stroke="#9a32cd" stroke-dasharray="5,2" d="M423.768,-664.191C434.878,-679.116 428.429,-691.483 442,-700.071 493.076,-732.394 517.664,-703.69 578,-700.071 626.26,-697.177 642.289,-707.729 686,-687.071 713.577,-674.039 737.158,-645.645 748.24,-630.704"/>
<polygon fill="#9a32cd" stroke="#9a32cd" points="426.123,-661.584 416.739,-656.665 421.007,-666.362 426.123,-661.584"/>
<text text-anchor="middle" x="510" y="-729.071" font-family="Arial" font-size="10.00"> textScale</text>
<text text-anchor="middle" x="510" y="-718.071" font-family="Arial" font-size="10.00">rotate</text>
</g>
<!-- Node17 -->
<g id="node17" class="node"><title>Node17</title>
<g id="a_node17"><a xlink:href="classid_list.html" target="_top" xlink:title="idList\&lt; idWinVar * \&gt;">
<polygon fill="white" stroke="black" points="458,-200.571 458,-219.571 562,-219.571 562,-200.571 458,-200.571"/>
<text text-anchor="middle" x="510" y="-207.571" font-family="Arial" font-size="10.00">idList&lt; idWinVar * &gt;</text>
</a>
</g>
</g>
<!-- Node17&#45;&gt;Node4 -->
<g id="edge23" class="edge"><title>Node17&#45;&gt;Node4</title>
<path fill="none" stroke="#9a32cd" stroke-dasharray="5,2" d="M556.194,-198.59C595.419,-191.555 651.227,-189.032 686,-220.071 746.736,-274.287 754.038,-555.964 754.89,-611.542"/>
<polygon fill="#9a32cd" stroke="#9a32cd" points="555.497,-195.16 546.353,-200.511 556.838,-202.031 555.497,-195.16"/>
<text text-anchor="middle" x="641" y="-234.071" font-family="Arial" font-size="10.00"> definedVars</text>
<text text-anchor="middle" x="641" y="-223.071" font-family="Arial" font-size="10.00">updateVars</text>
</g>
<!-- Node18&#45;&gt;Node4 -->
<g id="edge24" class="edge"><title>Node18&#45;&gt;Node4</title>
<path fill="none" stroke="#9a32cd" stroke-dasharray="5,2" d="M566.712,-928.092C611.203,-926.131 668.842,-920.562 686,-905.071 691.355,-900.237 741.684,-679.709 752.824,-630.667"/>
<polygon fill="#9a32cd" stroke="#9a32cd" points="566.435,-924.6 556.58,-928.487 566.708,-931.595 566.435,-924.6"/>
<text text-anchor="middle" x="641" y="-929.071" font-family="Arial" font-size="10.00"> backGroundName</text>
</g>
<!-- Node19 -->
<g id="node19" class="node"><title>Node19</title>
<g id="a_node19"><a xlink:href="classid_material.html" target="_top" xlink:title="idMaterial">
<polygon fill="white" stroke="black" points="261.5,-1099.57 261.5,-1118.57 320.5,-1118.57 320.5,-1099.57 261.5,-1099.57"/>
<text text-anchor="middle" x="291" y="-1106.57" font-family="Arial" font-size="10.00">idMaterial</text>
</a>
</g>
</g>
<!-- Node19&#45;&gt;Node1 -->
<g id="edge50" class="edge"><title>Node19&#45;&gt;Node1</title>
<path fill="none" stroke="#9a32cd" stroke-dasharray="5,2" d="M331.013,-1112.9C337.353,-1113.39 343.855,-1113.81 350,-1114.07 382.858,-1115.49 391.113,-1114.39 424,-1114.07 703.36,-1111.35 776.635,-1114.7 1050,-1057.07 1055.76,-1055.86 1061.85,-1054.22 1067.61,-1052.49"/>
<polygon fill="#9a32cd" stroke="#9a32cd" points="330.841,-1109.37 320.584,-1112.03 330.258,-1116.35 330.841,-1109.37"/>
<text text-anchor="middle" x="756" y="-1111.07" font-family="Arial" font-size="10.00"> material</text>
</g>
<!-- Node19&#45;&gt;Node4 -->
<g id="edge45" class="edge"><title>Node19&#45;&gt;Node4</title>
<path fill="none" stroke="#9a32cd" stroke-dasharray="5,2" d="M330.587,-1106.7C420.294,-1100.34 638.843,-1079.68 686,-1027.07 713.865,-995.984 697.251,-881.27 704,-840.071 717.443,-758.014 743.822,-660.897 752.305,-630.587"/>
<polygon fill="#9a32cd" stroke="#9a32cd" points="330.292,-1103.21 320.556,-1107.39 330.772,-1110.2 330.292,-1103.21"/>
<text text-anchor="middle" x="510" y="-1099.07" font-family="Arial" font-size="10.00"> background</text>
</g>
<!-- Node19&#45;&gt;Node18 -->
<g id="edge27" class="edge"><title>Node19&#45;&gt;Node18</title>
<path fill="none" stroke="#9a32cd" stroke-dasharray="5,2" d="M303.719,-1091.06C326.357,-1057.72 379.427,-986.309 442,-948.071 448.5,-944.099 455.858,-940.932 463.258,-938.413"/>
<polygon fill="#9a32cd" stroke="#9a32cd" points="300.797,-1089.14 298.158,-1099.4 306.62,-1093.02 300.797,-1089.14"/>
<text text-anchor="middle" x="387" y="-1029.07" font-family="Arial" font-size="10.00"> mat</text>
</g>
<!-- Node20 -->
<g id="node20" class="node"><title>Node20</title>
<g id="a_node20"><a xlink:href="classid_decl.html" target="_top" xlink:title="idDecl">
<polygon fill="white" stroke="black" points="142,-1181.57 142,-1200.57 186,-1200.57 186,-1181.57 142,-1181.57"/>
<text text-anchor="middle" x="164" y="-1188.57" font-family="Arial" font-size="10.00">idDecl</text>
</a>
</g>
</g>
<!-- Node20&#45;&gt;Node19 -->
<g id="edge28" class="edge"><title>Node20&#45;&gt;Node19</title>
<path fill="none" stroke="midnightblue" d="M188.496,-1175.66C213.947,-1158.96 253.774,-1132.84 275.189,-1118.79"/>
<polygon fill="midnightblue" stroke="midnightblue" points="186.272,-1172.93 179.83,-1181.34 190.111,-1178.78 186.272,-1172.93"/>
</g>
<!-- Node21 -->
<g id="node21" class="node"><title>Node21</title>
<g id="a_node21"><a xlink:href="classid_decl_base.html" target="_top" xlink:title="idDeclBase">
<polygon fill="white" stroke="black" points="0,-1181.57 0,-1200.57 66,-1200.57 66,-1181.57 0,-1181.57"/>
<text text-anchor="middle" x="33" y="-1188.57" font-family="Arial" font-size="10.00">idDeclBase</text>
</a>
</g>
</g>
<!-- Node21&#45;&gt;Node20 -->
<g id="edge29" class="edge"><title>Node21&#45;&gt;Node20</title>
<path fill="none" stroke="#9a32cd" stroke-dasharray="5,2" d="M76.2792,-1191.07C98.1687,-1191.07 123.948,-1191.07 141.678,-1191.07"/>
<polygon fill="#9a32cd" stroke="#9a32cd" points="76.2194,-1187.57 66.2194,-1191.07 76.2193,-1194.57 76.2194,-1187.57"/>
<text text-anchor="middle" x="101" y="-1194.07" font-family="Arial" font-size="10.00"> base</text>
</g>
<!-- Node22 -->
<g id="node22" class="node"><title>Node22</title>
<g id="a_node22"><a xlink:href="classid_list.html" target="_top" xlink:title="idList\&lt; idTimeLineEvent * \&gt;">
<polygon fill="white" stroke="black" points="442.5,-55.5713 442.5,-74.5713 577.5,-74.5713 577.5,-55.5713 442.5,-55.5713"/>
<text text-anchor="middle" x="510" y="-62.5713" font-family="Arial" font-size="10.00">idList&lt; idTimeLineEvent * &gt;</text>
</a>
</g>
</g>
<!-- Node22&#45;&gt;Node4 -->
<g id="edge30" class="edge"><title>Node22&#45;&gt;Node4</title>
<path fill="none" stroke="#9a32cd" stroke-dasharray="5,2" d="M587.936,-65.2254C628.245,-67.0232 672.076,-72.2696 686,-86.0713 724.993,-124.722 750.447,-541.474 754.447,-611.202"/>
<polygon fill="#9a32cd" stroke="#9a32cd" points="587.909,-61.722 577.784,-64.8396 587.643,-68.7169 587.909,-61.722"/>
<text text-anchor="middle" x="641" y="-89.0713" font-family="Arial" font-size="10.00"> timeLineEvents</text>
</g>
<!-- Node23 -->
<g id="node23" class="node"><title>Node23</title>
<g id="a_node23"><a xlink:href="classid_gui_script_list.html" target="_top" xlink:title="idGuiScriptList">
<polygon fill="white" stroke="black" points="470,-995.571 470,-1014.57 550,-1014.57 550,-995.571 470,-995.571"/>
<text text-anchor="middle" x="510" y="-1002.57" font-family="Arial" font-size="10.00">idGuiScriptList</text>
</a>
</g>
</g>
<!-- Node23&#45;&gt;Node4 -->
<g id="edge31" class="edge"><title>Node23&#45;&gt;Node4</title>
<path fill="none" stroke="#9a32cd" stroke-dasharray="5,2" d="M559.997,-1012.01C599.607,-1014.63 653.887,-1010.94 686,-978.071 707.611,-955.949 698.486,-870.502 704,-840.071 718.825,-758.252 744.286,-660.977 752.422,-630.607"/>
<polygon fill="#9a32cd" stroke="#9a32cd" points="560.262,-1008.52 550.011,-1011.2 559.694,-1015.5 560.262,-1008.52"/>
<text text-anchor="middle" x="641" y="-1015.07" font-family="Arial" font-size="10.00"> scripts</text>
</g>
<!-- Node24 -->
<g id="node24" class="node"><title>Node24</title>
<g id="a_node24"><a xlink:href="classid_register_list.html" target="_top" xlink:title="idRegisterList">
<polygon fill="white" stroke="black" points="472,-957.571 472,-976.571 548,-976.571 548,-957.571 472,-957.571"/>
<text text-anchor="middle" x="510" y="-964.571" font-family="Arial" font-size="10.00">idRegisterList</text>
</a>
</g>
</g>
<!-- Node24&#45;&gt;Node4 -->
<g id="edge32" class="edge"><title>Node24&#45;&gt;Node4</title>
<path fill="none" stroke="#9a32cd" stroke-dasharray="5,2" d="M558.512,-966.087C604.024,-964.106 668.321,-958.247 686,-941.071 718.703,-909.299 694.826,-884.735 704,-840.071 720.73,-758.62 744.926,-661.1 752.583,-630.638"/>
<polygon fill="#9a32cd" stroke="#9a32cd" points="558.107,-962.6 548.249,-966.483 558.376,-969.595 558.107,-962.6"/>
<text text-anchor="middle" x="641" y="-966.071" font-family="Arial" font-size="10.00"> regList</text>
</g>
<!-- Node25 -->
<g id="node25" class="node"><title>Node25</title>
<g id="a_node25"><a xlink:href="classid_user_interface_local.html" target="_top" xlink:title="idUserInterfaceLocal">
<polygon fill="white" stroke="black" points="458,-434.571 458,-453.571 562,-453.571 562,-434.571 458,-434.571"/>
<text text-anchor="middle" x="510" y="-441.571" font-family="Arial" font-size="10.00">idUserInterfaceLocal</text>
</a>
</g>
</g>
<!-- Node25&#45;&gt;Node4 -->
<g id="edge33" class="edge"><title>Node25&#45;&gt;Node4</title>
<path fill="none" stroke="#9a32cd" stroke-dasharray="5,2" d="M556.653,-432.569C594.689,-425.773 648.512,-422.93 686,-449.071 742.214,-488.27 752.651,-581.311 754.572,-611.461"/>
<polygon fill="#9a32cd" stroke="#9a32cd" points="555.517,-429.225 546.37,-434.571 556.854,-436.096 555.517,-429.225"/>
<text text-anchor="middle" x="641" y="-452.071" font-family="Arial" font-size="10.00"> gui</text>
</g>
<!-- Node26 -->
<g id="node26" class="node"><title>Node26</title>
<g id="a_node26"><a xlink:href="classid_user_interface.html" target="_top" xlink:title="idUserInterface">
<polygon fill="white" stroke="black" points="250.5,-434.571 250.5,-453.571 331.5,-453.571 331.5,-434.571 250.5,-434.571"/>
<text text-anchor="middle" x="291" y="-441.571" font-family="Arial" font-size="10.00">idUserInterface</text>
</a>
</g>
</g>
<!-- Node26&#45;&gt;Node25 -->
<g id="edge34" class="edge"><title>Node26&#45;&gt;Node25</title>
<path fill="none" stroke="midnightblue" d="M341.937,-444.071C376.672,-444.071 422.842,-444.071 457.841,-444.071"/>
<polygon fill="midnightblue" stroke="midnightblue" points="341.549,-440.571 331.549,-444.071 341.549,-447.571 341.549,-440.571"/>
</g>
<!-- Node27&#45;&gt;Node4 -->
<g id="edge35" class="edge"><title>Node27&#45;&gt;Node4</title>
<path fill="none" stroke="#9a32cd" stroke-dasharray="5,2" d="M408.892,-280.667C418.47,-274.532 430.285,-268.195 442,-265.071 548.474,-236.682 614.945,-224.846 686,-309.071 726.511,-357.091 749.351,-564.375 754.076,-611.51"/>
<polygon fill="#9a32cd" stroke="#9a32cd" points="406.783,-277.867 400.469,-286.375 410.711,-283.662 406.783,-277.867"/>
<text text-anchor="middle" x="510" y="-301.071" font-family="Arial" font-size="10.00"> noTime</text>
<text text-anchor="middle" x="510" y="-290.071" font-family="Arial" font-size="10.00">hideCursor</text>
<text text-anchor="middle" x="510" y="-279.071" font-family="Arial" font-size="10.00">noEvents</text>
<text text-anchor="middle" x="510" y="-268.071" font-family="Arial" font-size="10.00">visible</text>
</g>
<!-- Node28 -->
<g id="node28" class="node"><title>Node28</title>
<g id="a_node28"><a xlink:href="classid_vec2.html" target="_top" xlink:title="idVec2">
<polygon fill="white" stroke="black" points="486.5,-7.57133 486.5,-26.5713 533.5,-26.5713 533.5,-7.57133 486.5,-7.57133"/>
<text text-anchor="middle" x="510" y="-14.5713" font-family="Arial" font-size="10.00">idVec2</text>
</a>
</g>
</g>
<!-- Node28&#45;&gt;Node1 -->
<g id="edge48" class="edge"><title>Node28&#45;&gt;Node1</title>
<path fill="none" stroke="#9a32cd" stroke-dasharray="5,2" d="M543.514,-7.94638C581.315,0.600867 643.889,8.14088 686,-21.0713 1060.9,-281.143 1092.26,-945.03 1094.79,-1033.32"/>
<polygon fill="#9a32cd" stroke="#9a32cd" points="542.445,-4.60382 533.547,-10.3541 544.089,-11.4081 542.445,-4.60382"/>
<text text-anchor="middle" x="845" y="-211.071" font-family="Arial" font-size="10.00"> position</text>
<text text-anchor="middle" x="845" y="-200.071" font-family="Arial" font-size="10.00">velocity</text>
</g>
<!-- Node28&#45;&gt;Node4 -->
<g id="edge37" class="edge"><title>Node28&#45;&gt;Node4</title>
<path fill="none" stroke="#9a32cd" stroke-dasharray="5,2" d="M543.987,-16.7677C589.13,-17.1005 666.763,-20.5932 686,-40.0713 728.023,-82.6216 751.122,-538.561 754.552,-611.31"/>
<polygon fill="#9a32cd" stroke="#9a32cd" points="543.812,-13.2673 533.803,-16.7419 543.795,-20.2673 543.812,-13.2673"/>
<text text-anchor="middle" x="641" y="-54.0713" font-family="Arial" font-size="10.00"> origin</text>
<text text-anchor="middle" x="641" y="-43.0713" font-family="Arial" font-size="10.00">shear</text>
</g>
<!-- Node29 -->
<g id="node29" class="node"><title>Node29</title>
<g id="a_node29"><a xlink:href="classid_list.html" target="_top" xlink:title="idList\&lt; drawWin_t \&gt;">
<polygon fill="white" stroke="black" points="458,-843.571 458,-862.571 562,-862.571 562,-843.571 458,-843.571"/>
<text text-anchor="middle" x="510" y="-850.571" font-family="Arial" font-size="10.00">idList&lt; drawWin_t &gt;</text>
</a>
</g>
</g>
<!-- Node29&#45;&gt;Node4 -->
<g id="edge38" class="edge"><title>Node29&#45;&gt;Node4</title>
<path fill="none" stroke="#9a32cd" stroke-dasharray="5,2" d="M572.375,-860.676C609.197,-861.827 654.786,-856.791 686,-831.071 749.972,-778.359 755.113,-665.097 755.158,-630.989"/>
<polygon fill="#9a32cd" stroke="#9a32cd" points="572.394,-857.174 562.241,-860.2 572.065,-864.166 572.394,-857.174"/>
<text text-anchor="middle" x="641" y="-863.071" font-family="Arial" font-size="10.00"> drawWindows</text>
</g>
<!-- Node30 -->
<g id="node30" class="node"><title>Node30</title>
<g id="a_node30"><a xlink:href="classid_list.html" target="_top" xlink:title="idList\&lt; idTransitionData \&gt;">
<polygon fill="white" stroke="black" points="446,-805.571 446,-824.571 574,-824.571 574,-805.571 446,-805.571"/>
<text text-anchor="middle" x="510" y="-812.571" font-family="Arial" font-size="10.00">idList&lt; idTransitionData &gt;</text>
</a>
</g>
</g>
<!-- Node30&#45;&gt;Node4 -->
<g id="edge40" class="edge"><title>Node30&#45;&gt;Node4</title>
<path fill="none" stroke="#9a32cd" stroke-dasharray="5,2" d="M584.426,-819.506C618.496,-817.89 657.633,-810.363 686,-788.071 738.045,-747.174 751.171,-660.244 754.178,-630.947"/>
<polygon fill="#9a32cd" stroke="#9a32cd" points="583.92,-816.02 574.033,-819.827 584.136,-823.016 583.92,-816.02"/>
<text text-anchor="middle" x="641" y="-821.071" font-family="Arial" font-size="10.00"> transitions</text>
</g>
<!-- Node31 -->
<g id="node31" class="node"><title>Node31</title>
<g id="a_node31"><a xlink:href="classid_c_var.html" target="_top" xlink:title="idCVar">
<polygon fill="white" stroke="black" points="487,-356.571 487,-375.571 533,-375.571 533,-356.571 487,-356.571"/>
<text text-anchor="middle" x="510" y="-363.571" font-family="Arial" font-size="10.00">idCVar</text>
</a>
</g>
</g>
<!-- Node31&#45;&gt;Node4 -->
<g id="edge41" class="edge"><title>Node31&#45;&gt;Node4</title>
<path fill="none" stroke="#9a32cd" stroke-dasharray="5,2" d="M543.393,-363.358C582.15,-361.96 646.716,-365.764 686,-401.071 750.604,-459.136 755.262,-576.837 755.182,-611.352"/>
<polygon fill="#9a32cd" stroke="#9a32cd" points="543.001,-359.873 533.188,-363.869 543.351,-366.865 543.001,-359.873"/>
<text text-anchor="middle" x="641" y="-415.071" font-family="Arial" font-size="10.00"> gui_debug</text>
<text text-anchor="middle" x="641" y="-404.071" font-family="Arial" font-size="10.00">gui_edit</text>
</g>
<!-- Node31&#45;&gt;Node31 -->
<g id="edge43" class="edge"><title>Node31&#45;&gt;Node31</title>
<path fill="none" stroke="#9a32cd" stroke-dasharray="5,2" d="M487.307,-385.101C488.544,-390.199 496.109,-394.071 510,-394.071 531.684,-394.071 537.952,-384.637 528.804,-375.828"/>
<polygon fill="#9a32cd" stroke="#9a32cd" points="490.555,-386.404 491.196,-375.828 484.1,-383.696 490.555,-386.404"/>
<text text-anchor="middle" x="510" y="-408.071" font-family="Arial" font-size="10.00"> next</text>
<text text-anchor="middle" x="510" y="-397.071" font-family="Arial" font-size="10.00">internalVar</text>
</g>
<!-- Node32 -->
<g id="node32" class="node"><title>Node32</title>
<g id="a_node32"><a xlink:href="classid_cmd_args.html" target="_top" xlink:title="idCmdArgs">
<polygon fill="white" stroke="black" points="258.5,-356.571 258.5,-375.571 323.5,-375.571 323.5,-356.571 258.5,-356.571"/>
<text text-anchor="middle" x="291" y="-363.571" font-family="Arial" font-size="10.00">idCmdArgs</text>
</a>
</g>
</g>
<!-- Node32&#45;&gt;Node31 -->
<g id="edge42" class="edge"><title>Node32&#45;&gt;Node31</title>
<path fill="none" stroke="#9a32cd" stroke-dasharray="5,2" d="M333.742,-366.071C379.48,-366.071 451.108,-366.071 486.979,-366.071"/>
<polygon fill="#9a32cd" stroke="#9a32cd" points="333.554,-362.571 323.554,-366.071 333.554,-369.571 333.554,-362.571"/>
<text text-anchor="middle" x="387" y="-369.071" font-family="Arial" font-size="10.00"> valueCompletion</text>
</g>
<!-- Node33 -->
<g id="node33" class="node"><title>Node33</title>
<g id="a_node33"><a xlink:href="structid_reg_entry.html" target="_top" xlink:title="idRegEntry">
<polygon fill="white" stroke="black" points="477.5,-671.571 477.5,-690.571 542.5,-690.571 542.5,-671.571 477.5,-671.571"/>
<text text-anchor="middle" x="510" y="-678.571" font-family="Arial" font-size="10.00">idRegEntry</text>
</a>
</g>
</g>
<!-- Node33&#45;&gt;Node4 -->
<g id="edge44" class="edge"><title>Node33&#45;&gt;Node4</title>
<path fill="none" stroke="#9a32cd" stroke-dasharray="5,2" d="M552.725,-678.091C588.672,-674.711 641.623,-667.779 686,-654.071 704.777,-648.271 724.905,-638.148 738.546,-630.639"/>
<polygon fill="#9a32cd" stroke="#9a32cd" points="552.252,-674.619 542.601,-678.991 552.872,-681.591 552.252,-674.619"/>
<text text-anchor="middle" x="641" y="-675.071" font-family="Arial" font-size="10.00"> RegisterVars</text>
</g>
<!-- Node34 -->
<g id="node34" class="node"><title>Node34</title>
<g id="a_node34"><a xlink:href="classid_list.html" target="_top" xlink:title="idList\&lt; rvNamedEvent * \&gt;">
<polygon fill="white" stroke="black" points="447,-633.571 447,-652.571 573,-652.571 573,-633.571 447,-633.571"/>
<text text-anchor="middle" x="510" y="-640.571" font-family="Arial" font-size="10.00">idList&lt; rvNamedEvent * &gt;</text>
</a>
</g>
</g>
<!-- Node34&#45;&gt;Node4 -->
<g id="edge46" class="edge"><title>Node34&#45;&gt;Node4</title>
<path fill="none" stroke="#9a32cd" stroke-dasharray="5,2" d="M583.131,-640.086C614.758,-638.378 652.282,-635.81 686,-632.071 699.262,-630.601 713.867,-628.363 726.211,-626.289"/>
<polygon fill="#9a32cd" stroke="#9a32cd" points="582.886,-636.594 573.082,-640.611 583.251,-643.585 582.886,-636.594"/>
<text text-anchor="middle" x="641" y="-642.071" font-family="Arial" font-size="10.00"> namedEvents</text>
</g>
<!-- Node35 -->
<g id="node35" class="node"><title>Node35</title>
<g id="a_node35"><a xlink:href="classid_list.html" target="_top" xlink:title="idList\&lt; BOEntity * \&gt;">
<polygon fill="white" stroke="black" points="704,-849.571 704,-868.571 808,-868.571 808,-849.571 704,-849.571"/>
<text text-anchor="middle" x="756" y="-856.571" font-family="Arial" font-size="10.00">idList&lt; BOEntity * &gt;</text>
</a>
</g>
</g>
<!-- Node35&#45;&gt;Node3 -->
<g id="edge47" class="edge"><title>Node35&#45;&gt;Node3</title>
<path fill="none" stroke="#9a32cd" stroke-dasharray="5,2" d="M818.259,-859.071C838.859,-859.071 861.8,-859.071 882.28,-859.071"/>
<polygon fill="#9a32cd" stroke="#9a32cd" points="818.042,-855.571 808.042,-859.071 818.042,-862.571 818.042,-855.571"/>
<text text-anchor="middle" x="845" y="-862.071" font-family="Arial" font-size="10.00"> entities</text>
</g>
</g>
</svg>
        <g id="navigator" transform="translate(0 0)" fill="#404254">
                <rect fill="#f2f5e9" fill-opacity="0.5" stroke="#606060" stroke-width=".5" x="0" y="0" width="60" height="60"/>
                <use id="zoomplus" xlink:href="#zoomPlus" x="17" y="9" onmousedown="handleZoom(evt,'in')"/>
                <use id="zoomminus" xlink:href="#zoomMin" x="42" y="9" onmousedown="handleZoom(evt,'out')"/>
                <use id="reset" xlink:href="#resetDef" x="30" y="36" onmousedown="handleReset()"/>
                <g id="arrowUp" xlink:href="#dirArrow" transform="translate(30 24)" onmousedown="handlePan(0,-1)">
                  <use xlink:href="#rim" fill="#404040">
                        <set attributeName="fill" to="#808080" begin="arrowUp.mouseover" end="arrowUp.mouseout"/>
                  </use>
                  <path fill="none" stroke="white" stroke-width="1.5" d="M0,-3.0v7 M-2.5,-0.5L0,-3.0L2.5,-0.5"/>
                </g>
                <g id="arrowRight" xlink:href="#dirArrow" transform="rotate(90) translate(36 -43)" onmousedown="handlePan(1,0)">
                  <use xlink:href="#rim" fill="#404040">
                        <set attributeName="fill" to="#808080" begin="arrowRight.mouseover" end="arrowRight.mouseout"/>
                  </use>
                  <path fill="none" stroke="white" stroke-width="1.5" d="M0,-3.0v7 M-2.5,-0.5L0,-3.0L2.5,-0.5"/>
                </g>
                <g id="arrowDown" xlink:href="#dirArrow" transform="rotate(180) translate(-30 -48)" onmousedown="handlePan(0,1)">
                  <use xlink:href="#rim" fill="#404040">
                        <set attributeName="fill" to="#808080" begin="arrowDown.mouseover" end="arrowDown.mouseout"/>
                  </use>
                  <path fill="none" stroke="white" stroke-width="1.5" d="M0,-3.0v7 M-2.5,-0.5L0,-3.0L2.5,-0.5"/>
                </g>
                <g id="arrowLeft" xlink:href="#dirArrow" transform="rotate(270) translate(-36 17)" onmousedown="handlePan(-1,0)">
                  <use xlink:href="#rim" fill="#404040">
                        <set attributeName="fill" to="#808080" begin="arrowLeft.mouseover" end="arrowLeft.mouseout"/>
                  </use>
                  <path fill="none" stroke="white" stroke-width="1.5" d="M0,-3.0v7 M-2.5,-0.5L0,-3.0L2.5,-0.5"/>
                </g>
        </g>
        <svg viewBox="0 0 15 15" width="100%" height="30px" preserveAspectRatio="xMaxYMin meet">
         <g id="arrow_out" transform="scale(0.3 0.3)">
          <a xlink:href="class_b_o_entity__coll__graph_org.svg" target="_base">
           <rect id="button" ry="5" rx="5" y="6" x="6" height="38" width="38"
                fill="#f2f5e9" fill-opacity="0.5" stroke="#606060" stroke-width="1.0"/>
           <path id="arrow"
             d="M 11.500037,31.436501 C 11.940474,20.09759 22.043105,11.32322 32.158766,21.979434 L 37.068811,17.246167 C 37.068811,17.246167 37.088388,32 37.088388,32 L 22.160133,31.978069 C 22.160133,31.978069 26.997745,27.140456 26.997745,27.140456 C 18.528582,18.264221 13.291696,25.230495 11.500037,31.436501 z"
             style="fill:#404040;"/>
          </a>
         </g>
        </svg>
</svg>
