<?xml version="1.0" encoding="UTF-8" standalone="no"?>
<!DOCTYPE svg PUBLIC "-//W3C//DTD SVG 1.1//EN"
 "http://www.w3.org/Graphics/SVG/1.1/DTD/svg11.dtd">
<!-- Generated by graphviz version 2.34.0 (20130907.0111)
 -->
<!-- Title: idSIMD_SSE Pages: 1 -->
<svg width="100pt" height="308pt"
 viewBox="0.00 0.00 100.00 308.00" xmlns="http://www.w3.org/2000/svg" xmlns:xlink="http://www.w3.org/1999/xlink">
<g id="graph0" class="graph" transform="scale(1 1) rotate(0) translate(4 304)">
<title>idSIMD_SSE</title>
<polygon fill="white" stroke="white" points="-4,4 -4,-304 96,-304 96,4 -4,4"/>
<!-- Node1 -->
<g id="node1" class="node"><title>Node1</title>
<polygon fill="#bfbfbf" stroke="black" points="9,-112.5 9,-131.5 83,-131.5 83,-112.5 9,-112.5"/>
<text text-anchor="middle" x="46" y="-119.5" font-family="Arial" font-size="10.00">idSIMD_SSE</text>
</g>
<!-- Node5 -->
<g id="node5" class="node"><title>Node5</title>
<g id="a_node5"><a xlink:href="classid_s_i_m_d___s_s_e2.html" target="_top" xlink:title="idSIMD_SSE2">
<polygon fill="white" stroke="black" points="6.5,-56.5 6.5,-75.5 85.5,-75.5 85.5,-56.5 6.5,-56.5"/>
<text text-anchor="middle" x="46" y="-63.5" font-family="Arial" font-size="10.00">idSIMD_SSE2</text>
</a>
</g>
</g>
<!-- Node1&#45;&gt;Node5 -->
<g id="edge4" class="edge"><title>Node1&#45;&gt;Node5</title>
<path fill="none" stroke="midnightblue" d="M46,-101.805C46,-92.9102 46,-82.7798 46,-75.7511"/>
<polygon fill="midnightblue" stroke="midnightblue" points="42.5001,-102.083 46,-112.083 49.5001,-102.083 42.5001,-102.083"/>
</g>
<!-- Node2 -->
<g id="node2" class="node"><title>Node2</title>
<g id="a_node2"><a xlink:href="classid_s_i_m_d___m_m_x.html" target="_top" xlink:title="idSIMD_MMX">
<polygon fill="white" stroke="black" points="8.5,-168.5 8.5,-187.5 83.5,-187.5 83.5,-168.5 8.5,-168.5"/>
<text text-anchor="middle" x="46" y="-175.5" font-family="Arial" font-size="10.00">idSIMD_MMX</text>
</a>
</g>
</g>
<!-- Node2&#45;&gt;Node1 -->
<g id="edge1" class="edge"><title>Node2&#45;&gt;Node1</title>
<path fill="none" stroke="midnightblue" d="M46,-157.805C46,-148.91 46,-138.78 46,-131.751"/>
<polygon fill="midnightblue" stroke="midnightblue" points="42.5001,-158.083 46,-168.083 49.5001,-158.083 42.5001,-158.083"/>
</g>
<!-- Node3 -->
<g id="node3" class="node"><title>Node3</title>
<g id="a_node3"><a xlink:href="classid_s_i_m_d___generic.html" target="_top" xlink:title="idSIMD_Generic">
<polygon fill="white" stroke="black" points="2.5,-224.5 2.5,-243.5 89.5,-243.5 89.5,-224.5 2.5,-224.5"/>
<text text-anchor="middle" x="46" y="-231.5" font-family="Arial" font-size="10.00">idSIMD_Generic</text>
</a>
</g>
</g>
<!-- Node3&#45;&gt;Node2 -->
<g id="edge2" class="edge"><title>Node3&#45;&gt;Node2</title>
<path fill="none" stroke="midnightblue" d="M46,-213.805C46,-204.91 46,-194.78 46,-187.751"/>
<polygon fill="midnightblue" stroke="midnightblue" points="42.5001,-214.083 46,-224.083 49.5001,-214.083 42.5001,-214.083"/>
</g>
<!-- Node4 -->
<g id="node4" class="node"><title>Node4</title>
<g id="a_node4"><a xlink:href="classid_s_i_m_d_processor.html" target="_top" xlink:title="idSIMDProcessor">
<polygon fill="white" stroke="black" points="0,-280.5 0,-299.5 92,-299.5 92,-280.5 0,-280.5"/>
<text text-anchor="middle" x="46" y="-287.5" font-family="Arial" font-size="10.00">idSIMDProcessor</text>
</a>
</g>
</g>
<!-- Node4&#45;&gt;Node3 -->
<g id="edge3" class="edge"><title>Node4&#45;&gt;Node3</title>
<path fill="none" stroke="midnightblue" d="M46,-269.805C46,-260.91 46,-250.78 46,-243.751"/>
<polygon fill="midnightblue" stroke="midnightblue" points="42.5001,-270.083 46,-280.083 49.5001,-270.083 42.5001,-270.083"/>
</g>
<!-- Node6 -->
<g id="node6" class="node"><title>Node6</title>
<g id="a_node6"><a xlink:href="classid_s_i_m_d___s_s_e3.html" target="_top" xlink:title="idSIMD_SSE3">
<polygon fill="white" stroke="black" points="6.5,-0.5 6.5,-19.5 85.5,-19.5 85.5,-0.5 6.5,-0.5"/>
<text text-anchor="middle" x="46" y="-7.5" font-family="Arial" font-size="10.00">idSIMD_SSE3</text>
</a>
</g>
</g>
<!-- Node5&#45;&gt;Node6 -->
<g id="edge5" class="edge"><title>Node5&#45;&gt;Node6</title>
<path fill="none" stroke="midnightblue" d="M46,-45.8045C46,-36.9102 46,-26.7798 46,-19.7511"/>
<polygon fill="midnightblue" stroke="midnightblue" points="42.5001,-46.083 46,-56.083 49.5001,-46.083 42.5001,-46.083"/>
</g>
</g>
</svg>
