<?xml version="1.0" encoding="UTF-8" standalone="no"?>
<!DOCTYPE svg PUBLIC "-//W3C//DTD SVG 1.1//EN"
 "http://www.w3.org/Graphics/SVG/1.1/DTD/svg11.dtd">
<!-- Generated by graphviz version 2.34.0 (20130907.0111)
 -->
<!-- Title: idListGUILocal Pages: 1 -->
<svg width="160pt" height="84pt"
 viewBox="0.00 0.00 160.00 84.00" xmlns="http://www.w3.org/2000/svg" xmlns:xlink="http://www.w3.org/1999/xlink">
<g id="graph0" class="graph" transform="scale(1 1) rotate(0) translate(4 80)">
<title>idListGUILocal</title>
<polygon fill="white" stroke="white" points="-4,4 -4,-80 156,-80 156,4 -4,4"/>
<!-- Node1 -->
<g id="node1" class="node"><title>Node1</title>
<polygon fill="#bfbfbf" stroke="black" points="41,-0.5 41,-19.5 121,-19.5 121,-0.5 41,-0.5"/>
<text text-anchor="middle" x="81" y="-7.5" font-family="Arial" font-size="10.00">idListGUILocal</text>
</g>
<!-- Node2 -->
<g id="node2" class="node"><title>Node2</title>
<g id="a_node2"><a xlink:href="classid_list.html" target="_top" xlink:title="idList\&lt; idStr \&gt;">
<polygon fill="white" stroke="black" points="0,-56.5 0,-75.5 78,-75.5 78,-56.5 0,-56.5"/>
<text text-anchor="middle" x="39" y="-63.5" font-family="Arial" font-size="10.00">idList&lt; idStr &gt;</text>
</a>
</g>
</g>
<!-- Node2&#45;&gt;Node1 -->
<g id="edge1" class="edge"><title>Node2&#45;&gt;Node1</title>
<path fill="none" stroke="darkgreen" d="M52.1102,-48.144C59.4278,-38.7357 68.2409,-27.4046 74.1936,-19.7511"/>
<polygon fill="darkgreen" stroke="darkgreen" points="49.3122,-46.0406 45.9354,-56.083 54.8376,-50.3383 49.3122,-46.0406"/>
</g>
<!-- Node3 -->
<g id="node3" class="node"><title>Node3</title>
<g id="a_node3"><a xlink:href="classid_list_g_u_i.html" target="_top" xlink:title="idListGUI">
<polygon fill="white" stroke="black" points="96,-56.5 96,-75.5 152,-75.5 152,-56.5 96,-56.5"/>
<text text-anchor="middle" x="124" y="-63.5" font-family="Arial" font-size="10.00">idListGUI</text>
</a>
</g>
</g>
<!-- Node3&#45;&gt;Node1 -->
<g id="edge2" class="edge"><title>Node3&#45;&gt;Node1</title>
<path fill="none" stroke="midnightblue" d="M110.578,-48.144C103.086,-38.7357 94.0629,-27.4046 87.9685,-19.7511"/>
<polygon fill="midnightblue" stroke="midnightblue" points="107.932,-50.4404 116.899,-56.083 113.408,-46.0799 107.932,-50.4404"/>
</g>
</g>
</svg>
