<?xml version="1.0" encoding="UTF-8" standalone="no"?>
<!DOCTYPE svg PUBLIC "-//W3C//DTD SVG 1.1//EN"
 "http://www.w3.org/Graphics/SVG/1.1/DTD/svg11.dtd">
<!-- Generated by graphviz version 2.34.0 (20130907.0111)
 -->
<!-- Title: idTypeInfo Pages: 1 -->
<svg width="273pt" height="234pt"
 viewBox="0.00 0.00 273.00 234.00" xmlns="http://www.w3.org/2000/svg" xmlns:xlink="http://www.w3.org/1999/xlink">
<g id="graph0" class="graph" transform="scale(1 1) rotate(0) translate(4 230)">
<title>idTypeInfo</title>
<polygon fill="white" stroke="white" points="-4,4 -4,-230 269,-230 269,4 -4,4"/>
<!-- Node1 -->
<g id="node1" class="node"><title>Node1</title>
<polygon fill="#bfbfbf" stroke="black" points="151,-69.5 151,-88.5 211,-88.5 211,-69.5 151,-69.5"/>
<text text-anchor="middle" x="181" y="-76.5" font-family="Arial" font-size="10.00">idTypeInfo</text>
</g>
<!-- Node1&#45;&gt;Node1 -->
<g id="edge1" class="edge"><title>Node1&#45;&gt;Node1</title>
<path fill="none" stroke="#9a32cd" stroke-dasharray="5,2" d="M221.659,-84.3543C226.121,-83.3341 229,-81.5494 229,-79 229,-74.8164 221.248,-72.6919 211.467,-72.6266"/>
<polygon fill="#9a32cd" stroke="#9a32cd" points="221.069,-80.8957 211.467,-85.3734 221.766,-87.861 221.069,-80.8957"/>
<text text-anchor="middle" x="241.5" y="-82" font-family="Arial" font-size="10.00"> next</text>
<text text-anchor="middle" x="241.5" y="-71" font-family="Arial" font-size="10.00">super</text>
</g>
<!-- Node5 -->
<g id="node5" class="node"><title>Node5</title>
<g id="a_node5"><a xlink:href="classid_class.html" target="_top" xlink:title="idClass">
<polygon fill="white" stroke="black" points="68.5,-0.5 68.5,-19.5 117.5,-19.5 117.5,-0.5 68.5,-0.5"/>
<text text-anchor="middle" x="93" y="-7.5" font-family="Arial" font-size="10.00">idClass</text>
</a>
</g>
</g>
<!-- Node1&#45;&gt;Node5 -->
<g id="edge6" class="edge"><title>Node1&#45;&gt;Node5</title>
<path fill="none" stroke="#9a32cd" stroke-dasharray="5,2" d="M176.058,-59.4508C173.27,-51.9704 169.089,-43.7647 163,-38 150.514,-26.1794 132.294,-19.3704 117.572,-15.5474"/>
<polygon fill="#9a32cd" stroke="#9a32cd" points="172.788,-60.721 179.125,-69.2119 179.466,-58.6225 172.788,-60.721"/>
<text text-anchor="middle" x="184.5" y="-41.5" font-family="Arial" font-size="10.00"> Type</text>
</g>
<!-- Node2 -->
<g id="node2" class="node"><title>Node2</title>
<g id="a_node2"><a xlink:href="classid_hierarchy.html" target="_top" xlink:title="idHierarchy\&lt; idTypeInfo \&gt;">
<polygon fill="white" stroke="black" points="138.5,-138.5 138.5,-157.5 265.5,-157.5 265.5,-138.5 138.5,-138.5"/>
<text text-anchor="middle" x="202" y="-145.5" font-family="Arial" font-size="10.00">idHierarchy&lt; idTypeInfo &gt;</text>
</a>
</g>
</g>
<!-- Node2&#45;&gt;Node1 -->
<g id="edge2" class="edge"><title>Node2&#45;&gt;Node1</title>
<path fill="none" stroke="#9a32cd" stroke-dasharray="5,2" d="M196.173,-128.411C192.086,-115.37 186.812,-98.5418 183.68,-88.5494"/>
<polygon fill="#9a32cd" stroke="#9a32cd" points="192.924,-129.745 199.255,-138.241 199.603,-127.652 192.924,-129.745"/>
<text text-anchor="middle" x="206.5" y="-111.5" font-family="Arial" font-size="10.00"> node</text>
</g>
<!-- Node3 -->
<g id="node3" class="node"><title>Node3</title>
<g id="a_node3"><a xlink:href="structid_event_func.html" target="_top" xlink:title="idEventFunc\&lt; idClass \&gt;">
<polygon fill="white" stroke="black" points="0,-138.5 0,-157.5 120,-157.5 120,-138.5 0,-138.5"/>
<text text-anchor="middle" x="60" y="-145.5" font-family="Arial" font-size="10.00">idEventFunc&lt; idClass &gt;</text>
</a>
</g>
</g>
<!-- Node3&#45;&gt;Node1 -->
<g id="edge3" class="edge"><title>Node3&#45;&gt;Node1</title>
<path fill="none" stroke="#9a32cd" stroke-dasharray="5,2" d="M80.0057,-132.288C90.9403,-124.573 104.892,-115.248 118,-108 131.303,-100.644 146.911,-93.6959 159.264,-88.5609"/>
<polygon fill="#9a32cd" stroke="#9a32cd" points="77.6996,-129.635 71.6152,-138.309 81.7805,-135.322 77.6996,-129.635"/>
<text text-anchor="middle" x="152.5" y="-111.5" font-family="Arial" font-size="10.00"> eventCallbacks</text>
</g>
<!-- Node3&#45;&gt;Node5 -->
<g id="edge7" class="edge"><title>Node3&#45;&gt;Node5</title>
<path fill="none" stroke="#9a32cd" stroke-dasharray="5,2" d="M62.1984,-127.867C64.2761,-111.747 67.8475,-88.1558 73,-68 77.4675,-50.5238 84.9601,-30.8005 89.3962,-19.7387"/>
<polygon fill="#9a32cd" stroke="#9a32cd" points="58.6834,-127.779 60.9481,-138.129 65.632,-128.625 58.6834,-127.779"/>
<text text-anchor="middle" x="107.5" y="-76.5" font-family="Arial" font-size="10.00"> eventCallbacks</text>
</g>
<!-- Node4 -->
<g id="node4" class="node"><title>Node4</title>
<g id="a_node4"><a xlink:href="classid_event_def.html" target="_top" xlink:title="idEventDef">
<polygon fill="white" stroke="black" points="29,-206.5 29,-225.5 91,-225.5 91,-206.5 29,-206.5"/>
<text text-anchor="middle" x="60" y="-213.5" font-family="Arial" font-size="10.00">idEventDef</text>
</a>
</g>
</g>
<!-- Node4&#45;&gt;Node3 -->
<g id="edge4" class="edge"><title>Node4&#45;&gt;Node3</title>
<path fill="none" stroke="#9a32cd" stroke-dasharray="5,2" d="M60,-196.041C60,-183.472 60,-167.563 60,-157.841"/>
<polygon fill="#9a32cd" stroke="#9a32cd" points="56.5001,-196.372 60,-206.372 63.5001,-196.372 56.5001,-196.372"/>
<text text-anchor="middle" x="73" y="-179.5" font-family="Arial" font-size="10.00"> event</text>
</g>
<!-- Node5&#45;&gt;Node1 -->
<g id="edge5" class="edge"><title>Node5&#45;&gt;Node1</title>
<path fill="none" stroke="#9a32cd" stroke-dasharray="5,2" d="M89.1854,-29.7567C88.8045,-36.7225 89.7385,-44.3065 94,-50 100.988,-59.3367 128.637,-67.1831 150.915,-72.1722"/>
<polygon fill="#9a32cd" stroke="#9a32cd" points="92.676,-30.0645 90.5769,-19.6797 85.7418,-29.107 92.676,-30.0645"/>
<text text-anchor="middle" x="128.5" y="-41.5" font-family="Arial" font-size="10.00"> CreateInstance</text>
</g>
</g>
</svg>
