<?xml version="1.0" encoding="UTF-8" standalone="no"?>
<!DOCTYPE svg PUBLIC "-//W3C//DTD SVG 1.1//EN"
 "http://www.w3.org/Graphics/SVG/1.1/DTD/svg11.dtd">
<!-- Generated by graphviz version 2.34.0 (20130907.0111)
 -->
<!-- Title: ConsoleView Pages: 1 -->
<svg width="291pt" height="106pt"
 viewBox="0.00 0.00 291.00 106.00" xmlns="http://www.w3.org/2000/svg" xmlns:xlink="http://www.w3.org/1999/xlink">
<g id="graph0" class="graph" transform="scale(1 1) rotate(0) translate(4 102)">
<title>ConsoleView</title>
<polygon fill="white" stroke="white" points="-4,4 -4,-102 287,-102 287,4 -4,4"/>
<!-- Node1 -->
<g id="node1" class="node"><title>Node1</title>
<polygon fill="#bfbfbf" stroke="black" points="87.5,-0.5 87.5,-19.5 160.5,-19.5 160.5,-0.5 87.5,-0.5"/>
<text text-anchor="middle" x="124" y="-7.5" font-family="Arial" font-size="10.00">ConsoleView</text>
</g>
<!-- Node2 -->
<g id="node2" class="node"><title>Node2</title>
<polygon fill="white" stroke="#bfbfbf" points="-0.5,-78.5 -0.5,-97.5 66.5,-97.5 66.5,-78.5 -0.5,-78.5"/>
<text text-anchor="middle" x="33" y="-85.5" font-family="Arial" font-size="10.00">CFormView</text>
</g>
<!-- Node2&#45;&gt;Node1 -->
<g id="edge1" class="edge"><title>Node2&#45;&gt;Node1</title>
<path fill="none" stroke="midnightblue" d="M51.2847,-71.7293C70.0344,-56.0702 98.5318,-32.2701 113.683,-19.6165"/>
<polygon fill="midnightblue" stroke="midnightblue" points="48.8706,-69.1853 43.4389,-78.2818 53.3577,-74.558 48.8706,-69.1853"/>
</g>
<!-- Node3 -->
<g id="node3" class="node"><title>Node3</title>
<g id="a_node3"><a xlink:href="classid_list.html" target="_top" xlink:title="idList\&lt; idStr \&gt;">
<polygon fill="white" stroke="black" points="85,-78.5 85,-97.5 163,-97.5 163,-78.5 85,-78.5"/>
<text text-anchor="middle" x="124" y="-85.5" font-family="Arial" font-size="10.00">idList&lt; idStr &gt;</text>
</a>
</g>
</g>
<!-- Node3&#45;&gt;Node1 -->
<g id="edge2" class="edge"><title>Node3&#45;&gt;Node1</title>
<path fill="none" stroke="#9a32cd" stroke-dasharray="5,2" d="M124,-68.2239C124,-52.6974 124,-31.3582 124,-19.6165"/>
<polygon fill="#9a32cd" stroke="#9a32cd" points="120.5,-68.2818 124,-78.2818 127.5,-68.2819 120.5,-68.2818"/>
<text text-anchor="middle" x="158" y="-46.5" font-family="Arial" font-size="10.00"> consoleHistory</text>
</g>
<!-- Node4 -->
<g id="node4" class="node"><title>Node4</title>
<g id="a_node4"><a xlink:href="classid_str.html" target="_top" xlink:title="idStr">
<polygon fill="white" stroke="black" points="196.5,-78.5 196.5,-97.5 233.5,-97.5 233.5,-78.5 196.5,-78.5"/>
<text text-anchor="middle" x="215" y="-85.5" font-family="Arial" font-size="10.00">idStr</text>
</a>
</g>
</g>
<!-- Node4&#45;&gt;Node1 -->
<g id="edge3" class="edge"><title>Node4&#45;&gt;Node1</title>
<path fill="none" stroke="#9a32cd" stroke-dasharray="5,2" d="M210.456,-68.5909C207.115,-58.4149 201.621,-46.2086 193,-38 184.057,-29.4845 172.118,-23.5587 160.687,-19.4779"/>
<polygon fill="#9a32cd" stroke="#9a32cd" points="207.091,-69.5518 213.2,-78.2076 213.822,-67.631 207.091,-69.5518"/>
<text text-anchor="middle" x="245.5" y="-52" font-family="Arial" font-size="10.00"> consoleStr</text>
<text text-anchor="middle" x="245.5" y="-41" font-family="Arial" font-size="10.00">currentCommand</text>
</g>
</g>
</svg>
