<?xml version="1.0" encoding="UTF-8" standalone="no"?>
<!DOCTYPE svg PUBLIC "-//W3C//DTD SVG 1.1//EN"
 "http://www.w3.org/Graphics/SVG/1.1/DTD/svg11.dtd">
<!-- Generated by graphviz version 2.34.0 (20130907.0111)
 -->
<!-- Title: rvGEOptions Pages: 1 -->
<svg width="309pt" height="118pt"
 viewBox="0.00 0.00 309.00 118.00" xmlns="http://www.w3.org/2000/svg" xmlns:xlink="http://www.w3.org/1999/xlink">
<g id="graph0" class="graph" transform="scale(1 1) rotate(0) translate(4 114)">
<title>rvGEOptions</title>
<polygon fill="white" stroke="white" points="-4,4 -4,-114 305,-114 305,4 -4,4"/>
<!-- Node1 -->
<g id="node1" class="node"><title>Node1</title>
<polygon fill="#bfbfbf" stroke="black" points="107.5,-0.5 107.5,-19.5 178.5,-19.5 178.5,-0.5 107.5,-0.5"/>
<text text-anchor="middle" x="143" y="-7.5" font-family="Arial" font-size="10.00">rvGEOptions</text>
</g>
<!-- Node2 -->
<g id="node2" class="node"><title>Node2</title>
<g id="a_node2"><a xlink:href="classid_list.html" target="_top" xlink:title="idList\&lt; idStr \&gt;">
<polygon fill="white" stroke="black" points="0,-90.5 0,-109.5 78,-109.5 78,-90.5 0,-90.5"/>
<text text-anchor="middle" x="39" y="-97.5" font-family="Arial" font-size="10.00">idList&lt; idStr &gt;</text>
</a>
</g>
</g>
<!-- Node2&#45;&gt;Node1 -->
<g id="edge1" class="edge"><title>Node2&#45;&gt;Node1</title>
<path fill="none" stroke="#9a32cd" stroke-dasharray="5,2" d="M45.9652,-80.6906C51.8897,-67.2778 61.5823,-49.4817 75,-38 84.7475,-29.6589 97.3881,-23.6968 109.122,-19.5348"/>
<polygon fill="#9a32cd" stroke="#9a32cd" points="42.5791,-79.7231 42.0226,-90.3033 49.0556,-82.3794 42.5791,-79.7231"/>
<text text-anchor="middle" x="107" y="-52.5" font-family="Arial" font-size="10.00"> mRecentFiles</text>
</g>
<!-- Node3 -->
<g id="node3" class="node"><title>Node3</title>
<g id="a_node3"><a xlink:href="classrv_registry_options.html" target="_top" xlink:title="rvRegistryOptions">
<polygon fill="white" stroke="black" points="96.5,-90.5 96.5,-109.5 189.5,-109.5 189.5,-90.5 96.5,-90.5"/>
<text text-anchor="middle" x="143" y="-97.5" font-family="Arial" font-size="10.00">rvRegistryOptions</text>
</a>
</g>
</g>
<!-- Node3&#45;&gt;Node1 -->
<g id="edge2" class="edge"><title>Node3&#45;&gt;Node1</title>
<path fill="none" stroke="#9a32cd" stroke-dasharray="5,2" d="M143,-79.9784C143,-61.3096 143,-33.6696 143,-19.7241"/>
<polygon fill="#9a32cd" stroke="#9a32cd" points="139.5,-80.2405 143,-90.2405 146.5,-80.2405 139.5,-80.2405"/>
<text text-anchor="middle" x="167" y="-52.5" font-family="Arial" font-size="10.00"> mRegistry</text>
</g>
<!-- Node4 -->
<g id="node4" class="node"><title>Node4</title>
<g id="a_node4"><a xlink:href="classid_vec4.html" target="_top" xlink:title="idVec4">
<polygon fill="white" stroke="black" points="207.5,-90.5 207.5,-109.5 254.5,-109.5 254.5,-90.5 207.5,-90.5"/>
<text text-anchor="middle" x="231" y="-97.5" font-family="Arial" font-size="10.00">idVec4</text>
</a>
</g>
</g>
<!-- Node4&#45;&gt;Node1 -->
<g id="edge3" class="edge"><title>Node4&#45;&gt;Node1</title>
<path fill="none" stroke="#9a32cd" stroke-dasharray="5,2" d="M223.487,-80.6363C217.372,-67.4706 207.68,-50.0106 195,-38 186.729,-30.1655 175.741,-24.0182 165.998,-19.5814"/>
<polygon fill="#9a32cd" stroke="#9a32cd" points="220.405,-82.3241 227.614,-90.0881 226.82,-79.523 220.405,-82.3241"/>
<text text-anchor="middle" x="260.5" y="-63.5" font-family="Arial" font-size="10.00"> mGridColor</text>
<text text-anchor="middle" x="260.5" y="-52.5" font-family="Arial" font-size="10.00">mWorkspaceColor</text>
<text text-anchor="middle" x="260.5" y="-41.5" font-family="Arial" font-size="10.00">mSelectionColor</text>
</g>
</g>
</svg>
