<?xml version="1.0" encoding="UTF-8" standalone="no"?>
<!DOCTYPE svg PUBLIC "-//W3C//DTD SVG 1.1//EN"
 "http://www.w3.org/Graphics/SVG/1.1/DTD/svg11.dtd">
<!-- Generated by graphviz version 2.34.0 (20130907.0111)
 -->
<!-- Title: idExportJoint Pages: 1 -->
<svg width="427pt" height="200pt"
 viewBox="0.00 0.00 427.00 200.00" xmlns="http://www.w3.org/2000/svg" xmlns:xlink="http://www.w3.org/1999/xlink">
<g id="graph0" class="graph" transform="scale(1 1) rotate(0) translate(4 196)">
<title>idExportJoint</title>
<polygon fill="white" stroke="white" points="-4,4 -4,-196 423,-196 423,4 -4,4"/>
<!-- Node1 -->
<g id="node1" class="node"><title>Node1</title>
<polygon fill="#bfbfbf" stroke="black" points="118.5,-0.5 118.5,-19.5 191.5,-19.5 191.5,-0.5 118.5,-0.5"/>
<text text-anchor="middle" x="155" y="-7.5" font-family="Arial" font-size="10.00">idExportJoint</text>
</g>
<!-- Node2 -->
<g id="node2" class="node"><title>Node2</title>
<g id="a_node2"><a xlink:href="classid_mat3.html" target="_top" xlink:title="idMat3">
<polygon fill="white" stroke="black" points="0,-97.5 0,-116.5 46,-116.5 46,-97.5 0,-97.5"/>
<text text-anchor="middle" x="23" y="-104.5" font-family="Arial" font-size="10.00">idMat3</text>
</a>
</g>
</g>
<!-- Node2&#45;&gt;Node1 -->
<g id="edge1" class="edge"><title>Node2&#45;&gt;Node1</title>
<path fill="none" stroke="#9a32cd" stroke-dasharray="5,2" d="M25.6198,-87.5507C28.7757,-72.1392 35.582,-50.7033 50,-38 68.6418,-21.5752 95.9755,-14.91 118.081,-12.3067"/>
<polygon fill="#9a32cd" stroke="#9a32cd" points="22.1549,-87.0485 23.9104,-97.4969 29.0538,-88.2342 22.1549,-87.0485"/>
<text text-anchor="middle" x="67.5" y="-63.5" font-family="Arial" font-size="10.00"> idwm</text>
<text text-anchor="middle" x="67.5" y="-52.5" font-family="Arial" font-size="10.00">wm</text>
<text text-anchor="middle" x="67.5" y="-41.5" font-family="Arial" font-size="10.00">bindmat</text>
</g>
<!-- Node3 -->
<g id="node3" class="node"><title>Node3</title>
<g id="a_node3"><a xlink:href="classid_str.html" target="_top" xlink:title="idStr">
<polygon fill="white" stroke="black" points="64.5,-97.5 64.5,-116.5 101.5,-116.5 101.5,-97.5 64.5,-97.5"/>
<text text-anchor="middle" x="83" y="-104.5" font-family="Arial" font-size="10.00">idStr</text>
</a>
</g>
</g>
<!-- Node3&#45;&gt;Node1 -->
<g id="edge2" class="edge"><title>Node3&#45;&gt;Node1</title>
<path fill="none" stroke="#9a32cd" stroke-dasharray="5,2" d="M85.2414,-87.0252C87.8361,-72.2545 93.3593,-51.9818 105,-38 111.754,-29.8877 121.597,-23.8399 130.767,-19.548"/>
<polygon fill="#9a32cd" stroke="#9a32cd" points="81.7589,-86.6514 83.7753,-97.0526 88.6853,-87.6642 81.7589,-86.6514"/>
<text text-anchor="middle" x="128" y="-63.5" font-family="Arial" font-size="10.00"> longname</text>
<text text-anchor="middle" x="128" y="-52.5" font-family="Arial" font-size="10.00">name</text>
<text text-anchor="middle" x="128" y="-41.5" font-family="Arial" font-size="10.00">realname</text>
</g>
<!-- Node4 -->
<g id="node4" class="node"><title>Node4</title>
<g id="a_node4"><a xlink:href="structjoint_frame__t.html" target="_top" xlink:title="jointFrame_t">
<polygon fill="white" stroke="black" points="119.5,-97.5 119.5,-116.5 190.5,-116.5 190.5,-97.5 119.5,-97.5"/>
<text text-anchor="middle" x="155" y="-104.5" font-family="Arial" font-size="10.00">jointFrame_t</text>
</a>
</g>
</g>
<!-- Node4&#45;&gt;Node1 -->
<g id="edge3" class="edge"><title>Node4&#45;&gt;Node1</title>
<path fill="none" stroke="#9a32cd" stroke-dasharray="5,2" d="M155,-87.2266C155,-66.793 155,-35.0007 155,-19.7459"/>
<polygon fill="#9a32cd" stroke="#9a32cd" points="151.5,-87.2329 155,-97.2329 158.5,-87.2329 151.5,-87.2329"/>
<text text-anchor="middle" x="181" y="-52.5" font-family="Arial" font-size="10.00"> baseFrame</text>
</g>
<!-- Node5 -->
<g id="node5" class="node"><title>Node5</title>
<g id="a_node5"><a xlink:href="classid_c_quat.html" target="_top" xlink:title="idCQuat">
<polygon fill="white" stroke="black" points="129,-172.5 129,-191.5 181,-191.5 181,-172.5 129,-172.5"/>
<text text-anchor="middle" x="155" y="-179.5" font-family="Arial" font-size="10.00">idCQuat</text>
</a>
</g>
</g>
<!-- Node5&#45;&gt;Node4 -->
<g id="edge4" class="edge"><title>Node5&#45;&gt;Node4</title>
<path fill="none" stroke="#9a32cd" stroke-dasharray="5,2" d="M155,-162.328C155,-147.637 155,-127.839 155,-116.649"/>
<polygon fill="#9a32cd" stroke="#9a32cd" points="151.5,-162.339 155,-172.339 158.5,-162.339 151.5,-162.339"/>
<text text-anchor="middle" x="159.5" y="-145.5" font-family="Arial" font-size="10.00"> q</text>
</g>
<!-- Node6 -->
<g id="node6" class="node"><title>Node6</title>
<g id="a_node6"><a xlink:href="classid_vec3.html" target="_top" xlink:title="idVec3">
<polygon fill="white" stroke="black" points="201.5,-172.5 201.5,-191.5 248.5,-191.5 248.5,-172.5 201.5,-172.5"/>
<text text-anchor="middle" x="225" y="-179.5" font-family="Arial" font-size="10.00">idVec3</text>
</a>
</g>
</g>
<!-- Node6&#45;&gt;Node1 -->
<g id="edge6" class="edge"><title>Node6&#45;&gt;Node1</title>
<path fill="none" stroke="#9a32cd" stroke-dasharray="5,2" d="M228.564,-162.179C233.031,-132.808 237.224,-75.5558 211,-38 205.068,-29.5046 195.71,-23.5839 186.33,-19.5015"/>
<polygon fill="#9a32cd" stroke="#9a32cd" points="225.071,-161.844 226.841,-172.29 231.971,-163.02 225.071,-161.844"/>
<text text-anchor="middle" x="249" y="-115.5" font-family="Arial" font-size="10.00"> idt</text>
<text text-anchor="middle" x="249" y="-104.5" font-family="Arial" font-size="10.00">bindpos</text>
<text text-anchor="middle" x="249" y="-93.5" font-family="Arial" font-size="10.00">t</text>
</g>
<!-- Node6&#45;&gt;Node4 -->
<g id="edge5" class="edge"><title>Node6&#45;&gt;Node4</title>
<path fill="none" stroke="#9a32cd" stroke-dasharray="5,2" d="M209.528,-164.865C195.27,-149.996 174.655,-128.498 163.294,-116.649"/>
<polygon fill="#9a32cd" stroke="#9a32cd" points="207.248,-167.544 216.695,-172.339 212.3,-162.699 207.248,-167.544"/>
<text text-anchor="middle" x="202.5" y="-145.5" font-family="Arial" font-size="10.00"> t</text>
</g>
<!-- Node7 -->
<g id="node7" class="node"><title>Node7</title>
<g id="a_node7"><a xlink:href="classid_hierarchy.html" target="_top" xlink:title="idHierarchy\&lt; idExportJoint \&gt;">
<polygon fill="white" stroke="black" points="279,-97.5 279,-116.5 419,-116.5 419,-97.5 279,-97.5"/>
<text text-anchor="middle" x="349" y="-104.5" font-family="Arial" font-size="10.00">idHierarchy&lt; idExportJoint &gt;</text>
</a>
</g>
</g>
<!-- Node7&#45;&gt;Node1 -->
<g id="edge7" class="edge"><title>Node7&#45;&gt;Node1</title>
<path fill="none" stroke="#9a32cd" stroke-dasharray="5,2" d="M329.479,-91.5292C308.496,-76.508 273.732,-53.133 241,-38 224.523,-30.382 205.32,-24.1241 189.246,-19.5579"/>
<polygon fill="#9a32cd" stroke="#9a32cd" points="327.432,-94.3684 337.582,-97.4071 331.542,-88.7022 327.432,-94.3684"/>
<text text-anchor="middle" x="325.5" y="-58" font-family="Arial" font-size="10.00"> exportNode</text>
<text text-anchor="middle" x="325.5" y="-47" font-family="Arial" font-size="10.00">mayaNode</text>
</g>
</g>
</svg>
