<?xml version="1.0" encoding="UTF-8" standalone="no"?>
<!DOCTYPE svg PUBLIC "-//W3C//DTD SVG 1.1//EN"
 "http://www.w3.org/Graphics/SVG/1.1/DTD/svg11.dtd">
<!-- Generated by graphviz version 2.34.0 (20130907.0111)
 -->
<!-- Title: idDynamicBlock&lt; type &gt; Pages: 1 -->
<svg width="199pt" height="322pt"
 viewBox="0.00 0.00 199.00 322.00" xmlns="http://www.w3.org/2000/svg" xmlns:xlink="http://www.w3.org/1999/xlink">
<g id="graph0" class="graph" transform="scale(1 1) rotate(0) translate(4 318)">
<title>idDynamicBlock&lt; type &gt;</title>
<polygon fill="white" stroke="white" points="-4,4 -4,-318 195,-318 195,4 -4,4"/>
<!-- Node1 -->
<g id="node1" class="node"><title>Node1</title>
<polygon fill="#bfbfbf" stroke="black" points="14,-0.5 14,-19.5 138,-19.5 138,-0.5 14,-0.5"/>
<text text-anchor="middle" x="76" y="-7.5" font-family="Arial" font-size="10.00">idDynamicBlock&lt; type &gt;</text>
</g>
<!-- Node2 -->
<g id="node2" class="node"><title>Node2</title>
<g id="a_node2"><a xlink:href="classid_b_tree_node.html" target="_top" xlink:title="idBTreeNode\&lt; idDynamicBlock\l\&lt; type \&gt;, int \&gt;">
<polygon fill="white" stroke="black" points="0,-69 0,-99 152,-99 152,-69 0,-69"/>
<text text-anchor="start" x="8" y="-87" font-family="Arial" font-size="10.00">idBTreeNode&lt; idDynamicBlock</text>
<text text-anchor="middle" x="76" y="-76" font-family="Arial" font-size="10.00">&lt; type &gt;, int &gt;</text>
</a>
</g>
</g>
<!-- Node2&#45;&gt;Node1 -->
<g id="edge1" class="edge"><title>Node2&#45;&gt;Node1</title>
<path fill="none" stroke="#9a32cd" stroke-dasharray="5,2" d="M76,-58.6883C76,-45.2526 76,-29.3805 76,-19.7589"/>
<polygon fill="#9a32cd" stroke="#9a32cd" points="72.5001,-58.7751 76,-68.7751 79.5001,-58.7752 72.5001,-58.7751"/>
<text text-anchor="middle" x="88.5" y="-41.5" font-family="Arial" font-size="10.00"> node</text>
</g>
<!-- Node3 -->
<g id="node3" class="node"><title>Node3</title>
<g id="a_node3"><a xlink:href="classid_b_tree_node.html" target="_top" xlink:title="idBTreeNode\&lt; objType,\l keyType \&gt;">
<polygon fill="white" stroke="black" points="17,-204 17,-234 135,-234 135,-204 17,-204"/>
<text text-anchor="start" x="25" y="-222" font-family="Arial" font-size="10.00">idBTreeNode&lt; objType,</text>
<text text-anchor="middle" x="76" y="-211" font-family="Arial" font-size="10.00"> keyType &gt;</text>
</a>
</g>
</g>
<!-- Node3&#45;&gt;Node2 -->
<g id="edge2" class="edge"><title>Node3&#45;&gt;Node2</title>
<path fill="none" stroke="#9a32cd" stroke-dasharray="5,2" d="M76,-193.707C76,-166.01 76,-121.664 76,-99.131"/>
<polygon fill="#9a32cd" stroke="#9a32cd" points="72.5001,-193.767 76,-203.767 79.5001,-193.767 72.5001,-193.767"/>
<text text-anchor="middle" x="95" y="-165.5" font-family="Arial" font-size="10.00"> prev</text>
<text text-anchor="middle" x="95" y="-154.5" font-family="Arial" font-size="10.00">next</text>
<text text-anchor="middle" x="95" y="-143.5" font-family="Arial" font-size="10.00">firstChild</text>
<text text-anchor="middle" x="95" y="-132.5" font-family="Arial" font-size="10.00">lastChild</text>
<text text-anchor="middle" x="95" y="-121.5" font-family="Arial" font-size="10.00">parent</text>
</g>
<!-- Node3&#45;&gt;Node3 -->
<g id="edge4" class="edge"><title>Node3&#45;&gt;Node3</title>
<path fill="none" stroke="#9a32cd" stroke-dasharray="5,2" d="M145.027,-225.893C149.975,-224.332 153,-222.034 153,-219 153,-214.264 145.63,-211.322 135.079,-210.175"/>
<polygon fill="#9a32cd" stroke="#9a32cd" points="144.228,-222.483 135.079,-227.825 145.563,-229.354 144.228,-222.483"/>
<text text-anchor="middle" x="172" y="-238.5" font-family="Arial" font-size="10.00"> prev</text>
<text text-anchor="middle" x="172" y="-227.5" font-family="Arial" font-size="10.00">next</text>
<text text-anchor="middle" x="172" y="-216.5" font-family="Arial" font-size="10.00">firstChild</text>
<text text-anchor="middle" x="172" y="-205.5" font-family="Arial" font-size="10.00">lastChild</text>
<text text-anchor="middle" x="172" y="-194.5" font-family="Arial" font-size="10.00">parent</text>
</g>
<!-- Node4 -->
<g id="node4" class="node"><title>Node4</title>
<polygon fill="white" stroke="#bfbfbf" points="16,-294.5 16,-313.5 66,-313.5 66,-294.5 16,-294.5"/>
<text text-anchor="middle" x="41" y="-301.5" font-family="Arial" font-size="10.00">objType</text>
</g>
<!-- Node4&#45;&gt;Node3 -->
<g id="edge3" class="edge"><title>Node4&#45;&gt;Node3</title>
<path fill="none" stroke="#9a32cd" stroke-dasharray="5,2" d="M48.5643,-285.062C54.9916,-269.82 64.0928,-248.237 70.0206,-234.18"/>
<polygon fill="#9a32cd" stroke="#9a32cd" points="45.2744,-283.856 44.6138,-294.43 51.7244,-286.576 45.2744,-283.856"/>
<text text-anchor="middle" x="72" y="-267.5" font-family="Arial" font-size="10.00"> object</text>
</g>
<!-- Node5 -->
<g id="node5" class="node"><title>Node5</title>
<polygon fill="white" stroke="#bfbfbf" points="84.5,-294.5 84.5,-313.5 137.5,-313.5 137.5,-294.5 84.5,-294.5"/>
<text text-anchor="middle" x="111" y="-301.5" font-family="Arial" font-size="10.00">keyType</text>
</g>
<!-- Node5&#45;&gt;Node3 -->
<g id="edge5" class="edge"><title>Node5&#45;&gt;Node3</title>
<path fill="none" stroke="#9a32cd" stroke-dasharray="5,2" d="M103.436,-285.062C97.0084,-269.82 87.9072,-248.237 81.9794,-234.18"/>
<polygon fill="#9a32cd" stroke="#9a32cd" points="100.276,-286.576 107.386,-294.43 106.726,-283.856 100.276,-286.576"/>
<text text-anchor="middle" x="108.5" y="-267.5" font-family="Arial" font-size="10.00"> key</text>
</g>
</g>
</svg>
