<?xml version="1.0" encoding="UTF-8" standalone="no"?>
<!DOCTYPE svg PUBLIC "-//W3C//DTD SVG 1.1//EN"
 "http://www.w3.org/Graphics/SVG/1.1/DTD/svg11.dtd">
<!-- Generated by graphviz version 2.34.0 (20130907.0111)
 -->
<!-- Title: MaterialDef Pages: 1 -->
<svg width="187pt" height="118pt"
 viewBox="0.00 0.00 187.00 118.00" xmlns="http://www.w3.org/2000/svg" xmlns:xlink="http://www.w3.org/1999/xlink">
<g id="graph0" class="graph" transform="scale(1 1) rotate(0) translate(4 114)">
<title>MaterialDef</title>
<polygon fill="white" stroke="white" points="-4,4 -4,-114 183,-114 183,4 -4,4"/>
<!-- Node1 -->
<g id="node1" class="node"><title>Node1</title>
<polygon fill="#bfbfbf" stroke="black" points="34.5,-0.5 34.5,-19.5 99.5,-19.5 99.5,-0.5 34.5,-0.5"/>
<text text-anchor="middle" x="67" y="-7.5" font-family="Arial" font-size="10.00">MaterialDef</text>
</g>
<!-- Node2 -->
<g id="node2" class="node"><title>Node2</title>
<g id="a_node2"><a xlink:href="classid_str.html" target="_top" xlink:title="idStr">
<polygon fill="white" stroke="black" points="-0.5,-90.5 -0.5,-109.5 36.5,-109.5 36.5,-90.5 -0.5,-90.5"/>
<text text-anchor="middle" x="18" y="-97.5" font-family="Arial" font-size="10.00">idStr</text>
</a>
</g>
</g>
<!-- Node2&#45;&gt;Node1 -->
<g id="edge1" class="edge"><title>Node2&#45;&gt;Node1</title>
<path fill="none" stroke="#9a32cd" stroke-dasharray="5,2" d="M20.2222,-80.5395C22.4267,-67.7902 26.7295,-50.8785 35,-38 39.7134,-30.6605 47.0392,-24.2691 53.4927,-19.5497"/>
<polygon fill="#9a32cd" stroke="#9a32cd" points="16.7542,-80.0663 18.7779,-90.4661 23.6813,-81.0742 16.7542,-80.0663"/>
<text text-anchor="middle" x="65" y="-63.5" font-family="Arial" font-size="10.00"> displayName</text>
<text text-anchor="middle" x="65" y="-52.5" font-family="Arial" font-size="10.00">dictName</text>
<text text-anchor="middle" x="65" y="-41.5" font-family="Arial" font-size="10.00">displayInfo</text>
</g>
<!-- Node3 -->
<g id="node3" class="node"><title>Node3</title>
<g id="a_node3"><a xlink:href="classid_hash_table.html" target="_top" xlink:title="idHashTable\&lt; DWORD \&gt;">
<polygon fill="white" stroke="black" points="54.5,-90.5 54.5,-109.5 179.5,-109.5 179.5,-90.5 54.5,-90.5"/>
<text text-anchor="middle" x="117" y="-97.5" font-family="Arial" font-size="10.00">idHashTable&lt; DWORD &gt;</text>
</a>
</g>
</g>
<!-- Node3&#45;&gt;Node1 -->
<g id="edge2" class="edge"><title>Node3&#45;&gt;Node1</title>
<path fill="none" stroke="#9a32cd" stroke-dasharray="5,2" d="M112.646,-80.2876C109.153,-67.6667 103.427,-51.0079 95,-38 90.4471,-30.9722 83.7355,-24.4178 78.0246,-19.5272"/>
<polygon fill="#9a32cd" stroke="#9a32cd" points="109.296,-81.3168 115.152,-90.1461 116.08,-79.592 109.296,-81.3168"/>
<text text-anchor="middle" x="131" y="-52.5" font-family="Arial" font-size="10.00"> viewData</text>
</g>
</g>
</svg>
