<?xml version="1.0" encoding="UTF-8" standalone="no"?>
<!DOCTYPE svg PUBLIC "-//W3C//DTD SVG 1.1//EN"
 "http://www.w3.org/Graphics/SVG/1.1/DTD/svg11.dtd">
<!-- Generated by graphviz version 2.34.0 (20130907.0111)
 -->
<!-- Title: idSurface_SweptSpline Pages: 1 -->
<svg width="500pt" height="252pt"
 viewBox="0.00 0.00 500.00 252.00" xmlns="http://www.w3.org/2000/svg" xmlns:xlink="http://www.w3.org/1999/xlink">
<g id="graph0" class="graph" transform="scale(1 1) rotate(0) translate(4 248)">
<title>idSurface_SweptSpline</title>
<polygon fill="white" stroke="white" points="-4,4 -4,-248 496,-248 496,4 -4,4"/>
<!-- Node1 -->
<g id="node1" class="node"><title>Node1</title>
<polygon fill="#bfbfbf" stroke="black" points="221,-0.5 221,-19.5 337,-19.5 337,-0.5 221,-0.5"/>
<text text-anchor="middle" x="279" y="-7.5" font-family="Arial" font-size="10.00">idSurface_SweptSpline</text>
</g>
<!-- Node2 -->
<g id="node2" class="node"><title>Node2</title>
<g id="a_node2"><a xlink:href="classid_surface.html" target="_top" xlink:title="idSurface">
<polygon fill="white" stroke="black" points="163.5,-78.5 163.5,-97.5 220.5,-97.5 220.5,-78.5 163.5,-78.5"/>
<text text-anchor="middle" x="192" y="-85.5" font-family="Arial" font-size="10.00">idSurface</text>
</a>
</g>
</g>
<!-- Node2&#45;&gt;Node1 -->
<g id="edge1" class="edge"><title>Node2&#45;&gt;Node1</title>
<path fill="none" stroke="midnightblue" d="M209.968,-71.3041C227.896,-55.6422 254.782,-32.1562 269.136,-19.6165"/>
<polygon fill="midnightblue" stroke="midnightblue" points="207.209,-69.067 201.98,-78.2818 211.814,-74.3388 207.209,-69.067"/>
</g>
<!-- Node3 -->
<g id="node3" class="node"><title>Node3</title>
<g id="a_node3"><a xlink:href="classid_list.html" target="_top" xlink:title="idList\&lt; surfaceEdge_s \&gt;">
<polygon fill="white" stroke="black" points="0,-156.5 0,-175.5 122,-175.5 122,-156.5 0,-156.5"/>
<text text-anchor="middle" x="61" y="-163.5" font-family="Arial" font-size="10.00">idList&lt; surfaceEdge_s &gt;</text>
</a>
</g>
</g>
<!-- Node3&#45;&gt;Node2 -->
<g id="edge2" class="edge"><title>Node3&#45;&gt;Node2</title>
<path fill="none" stroke="#9a32cd" stroke-dasharray="5,2" d="M84.5317,-151.348C111.382,-135.771 154.485,-110.764 177.08,-97.6557"/>
<polygon fill="#9a32cd" stroke="#9a32cd" points="82.6661,-148.384 75.7727,-156.43 86.1788,-154.439 82.6661,-148.384"/>
<text text-anchor="middle" x="158" y="-124.5" font-family="Arial" font-size="10.00"> edges</text>
</g>
<!-- Node4 -->
<g id="node4" class="node"><title>Node4</title>
<g id="a_node4"><a xlink:href="classid_list.html" target="_top" xlink:title="idList\&lt; int \&gt;">
<polygon fill="white" stroke="black" points="140,-156.5 140,-175.5 208,-175.5 208,-156.5 140,-156.5"/>
<text text-anchor="middle" x="174" y="-163.5" font-family="Arial" font-size="10.00">idList&lt; int &gt;</text>
</a>
</g>
</g>
<!-- Node4&#45;&gt;Node2 -->
<g id="edge3" class="edge"><title>Node4&#45;&gt;Node2</title>
<path fill="none" stroke="#9a32cd" stroke-dasharray="5,2" d="M178.447,-146.224C182.124,-130.697 187.178,-109.358 189.959,-97.6165"/>
<polygon fill="#9a32cd" stroke="#9a32cd" points="174.964,-145.744 176.065,-156.282 181.775,-147.358 174.964,-145.744"/>
<text text-anchor="middle" x="213.5" y="-130" font-family="Arial" font-size="10.00"> indexes</text>
<text text-anchor="middle" x="213.5" y="-119" font-family="Arial" font-size="10.00">edgeIndexes</text>
</g>
<!-- Node5 -->
<g id="node5" class="node"><title>Node5</title>
<g id="a_node5"><a xlink:href="classid_list.html" target="_top" xlink:title="idList\&lt; idDrawVert \&gt;">
<polygon fill="white" stroke="black" points="226.5,-156.5 226.5,-175.5 331.5,-175.5 331.5,-156.5 226.5,-156.5"/>
<text text-anchor="middle" x="279" y="-163.5" font-family="Arial" font-size="10.00">idList&lt; idDrawVert &gt;</text>
</a>
</g>
</g>
<!-- Node5&#45;&gt;Node2 -->
<g id="edge4" class="edge"><title>Node5&#45;&gt;Node2</title>
<path fill="none" stroke="#9a32cd" stroke-dasharray="5,2" d="M269.816,-147.588C263.795,-137.416 255.167,-124.876 245,-116 236.132,-108.258 224.651,-102.057 214.644,-97.56"/>
<polygon fill="#9a32cd" stroke="#9a32cd" points="266.818,-149.399 274.754,-156.418 272.927,-145.982 266.818,-149.399"/>
<text text-anchor="middle" x="275" y="-124.5" font-family="Arial" font-size="10.00"> verts</text>
</g>
<!-- Node6 -->
<g id="node6" class="node"><title>Node6</title>
<g id="a_node6"><a xlink:href="classid_curve___spline.html" target="_top" xlink:title="idCurve_Spline\&lt; idVec4 \&gt;">
<polygon fill="white" stroke="black" points="275,-78.5 275,-97.5 403,-97.5 403,-78.5 275,-78.5"/>
<text text-anchor="middle" x="339" y="-85.5" font-family="Arial" font-size="10.00">idCurve_Spline&lt; idVec4 &gt;</text>
</a>
</g>
</g>
<!-- Node6&#45;&gt;Node1 -->
<g id="edge5" class="edge"><title>Node6&#45;&gt;Node1</title>
<path fill="none" stroke="#9a32cd" stroke-dasharray="5,2" d="M325.583,-70.0056C313.239,-54.3693 295.432,-31.8142 285.802,-19.6165"/>
<polygon fill="#9a32cd" stroke="#9a32cd" points="323.174,-72.6018 332.117,-78.2818 328.668,-68.2642 323.174,-72.6018"/>
<text text-anchor="middle" x="344" y="-52" font-family="Arial" font-size="10.00"> sweptSpline</text>
<text text-anchor="middle" x="344" y="-41" font-family="Arial" font-size="10.00">spline</text>
</g>
<!-- Node7 -->
<g id="node7" class="node"><title>Node7</title>
<g id="a_node7"><a xlink:href="classid_curve.html" target="_top" xlink:title="idCurve\&lt; idVec4 \&gt;">
<polygon fill="white" stroke="black" points="350,-156.5 350,-175.5 446,-175.5 446,-156.5 350,-156.5"/>
<text text-anchor="middle" x="398" y="-163.5" font-family="Arial" font-size="10.00">idCurve&lt; idVec4 &gt;</text>
</a>
</g>
</g>
<!-- Node7&#45;&gt;Node6 -->
<g id="edge6" class="edge"><title>Node7&#45;&gt;Node6</title>
<path fill="none" stroke="midnightblue" d="M384.807,-148.006C372.668,-132.369 355.158,-109.814 345.689,-97.6165"/>
<polygon fill="midnightblue" stroke="midnightblue" points="382.335,-150.529 391.232,-156.282 387.864,-146.236 382.335,-150.529"/>
</g>
<!-- Node8 -->
<g id="node8" class="node"><title>Node8</title>
<g id="a_node8"><a xlink:href="classid_list.html" target="_top" xlink:title="idList\&lt; float \&gt;">
<polygon fill="white" stroke="black" points="310,-224.5 310,-243.5 386,-243.5 386,-224.5 310,-224.5"/>
<text text-anchor="middle" x="348" y="-231.5" font-family="Arial" font-size="10.00">idList&lt; float &gt;</text>
</a>
</g>
</g>
<!-- Node8&#45;&gt;Node7 -->
<g id="edge7" class="edge"><title>Node8&#45;&gt;Node7</title>
<path fill="none" stroke="#9a32cd" stroke-dasharray="5,2" d="M360.644,-216.31C370.391,-203.444 383.486,-186.158 391.302,-175.841"/>
<polygon fill="#9a32cd" stroke="#9a32cd" points="357.785,-214.287 354.537,-224.372 363.365,-218.514 357.785,-214.287"/>
<text text-anchor="middle" x="391" y="-197.5" font-family="Arial" font-size="10.00"> times</text>
</g>
<!-- Node9 -->
<g id="node9" class="node"><title>Node9</title>
<g id="a_node9"><a xlink:href="classid_list.html" target="_top" xlink:title="idList\&lt; idVec4 \&gt;">
<polygon fill="white" stroke="black" points="404,-224.5 404,-243.5 492,-243.5 492,-224.5 404,-224.5"/>
<text text-anchor="middle" x="448" y="-231.5" font-family="Arial" font-size="10.00">idList&lt; idVec4 &gt;</text>
</a>
</g>
</g>
<!-- Node9&#45;&gt;Node7 -->
<g id="edge8" class="edge"><title>Node9&#45;&gt;Node7</title>
<path fill="none" stroke="#9a32cd" stroke-dasharray="5,2" d="M435.356,-216.31C425.609,-203.444 412.514,-186.158 404.698,-175.841"/>
<polygon fill="#9a32cd" stroke="#9a32cd" points="432.635,-218.514 441.463,-224.372 438.215,-214.287 432.635,-218.514"/>
<text text-anchor="middle" x="442.5" y="-197.5" font-family="Arial" font-size="10.00"> values</text>
</g>
</g>
</svg>
