<?xml version="1.0" encoding="UTF-8" standalone="no"?>
<!DOCTYPE svg PUBLIC "-//W3C//DTD SVG 1.1//EN"
 "http://www.w3.org/Graphics/SVG/1.1/DTD/svg11.dtd">
<!-- Generated by graphviz version 2.34.0 (20130907.0111)
 -->
<!-- Title: idSoundSystemLocal Pages: 1 -->
<svg width="1158pt" height="714pt"
 viewBox="0.00 0.00 1158.00 714.22" xmlns="http://www.w3.org/2000/svg" xmlns:xlink="http://www.w3.org/1999/xlink">
<g id="graph0" class="graph" transform="scale(1 1) rotate(0) translate(4 710.215)">
<title>idSoundSystemLocal</title>
<polygon fill="white" stroke="white" points="-4,4 -4,-710.215 1154,-710.215 1154,4 -4,4"/>
<!-- Node1 -->
<g id="node1" class="node"><title>Node1</title>
<polygon fill="#bfbfbf" stroke="black" points="1040.5,-536.715 1040.5,-555.715 1149.5,-555.715 1149.5,-536.715 1040.5,-536.715"/>
<text text-anchor="middle" x="1095" y="-543.715" font-family="Arial" font-size="10.00">idSoundSystemLocal</text>
</g>
<!-- Node2 -->
<g id="node2" class="node"><title>Node2</title>
<g id="a_node2"><a xlink:href="classid_sound_system.html" target="_top" xlink:title="idSoundSystem">
<polygon fill="white" stroke="black" points="811,-686.715 811,-705.715 897,-705.715 897,-686.715 811,-686.715"/>
<text text-anchor="middle" x="854" y="-693.715" font-family="Arial" font-size="10.00">idSoundSystem</text>
</a>
</g>
</g>
<!-- Node2&#45;&gt;Node1 -->
<g id="edge1" class="edge"><title>Node2&#45;&gt;Node1</title>
<path fill="none" stroke="midnightblue" d="M907.161,-698.902C942.421,-698.211 988.483,-692.182 1022,-669.215 1063.64,-640.682 1084.64,-579.517 1091.45,-555.846"/>
<polygon fill="midnightblue" stroke="midnightblue" points="907.037,-695.402 897.058,-698.961 907.078,-702.402 907.037,-695.402"/>
</g>
<!-- Node3 -->
<g id="node3" class="node"><title>Node3</title>
<g id="a_node3"><a xlink:href="classid_sound_world_local.html" target="_top" xlink:title="idSoundWorldLocal">
<polygon fill="white" stroke="black" points="576.5,-323.715 576.5,-342.715 677.5,-342.715 677.5,-323.715 576.5,-323.715"/>
<text text-anchor="middle" x="627" y="-330.715" font-family="Arial" font-size="10.00">idSoundWorldLocal</text>
</a>
</g>
</g>
<!-- Node3&#45;&gt;Node1 -->
<g id="edge2" class="edge"><title>Node3&#45;&gt;Node1</title>
<path fill="none" stroke="#9a32cd" stroke-dasharray="5,2" d="M687.993,-329.478C785.364,-324.696 971.977,-321.271 1022,-361.215 1079.63,-407.237 1091.22,-505.592 1093.48,-536.627"/>
<polygon fill="#9a32cd" stroke="#9a32cd" points="687.523,-325.997 677.715,-330.004 687.881,-332.988 687.523,-325.997"/>
<text text-anchor="middle" x="854" y="-333.215" font-family="Arial" font-size="10.00"> currentSoundWorld</text>
</g>
<!-- Node8 -->
<g id="node8" class="node"><title>Node8</title>
<g id="a_node8"><a xlink:href="classid_sound_emitter_local.html" target="_top" xlink:title="idSoundEmitterLocal">
<polygon fill="white" stroke="black" points="800.5,-198.715 800.5,-217.715 907.5,-217.715 907.5,-198.715 800.5,-198.715"/>
<text text-anchor="middle" x="854" y="-205.715" font-family="Arial" font-size="10.00">idSoundEmitterLocal</text>
</a>
</g>
</g>
<!-- Node3&#45;&gt;Node8 -->
<g id="edge9" class="edge"><title>Node3&#45;&gt;Node8</title>
<path fill="none" stroke="#9a32cd" stroke-dasharray="5,2" d="M670.477,-320.828C715.208,-307.74 779.548,-288.768 782,-287.215 811.446,-268.57 836.112,-234.396 847.007,-217.785"/>
<polygon fill="#9a32cd" stroke="#9a32cd" points="669.316,-317.521 660.7,-323.687 671.28,-324.24 669.316,-317.521"/>
<text text-anchor="middle" x="745" y="-312.215" font-family="Arial" font-size="10.00"> soundWorld</text>
</g>
<!-- Node4 -->
<g id="node4" class="node"><title>Node4</title>
<g id="a_node4"><a xlink:href="classid_sound_world.html" target="_top" xlink:title="idSoundWorld">
<polygon fill="white" stroke="black" points="335.5,-378.715 335.5,-397.715 412.5,-397.715 412.5,-378.715 335.5,-378.715"/>
<text text-anchor="middle" x="374" y="-385.715" font-family="Arial" font-size="10.00">idSoundWorld</text>
</a>
</g>
</g>
<!-- Node4&#45;&gt;Node3 -->
<g id="edge3" class="edge"><title>Node4&#45;&gt;Node3</title>
<path fill="none" stroke="midnightblue" d="M422.592,-377.787C468.565,-367.713 537.616,-352.582 582.248,-342.802"/>
<polygon fill="midnightblue" stroke="midnightblue" points="421.596,-374.422 412.577,-379.981 423.095,-381.259 421.596,-374.422"/>
</g>
<!-- Node5 -->
<g id="node5" class="node"><title>Node5</title>
<g id="a_node5"><a xlink:href="classid_sound_fade.html" target="_top" xlink:title="idSoundFade">
<polygon fill="white" stroke="black" points="337,-228.715 337,-247.715 411,-247.715 411,-228.715 337,-228.715"/>
<text text-anchor="middle" x="374" y="-235.715" font-family="Arial" font-size="10.00">idSoundFade</text>
</a>
</g>
</g>
<!-- Node5&#45;&gt;Node3 -->
<g id="edge4" class="edge"><title>Node5&#45;&gt;Node3</title>
<path fill="none" stroke="#9a32cd" stroke-dasharray="5,2" d="M421.055,-243.367C456.401,-248.509 505.794,-258.315 546,-276.215 573.42,-288.423 600.95,-310.786 615.478,-323.571"/>
<polygon fill="#9a32cd" stroke="#9a32cd" points="421.406,-239.882 411.02,-241.977 420.446,-246.816 421.406,-239.882"/>
<text text-anchor="middle" x="508" y="-279.215" font-family="Arial" font-size="10.00"> soundClassFade</text>
</g>
<!-- Node11 -->
<g id="node11" class="node"><title>Node11</title>
<g id="a_node11"><a xlink:href="classid_sound_channel.html" target="_top" xlink:title="idSoundChannel">
<polygon fill="white" stroke="black" points="583.5,-88.715 583.5,-107.715 670.5,-107.715 670.5,-88.715 583.5,-88.715"/>
<text text-anchor="middle" x="627" y="-95.715" font-family="Arial" font-size="10.00">idSoundChannel</text>
</a>
</g>
</g>
<!-- Node5&#45;&gt;Node11 -->
<g id="edge15" class="edge"><title>Node5&#45;&gt;Node11</title>
<path fill="none" stroke="#9a32cd" stroke-dasharray="5,2" d="M421.513,-237.462C465.816,-235.752 528.3,-230.433 546,-214.215 572.232,-190.18 543.216,-165.091 564,-136.215 573.219,-123.407 588.217,-114.047 601.152,-107.821"/>
<polygon fill="#9a32cd" stroke="#9a32cd" points="421.117,-233.973 411.24,-237.807 421.352,-240.969 421.117,-233.973"/>
<text text-anchor="middle" x="508" y="-236.215" font-family="Arial" font-size="10.00"> channelFade</text>
</g>
<!-- Node6 -->
<g id="node6" class="node"><title>Node6</title>
<g id="a_node6"><a xlink:href="classid_str.html" target="_top" xlink:title="idStr">
<polygon fill="white" stroke="black" points="152.5,-273.715 152.5,-292.715 189.5,-292.715 189.5,-273.715 152.5,-273.715"/>
<text text-anchor="middle" x="171" y="-280.715" font-family="Arial" font-size="10.00">idStr</text>
</a>
</g>
</g>
<!-- Node6&#45;&gt;Node3 -->
<g id="edge5" class="edge"><title>Node6&#45;&gt;Node3</title>
<path fill="none" stroke="#9a32cd" stroke-dasharray="5,2" d="M199.543,-287.285C224.647,-290.925 262.77,-296.277 296,-300.215 395.346,-311.988 511.851,-322.982 576.46,-328.83"/>
<polygon fill="#9a32cd" stroke="#9a32cd" points="200.034,-283.82 189.634,-285.839 199.023,-290.747 200.034,-283.82"/>
<text text-anchor="middle" x="374" y="-341.215" font-family="Arial" font-size="10.00"> aviDemoName</text>
<text text-anchor="middle" x="374" y="-330.215" font-family="Arial" font-size="10.00">aviDemoPath</text>
<text text-anchor="middle" x="374" y="-319.215" font-family="Arial" font-size="10.00">listenerAreaName</text>
</g>
<!-- Node12 -->
<g id="node12" class="node"><title>Node12</title>
<g id="a_node12"><a xlink:href="classid_sound_sample.html" target="_top" xlink:title="idSoundSample">
<polygon fill="white" stroke="black" points="331.5,-131.715 331.5,-150.715 416.5,-150.715 416.5,-131.715 331.5,-131.715"/>
<text text-anchor="middle" x="374" y="-138.715" font-family="Arial" font-size="10.00">idSoundSample</text>
</a>
</g>
</g>
<!-- Node6&#45;&gt;Node12 -->
<g id="edge13" class="edge"><title>Node6&#45;&gt;Node12</title>
<path fill="none" stroke="#9a32cd" stroke-dasharray="5,2" d="M185.509,-265.766C206.443,-239.891 249.212,-191.475 296,-164.215 306.729,-157.964 319.304,-153.28 331.146,-149.828"/>
<polygon fill="#9a32cd" stroke="#9a32cd" points="182.754,-263.608 179.273,-273.614 188.235,-267.963 182.754,-263.608"/>
<text text-anchor="middle" x="255" y="-215.215" font-family="Arial" font-size="10.00"> name</text>
</g>
<!-- Node7 -->
<g id="node7" class="node"><title>Node7</title>
<g id="a_node7"><a xlink:href="classid_mat3.html" target="_top" xlink:title="idMat3">
<polygon fill="white" stroke="black" points="351,-271.715 351,-290.715 397,-290.715 397,-271.715 351,-271.715"/>
<text text-anchor="middle" x="374" y="-278.715" font-family="Arial" font-size="10.00">idMat3</text>
</a>
</g>
</g>
<!-- Node7&#45;&gt;Node3 -->
<g id="edge6" class="edge"><title>Node7&#45;&gt;Node3</title>
<path fill="none" stroke="#9a32cd" stroke-dasharray="5,2" d="M407.137,-283.819C441.773,-287.066 498.345,-293.651 546,-305.215 565.448,-309.934 586.811,-317.542 602.565,-323.637"/>
<polygon fill="#9a32cd" stroke="#9a32cd" points="407.4,-280.329 397.126,-282.917 406.771,-287.3 407.4,-280.329"/>
<text text-anchor="middle" x="508" y="-308.215" font-family="Arial" font-size="10.00"> listenerAxis</text>
</g>
<!-- Node8&#45;&gt;Node3 -->
<g id="edge7" class="edge"><title>Node8&#45;&gt;Node3</title>
<path fill="none" stroke="#9a32cd" stroke-dasharray="5,2" d="M827.272,-222.837C813.935,-230.197 797.28,-239.053 782,-246.215 749.866,-261.276 739.108,-259.135 708,-276.215 682.139,-290.414 654.696,-311.453 639.62,-323.603"/>
<polygon fill="#9a32cd" stroke="#9a32cd" points="829.299,-225.714 836.329,-217.787 825.89,-219.6 829.299,-225.714"/>
<text text-anchor="middle" x="745" y="-279.215" font-family="Arial" font-size="10.00"> localSound</text>
</g>
<!-- Node9 -->
<g id="node9" class="node"><title>Node9</title>
<g id="a_node9"><a xlink:href="classid_sound_emitter.html" target="_top" xlink:title="idSoundEmitter">
<polygon fill="white" stroke="black" points="585.5,-198.715 585.5,-217.715 668.5,-217.715 668.5,-198.715 585.5,-198.715"/>
<text text-anchor="middle" x="627" y="-205.715" font-family="Arial" font-size="10.00">idSoundEmitter</text>
</a>
</g>
</g>
<!-- Node9&#45;&gt;Node8 -->
<g id="edge8" class="edge"><title>Node9&#45;&gt;Node8</title>
<path fill="none" stroke="midnightblue" d="M679.082,-208.215C715.272,-208.215 763.688,-208.215 800.246,-208.215"/>
<polygon fill="midnightblue" stroke="midnightblue" points="678.746,-204.715 668.746,-208.215 678.746,-211.715 678.746,-204.715"/>
</g>
<!-- Node10 -->
<g id="node10" class="node"><title>Node10</title>
<g id="a_node10"><a xlink:href="structsound_shader_parms__t.html" target="_top" xlink:title="soundShaderParms_t">
<polygon fill="white" stroke="black" points="319,-0.715024 319,-19.715 429,-19.715 429,-0.715024 319,-0.715024"/>
<text text-anchor="middle" x="374" y="-7.71502" font-family="Arial" font-size="10.00">soundShaderParms_t</text>
</a>
</g>
</g>
<!-- Node10&#45;&gt;Node8 -->
<g id="edge10" class="edge"><title>Node10&#45;&gt;Node8</title>
<path fill="none" stroke="#9a32cd" stroke-dasharray="5,2" d="M439.176,-2.71803C528.573,3.87748 689.941,1.1974 782,-88.215 803.503,-109.1 785.144,-127.179 800,-153.215 810.515,-171.643 828.589,-188.52 840.666,-198.587"/>
<polygon fill="#9a32cd" stroke="#9a32cd" points="438.859,0.767838 429.169,-3.5175 439.416,-6.20993 438.859,0.767838"/>
<text text-anchor="middle" x="627" y="-34.215" font-family="Arial" font-size="10.00"> parms</text>
</g>
<!-- Node10&#45;&gt;Node11 -->
<g id="edge16" class="edge"><title>Node10&#45;&gt;Node11</title>
<path fill="none" stroke="#9a32cd" stroke-dasharray="5,2" d="M427.348,-22.1647C461.633,-30.6569 507.124,-43.1967 546,-58.215 568.597,-66.9444 593.361,-79.8884 609.26,-88.6688"/>
<polygon fill="#9a32cd" stroke="#9a32cd" points="428.085,-18.7418 417.54,-19.7697 426.424,-25.542 428.085,-18.7418"/>
<text text-anchor="middle" x="508" y="-61.215" font-family="Arial" font-size="10.00"> parms</text>
</g>
<!-- Node11&#45;&gt;Node8 -->
<g id="edge11" class="edge"><title>Node11&#45;&gt;Node8</title>
<path fill="none" stroke="#9a32cd" stroke-dasharray="5,2" d="M680.889,-106.718C718.399,-113.403 764.979,-123.225 782,-133.215 792.314,-139.268 791.85,-144.464 800,-153.215 815.002,-169.324 832.833,-187.667 843.517,-198.574"/>
<polygon fill="#9a32cd" stroke="#9a32cd" points="681.035,-103.191 670.582,-104.918 679.831,-110.086 681.035,-103.191"/>
<text text-anchor="middle" x="745" y="-136.215" font-family="Arial" font-size="10.00"> channels</text>
</g>
<!-- Node28 -->
<g id="node28" class="node"><title>Node28</title>
<g id="a_node28"><a xlink:href="structopenal_source__t.html" target="_top" xlink:title="openalSource_t">
<polygon fill="white" stroke="black" points="812,-124.715 812,-143.715 896,-143.715 896,-124.715 812,-124.715"/>
<text text-anchor="middle" x="854" y="-131.715" font-family="Arial" font-size="10.00">openalSource_t</text>
</a>
</g>
</g>
<!-- Node11&#45;&gt;Node28 -->
<g id="edge34" class="edge"><title>Node11&#45;&gt;Node28</title>
<path fill="none" stroke="#9a32cd" stroke-dasharray="5,2" d="M681.032,-92.7507C711.052,-91.0947 749.066,-91.4258 782,-99.215 802.863,-104.149 824.664,-116.067 838.513,-124.624"/>
<polygon fill="#9a32cd" stroke="#9a32cd" points="680.523,-89.2761 670.768,-93.4104 680.972,-96.2617 680.523,-89.2761"/>
<text text-anchor="middle" x="745" y="-102.215" font-family="Arial" font-size="10.00"> chan</text>
</g>
<!-- Node12&#45;&gt;Node11 -->
<g id="edge12" class="edge"><title>Node12&#45;&gt;Node11</title>
<path fill="none" stroke="#9a32cd" stroke-dasharray="5,2" d="M426.855,-132.331C473.134,-124.403 540.086,-112.933 583.331,-105.525"/>
<polygon fill="#9a32cd" stroke="#9a32cd" points="425.995,-128.928 416.729,-134.066 427.177,-135.827 425.995,-128.928"/>
<text text-anchor="middle" x="508" y="-128.215" font-family="Arial" font-size="10.00"> leadinSample</text>
</g>
<!-- Node13 -->
<g id="node13" class="node"><title>Node13</title>
<g id="a_node13"><a xlink:href="structwaveformatex__s.html" target="_top" xlink:title="waveformatex_s">
<polygon fill="white" stroke="black" points="128,-131.715 128,-150.715 214,-150.715 214,-131.715 128,-131.715"/>
<text text-anchor="middle" x="171" y="-138.715" font-family="Arial" font-size="10.00">waveformatex_s</text>
</a>
</g>
</g>
<!-- Node13&#45;&gt;Node12 -->
<g id="edge14" class="edge"><title>Node13&#45;&gt;Node12</title>
<path fill="none" stroke="#9a32cd" stroke-dasharray="5,2" d="M224.162,-141.215C257.507,-141.215 300.17,-141.215 331.264,-141.215"/>
<polygon fill="#9a32cd" stroke="#9a32cd" points="224.136,-137.715 214.136,-141.215 224.136,-144.715 224.136,-137.715"/>
<text text-anchor="middle" x="255" y="-144.215" font-family="Arial" font-size="10.00"> objectInfo</text>
</g>
<!-- Node14 -->
<g id="node14" class="node"><title>Node14</title>
<g id="a_node14"><a xlink:href="classid_sound_shader.html" target="_top" xlink:title="idSoundShader">
<polygon fill="white" stroke="black" points="332.5,-50.715 332.5,-69.715 415.5,-69.715 415.5,-50.715 332.5,-50.715"/>
<text text-anchor="middle" x="374" y="-57.715" font-family="Arial" font-size="10.00">idSoundShader</text>
</a>
</g>
</g>
<!-- Node14&#45;&gt;Node11 -->
<g id="edge17" class="edge"><title>Node14&#45;&gt;Node11</title>
<path fill="none" stroke="#9a32cd" stroke-dasharray="5,2" d="M425.689,-66.3357C459.769,-70.622 505.663,-76.7252 546,-83.215 558.138,-85.1679 571.265,-87.5258 583.308,-89.788"/>
<polygon fill="#9a32cd" stroke="#9a32cd" points="425.867,-62.8309 415.51,-65.0654 425,-69.777 425.867,-62.8309"/>
<text text-anchor="middle" x="508" y="-86.215" font-family="Arial" font-size="10.00"> soundShader</text>
</g>
<!-- Node15 -->
<g id="node15" class="node"><title>Node15</title>
<g id="a_node15"><a xlink:href="classid_decl.html" target="_top" xlink:title="idDecl">
<polygon fill="white" stroke="black" points="149,-50.715 149,-69.715 193,-69.715 193,-50.715 149,-50.715"/>
<text text-anchor="middle" x="171" y="-57.715" font-family="Arial" font-size="10.00">idDecl</text>
</a>
</g>
</g>
<!-- Node15&#45;&gt;Node14 -->
<g id="edge18" class="edge"><title>Node15&#45;&gt;Node14</title>
<path fill="none" stroke="midnightblue" d="M203.181,-60.215C237.938,-60.215 294.266,-60.215 332.43,-60.215"/>
<polygon fill="midnightblue" stroke="midnightblue" points="203.131,-56.7151 193.131,-60.215 203.131,-63.7151 203.131,-56.7151"/>
</g>
<!-- Node16 -->
<g id="node16" class="node"><title>Node16</title>
<g id="a_node16"><a xlink:href="classid_decl_base.html" target="_top" xlink:title="idDeclBase">
<polygon fill="white" stroke="black" points="0,-50.715 0,-69.715 66,-69.715 66,-50.715 0,-50.715"/>
<text text-anchor="middle" x="33" y="-57.715" font-family="Arial" font-size="10.00">idDeclBase</text>
</a>
</g>
</g>
<!-- Node16&#45;&gt;Node15 -->
<g id="edge19" class="edge"><title>Node16&#45;&gt;Node15</title>
<path fill="none" stroke="#9a32cd" stroke-dasharray="5,2" d="M76.4907,-60.215C100.44,-60.215 129.326,-60.215 148.596,-60.215"/>
<polygon fill="#9a32cd" stroke="#9a32cd" points="76.2301,-56.7151 66.2301,-60.215 76.2301,-63.7151 76.2301,-56.7151"/>
<text text-anchor="middle" x="97" y="-63.215" font-family="Arial" font-size="10.00"> base</text>
</g>
<!-- Node17 -->
<g id="node17" class="node"><title>Node17</title>
<g id="a_node17"><a xlink:href="classid_sample_decoder.html" target="_top" xlink:title="idSampleDecoder">
<polygon fill="white" stroke="black" points="327.5,-88.715 327.5,-107.715 420.5,-107.715 420.5,-88.715 327.5,-88.715"/>
<text text-anchor="middle" x="374" y="-95.715" font-family="Arial" font-size="10.00">idSampleDecoder</text>
</a>
</g>
</g>
<!-- Node17&#45;&gt;Node11 -->
<g id="edge20" class="edge"><title>Node17&#45;&gt;Node11</title>
<path fill="none" stroke="#9a32cd" stroke-dasharray="5,2" d="M430.879,-98.215C477.008,-98.215 541.494,-98.215 583.497,-98.215"/>
<polygon fill="#9a32cd" stroke="#9a32cd" points="430.745,-94.7151 420.745,-98.215 430.745,-101.715 430.745,-94.7151"/>
<text text-anchor="middle" x="508" y="-101.215" font-family="Arial" font-size="10.00"> decoder</text>
</g>
<!-- Node18 -->
<g id="node18" class="node"><title>Node18</title>
<g id="a_node18"><a xlink:href="classid_slow_channel.html" target="_top" xlink:title="idSlowChannel">
<polygon fill="white" stroke="black" points="587,-236.715 587,-255.715 667,-255.715 667,-236.715 587,-236.715"/>
<text text-anchor="middle" x="627" y="-243.715" font-family="Arial" font-size="10.00">idSlowChannel</text>
</a>
</g>
</g>
<!-- Node18&#45;&gt;Node8 -->
<g id="edge21" class="edge"><title>Node18&#45;&gt;Node8</title>
<path fill="none" stroke="#9a32cd" stroke-dasharray="5,2" d="M677.094,-237.924C713.516,-231.772 763.102,-223.398 800.345,-217.108"/>
<polygon fill="#9a32cd" stroke="#9a32cd" points="676.469,-234.479 667.192,-239.596 677.635,-241.382 676.469,-234.479"/>
<text text-anchor="middle" x="745" y="-234.215" font-family="Arial" font-size="10.00"> slowChannels</text>
</g>
<!-- Node19 -->
<g id="node19" class="node"><title>Node19</title>
<g id="a_node19"><a xlink:href="classid_vec3.html" target="_top" xlink:title="idVec3">
<polygon fill="white" stroke="black" points="350.5,-173.715 350.5,-192.715 397.5,-192.715 397.5,-173.715 350.5,-173.715"/>
<text text-anchor="middle" x="374" y="-180.715" font-family="Arial" font-size="10.00">idVec3</text>
</a>
</g>
</g>
<!-- Node19&#45;&gt;Node3 -->
<g id="edge26" class="edge"><title>Node19&#45;&gt;Node3</title>
<path fill="none" stroke="#9a32cd" stroke-dasharray="5,2" d="M407.711,-179.623C451.38,-175.576 525.605,-171.546 546,-188.215 573.213,-210.455 547.632,-234.114 564,-265.215 576.649,-289.249 599.839,-311.349 613.993,-323.486"/>
<polygon fill="#9a32cd" stroke="#9a32cd" points="407.192,-176.157 397.579,-180.613 407.872,-183.124 407.192,-176.157"/>
<text text-anchor="middle" x="508" y="-202.215" font-family="Arial" font-size="10.00"> listenerQU</text>
<text text-anchor="middle" x="508" y="-191.215" font-family="Arial" font-size="10.00">listenerPos</text>
</g>
<!-- Node19&#45;&gt;Node8 -->
<g id="edge22" class="edge"><title>Node19&#45;&gt;Node8</title>
<path fill="none" stroke="#9a32cd" stroke-dasharray="5,2" d="M407.753,-178.914C426.04,-176.641 449.255,-173.966 470,-172.215 567.456,-163.989 592.938,-155.195 690,-167.215 737.927,-173.15 792.01,-188.547 824.26,-198.691"/>
<polygon fill="#9a32cd" stroke="#9a32cd" points="407.092,-175.47 397.61,-180.196 407.97,-182.415 407.092,-175.47"/>
<text text-anchor="middle" x="627" y="-181.215" font-family="Arial" font-size="10.00"> origin</text>
<text text-anchor="middle" x="627" y="-170.215" font-family="Arial" font-size="10.00">spatializedOrigin</text>
</g>
<!-- Node20 -->
<g id="node20" class="node"><title>Node20</title>
<g id="a_node20"><a xlink:href="classid_render_world.html" target="_top" xlink:title="idRenderWorld">
<polygon fill="white" stroke="black" points="334,-492.715 334,-511.715 414,-511.715 414,-492.715 334,-492.715"/>
<text text-anchor="middle" x="374" y="-499.715" font-family="Arial" font-size="10.00">idRenderWorld</text>
</a>
</g>
</g>
<!-- Node20&#45;&gt;Node3 -->
<g id="edge23" class="edge"><title>Node20&#45;&gt;Node3</title>
<path fill="none" stroke="#9a32cd" stroke-dasharray="5,2" d="M424.655,-507.075C463.167,-507.908 515.041,-502.108 546,-470.215 582.033,-433.094 530.969,-395.03 564,-355.215 568.448,-349.853 574.297,-345.797 580.626,-342.73"/>
<polygon fill="#9a32cd" stroke="#9a32cd" points="424.3,-503.559 414.176,-506.68 424.037,-510.554 424.3,-503.559"/>
<text text-anchor="middle" x="508" y="-506.215" font-family="Arial" font-size="10.00"> rw</text>
</g>
<!-- Node21 -->
<g id="node21" class="node"><title>Node21</title>
<g id="a_node21"><a xlink:href="classid_file.html" target="_top" xlink:title="idFile">
<polygon fill="white" stroke="black" points="151,-510.715 151,-529.715 191,-529.715 191,-510.715 151,-510.715"/>
<text text-anchor="middle" x="171" y="-517.715" font-family="Arial" font-size="10.00">idFile</text>
</a>
</g>
</g>
<!-- Node21&#45;&gt;Node3 -->
<g id="edge24" class="edge"><title>Node21&#45;&gt;Node3</title>
<path fill="none" stroke="#9a32cd" stroke-dasharray="5,2" d="M200.505,-531.32C269.894,-556.28 448.994,-607.928 546,-518.215 572.755,-493.472 541.373,-383.782 564,-355.215 568.184,-349.933 573.733,-345.917 579.795,-342.864"/>
<polygon fill="#9a32cd" stroke="#9a32cd" points="201.679,-528.022 191.086,-527.851 199.26,-534.591 201.679,-528.022"/>
<text text-anchor="middle" x="374" y="-571.215" font-family="Arial" font-size="10.00"> fpa</text>
</g>
<!-- Node23 -->
<g id="node23" class="node"><title>Node23</title>
<g id="a_node23"><a xlink:href="classid_demo_file.html" target="_top" xlink:title="idDemoFile">
<polygon fill="white" stroke="black" points="341.5,-454.715 341.5,-473.715 406.5,-473.715 406.5,-454.715 341.5,-454.715"/>
<text text-anchor="middle" x="374" y="-461.715" font-family="Arial" font-size="10.00">idDemoFile</text>
</a>
</g>
</g>
<!-- Node21&#45;&gt;Node23 -->
<g id="edge28" class="edge"><title>Node21&#45;&gt;Node23</title>
<path fill="none" stroke="midnightblue" d="M200.865,-511.174C225.924,-503.427 263.232,-492.141 296,-483.215 310.879,-479.162 327.477,-475.019 341.442,-471.64"/>
<polygon fill="midnightblue" stroke="midnightblue" points="199.761,-507.852 191.248,-514.159 201.836,-514.537 199.761,-507.852"/>
</g>
<!-- Node22 -->
<g id="node22" class="node"><title>Node22</title>
<g id="a_node22"><a xlink:href="classid_list.html" target="_top" xlink:title="idList\&lt; idSoundEmitterLocal * \&gt;">
<polygon fill="white" stroke="black" points="296.5,-416.715 296.5,-435.715 451.5,-435.715 451.5,-416.715 296.5,-416.715"/>
<text text-anchor="middle" x="374" y="-423.715" font-family="Arial" font-size="10.00">idList&lt; idSoundEmitterLocal * &gt;</text>
</a>
</g>
</g>
<!-- Node22&#45;&gt;Node3 -->
<g id="edge25" class="edge"><title>Node22&#45;&gt;Node3</title>
<path fill="none" stroke="#9a32cd" stroke-dasharray="5,2" d="M427.527,-414.109C435.761,-411.965 444.143,-409.639 452,-407.215 494.6,-394.076 508.15,-395.768 546,-372.215 555.343,-366.401 554.613,-360.956 564,-355.215 572.282,-350.15 581.899,-346.023 591.052,-342.769"/>
<polygon fill="#9a32cd" stroke="#9a32cd" points="426.435,-410.775 417.602,-416.626 428.156,-417.56 426.435,-410.775"/>
<text text-anchor="middle" x="508" y="-404.215" font-family="Arial" font-size="10.00"> emitters</text>
</g>
<!-- Node23&#45;&gt;Node3 -->
<g id="edge27" class="edge"><title>Node23&#45;&gt;Node3</title>
<path fill="none" stroke="#9a32cd" stroke-dasharray="5,2" d="M417.192,-463.647C455.873,-460.816 512.13,-450.504 546,-416.215 565.864,-396.105 544.56,-375.735 564,-355.215 569.027,-349.909 575.416,-345.88 582.171,-342.823"/>
<polygon fill="#9a32cd" stroke="#9a32cd" points="416.558,-460.178 406.782,-464.261 416.97,-467.166 416.558,-460.178"/>
<text text-anchor="middle" x="508" y="-458.215" font-family="Arial" font-size="10.00"> writeDemo</text>
</g>
<!-- Node24 -->
<g id="node24" class="node"><title>Node24</title>
<g id="a_node24"><a xlink:href="classid_sound_cache.html" target="_top" xlink:title="idSoundCache">
<polygon fill="white" stroke="black" points="814,-610.715 814,-629.715 894,-629.715 894,-610.715 814,-610.715"/>
<text text-anchor="middle" x="854" y="-617.715" font-family="Arial" font-size="10.00">idSoundCache</text>
</a>
</g>
</g>
<!-- Node24&#45;&gt;Node1 -->
<g id="edge29" class="edge"><title>Node24&#45;&gt;Node1</title>
<path fill="none" stroke="#9a32cd" stroke-dasharray="5,2" d="M904.272,-615.222C938.172,-610.722 983.798,-602.537 1022,-588.215 1043.95,-579.985 1066.95,-565.352 1080.89,-555.716"/>
<polygon fill="#9a32cd" stroke="#9a32cd" points="903.63,-611.775 894.148,-616.502 904.509,-618.719 903.63,-611.775"/>
<text text-anchor="middle" x="974" y="-614.215" font-family="Arial" font-size="10.00"> soundCache</text>
</g>
<!-- Node25 -->
<g id="node25" class="node"><title>Node25</title>
<g id="a_node25"><a xlink:href="classs__stats.html" target="_top" xlink:title="s_stats">
<polygon fill="white" stroke="black" points="829.5,-572.715 829.5,-591.715 878.5,-591.715 878.5,-572.715 829.5,-572.715"/>
<text text-anchor="middle" x="854" y="-579.715" font-family="Arial" font-size="10.00">s_stats</text>
</a>
</g>
</g>
<!-- Node25&#45;&gt;Node1 -->
<g id="edge30" class="edge"><title>Node25&#45;&gt;Node1</title>
<path fill="none" stroke="#9a32cd" stroke-dasharray="5,2" d="M888.825,-578.373C922.624,-574.39 976.032,-567.705 1022,-560.215 1030.17,-558.884 1038.83,-557.326 1047.21,-555.743"/>
<polygon fill="#9a32cd" stroke="#9a32cd" points="888.101,-574.934 878.574,-579.569 888.913,-581.887 888.101,-574.934"/>
<text text-anchor="middle" x="974" y="-576.215" font-family="Arial" font-size="10.00"> soundStats</text>
</g>
<!-- Node26 -->
<g id="node26" class="node"><title>Node26</title>
<g id="a_node26"><a xlink:href="classid_audio_hardware.html" target="_top" xlink:title="idAudioHardware">
<polygon fill="white" stroke="black" points="809.5,-534.715 809.5,-553.715 898.5,-553.715 898.5,-534.715 809.5,-534.715"/>
<text text-anchor="middle" x="854" y="-541.715" font-family="Arial" font-size="10.00">idAudioHardware</text>
</a>
</g>
</g>
<!-- Node26&#45;&gt;Node1 -->
<g id="edge31" class="edge"><title>Node26&#45;&gt;Node1</title>
<path fill="none" stroke="#9a32cd" stroke-dasharray="5,2" d="M908.735,-544.665C947.997,-544.993 1001.02,-545.437 1040.28,-545.765"/>
<polygon fill="#9a32cd" stroke="#9a32cd" points="908.587,-541.163 898.558,-544.58 908.529,-548.163 908.587,-541.163"/>
<text text-anchor="middle" x="974" y="-548.215" font-family="Arial" font-size="10.00"> snd_audio_hw</text>
</g>
<!-- Node27 -->
<g id="node27" class="node"><title>Node27</title>
<g id="a_node27"><a xlink:href="classid_list.html" target="_top" xlink:title="idList\&lt; SoundFX * \&gt;">
<polygon fill="white" stroke="black" points="802,-496.715 802,-515.715 906,-515.715 906,-496.715 802,-496.715"/>
<text text-anchor="middle" x="854" y="-503.715" font-family="Arial" font-size="10.00">idList&lt; SoundFX * &gt;</text>
</a>
</g>
</g>
<!-- Node27&#45;&gt;Node1 -->
<g id="edge32" class="edge"><title>Node27&#45;&gt;Node1</title>
<path fill="none" stroke="#9a32cd" stroke-dasharray="5,2" d="M916.367,-513.25C948.031,-517.238 987.212,-522.728 1022,-529.215 1033.36,-531.334 1045.64,-534.064 1056.77,-536.714"/>
<polygon fill="#9a32cd" stroke="#9a32cd" points="916.721,-509.767 906.366,-512.009 915.859,-516.714 916.721,-509.767"/>
<text text-anchor="middle" x="974" y="-532.215" font-family="Arial" font-size="10.00"> fxList</text>
</g>
<!-- Node28&#45;&gt;Node1 -->
<g id="edge33" class="edge"><title>Node28&#45;&gt;Node1</title>
<path fill="none" stroke="#9a32cd" stroke-dasharray="5,2" d="M875.64,-150.346C910.771,-178.87 982.237,-241.703 1022,-310.215 1068.45,-390.241 1087.77,-503.235 1092.68,-536.592"/>
<polygon fill="#9a32cd" stroke="#9a32cd" points="877.526,-147.372 867.533,-143.851 873.149,-152.835 877.526,-147.372"/>
<text text-anchor="middle" x="974" y="-313.215" font-family="Arial" font-size="10.00"> openalSources</text>
</g>
<!-- Node29 -->
<g id="node29" class="node"><title>Node29</title>
<g id="a_node29"><a xlink:href="classid_e_f_x_file.html" target="_top" xlink:title="idEFXFile">
<polygon fill="white" stroke="black" points="825,-648.715 825,-667.715 883,-667.715 883,-648.715 825,-648.715"/>
<text text-anchor="middle" x="854" y="-655.715" font-family="Arial" font-size="10.00">idEFXFile</text>
</a>
</g>
</g>
<!-- Node29&#45;&gt;Node1 -->
<g id="edge35" class="edge"><title>Node29&#45;&gt;Node1</title>
<path fill="none" stroke="#9a32cd" stroke-dasharray="5,2" d="M893.573,-657.718C929.046,-655.724 982.039,-648.759 1022,-626.215 1052.92,-608.77 1077.6,-573.153 1088.28,-555.947"/>
<polygon fill="#9a32cd" stroke="#9a32cd" points="892.992,-654.24 883.161,-658.188 893.309,-661.233 892.992,-654.24"/>
<text text-anchor="middle" x="974" y="-657.215" font-family="Arial" font-size="10.00"> EFXDatabase</text>
</g>
<!-- Node30 -->
<g id="node30" class="node"><title>Node30</title>
<g id="a_node30"><a xlink:href="classid_list.html" target="_top" xlink:title="idList\&lt; idSoundEffect * \&gt;">
<polygon fill="white" stroke="black" points="564.5,-648.715 564.5,-667.715 689.5,-667.715 689.5,-648.715 564.5,-648.715"/>
<text text-anchor="middle" x="627" y="-655.715" font-family="Arial" font-size="10.00">idList&lt; idSoundEffect * &gt;</text>
</a>
</g>
</g>
<!-- Node30&#45;&gt;Node29 -->
<g id="edge36" class="edge"><title>Node30&#45;&gt;Node29</title>
<path fill="none" stroke="#9a32cd" stroke-dasharray="5,2" d="M699.802,-658.215C742.251,-658.215 793.635,-658.215 824.794,-658.215"/>
<polygon fill="#9a32cd" stroke="#9a32cd" points="699.78,-654.715 689.78,-658.215 699.78,-661.715 699.78,-654.715"/>
<text text-anchor="middle" x="745" y="-661.215" font-family="Arial" font-size="10.00"> effects</text>
</g>
<!-- Node31 -->
<g id="node31" class="node"><title>Node31</title>
<g id="a_node31"><a xlink:href="classid_c_var.html" target="_top" xlink:title="idCVar">
<polygon fill="white" stroke="black" points="831,-364.715 831,-383.715 877,-383.715 877,-364.715 831,-364.715"/>
<text text-anchor="middle" x="854" y="-371.715" font-family="Arial" font-size="10.00">idCVar</text>
</a>
</g>
</g>
<!-- Node31&#45;&gt;Node1 -->
<g id="edge37" class="edge"><title>Node31&#45;&gt;Node1</title>
<path fill="none" stroke="#9a32cd" stroke-dasharray="5,2" d="M887.115,-368.222C923.319,-363.325 982.296,-361.157 1022,-389.215 1073.43,-425.557 1088.93,-507.923 1092.84,-536.349"/>
<polygon fill="#9a32cd" stroke="#9a32cd" points="886.469,-364.779 877.099,-369.725 887.508,-371.702 886.469,-364.779"/>
<text text-anchor="middle" x="974" y="-502.215" font-family="Arial" font-size="10.00"> s_quadraticFalloff</text>
<text text-anchor="middle" x="974" y="-491.215" font-family="Arial" font-size="10.00">s_singleEmitter</text>
<text text-anchor="middle" x="974" y="-480.215" font-family="Arial" font-size="10.00">s_doorDistanceAdd</text>
<text text-anchor="middle" x="974" y="-469.215" font-family="Arial" font-size="10.00">s_reverbTime</text>
<text text-anchor="middle" x="974" y="-458.215" font-family="Arial" font-size="10.00">s_force22kHz</text>
<text text-anchor="middle" x="974" y="-447.215" font-family="Arial" font-size="10.00">s_minVolume6</text>
<text text-anchor="middle" x="974" y="-436.215" font-family="Arial" font-size="10.00">s_useEAXReverb</text>
<text text-anchor="middle" x="974" y="-425.215" font-family="Arial" font-size="10.00">s_volume</text>
<text text-anchor="middle" x="974" y="-414.215" font-family="Arial" font-size="10.00">s_reverse</text>
<text text-anchor="middle" x="974" y="-403.215" font-family="Arial" font-size="10.00">s_spatializationDecay</text>
<text text-anchor="middle" x="974" y="-392.215" font-family="Arial" font-size="10.00">...</text>
</g>
<!-- Node31&#45;&gt;Node31 -->
<g id="edge39" class="edge"><title>Node31&#45;&gt;Node31</title>
<path fill="none" stroke="#9a32cd" stroke-dasharray="5,2" d="M834.001,-393.615C835.337,-398.53 842.003,-402.215 854,-402.215 873.195,-402.215 878.744,-392.78 870.646,-383.972"/>
<polygon fill="#9a32cd" stroke="#9a32cd" points="837.376,-394.567 837.354,-383.972 830.764,-392.268 837.376,-394.567"/>
<text text-anchor="middle" x="854" y="-416.215" font-family="Arial" font-size="10.00"> next</text>
<text text-anchor="middle" x="854" y="-405.215" font-family="Arial" font-size="10.00">internalVar</text>
</g>
<!-- Node32 -->
<g id="node32" class="node"><title>Node32</title>
<g id="a_node32"><a xlink:href="classid_cmd_args.html" target="_top" xlink:title="idCmdArgs">
<polygon fill="white" stroke="black" points="594.5,-364.715 594.5,-383.715 659.5,-383.715 659.5,-364.715 594.5,-364.715"/>
<text text-anchor="middle" x="627" y="-371.715" font-family="Arial" font-size="10.00">idCmdArgs</text>
</a>
</g>
</g>
<!-- Node32&#45;&gt;Node31 -->
<g id="edge38" class="edge"><title>Node32&#45;&gt;Node31</title>
<path fill="none" stroke="#9a32cd" stroke-dasharray="5,2" d="M669.763,-374.215C717.417,-374.215 793.566,-374.215 830.902,-374.215"/>
<polygon fill="#9a32cd" stroke="#9a32cd" points="669.76,-370.715 659.76,-374.215 669.76,-377.715 669.76,-370.715"/>
<text text-anchor="middle" x="745" y="-377.215" font-family="Arial" font-size="10.00"> valueCompletion</text>
</g>
</g>
</svg>
