<?xml version="1.0" encoding="UTF-8" standalone="no"?>
<!DOCTYPE svg PUBLIC "-//W3C//DTD SVG 1.1//EN"
 "http://www.w3.org/Graphics/SVG/1.1/DTD/svg11.dtd">
<!-- Generated by graphviz version 2.34.0 (20130907.0111)
 -->
<!-- Title: rvDebuggerQuickWatchDlg Pages: 1 -->
<svg width="870pt" height="296pt"
 viewBox="0.00 0.00 870.00 296.33" xmlns="http://www.w3.org/2000/svg" xmlns:xlink="http://www.w3.org/1999/xlink">
<g id="graph0" class="graph" transform="scale(1 1) rotate(0) translate(4 292.329)">
<title>rvDebuggerQuickWatchDlg</title>
<polygon fill="white" stroke="white" points="-4,4 -4,-292.329 866,-292.329 866,4 -4,4"/>
<!-- Node1 -->
<g id="node1" class="node"><title>Node1</title>
<polygon fill="#bfbfbf" stroke="black" points="728.5,-260.829 728.5,-279.829 861.5,-279.829 861.5,-260.829 728.5,-260.829"/>
<text text-anchor="middle" x="795" y="-267.829" font-family="Arial" font-size="10.00">rvDebuggerQuickWatchDlg</text>
</g>
<!-- Node2 -->
<g id="node2" class="node"><title>Node2</title>
<g id="a_node2"><a xlink:href="classid_str.html" target="_top" xlink:title="idStr">
<polygon fill="white" stroke="black" points="61.5,-244.829 61.5,-263.829 98.5,-263.829 98.5,-244.829 61.5,-244.829"/>
<text text-anchor="middle" x="80" y="-251.829" font-family="Arial" font-size="10.00">idStr</text>
</a>
</g>
</g>
<!-- Node2&#45;&gt;Node1 -->
<g id="edge1" class="edge"><title>Node2&#45;&gt;Node1</title>
<path fill="none" stroke="#9a32cd" stroke-dasharray="5,2" d="M108.64,-257.911C146.053,-262.563 214.928,-270.428 274,-273.329 437.209,-281.343 629.575,-276.525 728.281,-273.014"/>
<polygon fill="#9a32cd" stroke="#9a32cd" points="108.88,-254.414 98.5206,-256.636 108.004,-261.359 108.88,-254.414"/>
<text text-anchor="middle" x="460" y="-280.329" font-family="Arial" font-size="10.00"> mVariable</text>
</g>
<!-- Node3 -->
<g id="node3" class="node"><title>Node3</title>
<g id="a_node3"><a xlink:href="classrv_debugger_window.html" target="_top" xlink:title="rvDebuggerWindow">
<polygon fill="white" stroke="black" points="504.5,-150.829 504.5,-169.829 603.5,-169.829 603.5,-150.829 504.5,-150.829"/>
<text text-anchor="middle" x="554" y="-157.829" font-family="Arial" font-size="10.00">rvDebuggerWindow</text>
</a>
</g>
</g>
<!-- Node2&#45;&gt;Node3 -->
<g id="edge3" class="edge"><title>Node2&#45;&gt;Node3</title>
<path fill="none" stroke="#9a32cd" stroke-dasharray="5,2" d="M108.811,-253.674C143.498,-252.498 204.512,-249.246 256,-240.329 356.236,-222.971 471.755,-187.147 524.306,-169.952"/>
<polygon fill="#9a32cd" stroke="#9a32cd" points="108.408,-250.185 98.5197,-253.988 108.622,-257.182 108.408,-250.185"/>
<text text-anchor="middle" x="345" y="-261.329" font-family="Arial" font-size="10.00"> mTooltipVar</text>
<text text-anchor="middle" x="345" y="-250.329" font-family="Arial" font-size="10.00">mTooltipValue</text>
<text text-anchor="middle" x="345" y="-239.329" font-family="Arial" font-size="10.00">mFind</text>
</g>
<!-- Node4 -->
<g id="node4" class="node"><title>Node4</title>
<g id="a_node4"><a xlink:href="classrv_debugger_client.html" target="_top" xlink:title="rvDebuggerClient">
<polygon fill="white" stroke="black" points="300.5,-150.829 300.5,-169.829 389.5,-169.829 389.5,-150.829 300.5,-150.829"/>
<text text-anchor="middle" x="345" y="-157.829" font-family="Arial" font-size="10.00">rvDebuggerClient</text>
</a>
</g>
</g>
<!-- Node2&#45;&gt;Node4 -->
<g id="edge5" class="edge"><title>Node2&#45;&gt;Node4</title>
<path fill="none" stroke="#9a32cd" stroke-dasharray="5,2" d="M108.493,-246.729C143.236,-236.888 204.695,-218.69 256,-199.329 279.765,-190.361 306.332,-178.294 323.996,-169.969"/>
<polygon fill="#9a32cd" stroke="#9a32cd" points="107.289,-243.432 98.609,-249.507 109.183,-250.171 107.289,-243.432"/>
<text text-anchor="middle" x="217" y="-228.329" font-family="Arial" font-size="10.00"> mBreakFilename</text>
</g>
<!-- Node3&#45;&gt;Node1 -->
<g id="edge2" class="edge"><title>Node3&#45;&gt;Node1</title>
<path fill="none" stroke="#9a32cd" stroke-dasharray="5,2" d="M584.958,-174.117C634.1,-196.735 730.607,-241.153 773.086,-260.704"/>
<polygon fill="#9a32cd" stroke="#9a32cd" points="586.339,-170.9 575.792,-169.898 583.412,-177.259 586.339,-170.9"/>
<text text-anchor="middle" x="666" y="-234.329" font-family="Arial" font-size="10.00"> mDebuggerWindow</text>
</g>
<!-- Node4&#45;&gt;Node3 -->
<g id="edge4" class="edge"><title>Node4&#45;&gt;Node3</title>
<path fill="none" stroke="#9a32cd" stroke-dasharray="5,2" d="M399.824,-160.329C432.16,-160.329 472.976,-160.329 504.343,-160.329"/>
<polygon fill="#9a32cd" stroke="#9a32cd" points="399.646,-156.829 389.646,-160.329 399.646,-163.829 399.646,-156.829"/>
<text text-anchor="middle" x="460" y="-163.329" font-family="Arial" font-size="10.00"> mClient</text>
</g>
<!-- Node5 -->
<g id="node5" class="node"><title>Node5</title>
<g id="a_node5"><a xlink:href="structnetadr__t.html" target="_top" xlink:title="netadr_t">
<polygon fill="white" stroke="black" points="54,-190.829 54,-209.829 106,-209.829 106,-190.829 54,-190.829"/>
<text text-anchor="middle" x="80" y="-197.829" font-family="Arial" font-size="10.00">netadr_t</text>
</a>
</g>
</g>
<!-- Node5&#45;&gt;Node4 -->
<g id="edge6" class="edge"><title>Node5&#45;&gt;Node4</title>
<path fill="none" stroke="#9a32cd" stroke-dasharray="5,2" d="M116.352,-194.952C163.956,-187.712 248.631,-174.834 300.211,-166.989"/>
<polygon fill="#9a32cd" stroke="#9a32cd" points="115.578,-191.53 106.218,-196.494 116.63,-198.45 115.578,-191.53"/>
<text text-anchor="middle" x="217" y="-187.329" font-family="Arial" font-size="10.00"> mServerAdr</text>
</g>
<!-- Node6 -->
<g id="node6" class="node"><title>Node6</title>
<g id="a_node6"><a xlink:href="classid_list.html" target="_top" xlink:title="idList\&lt; rvDebuggerBreakpoint * \&gt;">
<polygon fill="white" stroke="black" points="0.5,-152.829 0.5,-171.829 159.5,-171.829 159.5,-152.829 0.5,-152.829"/>
<text text-anchor="middle" x="80" y="-159.829" font-family="Arial" font-size="10.00">idList&lt; rvDebuggerBreakpoint * &gt;</text>
</a>
</g>
</g>
<!-- Node6&#45;&gt;Node4 -->
<g id="edge7" class="edge"><title>Node6&#45;&gt;Node4</title>
<path fill="none" stroke="#9a32cd" stroke-dasharray="5,2" d="M169.761,-161.399C172.54,-161.375 175.291,-161.351 178,-161.329 219.499,-160.99 266.835,-160.716 300.311,-160.541"/>
<polygon fill="#9a32cd" stroke="#9a32cd" points="169.584,-157.9 159.616,-161.49 169.647,-164.9 169.584,-157.9"/>
<text text-anchor="middle" x="217" y="-164.329" font-family="Arial" font-size="10.00"> mBreakpoints</text>
</g>
<!-- Node7 -->
<g id="node7" class="node"><title>Node7</title>
<g id="a_node7"><a xlink:href="classid_list.html" target="_top" xlink:title="idList\&lt; rvDebuggerThread * \&gt;">
<polygon fill="white" stroke="black" points="9,-114.829 9,-133.829 151,-133.829 151,-114.829 9,-114.829"/>
<text text-anchor="middle" x="80" y="-121.829" font-family="Arial" font-size="10.00">idList&lt; rvDebuggerThread * &gt;</text>
</a>
</g>
</g>
<!-- Node7&#45;&gt;Node4 -->
<g id="edge8" class="edge"><title>Node7&#45;&gt;Node4</title>
<path fill="none" stroke="#9a32cd" stroke-dasharray="5,2" d="M161.673,-133.166C191.37,-136.641 225.254,-140.867 256,-145.329 270.417,-147.422 286.112,-150 300.201,-152.425"/>
<polygon fill="#9a32cd" stroke="#9a32cd" points="161.692,-129.645 151.355,-131.969 160.885,-136.598 161.692,-129.645"/>
<text text-anchor="middle" x="217" y="-148.329" font-family="Arial" font-size="10.00"> mThreads</text>
</g>
<!-- Node8 -->
<g id="node8" class="node"><title>Node8</title>
<g id="a_node8"><a xlink:href="classid_list.html" target="_top" xlink:title="idList\&lt; rvDebuggerCallstack * \&gt;">
<polygon fill="white" stroke="black" points="3.5,-76.8291 3.5,-95.8291 156.5,-95.8291 156.5,-76.8291 3.5,-76.8291"/>
<text text-anchor="middle" x="80" y="-83.8291" font-family="Arial" font-size="10.00">idList&lt; rvDebuggerCallstack * &gt;</text>
</a>
</g>
</g>
<!-- Node8&#45;&gt;Node4 -->
<g id="edge9" class="edge"><title>Node8&#45;&gt;Node4</title>
<path fill="none" stroke="#9a32cd" stroke-dasharray="5,2" d="M166.578,-90.4916C196.489,-94.9533 229.248,-103.448 256,-119.329 266.864,-125.778 263.398,-134.458 274,-141.329 281.925,-146.466 291.215,-150.223 300.39,-152.969"/>
<polygon fill="#9a32cd" stroke="#9a32cd" points="166.937,-87.0083 156.557,-89.1283 165.994,-93.9444 166.937,-87.0083"/>
<text text-anchor="middle" x="217" y="-122.329" font-family="Arial" font-size="10.00"> mCallstack</text>
</g>
<!-- Node9 -->
<g id="node9" class="node"><title>Node9</title>
<g id="a_node9"><a xlink:href="classid_port.html" target="_top" xlink:title="idPort">
<polygon fill="white" stroke="black" points="59,-38.8291 59,-57.8291 101,-57.8291 101,-38.8291 59,-38.8291"/>
<text text-anchor="middle" x="80" y="-45.8291" font-family="Arial" font-size="10.00">idPort</text>
</a>
</g>
</g>
<!-- Node9&#45;&gt;Node4 -->
<g id="edge10" class="edge"><title>Node9&#45;&gt;Node4</title>
<path fill="none" stroke="#9a32cd" stroke-dasharray="5,2" d="M111.295,-44.3262C149.834,-41.0307 216.16,-41.645 256,-77.3291 278.01,-97.0432 253.011,-120.531 274,-141.329 281.156,-148.42 290.675,-152.934 300.382,-155.79"/>
<polygon fill="#9a32cd" stroke="#9a32cd" points="110.809,-40.8572 101.207,-45.3334 111.505,-47.8225 110.809,-40.8572"/>
<text text-anchor="middle" x="217" y="-80.3291" font-family="Arial" font-size="10.00"> mPort</text>
</g>
<!-- Node10 -->
<g id="node10" class="node"><title>Node10</title>
<g id="a_node10"><a xlink:href="classid_dict.html" target="_top" xlink:title="idDict">
<polygon fill="white" stroke="black" points="59.5,-0.829143 59.5,-19.8291 100.5,-19.8291 100.5,-0.829143 59.5,-0.829143"/>
<text text-anchor="middle" x="80" y="-7.82914" font-family="Arial" font-size="10.00">idDict</text>
</a>
</g>
</g>
<!-- Node10&#45;&gt;Node4 -->
<g id="edge11" class="edge"><title>Node10&#45;&gt;Node4</title>
<path fill="none" stroke="#9a32cd" stroke-dasharray="5,2" d="M110.831,-4.18367C149.721,1.92618 217.324,5.72707 256,-31.3291 291.77,-65.6015 240.817,-104.546 274,-141.329 280.832,-148.903 290.349,-153.586 300.167,-156.449"/>
<polygon fill="#9a32cd" stroke="#9a32cd" points="109.931,-0.787152 100.671,-5.93615 111.121,-7.68528 109.931,-0.787152"/>
<text text-anchor="middle" x="217" y="-34.3291" font-family="Arial" font-size="10.00"> mVariables</text>
</g>
<!-- Node11 -->
<g id="node11" class="node"><title>Node11</title>
<g id="a_node11"><a xlink:href="classid_list.html" target="_top" xlink:title="idList\&lt; rvDebuggerScript * \&gt;">
<polygon fill="white" stroke="black" points="276,-112.829 276,-131.829 414,-131.829 414,-112.829 276,-112.829"/>
<text text-anchor="middle" x="345" y="-119.829" font-family="Arial" font-size="10.00">idList&lt; rvDebuggerScript * &gt;</text>
</a>
</g>
</g>
<!-- Node11&#45;&gt;Node3 -->
<g id="edge12" class="edge"><title>Node11&#45;&gt;Node3</title>
<path fill="none" stroke="#9a32cd" stroke-dasharray="5,2" d="M418.962,-133.502C440.588,-137.033 464.29,-141.119 486,-145.329 494.425,-146.963 503.411,-148.864 511.976,-150.753"/>
<polygon fill="#9a32cd" stroke="#9a32cd" points="419.29,-130.01 408.86,-131.868 418.172,-136.92 419.29,-130.01"/>
<text text-anchor="middle" x="460" y="-148.329" font-family="Arial" font-size="10.00"> mScripts</text>
</g>
<!-- Node12 -->
<g id="node12" class="node"><title>Node12</title>
<g id="a_node12"><a xlink:href="classid_list.html" target="_top" xlink:title="idList\&lt; rvDebuggerWatch * \&gt;">
<polygon fill="white" stroke="black" points="274.5,-74.8291 274.5,-93.8291 415.5,-93.8291 415.5,-74.8291 274.5,-74.8291"/>
<text text-anchor="middle" x="345" y="-81.8291" font-family="Arial" font-size="10.00">idList&lt; rvDebuggerWatch * &gt;</text>
</a>
</g>
</g>
<!-- Node12&#45;&gt;Node3 -->
<g id="edge13" class="edge"><title>Node12&#45;&gt;Node3</title>
<path fill="none" stroke="#9a32cd" stroke-dasharray="5,2" d="M404.89,-96.1752C430.349,-102.239 460.165,-110.626 486,-121.329 505.397,-129.365 526.034,-142.09 539.196,-150.804"/>
<polygon fill="#9a32cd" stroke="#9a32cd" points="405.533,-92.7315 395.001,-93.8834 403.952,-99.5508 405.533,-92.7315"/>
<text text-anchor="middle" x="460" y="-124.329" font-family="Arial" font-size="10.00"> mWatches</text>
</g>
</g>
</svg>
