<?xml version="1.0" encoding="UTF-8" standalone="no"?>
<!DOCTYPE svg PUBLIC "-//W3C//DTD SVG 1.1//EN"
 "http://www.w3.org/Graphics/SVG/1.1/DTD/svg11.dtd">
<!-- Generated by graphviz version 2.34.0 (20130907.0111)
 -->
<!-- Title: idDrawVert Pages: 1 -->
<svg width="123pt" height="118pt"
 viewBox="0.00 0.00 123.00 118.00" xmlns="http://www.w3.org/2000/svg" xmlns:xlink="http://www.w3.org/1999/xlink">
<g id="graph0" class="graph" transform="scale(1 1) rotate(0) translate(4 114)">
<title>idDrawVert</title>
<polygon fill="white" stroke="white" points="-4,4 -4,-114 119,-114 119,4 -4,4"/>
<!-- Node1 -->
<g id="node1" class="node"><title>Node1</title>
<polygon fill="#bfbfbf" stroke="black" points="23,-0.5 23,-19.5 87,-19.5 87,-0.5 23,-0.5"/>
<text text-anchor="middle" x="55" y="-7.5" font-family="Arial" font-size="10.00">idDrawVert</text>
</g>
<!-- Node2 -->
<g id="node2" class="node"><title>Node2</title>
<g id="a_node2"><a xlink:href="classid_vec2.html" target="_top" xlink:title="idVec2">
<polygon fill="white" stroke="black" points="-0.5,-90.5 -0.5,-109.5 46.5,-109.5 46.5,-90.5 -0.5,-90.5"/>
<text text-anchor="middle" x="23" y="-97.5" font-family="Arial" font-size="10.00">idVec2</text>
</a>
</g>
</g>
<!-- Node2&#45;&gt;Node1 -->
<g id="edge1" class="edge"><title>Node2&#45;&gt;Node1</title>
<path fill="none" stroke="#9a32cd" stroke-dasharray="5,2" d="M29.6307,-80.7655C36.4202,-62.0946 46.6848,-33.8669 51.8276,-19.7241"/>
<polygon fill="#9a32cd" stroke="#9a32cd" points="26.3135,-79.6464 26.1853,-90.2405 32.892,-82.0387 26.3135,-79.6464"/>
<text text-anchor="middle" x="51" y="-52.5" font-family="Arial" font-size="10.00"> st</text>
</g>
<!-- Node3 -->
<g id="node3" class="node"><title>Node3</title>
<g id="a_node3"><a xlink:href="classid_vec3.html" target="_top" xlink:title="idVec3">
<polygon fill="white" stroke="black" points="64.5,-90.5 64.5,-109.5 111.5,-109.5 111.5,-90.5 64.5,-90.5"/>
<text text-anchor="middle" x="88" y="-97.5" font-family="Arial" font-size="10.00">idVec3</text>
</a>
</g>
</g>
<!-- Node3&#45;&gt;Node1 -->
<g id="edge2" class="edge"><title>Node3&#45;&gt;Node1</title>
<path fill="none" stroke="#9a32cd" stroke-dasharray="5,2" d="M81.1621,-80.7655C74.1605,-62.0946 63.5751,-33.8669 58.2715,-19.7241"/>
<polygon fill="#9a32cd" stroke="#9a32cd" points="77.9267,-82.1062 84.7152,-90.2405 84.481,-79.6482 77.9267,-82.1062"/>
<text text-anchor="middle" x="96" y="-63.5" font-family="Arial" font-size="10.00"> xyz</text>
<text text-anchor="middle" x="96" y="-52.5" font-family="Arial" font-size="10.00">normal</text>
<text text-anchor="middle" x="96" y="-41.5" font-family="Arial" font-size="10.00">tangents</text>
</g>
</g>
</svg>
