<?xml version="1.0" encoding="UTF-8" standalone="no"?>
<!DOCTYPE svg PUBLIC "-//W3C//DTD SVG 1.1//EN"
 "http://www.w3.org/Graphics/SVG/1.1/DTD/svg11.dtd">
<!-- Generated by graphviz version 2.34.0 (20130907.0111)
 -->
<!-- Title: idStaticEntity Pages: 1 -->
<svg width="84pt" height="252pt"
 viewBox="0.00 0.00 84.00 252.00" xmlns="http://www.w3.org/2000/svg" xmlns:xlink="http://www.w3.org/1999/xlink">
<g id="graph0" class="graph" transform="scale(1 1) rotate(0) translate(4 248)">
<title>idStaticEntity</title>
<polygon fill="white" stroke="white" points="-4,4 -4,-248 80,-248 80,4 -4,4"/>
<!-- Node1 -->
<g id="node1" class="node"><title>Node1</title>
<polygon fill="#bfbfbf" stroke="black" points="0.5,-112.5 0.5,-131.5 75.5,-131.5 75.5,-112.5 0.5,-112.5"/>
<text text-anchor="middle" x="38" y="-119.5" font-family="Arial" font-size="10.00">idStaticEntity</text>
</g>
<!-- Node4 -->
<g id="node4" class="node"><title>Node4</title>
<g id="a_node4"><a xlink:href="classid_func_emitter.html" target="_top" xlink:title="idFuncEmitter">
<polygon fill="white" stroke="black" points="-0.5,-56.5 -0.5,-75.5 76.5,-75.5 76.5,-56.5 -0.5,-56.5"/>
<text text-anchor="middle" x="38" y="-63.5" font-family="Arial" font-size="10.00">idFuncEmitter</text>
</a>
</g>
</g>
<!-- Node1&#45;&gt;Node4 -->
<g id="edge5" class="edge"><title>Node1&#45;&gt;Node4</title>
<path fill="none" stroke="midnightblue" d="M31.5276,-102.101C30.8956,-93.1357 31.3427,-82.8579 32.869,-75.7511"/>
<polygon fill="midnightblue" stroke="midnightblue" points="28.0658,-102.622 32.8337,-112.083 35.0067,-101.713 28.0658,-102.622"/>
</g>
<!-- Node1&#45;&gt;Node4 -->
<g id="edge8" class="edge"><title>Node1&#45;&gt;Node4</title>
<path fill="none" stroke="midnightblue" d="M44.4724,-102.101C45.1044,-93.1357 44.6573,-82.8579 43.131,-75.7511"/>
<polygon fill="midnightblue" stroke="midnightblue" points="40.9933,-101.713 43.1663,-112.083 47.9342,-102.622 40.9933,-101.713"/>
</g>
<!-- Node2 -->
<g id="node2" class="node"><title>Node2</title>
<g id="a_node2"><a xlink:href="classid_entity.html" target="_top" xlink:title="idEntity">
<polygon fill="white" stroke="black" points="13,-168.5 13,-187.5 63,-187.5 63,-168.5 13,-168.5"/>
<text text-anchor="middle" x="38" y="-175.5" font-family="Arial" font-size="10.00">idEntity</text>
</a>
</g>
</g>
<!-- Node2&#45;&gt;Node1 -->
<g id="edge1" class="edge"><title>Node2&#45;&gt;Node1</title>
<path fill="none" stroke="midnightblue" d="M31.5276,-158.101C30.8956,-149.136 31.3427,-138.858 32.869,-131.751"/>
<polygon fill="midnightblue" stroke="midnightblue" points="28.0658,-158.622 32.8337,-168.083 35.0067,-157.713 28.0658,-158.622"/>
</g>
<!-- Node2&#45;&gt;Node1 -->
<g id="edge4" class="edge"><title>Node2&#45;&gt;Node1</title>
<path fill="none" stroke="midnightblue" d="M44.4724,-158.101C45.1044,-149.136 44.6573,-138.858 43.131,-131.751"/>
<polygon fill="midnightblue" stroke="midnightblue" points="40.9933,-157.713 43.1663,-168.083 47.9342,-158.622 40.9933,-157.713"/>
</g>
<!-- Node3 -->
<g id="node3" class="node"><title>Node3</title>
<g id="a_node3"><a xlink:href="classid_class.html" target="_top" xlink:title="idClass">
<polygon fill="white" stroke="black" points="13.5,-224.5 13.5,-243.5 62.5,-243.5 62.5,-224.5 13.5,-224.5"/>
<text text-anchor="middle" x="38" y="-231.5" font-family="Arial" font-size="10.00">idClass</text>
</a>
</g>
</g>
<!-- Node3&#45;&gt;Node2 -->
<g id="edge2" class="edge"><title>Node3&#45;&gt;Node2</title>
<path fill="none" stroke="midnightblue" d="M31.5276,-214.101C30.8956,-205.136 31.3427,-194.858 32.869,-187.751"/>
<polygon fill="midnightblue" stroke="midnightblue" points="28.0658,-214.622 32.8337,-224.083 35.0067,-213.713 28.0658,-214.622"/>
</g>
<!-- Node3&#45;&gt;Node2 -->
<g id="edge3" class="edge"><title>Node3&#45;&gt;Node2</title>
<path fill="none" stroke="midnightblue" d="M44.4724,-214.101C45.1044,-205.136 44.6573,-194.858 43.131,-187.751"/>
<polygon fill="midnightblue" stroke="midnightblue" points="40.9933,-213.713 43.1663,-224.083 47.9342,-214.622 40.9933,-213.713"/>
</g>
<!-- Node5 -->
<g id="node5" class="node"><title>Node5</title>
<g id="a_node5"><a xlink:href="classid_func_splat.html" target="_top" xlink:title="idFuncSplat">
<polygon fill="white" stroke="black" points="4,-0.5 4,-19.5 72,-19.5 72,-0.5 4,-0.5"/>
<text text-anchor="middle" x="38" y="-7.5" font-family="Arial" font-size="10.00">idFuncSplat</text>
</a>
</g>
</g>
<!-- Node4&#45;&gt;Node5 -->
<g id="edge6" class="edge"><title>Node4&#45;&gt;Node5</title>
<path fill="none" stroke="midnightblue" d="M31.5276,-46.1005C30.8956,-37.1357 31.3427,-26.8579 32.869,-19.7511"/>
<polygon fill="midnightblue" stroke="midnightblue" points="28.0658,-46.6216 32.8337,-56.083 35.0067,-45.7134 28.0658,-46.6216"/>
</g>
<!-- Node4&#45;&gt;Node5 -->
<g id="edge7" class="edge"><title>Node4&#45;&gt;Node5</title>
<path fill="none" stroke="midnightblue" d="M44.4724,-46.1005C45.1044,-37.1357 44.6573,-26.8579 43.131,-19.7511"/>
<polygon fill="midnightblue" stroke="midnightblue" points="40.9933,-45.7134 43.1663,-56.083 47.9342,-46.6216 40.9933,-45.7134"/>
</g>
</g>
</svg>
