<?xml version="1.0" encoding="UTF-8" standalone="no"?>
<!DOCTYPE svg PUBLIC "-//W3C//DTD SVG 1.1//EN"
 "http://www.w3.org/Graphics/SVG/1.1/DTD/svg11.dtd">
<!-- Generated by graphviz version 2.34.0 (20130907.0111)
 -->
<!-- Title: MaterialPreviewView Pages: 1 -->
<!--zoomable 1031 -->
<svg id="main" version="1.1" xmlns="http://www.w3.org/2000/svg" xmlns:xlink="http://www.w3.org/1999/xlink" xml:space="preserve" onload="init(evt)">
<style type="text/css"><![CDATA[
.edge:hover path { stroke: red; }
.edge:hover polygon { stroke: red; fill: red; }
]]></style>
<script type="text/javascript"><![CDATA[
var edges = document.getElementsByTagName('g');
if (edges && edges.length) {
  for (var i=0;i<edges.length;i++) {
    if (edges[i].id.substr(0,4)=='edge') {
      edges[i].setAttribute('class','edge');
    }
  }
}
]]></script>
        <defs>
                <circle id="rim" cx="0" cy="0" r="7"/>
                <circle id="rim2" cx="0" cy="0" r="3.5"/>
                <g id="zoomPlus">
                        <use xlink:href="#rim" fill="#404040">
                                <set attributeName="fill" to="#808080" begin="zoomplus.mouseover" end="zoomplus.mouseout"/>
                        </use>
                        <path d="M-4,0h8M0,-4v8" fill="none" stroke="white" stroke-width="1.5" pointer-events="none"/>
                </g>
                <g id="zoomMin">
                        <use xlink:href="#rim" fill="#404040">
                                <set attributeName="fill" to="#808080" begin="zoomminus.mouseover" end="zoomminus.mouseout"/>
                        </use>
                        <path d="M-4,0h8" fill="none" stroke="white" stroke-width="1.5" pointer-events="none"/>
                </g>
                <g id="dirArrow">
                        <path fill="none" stroke="white" stroke-width="1.5" d="M0,-3.0v7 M-2.5,-0.5L0,-3.0L2.5,-0.5"/>
                </g>
               <g id="resetDef">
                       <use xlink:href="#rim2" fill="#404040">
                               <set attributeName="fill" to="#808080" begin="reset.mouseover" end="reset.mouseout"/>
                       </use>
               </g>
        </defs>

<script type="text/javascript">
var viewWidth = 1270;
var viewHeight = 1031;
var sectionId = 'dynsection-1';
</script>
<script xlink:href="svgpan.js"/>
<svg id="graph" class="graph">
<g id="viewport">
<title>MaterialPreviewView</title>
<polygon fill="white" stroke="white" points="-4,4 -4,-1026.65 1266,-1026.65 1266,4 -4,4"/>
<!-- Node1 -->
<g id="node1" class="node"><title>Node1</title>
<polygon fill="#bfbfbf" stroke="black" points="1156.5,-894.151 1156.5,-913.151 1261.5,-913.151 1261.5,-894.151 1156.5,-894.151"/>
<text text-anchor="middle" x="1209" y="-901.151" font-family="Arial" font-size="10.00">MaterialPreviewView</text>
</g>
<!-- Node2 -->
<g id="node2" class="node"><title>Node2</title>
<polygon fill="white" stroke="#bfbfbf" points="983,-1003.15 983,-1022.15 1027,-1022.15 1027,-1003.15 983,-1003.15"/>
<text text-anchor="middle" x="1005" y="-1010.15" font-family="Arial" font-size="10.00">CView</text>
</g>
<!-- Node2&#45;&gt;Node1 -->
<g id="edge1" class="edge"><title>Node2&#45;&gt;Node1</title>
<path fill="none" stroke="midnightblue" d="M1037.28,-1012.91C1065.43,-1011.83 1107.01,-1006.85 1138,-988.651 1169.82,-969.972 1193.45,-931.145 1203.15,-913.167"/>
<polygon fill="midnightblue" stroke="midnightblue" points="1037.11,-1009.42 1027.2,-1013.16 1037.28,-1016.41 1037.11,-1009.42"/>
</g>
<!-- Node3 -->
<g id="node3" class="node"><title>Node3</title>
<g id="a_node3"><a xlink:href="class_material_view.html" target="_top" xlink:title="MaterialView">
<polygon fill="white" stroke="black" points="969,-692.151 969,-711.151 1041,-711.151 1041,-692.151 969,-692.151"/>
<text text-anchor="middle" x="1005" y="-699.151" font-family="Arial" font-size="10.00">MaterialView</text>
</a>
</g>
</g>
<!-- Node3&#45;&gt;Node1 -->
<g id="edge2" class="edge"><title>Node3&#45;&gt;Node1</title>
<path fill="none" stroke="midnightblue" d="M1023.06,-718.707C1063.93,-759.578 1166.43,-862.084 1198.35,-894.006"/>
<polygon fill="midnightblue" stroke="midnightblue" points="1025.29,-715.99 1015.74,-711.394 1020.34,-720.94 1025.29,-715.99"/>
</g>
<!-- Node4 -->
<g id="node4" class="node"><title>Node4</title>
<g id="a_node4"><a xlink:href="class_material_doc_manager.html" target="_top" xlink:title="MaterialDocManager">
<polygon fill="white" stroke="black" points="708,-633.151 708,-652.151 814,-652.151 814,-633.151 708,-633.151"/>
<text text-anchor="middle" x="761" y="-640.151" font-family="Arial" font-size="10.00">MaterialDocManager</text>
</a>
</g>
</g>
<!-- Node4&#45;&gt;Node3 -->
<g id="edge3" class="edge"><title>Node4&#45;&gt;Node3</title>
<path fill="none" stroke="#9a32cd" stroke-dasharray="5,2" d="M798.784,-630.203C835.624,-619.92 893.139,-609.917 938,-629.651 967.336,-642.556 989.329,-675.65 998.832,-692.089"/>
<polygon fill="#9a32cd" stroke="#9a32cd" points="797.577,-626.909 788.969,-633.086 799.55,-633.625 797.577,-626.909"/>
<text text-anchor="middle" x="891" y="-632.651" font-family="Arial" font-size="10.00"> materialDocManager</text>
</g>
<!-- Node9 -->
<g id="node9" class="node"><title>Node9</title>
<g id="a_node9"><a xlink:href="class_material_doc.html" target="_top" xlink:title="MaterialDoc">
<polygon fill="white" stroke="black" points="971,-783.151 971,-802.151 1039,-802.151 1039,-783.151 971,-783.151"/>
<text text-anchor="middle" x="1005" y="-790.151" font-family="Arial" font-size="10.00">MaterialDoc</text>
</a>
</g>
</g>
<!-- Node4&#45;&gt;Node9 -->
<g id="edge13" class="edge"><title>Node4&#45;&gt;Node9</title>
<path fill="none" stroke="#9a32cd" stroke-dasharray="5,2" d="M824.663,-643.513C868.094,-645.381 921.044,-650.598 938,-664.651 958.128,-681.334 944.64,-697.105 956,-720.651 967.489,-744.465 985.868,-769.566 996.233,-782.929"/>
<polygon fill="#9a32cd" stroke="#9a32cd" points="824.55,-640.006 814.425,-643.125 824.285,-647.001 824.55,-640.006"/>
<text text-anchor="middle" x="891" y="-667.651" font-family="Arial" font-size="10.00"> manager</text>
</g>
<!-- Node5 -->
<g id="node5" class="node"><title>Node5</title>
<g id="a_node5"><a xlink:href="classid_str.html" target="_top" xlink:title="idStr">
<polygon fill="white" stroke="black" points="478.5,-751.151 478.5,-770.151 515.5,-770.151 515.5,-751.151 478.5,-751.151"/>
<text text-anchor="middle" x="497" y="-758.151" font-family="Arial" font-size="10.00">idStr</text>
</a>
</g>
</g>
<!-- Node5&#45;&gt;Node1 -->
<g id="edge20" class="edge"><title>Node5&#45;&gt;Node1</title>
<path fill="none" stroke="#9a32cd" stroke-dasharray="5,2" d="M508.742,-779.015C534.537,-820.933 604.672,-922.586 696,-955.651 874.521,-1020.28 1109.45,-941.787 1184.14,-913.244"/>
<polygon fill="#9a32cd" stroke="#9a32cd" points="511.69,-777.127 503.532,-770.368 505.694,-780.739 511.69,-777.127"/>
<text text-anchor="middle" x="891" y="-982.651" font-family="Arial" font-size="10.00"> currentMaterial</text>
</g>
<!-- Node5&#45;&gt;Node4 -->
<g id="edge4" class="edge"><title>Node5&#45;&gt;Node4</title>
<path fill="none" stroke="#9a32cd" stroke-dasharray="5,2" d="M525.192,-749.764C539.591,-743.102 556.945,-733.562 570,-721.651 580.654,-711.931 576.233,-702.99 588,-694.651 621.685,-670.781 638.499,-683.657 678,-671.651 697.215,-665.811 718.598,-658.212 734.709,-652.257"/>
<polygon fill="#9a32cd" stroke="#9a32cd" points="523.523,-746.675 515.784,-753.911 526.346,-753.08 523.523,-746.675"/>
<text text-anchor="middle" x="633" y="-708.651" font-family="Arial" font-size="10.00"> copyMaterial</text>
<text text-anchor="middle" x="633" y="-697.651" font-family="Arial" font-size="10.00">copyStageMaterial</text>
</g>
<!-- Node5&#45;&gt;Node9 -->
<g id="edge9" class="edge"><title>Node5&#45;&gt;Node9</title>
<path fill="none" stroke="#9a32cd" stroke-dasharray="5,2" d="M525.828,-762.411C612.499,-767.892 877.374,-784.643 970.884,-790.557"/>
<polygon fill="#9a32cd" stroke="#9a32cd" points="525.913,-758.909 515.712,-761.771 525.471,-765.895 525.913,-758.909"/>
<text text-anchor="middle" x="761" y="-784.651" font-family="Arial" font-size="10.00"> name</text>
</g>
<!-- Node21 -->
<g id="node21" class="node"><title>Node21</title>
<g id="a_node21"><a xlink:href="classid_g_l_drawable_view.html" target="_top" xlink:title="idGLDrawableView">
<polygon fill="white" stroke="black" points="956,-526.151 956,-545.151 1054,-545.151 1054,-526.151 956,-526.151"/>
<text text-anchor="middle" x="1005" y="-533.151" font-family="Arial" font-size="10.00">idGLDrawableView</text>
</a>
</g>
</g>
<!-- Node5&#45;&gt;Node21 -->
<g id="edge27" class="edge"><title>Node5&#45;&gt;Node21</title>
<path fill="none" stroke="#9a32cd" stroke-dasharray="5,2" d="M525.617,-758.755C562.577,-755.178 629.131,-745.027 678,-716.651 688.059,-710.81 685.544,-702.748 696,-697.651 793.115,-650.309 849.515,-736.643 938,-674.651 983.289,-642.922 998.49,-571.623 1002.65,-545.492"/>
<polygon fill="#9a32cd" stroke="#9a32cd" points="525.24,-755.274 515.583,-759.633 525.85,-762.248 525.24,-755.274"/>
<text text-anchor="middle" x="761" y="-700.651" font-family="Arial" font-size="10.00"> customModelName</text>
</g>
<!-- Node6 -->
<g id="node6" class="node"><title>Node6</title>
<g id="a_node6"><a xlink:href="classid_list.html" target="_top" xlink:title="idList\&lt; MaterialModifier * \&gt;">
<polygon fill="white" stroke="black" points="430.5,-536.151 430.5,-555.151 563.5,-555.151 563.5,-536.151 430.5,-536.151"/>
<text text-anchor="middle" x="497" y="-543.151" font-family="Arial" font-size="10.00">idList&lt; MaterialModifier * &gt;</text>
</a>
</g>
</g>
<!-- Node6&#45;&gt;Node4 -->
<g id="edge5" class="edge"><title>Node6&#45;&gt;Node4</title>
<path fill="none" stroke="#9a32cd" stroke-dasharray="5,2" d="M565.519,-535.485C602.588,-533.718 647.154,-538.339 678,-563.651 699.193,-581.042 676.68,-603.2 696,-622.651 700.348,-627.028 705.639,-630.451 711.295,-633.125"/>
<polygon fill="#9a32cd" stroke="#9a32cd" points="565.036,-532.009 555.28,-536.141 565.484,-538.994 565.036,-532.009"/>
<text text-anchor="middle" x="633" y="-577.651" font-family="Arial" font-size="10.00"> undoModifiers</text>
<text text-anchor="middle" x="633" y="-566.651" font-family="Arial" font-size="10.00">redoModifiers</text>
</g>
<!-- Node7 -->
<g id="node7" class="node"><title>Node7</title>
<g id="a_node7"><a xlink:href="struct_m_e_stage__t.html" target="_top" xlink:title="MEStage_t">
<polygon fill="white" stroke="black" points="464.5,-693.151 464.5,-712.151 529.5,-712.151 529.5,-693.151 464.5,-693.151"/>
<text text-anchor="middle" x="497" y="-700.151" font-family="Arial" font-size="10.00">MEStage_t</text>
</a>
</g>
</g>
<!-- Node7&#45;&gt;Node4 -->
<g id="edge6" class="edge"><title>Node7&#45;&gt;Node4</title>
<path fill="none" stroke="#9a32cd" stroke-dasharray="5,2" d="M523.301,-688.063C540.874,-678.637 565.148,-666.987 588,-660.651 627.349,-649.742 673.432,-645.344 707.99,-643.617"/>
<polygon fill="#9a32cd" stroke="#9a32cd" points="521.357,-685.138 514.28,-693.023 524.729,-691.272 521.357,-685.138"/>
<text text-anchor="middle" x="633" y="-663.651" font-family="Arial" font-size="10.00"> copyStage</text>
</g>
<!-- Node8 -->
<g id="node8" class="node"><title>Node8</title>
<g id="a_node8"><a xlink:href="classid_dict.html" target="_top" xlink:title="idDict">
<polygon fill="white" stroke="black" points="246.5,-889.151 246.5,-908.151 287.5,-908.151 287.5,-889.151 246.5,-889.151"/>
<text text-anchor="middle" x="267" y="-896.151" font-family="Arial" font-size="10.00">idDict</text>
</a>
</g>
</g>
<!-- Node8&#45;&gt;Node7 -->
<g id="edge7" class="edge"><title>Node8&#45;&gt;Node7</title>
<path fill="none" stroke="#9a32cd" stroke-dasharray="5,2" d="M282.429,-881.064C308.41,-850.148 365.794,-785.215 424,-741.651 439.82,-729.811 459.687,-719.33 474.542,-712.224"/>
<polygon fill="#9a32cd" stroke="#9a32cd" points="279.667,-878.911 275.959,-888.836 285.047,-883.389 279.667,-878.911"/>
<text text-anchor="middle" x="374" y="-816.651" font-family="Arial" font-size="10.00"> stageData</text>
</g>
<!-- Node10 -->
<g id="node10" class="node"><title>Node10</title>
<g id="a_node10"><a xlink:href="struct_m_e_material__t.html" target="_top" xlink:title="MEMaterial_t">
<polygon fill="white" stroke="black" points="460,-908.151 460,-927.151 534,-927.151 534,-908.151 460,-908.151"/>
<text text-anchor="middle" x="497" y="-915.151" font-family="Arial" font-size="10.00">MEMaterial_t</text>
</a>
</g>
</g>
<!-- Node8&#45;&gt;Node10 -->
<g id="edge12" class="edge"><title>Node8&#45;&gt;Node10</title>
<path fill="none" stroke="#9a32cd" stroke-dasharray="5,2" d="M297.9,-901.143C339.542,-904.613 414.918,-910.894 459.721,-914.628"/>
<polygon fill="#9a32cd" stroke="#9a32cd" points="298.091,-897.647 287.835,-900.304 297.509,-904.622 298.091,-897.647"/>
<text text-anchor="middle" x="374" y="-912.651" font-family="Arial" font-size="10.00"> materialData</text>
</g>
<!-- Node9&#45;&gt;Node4 -->
<g id="edge8" class="edge"><title>Node9&#45;&gt;Node4</title>
<path fill="none" stroke="#9a32cd" stroke-dasharray="5,2" d="M982.575,-777.017C938.936,-745.243 842.47,-675.381 826,-666.651 815.41,-661.038 803.214,-656.119 792.328,-652.219"/>
<polygon fill="#9a32cd" stroke="#9a32cd" points="980.655,-779.949 990.798,-783.009 984.778,-774.292 980.655,-779.949"/>
<text text-anchor="middle" x="891" y="-747.651" font-family="Arial" font-size="10.00"> currentMaterial</text>
</g>
<!-- Node10&#45;&gt;Node9 -->
<g id="edge10" class="edge"><title>Node10&#45;&gt;Node9</title>
<path fill="none" stroke="#9a32cd" stroke-dasharray="5,2" d="M544.271,-915.121C653.79,-908.992 921.018,-893.155 938,-883.651 971.38,-864.97 992.335,-821.552 1000.32,-802.226"/>
<polygon fill="#9a32cd" stroke="#9a32cd" points="543.968,-911.632 534.179,-915.683 544.358,-918.622 543.968,-911.632"/>
<text text-anchor="middle" x="761" y="-907.651" font-family="Arial" font-size="10.00"> editMaterial</text>
</g>
<!-- Node11 -->
<g id="node11" class="node"><title>Node11</title>
<g id="a_node11"><a xlink:href="classid_list.html" target="_top" xlink:title="idList\&lt; MEStage_t * \&gt;">
<polygon fill="white" stroke="black" points="210.5,-942.151 210.5,-961.151 323.5,-961.151 323.5,-942.151 210.5,-942.151"/>
<text text-anchor="middle" x="267" y="-949.151" font-family="Arial" font-size="10.00">idList&lt; MEStage_t * &gt;</text>
</a>
</g>
</g>
<!-- Node11&#45;&gt;Node10 -->
<g id="edge11" class="edge"><title>Node11&#45;&gt;Node10</title>
<path fill="none" stroke="#9a32cd" stroke-dasharray="5,2" d="M333.716,-941.851C374.816,-935.722 426.187,-928.062 459.989,-923.021"/>
<polygon fill="#9a32cd" stroke="#9a32cd" points="333.149,-938.397 323.775,-943.334 334.182,-945.32 333.149,-938.397"/>
<text text-anchor="middle" x="374" y="-942.651" font-family="Arial" font-size="10.00"> stages</text>
</g>
<!-- Node12 -->
<g id="node12" class="node"><title>Node12</title>
<g id="a_node12"><a xlink:href="class_source_modify_owner.html" target="_top" xlink:title="SourceModifyOwner">
<polygon fill="white" stroke="black" points="709,-803.151 709,-822.151 813,-822.151 813,-803.151 709,-803.151"/>
<text text-anchor="middle" x="761" y="-810.151" font-family="Arial" font-size="10.00">SourceModifyOwner</text>
</a>
</g>
</g>
<!-- Node12&#45;&gt;Node9 -->
<g id="edge14" class="edge"><title>Node12&#45;&gt;Node9</title>
<path fill="none" stroke="#9a32cd" stroke-dasharray="5,2" d="M823.073,-807.604C869.964,-803.728 932.918,-798.526 970.862,-795.39"/>
<polygon fill="#9a32cd" stroke="#9a32cd" points="822.704,-804.122 813.026,-808.434 823.281,-811.098 822.704,-804.122"/>
<text text-anchor="middle" x="891" y="-808.651" font-family="Arial" font-size="10.00"> sourceModifyOwner</text>
</g>
<!-- Node13 -->
<g id="node13" class="node"><title>Node13</title>
<g id="a_node13"><a xlink:href="classid_material.html" target="_top" xlink:title="idMaterial">
<polygon fill="white" stroke="black" points="237.5,-381.151 237.5,-400.151 296.5,-400.151 296.5,-381.151 237.5,-381.151"/>
<text text-anchor="middle" x="267" y="-388.151" font-family="Arial" font-size="10.00">idMaterial</text>
</a>
</g>
</g>
<!-- Node13&#45;&gt;Node9 -->
<g id="edge15" class="edge"><title>Node13&#45;&gt;Node9</title>
<path fill="none" stroke="#9a32cd" stroke-dasharray="5,2" d="M269.503,-410.502C275.518,-475.058 303.743,-680.57 424,-779.651 563.041,-894.209 646.061,-840.466 826,-831.651 875.957,-829.204 889.532,-833.004 938,-820.651 954.765,-816.378 972.782,-808.49 985.749,-802.173"/>
<polygon fill="#9a32cd" stroke="#9a32cd" points="272.983,-410.118 268.645,-400.452 266.008,-410.714 272.983,-410.118"/>
<text text-anchor="middle" x="633" y="-854.651" font-family="Arial" font-size="10.00"> renderMaterial</text>
</g>
<!-- Node13&#45;&gt;Node21 -->
<g id="edge48" class="edge"><title>Node13&#45;&gt;Node21</title>
<path fill="none" stroke="#9a32cd" stroke-dasharray="5,2" d="M293.651,-405.099C323.823,-421.346 375.908,-447.097 424,-459.651 597.644,-504.979 648.078,-474.183 826,-497.651 876.055,-504.254 888.774,-505.427 938,-516.651 949.742,-519.328 962.492,-522.85 973.627,-526.134"/>
<polygon fill="#9a32cd" stroke="#9a32cd" points="295.112,-401.908 284.658,-400.186 291.756,-408.052 295.112,-401.908"/>
<text text-anchor="middle" x="633" y="-490.651" font-family="Arial" font-size="10.00"> material</text>
</g>
<!-- Node27 -->
<g id="node27" class="node"><title>Node27</title>
<g id="a_node27"><a xlink:href="structrender_entity__s.html" target="_top" xlink:title="renderEntity_s">
<polygon fill="white" stroke="black" points="721,-249.151 721,-268.151 801,-268.151 801,-249.151 721,-249.151"/>
<text text-anchor="middle" x="761" y="-256.151" font-family="Arial" font-size="10.00">renderEntity_s</text>
</a>
</g>
</g>
<!-- Node13&#45;&gt;Node27 -->
<g id="edge46" class="edge"><title>Node13&#45;&gt;Node27</title>
<path fill="none" stroke="#9a32cd" stroke-dasharray="5,2" d="M307.197,-391.711C382.814,-392.232 552.439,-385.909 678,-325.651 708.165,-311.175 736.885,-283.418 750.968,-268.581"/>
<polygon fill="#9a32cd" stroke="#9a32cd" points="306.779,-388.206 296.739,-391.59 306.698,-395.206 306.779,-388.206"/>
<text text-anchor="middle" x="497" y="-401.651" font-family="Arial" font-size="10.00"> customShader</text>
<text text-anchor="middle" x="497" y="-390.651" font-family="Arial" font-size="10.00">referenceShader</text>
</g>
<!-- Node31 -->
<g id="node31" class="node"><title>Node31</title>
<g id="a_node31"><a xlink:href="structrender_view__s.html" target="_top" xlink:title="renderView_s">
<polygon fill="white" stroke="black" points="459.5,-203.151 459.5,-222.151 534.5,-222.151 534.5,-203.151 459.5,-203.151"/>
<text text-anchor="middle" x="497" y="-210.151" font-family="Arial" font-size="10.00">renderView_s</text>
</a>
</g>
</g>
<!-- Node13&#45;&gt;Node31 -->
<g id="edge40" class="edge"><title>Node13&#45;&gt;Node31</title>
<path fill="none" stroke="#9a32cd" stroke-dasharray="5,2" d="M305.64,-377.815C346.206,-363.943 405.142,-343.666 406,-342.651 436.862,-306.168 392.902,-272.933 424,-236.651 432.918,-226.247 446.473,-220.335 459.425,-216.983"/>
<polygon fill="#9a32cd" stroke="#9a32cd" points="304.354,-374.555 296.023,-381.101 306.618,-381.179 304.354,-374.555"/>
<text text-anchor="middle" x="374" y="-367.651" font-family="Arial" font-size="10.00"> globalMaterial</text>
</g>
<!-- Node14 -->
<g id="node14" class="node"><title>Node14</title>
<g id="a_node14"><a xlink:href="classid_decl.html" target="_top" xlink:title="idDecl">
<polygon fill="white" stroke="black" points="128,-351.151 128,-370.151 172,-370.151 172,-351.151 128,-351.151"/>
<text text-anchor="middle" x="150" y="-358.151" font-family="Arial" font-size="10.00">idDecl</text>
</a>
</g>
</g>
<!-- Node14&#45;&gt;Node13 -->
<g id="edge16" class="edge"><title>Node14&#45;&gt;Node13</title>
<path fill="none" stroke="midnightblue" d="M182.186,-368.787C199.344,-373.263 220.487,-378.778 237.245,-383.15"/>
<polygon fill="midnightblue" stroke="midnightblue" points="182.652,-365.291 172.093,-366.154 180.885,-372.065 182.652,-365.291"/>
</g>
<!-- Node29 -->
<g id="node29" class="node"><title>Node29</title>
<g id="a_node29"><a xlink:href="classid_decl_skin.html" target="_top" xlink:title="idDeclSkin">
<polygon fill="white" stroke="black" points="342.5,-322.151 342.5,-341.151 405.5,-341.151 405.5,-322.151 342.5,-322.151"/>
<text text-anchor="middle" x="374" y="-329.151" font-family="Arial" font-size="10.00">idDeclSkin</text>
</a>
</g>
</g>
<!-- Node14&#45;&gt;Node29 -->
<g id="edge35" class="edge"><title>Node14&#45;&gt;Node29</title>
<path fill="none" stroke="midnightblue" d="M182.334,-356.558C224.798,-351.011 300.143,-341.169 342.285,-335.663"/>
<polygon fill="midnightblue" stroke="midnightblue" points="181.749,-353.105 172.286,-357.87 182.655,-360.046 181.749,-353.105"/>
</g>
<!-- Node15 -->
<g id="node15" class="node"><title>Node15</title>
<g id="a_node15"><a xlink:href="classid_decl_base.html" target="_top" xlink:title="idDeclBase">
<polygon fill="white" stroke="black" points="0,-351.151 0,-370.151 66,-370.151 66,-351.151 0,-351.151"/>
<text text-anchor="middle" x="33" y="-358.151" font-family="Arial" font-size="10.00">idDeclBase</text>
</a>
</g>
</g>
<!-- Node15&#45;&gt;Node14 -->
<g id="edge17" class="edge"><title>Node15&#45;&gt;Node14</title>
<path fill="none" stroke="#9a32cd" stroke-dasharray="5,2" d="M76.0643,-360.651C93.5984,-360.651 113.201,-360.651 127.664,-360.651"/>
<polygon fill="#9a32cd" stroke="#9a32cd" points="76.0339,-357.151 66.0339,-360.651 76.0339,-364.151 76.0339,-357.151"/>
<text text-anchor="middle" x="97" y="-363.651" font-family="Arial" font-size="10.00"> base</text>
</g>
<!-- Node16 -->
<g id="node16" class="node"><title>Node16</title>
<g id="a_node16"><a xlink:href="classid_hash_table.html" target="_top" xlink:title="idHashTable\&lt; MaterialDoc * \&gt;">
<polygon fill="white" stroke="black" points="424,-617.151 424,-636.151 570,-636.151 570,-617.151 424,-617.151"/>
<text text-anchor="middle" x="497" y="-624.151" font-family="Arial" font-size="10.00">idHashTable&lt; MaterialDoc * &gt;</text>
</a>
</g>
</g>
<!-- Node16&#45;&gt;Node4 -->
<g id="edge18" class="edge"><title>Node16&#45;&gt;Node4</title>
<path fill="none" stroke="#9a32cd" stroke-dasharray="5,2" d="M580.625,-623.322C611.272,-622.962 646.281,-623.585 678,-626.651 691.571,-627.963 706.232,-630.468 719.352,-633.114"/>
<polygon fill="#9a32cd" stroke="#9a32cd" points="580.355,-619.825 570.411,-623.479 580.463,-626.825 580.355,-619.825"/>
<text text-anchor="middle" x="633" y="-629.651" font-family="Arial" font-size="10.00"> inProgressMaterials</text>
</g>
<!-- Node17 -->
<g id="node17" class="node"><title>Node17</title>
<g id="a_node17"><a xlink:href="classid_list.html" target="_top" xlink:title="idList\&lt; MaterialView * \&gt;">
<polygon fill="white" stroke="black" points="437,-579.151 437,-598.151 557,-598.151 557,-579.151 437,-579.151"/>
<text text-anchor="middle" x="497" y="-586.151" font-family="Arial" font-size="10.00">idList&lt; MaterialView * &gt;</text>
</a>
</g>
</g>
<!-- Node17&#45;&gt;Node4 -->
<g id="edge19" class="edge"><title>Node17&#45;&gt;Node4</title>
<path fill="none" stroke="#9a32cd" stroke-dasharray="5,2" d="M567.544,-587.598C601.883,-589.243 643.284,-594.549 678,-608.651 687.39,-612.465 687.02,-617.953 696,-622.651 703.943,-626.806 712.897,-630.271 721.536,-633.085"/>
<polygon fill="#9a32cd" stroke="#9a32cd" points="567.256,-584.085 557.129,-587.2 566.988,-591.08 567.256,-584.085"/>
<text text-anchor="middle" x="633" y="-611.651" font-family="Arial" font-size="10.00"> materialViews</text>
</g>
<!-- Node18 -->
<g id="node18" class="node"><title>Node18</title>
<g id="a_node18"><a xlink:href="classid_g_l_widget.html" target="_top" xlink:title="idGLWidget">
<polygon fill="white" stroke="black" points="971,-894.151 971,-913.151 1039,-913.151 1039,-894.151 971,-894.151"/>
<text text-anchor="middle" x="1005" y="-901.151" font-family="Arial" font-size="10.00">idGLWidget</text>
</a>
</g>
</g>
<!-- Node18&#45;&gt;Node1 -->
<g id="edge21" class="edge"><title>Node18&#45;&gt;Node1</title>
<path fill="none" stroke="#9a32cd" stroke-dasharray="5,2" d="M1049.54,-903.651C1080.89,-903.651 1123.33,-903.651 1156.39,-903.651"/>
<polygon fill="#9a32cd" stroke="#9a32cd" points="1049.36,-900.151 1039.36,-903.651 1049.36,-907.151 1049.36,-900.151"/>
<text text-anchor="middle" x="1105" y="-906.651" font-family="Arial" font-size="10.00"> renderWindow</text>
</g>
<!-- Node19 -->
<g id="node19" class="node"><title>Node19</title>
<polygon fill="white" stroke="#bfbfbf" points="739,-927.151 739,-946.151 783,-946.151 783,-927.151 739,-927.151"/>
<text text-anchor="middle" x="761" y="-934.151" font-family="Arial" font-size="10.00">CWnd</text>
</g>
<!-- Node19&#45;&gt;Node18 -->
<g id="edge22" class="edge"><title>Node19&#45;&gt;Node18</title>
<path fill="none" stroke="midnightblue" d="M792.967,-932.428C838.614,-926.204 923.621,-914.612 970.615,-908.204"/>
<polygon fill="midnightblue" stroke="midnightblue" points="792.488,-928.961 783.053,-933.78 793.434,-935.897 792.488,-928.961"/>
</g>
<!-- Node20 -->
<g id="node20" class="node"><title>Node20</title>
<g id="a_node20"><a xlink:href="classid_g_l_drawable.html" target="_top" xlink:title="idGLDrawable">
<polygon fill="white" stroke="black" points="722.5,-718.151 722.5,-737.151 799.5,-737.151 799.5,-718.151 722.5,-718.151"/>
<text text-anchor="middle" x="761" y="-725.151" font-family="Arial" font-size="10.00">idGLDrawable</text>
</a>
</g>
</g>
<!-- Node20&#45;&gt;Node18 -->
<g id="edge23" class="edge"><title>Node20&#45;&gt;Node18</title>
<path fill="none" stroke="#9a32cd" stroke-dasharray="5,2" d="M809.217,-739.265C815.496,-742.448 821.356,-746.499 826,-751.651 847.22,-775.192 824.227,-795.883 844,-820.651 876.507,-861.37 934.411,-884.232 970.925,-895.241"/>
<polygon fill="#9a32cd" stroke="#9a32cd" points="810.379,-735.954 799.812,-735.194 807.599,-742.378 810.379,-735.954"/>
<text text-anchor="middle" x="891" y="-884.651" font-family="Arial" font-size="10.00"> drawable</text>
</g>
<!-- Node20&#45;&gt;Node21 -->
<g id="edge25" class="edge"><title>Node20&#45;&gt;Node21</title>
<path fill="none" stroke="midnightblue" d="M796.592,-740.326C834.935,-751.973 896.79,-763.353 938,-733.651 940.035,-732.185 987.958,-585.027 1000.84,-545.39"/>
<polygon fill="midnightblue" stroke="midnightblue" points="797.499,-736.941 786.908,-737.226 795.365,-743.608 797.499,-736.941"/>
</g>
<!-- Node21&#45;&gt;Node1 -->
<g id="edge24" class="edge"><title>Node21&#45;&gt;Node1</title>
<path fill="none" stroke="#9a32cd" stroke-dasharray="5,2" d="M1017.66,-554.124C1041.36,-591.935 1096.44,-681.123 1138,-758.651 1164.81,-808.663 1193.12,-870.535 1203.69,-894.01"/>
<polygon fill="#9a32cd" stroke="#9a32cd" points="1020.37,-551.867 1012.09,-545.264 1014.45,-555.593 1020.37,-551.867"/>
<text text-anchor="middle" x="1105" y="-761.651" font-family="Arial" font-size="10.00"> renderedView</text>
</g>
<!-- Node22 -->
<g id="node22" class="node"><title>Node22</title>
<g id="a_node22"><a xlink:href="classid_list.html" target="_top" xlink:title="idList\&lt; idGLDrawableView\l::lightInfo_t \&gt;">
<polygon fill="white" stroke="black" points="696,-583.651 696,-613.651 826,-613.651 826,-583.651 696,-583.651"/>
<text text-anchor="start" x="704" y="-601.651" font-family="Arial" font-size="10.00">idList&lt; idGLDrawableView</text>
<text text-anchor="middle" x="761" y="-590.651" font-family="Arial" font-size="10.00">::lightInfo_t &gt;</text>
</a>
</g>
</g>
<!-- Node22&#45;&gt;Node21 -->
<g id="edge26" class="edge"><title>Node22&#45;&gt;Node21</title>
<path fill="none" stroke="#9a32cd" stroke-dasharray="5,2" d="M836.408,-587.34C868.09,-581.631 905.223,-573.746 938,-563.651 954.059,-558.705 971.535,-551.189 984.467,-545.189"/>
<polygon fill="#9a32cd" stroke="#9a32cd" points="835.567,-583.934 826.326,-589.117 836.782,-590.828 835.567,-583.934"/>
<text text-anchor="middle" x="891" y="-588.651" font-family="Arial" font-size="10.00"> viewLights</text>
</g>
<!-- Node23 -->
<g id="node23" class="node"><title>Node23</title>
<g id="a_node23"><a xlink:href="classid_render_world.html" target="_top" xlink:title="idRenderWorld">
<polygon fill="white" stroke="black" points="721,-545.151 721,-564.151 801,-564.151 801,-545.151 721,-545.151"/>
<text text-anchor="middle" x="761" y="-552.151" font-family="Arial" font-size="10.00">idRenderWorld</text>
</a>
</g>
</g>
<!-- Node23&#45;&gt;Node21 -->
<g id="edge28" class="edge"><title>Node23&#45;&gt;Node21</title>
<path fill="none" stroke="#9a32cd" stroke-dasharray="5,2" d="M811.193,-550.789C853.38,-547.477 913.815,-542.732 955.732,-539.441"/>
<polygon fill="#9a32cd" stroke="#9a32cd" points="810.846,-547.305 801.15,-551.577 811.394,-554.284 810.846,-547.305"/>
<text text-anchor="middle" x="891" y="-551.651" font-family="Arial" font-size="10.00"> world</text>
</g>
<!-- Node24 -->
<g id="node24" class="node"><title>Node24</title>
<g id="a_node24"><a xlink:href="classid_render_model.html" target="_top" xlink:title="idRenderModel">
<polygon fill="white" stroke="black" points="456.5,-431.151 456.5,-450.151 537.5,-450.151 537.5,-431.151 456.5,-431.151"/>
<text text-anchor="middle" x="497" y="-438.151" font-family="Arial" font-size="10.00">idRenderModel</text>
</a>
</g>
</g>
<!-- Node24&#45;&gt;Node21 -->
<g id="edge29" class="edge"><title>Node24&#45;&gt;Node21</title>
<path fill="none" stroke="#9a32cd" stroke-dasharray="5,2" d="M548.014,-438.508C648.449,-434.987 870.796,-431.364 938,-464.651 966.201,-478.62 988.419,-510.065 998.347,-526.002"/>
<polygon fill="#9a32cd" stroke="#9a32cd" points="547.687,-435.017 537.822,-438.88 547.943,-442.013 547.687,-435.017"/>
<text text-anchor="middle" x="761" y="-445.651" font-family="Arial" font-size="10.00"> worldModel</text>
</g>
<!-- Node24&#45;&gt;Node27 -->
<g id="edge42" class="edge"><title>Node24&#45;&gt;Node27</title>
<path fill="none" stroke="#9a32cd" stroke-dasharray="5,2" d="M539.641,-428.33C554.832,-423.912 572.166,-418.96 588,-414.651 627.837,-403.809 644.744,-416.116 678,-391.651 722.794,-358.699 748.43,-293.235 756.867,-268.46"/>
<polygon fill="#9a32cd" stroke="#9a32cd" points="538.623,-424.981 530.005,-431.143 540.586,-431.7 538.623,-424.981"/>
<text text-anchor="middle" x="633" y="-417.651" font-family="Arial" font-size="10.00"> hModel</text>
</g>
<!-- Node25 -->
<g id="node25" class="node"><title>Node25</title>
<g id="a_node25"><a xlink:href="classid_angles.html" target="_top" xlink:title="idAngles">
<polygon fill="white" stroke="black" points="734,-507.151 734,-526.151 788,-526.151 788,-507.151 734,-507.151"/>
<text text-anchor="middle" x="761" y="-514.151" font-family="Arial" font-size="10.00">idAngles</text>
</a>
</g>
</g>
<!-- Node25&#45;&gt;Node21 -->
<g id="edge30" class="edge"><title>Node25&#45;&gt;Node21</title>
<path fill="none" stroke="#9a32cd" stroke-dasharray="5,2" d="M798.68,-517.893C834.327,-519.299 889.963,-522.018 938,-526.651 943.755,-527.206 949.78,-527.888 955.75,-528.625"/>
<polygon fill="#9a32cd" stroke="#9a32cd" points="798.415,-514.381 788.289,-517.498 798.149,-521.376 798.415,-514.381"/>
<text text-anchor="middle" x="891" y="-529.651" font-family="Arial" font-size="10.00"> viewRotation</text>
</g>
<!-- Node26 -->
<g id="node26" class="node"><title>Node26</title>
<g id="a_node26"><a xlink:href="classid_vec3.html" target="_top" xlink:title="idVec3">
<polygon fill="white" stroke="black" points="243.5,-126.151 243.5,-145.151 290.5,-145.151 290.5,-126.151 243.5,-126.151"/>
<text text-anchor="middle" x="267" y="-133.151" font-family="Arial" font-size="10.00">idVec3</text>
</a>
</g>
</g>
<!-- Node26&#45;&gt;Node21 -->
<g id="edge31" class="edge"><title>Node26&#45;&gt;Node21</title>
<path fill="none" stroke="#9a32cd" stroke-dasharray="5,2" d="M285.372,-119.302C312.476,-95.008 367.593,-50.3454 424,-32.6511 531.727,1.14178 574.986,17.5565 678,-28.6511 836.548,-99.7689 852.766,-169.223 938,-320.651 978.985,-393.466 997.569,-494.784 1002.56,-526.069"/>
<polygon fill="#9a32cd" stroke="#9a32cd" points="282.913,-116.807 277.889,-126.135 287.633,-121.976 282.913,-116.807"/>
<text text-anchor="middle" x="633" y="-31.6511" font-family="Arial" font-size="10.00"> viewOrigin</text>
</g>
<!-- Node26&#45;&gt;Node27 -->
<g id="edge44" class="edge"><title>Node26&#45;&gt;Node27</title>
<path fill="none" stroke="#9a32cd" stroke-dasharray="5,2" d="M300.999,-130.43C374.611,-120.539 555.397,-106.146 678,-179.651 709.874,-198.761 739.156,-232.408 752.464,-248.935"/>
<polygon fill="#9a32cd" stroke="#9a32cd" points="300.35,-126.987 290.936,-131.845 301.326,-133.918 300.35,-126.987"/>
<text text-anchor="middle" x="497" y="-140.651" font-family="Arial" font-size="10.00"> origin</text>
</g>
<!-- Node26&#45;&gt;Node31 -->
<g id="edge39" class="edge"><title>Node26&#45;&gt;Node31</title>
<path fill="none" stroke="#9a32cd" stroke-dasharray="5,2" d="M300.27,-148.705C331.594,-161.124 380.63,-179.903 424,-193.651 435.338,-197.245 447.825,-200.71 459.172,-203.674"/>
<polygon fill="#9a32cd" stroke="#9a32cd" points="301.337,-145.363 290.752,-144.911 298.745,-151.865 301.337,-145.363"/>
<text text-anchor="middle" x="374" y="-189.651" font-family="Arial" font-size="10.00"> vieworg</text>
</g>
<!-- Node27&#45;&gt;Node21 -->
<g id="edge32" class="edge"><title>Node27&#45;&gt;Node21</title>
<path fill="none" stroke="#9a32cd" stroke-dasharray="5,2" d="M784.075,-274.232C819.76,-300.228 890.872,-355.464 938,-414.651 967.662,-451.903 991.09,-504.355 1000.05,-525.867"/>
<polygon fill="#9a32cd" stroke="#9a32cd" points="785.96,-271.277 775.802,-268.269 781.867,-276.955 785.96,-271.277"/>
<text text-anchor="middle" x="891" y="-417.651" font-family="Arial" font-size="10.00"> worldEntity</text>
</g>
<!-- Node27&#45;&gt;Node27 -->
<g id="edge45" class="edge"><title>Node27&#45;&gt;Node27</title>
<path fill="none" stroke="#9a32cd" stroke-dasharray="5,2" d="M737.191,-277.68C738.489,-282.779 746.426,-286.651 761,-286.651 783.75,-286.651 790.326,-277.216 780.729,-268.408"/>
<polygon fill="#9a32cd" stroke="#9a32cd" points="740.447,-278.971 741.271,-268.408 734.04,-276.151 740.447,-278.971"/>
<text text-anchor="middle" x="761" y="-289.651" font-family="Arial" font-size="10.00"> callback</text>
</g>
<!-- Node28 -->
<g id="node28" class="node"><title>Node28</title>
<g id="a_node28"><a xlink:href="classid_mat3.html" target="_top" xlink:title="idMat3">
<polygon fill="white" stroke="black" points="244,-231.151 244,-250.151 290,-250.151 290,-231.151 244,-231.151"/>
<text text-anchor="middle" x="267" y="-238.151" font-family="Arial" font-size="10.00">idMat3</text>
</a>
</g>
</g>
<!-- Node28&#45;&gt;Node27 -->
<g id="edge33" class="edge"><title>Node28&#45;&gt;Node27</title>
<path fill="none" stroke="#9a32cd" stroke-dasharray="5,2" d="M300.32,-242.542C313.275,-243.263 328.343,-244.053 342,-244.651 481.278,-250.747 646.764,-255.574 720.802,-257.607"/>
<polygon fill="#9a32cd" stroke="#9a32cd" points="300.194,-239.03 290.013,-241.959 299.799,-246.019 300.194,-239.03"/>
<text text-anchor="middle" x="497" y="-256.651" font-family="Arial" font-size="10.00"> axis</text>
</g>
<!-- Node28&#45;&gt;Node31 -->
<g id="edge38" class="edge"><title>Node28&#45;&gt;Node31</title>
<path fill="none" stroke="#9a32cd" stroke-dasharray="5,2" d="M300.241,-236.692C342.224,-231.536 415.426,-222.546 459.434,-217.142"/>
<polygon fill="#9a32cd" stroke="#9a32cd" points="299.776,-233.222 290.277,-237.915 300.629,-240.17 299.776,-233.222"/>
<text text-anchor="middle" x="374" y="-234.651" font-family="Arial" font-size="10.00"> viewaxis</text>
</g>
<!-- Node29&#45;&gt;Node27 -->
<g id="edge34" class="edge"><title>Node29&#45;&gt;Node27</title>
<path fill="none" stroke="#9a32cd" stroke-dasharray="5,2" d="M415.579,-332.761C474.749,-333.217 587.508,-329.66 678,-300.651 702.675,-292.741 728.958,-278.023 744.932,-268.281"/>
<polygon fill="#9a32cd" stroke="#9a32cd" points="415.559,-329.261 405.517,-332.641 415.475,-336.261 415.559,-329.261"/>
<text text-anchor="middle" x="497" y="-336.651" font-family="Arial" font-size="10.00"> customSkin</text>
</g>
<!-- Node30 -->
<g id="node30" class="node"><title>Node30</title>
<g id="a_node30"><a xlink:href="classid_joint_mat.html" target="_top" xlink:title="idJointMat">
<polygon fill="white" stroke="black" points="466.5,-165.151 466.5,-184.151 527.5,-184.151 527.5,-165.151 466.5,-165.151"/>
<text text-anchor="middle" x="497" y="-172.151" font-family="Arial" font-size="10.00">idJointMat</text>
</a>
</g>
</g>
<!-- Node30&#45;&gt;Node27 -->
<g id="edge36" class="edge"><title>Node30&#45;&gt;Node27</title>
<path fill="none" stroke="#9a32cd" stroke-dasharray="5,2" d="M537.627,-176.893C574.937,-180.057 631.829,-187.627 678,-205.651 705.475,-216.377 733.483,-237.007 748.607,-249.123"/>
<polygon fill="#9a32cd" stroke="#9a32cd" points="537.891,-173.403 527.648,-176.113 537.345,-180.382 537.891,-173.403"/>
<text text-anchor="middle" x="633" y="-208.651" font-family="Arial" font-size="10.00"> joints</text>
</g>
<!-- Node31&#45;&gt;Node27 -->
<g id="edge37" class="edge"><title>Node31&#45;&gt;Node27</title>
<path fill="none" stroke="#9a32cd" stroke-dasharray="5,2" d="M544.861,-215.797C581.407,-218.808 633.293,-224.307 678,-233.651 696.647,-237.548 717.147,-243.798 732.986,-249.074"/>
<polygon fill="#9a32cd" stroke="#9a32cd" points="544.754,-212.278 534.509,-214.977 544.201,-219.256 544.754,-212.278"/>
<text text-anchor="middle" x="633" y="-236.651" font-family="Arial" font-size="10.00"> remoteRenderView</text>
</g>
<!-- Node32 -->
<g id="node32" class="node"><title>Node32</title>
<g id="a_node32"><a xlink:href="classid_sound_emitter.html" target="_top" xlink:title="idSoundEmitter">
<polygon fill="white" stroke="black" points="455.5,-80.1511 455.5,-99.1511 538.5,-99.1511 538.5,-80.1511 455.5,-80.1511"/>
<text text-anchor="middle" x="497" y="-87.1511" font-family="Arial" font-size="10.00">idSoundEmitter</text>
</a>
</g>
</g>
<!-- Node32&#45;&gt;Node27 -->
<g id="edge41" class="edge"><title>Node32&#45;&gt;Node27</title>
<path fill="none" stroke="#9a32cd" stroke-dasharray="5,2" d="M548.771,-83.7473C587.363,-81.8857 640.095,-85.2444 678,-110.651 728.997,-144.833 751.38,-221.847 757.88,-248.974"/>
<polygon fill="#9a32cd" stroke="#9a32cd" points="548.552,-80.2541 538.785,-84.3594 548.981,-87.241 548.552,-80.2541"/>
<text text-anchor="middle" x="633" y="-113.651" font-family="Arial" font-size="10.00"> referenceSound</text>
</g>
<!-- Node33 -->
<g id="node33" class="node"><title>Node33</title>
<g id="a_node33"><a xlink:href="classid_bounds.html" target="_top" xlink:title="idBounds">
<polygon fill="white" stroke="black" points="468.5,-42.1511 468.5,-61.1511 525.5,-61.1511 525.5,-42.1511 468.5,-42.1511"/>
<text text-anchor="middle" x="497" y="-49.1511" font-family="Arial" font-size="10.00">idBounds</text>
</a>
</g>
</g>
<!-- Node33&#45;&gt;Node27 -->
<g id="edge43" class="edge"><title>Node33&#45;&gt;Node27</title>
<path fill="none" stroke="#9a32cd" stroke-dasharray="5,2" d="M535.68,-45.0967C575.03,-40.4237 636.668,-39.4801 678,-69.6511 740.113,-114.991 755.733,-217.483 759.143,-249.149"/>
<polygon fill="#9a32cd" stroke="#9a32cd" points="535.148,-41.6364 525.694,-46.4193 536.067,-48.5758 535.148,-41.6364"/>
<text text-anchor="middle" x="633" y="-72.6511" font-family="Arial" font-size="10.00"> bounds</text>
</g>
<!-- Node34 -->
<g id="node34" class="node"><title>Node34</title>
<g id="a_node34"><a xlink:href="classid_user_interface.html" target="_top" xlink:title="idUserInterface">
<polygon fill="white" stroke="black" points="456.5,-288.151 456.5,-307.151 537.5,-307.151 537.5,-288.151 456.5,-288.151"/>
<text text-anchor="middle" x="497" y="-295.151" font-family="Arial" font-size="10.00">idUserInterface</text>
</a>
</g>
</g>
<!-- Node34&#45;&gt;Node27 -->
<g id="edge47" class="edge"><title>Node34&#45;&gt;Node27</title>
<path fill="none" stroke="#9a32cd" stroke-dasharray="5,2" d="M548.015,-291.129C584.169,-286.311 634.157,-279.437 678,-272.651 691.987,-270.486 707.282,-267.927 720.833,-265.593"/>
<polygon fill="#9a32cd" stroke="#9a32cd" points="547.185,-287.708 537.733,-292.493 548.106,-294.647 547.185,-287.708"/>
<text text-anchor="middle" x="633" y="-288.651" font-family="Arial" font-size="10.00"> gui</text>
</g>
</g>
</svg>
        <g id="navigator" transform="translate(0 0)" fill="#404254">
                <rect fill="#f2f5e9" fill-opacity="0.5" stroke="#606060" stroke-width=".5" x="0" y="0" width="60" height="60"/>
                <use id="zoomplus" xlink:href="#zoomPlus" x="17" y="9" onmousedown="handleZoom(evt,'in')"/>
                <use id="zoomminus" xlink:href="#zoomMin" x="42" y="9" onmousedown="handleZoom(evt,'out')"/>
                <use id="reset" xlink:href="#resetDef" x="30" y="36" onmousedown="handleReset()"/>
                <g id="arrowUp" xlink:href="#dirArrow" transform="translate(30 24)" onmousedown="handlePan(0,-1)">
                  <use xlink:href="#rim" fill="#404040">
                        <set attributeName="fill" to="#808080" begin="arrowUp.mouseover" end="arrowUp.mouseout"/>
                  </use>
                  <path fill="none" stroke="white" stroke-width="1.5" d="M0,-3.0v7 M-2.5,-0.5L0,-3.0L2.5,-0.5"/>
                </g>
                <g id="arrowRight" xlink:href="#dirArrow" transform="rotate(90) translate(36 -43)" onmousedown="handlePan(1,0)">
                  <use xlink:href="#rim" fill="#404040">
                        <set attributeName="fill" to="#808080" begin="arrowRight.mouseover" end="arrowRight.mouseout"/>
                  </use>
                  <path fill="none" stroke="white" stroke-width="1.5" d="M0,-3.0v7 M-2.5,-0.5L0,-3.0L2.5,-0.5"/>
                </g>
                <g id="arrowDown" xlink:href="#dirArrow" transform="rotate(180) translate(-30 -48)" onmousedown="handlePan(0,1)">
                  <use xlink:href="#rim" fill="#404040">
                        <set attributeName="fill" to="#808080" begin="arrowDown.mouseover" end="arrowDown.mouseout"/>
                  </use>
                  <path fill="none" stroke="white" stroke-width="1.5" d="M0,-3.0v7 M-2.5,-0.5L0,-3.0L2.5,-0.5"/>
                </g>
                <g id="arrowLeft" xlink:href="#dirArrow" transform="rotate(270) translate(-36 17)" onmousedown="handlePan(-1,0)">
                  <use xlink:href="#rim" fill="#404040">
                        <set attributeName="fill" to="#808080" begin="arrowLeft.mouseover" end="arrowLeft.mouseout"/>
                  </use>
                  <path fill="none" stroke="white" stroke-width="1.5" d="M0,-3.0v7 M-2.5,-0.5L0,-3.0L2.5,-0.5"/>
                </g>
        </g>
        <svg viewBox="0 0 15 15" width="100%" height="30px" preserveAspectRatio="xMaxYMin meet">
         <g id="arrow_out" transform="scale(0.3 0.3)">
          <a xlink:href="class_material_preview_view__coll__graph_org.svg" target="_base">
           <rect id="button" ry="5" rx="5" y="6" x="6" height="38" width="38"
                fill="#f2f5e9" fill-opacity="0.5" stroke="#606060" stroke-width="1.0"/>
           <path id="arrow"
             d="M 11.500037,31.436501 C 11.940474,20.09759 22.043105,11.32322 32.158766,21.979434 L 37.068811,17.246167 C 37.068811,17.246167 37.088388,32 37.088388,32 L 22.160133,31.978069 C 22.160133,31.978069 26.997745,27.140456 26.997745,27.140456 C 18.528582,18.264221 13.291696,25.230495 11.500037,31.436501 z"
             style="fill:#404040;"/>
          </a>
         </g>
        </svg>
</svg>
