<?xml version="1.0" encoding="UTF-8" standalone="no"?>
<!DOCTYPE svg PUBLIC "-//W3C//DTD SVG 1.1//EN"
 "http://www.w3.org/Graphics/SVG/1.1/DTD/svg11.dtd">
<!-- Generated by graphviz version 2.34.0 (20130907.0111)
 -->
<!-- Title: DialogDeclNew Pages: 1 -->
<svg width="360pt" height="186pt"
 viewBox="0.00 0.00 360.00 186.00" xmlns="http://www.w3.org/2000/svg" xmlns:xlink="http://www.w3.org/1999/xlink">
<g id="graph0" class="graph" transform="scale(1 1) rotate(0) translate(4 182)">
<title>DialogDeclNew</title>
<polygon fill="white" stroke="white" points="-4,4 -4,-182 356,-182 356,4 -4,4"/>
<!-- Node1 -->
<g id="node1" class="node"><title>Node1</title>
<polygon fill="#bfbfbf" stroke="black" points="124,-0.5 124,-19.5 206,-19.5 206,-0.5 124,-0.5"/>
<text text-anchor="middle" x="165" y="-7.5" font-family="Arial" font-size="10.00">DialogDeclNew</text>
</g>
<!-- Node2 -->
<g id="node2" class="node"><title>Node2</title>
<polygon fill="white" stroke="#bfbfbf" points="0,-90.5 0,-109.5 50,-109.5 50,-90.5 0,-90.5"/>
<text text-anchor="middle" x="25" y="-97.5" font-family="Arial" font-size="10.00">CDialog</text>
</g>
<!-- Node2&#45;&gt;Node1 -->
<g id="edge1" class="edge"><title>Node2&#45;&gt;Node1</title>
<path fill="none" stroke="midnightblue" d="M37.7862,-82.1774C48.9255,-68.5606 66.205,-49.7725 85,-38 98.044,-29.8297 113.846,-23.8195 127.949,-19.5718"/>
<polygon fill="midnightblue" stroke="midnightblue" points="34.8571,-80.2387 31.3985,-90.2532 40.3473,-84.5813 34.8571,-80.2387"/>
</g>
<!-- Node3 -->
<g id="node3" class="node"><title>Node3</title>
<g id="a_node3"><a xlink:href="classid_str.html" target="_top" xlink:title="idStr">
<polygon fill="white" stroke="black" points="68.5,-90.5 68.5,-109.5 105.5,-109.5 105.5,-90.5 68.5,-90.5"/>
<text text-anchor="middle" x="87" y="-97.5" font-family="Arial" font-size="10.00">idStr</text>
</a>
</g>
</g>
<!-- Node3&#45;&gt;Node1 -->
<g id="edge2" class="edge"><title>Node3&#45;&gt;Node1</title>
<path fill="none" stroke="#9a32cd" stroke-dasharray="5,2" d="M87.7128,-80.1625C89.1363,-66.9809 92.974,-49.7048 103,-38 110.256,-29.5294 120.664,-23.6274 130.887,-19.5541"/>
<polygon fill="#9a32cd" stroke="#9a32cd" points="84.1996,-80.2281 86.9884,-90.4493 91.1823,-80.7198 84.1996,-80.2281"/>
<text text-anchor="middle" x="130.5" y="-63.5" font-family="Arial" font-size="10.00"> defaultFile</text>
<text text-anchor="middle" x="130.5" y="-52.5" font-family="Arial" font-size="10.00">defaultName</text>
<text text-anchor="middle" x="130.5" y="-41.5" font-family="Arial" font-size="10.00">defaultType</text>
</g>
<!-- Node4 -->
<g id="node4" class="node"><title>Node4</title>
<g id="a_node4"><a xlink:href="classid_decl.html" target="_top" xlink:title="idDecl">
<polygon fill="white" stroke="black" points="138,-90.5 138,-109.5 182,-109.5 182,-90.5 138,-90.5"/>
<text text-anchor="middle" x="160" y="-97.5" font-family="Arial" font-size="10.00">idDecl</text>
</a>
</g>
</g>
<!-- Node4&#45;&gt;Node1 -->
<g id="edge3" class="edge"><title>Node4&#45;&gt;Node1</title>
<path fill="none" stroke="#9a32cd" stroke-dasharray="5,2" d="M161.066,-80.242C162.127,-61.5706 163.708,-33.7354 164.504,-19.7241"/>
<polygon fill="#9a32cd" stroke="#9a32cd" points="157.571,-80.058 160.498,-90.2405 164.559,-80.4552 157.571,-80.058"/>
<text text-anchor="middle" x="184" y="-52.5" font-family="Arial" font-size="10.00"> newDecl</text>
</g>
<!-- Node5 -->
<g id="node5" class="node"><title>Node5</title>
<g id="a_node5"><a xlink:href="classid_decl_base.html" target="_top" xlink:title="idDeclBase">
<polygon fill="white" stroke="black" points="127,-158.5 127,-177.5 193,-177.5 193,-158.5 127,-158.5"/>
<text text-anchor="middle" x="160" y="-165.5" font-family="Arial" font-size="10.00">idDeclBase</text>
</a>
</g>
</g>
<!-- Node5&#45;&gt;Node4 -->
<g id="edge4" class="edge"><title>Node5&#45;&gt;Node4</title>
<path fill="none" stroke="#9a32cd" stroke-dasharray="5,2" d="M160,-148.041C160,-135.472 160,-119.563 160,-109.841"/>
<polygon fill="#9a32cd" stroke="#9a32cd" points="156.5,-148.372 160,-158.372 163.5,-148.372 156.5,-148.372"/>
<text text-anchor="middle" x="172.5" y="-131.5" font-family="Arial" font-size="10.00"> base</text>
</g>
<!-- Node6 -->
<g id="node6" class="node"><title>Node6</title>
<g id="a_node6"><a xlink:href="structtool_tip__s.html" target="_top" xlink:title="toolTip_s">
<polygon fill="white" stroke="black" points="200,-90.5 200,-109.5 256,-109.5 256,-90.5 200,-90.5"/>
<text text-anchor="middle" x="228" y="-97.5" font-family="Arial" font-size="10.00">toolTip_s</text>
</a>
</g>
</g>
<!-- Node6&#45;&gt;Node1 -->
<g id="edge5" class="edge"><title>Node6&#45;&gt;Node1</title>
<path fill="none" stroke="#9a32cd" stroke-dasharray="5,2" d="M224.498,-80.1854C221.356,-67.2727 215.7,-50.3113 206,-38 199.987,-30.368 191.199,-24.1791 183.3,-19.6614"/>
<polygon fill="#9a32cd" stroke="#9a32cd" points="221.14,-81.2228 226.65,-90.2722 227.986,-79.7619 221.14,-81.2228"/>
<text text-anchor="middle" x="240.5" y="-52.5" font-family="Arial" font-size="10.00"> toolTips</text>
</g>
<!-- Node7 -->
<g id="node7" class="node"><title>Node7</title>
<g id="a_node7"><a xlink:href="class_c_path_tree_ctrl.html" target="_top" xlink:title="CPathTreeCtrl">
<polygon fill="white" stroke="black" points="274.5,-90.5 274.5,-109.5 351.5,-109.5 351.5,-90.5 274.5,-90.5"/>
<text text-anchor="middle" x="313" y="-97.5" font-family="Arial" font-size="10.00">CPathTreeCtrl</text>
</a>
</g>
</g>
<!-- Node7&#45;&gt;Node1 -->
<g id="edge6" class="edge"><title>Node7&#45;&gt;Node1</title>
<path fill="none" stroke="#9a32cd" stroke-dasharray="5,2" d="M303.151,-81.9061C294.332,-68.0879 280.163,-49.159 263,-38 246.133,-27.0334 224.855,-20.4798 206.438,-16.5835"/>
<polygon fill="#9a32cd" stroke="#9a32cd" points="300.188,-83.7699 308.372,-90.4978 306.169,-80.1344 300.188,-83.7699"/>
<text text-anchor="middle" x="316" y="-52.5" font-family="Arial" font-size="10.00"> declTree</text>
</g>
<!-- Node8 -->
<g id="node8" class="node"><title>Node8</title>
<polygon fill="white" stroke="#bfbfbf" points="284.5,-158.5 284.5,-177.5 341.5,-177.5 341.5,-158.5 284.5,-158.5"/>
<text text-anchor="middle" x="313" y="-165.5" font-family="Arial" font-size="10.00">CTreeCtrl</text>
</g>
<!-- Node8&#45;&gt;Node7 -->
<g id="edge7" class="edge"><title>Node8&#45;&gt;Node7</title>
<path fill="none" stroke="midnightblue" d="M313,-148.041C313,-135.472 313,-119.563 313,-109.841"/>
<polygon fill="midnightblue" stroke="midnightblue" points="309.5,-148.372 313,-158.372 316.5,-148.372 309.5,-148.372"/>
</g>
</g>
</svg>
