<?xml version="1.0" encoding="UTF-8" standalone="no"?>
<!DOCTYPE svg PUBLIC "-//W3C//DTD SVG 1.1//EN"
 "http://www.w3.org/Graphics/SVG/1.1/DTD/svg11.dtd">
<!-- Generated by graphviz version 2.34.0 (20130907.0111)
 -->
<!-- Title: idDeclParticle Pages: 1 -->
<svg width="287pt" height="164pt"
 viewBox="0.00 0.00 287.00 164.00" xmlns="http://www.w3.org/2000/svg" xmlns:xlink="http://www.w3.org/1999/xlink">
<g id="graph0" class="graph" transform="scale(1 1) rotate(0) translate(4 160)">
<title>idDeclParticle</title>
<polygon fill="white" stroke="white" points="-4,4 -4,-160 283,-160 283,4 -4,4"/>
<!-- Node1 -->
<g id="node1" class="node"><title>Node1</title>
<polygon fill="#bfbfbf" stroke="black" points="63.5,-0.5 63.5,-19.5 140.5,-19.5 140.5,-0.5 63.5,-0.5"/>
<text text-anchor="middle" x="102" y="-7.5" font-family="Arial" font-size="10.00">idDeclParticle</text>
</g>
<!-- Node2 -->
<g id="node2" class="node"><title>Node2</title>
<g id="a_node2"><a xlink:href="classid_decl.html" target="_top" xlink:title="idDecl">
<polygon fill="white" stroke="black" points="11,-68.5 11,-87.5 55,-87.5 55,-68.5 11,-68.5"/>
<text text-anchor="middle" x="33" y="-75.5" font-family="Arial" font-size="10.00">idDecl</text>
</a>
</g>
</g>
<!-- Node2&#45;&gt;Node1 -->
<g id="edge1" class="edge"><title>Node2&#45;&gt;Node1</title>
<path fill="none" stroke="midnightblue" d="M49.2963,-61.4122C62.8511,-48.4468 81.6597,-30.4559 92.757,-19.8411"/>
<polygon fill="midnightblue" stroke="midnightblue" points="46.8277,-58.9301 42.0205,-68.3717 51.6663,-63.9887 46.8277,-58.9301"/>
</g>
<!-- Node3 -->
<g id="node3" class="node"><title>Node3</title>
<g id="a_node3"><a xlink:href="classid_decl_base.html" target="_top" xlink:title="idDeclBase">
<polygon fill="white" stroke="black" points="0,-136.5 0,-155.5 66,-155.5 66,-136.5 0,-136.5"/>
<text text-anchor="middle" x="33" y="-143.5" font-family="Arial" font-size="10.00">idDeclBase</text>
</a>
</g>
</g>
<!-- Node3&#45;&gt;Node2 -->
<g id="edge2" class="edge"><title>Node3&#45;&gt;Node2</title>
<path fill="none" stroke="#9a32cd" stroke-dasharray="5,2" d="M33,-126.041C33,-113.472 33,-97.5631 33,-87.8411"/>
<polygon fill="#9a32cd" stroke="#9a32cd" points="29.5001,-126.372 33,-136.372 36.5001,-126.372 29.5001,-126.372"/>
<text text-anchor="middle" x="45.5" y="-109.5" font-family="Arial" font-size="10.00"> base</text>
</g>
<!-- Node4 -->
<g id="node4" class="node"><title>Node4</title>
<g id="a_node4"><a xlink:href="classid_bounds.html" target="_top" xlink:title="idBounds">
<polygon fill="white" stroke="black" points="73.5,-68.5 73.5,-87.5 130.5,-87.5 130.5,-68.5 73.5,-68.5"/>
<text text-anchor="middle" x="102" y="-75.5" font-family="Arial" font-size="10.00">idBounds</text>
</a>
</g>
</g>
<!-- Node4&#45;&gt;Node1 -->
<g id="edge3" class="edge"><title>Node4&#45;&gt;Node1</title>
<path fill="none" stroke="#9a32cd" stroke-dasharray="5,2" d="M102,-58.0413C102,-45.4724 102,-29.5631 102,-19.8411"/>
<polygon fill="#9a32cd" stroke="#9a32cd" points="98.5001,-58.3716 102,-68.3717 105.5,-58.3717 98.5001,-58.3716"/>
<text text-anchor="middle" x="119.5" y="-41.5" font-family="Arial" font-size="10.00"> bounds</text>
</g>
<!-- Node5 -->
<g id="node5" class="node"><title>Node5</title>
<g id="a_node5"><a xlink:href="classid_list.html" target="_top" xlink:title="idList\&lt; idParticleStage * \&gt;">
<polygon fill="white" stroke="black" points="148.5,-68.5 148.5,-87.5 279.5,-87.5 279.5,-68.5 148.5,-68.5"/>
<text text-anchor="middle" x="214" y="-75.5" font-family="Arial" font-size="10.00">idList&lt; idParticleStage * &gt;</text>
</a>
</g>
</g>
<!-- Node5&#45;&gt;Node1 -->
<g id="edge4" class="edge"><title>Node5&#45;&gt;Node1</title>
<path fill="none" stroke="#9a32cd" stroke-dasharray="5,2" d="M190.522,-63.1646C168.234,-50.0309 135.429,-30.6993 116.646,-19.6305"/>
<polygon fill="#9a32cd" stroke="#9a32cd" points="188.966,-66.3101 199.358,-68.3717 192.519,-60.2793 188.966,-66.3101"/>
<text text-anchor="middle" x="185.5" y="-41.5" font-family="Arial" font-size="10.00"> stages</text>
</g>
</g>
</svg>
