<?xml version="1.0" encoding="UTF-8" standalone="no"?>
<!DOCTYPE svg PUBLIC "-//W3C//DTD SVG 1.1//EN"
 "http://www.w3.org/Graphics/SVG/1.1/DTD/svg11.dtd">
<!-- Generated by graphviz version 2.34.0 (20130907.0111)
 -->
<!-- Title: CPropTreeItemEditButton Pages: 1 -->
<svg width="151pt" height="140pt"
 viewBox="0.00 0.00 151.00 140.00" xmlns="http://www.w3.org/2000/svg" xmlns:xlink="http://www.w3.org/1999/xlink">
<g id="graph0" class="graph" transform="scale(1 1) rotate(0) translate(4 136)">
<title>CPropTreeItemEditButton</title>
<polygon fill="white" stroke="white" points="-4,4 -4,-136 147,-136 147,4 -4,4"/>
<!-- Node1 -->
<g id="node1" class="node"><title>Node1</title>
<polygon fill="#bfbfbf" stroke="black" points="-0.5,-0.5 -0.5,-19.5 126.5,-19.5 126.5,-0.5 -0.5,-0.5"/>
<text text-anchor="middle" x="63" y="-7.5" font-family="Arial" font-size="10.00">CPropTreeItemEditButton</text>
</g>
<!-- Node2 -->
<g id="node2" class="node"><title>Node2</title>
<g id="a_node2"><a xlink:href="class_c_prop_tree_item_edit.html" target="_top" xlink:title="CPropTreeItemEdit">
<polygon fill="white" stroke="black" points="14,-56.5 14,-75.5 112,-75.5 112,-56.5 14,-56.5"/>
<text text-anchor="middle" x="63" y="-63.5" font-family="Arial" font-size="10.00">CPropTreeItemEdit</text>
</a>
</g>
</g>
<!-- Node2&#45;&gt;Node1 -->
<g id="edge1" class="edge"><title>Node2&#45;&gt;Node1</title>
<path fill="none" stroke="midnightblue" d="M63,-45.8045C63,-36.9102 63,-26.7798 63,-19.7511"/>
<polygon fill="midnightblue" stroke="midnightblue" points="59.5001,-46.083 63,-56.083 66.5001,-46.083 59.5001,-46.083"/>
</g>
<!-- Node3 -->
<g id="node3" class="node"><title>Node3</title>
<polygon fill="white" stroke="#bfbfbf" points="3.5,-112.5 3.5,-131.5 44.5,-131.5 44.5,-112.5 3.5,-112.5"/>
<text text-anchor="middle" x="24" y="-119.5" font-family="Arial" font-size="10.00">CEdit</text>
</g>
<!-- Node3&#45;&gt;Node2 -->
<g id="edge2" class="edge"><title>Node3&#45;&gt;Node2</title>
<path fill="none" stroke="midnightblue" d="M36.3822,-103.855C43.1354,-94.5048 51.2086,-83.3265 56.6798,-75.7511"/>
<polygon fill="midnightblue" stroke="midnightblue" points="33.4576,-101.927 30.4401,-112.083 39.1324,-106.025 33.4576,-101.927"/>
</g>
<!-- Node4 -->
<g id="node4" class="node"><title>Node4</title>
<g id="a_node4"><a xlink:href="class_c_prop_tree_item.html" target="_top" xlink:title="CPropTreeItem">
<polygon fill="white" stroke="black" points="62.5,-112.5 62.5,-131.5 143.5,-131.5 143.5,-112.5 62.5,-112.5"/>
<text text-anchor="middle" x="103" y="-119.5" font-family="Arial" font-size="10.00">CPropTreeItem</text>
</a>
</g>
</g>
<!-- Node4&#45;&gt;Node2 -->
<g id="edge3" class="edge"><title>Node4&#45;&gt;Node2</title>
<path fill="none" stroke="midnightblue" d="M90.3003,-103.855C83.374,-94.5048 75.0937,-83.3265 69.4823,-75.7511"/>
<polygon fill="midnightblue" stroke="midnightblue" points="87.63,-106.131 96.3948,-112.083 93.255,-101.964 87.63,-106.131"/>
</g>
</g>
</svg>
