<?xml version="1.0" encoding="UTF-8" standalone="no"?>
<!DOCTYPE svg PUBLIC "-//W3C//DTD SVG 1.1//EN"
 "http://www.w3.org/Graphics/SVG/1.1/DTD/svg11.dtd">
<!-- Generated by graphviz version 2.34.0 (20130907.0111)
 -->
<!-- Title: CPropTreeItemButton Pages: 1 -->
<svg width="420pt" height="231pt"
 viewBox="0.00 0.00 420.00 230.50" xmlns="http://www.w3.org/2000/svg" xmlns:xlink="http://www.w3.org/1999/xlink">
<g id="graph0" class="graph" transform="scale(1 1) rotate(0) translate(4 226.5)">
<title>CPropTreeItemButton</title>
<polygon fill="white" stroke="white" points="-4,4 -4,-226.5 416,-226.5 416,4 -4,4"/>
<!-- Node1 -->
<g id="node1" class="node"><title>Node1</title>
<polygon fill="#bfbfbf" stroke="black" points="0,-68.5 0,-87.5 110,-87.5 110,-68.5 0,-68.5"/>
<text text-anchor="middle" x="55" y="-75.5" font-family="Arial" font-size="10.00">CPropTreeItemButton</text>
</g>
<!-- Node2 -->
<g id="node2" class="node"><title>Node2</title>
<g id="a_node2"><a xlink:href="class_c_prop_tree_item.html" target="_top" xlink:title="CPropTreeItem">
<polygon fill="white" stroke="black" points="167.5,-185.5 167.5,-204.5 248.5,-204.5 248.5,-185.5 167.5,-185.5"/>
<text text-anchor="middle" x="208" y="-192.5" font-family="Arial" font-size="10.00">CPropTreeItem</text>
</a>
</g>
</g>
<!-- Node2&#45;&gt;Node1 -->
<g id="edge1" class="edge"><title>Node2&#45;&gt;Node1</title>
<path fill="none" stroke="midnightblue" d="M188.257,-179.161C155.925,-154.858 92.6785,-107.32 66.6333,-87.744"/>
<polygon fill="midnightblue" stroke="midnightblue" points="186.403,-182.146 196.5,-185.356 190.609,-176.55 186.403,-182.146"/>
</g>
<!-- Node2&#45;&gt;Node2 -->
<g id="edge11" class="edge"><title>Node2&#45;&gt;Node2</title>
<path fill="none" stroke="#9a32cd" stroke-dasharray="5,2" d="M235.895,-206.761C251.547,-209.008 266,-205.088 266,-195 266,-182.818 244.924,-179.63 226.113,-185.436"/>
<polygon fill="#9a32cd" stroke="#9a32cd" points="236.637,-203.34 226.113,-204.564 235.103,-210.17 236.637,-203.34"/>
<text text-anchor="middle" x="291.5" y="-214.5" font-family="Arial" font-size="10.00"> m_pParent</text>
<text text-anchor="middle" x="291.5" y="-203.5" font-family="Arial" font-size="10.00">m_pVis</text>
<text text-anchor="middle" x="291.5" y="-192.5" font-family="Arial" font-size="10.00">m_pSibling</text>
<text text-anchor="middle" x="291.5" y="-181.5" font-family="Arial" font-size="10.00">m_pChild</text>
<text text-anchor="middle" x="291.5" y="-170.5" font-family="Arial" font-size="10.00">m_lParam</text>
</g>
<!-- Node3 -->
<g id="node3" class="node"><title>Node3</title>
<g id="a_node3"><a xlink:href="class_c_prop_tree.html" target="_top" xlink:title="CPropTree">
<polygon fill="white" stroke="black" points="243,-68.5 243,-87.5 305,-87.5 305,-68.5 243,-68.5"/>
<text text-anchor="middle" x="274" y="-75.5" font-family="Arial" font-size="10.00">CPropTree</text>
</a>
</g>
</g>
<!-- Node2&#45;&gt;Node3 -->
<g id="edge7" class="edge"><title>Node2&#45;&gt;Node3</title>
<path fill="none" stroke="#9a32cd" stroke-dasharray="5,2" d="M227.119,-178.683C235.767,-170.891 245.486,-160.794 252,-150 264.268,-129.67 270.266,-101.886 272.669,-87.8651"/>
<polygon fill="#9a32cd" stroke="#9a32cd" points="224.606,-176.227 219.295,-185.395 229.164,-181.54 224.606,-176.227"/>
<text text-anchor="middle" x="300" y="-142" font-family="Arial" font-size="10.00"> m_Root</text>
<text text-anchor="middle" x="300" y="-131" font-family="Arial" font-size="10.00">m_pVisbleList</text>
<text text-anchor="middle" x="300" y="-120" font-family="Arial" font-size="10.00">m_pFocus</text>
<text text-anchor="middle" x="300" y="-109" font-family="Arial" font-size="10.00">s_pFound</text>
</g>
<!-- Node3&#45;&gt;Node2 -->
<g id="edge2" class="edge"><title>Node3&#45;&gt;Node2</title>
<path fill="none" stroke="#9a32cd" stroke-dasharray="5,2" d="M233.185,-87.669C223.721,-91.6646 214.747,-97.4951 209,-106 192.405,-130.56 200.387,-168.433 205.227,-185.337"/>
<polygon fill="#9a32cd" stroke="#9a32cd" points="234.479,-90.9233 242.711,-84.2541 232.117,-84.3339 234.479,-90.9233"/>
<text text-anchor="middle" x="230.5" y="-125.5" font-family="Arial" font-size="10.00"> m_pProp</text>
</g>
<!-- Node5 -->
<g id="node5" class="node"><title>Node5</title>
<g id="a_node5"><a xlink:href="class_c_prop_tree_list.html" target="_top" xlink:title="CPropTreeList">
<polygon fill="white" stroke="black" points="334,-0.5 334,-19.5 412,-19.5 412,-0.5 334,-0.5"/>
<text text-anchor="middle" x="373" y="-7.5" font-family="Arial" font-size="10.00">CPropTreeList</text>
</a>
</g>
</g>
<!-- Node3&#45;&gt;Node5 -->
<g id="edge6" class="edge"><title>Node3&#45;&gt;Node5</title>
<path fill="none" stroke="#9a32cd" stroke-dasharray="5,2" d="M284.276,-59.6922C289.423,-52.2068 296.219,-43.8424 304,-38 314.904,-29.8128 328.608,-23.7765 340.924,-19.5136"/>
<polygon fill="#9a32cd" stroke="#9a32cd" points="281.117,-58.1352 278.688,-68.4477 287.018,-61.9011 281.117,-58.1352"/>
<text text-anchor="middle" x="325.5" y="-41.5" font-family="Arial" font-size="10.00"> m_pProp</text>
</g>
<!-- Node6 -->
<g id="node6" class="node"><title>Node6</title>
<g id="a_node6"><a xlink:href="class_c_prop_tree_info.html" target="_top" xlink:title="CPropTreeInfo">
<polygon fill="white" stroke="black" points="147.5,-0.5 147.5,-19.5 224.5,-19.5 224.5,-0.5 147.5,-0.5"/>
<text text-anchor="middle" x="186" y="-7.5" font-family="Arial" font-size="10.00">CPropTreeInfo</text>
</a>
</g>
</g>
<!-- Node3&#45;&gt;Node6 -->
<g id="edge10" class="edge"><title>Node3&#45;&gt;Node6</title>
<path fill="none" stroke="#9a32cd" stroke-dasharray="5,2" d="M254.128,-62.0961C236.668,-49.0012 211.87,-30.4028 197.507,-19.6305"/>
<polygon fill="#9a32cd" stroke="#9a32cd" points="252.396,-65.1716 262.496,-68.3717 256.596,-59.5716 252.396,-65.1716"/>
<text text-anchor="middle" x="259.5" y="-41.5" font-family="Arial" font-size="10.00"> m_pProp</text>
</g>
<!-- Node4 -->
<g id="node4" class="node"><title>Node4</title>
<polygon fill="white" stroke="#bfbfbf" points="355,-185.5 355,-204.5 399,-204.5 399,-185.5 355,-185.5"/>
<text text-anchor="middle" x="377" y="-192.5" font-family="Arial" font-size="10.00">CWnd</text>
</g>
<!-- Node4&#45;&gt;Node3 -->
<g id="edge3" class="edge"><title>Node4&#45;&gt;Node3</title>
<path fill="none" stroke="midnightblue" d="M372.316,-175.487C366.514,-155.936 354.882,-125.321 335,-106 326.528,-97.7673 315.124,-91.8087 304.468,-87.619"/>
<polygon fill="midnightblue" stroke="midnightblue" points="368.99,-176.595 375.015,-185.31 375.74,-174.74 368.99,-176.595"/>
</g>
<!-- Node4&#45;&gt;Node5 -->
<g id="edge5" class="edge"><title>Node4&#45;&gt;Node5</title>
<path fill="none" stroke="midnightblue" d="M385.29,-176C397.777,-146.195 418.031,-85.1984 399,-38 396.08,-30.7575 390.184,-24.3723 384.745,-19.6319"/>
<polygon fill="midnightblue" stroke="midnightblue" points="382.08,-174.604 381.274,-185.168 388.492,-177.413 382.08,-174.604"/>
</g>
<!-- Node5&#45;&gt;Node3 -->
<g id="edge4" class="edge"><title>Node5&#45;&gt;Node3</title>
<path fill="none" stroke="#9a32cd" stroke-dasharray="5,2" d="M366.224,-28.9548C362.664,-36.3369 357.638,-44.4407 351,-50 337.968,-60.9151 320.234,-67.5299 305.071,-71.4776"/>
<polygon fill="#9a32cd" stroke="#9a32cd" points="369.492,-30.2146 370.185,-19.6425 363.05,-27.475 369.492,-30.2146"/>
<text text-anchor="middle" x="378.5" y="-41.5" font-family="Arial" font-size="10.00"> m_List</text>
</g>
<!-- Node6&#45;&gt;Node3 -->
<g id="edge8" class="edge"><title>Node6&#45;&gt;Node3</title>
<path fill="none" stroke="#9a32cd" stroke-dasharray="5,2" d="M182.154,-29.78C181.77,-36.7489 182.709,-44.3288 187,-50 199.883,-67.0253 223.372,-73.6027 242.699,-76.0169"/>
<polygon fill="#9a32cd" stroke="#9a32cd" points="185.646,-30.0811 183.558,-19.6941 178.713,-29.1163 185.646,-30.0811"/>
<text text-anchor="middle" x="203" y="-41.5" font-family="Arial" font-size="10.00"> m_Info</text>
</g>
<!-- Node7 -->
<g id="node7" class="node"><title>Node7</title>
<polygon fill="white" stroke="#bfbfbf" points="128.5,-68.5 128.5,-87.5 177.5,-87.5 177.5,-68.5 128.5,-68.5"/>
<text text-anchor="middle" x="153" y="-75.5" font-family="Arial" font-size="10.00">CStatic</text>
</g>
<!-- Node7&#45;&gt;Node6 -->
<g id="edge9" class="edge"><title>Node7&#45;&gt;Node6</title>
<path fill="none" stroke="midnightblue" d="M158.407,-58.7838C160.688,-52.0816 163.606,-44.5361 167,-38 170.381,-31.4888 175.131,-24.7388 179.036,-19.6166"/>
<polygon fill="midnightblue" stroke="midnightblue" points="155.059,-57.7654 155.372,-68.3556 161.731,-59.8812 155.059,-57.7654"/>
</g>
</g>
</svg>
