<?xml version="1.0" encoding="UTF-8" standalone="no"?>
<!DOCTYPE svg PUBLIC "-//W3C//DTD SVG 1.1//EN"
 "http://www.w3.org/Graphics/SVG/1.1/DTD/svg11.dtd">
<!-- Generated by graphviz version 2.34.0 (20130907.0111)
 -->
<!-- Title: idDeclAF_Body Pages: 1 -->
<svg width="333pt" height="232pt"
 viewBox="0.00 0.00 333.00 232.00" xmlns="http://www.w3.org/2000/svg" xmlns:xlink="http://www.w3.org/1999/xlink">
<g id="graph0" class="graph" transform="scale(1 1) rotate(0) translate(4 228)">
<title>idDeclAF_Body</title>
<polygon fill="white" stroke="white" points="-4,4 -4,-228 329,-228 329,4 -4,4"/>
<!-- Node1 -->
<g id="node1" class="node"><title>Node1</title>
<polygon fill="#bfbfbf" stroke="black" points="79,-0.5 79,-19.5 163,-19.5 163,-0.5 79,-0.5"/>
<text text-anchor="middle" x="121" y="-7.5" font-family="Arial" font-size="10.00">idDeclAF_Body</text>
</g>
<!-- Node2 -->
<g id="node2" class="node"><title>Node2</title>
<g id="a_node2"><a xlink:href="classid_mat3.html" target="_top" xlink:title="idMat3">
<polygon fill="white" stroke="black" points="0,-119.5 0,-138.5 46,-138.5 46,-119.5 0,-119.5"/>
<text text-anchor="middle" x="23" y="-126.5" font-family="Arial" font-size="10.00">idMat3</text>
</a>
</g>
</g>
<!-- Node2&#45;&gt;Node1 -->
<g id="edge1" class="edge"><title>Node2&#45;&gt;Node1</title>
<path fill="none" stroke="#9a32cd" stroke-dasharray="5,2" d="M17.3674,-109.853C12.4344,-90.0652 8.25406,-58.4901 24,-38 36.7816,-21.3673 58.894,-14.3951 78.781,-11.6814"/>
<polygon fill="#9a32cd" stroke="#9a32cd" points="13.9983,-110.801 20.0637,-119.488 20.7393,-108.915 13.9983,-110.801"/>
<text text-anchor="middle" x="51.5" y="-63.5" font-family="Arial" font-size="10.00"> inertiaScale</text>
</g>
<!-- Node3 -->
<g id="node3" class="node"><title>Node3</title>
<g id="a_node3"><a xlink:href="classid_str.html" target="_top" xlink:title="idStr">
<polygon fill="white" stroke="black" points="112.5,-204.5 112.5,-223.5 149.5,-223.5 149.5,-204.5 112.5,-204.5"/>
<text text-anchor="middle" x="131" y="-211.5" font-family="Arial" font-size="10.00">idStr</text>
</a>
</g>
</g>
<!-- Node3&#45;&gt;Node1 -->
<g id="edge2" class="edge"><title>Node3&#45;&gt;Node1</title>
<path fill="none" stroke="#9a32cd" stroke-dasharray="5,2" d="M121.018,-195.416C114.155,-182.27 105.647,-163.605 102,-146 92.2067,-98.7199 110.087,-41.0661 117.754,-19.5951"/>
<polygon fill="#9a32cd" stroke="#9a32cd" points="117.988,-197.169 125.838,-204.283 124.138,-193.826 117.988,-197.169"/>
<text text-anchor="middle" x="137.5" y="-137.5" font-family="Arial" font-size="10.00"> containedJoints</text>
<text text-anchor="middle" x="137.5" y="-126.5" font-family="Arial" font-size="10.00">jointName</text>
<text text-anchor="middle" x="137.5" y="-115.5" font-family="Arial" font-size="10.00">name</text>
</g>
<!-- Node4 -->
<g id="node4" class="node"><title>Node4</title>
<g id="a_node4"><a xlink:href="classid_a_f_vector.html" target="_top" xlink:title="idAFVector">
<polygon fill="white" stroke="black" points="182.5,-119.5 182.5,-138.5 247.5,-138.5 247.5,-119.5 182.5,-119.5"/>
<text text-anchor="middle" x="215" y="-126.5" font-family="Arial" font-size="10.00">idAFVector</text>
</a>
</g>
</g>
<!-- Node3&#45;&gt;Node4 -->
<g id="edge4" class="edge"><title>Node3&#45;&gt;Node4</title>
<path fill="none" stroke="#9a32cd" stroke-dasharray="5,2" d="M146.966,-197.224C164.566,-179.833 192.238,-152.491 206.248,-138.648"/>
<polygon fill="#9a32cd" stroke="#9a32cd" points="144.326,-194.912 139.673,-204.43 149.246,-199.891 144.326,-194.912"/>
<text text-anchor="middle" x="194.5" y="-178" font-family="Arial" font-size="10.00"> joint1</text>
<text text-anchor="middle" x="194.5" y="-167" font-family="Arial" font-size="10.00">joint2</text>
</g>
<!-- Node4&#45;&gt;Node1 -->
<g id="edge3" class="edge"><title>Node4&#45;&gt;Node1</title>
<path fill="none" stroke="#9a32cd" stroke-dasharray="5,2" d="M194.929,-112.87C188.209,-107.319 180.926,-100.736 175,-94 153.311,-69.3482 133.927,-35.2791 125.481,-19.5676"/>
<polygon fill="#9a32cd" stroke="#9a32cd" points="192.99,-115.8 202.996,-119.284 197.347,-110.321 192.99,-115.8"/>
<text text-anchor="middle" x="223" y="-85.5" font-family="Arial" font-size="10.00"> v2</text>
<text text-anchor="middle" x="223" y="-74.5" font-family="Arial" font-size="10.00">origin</text>
<text text-anchor="middle" x="223" y="-63.5" font-family="Arial" font-size="10.00">contactMotorDirection</text>
<text text-anchor="middle" x="223" y="-52.5" font-family="Arial" font-size="10.00">frictionDirection</text>
<text text-anchor="middle" x="223" y="-41.5" font-family="Arial" font-size="10.00">v1</text>
</g>
<!-- Node5 -->
<g id="node5" class="node"><title>Node5</title>
<g id="a_node5"><a xlink:href="classid_angles.html" target="_top" xlink:title="idAngles">
<polygon fill="white" stroke="black" points="266,-119.5 266,-138.5 320,-138.5 320,-119.5 266,-119.5"/>
<text text-anchor="middle" x="293" y="-126.5" font-family="Arial" font-size="10.00">idAngles</text>
</a>
</g>
</g>
<!-- Node5&#45;&gt;Node1 -->
<g id="edge5" class="edge"><title>Node5&#45;&gt;Node1</title>
<path fill="none" stroke="#9a32cd" stroke-dasharray="5,2" d="M293.968,-109.313C293.938,-88.7878 290.479,-56.3138 271,-38 255.722,-23.6362 201.862,-16.7088 163.052,-13.5156"/>
<polygon fill="#9a32cd" stroke="#9a32cd" points="290.469,-109.235 293.712,-119.321 297.466,-109.414 290.469,-109.235"/>
<text text-anchor="middle" x="309" y="-63.5" font-family="Arial" font-size="10.00"> angles</text>
</g>
</g>
</svg>
