<?xml version="1.0" encoding="UTF-8" standalone="no"?>
<!DOCTYPE svg PUBLIC "-//W3C//DTD SVG 1.1//EN"
 "http://www.w3.org/Graphics/SVG/1.1/DTD/svg11.dtd">
<!-- Generated by graphviz version 2.34.0 (20130907.0111)
 -->
<!-- Title: idTrigger Pages: 1 -->
<svg width="380pt" height="256pt"
 viewBox="0.00 0.00 380.00 256.00" xmlns="http://www.w3.org/2000/svg" xmlns:xlink="http://www.w3.org/1999/xlink">
<g id="graph0" class="graph" transform="scale(1 1) rotate(0) translate(4 252)">
<title>idTrigger</title>
<polygon fill="white" stroke="white" points="-4,4 -4,-252 376,-252 376,4 -4,4"/>
<!-- Node1 -->
<g id="node1" class="node"><title>Node1</title>
<polygon fill="#bfbfbf" stroke="black" points="172.5,-114.5 172.5,-133.5 225.5,-133.5 225.5,-114.5 172.5,-114.5"/>
<text text-anchor="middle" x="199" y="-121.5" font-family="Arial" font-size="10.00">idTrigger</text>
</g>
<!-- Node4 -->
<g id="node4" class="node"><title>Node4</title>
<g id="a_node4"><a xlink:href="classid_trigger___count.html" target="_top" xlink:title="idTrigger_Count">
<polygon fill="white" stroke="black" points="275,-228.5 275,-247.5 359,-247.5 359,-228.5 275,-228.5"/>
<text text-anchor="middle" x="317" y="-235.5" font-family="Arial" font-size="10.00">idTrigger_Count</text>
</a>
</g>
</g>
<!-- Node1&#45;&gt;Node4 -->
<g id="edge5" class="edge"><title>Node1&#45;&gt;Node4</title>
<path fill="none" stroke="midnightblue" d="M211.018,-142.585C221.34,-162.058 238.674,-191.692 262,-210 273.727,-219.204 290.251,-224.145 301.924,-228.47"/>
<polygon fill="midnightblue" stroke="midnightblue" points="214.11,-140.946 206.391,-133.688 207.9,-144.175 214.11,-140.946"/>
</g>
<!-- Node1&#45;&gt;Node4 -->
<g id="edge6" class="edge"><title>Node1&#45;&gt;Node4</title>
<path fill="none" stroke="midnightblue" d="M205.463,-143.4C214.339,-167.143 233.786,-205.856 262,-228 265.909,-231.068 270.351,-233.662 274.969,-235.784"/>
<polygon fill="midnightblue" stroke="midnightblue" points="208.679,-141.99 202.135,-133.658 202.055,-144.253 208.679,-141.99"/>
</g>
<!-- Node5 -->
<g id="node5" class="node"><title>Node5</title>
<g id="a_node5"><a xlink:href="classid_trigger___entity_name.html" target="_top" xlink:title="idTrigger_EntityName">
<polygon fill="white" stroke="black" points="262,-190.5 262,-209.5 372,-209.5 372,-190.5 262,-190.5"/>
<text text-anchor="middle" x="317" y="-197.5" font-family="Arial" font-size="10.00">idTrigger_EntityName</text>
</a>
</g>
</g>
<!-- Node1&#45;&gt;Node5 -->
<g id="edge7" class="edge"><title>Node1&#45;&gt;Node5</title>
<path fill="none" stroke="midnightblue" d="M222.337,-140.531C233.397,-150.772 247.476,-163.277 262,-172 275.461,-180.085 292.876,-185.428 304.236,-190.449"/>
<polygon fill="midnightblue" stroke="midnightblue" points="224.556,-137.816 214.853,-133.561 219.785,-142.938 224.556,-137.816"/>
</g>
<!-- Node1&#45;&gt;Node5 -->
<g id="edge8" class="edge"><title>Node1&#45;&gt;Node5</title>
<path fill="none" stroke="midnightblue" d="M209.963,-142.197C221.391,-157.338 241.24,-177.531 262,-190 262.256,-190.154 262.513,-190.306 262.771,-190.458"/>
<polygon fill="midnightblue" stroke="midnightblue" points="212.556,-139.79 204.004,-133.536 206.789,-143.758 212.556,-139.79"/>
</g>
<!-- Node6 -->
<g id="node6" class="node"><title>Node6</title>
<g id="a_node6"><a xlink:href="classid_trigger___fade.html" target="_top" xlink:title="idTrigger_Fade">
<polygon fill="white" stroke="black" points="277,-152.5 277,-171.5 357,-171.5 357,-152.5 277,-152.5"/>
<text text-anchor="middle" x="317" y="-159.5" font-family="Arial" font-size="10.00">idTrigger_Fade</text>
</a>
</g>
</g>
<!-- Node1&#45;&gt;Node6 -->
<g id="edge9" class="edge"><title>Node1&#45;&gt;Node6</title>
<path fill="none" stroke="midnightblue" d="M235.419,-129.33C257.382,-135.55 284.466,-144.941 300.972,-152.363"/>
<polygon fill="midnightblue" stroke="midnightblue" points="236.311,-125.945 225.744,-126.713 234.484,-132.703 236.311,-125.945"/>
</g>
<!-- Node1&#45;&gt;Node6 -->
<g id="edge10" class="edge"><title>Node1&#45;&gt;Node6</title>
<path fill="none" stroke="midnightblue" d="M224.402,-137.615C239.604,-143.753 259.506,-150.54 276.874,-155.605"/>
<polygon fill="midnightblue" stroke="midnightblue" points="225.738,-134.38 215.165,-133.699 223.006,-140.824 225.738,-134.38"/>
</g>
<!-- Node7 -->
<g id="node7" class="node"><title>Node7</title>
<g id="a_node7"><a xlink:href="classid_trigger___hurt.html" target="_top" xlink:title="idTrigger_Hurt">
<polygon fill="white" stroke="black" points="278.5,-114.5 278.5,-133.5 355.5,-133.5 355.5,-114.5 278.5,-114.5"/>
<text text-anchor="middle" x="317" y="-121.5" font-family="Arial" font-size="10.00">idTrigger_Hurt</text>
</a>
</g>
</g>
<!-- Node1&#45;&gt;Node7 -->
<g id="edge11" class="edge"><title>Node1&#45;&gt;Node7</title>
<path fill="none" stroke="midnightblue" d="M236.076,-117.698C249.537,-117.122 264.846,-117.101 278.438,-117.637"/>
<polygon fill="midnightblue" stroke="midnightblue" points="235.532,-114.223 225.744,-118.28 235.925,-121.212 235.532,-114.223"/>
</g>
<!-- Node1&#45;&gt;Node7 -->
<g id="edge12" class="edge"><title>Node1&#45;&gt;Node7</title>
<path fill="none" stroke="midnightblue" d="M236.076,-130.302C249.537,-130.878 264.846,-130.899 278.438,-130.363"/>
<polygon fill="midnightblue" stroke="midnightblue" points="235.925,-126.788 225.744,-129.72 235.532,-133.777 235.925,-126.788"/>
</g>
<!-- Node8 -->
<g id="node8" class="node"><title>Node8</title>
<g id="a_node8"><a xlink:href="classid_trigger___multi.html" target="_top" xlink:title="idTrigger_Multi">
<polygon fill="white" stroke="black" points="277,-76.5 277,-95.5 357,-95.5 357,-76.5 277,-76.5"/>
<text text-anchor="middle" x="317" y="-83.5" font-family="Arial" font-size="10.00">idTrigger_Multi</text>
</a>
</g>
</g>
<!-- Node1&#45;&gt;Node8 -->
<g id="edge13" class="edge"><title>Node1&#45;&gt;Node8</title>
<path fill="none" stroke="midnightblue" d="M224.402,-110.385C239.604,-104.247 259.506,-97.4601 276.874,-92.3953"/>
<polygon fill="midnightblue" stroke="midnightblue" points="223.006,-107.176 215.165,-114.301 225.738,-113.62 223.006,-107.176"/>
</g>
<!-- Node1&#45;&gt;Node8 -->
<g id="edge14" class="edge"><title>Node1&#45;&gt;Node8</title>
<path fill="none" stroke="midnightblue" d="M235.419,-118.67C257.382,-112.45 284.466,-103.059 300.972,-95.6374"/>
<polygon fill="midnightblue" stroke="midnightblue" points="234.484,-115.297 225.744,-121.287 236.311,-122.055 234.484,-115.297"/>
</g>
<!-- Node9 -->
<g id="node9" class="node"><title>Node9</title>
<g id="a_node9"><a xlink:href="classid_trigger___timer.html" target="_top" xlink:title="idTrigger_Timer">
<polygon fill="white" stroke="black" points="275.5,-38.5 275.5,-57.5 358.5,-57.5 358.5,-38.5 275.5,-38.5"/>
<text text-anchor="middle" x="317" y="-45.5" font-family="Arial" font-size="10.00">idTrigger_Timer</text>
</a>
</g>
</g>
<!-- Node1&#45;&gt;Node9 -->
<g id="edge15" class="edge"><title>Node1&#45;&gt;Node9</title>
<path fill="none" stroke="midnightblue" d="M209.963,-105.803C221.391,-90.6623 241.24,-70.4687 262,-58 266.175,-55.4926 270.73,-53.249 275.366,-51.3232"/>
<polygon fill="midnightblue" stroke="midnightblue" points="206.789,-104.242 204.004,-114.464 212.556,-108.21 206.789,-104.242"/>
</g>
<!-- Node1&#45;&gt;Node9 -->
<g id="edge16" class="edge"><title>Node1&#45;&gt;Node9</title>
<path fill="none" stroke="midnightblue" d="M222.337,-107.469C233.397,-97.2279 247.476,-84.7234 262,-76 275.461,-67.9151 292.876,-62.5725 304.236,-57.551"/>
<polygon fill="midnightblue" stroke="midnightblue" points="219.785,-105.062 214.853,-114.439 224.556,-110.184 219.785,-105.062"/>
</g>
<!-- Node10 -->
<g id="node10" class="node"><title>Node10</title>
<g id="a_node10"><a xlink:href="classid_trigger___touch.html" target="_top" xlink:title="idTrigger_Touch">
<polygon fill="white" stroke="black" points="274.5,-0.5 274.5,-19.5 359.5,-19.5 359.5,-0.5 274.5,-0.5"/>
<text text-anchor="middle" x="317" y="-7.5" font-family="Arial" font-size="10.00">idTrigger_Touch</text>
</a>
</g>
</g>
<!-- Node1&#45;&gt;Node10 -->
<g id="edge17" class="edge"><title>Node1&#45;&gt;Node10</title>
<path fill="none" stroke="midnightblue" d="M205.463,-104.6C214.339,-80.8569 233.786,-42.1441 262,-20 265.753,-17.0547 269.996,-14.5459 274.415,-12.4728"/>
<polygon fill="midnightblue" stroke="midnightblue" points="202.055,-103.747 202.135,-114.342 208.679,-106.01 202.055,-103.747"/>
</g>
<!-- Node1&#45;&gt;Node10 -->
<g id="edge18" class="edge"><title>Node1&#45;&gt;Node10</title>
<path fill="none" stroke="midnightblue" d="M211.018,-105.415C221.34,-85.9416 238.674,-56.308 262,-38 273.727,-28.7959 290.251,-23.8547 301.924,-19.5303"/>
<polygon fill="midnightblue" stroke="midnightblue" points="207.9,-103.825 206.391,-114.312 214.11,-107.054 207.9,-103.825"/>
</g>
<!-- Node2 -->
<g id="node2" class="node"><title>Node2</title>
<g id="a_node2"><a xlink:href="classid_entity.html" target="_top" xlink:title="idEntity">
<polygon fill="white" stroke="black" points="86,-114.5 86,-133.5 136,-133.5 136,-114.5 86,-114.5"/>
<text text-anchor="middle" x="111" y="-121.5" font-family="Arial" font-size="10.00">idEntity</text>
</a>
</g>
</g>
<!-- Node2&#45;&gt;Node1 -->
<g id="edge1" class="edge"><title>Node2&#45;&gt;Node1</title>
<path fill="none" stroke="midnightblue" d="M146.573,-117.367C155.172,-117.126 164.239,-117.258 172.325,-117.763"/>
<polygon fill="midnightblue" stroke="midnightblue" points="146.238,-113.878 136.414,-117.845 146.568,-120.871 146.238,-113.878"/>
</g>
<!-- Node2&#45;&gt;Node1 -->
<g id="edge4" class="edge"><title>Node2&#45;&gt;Node1</title>
<path fill="none" stroke="midnightblue" d="M146.573,-130.633C155.172,-130.874 164.239,-130.742 172.325,-130.237"/>
<polygon fill="midnightblue" stroke="midnightblue" points="146.568,-127.129 136.414,-130.155 146.238,-134.122 146.568,-127.129"/>
</g>
<!-- Node3 -->
<g id="node3" class="node"><title>Node3</title>
<g id="a_node3"><a xlink:href="classid_class.html" target="_top" xlink:title="idClass">
<polygon fill="white" stroke="black" points="0.5,-114.5 0.5,-133.5 49.5,-133.5 49.5,-114.5 0.5,-114.5"/>
<text text-anchor="middle" x="25" y="-121.5" font-family="Arial" font-size="10.00">idClass</text>
</a>
</g>
</g>
<!-- Node3&#45;&gt;Node2 -->
<g id="edge2" class="edge"><title>Node3&#45;&gt;Node2</title>
<path fill="none" stroke="midnightblue" d="M60.0415,-117.359C68.6733,-117.12 77.7707,-117.274 85.8023,-117.821"/>
<polygon fill="midnightblue" stroke="midnightblue" points="59.6683,-113.873 49.8463,-117.845 60.0017,-120.865 59.6683,-113.873"/>
</g>
<!-- Node3&#45;&gt;Node2 -->
<g id="edge3" class="edge"><title>Node3&#45;&gt;Node2</title>
<path fill="none" stroke="midnightblue" d="M60.0415,-130.641C68.6733,-130.88 77.7707,-130.726 85.8023,-130.179"/>
<polygon fill="midnightblue" stroke="midnightblue" points="60.0017,-127.135 49.8463,-130.155 59.6683,-134.127 60.0017,-127.135"/>
</g>
</g>
</svg>
