<?xml version="1.0" encoding="UTF-8" standalone="no"?>
<!DOCTYPE svg PUBLIC "-//W3C//DTD SVG 1.1//EN"
 "http://www.w3.org/Graphics/SVG/1.1/DTD/svg11.dtd">
<!-- Generated by graphviz version 2.34.0 (20130907.0111)
 -->
<!-- Title: idExportOptions Pages: 1 -->
<svg width="314pt" height="251pt"
 viewBox="0.00 0.00 314.00 251.00" xmlns="http://www.w3.org/2000/svg" xmlns:xlink="http://www.w3.org/1999/xlink">
<g id="graph0" class="graph" transform="scale(1 1) rotate(0) translate(4 247)">
<title>idExportOptions</title>
<polygon fill="white" stroke="white" points="-4,4 -4,-247 310,-247 310,4 -4,4"/>
<!-- Node1 -->
<g id="node1" class="node"><title>Node1</title>
<polygon fill="#bfbfbf" stroke="black" points="220,-83.5 220,-102.5 306,-102.5 306,-83.5 220,-83.5"/>
<text text-anchor="middle" x="263" y="-90.5" font-family="Arial" font-size="10.00">idExportOptions</text>
</g>
<!-- Node2 -->
<g id="node2" class="node"><title>Node2</title>
<g id="a_node2"><a xlink:href="classid_list.html" target="_top" xlink:title="idList\&lt; idStr \&gt;">
<polygon fill="white" stroke="black" points="22,-207.5 22,-226.5 100,-226.5 100,-207.5 22,-207.5"/>
<text text-anchor="middle" x="61" y="-214.5" font-family="Arial" font-size="10.00">idList&lt; idStr &gt;</text>
</a>
</g>
</g>
<!-- Node2&#45;&gt;Node1 -->
<g id="edge1" class="edge"><title>Node2&#45;&gt;Node1</title>
<path fill="none" stroke="#9a32cd" stroke-dasharray="5,2" d="M110.444,-215.361C139.241,-212.297 175.246,-204.614 202,-186 232.756,-164.601 251.47,-121.842 258.642,-102.68"/>
<polygon fill="#9a32cd" stroke="#9a32cd" points="109.833,-211.902 100.191,-216.293 110.467,-218.873 109.833,-211.902"/>
<text text-anchor="middle" x="171" y="-235" font-family="Arial" font-size="10.00"> keepjoints</text>
<text text-anchor="middle" x="171" y="-224" font-family="Arial" font-size="10.00">keepmeshes</text>
<text text-anchor="middle" x="171" y="-213" font-family="Arial" font-size="10.00">skipmeshes</text>
</g>
<!-- Node3 -->
<g id="node3" class="node"><title>Node3</title>
<g id="a_node3"><a xlink:href="classid_str.html" target="_top" xlink:title="idStr">
<polygon fill="white" stroke="black" points="42.5,-119.5 42.5,-138.5 79.5,-138.5 79.5,-119.5 42.5,-119.5"/>
<text text-anchor="middle" x="61" y="-126.5" font-family="Arial" font-size="10.00">idStr</text>
</a>
</g>
</g>
<!-- Node3&#45;&gt;Node1 -->
<g id="edge2" class="edge"><title>Node3&#45;&gt;Node1</title>
<path fill="none" stroke="#9a32cd" stroke-dasharray="5,2" d="M89.7011,-124.872C117.997,-120.556 163.165,-113.392 202,-106 207.759,-104.904 213.812,-103.679 219.769,-102.43"/>
<polygon fill="#9a32cd" stroke="#9a32cd" points="89.0943,-121.424 79.7309,-126.381 90.1421,-128.345 89.0943,-121.424"/>
<text text-anchor="middle" x="171" y="-174" font-family="Arial" font-size="10.00"> prefix</text>
<text text-anchor="middle" x="171" y="-163" font-family="Arial" font-size="10.00">dest</text>
<text text-anchor="middle" x="171" y="-152" font-family="Arial" font-size="10.00">game</text>
<text text-anchor="middle" x="171" y="-141" font-family="Arial" font-size="10.00">src</text>
<text text-anchor="middle" x="171" y="-130" font-family="Arial" font-size="10.00">commandLine</text>
<text text-anchor="middle" x="171" y="-119" font-family="Arial" font-size="10.00">align</text>
</g>
<!-- Node4 -->
<g id="node4" class="node"><title>Node4</title>
<g id="a_node4"><a xlink:href="classid_list.html" target="_top" xlink:title="idList\&lt; idAnimGroup * \&gt;">
<polygon fill="white" stroke="black" points="0.5,-81.5 0.5,-100.5 121.5,-100.5 121.5,-81.5 0.5,-81.5"/>
<text text-anchor="middle" x="61" y="-88.5" font-family="Arial" font-size="10.00">idList&lt; idAnimGroup * &gt;</text>
</a>
</g>
</g>
<!-- Node4&#45;&gt;Node1 -->
<g id="edge3" class="edge"><title>Node4&#45;&gt;Node1</title>
<path fill="none" stroke="#9a32cd" stroke-dasharray="5,2" d="M131.91,-91.6991C161.174,-91.9917 194.23,-92.3223 219.697,-92.577"/>
<polygon fill="#9a32cd" stroke="#9a32cd" points="131.77,-88.1976 121.736,-91.5974 131.7,-95.1973 131.77,-88.1976"/>
<text text-anchor="middle" x="171" y="-95" font-family="Arial" font-size="10.00"> exportgroups</text>
</g>
<!-- Node5 -->
<g id="node5" class="node"><title>Node5</title>
<g id="a_node5"><a xlink:href="classid_list.html" target="_top" xlink:title="idList\&lt; idNamePair \&gt;">
<polygon fill="white" stroke="black" points="7,-38.5 7,-57.5 115,-57.5 115,-38.5 7,-38.5"/>
<text text-anchor="middle" x="61" y="-45.5" font-family="Arial" font-size="10.00">idList&lt; idNamePair &gt;</text>
</a>
</g>
</g>
<!-- Node5&#45;&gt;Node1 -->
<g id="edge4" class="edge"><title>Node5&#45;&gt;Node1</title>
<path fill="none" stroke="#9a32cd" stroke-dasharray="5,2" d="M125.478,-51.4443C149.757,-53.8649 177.49,-57.9856 202,-65 217.251,-69.3646 233.495,-77.1601 245.229,-83.4192"/>
<polygon fill="#9a32cd" stroke="#9a32cd" points="125.583,-47.9392 115.304,-50.5075 124.941,-54.9097 125.583,-47.9392"/>
<text text-anchor="middle" x="171" y="-79" font-family="Arial" font-size="10.00"> renamejoints</text>
<text text-anchor="middle" x="171" y="-68" font-family="Arial" font-size="10.00">remapjoints</text>
</g>
<!-- Node6 -->
<g id="node6" class="node"><title>Node6</title>
<g id="a_node6"><a xlink:href="classid_list.html" target="_top" xlink:title="idList\&lt; idAnimGroup \&gt;">
<polygon fill="white" stroke="black" points="4,-0.5 4,-19.5 118,-19.5 118,-0.5 4,-0.5"/>
<text text-anchor="middle" x="61" y="-7.5" font-family="Arial" font-size="10.00">idList&lt; idAnimGroup &gt;</text>
</a>
</g>
</g>
<!-- Node6&#45;&gt;Node1 -->
<g id="edge5" class="edge"><title>Node6&#45;&gt;Node1</title>
<path fill="none" stroke="#9a32cd" stroke-dasharray="5,2" d="M128.294,-15.7403C152.453,-19.7382 179.372,-26.5152 202,-38 223.925,-49.1283 243.764,-70.5377 254.224,-83.1113"/>
<polygon fill="#9a32cd" stroke="#9a32cd" points="128.542,-12.2379 118.129,-14.1915 127.488,-19.158 128.542,-12.2379"/>
<text text-anchor="middle" x="171" y="-41" font-family="Arial" font-size="10.00"> groups</text>
</g>
</g>
</svg>
