<?xml version="1.0" encoding="UTF-8" standalone="no"?>
<!DOCTYPE svg PUBLIC "-//W3C//DTD SVG 1.1//EN"
 "http://www.w3.org/Graphics/SVG/1.1/DTD/svg11.dtd">
<!-- Generated by graphviz version 2.34.0 (20130907.0111)
 -->
<!-- Title: idObjective Pages: 1 -->
<svg width="72pt" height="196pt"
 viewBox="0.00 0.00 72.00 196.00" xmlns="http://www.w3.org/2000/svg" xmlns:xlink="http://www.w3.org/1999/xlink">
<g id="graph0" class="graph" transform="scale(1 1) rotate(0) translate(4 192)">
<title>idObjective</title>
<polygon fill="white" stroke="white" points="-4,4 -4,-192 68,-192 68,4 -4,4"/>
<!-- Node1 -->
<g id="node1" class="node"><title>Node1</title>
<polygon fill="#bfbfbf" stroke="black" points="0,-0.5 0,-19.5 64,-19.5 64,-0.5 0,-0.5"/>
<text text-anchor="middle" x="32" y="-7.5" font-family="Arial" font-size="10.00">idObjective</text>
</g>
<!-- Node2 -->
<g id="node2" class="node"><title>Node2</title>
<g id="a_node2"><a xlink:href="classid_item.html" target="_top" xlink:title="idItem">
<polygon fill="white" stroke="black" points="10.5,-56.5 10.5,-75.5 53.5,-75.5 53.5,-56.5 10.5,-56.5"/>
<text text-anchor="middle" x="32" y="-63.5" font-family="Arial" font-size="10.00">idItem</text>
</a>
</g>
</g>
<!-- Node2&#45;&gt;Node1 -->
<g id="edge1" class="edge"><title>Node2&#45;&gt;Node1</title>
<path fill="none" stroke="midnightblue" d="M25.5276,-46.1005C24.8956,-37.1357 25.3427,-26.8579 26.869,-19.7511"/>
<polygon fill="midnightblue" stroke="midnightblue" points="22.0658,-46.6216 26.8337,-56.083 29.0067,-45.7134 22.0658,-46.6216"/>
</g>
<!-- Node2&#45;&gt;Node1 -->
<g id="edge6" class="edge"><title>Node2&#45;&gt;Node1</title>
<path fill="none" stroke="midnightblue" d="M38.4724,-46.1005C39.1044,-37.1357 38.6573,-26.8579 37.131,-19.7511"/>
<polygon fill="midnightblue" stroke="midnightblue" points="34.9933,-45.7134 37.1663,-56.083 41.9342,-46.6216 34.9933,-45.7134"/>
</g>
<!-- Node3 -->
<g id="node3" class="node"><title>Node3</title>
<g id="a_node3"><a xlink:href="classid_entity.html" target="_top" xlink:title="idEntity">
<polygon fill="white" stroke="black" points="7,-112.5 7,-131.5 57,-131.5 57,-112.5 7,-112.5"/>
<text text-anchor="middle" x="32" y="-119.5" font-family="Arial" font-size="10.00">idEntity</text>
</a>
</g>
</g>
<!-- Node3&#45;&gt;Node2 -->
<g id="edge2" class="edge"><title>Node3&#45;&gt;Node2</title>
<path fill="none" stroke="midnightblue" d="M25.5276,-102.101C24.8956,-93.1357 25.3427,-82.8579 26.869,-75.7511"/>
<polygon fill="midnightblue" stroke="midnightblue" points="22.0658,-102.622 26.8337,-112.083 29.0067,-101.713 22.0658,-102.622"/>
</g>
<!-- Node3&#45;&gt;Node2 -->
<g id="edge5" class="edge"><title>Node3&#45;&gt;Node2</title>
<path fill="none" stroke="midnightblue" d="M38.4724,-102.101C39.1044,-93.1357 38.6573,-82.8579 37.131,-75.7511"/>
<polygon fill="midnightblue" stroke="midnightblue" points="34.9933,-101.713 37.1663,-112.083 41.9342,-102.622 34.9933,-101.713"/>
</g>
<!-- Node4 -->
<g id="node4" class="node"><title>Node4</title>
<g id="a_node4"><a xlink:href="classid_class.html" target="_top" xlink:title="idClass">
<polygon fill="white" stroke="black" points="7.5,-168.5 7.5,-187.5 56.5,-187.5 56.5,-168.5 7.5,-168.5"/>
<text text-anchor="middle" x="32" y="-175.5" font-family="Arial" font-size="10.00">idClass</text>
</a>
</g>
</g>
<!-- Node4&#45;&gt;Node3 -->
<g id="edge3" class="edge"><title>Node4&#45;&gt;Node3</title>
<path fill="none" stroke="midnightblue" d="M25.5276,-158.101C24.8956,-149.136 25.3427,-138.858 26.869,-131.751"/>
<polygon fill="midnightblue" stroke="midnightblue" points="22.0658,-158.622 26.8337,-168.083 29.0067,-157.713 22.0658,-158.622"/>
</g>
<!-- Node4&#45;&gt;Node3 -->
<g id="edge4" class="edge"><title>Node4&#45;&gt;Node3</title>
<path fill="none" stroke="midnightblue" d="M38.4724,-158.101C39.1044,-149.136 38.6573,-138.858 37.131,-131.751"/>
<polygon fill="midnightblue" stroke="midnightblue" points="34.9933,-157.713 37.1663,-168.083 41.9342,-158.622 34.9933,-157.713"/>
</g>
</g>
</svg>
