<?xml version="1.0" encoding="UTF-8" standalone="no"?>
<!DOCTYPE svg PUBLIC "-//W3C//DTD SVG 1.1//EN"
 "http://www.w3.org/Graphics/SVG/1.1/DTD/svg11.dtd">
<!-- Generated by graphviz version 2.34.0 (20130907.0111)
 -->
<!-- Title: idPhantomObjects Pages: 1 -->
<svg width="104pt" height="140pt"
 viewBox="0.00 0.00 104.00 140.00" xmlns="http://www.w3.org/2000/svg" xmlns:xlink="http://www.w3.org/1999/xlink">
<g id="graph0" class="graph" transform="scale(1 1) rotate(0) translate(4 136)">
<title>idPhantomObjects</title>
<polygon fill="white" stroke="white" points="-4,4 -4,-136 100,-136 100,4 -4,4"/>
<!-- Node1 -->
<g id="node1" class="node"><title>Node1</title>
<polygon fill="#bfbfbf" stroke="black" points="-0.5,-0.5 -0.5,-19.5 96.5,-19.5 96.5,-0.5 -0.5,-0.5"/>
<text text-anchor="middle" x="48" y="-7.5" font-family="Arial" font-size="10.00">idPhantomObjects</text>
</g>
<!-- Node2 -->
<g id="node2" class="node"><title>Node2</title>
<g id="a_node2"><a xlink:href="classid_entity.html" target="_top" xlink:title="idEntity">
<polygon fill="white" stroke="black" points="23,-56.5 23,-75.5 73,-75.5 73,-56.5 23,-56.5"/>
<text text-anchor="middle" x="48" y="-63.5" font-family="Arial" font-size="10.00">idEntity</text>
</a>
</g>
</g>
<!-- Node2&#45;&gt;Node1 -->
<g id="edge1" class="edge"><title>Node2&#45;&gt;Node1</title>
<path fill="none" stroke="midnightblue" d="M41.5276,-46.1005C40.8956,-37.1357 41.3427,-26.8579 42.869,-19.7511"/>
<polygon fill="midnightblue" stroke="midnightblue" points="38.0658,-46.6216 42.8337,-56.083 45.0067,-45.7134 38.0658,-46.6216"/>
</g>
<!-- Node2&#45;&gt;Node1 -->
<g id="edge4" class="edge"><title>Node2&#45;&gt;Node1</title>
<path fill="none" stroke="midnightblue" d="M54.4724,-46.1005C55.1044,-37.1357 54.6573,-26.8579 53.131,-19.7511"/>
<polygon fill="midnightblue" stroke="midnightblue" points="50.9933,-45.7134 53.1663,-56.083 57.9342,-46.6216 50.9933,-45.7134"/>
</g>
<!-- Node3 -->
<g id="node3" class="node"><title>Node3</title>
<g id="a_node3"><a xlink:href="classid_class.html" target="_top" xlink:title="idClass">
<polygon fill="white" stroke="black" points="23.5,-112.5 23.5,-131.5 72.5,-131.5 72.5,-112.5 23.5,-112.5"/>
<text text-anchor="middle" x="48" y="-119.5" font-family="Arial" font-size="10.00">idClass</text>
</a>
</g>
</g>
<!-- Node3&#45;&gt;Node2 -->
<g id="edge2" class="edge"><title>Node3&#45;&gt;Node2</title>
<path fill="none" stroke="midnightblue" d="M41.5276,-102.101C40.8956,-93.1357 41.3427,-82.8579 42.869,-75.7511"/>
<polygon fill="midnightblue" stroke="midnightblue" points="38.0658,-102.622 42.8337,-112.083 45.0067,-101.713 38.0658,-102.622"/>
</g>
<!-- Node3&#45;&gt;Node2 -->
<g id="edge3" class="edge"><title>Node3&#45;&gt;Node2</title>
<path fill="none" stroke="midnightblue" d="M54.4724,-102.101C55.1044,-93.1357 54.6573,-82.8579 53.131,-75.7511"/>
<polygon fill="midnightblue" stroke="midnightblue" points="50.9933,-101.713 53.1663,-112.083 57.9342,-102.622 50.9933,-101.713"/>
</g>
</g>
</svg>
