<?xml version="1.0" encoding="UTF-8" standalone="no"?>
<!DOCTYPE svg PUBLIC "-//W3C//DTD SVG 1.1//EN"
 "http://www.w3.org/Graphics/SVG/1.1/DTD/svg11.dtd">
<!-- Generated by graphviz version 2.34.0 (20130907.0111)
 -->
<!-- Title: rvGEWindowWrapper Pages: 1 -->
<svg width="964pt" height="1168pt"
 viewBox="0.00 0.00 964.00 1167.96" xmlns="http://www.w3.org/2000/svg" xmlns:xlink="http://www.w3.org/1999/xlink">
<g id="graph0" class="graph" transform="scale(1 1) rotate(0) translate(4 1163.96)">
<title>rvGEWindowWrapper</title>
<polygon fill="white" stroke="white" points="-4,4 -4,-1163.96 960,-1163.96 960,4 -4,4"/>
<!-- Node1 -->
<g id="node1" class="node"><title>Node1</title>
<polygon fill="#bfbfbf" stroke="black" points="846.5,-1043.46 846.5,-1062.46 955.5,-1062.46 955.5,-1043.46 846.5,-1043.46"/>
<text text-anchor="middle" x="901" y="-1050.46" font-family="Arial" font-size="10.00">rvGEWindowWrapper</text>
</g>
<!-- Node2 -->
<g id="node2" class="node"><title>Node2</title>
<g id="a_node2"><a xlink:href="classid_window.html" target="_top" xlink:title="idWindow">
<polygon fill="white" stroke="black" points="704.5,-489.461 704.5,-508.461 763.5,-508.461 763.5,-489.461 704.5,-489.461"/>
<text text-anchor="middle" x="734" y="-496.461" font-family="Arial" font-size="10.00">idWindow</text>
</a>
</g>
</g>
<!-- Node2&#45;&gt;Node1 -->
<g id="edge1" class="edge"><title>Node2&#45;&gt;Node1</title>
<path fill="none" stroke="#9a32cd" stroke-dasharray="5,2" d="M740.732,-518.208C767.253,-607.253 877.585,-977.7 897.057,-1043.08"/>
<polygon fill="#9a32cd" stroke="#9a32cd" points="744.073,-517.162 737.864,-508.577 737.364,-519.16 744.073,-517.162"/>
<text text-anchor="middle" x="805" y="-811.961" font-family="Arial" font-size="10.00"> mWindow</text>
</g>
<!-- Node2&#45;&gt;Node2 -->
<g id="edge11" class="edge"><title>Node2&#45;&gt;Node2</title>
<path fill="none" stroke="#9a32cd" stroke-dasharray="5,2" d="M721.109,-518.728C722.122,-523.458 726.419,-526.961 734,-526.961 746.441,-526.961 750.038,-517.526 744.789,-508.718"/>
<polygon fill="#9a32cd" stroke="#9a32cd" points="724.581,-519.224 723.211,-508.718 717.73,-517.786 724.581,-519.224"/>
<text text-anchor="middle" x="734" y="-562.961" font-family="Arial" font-size="10.00"> captureChild</text>
<text text-anchor="middle" x="734" y="-551.961" font-family="Arial" font-size="10.00">overChild</text>
<text text-anchor="middle" x="734" y="-540.961" font-family="Arial" font-size="10.00">parent</text>
<text text-anchor="middle" x="734" y="-529.961" font-family="Arial" font-size="10.00">focusedChild</text>
</g>
<!-- Node3 -->
<g id="node3" class="node"><title>Node3</title>
<g id="a_node3"><a xlink:href="classid_device_context.html" target="_top" xlink:title="idDeviceContext">
<polygon fill="white" stroke="black" points="467,-1036.46 467,-1055.46 553,-1055.46 553,-1036.46 467,-1036.46"/>
<text text-anchor="middle" x="510" y="-1043.46" font-family="Arial" font-size="10.00">idDeviceContext</text>
</a>
</g>
</g>
<!-- Node3&#45;&gt;Node2 -->
<g id="edge2" class="edge"><title>Node3&#45;&gt;Node2</title>
<path fill="none" stroke="#9a32cd" stroke-dasharray="5,2" d="M562.556,-1033.79C568.351,-1030.7 573.703,-1026.82 578,-1021.96 602.142,-994.66 570.605,-968.101 596,-941.961 624.769,-912.349 658.901,-950.108 686,-918.961 713.933,-886.856 729.838,-568 732.575,-508.497"/>
<polygon fill="#9a32cd" stroke="#9a32cd" points="560.846,-1030.72 553.176,-1038.03 563.73,-1037.1 560.846,-1030.72"/>
<text text-anchor="middle" x="641" y="-944.961" font-family="Arial" font-size="10.00"> dc</text>
</g>
<!-- Node4 -->
<g id="node4" class="node"><title>Node4</title>
<g id="a_node4"><a xlink:href="classid_vec4.html" target="_top" xlink:title="idVec4">
<polygon fill="white" stroke="black" points="267.5,-992.461 267.5,-1011.46 314.5,-1011.46 314.5,-992.461 267.5,-992.461"/>
<text text-anchor="middle" x="291" y="-999.461" font-family="Arial" font-size="10.00">idVec4</text>
</a>
</g>
</g>
<!-- Node4&#45;&gt;Node3 -->
<g id="edge3" class="edge"><title>Node4&#45;&gt;Node3</title>
<path fill="none" stroke="#9a32cd" stroke-dasharray="5,2" d="M303.451,-983.782C313.674,-969.409 330.087,-950.408 350,-941.961 380.278,-929.118 398.318,-921.416 424,-941.961 452.458,-964.728 417.858,-994.66 442,-1021.96 448.548,-1029.37 457.546,-1034.49 466.824,-1038.03"/>
<polygon fill="#9a32cd" stroke="#9a32cd" points="300.33,-982.15 297.652,-992.4 306.138,-986.057 300.33,-982.15"/>
<text text-anchor="middle" x="387" y="-1032.96" font-family="Arial" font-size="10.00"> colorRed</text>
<text text-anchor="middle" x="387" y="-1021.96" font-family="Arial" font-size="10.00">colorNone</text>
<text text-anchor="middle" x="387" y="-1010.96" font-family="Arial" font-size="10.00">colorYellow</text>
<text text-anchor="middle" x="387" y="-999.961" font-family="Arial" font-size="10.00">colorPurple</text>
<text text-anchor="middle" x="387" y="-988.961" font-family="Arial" font-size="10.00">colorBlue</text>
<text text-anchor="middle" x="387" y="-977.961" font-family="Arial" font-size="10.00">colorWhite</text>
<text text-anchor="middle" x="387" y="-966.961" font-family="Arial" font-size="10.00">colorGreen</text>
<text text-anchor="middle" x="387" y="-955.961" font-family="Arial" font-size="10.00">colorOrange</text>
<text text-anchor="middle" x="387" y="-944.961" font-family="Arial" font-size="10.00">colorBlack</text>
</g>
<!-- Node5 -->
<g id="node5" class="node"><title>Node5</title>
<g id="a_node5"><a xlink:href="classid_win_vec4.html" target="_top" xlink:title="idWinVec4">
<polygon fill="white" stroke="black" points="478,-1074.46 478,-1093.46 542,-1093.46 542,-1074.46 478,-1074.46"/>
<text text-anchor="middle" x="510" y="-1081.46" font-family="Arial" font-size="10.00">idWinVec4</text>
</a>
</g>
</g>
<!-- Node4&#45;&gt;Node5 -->
<g id="edge7" class="edge"><title>Node4&#45;&gt;Node5</title>
<path fill="none" stroke="#9a32cd" stroke-dasharray="5,2" d="M312,-1017.8C322.756,-1025.69 336.546,-1034.82 350,-1040.96 372.699,-1051.32 438.33,-1067.53 477.817,-1076.81"/>
<polygon fill="#9a32cd" stroke="#9a32cd" points="313.84,-1014.81 303.753,-1011.57 309.618,-1020.39 313.84,-1014.81"/>
<text text-anchor="middle" x="387" y="-1064.96" font-family="Arial" font-size="10.00"> data</text>
</g>
<!-- Node5&#45;&gt;Node2 -->
<g id="edge4" class="edge"><title>Node5&#45;&gt;Node2</title>
<path fill="none" stroke="#9a32cd" stroke-dasharray="5,2" d="M552.053,-1079.76C561.713,-1076.92 571.171,-1072.34 578,-1064.96 605.42,-1035.35 568.195,-1005.21 596,-975.961 624.445,-946.038 659.03,-984.22 686,-952.961 716.088,-918.088 730.291,-572.085 732.645,-508.854"/>
<polygon fill="#9a32cd" stroke="#9a32cd" points="550.947,-1076.42 542.015,-1082.12 552.551,-1083.24 550.947,-1076.42"/>
<text text-anchor="middle" x="641" y="-1022.96" font-family="Arial" font-size="10.00"> foreColor</text>
<text text-anchor="middle" x="641" y="-1011.96" font-family="Arial" font-size="10.00">matColor</text>
<text text-anchor="middle" x="641" y="-1000.96" font-family="Arial" font-size="10.00">hoverColor</text>
<text text-anchor="middle" x="641" y="-989.961" font-family="Arial" font-size="10.00">borderColor</text>
<text text-anchor="middle" x="641" y="-978.961" font-family="Arial" font-size="10.00">backColor</text>
</g>
<!-- Node6 -->
<g id="node6" class="node"><title>Node6</title>
<g id="a_node6"><a xlink:href="classid_win_var.html" target="_top" xlink:title="idWinVar">
<polygon fill="white" stroke="black" points="136,-866.461 136,-885.461 192,-885.461 192,-866.461 136,-866.461"/>
<text text-anchor="middle" x="164" y="-873.461" font-family="Arial" font-size="10.00">idWinVar</text>
</a>
</g>
</g>
<!-- Node6&#45;&gt;Node5 -->
<g id="edge5" class="edge"><title>Node6&#45;&gt;Node5</title>
<path fill="none" stroke="midnightblue" d="M172.169,-894.935C184.282,-924.902 211.317,-983.612 250,-1020.96 286.337,-1056.05 301.399,-1061.2 350,-1074.96 393.097,-1087.16 445.321,-1087.52 477.863,-1086.15"/>
<polygon fill="midnightblue" stroke="midnightblue" points="175.423,-893.647 168.512,-885.616 168.907,-896.204 175.423,-893.647"/>
</g>
<!-- Node11 -->
<g id="node11" class="node"><title>Node11</title>
<g id="a_node11"><a xlink:href="classid_win_str.html" target="_top" xlink:title="idWinStr">
<polygon fill="white" stroke="black" points="264,-402.461 264,-421.461 318,-421.461 318,-402.461 264,-402.461"/>
<text text-anchor="middle" x="291" y="-409.461" font-family="Arial" font-size="10.00">idWinStr</text>
</a>
</g>
</g>
<!-- Node6&#45;&gt;Node11 -->
<g id="edge13" class="edge"><title>Node6&#45;&gt;Node11</title>
<path fill="none" stroke="midnightblue" d="M167.335,-856.154C172.627,-813.52 186.901,-710.105 210,-625.961 232.26,-544.874 272.515,-451.328 285.695,-421.567"/>
<polygon fill="midnightblue" stroke="midnightblue" points="163.835,-855.937 166.106,-866.286 170.784,-856.78 163.835,-855.937"/>
</g>
<!-- Node12 -->
<g id="node12" class="node"><title>Node12</title>
<g id="a_node12"><a xlink:href="classid_win_rectangle.html" target="_top" xlink:title="idWinRectangle">
<polygon fill="white" stroke="black" points="467.5,-630.461 467.5,-649.461 552.5,-649.461 552.5,-630.461 467.5,-630.461"/>
<text text-anchor="middle" x="510" y="-637.461" font-family="Arial" font-size="10.00">idWinRectangle</text>
</a>
</g>
</g>
<!-- Node6&#45;&gt;Node12 -->
<g id="edge16" class="edge"><title>Node6&#45;&gt;Node12</title>
<path fill="none" stroke="midnightblue" d="M166.093,-855.998C169.683,-812.02 184.992,-706.894 250,-658.961 313.686,-612.003 411.776,-620.5 467.168,-630.486"/>
<polygon fill="midnightblue" stroke="midnightblue" points="162.599,-855.796 165.397,-866.015 169.582,-856.282 162.599,-855.796"/>
</g>
<!-- Node15 -->
<g id="node15" class="node"><title>Node15</title>
<g id="a_node15"><a xlink:href="classid_win_float.html" target="_top" xlink:title="idWinFloat">
<polygon fill="white" stroke="black" points="355.5,-898.461 355.5,-917.461 418.5,-917.461 418.5,-898.461 355.5,-898.461"/>
<text text-anchor="middle" x="387" y="-905.461" font-family="Arial" font-size="10.00">idWinFloat</text>
</a>
</g>
</g>
<!-- Node6&#45;&gt;Node15 -->
<g id="edge20" class="edge"><title>Node6&#45;&gt;Node15</title>
<path fill="none" stroke="midnightblue" d="M201.862,-885.252C216.734,-888.725 234.105,-892.435 250,-894.961 285.957,-900.676 327.69,-904.211 355.345,-906.126"/>
<polygon fill="midnightblue" stroke="midnightblue" points="202.553,-881.819 192.013,-882.904 200.929,-888.628 202.553,-881.819"/>
</g>
<!-- Node26 -->
<g id="node26" class="node"><title>Node26</title>
<g id="a_node26"><a xlink:href="classid_win_bool.html" target="_top" xlink:title="idWinBool">
<polygon fill="white" stroke="black" points="356.5,-828.461 356.5,-847.461 417.5,-847.461 417.5,-828.461 356.5,-828.461"/>
<text text-anchor="middle" x="387" y="-835.461" font-family="Arial" font-size="10.00">idWinBool</text>
</a>
</g>
</g>
<!-- Node6&#45;&gt;Node26 -->
<g id="edge34" class="edge"><title>Node6&#45;&gt;Node26</title>
<path fill="none" stroke="midnightblue" d="M201.922,-867.024C216.802,-863.601 234.164,-859.833 250,-856.961 286.477,-850.348 328.819,-844.758 356.442,-841.389"/>
<polygon fill="midnightblue" stroke="midnightblue" points="201.009,-863.642 192.065,-869.323 202.599,-870.459 201.009,-863.642"/>
</g>
<!-- Node7 -->
<g id="node7" class="node"><title>Node7</title>
<g id="a_node7"><a xlink:href="classid_dict.html" target="_top" xlink:title="idDict">
<polygon fill="white" stroke="black" points="12.5,-1054.46 12.5,-1073.46 53.5,-1073.46 53.5,-1054.46 12.5,-1054.46"/>
<text text-anchor="middle" x="33" y="-1061.46" font-family="Arial" font-size="10.00">idDict</text>
</a>
</g>
</g>
<!-- Node7&#45;&gt;Node1 -->
<g id="edge46" class="edge"><title>Node7&#45;&gt;Node1</title>
<path fill="none" stroke="#9a32cd" stroke-dasharray="5,2" d="M52.7512,-1079.89C76.6898,-1098.56 120.158,-1126.96 163,-1126.96 163,-1126.96 163,-1126.96 735,-1126.96 797.162,-1126.96 861.871,-1082.69 888.002,-1062.64"/>
<polygon fill="#9a32cd" stroke="#9a32cd" points="54.8353,-1077.08 44.8526,-1073.53 50.4431,-1082.53 54.8353,-1077.08"/>
<text text-anchor="middle" x="387" y="-1151.96" font-family="Arial" font-size="10.00"> mScripts</text>
<text text-anchor="middle" x="387" y="-1140.96" font-family="Arial" font-size="10.00">mState</text>
<text text-anchor="middle" x="387" y="-1129.96" font-family="Arial" font-size="10.00">mVariables</text>
</g>
<!-- Node7&#45;&gt;Node6 -->
<g id="edge6" class="edge"><title>Node7&#45;&gt;Node6</title>
<path fill="none" stroke="#9a32cd" stroke-dasharray="5,2" d="M46.2642,-1046.09C72.9721,-1007.16 135.652,-915.818 156.284,-885.749"/>
<polygon fill="#9a32cd" stroke="#9a32cd" points="43.3464,-1044.15 40.5745,-1054.38 49.1183,-1048.11 43.3464,-1044.15"/>
<text text-anchor="middle" x="101" y="-988.961" font-family="Arial" font-size="10.00"> guiDict</text>
</g>
<!-- Node8 -->
<g id="node8" class="node"><title>Node8</title>
<g id="a_node8"><a xlink:href="classid_list.html" target="_top" xlink:title="idList\&lt; float \&gt;">
<polygon fill="white" stroke="black" points="472,-744.461 472,-763.461 548,-763.461 548,-744.461 472,-744.461"/>
<text text-anchor="middle" x="510" y="-751.461" font-family="Arial" font-size="10.00">idList&lt; float &gt;</text>
</a>
</g>
</g>
<!-- Node8&#45;&gt;Node2 -->
<g id="edge8" class="edge"><title>Node8&#45;&gt;Node2</title>
<path fill="none" stroke="#9a32cd" stroke-dasharray="5,2" d="M558.141,-760.831C597.44,-763.726 652.267,-760.739 686,-728.961 718.855,-698.011 730.041,-548.434 732.459,-508.681"/>
<polygon fill="#9a32cd" stroke="#9a32cd" points="558.275,-757.329 548.004,-759.93 557.655,-764.302 558.275,-757.329"/>
<text text-anchor="middle" x="641" y="-774.961" font-family="Arial" font-size="10.00"> saveRegs</text>
<text text-anchor="middle" x="641" y="-763.961" font-family="Arial" font-size="10.00">expressionRegisters</text>
</g>
<!-- Node9 -->
<g id="node9" class="node"><title>Node9</title>
<g id="a_node9"><a xlink:href="classid_str.html" target="_top" xlink:title="idStr">
<polygon fill="white" stroke="black" points="145.5,-358.461 145.5,-377.461 182.5,-377.461 182.5,-358.461 145.5,-358.461"/>
<text text-anchor="middle" x="164" y="-365.461" font-family="Arial" font-size="10.00">idStr</text>
</a>
</g>
</g>
<!-- Node9&#45;&gt;Node2 -->
<g id="edge9" class="edge"><title>Node9&#45;&gt;Node2</title>
<path fill="none" stroke="#9a32cd" stroke-dasharray="5,2" d="M180.788,-350.794C210.398,-320.023 277.823,-256.496 350,-232.961 389.429,-220.105 635.852,-194.354 686,-236.961 725.443,-270.474 731.845,-445.933 732.829,-489.274"/>
<polygon fill="#9a32cd" stroke="#9a32cd" points="178.107,-348.536 173.78,-358.207 183.194,-353.345 178.107,-348.536"/>
<text text-anchor="middle" x="387" y="-257.961" font-family="Arial" font-size="10.00"> comment</text>
<text text-anchor="middle" x="387" y="-246.961" font-family="Arial" font-size="10.00">cmd</text>
<text text-anchor="middle" x="387" y="-235.961" font-family="Arial" font-size="10.00">name</text>
</g>
<!-- Node9&#45;&gt;Node11 -->
<g id="edge14" class="edge"><title>Node9&#45;&gt;Node11</title>
<path fill="none" stroke="#9a32cd" stroke-dasharray="5,2" d="M192.346,-377.587C213.564,-385.056 242.793,-395.344 263.733,-402.715"/>
<polygon fill="#9a32cd" stroke="#9a32cd" points="193.239,-374.191 182.644,-374.172 190.915,-380.794 193.239,-374.191"/>
<text text-anchor="middle" x="221" y="-393.961" font-family="Arial" font-size="10.00"> data</text>
</g>
<!-- Node17 -->
<g id="node17" class="node"><title>Node17</title>
<g id="a_node17"><a xlink:href="classid_win_background.html" target="_top" xlink:title="idWinBackground">
<polygon fill="white" stroke="black" points="463.5,-362.461 463.5,-381.461 556.5,-381.461 556.5,-362.461 463.5,-362.461"/>
<text text-anchor="middle" x="510" y="-369.461" font-family="Arial" font-size="10.00">idWinBackground</text>
</a>
</g>
</g>
<!-- Node9&#45;&gt;Node17 -->
<g id="edge24" class="edge"><title>Node9&#45;&gt;Node17</title>
<path fill="none" stroke="#9a32cd" stroke-dasharray="5,2" d="M192.595,-368.282C251.666,-368.969 390.862,-370.588 463.337,-371.43"/>
<polygon fill="#9a32cd" stroke="#9a32cd" points="192.572,-364.782 182.532,-368.165 192.491,-371.781 192.572,-364.782"/>
<text text-anchor="middle" x="291" y="-371.961" font-family="Arial" font-size="10.00"> data</text>
</g>
<!-- Node10 -->
<g id="node10" class="node"><title>Node10</title>
<g id="a_node10"><a xlink:href="classid_list.html" target="_top" xlink:title="idList\&lt; idWindow * \&gt;">
<polygon fill="white" stroke="black" points="456.5,-668.461 456.5,-687.461 563.5,-687.461 563.5,-668.461 456.5,-668.461"/>
<text text-anchor="middle" x="510" y="-675.461" font-family="Arial" font-size="10.00">idList&lt; idWindow * &gt;</text>
</a>
</g>
</g>
<!-- Node10&#45;&gt;Node2 -->
<g id="edge10" class="edge"><title>Node10&#45;&gt;Node2</title>
<path fill="none" stroke="#9a32cd" stroke-dasharray="5,2" d="M573.932,-681.622C610.698,-680.393 655.678,-672.615 686,-645.961 727.858,-609.167 732.724,-535.121 733.077,-508.647"/>
<polygon fill="#9a32cd" stroke="#9a32cd" points="573.735,-678.125 563.8,-681.805 573.861,-685.123 573.735,-678.125"/>
<text text-anchor="middle" x="641" y="-681.961" font-family="Arial" font-size="10.00"> children</text>
</g>
<!-- Node11&#45;&gt;Node2 -->
<g id="edge12" class="edge"><title>Node11&#45;&gt;Node2</title>
<path fill="none" stroke="#9a32cd" stroke-dasharray="5,2" d="M328.352,-411.929C413.868,-412.423 625.143,-417.136 686,-450.961 703.126,-460.48 718.015,-478.177 726.228,-489.219"/>
<polygon fill="#9a32cd" stroke="#9a32cd" points="328.106,-408.428 318.092,-411.886 328.077,-415.428 328.106,-408.428"/>
<text text-anchor="middle" x="510" y="-426.961" font-family="Arial" font-size="10.00"> text</text>
</g>
<!-- Node11&#45;&gt;Node17 -->
<g id="edge23" class="edge"><title>Node11&#45;&gt;Node17</title>
<path fill="none" stroke="midnightblue" d="M328.062,-405.314C365.189,-398.47 423.148,-387.787 463.426,-380.362"/>
<polygon fill="midnightblue" stroke="midnightblue" points="327.375,-401.881 318.175,-407.136 328.644,-408.765 327.375,-401.881"/>
</g>
<!-- Node12&#45;&gt;Node2 -->
<g id="edge15" class="edge"><title>Node12&#45;&gt;Node2</title>
<path fill="none" stroke="#9a32cd" stroke-dasharray="5,2" d="M563.145,-637.166C600.921,-632.681 651.254,-621.333 686,-592.961 713.558,-570.458 726.403,-527.697 730.96,-508.596"/>
<polygon fill="#9a32cd" stroke="#9a32cd" points="562.422,-633.723 552.846,-638.258 563.16,-640.684 562.422,-633.723"/>
<text text-anchor="middle" x="641" y="-633.961" font-family="Arial" font-size="10.00"> rect</text>
</g>
<!-- Node13 -->
<g id="node13" class="node"><title>Node13</title>
<g id="a_node13"><a xlink:href="classid_rectangle.html" target="_top" xlink:title="idRectangle">
<polygon fill="white" stroke="black" points="257,-668.461 257,-687.461 325,-687.461 325,-668.461 257,-668.461"/>
<text text-anchor="middle" x="291" y="-675.461" font-family="Arial" font-size="10.00">idRectangle</text>
</a>
</g>
</g>
<!-- Node13&#45;&gt;Node1 -->
<g id="edge45" class="edge"><title>Node13&#45;&gt;Node1</title>
<path fill="none" stroke="#9a32cd" stroke-dasharray="5,2" d="M313.338,-693.793C341.604,-714.209 393.554,-749.836 442,-772.961 499.584,-800.449 538.643,-768.736 578,-818.961 607.163,-856.177 562.36,-997.738 596,-1030.96 668.852,-1102.91 805.254,-1078.66 867.515,-1062.53"/>
<polygon fill="#9a32cd" stroke="#9a32cd" points="315.17,-690.797 305.027,-687.733 311.046,-696.453 315.17,-690.797"/>
<text text-anchor="middle" x="641" y="-1087.96" font-family="Arial" font-size="10.00"> mScreenRect</text>
<text text-anchor="middle" x="641" y="-1076.96" font-family="Arial" font-size="10.00">mClientRect</text>
</g>
<!-- Node13&#45;&gt;Node2 -->
<g id="edge37" class="edge"><title>Node13&#45;&gt;Node2</title>
<path fill="none" stroke="#9a32cd" stroke-dasharray="5,2" d="M312.525,-662.117C340.273,-641.556 392.05,-606.164 442,-587.961 545.183,-550.36 588.968,-600.394 686,-548.961 704.105,-539.364 719.098,-520.093 726.988,-508.479"/>
<polygon fill="#9a32cd" stroke="#9a32cd" points="310.282,-659.424 304.392,-668.231 314.489,-665.019 310.282,-659.424"/>
<text text-anchor="middle" x="510" y="-612.961" font-family="Arial" font-size="10.00"> drawRect</text>
<text text-anchor="middle" x="510" y="-601.961" font-family="Arial" font-size="10.00">clientRect</text>
<text text-anchor="middle" x="510" y="-590.961" font-family="Arial" font-size="10.00">textRect</text>
</g>
<!-- Node13&#45;&gt;Node12 -->
<g id="edge17" class="edge"><title>Node13&#45;&gt;Node12</title>
<path fill="none" stroke="#9a32cd" stroke-dasharray="5,2" d="M335.288,-670.381C373.699,-663.654 429.447,-653.892 467.354,-647.254"/>
<polygon fill="#9a32cd" stroke="#9a32cd" points="334.677,-666.934 325.431,-672.107 335.885,-673.83 334.677,-666.934"/>
<text text-anchor="middle" x="387" y="-669.961" font-family="Arial" font-size="10.00"> data</text>
</g>
<!-- Node14 -->
<g id="node14" class="node"><title>Node14</title>
<g id="a_node14"><a xlink:href="classid_list.html" target="_top" xlink:title="idList\&lt; wexpOp_t \&gt;">
<polygon fill="white" stroke="black" points="459.5,-523.461 459.5,-542.461 560.5,-542.461 560.5,-523.461 459.5,-523.461"/>
<text text-anchor="middle" x="510" y="-530.461" font-family="Arial" font-size="10.00">idList&lt; wexpOp_t &gt;</text>
</a>
</g>
</g>
<!-- Node14&#45;&gt;Node2 -->
<g id="edge18" class="edge"><title>Node14&#45;&gt;Node2</title>
<path fill="none" stroke="#9a32cd" stroke-dasharray="5,2" d="M570.886,-527.305C604.82,-523.632 647.967,-518.178 686,-510.961 691.957,-509.831 698.281,-508.387 704.295,-506.896"/>
<polygon fill="#9a32cd" stroke="#9a32cd" points="570.241,-523.853 560.666,-528.387 570.979,-530.814 570.241,-523.853"/>
<text text-anchor="middle" x="641" y="-536.961" font-family="Arial" font-size="10.00"> saveOps</text>
<text text-anchor="middle" x="641" y="-525.961" font-family="Arial" font-size="10.00">ops</text>
</g>
<!-- Node15&#45;&gt;Node2 -->
<g id="edge19" class="edge"><title>Node15&#45;&gt;Node2</title>
<path fill="none" stroke="#9a32cd" stroke-dasharray="5,2" d="M422.665,-923.63C423.123,-924.063 423.569,-924.507 424,-924.961 438.54,-940.291 424.458,-957.184 442,-968.961 492.184,-1002.65 528.199,-1003.22 578,-968.961 596.43,-956.285 579.684,-937.263 596,-921.961 626.556,-893.305 659.212,-926.168 686,-893.961 736.786,-832.902 734.254,-562.719 733.216,-508.467"/>
<polygon fill="#9a32cd" stroke="#9a32cd" points="424.474,-920.617 414.343,-917.519 420.331,-926.259 424.474,-920.617"/>
<text text-anchor="middle" x="510" y="-1007.96" font-family="Arial" font-size="10.00"> textScale</text>
<text text-anchor="middle" x="510" y="-996.961" font-family="Arial" font-size="10.00">rotate</text>
</g>
<!-- Node16 -->
<g id="node16" class="node"><title>Node16</title>
<g id="a_node16"><a xlink:href="classid_list.html" target="_top" xlink:title="idList\&lt; idWinVar * \&gt;">
<polygon fill="white" stroke="black" points="458,-447.461 458,-466.461 562,-466.461 562,-447.461 458,-447.461"/>
<text text-anchor="middle" x="510" y="-454.461" font-family="Arial" font-size="10.00">idList&lt; idWinVar * &gt;</text>
</a>
</g>
</g>
<!-- Node16&#45;&gt;Node2 -->
<g id="edge21" class="edge"><title>Node16&#45;&gt;Node2</title>
<path fill="none" stroke="#9a32cd" stroke-dasharray="5,2" d="M572.327,-454.456C606.541,-454.791 649.493,-458.126 686,-469.961 698.951,-474.16 711.996,-482.623 721.045,-489.328"/>
<polygon fill="#9a32cd" stroke="#9a32cd" points="572.01,-450.955 562.006,-454.442 572.001,-457.955 572.01,-450.955"/>
<text text-anchor="middle" x="641" y="-483.961" font-family="Arial" font-size="10.00"> definedVars</text>
<text text-anchor="middle" x="641" y="-472.961" font-family="Arial" font-size="10.00">updateVars</text>
</g>
<!-- Node17&#45;&gt;Node2 -->
<g id="edge22" class="edge"><title>Node17&#45;&gt;Node2</title>
<path fill="none" stroke="#9a32cd" stroke-dasharray="5,2" d="M566.972,-365.222C604.143,-363.748 652.146,-367.943 686,-392.961 718.379,-416.89 728.852,-468.127 731.885,-489.399"/>
<polygon fill="#9a32cd" stroke="#9a32cd" points="566.591,-361.738 556.796,-365.776 566.971,-368.727 566.591,-361.738"/>
<text text-anchor="middle" x="641" y="-395.961" font-family="Arial" font-size="10.00"> backGroundName</text>
</g>
<!-- Node18 -->
<g id="node18" class="node"><title>Node18</title>
<g id="a_node18"><a xlink:href="classid_material.html" target="_top" xlink:title="idMaterial">
<polygon fill="white" stroke="black" points="261.5,-172.461 261.5,-191.461 320.5,-191.461 320.5,-172.461 261.5,-172.461"/>
<text text-anchor="middle" x="291" y="-179.461" font-family="Arial" font-size="10.00">idMaterial</text>
</a>
</g>
</g>
<!-- Node18&#45;&gt;Node2 -->
<g id="edge43" class="edge"><title>Node18&#45;&gt;Node2</title>
<path fill="none" stroke="#9a32cd" stroke-dasharray="5,2" d="M330.747,-178.35C419.889,-170.948 635.72,-158.495 686,-205.961 728.238,-245.836 732.533,-442.805 732.956,-489.173"/>
<polygon fill="#9a32cd" stroke="#9a32cd" points="330.19,-174.884 320.524,-179.223 330.786,-181.859 330.19,-174.884"/>
<text text-anchor="middle" x="510" y="-176.961" font-family="Arial" font-size="10.00"> background</text>
</g>
<!-- Node18&#45;&gt;Node17 -->
<g id="edge25" class="edge"><title>Node18&#45;&gt;Node17</title>
<path fill="none" stroke="#9a32cd" stroke-dasharray="5,2" d="M302.653,-200.364C324.176,-235.808 376.422,-313.518 442,-352.961 448.527,-356.887 455.9,-360.032 463.306,-362.541"/>
<polygon fill="#9a32cd" stroke="#9a32cd" points="305.533,-198.359 297.412,-191.555 299.518,-201.939 305.533,-198.359"/>
<text text-anchor="middle" x="387" y="-341.961" font-family="Arial" font-size="10.00"> mat</text>
</g>
<!-- Node19 -->
<g id="node19" class="node"><title>Node19</title>
<g id="a_node19"><a xlink:href="classid_decl.html" target="_top" xlink:title="idDecl">
<polygon fill="white" stroke="black" points="142,-172.461 142,-191.461 186,-191.461 186,-172.461 142,-172.461"/>
<text text-anchor="middle" x="164" y="-179.461" font-family="Arial" font-size="10.00">idDecl</text>
</a>
</g>
</g>
<!-- Node19&#45;&gt;Node18 -->
<g id="edge26" class="edge"><title>Node19&#45;&gt;Node18</title>
<path fill="none" stroke="midnightblue" d="M196.314,-181.961C216.211,-181.961 241.778,-181.961 261.175,-181.961"/>
<polygon fill="midnightblue" stroke="midnightblue" points="196.205,-178.461 186.205,-181.961 196.205,-185.461 196.205,-178.461"/>
</g>
<!-- Node20 -->
<g id="node20" class="node"><title>Node20</title>
<g id="a_node20"><a xlink:href="classid_decl_base.html" target="_top" xlink:title="idDeclBase">
<polygon fill="white" stroke="black" points="0,-172.461 0,-191.461 66,-191.461 66,-172.461 0,-172.461"/>
<text text-anchor="middle" x="33" y="-179.461" font-family="Arial" font-size="10.00">idDeclBase</text>
</a>
</g>
</g>
<!-- Node20&#45;&gt;Node19 -->
<g id="edge27" class="edge"><title>Node20&#45;&gt;Node19</title>
<path fill="none" stroke="#9a32cd" stroke-dasharray="5,2" d="M76.2792,-181.961C98.1687,-181.961 123.948,-181.961 141.678,-181.961"/>
<polygon fill="#9a32cd" stroke="#9a32cd" points="76.2194,-178.461 66.2194,-181.961 76.2193,-185.461 76.2194,-178.461"/>
<text text-anchor="middle" x="101" y="-184.961" font-family="Arial" font-size="10.00"> base</text>
</g>
<!-- Node21 -->
<g id="node21" class="node"><title>Node21</title>
<g id="a_node21"><a xlink:href="classid_list.html" target="_top" xlink:title="idList\&lt; idTimeLineEvent * \&gt;">
<polygon fill="white" stroke="black" points="442.5,-324.461 442.5,-343.461 577.5,-343.461 577.5,-324.461 442.5,-324.461"/>
<text text-anchor="middle" x="510" y="-331.461" font-family="Arial" font-size="10.00">idList&lt; idTimeLineEvent * &gt;</text>
</a>
</g>
</g>
<!-- Node21&#45;&gt;Node2 -->
<g id="edge28" class="edge"><title>Node21&#45;&gt;Node2</title>
<path fill="none" stroke="#9a32cd" stroke-dasharray="5,2" d="M574.561,-323.655C610.924,-321.379 655.273,-325.204 686,-349.961 730.145,-385.529 733.536,-462.332 733.293,-489.335"/>
<polygon fill="#9a32cd" stroke="#9a32cd" points="574.228,-320.17 564.534,-324.446 574.778,-327.148 574.228,-320.17"/>
<text text-anchor="middle" x="641" y="-352.961" font-family="Arial" font-size="10.00"> timeLineEvents</text>
</g>
<!-- Node22 -->
<g id="node22" class="node"><title>Node22</title>
<g id="a_node22"><a xlink:href="classid_gui_script_list.html" target="_top" xlink:title="idGuiScriptList">
<polygon fill="white" stroke="black" points="470,-286.461 470,-305.461 550,-305.461 550,-286.461 470,-286.461"/>
<text text-anchor="middle" x="510" y="-293.461" font-family="Arial" font-size="10.00">idGuiScriptList</text>
</a>
</g>
</g>
<!-- Node22&#45;&gt;Node2 -->
<g id="edge29" class="edge"><title>Node22&#45;&gt;Node2</title>
<path fill="none" stroke="#9a32cd" stroke-dasharray="5,2" d="M560.26,-285.007C598.877,-279.477 651.654,-279.091 686,-307.961 714.493,-331.912 728.541,-453.577 732.084,-489.168"/>
<polygon fill="#9a32cd" stroke="#9a32cd" points="559.597,-281.568 550.27,-286.595 560.696,-288.481 559.597,-281.568"/>
<text text-anchor="middle" x="641" y="-310.961" font-family="Arial" font-size="10.00"> scripts</text>
</g>
<!-- Node23 -->
<g id="node23" class="node"><title>Node23</title>
<g id="a_node23"><a xlink:href="classid_register_list.html" target="_top" xlink:title="idRegisterList">
<polygon fill="white" stroke="black" points="472,-248.461 472,-267.461 548,-267.461 548,-248.461 472,-248.461"/>
<text text-anchor="middle" x="510" y="-255.461" font-family="Arial" font-size="10.00">idRegisterList</text>
</a>
</g>
</g>
<!-- Node23&#45;&gt;Node2 -->
<g id="edge30" class="edge"><title>Node23&#45;&gt;Node2</title>
<path fill="none" stroke="#9a32cd" stroke-dasharray="5,2" d="M555.836,-246.447C594.896,-239.31 650.667,-236.521 686,-266.961 720.56,-296.735 730.525,-449.337 732.562,-489.347"/>
<polygon fill="#9a32cd" stroke="#9a32cd" points="554.916,-243.062 545.791,-248.444 556.281,-249.927 554.916,-243.062"/>
<text text-anchor="middle" x="641" y="-269.961" font-family="Arial" font-size="10.00"> regList</text>
</g>
<!-- Node24 -->
<g id="node24" class="node"><title>Node24</title>
<g id="a_node24"><a xlink:href="classid_user_interface_local.html" target="_top" xlink:title="idUserInterfaceLocal">
<polygon fill="white" stroke="black" points="458,-11.4612 458,-30.4612 562,-30.4612 562,-11.4612 458,-11.4612"/>
<text text-anchor="middle" x="510" y="-18.4612" font-family="Arial" font-size="10.00">idUserInterfaceLocal</text>
</a>
</g>
</g>
<!-- Node24&#45;&gt;Node2 -->
<g id="edge31" class="edge"><title>Node24&#45;&gt;Node2</title>
<path fill="none" stroke="#9a32cd" stroke-dasharray="5,2" d="M549.248,-8.7984C588.786,1.14083 649.707,8.67413 686,-24.9612 721.406,-57.7746 731.325,-425.07 732.795,-489.381"/>
<polygon fill="#9a32cd" stroke="#9a32cd" points="548.194,-5.45706 539.439,-11.4231 550.004,-12.2191 548.194,-5.45706"/>
<text text-anchor="middle" x="641" y="-27.9612" font-family="Arial" font-size="10.00"> gui</text>
</g>
<!-- Node25 -->
<g id="node25" class="node"><title>Node25</title>
<g id="a_node25"><a xlink:href="classid_user_interface.html" target="_top" xlink:title="idUserInterface">
<polygon fill="white" stroke="black" points="250.5,-11.4612 250.5,-30.4612 331.5,-30.4612 331.5,-11.4612 250.5,-11.4612"/>
<text text-anchor="middle" x="291" y="-18.4612" font-family="Arial" font-size="10.00">idUserInterface</text>
</a>
</g>
</g>
<!-- Node25&#45;&gt;Node24 -->
<g id="edge32" class="edge"><title>Node25&#45;&gt;Node24</title>
<path fill="none" stroke="midnightblue" d="M341.937,-20.9612C376.672,-20.9612 422.842,-20.9612 457.841,-20.9612"/>
<polygon fill="midnightblue" stroke="midnightblue" points="341.549,-17.4613 331.549,-20.9612 341.549,-24.4613 341.549,-17.4613"/>
</g>
<!-- Node26&#45;&gt;Node2 -->
<g id="edge33" class="edge"><title>Node26&#45;&gt;Node2</title>
<path fill="none" stroke="#9a32cd" stroke-dasharray="5,2" d="M427.846,-836.702C500.543,-833.539 650.498,-822.739 686,-786.961 726.234,-746.415 732.055,-553.837 732.871,-508.525"/>
<polygon fill="#9a32cd" stroke="#9a32cd" points="427.552,-833.211 417.703,-837.115 427.837,-840.205 427.552,-833.211"/>
<text text-anchor="middle" x="510" y="-870.961" font-family="Arial" font-size="10.00"> noTime</text>
<text text-anchor="middle" x="510" y="-859.961" font-family="Arial" font-size="10.00">hideCursor</text>
<text text-anchor="middle" x="510" y="-848.961" font-family="Arial" font-size="10.00">noEvents</text>
<text text-anchor="middle" x="510" y="-837.961" font-family="Arial" font-size="10.00">visible</text>
</g>
<!-- Node27 -->
<g id="node27" class="node"><title>Node27</title>
<g id="a_node27"><a xlink:href="classid_vec2.html" target="_top" xlink:title="idVec2">
<polygon fill="white" stroke="black" points="486.5,-125.461 486.5,-144.461 533.5,-144.461 533.5,-125.461 486.5,-125.461"/>
<text text-anchor="middle" x="510" y="-132.461" font-family="Arial" font-size="10.00">idVec2</text>
</a>
</g>
</g>
<!-- Node27&#45;&gt;Node2 -->
<g id="edge35" class="edge"><title>Node27&#45;&gt;Node2</title>
<path fill="none" stroke="#9a32cd" stroke-dasharray="5,2" d="M543.627,-125.791C582.782,-116.974 647.909,-109.622 686,-144.961 737.927,-193.136 734.601,-437.342 733.287,-489.252"/>
<polygon fill="#9a32cd" stroke="#9a32cd" points="542.693,-122.416 533.79,-128.16 544.332,-129.221 542.693,-122.416"/>
<text text-anchor="middle" x="641" y="-158.961" font-family="Arial" font-size="10.00"> origin</text>
<text text-anchor="middle" x="641" y="-147.961" font-family="Arial" font-size="10.00">shear</text>
</g>
<!-- Node28 -->
<g id="node28" class="node"><title>Node28</title>
<g id="a_node28"><a xlink:href="classid_list.html" target="_top" xlink:title="idList\&lt; drawWin_t \&gt;">
<polygon fill="white" stroke="black" points="458,-87.4612 458,-106.461 562,-106.461 562,-87.4612 458,-87.4612"/>
<text text-anchor="middle" x="510" y="-94.4612" font-family="Arial" font-size="10.00">idList&lt; drawWin_t &gt;</text>
</a>
</g>
</g>
<!-- Node28&#45;&gt;Node2 -->
<g id="edge36" class="edge"><title>Node28&#45;&gt;Node2</title>
<path fill="none" stroke="#9a32cd" stroke-dasharray="5,2" d="M551.935,-85.1032C591.481,-76.4001 650.467,-71.1122 686,-103.961 715.285,-131.035 729.988,-430.868 732.581,-489.171"/>
<polygon fill="#9a32cd" stroke="#9a32cd" points="551.006,-81.7263 542.078,-87.4308 552.614,-88.539 551.006,-81.7263"/>
<text text-anchor="middle" x="641" y="-106.961" font-family="Arial" font-size="10.00"> drawWindows</text>
</g>
<!-- Node29 -->
<g id="node29" class="node"><title>Node29</title>
<g id="a_node29"><a xlink:href="classid_list.html" target="_top" xlink:title="idList\&lt; idTransitionData \&gt;">
<polygon fill="white" stroke="black" points="446,-49.4612 446,-68.4612 574,-68.4612 574,-49.4612 446,-49.4612"/>
<text text-anchor="middle" x="510" y="-56.4612" font-family="Arial" font-size="10.00">idList&lt; idTransitionData &gt;</text>
</a>
</g>
</g>
<!-- Node29&#45;&gt;Node2 -->
<g id="edge38" class="edge"><title>Node29&#45;&gt;Node2</title>
<path fill="none" stroke="#9a32cd" stroke-dasharray="5,2" d="M550.234,-46.8755C589.775,-37.3741 649.958,-30.6616 686,-63.9612 718.43,-93.9231 730.721,-428.264 732.704,-489.395"/>
<polygon fill="#9a32cd" stroke="#9a32cd" points="549.224,-43.5211 540.407,-49.3955 550.963,-50.3017 549.224,-43.5211"/>
<text text-anchor="middle" x="641" y="-66.9612" font-family="Arial" font-size="10.00"> transitions</text>
</g>
<!-- Node30 -->
<g id="node30" class="node"><title>Node30</title>
<g id="a_node30"><a xlink:href="classid_c_var.html" target="_top" xlink:title="idCVar">
<polygon fill="white" stroke="black" points="487,-900.461 487,-919.461 533,-919.461 533,-900.461 487,-900.461"/>
<text text-anchor="middle" x="510" y="-907.461" font-family="Arial" font-size="10.00">idCVar</text>
</a>
</g>
</g>
<!-- Node30&#45;&gt;Node2 -->
<g id="edge39" class="edge"><title>Node30&#45;&gt;Node2</title>
<path fill="none" stroke="#9a32cd" stroke-dasharray="5,2" d="M542.806,-900.867C554.247,-897.007 567.029,-891.991 578,-885.961 586.882,-881.08 586.899,-876.421 596,-871.961 633.074,-853.795 658.559,-879.807 686,-848.961 732.455,-796.741 733.443,-559.914 733.103,-508.732"/>
<polygon fill="#9a32cd" stroke="#9a32cd" points="541.628,-897.569 533.177,-903.959 543.768,-904.234 541.628,-897.569"/>
<text text-anchor="middle" x="641" y="-885.961" font-family="Arial" font-size="10.00"> gui_debug</text>
<text text-anchor="middle" x="641" y="-874.961" font-family="Arial" font-size="10.00">gui_edit</text>
</g>
<!-- Node30&#45;&gt;Node30 -->
<g id="edge41" class="edge"><title>Node30&#45;&gt;Node30</title>
<path fill="none" stroke="#9a32cd" stroke-dasharray="5,2" d="M487.307,-928.99C488.544,-934.089 496.109,-937.961 510,-937.961 531.684,-937.961 537.952,-928.526 528.804,-919.718"/>
<polygon fill="#9a32cd" stroke="#9a32cd" points="490.555,-930.294 491.196,-919.718 484.1,-927.586 490.555,-930.294"/>
<text text-anchor="middle" x="510" y="-951.961" font-family="Arial" font-size="10.00"> next</text>
<text text-anchor="middle" x="510" y="-940.961" font-family="Arial" font-size="10.00">internalVar</text>
</g>
<!-- Node31 -->
<g id="node31" class="node"><title>Node31</title>
<g id="a_node31"><a xlink:href="classid_cmd_args.html" target="_top" xlink:title="idCmdArgs">
<polygon fill="white" stroke="black" points="258.5,-866.461 258.5,-885.461 323.5,-885.461 323.5,-866.461 258.5,-866.461"/>
<text text-anchor="middle" x="291" y="-873.461" font-family="Arial" font-size="10.00">idCmdArgs</text>
</a>
</g>
</g>
<!-- Node31&#45;&gt;Node30 -->
<g id="edge40" class="edge"><title>Node31&#45;&gt;Node30</title>
<path fill="none" stroke="#9a32cd" stroke-dasharray="5,2" d="M333.599,-872.36C359.835,-871.124 394.261,-871.414 424,-877.961 432.55,-879.843 433.874,-882.705 442,-885.961 456.795,-891.89 473.693,-897.937 486.816,-902.479"/>
<polygon fill="#9a32cd" stroke="#9a32cd" points="333.401,-868.866 323.613,-872.922 333.794,-875.855 333.401,-868.866"/>
<text text-anchor="middle" x="387" y="-880.961" font-family="Arial" font-size="10.00"> valueCompletion</text>
</g>
<!-- Node32 -->
<g id="node32" class="node"><title>Node32</title>
<g id="a_node32"><a xlink:href="structid_reg_entry.html" target="_top" xlink:title="idRegEntry">
<polygon fill="white" stroke="black" points="477.5,-706.461 477.5,-725.461 542.5,-725.461 542.5,-706.461 477.5,-706.461"/>
<text text-anchor="middle" x="510" y="-713.461" font-family="Arial" font-size="10.00">idRegEntry</text>
</a>
</g>
</g>
<!-- Node32&#45;&gt;Node2 -->
<g id="edge42" class="edge"><title>Node32&#45;&gt;Node2</title>
<path fill="none" stroke="#9a32cd" stroke-dasharray="5,2" d="M552.843,-716.013C598.283,-715.174 666.942,-711.005 686,-693.961 714.294,-668.658 728.482,-545.043 732.071,-508.903"/>
<polygon fill="#9a32cd" stroke="#9a32cd" points="552.632,-712.516 542.682,-716.153 552.729,-719.515 552.632,-712.516"/>
<text text-anchor="middle" x="641" y="-716.961" font-family="Arial" font-size="10.00"> RegisterVars</text>
</g>
<!-- Node33 -->
<g id="node33" class="node"><title>Node33</title>
<g id="a_node33"><a xlink:href="classid_list.html" target="_top" xlink:title="idList\&lt; rvNamedEvent * \&gt;">
<polygon fill="white" stroke="black" points="447,-485.461 447,-504.461 573,-504.461 573,-485.461 447,-485.461"/>
<text text-anchor="middle" x="510" y="-492.461" font-family="Arial" font-size="10.00">idList&lt; rvNamedEvent * &gt;</text>
</a>
</g>
</g>
<!-- Node33&#45;&gt;Node2 -->
<g id="edge44" class="edge"><title>Node33&#45;&gt;Node2</title>
<path fill="none" stroke="#9a32cd" stroke-dasharray="5,2" d="M583.151,-496.261C624.383,-497.004 673.799,-497.895 704.299,-498.444"/>
<polygon fill="#9a32cd" stroke="#9a32cd" points="583.196,-492.762 573.135,-496.081 583.07,-499.76 583.196,-492.762"/>
<text text-anchor="middle" x="641" y="-500.961" font-family="Arial" font-size="10.00"> namedEvents</text>
</g>
</g>
</svg>
