<?xml version="1.0" encoding="UTF-8" standalone="no"?>
<!DOCTYPE svg PUBLIC "-//W3C//DTD SVG 1.1//EN"
 "http://www.w3.org/Graphics/SVG/1.1/DTD/svg11.dtd">
<!-- Generated by graphviz version 2.34.0 (20130907.0111)
 -->
<!-- Title: idGLDrawableView Pages: 1 -->
<svg width="936pt" height="693pt"
 viewBox="0.00 0.00 936.00 692.97" xmlns="http://www.w3.org/2000/svg" xmlns:xlink="http://www.w3.org/1999/xlink">
<g id="graph0" class="graph" transform="scale(1 1) rotate(0) translate(4 688.968)">
<title>idGLDrawableView</title>
<polygon fill="white" stroke="white" points="-4,4 -4,-688.968 932,-688.968 932,4 -4,4"/>
<!-- Node1 -->
<g id="node1" class="node"><title>Node1</title>
<polygon fill="#bfbfbf" stroke="black" points="830,-501.468 830,-520.468 928,-520.468 928,-501.468 830,-501.468"/>
<text text-anchor="middle" x="879" y="-508.468" font-family="Arial" font-size="10.00">idGLDrawableView</text>
</g>
<!-- Node2 -->
<g id="node2" class="node"><title>Node2</title>
<g id="a_node2"><a xlink:href="classid_g_l_drawable.html" target="_top" xlink:title="idGLDrawable">
<polygon fill="white" stroke="black" points="602.5,-665.468 602.5,-684.468 679.5,-684.468 679.5,-665.468 602.5,-665.468"/>
<text text-anchor="middle" x="641" y="-672.468" font-family="Arial" font-size="10.00">idGLDrawable</text>
</a>
</g>
</g>
<!-- Node2&#45;&gt;Node1 -->
<g id="edge1" class="edge"><title>Node2&#45;&gt;Node1</title>
<path fill="none" stroke="midnightblue" d="M689.603,-675.547C726.44,-673.663 776.921,-665.729 812,-638.968 852.75,-607.879 870.559,-544.501 876.037,-520.482"/>
<polygon fill="midnightblue" stroke="midnightblue" points="689.458,-672.05 679.599,-675.928 689.725,-679.045 689.458,-672.05"/>
</g>
<!-- Node3 -->
<g id="node3" class="node"><title>Node3</title>
<g id="a_node3"><a xlink:href="classid_list.html" target="_top" xlink:title="idList\&lt; idGLDrawableView\l::lightInfo_t \&gt;">
<polygon fill="white" stroke="black" points="576,-615.968 576,-645.968 706,-645.968 706,-615.968 576,-615.968"/>
<text text-anchor="start" x="584" y="-633.968" font-family="Arial" font-size="10.00">idList&lt; idGLDrawableView</text>
<text text-anchor="middle" x="641" y="-622.968" font-family="Arial" font-size="10.00">::lightInfo_t &gt;</text>
</a>
</g>
</g>
<!-- Node3&#45;&gt;Node1 -->
<g id="edge2" class="edge"><title>Node3&#45;&gt;Node1</title>
<path fill="none" stroke="#9a32cd" stroke-dasharray="5,2" d="M716.411,-625.269C747.758,-620.196 783.499,-610.697 812,-592.968 841.638,-574.53 863.79,-537.959 873.128,-520.577"/>
<polygon fill="#9a32cd" stroke="#9a32cd" points="715.775,-621.825 706.402,-626.765 716.81,-628.748 715.775,-621.825"/>
<text text-anchor="middle" x="768" y="-626.968" font-family="Arial" font-size="10.00"> viewLights</text>
</g>
<!-- Node4 -->
<g id="node4" class="node"><title>Node4</title>
<g id="a_node4"><a xlink:href="classid_str.html" target="_top" xlink:title="idStr">
<polygon fill="white" stroke="black" points="622.5,-577.468 622.5,-596.468 659.5,-596.468 659.5,-577.468 622.5,-577.468"/>
<text text-anchor="middle" x="641" y="-584.468" font-family="Arial" font-size="10.00">idStr</text>
</a>
</g>
</g>
<!-- Node4&#45;&gt;Node1 -->
<g id="edge3" class="edge"><title>Node4&#45;&gt;Node1</title>
<path fill="none" stroke="#9a32cd" stroke-dasharray="5,2" d="M669.749,-584.875C704.191,-581.543 764.22,-573.306 812,-553.968 832.536,-545.656 853.511,-530.644 866.146,-520.741"/>
<polygon fill="#9a32cd" stroke="#9a32cd" points="669.161,-581.413 659.514,-585.792 669.786,-588.385 669.161,-581.413"/>
<text text-anchor="middle" x="768" y="-580.968" font-family="Arial" font-size="10.00"> customModelName</text>
</g>
<!-- Node5 -->
<g id="node5" class="node"><title>Node5</title>
<g id="a_node5"><a xlink:href="classid_render_world.html" target="_top" xlink:title="idRenderWorld">
<polygon fill="white" stroke="black" points="601,-539.468 601,-558.468 681,-558.468 681,-539.468 601,-539.468"/>
<text text-anchor="middle" x="641" y="-546.468" font-family="Arial" font-size="10.00">idRenderWorld</text>
</a>
</g>
</g>
<!-- Node5&#45;&gt;Node1 -->
<g id="edge4" class="edge"><title>Node5&#45;&gt;Node1</title>
<path fill="none" stroke="#9a32cd" stroke-dasharray="5,2" d="M691.425,-542.902C725.425,-538.507 771.566,-532.102 812,-524.968 819.498,-523.645 827.443,-522.091 835.125,-520.509"/>
<polygon fill="#9a32cd" stroke="#9a32cd" points="690.758,-539.459 681.283,-544.201 691.647,-546.403 690.758,-539.459"/>
<text text-anchor="middle" x="768" y="-541.968" font-family="Arial" font-size="10.00"> world</text>
</g>
<!-- Node6 -->
<g id="node6" class="node"><title>Node6</title>
<g id="a_node6"><a xlink:href="classid_render_model.html" target="_top" xlink:title="idRenderModel">
<polygon fill="white" stroke="black" points="371.5,-424.468 371.5,-443.468 452.5,-443.468 452.5,-424.468 371.5,-424.468"/>
<text text-anchor="middle" x="412" y="-431.468" font-family="Arial" font-size="10.00">idRenderModel</text>
</a>
</g>
</g>
<!-- Node6&#45;&gt;Node1 -->
<g id="edge5" class="edge"><title>Node6&#45;&gt;Node1</title>
<path fill="none" stroke="#9a32cd" stroke-dasharray="5,2" d="M462.592,-429.185C540.422,-423.696 694.491,-421.069 812,-470.968 831.239,-479.137 851.539,-492.204 864.462,-501.165"/>
<polygon fill="#9a32cd" stroke="#9a32cd" points="462.29,-425.698 452.58,-429.937 462.814,-432.678 462.29,-425.698"/>
<text text-anchor="middle" x="641" y="-442.968" font-family="Arial" font-size="10.00"> worldModel</text>
</g>
<!-- Node9 -->
<g id="node9" class="node"><title>Node9</title>
<g id="a_node9"><a xlink:href="structrender_entity__s.html" target="_top" xlink:title="renderEntity_s">
<polygon fill="white" stroke="black" points="601,-253.468 601,-272.468 681,-272.468 681,-253.468 601,-253.468"/>
<text text-anchor="middle" x="641" y="-260.468" font-family="Arial" font-size="10.00">renderEntity_s</text>
</a>
</g>
</g>
<!-- Node6&#45;&gt;Node9 -->
<g id="edge20" class="edge"><title>Node6&#45;&gt;Node9</title>
<path fill="none" stroke="#9a32cd" stroke-dasharray="5,2" d="M442.691,-420.433C451.972,-416.462 462.318,-412.296 472,-408.968 509.417,-396.107 525.846,-409.023 558,-385.968 600.34,-355.609 627.093,-296.055 636.356,-272.697"/>
<polygon fill="#9a32cd" stroke="#9a32cd" points="441.24,-417.248 433.477,-424.458 444.042,-423.662 441.24,-417.248"/>
<text text-anchor="middle" x="515" y="-411.968" font-family="Arial" font-size="10.00"> hModel</text>
</g>
<!-- Node7 -->
<g id="node7" class="node"><title>Node7</title>
<g id="a_node7"><a xlink:href="classid_angles.html" target="_top" xlink:title="idAngles">
<polygon fill="white" stroke="black" points="614,-463.468 614,-482.468 668,-482.468 668,-463.468 614,-463.468"/>
<text text-anchor="middle" x="641" y="-470.468" font-family="Arial" font-size="10.00">idAngles</text>
</a>
</g>
</g>
<!-- Node7&#45;&gt;Node1 -->
<g id="edge6" class="edge"><title>Node7&#45;&gt;Node1</title>
<path fill="none" stroke="#9a32cd" stroke-dasharray="5,2" d="M678.402,-472.765C713.127,-473.269 766.703,-475.876 812,-485.968 827.667,-489.458 844.582,-495.923 857.366,-501.404"/>
<polygon fill="#9a32cd" stroke="#9a32cd" points="678.293,-469.264 668.26,-472.67 678.227,-476.263 678.293,-469.264"/>
<text text-anchor="middle" x="768" y="-488.968" font-family="Arial" font-size="10.00"> viewRotation</text>
</g>
<!-- Node8 -->
<g id="node8" class="node"><title>Node8</title>
<g id="a_node8"><a xlink:href="classid_vec3.html" target="_top" xlink:title="idVec3">
<polygon fill="white" stroke="black" points="216.5,-393.468 216.5,-412.468 263.5,-412.468 263.5,-393.468 216.5,-393.468"/>
<text text-anchor="middle" x="240" y="-400.468" font-family="Arial" font-size="10.00">idVec3</text>
</a>
</g>
</g>
<!-- Node8&#45;&gt;Node1 -->
<g id="edge7" class="edge"><title>Node8&#45;&gt;Node1</title>
<path fill="none" stroke="#9a32cd" stroke-dasharray="5,2" d="M271.292,-416.525C297.098,-427.631 335.392,-443.075 370,-452.968 534.083,-499.873 738.216,-509.039 829.708,-510.695"/>
<polygon fill="#9a32cd" stroke="#9a32cd" points="272.613,-413.282 262.047,-412.501 269.819,-419.701 272.613,-413.282"/>
<text text-anchor="middle" x="515" y="-493.968" font-family="Arial" font-size="10.00"> viewOrigin</text>
</g>
<!-- Node8&#45;&gt;Node9 -->
<g id="edge22" class="edge"><title>Node8&#45;&gt;Node9</title>
<path fill="none" stroke="#9a32cd" stroke-dasharray="5,2" d="M273.664,-401.509C344.457,-397.875 509.556,-386.712 558,-359.968 596.031,-338.972 624.088,-292.849 635.001,-272.704"/>
<polygon fill="#9a32cd" stroke="#9a32cd" points="273.351,-398.02 263.536,-402.01 273.697,-405.011 273.351,-398.02"/>
<text text-anchor="middle" x="412" y="-397.968" font-family="Arial" font-size="10.00"> origin</text>
</g>
<!-- Node15 -->
<g id="node15" class="node"><title>Node15</title>
<g id="a_node15"><a xlink:href="structrender_view__s.html" target="_top" xlink:title="renderView_s">
<polygon fill="white" stroke="black" points="374.5,-339.468 374.5,-358.468 449.5,-358.468 449.5,-339.468 374.5,-339.468"/>
<text text-anchor="middle" x="412" y="-346.468" font-family="Arial" font-size="10.00">renderView_s</text>
</a>
</g>
</g>
<!-- Node8&#45;&gt;Node15 -->
<g id="edge16" class="edge"><title>Node8&#45;&gt;Node15</title>
<path fill="none" stroke="#9a32cd" stroke-dasharray="5,2" d="M265.658,-388.324C272.704,-384.564 280.508,-380.789 288,-377.968 316.231,-367.335 349.62,-359.758 374.481,-355.022"/>
<polygon fill="#9a32cd" stroke="#9a32cd" points="263.658,-385.431 256.62,-393.35 267.06,-391.549 263.658,-385.431"/>
<text text-anchor="middle" x="320" y="-380.968" font-family="Arial" font-size="10.00"> vieworg</text>
</g>
<!-- Node9&#45;&gt;Node1 -->
<g id="edge8" class="edge"><title>Node9&#45;&gt;Node1</title>
<path fill="none" stroke="#9a32cd" stroke-dasharray="5,2" d="M664.346,-278.863C698.662,-303.958 765.258,-355.433 812,-408.968 838.912,-439.791 862.938,-482.474 872.997,-501.341"/>
<polygon fill="#9a32cd" stroke="#9a32cd" points="666.109,-275.818 655.958,-272.785 662.002,-281.487 666.109,-275.818"/>
<text text-anchor="middle" x="768" y="-411.968" font-family="Arial" font-size="10.00"> worldEntity</text>
</g>
<!-- Node9&#45;&gt;Node9 -->
<g id="edge23" class="edge"><title>Node9&#45;&gt;Node9</title>
<path fill="none" stroke="#9a32cd" stroke-dasharray="5,2" d="M617.563,-281.997C618.841,-287.096 626.654,-290.968 641,-290.968 663.395,-290.968 669.868,-281.533 660.42,-272.725"/>
<polygon fill="#9a32cd" stroke="#9a32cd" points="620.816,-283.292 621.58,-272.725 614.393,-280.509 620.816,-283.292"/>
<text text-anchor="middle" x="641" y="-293.968" font-family="Arial" font-size="10.00"> callback</text>
</g>
<!-- Node10 -->
<g id="node10" class="node"><title>Node10</title>
<g id="a_node10"><a xlink:href="classid_mat3.html" target="_top" xlink:title="idMat3">
<polygon fill="white" stroke="black" points="217,-316.468 217,-335.468 263,-335.468 263,-316.468 217,-316.468"/>
<text text-anchor="middle" x="240" y="-323.468" font-family="Arial" font-size="10.00">idMat3</text>
</a>
</g>
</g>
<!-- Node10&#45;&gt;Node9 -->
<g id="edge9" class="edge"><title>Node10&#45;&gt;Node9</title>
<path fill="none" stroke="#9a32cd" stroke-dasharray="5,2" d="M272.934,-320.925C345.422,-309.48 522.202,-281.567 600.992,-269.127"/>
<polygon fill="#9a32cd" stroke="#9a32cd" points="272.352,-317.474 263.02,-322.491 273.444,-324.388 272.352,-317.474"/>
<text text-anchor="middle" x="412" y="-307.968" font-family="Arial" font-size="10.00"> axis</text>
</g>
<!-- Node10&#45;&gt;Node15 -->
<g id="edge15" class="edge"><title>Node10&#45;&gt;Node15</title>
<path fill="none" stroke="#9a32cd" stroke-dasharray="5,2" d="M273.201,-330.324C302.059,-334.229 344.36,-339.952 374.472,-344.026"/>
<polygon fill="#9a32cd" stroke="#9a32cd" points="273.604,-326.847 263.225,-328.975 272.665,-333.784 273.604,-326.847"/>
<text text-anchor="middle" x="320" y="-343.968" font-family="Arial" font-size="10.00"> viewaxis</text>
</g>
<!-- Node11 -->
<g id="node11" class="node"><title>Node11</title>
<g id="a_node11"><a xlink:href="classid_decl_skin.html" target="_top" xlink:title="idDeclSkin">
<polygon fill="white" stroke="black" points="288.5,-207.468 288.5,-226.468 351.5,-226.468 351.5,-207.468 288.5,-207.468"/>
<text text-anchor="middle" x="320" y="-214.468" font-family="Arial" font-size="10.00">idDeclSkin</text>
</a>
</g>
</g>
<!-- Node11&#45;&gt;Node9 -->
<g id="edge10" class="edge"><title>Node11&#45;&gt;Node9</title>
<path fill="none" stroke="#9a32cd" stroke-dasharray="5,2" d="M352.097,-230.324C357.963,-232.47 364.108,-234.474 370,-235.968 450.368,-256.347 547.847,-261.466 600.923,-262.676"/>
<polygon fill="#9a32cd" stroke="#9a32cd" points="353.171,-226.987 342.582,-226.642 350.645,-233.515 353.171,-226.987"/>
<text text-anchor="middle" x="412" y="-254.968" font-family="Arial" font-size="10.00"> customSkin</text>
</g>
<!-- Node12 -->
<g id="node12" class="node"><title>Node12</title>
<g id="a_node12"><a xlink:href="classid_decl.html" target="_top" xlink:title="idDecl">
<polygon fill="white" stroke="black" points="128,-187.468 128,-206.468 172,-206.468 172,-187.468 128,-187.468"/>
<text text-anchor="middle" x="150" y="-194.468" font-family="Arial" font-size="10.00">idDecl</text>
</a>
</g>
</g>
<!-- Node12&#45;&gt;Node11 -->
<g id="edge11" class="edge"><title>Node12&#45;&gt;Node11</title>
<path fill="none" stroke="midnightblue" d="M182.292,-200.693C212.553,-204.295 258.129,-209.721 288.217,-213.303"/>
<polygon fill="midnightblue" stroke="midnightblue" points="182.621,-197.207 172.277,-199.501 181.793,-204.158 182.621,-197.207"/>
</g>
<!-- Node16 -->
<g id="node16" class="node"><title>Node16</title>
<g id="a_node16"><a xlink:href="classid_material.html" target="_top" xlink:title="idMaterial">
<polygon fill="white" stroke="black" points="210.5,-160.468 210.5,-179.468 269.5,-179.468 269.5,-160.468 210.5,-160.468"/>
<text text-anchor="middle" x="240" y="-167.468" font-family="Arial" font-size="10.00">idMaterial</text>
</a>
</g>
</g>
<!-- Node12&#45;&gt;Node16 -->
<g id="edge18" class="edge"><title>Node12&#45;&gt;Node16</title>
<path fill="none" stroke="midnightblue" d="M181.887,-187.491C191.106,-184.662 201.17,-181.575 210.246,-178.79"/>
<polygon fill="midnightblue" stroke="midnightblue" points="180.836,-184.152 172.302,-190.432 182.889,-190.844 180.836,-184.152"/>
</g>
<!-- Node13 -->
<g id="node13" class="node"><title>Node13</title>
<g id="a_node13"><a xlink:href="classid_decl_base.html" target="_top" xlink:title="idDeclBase">
<polygon fill="white" stroke="black" points="0,-187.468 0,-206.468 66,-206.468 66,-187.468 0,-187.468"/>
<text text-anchor="middle" x="33" y="-194.468" font-family="Arial" font-size="10.00">idDeclBase</text>
</a>
</g>
</g>
<!-- Node13&#45;&gt;Node12 -->
<g id="edge12" class="edge"><title>Node13&#45;&gt;Node12</title>
<path fill="none" stroke="#9a32cd" stroke-dasharray="5,2" d="M76.0643,-196.968C93.5984,-196.968 113.201,-196.968 127.664,-196.968"/>
<polygon fill="#9a32cd" stroke="#9a32cd" points="76.0339,-193.468 66.0339,-196.968 76.0339,-200.468 76.0339,-193.468"/>
<text text-anchor="middle" x="97" y="-199.968" font-family="Arial" font-size="10.00"> base</text>
</g>
<!-- Node14 -->
<g id="node14" class="node"><title>Node14</title>
<g id="a_node14"><a xlink:href="classid_joint_mat.html" target="_top" xlink:title="idJointMat">
<polygon fill="white" stroke="black" points="381.5,-207.468 381.5,-226.468 442.5,-226.468 442.5,-207.468 381.5,-207.468"/>
<text text-anchor="middle" x="412" y="-214.468" font-family="Arial" font-size="10.00">idJointMat</text>
</a>
</g>
</g>
<!-- Node14&#45;&gt;Node9 -->
<g id="edge13" class="edge"><title>Node14&#45;&gt;Node9</title>
<path fill="none" stroke="#9a32cd" stroke-dasharray="5,2" d="M452.925,-221.093C482.216,-224.521 522.847,-230.111 558,-237.968 576.446,-242.09 596.771,-248.275 612.571,-253.462"/>
<polygon fill="#9a32cd" stroke="#9a32cd" points="453.008,-217.581 442.677,-219.928 452.218,-224.536 453.008,-217.581"/>
<text text-anchor="middle" x="515" y="-240.968" font-family="Arial" font-size="10.00"> joints</text>
</g>
<!-- Node15&#45;&gt;Node9 -->
<g id="edge14" class="edge"><title>Node15&#45;&gt;Node9</title>
<path fill="none" stroke="#9a32cd" stroke-dasharray="5,2" d="M460.12,-346.425C489.281,-343.514 526.95,-337.285 558,-323.968 587.352,-311.379 615.967,-286.336 630.371,-272.576"/>
<polygon fill="#9a32cd" stroke="#9a32cd" points="459.435,-342.973 449.789,-347.355 460.063,-349.945 459.435,-342.973"/>
<text text-anchor="middle" x="515" y="-347.968" font-family="Arial" font-size="10.00"> remoteRenderView</text>
</g>
<!-- Node16&#45;&gt;Node1 -->
<g id="edge26" class="edge"><title>Node16&#45;&gt;Node1</title>
<path fill="none" stroke="#9a32cd" stroke-dasharray="5,2" d="M250.863,-151.069C269.186,-118.285 311.956,-51.8986 370,-25.9677 446.289,8.11398 482.166,9.11442 558,-25.9677 769.95,-124.019 860.25,-441.346 875.592,-501.186"/>
<polygon fill="#9a32cd" stroke="#9a32cd" points="247.665,-149.623 245.971,-160.082 253.817,-152.962 247.665,-149.623"/>
<text text-anchor="middle" x="515" y="-28.9677" font-family="Arial" font-size="10.00"> material</text>
</g>
<!-- Node16&#45;&gt;Node9 -->
<g id="edge24" class="edge"><title>Node16&#45;&gt;Node9</title>
<path fill="none" stroke="#9a32cd" stroke-dasharray="5,2" d="M279.713,-166.801C322.796,-164.256 394.223,-162.964 454,-175.968 503.042,-186.636 512.626,-198.517 558,-219.968 580.671,-230.685 606.161,-244.308 622.616,-253.316"/>
<polygon fill="#9a32cd" stroke="#9a32cd" points="279.41,-163.314 269.656,-167.449 279.861,-170.299 279.41,-163.314"/>
<text text-anchor="middle" x="412" y="-189.968" font-family="Arial" font-size="10.00"> customShader</text>
<text text-anchor="middle" x="412" y="-178.968" font-family="Arial" font-size="10.00">referenceShader</text>
</g>
<!-- Node16&#45;&gt;Node15 -->
<g id="edge17" class="edge"><title>Node16&#45;&gt;Node15</title>
<path fill="none" stroke="#9a32cd" stroke-dasharray="5,2" d="M252.753,-188.431C273.392,-219.722 318.847,-283.775 370,-324.968 376.681,-330.348 384.7,-335.317 391.868,-339.322"/>
<polygon fill="#9a32cd" stroke="#9a32cd" points="255.549,-186.311 247.165,-179.834 249.68,-190.126 255.549,-186.311"/>
<text text-anchor="middle" x="320" y="-310.968" font-family="Arial" font-size="10.00"> globalMaterial</text>
</g>
<!-- Node17 -->
<g id="node17" class="node"><title>Node17</title>
<g id="a_node17"><a xlink:href="classid_sound_emitter.html" target="_top" xlink:title="idSoundEmitter">
<polygon fill="white" stroke="black" points="370.5,-111.468 370.5,-130.468 453.5,-130.468 453.5,-111.468 370.5,-111.468"/>
<text text-anchor="middle" x="412" y="-118.468" font-family="Arial" font-size="10.00">idSoundEmitter</text>
</a>
</g>
</g>
<!-- Node17&#45;&gt;Node9 -->
<g id="edge19" class="edge"><title>Node17&#45;&gt;Node9</title>
<path fill="none" stroke="#9a32cd" stroke-dasharray="5,2" d="M463.634,-118.472C493.188,-119.299 530.038,-124.456 558,-141.968 601.874,-169.445 627.895,-229.966 636.655,-253.42"/>
<polygon fill="#9a32cd" stroke="#9a32cd" points="463.554,-114.971 453.511,-118.347 463.467,-121.97 463.554,-114.971"/>
<text text-anchor="middle" x="515" y="-144.968" font-family="Arial" font-size="10.00"> referenceSound</text>
</g>
<!-- Node18 -->
<g id="node18" class="node"><title>Node18</title>
<g id="a_node18"><a xlink:href="classid_bounds.html" target="_top" xlink:title="idBounds">
<polygon fill="white" stroke="black" points="383.5,-73.4677 383.5,-92.4677 440.5,-92.4677 440.5,-73.4677 383.5,-73.4677"/>
<text text-anchor="middle" x="412" y="-80.4677" font-family="Arial" font-size="10.00">idBounds</text>
</a>
</g>
</g>
<!-- Node18&#45;&gt;Node9 -->
<g id="edge21" class="edge"><title>Node18&#45;&gt;Node9</title>
<path fill="none" stroke="#9a32cd" stroke-dasharray="5,2" d="M450.713,-79.7317C482.212,-78.9793 526.844,-82.6629 558,-104.968 610.771,-142.747 632.143,-224.865 638.12,-253.156"/>
<polygon fill="#9a32cd" stroke="#9a32cd" points="450.425,-76.2403 440.573,-80.1365 450.704,-83.2348 450.425,-76.2403"/>
<text text-anchor="middle" x="515" y="-107.968" font-family="Arial" font-size="10.00"> bounds</text>
</g>
<!-- Node19 -->
<g id="node19" class="node"><title>Node19</title>
<g id="a_node19"><a xlink:href="classid_user_interface.html" target="_top" xlink:title="idUserInterface">
<polygon fill="white" stroke="black" points="371.5,-35.4677 371.5,-54.4677 452.5,-54.4677 452.5,-35.4677 371.5,-35.4677"/>
<text text-anchor="middle" x="412" y="-42.4677" font-family="Arial" font-size="10.00">idUserInterface</text>
</a>
</g>
</g>
<!-- Node19&#45;&gt;Node9 -->
<g id="edge25" class="edge"><title>Node19&#45;&gt;Node9</title>
<path fill="none" stroke="#9a32cd" stroke-dasharray="5,2" d="M462.768,-40.4861C493.201,-40.3676 531.283,-45.2281 558,-65.9677 620.917,-114.808 635.991,-220.563 639.205,-253.185"/>
<polygon fill="#9a32cd" stroke="#9a32cd" points="462.69,-36.9868 452.768,-40.7013 462.841,-43.9852 462.69,-36.9868"/>
<text text-anchor="middle" x="515" y="-68.9677" font-family="Arial" font-size="10.00"> gui</text>
</g>
</g>
</svg>
