<?xml version="1.0" encoding="UTF-8" standalone="no"?>
<!DOCTYPE svg PUBLIC "-//W3C//DTD SVG 1.1//EN"
 "http://www.w3.org/Graphics/SVG/1.1/DTD/svg11.dtd">
<!-- Generated by graphviz version 2.34.0 (20130907.0111)
 -->
<!-- Title: idGLDrawable Pages: 1 -->
<svg width="418pt" height="140pt"
 viewBox="0.00 0.00 418.00 140.00" xmlns="http://www.w3.org/2000/svg" xmlns:xlink="http://www.w3.org/1999/xlink">
<g id="graph0" class="graph" transform="scale(1 1) rotate(0) translate(4 136)">
<title>idGLDrawable</title>
<polygon fill="white" stroke="white" points="-4,4 -4,-136 414,-136 414,4 -4,4"/>
<!-- Node1 -->
<g id="node1" class="node"><title>Node1</title>
<polygon fill="#bfbfbf" stroke="black" points="140.5,-112.5 140.5,-131.5 217.5,-131.5 217.5,-112.5 140.5,-112.5"/>
<text text-anchor="middle" x="179" y="-119.5" font-family="Arial" font-size="10.00">idGLDrawable</text>
</g>
<!-- Node2 -->
<g id="node2" class="node"><title>Node2</title>
<g id="a_node2"><a xlink:href="classid_g_l_drawable_console.html" target="_top" xlink:title="idGLDrawableConsole">
<polygon fill="white" stroke="black" points="0,-56.5 0,-75.5 112,-75.5 112,-56.5 0,-56.5"/>
<text text-anchor="middle" x="56" y="-63.5" font-family="Arial" font-size="10.00">idGLDrawableConsole</text>
</a>
</g>
</g>
<!-- Node1&#45;&gt;Node2 -->
<g id="edge1" class="edge"><title>Node1&#45;&gt;Node2</title>
<path fill="none" stroke="midnightblue" d="M150.227,-108.368C127.193,-98.2553 95.5162,-84.3486 75.3985,-75.5164"/>
<polygon fill="midnightblue" stroke="midnightblue" points="148.947,-111.628 159.51,-112.444 151.761,-105.219 148.947,-111.628"/>
</g>
<!-- Node3 -->
<g id="node3" class="node"><title>Node3</title>
<g id="a_node3"><a xlink:href="classid_g_l_drawable_view.html" target="_top" xlink:title="idGLDrawableView">
<polygon fill="white" stroke="black" points="130,-56.5 130,-75.5 228,-75.5 228,-56.5 130,-56.5"/>
<text text-anchor="middle" x="179" y="-63.5" font-family="Arial" font-size="10.00">idGLDrawableView</text>
</a>
</g>
</g>
<!-- Node1&#45;&gt;Node3 -->
<g id="edge2" class="edge"><title>Node1&#45;&gt;Node3</title>
<path fill="none" stroke="midnightblue" d="M179,-101.805C179,-92.9102 179,-82.7798 179,-75.7511"/>
<polygon fill="midnightblue" stroke="midnightblue" points="175.5,-102.083 179,-112.083 182.5,-102.083 175.5,-102.083"/>
</g>
<!-- Node4 -->
<g id="node4" class="node"><title>Node4</title>
<g id="a_node4"><a xlink:href="classid_g_l_drawable_world.html" target="_top" xlink:title="idGLDrawableWorld">
<polygon fill="white" stroke="black" points="246,-56.5 246,-75.5 348,-75.5 348,-56.5 246,-56.5"/>
<text text-anchor="middle" x="297" y="-63.5" font-family="Arial" font-size="10.00">idGLDrawableWorld</text>
</a>
</g>
</g>
<!-- Node1&#45;&gt;Node4 -->
<g id="edge3" class="edge"><title>Node1&#45;&gt;Node4</title>
<path fill="none" stroke="midnightblue" d="M206.9,-108.232C228.973,-98.1312 259.176,-84.3091 278.39,-75.5164"/>
<polygon fill="midnightblue" stroke="midnightblue" points="205.334,-105.1 197.697,-112.444 208.247,-111.465 205.334,-105.1"/>
</g>
<!-- Node5 -->
<g id="node5" class="node"><title>Node5</title>
<g id="a_node5"><a xlink:href="classid_g_l_drawable_material.html" target="_top" xlink:title="idGLDrawableMaterial">
<polygon fill="white" stroke="black" points="178.5,-0.5 178.5,-19.5 289.5,-19.5 289.5,-0.5 178.5,-0.5"/>
<text text-anchor="middle" x="234" y="-7.5" font-family="Arial" font-size="10.00">idGLDrawableMaterial</text>
</a>
</g>
</g>
<!-- Node4&#45;&gt;Node5 -->
<g id="edge4" class="edge"><title>Node4&#45;&gt;Node5</title>
<path fill="none" stroke="midnightblue" d="M278.96,-49.5372C267.727,-39.9087 253.681,-27.8694 244.306,-19.8339"/>
<polygon fill="midnightblue" stroke="midnightblue" points="277.008,-52.4734 286.878,-56.324 281.563,-47.1586 277.008,-52.4734"/>
</g>
<!-- Node6 -->
<g id="node6" class="node"><title>Node6</title>
<g id="a_node6"><a xlink:href="classid_g_l_drawable_model.html" target="_top" xlink:title="idGLDrawableModel">
<polygon fill="white" stroke="black" points="307.5,-0.5 307.5,-19.5 410.5,-19.5 410.5,-0.5 307.5,-0.5"/>
<text text-anchor="middle" x="359" y="-7.5" font-family="Arial" font-size="10.00">idGLDrawableModel</text>
</a>
</g>
</g>
<!-- Node4&#45;&gt;Node6 -->
<g id="edge5" class="edge"><title>Node4&#45;&gt;Node6</title>
<path fill="none" stroke="midnightblue" d="M314.754,-49.5372C325.808,-39.9087 339.631,-27.8694 348.857,-19.8339"/>
<polygon fill="midnightblue" stroke="midnightblue" points="312.203,-47.1168 306.961,-56.324 316.801,-52.3954 312.203,-47.1168"/>
</g>
</g>
</svg>
