<?xml version="1.0" encoding="UTF-8" standalone="no"?>
<!DOCTYPE svg PUBLIC "-//W3C//DTD SVG 1.1//EN"
 "http://www.w3.org/Graphics/SVG/1.1/DTD/svg11.dtd">
<!-- Generated by graphviz version 2.34.0 (20130907.0111)
 -->
<!-- Title: SSDEntity Pages: 1 -->
<svg width="347pt" height="140pt"
 viewBox="0.00 0.00 347.00 140.00" xmlns="http://www.w3.org/2000/svg" xmlns:xlink="http://www.w3.org/1999/xlink">
<g id="graph0" class="graph" transform="scale(1 1) rotate(0) translate(4 136)">
<title>SSDEntity</title>
<polygon fill="white" stroke="white" points="-4,4 -4,-136 343,-136 343,4 -4,4"/>
<!-- Node1 -->
<g id="node1" class="node"><title>Node1</title>
<polygon fill="#bfbfbf" stroke="black" points="140,-112.5 140,-131.5 202,-131.5 202,-112.5 140,-112.5"/>
<text text-anchor="middle" x="171" y="-119.5" font-family="Arial" font-size="10.00">SSDEntity</text>
</g>
<!-- Node2 -->
<g id="node2" class="node"><title>Node2</title>
<g id="a_node2"><a xlink:href="class_s_s_d_explosion.html" target="_top" xlink:title="SSDExplosion">
<polygon fill="white" stroke="black" points="1,-56.5 1,-75.5 81,-75.5 81,-56.5 1,-56.5"/>
<text text-anchor="middle" x="41" y="-63.5" font-family="Arial" font-size="10.00">SSDExplosion</text>
</a>
</g>
</g>
<!-- Node1&#45;&gt;Node2 -->
<g id="edge1" class="edge"><title>Node1&#45;&gt;Node2</title>
<path fill="none" stroke="midnightblue" d="M140.915,-108.503C116.543,-98.3795 82.86,-84.388 61.5025,-75.5164"/>
<polygon fill="midnightblue" stroke="midnightblue" points="139.823,-111.84 150.401,-112.444 142.509,-105.375 139.823,-111.84"/>
</g>
<!-- Node3 -->
<g id="node3" class="node"><title>Node3</title>
<g id="a_node3"><a xlink:href="class_s_s_d_mover.html" target="_top" xlink:title="SSDMover">
<polygon fill="white" stroke="black" points="99,-56.5 99,-75.5 161,-75.5 161,-56.5 99,-56.5"/>
<text text-anchor="middle" x="130" y="-63.5" font-family="Arial" font-size="10.00">SSDMover</text>
</a>
</g>
</g>
<!-- Node1&#45;&gt;Node3 -->
<g id="edge2" class="edge"><title>Node1&#45;&gt;Node3</title>
<path fill="none" stroke="midnightblue" d="M157.983,-103.855C150.883,-94.5048 142.396,-83.3265 136.644,-75.7511"/>
<polygon fill="midnightblue" stroke="midnightblue" points="155.395,-106.235 164.23,-112.083 160.97,-102.002 155.395,-106.235"/>
</g>
<!-- Node7 -->
<g id="node7" class="node"><title>Node7</title>
<g id="a_node7"><a xlink:href="class_s_s_d_points.html" target="_top" xlink:title="SSDPoints">
<polygon fill="white" stroke="black" points="179.5,-56.5 179.5,-75.5 244.5,-75.5 244.5,-56.5 179.5,-56.5"/>
<text text-anchor="middle" x="212" y="-63.5" font-family="Arial" font-size="10.00">SSDPoints</text>
</a>
</g>
</g>
<!-- Node1&#45;&gt;Node7 -->
<g id="edge6" class="edge"><title>Node1&#45;&gt;Node7</title>
<path fill="none" stroke="midnightblue" d="M184.017,-103.855C191.117,-94.5048 199.604,-83.3265 205.356,-75.7511"/>
<polygon fill="midnightblue" stroke="midnightblue" points="181.03,-102.002 177.77,-112.083 186.605,-106.235 181.03,-102.002"/>
</g>
<!-- Node8 -->
<g id="node8" class="node"><title>Node8</title>
<g id="a_node8"><a xlink:href="class_s_s_d_projectile.html" target="_top" xlink:title="SSDProjectile">
<polygon fill="white" stroke="black" points="262.5,-56.5 262.5,-75.5 339.5,-75.5 339.5,-56.5 262.5,-56.5"/>
<text text-anchor="middle" x="301" y="-63.5" font-family="Arial" font-size="10.00">SSDProjectile</text>
</a>
</g>
</g>
<!-- Node1&#45;&gt;Node8 -->
<g id="edge7" class="edge"><title>Node1&#45;&gt;Node8</title>
<path fill="none" stroke="midnightblue" d="M201.085,-108.503C225.457,-98.3795 259.14,-84.388 280.497,-75.5164"/>
<polygon fill="midnightblue" stroke="midnightblue" points="199.491,-105.375 191.599,-112.444 202.177,-111.84 199.491,-105.375"/>
</g>
<!-- Node4 -->
<g id="node4" class="node"><title>Node4</title>
<g id="a_node4"><a xlink:href="class_s_s_d_asteroid.html" target="_top" xlink:title="SSDAsteroid">
<polygon fill="white" stroke="black" points="-0.5,-0.5 -0.5,-19.5 72.5,-19.5 72.5,-0.5 -0.5,-0.5"/>
<text text-anchor="middle" x="36" y="-7.5" font-family="Arial" font-size="10.00">SSDAsteroid</text>
</a>
</g>
</g>
<!-- Node3&#45;&gt;Node4 -->
<g id="edge3" class="edge"><title>Node3&#45;&gt;Node4</title>
<path fill="none" stroke="midnightblue" d="M105.938,-51.1774C88.6411,-41.2407 65.8523,-28.1492 51.0652,-19.6545"/>
<polygon fill="midnightblue" stroke="midnightblue" points="104.483,-54.3775 114.897,-56.324 107.97,-48.3078 104.483,-54.3775"/>
</g>
<!-- Node5 -->
<g id="node5" class="node"><title>Node5</title>
<g id="a_node5"><a xlink:href="class_s_s_d_astronaut.html" target="_top" xlink:title="SSDAstronaut">
<polygon fill="white" stroke="black" points="90.5,-0.5 90.5,-19.5 169.5,-19.5 169.5,-0.5 90.5,-0.5"/>
<text text-anchor="middle" x="130" y="-7.5" font-family="Arial" font-size="10.00">SSDAstronaut</text>
</a>
</g>
</g>
<!-- Node3&#45;&gt;Node5 -->
<g id="edge4" class="edge"><title>Node3&#45;&gt;Node5</title>
<path fill="none" stroke="midnightblue" d="M130,-45.8045C130,-36.9102 130,-26.7798 130,-19.7511"/>
<polygon fill="midnightblue" stroke="midnightblue" points="126.5,-46.083 130,-56.083 133.5,-46.083 126.5,-46.083"/>
</g>
<!-- Node6 -->
<g id="node6" class="node"><title>Node6</title>
<g id="a_node6"><a xlink:href="class_s_s_d_powerup.html" target="_top" xlink:title="SSDPowerup">
<polygon fill="white" stroke="black" points="188,-0.5 188,-19.5 262,-19.5 262,-0.5 188,-0.5"/>
<text text-anchor="middle" x="225" y="-7.5" font-family="Arial" font-size="10.00">SSDPowerup</text>
</a>
</g>
</g>
<!-- Node3&#45;&gt;Node6 -->
<g id="edge5" class="edge"><title>Node3&#45;&gt;Node6</title>
<path fill="none" stroke="midnightblue" d="M154.318,-51.1774C171.799,-41.2407 194.83,-28.1492 209.774,-19.6545"/>
<polygon fill="midnightblue" stroke="midnightblue" points="152.227,-48.3395 145.263,-56.324 155.687,-54.425 152.227,-48.3395"/>
</g>
</g>
</svg>
