<?xml version="1.0" encoding="UTF-8" standalone="no"?>
<!DOCTYPE svg PUBLIC "-//W3C//DTD SVG 1.1//EN"
 "http://www.w3.org/Graphics/SVG/1.1/DTD/svg11.dtd">
<!-- Generated by graphviz version 2.34.0 (20130907.0111)
 -->
<!-- Title: idAASFindCover Pages: 1 -->
<svg width="94pt" height="84pt"
 viewBox="0.00 0.00 94.00 84.00" xmlns="http://www.w3.org/2000/svg" xmlns:xlink="http://www.w3.org/1999/xlink">
<g id="graph0" class="graph" transform="scale(1 1) rotate(0) translate(4 80)">
<title>idAASFindCover</title>
<polygon fill="white" stroke="white" points="-4,4 -4,-80 90,-80 90,4 -4,4"/>
<!-- Node1 -->
<g id="node1" class="node"><title>Node1</title>
<polygon fill="#bfbfbf" stroke="black" points="-0.5,-0.5 -0.5,-19.5 86.5,-19.5 86.5,-0.5 -0.5,-0.5"/>
<text text-anchor="middle" x="43" y="-7.5" font-family="Arial" font-size="10.00">idAASFindCover</text>
</g>
<!-- Node2 -->
<g id="node2" class="node"><title>Node2</title>
<g id="a_node2"><a xlink:href="classid_a_a_s_callback.html" target="_top" xlink:title="idAASCallback">
<polygon fill="white" stroke="black" points="2,-56.5 2,-75.5 84,-75.5 84,-56.5 2,-56.5"/>
<text text-anchor="middle" x="43" y="-63.5" font-family="Arial" font-size="10.00">idAASCallback</text>
</a>
</g>
</g>
<!-- Node2&#45;&gt;Node1 -->
<g id="edge1" class="edge"><title>Node2&#45;&gt;Node1</title>
<path fill="none" stroke="midnightblue" d="M36.5276,-46.1005C35.8956,-37.1357 36.3427,-26.8579 37.869,-19.7511"/>
<polygon fill="midnightblue" stroke="midnightblue" points="33.0658,-46.6216 37.8337,-56.083 40.0067,-45.7134 33.0658,-46.6216"/>
</g>
<!-- Node2&#45;&gt;Node1 -->
<g id="edge2" class="edge"><title>Node2&#45;&gt;Node1</title>
<path fill="none" stroke="midnightblue" d="M49.4724,-46.1005C50.1044,-37.1357 49.6573,-26.8579 48.131,-19.7511"/>
<polygon fill="midnightblue" stroke="midnightblue" points="45.9933,-45.7134 48.1663,-56.083 52.9342,-46.6216 45.9933,-45.7134"/>
</g>
</g>
</svg>
