<?xml version="1.0" encoding="UTF-8" standalone="no"?>
<!DOCTYPE svg PUBLIC "-//W3C//DTD SVG 1.1//EN"
 "http://www.w3.org/Graphics/SVG/1.1/DTD/svg11.dtd">
<!-- Generated by graphviz version 2.34.0 (20130907.0111)
 -->
<!-- Title: idCompressor_LZSS_WordAligned Pages: 1 -->
<svg width="174pt" height="308pt"
 viewBox="0.00 0.00 174.00 308.00" xmlns="http://www.w3.org/2000/svg" xmlns:xlink="http://www.w3.org/1999/xlink">
<g id="graph0" class="graph" transform="scale(1 1) rotate(0) translate(4 304)">
<title>idCompressor_LZSS_WordAligned</title>
<polygon fill="white" stroke="white" points="-4,4 -4,-304 170,-304 170,4 -4,4"/>
<!-- Node1 -->
<g id="node1" class="node"><title>Node1</title>
<polygon fill="#bfbfbf" stroke="black" points="-0.5,-0.5 -0.5,-19.5 166.5,-19.5 166.5,-0.5 -0.5,-0.5"/>
<text text-anchor="middle" x="83" y="-7.5" font-family="Arial" font-size="10.00">idCompressor_LZSS_WordAligned</text>
</g>
<!-- Node2 -->
<g id="node2" class="node"><title>Node2</title>
<g id="a_node2"><a xlink:href="classid_compressor___l_z_s_s.html" target="_top" xlink:title="idCompressor_LZSS">
<polygon fill="white" stroke="black" points="30,-56.5 30,-75.5 136,-75.5 136,-56.5 30,-56.5"/>
<text text-anchor="middle" x="83" y="-63.5" font-family="Arial" font-size="10.00">idCompressor_LZSS</text>
</a>
</g>
</g>
<!-- Node2&#45;&gt;Node1 -->
<g id="edge1" class="edge"><title>Node2&#45;&gt;Node1</title>
<path fill="none" stroke="midnightblue" d="M83,-45.8045C83,-36.9102 83,-26.7798 83,-19.7511"/>
<polygon fill="midnightblue" stroke="midnightblue" points="79.5001,-46.083 83,-56.083 86.5001,-46.083 79.5001,-46.083"/>
</g>
<!-- Node3 -->
<g id="node3" class="node"><title>Node3</title>
<g id="a_node3"><a xlink:href="classid_compressor___bit_stream.html" target="_top" xlink:title="idCompressor_BitStream">
<polygon fill="white" stroke="black" points="20.5,-112.5 20.5,-131.5 145.5,-131.5 145.5,-112.5 20.5,-112.5"/>
<text text-anchor="middle" x="83" y="-119.5" font-family="Arial" font-size="10.00">idCompressor_BitStream</text>
</a>
</g>
</g>
<!-- Node3&#45;&gt;Node2 -->
<g id="edge2" class="edge"><title>Node3&#45;&gt;Node2</title>
<path fill="none" stroke="midnightblue" d="M83,-101.805C83,-92.9102 83,-82.7798 83,-75.7511"/>
<polygon fill="midnightblue" stroke="midnightblue" points="79.5001,-102.083 83,-112.083 86.5001,-102.083 79.5001,-102.083"/>
</g>
<!-- Node4 -->
<g id="node4" class="node"><title>Node4</title>
<g id="a_node4"><a xlink:href="classid_compressor___none.html" target="_top" xlink:title="idCompressor_None">
<polygon fill="white" stroke="black" points="31,-168.5 31,-187.5 135,-187.5 135,-168.5 31,-168.5"/>
<text text-anchor="middle" x="83" y="-175.5" font-family="Arial" font-size="10.00">idCompressor_None</text>
</a>
</g>
</g>
<!-- Node4&#45;&gt;Node3 -->
<g id="edge3" class="edge"><title>Node4&#45;&gt;Node3</title>
<path fill="none" stroke="midnightblue" d="M83,-157.805C83,-148.91 83,-138.78 83,-131.751"/>
<polygon fill="midnightblue" stroke="midnightblue" points="79.5001,-158.083 83,-168.083 86.5001,-158.083 79.5001,-158.083"/>
</g>
<!-- Node5 -->
<g id="node5" class="node"><title>Node5</title>
<g id="a_node5"><a xlink:href="classid_compressor.html" target="_top" xlink:title="idCompressor">
<polygon fill="white" stroke="black" points="44.5,-224.5 44.5,-243.5 121.5,-243.5 121.5,-224.5 44.5,-224.5"/>
<text text-anchor="middle" x="83" y="-231.5" font-family="Arial" font-size="10.00">idCompressor</text>
</a>
</g>
</g>
<!-- Node5&#45;&gt;Node4 -->
<g id="edge4" class="edge"><title>Node5&#45;&gt;Node4</title>
<path fill="none" stroke="midnightblue" d="M83,-213.805C83,-204.91 83,-194.78 83,-187.751"/>
<polygon fill="midnightblue" stroke="midnightblue" points="79.5001,-214.083 83,-224.083 86.5001,-214.083 79.5001,-214.083"/>
</g>
<!-- Node6 -->
<g id="node6" class="node"><title>Node6</title>
<g id="a_node6"><a xlink:href="classid_file.html" target="_top" xlink:title="idFile">
<polygon fill="white" stroke="black" points="63,-280.5 63,-299.5 103,-299.5 103,-280.5 63,-280.5"/>
<text text-anchor="middle" x="83" y="-287.5" font-family="Arial" font-size="10.00">idFile</text>
</a>
</g>
</g>
<!-- Node6&#45;&gt;Node5 -->
<g id="edge5" class="edge"><title>Node6&#45;&gt;Node5</title>
<path fill="none" stroke="midnightblue" d="M83,-269.805C83,-260.91 83,-250.78 83,-243.751"/>
<polygon fill="midnightblue" stroke="midnightblue" points="79.5001,-270.083 83,-280.083 86.5001,-270.083 79.5001,-270.083"/>
</g>
</g>
</svg>
