<?xml version="1.0" encoding="UTF-8" standalone="no"?>
<!DOCTYPE svg PUBLIC "-//W3C//DTD SVG 1.1//EN"
 "http://www.w3.org/Graphics/SVG/1.1/DTD/svg11.dtd">
<!-- Generated by graphviz version 2.34.0 (20130907.0111)
 -->
<!-- Title: idProgram Pages: 1 -->
<!--zoomable 242 -->
<svg id="main" version="1.1" xmlns="http://www.w3.org/2000/svg" xmlns:xlink="http://www.w3.org/1999/xlink" xml:space="preserve" onload="init(evt)">
<style type="text/css"><![CDATA[
.edge:hover path { stroke: red; }
.edge:hover polygon { stroke: red; fill: red; }
]]></style>
<script type="text/javascript"><![CDATA[
var edges = document.getElementsByTagName('g');
if (edges && edges.length) {
  for (var i=0;i<edges.length;i++) {
    if (edges[i].id.substr(0,4)=='edge') {
      edges[i].setAttribute('class','edge');
    }
  }
}
]]></script>
        <defs>
                <circle id="rim" cx="0" cy="0" r="7"/>
                <circle id="rim2" cx="0" cy="0" r="3.5"/>
                <g id="zoomPlus">
                        <use xlink:href="#rim" fill="#404040">
                                <set attributeName="fill" to="#808080" begin="zoomplus.mouseover" end="zoomplus.mouseout"/>
                        </use>
                        <path d="M-4,0h8M0,-4v8" fill="none" stroke="white" stroke-width="1.5" pointer-events="none"/>
                </g>
                <g id="zoomMin">
                        <use xlink:href="#rim" fill="#404040">
                                <set attributeName="fill" to="#808080" begin="zoomminus.mouseover" end="zoomminus.mouseout"/>
                        </use>
                        <path d="M-4,0h8" fill="none" stroke="white" stroke-width="1.5" pointer-events="none"/>
                </g>
                <g id="dirArrow">
                        <path fill="none" stroke="white" stroke-width="1.5" d="M0,-3.0v7 M-2.5,-0.5L0,-3.0L2.5,-0.5"/>
                </g>
               <g id="resetDef">
                       <use xlink:href="#rim2" fill="#404040">
                               <set attributeName="fill" to="#808080" begin="reset.mouseover" end="reset.mouseout"/>
                       </use>
               </g>
        </defs>

<script type="text/javascript">
var viewWidth = 564;
var viewHeight = 242;
var sectionId = 'dynsection-0';
</script>
<script xlink:href="svgpan.js"/>
<svg id="graph" class="graph">
<g id="viewport">
<title>idProgram</title>
<polygon fill="white" stroke="white" points="-4,4 -4,-238 560,-238 560,4 -4,4"/>
<!-- Node1 -->
<g id="node1" class="node"><title>Node1</title>
<polygon fill="#bfbfbf" stroke="black" points="-0.5,-136.5 -0.5,-155.5 60.5,-155.5 60.5,-136.5 -0.5,-136.5"/>
<text text-anchor="middle" x="30" y="-143.5" font-family="Arial" font-size="10.00">idProgram</text>
</g>
<!-- Node2 -->
<g id="node2" class="node"><title>Node2</title>
<g id="a_node2"><a xlink:href="classid_var_def.html" target="_top" xlink:title="idVarDef">
<polygon fill="white" stroke="black" points="125.5,-214.5 125.5,-233.5 178.5,-233.5 178.5,-214.5 125.5,-214.5"/>
<text text-anchor="middle" x="152" y="-221.5" font-family="Arial" font-size="10.00">idVarDef</text>
</a>
</g>
</g>
<!-- Node2&#45;&gt;Node1 -->
<g id="edge1" class="edge"><title>Node2&#45;&gt;Node1</title>
<path fill="none" stroke="#9a32cd" stroke-dasharray="5,2" d="M115.364,-219.665C95.9836,-216.297 72.7943,-209.541 56,-196 42.9553,-185.482 35.6319,-166.625 32.2787,-155.624"/>
<polygon fill="#9a32cd" stroke="#9a32cd" points="114.975,-223.146 125.384,-221.172 116.016,-216.223 114.975,-223.146"/>
<text text-anchor="middle" x="88.5" y="-188" font-family="Arial" font-size="10.00"> returnDef</text>
<text text-anchor="middle" x="88.5" y="-177" font-family="Arial" font-size="10.00">returnStringDef</text>
</g>
<!-- Node2&#45;&gt;Node2 -->
<g id="edge12" class="edge"><title>Node2&#45;&gt;Node2</title>
<path fill="none" stroke="#9a32cd" stroke-dasharray="5,2" d="M188.677,-230.141C193.104,-229.032 196,-226.985 196,-224 196,-219.102 188.201,-216.729 178.635,-216.882"/>
<polygon fill="#9a32cd" stroke="#9a32cd" points="188.25,-226.666 178.635,-231.118 188.927,-233.633 188.25,-226.666"/>
<text text-anchor="middle" x="211" y="-221.5" font-family="Arial" font-size="10.00"> scope</text>
</g>
<!-- Node4 -->
<g id="node4" class="node"><title>Node4</title>
<g id="a_node4"><a xlink:href="classfunction__t.html" target="_top" xlink:title="function_t">
<polygon fill="white" stroke="black" points="212.5,-68.5 212.5,-87.5 271.5,-87.5 271.5,-68.5 212.5,-68.5"/>
<text text-anchor="middle" x="242" y="-75.5" font-family="Arial" font-size="10.00">function_t</text>
</a>
</g>
</g>
<!-- Node2&#45;&gt;Node4 -->
<g id="edge7" class="edge"><title>Node2&#45;&gt;Node4</title>
<path fill="none" stroke="#9a32cd" stroke-dasharray="5,2" d="M155.967,-204.484C160.494,-186.069 169.124,-157.531 183,-136 195.807,-116.127 216.813,-98.0599 230,-87.8127"/>
<polygon fill="#9a32cd" stroke="#9a32cd" points="152.549,-203.728 153.717,-214.258 159.371,-205.298 152.549,-203.728"/>
<text text-anchor="middle" x="191" y="-143.5" font-family="Arial" font-size="10.00"> def</text>
</g>
<!-- Node6 -->
<g id="node6" class="node"><title>Node6</title>
<g id="a_node6"><a xlink:href="classid_type_def.html" target="_top" xlink:title="idTypeDef">
<polygon fill="white" stroke="black" points="78.5,-136.5 78.5,-155.5 137.5,-155.5 137.5,-136.5 78.5,-136.5"/>
<text text-anchor="middle" x="108" y="-143.5" font-family="Arial" font-size="10.00">idTypeDef</text>
</a>
</g>
</g>
<!-- Node2&#45;&gt;Node6 -->
<g id="edge6" class="edge"><title>Node2&#45;&gt;Node6</title>
<path fill="none" stroke="#9a32cd" stroke-dasharray="5,2" d="M141.906,-205.565C132.865,-189.949 119.984,-167.7 112.988,-155.616"/>
<polygon fill="#9a32cd" stroke="#9a32cd" points="138.913,-207.381 146.953,-214.282 144.971,-203.874 138.913,-207.381"/>
<text text-anchor="middle" x="144" y="-182.5" font-family="Arial" font-size="10.00"> def</text>
</g>
<!-- Node3 -->
<g id="node3" class="node"><title>Node3</title>
<g id="a_node3"><a xlink:href="unionvar_eval__s.html" target="_top" xlink:title="varEval_s">
<polygon fill="white" stroke="black" points="381.5,-0.5 381.5,-19.5 438.5,-19.5 438.5,-0.5 381.5,-0.5"/>
<text text-anchor="middle" x="410" y="-7.5" font-family="Arial" font-size="10.00">varEval_s</text>
</a>
</g>
</g>
<!-- Node3&#45;&gt;Node2 -->
<g id="edge2" class="edge"><title>Node3&#45;&gt;Node2</title>
<path fill="none" stroke="#9a32cd" stroke-dasharray="5,2" d="M406.438,-29.6932C399.429,-64.6393 382.961,-137.97 365,-156 313.702,-207.495 223.286,-219.499 178.571,-222.237"/>
<polygon fill="#9a32cd" stroke="#9a32cd" points="409.885,-30.3006 408.371,-19.8146 403.016,-28.9564 409.885,-30.3006"/>
<text text-anchor="middle" x="399.5" y="-109.5" font-family="Arial" font-size="10.00"> value</text>
</g>
<!-- Node3&#45;&gt;Node3 -->
<g id="edge9" class="edge"><title>Node3&#45;&gt;Node3</title>
<path fill="none" stroke="#9a32cd" stroke-dasharray="5,2" d="M448.76,-15.4023C453.153,-14.3906 456,-12.5898 456,-10 456,-5.75 448.333,-3.625 438.75,-3.625"/>
<polygon fill="#9a32cd" stroke="#9a32cd" points="448.365,-11.9241 438.75,-16.375 449.042,-18.8913 448.365,-11.9241"/>
<text text-anchor="middle" x="472.5" y="-7.5" font-family="Arial" font-size="10.00"> evalPtr</text>
</g>
<!-- Node4&#45;&gt;Node3 -->
<g id="edge3" class="edge"><title>Node4&#45;&gt;Node3</title>
<path fill="none" stroke="#9a32cd" stroke-dasharray="5,2" d="M266.356,-63.4612C281.494,-55.3909 301.528,-45.3255 320,-38 340.017,-30.0619 363.319,-23.1315 381.197,-18.2801"/>
<polygon fill="#9a32cd" stroke="#9a32cd" points="264.308,-60.5895 257.18,-68.4275 267.64,-66.7456 264.308,-60.5895"/>
<text text-anchor="middle" x="345" y="-41.5" font-family="Arial" font-size="10.00"> functionPtr</text>
</g>
<!-- Node5 -->
<g id="node5" class="node"><title>Node5</title>
<g id="a_node5"><a xlink:href="classid_list.html" target="_top" xlink:title="idList\&lt; int \&gt;">
<polygon fill="white" stroke="black" points="208,-136.5 208,-155.5 276,-155.5 276,-136.5 208,-136.5"/>
<text text-anchor="middle" x="242" y="-143.5" font-family="Arial" font-size="10.00">idList&lt; int &gt;</text>
</a>
</g>
</g>
<!-- Node5&#45;&gt;Node4 -->
<g id="edge4" class="edge"><title>Node5&#45;&gt;Node4</title>
<path fill="none" stroke="#9a32cd" stroke-dasharray="5,2" d="M242,-126.041C242,-113.472 242,-97.5631 242,-87.8411"/>
<polygon fill="#9a32cd" stroke="#9a32cd" points="238.5,-126.372 242,-136.372 245.5,-126.372 238.5,-126.372"/>
<text text-anchor="middle" x="264.5" y="-109.5" font-family="Arial" font-size="10.00"> parmSize</text>
</g>
<!-- Node6&#45;&gt;Node4 -->
<g id="edge5" class="edge"><title>Node6&#45;&gt;Node4</title>
<path fill="none" stroke="#9a32cd" stroke-dasharray="5,2" d="M117.799,-127.507C122.901,-119.867 129.795,-111.429 138,-106 160.246,-91.2798 190.09,-84.5801 212.102,-81.5336"/>
<polygon fill="#9a32cd" stroke="#9a32cd" points="114.729,-125.819 112.496,-136.176 120.7,-129.471 114.729,-125.819"/>
<text text-anchor="middle" x="149" y="-109.5" font-family="Arial" font-size="10.00"> type</text>
</g>
<!-- Node7 -->
<g id="node7" class="node"><title>Node7</title>
<g id="a_node7"><a xlink:href="classid_event_def.html" target="_top" xlink:title="idEventDef">
<polygon fill="white" stroke="black" points="294,-136.5 294,-155.5 356,-155.5 356,-136.5 294,-136.5"/>
<text text-anchor="middle" x="325" y="-143.5" font-family="Arial" font-size="10.00">idEventDef</text>
</a>
</g>
</g>
<!-- Node7&#45;&gt;Node4 -->
<g id="edge8" class="edge"><title>Node7&#45;&gt;Node4</title>
<path fill="none" stroke="#9a32cd" stroke-dasharray="5,2" d="M312.737,-128.441C306.718,-121.014 299.041,-112.485 291,-106 281.928,-98.6828 270.594,-92.2929 261.112,-87.5687"/>
<polygon fill="#9a32cd" stroke="#9a32cd" points="310.067,-130.71 318.962,-136.467 315.598,-126.42 310.067,-130.71"/>
<text text-anchor="middle" x="322.5" y="-109.5" font-family="Arial" font-size="10.00"> eventdef</text>
</g>
<!-- Node8 -->
<g id="node8" class="node"><title>Node8</title>
<g id="a_node8"><a xlink:href="classid_vec3.html" target="_top" xlink:title="idVec3">
<polygon fill="white" stroke="black" points="412.5,-68.5 412.5,-87.5 459.5,-87.5 459.5,-68.5 412.5,-68.5"/>
<text text-anchor="middle" x="436" y="-75.5" font-family="Arial" font-size="10.00">idVec3</text>
</a>
</g>
</g>
<!-- Node8&#45;&gt;Node3 -->
<g id="edge10" class="edge"><title>Node8&#45;&gt;Node3</title>
<path fill="none" stroke="#9a32cd" stroke-dasharray="5,2" d="M428.833,-58.8066C423.837,-46.1244 417.391,-29.7615 413.483,-19.8411"/>
<polygon fill="#9a32cd" stroke="#9a32cd" points="425.679,-60.3504 432.601,-68.3717 432.192,-57.7847 425.679,-60.3504"/>
<text text-anchor="middle" x="446" y="-41.5" font-family="Arial" font-size="10.00"> vectorPtr</text>
</g>
<!-- Node9 -->
<g id="node9" class="node"><title>Node9</title>
<g id="a_node9"><a xlink:href="classid_script_object.html" target="_top" xlink:title="idScriptObject">
<polygon fill="white" stroke="black" points="478,-68.5 478,-87.5 556,-87.5 556,-68.5 478,-68.5"/>
<text text-anchor="middle" x="517" y="-75.5" font-family="Arial" font-size="10.00">idScriptObject</text>
</a>
</g>
</g>
<!-- Node9&#45;&gt;Node3 -->
<g id="edge11" class="edge"><title>Node9&#45;&gt;Node3</title>
<path fill="none" stroke="#9a32cd" stroke-dasharray="5,2" d="M501.123,-61.5637C492.642,-53.8474 481.756,-44.743 471,-38 459.225,-30.6182 445.086,-24.2242 433.386,-19.514"/>
<polygon fill="#9a32cd" stroke="#9a32cd" points="498.743,-64.1303 508.433,-68.414 503.529,-59.0224 498.743,-64.1303"/>
<text text-anchor="middle" x="514.5" y="-41.5" font-family="Arial" font-size="10.00"> objectPtrPtr</text>
</g>
</g>
</svg>
        <g id="navigator" transform="translate(0 0)" fill="#404254">
                <rect fill="#f2f5e9" fill-opacity="0.5" stroke="#606060" stroke-width=".5" x="0" y="0" width="60" height="60"/>
                <use id="zoomplus" xlink:href="#zoomPlus" x="17" y="9" onmousedown="handleZoom(evt,'in')"/>
                <use id="zoomminus" xlink:href="#zoomMin" x="42" y="9" onmousedown="handleZoom(evt,'out')"/>
                <use id="reset" xlink:href="#resetDef" x="30" y="36" onmousedown="handleReset()"/>
                <g id="arrowUp" xlink:href="#dirArrow" transform="translate(30 24)" onmousedown="handlePan(0,-1)">
                  <use xlink:href="#rim" fill="#404040">
                        <set attributeName="fill" to="#808080" begin="arrowUp.mouseover" end="arrowUp.mouseout"/>
                  </use>
                  <path fill="none" stroke="white" stroke-width="1.5" d="M0,-3.0v7 M-2.5,-0.5L0,-3.0L2.5,-0.5"/>
                </g>
                <g id="arrowRight" xlink:href="#dirArrow" transform="rotate(90) translate(36 -43)" onmousedown="handlePan(1,0)">
                  <use xlink:href="#rim" fill="#404040">
                        <set attributeName="fill" to="#808080" begin="arrowRight.mouseover" end="arrowRight.mouseout"/>
                  </use>
                  <path fill="none" stroke="white" stroke-width="1.5" d="M0,-3.0v7 M-2.5,-0.5L0,-3.0L2.5,-0.5"/>
                </g>
                <g id="arrowDown" xlink:href="#dirArrow" transform="rotate(180) translate(-30 -48)" onmousedown="handlePan(0,1)">
                  <use xlink:href="#rim" fill="#404040">
                        <set attributeName="fill" to="#808080" begin="arrowDown.mouseover" end="arrowDown.mouseout"/>
                  </use>
                  <path fill="none" stroke="white" stroke-width="1.5" d="M0,-3.0v7 M-2.5,-0.5L0,-3.0L2.5,-0.5"/>
                </g>
                <g id="arrowLeft" xlink:href="#dirArrow" transform="rotate(270) translate(-36 17)" onmousedown="handlePan(-1,0)">
                  <use xlink:href="#rim" fill="#404040">
                        <set attributeName="fill" to="#808080" begin="arrowLeft.mouseover" end="arrowLeft.mouseout"/>
                  </use>
                  <path fill="none" stroke="white" stroke-width="1.5" d="M0,-3.0v7 M-2.5,-0.5L0,-3.0L2.5,-0.5"/>
                </g>
        </g>
        <svg viewBox="0 0 15 15" width="100%" height="30px" preserveAspectRatio="xMaxYMin meet">
         <g id="arrow_out" transform="scale(0.3 0.3)">
          <a xlink:href="classid_program__coll__graph_org.svg" target="_base">
           <rect id="button" ry="5" rx="5" y="6" x="6" height="38" width="38"
                fill="#f2f5e9" fill-opacity="0.5" stroke="#606060" stroke-width="1.0"/>
           <path id="arrow"
             d="M 11.500037,31.436501 C 11.940474,20.09759 22.043105,11.32322 32.158766,21.979434 L 37.068811,17.246167 C 37.068811,17.246167 37.088388,32 37.088388,32 L 22.160133,31.978069 C 22.160133,31.978069 26.997745,27.140456 26.997745,27.140456 C 18.528582,18.264221 13.291696,25.230495 11.500037,31.436501 z"
             style="fill:#404040;"/>
          </a>
         </g>
        </svg>
</svg>
