<?xml version="1.0" encoding="UTF-8" standalone="no"?>
<!DOCTYPE svg PUBLIC "-//W3C//DTD SVG 1.1//EN"
 "http://www.w3.org/Graphics/SVG/1.1/DTD/svg11.dtd">
<!-- Generated by graphviz version 2.34.0 (20130907.0111)
 -->
<!-- Title: rvOpenFileDialog Pages: 1 -->
<svg width="164pt" height="118pt"
 viewBox="0.00 0.00 164.00 118.00" xmlns="http://www.w3.org/2000/svg" xmlns:xlink="http://www.w3.org/1999/xlink">
<g id="graph0" class="graph" transform="scale(1 1) rotate(0) translate(4 114)">
<title>rvOpenFileDialog</title>
<polygon fill="white" stroke="white" points="-4,4 -4,-114 160,-114 160,4 -4,4"/>
<!-- Node1 -->
<g id="node1" class="node"><title>Node1</title>
<polygon fill="#bfbfbf" stroke="black" points="32.5,-0.5 32.5,-19.5 121.5,-19.5 121.5,-0.5 32.5,-0.5"/>
<text text-anchor="middle" x="77" y="-7.5" font-family="Arial" font-size="10.00">rvOpenFileDialog</text>
</g>
<!-- Node2 -->
<g id="node2" class="node"><title>Node2</title>
<g id="a_node2"><a xlink:href="classid_list.html" target="_top" xlink:title="idList\&lt; idStr \&gt;">
<polygon fill="white" stroke="black" points="0,-90.5 0,-109.5 78,-109.5 78,-90.5 0,-90.5"/>
<text text-anchor="middle" x="39" y="-97.5" font-family="Arial" font-size="10.00">idList&lt; idStr &gt;</text>
</a>
</g>
</g>
<!-- Node2&#45;&gt;Node1 -->
<g id="edge1" class="edge"><title>Node2&#45;&gt;Node1</title>
<path fill="none" stroke="#9a32cd" stroke-dasharray="5,2" d="M41.328,-80.1348C43.4121,-67.6596 47.2247,-51.2284 54,-38 57.4808,-31.204 62.9858,-24.6569 67.7374,-19.7121"/>
<polygon fill="#9a32cd" stroke="#9a32cd" points="37.829,-79.8766 39.8644,-90.2741 44.7572,-80.8767 37.829,-79.8766"/>
<text text-anchor="middle" x="73.5" y="-52.5" font-family="Arial" font-size="10.00"> mFilters</text>
</g>
<!-- Node3 -->
<g id="node3" class="node"><title>Node3</title>
<g id="a_node3"><a xlink:href="classid_str.html" target="_top" xlink:title="idStr">
<polygon fill="white" stroke="black" points="96.5,-90.5 96.5,-109.5 133.5,-109.5 133.5,-90.5 96.5,-90.5"/>
<text text-anchor="middle" x="115" y="-97.5" font-family="Arial" font-size="10.00">idStr</text>
</a>
</g>
</g>
<!-- Node3&#45;&gt;Node1 -->
<g id="edge2" class="edge"><title>Node3&#45;&gt;Node1</title>
<path fill="none" stroke="#9a32cd" stroke-dasharray="5,2" d="M109.345,-80.5185C105.341,-68.2293 99.5351,-51.8617 93,-38 90.0259,-31.6915 86.0259,-24.9415 82.7694,-19.7687"/>
<polygon fill="#9a32cd" stroke="#9a32cd" points="106.023,-81.6217 112.373,-90.1027 112.698,-79.5128 106.023,-81.6217"/>
<text text-anchor="middle" x="131.5" y="-63.5" font-family="Arial" font-size="10.00"> mOKTitle</text>
<text text-anchor="middle" x="131.5" y="-52.5" font-family="Arial" font-size="10.00">mFilename</text>
<text text-anchor="middle" x="131.5" y="-41.5" font-family="Arial" font-size="10.00">mTitle</text>
</g>
</g>
</svg>
