<?xml version="1.0" encoding="UTF-8" standalone="no"?>
<!DOCTYPE svg PUBLIC "-//W3C//DTD SVG 1.1//EN"
 "http://www.w3.org/Graphics/SVG/1.1/DTD/svg11.dtd">
<!-- Generated by graphviz version 2.34.0 (20130907.0111)
 -->
<!-- Title: idCompressor_RunLength_ZeroBased Pages: 1 -->
<svg width="159pt" height="272pt"
 viewBox="0.00 0.00 159.00 272.00" xmlns="http://www.w3.org/2000/svg" xmlns:xlink="http://www.w3.org/1999/xlink">
<g id="graph0" class="graph" transform="scale(1 1) rotate(0) translate(4 268)">
<title>idCompressor_RunLength_ZeroBased</title>
<polygon fill="white" stroke="white" points="-4,4 -4,-268 155,-268 155,4 -4,4"/>
<!-- Node1 -->
<g id="node1" class="node"><title>Node1</title>
<polygon fill="#bfbfbf" stroke="black" points="0,-1 0,-31 128,-31 128,-1 0,-1"/>
<text text-anchor="start" x="8" y="-19" font-family="Arial" font-size="10.00">idCompressor_RunLength</text>
<text text-anchor="middle" x="64" y="-8" font-family="Arial" font-size="10.00">_ZeroBased</text>
</g>
<!-- Node2 -->
<g id="node2" class="node"><title>Node2</title>
<g id="a_node2"><a xlink:href="classid_compressor___bit_stream.html" target="_top" xlink:title="idCompressor_BitStream">
<polygon fill="white" stroke="black" points="1.5,-70.5 1.5,-89.5 126.5,-89.5 126.5,-70.5 1.5,-70.5"/>
<text text-anchor="middle" x="64" y="-77.5" font-family="Arial" font-size="10.00">idCompressor_BitStream</text>
</a>
</g>
</g>
<!-- Node2&#45;&gt;Node1 -->
<g id="edge1" class="edge"><title>Node2&#45;&gt;Node1</title>
<path fill="none" stroke="midnightblue" d="M64,-60.1826C64,-50.8859 64,-39.8507 64,-31.263"/>
<polygon fill="midnightblue" stroke="midnightblue" points="60.5001,-60.3791 64,-70.3792 67.5001,-60.3792 60.5001,-60.3791"/>
</g>
<!-- Node3 -->
<g id="node3" class="node"><title>Node3</title>
<g id="a_node3"><a xlink:href="classid_compressor___none.html" target="_top" xlink:title="idCompressor_None">
<polygon fill="white" stroke="black" points="12,-128.5 12,-147.5 116,-147.5 116,-128.5 12,-128.5"/>
<text text-anchor="middle" x="64" y="-135.5" font-family="Arial" font-size="10.00">idCompressor_None</text>
</a>
</g>
</g>
<!-- Node3&#45;&gt;Node2 -->
<g id="edge2" class="edge"><title>Node3&#45;&gt;Node2</title>
<path fill="none" stroke="midnightblue" d="M64,-117.953C64,-108.287 64,-97.0312 64,-89.5052"/>
<polygon fill="midnightblue" stroke="midnightblue" points="60.5001,-118.25 64,-128.25 67.5001,-118.25 60.5001,-118.25"/>
</g>
<!-- Node4 -->
<g id="node4" class="node"><title>Node4</title>
<g id="a_node4"><a xlink:href="classid_compressor.html" target="_top" xlink:title="idCompressor">
<polygon fill="white" stroke="black" points="74.5,-186.5 74.5,-205.5 151.5,-205.5 151.5,-186.5 74.5,-186.5"/>
<text text-anchor="middle" x="113" y="-193.5" font-family="Arial" font-size="10.00">idCompressor</text>
</a>
</g>
</g>
<!-- Node4&#45;&gt;Node3 -->
<g id="edge3" class="edge"><title>Node4&#45;&gt;Node3</title>
<path fill="none" stroke="midnightblue" d="M98.5055,-178.435C89.6142,-168.273 78.5999,-155.686 71.442,-147.505"/>
<polygon fill="midnightblue" stroke="midnightblue" points="96.1246,-181.029 105.344,-186.25 101.393,-176.419 96.1246,-181.029"/>
</g>
<!-- Node5 -->
<g id="node5" class="node"><title>Node5</title>
<g id="a_node5"><a xlink:href="classid_file.html" target="_top" xlink:title="idFile">
<polygon fill="white" stroke="black" points="44,-244.5 44,-263.5 84,-263.5 84,-244.5 44,-244.5"/>
<text text-anchor="middle" x="64" y="-251.5" font-family="Arial" font-size="10.00">idFile</text>
</a>
</g>
</g>
<!-- Node5&#45;&gt;Node3 -->
<g id="edge5" class="edge"><title>Node5&#45;&gt;Node3</title>
<path fill="none" stroke="#9a32cd" stroke-dasharray="5,2" d="M56.6988,-234.917C52.1417,-221.494 47.5654,-202.701 50,-186 51.9896,-172.352 57.0674,-157.156 60.5282,-147.836"/>
<polygon fill="#9a32cd" stroke="#9a32cd" points="53.4533,-236.231 60.2152,-244.387 60.0156,-233.794 53.4533,-236.231"/>
<text text-anchor="middle" x="58" y="-193.5" font-family="Arial" font-size="10.00"> file</text>
</g>
<!-- Node5&#45;&gt;Node4 -->
<g id="edge4" class="edge"><title>Node5&#45;&gt;Node4</title>
<path fill="none" stroke="midnightblue" d="M78.4945,-236.435C87.3858,-226.273 98.4001,-213.686 105.558,-205.505"/>
<polygon fill="midnightblue" stroke="midnightblue" points="75.6073,-234.419 71.6563,-244.25 80.8754,-239.029 75.6073,-234.419"/>
</g>
</g>
</svg>
