<?xml version="1.0" encoding="UTF-8" standalone="no"?>
<!DOCTYPE svg PUBLIC "-//W3C//DTD SVG 1.1//EN"
 "http://www.w3.org/Graphics/SVG/1.1/DTD/svg11.dtd">
<!-- Generated by graphviz version 2.34.0 (20130907.0111)
 -->
<!-- Title: MaterialTreeView Pages: 1 -->
<svg width="1074pt" height="314pt"
 viewBox="0.00 0.00 1074.00 314.00" xmlns="http://www.w3.org/2000/svg" xmlns:xlink="http://www.w3.org/1999/xlink">
<g id="graph0" class="graph" transform="scale(1 1) rotate(0) translate(4 310)">
<title>MaterialTreeView</title>
<polygon fill="white" stroke="white" points="-4,4 -4,-310 1070,-310 1070,4 -4,4"/>
<!-- Node1 -->
<g id="node1" class="node"><title>Node1</title>
<polygon fill="#bfbfbf" stroke="black" points="974.5,-184.5 974.5,-203.5 1065.5,-203.5 1065.5,-184.5 974.5,-184.5"/>
<text text-anchor="middle" x="1020" y="-191.5" font-family="Arial" font-size="10.00">MaterialTreeView</text>
</g>
<!-- Node2 -->
<g id="node2" class="node"><title>Node2</title>
<polygon fill="white" stroke="#bfbfbf" points="756.5,-236.5 756.5,-255.5 819.5,-255.5 819.5,-236.5 756.5,-236.5"/>
<text text-anchor="middle" x="788" y="-243.5" font-family="Arial" font-size="10.00">CTreeView</text>
</g>
<!-- Node2&#45;&gt;Node1 -->
<g id="edge1" class="edge"><title>Node2&#45;&gt;Node1</title>
<path fill="none" stroke="midnightblue" d="M829.705,-242.386C863.878,-238.708 913.748,-231.827 956,-220 970.927,-215.822 987.074,-209.112 999.284,-203.555"/>
<polygon fill="midnightblue" stroke="midnightblue" points="829.217,-238.918 819.63,-243.427 829.936,-245.881 829.217,-238.918"/>
</g>
<!-- Node3 -->
<g id="node3" class="node"><title>Node3</title>
<g id="a_node3"><a xlink:href="class_material_view.html" target="_top" xlink:title="MaterialView">
<polygon fill="white" stroke="black" points="752,-198.5 752,-217.5 824,-217.5 824,-198.5 752,-198.5"/>
<text text-anchor="middle" x="788" y="-205.5" font-family="Arial" font-size="10.00">MaterialView</text>
</a>
</g>
</g>
<!-- Node3&#45;&gt;Node1 -->
<g id="edge2" class="edge"><title>Node3&#45;&gt;Node1</title>
<path fill="none" stroke="midnightblue" d="M834.693,-208.545C868.31,-208.548 915.083,-207.721 956,-204 961.956,-203.458 968.202,-202.7 974.351,-201.841"/>
<polygon fill="midnightblue" stroke="midnightblue" points="834.274,-205.044 824.264,-208.518 834.255,-212.044 834.274,-205.044"/>
</g>
<!-- Node4 -->
<g id="node4" class="node"><title>Node4</title>
<g id="a_node4"><a xlink:href="class_material_doc_manager.html" target="_top" xlink:title="MaterialDocManager">
<polygon fill="white" stroke="black" points="480,-169.5 480,-188.5 586,-188.5 586,-169.5 480,-169.5"/>
<text text-anchor="middle" x="533" y="-176.5" font-family="Arial" font-size="10.00">MaterialDocManager</text>
</a>
</g>
</g>
<!-- Node4&#45;&gt;Node3 -->
<g id="edge3" class="edge"><title>Node4&#45;&gt;Node3</title>
<path fill="none" stroke="#9a32cd" stroke-dasharray="5,2" d="M596.266,-186.137C645.151,-191.741 711.456,-199.341 751.629,-203.946"/>
<polygon fill="#9a32cd" stroke="#9a32cd" points="596.449,-182.635 586.115,-184.974 595.651,-189.59 596.449,-182.635"/>
<text text-anchor="middle" x="651" y="-200" font-family="Arial" font-size="10.00"> materialDocManager</text>
</g>
<!-- Node9 -->
<g id="node9" class="node"><title>Node9</title>
<g id="a_node9"><a xlink:href="class_material_doc.html" target="_top" xlink:title="MaterialDoc">
<polygon fill="white" stroke="black" points="754,-84.5 754,-103.5 822,-103.5 822,-84.5 754,-84.5"/>
<text text-anchor="middle" x="788" y="-91.5" font-family="Arial" font-size="10.00">MaterialDoc</text>
</a>
</g>
</g>
<!-- Node4&#45;&gt;Node9 -->
<g id="edge13" class="edge"><title>Node4&#45;&gt;Node9</title>
<path fill="none" stroke="#9a32cd" stroke-dasharray="5,2" d="M552.411,-162.444C565.796,-151.302 584.855,-137.199 604,-129 630.464,-117.667 708.6,-105.173 753.757,-98.6114"/>
<polygon fill="#9a32cd" stroke="#9a32cd" points="549.796,-160.076 544.49,-169.247 554.357,-165.387 549.796,-160.076"/>
<text text-anchor="middle" x="651" y="-132" font-family="Arial" font-size="10.00"> manager</text>
</g>
<!-- Node5 -->
<g id="node5" class="node"><title>Node5</title>
<g id="a_node5"><a xlink:href="classid_str.html" target="_top" xlink:title="idStr">
<polygon fill="white" stroke="black" points="262.5,-285.5 262.5,-304.5 299.5,-304.5 299.5,-285.5 262.5,-285.5"/>
<text text-anchor="middle" x="281" y="-292.5" font-family="Arial" font-size="10.00">idStr</text>
</a>
</g>
</g>
<!-- Node5&#45;&gt;Node4 -->
<g id="edge4" class="edge"><title>Node5&#45;&gt;Node4</title>
<path fill="none" stroke="#9a32cd" stroke-dasharray="5,2" d="M309.338,-289.359C356.356,-279.527 448.783,-259.575 462,-252 490.335,-235.76 514.448,-204.583 525.517,-188.747"/>
<polygon fill="#9a32cd" stroke="#9a32cd" points="308.58,-285.942 299.503,-291.407 310.007,-292.795 308.58,-285.942"/>
<text text-anchor="middle" x="417" y="-289" font-family="Arial" font-size="10.00"> copyMaterial</text>
<text text-anchor="middle" x="417" y="-278" font-family="Arial" font-size="10.00">copyStageMaterial</text>
</g>
<!-- Node5&#45;&gt;Node9 -->
<g id="edge9" class="edge"><title>Node5&#45;&gt;Node9</title>
<path fill="none" stroke="#9a32cd" stroke-dasharray="5,2" d="M309.649,-298.978C345.209,-303.328 408.736,-308.505 462,-299 572.05,-279.361 626.092,-297.592 698,-212 726.767,-177.759 685.694,-145.887 716,-113 725.598,-102.584 740.221,-97.629 753.707,-95.357"/>
<polygon fill="#9a32cd" stroke="#9a32cd" points="309.919,-295.483 299.553,-297.671 309.021,-302.426 309.919,-295.483"/>
<text text-anchor="middle" x="533" y="-298" font-family="Arial" font-size="10.00"> name</text>
</g>
<!-- Node6 -->
<g id="node6" class="node"><title>Node6</title>
<g id="a_node6"><a xlink:href="classid_list.html" target="_top" xlink:title="idList\&lt; MaterialModifier * \&gt;">
<polygon fill="white" stroke="black" points="214.5,-229.5 214.5,-248.5 347.5,-248.5 347.5,-229.5 214.5,-229.5"/>
<text text-anchor="middle" x="281" y="-236.5" font-family="Arial" font-size="10.00">idList&lt; MaterialModifier * &gt;</text>
</a>
</g>
</g>
<!-- Node6&#45;&gt;Node4 -->
<g id="edge5" class="edge"><title>Node6&#45;&gt;Node4</title>
<path fill="none" stroke="#9a32cd" stroke-dasharray="5,2" d="M357.605,-229.083C390.086,-223.92 428.257,-216.638 462,-207 478.991,-202.147 497.528,-194.626 511.256,-188.6"/>
<polygon fill="#9a32cd" stroke="#9a32cd" points="357.064,-225.625 347.719,-230.617 358.137,-232.542 357.064,-225.625"/>
<text text-anchor="middle" x="417" y="-240" font-family="Arial" font-size="10.00"> undoModifiers</text>
<text text-anchor="middle" x="417" y="-229" font-family="Arial" font-size="10.00">redoModifiers</text>
</g>
<!-- Node7 -->
<g id="node7" class="node"><title>Node7</title>
<g id="a_node7"><a xlink:href="struct_m_e_stage__t.html" target="_top" xlink:title="MEStage_t">
<polygon fill="white" stroke="black" points="248.5,-191.5 248.5,-210.5 313.5,-210.5 313.5,-191.5 248.5,-191.5"/>
<text text-anchor="middle" x="281" y="-198.5" font-family="Arial" font-size="10.00">MEStage_t</text>
</a>
</g>
</g>
<!-- Node7&#45;&gt;Node4 -->
<g id="edge6" class="edge"><title>Node7&#45;&gt;Node4</title>
<path fill="none" stroke="#9a32cd" stroke-dasharray="5,2" d="M323.748,-197.326C366.595,-193.556 433.372,-187.679 479.711,-183.601"/>
<polygon fill="#9a32cd" stroke="#9a32cd" points="323.317,-193.85 313.663,-198.214 323.931,-200.824 323.317,-193.85"/>
<text text-anchor="middle" x="417" y="-195" font-family="Arial" font-size="10.00"> copyStage</text>
</g>
<!-- Node8 -->
<g id="node8" class="node"><title>Node8</title>
<g id="a_node8"><a xlink:href="classid_dict.html" target="_top" xlink:title="idDict">
<polygon fill="white" stroke="black" points="36.5,-142.5 36.5,-161.5 77.5,-161.5 77.5,-142.5 36.5,-142.5"/>
<text text-anchor="middle" x="57" y="-149.5" font-family="Arial" font-size="10.00">idDict</text>
</a>
</g>
</g>
<!-- Node8&#45;&gt;Node7 -->
<g id="edge7" class="edge"><title>Node8&#45;&gt;Node7</title>
<path fill="none" stroke="#9a32cd" stroke-dasharray="5,2" d="M87.55,-158.522C129.356,-167.75 205.445,-184.544 248.36,-194.017"/>
<polygon fill="#9a32cd" stroke="#9a32cd" points="88.2204,-155.086 77.701,-156.348 86.7116,-161.922 88.2204,-155.086"/>
<text text-anchor="middle" x="161" y="-183" font-family="Arial" font-size="10.00"> stageData</text>
</g>
<!-- Node10 -->
<g id="node10" class="node"><title>Node10</title>
<g id="a_node10"><a xlink:href="struct_m_e_material__t.html" target="_top" xlink:title="MEMaterial_t">
<polygon fill="white" stroke="black" points="244,-77.5 244,-96.5 318,-96.5 318,-77.5 244,-77.5"/>
<text text-anchor="middle" x="281" y="-84.5" font-family="Arial" font-size="10.00">MEMaterial_t</text>
</a>
</g>
</g>
<!-- Node8&#45;&gt;Node10 -->
<g id="edge12" class="edge"><title>Node8&#45;&gt;Node10</title>
<path fill="none" stroke="#9a32cd" stroke-dasharray="5,2" d="M87.7111,-142.509C117.9,-132.955 166.057,-117.96 208,-106 219.562,-102.703 232.226,-99.294 243.665,-96.2895"/>
<polygon fill="#9a32cd" stroke="#9a32cd" points="86.2946,-139.286 77.8219,-145.648 88.4122,-145.958 86.2946,-139.286"/>
<text text-anchor="middle" x="161" y="-131" font-family="Arial" font-size="10.00"> materialData</text>
</g>
<!-- Node9&#45;&gt;Node4 -->
<g id="edge8" class="edge"><title>Node9&#45;&gt;Node4</title>
<path fill="none" stroke="#9a32cd" stroke-dasharray="5,2" d="M744.056,-99.7712C734.143,-102.589 724.133,-106.778 716,-113 703.347,-122.681 710.897,-134.646 698,-144 680.383,-156.777 627.412,-166.567 586.387,-172.502"/>
<polygon fill="#9a32cd" stroke="#9a32cd" points="744.973,-103.15 753.862,-97.3853 743.318,-96.3487 744.973,-103.15"/>
<text text-anchor="middle" x="651" y="-172" font-family="Arial" font-size="10.00"> currentMaterial</text>
</g>
<!-- Node10&#45;&gt;Node9 -->
<g id="edge10" class="edge"><title>Node10&#45;&gt;Node9</title>
<path fill="none" stroke="#9a32cd" stroke-dasharray="5,2" d="M328.514,-87.6448C429.489,-89.0444 666.694,-92.3324 753.996,-93.5425"/>
<polygon fill="#9a32cd" stroke="#9a32cd" points="328.366,-84.1425 318.318,-87.5034 328.269,-91.1418 328.366,-84.1425"/>
<text text-anchor="middle" x="533" y="-95" font-family="Arial" font-size="10.00"> editMaterial</text>
</g>
<!-- Node11 -->
<g id="node11" class="node"><title>Node11</title>
<g id="a_node11"><a xlink:href="classid_list.html" target="_top" xlink:title="idList\&lt; MEStage_t * \&gt;">
<polygon fill="white" stroke="black" points="0.5,-77.5 0.5,-96.5 113.5,-96.5 113.5,-77.5 0.5,-77.5"/>
<text text-anchor="middle" x="57" y="-84.5" font-family="Arial" font-size="10.00">idList&lt; MEStage_t * &gt;</text>
</a>
</g>
</g>
<!-- Node11&#45;&gt;Node10 -->
<g id="edge11" class="edge"><title>Node11&#45;&gt;Node10</title>
<path fill="none" stroke="#9a32cd" stroke-dasharray="5,2" d="M123.754,-87C162.982,-87 211.306,-87 243.736,-87"/>
<polygon fill="#9a32cd" stroke="#9a32cd" points="123.733,-83.5001 113.733,-87 123.733,-90.5001 123.733,-83.5001"/>
<text text-anchor="middle" x="161" y="-90" font-family="Arial" font-size="10.00"> stages</text>
</g>
<!-- Node12 -->
<g id="node12" class="node"><title>Node12</title>
<g id="a_node12"><a xlink:href="class_source_modify_owner.html" target="_top" xlink:title="SourceModifyOwner">
<polygon fill="white" stroke="black" points="481,-38.5 481,-57.5 585,-57.5 585,-38.5 481,-38.5"/>
<text text-anchor="middle" x="533" y="-45.5" font-family="Arial" font-size="10.00">SourceModifyOwner</text>
</a>
</g>
</g>
<!-- Node12&#45;&gt;Node9 -->
<g id="edge14" class="edge"><title>Node12&#45;&gt;Node9</title>
<path fill="none" stroke="#9a32cd" stroke-dasharray="5,2" d="M595.492,-53.7154C626.423,-57.136 664.388,-62.1655 698,-69 717.974,-73.0614 740.034,-79.2458 757.194,-84.4473"/>
<polygon fill="#9a32cd" stroke="#9a32cd" points="595.606,-50.2075 585.288,-52.6168 594.856,-57.1673 595.606,-50.2075"/>
<text text-anchor="middle" x="651" y="-72" font-family="Arial" font-size="10.00"> sourceModifyOwner</text>
</g>
<!-- Node13 -->
<g id="node13" class="node"><title>Node13</title>
<g id="a_node13"><a xlink:href="classid_material.html" target="_top" xlink:title="idMaterial">
<polygon fill="white" stroke="black" points="503.5,-0.5 503.5,-19.5 562.5,-19.5 562.5,-0.5 503.5,-0.5"/>
<text text-anchor="middle" x="533" y="-7.5" font-family="Arial" font-size="10.00">idMaterial</text>
</a>
</g>
</g>
<!-- Node13&#45;&gt;Node9 -->
<g id="edge15" class="edge"><title>Node13&#45;&gt;Node9</title>
<path fill="none" stroke="#9a32cd" stroke-dasharray="5,2" d="M572.678,-13.0751C606.603,-16.7009 656.806,-24.3463 698,-40 727.396,-51.1705 757.948,-72.1028 774.504,-84.3664"/>
<polygon fill="#9a32cd" stroke="#9a32cd" points="572.999,-9.58986 562.7,-12.0745 572.301,-16.5549 572.999,-9.58986"/>
<text text-anchor="middle" x="651" y="-43" font-family="Arial" font-size="10.00"> renderMaterial</text>
</g>
<!-- Node14 -->
<g id="node14" class="node"><title>Node14</title>
<g id="a_node14"><a xlink:href="classid_decl.html" target="_top" xlink:title="idDecl">
<polygon fill="white" stroke="black" points="259,-0.5 259,-19.5 303,-19.5 303,-0.5 259,-0.5"/>
<text text-anchor="middle" x="281" y="-7.5" font-family="Arial" font-size="10.00">idDecl</text>
</a>
</g>
</g>
<!-- Node14&#45;&gt;Node13 -->
<g id="edge16" class="edge"><title>Node14&#45;&gt;Node13</title>
<path fill="none" stroke="midnightblue" d="M313.621,-10C362.579,-10 455.99,-10 503.185,-10"/>
<polygon fill="midnightblue" stroke="midnightblue" points="313.315,-6.5001 303.315,-10 313.315,-13.5001 313.315,-6.5001"/>
</g>
<!-- Node15 -->
<g id="node15" class="node"><title>Node15</title>
<g id="a_node15"><a xlink:href="classid_decl_base.html" target="_top" xlink:title="idDeclBase">
<polygon fill="white" stroke="black" points="24,-0.5 24,-19.5 90,-19.5 90,-0.5 24,-0.5"/>
<text text-anchor="middle" x="57" y="-7.5" font-family="Arial" font-size="10.00">idDeclBase</text>
</a>
</g>
</g>
<!-- Node15&#45;&gt;Node14 -->
<g id="edge17" class="edge"><title>Node15&#45;&gt;Node14</title>
<path fill="none" stroke="#9a32cd" stroke-dasharray="5,2" d="M100.52,-10C147.836,-10 222.398,-10 258.71,-10"/>
<polygon fill="#9a32cd" stroke="#9a32cd" points="100.281,-6.5001 90.2807,-10 100.281,-13.5001 100.281,-6.5001"/>
<text text-anchor="middle" x="161" y="-13" font-family="Arial" font-size="10.00"> base</text>
</g>
<!-- Node16 -->
<g id="node16" class="node"><title>Node16</title>
<g id="a_node16"><a xlink:href="classid_hash_table.html" target="_top" xlink:title="idHashTable\&lt; MaterialDoc * \&gt;">
<polygon fill="white" stroke="black" points="208,-153.5 208,-172.5 354,-172.5 354,-153.5 208,-153.5"/>
<text text-anchor="middle" x="281" y="-160.5" font-family="Arial" font-size="10.00">idHashTable&lt; MaterialDoc * &gt;</text>
</a>
</g>
</g>
<!-- Node16&#45;&gt;Node4 -->
<g id="edge18" class="edge"><title>Node16&#45;&gt;Node4</title>
<path fill="none" stroke="#9a32cd" stroke-dasharray="5,2" d="M364.262,-159.912C395.009,-159.688 430.18,-160.54 462,-164 472.626,-165.156 484.012,-167.228 494.449,-169.47"/>
<polygon fill="#9a32cd" stroke="#9a32cd" points="363.976,-156.415 354.016,-160.027 364.055,-163.414 363.976,-156.415"/>
<text text-anchor="middle" x="417" y="-167" font-family="Arial" font-size="10.00"> inProgressMaterials</text>
</g>
<!-- Node17 -->
<g id="node17" class="node"><title>Node17</title>
<g id="a_node17"><a xlink:href="classid_list.html" target="_top" xlink:title="idList\&lt; MaterialView * \&gt;">
<polygon fill="white" stroke="black" points="221,-115.5 221,-134.5 341,-134.5 341,-115.5 221,-115.5"/>
<text text-anchor="middle" x="281" y="-122.5" font-family="Arial" font-size="10.00">idList&lt; MaterialView * &gt;</text>
</a>
</g>
</g>
<!-- Node17&#45;&gt;Node4 -->
<g id="edge19" class="edge"><title>Node17&#45;&gt;Node4</title>
<path fill="none" stroke="#9a32cd" stroke-dasharray="5,2" d="M351.661,-126.552C385.516,-128.762 426.466,-133.612 462,-144 481.953,-149.833 503.06,-161.195 516.814,-169.395"/>
<polygon fill="#9a32cd" stroke="#9a32cd" points="351.584,-123.041 341.395,-125.947 351.172,-130.029 351.584,-123.041"/>
<text text-anchor="middle" x="417" y="-147" font-family="Arial" font-size="10.00"> materialViews</text>
</g>
<!-- Node18 -->
<g id="node18" class="node"><title>Node18</title>
<g id="a_node18"><a xlink:href="classid_hash_table.html" target="_top" xlink:title="idHashTable\&lt; HTREEITEM \&gt;">
<polygon fill="white" stroke="black" points="716.5,-160.5 716.5,-179.5 859.5,-179.5 859.5,-160.5 716.5,-160.5"/>
<text text-anchor="middle" x="788" y="-167.5" font-family="Arial" font-size="10.00">idHashTable&lt; HTREEITEM &gt;</text>
</a>
</g>
</g>
<!-- Node18&#45;&gt;Node1 -->
<g id="edge20" class="edge"><title>Node18&#45;&gt;Node1</title>
<path fill="none" stroke="#9a32cd" stroke-dasharray="5,2" d="M869.533,-161.452C897.185,-160.387 928.171,-161.288 956,-167 972.319,-170.35 989.631,-178.111 1001.97,-184.456"/>
<polygon fill="#9a32cd" stroke="#9a32cd" points="869.331,-157.957 859.508,-161.928 869.663,-164.949 869.331,-157.957"/>
<text text-anchor="middle" x="917" y="-192" font-family="Arial" font-size="10.00"> materialToTree</text>
<text text-anchor="middle" x="917" y="-181" font-family="Arial" font-size="10.00">quickTree</text>
<text text-anchor="middle" x="917" y="-170" font-family="Arial" font-size="10.00">fileToTree</text>
</g>
<!-- Node19 -->
<g id="node19" class="node"><title>Node19</title>
<g id="a_node19"><a xlink:href="classid_list.html" target="_top" xlink:title="idList\&lt; MaterialTreeItem_t \&gt;">
<polygon fill="white" stroke="black" points="719,-122.5 719,-141.5 857,-141.5 857,-122.5 719,-122.5"/>
<text text-anchor="middle" x="788" y="-129.5" font-family="Arial" font-size="10.00">idList&lt; MaterialTreeItem_t &gt;</text>
</a>
</g>
</g>
<!-- Node19&#45;&gt;Node1 -->
<g id="edge21" class="edge"><title>Node19&#45;&gt;Node1</title>
<path fill="none" stroke="#9a32cd" stroke-dasharray="5,2" d="M867.166,-129.515C895.899,-130.918 928.188,-135.297 956,-146 977.816,-154.395 998.439,-172.808 1009.83,-184.231"/>
<polygon fill="#9a32cd" stroke="#9a32cd" points="867.29,-126.017 857.165,-129.137 867.026,-133.012 867.29,-126.017"/>
<text text-anchor="middle" x="917" y="-149" font-family="Arial" font-size="10.00"> affectedMaterials</text>
</g>
</g>
</svg>
