<?xml version="1.0" encoding="UTF-8" standalone="no"?>
<!DOCTYPE svg PUBLIC "-//W3C//DTD SVG 1.1//EN"
 "http://www.w3.org/Graphics/SVG/1.1/DTD/svg11.dtd">
<!-- Generated by graphviz version 2.34.0 (20130907.0111)
 -->
<!-- Title: CLightInfo Pages: 1 -->
<svg width="150pt" height="172pt"
 viewBox="0.00 0.00 150.00 172.00" xmlns="http://www.w3.org/2000/svg" xmlns:xlink="http://www.w3.org/1999/xlink">
<g id="graph0" class="graph" transform="scale(1 1) rotate(0) translate(4 168)">
<title>CLightInfo</title>
<polygon fill="white" stroke="white" points="-4,4 -4,-168 146,-168 146,4 -4,4"/>
<!-- Node1 -->
<g id="node1" class="node"><title>Node1</title>
<polygon fill="#bfbfbf" stroke="black" points="29.5,-0.5 29.5,-19.5 88.5,-19.5 88.5,-0.5 29.5,-0.5"/>
<text text-anchor="middle" x="59" y="-7.5" font-family="Arial" font-size="10.00">CLightInfo</text>
</g>
<!-- Node2 -->
<g id="node2" class="node"><title>Node2</title>
<g id="a_node2"><a xlink:href="classid_vec3.html" target="_top" xlink:title="idVec3">
<polygon fill="white" stroke="black" points="-0.5,-144.5 -0.5,-163.5 46.5,-163.5 46.5,-144.5 -0.5,-144.5"/>
<text text-anchor="middle" x="23" y="-151.5" font-family="Arial" font-size="10.00">idVec3</text>
</a>
</g>
</g>
<!-- Node2&#45;&gt;Node1 -->
<g id="edge1" class="edge"><title>Node2&#45;&gt;Node1</title>
<path fill="none" stroke="#9a32cd" stroke-dasharray="5,2" d="M18.4431,-134.541C13.6055,-110.826 8.58193,-69.0251 24,-38 27.8251,-30.3028 35.0025,-24.1727 41.8667,-19.7118"/>
<polygon fill="#9a32cd" stroke="#9a32cd" points="15.0363,-135.345 20.6455,-144.333 21.8657,-133.809 15.0363,-135.345"/>
<text text-anchor="middle" x="49" y="-118" font-family="Arial" font-size="10.00"> lightCenter</text>
<text text-anchor="middle" x="49" y="-107" font-family="Arial" font-size="10.00">lightTarget</text>
<text text-anchor="middle" x="49" y="-96" font-family="Arial" font-size="10.00">lightUp</text>
<text text-anchor="middle" x="49" y="-85" font-family="Arial" font-size="10.00">lightStart</text>
<text text-anchor="middle" x="49" y="-74" font-family="Arial" font-size="10.00">lightEnd</text>
<text text-anchor="middle" x="49" y="-63" font-family="Arial" font-size="10.00">lightRadius</text>
<text text-anchor="middle" x="49" y="-52" font-family="Arial" font-size="10.00">lightRight</text>
<text text-anchor="middle" x="49" y="-41" font-family="Arial" font-size="10.00">color</text>
</g>
<!-- Node3 -->
<g id="node3" class="node"><title>Node3</title>
<g id="a_node3"><a xlink:href="classid_vec4.html" target="_top" xlink:title="idVec4">
<polygon fill="white" stroke="black" points="72.5,-144.5 72.5,-163.5 119.5,-163.5 119.5,-144.5 72.5,-144.5"/>
<text text-anchor="middle" x="96" y="-151.5" font-family="Arial" font-size="10.00">idVec4</text>
</a>
</g>
</g>
<!-- Node3&#45;&gt;Node1 -->
<g id="edge2" class="edge"><title>Node3&#45;&gt;Node1</title>
<path fill="none" stroke="#9a32cd" stroke-dasharray="5,2" d="M94.2597,-134.23C91.6953,-111.054 85.8622,-70.6933 74,-38 71.6589,-31.5478 67.9089,-24.7978 64.7442,-19.6609"/>
<polygon fill="#9a32cd" stroke="#9a32cd" points="90.7987,-134.791 95.2929,-144.385 97.7627,-134.082 90.7987,-134.791"/>
<text text-anchor="middle" x="117.5" y="-79.5" font-family="Arial" font-size="10.00"> fogDensity</text>
</g>
</g>
</svg>
