<?xml version="1.0" encoding="UTF-8" standalone="no"?>
<!DOCTYPE svg PUBLIC "-//W3C//DTD SVG 1.1//EN"
 "http://www.w3.org/Graphics/SVG/1.1/DTD/svg11.dtd">
<!-- Generated by graphviz version 2.34.0 (20130907.0111)
 -->
<!-- Title: idAsyncClient Pages: 1 -->
<svg width="134pt" height="154pt"
 viewBox="0.00 0.00 134.00 154.00" xmlns="http://www.w3.org/2000/svg" xmlns:xlink="http://www.w3.org/1999/xlink">
<g id="graph0" class="graph" transform="scale(1 1) rotate(0) translate(4 150)">
<title>idAsyncClient</title>
<polygon fill="white" stroke="white" points="-4,4 -4,-150 130,-150 130,4 -4,4"/>
<!-- Node1 -->
<g id="node1" class="node"><title>Node1</title>
<polygon fill="#bfbfbf" stroke="black" points="24.5,-0.5 24.5,-19.5 101.5,-19.5 101.5,-0.5 24.5,-0.5"/>
<text text-anchor="middle" x="63" y="-7.5" font-family="Arial" font-size="10.00">idAsyncClient</text>
</g>
<!-- Node2 -->
<g id="node2" class="node"><title>Node2</title>
<g id="a_node2"><a xlink:href="classid_server_scan.html" target="_top" xlink:title="idServerScan">
<polygon fill="white" stroke="black" points="26,-68.5 26,-87.5 100,-87.5 100,-68.5 26,-68.5"/>
<text text-anchor="middle" x="63" y="-75.5" font-family="Arial" font-size="10.00">idServerScan</text>
</a>
</g>
</g>
<!-- Node2&#45;&gt;Node1 -->
<g id="edge1" class="edge"><title>Node2&#45;&gt;Node1</title>
<path fill="none" stroke="#9a32cd" stroke-dasharray="5,2" d="M63,-58.0413C63,-45.4724 63,-29.5631 63,-19.8411"/>
<polygon fill="#9a32cd" stroke="#9a32cd" points="59.5001,-58.3716 63,-68.3717 66.5001,-58.3717 59.5001,-58.3716"/>
<text text-anchor="middle" x="85.5" y="-41.5" font-family="Arial" font-size="10.00"> serverList</text>
</g>
<!-- Node3 -->
<g id="node3" class="node"><title>Node3</title>
<g id="a_node3"><a xlink:href="classid_list.html" target="_top" xlink:title="idList\&lt; networkServer_t \&gt;">
<polygon fill="white" stroke="black" points="-0.5,-126.5 -0.5,-145.5 126.5,-145.5 126.5,-126.5 -0.5,-126.5"/>
<text text-anchor="middle" x="63" y="-133.5" font-family="Arial" font-size="10.00">idList&lt; networkServer_t &gt;</text>
</a>
</g>
</g>
<!-- Node3&#45;&gt;Node2 -->
<g id="edge2" class="edge"><title>Node3&#45;&gt;Node2</title>
<path fill="none" stroke="midnightblue" d="M63,-115.953C63,-106.287 63,-95.0312 63,-87.5052"/>
<polygon fill="midnightblue" stroke="midnightblue" points="59.5001,-116.25 63,-126.25 66.5001,-116.25 59.5001,-116.25"/>
</g>
</g>
</svg>
