<?xml version="1.0" encoding="UTF-8" standalone="no"?>
<!DOCTYPE svg PUBLIC "-//W3C//DTD SVG 1.1//EN"
 "http://www.w3.org/Graphics/SVG/1.1/DTD/svg11.dtd">
<!-- Generated by graphviz version 2.34.0 (20130907.0111)
 -->
<!-- Title: idAI Pages: 1 -->
<svg width="114pt" height="420pt"
 viewBox="0.00 0.00 114.00 420.00" xmlns="http://www.w3.org/2000/svg" xmlns:xlink="http://www.w3.org/1999/xlink">
<g id="graph0" class="graph" transform="scale(1 1) rotate(0) translate(4 416)">
<title>idAI</title>
<polygon fill="white" stroke="white" points="-4,4 -4,-416 110,-416 110,4 -4,4"/>
<!-- Node1 -->
<g id="node1" class="node"><title>Node1</title>
<polygon fill="#bfbfbf" stroke="black" points="36.5,-56.5 36.5,-75.5 69.5,-75.5 69.5,-56.5 36.5,-56.5"/>
<text text-anchor="middle" x="53" y="-63.5" font-family="Arial" font-size="10.00">idAI</text>
</g>
<!-- Node8 -->
<g id="node8" class="node"><title>Node8</title>
<g id="a_node8"><a xlink:href="classid_a_i___vagary.html" target="_top" xlink:title="idAI_Vagary">
<polygon fill="white" stroke="black" points="18.5,-0.5 18.5,-19.5 87.5,-19.5 87.5,-0.5 18.5,-0.5"/>
<text text-anchor="middle" x="53" y="-7.5" font-family="Arial" font-size="10.00">idAI_Vagary</text>
</a>
</g>
</g>
<!-- Node1&#45;&gt;Node8 -->
<g id="edge13" class="edge"><title>Node1&#45;&gt;Node8</title>
<path fill="none" stroke="midnightblue" d="M46.5276,-46.1005C45.8956,-37.1357 46.3427,-26.8579 47.869,-19.7511"/>
<polygon fill="midnightblue" stroke="midnightblue" points="43.0658,-46.6216 47.8337,-56.083 50.0067,-45.7134 43.0658,-46.6216"/>
</g>
<!-- Node1&#45;&gt;Node8 -->
<g id="edge14" class="edge"><title>Node1&#45;&gt;Node8</title>
<path fill="none" stroke="midnightblue" d="M59.4724,-46.1005C60.1044,-37.1357 59.6573,-26.8579 58.131,-19.7511"/>
<polygon fill="midnightblue" stroke="midnightblue" points="55.9933,-45.7134 58.1663,-56.083 62.9342,-46.6216 55.9933,-45.7134"/>
</g>
<!-- Node2 -->
<g id="node2" class="node"><title>Node2</title>
<g id="a_node2"><a xlink:href="classid_actor.html" target="_top" xlink:title="idActor">
<polygon fill="white" stroke="black" points="29.5,-112.5 29.5,-131.5 76.5,-131.5 76.5,-112.5 29.5,-112.5"/>
<text text-anchor="middle" x="53" y="-119.5" font-family="Arial" font-size="10.00">idActor</text>
</a>
</g>
</g>
<!-- Node2&#45;&gt;Node1 -->
<g id="edge1" class="edge"><title>Node2&#45;&gt;Node1</title>
<path fill="none" stroke="midnightblue" d="M46.5276,-102.101C45.8956,-93.1357 46.3427,-82.8579 47.869,-75.7511"/>
<polygon fill="midnightblue" stroke="midnightblue" points="43.0658,-102.622 47.8337,-112.083 50.0067,-101.713 43.0658,-102.622"/>
</g>
<!-- Node2&#45;&gt;Node1 -->
<g id="edge12" class="edge"><title>Node2&#45;&gt;Node1</title>
<path fill="none" stroke="midnightblue" d="M59.4724,-102.101C60.1044,-93.1357 59.6573,-82.8579 58.131,-75.7511"/>
<polygon fill="midnightblue" stroke="midnightblue" points="55.9933,-101.713 58.1663,-112.083 62.9342,-102.622 55.9933,-101.713"/>
</g>
<!-- Node3 -->
<g id="node3" class="node"><title>Node3</title>
<g id="a_node3"><a xlink:href="classid_a_f_entity___gibbable.html" target="_top" xlink:title="idAFEntity_Gibbable">
<polygon fill="white" stroke="black" points="0,-168.5 0,-187.5 106,-187.5 106,-168.5 0,-168.5"/>
<text text-anchor="middle" x="53" y="-175.5" font-family="Arial" font-size="10.00">idAFEntity_Gibbable</text>
</a>
</g>
</g>
<!-- Node3&#45;&gt;Node2 -->
<g id="edge2" class="edge"><title>Node3&#45;&gt;Node2</title>
<path fill="none" stroke="midnightblue" d="M46.5276,-158.101C45.8956,-149.136 46.3427,-138.858 47.869,-131.751"/>
<polygon fill="midnightblue" stroke="midnightblue" points="43.0658,-158.622 47.8337,-168.083 50.0067,-157.713 43.0658,-158.622"/>
</g>
<!-- Node3&#45;&gt;Node2 -->
<g id="edge11" class="edge"><title>Node3&#45;&gt;Node2</title>
<path fill="none" stroke="midnightblue" d="M59.4724,-158.101C60.1044,-149.136 59.6573,-138.858 58.131,-131.751"/>
<polygon fill="midnightblue" stroke="midnightblue" points="55.9933,-157.713 58.1663,-168.083 62.9342,-158.622 55.9933,-157.713"/>
</g>
<!-- Node4 -->
<g id="node4" class="node"><title>Node4</title>
<g id="a_node4"><a xlink:href="classid_a_f_entity___base.html" target="_top" xlink:title="idAFEntity_Base">
<polygon fill="white" stroke="black" points="8,-224.5 8,-243.5 98,-243.5 98,-224.5 8,-224.5"/>
<text text-anchor="middle" x="53" y="-231.5" font-family="Arial" font-size="10.00">idAFEntity_Base</text>
</a>
</g>
</g>
<!-- Node4&#45;&gt;Node3 -->
<g id="edge3" class="edge"><title>Node4&#45;&gt;Node3</title>
<path fill="none" stroke="midnightblue" d="M46.5276,-214.101C45.8956,-205.136 46.3427,-194.858 47.869,-187.751"/>
<polygon fill="midnightblue" stroke="midnightblue" points="43.0658,-214.622 47.8337,-224.083 50.0067,-213.713 43.0658,-214.622"/>
</g>
<!-- Node4&#45;&gt;Node3 -->
<g id="edge10" class="edge"><title>Node4&#45;&gt;Node3</title>
<path fill="none" stroke="midnightblue" d="M59.4724,-214.101C60.1044,-205.136 59.6573,-194.858 58.131,-187.751"/>
<polygon fill="midnightblue" stroke="midnightblue" points="55.9933,-213.713 58.1663,-224.083 62.9342,-214.622 55.9933,-213.713"/>
</g>
<!-- Node5 -->
<g id="node5" class="node"><title>Node5</title>
<g id="a_node5"><a xlink:href="classid_animated_entity.html" target="_top" xlink:title="idAnimatedEntity">
<polygon fill="white" stroke="black" points="7.5,-280.5 7.5,-299.5 98.5,-299.5 98.5,-280.5 7.5,-280.5"/>
<text text-anchor="middle" x="53" y="-287.5" font-family="Arial" font-size="10.00">idAnimatedEntity</text>
</a>
</g>
</g>
<!-- Node5&#45;&gt;Node4 -->
<g id="edge4" class="edge"><title>Node5&#45;&gt;Node4</title>
<path fill="none" stroke="midnightblue" d="M46.5276,-270.101C45.8956,-261.136 46.3427,-250.858 47.869,-243.751"/>
<polygon fill="midnightblue" stroke="midnightblue" points="43.0658,-270.622 47.8337,-280.083 50.0067,-269.713 43.0658,-270.622"/>
</g>
<!-- Node5&#45;&gt;Node4 -->
<g id="edge9" class="edge"><title>Node5&#45;&gt;Node4</title>
<path fill="none" stroke="midnightblue" d="M59.4724,-270.101C60.1044,-261.136 59.6573,-250.858 58.131,-243.751"/>
<polygon fill="midnightblue" stroke="midnightblue" points="55.9933,-269.713 58.1663,-280.083 62.9342,-270.622 55.9933,-269.713"/>
</g>
<!-- Node6 -->
<g id="node6" class="node"><title>Node6</title>
<g id="a_node6"><a xlink:href="classid_entity.html" target="_top" xlink:title="idEntity">
<polygon fill="white" stroke="black" points="28,-336.5 28,-355.5 78,-355.5 78,-336.5 28,-336.5"/>
<text text-anchor="middle" x="53" y="-343.5" font-family="Arial" font-size="10.00">idEntity</text>
</a>
</g>
</g>
<!-- Node6&#45;&gt;Node5 -->
<g id="edge5" class="edge"><title>Node6&#45;&gt;Node5</title>
<path fill="none" stroke="midnightblue" d="M46.5276,-326.101C45.8956,-317.136 46.3427,-306.858 47.869,-299.751"/>
<polygon fill="midnightblue" stroke="midnightblue" points="43.0658,-326.622 47.8337,-336.083 50.0067,-325.713 43.0658,-326.622"/>
</g>
<!-- Node6&#45;&gt;Node5 -->
<g id="edge8" class="edge"><title>Node6&#45;&gt;Node5</title>
<path fill="none" stroke="midnightblue" d="M59.4724,-326.101C60.1044,-317.136 59.6573,-306.858 58.131,-299.751"/>
<polygon fill="midnightblue" stroke="midnightblue" points="55.9933,-325.713 58.1663,-336.083 62.9342,-326.622 55.9933,-325.713"/>
</g>
<!-- Node7 -->
<g id="node7" class="node"><title>Node7</title>
<g id="a_node7"><a xlink:href="classid_class.html" target="_top" xlink:title="idClass">
<polygon fill="white" stroke="black" points="28.5,-392.5 28.5,-411.5 77.5,-411.5 77.5,-392.5 28.5,-392.5"/>
<text text-anchor="middle" x="53" y="-399.5" font-family="Arial" font-size="10.00">idClass</text>
</a>
</g>
</g>
<!-- Node7&#45;&gt;Node6 -->
<g id="edge6" class="edge"><title>Node7&#45;&gt;Node6</title>
<path fill="none" stroke="midnightblue" d="M46.5276,-382.101C45.8956,-373.136 46.3427,-362.858 47.869,-355.751"/>
<polygon fill="midnightblue" stroke="midnightblue" points="43.0658,-382.622 47.8337,-392.083 50.0067,-381.713 43.0658,-382.622"/>
</g>
<!-- Node7&#45;&gt;Node6 -->
<g id="edge7" class="edge"><title>Node7&#45;&gt;Node6</title>
<path fill="none" stroke="midnightblue" d="M59.4724,-382.101C60.1044,-373.136 59.6573,-362.858 58.131,-355.751"/>
<polygon fill="midnightblue" stroke="midnightblue" points="55.9933,-381.713 58.1663,-392.083 62.9342,-382.622 55.9933,-381.713"/>
</g>
</g>
</svg>
