<?xml version="1.0" encoding="UTF-8" standalone="no"?>
<!DOCTYPE svg PUBLIC "-//W3C//DTD SVG 1.1//EN"
 "http://www.w3.org/Graphics/SVG/1.1/DTD/svg11.dtd">
<!-- Generated by graphviz version 2.34.0 (20130907.0111)
 -->
<!-- Title: idAFEntity_Gibbable Pages: 1 -->
<svg width="464pt" height="420pt"
 viewBox="0.00 0.00 464.00 420.00" xmlns="http://www.w3.org/2000/svg" xmlns:xlink="http://www.w3.org/1999/xlink">
<g id="graph0" class="graph" transform="scale(1 1) rotate(0) translate(4 416)">
<title>idAFEntity_Gibbable</title>
<polygon fill="white" stroke="white" points="-4,4 -4,-416 460,-416 460,4 -4,4"/>
<!-- Node1 -->
<g id="node1" class="node"><title>Node1</title>
<polygon fill="#bfbfbf" stroke="black" points="174,-168.5 174,-187.5 280,-187.5 280,-168.5 174,-168.5"/>
<text text-anchor="middle" x="227" y="-175.5" font-family="Arial" font-size="10.00">idAFEntity_Gibbable</text>
</g>
<!-- Node6 -->
<g id="node6" class="node"><title>Node6</title>
<g id="a_node6"><a xlink:href="classid_actor.html" target="_top" xlink:title="idActor">
<polygon fill="white" stroke="black" points="40.5,-112.5 40.5,-131.5 87.5,-131.5 87.5,-112.5 40.5,-112.5"/>
<text text-anchor="middle" x="64" y="-119.5" font-family="Arial" font-size="10.00">idActor</text>
</a>
</g>
</g>
<!-- Node1&#45;&gt;Node6 -->
<g id="edge9" class="edge"><title>Node1&#45;&gt;Node6</title>
<path fill="none" stroke="midnightblue" d="M186.441,-165.436C154.076,-155.255 110.224,-140.664 84.627,-131.516"/>
<polygon fill="midnightblue" stroke="midnightblue" points="185.495,-168.807 196.083,-168.444 187.579,-162.125 185.495,-168.807"/>
</g>
<!-- Node1&#45;&gt;Node6 -->
<g id="edge16" class="edge"><title>Node1&#45;&gt;Node6</title>
<path fill="none" stroke="midnightblue" d="M196.646,-165.051C165.054,-154.021 116.503,-138.068 87.6168,-129.323"/>
<polygon fill="midnightblue" stroke="midnightblue" points="195.666,-168.417 206.261,-168.444 197.995,-161.815 195.666,-168.417"/>
</g>
<!-- Node10 -->
<g id="node10" class="node"><title>Node10</title>
<g id="a_node10"><a xlink:href="classid_a_f_entity___generic.html" target="_top" xlink:title="idAFEntity_Generic">
<polygon fill="white" stroke="black" points="105.5,-112.5 105.5,-131.5 206.5,-131.5 206.5,-112.5 105.5,-112.5"/>
<text text-anchor="middle" x="156" y="-119.5" font-family="Arial" font-size="10.00">idAFEntity_Generic</text>
</a>
</g>
</g>
<!-- Node1&#45;&gt;Node10 -->
<g id="edge17" class="edge"><title>Node1&#45;&gt;Node10</title>
<path fill="none" stroke="midnightblue" d="M202.102,-162.658C188.035,-152.859 171.668,-140.184 162.466,-131.834"/>
<polygon fill="midnightblue" stroke="midnightblue" points="200.234,-165.62 210.478,-168.324 204.156,-159.822 200.234,-165.62"/>
</g>
<!-- Node1&#45;&gt;Node10 -->
<g id="edge18" class="edge"><title>Node1&#45;&gt;Node10</title>
<path fill="none" stroke="midnightblue" d="M213.129,-161.778C201.393,-152.038 184.899,-139.756 172.489,-131.655"/>
<polygon fill="midnightblue" stroke="midnightblue" points="210.852,-164.436 220.707,-168.324 215.428,-159.138 210.852,-164.436"/>
</g>
<!-- Node11 -->
<g id="node11" class="node"><title>Node11</title>
<g id="a_node11"><a xlink:href="classid_a_f_entity___with_attached_head.html" target="_top" xlink:title="idAFEntity_WithAttachedHead">
<polygon fill="white" stroke="black" points="224.5,-112.5 224.5,-131.5 373.5,-131.5 373.5,-112.5 224.5,-112.5"/>
<text text-anchor="middle" x="299" y="-119.5" font-family="Arial" font-size="10.00">idAFEntity_WithAttachedHead</text>
</a>
</g>
</g>
<!-- Node1&#45;&gt;Node11 -->
<g id="edge19" class="edge"><title>Node1&#45;&gt;Node11</title>
<path fill="none" stroke="midnightblue" d="M241.153,-161.778C253.07,-152.038 269.79,-139.756 282.351,-131.655"/>
<polygon fill="midnightblue" stroke="midnightblue" points="238.805,-159.18 233.453,-168.324 243.339,-164.513 238.805,-159.18"/>
</g>
<!-- Node1&#45;&gt;Node11 -->
<g id="edge20" class="edge"><title>Node1&#45;&gt;Node11</title>
<path fill="none" stroke="midnightblue" d="M252.164,-162.658C266.412,-152.859 283.013,-140.184 292.37,-131.834"/>
<polygon fill="midnightblue" stroke="midnightblue" points="250.054,-159.859 243.683,-168.324 253.942,-165.68 250.054,-159.859"/>
</g>
<!-- Node12 -->
<g id="node12" class="node"><title>Node12</title>
<g id="a_node12"><a xlink:href="classid_animated.html" target="_top" xlink:title="idAnimated">
<polygon fill="white" stroke="black" points="391.5,-112.5 391.5,-131.5 456.5,-131.5 456.5,-112.5 391.5,-112.5"/>
<text text-anchor="middle" x="424" y="-119.5" font-family="Arial" font-size="10.00">idAnimated</text>
</a>
</g>
</g>
<!-- Node1&#45;&gt;Node12 -->
<g id="edge21" class="edge"><title>Node1&#45;&gt;Node12</title>
<path fill="none" stroke="midnightblue" d="M262.913,-165.614C299.564,-155.097 355.751,-139.764 391.238,-130.643"/>
<polygon fill="midnightblue" stroke="midnightblue" points="261.761,-162.304 253.126,-168.444 263.705,-169.028 261.761,-162.304"/>
</g>
<!-- Node1&#45;&gt;Node12 -->
<g id="edge22" class="edge"><title>Node1&#45;&gt;Node12</title>
<path fill="none" stroke="midnightblue" d="M273.343,-165.829C312.24,-155.633 366.249,-140.782 398.011,-131.516"/>
<polygon fill="midnightblue" stroke="midnightblue" points="272.099,-162.536 263.304,-168.444 273.863,-169.31 272.099,-162.536"/>
</g>
<!-- Node2 -->
<g id="node2" class="node"><title>Node2</title>
<g id="a_node2"><a xlink:href="classid_a_f_entity___base.html" target="_top" xlink:title="idAFEntity_Base">
<polygon fill="white" stroke="black" points="182,-224.5 182,-243.5 272,-243.5 272,-224.5 182,-224.5"/>
<text text-anchor="middle" x="227" y="-231.5" font-family="Arial" font-size="10.00">idAFEntity_Base</text>
</a>
</g>
</g>
<!-- Node2&#45;&gt;Node1 -->
<g id="edge1" class="edge"><title>Node2&#45;&gt;Node1</title>
<path fill="none" stroke="midnightblue" d="M220.528,-214.101C219.896,-205.136 220.343,-194.858 221.869,-187.751"/>
<polygon fill="midnightblue" stroke="midnightblue" points="217.066,-214.622 221.834,-224.083 224.007,-213.713 217.066,-214.622"/>
</g>
<!-- Node2&#45;&gt;Node1 -->
<g id="edge8" class="edge"><title>Node2&#45;&gt;Node1</title>
<path fill="none" stroke="midnightblue" d="M233.472,-214.101C234.104,-205.136 233.657,-194.858 232.131,-187.751"/>
<polygon fill="midnightblue" stroke="midnightblue" points="229.993,-213.713 232.166,-224.083 236.934,-214.622 229.993,-213.713"/>
</g>
<!-- Node3 -->
<g id="node3" class="node"><title>Node3</title>
<g id="a_node3"><a xlink:href="classid_animated_entity.html" target="_top" xlink:title="idAnimatedEntity">
<polygon fill="white" stroke="black" points="181.5,-280.5 181.5,-299.5 272.5,-299.5 272.5,-280.5 181.5,-280.5"/>
<text text-anchor="middle" x="227" y="-287.5" font-family="Arial" font-size="10.00">idAnimatedEntity</text>
</a>
</g>
</g>
<!-- Node3&#45;&gt;Node2 -->
<g id="edge2" class="edge"><title>Node3&#45;&gt;Node2</title>
<path fill="none" stroke="midnightblue" d="M220.528,-270.101C219.896,-261.136 220.343,-250.858 221.869,-243.751"/>
<polygon fill="midnightblue" stroke="midnightblue" points="217.066,-270.622 221.834,-280.083 224.007,-269.713 217.066,-270.622"/>
</g>
<!-- Node3&#45;&gt;Node2 -->
<g id="edge7" class="edge"><title>Node3&#45;&gt;Node2</title>
<path fill="none" stroke="midnightblue" d="M233.472,-270.101C234.104,-261.136 233.657,-250.858 232.131,-243.751"/>
<polygon fill="midnightblue" stroke="midnightblue" points="229.993,-269.713 232.166,-280.083 236.934,-270.622 229.993,-269.713"/>
</g>
<!-- Node4 -->
<g id="node4" class="node"><title>Node4</title>
<g id="a_node4"><a xlink:href="classid_entity.html" target="_top" xlink:title="idEntity">
<polygon fill="white" stroke="black" points="202,-336.5 202,-355.5 252,-355.5 252,-336.5 202,-336.5"/>
<text text-anchor="middle" x="227" y="-343.5" font-family="Arial" font-size="10.00">idEntity</text>
</a>
</g>
</g>
<!-- Node4&#45;&gt;Node3 -->
<g id="edge3" class="edge"><title>Node4&#45;&gt;Node3</title>
<path fill="none" stroke="midnightblue" d="M220.528,-326.101C219.896,-317.136 220.343,-306.858 221.869,-299.751"/>
<polygon fill="midnightblue" stroke="midnightblue" points="217.066,-326.622 221.834,-336.083 224.007,-325.713 217.066,-326.622"/>
</g>
<!-- Node4&#45;&gt;Node3 -->
<g id="edge6" class="edge"><title>Node4&#45;&gt;Node3</title>
<path fill="none" stroke="midnightblue" d="M233.472,-326.101C234.104,-317.136 233.657,-306.858 232.131,-299.751"/>
<polygon fill="midnightblue" stroke="midnightblue" points="229.993,-325.713 232.166,-336.083 236.934,-326.622 229.993,-325.713"/>
</g>
<!-- Node5 -->
<g id="node5" class="node"><title>Node5</title>
<g id="a_node5"><a xlink:href="classid_class.html" target="_top" xlink:title="idClass">
<polygon fill="white" stroke="black" points="202.5,-392.5 202.5,-411.5 251.5,-411.5 251.5,-392.5 202.5,-392.5"/>
<text text-anchor="middle" x="227" y="-399.5" font-family="Arial" font-size="10.00">idClass</text>
</a>
</g>
</g>
<!-- Node5&#45;&gt;Node4 -->
<g id="edge4" class="edge"><title>Node5&#45;&gt;Node4</title>
<path fill="none" stroke="midnightblue" d="M220.528,-382.101C219.896,-373.136 220.343,-362.858 221.869,-355.751"/>
<polygon fill="midnightblue" stroke="midnightblue" points="217.066,-382.622 221.834,-392.083 224.007,-381.713 217.066,-382.622"/>
</g>
<!-- Node5&#45;&gt;Node4 -->
<g id="edge5" class="edge"><title>Node5&#45;&gt;Node4</title>
<path fill="none" stroke="midnightblue" d="M233.472,-382.101C234.104,-373.136 233.657,-362.858 232.131,-355.751"/>
<polygon fill="midnightblue" stroke="midnightblue" points="229.993,-381.713 232.166,-392.083 236.934,-382.622 229.993,-381.713"/>
</g>
<!-- Node7 -->
<g id="node7" class="node"><title>Node7</title>
<g id="a_node7"><a xlink:href="classid_a_i.html" target="_top" xlink:title="idAI">
<polygon fill="white" stroke="black" points="17.5,-56.5 17.5,-75.5 50.5,-75.5 50.5,-56.5 17.5,-56.5"/>
<text text-anchor="middle" x="34" y="-63.5" font-family="Arial" font-size="10.00">idAI</text>
</a>
</g>
</g>
<!-- Node6&#45;&gt;Node7 -->
<g id="edge10" class="edge"><title>Node6&#45;&gt;Node7</title>
<path fill="none" stroke="midnightblue" d="M48.1419,-103.855C42.1218,-94.5048 36.3124,-83.3265 33.7307,-75.7511"/>
<polygon fill="midnightblue" stroke="midnightblue" points="45.2886,-105.883 53.8798,-112.083 51.0303,-101.879 45.2886,-105.883"/>
</g>
<!-- Node6&#45;&gt;Node7 -->
<g id="edge13" class="edge"><title>Node6&#45;&gt;Node7</title>
<path fill="none" stroke="midnightblue" d="M60.2568,-102.69C55.8952,-93.589 49.5875,-83.0141 43.9927,-75.7511"/>
<polygon fill="midnightblue" stroke="midnightblue" points="57.1057,-104.225 64.2124,-112.083 63.557,-101.508 57.1057,-104.225"/>
</g>
<!-- Node9 -->
<g id="node9" class="node"><title>Node9</title>
<g id="a_node9"><a xlink:href="classid_player.html" target="_top" xlink:title="idPlayer">
<polygon fill="white" stroke="black" points="69,-56.5 69,-75.5 121,-75.5 121,-56.5 69,-56.5"/>
<text text-anchor="middle" x="95" y="-63.5" font-family="Arial" font-size="10.00">idPlayer</text>
</a>
</g>
</g>
<!-- Node6&#45;&gt;Node9 -->
<g id="edge14" class="edge"><title>Node6&#45;&gt;Node9</title>
<path fill="none" stroke="midnightblue" d="M68.0823,-102.69C72.6124,-93.589 79.1159,-83.0141 84.8452,-75.7511"/>
<polygon fill="midnightblue" stroke="midnightblue" points="64.7733,-101.52 63.9527,-112.083 71.1814,-104.337 64.7733,-101.52"/>
</g>
<!-- Node6&#45;&gt;Node9 -->
<g id="edge15" class="edge"><title>Node6&#45;&gt;Node9</title>
<path fill="none" stroke="midnightblue" d="M80.1756,-103.855C86.3688,-94.5048 92.3853,-83.3265 95.1072,-75.7511"/>
<polygon fill="midnightblue" stroke="midnightblue" points="77.2606,-101.914 74.2853,-112.083 82.9524,-105.989 77.2606,-101.914"/>
</g>
<!-- Node8 -->
<g id="node8" class="node"><title>Node8</title>
<g id="a_node8"><a xlink:href="classid_a_i___vagary.html" target="_top" xlink:title="idAI_Vagary">
<polygon fill="white" stroke="black" points="-0.5,-0.5 -0.5,-19.5 68.5,-19.5 68.5,-0.5 -0.5,-0.5"/>
<text text-anchor="middle" x="34" y="-7.5" font-family="Arial" font-size="10.00">idAI_Vagary</text>
</a>
</g>
</g>
<!-- Node7&#45;&gt;Node8 -->
<g id="edge11" class="edge"><title>Node7&#45;&gt;Node8</title>
<path fill="none" stroke="midnightblue" d="M27.5276,-46.1005C26.8956,-37.1357 27.3427,-26.8579 28.869,-19.7511"/>
<polygon fill="midnightblue" stroke="midnightblue" points="24.0658,-46.6216 28.8337,-56.083 31.0067,-45.7134 24.0658,-46.6216"/>
</g>
<!-- Node7&#45;&gt;Node8 -->
<g id="edge12" class="edge"><title>Node7&#45;&gt;Node8</title>
<path fill="none" stroke="midnightblue" d="M40.4724,-46.1005C41.1044,-37.1357 40.6573,-26.8579 39.131,-19.7511"/>
<polygon fill="midnightblue" stroke="midnightblue" points="36.9933,-45.7134 39.1663,-56.083 43.9342,-46.6216 36.9933,-45.7134"/>
</g>
</g>
</svg>
