<?xml version="1.0" encoding="UTF-8" standalone="no"?>
<!DOCTYPE svg PUBLIC "-//W3C//DTD SVG 1.1//EN"
 "http://www.w3.org/Graphics/SVG/1.1/DTD/svg11.dtd">
<!-- Generated by graphviz version 2.34.0 (20130907.0111)
 -->
<!-- Title: idUDPLag Pages: 1 -->
<svg width="249pt" height="208pt"
 viewBox="0.00 0.00 249.00 208.00" xmlns="http://www.w3.org/2000/svg" xmlns:xlink="http://www.w3.org/1999/xlink">
<g id="graph0" class="graph" transform="scale(1 1) rotate(0) translate(4 204)">
<title>idUDPLag</title>
<polygon fill="white" stroke="white" points="-4,4 -4,-204 245,-204 245,4 -4,4"/>
<!-- Node1 -->
<g id="node1" class="node"><title>Node1</title>
<polygon fill="#bfbfbf" stroke="black" points="110,-0.5 110,-19.5 170,-19.5 170,-0.5 110,-0.5"/>
<text text-anchor="middle" x="140" y="-7.5" font-family="Arial" font-size="10.00">idUDPLag</text>
</g>
<!-- Node2 -->
<g id="node2" class="node"><title>Node2</title>
<g id="a_node2"><a xlink:href="structudp_msg__s.html" target="_top" xlink:title="udpMsg_s">
<polygon fill="white" stroke="black" points="0,-106.5 0,-125.5 62,-125.5 62,-106.5 0,-106.5"/>
<text text-anchor="middle" x="31" y="-113.5" font-family="Arial" font-size="10.00">udpMsg_s</text>
</a>
</g>
</g>
<!-- Node2&#45;&gt;Node1 -->
<g id="edge1" class="edge"><title>Node2&#45;&gt;Node1</title>
<path fill="none" stroke="#9a32cd" stroke-dasharray="5,2" d="M42.6498,-97.8446C54.5049,-81.2186 74.0692,-55.9498 95,-38 103.438,-30.7642 114.053,-24.293 122.854,-19.501"/>
<polygon fill="#9a32cd" stroke="#9a32cd" points="39.7482,-95.8866 36.8971,-106.091 45.4892,-99.8918 39.7482,-95.8866"/>
<text text-anchor="middle" x="120" y="-74" font-family="Arial" font-size="10.00"> sendFirst</text>
<text text-anchor="middle" x="120" y="-63" font-family="Arial" font-size="10.00">recieveLast</text>
<text text-anchor="middle" x="120" y="-52" font-family="Arial" font-size="10.00">recieveFirst</text>
<text text-anchor="middle" x="120" y="-41" font-family="Arial" font-size="10.00">sendLast</text>
</g>
<!-- Node2&#45;&gt;Node2 -->
<g id="edge3" class="edge"><title>Node2&#45;&gt;Node2</title>
<path fill="none" stroke="#9a32cd" stroke-dasharray="5,2" d="M72.1528,-122.39C76.9088,-121.206 80,-119.076 80,-116 80,-111.078 72.0865,-108.579 62.102,-108.502"/>
<polygon fill="#9a32cd" stroke="#9a32cd" points="71.658,-118.923 62.102,-123.498 72.4254,-125.881 71.658,-118.923"/>
<text text-anchor="middle" x="91" y="-113.5" font-family="Arial" font-size="10.00"> next</text>
</g>
<!-- Node3 -->
<g id="node3" class="node"><title>Node3</title>
<g id="a_node3"><a xlink:href="structnetadr__t.html" target="_top" xlink:title="netadr_t">
<polygon fill="white" stroke="black" points="5,-180.5 5,-199.5 57,-199.5 57,-180.5 5,-180.5"/>
<text text-anchor="middle" x="31" y="-187.5" font-family="Arial" font-size="10.00">netadr_t</text>
</a>
</g>
</g>
<!-- Node3&#45;&gt;Node2 -->
<g id="edge2" class="edge"><title>Node3&#45;&gt;Node2</title>
<path fill="none" stroke="#9a32cd" stroke-dasharray="5,2" d="M31,-170.156C31,-155.712 31,-136.459 31,-125.531"/>
<polygon fill="#9a32cd" stroke="#9a32cd" points="27.5001,-170.458 31,-180.458 34.5001,-170.458 27.5001,-170.458"/>
<text text-anchor="middle" x="50" y="-153.5" font-family="Arial" font-size="10.00"> address</text>
</g>
<!-- Node4 -->
<g id="node4" class="node"><title>Node4</title>
<g id="a_node4"><a xlink:href="classid_block_alloc.html" target="_top" xlink:title="idBlockAlloc\&lt; udpMsg\l_s, 64 \&gt;">
<polygon fill="white" stroke="black" points="120,-101 120,-131 234,-131 234,-101 120,-101"/>
<text text-anchor="start" x="128" y="-119" font-family="Arial" font-size="10.00">idBlockAlloc&lt; udpMsg</text>
<text text-anchor="middle" x="177" y="-108" font-family="Arial" font-size="10.00">_s, 64 &gt;</text>
</a>
</g>
</g>
<!-- Node4&#45;&gt;Node1 -->
<g id="edge4" class="edge"><title>Node4&#45;&gt;Node1</title>
<path fill="none" stroke="#9a32cd" stroke-dasharray="5,2" d="M168.579,-91.331C160.464,-68.5194 148.623,-35.2374 143.079,-19.6533"/>
<polygon fill="#9a32cd" stroke="#9a32cd" points="165.361,-92.7258 172.01,-100.974 171.956,-90.3794 165.361,-92.7258"/>
<text text-anchor="middle" x="203" y="-57.5" font-family="Arial" font-size="10.00"> udpMsgAllocator</text>
</g>
</g>
</svg>
