<?xml version="1.0" encoding="UTF-8" standalone="no"?>
<!DOCTYPE svg PUBLIC "-//W3C//DTD SVG 1.1//EN"
 "http://www.w3.org/Graphics/SVG/1.1/DTD/svg11.dtd">
<!-- Generated by graphviz version 2.34.0 (20130907.0111)
 -->
<!-- Title: idODE Pages: 1 -->
<svg width="397pt" height="84pt"
 viewBox="0.00 0.00 397.00 84.00" xmlns="http://www.w3.org/2000/svg" xmlns:xlink="http://www.w3.org/1999/xlink">
<g id="graph0" class="graph" transform="scale(1 1) rotate(0) translate(4 80)">
<title>idODE</title>
<polygon fill="white" stroke="white" points="-4,4 -4,-80 393,-80 393,4 -4,4"/>
<!-- Node1 -->
<g id="node1" class="node"><title>Node1</title>
<polygon fill="#bfbfbf" stroke="black" points="159.5,-56.5 159.5,-75.5 204.5,-75.5 204.5,-56.5 159.5,-56.5"/>
<text text-anchor="middle" x="182" y="-63.5" font-family="Arial" font-size="10.00">idODE</text>
</g>
<!-- Node2 -->
<g id="node2" class="node"><title>Node2</title>
<g id="a_node2"><a xlink:href="classid_o_d_e___euler.html" target="_top" xlink:title="idODE_Euler">
<polygon fill="white" stroke="black" points="-0.5,-0.5 -0.5,-19.5 72.5,-19.5 72.5,-0.5 -0.5,-0.5"/>
<text text-anchor="middle" x="36" y="-7.5" font-family="Arial" font-size="10.00">idODE_Euler</text>
</a>
</g>
</g>
<!-- Node1&#45;&gt;Node2 -->
<g id="edge1" class="edge"><title>Node1&#45;&gt;Node2</title>
<path fill="none" stroke="midnightblue" d="M149.638,-53.0303C122.208,-42.8853 83.5457,-28.5854 59.1341,-19.5565"/>
<polygon fill="midnightblue" stroke="midnightblue" points="148.594,-56.3761 159.188,-56.5625 151.023,-49.8108 148.594,-56.3761"/>
</g>
<!-- Node3 -->
<g id="node3" class="node"><title>Node3</title>
<g id="a_node3"><a xlink:href="classid_o_d_e___midpoint.html" target="_top" xlink:title="idODE_Midpoint">
<polygon fill="white" stroke="black" points="90.5,-0.5 90.5,-19.5 177.5,-19.5 177.5,-0.5 90.5,-0.5"/>
<text text-anchor="middle" x="134" y="-7.5" font-family="Arial" font-size="10.00">idODE_Midpoint</text>
</a>
</g>
</g>
<!-- Node1&#45;&gt;Node3 -->
<g id="edge2" class="edge"><title>Node1&#45;&gt;Node3</title>
<path fill="none" stroke="midnightblue" d="M167.272,-48.4314C158.86,-38.9673 148.651,-27.4827 141.779,-19.7511"/>
<polygon fill="midnightblue" stroke="midnightblue" points="164.814,-50.9342 174.074,-56.083 170.046,-46.2836 164.814,-50.9342"/>
</g>
<!-- Node4 -->
<g id="node4" class="node"><title>Node4</title>
<g id="a_node4"><a xlink:href="classid_o_d_e___r_k4.html" target="_top" xlink:title="idODE_RK4">
<polygon fill="white" stroke="black" points="195.5,-0.5 195.5,-19.5 264.5,-19.5 264.5,-0.5 195.5,-0.5"/>
<text text-anchor="middle" x="230" y="-7.5" font-family="Arial" font-size="10.00">idODE_RK4</text>
</a>
</g>
</g>
<!-- Node1&#45;&gt;Node4 -->
<g id="edge3" class="edge"><title>Node1&#45;&gt;Node4</title>
<path fill="none" stroke="midnightblue" d="M196.728,-48.4314C205.14,-38.9673 215.349,-27.4827 222.221,-19.7511"/>
<polygon fill="midnightblue" stroke="midnightblue" points="193.954,-46.2836 189.926,-56.083 199.186,-50.9342 193.954,-46.2836"/>
</g>
<!-- Node5 -->
<g id="node5" class="node"><title>Node5</title>
<g id="a_node5"><a xlink:href="classid_o_d_e___r_k4_adaptive.html" target="_top" xlink:title="idODE_RK4Adaptive">
<polygon fill="white" stroke="black" points="283,-0.5 283,-19.5 389,-19.5 389,-0.5 283,-0.5"/>
<text text-anchor="middle" x="336" y="-7.5" font-family="Arial" font-size="10.00">idODE_RK4Adaptive</text>
</a>
</g>
</g>
<!-- Node1&#45;&gt;Node5 -->
<g id="edge4" class="edge"><title>Node1&#45;&gt;Node5</title>
<path fill="none" stroke="midnightblue" d="M214.409,-53.6358C243.447,-43.4536 285.395,-28.7447 311.657,-19.536"/>
<polygon fill="midnightblue" stroke="midnightblue" points="213.002,-50.4202 204.723,-57.0321 215.318,-57.0259 213.002,-50.4202"/>
</g>
</g>
</svg>
