<?xml version="1.0" encoding="UTF-8" standalone="no"?>
<!DOCTYPE svg PUBLIC "-//W3C//DTD SVG 1.1//EN"
 "http://www.w3.org/Graphics/SVG/1.1/DTD/svg11.dtd">
<!-- Generated by graphviz version 2.34.0 (20130907.0111)
 -->
<!-- Title: idFixedPosition Pages: 1 -->
<svg width="286pt" height="232pt"
 viewBox="0.00 0.00 286.00 232.00" xmlns="http://www.w3.org/2000/svg" xmlns:xlink="http://www.w3.org/1999/xlink">
<g id="graph0" class="graph" transform="scale(1 1) rotate(0) translate(4 228)">
<title>idFixedPosition</title>
<polygon fill="white" stroke="white" points="-4,4 -4,-228 282,-228 282,4 -4,4"/>
<!-- Node1 -->
<g id="node1" class="node"><title>Node1</title>
<polygon fill="#bfbfbf" stroke="black" points="159.5,-0.5 159.5,-19.5 242.5,-19.5 242.5,-0.5 159.5,-0.5"/>
<text text-anchor="middle" x="201" y="-7.5" font-family="Arial" font-size="10.00">idFixedPosition</text>
</g>
<!-- Node2 -->
<g id="node2" class="node"><title>Node2</title>
<g id="a_node2"><a xlink:href="classid_camera_position.html" target="_top" xlink:title="idCameraPosition">
<polygon fill="white" stroke="black" points="88.5,-68.5 88.5,-87.5 181.5,-87.5 181.5,-68.5 88.5,-68.5"/>
<text text-anchor="middle" x="135" y="-75.5" font-family="Arial" font-size="10.00">idCameraPosition</text>
</a>
</g>
</g>
<!-- Node2&#45;&gt;Node1 -->
<g id="edge1" class="edge"><title>Node2&#45;&gt;Node1</title>
<path fill="none" stroke="midnightblue" d="M150.953,-61.0474C163.889,-48.1111 181.643,-30.3567 192.159,-19.8411"/>
<polygon fill="midnightblue" stroke="midnightblue" points="148.225,-58.8257 143.628,-68.3717 153.174,-63.7754 148.225,-58.8257"/>
</g>
<!-- Node3 -->
<g id="node3" class="node"><title>Node3</title>
<g id="a_node3"><a xlink:href="classid_point_list_interface.html" target="_top" xlink:title="idPointListInterface">
<polygon fill="white" stroke="black" points="-0.5,-136.5 -0.5,-155.5 98.5,-155.5 98.5,-136.5 -0.5,-136.5"/>
<text text-anchor="middle" x="49" y="-143.5" font-family="Arial" font-size="10.00">idPointListInterface</text>
</a>
</g>
</g>
<!-- Node3&#45;&gt;Node2 -->
<g id="edge2" class="edge"><title>Node3&#45;&gt;Node2</title>
<path fill="none" stroke="midnightblue" d="M68.4202,-130.096C85.4833,-117.001 109.718,-98.4028 123.754,-87.6305"/>
<polygon fill="midnightblue" stroke="midnightblue" points="66.0452,-127.507 60.243,-136.372 70.307,-133.06 66.0452,-127.507"/>
</g>
<!-- Node4 -->
<g id="node4" class="node"><title>Node4</title>
<g id="a_node4"><a xlink:href="classid_list.html" target="_top" xlink:title="idList\&lt; int \&gt;">
<polygon fill="white" stroke="black" points="15,-204.5 15,-223.5 83,-223.5 83,-204.5 15,-204.5"/>
<text text-anchor="middle" x="49" y="-211.5" font-family="Arial" font-size="10.00">idList&lt; int &gt;</text>
</a>
</g>
</g>
<!-- Node4&#45;&gt;Node3 -->
<g id="edge3" class="edge"><title>Node4&#45;&gt;Node3</title>
<path fill="none" stroke="#9a32cd" stroke-dasharray="5,2" d="M49,-194.041C49,-181.472 49,-165.563 49,-155.841"/>
<polygon fill="#9a32cd" stroke="#9a32cd" points="45.5001,-194.372 49,-204.372 52.5001,-194.372 45.5001,-194.372"/>
<text text-anchor="middle" x="83" y="-177.5" font-family="Arial" font-size="10.00"> selectedPoints</text>
</g>
<!-- Node5 -->
<g id="node5" class="node"><title>Node5</title>
<g id="a_node5"><a xlink:href="classid_str.html" target="_top" xlink:title="idStr">
<polygon fill="white" stroke="black" points="116.5,-136.5 116.5,-155.5 153.5,-155.5 153.5,-136.5 116.5,-136.5"/>
<text text-anchor="middle" x="135" y="-143.5" font-family="Arial" font-size="10.00">idStr</text>
</a>
</g>
</g>
<!-- Node5&#45;&gt;Node2 -->
<g id="edge4" class="edge"><title>Node5&#45;&gt;Node2</title>
<path fill="none" stroke="#9a32cd" stroke-dasharray="5,2" d="M135,-126.041C135,-113.472 135,-97.5631 135,-87.8411"/>
<polygon fill="#9a32cd" stroke="#9a32cd" points="131.5,-126.372 135,-136.372 138.5,-126.372 131.5,-126.372"/>
<text text-anchor="middle" x="149" y="-109.5" font-family="Arial" font-size="10.00"> name</text>
</g>
<!-- Node6 -->
<g id="node6" class="node"><title>Node6</title>
<g id="a_node6"><a xlink:href="classid_list.html" target="_top" xlink:title="idList\&lt; idVelocity * \&gt;">
<polygon fill="white" stroke="black" points="171.5,-136.5 171.5,-155.5 278.5,-155.5 278.5,-136.5 171.5,-136.5"/>
<text text-anchor="middle" x="225" y="-143.5" font-family="Arial" font-size="10.00">idList&lt; idVelocity * &gt;</text>
</a>
</g>
</g>
<!-- Node6&#45;&gt;Node2 -->
<g id="edge5" class="edge"><title>Node6&#45;&gt;Node2</title>
<path fill="none" stroke="#9a32cd" stroke-dasharray="5,2" d="M205.166,-130.455C187.286,-117.343 161.593,-98.5016 146.769,-87.6305"/>
<polygon fill="#9a32cd" stroke="#9a32cd" points="203.1,-133.28 213.234,-136.372 207.24,-127.636 203.1,-133.28"/>
<text text-anchor="middle" x="210.5" y="-109.5" font-family="Arial" font-size="10.00"> velocities</text>
</g>
<!-- Node7 -->
<g id="node7" class="node"><title>Node7</title>
<g id="a_node7"><a xlink:href="classid_vec3.html" target="_top" xlink:title="idVec3">
<polygon fill="white" stroke="black" points="199.5,-68.5 199.5,-87.5 246.5,-87.5 246.5,-68.5 199.5,-68.5"/>
<text text-anchor="middle" x="223" y="-75.5" font-family="Arial" font-size="10.00">idVec3</text>
</a>
</g>
</g>
<!-- Node7&#45;&gt;Node1 -->
<g id="edge6" class="edge"><title>Node7&#45;&gt;Node1</title>
<path fill="none" stroke="#9a32cd" stroke-dasharray="5,2" d="M216.936,-58.8066C212.708,-46.1244 207.254,-29.7615 203.947,-19.8411"/>
<polygon fill="#9a32cd" stroke="#9a32cd" points="213.641,-59.9916 220.124,-68.3717 220.282,-57.778 213.641,-59.9916"/>
<text text-anchor="middle" x="222.5" y="-41.5" font-family="Arial" font-size="10.00"> pos</text>
</g>
</g>
</svg>
