<?xml version="1.0" encoding="UTF-8" standalone="no"?>
<!DOCTYPE svg PUBLIC "-//W3C//DTD SVG 1.1//EN"
 "http://www.w3.org/Graphics/SVG/1.1/DTD/svg11.dtd">
<!-- Generated by graphviz version 2.34.0 (20130907.0111)
 -->
<!-- Title: CInspectorDialog Pages: 1 -->
<!--zoomable 566 -->
<svg id="main" version="1.1" xmlns="http://www.w3.org/2000/svg" xmlns:xlink="http://www.w3.org/1999/xlink" xml:space="preserve" onload="init(evt)">
<style type="text/css"><![CDATA[
.edge:hover path { stroke: red; }
.edge:hover polygon { stroke: red; fill: red; }
]]></style>
<script type="text/javascript"><![CDATA[
var edges = document.getElementsByTagName('g');
if (edges && edges.length) {
  for (var i=0;i<edges.length;i++) {
    if (edges[i].id.substr(0,4)=='edge') {
      edges[i].setAttribute('class','edge');
    }
  }
}
]]></script>
        <defs>
                <circle id="rim" cx="0" cy="0" r="7"/>
                <circle id="rim2" cx="0" cy="0" r="3.5"/>
                <g id="zoomPlus">
                        <use xlink:href="#rim" fill="#404040">
                                <set attributeName="fill" to="#808080" begin="zoomplus.mouseover" end="zoomplus.mouseout"/>
                        </use>
                        <path d="M-4,0h8M0,-4v8" fill="none" stroke="white" stroke-width="1.5" pointer-events="none"/>
                </g>
                <g id="zoomMin">
                        <use xlink:href="#rim" fill="#404040">
                                <set attributeName="fill" to="#808080" begin="zoomminus.mouseover" end="zoomminus.mouseout"/>
                        </use>
                        <path d="M-4,0h8" fill="none" stroke="white" stroke-width="1.5" pointer-events="none"/>
                </g>
                <g id="dirArrow">
                        <path fill="none" stroke="white" stroke-width="1.5" d="M0,-3.0v7 M-2.5,-0.5L0,-3.0L2.5,-0.5"/>
                </g>
               <g id="resetDef">
                       <use xlink:href="#rim2" fill="#404040">
                               <set attributeName="fill" to="#808080" begin="reset.mouseover" end="reset.mouseout"/>
                       </use>
               </g>
        </defs>

<script type="text/javascript">
var viewWidth = 1042;
var viewHeight = 566;
var sectionId = 'dynsection-1';
</script>
<script xlink:href="svgpan.js"/>
<svg id="graph" class="graph">
<g id="viewport">
<title>CInspectorDialog</title>
<polygon fill="white" stroke="white" points="-4,4 -4,-562 1038,-562 1038,4 -4,4"/>
<!-- Node1 -->
<g id="node1" class="node"><title>Node1</title>
<polygon fill="#bfbfbf" stroke="black" points="944,-444.5 944,-463.5 1034,-463.5 1034,-444.5 944,-444.5"/>
<text text-anchor="middle" x="989" y="-451.5" font-family="Arial" font-size="10.00">CInspectorDialog</text>
</g>
<!-- Node2 -->
<g id="node2" class="node"><title>Node2</title>
<g id="a_node2"><a xlink:href="class_c_tabs_dlg.html" target="_top" xlink:title="CTabsDlg">
<polygon fill="white" stroke="black" points="776.5,-538.5 776.5,-557.5 835.5,-557.5 835.5,-538.5 776.5,-538.5"/>
<text text-anchor="middle" x="806" y="-545.5" font-family="Arial" font-size="10.00">CTabsDlg</text>
</a>
</g>
</g>
<!-- Node2&#45;&gt;Node1 -->
<g id="edge1" class="edge"><title>Node2&#45;&gt;Node1</title>
<path fill="none" stroke="midnightblue" d="M845.657,-535.743C869.547,-527.444 900.421,-515.389 926,-501 945.307,-490.14 965.322,-473.905 977.214,-463.64"/>
<polygon fill="midnightblue" stroke="midnightblue" points="844.224,-532.533 835.882,-539.065 846.476,-539.161 844.224,-532.533"/>
</g>
<!-- Node3 -->
<g id="node3" class="node"><title>Node3</title>
<polygon fill="white" stroke="#bfbfbf" points="573,-511.5 573,-530.5 623,-530.5 623,-511.5 573,-511.5"/>
<text text-anchor="middle" x="598" y="-518.5" font-family="Arial" font-size="10.00">CDialog</text>
</g>
<!-- Node3&#45;&gt;Node2 -->
<g id="edge2" class="edge"><title>Node3&#45;&gt;Node2</title>
<path fill="none" stroke="midnightblue" d="M633.526,-525.795C645.684,-527.466 659.446,-529.338 672,-531 708,-535.766 749.513,-541.036 776.452,-544.426"/>
<polygon fill="midnightblue" stroke="midnightblue" points="633.71,-522.287 623.326,-524.388 632.754,-529.221 633.71,-522.287"/>
</g>
<!-- Node4 -->
<g id="node4" class="node"><title>Node4</title>
<g id="a_node4"><a xlink:href="class_c_dialog_textures.html" target="_top" xlink:title="CDialogTextures">
<polygon fill="white" stroke="black" points="762,-275.5 762,-294.5 850,-294.5 850,-275.5 762,-275.5"/>
<text text-anchor="middle" x="806" y="-282.5" font-family="Arial" font-size="10.00">CDialogTextures</text>
</a>
</g>
</g>
<!-- Node3&#45;&gt;Node4 -->
<g id="edge4" class="edge"><title>Node3&#45;&gt;Node4</title>
<path fill="none" stroke="midnightblue" d="M630.867,-507.265C668.439,-490.541 727.83,-462.271 744,-444 784.757,-397.948 799.553,-321.766 803.669,-294.816"/>
<polygon fill="midnightblue" stroke="midnightblue" points="629.101,-504.219 621.364,-511.457 631.926,-510.624 629.101,-504.219"/>
</g>
<!-- Node20 -->
<g id="node20" class="node"><title>Node20</title>
<g id="a_node20"><a xlink:href="class_c_entity_dlg.html" target="_top" xlink:title="CEntityDlg">
<polygon fill="white" stroke="black" points="774.5,-494.5 774.5,-513.5 837.5,-513.5 837.5,-494.5 774.5,-494.5"/>
<text text-anchor="middle" x="806" y="-501.5" font-family="Arial" font-size="10.00">CEntityDlg</text>
</a>
</g>
</g>
<!-- Node3&#45;&gt;Node20 -->
<g id="edge26" class="edge"><title>Node3&#45;&gt;Node20</title>
<path fill="none" stroke="midnightblue" d="M633.368,-520.902C662.812,-520.501 706.306,-519.159 744,-515 753.947,-513.903 764.718,-512.151 774.4,-510.365"/>
<polygon fill="midnightblue" stroke="midnightblue" points="633.155,-517.404 623.193,-521.01 633.23,-524.403 633.155,-517.404"/>
</g>
<!-- Node21 -->
<g id="node21" class="node"><title>Node21</title>
<g id="a_node21"><a xlink:href="class_c_console_dlg.html" target="_top" xlink:title="CConsoleDlg">
<polygon fill="white" stroke="black" points="769.5,-444.5 769.5,-463.5 842.5,-463.5 842.5,-444.5 769.5,-444.5"/>
<text text-anchor="middle" x="806" y="-451.5" font-family="Arial" font-size="10.00">CConsoleDlg</text>
</a>
</g>
</g>
<!-- Node3&#45;&gt;Node21 -->
<g id="edge28" class="edge"><title>Node3&#45;&gt;Node21</title>
<path fill="none" stroke="midnightblue" d="M632.994,-516.893C662.961,-512.537 707.422,-504.267 744,-490 761.414,-483.208 779.654,-471.79 791.599,-463.634"/>
<polygon fill="midnightblue" stroke="midnightblue" points="632.46,-513.433 623.035,-518.273 633.421,-520.367 632.46,-513.433"/>
</g>
<!-- Node4&#45;&gt;Node1 -->
<g id="edge3" class="edge"><title>Node4&#45;&gt;Node1</title>
<path fill="none" stroke="#9a32cd" stroke-dasharray="5,2" d="M824.852,-301.668C862.182,-336.524 947.51,-416.194 977.412,-444.114"/>
<polygon fill="#9a32cd" stroke="#9a32cd" points="826.948,-298.837 817.25,-294.57 822.171,-303.953 826.948,-298.837"/>
<text text-anchor="middle" x="897" y="-398" font-family="Arial" font-size="10.00"> mediaDlg</text>
</g>
<!-- Node5 -->
<g id="node5" class="node"><title>Node5</title>
<g id="a_node5"><a xlink:href="classid_g_l_drawable_model.html" target="_top" xlink:title="idGLDrawableModel">
<polygon fill="white" stroke="black" points="546.5,-252.5 546.5,-271.5 649.5,-271.5 649.5,-252.5 546.5,-252.5"/>
<text text-anchor="middle" x="598" y="-259.5" font-family="Arial" font-size="10.00">idGLDrawableModel</text>
</a>
</g>
</g>
<!-- Node5&#45;&gt;Node4 -->
<g id="edge5" class="edge"><title>Node5&#45;&gt;Node4</title>
<path fill="none" stroke="#9a32cd" stroke-dasharray="5,2" d="M659.601,-268.766C692.425,-272.431 732.208,-276.873 761.857,-280.183"/>
<polygon fill="#9a32cd" stroke="#9a32cd" points="659.984,-265.287 649.657,-267.656 659.207,-272.244 659.984,-265.287"/>
<text text-anchor="middle" x="708" y="-281" font-family="Arial" font-size="10.00"> m_drawModel</text>
</g>
<!-- Node6 -->
<g id="node6" class="node"><title>Node6</title>
<g id="a_node6"><a xlink:href="classid_g_l_drawable_world.html" target="_top" xlink:title="idGLDrawableWorld">
<polygon fill="white" stroke="black" points="314,-175.5 314,-194.5 416,-194.5 416,-175.5 314,-175.5"/>
<text text-anchor="middle" x="365" y="-182.5" font-family="Arial" font-size="10.00">idGLDrawableWorld</text>
</a>
</g>
</g>
<!-- Node6&#45;&gt;Node5 -->
<g id="edge6" class="edge"><title>Node6&#45;&gt;Node5</title>
<path fill="none" stroke="midnightblue" d="M411.674,-197.27C443.44,-206.124 486.624,-218.799 524,-232 541.571,-238.206 561.075,-246.285 575.5,-252.495"/>
<polygon fill="midnightblue" stroke="midnightblue" points="412.355,-193.827 401.784,-194.534 410.489,-200.574 412.355,-193.827"/>
</g>
<!-- Node19 -->
<g id="node19" class="node"><title>Node19</title>
<g id="a_node19"><a xlink:href="classid_g_l_drawable_material.html" target="_top" xlink:title="idGLDrawableMaterial">
<polygon fill="white" stroke="black" points="542.5,-166.5 542.5,-185.5 653.5,-185.5 653.5,-166.5 542.5,-166.5"/>
<text text-anchor="middle" x="598" y="-173.5" font-family="Arial" font-size="10.00">idGLDrawableMaterial</text>
</a>
</g>
</g>
<!-- Node6&#45;&gt;Node19 -->
<g id="edge23" class="edge"><title>Node6&#45;&gt;Node19</title>
<path fill="none" stroke="midnightblue" d="M426.445,-182.645C462.272,-181.249 507.325,-179.494 542.128,-178.138"/>
<polygon fill="midnightblue" stroke="midnightblue" points="425.98,-179.16 416.124,-183.047 426.252,-186.155 425.98,-179.16"/>
</g>
<!-- Node7 -->
<g id="node7" class="node"><title>Node7</title>
<g id="a_node7"><a xlink:href="classid_g_l_drawable.html" target="_top" xlink:title="idGLDrawable">
<polygon fill="white" stroke="black" points="130.5,-175.5 130.5,-194.5 207.5,-194.5 207.5,-175.5 130.5,-175.5"/>
<text text-anchor="middle" x="169" y="-182.5" font-family="Arial" font-size="10.00">idGLDrawable</text>
</a>
</g>
</g>
<!-- Node7&#45;&gt;Node4 -->
<g id="edge18" class="edge"><title>Node7&#45;&gt;Node4</title>
<path fill="none" stroke="#9a32cd" stroke-dasharray="5,2" d="M176.058,-204.229C189.982,-244.712 228.527,-338.035 298,-375 330.159,-392.111 602.855,-379.959 654,-366 709.389,-350.883 767.087,-312.521 792.13,-294.556"/>
<polygon fill="#9a32cd" stroke="#9a32cd" points="179.307,-202.906 172.844,-194.511 172.661,-205.104 179.307,-202.906"/>
<text text-anchor="middle" x="487" y="-386" font-family="Arial" font-size="10.00"> m_testDrawable</text>
</g>
<!-- Node7&#45;&gt;Node6 -->
<g id="edge7" class="edge"><title>Node7&#45;&gt;Node6</title>
<path fill="none" stroke="midnightblue" d="M218.195,-185C247.282,-185 284.287,-185 313.739,-185"/>
<polygon fill="midnightblue" stroke="midnightblue" points="217.866,-181.5 207.866,-185 217.866,-188.5 217.866,-181.5"/>
</g>
<!-- Node14 -->
<g id="node14" class="node"><title>Node14</title>
<g id="a_node14"><a xlink:href="classid_g_l_widget.html" target="_top" xlink:title="idGLWidget">
<polygon fill="white" stroke="black" points="564,-128.5 564,-147.5 632,-147.5 632,-128.5 564,-128.5"/>
<text text-anchor="middle" x="598" y="-135.5" font-family="Arial" font-size="10.00">idGLWidget</text>
</a>
</g>
</g>
<!-- Node7&#45;&gt;Node14 -->
<g id="edge17" class="edge"><title>Node7&#45;&gt;Node14</title>
<path fill="none" stroke="#9a32cd" stroke-dasharray="5,2" d="M213.151,-172.916C237.803,-166.51 269.41,-159.131 298,-155 393.714,-141.169 508.184,-138.462 563.628,-138.016"/>
<polygon fill="#9a32cd" stroke="#9a32cd" points="212.157,-169.558 203.384,-175.497 213.946,-176.326 212.157,-169.558"/>
<text text-anchor="middle" x="365" y="-158" font-family="Arial" font-size="10.00"> drawable</text>
</g>
<!-- Node8 -->
<g id="node8" class="node"><title>Node8</title>
<g id="a_node8"><a xlink:href="classid_render_world.html" target="_top" xlink:title="idRenderWorld">
<polygon fill="white" stroke="black" points="129,-109.5 129,-128.5 209,-128.5 209,-109.5 129,-109.5"/>
<text text-anchor="middle" x="169" y="-116.5" font-family="Arial" font-size="10.00">idRenderWorld</text>
</a>
</g>
</g>
<!-- Node8&#45;&gt;Node6 -->
<g id="edge8" class="edge"><title>Node8&#45;&gt;Node6</title>
<path fill="none" stroke="#9a32cd" stroke-dasharray="5,2" d="M207.808,-131.863C245.448,-144.668 302.339,-164.023 336.071,-175.499"/>
<polygon fill="#9a32cd" stroke="#9a32cd" points="208.804,-128.504 198.209,-128.597 206.549,-135.131 208.804,-128.504"/>
<text text-anchor="middle" x="254" y="-159" font-family="Arial" font-size="10.00"> world</text>
</g>
<!-- Node9 -->
<g id="node9" class="node"><title>Node9</title>
<g id="a_node9"><a xlink:href="classid_render_model.html" target="_top" xlink:title="idRenderModel">
<polygon fill="white" stroke="black" points="128.5,-437.5 128.5,-456.5 209.5,-456.5 209.5,-437.5 128.5,-437.5"/>
<text text-anchor="middle" x="169" y="-444.5" font-family="Arial" font-size="10.00">idRenderModel</text>
</a>
</g>
</g>
<!-- Node9&#45;&gt;Node6 -->
<g id="edge9" class="edge"><title>Node9&#45;&gt;Node6</title>
<path fill="none" stroke="#9a32cd" stroke-dasharray="5,2" d="M174.735,-427.607C186.931,-381.796 223.792,-266.154 298,-205 303.267,-200.66 309.46,-197.261 315.906,-194.599"/>
<polygon fill="#9a32cd" stroke="#9a32cd" points="171.307,-426.888 172.215,-437.444 178.087,-428.626 171.307,-426.888"/>
<text text-anchor="middle" x="254" y="-295" font-family="Arial" font-size="10.00"> worldModel</text>
</g>
<!-- Node10 -->
<g id="node10" class="node"><title>Node10</title>
<g id="a_node10"><a xlink:href="classid_str.html" target="_top" xlink:title="idStr">
<polygon fill="white" stroke="black" points="346.5,-346.5 346.5,-365.5 383.5,-365.5 383.5,-346.5 346.5,-346.5"/>
<text text-anchor="middle" x="365" y="-353.5" font-family="Arial" font-size="10.00">idStr</text>
</a>
</g>
</g>
<!-- Node10&#45;&gt;Node4 -->
<g id="edge14" class="edge"><title>Node10&#45;&gt;Node4</title>
<path fill="none" stroke="#9a32cd" stroke-dasharray="5,2" d="M393.97,-359.457C426.905,-362.235 482.387,-362.782 524,-342 534.699,-336.657 531.442,-327.616 542,-322 546.821,-319.435 688.615,-300.394 761.956,-290.674"/>
<polygon fill="#9a32cd" stroke="#9a32cd" points="394.01,-355.945 383.718,-358.458 393.331,-362.912 394.01,-355.945"/>
<text text-anchor="middle" x="598" y="-358" font-family="Arial" font-size="10.00"> mediaName</text>
<text text-anchor="middle" x="598" y="-347" font-family="Arial" font-size="10.00">editGui</text>
<text text-anchor="middle" x="598" y="-336" font-family="Arial" font-size="10.00">currentFile</text>
<text text-anchor="middle" x="598" y="-325" font-family="Arial" font-size="10.00">itemName</text>
</g>
<!-- Node10&#45;&gt;Node5 -->
<g id="edge10" class="edge"><title>Node10&#45;&gt;Node5</title>
<path fill="none" stroke="#9a32cd" stroke-dasharray="5,2" d="M393.246,-347.815C432.087,-335.927 501.2,-313.899 524,-301 533.064,-295.872 533.139,-291.471 542,-286 551.042,-280.418 561.61,-275.474 571.053,-271.546"/>
<polygon fill="#9a32cd" stroke="#9a32cd" points="392.161,-344.486 383.613,-350.745 394.199,-351.183 392.161,-344.486"/>
<text text-anchor="middle" x="487" y="-333" font-family="Arial" font-size="10.00"> skinStr</text>
</g>
<!-- Node10&#45;&gt;Node21 -->
<g id="edge30" class="edge"><title>Node10&#45;&gt;Node21</title>
<path fill="none" stroke="#9a32cd" stroke-dasharray="5,2" d="M393.776,-359.828C433.664,-365.819 504.518,-378.458 524,-395 539.481,-408.145 525.415,-425.279 542,-437 610.192,-485.193 714.817,-473.313 769.274,-462.519"/>
<polygon fill="#9a32cd" stroke="#9a32cd" points="394.05,-356.331 383.649,-358.35 393.039,-363.258 394.05,-356.331"/>
<text text-anchor="middle" x="598" y="-486" font-family="Arial" font-size="10.00"> consoleStr</text>
<text text-anchor="middle" x="598" y="-475" font-family="Arial" font-size="10.00">currentCommand</text>
</g>
<!-- Node11 -->
<g id="node11" class="node"><title>Node11</title>
<g id="a_node11"><a xlink:href="classid_vec3.html" target="_top" xlink:title="idVec3">
<polygon fill="white" stroke="black" points="341.5,-290.5 341.5,-309.5 388.5,-309.5 388.5,-290.5 341.5,-290.5"/>
<text text-anchor="middle" x="365" y="-297.5" font-family="Arial" font-size="10.00">idVec3</text>
</a>
</g>
</g>
<!-- Node11&#45;&gt;Node5 -->
<g id="edge11" class="edge"><title>Node11&#45;&gt;Node5</title>
<path fill="none" stroke="#9a32cd" stroke-dasharray="5,2" d="M398.696,-294.621C437.16,-288.294 501.457,-277.717 546.377,-270.328"/>
<polygon fill="#9a32cd" stroke="#9a32cd" points="397.869,-291.21 388.57,-296.287 399.005,-298.118 397.869,-291.21"/>
<text text-anchor="middle" x="487" y="-289" font-family="Arial" font-size="10.00"> lastPress</text>
</g>
<!-- Node12 -->
<g id="node12" class="node"><title>Node12</title>
<g id="a_node12"><a xlink:href="classid_vec4.html" target="_top" xlink:title="idVec4">
<polygon fill="white" stroke="black" points="341.5,-252.5 341.5,-271.5 388.5,-271.5 388.5,-252.5 341.5,-252.5"/>
<text text-anchor="middle" x="365" y="-259.5" font-family="Arial" font-size="10.00">idVec4</text>
</a>
</g>
</g>
<!-- Node12&#45;&gt;Node5 -->
<g id="edge12" class="edge"><title>Node12&#45;&gt;Node5</title>
<path fill="none" stroke="#9a32cd" stroke-dasharray="5,2" d="M398.696,-262C437.16,-262 501.457,-262 546.377,-262"/>
<polygon fill="#9a32cd" stroke="#9a32cd" points="398.57,-258.5 388.57,-262 398.57,-265.5 398.57,-258.5"/>
<text text-anchor="middle" x="487" y="-265" font-family="Arial" font-size="10.00"> rect</text>
</g>
<!-- Node13 -->
<g id="node13" class="node"><title>Node13</title>
<g id="a_node13"><a xlink:href="classid_quat.html" target="_top" xlink:title="idQuat">
<polygon fill="white" stroke="black" points="342.5,-214.5 342.5,-233.5 387.5,-233.5 387.5,-214.5 342.5,-214.5"/>
<text text-anchor="middle" x="365" y="-221.5" font-family="Arial" font-size="10.00">idQuat</text>
</a>
</g>
</g>
<!-- Node13&#45;&gt;Node5 -->
<g id="edge13" class="edge"><title>Node13&#45;&gt;Node5</title>
<path fill="none" stroke="#9a32cd" stroke-dasharray="5,2" d="M397.609,-228.052C429.567,-232.277 480.337,-239.343 524,-247 533.303,-248.631 543.236,-250.552 552.684,-252.465"/>
<polygon fill="#9a32cd" stroke="#9a32cd" points="397.9,-224.56 387.53,-226.731 396.991,-231.5 397.9,-224.56"/>
<text text-anchor="middle" x="487" y="-250" font-family="Arial" font-size="10.00"> rotation</text>
</g>
<!-- Node14&#45;&gt;Node4 -->
<g id="edge15" class="edge"><title>Node14&#45;&gt;Node4</title>
<path fill="none" stroke="#9a32cd" stroke-dasharray="5,2" d="M641.778,-150.117C672.674,-160.446 714.06,-177.687 744,-203 769.473,-224.537 790.43,-258.664 799.767,-275.275"/>
<polygon fill="#9a32cd" stroke="#9a32cd" points="642.735,-146.748 632.144,-147.004 640.584,-153.409 642.735,-146.748"/>
<text text-anchor="middle" x="708" y="-206" font-family="Arial" font-size="10.00"> m_wndPreview</text>
</g>
<!-- Node15 -->
<g id="node15" class="node"><title>Node15</title>
<polygon fill="white" stroke="#bfbfbf" points="343,-38.5 343,-57.5 387,-57.5 387,-38.5 343,-38.5"/>
<text text-anchor="middle" x="365" y="-45.5" font-family="Arial" font-size="10.00">CWnd</text>
</g>
<!-- Node15&#45;&gt;Node14 -->
<g id="edge16" class="edge"><title>Node15&#45;&gt;Node14</title>
<path fill="none" stroke="midnightblue" d="M396.858,-56.6423C407.962,-59.8157 420.567,-63.4915 432,-67 473.115,-79.6175 484.616,-79.7196 524,-97 544.898,-106.169 567.62,-119.513 582.068,-128.461"/>
<polygon fill="midnightblue" stroke="midnightblue" points="397.735,-53.253 387.159,-53.8884 395.823,-59.9868 397.735,-53.253"/>
</g>
<!-- Node23 -->
<g id="node23" class="node"><title>Node23</title>
<g id="a_node23"><a xlink:href="class_c_new_tex_wnd.html" target="_top" xlink:title="CNewTexWnd">
<polygon fill="white" stroke="black" points="559,-26.5 559,-45.5 637,-45.5 637,-26.5 559,-26.5"/>
<text text-anchor="middle" x="598" y="-33.5" font-family="Arial" font-size="10.00">CNewTexWnd</text>
</a>
</g>
</g>
<!-- Node15&#45;&gt;Node23 -->
<g id="edge32" class="edge"><title>Node15&#45;&gt;Node23</title>
<path fill="none" stroke="midnightblue" d="M397.494,-46.364C439.414,-44.1863 513.492,-40.3381 558.628,-37.9933"/>
<polygon fill="midnightblue" stroke="midnightblue" points="397.123,-42.8784 387.318,-46.8926 397.486,-49.869 397.123,-42.8784"/>
</g>
<!-- Node16 -->
<g id="node16" class="node"><title>Node16</title>
<g id="a_node16"><a xlink:href="classid_material.html" target="_top" xlink:title="idMaterial">
<polygon fill="white" stroke="black" points="335.5,-76.5 335.5,-95.5 394.5,-95.5 394.5,-76.5 335.5,-76.5"/>
<text text-anchor="middle" x="365" y="-83.5" font-family="Arial" font-size="10.00">idMaterial</text>
</a>
</g>
</g>
<!-- Node16&#45;&gt;Node4 -->
<g id="edge19" class="edge"><title>Node16&#45;&gt;Node4</title>
<path fill="none" stroke="#9a32cd" stroke-dasharray="5,2" d="M404.749,-83.7834C460.96,-81.7151 567.821,-82.1263 654,-108 697.826,-121.158 712.618,-124.699 744,-158 777.886,-193.958 796.276,-252.243 802.526,-275.231"/>
<polygon fill="#9a32cd" stroke="#9a32cd" points="404.377,-80.2958 394.531,-84.2081 404.667,-87.2897 404.377,-80.2958"/>
<text text-anchor="middle" x="598" y="-111" font-family="Arial" font-size="10.00"> editMaterial</text>
</g>
<!-- Node16&#45;&gt;Node19 -->
<g id="edge24" class="edge"><title>Node16&#45;&gt;Node19</title>
<path fill="none" stroke="#9a32cd" stroke-dasharray="5,2" d="M397.905,-99.4395C433.019,-114.097 491.227,-138.003 542,-157 550.516,-160.186 559.841,-163.48 568.355,-166.413"/>
<polygon fill="#9a32cd" stroke="#9a32cd" points="399.214,-96.1935 388.638,-95.5622 396.512,-102.651 399.214,-96.1935"/>
<text text-anchor="middle" x="487" y="-153" font-family="Arial" font-size="10.00"> material</text>
</g>
<!-- Node17 -->
<g id="node17" class="node"><title>Node17</title>
<g id="a_node17"><a xlink:href="classid_decl.html" target="_top" xlink:title="idDecl">
<polygon fill="white" stroke="black" points="147,-71.5 147,-90.5 191,-90.5 191,-71.5 147,-71.5"/>
<text text-anchor="middle" x="169" y="-78.5" font-family="Arial" font-size="10.00">idDecl</text>
</a>
</g>
</g>
<!-- Node17&#45;&gt;Node16 -->
<g id="edge20" class="edge"><title>Node17&#45;&gt;Node16</title>
<path fill="none" stroke="midnightblue" d="M201.353,-81.8081C238.408,-82.7631 299.547,-84.3388 335.371,-85.2621"/>
<polygon fill="midnightblue" stroke="midnightblue" points="201.218,-78.3035 191.131,-81.5446 201.037,-85.3012 201.218,-78.3035"/>
</g>
<!-- Node18 -->
<g id="node18" class="node"><title>Node18</title>
<g id="a_node18"><a xlink:href="classid_decl_base.html" target="_top" xlink:title="idDeclBase">
<polygon fill="white" stroke="black" points="0,-71.5 0,-90.5 66,-90.5 66,-71.5 0,-71.5"/>
<text text-anchor="middle" x="33" y="-78.5" font-family="Arial" font-size="10.00">idDeclBase</text>
</a>
</g>
</g>
<!-- Node18&#45;&gt;Node17 -->
<g id="edge21" class="edge"><title>Node18&#45;&gt;Node17</title>
<path fill="none" stroke="#9a32cd" stroke-dasharray="5,2" d="M76.1386,-81C99.5598,-81 127.704,-81 146.616,-81"/>
<polygon fill="#9a32cd" stroke="#9a32cd" points="76.0964,-77.5001 66.0963,-81 76.0963,-84.5001 76.0964,-77.5001"/>
<text text-anchor="middle" x="97" y="-84" font-family="Arial" font-size="10.00"> base</text>
</g>
<!-- Node19&#45;&gt;Node4 -->
<g id="edge22" class="edge"><title>Node19&#45;&gt;Node4</title>
<path fill="none" stroke="#9a32cd" stroke-dasharray="5,2" d="M626.266,-190.427C668.958,-213.017 750.45,-256.136 786.76,-275.349"/>
<polygon fill="#9a32cd" stroke="#9a32cd" points="627.757,-187.256 617.281,-185.673 624.483,-193.444 627.757,-187.256"/>
<text text-anchor="middle" x="708" y="-253" font-family="Arial" font-size="10.00"> m_drawMaterial</text>
</g>
<!-- Node20&#45;&gt;Node1 -->
<g id="edge25" class="edge"><title>Node20&#45;&gt;Node1</title>
<path fill="none" stroke="#9a32cd" stroke-dasharray="5,2" d="M847.587,-492.788C879.424,-483.993 923.254,-471.886 953.432,-463.549"/>
<polygon fill="#9a32cd" stroke="#9a32cd" points="846.411,-489.482 837.704,-495.518 848.275,-496.229 846.411,-489.482"/>
<text text-anchor="middle" x="897" y="-489" font-family="Arial" font-size="10.00"> entityDlg</text>
</g>
<!-- Node21&#45;&gt;Node1 -->
<g id="edge27" class="edge"><title>Node21&#45;&gt;Node1</title>
<path fill="none" stroke="#9a32cd" stroke-dasharray="5,2" d="M853.065,-454C880.998,-454 916.442,-454 943.994,-454"/>
<polygon fill="#9a32cd" stroke="#9a32cd" points="852.76,-450.5 842.76,-454 852.76,-457.5 852.76,-450.5"/>
<text text-anchor="middle" x="897" y="-457" font-family="Arial" font-size="10.00"> consoleWnd</text>
</g>
<!-- Node22 -->
<g id="node22" class="node"><title>Node22</title>
<g id="a_node22"><a xlink:href="classid_list.html" target="_top" xlink:title="idList\&lt; idStr \&gt;">
<polygon fill="white" stroke="black" points="559,-408.5 559,-427.5 637,-427.5 637,-408.5 559,-408.5"/>
<text text-anchor="middle" x="598" y="-415.5" font-family="Arial" font-size="10.00">idList&lt; idStr &gt;</text>
</a>
</g>
</g>
<!-- Node22&#45;&gt;Node21 -->
<g id="edge29" class="edge"><title>Node22&#45;&gt;Node21</title>
<path fill="none" stroke="#9a32cd" stroke-dasharray="5,2" d="M647.158,-417.896C675.657,-418.761 712.273,-421.493 744,-429 758.59,-432.452 774.222,-438.918 786.008,-444.409"/>
<polygon fill="#9a32cd" stroke="#9a32cd" points="647.13,-414.395 637.05,-417.657 646.964,-421.393 647.13,-414.395"/>
<text text-anchor="middle" x="708" y="-432" font-family="Arial" font-size="10.00"> consoleHistory</text>
</g>
<!-- Node23&#45;&gt;Node1 -->
<g id="edge31" class="edge"><title>Node23&#45;&gt;Node1</title>
<path fill="none" stroke="#9a32cd" stroke-dasharray="5,2" d="M635.162,-49.3155C666.151,-61.8688 710.894,-82.8046 744,-110 871.018,-214.34 962.906,-400.23 983.596,-444.396"/>
<polygon fill="#9a32cd" stroke="#9a32cd" points="636.202,-45.9631 625.616,-45.5369 633.626,-52.4718 636.202,-45.9631"/>
<text text-anchor="middle" x="806" y="-225" font-family="Arial" font-size="10.00"> texWnd</text>
</g>
<!-- Node24 -->
<g id="node24" class="node"><title>Node24</title>
<g id="a_node24"><a xlink:href="classid_list.html" target="_top" xlink:title="idList\&lt; const idMaterial * \&gt;">
<polygon fill="white" stroke="black" points="298,-0.5 298,-19.5 432,-19.5 432,-0.5 298,-0.5"/>
<text text-anchor="middle" x="365" y="-7.5" font-family="Arial" font-size="10.00">idList&lt; const idMaterial * &gt;</text>
</a>
</g>
</g>
<!-- Node24&#45;&gt;Node23 -->
<g id="edge33" class="edge"><title>Node24&#45;&gt;Node23</title>
<path fill="none" stroke="#9a32cd" stroke-dasharray="5,2" d="M442.35,-16.3958C468.297,-18.7959 497.442,-21.7409 524,-25 535.322,-26.3894 547.595,-28.1422 558.789,-29.8379"/>
<polygon fill="#9a32cd" stroke="#9a32cd" points="442.476,-12.8928 432.2,-15.4693 441.84,-19.8639 442.476,-12.8928"/>
<text text-anchor="middle" x="487" y="-28" font-family="Arial" font-size="10.00"> materialList</text>
</g>
</g>
</svg>
        <g id="navigator" transform="translate(0 0)" fill="#404254">
                <rect fill="#f2f5e9" fill-opacity="0.5" stroke="#606060" stroke-width=".5" x="0" y="0" width="60" height="60"/>
                <use id="zoomplus" xlink:href="#zoomPlus" x="17" y="9" onmousedown="handleZoom(evt,'in')"/>
                <use id="zoomminus" xlink:href="#zoomMin" x="42" y="9" onmousedown="handleZoom(evt,'out')"/>
                <use id="reset" xlink:href="#resetDef" x="30" y="36" onmousedown="handleReset()"/>
                <g id="arrowUp" xlink:href="#dirArrow" transform="translate(30 24)" onmousedown="handlePan(0,-1)">
                  <use xlink:href="#rim" fill="#404040">
                        <set attributeName="fill" to="#808080" begin="arrowUp.mouseover" end="arrowUp.mouseout"/>
                  </use>
                  <path fill="none" stroke="white" stroke-width="1.5" d="M0,-3.0v7 M-2.5,-0.5L0,-3.0L2.5,-0.5"/>
                </g>
                <g id="arrowRight" xlink:href="#dirArrow" transform="rotate(90) translate(36 -43)" onmousedown="handlePan(1,0)">
                  <use xlink:href="#rim" fill="#404040">
                        <set attributeName="fill" to="#808080" begin="arrowRight.mouseover" end="arrowRight.mouseout"/>
                  </use>
                  <path fill="none" stroke="white" stroke-width="1.5" d="M0,-3.0v7 M-2.5,-0.5L0,-3.0L2.5,-0.5"/>
                </g>
                <g id="arrowDown" xlink:href="#dirArrow" transform="rotate(180) translate(-30 -48)" onmousedown="handlePan(0,1)">
                  <use xlink:href="#rim" fill="#404040">
                        <set attributeName="fill" to="#808080" begin="arrowDown.mouseover" end="arrowDown.mouseout"/>
                  </use>
                  <path fill="none" stroke="white" stroke-width="1.5" d="M0,-3.0v7 M-2.5,-0.5L0,-3.0L2.5,-0.5"/>
                </g>
                <g id="arrowLeft" xlink:href="#dirArrow" transform="rotate(270) translate(-36 17)" onmousedown="handlePan(-1,0)">
                  <use xlink:href="#rim" fill="#404040">
                        <set attributeName="fill" to="#808080" begin="arrowLeft.mouseover" end="arrowLeft.mouseout"/>
                  </use>
                  <path fill="none" stroke="white" stroke-width="1.5" d="M0,-3.0v7 M-2.5,-0.5L0,-3.0L2.5,-0.5"/>
                </g>
        </g>
        <svg viewBox="0 0 15 15" width="100%" height="30px" preserveAspectRatio="xMaxYMin meet">
         <g id="arrow_out" transform="scale(0.3 0.3)">
          <a xlink:href="class_c_inspector_dialog__coll__graph_org.svg" target="_base">
           <rect id="button" ry="5" rx="5" y="6" x="6" height="38" width="38"
                fill="#f2f5e9" fill-opacity="0.5" stroke="#606060" stroke-width="1.0"/>
           <path id="arrow"
             d="M 11.500037,31.436501 C 11.940474,20.09759 22.043105,11.32322 32.158766,21.979434 L 37.068811,17.246167 C 37.068811,17.246167 37.088388,32 37.088388,32 L 22.160133,31.978069 C 22.160133,31.978069 26.997745,27.140456 26.997745,27.140456 C 18.528582,18.264221 13.291696,25.230495 11.500037,31.436501 z"
             style="fill:#404040;"/>
          </a>
         </g>
        </svg>
</svg>
