<?xml version="1.0" encoding="UTF-8" standalone="no"?>
<!DOCTYPE svg PUBLIC "-//W3C//DTD SVG 1.1//EN"
 "http://www.w3.org/Graphics/SVG/1.1/DTD/svg11.dtd">
<!-- Generated by graphviz version 2.34.0 (20130907.0111)
 -->
<!-- Title: MaterialEditView Pages: 1 -->
<svg width="287pt" height="84pt"
 viewBox="0.00 0.00 287.00 84.00" xmlns="http://www.w3.org/2000/svg" xmlns:xlink="http://www.w3.org/1999/xlink">
<g id="graph0" class="graph" transform="scale(1 1) rotate(0) translate(4 80)">
<title>MaterialEditView</title>
<polygon fill="white" stroke="white" points="-4,4 -4,-80 283,-80 283,4 -4,4"/>
<!-- Node1 -->
<g id="node1" class="node"><title>Node1</title>
<polygon fill="#bfbfbf" stroke="black" points="76.5,-0.5 76.5,-19.5 165.5,-19.5 165.5,-0.5 76.5,-0.5"/>
<text text-anchor="middle" x="121" y="-7.5" font-family="Arial" font-size="10.00">MaterialEditView</text>
</g>
<!-- Node2 -->
<g id="node2" class="node"><title>Node2</title>
<polygon fill="white" stroke="#bfbfbf" points="-0.5,-56.5 -0.5,-75.5 66.5,-75.5 66.5,-56.5 -0.5,-56.5"/>
<text text-anchor="middle" x="33" y="-63.5" font-family="Arial" font-size="10.00">CFormView</text>
</g>
<!-- Node2&#45;&gt;Node1 -->
<g id="edge1" class="edge"><title>Node2&#45;&gt;Node1</title>
<path fill="none" stroke="midnightblue" d="M55.9769,-50.9005C72.1134,-40.9986 93.1813,-28.0705 106.896,-19.6545"/>
<polygon fill="midnightblue" stroke="midnightblue" points="53.8314,-48.1106 47.1387,-56.324 57.4925,-54.0769 53.8314,-48.1106"/>
</g>
<!-- Node3 -->
<g id="node3" class="node"><title>Node3</title>
<g id="a_node3"><a xlink:href="class_material_view.html" target="_top" xlink:title="MaterialView">
<polygon fill="white" stroke="black" points="85,-56.5 85,-75.5 157,-75.5 157,-56.5 85,-56.5"/>
<text text-anchor="middle" x="121" y="-63.5" font-family="Arial" font-size="10.00">MaterialView</text>
</a>
</g>
</g>
<!-- Node3&#45;&gt;Node1 -->
<g id="edge2" class="edge"><title>Node3&#45;&gt;Node1</title>
<path fill="none" stroke="midnightblue" d="M121,-45.8045C121,-36.9102 121,-26.7798 121,-19.7511"/>
<polygon fill="midnightblue" stroke="midnightblue" points="117.5,-46.083 121,-56.083 124.5,-46.083 117.5,-46.083"/>
</g>
<!-- Node4 -->
<g id="node4" class="node"><title>Node4</title>
<g id="a_node4"><a xlink:href="class_source_modify_owner.html" target="_top" xlink:title="SourceModifyOwner">
<polygon fill="white" stroke="black" points="175,-56.5 175,-75.5 279,-75.5 279,-56.5 175,-56.5"/>
<text text-anchor="middle" x="227" y="-63.5" font-family="Arial" font-size="10.00">SourceModifyOwner</text>
</a>
</g>
</g>
<!-- Node4&#45;&gt;Node1 -->
<g id="edge3" class="edge"><title>Node4&#45;&gt;Node1</title>
<path fill="none" stroke="#8b1a1a" d="M200.944,-51.7261C181.316,-41.7271 154.972,-28.3065 137.988,-19.6545"/>
<polygon fill="#8b1a1a" stroke="#8b1a1a" points="199.47,-54.9033 209.969,-56.324 202.648,-48.666 199.47,-54.9033"/>
</g>
</g>
</svg>
