<?xml version="1.0" encoding="UTF-8" standalone="no"?>
<!DOCTYPE svg PUBLIC "-//W3C//DTD SVG 1.1//EN"
 "http://www.w3.org/Graphics/SVG/1.1/DTD/svg11.dtd">
<!-- Generated by graphviz version 2.34.0 (20130907.0111)
 -->
<!-- Title: idWinInt Pages: 1 -->
<svg width="70pt" height="154pt"
 viewBox="0.00 0.00 70.00 154.00" xmlns="http://www.w3.org/2000/svg" xmlns:xlink="http://www.w3.org/1999/xlink">
<g id="graph0" class="graph" transform="scale(1 1) rotate(0) translate(4 150)">
<title>idWinInt</title>
<polygon fill="white" stroke="white" points="-4,4 -4,-150 66,-150 66,4 -4,4"/>
<!-- Node1 -->
<g id="node1" class="node"><title>Node1</title>
<polygon fill="#bfbfbf" stroke="black" points="2,-0.5 2,-19.5 54,-19.5 54,-0.5 2,-0.5"/>
<text text-anchor="middle" x="28" y="-7.5" font-family="Arial" font-size="10.00">idWinInt</text>
</g>
<!-- Node2 -->
<g id="node2" class="node"><title>Node2</title>
<g id="a_node2"><a xlink:href="classid_win_var.html" target="_top" xlink:title="idWinVar">
<polygon fill="white" stroke="black" points="0,-58.5 0,-77.5 56,-77.5 56,-58.5 0,-58.5"/>
<text text-anchor="middle" x="28" y="-65.5" font-family="Arial" font-size="10.00">idWinVar</text>
</a>
</g>
</g>
<!-- Node2&#45;&gt;Node1 -->
<g id="edge1" class="edge"><title>Node2&#45;&gt;Node1</title>
<path fill="none" stroke="midnightblue" d="M28,-47.953C28,-38.2875 28,-27.0312 28,-19.5052"/>
<polygon fill="midnightblue" stroke="midnightblue" points="24.5001,-48.25 28,-58.25 31.5001,-48.25 24.5001,-48.25"/>
</g>
<!-- Node3 -->
<g id="node3" class="node"><title>Node3</title>
<g id="a_node3"><a xlink:href="classid_dict.html" target="_top" xlink:title="idDict">
<polygon fill="white" stroke="black" points="7.5,-126.5 7.5,-145.5 48.5,-145.5 48.5,-126.5 7.5,-126.5"/>
<text text-anchor="middle" x="28" y="-133.5" font-family="Arial" font-size="10.00">idDict</text>
</a>
</g>
</g>
<!-- Node3&#45;&gt;Node2 -->
<g id="edge2" class="edge"><title>Node3&#45;&gt;Node2</title>
<path fill="none" stroke="#9a32cd" stroke-dasharray="5,2" d="M28,-116.041C28,-103.472 28,-87.5631 28,-77.8411"/>
<polygon fill="#9a32cd" stroke="#9a32cd" points="24.5001,-116.372 28,-126.372 31.5001,-116.372 24.5001,-116.372"/>
<text text-anchor="middle" x="45" y="-99.5" font-family="Arial" font-size="10.00"> guiDict</text>
</g>
</g>
</svg>
