<?xml version="1.0" encoding="UTF-8" standalone="no"?>
<!DOCTYPE svg PUBLIC "-//W3C//DTD SVG 1.1//EN"
 "http://www.w3.org/Graphics/SVG/1.1/DTD/svg11.dtd">
<!-- Generated by graphviz version 2.34.0 (20130907.0111)
 -->
<!-- Title: idSoundShader Pages: 1 -->
<svg width="90pt" height="154pt"
 viewBox="0.00 0.00 90.00 154.00" xmlns="http://www.w3.org/2000/svg" xmlns:xlink="http://www.w3.org/1999/xlink">
<g id="graph0" class="graph" transform="scale(1 1) rotate(0) translate(4 150)">
<title>idSoundShader</title>
<polygon fill="white" stroke="white" points="-4,4 -4,-150 86,-150 86,4 -4,4"/>
<!-- Node1 -->
<g id="node1" class="node"><title>Node1</title>
<polygon fill="#bfbfbf" stroke="black" points="-0.5,-0.5 -0.5,-19.5 82.5,-19.5 82.5,-0.5 -0.5,-0.5"/>
<text text-anchor="middle" x="41" y="-7.5" font-family="Arial" font-size="10.00">idSoundShader</text>
</g>
<!-- Node2 -->
<g id="node2" class="node"><title>Node2</title>
<g id="a_node2"><a xlink:href="classid_decl.html" target="_top" xlink:title="idDecl">
<polygon fill="white" stroke="black" points="19,-58.5 19,-77.5 63,-77.5 63,-58.5 19,-58.5"/>
<text text-anchor="middle" x="41" y="-65.5" font-family="Arial" font-size="10.00">idDecl</text>
</a>
</g>
</g>
<!-- Node2&#45;&gt;Node1 -->
<g id="edge1" class="edge"><title>Node2&#45;&gt;Node1</title>
<path fill="none" stroke="midnightblue" d="M41,-47.953C41,-38.2875 41,-27.0312 41,-19.5052"/>
<polygon fill="midnightblue" stroke="midnightblue" points="37.5001,-48.25 41,-58.25 44.5001,-48.25 37.5001,-48.25"/>
</g>
<!-- Node3 -->
<g id="node3" class="node"><title>Node3</title>
<g id="a_node3"><a xlink:href="classid_decl_base.html" target="_top" xlink:title="idDeclBase">
<polygon fill="white" stroke="black" points="8,-126.5 8,-145.5 74,-145.5 74,-126.5 8,-126.5"/>
<text text-anchor="middle" x="41" y="-133.5" font-family="Arial" font-size="10.00">idDeclBase</text>
</a>
</g>
</g>
<!-- Node3&#45;&gt;Node2 -->
<g id="edge2" class="edge"><title>Node3&#45;&gt;Node2</title>
<path fill="none" stroke="#9a32cd" stroke-dasharray="5,2" d="M41,-116.041C41,-103.472 41,-87.5631 41,-77.8411"/>
<polygon fill="#9a32cd" stroke="#9a32cd" points="37.5001,-116.372 41,-126.372 44.5001,-116.372 37.5001,-116.372"/>
<text text-anchor="middle" x="53.5" y="-99.5" font-family="Arial" font-size="10.00"> base</text>
</g>
</g>
</svg>
