<?xml version="1.0" encoding="UTF-8" standalone="no"?>
<!DOCTYPE svg PUBLIC "-//W3C//DTD SVG 1.1//EN"
 "http://www.w3.org/Graphics/SVG/1.1/DTD/svg11.dtd">
<!-- Generated by graphviz version 2.34.0 (20130907.0111)
 -->
<!-- Title: idCurve_BSpline&lt; type &gt; Pages: 1 -->
<svg width="132pt" height="212pt"
 viewBox="0.00 0.00 132.00 212.00" xmlns="http://www.w3.org/2000/svg" xmlns:xlink="http://www.w3.org/1999/xlink">
<g id="graph0" class="graph" transform="scale(1 1) rotate(0) translate(4 208)">
<title>idCurve_BSpline&lt; type &gt;</title>
<polygon fill="white" stroke="white" points="-4,4 -4,-208 128,-208 128,4 -4,4"/>
<!-- Node1 -->
<g id="node1" class="node"><title>Node1</title>
<polygon fill="#bfbfbf" stroke="black" points="0,-0.5 0,-19.5 124,-19.5 124,-0.5 0,-0.5"/>
<text text-anchor="middle" x="62" y="-7.5" font-family="Arial" font-size="10.00">idCurve_BSpline&lt; type &gt;</text>
</g>
<!-- Node2 -->
<g id="node2" class="node"><title>Node2</title>
<g id="a_node2"><a xlink:href="classid_curve___spline.html" target="_top" xlink:title="idCurve_Spline\&lt; type \&gt;">
<polygon fill="white" stroke="black" points="3.5,-58.5 3.5,-77.5 120.5,-77.5 120.5,-58.5 3.5,-58.5"/>
<text text-anchor="middle" x="62" y="-65.5" font-family="Arial" font-size="10.00">idCurve_Spline&lt; type &gt;</text>
</a>
</g>
</g>
<!-- Node2&#45;&gt;Node1 -->
<g id="edge1" class="edge"><title>Node2&#45;&gt;Node1</title>
<path fill="none" stroke="midnightblue" d="M62,-47.953C62,-38.2875 62,-27.0312 62,-19.5052"/>
<polygon fill="midnightblue" stroke="midnightblue" points="58.5001,-48.25 62,-58.25 65.5001,-48.25 58.5001,-48.25"/>
</g>
<!-- Node3 -->
<g id="node3" class="node"><title>Node3</title>
<g id="a_node3"><a xlink:href="classid_curve.html" target="_top" xlink:title="idCurve\&lt; type \&gt;">
<polygon fill="white" stroke="black" points="19.5,-116.5 19.5,-135.5 104.5,-135.5 104.5,-116.5 19.5,-116.5"/>
<text text-anchor="middle" x="62" y="-123.5" font-family="Arial" font-size="10.00">idCurve&lt; type &gt;</text>
</a>
</g>
</g>
<!-- Node3&#45;&gt;Node2 -->
<g id="edge2" class="edge"><title>Node3&#45;&gt;Node2</title>
<path fill="none" stroke="midnightblue" d="M62,-105.953C62,-96.2875 62,-85.0312 62,-77.5052"/>
<polygon fill="midnightblue" stroke="midnightblue" points="58.5001,-106.25 62,-116.25 65.5001,-106.25 58.5001,-106.25"/>
</g>
<!-- Node4 -->
<g id="node4" class="node"><title>Node4</title>
<g id="a_node4"><a xlink:href="classid_list.html" target="_top" xlink:title="idList\&lt; float \&gt;">
<polygon fill="white" stroke="black" points="24,-184.5 24,-203.5 100,-203.5 100,-184.5 24,-184.5"/>
<text text-anchor="middle" x="62" y="-191.5" font-family="Arial" font-size="10.00">idList&lt; float &gt;</text>
</a>
</g>
</g>
<!-- Node4&#45;&gt;Node3 -->
<g id="edge3" class="edge"><title>Node4&#45;&gt;Node3</title>
<path fill="none" stroke="#9a32cd" stroke-dasharray="5,2" d="M62,-174.041C62,-161.472 62,-145.563 62,-135.841"/>
<polygon fill="#9a32cd" stroke="#9a32cd" points="58.5001,-174.372 62,-184.372 65.5001,-174.372 58.5001,-174.372"/>
<text text-anchor="middle" x="76" y="-157.5" font-family="Arial" font-size="10.00"> times</text>
</g>
</g>
</svg>
