<?xml version="1.0" encoding="UTF-8" standalone="no"?>
<!DOCTYPE svg PUBLIC "-//W3C//DTD SVG 1.1//EN"
 "http://www.w3.org/Graphics/SVG/1.1/DTD/svg11.dtd">
<!-- Generated by graphviz version 2.34.0 (20130907.0111)
 -->
<!-- Title: idAFConstraint_UniversalJointFriction Pages: 1 -->
<svg width="132pt" height="96pt"
 viewBox="0.00 0.00 132.00 96.00" xmlns="http://www.w3.org/2000/svg" xmlns:xlink="http://www.w3.org/1999/xlink">
<g id="graph0" class="graph" transform="scale(1 1) rotate(0) translate(4 92)">
<title>idAFConstraint_UniversalJointFriction</title>
<polygon fill="white" stroke="white" points="-4,4 -4,-92 128,-92 128,4 -4,4"/>
<!-- Node1 -->
<g id="node1" class="node"><title>Node1</title>
<polygon fill="#bfbfbf" stroke="black" points="-0.5,-1 -0.5,-31 124.5,-31 124.5,-1 -0.5,-1"/>
<text text-anchor="start" x="7.5" y="-19" font-family="Arial" font-size="10.00">idAFConstraint_Universal</text>
<text text-anchor="middle" x="62" y="-8" font-family="Arial" font-size="10.00">JointFriction</text>
</g>
<!-- Node2 -->
<g id="node2" class="node"><title>Node2</title>
<g id="a_node2"><a xlink:href="classid_a_f_constraint.html" target="_top" xlink:title="idAFConstraint">
<polygon fill="white" stroke="black" points="21.5,-68.5 21.5,-87.5 102.5,-87.5 102.5,-68.5 21.5,-68.5"/>
<text text-anchor="middle" x="62" y="-75.5" font-family="Arial" font-size="10.00">idAFConstraint</text>
</a>
</g>
</g>
<!-- Node2&#45;&gt;Node1 -->
<g id="edge1" class="edge"><title>Node2&#45;&gt;Node1</title>
<path fill="none" stroke="midnightblue" d="M55.7008,-58.3707C54.9709,-49.5849 55.1273,-39.2721 56.1701,-31.1408"/>
<polygon fill="midnightblue" stroke="midnightblue" points="52.2522,-58.9825 57.0994,-68.4035 59.1851,-58.016 52.2522,-58.9825"/>
</g>
<!-- Node2&#45;&gt;Node1 -->
<g id="edge2" class="edge"><title>Node2&#45;&gt;Node1</title>
<path fill="none" stroke="midnightblue" d="M68.2992,-58.3707C69.0291,-49.5849 68.8727,-39.2721 67.8299,-31.1408"/>
<polygon fill="midnightblue" stroke="midnightblue" points="64.8149,-58.016 66.9006,-68.4035 71.7478,-58.9825 64.8149,-58.016"/>
</g>
</g>
</svg>
