<?xml version="1.0" encoding="UTF-8" standalone="no"?>
<!DOCTYPE svg PUBLIC "-//W3C//DTD SVG 1.1//EN"
 "http://www.w3.org/Graphics/SVG/1.1/DTD/svg11.dtd">
<!-- Generated by graphviz version 2.34.0 (20130907.0111)
 -->
<!-- Title: idCompressor_LZSS_WordAligned Pages: 1 -->
<svg width="178pt" height="318pt"
 viewBox="0.00 0.00 178.00 318.00" xmlns="http://www.w3.org/2000/svg" xmlns:xlink="http://www.w3.org/1999/xlink">
<g id="graph0" class="graph" transform="scale(1 1) rotate(0) translate(4 314)">
<title>idCompressor_LZSS_WordAligned</title>
<polygon fill="white" stroke="white" points="-4,4 -4,-314 174,-314 174,4 -4,4"/>
<!-- Node1 -->
<g id="node1" class="node"><title>Node1</title>
<polygon fill="#bfbfbf" stroke="black" points="-0.5,-0.5 -0.5,-19.5 166.5,-19.5 166.5,-0.5 -0.5,-0.5"/>
<text text-anchor="middle" x="83" y="-7.5" font-family="Arial" font-size="10.00">idCompressor_LZSS_WordAligned</text>
</g>
<!-- Node2 -->
<g id="node2" class="node"><title>Node2</title>
<g id="a_node2"><a xlink:href="classid_compressor___l_z_s_s.html" target="_top" xlink:title="idCompressor_LZSS">
<polygon fill="white" stroke="black" points="30,-58.5 30,-77.5 136,-77.5 136,-58.5 30,-58.5"/>
<text text-anchor="middle" x="83" y="-65.5" font-family="Arial" font-size="10.00">idCompressor_LZSS</text>
</a>
</g>
</g>
<!-- Node2&#45;&gt;Node1 -->
<g id="edge1" class="edge"><title>Node2&#45;&gt;Node1</title>
<path fill="none" stroke="midnightblue" d="M83,-47.953C83,-38.2875 83,-27.0312 83,-19.5052"/>
<polygon fill="midnightblue" stroke="midnightblue" points="79.5001,-48.25 83,-58.25 86.5001,-48.25 79.5001,-48.25"/>
</g>
<!-- Node3 -->
<g id="node3" class="node"><title>Node3</title>
<g id="a_node3"><a xlink:href="classid_compressor___bit_stream.html" target="_top" xlink:title="idCompressor_BitStream">
<polygon fill="white" stroke="black" points="20.5,-116.5 20.5,-135.5 145.5,-135.5 145.5,-116.5 20.5,-116.5"/>
<text text-anchor="middle" x="83" y="-123.5" font-family="Arial" font-size="10.00">idCompressor_BitStream</text>
</a>
</g>
</g>
<!-- Node3&#45;&gt;Node2 -->
<g id="edge2" class="edge"><title>Node3&#45;&gt;Node2</title>
<path fill="none" stroke="midnightblue" d="M83,-105.953C83,-96.2875 83,-85.0312 83,-77.5052"/>
<polygon fill="midnightblue" stroke="midnightblue" points="79.5001,-106.25 83,-116.25 86.5001,-106.25 79.5001,-106.25"/>
</g>
<!-- Node4 -->
<g id="node4" class="node"><title>Node4</title>
<g id="a_node4"><a xlink:href="classid_compressor___none.html" target="_top" xlink:title="idCompressor_None">
<polygon fill="white" stroke="black" points="31,-174.5 31,-193.5 135,-193.5 135,-174.5 31,-174.5"/>
<text text-anchor="middle" x="83" y="-181.5" font-family="Arial" font-size="10.00">idCompressor_None</text>
</a>
</g>
</g>
<!-- Node4&#45;&gt;Node3 -->
<g id="edge3" class="edge"><title>Node4&#45;&gt;Node3</title>
<path fill="none" stroke="midnightblue" d="M83,-163.953C83,-154.287 83,-143.031 83,-135.505"/>
<polygon fill="midnightblue" stroke="midnightblue" points="79.5001,-164.25 83,-174.25 86.5001,-164.25 79.5001,-164.25"/>
</g>
<!-- Node5 -->
<g id="node5" class="node"><title>Node5</title>
<g id="a_node5"><a xlink:href="classid_compressor.html" target="_top" xlink:title="idCompressor">
<polygon fill="white" stroke="black" points="93.5,-232.5 93.5,-251.5 170.5,-251.5 170.5,-232.5 93.5,-232.5"/>
<text text-anchor="middle" x="132" y="-239.5" font-family="Arial" font-size="10.00">idCompressor</text>
</a>
</g>
</g>
<!-- Node5&#45;&gt;Node4 -->
<g id="edge4" class="edge"><title>Node5&#45;&gt;Node4</title>
<path fill="none" stroke="midnightblue" d="M117.506,-224.435C108.614,-214.273 97.5999,-201.686 90.442,-193.505"/>
<polygon fill="midnightblue" stroke="midnightblue" points="115.125,-227.029 124.344,-232.25 120.393,-222.419 115.125,-227.029"/>
</g>
<!-- Node6 -->
<g id="node6" class="node"><title>Node6</title>
<g id="a_node6"><a xlink:href="classid_file.html" target="_top" xlink:title="idFile">
<polygon fill="white" stroke="black" points="63,-290.5 63,-309.5 103,-309.5 103,-290.5 63,-290.5"/>
<text text-anchor="middle" x="83" y="-297.5" font-family="Arial" font-size="10.00">idFile</text>
</a>
</g>
</g>
<!-- Node6&#45;&gt;Node4 -->
<g id="edge6" class="edge"><title>Node6&#45;&gt;Node4</title>
<path fill="none" stroke="#9a32cd" stroke-dasharray="5,2" d="M75.6988,-280.917C71.1417,-267.494 66.5654,-248.701 69,-232 70.9896,-218.352 76.0674,-203.156 79.5282,-193.836"/>
<polygon fill="#9a32cd" stroke="#9a32cd" points="72.4533,-282.231 79.2152,-290.387 79.0156,-279.794 72.4533,-282.231"/>
<text text-anchor="middle" x="77" y="-239.5" font-family="Arial" font-size="10.00"> file</text>
</g>
<!-- Node6&#45;&gt;Node5 -->
<g id="edge5" class="edge"><title>Node6&#45;&gt;Node5</title>
<path fill="none" stroke="midnightblue" d="M97.4945,-282.435C106.386,-272.273 117.4,-259.686 124.558,-251.505"/>
<polygon fill="midnightblue" stroke="midnightblue" points="94.6073,-280.419 90.6563,-290.25 99.8754,-285.029 94.6073,-280.419"/>
</g>
</g>
</svg>
