<?xml version="1.0" encoding="UTF-8" standalone="no"?>
<!DOCTYPE svg PUBLIC "-//W3C//DTD SVG 1.1//EN"
 "http://www.w3.org/Graphics/SVG/1.1/DTD/svg11.dtd">
<!-- Generated by graphviz version 2.34.0 (20130907.0111)
 -->
<!-- Title: idLedge Pages: 1 -->
<svg width="232pt" height="106pt"
 viewBox="0.00 0.00 232.00 106.00" xmlns="http://www.w3.org/2000/svg" xmlns:xlink="http://www.w3.org/1999/xlink">
<g id="graph0" class="graph" transform="scale(1 1) rotate(0) translate(4 102)">
<title>idLedge</title>
<polygon fill="white" stroke="white" points="-4,4 -4,-102 228,-102 228,4 -4,4"/>
<!-- Node1 -->
<g id="node1" class="node"><title>Node1</title>
<polygon fill="#bfbfbf" stroke="black" points="88,-0.5 88,-19.5 138,-19.5 138,-0.5 88,-0.5"/>
<text text-anchor="middle" x="113" y="-7.5" font-family="Arial" font-size="10.00">idLedge</text>
</g>
<!-- Node2 -->
<g id="node2" class="node"><title>Node2</title>
<g id="a_node2"><a xlink:href="classid_plane.html" target="_top" xlink:title="idPlane">
<polygon fill="white" stroke="black" points="-0.5,-78.5 -0.5,-97.5 48.5,-97.5 48.5,-78.5 -0.5,-78.5"/>
<text text-anchor="middle" x="24" y="-85.5" font-family="Arial" font-size="10.00">idPlane</text>
</a>
</g>
</g>
<!-- Node2&#45;&gt;Node1 -->
<g id="edge1" class="edge"><title>Node2&#45;&gt;Node1</title>
<path fill="none" stroke="#9a32cd" stroke-dasharray="5,2" d="M40.1836,-71.2279C50.4831,-61.3958 64.2397,-48.6361 77,-38 84.6815,-31.5973 93.6815,-24.8473 100.761,-19.698"/>
<polygon fill="#9a32cd" stroke="#9a32cd" points="37.5236,-68.9304 32.7498,-78.3889 42.38,-73.9718 37.5236,-68.9304"/>
<text text-anchor="middle" x="93" y="-46.5" font-family="Arial" font-size="10.00"> planes</text>
</g>
<!-- Node3 -->
<g id="node3" class="node"><title>Node3</title>
<g id="a_node3"><a xlink:href="classid_brush_b_s_p_node.html" target="_top" xlink:title="idBrushBSPNode">
<polygon fill="white" stroke="black" points="67,-78.5 67,-97.5 159,-97.5 159,-78.5 67,-78.5"/>
<text text-anchor="middle" x="113" y="-85.5" font-family="Arial" font-size="10.00">idBrushBSPNode</text>
</a>
</g>
</g>
<!-- Node3&#45;&gt;Node1 -->
<g id="edge2" class="edge"><title>Node3&#45;&gt;Node1</title>
<path fill="none" stroke="#9a32cd" stroke-dasharray="5,2" d="M113,-68.2239C113,-52.6974 113,-31.3582 113,-19.6165"/>
<polygon fill="#9a32cd" stroke="#9a32cd" points="109.5,-68.2818 113,-78.2818 116.5,-68.2819 109.5,-68.2818"/>
<text text-anchor="middle" x="125.5" y="-46.5" font-family="Arial" font-size="10.00"> node</text>
</g>
<!-- Node4 -->
<g id="node4" class="node"><title>Node4</title>
<g id="a_node4"><a xlink:href="classid_vec3.html" target="_top" xlink:title="idVec3">
<polygon fill="white" stroke="black" points="177.5,-78.5 177.5,-97.5 224.5,-97.5 224.5,-78.5 177.5,-78.5"/>
<text text-anchor="middle" x="201" y="-85.5" font-family="Arial" font-size="10.00">idVec3</text>
</a>
</g>
</g>
<!-- Node4&#45;&gt;Node1 -->
<g id="edge3" class="edge"><title>Node4&#45;&gt;Node1</title>
<path fill="none" stroke="#9a32cd" stroke-dasharray="5,2" d="M183.318,-71.7293C165.186,-56.0702 137.629,-32.2701 122.977,-19.6165"/>
<polygon fill="#9a32cd" stroke="#9a32cd" points="181.049,-74.3945 190.905,-78.2818 185.625,-69.0967 181.049,-74.3945"/>
<text text-anchor="middle" x="178" y="-52" font-family="Arial" font-size="10.00"> end</text>
<text text-anchor="middle" x="178" y="-41" font-family="Arial" font-size="10.00">start</text>
</g>
</g>
</svg>
