<?xml version="1.0" encoding="UTF-8" standalone="no"?>
<!DOCTYPE svg PUBLIC "-//W3C//DTD SVG 1.1//EN"
 "http://www.w3.org/Graphics/SVG/1.1/DTD/svg11.dtd">
<!-- Generated by graphviz version 2.34.0 (20130907.0111)
 -->
<!-- Title: idCameraPosition Pages: 1 -->
<svg width="323pt" height="140pt"
 viewBox="0.00 0.00 323.00 140.00" xmlns="http://www.w3.org/2000/svg" xmlns:xlink="http://www.w3.org/1999/xlink">
<g id="graph0" class="graph" transform="scale(1 1) rotate(0) translate(4 136)">
<title>idCameraPosition</title>
<polygon fill="white" stroke="white" points="-4,4 -4,-136 319,-136 319,4 -4,4"/>
<!-- Node1 -->
<g id="node1" class="node"><title>Node1</title>
<polygon fill="#bfbfbf" stroke="black" points="109.5,-56.5 109.5,-75.5 202.5,-75.5 202.5,-56.5 109.5,-56.5"/>
<text text-anchor="middle" x="156" y="-63.5" font-family="Arial" font-size="10.00">idCameraPosition</text>
</g>
<!-- Node3 -->
<g id="node3" class="node"><title>Node3</title>
<g id="a_node3"><a xlink:href="classid_fixed_position.html" target="_top" xlink:title="idFixedPosition">
<polygon fill="white" stroke="black" points="-0.5,-0.5 -0.5,-19.5 82.5,-19.5 82.5,-0.5 -0.5,-0.5"/>
<text text-anchor="middle" x="41" y="-7.5" font-family="Arial" font-size="10.00">idFixedPosition</text>
</a>
</g>
</g>
<!-- Node1&#45;&gt;Node3 -->
<g id="edge2" class="edge"><title>Node1&#45;&gt;Node3</title>
<path fill="none" stroke="midnightblue" d="M128.519,-52.096C107.034,-42.0073 77.7781,-28.2697 59.1368,-19.5164"/>
<polygon fill="midnightblue" stroke="midnightblue" points="127.238,-55.3612 137.778,-56.4435 130.214,-49.025 127.238,-55.3612"/>
</g>
<!-- Node4 -->
<g id="node4" class="node"><title>Node4</title>
<g id="a_node4"><a xlink:href="classid_interpolated_position.html" target="_top" xlink:title="idInterpolatedPosition">
<polygon fill="white" stroke="black" points="101,-0.5 101,-19.5 211,-19.5 211,-0.5 101,-0.5"/>
<text text-anchor="middle" x="156" y="-7.5" font-family="Arial" font-size="10.00">idInterpolatedPosition</text>
</a>
</g>
</g>
<!-- Node1&#45;&gt;Node4 -->
<g id="edge3" class="edge"><title>Node1&#45;&gt;Node4</title>
<path fill="none" stroke="midnightblue" d="M156,-45.8045C156,-36.9102 156,-26.7798 156,-19.7511"/>
<polygon fill="midnightblue" stroke="midnightblue" points="152.5,-46.083 156,-56.083 159.5,-46.083 152.5,-46.083"/>
</g>
<!-- Node5 -->
<g id="node5" class="node"><title>Node5</title>
<g id="a_node5"><a xlink:href="classid_spline_position.html" target="_top" xlink:title="idSplinePosition">
<polygon fill="white" stroke="black" points="229,-0.5 229,-19.5 315,-19.5 315,-0.5 229,-0.5"/>
<text text-anchor="middle" x="272" y="-7.5" font-family="Arial" font-size="10.00">idSplinePosition</text>
</a>
</g>
</g>
<!-- Node1&#45;&gt;Node5 -->
<g id="edge4" class="edge"><title>Node1&#45;&gt;Node5</title>
<path fill="none" stroke="midnightblue" d="M183.72,-52.096C205.392,-42.0073 234.902,-28.2697 253.705,-19.5164"/>
<polygon fill="midnightblue" stroke="midnightblue" points="181.969,-49.0501 174.381,-56.4435 184.923,-55.3962 181.969,-49.0501"/>
</g>
<!-- Node2 -->
<g id="node2" class="node"><title>Node2</title>
<g id="a_node2"><a xlink:href="classid_point_list_interface.html" target="_top" xlink:title="idPointListInterface">
<polygon fill="white" stroke="black" points="106.5,-112.5 106.5,-131.5 205.5,-131.5 205.5,-112.5 106.5,-112.5"/>
<text text-anchor="middle" x="156" y="-119.5" font-family="Arial" font-size="10.00">idPointListInterface</text>
</a>
</g>
</g>
<!-- Node2&#45;&gt;Node1 -->
<g id="edge1" class="edge"><title>Node2&#45;&gt;Node1</title>
<path fill="none" stroke="midnightblue" d="M156,-101.805C156,-92.9102 156,-82.7798 156,-75.7511"/>
<polygon fill="midnightblue" stroke="midnightblue" points="152.5,-102.083 156,-112.083 159.5,-102.083 152.5,-102.083"/>
</g>
</g>
</svg>
