<?xml version="1.0" encoding="UTF-8" standalone="no"?>
<!DOCTYPE svg PUBLIC "-//W3C//DTD SVG 1.1//EN"
 "http://www.w3.org/Graphics/SVG/1.1/DTD/svg11.dtd">
<!-- Generated by graphviz version 2.34.0 (20130907.0111)
 -->
<!-- Title: idTeleporter Pages: 1 -->
<svg width="1284pt" height="697pt"
 viewBox="0.00 0.00 1284.00 697.00" xmlns="http://www.w3.org/2000/svg" xmlns:xlink="http://www.w3.org/1999/xlink">
<g id="graph0" class="graph" transform="scale(1 1) rotate(0) translate(4 693)">
<title>idTeleporter</title>
<polygon fill="white" stroke="white" points="-4,4 -4,-693 1280,-693 1280,4 -4,4"/>
<!-- Node1 -->
<g id="node1" class="node"><title>Node1</title>
<polygon fill="#bfbfbf" stroke="black" points="1208.5,-152.5 1208.5,-171.5 1275.5,-171.5 1275.5,-152.5 1208.5,-152.5"/>
<text text-anchor="middle" x="1242" y="-159.5" font-family="Arial" font-size="10.00">idTeleporter</text>
</g>
<!-- Node2 -->
<g id="node2" class="node"><title>Node2</title>
<g id="a_node2"><a xlink:href="classid_entity_fx.html" target="_top" xlink:title="idEntityFx">
<polygon fill="white" stroke="black" points="1108.5,-152.5 1108.5,-171.5 1169.5,-171.5 1169.5,-152.5 1108.5,-152.5"/>
<text text-anchor="middle" x="1139" y="-159.5" font-family="Arial" font-size="10.00">idEntityFx</text>
</a>
</g>
</g>
<!-- Node2&#45;&gt;Node1 -->
<g id="edge1" class="edge"><title>Node2&#45;&gt;Node1</title>
<path fill="none" stroke="midnightblue" d="M1180.04,-155.38C1189.41,-155.144 1199.28,-155.229 1208.28,-155.636"/>
<polygon fill="midnightblue" stroke="midnightblue" points="1179.61,-151.894 1169.76,-155.784 1179.89,-158.889 1179.61,-151.894"/>
</g>
<!-- Node2&#45;&gt;Node1 -->
<g id="edge51" class="edge"><title>Node2&#45;&gt;Node1</title>
<path fill="none" stroke="midnightblue" d="M1180.04,-168.62C1189.41,-168.856 1199.28,-168.771 1208.28,-168.364"/>
<polygon fill="midnightblue" stroke="midnightblue" points="1179.89,-165.111 1169.76,-168.216 1179.61,-172.106 1179.89,-165.111"/>
</g>
<!-- Node3 -->
<g id="node3" class="node"><title>Node3</title>
<g id="a_node3"><a xlink:href="classid_entity.html" target="_top" xlink:title="idEntity">
<polygon fill="white" stroke="black" points="947,-273.5 947,-292.5 997,-292.5 997,-273.5 947,-273.5"/>
<text text-anchor="middle" x="972" y="-280.5" font-family="Arial" font-size="10.00">idEntity</text>
</a>
</g>
</g>
<!-- Node3&#45;&gt;Node2 -->
<g id="edge2" class="edge"><title>Node3&#45;&gt;Node2</title>
<path fill="none" stroke="midnightblue" d="M989.556,-266.602C1020.29,-240.832 1086.01,-192.548 1118.7,-171.622"/>
<polygon fill="midnightblue" stroke="midnightblue" points="987.156,-264.049 981.871,-273.232 991.729,-269.349 987.156,-264.049"/>
</g>
<!-- Node3&#45;&gt;Node2 -->
<g id="edge44" class="edge"><title>Node3&#45;&gt;Node2</title>
<path fill="none" stroke="midnightblue" d="M1000.86,-267.777C1039.09,-242.324 1105.77,-192.764 1129.4,-171.527"/>
<polygon fill="midnightblue" stroke="midnightblue" points="998.705,-265.005 992.251,-273.407 1002.54,-270.864 998.705,-265.005"/>
</g>
<!-- Node3&#45;&gt;Node3 -->
<g id="edge12" class="edge"><title>Node3&#45;&gt;Node3</title>
<path fill="none" stroke="#9a32cd" stroke-dasharray="5,2" d="M953.482,-302.4C954.719,-307.315 960.892,-311 972,-311 989.773,-311 994.911,-301.565 987.413,-292.757"/>
<polygon fill="#9a32cd" stroke="#9a32cd" points="956.854,-303.349 956.587,-292.757 950.191,-301.203 956.854,-303.349"/>
<text text-anchor="middle" x="972" y="-314" font-family="Arial" font-size="10.00"> cameraTarget</text>
</g>
<!-- Node4 -->
<g id="node4" class="node"><title>Node4</title>
<g id="a_node4"><a xlink:href="classid_class.html" target="_top" xlink:title="idClass">
<polygon fill="white" stroke="black" points="711.5,-578.5 711.5,-597.5 760.5,-597.5 760.5,-578.5 711.5,-578.5"/>
<text text-anchor="middle" x="736" y="-585.5" font-family="Arial" font-size="10.00">idClass</text>
</a>
</g>
</g>
<!-- Node4&#45;&gt;Node3 -->
<g id="edge3" class="edge"><title>Node4&#45;&gt;Node3</title>
<path fill="none" stroke="midnightblue" d="M769.88,-575.59C804.364,-565.543 857.915,-548.63 890,-514 952.765,-446.258 967.062,-328.156 970.174,-292.869"/>
<polygon fill="midnightblue" stroke="midnightblue" points="768.467,-572.355 759.835,-578.499 770.414,-579.079 768.467,-572.355"/>
</g>
<!-- Node4&#45;&gt;Node3 -->
<g id="edge11" class="edge"><title>Node4&#45;&gt;Node3</title>
<path fill="none" stroke="midnightblue" d="M770.744,-588.758C805.253,-583.261 858.181,-566.342 890,-532 956.949,-459.742 968.753,-330.186 970.658,-292.896"/>
<polygon fill="midnightblue" stroke="midnightblue" points="770.118,-585.311 760.669,-590.104 771.045,-592.249 770.118,-585.311"/>
</g>
<!-- Node5 -->
<g id="node5" class="node"><title>Node5</title>
<g id="a_node5"><a xlink:href="classid_type_info.html" target="_top" xlink:title="idTypeInfo">
<polygon fill="white" stroke="black" points="942,-629.5 942,-648.5 1002,-648.5 1002,-629.5 942,-629.5"/>
<text text-anchor="middle" x="972" y="-636.5" font-family="Arial" font-size="10.00">idTypeInfo</text>
</a>
</g>
</g>
<!-- Node4&#45;&gt;Node5 -->
<g id="edge9" class="edge"><title>Node4&#45;&gt;Node5</title>
<path fill="none" stroke="#9a32cd" stroke-dasharray="5,2" d="M770.497,-595.301C816.416,-605.309 898.17,-623.127 941.749,-632.625"/>
<polygon fill="#9a32cd" stroke="#9a32cd" points="771.241,-591.881 760.725,-593.171 769.75,-598.72 771.241,-591.881"/>
<text text-anchor="middle" x="855" y="-625" font-family="Arial" font-size="10.00"> CreateInstance</text>
</g>
<!-- Node5&#45;&gt;Node4 -->
<g id="edge4" class="edge"><title>Node5&#45;&gt;Node4</title>
<path fill="none" stroke="#9a32cd" stroke-dasharray="5,2" d="M951.656,-622.795C936.101,-610.874 913.103,-595.638 890,-589 845.705,-576.273 791.174,-580.338 760.627,-584.279"/>
<polygon fill="#9a32cd" stroke="#9a32cd" points="949.891,-625.863 959.899,-629.341 954.244,-620.381 949.891,-625.863"/>
<text text-anchor="middle" x="855" y="-592" font-family="Arial" font-size="10.00"> Type</text>
</g>
<!-- Node5&#45;&gt;Node5 -->
<g id="edge5" class="edge"><title>Node5&#45;&gt;Node5</title>
<path fill="none" stroke="#9a32cd" stroke-dasharray="5,2" d="M953.482,-658.4C954.719,-663.315 960.892,-667 972,-667 989.773,-667 994.911,-657.565 987.413,-648.757"/>
<polygon fill="#9a32cd" stroke="#9a32cd" points="956.854,-659.349 956.587,-648.757 950.191,-657.203 956.854,-659.349"/>
<text text-anchor="middle" x="972" y="-681" font-family="Arial" font-size="10.00"> next</text>
<text text-anchor="middle" x="972" y="-670" font-family="Arial" font-size="10.00">super</text>
</g>
<!-- Node6 -->
<g id="node6" class="node"><title>Node6</title>
<g id="a_node6"><a xlink:href="classid_hierarchy.html" target="_top" xlink:title="idHierarchy\&lt; idTypeInfo \&gt;">
<polygon fill="white" stroke="black" points="672.5,-636.5 672.5,-655.5 799.5,-655.5 799.5,-636.5 672.5,-636.5"/>
<text text-anchor="middle" x="736" y="-643.5" font-family="Arial" font-size="10.00">idHierarchy&lt; idTypeInfo &gt;</text>
</a>
</g>
</g>
<!-- Node6&#45;&gt;Node5 -->
<g id="edge6" class="edge"><title>Node6&#45;&gt;Node5</title>
<path fill="none" stroke="#9a32cd" stroke-dasharray="5,2" d="M809.928,-643.818C854.506,-642.485 909.081,-640.852 941.89,-639.871"/>
<polygon fill="#9a32cd" stroke="#9a32cd" points="809.599,-640.327 799.708,-644.124 809.808,-647.323 809.599,-640.327"/>
<text text-anchor="middle" x="855" y="-647" font-family="Arial" font-size="10.00"> node</text>
</g>
<!-- Node7 -->
<g id="node7" class="node"><title>Node7</title>
<g id="a_node7"><a xlink:href="structid_event_func.html" target="_top" xlink:title="idEventFunc\&lt; idClass \&gt;">
<polygon fill="white" stroke="black" points="428,-628.5 428,-647.5 548,-647.5 548,-628.5 428,-628.5"/>
<text text-anchor="middle" x="488" y="-635.5" font-family="Arial" font-size="10.00">idEventFunc&lt; idClass &gt;</text>
</a>
</g>
</g>
<!-- Node7&#45;&gt;Node4 -->
<g id="edge10" class="edge"><title>Node7&#45;&gt;Node4</title>
<path fill="none" stroke="#9a32cd" stroke-dasharray="5,2" d="M545.689,-626.478C598.14,-615.817 673.539,-600.492 711.406,-592.796"/>
<polygon fill="#9a32cd" stroke="#9a32cd" points="544.952,-623.056 535.85,-628.478 546.347,-629.916 544.952,-623.056"/>
<text text-anchor="middle" x="609" y="-625" font-family="Arial" font-size="10.00"> eventCallbacks</text>
</g>
<!-- Node7&#45;&gt;Node5 -->
<g id="edge7" class="edge"><title>Node7&#45;&gt;Node5</title>
<path fill="none" stroke="#9a32cd" stroke-dasharray="5,2" d="M549.184,-649.261C584.281,-655.255 629.483,-661.995 670,-665 767.546,-672.236 793.36,-674.108 890,-659 907.316,-656.293 926.359,-651.677 941.628,-647.561"/>
<polygon fill="#9a32cd" stroke="#9a32cd" points="549.552,-645.773 539.101,-647.512 548.355,-652.67 549.552,-645.773"/>
<text text-anchor="middle" x="736" y="-673" font-family="Arial" font-size="10.00"> eventCallbacks</text>
</g>
<!-- Node8 -->
<g id="node8" class="node"><title>Node8</title>
<g id="a_node8"><a xlink:href="classid_event_def.html" target="_top" xlink:title="idEventDef">
<polygon fill="white" stroke="black" points="234,-628.5 234,-647.5 296,-647.5 296,-628.5 234,-628.5"/>
<text text-anchor="middle" x="265" y="-635.5" font-family="Arial" font-size="10.00">idEventDef</text>
</a>
</g>
</g>
<!-- Node8&#45;&gt;Node7 -->
<g id="edge8" class="edge"><title>Node8&#45;&gt;Node7</title>
<path fill="none" stroke="#9a32cd" stroke-dasharray="5,2" d="M306.282,-638C340.209,-638 389.214,-638 427.636,-638"/>
<polygon fill="#9a32cd" stroke="#9a32cd" points="306.266,-634.5 296.266,-638 306.266,-641.5 306.266,-634.5"/>
<text text-anchor="middle" x="374" y="-641" font-family="Arial" font-size="10.00"> event</text>
</g>
<!-- Node9 -->
<g id="node9" class="node"><title>Node9</title>
<g id="a_node9"><a xlink:href="classid_str.html" target="_top" xlink:title="idStr">
<polygon fill="white" stroke="black" points="717.5,-85.5 717.5,-104.5 754.5,-104.5 754.5,-85.5 717.5,-85.5"/>
<text text-anchor="middle" x="736" y="-92.5" font-family="Arial" font-size="10.00">idStr</text>
</a>
</g>
</g>
<!-- Node9&#45;&gt;Node2 -->
<g id="edge45" class="edge"><title>Node9&#45;&gt;Node2</title>
<path fill="none" stroke="#9a32cd" stroke-dasharray="5,2" d="M764.746,-96.6113C817.924,-100.099 937.65,-109.888 1036,-132 1061.03,-137.628 1088.95,-145.989 1109.24,-152.455"/>
<polygon fill="#9a32cd" stroke="#9a32cd" points="764.933,-93.1162 754.732,-95.9781 764.491,-100.102 764.933,-93.1162"/>
<text text-anchor="middle" x="972" y="-135" font-family="Arial" font-size="10.00"> systemName</text>
</g>
<!-- Node9&#45;&gt;Node3 -->
<g id="edge13" class="edge"><title>Node9&#45;&gt;Node3</title>
<path fill="none" stroke="#9a32cd" stroke-dasharray="5,2" d="M764.865,-97.9314C803.798,-102.559 871.76,-112.738 890,-129 908.255,-145.275 897.511,-158.907 908,-181 924.961,-216.724 951.449,-255.606 963.979,-273.28"/>
<polygon fill="#9a32cd" stroke="#9a32cd" points="765.052,-94.4301 754.719,-96.7731 764.258,-101.385 765.052,-94.4301"/>
<text text-anchor="middle" x="855" y="-132" font-family="Arial" font-size="10.00"> name</text>
</g>
<!-- Node32 -->
<g id="node32" class="node"><title>Node32</title>
<g id="a_node32"><a xlink:href="classid_decl_f_x.html" target="_top" xlink:title="idDeclFX">
<polygon fill="white" stroke="black" points="944.5,-32.5 944.5,-51.5 999.5,-51.5 999.5,-32.5 944.5,-32.5"/>
<text text-anchor="middle" x="972" y="-39.5" font-family="Arial" font-size="10.00">idDeclFX</text>
</a>
</g>
</g>
<!-- Node9&#45;&gt;Node32 -->
<g id="edge49" class="edge"><title>Node9&#45;&gt;Node32</title>
<path fill="none" stroke="#9a32cd" stroke-dasharray="5,2" d="M764.472,-85.9017C780.54,-80.7875 801.284,-74.5395 820,-70 863.142,-59.536 914.04,-50.8391 944.355,-46.0371"/>
<polygon fill="#9a32cd" stroke="#9a32cd" points="763.098,-82.6672 754.656,-89.0693 765.248,-89.3289 763.098,-82.6672"/>
<text text-anchor="middle" x="855" y="-73" font-family="Arial" font-size="10.00"> joint</text>
</g>
<!-- Node10 -->
<g id="node10" class="node"><title>Node10</title>
<g id="a_node10"><a xlink:href="structid_entity_1_1entity_flags__s.html" target="_top" xlink:title="idEntity::entityFlags_s">
<polygon fill="white" stroke="black" points="679,-273.5 679,-292.5 793,-292.5 793,-273.5 679,-273.5"/>
<text text-anchor="middle" x="736" y="-280.5" font-family="Arial" font-size="10.00">idEntity::entityFlags_s</text>
</a>
</g>
</g>
<!-- Node10&#45;&gt;Node3 -->
<g id="edge14" class="edge"><title>Node10&#45;&gt;Node3</title>
<path fill="none" stroke="#9a32cd" stroke-dasharray="5,2" d="M803.347,-283C851.233,-283 913.149,-283 946.731,-283"/>
<polygon fill="#9a32cd" stroke="#9a32cd" points="803.049,-279.5 793.049,-283 803.049,-286.5 803.049,-279.5"/>
<text text-anchor="middle" x="855" y="-286" font-family="Arial" font-size="10.00"> fl</text>
</g>
<!-- Node11 -->
<g id="node11" class="node"><title>Node11</title>
<g id="a_node11"><a xlink:href="structrender_view__s.html" target="_top" xlink:title="renderView_s">
<polygon fill="white" stroke="black" points="450.5,-496.5 450.5,-515.5 525.5,-515.5 525.5,-496.5 450.5,-496.5"/>
<text text-anchor="middle" x="488" y="-503.5" font-family="Arial" font-size="10.00">renderView_s</text>
</a>
</g>
</g>
<!-- Node11&#45;&gt;Node3 -->
<g id="edge15" class="edge"><title>Node11&#45;&gt;Node3</title>
<path fill="none" stroke="#9a32cd" stroke-dasharray="5,2" d="M536.021,-507.801C617.233,-508.427 785.132,-498.483 890,-414 932.479,-379.779 958.693,-316.911 967.59,-292.783"/>
<polygon fill="#9a32cd" stroke="#9a32cd" points="535.667,-504.296 525.62,-507.659 535.571,-511.296 535.667,-504.296"/>
<text text-anchor="middle" x="736" y="-501" font-family="Arial" font-size="10.00"> renderView</text>
</g>
<!-- Node19 -->
<g id="node19" class="node"><title>Node19</title>
<g id="a_node19"><a xlink:href="structrender_entity__s.html" target="_top" xlink:title="renderEntity_s">
<polygon fill="white" stroke="black" points="696,-349.5 696,-368.5 776,-368.5 776,-349.5 696,-349.5"/>
<text text-anchor="middle" x="736" y="-356.5" font-family="Arial" font-size="10.00">renderEntity_s</text>
</a>
</g>
</g>
<!-- Node11&#45;&gt;Node19 -->
<g id="edge28" class="edge"><title>Node11&#45;&gt;Node19</title>
<path fill="none" stroke="#9a32cd" stroke-dasharray="5,2" d="M535.518,-494.299C583.308,-482.236 650.905,-465.038 652,-464 671.283,-445.726 654.557,-428.617 670,-407 681.987,-390.22 701.64,-376.884 716.202,-368.57"/>
<polygon fill="#9a32cd" stroke="#9a32cd" points="534.492,-490.948 525.652,-496.787 536.204,-497.735 534.492,-490.948"/>
<text text-anchor="middle" x="609" y="-489" font-family="Arial" font-size="10.00"> remoteRenderView</text>
</g>
<!-- Node12 -->
<g id="node12" class="node"><title>Node12</title>
<g id="a_node12"><a xlink:href="classid_mat3.html" target="_top" xlink:title="idMat3">
<polygon fill="white" stroke="black" points="242,-444.5 242,-463.5 288,-463.5 288,-444.5 242,-444.5"/>
<text text-anchor="middle" x="265" y="-451.5" font-family="Arial" font-size="10.00">idMat3</text>
</a>
</g>
</g>
<!-- Node12&#45;&gt;Node11 -->
<g id="edge16" class="edge"><title>Node12&#45;&gt;Node11</title>
<path fill="none" stroke="#9a32cd" stroke-dasharray="5,2" d="M298.28,-461.595C338.724,-471.112 407.861,-487.379 450.283,-497.361"/>
<polygon fill="#9a32cd" stroke="#9a32cd" points="298.943,-458.156 288.407,-459.272 297.339,-464.97 298.943,-458.156"/>
<text text-anchor="middle" x="374" y="-491" font-family="Arial" font-size="10.00"> viewaxis</text>
</g>
<!-- Node12&#45;&gt;Node19 -->
<g id="edge24" class="edge"><title>Node12&#45;&gt;Node19</title>
<path fill="none" stroke="#9a32cd" stroke-dasharray="5,2" d="M298.649,-449.121C365.43,-438.893 522.276,-413.606 652,-383 669.665,-378.832 689.174,-373.243 704.837,-368.506"/>
<polygon fill="#9a32cd" stroke="#9a32cd" points="297.714,-445.722 288.354,-450.687 298.767,-452.643 297.714,-445.722"/>
<text text-anchor="middle" x="488" y="-431" font-family="Arial" font-size="10.00"> axis</text>
</g>
<!-- Node13 -->
<g id="node13" class="node"><title>Node13</title>
<g id="a_node13"><a xlink:href="classid_vec3.html" target="_top" xlink:title="idVec3">
<polygon fill="white" stroke="black" points="241.5,-371.5 241.5,-390.5 288.5,-390.5 288.5,-371.5 241.5,-371.5"/>
<text text-anchor="middle" x="265" y="-378.5" font-family="Arial" font-size="10.00">idVec3</text>
</a>
</g>
</g>
<!-- Node13&#45;&gt;Node11 -->
<g id="edge17" class="edge"><title>Node13&#45;&gt;Node11</title>
<path fill="none" stroke="#9a32cd" stroke-dasharray="5,2" d="M298.303,-392.552C329.643,-404.986 377.155,-427.206 410,-458 421.067,-468.375 416.048,-477.658 428,-487 434.528,-492.103 442.467,-495.855 450.378,-498.607"/>
<polygon fill="#9a32cd" stroke="#9a32cd" points="299.324,-389.195 288.734,-388.861 296.804,-395.726 299.324,-389.195"/>
<text text-anchor="middle" x="374" y="-461" font-family="Arial" font-size="10.00"> vieworg</text>
</g>
<!-- Node13&#45;&gt;Node19 -->
<g id="edge32" class="edge"><title>Node13&#45;&gt;Node19</title>
<path fill="none" stroke="#9a32cd" stroke-dasharray="5,2" d="M298.931,-380.223C365.614,-378.539 521.38,-374.042 652,-366 666.289,-365.12 681.939,-363.874 695.761,-362.676"/>
<polygon fill="#9a32cd" stroke="#9a32cd" points="298.552,-376.731 288.642,-380.478 298.726,-383.729 298.552,-376.731"/>
<text text-anchor="middle" x="488" y="-380" font-family="Arial" font-size="10.00"> origin</text>
</g>
<!-- Node27 -->
<g id="node27" class="node"><title>Node27</title>
<g id="a_node27"><a xlink:href="structref_sound__t.html" target="_top" xlink:title="refSound_t">
<polygon fill="white" stroke="black" points="456.5,-118.5 456.5,-137.5 519.5,-137.5 519.5,-118.5 456.5,-118.5"/>
<text text-anchor="middle" x="488" y="-125.5" font-family="Arial" font-size="10.00">refSound_t</text>
</a>
</g>
</g>
<!-- Node13&#45;&gt;Node27 -->
<g id="edge42" class="edge"><title>Node13&#45;&gt;Node27</title>
<path fill="none" stroke="#9a32cd" stroke-dasharray="5,2" d="M298.44,-368.085C336.556,-352.227 396.351,-324.981 410,-305 449.866,-246.64 383.211,-201.673 428,-147 435.024,-138.426 445.947,-133.675 456.494,-131.06"/>
<polygon fill="#9a32cd" stroke="#9a32cd" points="296.709,-365.012 288.79,-372.05 299.369,-371.487 296.709,-365.012"/>
<text text-anchor="middle" x="374" y="-354" font-family="Arial" font-size="10.00"> origin</text>
</g>
<!-- Node14 -->
<g id="node14" class="node"><title>Node14</title>
<g id="a_node14"><a xlink:href="classid_material.html" target="_top" xlink:title="idMaterial">
<polygon fill="white" stroke="black" points="235.5,-497.5 235.5,-516.5 294.5,-516.5 294.5,-497.5 235.5,-497.5"/>
<text text-anchor="middle" x="265" y="-504.5" font-family="Arial" font-size="10.00">idMaterial</text>
</a>
</g>
</g>
<!-- Node14&#45;&gt;Node11 -->
<g id="edge18" class="edge"><title>Node14&#45;&gt;Node11</title>
<path fill="none" stroke="#9a32cd" stroke-dasharray="5,2" d="M305.063,-506.823C346.134,-506.637 410.25,-506.347 450.379,-506.166"/>
<polygon fill="#9a32cd" stroke="#9a32cd" points="304.876,-503.324 294.892,-506.869 304.908,-510.324 304.876,-503.324"/>
<text text-anchor="middle" x="374" y="-510" font-family="Arial" font-size="10.00"> globalMaterial</text>
</g>
<!-- Node14&#45;&gt;Node19 -->
<g id="edge34" class="edge"><title>Node14&#45;&gt;Node19</title>
<path fill="none" stroke="#9a32cd" stroke-dasharray="5,2" d="M299.961,-520.116C375.688,-546.892 559.006,-597.558 652,-501 681.507,-470.362 647.334,-442.995 670,-407 680.839,-389.787 700.252,-376.674 715.05,-368.539"/>
<polygon fill="#9a32cd" stroke="#9a32cd" points="301.023,-516.779 290.429,-516.67 298.643,-523.362 301.023,-516.779"/>
<text text-anchor="middle" x="488" y="-572" font-family="Arial" font-size="10.00"> customShader</text>
<text text-anchor="middle" x="488" y="-561" font-family="Arial" font-size="10.00">referenceShader</text>
</g>
<!-- Node15 -->
<g id="node15" class="node"><title>Node15</title>
<g id="a_node15"><a xlink:href="classid_decl.html" target="_top" xlink:title="idDecl">
<polygon fill="white" stroke="black" points="128,-222.5 128,-241.5 172,-241.5 172,-222.5 128,-222.5"/>
<text text-anchor="middle" x="150" y="-229.5" font-family="Arial" font-size="10.00">idDecl</text>
</a>
</g>
</g>
<!-- Node15&#45;&gt;Node14 -->
<g id="edge19" class="edge"><title>Node15&#45;&gt;Node14</title>
<path fill="none" stroke="midnightblue" d="M151.015,-252.047C152.014,-296.19 159.831,-403.388 210,-473 217.708,-483.695 229.918,-491.794 240.78,-497.399"/>
<polygon fill="midnightblue" stroke="midnightblue" points="154.512,-251.751 150.885,-241.796 147.512,-251.839 154.512,-251.751"/>
</g>
<!-- Node20 -->
<g id="node20" class="node"><title>Node20</title>
<g id="a_node20"><a xlink:href="classid_decl_skin.html" target="_top" xlink:title="idDeclSkin">
<polygon fill="white" stroke="black" points="342.5,-276.5 342.5,-295.5 405.5,-295.5 405.5,-276.5 342.5,-276.5"/>
<text text-anchor="middle" x="374" y="-283.5" font-family="Arial" font-size="10.00">idDeclSkin</text>
</a>
</g>
</g>
<!-- Node15&#45;&gt;Node20 -->
<g id="edge26" class="edge"><title>Node15&#45;&gt;Node20</title>
<path fill="none" stroke="midnightblue" d="M182.064,-239.556C224.479,-249.873 300.053,-268.256 342.285,-278.529"/>
<polygon fill="midnightblue" stroke="midnightblue" points="182.83,-236.141 172.286,-237.178 181.176,-242.942 182.83,-236.141"/>
</g>
<!-- Node29 -->
<g id="node29" class="node"><title>Node29</title>
<g id="a_node29"><a xlink:href="classid_sound_shader.html" target="_top" xlink:title="idSoundShader">
<polygon fill="white" stroke="black" points="223.5,-118.5 223.5,-137.5 306.5,-137.5 306.5,-118.5 223.5,-118.5"/>
<text text-anchor="middle" x="265" y="-125.5" font-family="Arial" font-size="10.00">idSoundShader</text>
</a>
</g>
</g>
<!-- Node15&#45;&gt;Node29 -->
<g id="edge40" class="edge"><title>Node15&#45;&gt;Node29</title>
<path fill="none" stroke="midnightblue" d="M159.678,-213.135C169.397,-193.956 186.868,-164.628 210,-147 215.059,-143.145 220.964,-140.03 226.975,-137.525"/>
<polygon fill="midnightblue" stroke="midnightblue" points="156.416,-211.84 155.201,-222.365 162.714,-214.895 156.416,-211.84"/>
</g>
<!-- Node15&#45;&gt;Node32 -->
<g id="edge48" class="edge"><title>Node15&#45;&gt;Node32</title>
<path fill="none" stroke="midnightblue" d="M151.52,-212.244C154.145,-156.161 169.903,-0 264,-0 264,-0 264,-0 737,-0 813.151,-0 901.08,-21.8153 944.256,-34.0013"/>
<polygon fill="midnightblue" stroke="midnightblue" points="148.019,-212.203 151.143,-222.327 155.014,-212.464 148.019,-212.203"/>
</g>
<!-- Node16 -->
<g id="node16" class="node"><title>Node16</title>
<g id="a_node16"><a xlink:href="classid_decl_base.html" target="_top" xlink:title="idDeclBase">
<polygon fill="white" stroke="black" points="0,-222.5 0,-241.5 66,-241.5 66,-222.5 0,-222.5"/>
<text text-anchor="middle" x="33" y="-229.5" font-family="Arial" font-size="10.00">idDeclBase</text>
</a>
</g>
</g>
<!-- Node16&#45;&gt;Node15 -->
<g id="edge20" class="edge"><title>Node16&#45;&gt;Node15</title>
<path fill="none" stroke="#9a32cd" stroke-dasharray="5,2" d="M76.0643,-232C93.5984,-232 113.201,-232 127.664,-232"/>
<polygon fill="#9a32cd" stroke="#9a32cd" points="76.0339,-228.5 66.0339,-232 76.0339,-235.5 76.0339,-228.5"/>
<text text-anchor="middle" x="97" y="-235" font-family="Arial" font-size="10.00"> base</text>
</g>
<!-- Node17 -->
<g id="node17" class="node"><title>Node17</title>
<g id="a_node17"><a xlink:href="classid_list.html" target="_top" xlink:title="idList\&lt; idEntityPtr\l\&lt; idEntity \&gt; \&gt;">
<polygon fill="white" stroke="black" points="688.5,-177 688.5,-207 783.5,-207 783.5,-177 688.5,-177"/>
<text text-anchor="start" x="696.5" y="-195" font-family="Arial" font-size="10.00">idList&lt; idEntityPtr</text>
<text text-anchor="middle" x="736" y="-184" font-family="Arial" font-size="10.00">&lt; idEntity &gt; &gt;</text>
</a>
</g>
</g>
<!-- Node17&#45;&gt;Node3 -->
<g id="edge21" class="edge"><title>Node17&#45;&gt;Node3</title>
<path fill="none" stroke="#9a32cd" stroke-dasharray="5,2" d="M793.795,-195.332C823.494,-198.707 859.84,-205.471 890,-219 919.761,-232.351 948.146,-259.066 962.069,-273.395"/>
<polygon fill="#9a32cd" stroke="#9a32cd" points="793.897,-191.824 783.589,-194.274 793.175,-198.787 793.897,-191.824"/>
<text text-anchor="middle" x="855" y="-222" font-family="Arial" font-size="10.00"> targets</text>
</g>
<!-- Node18 -->
<g id="node18" class="node"><title>Node18</title>
<g id="a_node18"><a xlink:href="classid_link_list.html" target="_top" xlink:title="idLinkList\&lt; idEntity \&gt;">
<polygon fill="white" stroke="black" points="681.5,-138.5 681.5,-157.5 790.5,-157.5 790.5,-138.5 681.5,-138.5"/>
<text text-anchor="middle" x="736" y="-145.5" font-family="Arial" font-size="10.00">idLinkList&lt; idEntity &gt;</text>
</a>
</g>
</g>
<!-- Node18&#45;&gt;Node3 -->
<g id="edge22" class="edge"><title>Node18&#45;&gt;Node3</title>
<path fill="none" stroke="#9a32cd" stroke-dasharray="5,2" d="M800.82,-142.337C829.85,-142.634 863.542,-147.234 890,-163 901.336,-169.755 948.58,-246.177 965.192,-273.423"/>
<polygon fill="#9a32cd" stroke="#9a32cd" points="800.744,-138.837 790.766,-142.4 800.788,-145.837 800.744,-138.837"/>
<text text-anchor="middle" x="855" y="-188" font-family="Arial" font-size="10.00"> spawnNode</text>
<text text-anchor="middle" x="855" y="-177" font-family="Arial" font-size="10.00">snapshotNode</text>
<text text-anchor="middle" x="855" y="-166" font-family="Arial" font-size="10.00">activeNode</text>
</g>
<!-- Node19&#45;&gt;Node3 -->
<g id="edge23" class="edge"><title>Node19&#45;&gt;Node3</title>
<path fill="none" stroke="#9a32cd" stroke-dasharray="5,2" d="M786.057,-350.932C816.509,-345.156 856.154,-336.229 890,-324 913.569,-315.484 939.107,-301.73 955.077,-292.53"/>
<polygon fill="#9a32cd" stroke="#9a32cd" points="785.301,-347.513 776.103,-352.771 786.573,-354.396 785.301,-347.513"/>
<text text-anchor="middle" x="855" y="-346" font-family="Arial" font-size="10.00"> renderEntity</text>
</g>
<!-- Node19&#45;&gt;Node19 -->
<g id="edge33" class="edge"><title>Node19&#45;&gt;Node19</title>
<path fill="none" stroke="#9a32cd" stroke-dasharray="5,2" d="M714.051,-378.029C715.248,-383.128 722.564,-387 736,-387 756.973,-387 763.035,-377.565 754.187,-368.757"/>
<polygon fill="#9a32cd" stroke="#9a32cd" points="717.296,-379.339 717.813,-368.757 710.81,-376.707 717.296,-379.339"/>
<text text-anchor="middle" x="736" y="-390" font-family="Arial" font-size="10.00"> callback</text>
</g>
<!-- Node20&#45;&gt;Node19 -->
<g id="edge25" class="edge"><title>Node20&#45;&gt;Node19</title>
<path fill="none" stroke="#9a32cd" stroke-dasharray="5,2" d="M415.911,-288.861C451.15,-291.769 503.249,-297.132 548,-306 563.226,-309.017 653.169,-335.077 702.558,-349.497"/>
<polygon fill="#9a32cd" stroke="#9a32cd" points="415.79,-285.34 405.544,-288.036 415.235,-292.318 415.79,-285.34"/>
<text text-anchor="middle" x="488" y="-309" font-family="Arial" font-size="10.00"> customSkin</text>
</g>
<!-- Node21 -->
<g id="node21" class="node"><title>Node21</title>
<g id="a_node21"><a xlink:href="classid_joint_mat.html" target="_top" xlink:title="idJointMat">
<polygon fill="white" stroke="black" points="457.5,-326.5 457.5,-345.5 518.5,-345.5 518.5,-326.5 457.5,-326.5"/>
<text text-anchor="middle" x="488" y="-333.5" font-family="Arial" font-size="10.00">idJointMat</text>
</a>
</g>
</g>
<!-- Node21&#45;&gt;Node19 -->
<g id="edge27" class="edge"><title>Node21&#45;&gt;Node19</title>
<path fill="none" stroke="#9a32cd" stroke-dasharray="5,2" d="M528.874,-339.728C574.92,-344.033 650.179,-351.07 695.896,-355.344"/>
<polygon fill="#9a32cd" stroke="#9a32cd" points="528.956,-336.221 518.673,-338.774 528.304,-343.19 528.956,-336.221"/>
<text text-anchor="middle" x="609" y="-354" font-family="Arial" font-size="10.00"> joints</text>
</g>
<!-- Node22 -->
<g id="node22" class="node"><title>Node22</title>
<g id="a_node22"><a xlink:href="classid_sound_emitter.html" target="_top" xlink:title="idSoundEmitter">
<polygon fill="white" stroke="black" points="223.5,-205.5 223.5,-224.5 306.5,-224.5 306.5,-205.5 223.5,-205.5"/>
<text text-anchor="middle" x="265" y="-212.5" font-family="Arial" font-size="10.00">idSoundEmitter</text>
</a>
</g>
</g>
<!-- Node22&#45;&gt;Node19 -->
<g id="edge29" class="edge"><title>Node22&#45;&gt;Node19</title>
<path fill="none" stroke="#9a32cd" stroke-dasharray="5,2" d="M316.602,-221.562C409.074,-234.426 600.585,-265.374 652,-307 664.985,-317.512 656.988,-329.522 670,-340 677.417,-345.973 686.648,-350.068 695.803,-352.876"/>
<polygon fill="#9a32cd" stroke="#9a32cd" points="317.016,-218.086 306.632,-220.192 316.063,-225.021 317.016,-218.086"/>
<text text-anchor="middle" x="488" y="-268" font-family="Arial" font-size="10.00"> referenceSound</text>
</g>
<!-- Node22&#45;&gt;Node27 -->
<g id="edge41" class="edge"><title>Node22&#45;&gt;Node27</title>
<path fill="none" stroke="#9a32cd" stroke-dasharray="5,2" d="M316.763,-206.92C345.964,-200.456 382.246,-189.184 410,-170 420.678,-162.619 417.354,-154.427 428,-147 436.384,-141.151 446.671,-137.026 456.293,-134.152"/>
<polygon fill="#9a32cd" stroke="#9a32cd" points="315.827,-203.54 306.755,-209.012 317.259,-210.392 315.827,-203.54"/>
<text text-anchor="middle" x="374" y="-205" font-family="Arial" font-size="10.00"> referenceSound</text>
</g>
<!-- Node23 -->
<g id="node23" class="node"><title>Node23</title>
<g id="a_node23"><a xlink:href="classid_render_model.html" target="_top" xlink:title="idRenderModel">
<polygon fill="white" stroke="black" points="447.5,-194.5 447.5,-213.5 528.5,-213.5 528.5,-194.5 447.5,-194.5"/>
<text text-anchor="middle" x="488" y="-201.5" font-family="Arial" font-size="10.00">idRenderModel</text>
</a>
</g>
</g>
<!-- Node23&#45;&gt;Node19 -->
<g id="edge30" class="edge"><title>Node23&#45;&gt;Node19</title>
<path fill="none" stroke="#9a32cd" stroke-dasharray="5,2" d="M538.66,-204.051C580.6,-205.201 636.274,-209.695 652,-225 689.074,-261.081 635.855,-301.135 670,-340 676.673,-347.596 686.199,-352.233 695.906,-355.041"/>
<polygon fill="#9a32cd" stroke="#9a32cd" points="538.671,-200.551 528.597,-203.831 538.518,-207.549 538.671,-200.551"/>
<text text-anchor="middle" x="609" y="-228" font-family="Arial" font-size="10.00"> hModel</text>
</g>
<!-- Node24 -->
<g id="node24" class="node"><title>Node24</title>
<g id="a_node24"><a xlink:href="classid_bounds.html" target="_top" xlink:title="idBounds">
<polygon fill="white" stroke="black" points="459.5,-156.5 459.5,-175.5 516.5,-175.5 516.5,-156.5 459.5,-156.5"/>
<text text-anchor="middle" x="488" y="-163.5" font-family="Arial" font-size="10.00">idBounds</text>
</a>
</g>
</g>
<!-- Node24&#45;&gt;Node19 -->
<g id="edge31" class="edge"><title>Node24&#45;&gt;Node19</title>
<path fill="none" stroke="#9a32cd" stroke-dasharray="5,2" d="M526.804,-166.677C569.477,-168.29 635.163,-173.616 652,-191 698.407,-238.914 626.859,-289.125 670,-340 676.539,-347.712 686.02,-352.386 695.729,-355.194"/>
<polygon fill="#9a32cd" stroke="#9a32cd" points="526.867,-163.177 516.758,-166.349 526.638,-170.173 526.867,-163.177"/>
<text text-anchor="middle" x="609" y="-194" font-family="Arial" font-size="10.00"> bounds</text>
</g>
<!-- Node25 -->
<g id="node25" class="node"><title>Node25</title>
<g id="a_node25"><a xlink:href="classid_user_interface.html" target="_top" xlink:title="idUserInterface">
<polygon fill="white" stroke="black" points="447.5,-458.5 447.5,-477.5 528.5,-477.5 528.5,-458.5 447.5,-458.5"/>
<text text-anchor="middle" x="488" y="-465.5" font-family="Arial" font-size="10.00">idUserInterface</text>
</a>
</g>
</g>
<!-- Node25&#45;&gt;Node19 -->
<g id="edge35" class="edge"><title>Node25&#45;&gt;Node19</title>
<path fill="none" stroke="#9a32cd" stroke-dasharray="5,2" d="M538.751,-458.142C583.068,-449.078 642.37,-436.144 652,-430 662.943,-423.018 660.694,-416.049 670,-407 685.488,-391.939 705.864,-377.628 719.642,-368.615"/>
<polygon fill="#9a32cd" stroke="#9a32cd" points="537.8,-454.764 528.698,-460.185 539.194,-461.623 537.8,-454.764"/>
<text text-anchor="middle" x="609" y="-455" font-family="Arial" font-size="10.00"> gui</text>
</g>
<!-- Node26 -->
<g id="node26" class="node"><title>Node26</title>
<g id="a_node26"><a xlink:href="classid_dict.html" target="_top" xlink:title="idDict">
<polygon fill="white" stroke="black" points="715.5,-416.5 715.5,-435.5 756.5,-435.5 756.5,-416.5 715.5,-416.5"/>
<text text-anchor="middle" x="736" y="-423.5" font-family="Arial" font-size="10.00">idDict</text>
</a>
</g>
</g>
<!-- Node26&#45;&gt;Node3 -->
<g id="edge36" class="edge"><title>Node26&#45;&gt;Node3</title>
<path fill="none" stroke="#9a32cd" stroke-dasharray="5,2" d="M766.563,-418.861C777.847,-415.749 790.707,-411.725 802,-407 843.297,-389.723 853.763,-384.283 890,-358 918.546,-337.296 947.902,-307.609 962.156,-292.548"/>
<polygon fill="#9a32cd" stroke="#9a32cd" points="765.509,-415.52 756.734,-421.457 767.296,-422.288 765.509,-415.52"/>
<text text-anchor="middle" x="855" y="-402" font-family="Arial" font-size="10.00"> spawnArgs</text>
</g>
<!-- Node27&#45;&gt;Node3 -->
<g id="edge37" class="edge"><title>Node27&#45;&gt;Node3</title>
<path fill="none" stroke="#9a32cd" stroke-dasharray="5,2" d="M529.739,-128.804C565.926,-131.613 618.178,-141.089 652,-171 668.136,-185.27 653.59,-202.047 670,-216 691.361,-234.163 879.344,-267.469 946.929,-278.969"/>
<polygon fill="#9a32cd" stroke="#9a32cd" points="529.727,-125.297 519.525,-128.154 529.283,-132.283 529.727,-125.297"/>
<text text-anchor="middle" x="736" y="-256" font-family="Arial" font-size="10.00"> refSound</text>
</g>
<!-- Node28 -->
<g id="node28" class="node"><title>Node28</title>
<g id="a_node28"><a xlink:href="structsound_shader_parms__t.html" target="_top" xlink:title="soundShaderParms_t">
<polygon fill="white" stroke="black" points="210,-156.5 210,-175.5 320,-175.5 320,-156.5 210,-156.5"/>
<text text-anchor="middle" x="265" y="-163.5" font-family="Arial" font-size="10.00">soundShaderParms_t</text>
</a>
</g>
</g>
<!-- Node28&#45;&gt;Node27 -->
<g id="edge38" class="edge"><title>Node28&#45;&gt;Node27</title>
<path fill="none" stroke="#9a32cd" stroke-dasharray="5,2" d="M330.171,-156.229C355.123,-152.304 383.927,-147.62 410,-143 425.288,-140.291 442.229,-137.02 456.32,-134.225"/>
<polygon fill="#9a32cd" stroke="#9a32cd" points="329.433,-152.802 320.094,-157.806 330.515,-159.718 329.433,-152.802"/>
<text text-anchor="middle" x="374" y="-158" font-family="Arial" font-size="10.00"> parms</text>
</g>
<!-- Node29&#45;&gt;Node27 -->
<g id="edge39" class="edge"><title>Node29&#45;&gt;Node27</title>
<path fill="none" stroke="#9a32cd" stroke-dasharray="5,2" d="M316.542,-128C359.641,-128 420.193,-128 456.325,-128"/>
<polygon fill="#9a32cd" stroke="#9a32cd" points="316.535,-124.5 306.535,-128 316.535,-131.5 316.535,-124.5"/>
<text text-anchor="middle" x="374" y="-131" font-family="Arial" font-size="10.00"> shader</text>
</g>
<!-- Node30 -->
<g id="node30" class="node"><title>Node30</title>
<g id="a_node30"><a xlink:href="classid_script_object.html" target="_top" xlink:title="idScriptObject">
<polygon fill="white" stroke="black" points="697,-311.5 697,-330.5 775,-330.5 775,-311.5 697,-311.5"/>
<text text-anchor="middle" x="736" y="-318.5" font-family="Arial" font-size="10.00">idScriptObject</text>
</a>
</g>
</g>
<!-- Node30&#45;&gt;Node3 -->
<g id="edge43" class="edge"><title>Node30&#45;&gt;Node3</title>
<path fill="none" stroke="#9a32cd" stroke-dasharray="5,2" d="M785.341,-314.161C815.481,-309.791 855.047,-303.862 890,-298 909.182,-294.783 930.844,-290.751 946.937,-287.677"/>
<polygon fill="#9a32cd" stroke="#9a32cd" points="784.495,-310.747 775.097,-315.639 785.494,-317.675 784.495,-310.747"/>
<text text-anchor="middle" x="855" y="-312" font-family="Arial" font-size="10.00"> scriptObject</text>
</g>
<!-- Node31 -->
<g id="node31" class="node"><title>Node31</title>
<g id="a_node31"><a xlink:href="classid_list.html" target="_top" xlink:title="idList\&lt; idFXLocalAction \&gt;">
<polygon fill="white" stroke="black" points="908,-152.5 908,-171.5 1036,-171.5 1036,-152.5 908,-152.5"/>
<text text-anchor="middle" x="972" y="-159.5" font-family="Arial" font-size="10.00">idList&lt; idFXLocalAction &gt;</text>
</a>
</g>
</g>
<!-- Node31&#45;&gt;Node2 -->
<g id="edge46" class="edge"><title>Node31&#45;&gt;Node2</title>
<path fill="none" stroke="#9a32cd" stroke-dasharray="5,2" d="M1046.57,-162C1068.33,-162 1090.93,-162 1108.22,-162"/>
<polygon fill="#9a32cd" stroke="#9a32cd" points="1046.32,-158.5 1036.32,-162 1046.32,-165.5 1046.32,-158.5"/>
<text text-anchor="middle" x="1072" y="-165" font-family="Arial" font-size="10.00"> actions</text>
</g>
<!-- Node32&#45;&gt;Node2 -->
<g id="edge47" class="edge"><title>Node32&#45;&gt;Node2</title>
<path fill="none" stroke="#9a32cd" stroke-dasharray="5,2" d="M1010.04,-43.0508C1034.93,-45.4976 1067.23,-52.2415 1090,-70 1117.7,-91.6055 1131.05,-133.676 1135.84,-152.499"/>
<polygon fill="#9a32cd" stroke="#9a32cd" points="1010.12,-39.5461 999.87,-42.2456 1009.56,-46.5242 1010.12,-39.5461"/>
<text text-anchor="middle" x="1072" y="-73" font-family="Arial" font-size="10.00"> fxEffect</text>
</g>
<!-- Node33 -->
<g id="node33" class="node"><title>Node33</title>
<g id="a_node33"><a xlink:href="classid_list.html" target="_top" xlink:title="idList\&lt; idFXSingleAction \&gt;">
<polygon fill="white" stroke="black" points="670.5,-28.5 670.5,-47.5 801.5,-47.5 801.5,-28.5 670.5,-28.5"/>
<text text-anchor="middle" x="736" y="-35.5" font-family="Arial" font-size="10.00">idList&lt; idFXSingleAction &gt;</text>
</a>
</g>
</g>
<!-- Node33&#45;&gt;Node32 -->
<g id="edge50" class="edge"><title>Node33&#45;&gt;Node32</title>
<path fill="none" stroke="#9a32cd" stroke-dasharray="5,2" d="M811.88,-35.5256C836.744,-35.1028 864.568,-35.0594 890,-36 908.178,-36.6723 928.604,-38.1906 944.396,-39.5316"/>
<polygon fill="#9a32cd" stroke="#9a32cd" points="811.716,-32.028 801.785,-35.7203 811.851,-39.0267 811.716,-32.028"/>
<text text-anchor="middle" x="855" y="-39" font-family="Arial" font-size="10.00"> events</text>
</g>
</g>
</svg>
