<?xml version="1.0" encoding="UTF-8" standalone="no"?>
<!DOCTYPE svg PUBLIC "-//W3C//DTD SVG 1.1//EN"
 "http://www.w3.org/Graphics/SVG/1.1/DTD/svg11.dtd">
<!-- Generated by graphviz version 2.34.0 (20130907.0111)
 -->
<!-- Title: CPropTreeView Pages: 1 -->
<svg width="261pt" height="140pt"
 viewBox="0.00 0.00 261.00 140.00" xmlns="http://www.w3.org/2000/svg" xmlns:xlink="http://www.w3.org/1999/xlink">
<g id="graph0" class="graph" transform="scale(1 1) rotate(0) translate(4 136)">
<title>CPropTreeView</title>
<polygon fill="white" stroke="white" points="-4,4 -4,-136 257,-136 257,4 -4,4"/>
<!-- Node1 -->
<g id="node1" class="node"><title>Node1</title>
<polygon fill="#bfbfbf" stroke="black" points="88.5,-56.5 88.5,-75.5 171.5,-75.5 171.5,-56.5 88.5,-56.5"/>
<text text-anchor="middle" x="130" y="-63.5" font-family="Arial" font-size="10.00">CPropTreeView</text>
</g>
<!-- Node3 -->
<g id="node3" class="node"><title>Node3</title>
<g id="a_node3"><a xlink:href="class_material_preview_prop_view.html" target="_top" xlink:title="MaterialPreviewPropView">
<polygon fill="white" stroke="black" points="-0.5,-0.5 -0.5,-19.5 124.5,-19.5 124.5,-0.5 -0.5,-0.5"/>
<text text-anchor="middle" x="62" y="-7.5" font-family="Arial" font-size="10.00">MaterialPreviewPropView</text>
</a>
</g>
</g>
<!-- Node1&#45;&gt;Node3 -->
<g id="edge2" class="edge"><title>Node1&#45;&gt;Node3</title>
<path fill="none" stroke="midnightblue" d="M111.238,-50.1008C99.0001,-40.3824 83.4413,-28.0269 73.1242,-19.8339"/>
<polygon fill="midnightblue" stroke="midnightblue" points="109.067,-52.846 119.075,-56.324 113.42,-47.3642 109.067,-52.846"/>
</g>
<!-- Node4 -->
<g id="node4" class="node"><title>Node4</title>
<g id="a_node4"><a xlink:href="class_material_prop_tree_view.html" target="_top" xlink:title="MaterialPropTreeView">
<polygon fill="white" stroke="black" points="142.5,-0.5 142.5,-19.5 253.5,-19.5 253.5,-0.5 142.5,-0.5"/>
<text text-anchor="middle" x="198" y="-7.5" font-family="Arial" font-size="10.00">MaterialPropTreeView</text>
</a>
</g>
</g>
<!-- Node1&#45;&gt;Node4 -->
<g id="edge3" class="edge"><title>Node1&#45;&gt;Node4</title>
<path fill="none" stroke="midnightblue" d="M148.762,-50.1008C161,-40.3824 176.559,-28.0269 186.876,-19.8339"/>
<polygon fill="midnightblue" stroke="midnightblue" points="146.58,-47.3642 140.925,-56.324 150.933,-52.846 146.58,-47.3642"/>
</g>
<!-- Node2 -->
<g id="node2" class="node"><title>Node2</title>
<polygon fill="white" stroke="#bfbfbf" points="96.5,-112.5 96.5,-131.5 163.5,-131.5 163.5,-112.5 96.5,-112.5"/>
<text text-anchor="middle" x="130" y="-119.5" font-family="Arial" font-size="10.00">CFormView</text>
</g>
<!-- Node2&#45;&gt;Node1 -->
<g id="edge1" class="edge"><title>Node2&#45;&gt;Node1</title>
<path fill="none" stroke="midnightblue" d="M130,-101.805C130,-92.9102 130,-82.7798 130,-75.7511"/>
<polygon fill="midnightblue" stroke="midnightblue" points="126.5,-102.083 130,-112.083 133.5,-102.083 126.5,-102.083"/>
</g>
</g>
</svg>
