<?xml version="1.0" encoding="UTF-8" standalone="no"?>
<!DOCTYPE svg PUBLIC "-//W3C//DTD SVG 1.1//EN"
 "http://www.w3.org/Graphics/SVG/1.1/DTD/svg11.dtd">
<!-- Generated by graphviz version 2.34.0 (20130907.0111)
 -->
<!-- Title: idMapBrush Pages: 1 -->
<svg width="242pt" height="164pt"
 viewBox="0.00 0.00 242.00 164.00" xmlns="http://www.w3.org/2000/svg" xmlns:xlink="http://www.w3.org/1999/xlink">
<g id="graph0" class="graph" transform="scale(1 1) rotate(0) translate(4 160)">
<title>idMapBrush</title>
<polygon fill="white" stroke="white" points="-4,4 -4,-160 238,-160 238,4 -4,4"/>
<!-- Node1 -->
<g id="node1" class="node"><title>Node1</title>
<polygon fill="#bfbfbf" stroke="black" points="100,-0.5 100,-19.5 168,-19.5 168,-0.5 100,-0.5"/>
<text text-anchor="middle" x="134" y="-7.5" font-family="Arial" font-size="10.00">idMapBrush</text>
</g>
<!-- Node2 -->
<g id="node2" class="node"><title>Node2</title>
<g id="a_node2"><a xlink:href="classid_map_primitive.html" target="_top" xlink:title="idMapPrimitive">
<polygon fill="white" stroke="black" points="0,-68.5 0,-87.5 80,-87.5 80,-68.5 0,-68.5"/>
<text text-anchor="middle" x="40" y="-75.5" font-family="Arial" font-size="10.00">idMapPrimitive</text>
</a>
</g>
</g>
<!-- Node2&#45;&gt;Node1 -->
<g id="edge1" class="edge"><title>Node2&#45;&gt;Node1</title>
<path fill="none" stroke="midnightblue" d="M60.7154,-62.4551C79.3902,-49.3431 106.225,-30.5016 121.708,-19.6305"/>
<polygon fill="midnightblue" stroke="midnightblue" points="58.4618,-59.7609 52.2889,-68.3717 62.4842,-65.4898 58.4618,-59.7609"/>
</g>
<!-- Node3 -->
<g id="node3" class="node"><title>Node3</title>
<g id="a_node3"><a xlink:href="classid_dict.html" target="_top" xlink:title="idDict">
<polygon fill="white" stroke="black" points="19.5,-136.5 19.5,-155.5 60.5,-155.5 60.5,-136.5 19.5,-136.5"/>
<text text-anchor="middle" x="40" y="-143.5" font-family="Arial" font-size="10.00">idDict</text>
</a>
</g>
</g>
<!-- Node3&#45;&gt;Node2 -->
<g id="edge2" class="edge"><title>Node3&#45;&gt;Node2</title>
<path fill="none" stroke="#9a32cd" stroke-dasharray="5,2" d="M40,-126.041C40,-113.472 40,-97.5631 40,-87.8411"/>
<polygon fill="#9a32cd" stroke="#9a32cd" points="36.5001,-126.372 40,-136.372 43.5001,-126.372 36.5001,-126.372"/>
<text text-anchor="middle" x="55" y="-109.5" font-family="Arial" font-size="10.00"> epairs</text>
</g>
<!-- Node4 -->
<g id="node4" class="node"><title>Node4</title>
<g id="a_node4"><a xlink:href="classid_list.html" target="_top" xlink:title="idList\&lt; idMapBrushSide * \&gt;">
<polygon fill="white" stroke="black" points="98,-68.5 98,-87.5 234,-87.5 234,-68.5 98,-68.5"/>
<text text-anchor="middle" x="166" y="-75.5" font-family="Arial" font-size="10.00">idList&lt; idMapBrushSide * &gt;</text>
</a>
</g>
</g>
<!-- Node4&#45;&gt;Node1 -->
<g id="edge3" class="edge"><title>Node4&#45;&gt;Node1</title>
<path fill="none" stroke="#9a32cd" stroke-dasharray="5,2" d="M157.363,-59.1859C151.189,-46.4523 143.145,-29.8607 138.287,-19.8411"/>
<polygon fill="#9a32cd" stroke="#9a32cd" points="154.304,-60.9005 161.817,-68.3717 160.603,-57.8465 154.304,-60.9005"/>
<text text-anchor="middle" x="165.5" y="-41.5" font-family="Arial" font-size="10.00"> sides</text>
</g>
</g>
</svg>
