<?xml version="1.0" encoding="UTF-8" standalone="no"?>
<!DOCTYPE svg PUBLIC "-//W3C//DTD SVG 1.1//EN"
 "http://www.w3.org/Graphics/SVG/1.1/DTD/svg11.dtd">
<!-- Generated by graphviz version 2.34.0 (20130907.0111)
 -->
<!-- Title: idException Pages: 1 -->
<svg width="262pt" height="84pt"
 viewBox="0.00 0.00 262.00 84.00" xmlns="http://www.w3.org/2000/svg" xmlns:xlink="http://www.w3.org/1999/xlink">
<g id="graph0" class="graph" transform="scale(1 1) rotate(0) translate(4 80)">
<title>idException</title>
<polygon fill="white" stroke="white" points="-4,4 -4,-80 258,-80 258,4 -4,4"/>
<!-- Node1 -->
<g id="node1" class="node"><title>Node1</title>
<polygon fill="#bfbfbf" stroke="black" points="91,-56.5 91,-75.5 159,-75.5 159,-56.5 91,-56.5"/>
<text text-anchor="middle" x="125" y="-63.5" font-family="Arial" font-size="10.00">idException</text>
</g>
<!-- Node2 -->
<g id="node2" class="node"><title>Node2</title>
<g id="a_node2"><a xlink:href="classid_alloc_error.html" target="_top" xlink:title="idAllocError">
<polygon fill="white" stroke="black" points="-0.5,-0.5 -0.5,-19.5 66.5,-19.5 66.5,-0.5 -0.5,-0.5"/>
<text text-anchor="middle" x="33" y="-7.5" font-family="Arial" font-size="10.00">idAllocError</text>
</a>
</g>
</g>
<!-- Node1&#45;&gt;Node2 -->
<g id="edge1" class="edge"><title>Node1&#45;&gt;Node2</title>
<path fill="none" stroke="midnightblue" d="M96.2286,-51.5895C77.8916,-41.6052 55.4389,-28.2672 42.6346,-19.6545"/>
<polygon fill="midnightblue" stroke="midnightblue" points="94.6333,-54.7054 105.104,-56.324 97.928,-48.5292 94.6333,-54.7054"/>
</g>
<!-- Node1&#45;&gt;Node2 -->
<g id="edge2" class="edge"><title>Node1&#45;&gt;Node2</title>
<path fill="none" stroke="midnightblue" d="M106.551,-50.6221C90.9293,-40.7574 68.8687,-27.9919 52.8549,-19.6545"/>
<polygon fill="midnightblue" stroke="midnightblue" points="105.04,-53.8143 115.333,-56.324 108.852,-47.9431 105.04,-53.8143"/>
</g>
<!-- Node3 -->
<g id="node3" class="node"><title>Node3</title>
<g id="a_node3"><a xlink:href="classid_compile_error.html" target="_top" xlink:title="idCompileError">
<polygon fill="white" stroke="black" points="85,-0.5 85,-19.5 165,-19.5 165,-0.5 85,-0.5"/>
<text text-anchor="middle" x="125" y="-7.5" font-family="Arial" font-size="10.00">idCompileError</text>
</a>
</g>
</g>
<!-- Node1&#45;&gt;Node3 -->
<g id="edge3" class="edge"><title>Node1&#45;&gt;Node3</title>
<path fill="none" stroke="midnightblue" d="M118.528,-46.1005C117.896,-37.1357 118.343,-26.8579 119.869,-19.7511"/>
<polygon fill="midnightblue" stroke="midnightblue" points="115.066,-46.6216 119.834,-56.083 122.007,-45.7134 115.066,-46.6216"/>
</g>
<!-- Node1&#45;&gt;Node3 -->
<g id="edge4" class="edge"><title>Node1&#45;&gt;Node3</title>
<path fill="none" stroke="midnightblue" d="M131.472,-46.1005C132.104,-37.1357 131.657,-26.8579 130.131,-19.7511"/>
<polygon fill="midnightblue" stroke="midnightblue" points="127.993,-45.7134 130.166,-56.083 134.934,-46.6216 127.993,-45.7134"/>
</g>
<!-- Node4 -->
<g id="node4" class="node"><title>Node4</title>
<g id="a_node4"><a xlink:href="classid_game_error.html" target="_top" xlink:title="idGameError">
<polygon fill="white" stroke="black" points="183.5,-0.5 183.5,-19.5 254.5,-19.5 254.5,-0.5 183.5,-0.5"/>
<text text-anchor="middle" x="219" y="-7.5" font-family="Arial" font-size="10.00">idGameError</text>
</a>
</g>
</g>
<!-- Node1&#45;&gt;Node4 -->
<g id="edge5" class="edge"><title>Node1&#45;&gt;Node4</title>
<path fill="none" stroke="midnightblue" d="M143.531,-50.9005C159.543,-40.9986 182.348,-28.0705 198.825,-19.6545"/>
<polygon fill="midnightblue" stroke="midnightblue" points="141.555,-48.0096 134.988,-56.324 145.306,-53.9193 141.555,-48.0096"/>
</g>
<!-- Node1&#45;&gt;Node4 -->
<g id="edge6" class="edge"><title>Node1&#45;&gt;Node4</title>
<path fill="none" stroke="midnightblue" d="M154.268,-51.5895C172.975,-41.6052 195.922,-28.2672 209.045,-19.6545"/>
<polygon fill="midnightblue" stroke="midnightblue" points="152.456,-48.5874 145.218,-56.324 155.701,-54.79 152.456,-48.5874"/>
</g>
</g>
</svg>
