<?xml version="1.0" encoding="UTF-8" standalone="no"?>
<!DOCTYPE svg PUBLIC "-//W3C//DTD SVG 1.1//EN"
 "http://www.w3.org/Graphics/SVG/1.1/DTD/svg11.dtd">
<!-- Generated by graphviz version 2.34.0 (20130907.0111)
 -->
<!-- Title: CPropTreeItemColor Pages: 1 -->
<svg width="463pt" height="278pt"
 viewBox="0.00 0.00 462.95 278.00" xmlns="http://www.w3.org/2000/svg" xmlns:xlink="http://www.w3.org/1999/xlink">
<g id="graph0" class="graph" transform="scale(1 1) rotate(0) translate(4 274)">
<title>CPropTreeItemColor</title>
<polygon fill="white" stroke="white" points="-4,4 -4,-274 458.954,-274 458.954,4 -4,4"/>
<!-- Node1 -->
<g id="node1" class="node"><title>Node1</title>
<polygon fill="#bfbfbf" stroke="black" points="2.83918,-0.5 2.83918,-19.5 106.839,-19.5 106.839,-0.5 2.83918,-0.5"/>
<text text-anchor="middle" x="54.8392" y="-7.5" font-family="Arial" font-size="10.00">CPropTreeItemColor</text>
</g>
<!-- Node2 -->
<g id="node2" class="node"><title>Node2</title>
<polygon fill="white" stroke="#bfbfbf" points="216.839,-250.5 216.839,-269.5 260.839,-269.5 260.839,-250.5 216.839,-250.5"/>
<text text-anchor="middle" x="238.839" y="-257.5" font-family="Arial" font-size="10.00">CWnd</text>
</g>
<!-- Node2&#45;&gt;Node1 -->
<g id="edge1" class="edge"><title>Node2&#45;&gt;Node1</title>
<path fill="none" stroke="midnightblue" d="M206.552,-256.944C151.248,-252.676 42.0883,-240.741 18.8392,-212 -29.3199,-152.466 29.4184,-50.3008 48.9498,-19.8277"/>
<polygon fill="midnightblue" stroke="midnightblue" points="206.307,-260.435 216.537,-257.676 206.819,-253.454 206.307,-260.435"/>
</g>
<!-- Node4 -->
<g id="node4" class="node"><title>Node4</title>
<g id="a_node4"><a xlink:href="class_c_prop_tree.html" target="_top" xlink:title="CPropTree">
<polygon fill="white" stroke="black" points="207.839,-192.5 207.839,-211.5 269.839,-211.5 269.839,-192.5 207.839,-192.5"/>
<text text-anchor="middle" x="238.839" y="-199.5" font-family="Arial" font-size="10.00">CPropTree</text>
</a>
</g>
</g>
<!-- Node2&#45;&gt;Node4 -->
<g id="edge4" class="edge"><title>Node2&#45;&gt;Node4</title>
<path fill="none" stroke="midnightblue" d="M238.839,-239.953C238.839,-230.287 238.839,-219.031 238.839,-211.505"/>
<polygon fill="midnightblue" stroke="midnightblue" points="235.339,-240.25 238.839,-250.25 242.339,-240.25 235.339,-240.25"/>
</g>
<!-- Node5 -->
<g id="node5" class="node"><title>Node5</title>
<g id="a_node5"><a xlink:href="class_c_prop_tree_list.html" target="_top" xlink:title="CPropTreeList">
<polygon fill="white" stroke="black" points="364.839,-75.5 364.839,-94.5 442.839,-94.5 442.839,-75.5 364.839,-75.5"/>
<text text-anchor="middle" x="403.839" y="-82.5" font-family="Arial" font-size="10.00">CPropTreeList</text>
</a>
</g>
</g>
<!-- Node2&#45;&gt;Node5 -->
<g id="edge6" class="edge"><title>Node2&#45;&gt;Node5</title>
<path fill="none" stroke="midnightblue" d="M271.352,-256.604C319.436,-251.108 408.096,-233.068 447.839,-174 458.756,-157.775 455.323,-148.067 447.839,-130 441.638,-115.029 427.598,-102.496 417.034,-94.6837"/>
<polygon fill="midnightblue" stroke="midnightblue" points="270.768,-253.145 261.178,-257.647 271.483,-260.108 270.768,-253.145"/>
</g>
<!-- Node3 -->
<g id="node3" class="node"><title>Node3</title>
<g id="a_node3"><a xlink:href="class_c_prop_tree_item.html" target="_top" xlink:title="CPropTreeItem">
<polygon fill="white" stroke="black" points="156.339,-75.5 156.339,-94.5 237.339,-94.5 237.339,-75.5 156.339,-75.5"/>
<text text-anchor="middle" x="196.839" y="-82.5" font-family="Arial" font-size="10.00">CPropTreeItem</text>
</a>
</g>
</g>
<!-- Node3&#45;&gt;Node1 -->
<g id="edge2" class="edge"><title>Node3&#45;&gt;Node1</title>
<path fill="none" stroke="midnightblue" d="M171.21,-70.8246C142.384,-56.0056 96.3873,-32.3592 71.7409,-19.6889"/>
<polygon fill="midnightblue" stroke="midnightblue" points="169.778,-74.0238 180.272,-75.4831 172.979,-67.7982 169.778,-74.0238"/>
</g>
<!-- Node3&#45;&gt;Node3 -->
<g id="edge12" class="edge"><title>Node3&#45;&gt;Node3</title>
<path fill="none" stroke="#9a32cd" stroke-dasharray="5,2" d="M247.693,-91.7456C252.091,-90.3145 254.839,-88.0659 254.839,-85 254.839,-79.9688 247.438,-77.1387 237.493,-76.5098"/>
<polygon fill="#9a32cd" stroke="#9a32cd" points="246.76,-88.3544 237.493,-93.4902 247.94,-95.2542 246.76,-88.3544"/>
<text text-anchor="middle" x="280.339" y="-104.5" font-family="Arial" font-size="10.00"> m_pParent</text>
<text text-anchor="middle" x="280.339" y="-93.5" font-family="Arial" font-size="10.00">m_pVis</text>
<text text-anchor="middle" x="280.339" y="-82.5" font-family="Arial" font-size="10.00">m_pSibling</text>
<text text-anchor="middle" x="280.339" y="-71.5" font-family="Arial" font-size="10.00">m_pChild</text>
<text text-anchor="middle" x="280.339" y="-60.5" font-family="Arial" font-size="10.00">m_lParam</text>
</g>
<!-- Node3&#45;&gt;Node4 -->
<g id="edge8" class="edge"><title>Node3&#45;&gt;Node4</title>
<path fill="none" stroke="#9a32cd" stroke-dasharray="5,2" d="M190.927,-104.396C186.044,-123.176 181.688,-152.538 193.839,-174 198.508,-182.245 206.81,-188.247 215.023,-192.468"/>
<polygon fill="#9a32cd" stroke="#9a32cd" points="194.315,-105.28 193.743,-94.7007 187.593,-103.328 194.315,-105.28"/>
<text text-anchor="middle" x="224.839" y="-166" font-family="Arial" font-size="10.00"> m_Root</text>
<text text-anchor="middle" x="224.839" y="-155" font-family="Arial" font-size="10.00">m_pVisbleList</text>
<text text-anchor="middle" x="224.839" y="-144" font-family="Arial" font-size="10.00">m_pFocus</text>
<text text-anchor="middle" x="224.839" y="-133" font-family="Arial" font-size="10.00">s_pFound</text>
</g>
<!-- Node4&#45;&gt;Node3 -->
<g id="edge3" class="edge"><title>Node4&#45;&gt;Node3</title>
<path fill="none" stroke="#9a32cd" stroke-dasharray="5,2" d="M254.282,-184.566C256.563,-181.284 258.57,-177.7 259.839,-174 266.186,-155.503 268.879,-147.341 259.839,-130 251.143,-113.32 232.915,-101.666 218.292,-94.5619"/>
<polygon fill="#9a32cd" stroke="#9a32cd" points="251.495,-182.447 247.925,-192.423 256.936,-186.851 251.495,-182.447"/>
<text text-anchor="middle" x="287.339" y="-149.5" font-family="Arial" font-size="10.00"> m_pProp</text>
</g>
<!-- Node4&#45;&gt;Node5 -->
<g id="edge7" class="edge"><title>Node4&#45;&gt;Node5</title>
<path fill="none" stroke="#9a32cd" stroke-dasharray="5,2" d="M280.151,-198.099C317.05,-194.659 367.434,-187.588 381.839,-174 404.292,-152.821 405.26,-112.488 404.48,-94.7458"/>
<polygon fill="#9a32cd" stroke="#9a32cd" points="279.799,-194.617 270.143,-198.976 280.41,-201.59 279.799,-194.617"/>
<text text-anchor="middle" x="423.339" y="-149.5" font-family="Arial" font-size="10.00"> m_pProp</text>
</g>
<!-- Node6 -->
<g id="node6" class="node"><title>Node6</title>
<g id="a_node6"><a xlink:href="class_c_prop_tree_info.html" target="_top" xlink:title="CPropTreeInfo">
<polygon fill="white" stroke="black" points="37.3392,-75.5 37.3392,-94.5 114.339,-94.5 114.339,-75.5 37.3392,-75.5"/>
<text text-anchor="middle" x="75.8392" y="-82.5" font-family="Arial" font-size="10.00">CPropTreeInfo</text>
</a>
</g>
</g>
<!-- Node4&#45;&gt;Node6 -->
<g id="edge11" class="edge"><title>Node4&#45;&gt;Node6</title>
<path fill="none" stroke="#9a32cd" stroke-dasharray="5,2" d="M197.677,-200.186C153.816,-198.345 88.5567,-192.48 72.8392,-174 53.527,-151.293 65.3764,-112.12 72.1198,-94.7405"/>
<polygon fill="#9a32cd" stroke="#9a32cd" points="197.655,-203.688 207.776,-200.556 197.911,-196.692 197.655,-203.688"/>
<text text-anchor="middle" x="94.3392" y="-149.5" font-family="Arial" font-size="10.00"> m_pProp</text>
</g>
<!-- Node5&#45;&gt;Node4 -->
<g id="edge5" class="edge"><title>Node5&#45;&gt;Node4</title>
<path fill="none" stroke="#9a32cd" stroke-dasharray="5,2" d="M383.092,-100.948C372.408,-109.046 359.435,-119.52 348.839,-130 330.875,-147.768 333.441,-159.371 312.839,-174 300.128,-183.026 284.063,-189.368 270.152,-193.626"/>
<polygon fill="#9a32cd" stroke="#9a32cd" points="385.487,-103.529 391.427,-94.7558 381.313,-97.9097 385.487,-103.529"/>
<text text-anchor="middle" x="365.339" y="-149.5" font-family="Arial" font-size="10.00"> m_List</text>
</g>
<!-- Node6&#45;&gt;Node4 -->
<g id="edge9" class="edge"><title>Node6&#45;&gt;Node4</title>
<path fill="none" stroke="#9a32cd" stroke-dasharray="5,2" d="M92.8878,-101.716C101.347,-109.839 111.51,-120.103 119.839,-130 135.242,-148.303 131.473,-159.958 150.839,-174 167.529,-186.101 189.743,-192.863 207.677,-196.593"/>
<polygon fill="#9a32cd" stroke="#9a32cd" points="95.0903,-98.9821 85.4146,-94.6658 90.2868,-104.074 95.0903,-98.9821"/>
<text text-anchor="middle" x="166.839" y="-149.5" font-family="Arial" font-size="10.00"> m_Info</text>
</g>
<!-- Node7 -->
<g id="node7" class="node"><title>Node7</title>
<polygon fill="white" stroke="#bfbfbf" points="28.3392,-192.5 28.3392,-211.5 77.3392,-211.5 77.3392,-192.5 28.3392,-192.5"/>
<text text-anchor="middle" x="52.8392" y="-199.5" font-family="Arial" font-size="10.00">CStatic</text>
</g>
<!-- Node7&#45;&gt;Node6 -->
<g id="edge10" class="edge"><title>Node7&#45;&gt;Node6</title>
<path fill="none" stroke="midnightblue" d="M52.1184,-181.939C52.0017,-167.494 52.7634,-147.255 56.8392,-130 59.8613,-117.205 66.3905,-103.444 70.9465,-94.7823"/>
<polygon fill="midnightblue" stroke="midnightblue" points="48.6234,-182.197 52.3538,-192.114 55.6215,-182.035 48.6234,-182.197"/>
</g>
</g>
</svg>
