<?xml version="1.0" encoding="UTF-8" standalone="no"?>
<!DOCTYPE svg PUBLIC "-//W3C//DTD SVG 1.1//EN"
 "http://www.w3.org/Graphics/SVG/1.1/DTD/svg11.dtd">
<!-- Generated by graphviz version 2.34.0 (20130907.0111)
 -->
<!-- Title: idCurve_KochanekBartelsSpline&lt; type &gt; Pages: 1 -->
<svg width="202pt" height="256pt"
 viewBox="0.00 0.00 202.00 256.00" xmlns="http://www.w3.org/2000/svg" xmlns:xlink="http://www.w3.org/1999/xlink">
<g id="graph0" class="graph" transform="scale(1 1) rotate(0) translate(4 252)">
<title>idCurve_KochanekBartelsSpline&lt; type &gt;</title>
<polygon fill="white" stroke="white" points="-4,4 -4,-252 198,-252 198,4 -4,4"/>
<!-- Node1 -->
<g id="node1" class="node"><title>Node1</title>
<polygon fill="#bfbfbf" stroke="black" points="-0.5,-1 -0.5,-31 154.5,-31 154.5,-1 -0.5,-1"/>
<text text-anchor="start" x="7.5" y="-19" font-family="Arial" font-size="10.00">idCurve_KochanekBartelsSpline</text>
<text text-anchor="middle" x="77" y="-8" font-family="Arial" font-size="10.00">&lt; type &gt;</text>
</g>
<!-- Node2 -->
<g id="node2" class="node"><title>Node2</title>
<g id="a_node2"><a xlink:href="classid_curve___spline.html" target="_top" xlink:title="idCurve_Spline\&lt; type \&gt;">
<polygon fill="white" stroke="black" points="77.5,-70.5 77.5,-89.5 194.5,-89.5 194.5,-70.5 77.5,-70.5"/>
<text text-anchor="middle" x="136" y="-77.5" font-family="Arial" font-size="10.00">idCurve_Spline&lt; type &gt;</text>
</a>
</g>
</g>
<!-- Node2&#45;&gt;Node1 -->
<g id="edge1" class="edge"><title>Node2&#45;&gt;Node1</title>
<path fill="none" stroke="midnightblue" d="M120.666,-62.886C111.346,-53.0926 99.5533,-40.7 90.5728,-31.263"/>
<polygon fill="midnightblue" stroke="midnightblue" points="118.367,-65.5478 127.796,-70.3792 123.438,-60.7222 118.367,-65.5478"/>
</g>
<!-- Node3 -->
<g id="node3" class="node"><title>Node3</title>
<g id="a_node3"><a xlink:href="classid_curve.html" target="_top" xlink:title="idCurve\&lt; type \&gt;">
<polygon fill="white" stroke="black" points="81.5,-160.5 81.5,-179.5 166.5,-179.5 166.5,-160.5 81.5,-160.5"/>
<text text-anchor="middle" x="124" y="-167.5" font-family="Arial" font-size="10.00">idCurve&lt; type &gt;</text>
</a>
</g>
</g>
<!-- Node3&#45;&gt;Node2 -->
<g id="edge2" class="edge"><title>Node3&#45;&gt;Node2</title>
<path fill="none" stroke="midnightblue" d="M126.558,-150.242C129.104,-131.571 132.9,-103.735 134.81,-89.7241"/>
<polygon fill="midnightblue" stroke="midnightblue" points="123.078,-149.859 125.194,-160.241 130.014,-150.805 123.078,-149.859"/>
</g>
<!-- Node4 -->
<g id="node4" class="node"><title>Node4</title>
<g id="a_node4"><a xlink:href="classid_list.html" target="_top" xlink:title="idList\&lt; float \&gt;">
<polygon fill="white" stroke="black" points="38,-228.5 38,-247.5 114,-247.5 114,-228.5 38,-228.5"/>
<text text-anchor="middle" x="76" y="-235.5" font-family="Arial" font-size="10.00">idList&lt; float &gt;</text>
</a>
</g>
</g>
<!-- Node4&#45;&gt;Node1 -->
<g id="edge4" class="edge"><title>Node4&#45;&gt;Node1</title>
<path fill="none" stroke="#9a32cd" stroke-dasharray="5,2" d="M73.4742,-218.099C69.6974,-187.116 63.4812,-123.603 68,-70 69.1133,-56.7938 71.7606,-41.9313 73.8977,-31.3132"/>
<polygon fill="#9a32cd" stroke="#9a32cd" points="70.0372,-218.816 74.7747,-228.293 76.9809,-217.93 70.0372,-218.816"/>
<text text-anchor="middle" x="89.5" y="-133.5" font-family="Arial" font-size="10.00"> tension</text>
<text text-anchor="middle" x="89.5" y="-122.5" font-family="Arial" font-size="10.00">bias</text>
<text text-anchor="middle" x="89.5" y="-111.5" font-family="Arial" font-size="10.00">continuity</text>
</g>
<!-- Node4&#45;&gt;Node3 -->
<g id="edge3" class="edge"><title>Node4&#45;&gt;Node3</title>
<path fill="none" stroke="#9a32cd" stroke-dasharray="5,2" d="M88.4089,-219.938C97.7368,-207.112 110.139,-190.059 117.57,-179.841"/>
<polygon fill="#9a32cd" stroke="#9a32cd" points="85.3263,-218.226 82.2752,-228.372 90.9875,-222.343 85.3263,-218.226"/>
<text text-anchor="middle" x="119" y="-201.5" font-family="Arial" font-size="10.00"> times</text>
</g>
</g>
</svg>
