<?xml version="1.0" encoding="UTF-8" standalone="no"?>
<!DOCTYPE svg PUBLIC "-//W3C//DTD SVG 1.1//EN"
 "http://www.w3.org/Graphics/SVG/1.1/DTD/svg11.dtd">
<!-- Generated by graphviz version 2.34.0 (20130907.0111)
 -->
<!-- Title: idCVar Pages: 1 -->
<svg width="128pt" height="98pt"
 viewBox="0.00 0.00 128.00 98.00" xmlns="http://www.w3.org/2000/svg" xmlns:xlink="http://www.w3.org/1999/xlink">
<g id="graph0" class="graph" transform="scale(1 1) rotate(0) translate(4 94)">
<title>idCVar</title>
<polygon fill="white" stroke="white" points="-4,4 -4,-94 124,-94 124,4 -4,4"/>
<!-- Node1 -->
<g id="node1" class="node"><title>Node1</title>
<polygon fill="#bfbfbf" stroke="black" points="9,-1.5 9,-20.5 55,-20.5 55,-1.5 9,-1.5"/>
<text text-anchor="middle" x="32" y="-8.5" font-family="Arial" font-size="10.00">idCVar</text>
</g>
<!-- Node1&#45;&gt;Node1 -->
<g id="edge2" class="edge"><title>Node1&#45;&gt;Node1</title>
<path fill="none" stroke="#9a32cd" stroke-dasharray="5,2" d="M65.4107,-16.666C69.9644,-15.7213 73,-13.8326 73,-11 73,-6.35156 64.8254,-4.24524 55.1818,-4.68103"/>
<polygon fill="#9a32cd" stroke="#9a32cd" points="64.9385,-13.1889 55.1818,-17.319 65.3845,-20.1747 64.9385,-13.1889"/>
<text text-anchor="middle" x="96.5" y="-14" font-family="Arial" font-size="10.00"> next</text>
<text text-anchor="middle" x="96.5" y="-3" font-family="Arial" font-size="10.00">internalVar</text>
</g>
<!-- Node2 -->
<g id="node2" class="node"><title>Node2</title>
<g id="a_node2"><a xlink:href="classid_cmd_args.html" target="_top" xlink:title="idCmdArgs">
<polygon fill="white" stroke="black" points="-0.5,-70.5 -0.5,-89.5 64.5,-89.5 64.5,-70.5 -0.5,-70.5"/>
<text text-anchor="middle" x="32" y="-77.5" font-family="Arial" font-size="10.00">idCmdArgs</text>
</a>
</g>
</g>
<!-- Node2&#45;&gt;Node1 -->
<g id="edge1" class="edge"><title>Node2&#45;&gt;Node1</title>
<path fill="none" stroke="#9a32cd" stroke-dasharray="5,2" d="M32,-60.0183C32,-47.034 32,-30.4419 32,-20.5494"/>
<polygon fill="#9a32cd" stroke="#9a32cd" points="28.5001,-60.2409 32,-70.2409 35.5001,-60.241 28.5001,-60.2409"/>
<text text-anchor="middle" x="69" y="-43.5" font-family="Arial" font-size="10.00"> valueCompletion</text>
</g>
</g>
</svg>
