<?xml version="1.0" encoding="UTF-8" standalone="no"?>
<!DOCTYPE svg PUBLIC "-//W3C//DTD SVG 1.1//EN"
 "http://www.w3.org/Graphics/SVG/1.1/DTD/svg11.dtd">
<!-- Generated by graphviz version 2.34.0 (20130907.0111)
 -->
<!-- Title: idSoundEmitterLocal Pages: 1 -->
<!--zoomable 386 -->
<svg id="main" version="1.1" xmlns="http://www.w3.org/2000/svg" xmlns:xlink="http://www.w3.org/1999/xlink" xml:space="preserve" onload="init(evt)">
<style type="text/css"><![CDATA[
.edge:hover path { stroke: red; }
.edge:hover polygon { stroke: red; fill: red; }
]]></style>
<script type="text/javascript"><![CDATA[
var edges = document.getElementsByTagName('g');
if (edges && edges.length) {
  for (var i=0;i<edges.length;i++) {
    if (edges[i].id.substr(0,4)=='edge') {
      edges[i].setAttribute('class','edge');
    }
  }
}
]]></script>
        <defs>
                <circle id="rim" cx="0" cy="0" r="7"/>
                <circle id="rim2" cx="0" cy="0" r="3.5"/>
                <g id="zoomPlus">
                        <use xlink:href="#rim" fill="#404040">
                                <set attributeName="fill" to="#808080" begin="zoomplus.mouseover" end="zoomplus.mouseout"/>
                        </use>
                        <path d="M-4,0h8M0,-4v8" fill="none" stroke="white" stroke-width="1.5" pointer-events="none"/>
                </g>
                <g id="zoomMin">
                        <use xlink:href="#rim" fill="#404040">
                                <set attributeName="fill" to="#808080" begin="zoomminus.mouseover" end="zoomminus.mouseout"/>
                        </use>
                        <path d="M-4,0h8" fill="none" stroke="white" stroke-width="1.5" pointer-events="none"/>
                </g>
                <g id="dirArrow">
                        <path fill="none" stroke="white" stroke-width="1.5" d="M0,-3.0v7 M-2.5,-0.5L0,-3.0L2.5,-0.5"/>
                </g>
               <g id="resetDef">
                       <use xlink:href="#rim2" fill="#404040">
                               <set attributeName="fill" to="#808080" begin="reset.mouseover" end="reset.mouseout"/>
                       </use>
               </g>
        </defs>

<script type="text/javascript">
var viewWidth = 1062;
var viewHeight = 386;
var sectionId = 'dynsection-1';
</script>
<script xlink:href="svgpan.js"/>
<svg id="graph" class="graph">
<g id="viewport">
<title>idSoundEmitterLocal</title>
<polygon fill="white" stroke="white" points="-4,4 -4,-382.029 1058,-382.029 1058,4 -4,4"/>
<!-- Node1 -->
<g id="node1" class="node"><title>Node1</title>
<polygon fill="#bfbfbf" stroke="black" points="728.5,-81.5286 728.5,-100.529 835.5,-100.529 835.5,-81.5286 728.5,-81.5286"/>
<text text-anchor="middle" x="782" y="-88.5286" font-family="Arial" font-size="10.00">idSoundEmitterLocal</text>
</g>
<!-- Node3 -->
<g id="node3" class="node"><title>Node3</title>
<g id="a_node3"><a xlink:href="classid_sound_world_local.html" target="_top" xlink:title="idSoundWorldLocal">
<polygon fill="white" stroke="black" points="952.5,-170.529 952.5,-189.529 1053.5,-189.529 1053.5,-170.529 952.5,-170.529"/>
<text text-anchor="middle" x="1003" y="-177.529" font-family="Arial" font-size="10.00">idSoundWorldLocal</text>
</a>
</g>
</g>
<!-- Node1&#45;&gt;Node3 -->
<g id="edge7" class="edge"><title>Node1&#45;&gt;Node3</title>
<path fill="none" stroke="#9a32cd" stroke-dasharray="5,2" d="M844.476,-80.6157C873.068,-78.6123 906.704,-80.4771 934,-94.0286 967.245,-110.533 989.298,-151.793 997.92,-170.518"/>
<polygon fill="#9a32cd" stroke="#9a32cd" points="843.848,-77.1571 834.191,-81.5143 844.458,-84.1305 843.848,-77.1571"/>
<text text-anchor="middle" x="906" y="-97.0286" font-family="Arial" font-size="10.00"> localSound</text>
</g>
<!-- Node2 -->
<g id="node2" class="node"><title>Node2</title>
<g id="a_node2"><a xlink:href="classid_sound_emitter.html" target="_top" xlink:title="idSoundEmitter">
<polygon fill="white" stroke="black" points="506.5,-187.529 506.5,-206.529 589.5,-206.529 589.5,-187.529 506.5,-187.529"/>
<text text-anchor="middle" x="548" y="-194.529" font-family="Arial" font-size="10.00">idSoundEmitter</text>
</a>
</g>
</g>
<!-- Node2&#45;&gt;Node1 -->
<g id="edge1" class="edge"><title>Node2&#45;&gt;Node1</title>
<path fill="none" stroke="midnightblue" d="M599.767,-197.374C628.351,-194.936 662.849,-187.217 686,-166.029 705.285,-148.378 684.887,-127.865 704,-110.029 710.845,-103.641 719.487,-99.3056 728.487,-96.3837"/>
<polygon fill="midnightblue" stroke="midnightblue" points="599.283,-193.898 589.535,-198.048 599.743,-200.883 599.283,-193.898"/>
</g>
<!-- Node3&#45;&gt;Node1 -->
<g id="edge2" class="edge"><title>Node3&#45;&gt;Node1</title>
<path fill="none" stroke="#9a32cd" stroke-dasharray="5,2" d="M984.087,-163.478C971.072,-152.269 952.553,-137.932 934,-129.029 903.048,-114.176 865.644,-104.707 835.806,-98.9367"/>
<polygon fill="#9a32cd" stroke="#9a32cd" points="981.985,-166.292 991.791,-170.303 986.627,-161.052 981.985,-166.292"/>
<text text-anchor="middle" x="906" y="-132.029" font-family="Arial" font-size="10.00"> soundWorld</text>
</g>
<!-- Node4 -->
<g id="node4" class="node"><title>Node4</title>
<g id="a_node4"><a xlink:href="classid_sound_world.html" target="_top" xlink:title="idSoundWorld">
<polygon fill="white" stroke="black" points="743.5,-358.529 743.5,-377.529 820.5,-377.529 820.5,-358.529 743.5,-358.529"/>
<text text-anchor="middle" x="782" y="-365.529" font-family="Arial" font-size="10.00">idSoundWorld</text>
</a>
</g>
</g>
<!-- Node4&#45;&gt;Node3 -->
<g id="edge3" class="edge"><title>Node4&#45;&gt;Node3</title>
<path fill="none" stroke="midnightblue" d="M830.663,-371.887C863.023,-371.983 905.035,-366.867 934,-344.029 985.07,-303.761 998.149,-218.461 1001.17,-189.717"/>
<polygon fill="midnightblue" stroke="midnightblue" points="830.591,-368.385 820.525,-371.689 830.454,-375.384 830.591,-368.385"/>
</g>
<!-- Node5 -->
<g id="node5" class="node"><title>Node5</title>
<g id="a_node5"><a xlink:href="classid_sound_fade.html" target="_top" xlink:title="idSoundFade">
<polygon fill="white" stroke="black" points="314,-263.529 314,-282.529 388,-282.529 388,-263.529 314,-263.529"/>
<text text-anchor="middle" x="351" y="-270.529" font-family="Arial" font-size="10.00">idSoundFade</text>
</a>
</g>
</g>
<!-- Node5&#45;&gt;Node3 -->
<g id="edge4" class="edge"><title>Node5&#45;&gt;Node3</title>
<path fill="none" stroke="#9a32cd" stroke-dasharray="5,2" d="M398.353,-277.167C488.404,-284.041 692.829,-293.936 860,-260.029 894.619,-253.007 903.145,-248.227 934,-231.029 955.655,-218.958 978.173,-200.766 991.095,-189.686"/>
<polygon fill="#9a32cd" stroke="#9a32cd" points="398.448,-273.664 388.204,-276.367 397.898,-280.642 398.448,-273.664"/>
<text text-anchor="middle" x="648" y="-286.029" font-family="Arial" font-size="10.00"> soundClassFade</text>
</g>
<!-- Node14 -->
<g id="node14" class="node"><title>Node14</title>
<g id="a_node14"><a xlink:href="classid_sound_channel.html" target="_top" xlink:title="idSoundChannel">
<polygon fill="white" stroke="black" points="504.5,-111.529 504.5,-130.529 591.5,-130.529 591.5,-111.529 504.5,-111.529"/>
<text text-anchor="middle" x="548" y="-118.529" font-family="Arial" font-size="10.00">idSoundChannel</text>
</a>
</g>
</g>
<!-- Node5&#45;&gt;Node14 -->
<g id="edge19" class="edge"><title>Node5&#45;&gt;Node14</title>
<path fill="none" stroke="#9a32cd" stroke-dasharray="5,2" d="M398.44,-264.117C432.251,-256.686 474.117,-245.212 486,-232.029 513.894,-201.08 477.998,-172.583 504,-140.029 507.056,-136.202 511.042,-133.126 515.353,-130.658"/>
<polygon fill="#9a32cd" stroke="#9a32cd" points="397.297,-260.782 388.247,-266.291 398.757,-267.628 397.297,-260.782"/>
<text text-anchor="middle" x="455" y="-260.029" font-family="Arial" font-size="10.00"> channelFade</text>
</g>
<!-- Node6 -->
<g id="node6" class="node"><title>Node6</title>
<g id="a_node6"><a xlink:href="classid_str.html" target="_top" xlink:title="idStr">
<polygon fill="white" stroke="black" points="152.5,-288.529 152.5,-307.529 189.5,-307.529 189.5,-288.529 152.5,-288.529"/>
<text text-anchor="middle" x="171" y="-295.529" font-family="Arial" font-size="10.00">idStr</text>
</a>
</g>
</g>
<!-- Node6&#45;&gt;Node3 -->
<g id="edge5" class="edge"><title>Node6&#45;&gt;Node3</title>
<path fill="none" stroke="#9a32cd" stroke-dasharray="5,2" d="M199.635,-306.147C234.398,-315.628 296.079,-330.029 350,-330.029 350,-330.029 350,-330.029 783,-330.029 882.542,-330.029 970.016,-223.241 994.921,-189.87"/>
<polygon fill="#9a32cd" stroke="#9a32cd" points="200.321,-302.705 189.748,-303.385 198.437,-309.447 200.321,-302.705"/>
<text text-anchor="middle" x="548" y="-355.029" font-family="Arial" font-size="10.00"> aviDemoName</text>
<text text-anchor="middle" x="548" y="-344.029" font-family="Arial" font-size="10.00">aviDemoPath</text>
<text text-anchor="middle" x="548" y="-333.029" font-family="Arial" font-size="10.00">listenerAreaName</text>
</g>
<!-- Node15 -->
<g id="node15" class="node"><title>Node15</title>
<g id="a_node15"><a xlink:href="classid_sound_sample.html" target="_top" xlink:title="idSoundSample">
<polygon fill="white" stroke="black" points="308.5,-219.529 308.5,-238.529 393.5,-238.529 393.5,-219.529 308.5,-219.529"/>
<text text-anchor="middle" x="351" y="-226.529" font-family="Arial" font-size="10.00">idSoundSample</text>
</a>
</g>
</g>
<!-- Node6&#45;&gt;Node15 -->
<g id="edge17" class="edge"><title>Node6&#45;&gt;Node15</title>
<path fill="none" stroke="#9a32cd" stroke-dasharray="5,2" d="M199.129,-287.512C233.47,-274.2 292.136,-251.459 325.288,-238.608"/>
<polygon fill="#9a32cd" stroke="#9a32cd" points="197.777,-284.283 189.718,-291.16 200.307,-290.809 197.777,-284.283"/>
<text text-anchor="middle" x="255" y="-276.029" font-family="Arial" font-size="10.00"> name</text>
</g>
<!-- Node7 -->
<g id="node7" class="node"><title>Node7</title>
<g id="a_node7"><a xlink:href="classid_mat3.html" target="_top" xlink:title="idMat3">
<polygon fill="white" stroke="black" points="759,-195.529 759,-214.529 805,-214.529 805,-195.529 759,-195.529"/>
<text text-anchor="middle" x="782" y="-202.529" font-family="Arial" font-size="10.00">idMat3</text>
</a>
</g>
</g>
<!-- Node7&#45;&gt;Node3 -->
<g id="edge6" class="edge"><title>Node7&#45;&gt;Node3</title>
<path fill="none" stroke="#9a32cd" stroke-dasharray="5,2" d="M815.131,-202.278C845.733,-199.553 893.069,-195.068 934,-190.029 939.922,-189.299 946.124,-188.474 952.272,-187.617"/>
<polygon fill="#9a32cd" stroke="#9a32cd" points="814.697,-198.802 805.042,-203.166 815.311,-205.775 814.697,-198.802"/>
<text text-anchor="middle" x="906" y="-199.029" font-family="Arial" font-size="10.00"> listenerAxis</text>
</g>
<!-- Node8 -->
<g id="node8" class="node"><title>Node8</title>
<g id="a_node8"><a xlink:href="classid_render_world.html" target="_top" xlink:title="idRenderWorld">
<polygon fill="white" stroke="black" points="742,-157.529 742,-176.529 822,-176.529 822,-157.529 742,-157.529"/>
<text text-anchor="middle" x="782" y="-164.529" font-family="Arial" font-size="10.00">idRenderWorld</text>
</a>
</g>
</g>
<!-- Node8&#45;&gt;Node3 -->
<g id="edge8" class="edge"><title>Node8&#45;&gt;Node3</title>
<path fill="none" stroke="#9a32cd" stroke-dasharray="5,2" d="M832.38,-169.96C868.228,-172.088 916.533,-174.955 952.425,-177.086"/>
<polygon fill="#9a32cd" stroke="#9a32cd" points="832.343,-166.452 822.153,-169.353 831.928,-173.439 832.343,-166.452"/>
<text text-anchor="middle" x="906" y="-178.029" font-family="Arial" font-size="10.00"> rw</text>
</g>
<!-- Node9 -->
<g id="node9" class="node"><title>Node9</title>
<g id="a_node9"><a xlink:href="classid_file.html" target="_top" xlink:title="idFile">
<polygon fill="white" stroke="black" points="528,-234.529 528,-253.529 568,-253.529 568,-234.529 528,-234.529"/>
<text text-anchor="middle" x="548" y="-241.529" font-family="Arial" font-size="10.00">idFile</text>
</a>
</g>
</g>
<!-- Node9&#45;&gt;Node3 -->
<g id="edge9" class="edge"><title>Node9&#45;&gt;Node3</title>
<path fill="none" stroke="#9a32cd" stroke-dasharray="5,2" d="M578.402,-245.715C643.929,-248.576 806.239,-250.664 934,-211.029 951.72,-205.531 970.862,-196.503 984.307,-189.603"/>
<polygon fill="#9a32cd" stroke="#9a32cd" points="578.536,-242.218 568.381,-245.237 578.203,-249.21 578.536,-242.218"/>
<text text-anchor="middle" x="782" y="-248.029" font-family="Arial" font-size="10.00"> fpa</text>
</g>
<!-- Node12 -->
<g id="node12" class="node"><title>Node12</title>
<g id="a_node12"><a xlink:href="classid_demo_file.html" target="_top" xlink:title="idDemoFile">
<polygon fill="white" stroke="black" points="749.5,-119.529 749.5,-138.529 814.5,-138.529 814.5,-119.529 749.5,-119.529"/>
<text text-anchor="middle" x="782" y="-126.529" font-family="Arial" font-size="10.00">idDemoFile</text>
</a>
</g>
</g>
<!-- Node9&#45;&gt;Node12 -->
<g id="edge13" class="edge"><title>Node9&#45;&gt;Node12</title>
<path fill="none" stroke="midnightblue" d="M578.057,-240.788C608.663,-235.913 656.437,-223.941 686,-195.029 701.992,-179.389 687.235,-162.836 704,-148.029 716.384,-137.09 734.077,-132.232 749.381,-130.157"/>
<polygon fill="midnightblue" stroke="midnightblue" points="577.405,-237.345 568.005,-242.232 578.401,-244.274 577.405,-237.345"/>
</g>
<!-- Node10 -->
<g id="node10" class="node"><title>Node10</title>
<g id="a_node10"><a xlink:href="classid_list.html" target="_top" xlink:title="idList\&lt; idSoundEmitterLocal * \&gt;">
<polygon fill="white" stroke="black" points="704.5,-43.5286 704.5,-62.5286 859.5,-62.5286 859.5,-43.5286 704.5,-43.5286"/>
<text text-anchor="middle" x="782" y="-50.5286" font-family="Arial" font-size="10.00">idList&lt; idSoundEmitterLocal * &gt;</text>
</a>
</g>
</g>
<!-- Node10&#45;&gt;Node3 -->
<g id="edge10" class="edge"><title>Node10&#45;&gt;Node3</title>
<path fill="none" stroke="#9a32cd" stroke-dasharray="5,2" d="M869.744,-46.0952C892.029,-47.8944 915.041,-53.194 934,-65.0286 973.942,-89.9615 993.297,-147.664 999.599,-170.488"/>
<polygon fill="#9a32cd" stroke="#9a32cd" points="869.76,-42.5903 859.574,-45.504 869.354,-49.5785 869.76,-42.5903"/>
<text text-anchor="middle" x="906" y="-68.0286" font-family="Arial" font-size="10.00"> emitters</text>
</g>
<!-- Node11 -->
<g id="node11" class="node"><title>Node11</title>
<g id="a_node11"><a xlink:href="classid_vec3.html" target="_top" xlink:title="idVec3">
<polygon fill="white" stroke="black" points="524.5,-5.52857 524.5,-24.5286 571.5,-24.5286 571.5,-5.52857 524.5,-5.52857"/>
<text text-anchor="middle" x="548" y="-12.5286" font-family="Arial" font-size="10.00">idVec3</text>
</a>
</g>
</g>
<!-- Node11&#45;&gt;Node1 -->
<g id="edge26" class="edge"><title>Node11&#45;&gt;Node1</title>
<path fill="none" stroke="#9a32cd" stroke-dasharray="5,2" d="M581.938,-15.0283C611.572,-16.5471 655.08,-22.6917 686,-44.0286 698.176,-52.4311 691.965,-63.4244 704,-72.0286 711.169,-77.1537 719.565,-80.9038 728.128,-83.646"/>
<polygon fill="#9a32cd" stroke="#9a32cd" points="581.817,-11.5218 571.697,-14.6585 581.564,-18.5172 581.817,-11.5218"/>
<text text-anchor="middle" x="648" y="-58.0286" font-family="Arial" font-size="10.00"> origin</text>
<text text-anchor="middle" x="648" y="-47.0286" font-family="Arial" font-size="10.00">spatializedOrigin</text>
</g>
<!-- Node11&#45;&gt;Node3 -->
<g id="edge11" class="edge"><title>Node11&#45;&gt;Node3</title>
<path fill="none" stroke="#9a32cd" stroke-dasharray="5,2" d="M581.802,-10.1942C639.002,-2.76066 760.404,8.58331 860,-12.0286 895.089,-19.2904 907.97,-19.4041 934,-44.0286 973.313,-81.2179 993.269,-146.056 999.66,-170.414"/>
<polygon fill="#9a32cd" stroke="#9a32cd" points="581.009,-6.7693 571.566,-11.5731 581.943,-13.7066 581.009,-6.7693"/>
<text text-anchor="middle" x="782" y="-26.0286" font-family="Arial" font-size="10.00"> listenerQU</text>
<text text-anchor="middle" x="782" y="-15.0286" font-family="Arial" font-size="10.00">listenerPos</text>
</g>
<!-- Node12&#45;&gt;Node3 -->
<g id="edge12" class="edge"><title>Node12&#45;&gt;Node3</title>
<path fill="none" stroke="#9a32cd" stroke-dasharray="5,2" d="M824.795,-135.133C855.306,-139.987 897.533,-147.532 934,-157.029 948.231,-160.735 963.791,-165.911 976.43,-170.414"/>
<polygon fill="#9a32cd" stroke="#9a32cd" points="824.941,-131.613 814.521,-133.53 823.861,-138.53 824.941,-131.613"/>
<text text-anchor="middle" x="906" y="-160.029" font-family="Arial" font-size="10.00"> writeDemo</text>
</g>
<!-- Node13 -->
<g id="node13" class="node"><title>Node13</title>
<g id="a_node13"><a xlink:href="structsound_shader_parms__t.html" target="_top" xlink:title="soundShaderParms_t">
<polygon fill="white" stroke="black" points="296,-85.5286 296,-104.529 406,-104.529 406,-85.5286 296,-85.5286"/>
<text text-anchor="middle" x="351" y="-92.5286" font-family="Arial" font-size="10.00">soundShaderParms_t</text>
</a>
</g>
</g>
<!-- Node13&#45;&gt;Node1 -->
<g id="edge14" class="edge"><title>Node13&#45;&gt;Node1</title>
<path fill="none" stroke="#9a32cd" stroke-dasharray="5,2" d="M416.288,-92.9624C443.363,-92.1894 475.211,-91.4073 504,-91.0286 582.14,-90.0006 672.69,-90.2777 728.41,-90.6172"/>
<polygon fill="#9a32cd" stroke="#9a32cd" points="416.055,-89.4676 406.161,-93.2573 416.259,-96.4646 416.055,-89.4676"/>
<text text-anchor="middle" x="548" y="-94.0286" font-family="Arial" font-size="10.00"> parms</text>
</g>
<!-- Node13&#45;&gt;Node14 -->
<g id="edge20" class="edge"><title>Node13&#45;&gt;Node14</title>
<path fill="none" stroke="#9a32cd" stroke-dasharray="5,2" d="M416.093,-103.574C445.041,-107.434 478.459,-111.89 504.285,-115.333"/>
<polygon fill="#9a32cd" stroke="#9a32cd" points="416.434,-100.089 406.059,-102.236 415.509,-107.028 416.434,-100.089"/>
<text text-anchor="middle" x="455" y="-115.029" font-family="Arial" font-size="10.00"> parms</text>
</g>
<!-- Node14&#45;&gt;Node1 -->
<g id="edge15" class="edge"><title>Node14&#45;&gt;Node1</title>
<path fill="none" stroke="#9a32cd" stroke-dasharray="5,2" d="M601.852,-114.194C639.653,-109.306 690.323,-102.754 728.129,-97.8654"/>
<polygon fill="#9a32cd" stroke="#9a32cd" points="601.021,-110.773 591.552,-115.526 601.919,-117.715 601.021,-110.773"/>
<text text-anchor="middle" x="648" y="-115.029" font-family="Arial" font-size="10.00"> channels</text>
</g>
<!-- Node15&#45;&gt;Node14 -->
<g id="edge16" class="edge"><title>Node15&#45;&gt;Node14</title>
<path fill="none" stroke="#9a32cd" stroke-dasharray="5,2" d="M403.489,-223.276C430.97,-217.78 463.638,-207.036 486,-186.029 502.001,-170.997 488.814,-155.883 504,-140.029 507.613,-136.256 512.107,-133.183 516.816,-130.694"/>
<polygon fill="#9a32cd" stroke="#9a32cd" points="402.838,-219.836 393.628,-225.072 404.093,-226.723 402.838,-219.836"/>
<text text-anchor="middle" x="455" y="-220.029" font-family="Arial" font-size="10.00"> leadinSample</text>
</g>
<!-- Node16 -->
<g id="node16" class="node"><title>Node16</title>
<g id="a_node16"><a xlink:href="structwaveformatex__s.html" target="_top" xlink:title="waveformatex_s">
<polygon fill="white" stroke="black" points="128,-219.529 128,-238.529 214,-238.529 214,-219.529 128,-219.529"/>
<text text-anchor="middle" x="171" y="-226.529" font-family="Arial" font-size="10.00">waveformatex_s</text>
</a>
</g>
</g>
<!-- Node16&#45;&gt;Node15 -->
<g id="edge18" class="edge"><title>Node16&#45;&gt;Node15</title>
<path fill="none" stroke="#9a32cd" stroke-dasharray="5,2" d="M224.534,-229.029C251.306,-229.029 283.4,-229.029 308.427,-229.029"/>
<polygon fill="#9a32cd" stroke="#9a32cd" points="224.184,-225.529 214.184,-229.029 224.183,-232.529 224.184,-225.529"/>
<text text-anchor="middle" x="255" y="-232.029" font-family="Arial" font-size="10.00"> objectInfo</text>
</g>
<!-- Node17 -->
<g id="node17" class="node"><title>Node17</title>
<g id="a_node17"><a xlink:href="classid_sound_shader.html" target="_top" xlink:title="idSoundShader">
<polygon fill="white" stroke="black" points="309.5,-175.529 309.5,-194.529 392.5,-194.529 392.5,-175.529 309.5,-175.529"/>
<text text-anchor="middle" x="351" y="-182.529" font-family="Arial" font-size="10.00">idSoundShader</text>
</a>
</g>
</g>
<!-- Node17&#45;&gt;Node14 -->
<g id="edge21" class="edge"><title>Node17&#45;&gt;Node14</title>
<path fill="none" stroke="#9a32cd" stroke-dasharray="5,2" d="M402.672,-176.858C428.338,-171.656 459.576,-163.662 486,-152.029 494.8,-148.154 495.572,-144.655 504,-140.029 510.153,-136.651 517.024,-133.398 523.438,-130.568"/>
<polygon fill="#9a32cd" stroke="#9a32cd" points="401.918,-173.439 392.77,-178.784 403.254,-180.31 401.918,-173.439"/>
<text text-anchor="middle" x="455" y="-174.029" font-family="Arial" font-size="10.00"> soundShader</text>
</g>
<!-- Node18 -->
<g id="node18" class="node"><title>Node18</title>
<g id="a_node18"><a xlink:href="classid_decl.html" target="_top" xlink:title="idDecl">
<polygon fill="white" stroke="black" points="149,-175.529 149,-194.529 193,-194.529 193,-175.529 149,-175.529"/>
<text text-anchor="middle" x="171" y="-182.529" font-family="Arial" font-size="10.00">idDecl</text>
</a>
</g>
</g>
<!-- Node18&#45;&gt;Node17 -->
<g id="edge22" class="edge"><title>Node18&#45;&gt;Node17</title>
<path fill="none" stroke="midnightblue" d="M203.259,-185.029C232.746,-185.029 277.114,-185.029 309.341,-185.029"/>
<polygon fill="midnightblue" stroke="midnightblue" points="203.118,-181.529 193.118,-185.029 203.118,-188.529 203.118,-181.529"/>
</g>
<!-- Node19 -->
<g id="node19" class="node"><title>Node19</title>
<g id="a_node19"><a xlink:href="classid_decl_base.html" target="_top" xlink:title="idDeclBase">
<polygon fill="white" stroke="black" points="0,-175.529 0,-194.529 66,-194.529 66,-175.529 0,-175.529"/>
<text text-anchor="middle" x="33" y="-182.529" font-family="Arial" font-size="10.00">idDeclBase</text>
</a>
</g>
</g>
<!-- Node19&#45;&gt;Node18 -->
<g id="edge23" class="edge"><title>Node19&#45;&gt;Node18</title>
<path fill="none" stroke="#9a32cd" stroke-dasharray="5,2" d="M76.4907,-185.029C100.44,-185.029 129.326,-185.029 148.596,-185.029"/>
<polygon fill="#9a32cd" stroke="#9a32cd" points="76.2301,-181.529 66.2301,-185.029 76.2301,-188.529 76.2301,-181.529"/>
<text text-anchor="middle" x="97" y="-188.029" font-family="Arial" font-size="10.00"> base</text>
</g>
<!-- Node20 -->
<g id="node20" class="node"><title>Node20</title>
<g id="a_node20"><a xlink:href="classid_sample_decoder.html" target="_top" xlink:title="idSampleDecoder">
<polygon fill="white" stroke="black" points="304.5,-137.529 304.5,-156.529 397.5,-156.529 397.5,-137.529 304.5,-137.529"/>
<text text-anchor="middle" x="351" y="-144.529" font-family="Arial" font-size="10.00">idSampleDecoder</text>
</a>
</g>
</g>
<!-- Node20&#45;&gt;Node14 -->
<g id="edge24" class="edge"><title>Node20&#45;&gt;Node14</title>
<path fill="none" stroke="#9a32cd" stroke-dasharray="5,2" d="M407.834,-139.584C438.493,-135.496 475.922,-130.506 504.238,-126.73"/>
<polygon fill="#9a32cd" stroke="#9a32cd" points="407.169,-136.142 397.719,-140.933 408.094,-143.08 407.169,-136.142"/>
<text text-anchor="middle" x="455" y="-140.029" font-family="Arial" font-size="10.00"> decoder</text>
</g>
<!-- Node21 -->
<g id="node21" class="node"><title>Node21</title>
<g id="a_node21"><a xlink:href="classid_slow_channel.html" target="_top" xlink:title="idSlowChannel">
<polygon fill="white" stroke="black" points="508,-149.529 508,-168.529 588,-168.529 588,-149.529 508,-149.529"/>
<text text-anchor="middle" x="548" y="-156.529" font-family="Arial" font-size="10.00">idSlowChannel</text>
</a>
</g>
</g>
<!-- Node21&#45;&gt;Node1 -->
<g id="edge25" class="edge"><title>Node21&#45;&gt;Node1</title>
<path fill="none" stroke="#9a32cd" stroke-dasharray="5,2" d="M598.189,-153.916C625.326,-149.566 658.91,-141.588 686,-127.029 695.693,-121.819 694.34,-115.298 704,-110.029 711.494,-105.94 719.875,-102.718 728.273,-100.182"/>
<polygon fill="#9a32cd" stroke="#9a32cd" points="597.508,-150.478 588.132,-155.411 598.538,-157.402 597.508,-150.478"/>
<text text-anchor="middle" x="648" y="-154.029" font-family="Arial" font-size="10.00"> slowChannels</text>
</g>
</g>
</svg>
        <g id="navigator" transform="translate(0 0)" fill="#404254">
                <rect fill="#f2f5e9" fill-opacity="0.5" stroke="#606060" stroke-width=".5" x="0" y="0" width="60" height="60"/>
                <use id="zoomplus" xlink:href="#zoomPlus" x="17" y="9" onmousedown="handleZoom(evt,'in')"/>
                <use id="zoomminus" xlink:href="#zoomMin" x="42" y="9" onmousedown="handleZoom(evt,'out')"/>
                <use id="reset" xlink:href="#resetDef" x="30" y="36" onmousedown="handleReset()"/>
                <g id="arrowUp" xlink:href="#dirArrow" transform="translate(30 24)" onmousedown="handlePan(0,-1)">
                  <use xlink:href="#rim" fill="#404040">
                        <set attributeName="fill" to="#808080" begin="arrowUp.mouseover" end="arrowUp.mouseout"/>
                  </use>
                  <path fill="none" stroke="white" stroke-width="1.5" d="M0,-3.0v7 M-2.5,-0.5L0,-3.0L2.5,-0.5"/>
                </g>
                <g id="arrowRight" xlink:href="#dirArrow" transform="rotate(90) translate(36 -43)" onmousedown="handlePan(1,0)">
                  <use xlink:href="#rim" fill="#404040">
                        <set attributeName="fill" to="#808080" begin="arrowRight.mouseover" end="arrowRight.mouseout"/>
                  </use>
                  <path fill="none" stroke="white" stroke-width="1.5" d="M0,-3.0v7 M-2.5,-0.5L0,-3.0L2.5,-0.5"/>
                </g>
                <g id="arrowDown" xlink:href="#dirArrow" transform="rotate(180) translate(-30 -48)" onmousedown="handlePan(0,1)">
                  <use xlink:href="#rim" fill="#404040">
                        <set attributeName="fill" to="#808080" begin="arrowDown.mouseover" end="arrowDown.mouseout"/>
                  </use>
                  <path fill="none" stroke="white" stroke-width="1.5" d="M0,-3.0v7 M-2.5,-0.5L0,-3.0L2.5,-0.5"/>
                </g>
                <g id="arrowLeft" xlink:href="#dirArrow" transform="rotate(270) translate(-36 17)" onmousedown="handlePan(-1,0)">
                  <use xlink:href="#rim" fill="#404040">
                        <set attributeName="fill" to="#808080" begin="arrowLeft.mouseover" end="arrowLeft.mouseout"/>
                  </use>
                  <path fill="none" stroke="white" stroke-width="1.5" d="M0,-3.0v7 M-2.5,-0.5L0,-3.0L2.5,-0.5"/>
                </g>
        </g>
        <svg viewBox="0 0 15 15" width="100%" height="30px" preserveAspectRatio="xMaxYMin meet">
         <g id="arrow_out" transform="scale(0.3 0.3)">
          <a xlink:href="classid_sound_emitter_local__coll__graph_org.svg" target="_base">
           <rect id="button" ry="5" rx="5" y="6" x="6" height="38" width="38"
                fill="#f2f5e9" fill-opacity="0.5" stroke="#606060" stroke-width="1.0"/>
           <path id="arrow"
             d="M 11.500037,31.436501 C 11.940474,20.09759 22.043105,11.32322 32.158766,21.979434 L 37.068811,17.246167 C 37.068811,17.246167 37.088388,32 37.088388,32 L 22.160133,31.978069 C 22.160133,31.978069 26.997745,27.140456 26.997745,27.140456 C 18.528582,18.264221 13.291696,25.230495 11.500037,31.436501 z"
             style="fill:#404040;"/>
          </a>
         </g>
        </svg>
</svg>
