<?xml version="1.0" encoding="UTF-8" standalone="no"?>
<!DOCTYPE svg PUBLIC "-//W3C//DTD SVG 1.1//EN"
 "http://www.w3.org/Graphics/SVG/1.1/DTD/svg11.dtd">
<!-- Generated by graphviz version 2.34.0 (20130907.0111)
 -->
<!-- Title: rvDebuggerWindow Pages: 1 -->
<svg width="612pt" height="275pt"
 viewBox="0.00 0.00 612.00 275.00" xmlns="http://www.w3.org/2000/svg" xmlns:xlink="http://www.w3.org/1999/xlink">
<g id="graph0" class="graph" transform="scale(1 1) rotate(0) translate(4 271)">
<title>rvDebuggerWindow</title>
<polygon fill="white" stroke="white" points="-4,4 -4,-271 608,-271 608,4 -4,4"/>
<!-- Node1 -->
<g id="node1" class="node"><title>Node1</title>
<polygon fill="#bfbfbf" stroke="black" points="504.5,-113.5 504.5,-132.5 603.5,-132.5 603.5,-113.5 504.5,-113.5"/>
<text text-anchor="middle" x="554" y="-120.5" font-family="Arial" font-size="10.00">rvDebuggerWindow</text>
</g>
<!-- Node2 -->
<g id="node2" class="node"><title>Node2</title>
<g id="a_node2"><a xlink:href="classid_str.html" target="_top" xlink:title="idStr">
<polygon fill="white" stroke="black" points="61.5,-236.5 61.5,-255.5 98.5,-255.5 98.5,-236.5 61.5,-236.5"/>
<text text-anchor="middle" x="80" y="-243.5" font-family="Arial" font-size="10.00">idStr</text>
</a>
</g>
</g>
<!-- Node2&#45;&gt;Node1 -->
<g id="edge1" class="edge"><title>Node2&#45;&gt;Node1</title>
<path fill="none" stroke="#9a32cd" stroke-dasharray="5,2" d="M108.963,-247.706C143.804,-249.189 204.974,-249.671 256,-239 366.534,-215.883 489.503,-155.948 534.898,-132.553"/>
<polygon fill="#9a32cd" stroke="#9a32cd" points="108.78,-244.193 98.6218,-247.202 108.44,-251.185 108.78,-244.193"/>
<text text-anchor="middle" x="345" y="-259" font-family="Arial" font-size="10.00"> mTooltipVar</text>
<text text-anchor="middle" x="345" y="-248" font-family="Arial" font-size="10.00">mTooltipValue</text>
<text text-anchor="middle" x="345" y="-237" font-family="Arial" font-size="10.00">mFind</text>
</g>
<!-- Node3 -->
<g id="node3" class="node"><title>Node3</title>
<g id="a_node3"><a xlink:href="classrv_debugger_client.html" target="_top" xlink:title="rvDebuggerClient">
<polygon fill="white" stroke="black" points="300.5,-133.5 300.5,-152.5 389.5,-152.5 389.5,-133.5 300.5,-133.5"/>
<text text-anchor="middle" x="345" y="-140.5" font-family="Arial" font-size="10.00">rvDebuggerClient</text>
</a>
</g>
</g>
<!-- Node2&#45;&gt;Node3 -->
<g id="edge3" class="edge"><title>Node2&#45;&gt;Node3</title>
<path fill="none" stroke="#9a32cd" stroke-dasharray="5,2" d="M108.769,-241.253C144.039,-234.621 206.29,-220.875 256,-199 284.84,-186.309 315.13,-164.999 331.575,-152.65"/>
<polygon fill="#9a32cd" stroke="#9a32cd" points="107.943,-237.846 98.7337,-243.085 109.2,-244.733 107.943,-237.846"/>
<text text-anchor="middle" x="217" y="-227" font-family="Arial" font-size="10.00"> mBreakFilename</text>
</g>
<!-- Node3&#45;&gt;Node1 -->
<g id="edge2" class="edge"><title>Node3&#45;&gt;Node1</title>
<path fill="none" stroke="#9a32cd" stroke-dasharray="5,2" d="M399.824,-137.8C432.16,-134.675 472.976,-130.732 504.343,-127.701"/>
<polygon fill="#9a32cd" stroke="#9a32cd" points="399.263,-134.337 389.646,-138.783 399.937,-141.305 399.263,-134.337"/>
<text text-anchor="middle" x="460" y="-137" font-family="Arial" font-size="10.00"> mClient</text>
</g>
<!-- Node4 -->
<g id="node4" class="node"><title>Node4</title>
<g id="a_node4"><a xlink:href="structnetadr__t.html" target="_top" xlink:title="netadr_t">
<polygon fill="white" stroke="black" points="54,-190.5 54,-209.5 106,-209.5 106,-190.5 54,-190.5"/>
<text text-anchor="middle" x="80" y="-197.5" font-family="Arial" font-size="10.00">netadr_t</text>
</a>
</g>
</g>
<!-- Node4&#45;&gt;Node3 -->
<g id="edge4" class="edge"><title>Node4&#45;&gt;Node3</title>
<path fill="none" stroke="#9a32cd" stroke-dasharray="5,2" d="M116.432,-194.915C151.953,-189.539 208.097,-180.282 256,-169 275.693,-164.362 297.505,-157.927 314.486,-152.619"/>
<polygon fill="#9a32cd" stroke="#9a32cd" points="115.476,-191.519 106.102,-196.457 116.51,-198.443 115.476,-191.519"/>
<text text-anchor="middle" x="217" y="-187" font-family="Arial" font-size="10.00"> mServerAdr</text>
</g>
<!-- Node5 -->
<g id="node5" class="node"><title>Node5</title>
<g id="a_node5"><a xlink:href="classid_list.html" target="_top" xlink:title="idList\&lt; rvDebuggerBreakpoint * \&gt;">
<polygon fill="white" stroke="black" points="0.5,-152.5 0.5,-171.5 159.5,-171.5 159.5,-152.5 0.5,-152.5"/>
<text text-anchor="middle" x="80" y="-159.5" font-family="Arial" font-size="10.00">idList&lt; rvDebuggerBreakpoint * &gt;</text>
</a>
</g>
</g>
<!-- Node5&#45;&gt;Node3 -->
<g id="edge5" class="edge"><title>Node5&#45;&gt;Node3</title>
<path fill="none" stroke="#9a32cd" stroke-dasharray="5,2" d="M169.68,-155.593C213.623,-152.419 264.726,-148.727 300.193,-146.165"/>
<polygon fill="#9a32cd" stroke="#9a32cd" points="169.274,-152.114 159.552,-156.325 169.779,-159.095 169.274,-152.114"/>
<text text-anchor="middle" x="217" y="-157" font-family="Arial" font-size="10.00"> mBreakpoints</text>
</g>
<!-- Node6 -->
<g id="node6" class="node"><title>Node6</title>
<g id="a_node6"><a xlink:href="classid_list.html" target="_top" xlink:title="idList\&lt; rvDebuggerThread * \&gt;">
<polygon fill="white" stroke="black" points="9,-114.5 9,-133.5 151,-133.5 151,-114.5 9,-114.5"/>
<text text-anchor="middle" x="80" y="-121.5" font-family="Arial" font-size="10.00">idList&lt; rvDebuggerThread * &gt;</text>
</a>
</g>
</g>
<!-- Node6&#45;&gt;Node3 -->
<g id="edge6" class="edge"><title>Node6&#45;&gt;Node3</title>
<path fill="none" stroke="#9a32cd" stroke-dasharray="5,2" d="M161.614,-127.849C191.305,-129.466 225.201,-131.546 256,-134 270.39,-135.146 286.078,-136.664 300.169,-138.126"/>
<polygon fill="#9a32cd" stroke="#9a32cd" points="161.473,-124.336 151.3,-127.296 161.098,-131.326 161.473,-124.336"/>
<text text-anchor="middle" x="217" y="-137" font-family="Arial" font-size="10.00"> mThreads</text>
</g>
<!-- Node7 -->
<g id="node7" class="node"><title>Node7</title>
<g id="a_node7"><a xlink:href="classid_list.html" target="_top" xlink:title="idList\&lt; rvDebuggerCallstack * \&gt;">
<polygon fill="white" stroke="black" points="3.5,-76.5 3.5,-95.5 156.5,-95.5 156.5,-76.5 3.5,-76.5"/>
<text text-anchor="middle" x="80" y="-83.5" font-family="Arial" font-size="10.00">idList&lt; rvDebuggerCallstack * &gt;</text>
</a>
</g>
</g>
<!-- Node7&#45;&gt;Node3 -->
<g id="edge7" class="edge"><title>Node7&#45;&gt;Node3</title>
<path fill="none" stroke="#9a32cd" stroke-dasharray="5,2" d="M166.809,-92.3877C195.759,-96.3281 227.852,-102.699 256,-113 264.805,-116.222 265.39,-120.29 274,-124 282.558,-127.687 292.017,-130.83 301.142,-133.436"/>
<polygon fill="#9a32cd" stroke="#9a32cd" points="167.076,-88.8934 156.712,-91.0929 166.186,-95.8365 167.076,-88.8934"/>
<text text-anchor="middle" x="217" y="-116" font-family="Arial" font-size="10.00"> mCallstack</text>
</g>
<!-- Node8 -->
<g id="node8" class="node"><title>Node8</title>
<g id="a_node8"><a xlink:href="classid_port.html" target="_top" xlink:title="idPort">
<polygon fill="white" stroke="black" points="59,-38.5 59,-57.5 101,-57.5 101,-38.5 59,-38.5"/>
<text text-anchor="middle" x="80" y="-45.5" font-family="Arial" font-size="10.00">idPort</text>
</a>
</g>
</g>
<!-- Node8&#45;&gt;Node3 -->
<g id="edge8" class="edge"><title>Node8&#45;&gt;Node3</title>
<path fill="none" stroke="#9a32cd" stroke-dasharray="5,2" d="M111.546,-45.0231C149.625,-43.0174 214.714,-45.4215 256,-79 272.711,-92.5916 257.915,-109.673 274,-124 281.334,-130.533 290.698,-134.849 300.173,-137.692"/>
<polygon fill="#9a32cd" stroke="#9a32cd" points="110.853,-41.5616 101.108,-45.7203 111.319,-48.546 110.853,-41.5616"/>
<text text-anchor="middle" x="217" y="-82" font-family="Arial" font-size="10.00"> mPort</text>
</g>
<!-- Node9 -->
<g id="node9" class="node"><title>Node9</title>
<g id="a_node9"><a xlink:href="classid_dict.html" target="_top" xlink:title="idDict">
<polygon fill="white" stroke="black" points="59.5,-0.5 59.5,-19.5 100.5,-19.5 100.5,-0.5 59.5,-0.5"/>
<text text-anchor="middle" x="80" y="-7.5" font-family="Arial" font-size="10.00">idDict</text>
</a>
</g>
</g>
<!-- Node9&#45;&gt;Node3 -->
<g id="edge9" class="edge"><title>Node9&#45;&gt;Node3</title>
<path fill="none" stroke="#9a32cd" stroke-dasharray="5,2" d="M110.704,-4.64776C149.453,0.483081 216.901,2.77979 256,-34 285.712,-61.9498 246.148,-94.1967 274,-124 280.964,-131.452 290.53,-136.091 300.352,-138.95"/>
<polygon fill="#9a32cd" stroke="#9a32cd" points="109.966,-1.21869 100.583,-6.13995 110.987,-8.14383 109.966,-1.21869"/>
<text text-anchor="middle" x="217" y="-37" font-family="Arial" font-size="10.00"> mVariables</text>
</g>
<!-- Node10 -->
<g id="node10" class="node"><title>Node10</title>
<g id="a_node10"><a xlink:href="classid_list.html" target="_top" xlink:title="idList\&lt; rvDebuggerScript * \&gt;">
<polygon fill="white" stroke="black" points="276,-95.5 276,-114.5 414,-114.5 414,-95.5 276,-95.5"/>
<text text-anchor="middle" x="345" y="-102.5" font-family="Arial" font-size="10.00">idList&lt; rvDebuggerScript * &gt;</text>
</a>
</g>
</g>
<!-- Node10&#45;&gt;Node1 -->
<g id="edge10" class="edge"><title>Node10&#45;&gt;Node1</title>
<path fill="none" stroke="#9a32cd" stroke-dasharray="5,2" d="M424.277,-103.934C444.445,-104.41 466.077,-105.581 486,-108 496.058,-109.221 506.823,-111.285 516.717,-113.498"/>
<polygon fill="#9a32cd" stroke="#9a32cd" points="424.259,-100.433 414.197,-103.749 424.131,-107.432 424.259,-100.433"/>
<text text-anchor="middle" x="460" y="-111" font-family="Arial" font-size="10.00"> mScripts</text>
</g>
<!-- Node11 -->
<g id="node11" class="node"><title>Node11</title>
<g id="a_node11"><a xlink:href="classid_list.html" target="_top" xlink:title="idList\&lt; rvDebuggerWatch * \&gt;">
<polygon fill="white" stroke="black" points="274.5,-57.5 274.5,-76.5 415.5,-76.5 415.5,-57.5 274.5,-57.5"/>
<text text-anchor="middle" x="345" y="-64.5" font-family="Arial" font-size="10.00">idList&lt; rvDebuggerWatch * &gt;</text>
</a>
</g>
</g>
<!-- Node11&#45;&gt;Node1 -->
<g id="edge11" class="edge"><title>Node11&#45;&gt;Node1</title>
<path fill="none" stroke="#9a32cd" stroke-dasharray="5,2" d="M425.727,-75.1077C445.698,-78.3382 466.874,-82.8158 486,-89 504.617,-95.0197 524.42,-105.658 537.627,-113.436"/>
<polygon fill="#9a32cd" stroke="#9a32cd" points="426.138,-71.63 415.724,-73.5749 425.078,-78.5492 426.138,-71.63"/>
<text text-anchor="middle" x="460" y="-92" font-family="Arial" font-size="10.00"> mWatches</text>
</g>
</g>
</svg>
