<?xml version="1.0" encoding="UTF-8" standalone="no"?>
<!DOCTYPE svg PUBLIC "-//W3C//DTD SVG 1.1//EN"
 "http://www.w3.org/Graphics/SVG/1.1/DTD/svg11.dtd">
<!-- Generated by graphviz version 2.34.0 (20130907.0111)
 -->
<!-- Title: idInterpolatedPosition Pages: 1 -->
<svg width="286pt" height="242pt"
 viewBox="0.00 0.00 286.00 242.00" xmlns="http://www.w3.org/2000/svg" xmlns:xlink="http://www.w3.org/1999/xlink">
<g id="graph0" class="graph" transform="scale(1 1) rotate(0) translate(4 238)">
<title>idInterpolatedPosition</title>
<polygon fill="white" stroke="white" points="-4,4 -4,-238 282,-238 282,4 -4,4"/>
<!-- Node1 -->
<g id="node1" class="node"><title>Node1</title>
<polygon fill="#bfbfbf" stroke="black" points="146,-0.5 146,-19.5 256,-19.5 256,-0.5 146,-0.5"/>
<text text-anchor="middle" x="201" y="-7.5" font-family="Arial" font-size="10.00">idInterpolatedPosition</text>
</g>
<!-- Node2 -->
<g id="node2" class="node"><title>Node2</title>
<g id="a_node2"><a xlink:href="classid_camera_position.html" target="_top" xlink:title="idCameraPosition">
<polygon fill="white" stroke="black" points="88.5,-78.5 88.5,-97.5 181.5,-97.5 181.5,-78.5 88.5,-78.5"/>
<text text-anchor="middle" x="135" y="-85.5" font-family="Arial" font-size="10.00">idCameraPosition</text>
</a>
</g>
</g>
<!-- Node2&#45;&gt;Node1 -->
<g id="edge1" class="edge"><title>Node2&#45;&gt;Node1</title>
<path fill="none" stroke="midnightblue" d="M149.379,-70.4421C162.97,-54.7918 182.826,-31.9282 193.517,-19.6165"/>
<polygon fill="midnightblue" stroke="midnightblue" points="146.485,-68.4366 142.571,-78.2818 151.771,-73.0264 146.485,-68.4366"/>
</g>
<!-- Node3 -->
<g id="node3" class="node"><title>Node3</title>
<g id="a_node3"><a xlink:href="classid_point_list_interface.html" target="_top" xlink:title="idPointListInterface">
<polygon fill="white" stroke="black" points="-0.5,-146.5 -0.5,-165.5 98.5,-165.5 98.5,-146.5 -0.5,-146.5"/>
<text text-anchor="middle" x="49" y="-153.5" font-family="Arial" font-size="10.00">idPointListInterface</text>
</a>
</g>
</g>
<!-- Node3&#45;&gt;Node2 -->
<g id="edge2" class="edge"><title>Node3&#45;&gt;Node2</title>
<path fill="none" stroke="midnightblue" d="M68.4202,-140.096C85.4833,-127.001 109.718,-108.403 123.754,-97.6305"/>
<polygon fill="midnightblue" stroke="midnightblue" points="66.0452,-137.507 60.243,-146.372 70.307,-143.06 66.0452,-137.507"/>
</g>
<!-- Node4 -->
<g id="node4" class="node"><title>Node4</title>
<g id="a_node4"><a xlink:href="classid_list.html" target="_top" xlink:title="idList\&lt; int \&gt;">
<polygon fill="white" stroke="black" points="15,-214.5 15,-233.5 83,-233.5 83,-214.5 15,-214.5"/>
<text text-anchor="middle" x="49" y="-221.5" font-family="Arial" font-size="10.00">idList&lt; int &gt;</text>
</a>
</g>
</g>
<!-- Node4&#45;&gt;Node3 -->
<g id="edge3" class="edge"><title>Node4&#45;&gt;Node3</title>
<path fill="none" stroke="#9a32cd" stroke-dasharray="5,2" d="M49,-204.041C49,-191.472 49,-175.563 49,-165.841"/>
<polygon fill="#9a32cd" stroke="#9a32cd" points="45.5001,-204.372 49,-214.372 52.5001,-204.372 45.5001,-204.372"/>
<text text-anchor="middle" x="83" y="-187.5" font-family="Arial" font-size="10.00"> selectedPoints</text>
</g>
<!-- Node5 -->
<g id="node5" class="node"><title>Node5</title>
<g id="a_node5"><a xlink:href="classid_str.html" target="_top" xlink:title="idStr">
<polygon fill="white" stroke="black" points="116.5,-146.5 116.5,-165.5 153.5,-165.5 153.5,-146.5 116.5,-146.5"/>
<text text-anchor="middle" x="135" y="-153.5" font-family="Arial" font-size="10.00">idStr</text>
</a>
</g>
</g>
<!-- Node5&#45;&gt;Node2 -->
<g id="edge4" class="edge"><title>Node5&#45;&gt;Node2</title>
<path fill="none" stroke="#9a32cd" stroke-dasharray="5,2" d="M135,-136.041C135,-123.472 135,-107.563 135,-97.8411"/>
<polygon fill="#9a32cd" stroke="#9a32cd" points="131.5,-136.372 135,-146.372 138.5,-136.372 131.5,-136.372"/>
<text text-anchor="middle" x="149" y="-119.5" font-family="Arial" font-size="10.00"> name</text>
</g>
<!-- Node6 -->
<g id="node6" class="node"><title>Node6</title>
<g id="a_node6"><a xlink:href="classid_list.html" target="_top" xlink:title="idList\&lt; idVelocity * \&gt;">
<polygon fill="white" stroke="black" points="171.5,-146.5 171.5,-165.5 278.5,-165.5 278.5,-146.5 171.5,-146.5"/>
<text text-anchor="middle" x="225" y="-153.5" font-family="Arial" font-size="10.00">idList&lt; idVelocity * &gt;</text>
</a>
</g>
</g>
<!-- Node6&#45;&gt;Node2 -->
<g id="edge5" class="edge"><title>Node6&#45;&gt;Node2</title>
<path fill="none" stroke="#9a32cd" stroke-dasharray="5,2" d="M205.166,-140.455C187.286,-127.343 161.593,-108.502 146.769,-97.6305"/>
<polygon fill="#9a32cd" stroke="#9a32cd" points="203.1,-143.28 213.234,-146.372 207.24,-137.636 203.1,-143.28"/>
<text text-anchor="middle" x="210.5" y="-119.5" font-family="Arial" font-size="10.00"> velocities</text>
</g>
<!-- Node7 -->
<g id="node7" class="node"><title>Node7</title>
<g id="a_node7"><a xlink:href="classid_vec3.html" target="_top" xlink:title="idVec3">
<polygon fill="white" stroke="black" points="199.5,-78.5 199.5,-97.5 246.5,-97.5 246.5,-78.5 199.5,-78.5"/>
<text text-anchor="middle" x="223" y="-85.5" font-family="Arial" font-size="10.00">idVec3</text>
</a>
</g>
</g>
<!-- Node7&#45;&gt;Node1 -->
<g id="edge6" class="edge"><title>Node7&#45;&gt;Node1</title>
<path fill="none" stroke="#9a32cd" stroke-dasharray="5,2" d="M217.695,-68.6744C213.191,-53.1127 206.926,-31.4722 203.494,-19.6165"/>
<polygon fill="#9a32cd" stroke="#9a32cd" points="214.334,-69.6494 220.476,-78.2818 221.058,-67.703 214.334,-69.6494"/>
<text text-anchor="middle" x="232.5" y="-52" font-family="Arial" font-size="10.00"> endPos</text>
<text text-anchor="middle" x="232.5" y="-41" font-family="Arial" font-size="10.00">startPos</text>
</g>
</g>
</svg>
