<?xml version="1.0" encoding="UTF-8" standalone="no"?>
<!DOCTYPE svg PUBLIC "-//W3C//DTD SVG 1.1//EN"
 "http://www.w3.org/Graphics/SVG/1.1/DTD/svg11.dtd">
<!-- Generated by graphviz version 2.34.0 (20130907.0111)
 -->
<!-- Title: idTypeInfoTools Pages: 1 -->
<svg width="114pt" height="96pt"
 viewBox="0.00 0.00 114.00 96.00" xmlns="http://www.w3.org/2000/svg" xmlns:xlink="http://www.w3.org/1999/xlink">
<g id="graph0" class="graph" transform="scale(1 1) rotate(0) translate(4 92)">
<title>idTypeInfoTools</title>
<polygon fill="white" stroke="white" points="-4,4 -4,-92 110,-92 110,4 -4,4"/>
<!-- Node1 -->
<g id="node1" class="node"><title>Node1</title>
<polygon fill="#bfbfbf" stroke="black" points="13.5,-0.5 13.5,-19.5 96.5,-19.5 96.5,-0.5 13.5,-0.5"/>
<text text-anchor="middle" x="55" y="-7.5" font-family="Arial" font-size="10.00">idTypeInfoTools</text>
</g>
<!-- Node2 -->
<g id="node2" class="node"><title>Node2</title>
<g id="a_node2"><a xlink:href="classid_lexer.html" target="_top" xlink:title="idLexer">
<polygon fill="white" stroke="black" points="0,-68.5 0,-87.5 48,-87.5 48,-68.5 0,-68.5"/>
<text text-anchor="middle" x="24" y="-75.5" font-family="Arial" font-size="10.00">idLexer</text>
</a>
</g>
</g>
<!-- Node2&#45;&gt;Node1 -->
<g id="edge1" class="edge"><title>Node2&#45;&gt;Node1</title>
<path fill="none" stroke="#9a32cd" stroke-dasharray="5,2" d="M32.3672,-59.1859C38.3482,-46.4523 46.1412,-29.8607 50.8474,-19.8411"/>
<polygon fill="#9a32cd" stroke="#9a32cd" points="29.1362,-57.8324 28.0527,-68.3717 35.4721,-60.8083 29.1362,-57.8324"/>
<text text-anchor="middle" x="51.5" y="-41.5" font-family="Arial" font-size="10.00"> src</text>
</g>
<!-- Node3 -->
<g id="node3" class="node"><title>Node3</title>
<g id="a_node3"><a xlink:href="classid_file.html" target="_top" xlink:title="idFile">
<polygon fill="white" stroke="black" points="66,-68.5 66,-87.5 106,-87.5 106,-68.5 66,-68.5"/>
<text text-anchor="middle" x="86" y="-75.5" font-family="Arial" font-size="10.00">idFile</text>
</a>
</g>
</g>
<!-- Node3&#45;&gt;Node1 -->
<g id="edge2" class="edge"><title>Node3&#45;&gt;Node1</title>
<path fill="none" stroke="#9a32cd" stroke-dasharray="5,2" d="M77.6328,-59.1859C71.6518,-46.4523 63.8588,-29.8607 59.1526,-19.8411"/>
<polygon fill="#9a32cd" stroke="#9a32cd" points="74.5279,-60.8083 81.9473,-68.3717 80.8638,-57.8324 74.5279,-60.8083"/>
<text text-anchor="middle" x="78.5" y="-41.5" font-family="Arial" font-size="10.00"> fp</text>
</g>
</g>
</svg>
