<?xml version="1.0" encoding="UTF-8" standalone="no"?>
<!DOCTYPE svg PUBLIC "-//W3C//DTD SVG 1.1//EN"
 "http://www.w3.org/Graphics/SVG/1.1/DTD/svg11.dtd">
<!-- Generated by graphviz version 2.34.0 (20130907.0111)
 -->
<!-- Title: idForce_Field Pages: 1 -->
<svg width="433pt" height="292pt"
 viewBox="0.00 0.00 433.00 292.00" xmlns="http://www.w3.org/2000/svg" xmlns:xlink="http://www.w3.org/1999/xlink">
<g id="graph0" class="graph" transform="scale(1 1) rotate(0) translate(4 288)">
<title>idForce_Field</title>
<polygon fill="white" stroke="white" points="-4,4 -4,-288 429,-288 429,4 -4,4"/>
<!-- Node1 -->
<g id="node1" class="node"><title>Node1</title>
<polygon fill="#bfbfbf" stroke="black" points="-0.5,-0.5 -0.5,-19.5 74.5,-19.5 74.5,-0.5 -0.5,-0.5"/>
<text text-anchor="middle" x="37" y="-7.5" font-family="Arial" font-size="10.00">idForce_Field</text>
</g>
<!-- Node2 -->
<g id="node2" class="node"><title>Node2</title>
<g id="a_node2"><a xlink:href="classid_force.html" target="_top" xlink:title="idForce">
<polygon fill="white" stroke="black" points="12.5,-59.5 12.5,-78.5 61.5,-78.5 61.5,-59.5 12.5,-59.5"/>
<text text-anchor="middle" x="37" y="-66.5" font-family="Arial" font-size="10.00">idForce</text>
</a>
</g>
</g>
<!-- Node2&#45;&gt;Node1 -->
<g id="edge1" class="edge"><title>Node2&#45;&gt;Node1</title>
<path fill="none" stroke="midnightblue" d="M30.59,-48.9331C29.8505,-39.0243 30.3174,-27.4007 31.9906,-19.6571"/>
<polygon fill="midnightblue" stroke="midnightblue" points="27.1531,-49.6407 31.9375,-59.0938 34.0923,-48.7204 27.1531,-49.6407"/>
</g>
<!-- Node2&#45;&gt;Node1 -->
<g id="edge11" class="edge"><title>Node2&#45;&gt;Node1</title>
<path fill="none" stroke="midnightblue" d="M43.41,-48.9331C44.1495,-39.0243 43.6826,-27.4007 42.0094,-19.6571"/>
<polygon fill="midnightblue" stroke="midnightblue" points="39.9077,-48.7204 42.0625,-59.0938 46.8469,-49.6407 39.9077,-48.7204"/>
</g>
<!-- Node3 -->
<g id="node3" class="node"><title>Node3</title>
<g id="a_node3"><a xlink:href="classid_class.html" target="_top" xlink:title="idClass">
<polygon fill="white" stroke="black" points="54.5,-128.5 54.5,-147.5 103.5,-147.5 103.5,-128.5 54.5,-128.5"/>
<text text-anchor="middle" x="79" y="-135.5" font-family="Arial" font-size="10.00">idClass</text>
</a>
</g>
</g>
<!-- Node3&#45;&gt;Node2 -->
<g id="edge2" class="edge"><title>Node3&#45;&gt;Node2</title>
<path fill="none" stroke="midnightblue" d="M58.0845,-120.31C55.5546,-116.935 53.1568,-113.383 51,-110 44.2826,-99.4625 37.2112,-86.914 34.7483,-78.7185"/>
<polygon fill="midnightblue" stroke="midnightblue" points="55.503,-122.68 64.5828,-128.14 60.8895,-118.21 55.503,-122.68"/>
</g>
<!-- Node3&#45;&gt;Node2 -->
<g id="edge10" class="edge"><title>Node3&#45;&gt;Node2</title>
<path fill="none" stroke="midnightblue" d="M75.1557,-119.439C73.1453,-116.327 70.9719,-113.093 69,-110 62.2826,-99.4625 55.2112,-86.914 48.6752,-78.7185"/>
<polygon fill="midnightblue" stroke="midnightblue" points="72.2117,-121.336 80.3328,-128.14 78.2274,-117.756 72.2117,-121.336"/>
</g>
<!-- Node4 -->
<g id="node4" class="node"><title>Node4</title>
<g id="a_node4"><a xlink:href="classid_type_info.html" target="_top" xlink:title="idTypeInfo">
<polygon fill="white" stroke="black" points="161,-59.5 161,-78.5 221,-78.5 221,-59.5 161,-59.5"/>
<text text-anchor="middle" x="191" y="-66.5" font-family="Arial" font-size="10.00">idTypeInfo</text>
</a>
</g>
</g>
<!-- Node3&#45;&gt;Node4 -->
<g id="edge8" class="edge"><title>Node3&#45;&gt;Node4</title>
<path fill="none" stroke="#9a32cd" stroke-dasharray="5,2" d="M72.502,-118.153C71.3077,-111.175 71.5946,-103.607 76,-98 86.3786,-84.7912 130.409,-77.0333 160.873,-73.1516"/>
<polygon fill="#9a32cd" stroke="#9a32cd" points="69.2438,-119.515 75.2188,-128.264 76.0041,-117.699 69.2438,-119.515"/>
<text text-anchor="middle" x="110.5" y="-101.5" font-family="Arial" font-size="10.00"> CreateInstance</text>
</g>
<!-- Node4&#45;&gt;Node3 -->
<g id="edge3" class="edge"><title>Node4&#45;&gt;Node3</title>
<path fill="none" stroke="#9a32cd" stroke-dasharray="5,2" d="M176.961,-86.1013C169.321,-94.1114 159.336,-103.454 149,-110 135.025,-118.851 117.688,-125.565 103.764,-130.084"/>
<polygon fill="#9a32cd" stroke="#9a32cd" points="179.576,-88.4285 183.745,-78.6883 174.411,-83.7028 179.576,-88.4285"/>
<text text-anchor="middle" x="177.5" y="-101.5" font-family="Arial" font-size="10.00"> Type</text>
</g>
<!-- Node4&#45;&gt;Node4 -->
<g id="edge4" class="edge"><title>Node4&#45;&gt;Node4</title>
<path fill="none" stroke="#9a32cd" stroke-dasharray="5,2" d="M231.659,-73.7243C236.121,-72.8242 239,-71.2495 239,-69 239,-65.3086 231.248,-63.4341 221.467,-63.3764"/>
<polygon fill="#9a32cd" stroke="#9a32cd" points="231.121,-70.2582 221.467,-74.6236 231.736,-77.2311 231.121,-70.2582"/>
<text text-anchor="middle" x="251.5" y="-72" font-family="Arial" font-size="10.00"> next</text>
<text text-anchor="middle" x="251.5" y="-61" font-family="Arial" font-size="10.00">super</text>
</g>
<!-- Node5 -->
<g id="node5" class="node"><title>Node5</title>
<g id="a_node5"><a xlink:href="classid_hierarchy.html" target="_top" xlink:title="idHierarchy\&lt; idTypeInfo \&gt;">
<polygon fill="white" stroke="black" points="298.5,-128.5 298.5,-147.5 425.5,-147.5 425.5,-128.5 298.5,-128.5"/>
<text text-anchor="middle" x="362" y="-135.5" font-family="Arial" font-size="10.00">idHierarchy&lt; idTypeInfo &gt;</text>
</a>
</g>
</g>
<!-- Node5&#45;&gt;Node4 -->
<g id="edge5" class="edge"><title>Node5&#45;&gt;Node4</title>
<path fill="none" stroke="#9a32cd" stroke-dasharray="5,2" d="M330.493,-124.655C296.349,-111.277 242.76,-90.2803 212.921,-78.5888"/>
<polygon fill="#9a32cd" stroke="#9a32cd" points="329.407,-127.989 339.995,-128.378 331.961,-121.471 329.407,-127.989"/>
<text text-anchor="middle" x="304.5" y="-101.5" font-family="Arial" font-size="10.00"> node</text>
</g>
<!-- Node6 -->
<g id="node6" class="node"><title>Node6</title>
<g id="a_node6"><a xlink:href="structid_event_func.html" target="_top" xlink:title="idEventFunc\&lt; idClass \&gt;">
<polygon fill="white" stroke="black" points="109,-196.5 109,-215.5 229,-215.5 229,-196.5 109,-196.5"/>
<text text-anchor="middle" x="169" y="-203.5" font-family="Arial" font-size="10.00">idEventFunc&lt; idClass &gt;</text>
</a>
</g>
</g>
<!-- Node6&#45;&gt;Node3 -->
<g id="edge9" class="edge"><title>Node6&#45;&gt;Node3</title>
<path fill="none" stroke="#9a32cd" stroke-dasharray="5,2" d="M146.623,-190.786C140.508,-186.761 133.934,-182.302 128,-178 114.268,-168.044 99.0763,-155.74 89.3031,-147.646"/>
<polygon fill="#9a32cd" stroke="#9a32cd" points="144.83,-193.795 155.124,-196.302 148.641,-187.923 144.83,-193.795"/>
<text text-anchor="middle" x="162.5" y="-169.5" font-family="Arial" font-size="10.00"> eventCallbacks</text>
</g>
<!-- Node6&#45;&gt;Node4 -->
<g id="edge6" class="edge"><title>Node6&#45;&gt;Node4</title>
<path fill="none" stroke="#9a32cd" stroke-dasharray="5,2" d="M189.444,-189.294C192.521,-185.927 195.247,-182.125 197,-178 211.614,-143.606 199.882,-97.4235 193.933,-78.5629"/>
<polygon fill="#9a32cd" stroke="#9a32cd" points="186.844,-186.933 181.921,-196.315 191.62,-192.051 186.844,-186.933"/>
<text text-anchor="middle" x="239.5" y="-135.5" font-family="Arial" font-size="10.00"> eventCallbacks</text>
</g>
<!-- Node7 -->
<g id="node7" class="node"><title>Node7</title>
<g id="a_node7"><a xlink:href="classid_event_def.html" target="_top" xlink:title="idEventDef">
<polygon fill="white" stroke="black" points="138,-264.5 138,-283.5 200,-283.5 200,-264.5 138,-264.5"/>
<text text-anchor="middle" x="169" y="-271.5" font-family="Arial" font-size="10.00">idEventDef</text>
</a>
</g>
</g>
<!-- Node7&#45;&gt;Node6 -->
<g id="edge7" class="edge"><title>Node7&#45;&gt;Node6</title>
<path fill="none" stroke="#9a32cd" stroke-dasharray="5,2" d="M169,-254.041C169,-241.472 169,-225.563 169,-215.841"/>
<polygon fill="#9a32cd" stroke="#9a32cd" points="165.5,-254.372 169,-264.372 172.5,-254.372 165.5,-254.372"/>
<text text-anchor="middle" x="182" y="-237.5" font-family="Arial" font-size="10.00"> event</text>
</g>
</g>
</svg>
