<?xml version="1.0" encoding="UTF-8" standalone="no"?>
<!DOCTYPE svg PUBLIC "-//W3C//DTD SVG 1.1//EN"
 "http://www.w3.org/Graphics/SVG/1.1/DTD/svg11.dtd">
<!-- Generated by graphviz version 2.34.0 (20130907.0111)
 -->
<!-- Title: idClassTypeInfo Pages: 1 -->
<svg width="203pt" height="118pt"
 viewBox="0.00 0.00 203.00 118.00" xmlns="http://www.w3.org/2000/svg" xmlns:xlink="http://www.w3.org/1999/xlink">
<g id="graph0" class="graph" transform="scale(1 1) rotate(0) translate(4 114)">
<title>idClassTypeInfo</title>
<polygon fill="white" stroke="white" points="-4,4 -4,-114 199,-114 199,4 -4,4"/>
<!-- Node1 -->
<g id="node1" class="node"><title>Node1</title>
<polygon fill="#bfbfbf" stroke="black" points="28.5,-0.5 28.5,-19.5 113.5,-19.5 113.5,-0.5 28.5,-0.5"/>
<text text-anchor="middle" x="71" y="-7.5" font-family="Arial" font-size="10.00">idClassTypeInfo</text>
</g>
<!-- Node2 -->
<g id="node2" class="node"><title>Node2</title>
<g id="a_node2"><a xlink:href="classid_str.html" target="_top" xlink:title="idStr">
<polygon fill="white" stroke="black" points="-0.5,-90.5 -0.5,-109.5 36.5,-109.5 36.5,-90.5 -0.5,-90.5"/>
<text text-anchor="middle" x="18" y="-97.5" font-family="Arial" font-size="10.00">idStr</text>
</a>
</g>
</g>
<!-- Node2&#45;&gt;Node1 -->
<g id="edge1" class="edge"><title>Node2&#45;&gt;Node1</title>
<path fill="none" stroke="#9a32cd" stroke-dasharray="5,2" d="M28.5148,-81.5415C39.751,-62.8851 57.109,-34.0643 65.7457,-19.7241"/>
<polygon fill="#9a32cd" stroke="#9a32cd" points="25.4367,-79.8684 23.2756,-90.2405 31.4331,-83.4799 25.4367,-79.8684"/>
<text text-anchor="middle" x="78" y="-63.5" font-family="Arial" font-size="10.00"> typeName</text>
<text text-anchor="middle" x="78" y="-52.5" font-family="Arial" font-size="10.00">superType</text>
<text text-anchor="middle" x="78" y="-41.5" font-family="Arial" font-size="10.00">scope</text>
</g>
<!-- Node3 -->
<g id="node3" class="node"><title>Node3</title>
<g id="a_node3"><a xlink:href="classid_list.html" target="_top" xlink:title="idList\&lt; idClassVariableInfo \&gt;">
<polygon fill="white" stroke="black" points="55,-90.5 55,-109.5 195,-109.5 195,-90.5 55,-90.5"/>
<text text-anchor="middle" x="125" y="-97.5" font-family="Arial" font-size="10.00">idList&lt; idClassVariableInfo &gt;</text>
</a>
</g>
</g>
<!-- Node3&#45;&gt;Node1 -->
<g id="edge2" class="edge"><title>Node3&#45;&gt;Node1</title>
<path fill="none" stroke="#9a32cd" stroke-dasharray="5,2" d="M121.032,-80.5305C117.675,-67.777 111.953,-50.8641 103,-38 98.0171,-30.8407 90.6744,-24.4606 84.2791,-19.7023"/>
<polygon fill="#9a32cd" stroke="#9a32cd" points="117.675,-81.5431 123.395,-90.4611 124.485,-79.9225 117.675,-81.5431"/>
<text text-anchor="middle" x="139.5" y="-52.5" font-family="Arial" font-size="10.00"> variables</text>
</g>
</g>
</svg>
