<?xml version="1.0" encoding="UTF-8" standalone="no"?>
<!DOCTYPE svg PUBLIC "-//W3C//DTD SVG 1.1//EN"
 "http://www.w3.org/Graphics/SVG/1.1/DTD/svg11.dtd">
<!-- Generated by graphviz version 2.34.0 (20130907.0111)
 -->
<!-- Title: rvGEModifierGroup Pages: 1 -->
<!--zoomable 1168 -->
<svg id="main" version="1.1" xmlns="http://www.w3.org/2000/svg" xmlns:xlink="http://www.w3.org/1999/xlink" xml:space="preserve" onload="init(evt)">
<style type="text/css"><![CDATA[
.edge:hover path { stroke: red; }
.edge:hover polygon { stroke: red; fill: red; }
]]></style>
<script type="text/javascript"><![CDATA[
var edges = document.getElementsByTagName('g');
if (edges && edges.length) {
  for (var i=0;i<edges.length;i++) {
    if (edges[i].id.substr(0,4)=='edge') {
      edges[i].setAttribute('class','edge');
    }
  }
}
]]></script>
        <defs>
                <circle id="rim" cx="0" cy="0" r="7"/>
                <circle id="rim2" cx="0" cy="0" r="3.5"/>
                <g id="zoomPlus">
                        <use xlink:href="#rim" fill="#404040">
                                <set attributeName="fill" to="#808080" begin="zoomplus.mouseover" end="zoomplus.mouseout"/>
                        </use>
                        <path d="M-4,0h8M0,-4v8" fill="none" stroke="white" stroke-width="1.5" pointer-events="none"/>
                </g>
                <g id="zoomMin">
                        <use xlink:href="#rim" fill="#404040">
                                <set attributeName="fill" to="#808080" begin="zoomminus.mouseover" end="zoomminus.mouseout"/>
                        </use>
                        <path d="M-4,0h8" fill="none" stroke="white" stroke-width="1.5" pointer-events="none"/>
                </g>
                <g id="dirArrow">
                        <path fill="none" stroke="white" stroke-width="1.5" d="M0,-3.0v7 M-2.5,-0.5L0,-3.0L2.5,-0.5"/>
                </g>
               <g id="resetDef">
                       <use xlink:href="#rim2" fill="#404040">
                               <set attributeName="fill" to="#808080" begin="reset.mouseover" end="reset.mouseout"/>
                       </use>
               </g>
        </defs>

<script type="text/javascript">
var viewWidth = 1356;
var viewHeight = 1168;
var sectionId = 'dynsection-1';
</script>
<script xlink:href="svgpan.js"/>
<svg id="graph" class="graph">
<g id="viewport">
<title>rvGEModifierGroup</title>
<polygon fill="white" stroke="white" points="-4,4 -4,-1164 1352,-1164 1352,4 -4,4"/>
<!-- Node1 -->
<g id="node1" class="node"><title>Node1</title>
<polygon fill="#bfbfbf" stroke="black" points="1250,-481.5 1250,-500.5 1348,-500.5 1348,-481.5 1250,-481.5"/>
<text text-anchor="middle" x="1299" y="-488.5" font-family="Arial" font-size="10.00">rvGEModifierGroup</text>
</g>
<!-- Node2 -->
<g id="node2" class="node"><title>Node2</title>
<g id="a_node2"><a xlink:href="classrv_g_e_modifier.html" target="_top" xlink:title="rvGEModifier">
<polygon fill="white" stroke="black" points="1066.5,-503.5 1066.5,-522.5 1137.5,-522.5 1137.5,-503.5 1066.5,-503.5"/>
<text text-anchor="middle" x="1102" y="-510.5" font-family="Arial" font-size="10.00">rvGEModifier</text>
</a>
</g>
</g>
<!-- Node2&#45;&gt;Node1 -->
<g id="edge1" class="edge"><title>Node2&#45;&gt;Node1</title>
<path fill="none" stroke="midnightblue" d="M1147.81,-507.945C1178.33,-504.502 1218.69,-499.948 1249.89,-496.428"/>
<polygon fill="midnightblue" stroke="midnightblue" points="1147.41,-504.468 1137.86,-509.067 1148.19,-511.424 1147.41,-504.468"/>
</g>
<!-- Node3 -->
<g id="node3" class="node"><title>Node3</title>
<g id="a_node3"><a xlink:href="classid_str.html" target="_top" xlink:title="idStr">
<polygon fill="white" stroke="black" points="145.5,-1007.5 145.5,-1026.5 182.5,-1026.5 182.5,-1007.5 145.5,-1007.5"/>
<text text-anchor="middle" x="164" y="-1014.5" font-family="Arial" font-size="10.00">idStr</text>
</a>
</g>
</g>
<!-- Node3&#45;&gt;Node2 -->
<g id="edge2" class="edge"><title>Node3&#45;&gt;Node2</title>
<path fill="none" stroke="#9a32cd" stroke-dasharray="5,2" d="M172.704,-1036.55C188.614,-1073.3 228.814,-1149 290,-1149 290,-1149 290,-1149 902,-1149 1039.24,-1149 1093.02,-602.752 1100.16,-522.736"/>
<polygon fill="#9a32cd" stroke="#9a32cd" points="175.771,-1034.82 168.705,-1026.92 169.306,-1037.5 175.771,-1034.82"/>
<text text-anchor="middle" x="641" y="-1152" font-family="Arial" font-size="10.00"> mName</text>
</g>
<!-- Node4 -->
<g id="node4" class="node"><title>Node4</title>
<g id="a_node4"><a xlink:href="classid_window.html" target="_top" xlink:title="idWindow">
<polygon fill="white" stroke="black" points="704.5,-503.5 704.5,-522.5 763.5,-522.5 763.5,-503.5 704.5,-503.5"/>
<text text-anchor="middle" x="734" y="-510.5" font-family="Arial" font-size="10.00">idWindow</text>
</a>
</g>
</g>
<!-- Node3&#45;&gt;Node4 -->
<g id="edge11" class="edge"><title>Node3&#45;&gt;Node4</title>
<path fill="none" stroke="#9a32cd" stroke-dasharray="5,2" d="M192.402,-1025.67C208.983,-1030.76 230.602,-1037.14 250,-1042 438.054,-1089.16 559.558,-1202.97 686,-1056 722.255,-1013.86 731.553,-591.518 732.835,-522.512"/>
<polygon fill="#9a32cd" stroke="#9a32cd" points="193.382,-1022.31 182.794,-1022.69 191.308,-1029 193.382,-1022.31"/>
<text text-anchor="middle" x="387" y="-1125" font-family="Arial" font-size="10.00"> comment</text>
<text text-anchor="middle" x="387" y="-1114" font-family="Arial" font-size="10.00">cmd</text>
<text text-anchor="middle" x="387" y="-1103" font-family="Arial" font-size="10.00">name</text>
</g>
<!-- Node12 -->
<g id="node12" class="node"><title>Node12</title>
<g id="a_node12"><a xlink:href="classid_win_str.html" target="_top" xlink:title="idWinStr">
<polygon fill="white" stroke="black" points="264,-820.5 264,-839.5 318,-839.5 318,-820.5 264,-820.5"/>
<text text-anchor="middle" x="291" y="-827.5" font-family="Arial" font-size="10.00">idWinStr</text>
</a>
</g>
</g>
<!-- Node3&#45;&gt;Node12 -->
<g id="edge16" class="edge"><title>Node3&#45;&gt;Node12</title>
<path fill="none" stroke="#9a32cd" stroke-dasharray="5,2" d="M170.56,-997.238C180.922,-963.731 206.197,-895.474 250,-855 256.376,-849.109 264.329,-843.81 271.461,-839.623"/>
<polygon fill="#9a32cd" stroke="#9a32cd" points="167.1,-996.597 167.613,-1007.18 173.811,-998.586 167.1,-996.597"/>
<text text-anchor="middle" x="221" y="-908" font-family="Arial" font-size="10.00"> data</text>
</g>
<!-- Node18 -->
<g id="node18" class="node"><title>Node18</title>
<g id="a_node18"><a xlink:href="classid_win_background.html" target="_top" xlink:title="idWinBackground">
<polygon fill="white" stroke="black" points="463.5,-899.5 463.5,-918.5 556.5,-918.5 556.5,-899.5 463.5,-899.5"/>
<text text-anchor="middle" x="510" y="-906.5" font-family="Arial" font-size="10.00">idWinBackground</text>
</a>
</g>
</g>
<!-- Node3&#45;&gt;Node18 -->
<g id="edge26" class="edge"><title>Node3&#45;&gt;Node18</title>
<path fill="none" stroke="#9a32cd" stroke-dasharray="5,2" d="M182.633,-1000.37C198.859,-986.039 224.245,-965.98 250,-955 320.578,-924.912 410.064,-914.504 463.246,-910.904"/>
<polygon fill="#9a32cd" stroke="#9a32cd" points="180.088,-997.951 175.03,-1007.26 184.789,-1003.14 180.088,-997.951"/>
<text text-anchor="middle" x="291" y="-958" font-family="Arial" font-size="10.00"> data</text>
</g>
<!-- Node4&#45;&gt;Node2 -->
<g id="edge3" class="edge"><title>Node4&#45;&gt;Node2</title>
<path fill="none" stroke="#9a32cd" stroke-dasharray="5,2" d="M774.135,-513C846.021,-513 997.981,-513 1066.37,-513"/>
<polygon fill="#9a32cd" stroke="#9a32cd" points="773.719,-509.5 763.719,-513 773.719,-516.5 773.719,-509.5"/>
<text text-anchor="middle" x="901" y="-516" font-family="Arial" font-size="10.00"> mWindow</text>
</g>
<!-- Node4&#45;&gt;Node4 -->
<g id="edge13" class="edge"><title>Node4&#45;&gt;Node4</title>
<path fill="none" stroke="#9a32cd" stroke-dasharray="5,2" d="M721.109,-532.766C722.122,-537.497 726.419,-541 734,-541 746.441,-541 750.038,-531.565 744.789,-522.757"/>
<polygon fill="#9a32cd" stroke="#9a32cd" points="724.581,-533.263 723.211,-522.757 717.73,-531.824 724.581,-533.263"/>
<text text-anchor="middle" x="734" y="-577" font-family="Arial" font-size="10.00"> captureChild</text>
<text text-anchor="middle" x="734" y="-566" font-family="Arial" font-size="10.00">overChild</text>
<text text-anchor="middle" x="734" y="-555" font-family="Arial" font-size="10.00">parent</text>
<text text-anchor="middle" x="734" y="-544" font-family="Arial" font-size="10.00">focusedChild</text>
</g>
<!-- Node35 -->
<g id="node35" class="node"><title>Node35</title>
<g id="a_node35"><a xlink:href="classrv_g_e_window_wrapper.html" target="_top" xlink:title="rvGEWindowWrapper">
<polygon fill="white" stroke="black" points="846.5,-243.5 846.5,-262.5 955.5,-262.5 955.5,-243.5 846.5,-243.5"/>
<text text-anchor="middle" x="901" y="-250.5" font-family="Arial" font-size="10.00">rvGEWindowWrapper</text>
</a>
</g>
</g>
<!-- Node4&#45;&gt;Node35 -->
<g id="edge48" class="edge"><title>Node4&#45;&gt;Node35</title>
<path fill="none" stroke="#9a32cd" stroke-dasharray="5,2" d="M746.56,-494.784C778.891,-443.838 869.47,-301.107 893.877,-262.649"/>
<polygon fill="#9a32cd" stroke="#9a32cd" points="743.471,-493.119 741.068,-503.438 749.382,-496.87 743.471,-493.119"/>
<text text-anchor="middle" x="805" y="-440" font-family="Arial" font-size="10.00"> mWindow</text>
</g>
<!-- Node5 -->
<g id="node5" class="node"><title>Node5</title>
<g id="a_node5"><a xlink:href="classid_device_context.html" target="_top" xlink:title="idDeviceContext">
<polygon fill="white" stroke="black" points="467,-629.5 467,-648.5 553,-648.5 553,-629.5 467,-629.5"/>
<text text-anchor="middle" x="510" y="-636.5" font-family="Arial" font-size="10.00">idDeviceContext</text>
</a>
</g>
</g>
<!-- Node5&#45;&gt;Node4 -->
<g id="edge4" class="edge"><title>Node5&#45;&gt;Node4</title>
<path fill="none" stroke="#9a32cd" stroke-dasharray="5,2" d="M552.76,-650.816C590.956,-658.982 647.249,-664.081 686,-637 724.685,-609.965 731.552,-546.713 732.753,-522.584"/>
<polygon fill="#9a32cd" stroke="#9a32cd" points="553.508,-647.397 542.979,-648.574 551.944,-654.22 553.508,-647.397"/>
<text text-anchor="middle" x="641" y="-660" font-family="Arial" font-size="10.00"> dc</text>
</g>
<!-- Node6 -->
<g id="node6" class="node"><title>Node6</title>
<g id="a_node6"><a xlink:href="classid_vec4.html" target="_top" xlink:title="idVec4">
<polygon fill="white" stroke="black" points="267.5,-607.5 267.5,-626.5 314.5,-626.5 314.5,-607.5 267.5,-607.5"/>
<text text-anchor="middle" x="291" y="-614.5" font-family="Arial" font-size="10.00">idVec4</text>
</a>
</g>
</g>
<!-- Node6&#45;&gt;Node5 -->
<g id="edge5" class="edge"><title>Node6&#45;&gt;Node5</title>
<path fill="none" stroke="#9a32cd" stroke-dasharray="5,2" d="M325.267,-618.923C351.991,-620.612 390.463,-623.366 424,-627 437.928,-628.509 453.087,-630.528 466.697,-632.479"/>
<polygon fill="#9a32cd" stroke="#9a32cd" points="325.13,-615.408 314.934,-618.286 324.7,-622.395 325.13,-615.408"/>
<text text-anchor="middle" x="387" y="-718" font-family="Arial" font-size="10.00"> colorRed</text>
<text text-anchor="middle" x="387" y="-707" font-family="Arial" font-size="10.00">colorNone</text>
<text text-anchor="middle" x="387" y="-696" font-family="Arial" font-size="10.00">colorYellow</text>
<text text-anchor="middle" x="387" y="-685" font-family="Arial" font-size="10.00">colorPurple</text>
<text text-anchor="middle" x="387" y="-674" font-family="Arial" font-size="10.00">colorBlue</text>
<text text-anchor="middle" x="387" y="-663" font-family="Arial" font-size="10.00">colorWhite</text>
<text text-anchor="middle" x="387" y="-652" font-family="Arial" font-size="10.00">colorGreen</text>
<text text-anchor="middle" x="387" y="-641" font-family="Arial" font-size="10.00">colorOrange</text>
<text text-anchor="middle" x="387" y="-630" font-family="Arial" font-size="10.00">colorBlack</text>
</g>
<!-- Node7 -->
<g id="node7" class="node"><title>Node7</title>
<g id="a_node7"><a xlink:href="classid_win_vec4.html" target="_top" xlink:title="idWinVec4">
<polygon fill="white" stroke="black" points="478,-591.5 478,-610.5 542,-610.5 542,-591.5 478,-591.5"/>
<text text-anchor="middle" x="510" y="-598.5" font-family="Arial" font-size="10.00">idWinVec4</text>
</a>
</g>
</g>
<!-- Node6&#45;&gt;Node7 -->
<g id="edge9" class="edge"><title>Node6&#45;&gt;Node7</title>
<path fill="none" stroke="#9a32cd" stroke-dasharray="5,2" d="M324.359,-604.404C332.596,-601.755 341.52,-599.354 350,-598 394.031,-590.972 445.787,-594.005 477.997,-597.202"/>
<polygon fill="#9a32cd" stroke="#9a32cd" points="323.053,-601.151 314.729,-607.705 325.323,-607.773 323.053,-601.151"/>
<text text-anchor="middle" x="387" y="-601" font-family="Arial" font-size="10.00"> data</text>
</g>
<!-- Node7&#45;&gt;Node4 -->
<g id="edge6" class="edge"><title>Node7&#45;&gt;Node4</title>
<path fill="none" stroke="#9a32cd" stroke-dasharray="5,2" d="M551.924,-591.756C601.757,-580.414 680.068,-562.28 686,-559 702.586,-549.829 717.424,-533.21 725.807,-522.658"/>
<polygon fill="#9a32cd" stroke="#9a32cd" points="551.04,-588.368 542.064,-593.996 552.59,-595.194 551.04,-588.368"/>
<text text-anchor="middle" x="641" y="-627" font-family="Arial" font-size="10.00"> foreColor</text>
<text text-anchor="middle" x="641" y="-616" font-family="Arial" font-size="10.00">matColor</text>
<text text-anchor="middle" x="641" y="-605" font-family="Arial" font-size="10.00">hoverColor</text>
<text text-anchor="middle" x="641" y="-594" font-family="Arial" font-size="10.00">borderColor</text>
<text text-anchor="middle" x="641" y="-583" font-family="Arial" font-size="10.00">backColor</text>
</g>
<!-- Node8 -->
<g id="node8" class="node"><title>Node8</title>
<g id="a_node8"><a xlink:href="classid_win_var.html" target="_top" xlink:title="idWinVar">
<polygon fill="white" stroke="black" points="136,-610.5 136,-629.5 192,-629.5 192,-610.5 136,-610.5"/>
<text text-anchor="middle" x="164" y="-617.5" font-family="Arial" font-size="10.00">idWinVar</text>
</a>
</g>
</g>
<!-- Node8&#45;&gt;Node7 -->
<g id="edge7" class="edge"><title>Node8&#45;&gt;Node7</title>
<path fill="none" stroke="midnightblue" d="M202.109,-608.99C216.892,-604.973 234.136,-600.748 250,-598 326.301,-584.784 346.754,-583.574 424,-589 441.84,-590.253 461.632,-592.968 477.626,-595.499"/>
<polygon fill="midnightblue" stroke="midnightblue" points="201.009,-605.662 192.314,-611.716 202.886,-612.406 201.009,-605.662"/>
</g>
<!-- Node8&#45;&gt;Node12 -->
<g id="edge15" class="edge"><title>Node8&#45;&gt;Node12</title>
<path fill="none" stroke="midnightblue" d="M169.346,-639.811C175.6,-665.629 188.778,-711.543 210,-746 229.01,-776.866 260.838,-805.855 278.06,-820.347"/>
<polygon fill="midnightblue" stroke="midnightblue" points="172.687,-638.724 167.021,-629.772 165.867,-640.303 172.687,-638.724"/>
</g>
<!-- Node13 -->
<g id="node13" class="node"><title>Node13</title>
<g id="a_node13"><a xlink:href="classid_win_rectangle.html" target="_top" xlink:title="idWinRectangle">
<polygon fill="white" stroke="black" points="467.5,-256.5 467.5,-275.5 552.5,-275.5 552.5,-256.5 467.5,-256.5"/>
<text text-anchor="middle" x="510" y="-263.5" font-family="Arial" font-size="10.00">idWinRectangle</text>
</a>
</g>
</g>
<!-- Node8&#45;&gt;Node13 -->
<g id="edge18" class="edge"><title>Node8&#45;&gt;Node13</title>
<path fill="none" stroke="midnightblue" d="M166.366,-600.185C171.682,-529.569 193.564,-292.022 250,-247 282.646,-220.957 403.668,-242.554 468.068,-256.481"/>
<polygon fill="midnightblue" stroke="midnightblue" points="162.86,-600.138 165.629,-610.365 169.842,-600.644 162.86,-600.138"/>
</g>
<!-- Node16 -->
<g id="node16" class="node"><title>Node16</title>
<g id="a_node16"><a xlink:href="classid_win_float.html" target="_top" xlink:title="idWinFloat">
<polygon fill="white" stroke="black" points="355.5,-760.5 355.5,-779.5 418.5,-779.5 418.5,-760.5 355.5,-760.5"/>
<text text-anchor="middle" x="387" y="-767.5" font-family="Arial" font-size="10.00">idWinFloat</text>
</a>
</g>
</g>
<!-- Node8&#45;&gt;Node16 -->
<g id="edge22" class="edge"><title>Node8&#45;&gt;Node16</title>
<path fill="none" stroke="midnightblue" d="M178.952,-637.503C194.698,-656.425 221.811,-686.606 250,-707 283.837,-731.481 328.703,-750.028 357.469,-760.46"/>
<polygon fill="midnightblue" stroke="midnightblue" points="181.593,-635.204 172.554,-629.677 176.174,-639.634 181.593,-635.204"/>
</g>
<!-- Node27 -->
<g id="node27" class="node"><title>Node27</title>
<g id="a_node27"><a xlink:href="classid_win_bool.html" target="_top" xlink:title="idWinBool">
<polygon fill="white" stroke="black" points="356.5,-735.5 356.5,-754.5 417.5,-754.5 417.5,-735.5 356.5,-735.5"/>
<text text-anchor="middle" x="387" y="-742.5" font-family="Arial" font-size="10.00">idWinBool</text>
</a>
</g>
</g>
<!-- Node8&#45;&gt;Node27 -->
<g id="edge36" class="edge"><title>Node8&#45;&gt;Node27</title>
<path fill="none" stroke="midnightblue" d="M191.3,-634.813C224.438,-653.619 282.986,-687.315 332,-718 340.15,-723.102 341.523,-725.463 350,-730 353.582,-731.917 357.462,-733.759 361.304,-735.457"/>
<polygon fill="midnightblue" stroke="midnightblue" points="192.69,-631.578 182.263,-629.697 189.241,-637.669 192.69,-631.578"/>
</g>
<!-- Node9 -->
<g id="node9" class="node"><title>Node9</title>
<g id="a_node9"><a xlink:href="classid_dict.html" target="_top" xlink:title="idDict">
<polygon fill="white" stroke="black" points="12.5,-154.5 12.5,-173.5 53.5,-173.5 53.5,-154.5 12.5,-154.5"/>
<text text-anchor="middle" x="33" y="-161.5" font-family="Arial" font-size="10.00">idDict</text>
</a>
</g>
</g>
<!-- Node9&#45;&gt;Node8 -->
<g id="edge8" class="edge"><title>Node9&#45;&gt;Node8</title>
<path fill="none" stroke="#9a32cd" stroke-dasharray="5,2" d="M39.5162,-183.499C61.6998,-261.915 143.986,-552.786 160.211,-610.142"/>
<polygon fill="#9a32cd" stroke="#9a32cd" points="42.7844,-182.194 36.6943,-173.524 36.0487,-184.099 42.7844,-182.194"/>
<text text-anchor="middle" x="101" y="-463" font-family="Arial" font-size="10.00"> guiDict</text>
</g>
<!-- Node9&#45;&gt;Node35 -->
<g id="edge50" class="edge"><title>Node9&#45;&gt;Node35</title>
<path fill="none" stroke="#9a32cd" stroke-dasharray="5,2" d="M39.2281,-144.523C52.2007,-101.07 90.1993,-0 163,-0 163,-0 163,-0 735,-0 853.513,-0 891.37,-197.178 898.616,-243.391"/>
<polygon fill="#9a32cd" stroke="#9a32cd" points="35.8358,-143.656 36.4632,-154.232 42.5682,-145.573 35.8358,-143.656"/>
<text text-anchor="middle" x="387" y="-25" font-family="Arial" font-size="10.00"> mScripts</text>
<text text-anchor="middle" x="387" y="-14" font-family="Arial" font-size="10.00">mState</text>
<text text-anchor="middle" x="387" y="-3" font-family="Arial" font-size="10.00">mVariables</text>
</g>
<!-- Node10 -->
<g id="node10" class="node"><title>Node10</title>
<g id="a_node10"><a xlink:href="classid_list.html" target="_top" xlink:title="idList\&lt; float \&gt;">
<polygon fill="white" stroke="black" points="472,-408.5 472,-427.5 548,-427.5 548,-408.5 472,-408.5"/>
<text text-anchor="middle" x="510" y="-415.5" font-family="Arial" font-size="10.00">idList&lt; float &gt;</text>
</a>
</g>
</g>
<!-- Node10&#45;&gt;Node4 -->
<g id="edge10" class="edge"><title>Node10&#45;&gt;Node4</title>
<path fill="none" stroke="#9a32cd" stroke-dasharray="5,2" d="M558.44,-408.958C595.934,-404.423 648.089,-404.159 686,-428 713.55,-445.326 726.273,-484.839 730.867,-503.238"/>
<polygon fill="#9a32cd" stroke="#9a32cd" points="557.717,-405.524 548.277,-410.334 558.656,-412.46 557.717,-405.524"/>
<text text-anchor="middle" x="641" y="-442" font-family="Arial" font-size="10.00"> saveRegs</text>
<text text-anchor="middle" x="641" y="-431" font-family="Arial" font-size="10.00">expressionRegisters</text>
</g>
<!-- Node11 -->
<g id="node11" class="node"><title>Node11</title>
<g id="a_node11"><a xlink:href="classid_list.html" target="_top" xlink:title="idList\&lt; idWindow * \&gt;">
<polygon fill="white" stroke="black" points="456.5,-370.5 456.5,-389.5 563.5,-389.5 563.5,-370.5 456.5,-370.5"/>
<text text-anchor="middle" x="510" y="-377.5" font-family="Arial" font-size="10.00">idList&lt; idWindow * &gt;</text>
</a>
</g>
</g>
<!-- Node11&#45;&gt;Node4 -->
<g id="edge12" class="edge"><title>Node11&#45;&gt;Node4</title>
<path fill="none" stroke="#9a32cd" stroke-dasharray="5,2" d="M573.744,-377.397C616.567,-376.891 668.572,-379.175 686,-392 723.029,-419.248 730.888,-479.906 732.554,-503.424"/>
<polygon fill="#9a32cd" stroke="#9a32cd" points="573.584,-373.899 563.645,-377.568 573.703,-380.898 573.584,-373.899"/>
<text text-anchor="middle" x="641" y="-395" font-family="Arial" font-size="10.00"> children</text>
</g>
<!-- Node12&#45;&gt;Node4 -->
<g id="edge14" class="edge"><title>Node12&#45;&gt;Node4</title>
<path fill="none" stroke="#9a32cd" stroke-dasharray="5,2" d="M328.377,-830.864C383.665,-831.146 491.551,-827.628 578,-800 630.511,-783.218 653.484,-783.517 686,-739 712.12,-703.24 728.169,-560.794 732.069,-522.513"/>
<polygon fill="#9a32cd" stroke="#9a32cd" points="328.396,-827.364 318.363,-830.767 328.328,-834.364 328.396,-827.364"/>
<text text-anchor="middle" x="510" y="-828" font-family="Arial" font-size="10.00"> text</text>
</g>
<!-- Node12&#45;&gt;Node18 -->
<g id="edge25" class="edge"><title>Node12&#45;&gt;Node18</title>
<path fill="none" stroke="midnightblue" d="M327.712,-843.179C358.086,-854.369 402.874,-870.82 442,-885 455.243,-889.8 469.977,-895.084 482.249,-899.469"/>
<polygon fill="midnightblue" stroke="midnightblue" points="328.586,-839.772 317.993,-839.598 326.165,-846.34 328.586,-839.772"/>
</g>
<!-- Node13&#45;&gt;Node4 -->
<g id="edge17" class="edge"><title>Node13&#45;&gt;Node4</title>
<path fill="none" stroke="#9a32cd" stroke-dasharray="5,2" d="M558.415,-254.647C597.388,-248.334 651.605,-246.925 686,-277 720.909,-307.525 730.617,-462.583 732.58,-503.233"/>
<polygon fill="#9a32cd" stroke="#9a32cd" points="557.588,-251.239 548.356,-256.438 558.815,-258.131 557.588,-251.239"/>
<text text-anchor="middle" x="641" y="-280" font-family="Arial" font-size="10.00"> rect</text>
</g>
<!-- Node14 -->
<g id="node14" class="node"><title>Node14</title>
<g id="a_node14"><a xlink:href="classid_rectangle.html" target="_top" xlink:title="idRectangle">
<polygon fill="white" stroke="black" points="257,-256.5 257,-275.5 325,-275.5 325,-256.5 257,-256.5"/>
<text text-anchor="middle" x="291" y="-263.5" font-family="Arial" font-size="10.00">idRectangle</text>
</a>
</g>
</g>
<!-- Node14&#45;&gt;Node4 -->
<g id="edge39" class="edge"><title>Node14&#45;&gt;Node4</title>
<path fill="none" stroke="#9a32cd" stroke-dasharray="5,2" d="M302.735,-284.269C324.4,-319.479 376.884,-396.799 442,-437 443.432,-437.884 631.443,-486.675 704.464,-505.605"/>
<polygon fill="#9a32cd" stroke="#9a32cd" points="305.62,-282.275 297.457,-275.52 299.626,-285.891 305.62,-282.275"/>
<text text-anchor="middle" x="510" y="-497" font-family="Arial" font-size="10.00"> drawRect</text>
<text text-anchor="middle" x="510" y="-486" font-family="Arial" font-size="10.00">clientRect</text>
<text text-anchor="middle" x="510" y="-475" font-family="Arial" font-size="10.00">textRect</text>
</g>
<!-- Node14&#45;&gt;Node13 -->
<g id="edge19" class="edge"><title>Node14&#45;&gt;Node13</title>
<path fill="none" stroke="#9a32cd" stroke-dasharray="5,2" d="M335.779,-266C374.173,-266 429.608,-266 467.354,-266"/>
<polygon fill="#9a32cd" stroke="#9a32cd" points="335.431,-262.5 325.431,-266 335.431,-269.5 335.431,-262.5"/>
<text text-anchor="middle" x="387" y="-269" font-family="Arial" font-size="10.00"> data</text>
</g>
<!-- Node14&#45;&gt;Node35 -->
<g id="edge49" class="edge"><title>Node14&#45;&gt;Node35</title>
<path fill="none" stroke="#9a32cd" stroke-dasharray="5,2" d="M299.229,-246.732C316.438,-203.902 364.298,-101.103 442,-57 501.736,-23.094 527.373,-46.8915 596,-44 635.965,-42.3162 648.955,-28.9113 686,-44 790.848,-86.7052 872.311,-208.236 894.185,-243.375"/>
<polygon fill="#9a32cd" stroke="#9a32cd" points="295.887,-245.669 295.515,-256.257 302.409,-248.212 295.887,-245.669"/>
<text text-anchor="middle" x="641" y="-58" font-family="Arial" font-size="10.00"> mScreenRect</text>
<text text-anchor="middle" x="641" y="-47" font-family="Arial" font-size="10.00">mClientRect</text>
</g>
<!-- Node15 -->
<g id="node15" class="node"><title>Node15</title>
<g id="a_node15"><a xlink:href="classid_list.html" target="_top" xlink:title="idList\&lt; wexpOp_t \&gt;">
<polygon fill="white" stroke="black" points="459.5,-332.5 459.5,-351.5 560.5,-351.5 560.5,-332.5 459.5,-332.5"/>
<text text-anchor="middle" x="510" y="-339.5" font-family="Arial" font-size="10.00">idList&lt; wexpOp_t &gt;</text>
</a>
</g>
</g>
<!-- Node15&#45;&gt;Node4 -->
<g id="edge20" class="edge"><title>Node15&#45;&gt;Node4</title>
<path fill="none" stroke="#9a32cd" stroke-dasharray="5,2" d="M559.858,-330.789C598.246,-324.993 650.91,-324.09 686,-352 734.084,-390.245 734.833,-474.819 733.611,-503.37"/>
<polygon fill="#9a32cd" stroke="#9a32cd" points="559.221,-327.347 549.932,-332.443 560.371,-334.252 559.221,-327.347"/>
<text text-anchor="middle" x="641" y="-366" font-family="Arial" font-size="10.00"> saveOps</text>
<text text-anchor="middle" x="641" y="-355" font-family="Arial" font-size="10.00">ops</text>
</g>
<!-- Node16&#45;&gt;Node4 -->
<g id="edge21" class="edge"><title>Node16&#45;&gt;Node4</title>
<path fill="none" stroke="#9a32cd" stroke-dasharray="5,2" d="M429.042,-773.518C494.521,-776.616 621.767,-771.864 686,-697 731.514,-643.953 733.878,-552.579 733.346,-522.737"/>
<polygon fill="#9a32cd" stroke="#9a32cd" points="428.883,-770.003 418.703,-772.938 428.491,-776.992 428.883,-770.003"/>
<text text-anchor="middle" x="510" y="-788" font-family="Arial" font-size="10.00"> textScale</text>
<text text-anchor="middle" x="510" y="-777" font-family="Arial" font-size="10.00">rotate</text>
</g>
<!-- Node17 -->
<g id="node17" class="node"><title>Node17</title>
<g id="a_node17"><a xlink:href="classid_list.html" target="_top" xlink:title="idList\&lt; idWinVar * \&gt;">
<polygon fill="white" stroke="black" points="458,-294.5 458,-313.5 562,-313.5 562,-294.5 458,-294.5"/>
<text text-anchor="middle" x="510" y="-301.5" font-family="Arial" font-size="10.00">idList&lt; idWinVar * &gt;</text>
</a>
</g>
</g>
<!-- Node17&#45;&gt;Node4 -->
<g id="edge23" class="edge"><title>Node17&#45;&gt;Node4</title>
<path fill="none" stroke="#9a32cd" stroke-dasharray="5,2" d="M572.415,-295.325C615.725,-290.658 668.937,-288.319 686,-302 718.282,-327.882 729.822,-465.716 732.402,-503.446"/>
<polygon fill="#9a32cd" stroke="#9a32cd" points="571.754,-291.877 562.214,-296.485 572.545,-298.832 571.754,-291.877"/>
<text text-anchor="middle" x="641" y="-316" font-family="Arial" font-size="10.00"> definedVars</text>
<text text-anchor="middle" x="641" y="-305" font-family="Arial" font-size="10.00">updateVars</text>
</g>
<!-- Node18&#45;&gt;Node4 -->
<g id="edge24" class="edge"><title>Node18&#45;&gt;Node4</title>
<path fill="none" stroke="#9a32cd" stroke-dasharray="5,2" d="M566.77,-908.176C611.612,-906.261 669.722,-900.538 686,-884 738.146,-831.019 734.608,-575.955 733.282,-522.742"/>
<polygon fill="#9a32cd" stroke="#9a32cd" points="566.422,-904.686 556.559,-908.557 566.683,-911.681 566.422,-904.686"/>
<text text-anchor="middle" x="641" y="-909" font-family="Arial" font-size="10.00"> backGroundName</text>
</g>
<!-- Node19 -->
<g id="node19" class="node"><title>Node19</title>
<g id="a_node19"><a xlink:href="classid_material.html" target="_top" xlink:title="idMaterial">
<polygon fill="white" stroke="black" points="261.5,-864.5 261.5,-883.5 320.5,-883.5 320.5,-864.5 261.5,-864.5"/>
<text text-anchor="middle" x="291" y="-871.5" font-family="Arial" font-size="10.00">idMaterial</text>
</a>
</g>
</g>
<!-- Node19&#45;&gt;Node4 -->
<g id="edge45" class="edge"><title>Node19&#45;&gt;Node4</title>
<path fill="none" stroke="#9a32cd" stroke-dasharray="5,2" d="M330.976,-874.095C386.982,-873.185 492.853,-867.53 578,-840 630.247,-823.107 654.141,-824.723 686,-780 716.517,-737.161 729.572,-565.613 732.395,-522.746"/>
<polygon fill="#9a32cd" stroke="#9a32cd" points="330.745,-870.598 320.787,-874.217 330.828,-877.597 330.745,-870.598"/>
<text text-anchor="middle" x="510" y="-869" font-family="Arial" font-size="10.00"> background</text>
</g>
<!-- Node19&#45;&gt;Node18 -->
<g id="edge27" class="edge"><title>Node19&#45;&gt;Node18</title>
<path fill="none" stroke="#9a32cd" stroke-dasharray="5,2" d="M330.516,-882.308C337.007,-883.611 343.686,-884.891 350,-886 388.047,-892.682 431.465,-898.865 463.306,-903.135"/>
<polygon fill="#9a32cd" stroke="#9a32cd" points="331.049,-878.845 320.55,-880.264 329.643,-885.702 331.049,-878.845"/>
<text text-anchor="middle" x="387" y="-900" font-family="Arial" font-size="10.00"> mat</text>
</g>
<!-- Node20 -->
<g id="node20" class="node"><title>Node20</title>
<g id="a_node20"><a xlink:href="classid_decl.html" target="_top" xlink:title="idDecl">
<polygon fill="white" stroke="black" points="142,-864.5 142,-883.5 186,-883.5 186,-864.5 142,-864.5"/>
<text text-anchor="middle" x="164" y="-871.5" font-family="Arial" font-size="10.00">idDecl</text>
</a>
</g>
</g>
<!-- Node20&#45;&gt;Node19 -->
<g id="edge28" class="edge"><title>Node20&#45;&gt;Node19</title>
<path fill="none" stroke="midnightblue" d="M196.314,-874C216.211,-874 241.778,-874 261.175,-874"/>
<polygon fill="midnightblue" stroke="midnightblue" points="196.205,-870.5 186.205,-874 196.205,-877.5 196.205,-870.5"/>
</g>
<!-- Node21 -->
<g id="node21" class="node"><title>Node21</title>
<g id="a_node21"><a xlink:href="classid_decl_base.html" target="_top" xlink:title="idDeclBase">
<polygon fill="white" stroke="black" points="0,-864.5 0,-883.5 66,-883.5 66,-864.5 0,-864.5"/>
<text text-anchor="middle" x="33" y="-871.5" font-family="Arial" font-size="10.00">idDeclBase</text>
</a>
</g>
</g>
<!-- Node21&#45;&gt;Node20 -->
<g id="edge29" class="edge"><title>Node21&#45;&gt;Node20</title>
<path fill="none" stroke="#9a32cd" stroke-dasharray="5,2" d="M76.2792,-874C98.1687,-874 123.948,-874 141.678,-874"/>
<polygon fill="#9a32cd" stroke="#9a32cd" points="76.2194,-870.5 66.2194,-874 76.2193,-877.5 76.2194,-870.5"/>
<text text-anchor="middle" x="101" y="-877" font-family="Arial" font-size="10.00"> base</text>
</g>
<!-- Node22 -->
<g id="node22" class="node"><title>Node22</title>
<g id="a_node22"><a xlink:href="classid_list.html" target="_top" xlink:title="idList\&lt; idTimeLineEvent * \&gt;">
<polygon fill="white" stroke="black" points="442.5,-218.5 442.5,-237.5 577.5,-237.5 577.5,-218.5 442.5,-218.5"/>
<text text-anchor="middle" x="510" y="-225.5" font-family="Arial" font-size="10.00">idList&lt; idTimeLineEvent * &gt;</text>
</a>
</g>
</g>
<!-- Node22&#45;&gt;Node4 -->
<g id="edge30" class="edge"><title>Node22&#45;&gt;Node4</title>
<path fill="none" stroke="#9a32cd" stroke-dasharray="5,2" d="M554.034,-216.308C593.306,-208.468 650.479,-204.58 686,-236 727.103,-272.357 732.261,-458.781 732.907,-503.398"/>
<polygon fill="#9a32cd" stroke="#9a32cd" points="553.25,-212.896 544.212,-218.425 554.725,-219.739 553.25,-212.896"/>
<text text-anchor="middle" x="641" y="-239" font-family="Arial" font-size="10.00"> timeLineEvents</text>
</g>
<!-- Node23 -->
<g id="node23" class="node"><title>Node23</title>
<g id="a_node23"><a xlink:href="classid_gui_script_list.html" target="_top" xlink:title="idGuiScriptList">
<polygon fill="white" stroke="black" points="470,-180.5 470,-199.5 550,-199.5 550,-180.5 470,-180.5"/>
<text text-anchor="middle" x="510" y="-187.5" font-family="Arial" font-size="10.00">idGuiScriptList</text>
</a>
</g>
</g>
<!-- Node23&#45;&gt;Node4 -->
<g id="edge31" class="edge"><title>Node23&#45;&gt;Node4</title>
<path fill="none" stroke="#9a32cd" stroke-dasharray="5,2" d="M560.273,-184.944C605.483,-181.471 668.067,-179.985 686,-196 733.1,-238.061 733.626,-454.777 733.141,-503.337"/>
<polygon fill="#9a32cd" stroke="#9a32cd" points="559.733,-181.476 550.054,-185.784 560.307,-188.453 559.733,-181.476"/>
<text text-anchor="middle" x="641" y="-199" font-family="Arial" font-size="10.00"> scripts</text>
</g>
<!-- Node24 -->
<g id="node24" class="node"><title>Node24</title>
<g id="a_node24"><a xlink:href="classid_register_list.html" target="_top" xlink:title="idRegisterList">
<polygon fill="white" stroke="black" points="472,-142.5 472,-161.5 548,-161.5 548,-142.5 472,-142.5"/>
<text text-anchor="middle" x="510" y="-149.5" font-family="Arial" font-size="10.00">idRegisterList</text>
</a>
</g>
</g>
<!-- Node24&#45;&gt;Node4 -->
<g id="edge32" class="edge"><title>Node24&#45;&gt;Node4</title>
<path fill="none" stroke="#9a32cd" stroke-dasharray="5,2" d="M558.507,-149.952C604.015,-149.083 668.309,-151.075 686,-168 735.794,-215.639 734.173,-452.079 733.223,-503.231"/>
<polygon fill="#9a32cd" stroke="#9a32cd" points="558.157,-146.46 548.245,-150.202 558.327,-153.458 558.157,-146.46"/>
<text text-anchor="middle" x="641" y="-171" font-family="Arial" font-size="10.00"> regList</text>
</g>
<!-- Node25 -->
<g id="node25" class="node"><title>Node25</title>
<g id="a_node25"><a xlink:href="classid_user_interface_local.html" target="_top" xlink:title="idUserInterfaceLocal">
<polygon fill="white" stroke="black" points="458,-975.5 458,-994.5 562,-994.5 562,-975.5 458,-975.5"/>
<text text-anchor="middle" x="510" y="-982.5" font-family="Arial" font-size="10.00">idUserInterfaceLocal</text>
</a>
</g>
</g>
<!-- Node25&#45;&gt;Node4 -->
<g id="edge33" class="edge"><title>Node25&#45;&gt;Node4</title>
<path fill="none" stroke="#9a32cd" stroke-dasharray="5,2" d="M572.324,-983.283C616.379,-980.669 670.602,-974.153 686,-958 717.157,-925.316 730.487,-584.949 732.672,-522.735"/>
<polygon fill="#9a32cd" stroke="#9a32cd" points="572.035,-979.793 562.237,-983.825 572.411,-986.783 572.035,-979.793"/>
<text text-anchor="middle" x="641" y="-984" font-family="Arial" font-size="10.00"> gui</text>
</g>
<!-- Node26 -->
<g id="node26" class="node"><title>Node26</title>
<g id="a_node26"><a xlink:href="classid_user_interface.html" target="_top" xlink:title="idUserInterface">
<polygon fill="white" stroke="black" points="250.5,-975.5 250.5,-994.5 331.5,-994.5 331.5,-975.5 250.5,-975.5"/>
<text text-anchor="middle" x="291" y="-982.5" font-family="Arial" font-size="10.00">idUserInterface</text>
</a>
</g>
</g>
<!-- Node26&#45;&gt;Node25 -->
<g id="edge34" class="edge"><title>Node26&#45;&gt;Node25</title>
<path fill="none" stroke="midnightblue" d="M341.937,-985C376.672,-985 422.842,-985 457.841,-985"/>
<polygon fill="midnightblue" stroke="midnightblue" points="341.549,-981.5 331.549,-985 341.549,-988.5 341.549,-981.5"/>
</g>
<!-- Node27&#45;&gt;Node4 -->
<g id="edge35" class="edge"><title>Node27&#45;&gt;Node4</title>
<path fill="none" stroke="#9a32cd" stroke-dasharray="5,2" d="M423.671,-728.258C434.199,-715.893 430.752,-706.361 442,-699 533.335,-639.226 602.369,-741.15 686,-671 732.045,-632.377 734.174,-550.8 733.453,-522.73"/>
<polygon fill="#9a32cd" stroke="#9a32cd" points="420.996,-725.975 416.203,-735.424 425.842,-731.026 420.996,-725.975"/>
<text text-anchor="middle" x="510" y="-735" font-family="Arial" font-size="10.00"> noTime</text>
<text text-anchor="middle" x="510" y="-724" font-family="Arial" font-size="10.00">hideCursor</text>
<text text-anchor="middle" x="510" y="-713" font-family="Arial" font-size="10.00">noEvents</text>
<text text-anchor="middle" x="510" y="-702" font-family="Arial" font-size="10.00">visible</text>
</g>
<!-- Node28 -->
<g id="node28" class="node"><title>Node28</title>
<g id="a_node28"><a xlink:href="classid_vec2.html" target="_top" xlink:title="idVec2">
<polygon fill="white" stroke="black" points="486.5,-104.5 486.5,-123.5 533.5,-123.5 533.5,-104.5 486.5,-104.5"/>
<text text-anchor="middle" x="510" y="-111.5" font-family="Arial" font-size="10.00">idVec2</text>
</a>
</g>
</g>
<!-- Node28&#45;&gt;Node4 -->
<g id="edge37" class="edge"><title>Node28&#45;&gt;Node4</title>
<path fill="none" stroke="#9a32cd" stroke-dasharray="5,2" d="M543.408,-105.046C582.625,-96.3815 648.099,-89.2275 686,-125 714.497,-151.896 729.834,-446.172 732.558,-503.391"/>
<polygon fill="#9a32cd" stroke="#9a32cd" points="542.487,-101.667 533.562,-107.375 544.099,-108.479 542.487,-101.667"/>
<text text-anchor="middle" x="641" y="-139" font-family="Arial" font-size="10.00"> origin</text>
<text text-anchor="middle" x="641" y="-128" font-family="Arial" font-size="10.00">shear</text>
</g>
<!-- Node29 -->
<g id="node29" class="node"><title>Node29</title>
<g id="a_node29"><a xlink:href="classid_list.html" target="_top" xlink:title="idList\&lt; drawWin_t \&gt;">
<polygon fill="white" stroke="black" points="458,-66.5 458,-85.5 562,-85.5 562,-66.5 458,-66.5"/>
<text text-anchor="middle" x="510" y="-73.5" font-family="Arial" font-size="10.00">idList&lt; drawWin_t &gt;</text>
</a>
</g>
</g>
<!-- Node29&#45;&gt;Node4 -->
<g id="edge38" class="edge"><title>Node29&#45;&gt;Node4</title>
<path fill="none" stroke="#9a32cd" stroke-dasharray="5,2" d="M572.35,-70.684C616.118,-68.3504 669.952,-68.9391 686,-84 717.687,-113.738 730.542,-441.909 732.674,-503.18"/>
<polygon fill="#9a32cd" stroke="#9a32cd" points="572.104,-67.1924 562.329,-71.2771 572.518,-74.1801 572.104,-67.1924"/>
<text text-anchor="middle" x="641" y="-87" font-family="Arial" font-size="10.00"> drawWindows</text>
</g>
<!-- Node30 -->
<g id="node30" class="node"><title>Node30</title>
<g id="a_node30"><a xlink:href="classid_list.html" target="_top" xlink:title="idList\&lt; idTransitionData \&gt;">
<polygon fill="white" stroke="black" points="446,-937.5 446,-956.5 574,-956.5 574,-937.5 446,-937.5"/>
<text text-anchor="middle" x="510" y="-944.5" font-family="Arial" font-size="10.00">idList&lt; idTransitionData &gt;</text>
</a>
</g>
</g>
<!-- Node30&#45;&gt;Node4 -->
<g id="edge40" class="edge"><title>Node30&#45;&gt;Node4</title>
<path fill="none" stroke="#9a32cd" stroke-dasharray="5,2" d="M584.376,-944.87C625.741,-942.036 671.891,-935.58 686,-921 714.697,-891.346 729.927,-581.681 732.579,-522.681"/>
<polygon fill="#9a32cd" stroke="#9a32cd" points="584.026,-941.385 574.263,-945.499 584.461,-948.371 584.026,-941.385"/>
<text text-anchor="middle" x="641" y="-946" font-family="Arial" font-size="10.00"> transitions</text>
</g>
<!-- Node31 -->
<g id="node31" class="node"><title>Node31</title>
<g id="a_node31"><a xlink:href="classid_c_var.html" target="_top" xlink:title="idCVar">
<polygon fill="white" stroke="black" points="487,-1013.5 487,-1032.5 533,-1032.5 533,-1013.5 487,-1013.5"/>
<text text-anchor="middle" x="510" y="-1020.5" font-family="Arial" font-size="10.00">idCVar</text>
</a>
</g>
</g>
<!-- Node31&#45;&gt;Node4 -->
<g id="edge41" class="edge"><title>Node31&#45;&gt;Node4</title>
<path fill="none" stroke="#9a32cd" stroke-dasharray="5,2" d="M543.027,-1028.55C582.716,-1033.4 649.552,-1034.55 686,-996 719.788,-960.262 731.041,-587.889 732.758,-522.709"/>
<polygon fill="#9a32cd" stroke="#9a32cd" points="543.461,-1025.08 533.078,-1027.19 542.511,-1032.01 543.461,-1025.08"/>
<text text-anchor="middle" x="641" y="-1044" font-family="Arial" font-size="10.00"> gui_debug</text>
<text text-anchor="middle" x="641" y="-1033" font-family="Arial" font-size="10.00">gui_edit</text>
</g>
<!-- Node31&#45;&gt;Node31 -->
<g id="edge43" class="edge"><title>Node31&#45;&gt;Node31</title>
<path fill="none" stroke="#9a32cd" stroke-dasharray="5,2" d="M487.307,-1042.03C488.544,-1047.13 496.109,-1051 510,-1051 531.684,-1051 537.952,-1041.57 528.804,-1032.76"/>
<polygon fill="#9a32cd" stroke="#9a32cd" points="490.555,-1043.33 491.196,-1032.76 484.1,-1040.62 490.555,-1043.33"/>
<text text-anchor="middle" x="510" y="-1065" font-family="Arial" font-size="10.00"> next</text>
<text text-anchor="middle" x="510" y="-1054" font-family="Arial" font-size="10.00">internalVar</text>
</g>
<!-- Node32 -->
<g id="node32" class="node"><title>Node32</title>
<g id="a_node32"><a xlink:href="classid_cmd_args.html" target="_top" xlink:title="idCmdArgs">
<polygon fill="white" stroke="black" points="258.5,-1013.5 258.5,-1032.5 323.5,-1032.5 323.5,-1013.5 258.5,-1013.5"/>
<text text-anchor="middle" x="291" y="-1020.5" font-family="Arial" font-size="10.00">idCmdArgs</text>
</a>
</g>
</g>
<!-- Node32&#45;&gt;Node31 -->
<g id="edge42" class="edge"><title>Node32&#45;&gt;Node31</title>
<path fill="none" stroke="#9a32cd" stroke-dasharray="5,2" d="M333.742,-1023C379.48,-1023 451.108,-1023 486.979,-1023"/>
<polygon fill="#9a32cd" stroke="#9a32cd" points="333.554,-1019.5 323.554,-1023 333.554,-1026.5 333.554,-1019.5"/>
<text text-anchor="middle" x="387" y="-1026" font-family="Arial" font-size="10.00"> valueCompletion</text>
</g>
<!-- Node33 -->
<g id="node33" class="node"><title>Node33</title>
<g id="a_node33"><a xlink:href="structid_reg_entry.html" target="_top" xlink:title="idRegEntry">
<polygon fill="white" stroke="black" points="477.5,-515.5 477.5,-534.5 542.5,-534.5 542.5,-515.5 477.5,-515.5"/>
<text text-anchor="middle" x="510" y="-522.5" font-family="Arial" font-size="10.00">idRegEntry</text>
</a>
</g>
</g>
<!-- Node33&#45;&gt;Node4 -->
<g id="edge44" class="edge"><title>Node33&#45;&gt;Node4</title>
<path fill="none" stroke="#9a32cd" stroke-dasharray="5,2" d="M552.911,-518.55C566.611,-516.717 581.922,-514.959 596,-514 633.375,-511.455 676.618,-511.663 704.361,-512.2"/>
<polygon fill="#9a32cd" stroke="#9a32cd" points="552.22,-515.112 542.797,-519.955 553.183,-522.046 552.22,-515.112"/>
<text text-anchor="middle" x="641" y="-517" font-family="Arial" font-size="10.00"> RegisterVars</text>
</g>
<!-- Node34 -->
<g id="node34" class="node"><title>Node34</title>
<g id="a_node34"><a xlink:href="classid_list.html" target="_top" xlink:title="idList\&lt; rvNamedEvent * \&gt;">
<polygon fill="white" stroke="black" points="447,-553.5 447,-572.5 573,-572.5 573,-553.5 447,-553.5"/>
<text text-anchor="middle" x="510" y="-560.5" font-family="Arial" font-size="10.00">idList&lt; rvNamedEvent * &gt;</text>
</a>
</g>
</g>
<!-- Node34&#45;&gt;Node4 -->
<g id="edge46" class="edge"><title>Node34&#45;&gt;Node4</title>
<path fill="none" stroke="#9a32cd" stroke-dasharray="5,2" d="M567.024,-551.373C601.424,-544.101 646.343,-534.365 686,-525 691.901,-523.606 698.201,-522.048 704.208,-520.527"/>
<polygon fill="#9a32cd" stroke="#9a32cd" points="566.223,-547.965 557.16,-553.452 567.667,-554.815 566.223,-547.965"/>
<text text-anchor="middle" x="641" y="-547" font-family="Arial" font-size="10.00"> namedEvents</text>
</g>
<!-- Node35&#45;&gt;Node2 -->
<g id="edge47" class="edge"><title>Node35&#45;&gt;Node2</title>
<path fill="none" stroke="#9a32cd" stroke-dasharray="5,2" d="M907.938,-272.584C922.796,-318.287 965.945,-432.744 1042,-494 1049.04,-499.67 1057.81,-503.665 1066.42,-506.473"/>
<polygon fill="#9a32cd" stroke="#9a32cd" points="911.255,-271.464 904.908,-262.98 904.579,-273.57 911.255,-271.464"/>
<text text-anchor="middle" x="999" y="-477" font-family="Arial" font-size="10.00"> mWrapper</text>
</g>
<!-- Node36 -->
<g id="node36" class="node"><title>Node36</title>
<g id="a_node36"><a xlink:href="classid_list.html" target="_top" xlink:title="idList\&lt; rvGEModifier * \&gt;">
<polygon fill="white" stroke="black" points="1042.5,-465.5 1042.5,-484.5 1161.5,-484.5 1161.5,-465.5 1042.5,-465.5"/>
<text text-anchor="middle" x="1102" y="-472.5" font-family="Arial" font-size="10.00">idList&lt; rvGEModifier * &gt;</text>
</a>
</g>
</g>
<!-- Node36&#45;&gt;Node1 -->
<g id="edge51" class="edge"><title>Node36&#45;&gt;Node1</title>
<path fill="none" stroke="#9a32cd" stroke-dasharray="5,2" d="M1171.56,-477.682C1191.11,-478.728 1212.42,-480.136 1232,-482 1237.76,-482.548 1243.78,-483.225 1249.75,-483.96"/>
<polygon fill="#9a32cd" stroke="#9a32cd" points="1171.68,-474.184 1161.51,-477.167 1171.32,-481.174 1171.68,-474.184"/>
<text text-anchor="middle" x="1206" y="-485" font-family="Arial" font-size="10.00"> mModifiers</text>
</g>
</g>
</svg>
        <g id="navigator" transform="translate(0 0)" fill="#404254">
                <rect fill="#f2f5e9" fill-opacity="0.5" stroke="#606060" stroke-width=".5" x="0" y="0" width="60" height="60"/>
                <use id="zoomplus" xlink:href="#zoomPlus" x="17" y="9" onmousedown="handleZoom(evt,'in')"/>
                <use id="zoomminus" xlink:href="#zoomMin" x="42" y="9" onmousedown="handleZoom(evt,'out')"/>
                <use id="reset" xlink:href="#resetDef" x="30" y="36" onmousedown="handleReset()"/>
                <g id="arrowUp" xlink:href="#dirArrow" transform="translate(30 24)" onmousedown="handlePan(0,-1)">
                  <use xlink:href="#rim" fill="#404040">
                        <set attributeName="fill" to="#808080" begin="arrowUp.mouseover" end="arrowUp.mouseout"/>
                  </use>
                  <path fill="none" stroke="white" stroke-width="1.5" d="M0,-3.0v7 M-2.5,-0.5L0,-3.0L2.5,-0.5"/>
                </g>
                <g id="arrowRight" xlink:href="#dirArrow" transform="rotate(90) translate(36 -43)" onmousedown="handlePan(1,0)">
                  <use xlink:href="#rim" fill="#404040">
                        <set attributeName="fill" to="#808080" begin="arrowRight.mouseover" end="arrowRight.mouseout"/>
                  </use>
                  <path fill="none" stroke="white" stroke-width="1.5" d="M0,-3.0v7 M-2.5,-0.5L0,-3.0L2.5,-0.5"/>
                </g>
                <g id="arrowDown" xlink:href="#dirArrow" transform="rotate(180) translate(-30 -48)" onmousedown="handlePan(0,1)">
                  <use xlink:href="#rim" fill="#404040">
                        <set attributeName="fill" to="#808080" begin="arrowDown.mouseover" end="arrowDown.mouseout"/>
                  </use>
                  <path fill="none" stroke="white" stroke-width="1.5" d="M0,-3.0v7 M-2.5,-0.5L0,-3.0L2.5,-0.5"/>
                </g>
                <g id="arrowLeft" xlink:href="#dirArrow" transform="rotate(270) translate(-36 17)" onmousedown="handlePan(-1,0)">
                  <use xlink:href="#rim" fill="#404040">
                        <set attributeName="fill" to="#808080" begin="arrowLeft.mouseover" end="arrowLeft.mouseout"/>
                  </use>
                  <path fill="none" stroke="white" stroke-width="1.5" d="M0,-3.0v7 M-2.5,-0.5L0,-3.0L2.5,-0.5"/>
                </g>
        </g>
        <svg viewBox="0 0 15 15" width="100%" height="30px" preserveAspectRatio="xMaxYMin meet">
         <g id="arrow_out" transform="scale(0.3 0.3)">
          <a xlink:href="classrv_g_e_modifier_group__coll__graph_org.svg" target="_base">
           <rect id="button" ry="5" rx="5" y="6" x="6" height="38" width="38"
                fill="#f2f5e9" fill-opacity="0.5" stroke="#606060" stroke-width="1.0"/>
           <path id="arrow"
             d="M 11.500037,31.436501 C 11.940474,20.09759 22.043105,11.32322 32.158766,21.979434 L 37.068811,17.246167 C 37.068811,17.246167 37.088388,32 37.088388,32 L 22.160133,31.978069 C 22.160133,31.978069 26.997745,27.140456 26.997745,27.140456 C 18.528582,18.264221 13.291696,25.230495 11.500037,31.436501 z"
             style="fill:#404040;"/>
          </a>
         </g>
        </svg>
</svg>
