<?xml version="1.0" encoding="UTF-8" standalone="no"?>
<!DOCTYPE svg PUBLIC "-//W3C//DTD SVG 1.1//EN"
 "http://www.w3.org/Graphics/SVG/1.1/DTD/svg11.dtd">
<!-- Generated by graphviz version 2.34.0 (20130907.0111)
 -->
<!-- Title: idPhysics_RigidBody Pages: 1 -->
<svg width="116pt" height="196pt"
 viewBox="0.00 0.00 116.00 196.00" xmlns="http://www.w3.org/2000/svg" xmlns:xlink="http://www.w3.org/1999/xlink">
<g id="graph0" class="graph" transform="scale(1 1) rotate(0) translate(4 192)">
<title>idPhysics_RigidBody</title>
<polygon fill="white" stroke="white" points="-4,4 -4,-192 112,-192 112,4 -4,4"/>
<!-- Node1 -->
<g id="node1" class="node"><title>Node1</title>
<polygon fill="#bfbfbf" stroke="black" points="-0.5,-0.5 -0.5,-19.5 108.5,-19.5 108.5,-0.5 -0.5,-0.5"/>
<text text-anchor="middle" x="54" y="-7.5" font-family="Arial" font-size="10.00">idPhysics_RigidBody</text>
</g>
<!-- Node2 -->
<g id="node2" class="node"><title>Node2</title>
<g id="a_node2"><a xlink:href="classid_physics___base.html" target="_top" xlink:title="idPhysics_Base">
<polygon fill="white" stroke="black" points="10.5,-56.5 10.5,-75.5 97.5,-75.5 97.5,-56.5 10.5,-56.5"/>
<text text-anchor="middle" x="54" y="-63.5" font-family="Arial" font-size="10.00">idPhysics_Base</text>
</a>
</g>
</g>
<!-- Node2&#45;&gt;Node1 -->
<g id="edge1" class="edge"><title>Node2&#45;&gt;Node1</title>
<path fill="none" stroke="midnightblue" d="M47.5276,-46.1005C46.8956,-37.1357 47.3427,-26.8579 48.869,-19.7511"/>
<polygon fill="midnightblue" stroke="midnightblue" points="44.0658,-46.6216 48.8337,-56.083 51.0067,-45.7134 44.0658,-46.6216"/>
</g>
<!-- Node2&#45;&gt;Node1 -->
<g id="edge6" class="edge"><title>Node2&#45;&gt;Node1</title>
<path fill="none" stroke="midnightblue" d="M60.4724,-46.1005C61.1044,-37.1357 60.6573,-26.8579 59.131,-19.7511"/>
<polygon fill="midnightblue" stroke="midnightblue" points="56.9933,-45.7134 59.1663,-56.083 63.9342,-46.6216 56.9933,-45.7134"/>
</g>
<!-- Node3 -->
<g id="node3" class="node"><title>Node3</title>
<g id="a_node3"><a xlink:href="classid_physics.html" target="_top" xlink:title="idPhysics">
<polygon fill="white" stroke="black" points="24.5,-112.5 24.5,-131.5 83.5,-131.5 83.5,-112.5 24.5,-112.5"/>
<text text-anchor="middle" x="54" y="-119.5" font-family="Arial" font-size="10.00">idPhysics</text>
</a>
</g>
</g>
<!-- Node3&#45;&gt;Node2 -->
<g id="edge2" class="edge"><title>Node3&#45;&gt;Node2</title>
<path fill="none" stroke="midnightblue" d="M47.5276,-102.101C46.8956,-93.1357 47.3427,-82.8579 48.869,-75.7511"/>
<polygon fill="midnightblue" stroke="midnightblue" points="44.0658,-102.622 48.8337,-112.083 51.0067,-101.713 44.0658,-102.622"/>
</g>
<!-- Node3&#45;&gt;Node2 -->
<g id="edge5" class="edge"><title>Node3&#45;&gt;Node2</title>
<path fill="none" stroke="midnightblue" d="M60.4724,-102.101C61.1044,-93.1357 60.6573,-82.8579 59.131,-75.7511"/>
<polygon fill="midnightblue" stroke="midnightblue" points="56.9933,-101.713 59.1663,-112.083 63.9342,-102.622 56.9933,-101.713"/>
</g>
<!-- Node4 -->
<g id="node4" class="node"><title>Node4</title>
<g id="a_node4"><a xlink:href="classid_class.html" target="_top" xlink:title="idClass">
<polygon fill="white" stroke="black" points="29.5,-168.5 29.5,-187.5 78.5,-187.5 78.5,-168.5 29.5,-168.5"/>
<text text-anchor="middle" x="54" y="-175.5" font-family="Arial" font-size="10.00">idClass</text>
</a>
</g>
</g>
<!-- Node4&#45;&gt;Node3 -->
<g id="edge3" class="edge"><title>Node4&#45;&gt;Node3</title>
<path fill="none" stroke="midnightblue" d="M47.5276,-158.101C46.8956,-149.136 47.3427,-138.858 48.869,-131.751"/>
<polygon fill="midnightblue" stroke="midnightblue" points="44.0658,-158.622 48.8337,-168.083 51.0067,-157.713 44.0658,-158.622"/>
</g>
<!-- Node4&#45;&gt;Node3 -->
<g id="edge4" class="edge"><title>Node4&#45;&gt;Node3</title>
<path fill="none" stroke="midnightblue" d="M60.4724,-158.101C61.1044,-149.136 60.6573,-138.858 59.131,-131.751"/>
<polygon fill="midnightblue" stroke="midnightblue" points="56.9933,-157.713 59.1663,-168.083 63.9342,-158.622 56.9933,-157.713"/>
</g>
</g>
</svg>
