<?xml version="1.0" encoding="UTF-8" standalone="no"?>
<!DOCTYPE svg PUBLIC "-//W3C//DTD SVG 1.1//EN"
 "http://www.w3.org/Graphics/SVG/1.1/DTD/svg11.dtd">
<!-- Generated by graphviz version 2.34.0 (20130907.0111)
 -->
<!-- Title: rvGEModifier Pages: 1 -->
<!--zoomable 1168 -->
<svg id="main" version="1.1" xmlns="http://www.w3.org/2000/svg" xmlns:xlink="http://www.w3.org/1999/xlink" xml:space="preserve" onload="init(evt)">
<style type="text/css"><![CDATA[
.edge:hover path { stroke: red; }
.edge:hover polygon { stroke: red; fill: red; }
]]></style>
<script type="text/javascript"><![CDATA[
var edges = document.getElementsByTagName('g');
if (edges && edges.length) {
  for (var i=0;i<edges.length;i++) {
    if (edges[i].id.substr(0,4)=='edge') {
      edges[i].setAttribute('class','edge');
    }
  }
}
]]></script>
        <defs>
                <circle id="rim" cx="0" cy="0" r="7"/>
                <circle id="rim2" cx="0" cy="0" r="3.5"/>
                <g id="zoomPlus">
                        <use xlink:href="#rim" fill="#404040">
                                <set attributeName="fill" to="#808080" begin="zoomplus.mouseover" end="zoomplus.mouseout"/>
                        </use>
                        <path d="M-4,0h8M0,-4v8" fill="none" stroke="white" stroke-width="1.5" pointer-events="none"/>
                </g>
                <g id="zoomMin">
                        <use xlink:href="#rim" fill="#404040">
                                <set attributeName="fill" to="#808080" begin="zoomminus.mouseover" end="zoomminus.mouseout"/>
                        </use>
                        <path d="M-4,0h8" fill="none" stroke="white" stroke-width="1.5" pointer-events="none"/>
                </g>
                <g id="dirArrow">
                        <path fill="none" stroke="white" stroke-width="1.5" d="M0,-3.0v7 M-2.5,-0.5L0,-3.0L2.5,-0.5"/>
                </g>
               <g id="resetDef">
                       <use xlink:href="#rim2" fill="#404040">
                               <set attributeName="fill" to="#808080" begin="reset.mouseover" end="reset.mouseout"/>
                       </use>
               </g>
        </defs>

<script type="text/javascript">
var viewWidth = 1122;
var viewHeight = 1168;
var sectionId = 'dynsection-1';
</script>
<script xlink:href="svgpan.js"/>
<svg id="graph" class="graph">
<g id="viewport">
<title>rvGEModifier</title>
<polygon fill="white" stroke="white" points="-4,4 -4,-1164 1118,-1164 1118,4 -4,4"/>
<!-- Node1 -->
<g id="node1" class="node"><title>Node1</title>
<polygon fill="#bfbfbf" stroke="black" points="1042.5,-503.5 1042.5,-522.5 1113.5,-522.5 1113.5,-503.5 1042.5,-503.5"/>
<text text-anchor="middle" x="1078" y="-510.5" font-family="Arial" font-size="10.00">rvGEModifier</text>
</g>
<!-- Node2 -->
<g id="node2" class="node"><title>Node2</title>
<g id="a_node2"><a xlink:href="classid_str.html" target="_top" xlink:title="idStr">
<polygon fill="white" stroke="black" points="145.5,-1007.5 145.5,-1026.5 182.5,-1026.5 182.5,-1007.5 145.5,-1007.5"/>
<text text-anchor="middle" x="164" y="-1014.5" font-family="Arial" font-size="10.00">idStr</text>
</a>
</g>
</g>
<!-- Node2&#45;&gt;Node1 -->
<g id="edge1" class="edge"><title>Node2&#45;&gt;Node1</title>
<path fill="none" stroke="#9a32cd" stroke-dasharray="5,2" d="M172.704,-1036.55C188.614,-1073.3 228.814,-1149 290,-1149 290,-1149 290,-1149 902,-1149 1037.85,-1149 1072.2,-602.752 1076.51,-522.736"/>
<polygon fill="#9a32cd" stroke="#9a32cd" points="175.771,-1034.82 168.705,-1026.92 169.306,-1037.5 175.771,-1034.82"/>
<text text-anchor="middle" x="641" y="-1152" font-family="Arial" font-size="10.00"> mName</text>
</g>
<!-- Node3 -->
<g id="node3" class="node"><title>Node3</title>
<g id="a_node3"><a xlink:href="classid_window.html" target="_top" xlink:title="idWindow">
<polygon fill="white" stroke="black" points="704.5,-503.5 704.5,-522.5 763.5,-522.5 763.5,-503.5 704.5,-503.5"/>
<text text-anchor="middle" x="734" y="-510.5" font-family="Arial" font-size="10.00">idWindow</text>
</a>
</g>
</g>
<!-- Node2&#45;&gt;Node3 -->
<g id="edge10" class="edge"><title>Node2&#45;&gt;Node3</title>
<path fill="none" stroke="#9a32cd" stroke-dasharray="5,2" d="M192.402,-1025.67C208.983,-1030.76 230.602,-1037.14 250,-1042 438.054,-1089.16 559.558,-1202.97 686,-1056 722.255,-1013.86 731.553,-591.518 732.835,-522.512"/>
<polygon fill="#9a32cd" stroke="#9a32cd" points="193.382,-1022.31 182.794,-1022.69 191.308,-1029 193.382,-1022.31"/>
<text text-anchor="middle" x="387" y="-1125" font-family="Arial" font-size="10.00"> comment</text>
<text text-anchor="middle" x="387" y="-1114" font-family="Arial" font-size="10.00">cmd</text>
<text text-anchor="middle" x="387" y="-1103" font-family="Arial" font-size="10.00">name</text>
</g>
<!-- Node11 -->
<g id="node11" class="node"><title>Node11</title>
<g id="a_node11"><a xlink:href="classid_win_str.html" target="_top" xlink:title="idWinStr">
<polygon fill="white" stroke="black" points="264,-820.5 264,-839.5 318,-839.5 318,-820.5 264,-820.5"/>
<text text-anchor="middle" x="291" y="-827.5" font-family="Arial" font-size="10.00">idWinStr</text>
</a>
</g>
</g>
<!-- Node2&#45;&gt;Node11 -->
<g id="edge15" class="edge"><title>Node2&#45;&gt;Node11</title>
<path fill="none" stroke="#9a32cd" stroke-dasharray="5,2" d="M170.56,-997.238C180.922,-963.731 206.197,-895.474 250,-855 256.376,-849.109 264.329,-843.81 271.461,-839.623"/>
<polygon fill="#9a32cd" stroke="#9a32cd" points="167.1,-996.597 167.613,-1007.18 173.811,-998.586 167.1,-996.597"/>
<text text-anchor="middle" x="221" y="-908" font-family="Arial" font-size="10.00"> data</text>
</g>
<!-- Node17 -->
<g id="node17" class="node"><title>Node17</title>
<g id="a_node17"><a xlink:href="classid_win_background.html" target="_top" xlink:title="idWinBackground">
<polygon fill="white" stroke="black" points="463.5,-899.5 463.5,-918.5 556.5,-918.5 556.5,-899.5 463.5,-899.5"/>
<text text-anchor="middle" x="510" y="-906.5" font-family="Arial" font-size="10.00">idWinBackground</text>
</a>
</g>
</g>
<!-- Node2&#45;&gt;Node17 -->
<g id="edge25" class="edge"><title>Node2&#45;&gt;Node17</title>
<path fill="none" stroke="#9a32cd" stroke-dasharray="5,2" d="M182.633,-1000.37C198.859,-986.039 224.245,-965.98 250,-955 320.578,-924.912 410.064,-914.504 463.246,-910.904"/>
<polygon fill="#9a32cd" stroke="#9a32cd" points="180.088,-997.951 175.03,-1007.26 184.789,-1003.14 180.088,-997.951"/>
<text text-anchor="middle" x="291" y="-958" font-family="Arial" font-size="10.00"> data</text>
</g>
<!-- Node3&#45;&gt;Node1 -->
<g id="edge2" class="edge"><title>Node3&#45;&gt;Node1</title>
<path fill="none" stroke="#9a32cd" stroke-dasharray="5,2" d="M773.742,-513C841.002,-513 978.316,-513 1042.5,-513"/>
<polygon fill="#9a32cd" stroke="#9a32cd" points="773.571,-509.5 763.57,-513 773.57,-516.5 773.571,-509.5"/>
<text text-anchor="middle" x="901" y="-516" font-family="Arial" font-size="10.00"> mWindow</text>
</g>
<!-- Node3&#45;&gt;Node3 -->
<g id="edge12" class="edge"><title>Node3&#45;&gt;Node3</title>
<path fill="none" stroke="#9a32cd" stroke-dasharray="5,2" d="M721.109,-532.766C722.122,-537.497 726.419,-541 734,-541 746.441,-541 750.038,-531.565 744.789,-522.757"/>
<polygon fill="#9a32cd" stroke="#9a32cd" points="724.581,-533.263 723.211,-522.757 717.73,-531.824 724.581,-533.263"/>
<text text-anchor="middle" x="734" y="-577" font-family="Arial" font-size="10.00"> captureChild</text>
<text text-anchor="middle" x="734" y="-566" font-family="Arial" font-size="10.00">overChild</text>
<text text-anchor="middle" x="734" y="-555" font-family="Arial" font-size="10.00">parent</text>
<text text-anchor="middle" x="734" y="-544" font-family="Arial" font-size="10.00">focusedChild</text>
</g>
<!-- Node34 -->
<g id="node34" class="node"><title>Node34</title>
<g id="a_node34"><a xlink:href="classrv_g_e_window_wrapper.html" target="_top" xlink:title="rvGEWindowWrapper">
<polygon fill="white" stroke="black" points="846.5,-140.5 846.5,-159.5 955.5,-159.5 955.5,-140.5 846.5,-140.5"/>
<text text-anchor="middle" x="901" y="-147.5" font-family="Arial" font-size="10.00">rvGEWindowWrapper</text>
</a>
</g>
</g>
<!-- Node3&#45;&gt;Node34 -->
<g id="edge47" class="edge"><title>Node3&#45;&gt;Node34</title>
<path fill="none" stroke="#9a32cd" stroke-dasharray="5,2" d="M743.625,-494.025C773.738,-427.777 873.565,-208.156 895.65,-159.571"/>
<polygon fill="#9a32cd" stroke="#9a32cd" points="740.365,-492.739 739.413,-503.291 746.738,-495.635 740.365,-492.739"/>
<text text-anchor="middle" x="805" y="-408" font-family="Arial" font-size="10.00"> mWindow</text>
</g>
<!-- Node4 -->
<g id="node4" class="node"><title>Node4</title>
<g id="a_node4"><a xlink:href="classid_device_context.html" target="_top" xlink:title="idDeviceContext">
<polygon fill="white" stroke="black" points="467,-629.5 467,-648.5 553,-648.5 553,-629.5 467,-629.5"/>
<text text-anchor="middle" x="510" y="-636.5" font-family="Arial" font-size="10.00">idDeviceContext</text>
</a>
</g>
</g>
<!-- Node4&#45;&gt;Node3 -->
<g id="edge3" class="edge"><title>Node4&#45;&gt;Node3</title>
<path fill="none" stroke="#9a32cd" stroke-dasharray="5,2" d="M552.76,-650.816C590.956,-658.982 647.249,-664.081 686,-637 724.685,-609.965 731.552,-546.713 732.753,-522.584"/>
<polygon fill="#9a32cd" stroke="#9a32cd" points="553.508,-647.397 542.979,-648.574 551.944,-654.22 553.508,-647.397"/>
<text text-anchor="middle" x="641" y="-660" font-family="Arial" font-size="10.00"> dc</text>
</g>
<!-- Node5 -->
<g id="node5" class="node"><title>Node5</title>
<g id="a_node5"><a xlink:href="classid_vec4.html" target="_top" xlink:title="idVec4">
<polygon fill="white" stroke="black" points="267.5,-605.5 267.5,-624.5 314.5,-624.5 314.5,-605.5 267.5,-605.5"/>
<text text-anchor="middle" x="291" y="-612.5" font-family="Arial" font-size="10.00">idVec4</text>
</a>
</g>
</g>
<!-- Node5&#45;&gt;Node4 -->
<g id="edge4" class="edge"><title>Node5&#45;&gt;Node4</title>
<path fill="none" stroke="#9a32cd" stroke-dasharray="5,2" d="M324.92,-617.114C351.663,-618.982 390.331,-622.027 424,-626 437.936,-627.644 453.098,-629.834 466.707,-631.947"/>
<polygon fill="#9a32cd" stroke="#9a32cd" points="325.156,-613.622 314.94,-616.432 324.679,-620.605 325.156,-613.622"/>
<text text-anchor="middle" x="387" y="-717" font-family="Arial" font-size="10.00"> colorRed</text>
<text text-anchor="middle" x="387" y="-706" font-family="Arial" font-size="10.00">colorNone</text>
<text text-anchor="middle" x="387" y="-695" font-family="Arial" font-size="10.00">colorYellow</text>
<text text-anchor="middle" x="387" y="-684" font-family="Arial" font-size="10.00">colorPurple</text>
<text text-anchor="middle" x="387" y="-673" font-family="Arial" font-size="10.00">colorBlue</text>
<text text-anchor="middle" x="387" y="-662" font-family="Arial" font-size="10.00">colorWhite</text>
<text text-anchor="middle" x="387" y="-651" font-family="Arial" font-size="10.00">colorGreen</text>
<text text-anchor="middle" x="387" y="-640" font-family="Arial" font-size="10.00">colorOrange</text>
<text text-anchor="middle" x="387" y="-629" font-family="Arial" font-size="10.00">colorBlack</text>
</g>
<!-- Node6 -->
<g id="node6" class="node"><title>Node6</title>
<g id="a_node6"><a xlink:href="classid_win_vec4.html" target="_top" xlink:title="idWinVec4">
<polygon fill="white" stroke="black" points="478,-591.5 478,-610.5 542,-610.5 542,-591.5 478,-591.5"/>
<text text-anchor="middle" x="510" y="-598.5" font-family="Arial" font-size="10.00">idWinVec4</text>
</a>
</g>
</g>
<!-- Node5&#45;&gt;Node6 -->
<g id="edge8" class="edge"><title>Node5&#45;&gt;Node6</title>
<path fill="none" stroke="#9a32cd" stroke-dasharray="5,2" d="M324.404,-603.065C332.639,-600.555 341.552,-598.281 350,-597 393.955,-590.336 445.511,-593.636 477.722,-597.003"/>
<polygon fill="#9a32cd" stroke="#9a32cd" points="323.2,-599.775 314.77,-606.192 325.362,-606.433 323.2,-599.775"/>
<text text-anchor="middle" x="387" y="-600" font-family="Arial" font-size="10.00"> data</text>
</g>
<!-- Node6&#45;&gt;Node3 -->
<g id="edge5" class="edge"><title>Node6&#45;&gt;Node3</title>
<path fill="none" stroke="#9a32cd" stroke-dasharray="5,2" d="M551.924,-591.756C601.757,-580.414 680.068,-562.28 686,-559 702.586,-549.829 717.424,-533.21 725.807,-522.658"/>
<polygon fill="#9a32cd" stroke="#9a32cd" points="551.04,-588.368 542.064,-593.996 552.59,-595.194 551.04,-588.368"/>
<text text-anchor="middle" x="641" y="-627" font-family="Arial" font-size="10.00"> foreColor</text>
<text text-anchor="middle" x="641" y="-616" font-family="Arial" font-size="10.00">matColor</text>
<text text-anchor="middle" x="641" y="-605" font-family="Arial" font-size="10.00">hoverColor</text>
<text text-anchor="middle" x="641" y="-594" font-family="Arial" font-size="10.00">borderColor</text>
<text text-anchor="middle" x="641" y="-583" font-family="Arial" font-size="10.00">backColor</text>
</g>
<!-- Node7 -->
<g id="node7" class="node"><title>Node7</title>
<g id="a_node7"><a xlink:href="classid_win_var.html" target="_top" xlink:title="idWinVar">
<polygon fill="white" stroke="black" points="136,-618.5 136,-637.5 192,-637.5 192,-618.5 136,-618.5"/>
<text text-anchor="middle" x="164" y="-625.5" font-family="Arial" font-size="10.00">idWinVar</text>
</a>
</g>
</g>
<!-- Node7&#45;&gt;Node6 -->
<g id="edge6" class="edge"><title>Node7&#45;&gt;Node6</title>
<path fill="none" stroke="midnightblue" d="M194.817,-614.341C210.834,-607.632 231.119,-600.123 250,-596 325.614,-579.49 346.794,-583.577 424,-589 441.84,-590.253 461.632,-592.968 477.626,-595.499"/>
<polygon fill="midnightblue" stroke="midnightblue" points="193.246,-611.207 185.447,-618.378 196.015,-617.636 193.246,-611.207"/>
</g>
<!-- Node7&#45;&gt;Node11 -->
<g id="edge14" class="edge"><title>Node7&#45;&gt;Node11</title>
<path fill="none" stroke="midnightblue" d="M168.06,-647.642C173.108,-675.341 185.196,-726.563 210,-763 227.025,-788.01 255.882,-808.902 273.889,-820.405"/>
<polygon fill="midnightblue" stroke="midnightblue" points="171.485,-646.905 166.359,-637.632 164.583,-648.077 171.485,-646.905"/>
</g>
<!-- Node12 -->
<g id="node12" class="node"><title>Node12</title>
<g id="a_node12"><a xlink:href="classid_win_rectangle.html" target="_top" xlink:title="idWinRectangle">
<polygon fill="white" stroke="black" points="467.5,-256.5 467.5,-275.5 552.5,-275.5 552.5,-256.5 467.5,-256.5"/>
<text text-anchor="middle" x="510" y="-263.5" font-family="Arial" font-size="10.00">idWinRectangle</text>
</a>
</g>
</g>
<!-- Node7&#45;&gt;Node12 -->
<g id="edge17" class="edge"><title>Node7&#45;&gt;Node12</title>
<path fill="none" stroke="midnightblue" d="M166.294,-607.766C171.366,-535.655 192.517,-293.072 250,-247 282.586,-220.883 403.635,-242.513 468.055,-256.464"/>
<polygon fill="midnightblue" stroke="midnightblue" points="162.774,-607.948 165.593,-618.161 169.758,-608.419 162.774,-607.948"/>
</g>
<!-- Node15 -->
<g id="node15" class="node"><title>Node15</title>
<g id="a_node15"><a xlink:href="classid_win_float.html" target="_top" xlink:title="idWinFloat">
<polygon fill="white" stroke="black" points="355.5,-759.5 355.5,-778.5 418.5,-778.5 418.5,-759.5 355.5,-759.5"/>
<text text-anchor="middle" x="387" y="-766.5" font-family="Arial" font-size="10.00">idWinFloat</text>
</a>
</g>
</g>
<!-- Node7&#45;&gt;Node15 -->
<g id="edge21" class="edge"><title>Node7&#45;&gt;Node15</title>
<path fill="none" stroke="midnightblue" d="M181.318,-644.976C189.797,-653.722 200.374,-664.514 210,-674 227.466,-691.212 229.528,-698.502 250,-712 290.389,-738.631 305.226,-736.674 350,-755 353.6,-756.473 357.416,-757.998 361.166,-759.474"/>
<polygon fill="midnightblue" stroke="midnightblue" points="183.672,-642.376 174.207,-637.615 178.638,-647.239 183.672,-642.376"/>
</g>
<!-- Node26 -->
<g id="node26" class="node"><title>Node26</title>
<g id="a_node26"><a xlink:href="classid_win_bool.html" target="_top" xlink:title="idWinBool">
<polygon fill="white" stroke="black" points="356.5,-734.5 356.5,-753.5 417.5,-753.5 417.5,-734.5 356.5,-734.5"/>
<text text-anchor="middle" x="387" y="-741.5" font-family="Arial" font-size="10.00">idWinBool</text>
</a>
</g>
</g>
<!-- Node7&#45;&gt;Node26 -->
<g id="edge35" class="edge"><title>Node7&#45;&gt;Node26</title>
<path fill="none" stroke="midnightblue" d="M190.1,-642.802C225.274,-663.289 291.493,-700.936 350,-729 353.785,-730.816 357.848,-732.632 361.833,-734.341"/>
<polygon fill="midnightblue" stroke="midnightblue" points="191.434,-639.527 181.034,-637.5 187.9,-645.57 191.434,-639.527"/>
</g>
<!-- Node8 -->
<g id="node8" class="node"><title>Node8</title>
<g id="a_node8"><a xlink:href="classid_dict.html" target="_top" xlink:title="idDict">
<polygon fill="white" stroke="black" points="12.5,-156.5 12.5,-175.5 53.5,-175.5 53.5,-156.5 12.5,-156.5"/>
<text text-anchor="middle" x="33" y="-163.5" font-family="Arial" font-size="10.00">idDict</text>
</a>
</g>
</g>
<!-- Node8&#45;&gt;Node7 -->
<g id="edge7" class="edge"><title>Node8&#45;&gt;Node7</title>
<path fill="none" stroke="#9a32cd" stroke-dasharray="5,2" d="M39.3873,-185.294C61.4288,-264.233 144.328,-561.127 160.32,-618.404"/>
<polygon fill="#9a32cd" stroke="#9a32cd" points="42.7548,-184.34 36.6943,-175.65 36.0127,-186.222 42.7548,-184.34"/>
<text text-anchor="middle" x="101" y="-468" font-family="Arial" font-size="10.00"> guiDict</text>
</g>
<!-- Node8&#45;&gt;Node34 -->
<g id="edge49" class="edge"><title>Node8&#45;&gt;Node34</title>
<path fill="none" stroke="#9a32cd" stroke-dasharray="5,2" d="M39.1519,-146.285C51.9644,-102.302 89.6496,-0 163,-0 163,-0 163,-0 735,-0 818.622,-0 878.598,-106.787 895.299,-140.158"/>
<polygon fill="#9a32cd" stroke="#9a32cd" points="35.7261,-145.541 36.4238,-156.113 42.4711,-147.414 35.7261,-145.541"/>
<text text-anchor="middle" x="387" y="-25" font-family="Arial" font-size="10.00"> mScripts</text>
<text text-anchor="middle" x="387" y="-14" font-family="Arial" font-size="10.00">mState</text>
<text text-anchor="middle" x="387" y="-3" font-family="Arial" font-size="10.00">mVariables</text>
</g>
<!-- Node9 -->
<g id="node9" class="node"><title>Node9</title>
<g id="a_node9"><a xlink:href="classid_list.html" target="_top" xlink:title="idList\&lt; float \&gt;">
<polygon fill="white" stroke="black" points="472,-408.5 472,-427.5 548,-427.5 548,-408.5 472,-408.5"/>
<text text-anchor="middle" x="510" y="-415.5" font-family="Arial" font-size="10.00">idList&lt; float &gt;</text>
</a>
</g>
</g>
<!-- Node9&#45;&gt;Node3 -->
<g id="edge9" class="edge"><title>Node9&#45;&gt;Node3</title>
<path fill="none" stroke="#9a32cd" stroke-dasharray="5,2" d="M558.44,-408.958C595.934,-404.423 648.089,-404.159 686,-428 713.55,-445.326 726.273,-484.839 730.867,-503.238"/>
<polygon fill="#9a32cd" stroke="#9a32cd" points="557.717,-405.524 548.277,-410.334 558.656,-412.46 557.717,-405.524"/>
<text text-anchor="middle" x="641" y="-442" font-family="Arial" font-size="10.00"> saveRegs</text>
<text text-anchor="middle" x="641" y="-431" font-family="Arial" font-size="10.00">expressionRegisters</text>
</g>
<!-- Node10 -->
<g id="node10" class="node"><title>Node10</title>
<g id="a_node10"><a xlink:href="classid_list.html" target="_top" xlink:title="idList\&lt; idWindow * \&gt;">
<polygon fill="white" stroke="black" points="456.5,-370.5 456.5,-389.5 563.5,-389.5 563.5,-370.5 456.5,-370.5"/>
<text text-anchor="middle" x="510" y="-377.5" font-family="Arial" font-size="10.00">idList&lt; idWindow * &gt;</text>
</a>
</g>
</g>
<!-- Node10&#45;&gt;Node3 -->
<g id="edge11" class="edge"><title>Node10&#45;&gt;Node3</title>
<path fill="none" stroke="#9a32cd" stroke-dasharray="5,2" d="M573.737,-376.997C616.557,-376.226 668.56,-378.206 686,-391 723.335,-418.389 731.013,-479.598 732.591,-503.334"/>
<polygon fill="#9a32cd" stroke="#9a32cd" points="573.554,-373.5 563.638,-377.232 573.717,-380.499 573.554,-373.5"/>
<text text-anchor="middle" x="641" y="-394" font-family="Arial" font-size="10.00"> children</text>
</g>
<!-- Node11&#45;&gt;Node3 -->
<g id="edge13" class="edge"><title>Node11&#45;&gt;Node3</title>
<path fill="none" stroke="#9a32cd" stroke-dasharray="5,2" d="M328.381,-830.701C383.674,-830.743 491.567,-826.788 578,-799 630.482,-782.127 653.465,-782.502 686,-738 711.966,-702.483 728.07,-561.225 732.037,-522.731"/>
<polygon fill="#9a32cd" stroke="#9a32cd" points="328.384,-827.201 318.366,-830.648 328.347,-834.201 328.384,-827.201"/>
<text text-anchor="middle" x="510" y="-827" font-family="Arial" font-size="10.00"> text</text>
</g>
<!-- Node11&#45;&gt;Node17 -->
<g id="edge24" class="edge"><title>Node11&#45;&gt;Node17</title>
<path fill="none" stroke="midnightblue" d="M327.712,-843.179C358.086,-854.369 402.874,-870.82 442,-885 455.243,-889.8 469.977,-895.084 482.249,-899.469"/>
<polygon fill="midnightblue" stroke="midnightblue" points="328.586,-839.772 317.993,-839.598 326.165,-846.34 328.586,-839.772"/>
</g>
<!-- Node12&#45;&gt;Node3 -->
<g id="edge16" class="edge"><title>Node12&#45;&gt;Node3</title>
<path fill="none" stroke="#9a32cd" stroke-dasharray="5,2" d="M555.872,-254.444C594.956,-247.28 650.742,-244.473 686,-275 721.423,-305.67 730.775,-462.813 732.616,-503.416"/>
<polygon fill="#9a32cd" stroke="#9a32cd" points="554.943,-251.061 545.82,-256.449 556.312,-257.925 554.943,-251.061"/>
<text text-anchor="middle" x="641" y="-278" font-family="Arial" font-size="10.00"> rect</text>
</g>
<!-- Node13 -->
<g id="node13" class="node"><title>Node13</title>
<g id="a_node13"><a xlink:href="classid_rectangle.html" target="_top" xlink:title="idRectangle">
<polygon fill="white" stroke="black" points="257,-256.5 257,-275.5 325,-275.5 325,-256.5 257,-256.5"/>
<text text-anchor="middle" x="291" y="-263.5" font-family="Arial" font-size="10.00">idRectangle</text>
</a>
</g>
</g>
<!-- Node13&#45;&gt;Node3 -->
<g id="edge38" class="edge"><title>Node13&#45;&gt;Node3</title>
<path fill="none" stroke="#9a32cd" stroke-dasharray="5,2" d="M302.735,-284.269C324.4,-319.479 376.884,-396.799 442,-437 443.432,-437.884 631.443,-486.675 704.464,-505.605"/>
<polygon fill="#9a32cd" stroke="#9a32cd" points="305.62,-282.275 297.457,-275.52 299.626,-285.891 305.62,-282.275"/>
<text text-anchor="middle" x="510" y="-496" font-family="Arial" font-size="10.00"> drawRect</text>
<text text-anchor="middle" x="510" y="-485" font-family="Arial" font-size="10.00">clientRect</text>
<text text-anchor="middle" x="510" y="-474" font-family="Arial" font-size="10.00">textRect</text>
</g>
<!-- Node13&#45;&gt;Node12 -->
<g id="edge18" class="edge"><title>Node13&#45;&gt;Node12</title>
<path fill="none" stroke="#9a32cd" stroke-dasharray="5,2" d="M335.779,-266C374.173,-266 429.608,-266 467.354,-266"/>
<polygon fill="#9a32cd" stroke="#9a32cd" points="335.431,-262.5 325.431,-266 335.431,-269.5 335.431,-262.5"/>
<text text-anchor="middle" x="387" y="-269" font-family="Arial" font-size="10.00"> data</text>
</g>
<!-- Node13&#45;&gt;Node34 -->
<g id="edge48" class="edge"><title>Node13&#45;&gt;Node34</title>
<path fill="none" stroke="#9a32cd" stroke-dasharray="5,2" d="M299.27,-246.804C316.563,-204.121 364.583,-101.603 442,-57 536.142,-2.76077 580.304,-16.8403 686,-42 767.779,-61.4666 853.741,-117.455 886.368,-140.21"/>
<polygon fill="#9a32cd" stroke="#9a32cd" points="295.94,-245.708 295.536,-256.295 302.454,-248.27 295.94,-245.708"/>
<text text-anchor="middle" x="641" y="-56" font-family="Arial" font-size="10.00"> mScreenRect</text>
<text text-anchor="middle" x="641" y="-45" font-family="Arial" font-size="10.00">mClientRect</text>
</g>
<!-- Node14 -->
<g id="node14" class="node"><title>Node14</title>
<g id="a_node14"><a xlink:href="classid_list.html" target="_top" xlink:title="idList\&lt; wexpOp_t \&gt;">
<polygon fill="white" stroke="black" points="459.5,-332.5 459.5,-351.5 560.5,-351.5 560.5,-332.5 459.5,-332.5"/>
<text text-anchor="middle" x="510" y="-339.5" font-family="Arial" font-size="10.00">idList&lt; wexpOp_t &gt;</text>
</a>
</g>
</g>
<!-- Node14&#45;&gt;Node3 -->
<g id="edge19" class="edge"><title>Node14&#45;&gt;Node3</title>
<path fill="none" stroke="#9a32cd" stroke-dasharray="5,2" d="M556.968,-330.58C595.532,-323.886 649.941,-321.557 686,-350 710.858,-369.608 727.113,-471.251 731.682,-503.305"/>
<polygon fill="#9a32cd" stroke="#9a32cd" points="556.208,-327.162 547.033,-332.46 557.51,-334.04 556.208,-327.162"/>
<text text-anchor="middle" x="641" y="-364" font-family="Arial" font-size="10.00"> saveOps</text>
<text text-anchor="middle" x="641" y="-353" font-family="Arial" font-size="10.00">ops</text>
</g>
<!-- Node15&#45;&gt;Node3 -->
<g id="edge20" class="edge"><title>Node15&#45;&gt;Node3</title>
<path fill="none" stroke="#9a32cd" stroke-dasharray="5,2" d="M429.054,-772.691C494.548,-776.061 621.817,-771.806 686,-697 731.514,-643.953 733.878,-552.579 733.346,-522.737"/>
<polygon fill="#9a32cd" stroke="#9a32cd" points="428.904,-769.176 418.711,-772.069 428.483,-776.164 428.904,-769.176"/>
<text text-anchor="middle" x="510" y="-787" font-family="Arial" font-size="10.00"> textScale</text>
<text text-anchor="middle" x="510" y="-776" font-family="Arial" font-size="10.00">rotate</text>
</g>
<!-- Node16 -->
<g id="node16" class="node"><title>Node16</title>
<g id="a_node16"><a xlink:href="classid_list.html" target="_top" xlink:title="idList\&lt; idWinVar * \&gt;">
<polygon fill="white" stroke="black" points="458,-294.5 458,-313.5 562,-313.5 562,-294.5 458,-294.5"/>
<text text-anchor="middle" x="510" y="-301.5" font-family="Arial" font-size="10.00">idList&lt; idWinVar * &gt;</text>
</a>
</g>
</g>
<!-- Node16&#45;&gt;Node3 -->
<g id="edge22" class="edge"><title>Node16&#45;&gt;Node3</title>
<path fill="none" stroke="#9a32cd" stroke-dasharray="5,2" d="M572.147,-294.533C615.509,-289.285 668.911,-286.271 686,-300 718.547,-326.149 729.895,-465.274 732.417,-503.357"/>
<polygon fill="#9a32cd" stroke="#9a32cd" points="571.699,-291.061 562.219,-295.792 572.58,-298.006 571.699,-291.061"/>
<text text-anchor="middle" x="641" y="-314" font-family="Arial" font-size="10.00"> definedVars</text>
<text text-anchor="middle" x="641" y="-303" font-family="Arial" font-size="10.00">updateVars</text>
</g>
<!-- Node17&#45;&gt;Node3 -->
<g id="edge23" class="edge"><title>Node17&#45;&gt;Node3</title>
<path fill="none" stroke="#9a32cd" stroke-dasharray="5,2" d="M566.77,-908.176C611.612,-906.261 669.722,-900.538 686,-884 738.146,-831.019 734.608,-575.955 733.282,-522.742"/>
<polygon fill="#9a32cd" stroke="#9a32cd" points="566.422,-904.686 556.559,-908.557 566.683,-911.681 566.422,-904.686"/>
<text text-anchor="middle" x="641" y="-909" font-family="Arial" font-size="10.00"> backGroundName</text>
</g>
<!-- Node18 -->
<g id="node18" class="node"><title>Node18</title>
<g id="a_node18"><a xlink:href="classid_material.html" target="_top" xlink:title="idMaterial">
<polygon fill="white" stroke="black" points="261.5,-864.5 261.5,-883.5 320.5,-883.5 320.5,-864.5 261.5,-864.5"/>
<text text-anchor="middle" x="291" y="-871.5" font-family="Arial" font-size="10.00">idMaterial</text>
</a>
</g>
</g>
<!-- Node18&#45;&gt;Node3 -->
<g id="edge44" class="edge"><title>Node18&#45;&gt;Node3</title>
<path fill="none" stroke="#9a32cd" stroke-dasharray="5,2" d="M330.979,-873.921C386.989,-872.769 492.865,-866.688 578,-839 630.218,-822.017 654.127,-823.713 686,-779 716.42,-736.326 729.548,-565.417 732.391,-522.71"/>
<polygon fill="#9a32cd" stroke="#9a32cd" points="330.732,-870.425 320.79,-874.087 330.846,-877.424 330.732,-870.425"/>
<text text-anchor="middle" x="510" y="-869" font-family="Arial" font-size="10.00"> background</text>
</g>
<!-- Node18&#45;&gt;Node17 -->
<g id="edge26" class="edge"><title>Node18&#45;&gt;Node17</title>
<path fill="none" stroke="#9a32cd" stroke-dasharray="5,2" d="M330.516,-882.308C337.007,-883.611 343.686,-884.891 350,-886 388.047,-892.682 431.465,-898.865 463.306,-903.135"/>
<polygon fill="#9a32cd" stroke="#9a32cd" points="331.049,-878.845 320.55,-880.264 329.643,-885.702 331.049,-878.845"/>
<text text-anchor="middle" x="387" y="-900" font-family="Arial" font-size="10.00"> mat</text>
</g>
<!-- Node19 -->
<g id="node19" class="node"><title>Node19</title>
<g id="a_node19"><a xlink:href="classid_decl.html" target="_top" xlink:title="idDecl">
<polygon fill="white" stroke="black" points="142,-864.5 142,-883.5 186,-883.5 186,-864.5 142,-864.5"/>
<text text-anchor="middle" x="164" y="-871.5" font-family="Arial" font-size="10.00">idDecl</text>
</a>
</g>
</g>
<!-- Node19&#45;&gt;Node18 -->
<g id="edge27" class="edge"><title>Node19&#45;&gt;Node18</title>
<path fill="none" stroke="midnightblue" d="M196.314,-874C216.211,-874 241.778,-874 261.175,-874"/>
<polygon fill="midnightblue" stroke="midnightblue" points="196.205,-870.5 186.205,-874 196.205,-877.5 196.205,-870.5"/>
</g>
<!-- Node20 -->
<g id="node20" class="node"><title>Node20</title>
<g id="a_node20"><a xlink:href="classid_decl_base.html" target="_top" xlink:title="idDeclBase">
<polygon fill="white" stroke="black" points="0,-864.5 0,-883.5 66,-883.5 66,-864.5 0,-864.5"/>
<text text-anchor="middle" x="33" y="-871.5" font-family="Arial" font-size="10.00">idDeclBase</text>
</a>
</g>
</g>
<!-- Node20&#45;&gt;Node19 -->
<g id="edge28" class="edge"><title>Node20&#45;&gt;Node19</title>
<path fill="none" stroke="#9a32cd" stroke-dasharray="5,2" d="M76.2792,-874C98.1687,-874 123.948,-874 141.678,-874"/>
<polygon fill="#9a32cd" stroke="#9a32cd" points="76.2194,-870.5 66.2194,-874 76.2193,-877.5 76.2194,-870.5"/>
<text text-anchor="middle" x="101" y="-877" font-family="Arial" font-size="10.00"> base</text>
</g>
<!-- Node21 -->
<g id="node21" class="node"><title>Node21</title>
<g id="a_node21"><a xlink:href="classid_list.html" target="_top" xlink:title="idList\&lt; idTimeLineEvent * \&gt;">
<polygon fill="white" stroke="black" points="442.5,-218.5 442.5,-237.5 577.5,-237.5 577.5,-218.5 442.5,-218.5"/>
<text text-anchor="middle" x="510" y="-225.5" font-family="Arial" font-size="10.00">idList&lt; idTimeLineEvent * &gt;</text>
</a>
</g>
</g>
<!-- Node21&#45;&gt;Node3 -->
<g id="edge29" class="edge"><title>Node21&#45;&gt;Node3</title>
<path fill="none" stroke="#9a32cd" stroke-dasharray="5,2" d="M551.903,-216.167C591.164,-207.537 649.704,-202.224 686,-234 727.578,-270.4 732.376,-458.336 732.928,-503.319"/>
<polygon fill="#9a32cd" stroke="#9a32cd" points="551.046,-212.773 542.116,-218.474 552.652,-219.586 551.046,-212.773"/>
<text text-anchor="middle" x="641" y="-237" font-family="Arial" font-size="10.00"> timeLineEvents</text>
</g>
<!-- Node22 -->
<g id="node22" class="node"><title>Node22</title>
<g id="a_node22"><a xlink:href="classid_gui_script_list.html" target="_top" xlink:title="idGuiScriptList">
<polygon fill="white" stroke="black" points="470,-180.5 470,-199.5 550,-199.5 550,-180.5 470,-180.5"/>
<text text-anchor="middle" x="510" y="-187.5" font-family="Arial" font-size="10.00">idGuiScriptList</text>
</a>
</g>
</g>
<!-- Node22&#45;&gt;Node3 -->
<g id="edge30" class="edge"><title>Node22&#45;&gt;Node3</title>
<path fill="none" stroke="#9a32cd" stroke-dasharray="5,2" d="M560.256,-184.639C605.453,-180.891 668.028,-179.036 686,-195 733.356,-237.067 733.684,-454.565 733.15,-503.302"/>
<polygon fill="#9a32cd" stroke="#9a32cd" points="559.693,-181.175 550.04,-185.542 560.309,-188.148 559.693,-181.175"/>
<text text-anchor="middle" x="641" y="-198" font-family="Arial" font-size="10.00"> scripts</text>
</g>
<!-- Node23 -->
<g id="node23" class="node"><title>Node23</title>
<g id="a_node23"><a xlink:href="classid_register_list.html" target="_top" xlink:title="idRegisterList">
<polygon fill="white" stroke="black" points="472,-142.5 472,-161.5 548,-161.5 548,-142.5 472,-142.5"/>
<text text-anchor="middle" x="510" y="-149.5" font-family="Arial" font-size="10.00">idRegisterList</text>
</a>
</g>
</g>
<!-- Node23&#45;&gt;Node3 -->
<g id="edge31" class="edge"><title>Node23&#45;&gt;Node3</title>
<path fill="none" stroke="#9a32cd" stroke-dasharray="5,2" d="M558.492,-149.662C603.989,-148.517 668.274,-150.13 686,-167 736.061,-214.642 734.232,-451.873 733.233,-503.198"/>
<polygon fill="#9a32cd" stroke="#9a32cd" points="558.122,-146.171 548.233,-149.974 558.335,-153.168 558.122,-146.171"/>
<text text-anchor="middle" x="641" y="-170" font-family="Arial" font-size="10.00"> regList</text>
</g>
<!-- Node24 -->
<g id="node24" class="node"><title>Node24</title>
<g id="a_node24"><a xlink:href="classid_user_interface_local.html" target="_top" xlink:title="idUserInterfaceLocal">
<polygon fill="white" stroke="black" points="458,-975.5 458,-994.5 562,-994.5 562,-975.5 458,-975.5"/>
<text text-anchor="middle" x="510" y="-982.5" font-family="Arial" font-size="10.00">idUserInterfaceLocal</text>
</a>
</g>
</g>
<!-- Node24&#45;&gt;Node3 -->
<g id="edge32" class="edge"><title>Node24&#45;&gt;Node3</title>
<path fill="none" stroke="#9a32cd" stroke-dasharray="5,2" d="M572.324,-983.283C616.379,-980.669 670.602,-974.153 686,-958 717.157,-925.316 730.487,-584.949 732.672,-522.735"/>
<polygon fill="#9a32cd" stroke="#9a32cd" points="572.035,-979.793 562.237,-983.825 572.411,-986.783 572.035,-979.793"/>
<text text-anchor="middle" x="641" y="-984" font-family="Arial" font-size="10.00"> gui</text>
</g>
<!-- Node25 -->
<g id="node25" class="node"><title>Node25</title>
<g id="a_node25"><a xlink:href="classid_user_interface.html" target="_top" xlink:title="idUserInterface">
<polygon fill="white" stroke="black" points="250.5,-975.5 250.5,-994.5 331.5,-994.5 331.5,-975.5 250.5,-975.5"/>
<text text-anchor="middle" x="291" y="-982.5" font-family="Arial" font-size="10.00">idUserInterface</text>
</a>
</g>
</g>
<!-- Node25&#45;&gt;Node24 -->
<g id="edge33" class="edge"><title>Node25&#45;&gt;Node24</title>
<path fill="none" stroke="midnightblue" d="M341.937,-985C376.672,-985 422.842,-985 457.841,-985"/>
<polygon fill="midnightblue" stroke="midnightblue" points="341.549,-981.5 331.549,-985 341.549,-988.5 341.549,-981.5"/>
</g>
<!-- Node26&#45;&gt;Node3 -->
<g id="edge34" class="edge"><title>Node26&#45;&gt;Node3</title>
<path fill="none" stroke="#9a32cd" stroke-dasharray="5,2" d="M423.598,-727.397C434.115,-715.341 430.971,-706.105 442,-699 533.762,-639.883 602.369,-741.15 686,-671 732.045,-632.377 734.174,-550.8 733.453,-522.73"/>
<polygon fill="#9a32cd" stroke="#9a32cd" points="421.053,-724.986 416.173,-734.39 425.853,-730.082 421.053,-724.986"/>
<text text-anchor="middle" x="510" y="-735" font-family="Arial" font-size="10.00"> noTime</text>
<text text-anchor="middle" x="510" y="-724" font-family="Arial" font-size="10.00">hideCursor</text>
<text text-anchor="middle" x="510" y="-713" font-family="Arial" font-size="10.00">noEvents</text>
<text text-anchor="middle" x="510" y="-702" font-family="Arial" font-size="10.00">visible</text>
</g>
<!-- Node27 -->
<g id="node27" class="node"><title>Node27</title>
<g id="a_node27"><a xlink:href="classid_vec2.html" target="_top" xlink:title="idVec2">
<polygon fill="white" stroke="black" points="486.5,-104.5 486.5,-123.5 533.5,-123.5 533.5,-104.5 486.5,-104.5"/>
<text text-anchor="middle" x="510" y="-111.5" font-family="Arial" font-size="10.00">idVec2</text>
</a>
</g>
</g>
<!-- Node27&#45;&gt;Node3 -->
<g id="edge36" class="edge"><title>Node27&#45;&gt;Node3</title>
<path fill="none" stroke="#9a32cd" stroke-dasharray="5,2" d="M543.353,-104.608C582.514,-95.427 647.931,-87.4555 686,-123 714.787,-149.878 729.891,-445.797 732.566,-503.337"/>
<polygon fill="#9a32cd" stroke="#9a32cd" points="542.373,-101.245 533.522,-107.068 544.072,-108.036 542.373,-101.245"/>
<text text-anchor="middle" x="641" y="-137" font-family="Arial" font-size="10.00"> origin</text>
<text text-anchor="middle" x="641" y="-126" font-family="Arial" font-size="10.00">shear</text>
</g>
<!-- Node28 -->
<g id="node28" class="node"><title>Node28</title>
<g id="a_node28"><a xlink:href="classid_list.html" target="_top" xlink:title="idList\&lt; drawWin_t \&gt;">
<polygon fill="white" stroke="black" points="458,-66.5 458,-85.5 562,-85.5 562,-66.5 458,-66.5"/>
<text text-anchor="middle" x="510" y="-73.5" font-family="Arial" font-size="10.00">idList&lt; drawWin_t &gt;</text>
</a>
</g>
</g>
<!-- Node28&#45;&gt;Node3 -->
<g id="edge37" class="edge"><title>Node28&#45;&gt;Node3</title>
<path fill="none" stroke="#9a32cd" stroke-dasharray="5,2" d="M572.308,-69.9325C616.053,-67.0718 669.877,-67.0337 686,-82 717.996,-111.701 730.6,-441.545 732.682,-503.129"/>
<polygon fill="#9a32cd" stroke="#9a32cd" points="572.018,-66.4443 562.292,-70.6466 572.515,-73.4265 572.018,-66.4443"/>
<text text-anchor="middle" x="641" y="-85" font-family="Arial" font-size="10.00"> drawWindows</text>
</g>
<!-- Node29 -->
<g id="node29" class="node"><title>Node29</title>
<g id="a_node29"><a xlink:href="classid_list.html" target="_top" xlink:title="idList\&lt; idTransitionData \&gt;">
<polygon fill="white" stroke="black" points="446,-937.5 446,-956.5 574,-956.5 574,-937.5 446,-937.5"/>
<text text-anchor="middle" x="510" y="-944.5" font-family="Arial" font-size="10.00">idList&lt; idTransitionData &gt;</text>
</a>
</g>
</g>
<!-- Node29&#45;&gt;Node3 -->
<g id="edge39" class="edge"><title>Node29&#45;&gt;Node3</title>
<path fill="none" stroke="#9a32cd" stroke-dasharray="5,2" d="M584.376,-944.87C625.741,-942.036 671.891,-935.58 686,-921 714.697,-891.346 729.927,-581.681 732.579,-522.681"/>
<polygon fill="#9a32cd" stroke="#9a32cd" points="584.026,-941.385 574.263,-945.499 584.461,-948.371 584.026,-941.385"/>
<text text-anchor="middle" x="641" y="-946" font-family="Arial" font-size="10.00"> transitions</text>
</g>
<!-- Node30 -->
<g id="node30" class="node"><title>Node30</title>
<g id="a_node30"><a xlink:href="classid_c_var.html" target="_top" xlink:title="idCVar">
<polygon fill="white" stroke="black" points="487,-1013.5 487,-1032.5 533,-1032.5 533,-1013.5 487,-1013.5"/>
<text text-anchor="middle" x="510" y="-1020.5" font-family="Arial" font-size="10.00">idCVar</text>
</a>
</g>
</g>
<!-- Node30&#45;&gt;Node3 -->
<g id="edge40" class="edge"><title>Node30&#45;&gt;Node3</title>
<path fill="none" stroke="#9a32cd" stroke-dasharray="5,2" d="M543.027,-1028.55C582.716,-1033.4 649.552,-1034.55 686,-996 719.788,-960.262 731.041,-587.889 732.758,-522.709"/>
<polygon fill="#9a32cd" stroke="#9a32cd" points="543.461,-1025.08 533.078,-1027.19 542.511,-1032.01 543.461,-1025.08"/>
<text text-anchor="middle" x="641" y="-1044" font-family="Arial" font-size="10.00"> gui_debug</text>
<text text-anchor="middle" x="641" y="-1033" font-family="Arial" font-size="10.00">gui_edit</text>
</g>
<!-- Node30&#45;&gt;Node30 -->
<g id="edge42" class="edge"><title>Node30&#45;&gt;Node30</title>
<path fill="none" stroke="#9a32cd" stroke-dasharray="5,2" d="M487.307,-1042.03C488.544,-1047.13 496.109,-1051 510,-1051 531.684,-1051 537.952,-1041.57 528.804,-1032.76"/>
<polygon fill="#9a32cd" stroke="#9a32cd" points="490.555,-1043.33 491.196,-1032.76 484.1,-1040.62 490.555,-1043.33"/>
<text text-anchor="middle" x="510" y="-1065" font-family="Arial" font-size="10.00"> next</text>
<text text-anchor="middle" x="510" y="-1054" font-family="Arial" font-size="10.00">internalVar</text>
</g>
<!-- Node31 -->
<g id="node31" class="node"><title>Node31</title>
<g id="a_node31"><a xlink:href="classid_cmd_args.html" target="_top" xlink:title="idCmdArgs">
<polygon fill="white" stroke="black" points="258.5,-1013.5 258.5,-1032.5 323.5,-1032.5 323.5,-1013.5 258.5,-1013.5"/>
<text text-anchor="middle" x="291" y="-1020.5" font-family="Arial" font-size="10.00">idCmdArgs</text>
</a>
</g>
</g>
<!-- Node31&#45;&gt;Node30 -->
<g id="edge41" class="edge"><title>Node31&#45;&gt;Node30</title>
<path fill="none" stroke="#9a32cd" stroke-dasharray="5,2" d="M333.742,-1023C379.48,-1023 451.108,-1023 486.979,-1023"/>
<polygon fill="#9a32cd" stroke="#9a32cd" points="333.554,-1019.5 323.554,-1023 333.554,-1026.5 333.554,-1019.5"/>
<text text-anchor="middle" x="387" y="-1026" font-family="Arial" font-size="10.00"> valueCompletion</text>
</g>
<!-- Node32 -->
<g id="node32" class="node"><title>Node32</title>
<g id="a_node32"><a xlink:href="structid_reg_entry.html" target="_top" xlink:title="idRegEntry">
<polygon fill="white" stroke="black" points="477.5,-515.5 477.5,-534.5 542.5,-534.5 542.5,-515.5 477.5,-515.5"/>
<text text-anchor="middle" x="510" y="-522.5" font-family="Arial" font-size="10.00">idRegEntry</text>
</a>
</g>
</g>
<!-- Node32&#45;&gt;Node3 -->
<g id="edge43" class="edge"><title>Node32&#45;&gt;Node3</title>
<path fill="none" stroke="#9a32cd" stroke-dasharray="5,2" d="M552.911,-518.55C566.611,-516.717 581.922,-514.959 596,-514 633.375,-511.455 676.618,-511.663 704.361,-512.2"/>
<polygon fill="#9a32cd" stroke="#9a32cd" points="552.22,-515.112 542.797,-519.955 553.183,-522.046 552.22,-515.112"/>
<text text-anchor="middle" x="641" y="-517" font-family="Arial" font-size="10.00"> RegisterVars</text>
</g>
<!-- Node33 -->
<g id="node33" class="node"><title>Node33</title>
<g id="a_node33"><a xlink:href="classid_list.html" target="_top" xlink:title="idList\&lt; rvNamedEvent * \&gt;">
<polygon fill="white" stroke="black" points="447,-553.5 447,-572.5 573,-572.5 573,-553.5 447,-553.5"/>
<text text-anchor="middle" x="510" y="-560.5" font-family="Arial" font-size="10.00">idList&lt; rvNamedEvent * &gt;</text>
</a>
</g>
</g>
<!-- Node33&#45;&gt;Node3 -->
<g id="edge45" class="edge"><title>Node33&#45;&gt;Node3</title>
<path fill="none" stroke="#9a32cd" stroke-dasharray="5,2" d="M567.024,-551.373C601.424,-544.101 646.343,-534.365 686,-525 691.901,-523.606 698.201,-522.048 704.208,-520.527"/>
<polygon fill="#9a32cd" stroke="#9a32cd" points="566.223,-547.965 557.16,-553.452 567.667,-554.815 566.223,-547.965"/>
<text text-anchor="middle" x="641" y="-547" font-family="Arial" font-size="10.00"> namedEvents</text>
</g>
<!-- Node34&#45;&gt;Node1 -->
<g id="edge46" class="edge"><title>Node34&#45;&gt;Node1</title>
<path fill="none" stroke="#9a32cd" stroke-dasharray="5,2" d="M911.148,-168.975C943.086,-235.223 1048.96,-454.844 1072.39,-503.429"/>
<polygon fill="#9a32cd" stroke="#9a32cd" points="914.176,-167.197 906.681,-159.709 907.871,-170.237 914.176,-167.197"/>
<text text-anchor="middle" x="999" y="-398" font-family="Arial" font-size="10.00"> mWrapper</text>
</g>
</g>
</svg>
        <g id="navigator" transform="translate(0 0)" fill="#404254">
                <rect fill="#f2f5e9" fill-opacity="0.5" stroke="#606060" stroke-width=".5" x="0" y="0" width="60" height="60"/>
                <use id="zoomplus" xlink:href="#zoomPlus" x="17" y="9" onmousedown="handleZoom(evt,'in')"/>
                <use id="zoomminus" xlink:href="#zoomMin" x="42" y="9" onmousedown="handleZoom(evt,'out')"/>
                <use id="reset" xlink:href="#resetDef" x="30" y="36" onmousedown="handleReset()"/>
                <g id="arrowUp" xlink:href="#dirArrow" transform="translate(30 24)" onmousedown="handlePan(0,-1)">
                  <use xlink:href="#rim" fill="#404040">
                        <set attributeName="fill" to="#808080" begin="arrowUp.mouseover" end="arrowUp.mouseout"/>
                  </use>
                  <path fill="none" stroke="white" stroke-width="1.5" d="M0,-3.0v7 M-2.5,-0.5L0,-3.0L2.5,-0.5"/>
                </g>
                <g id="arrowRight" xlink:href="#dirArrow" transform="rotate(90) translate(36 -43)" onmousedown="handlePan(1,0)">
                  <use xlink:href="#rim" fill="#404040">
                        <set attributeName="fill" to="#808080" begin="arrowRight.mouseover" end="arrowRight.mouseout"/>
                  </use>
                  <path fill="none" stroke="white" stroke-width="1.5" d="M0,-3.0v7 M-2.5,-0.5L0,-3.0L2.5,-0.5"/>
                </g>
                <g id="arrowDown" xlink:href="#dirArrow" transform="rotate(180) translate(-30 -48)" onmousedown="handlePan(0,1)">
                  <use xlink:href="#rim" fill="#404040">
                        <set attributeName="fill" to="#808080" begin="arrowDown.mouseover" end="arrowDown.mouseout"/>
                  </use>
                  <path fill="none" stroke="white" stroke-width="1.5" d="M0,-3.0v7 M-2.5,-0.5L0,-3.0L2.5,-0.5"/>
                </g>
                <g id="arrowLeft" xlink:href="#dirArrow" transform="rotate(270) translate(-36 17)" onmousedown="handlePan(-1,0)">
                  <use xlink:href="#rim" fill="#404040">
                        <set attributeName="fill" to="#808080" begin="arrowLeft.mouseover" end="arrowLeft.mouseout"/>
                  </use>
                  <path fill="none" stroke="white" stroke-width="1.5" d="M0,-3.0v7 M-2.5,-0.5L0,-3.0L2.5,-0.5"/>
                </g>
        </g>
        <svg viewBox="0 0 15 15" width="100%" height="30px" preserveAspectRatio="xMaxYMin meet">
         <g id="arrow_out" transform="scale(0.3 0.3)">
          <a xlink:href="classrv_g_e_modifier__coll__graph_org.svg" target="_base">
           <rect id="button" ry="5" rx="5" y="6" x="6" height="38" width="38"
                fill="#f2f5e9" fill-opacity="0.5" stroke="#606060" stroke-width="1.0"/>
           <path id="arrow"
             d="M 11.500037,31.436501 C 11.940474,20.09759 22.043105,11.32322 32.158766,21.979434 L 37.068811,17.246167 C 37.068811,17.246167 37.088388,32 37.088388,32 L 22.160133,31.978069 C 22.160133,31.978069 26.997745,27.140456 26.997745,27.140456 C 18.528582,18.264221 13.291696,25.230495 11.500037,31.436501 z"
             style="fill:#404040;"/>
          </a>
         </g>
        </svg>
</svg>
