<?xml version="1.0" encoding="UTF-8" standalone="no"?>
<!DOCTYPE svg PUBLIC "-//W3C//DTD SVG 1.1//EN"
 "http://www.w3.org/Graphics/SVG/1.1/DTD/svg11.dtd">
<!-- Generated by graphviz version 2.34.0 (20130907.0111)
 -->
<!-- Title: rvGEInsertModifier Pages: 1 -->
<!--zoomable 1218 -->
<svg id="main" version="1.1" xmlns="http://www.w3.org/2000/svg" xmlns:xlink="http://www.w3.org/1999/xlink" xml:space="preserve" onload="init(evt)">
<style type="text/css"><![CDATA[
.edge:hover path { stroke: red; }
.edge:hover polygon { stroke: red; fill: red; }
]]></style>
<script type="text/javascript"><![CDATA[
var edges = document.getElementsByTagName('g');
if (edges && edges.length) {
  for (var i=0;i<edges.length;i++) {
    if (edges[i].id.substr(0,4)=='edge') {
      edges[i].setAttribute('class','edge');
    }
  }
}
]]></script>
        <defs>
                <circle id="rim" cx="0" cy="0" r="7"/>
                <circle id="rim2" cx="0" cy="0" r="3.5"/>
                <g id="zoomPlus">
                        <use xlink:href="#rim" fill="#404040">
                                <set attributeName="fill" to="#808080" begin="zoomplus.mouseover" end="zoomplus.mouseout"/>
                        </use>
                        <path d="M-4,0h8M0,-4v8" fill="none" stroke="white" stroke-width="1.5" pointer-events="none"/>
                </g>
                <g id="zoomMin">
                        <use xlink:href="#rim" fill="#404040">
                                <set attributeName="fill" to="#808080" begin="zoomminus.mouseover" end="zoomminus.mouseout"/>
                        </use>
                        <path d="M-4,0h8" fill="none" stroke="white" stroke-width="1.5" pointer-events="none"/>
                </g>
                <g id="dirArrow">
                        <path fill="none" stroke="white" stroke-width="1.5" d="M0,-3.0v7 M-2.5,-0.5L0,-3.0L2.5,-0.5"/>
                </g>
               <g id="resetDef">
                       <use xlink:href="#rim2" fill="#404040">
                               <set attributeName="fill" to="#808080" begin="reset.mouseover" end="reset.mouseout"/>
                       </use>
               </g>
        </defs>

<script type="text/javascript">
var viewWidth = 1278;
var viewHeight = 1218;
var sectionId = 'dynsection-1';
</script>
<script xlink:href="svgpan.js"/>
<svg id="graph" class="graph">
<g id="viewport">
<title>rvGEInsertModifier</title>
<polygon fill="white" stroke="white" points="-4,4 -4,-1214 1274,-1214 1274,4 -4,4"/>
<!-- Node1 -->
<g id="node1" class="node"><title>Node1</title>
<polygon fill="#bfbfbf" stroke="black" points="1174.5,-483.5 1174.5,-502.5 1269.5,-502.5 1269.5,-483.5 1174.5,-483.5"/>
<text text-anchor="middle" x="1222" y="-490.5" font-family="Arial" font-size="10.00">rvGEInsertModifier</text>
</g>
<!-- Node2 -->
<g id="node2" class="node"><title>Node2</title>
<g id="a_node2"><a xlink:href="classrv_g_e_modifier.html" target="_top" xlink:title="rvGEModifier">
<polygon fill="white" stroke="black" points="1064.5,-483.5 1064.5,-502.5 1135.5,-502.5 1135.5,-483.5 1064.5,-483.5"/>
<text text-anchor="middle" x="1100" y="-490.5" font-family="Arial" font-size="10.00">rvGEModifier</text>
</a>
</g>
</g>
<!-- Node2&#45;&gt;Node1 -->
<g id="edge1" class="edge"><title>Node2&#45;&gt;Node1</title>
<path fill="none" stroke="midnightblue" d="M1145.91,-493C1155.19,-493 1164.98,-493 1174.31,-493"/>
<polygon fill="midnightblue" stroke="midnightblue" points="1145.71,-489.5 1135.71,-493 1145.71,-496.5 1145.71,-489.5"/>
</g>
<!-- Node3 -->
<g id="node3" class="node"><title>Node3</title>
<g id="a_node3"><a xlink:href="classid_str.html" target="_top" xlink:title="idStr">
<polygon fill="white" stroke="black" points="145.5,-349.5 145.5,-368.5 182.5,-368.5 182.5,-349.5 145.5,-349.5"/>
<text text-anchor="middle" x="164" y="-356.5" font-family="Arial" font-size="10.00">idStr</text>
</a>
</g>
</g>
<!-- Node3&#45;&gt;Node2 -->
<g id="edge2" class="edge"><title>Node3&#45;&gt;Node2</title>
<path fill="none" stroke="#9a32cd" stroke-dasharray="5,2" d="M167.451,-339.414C177.369,-264.458 217.496,-0 290,-0 290,-0 290,-0 811,-0 1043.45,-0 1091.7,-413.669 1098.17,-483.152"/>
<polygon fill="#9a32cd" stroke="#9a32cd" points="163.972,-339.032 166.163,-349.398 170.914,-339.928 163.972,-339.032"/>
<text text-anchor="middle" x="641" y="-3" font-family="Arial" font-size="10.00"> mName</text>
</g>
<!-- Node4 -->
<g id="node4" class="node"><title>Node4</title>
<g id="a_node4"><a xlink:href="classid_window.html" target="_top" xlink:title="idWindow">
<polygon fill="white" stroke="black" points="704.5,-483.5 704.5,-502.5 763.5,-502.5 763.5,-483.5 704.5,-483.5"/>
<text text-anchor="middle" x="734" y="-490.5" font-family="Arial" font-size="10.00">idWindow</text>
</a>
</g>
</g>
<!-- Node3&#45;&gt;Node4 -->
<g id="edge11" class="edge"><title>Node3&#45;&gt;Node4</title>
<path fill="none" stroke="#9a32cd" stroke-dasharray="5,2" d="M192.431,-352.859C288.699,-331.99 609.456,-268.431 686,-330 734.422,-368.949 734.952,-454.425 733.642,-483.271"/>
<polygon fill="#9a32cd" stroke="#9a32cd" points="191.595,-349.459 182.576,-355.017 193.093,-356.297 191.595,-349.459"/>
<text text-anchor="middle" x="387" y="-347" font-family="Arial" font-size="10.00"> comment</text>
<text text-anchor="middle" x="387" y="-336" font-family="Arial" font-size="10.00">cmd</text>
<text text-anchor="middle" x="387" y="-325" font-family="Arial" font-size="10.00">name</text>
</g>
<!-- Node12 -->
<g id="node12" class="node"><title>Node12</title>
<g id="a_node12"><a xlink:href="classid_win_str.html" target="_top" xlink:title="idWinStr">
<polygon fill="white" stroke="black" points="264,-491.5 264,-510.5 318,-510.5 318,-491.5 264,-491.5"/>
<text text-anchor="middle" x="291" y="-498.5" font-family="Arial" font-size="10.00">idWinStr</text>
</a>
</g>
</g>
<!-- Node3&#45;&gt;Node12 -->
<g id="edge16" class="edge"><title>Node3&#45;&gt;Node12</title>
<path fill="none" stroke="#9a32cd" stroke-dasharray="5,2" d="M175.396,-377.647C189.72,-402.089 217.481,-445.224 250,-474 257.279,-480.441 266.174,-486.588 273.726,-491.386"/>
<polygon fill="#9a32cd" stroke="#9a32cd" points="178.273,-375.629 170.262,-368.695 172.201,-379.111 178.273,-375.629"/>
<text text-anchor="middle" x="221" y="-457" font-family="Arial" font-size="10.00"> data</text>
</g>
<!-- Node18 -->
<g id="node18" class="node"><title>Node18</title>
<g id="a_node18"><a xlink:href="classid_win_background.html" target="_top" xlink:title="idWinBackground">
<polygon fill="white" stroke="black" points="463.5,-455.5 463.5,-474.5 556.5,-474.5 556.5,-455.5 463.5,-455.5"/>
<text text-anchor="middle" x="510" y="-462.5" font-family="Arial" font-size="10.00">idWinBackground</text>
</a>
</g>
</g>
<!-- Node3&#45;&gt;Node18 -->
<g id="edge26" class="edge"><title>Node3&#45;&gt;Node18</title>
<path fill="none" stroke="#9a32cd" stroke-dasharray="5,2" d="M192.454,-367.903C242.116,-383.945 350.242,-418.586 442,-446 452.542,-449.15 464.055,-452.461 474.517,-455.421"/>
<polygon fill="#9a32cd" stroke="#9a32cd" points="193.362,-364.518 182.771,-364.771 191.208,-371.179 193.362,-364.518"/>
<text text-anchor="middle" x="291" y="-415" font-family="Arial" font-size="10.00"> data</text>
</g>
<!-- Node4&#45;&gt;Node1 -->
<g id="edge51" class="edge"><title>Node4&#45;&gt;Node1</title>
<path fill="none" stroke="#9a32cd" stroke-dasharray="5,2" d="M772.262,-480.266C830.555,-461.923 946.911,-431.657 1046,-445 1100.01,-452.273 1160.94,-471.637 1194.78,-483.429"/>
<polygon fill="#9a32cd" stroke="#9a32cd" points="770.858,-477.04 762.406,-483.429 772.997,-483.705 770.858,-477.04"/>
<text text-anchor="middle" x="1015" y="-481" font-family="Arial" font-size="10.00"> mUndoBefore</text>
<text text-anchor="middle" x="1015" y="-470" font-family="Arial" font-size="10.00">mBefore</text>
<text text-anchor="middle" x="1015" y="-459" font-family="Arial" font-size="10.00">mParent</text>
<text text-anchor="middle" x="1015" y="-448" font-family="Arial" font-size="10.00">mUndoParent</text>
</g>
<!-- Node4&#45;&gt;Node2 -->
<g id="edge3" class="edge"><title>Node4&#45;&gt;Node2</title>
<path fill="none" stroke="#9a32cd" stroke-dasharray="5,2" d="M773.907,-493C845.3,-493 996.137,-493 1064.28,-493"/>
<polygon fill="#9a32cd" stroke="#9a32cd" points="773.563,-489.5 763.562,-493 773.562,-496.5 773.563,-489.5"/>
<text text-anchor="middle" x="911" y="-496" font-family="Arial" font-size="10.00"> mWindow</text>
</g>
<!-- Node4&#45;&gt;Node4 -->
<g id="edge13" class="edge"><title>Node4&#45;&gt;Node4</title>
<path fill="none" stroke="#9a32cd" stroke-dasharray="5,2" d="M720.004,-512.766C721.103,-517.497 725.769,-521 734,-521 747.508,-521 751.412,-511.565 745.714,-502.757"/>
<polygon fill="#9a32cd" stroke="#9a32cd" points="723.476,-513.285 722.286,-502.757 716.651,-511.729 723.476,-513.285"/>
<text text-anchor="middle" x="734" y="-557" font-family="Arial" font-size="10.00"> captureChild</text>
<text text-anchor="middle" x="734" y="-546" font-family="Arial" font-size="10.00">overChild</text>
<text text-anchor="middle" x="734" y="-535" font-family="Arial" font-size="10.00">parent</text>
<text text-anchor="middle" x="734" y="-524" font-family="Arial" font-size="10.00">focusedChild</text>
</g>
<!-- Node35 -->
<g id="node35" class="node"><title>Node35</title>
<g id="a_node35"><a xlink:href="classrv_g_e_window_wrapper.html" target="_top" xlink:title="rvGEWindowWrapper">
<polygon fill="white" stroke="black" points="856.5,-1078.5 856.5,-1097.5 965.5,-1097.5 965.5,-1078.5 856.5,-1078.5"/>
<text text-anchor="middle" x="911" y="-1085.5" font-family="Arial" font-size="10.00">rvGEWindowWrapper</text>
</a>
</g>
</g>
<!-- Node4&#45;&gt;Node35 -->
<g id="edge48" class="edge"><title>Node4&#45;&gt;Node35</title>
<path fill="none" stroke="#9a32cd" stroke-dasharray="5,2" d="M740.73,-512.483C768.341,-606.358 887.14,-1010.28 907.137,-1078.27"/>
<polygon fill="#9a32cd" stroke="#9a32cd" points="744.071,-511.437 737.891,-502.831 737.355,-513.412 744.071,-511.437"/>
<text text-anchor="middle" x="810" y="-829" font-family="Arial" font-size="10.00"> mWindow</text>
</g>
<!-- Node5 -->
<g id="node5" class="node"><title>Node5</title>
<g id="a_node5"><a xlink:href="classid_device_context.html" target="_top" xlink:title="idDeviceContext">
<polygon fill="white" stroke="black" points="467,-618.5 467,-637.5 553,-637.5 553,-618.5 467,-618.5"/>
<text text-anchor="middle" x="510" y="-625.5" font-family="Arial" font-size="10.00">idDeviceContext</text>
</a>
</g>
</g>
<!-- Node5&#45;&gt;Node4 -->
<g id="edge4" class="edge"><title>Node5&#45;&gt;Node4</title>
<path fill="none" stroke="#9a32cd" stroke-dasharray="5,2" d="M556.097,-615.625C563.441,-613.492 570.949,-611.238 578,-609 626.5,-593.607 646.543,-603.131 686,-571 709.048,-552.232 723.592,-518.963 729.692,-502.614"/>
<polygon fill="#9a32cd" stroke="#9a32cd" points="554.892,-612.33 546.243,-618.448 556.82,-619.059 554.892,-612.33"/>
<text text-anchor="middle" x="641" y="-606" font-family="Arial" font-size="10.00"> dc</text>
</g>
<!-- Node6 -->
<g id="node6" class="node"><title>Node6</title>
<g id="a_node6"><a xlink:href="classid_vec4.html" target="_top" xlink:title="idVec4">
<polygon fill="white" stroke="black" points="267.5,-636.5 267.5,-655.5 314.5,-655.5 314.5,-636.5 267.5,-636.5"/>
<text text-anchor="middle" x="291" y="-643.5" font-family="Arial" font-size="10.00">idVec4</text>
</a>
</g>
</g>
<!-- Node6&#45;&gt;Node5 -->
<g id="edge5" class="edge"><title>Node6&#45;&gt;Node5</title>
<path fill="none" stroke="#9a32cd" stroke-dasharray="5,2" d="M303.862,-627.648C314.149,-613.569 330.44,-595.2 350,-587 380.331,-574.284 394.279,-572.916 424,-587 435.416,-592.41 431.437,-602.069 442,-609 449.48,-613.908 458.235,-617.567 466.901,-620.288"/>
<polygon fill="#9a32cd" stroke="#9a32cd" points="300.805,-625.915 297.996,-636.131 306.563,-629.897 300.805,-625.915"/>
<text text-anchor="middle" x="387" y="-678" font-family="Arial" font-size="10.00"> colorRed</text>
<text text-anchor="middle" x="387" y="-667" font-family="Arial" font-size="10.00">colorNone</text>
<text text-anchor="middle" x="387" y="-656" font-family="Arial" font-size="10.00">colorYellow</text>
<text text-anchor="middle" x="387" y="-645" font-family="Arial" font-size="10.00">colorPurple</text>
<text text-anchor="middle" x="387" y="-634" font-family="Arial" font-size="10.00">colorBlue</text>
<text text-anchor="middle" x="387" y="-623" font-family="Arial" font-size="10.00">colorWhite</text>
<text text-anchor="middle" x="387" y="-612" font-family="Arial" font-size="10.00">colorGreen</text>
<text text-anchor="middle" x="387" y="-601" font-family="Arial" font-size="10.00">colorOrange</text>
<text text-anchor="middle" x="387" y="-590" font-family="Arial" font-size="10.00">colorBlack</text>
</g>
<!-- Node7 -->
<g id="node7" class="node"><title>Node7</title>
<g id="a_node7"><a xlink:href="classid_win_vec4.html" target="_top" xlink:title="idWinVec4">
<polygon fill="white" stroke="black" points="478,-656.5 478,-675.5 542,-675.5 542,-656.5 478,-656.5"/>
<text text-anchor="middle" x="510" y="-663.5" font-family="Arial" font-size="10.00">idWinVec4</text>
</a>
</g>
</g>
<!-- Node6&#45;&gt;Node7 -->
<g id="edge9" class="edge"><title>Node6&#45;&gt;Node7</title>
<path fill="none" stroke="#9a32cd" stroke-dasharray="5,2" d="M309.832,-662.544C320.59,-671.372 335.071,-681.351 350,-686 395.822,-700.269 452.085,-686.227 483.913,-675.549"/>
<polygon fill="#9a32cd" stroke="#9a32cd" points="311.92,-659.723 302.064,-655.836 307.345,-665.021 311.92,-659.723"/>
<text text-anchor="middle" x="387" y="-695" font-family="Arial" font-size="10.00"> data</text>
</g>
<!-- Node7&#45;&gt;Node4 -->
<g id="edge6" class="edge"><title>Node7&#45;&gt;Node4</title>
<path fill="none" stroke="#9a32cd" stroke-dasharray="5,2" d="M551.844,-654.815C602.756,-640.804 683.456,-618.335 686,-616 720.186,-584.618 729.709,-525.664 732.186,-502.598"/>
<polygon fill="#9a32cd" stroke="#9a32cd" points="550.806,-651.471 542.091,-657.496 552.661,-658.22 550.806,-651.471"/>
<text text-anchor="middle" x="641" y="-689" font-family="Arial" font-size="10.00"> foreColor</text>
<text text-anchor="middle" x="641" y="-678" font-family="Arial" font-size="10.00">matColor</text>
<text text-anchor="middle" x="641" y="-667" font-family="Arial" font-size="10.00">hoverColor</text>
<text text-anchor="middle" x="641" y="-656" font-family="Arial" font-size="10.00">borderColor</text>
<text text-anchor="middle" x="641" y="-645" font-family="Arial" font-size="10.00">backColor</text>
</g>
<!-- Node8 -->
<g id="node8" class="node"><title>Node8</title>
<g id="a_node8"><a xlink:href="classid_win_var.html" target="_top" xlink:title="idWinVar">
<polygon fill="white" stroke="black" points="136,-817.5 136,-836.5 192,-836.5 192,-817.5 136,-817.5"/>
<text text-anchor="middle" x="164" y="-824.5" font-family="Arial" font-size="10.00">idWinVar</text>
</a>
</g>
</g>
<!-- Node8&#45;&gt;Node7 -->
<g id="edge7" class="edge"><title>Node8&#45;&gt;Node7</title>
<path fill="none" stroke="midnightblue" d="M189.299,-812.232C206.073,-802.299 229.045,-789.205 250,-779 325.244,-742.356 347.856,-741.736 424,-707 432.138,-703.288 433.964,-701.928 442,-698 457.635,-690.358 475.412,-681.877 488.724,-675.567"/>
<polygon fill="midnightblue" stroke="midnightblue" points="187.46,-809.254 180.67,-817.387 191.05,-815.263 187.46,-809.254"/>
</g>
<!-- Node8&#45;&gt;Node12 -->
<g id="edge15" class="edge"><title>Node8&#45;&gt;Node12</title>
<path fill="none" stroke="midnightblue" d="M166.369,-807.204C170.706,-756.806 187.79,-621.259 250,-531 255.714,-522.709 264.463,-515.772 272.323,-510.664"/>
<polygon fill="midnightblue" stroke="midnightblue" points="162.864,-807.127 165.572,-817.37 169.843,-807.674 162.864,-807.127"/>
</g>
<!-- Node13 -->
<g id="node13" class="node"><title>Node13</title>
<g id="a_node13"><a xlink:href="classid_win_rectangle.html" target="_top" xlink:title="idWinRectangle">
<polygon fill="white" stroke="black" points="467.5,-946.5 467.5,-965.5 552.5,-965.5 552.5,-946.5 467.5,-946.5"/>
<text text-anchor="middle" x="510" y="-953.5" font-family="Arial" font-size="10.00">idWinRectangle</text>
</a>
</g>
</g>
<!-- Node8&#45;&gt;Node13 -->
<g id="edge18" class="edge"><title>Node8&#45;&gt;Node13</title>
<path fill="none" stroke="midnightblue" d="M186.712,-842.733C193.992,-847.798 202.235,-853.31 210,-858 227.187,-868.381 231.586,-870.995 250,-879 323.782,-911.073 414.945,-934.731 467.089,-946.854"/>
<polygon fill="midnightblue" stroke="midnightblue" points="188.299,-839.569 178.113,-836.652 184.257,-845.284 188.299,-839.569"/>
</g>
<!-- Node16 -->
<g id="node16" class="node"><title>Node16</title>
<g id="a_node16"><a xlink:href="classid_win_float.html" target="_top" xlink:title="idWinFloat">
<polygon fill="white" stroke="black" points="355.5,-885.5 355.5,-904.5 418.5,-904.5 418.5,-885.5 355.5,-885.5"/>
<text text-anchor="middle" x="387" y="-892.5" font-family="Arial" font-size="10.00">idWinFloat</text>
</a>
</g>
</g>
<!-- Node8&#45;&gt;Node16 -->
<g id="edge22" class="edge"><title>Node8&#45;&gt;Node16</title>
<path fill="none" stroke="midnightblue" d="M201.899,-838.353C244.962,-851.604 315.375,-873.269 355.488,-885.612"/>
<polygon fill="midnightblue" stroke="midnightblue" points="202.686,-834.934 192.099,-835.338 200.627,-841.624 202.686,-834.934"/>
</g>
<!-- Node27 -->
<g id="node27" class="node"><title>Node27</title>
<g id="a_node27"><a xlink:href="classid_win_bool.html" target="_top" xlink:title="idWinBool">
<polygon fill="white" stroke="black" points="356.5,-761.5 356.5,-780.5 417.5,-780.5 417.5,-761.5 356.5,-761.5"/>
<text text-anchor="middle" x="387" y="-768.5" font-family="Arial" font-size="10.00">idWinBool</text>
</a>
</g>
</g>
<!-- Node8&#45;&gt;Node27 -->
<g id="edge36" class="edge"><title>Node8&#45;&gt;Node27</title>
<path fill="none" stroke="midnightblue" d="M201.958,-816.182C216.844,-811.925 234.199,-807.088 250,-803 286.516,-793.554 328.849,-783.776 356.46,-777.556"/>
<polygon fill="midnightblue" stroke="midnightblue" points="200.738,-812.891 192.096,-819.02 202.674,-819.618 200.738,-812.891"/>
</g>
<!-- Node9 -->
<g id="node9" class="node"><title>Node9</title>
<g id="a_node9"><a xlink:href="classid_dict.html" target="_top" xlink:title="idDict">
<polygon fill="white" stroke="black" points="12.5,-1079.5 12.5,-1098.5 53.5,-1098.5 53.5,-1079.5 12.5,-1079.5"/>
<text text-anchor="middle" x="33" y="-1086.5" font-family="Arial" font-size="10.00">idDict</text>
</a>
</g>
</g>
<!-- Node9&#45;&gt;Node8 -->
<g id="edge8" class="edge"><title>Node9&#45;&gt;Node8</title>
<path fill="none" stroke="#9a32cd" stroke-dasharray="5,2" d="M43.1961,-1070.32C68.6092,-1018.71 139.171,-875.397 158.213,-836.723"/>
<polygon fill="#9a32cd" stroke="#9a32cd" points="40.0215,-1068.85 38.7442,-1079.36 46.3015,-1071.94 40.0215,-1068.85"/>
<text text-anchor="middle" x="101" y="-984" font-family="Arial" font-size="10.00"> guiDict</text>
</g>
<!-- Node9&#45;&gt;Node35 -->
<g id="edge50" class="edge"><title>Node9&#45;&gt;Node35</title>
<path fill="none" stroke="#9a32cd" stroke-dasharray="5,2" d="M47.601,-1106.65C69.0871,-1132.33 113.555,-1177 163,-1177 163,-1177 163,-1177 642,-1177 692.007,-1177 832.498,-1120.48 887.509,-1097.52"/>
<polygon fill="#9a32cd" stroke="#9a32cd" points="50.2298,-1104.33 41.2215,-1098.75 44.7859,-1108.73 50.2298,-1104.33"/>
<text text-anchor="middle" x="387" y="-1202" font-family="Arial" font-size="10.00"> mScripts</text>
<text text-anchor="middle" x="387" y="-1191" font-family="Arial" font-size="10.00">mState</text>
<text text-anchor="middle" x="387" y="-1180" font-family="Arial" font-size="10.00">mVariables</text>
</g>
<!-- Node10 -->
<g id="node10" class="node"><title>Node10</title>
<g id="a_node10"><a xlink:href="classid_list.html" target="_top" xlink:title="idList\&lt; float \&gt;">
<polygon fill="white" stroke="black" points="472,-218.5 472,-237.5 548,-237.5 548,-218.5 472,-218.5"/>
<text text-anchor="middle" x="510" y="-225.5" font-family="Arial" font-size="10.00">idList&lt; float &gt;</text>
</a>
</g>
</g>
<!-- Node10&#45;&gt;Node4 -->
<g id="edge10" class="edge"><title>Node10&#45;&gt;Node4</title>
<path fill="none" stroke="#9a32cd" stroke-dasharray="5,2" d="M558.217,-223.807C603.498,-220.878 667.616,-219.947 686,-236 724.181,-269.339 731.518,-440.353 732.766,-483.237"/>
<polygon fill="#9a32cd" stroke="#9a32cd" points="557.741,-220.332 548.009,-224.521 558.229,-227.315 557.741,-220.332"/>
<text text-anchor="middle" x="641" y="-250" font-family="Arial" font-size="10.00"> saveRegs</text>
<text text-anchor="middle" x="641" y="-239" font-family="Arial" font-size="10.00">expressionRegisters</text>
</g>
<!-- Node11 -->
<g id="node11" class="node"><title>Node11</title>
<g id="a_node11"><a xlink:href="classid_list.html" target="_top" xlink:title="idList\&lt; idWindow * \&gt;">
<polygon fill="white" stroke="black" points="456.5,-180.5 456.5,-199.5 563.5,-199.5 563.5,-180.5 456.5,-180.5"/>
<text text-anchor="middle" x="510" y="-187.5" font-family="Arial" font-size="10.00">idList&lt; idWindow * &gt;</text>
</a>
</g>
</g>
<!-- Node11&#45;&gt;Node4 -->
<g id="edge12" class="edge"><title>Node11&#45;&gt;Node4</title>
<path fill="none" stroke="#9a32cd" stroke-dasharray="5,2" d="M567.022,-179.319C605.395,-175.45 654.803,-177.798 686,-207 727.42,-245.771 732.338,-438.15 732.921,-483.439"/>
<polygon fill="#9a32cd" stroke="#9a32cd" points="566.545,-175.851 557.02,-180.49 567.359,-182.803 566.545,-175.851"/>
<text text-anchor="middle" x="641" y="-210" font-family="Arial" font-size="10.00"> children</text>
</g>
<!-- Node12&#45;&gt;Node4 -->
<g id="edge14" class="edge"><title>Node12&#45;&gt;Node4</title>
<path fill="none" stroke="#9a32cd" stroke-dasharray="5,2" d="M328.728,-501.542C398.427,-502.368 554.66,-503.247 686,-497 691.89,-496.72 698.184,-496.281 704.19,-495.795"/>
<polygon fill="#9a32cd" stroke="#9a32cd" points="328.345,-498.037 318.302,-501.411 328.257,-505.037 328.345,-498.037"/>
<text text-anchor="middle" x="510" y="-505" font-family="Arial" font-size="10.00"> text</text>
</g>
<!-- Node12&#45;&gt;Node18 -->
<g id="edge25" class="edge"><title>Node12&#45;&gt;Node18</title>
<path fill="none" stroke="midnightblue" d="M328.062,-495.017C365.189,-488.858 423.148,-479.243 463.426,-472.561"/>
<polygon fill="midnightblue" stroke="midnightblue" points="327.468,-491.568 318.175,-496.658 328.613,-498.474 327.468,-491.568"/>
</g>
<!-- Node13&#45;&gt;Node4 -->
<g id="edge17" class="edge"><title>Node13&#45;&gt;Node4</title>
<path fill="none" stroke="#9a32cd" stroke-dasharray="5,2" d="M562.683,-960.313C602.348,-960.55 655.353,-953.647 686,-920 715.128,-888.021 730.062,-563.313 732.606,-502.712"/>
<polygon fill="#9a32cd" stroke="#9a32cd" points="562.722,-956.813 552.651,-960.102 562.575,-963.812 562.722,-956.813"/>
<text text-anchor="middle" x="641" y="-961" font-family="Arial" font-size="10.00"> rect</text>
</g>
<!-- Node14 -->
<g id="node14" class="node"><title>Node14</title>
<g id="a_node14"><a xlink:href="classid_rectangle.html" target="_top" xlink:title="idRectangle">
<polygon fill="white" stroke="black" points="257,-1060.5 257,-1079.5 325,-1079.5 325,-1060.5 257,-1060.5"/>
<text text-anchor="middle" x="291" y="-1067.5" font-family="Arial" font-size="10.00">idRectangle</text>
</a>
</g>
</g>
<!-- Node14&#45;&gt;Node1 -->
<g id="edge52" class="edge"><title>Node14&#45;&gt;Node1</title>
<path fill="none" stroke="#9a32cd" stroke-dasharray="5,2" d="M319.337,-1083.88C328.821,-1088.12 339.671,-1092.36 350,-1095 482.655,-1128.89 853.638,-1185.23 966,-1107 1187.18,-952.997 1217.03,-569.116 1220.56,-502.826"/>
<polygon fill="#9a32cd" stroke="#9a32cd" points="320.567,-1080.59 310.026,-1079.52 317.599,-1086.93 320.567,-1080.59"/>
<text text-anchor="middle" x="810" y="-1160" font-family="Arial" font-size="10.00"> mUndoRect</text>
<text text-anchor="middle" x="810" y="-1149" font-family="Arial" font-size="10.00">mRect</text>
</g>
<!-- Node14&#45;&gt;Node4 -->
<g id="edge39" class="edge"><title>Node14&#45;&gt;Node4</title>
<path fill="none" stroke="#9a32cd" stroke-dasharray="5,2" d="M335.517,-1065.09C436.75,-1053.56 679.948,-1025.3 686,-1019 723.246,-980.248 731.693,-571.132 732.849,-502.687"/>
<polygon fill="#9a32cd" stroke="#9a32cd" points="334.861,-1061.64 325.32,-1066.25 335.651,-1068.59 334.861,-1061.64"/>
<text text-anchor="middle" x="510" y="-1077" font-family="Arial" font-size="10.00"> drawRect</text>
<text text-anchor="middle" x="510" y="-1066" font-family="Arial" font-size="10.00">clientRect</text>
<text text-anchor="middle" x="510" y="-1055" font-family="Arial" font-size="10.00">textRect</text>
</g>
<!-- Node14&#45;&gt;Node13 -->
<g id="edge19" class="edge"><title>Node14&#45;&gt;Node13</title>
<path fill="none" stroke="#9a32cd" stroke-dasharray="5,2" d="M307.013,-1052.9C318.027,-1041.11 333.826,-1025.7 350,-1015 386.711,-990.712 434.769,-974.67 468.402,-965.527"/>
<polygon fill="#9a32cd" stroke="#9a32cd" points="304.348,-1050.62 300.206,-1060.38 309.525,-1055.33 304.348,-1050.62"/>
<text text-anchor="middle" x="387" y="-1018" font-family="Arial" font-size="10.00"> data</text>
</g>
<!-- Node14&#45;&gt;Node35 -->
<g id="edge49" class="edge"><title>Node14&#45;&gt;Node35</title>
<path fill="none" stroke="#9a32cd" stroke-dasharray="5,2" d="M335.372,-1076.2C365.268,-1080.16 405.956,-1084.93 442,-1087 591.862,-1095.63 769.164,-1092.32 856.248,-1089.82"/>
<polygon fill="#9a32cd" stroke="#9a32cd" points="335.65,-1072.71 325.272,-1074.84 334.715,-1079.65 335.65,-1072.71"/>
<text text-anchor="middle" x="641" y="-1106" font-family="Arial" font-size="10.00"> mScreenRect</text>
<text text-anchor="middle" x="641" y="-1095" font-family="Arial" font-size="10.00">mClientRect</text>
</g>
<!-- Node15 -->
<g id="node15" class="node"><title>Node15</title>
<g id="a_node15"><a xlink:href="classid_list.html" target="_top" xlink:title="idList\&lt; wexpOp_t \&gt;">
<polygon fill="white" stroke="black" points="459.5,-142.5 459.5,-161.5 560.5,-161.5 560.5,-142.5 459.5,-142.5"/>
<text text-anchor="middle" x="510" y="-149.5" font-family="Arial" font-size="10.00">idList&lt; wexpOp_t &gt;</text>
</a>
</g>
</g>
<!-- Node15&#45;&gt;Node4 -->
<g id="edge20" class="edge"><title>Node15&#45;&gt;Node4</title>
<path fill="none" stroke="#9a32cd" stroke-dasharray="5,2" d="M570.799,-143.542C614.626,-138.803 669.27,-136.412 686,-151 737.496,-195.903 734.546,-432.101 733.284,-483.233"/>
<polygon fill="#9a32cd" stroke="#9a32cd" points="570.316,-140.075 560.777,-144.686 571.11,-147.03 570.316,-140.075"/>
<text text-anchor="middle" x="641" y="-165" font-family="Arial" font-size="10.00"> saveOps</text>
<text text-anchor="middle" x="641" y="-154" font-family="Arial" font-size="10.00">ops</text>
</g>
<!-- Node16&#45;&gt;Node4 -->
<g id="edge21" class="edge"><title>Node16&#45;&gt;Node4</title>
<path fill="none" stroke="#9a32cd" stroke-dasharray="5,2" d="M428.653,-900.888C501.292,-910.421 649.221,-925.034 686,-892 716.032,-865.026 730.183,-560.554 732.616,-502.523"/>
<polygon fill="#9a32cd" stroke="#9a32cd" points="428.882,-897.388 418.505,-899.525 427.95,-904.325 428.882,-897.388"/>
<text text-anchor="middle" x="510" y="-926" font-family="Arial" font-size="10.00"> textScale</text>
<text text-anchor="middle" x="510" y="-915" font-family="Arial" font-size="10.00">rotate</text>
</g>
<!-- Node17 -->
<g id="node17" class="node"><title>Node17</title>
<g id="a_node17"><a xlink:href="classid_list.html" target="_top" xlink:title="idList\&lt; idWinVar * \&gt;">
<polygon fill="white" stroke="black" points="458,-104.5 458,-123.5 562,-123.5 562,-104.5 458,-104.5"/>
<text text-anchor="middle" x="510" y="-111.5" font-family="Arial" font-size="10.00">idList&lt; idWinVar * &gt;</text>
</a>
</g>
</g>
<!-- Node17&#45;&gt;Node4 -->
<g id="edge23" class="edge"><title>Node17&#45;&gt;Node4</title>
<path fill="none" stroke="#9a32cd" stroke-dasharray="5,2" d="M572.11,-105.344C615.749,-100.661 669.527,-98.4391 686,-113 714.701,-138.37 729.821,-426.121 732.548,-483.195"/>
<polygon fill="#9a32cd" stroke="#9a32cd" points="571.661,-101.873 562.119,-106.477 572.45,-108.828 571.661,-101.873"/>
<text text-anchor="middle" x="641" y="-127" font-family="Arial" font-size="10.00"> definedVars</text>
<text text-anchor="middle" x="641" y="-116" font-family="Arial" font-size="10.00">updateVars</text>
</g>
<!-- Node18&#45;&gt;Node4 -->
<g id="edge24" class="edge"><title>Node18&#45;&gt;Node4</title>
<path fill="none" stroke="#9a32cd" stroke-dasharray="5,2" d="M567.045,-471.315C601.41,-475.289 646.286,-480.661 686,-486 691.887,-486.791 698.18,-487.691 704.186,-488.576"/>
<polygon fill="#9a32cd" stroke="#9a32cd" points="567.07,-467.795 556.735,-470.128 566.269,-474.749 567.07,-467.795"/>
<text text-anchor="middle" x="641" y="-489" font-family="Arial" font-size="10.00"> backGroundName</text>
</g>
<!-- Node19 -->
<g id="node19" class="node"><title>Node19</title>
<g id="a_node19"><a xlink:href="classid_material.html" target="_top" xlink:title="idMaterial">
<polygon fill="white" stroke="black" points="261.5,-445.5 261.5,-464.5 320.5,-464.5 320.5,-445.5 261.5,-445.5"/>
<text text-anchor="middle" x="291" y="-452.5" font-family="Arial" font-size="10.00">idMaterial</text>
</a>
</g>
</g>
<!-- Node19&#45;&gt;Node4 -->
<g id="edge45" class="edge"><title>Node19&#45;&gt;Node4</title>
<path fill="none" stroke="#9a32cd" stroke-dasharray="5,2" d="M319.5,-440.802C348.911,-426.48 397.367,-405.329 442,-397 501.419,-385.912 518.257,-387.818 578,-397 627.738,-404.644 644.857,-402.025 686,-431 705.657,-444.844 720.701,-469.41 728.044,-483.096"/>
<polygon fill="#9a32cd" stroke="#9a32cd" points="317.693,-437.791 310.288,-445.369 320.802,-444.063 317.693,-437.791"/>
<text text-anchor="middle" x="510" y="-400" font-family="Arial" font-size="10.00"> background</text>
</g>
<!-- Node19&#45;&gt;Node18 -->
<g id="edge27" class="edge"><title>Node19&#45;&gt;Node18</title>
<path fill="none" stroke="#9a32cd" stroke-dasharray="5,2" d="M330.917,-454.786C357.219,-454.839 392.723,-455.294 424,-457 436.728,-457.694 450.497,-458.825 463.171,-460.02"/>
<polygon fill="#9a32cd" stroke="#9a32cd" points="330.605,-451.286 320.604,-454.785 330.604,-458.286 330.605,-451.286"/>
<text text-anchor="middle" x="387" y="-460" font-family="Arial" font-size="10.00"> mat</text>
</g>
<!-- Node20 -->
<g id="node20" class="node"><title>Node20</title>
<g id="a_node20"><a xlink:href="classid_decl.html" target="_top" xlink:title="idDecl">
<polygon fill="white" stroke="black" points="142,-445.5 142,-464.5 186,-464.5 186,-445.5 142,-445.5"/>
<text text-anchor="middle" x="164" y="-452.5" font-family="Arial" font-size="10.00">idDecl</text>
</a>
</g>
</g>
<!-- Node20&#45;&gt;Node19 -->
<g id="edge28" class="edge"><title>Node20&#45;&gt;Node19</title>
<path fill="none" stroke="midnightblue" d="M196.314,-455C216.211,-455 241.778,-455 261.175,-455"/>
<polygon fill="midnightblue" stroke="midnightblue" points="196.205,-451.5 186.205,-455 196.205,-458.5 196.205,-451.5"/>
</g>
<!-- Node21 -->
<g id="node21" class="node"><title>Node21</title>
<g id="a_node21"><a xlink:href="classid_decl_base.html" target="_top" xlink:title="idDeclBase">
<polygon fill="white" stroke="black" points="0,-445.5 0,-464.5 66,-464.5 66,-445.5 0,-445.5"/>
<text text-anchor="middle" x="33" y="-452.5" font-family="Arial" font-size="10.00">idDeclBase</text>
</a>
</g>
</g>
<!-- Node21&#45;&gt;Node20 -->
<g id="edge29" class="edge"><title>Node21&#45;&gt;Node20</title>
<path fill="none" stroke="#9a32cd" stroke-dasharray="5,2" d="M76.2792,-455C98.1687,-455 123.948,-455 141.678,-455"/>
<polygon fill="#9a32cd" stroke="#9a32cd" points="76.2194,-451.5 66.2194,-455 76.2193,-458.5 76.2194,-451.5"/>
<text text-anchor="middle" x="101" y="-458" font-family="Arial" font-size="10.00"> base</text>
</g>
<!-- Node22 -->
<g id="node22" class="node"><title>Node22</title>
<g id="a_node22"><a xlink:href="classid_list.html" target="_top" xlink:title="idList\&lt; idTimeLineEvent * \&gt;">
<polygon fill="white" stroke="black" points="442.5,-66.5 442.5,-85.5 577.5,-85.5 577.5,-66.5 442.5,-66.5"/>
<text text-anchor="middle" x="510" y="-73.5" font-family="Arial" font-size="10.00">idList&lt; idTimeLineEvent * &gt;</text>
</a>
</g>
</g>
<!-- Node22&#45;&gt;Node4 -->
<g id="edge30" class="edge"><title>Node22&#45;&gt;Node4</title>
<path fill="none" stroke="#9a32cd" stroke-dasharray="5,2" d="M554.849,-64.392C594.435,-56.8082 651.592,-53.5283 686,-86 715.939,-114.254 730.165,-424.233 732.614,-483.307"/>
<polygon fill="#9a32cd" stroke="#9a32cd" points="554.017,-60.99 544.937,-66.4496 555.44,-67.8439 554.017,-60.99"/>
<text text-anchor="middle" x="641" y="-89" font-family="Arial" font-size="10.00"> timeLineEvents</text>
</g>
<!-- Node23 -->
<g id="node23" class="node"><title>Node23</title>
<g id="a_node23"><a xlink:href="classid_gui_script_list.html" target="_top" xlink:title="idGuiScriptList">
<polygon fill="white" stroke="black" points="470,-28.5 470,-47.5 550,-47.5 550,-28.5 470,-28.5"/>
<text text-anchor="middle" x="510" y="-35.5" font-family="Arial" font-size="10.00">idGuiScriptList</text>
</a>
</g>
</g>
<!-- Node23&#45;&gt;Node4 -->
<g id="edge31" class="edge"><title>Node23&#45;&gt;Node4</title>
<path fill="none" stroke="#9a32cd" stroke-dasharray="5,2" d="M550.972,-25.9957C590.567,-16.8195 650.307,-10.7225 686,-44 719.321,-75.0661 730.885,-420.054 732.727,-483.129"/>
<polygon fill="#9a32cd" stroke="#9a32cd" points="549.983,-22.6348 541.119,-28.4381 551.668,-29.4291 549.983,-22.6348"/>
<text text-anchor="middle" x="641" y="-47" font-family="Arial" font-size="10.00"> scripts</text>
</g>
<!-- Node24 -->
<g id="node24" class="node"><title>Node24</title>
<g id="a_node24"><a xlink:href="classid_register_list.html" target="_top" xlink:title="idRegisterList">
<polygon fill="white" stroke="black" points="472,-984.5 472,-1003.5 548,-1003.5 548,-984.5 472,-984.5"/>
<text text-anchor="middle" x="510" y="-991.5" font-family="Arial" font-size="10.00">idRegisterList</text>
</a>
</g>
</g>
<!-- Node24&#45;&gt;Node4 -->
<g id="edge32" class="edge"><title>Node24&#45;&gt;Node4</title>
<path fill="none" stroke="#9a32cd" stroke-dasharray="5,2" d="M558.275,-1002.59C598.088,-1006.85 653.585,-1005.31 686,-972 720.018,-937.042 731.081,-567.354 732.763,-502.64"/>
<polygon fill="#9a32cd" stroke="#9a32cd" points="558.612,-999.106 548.26,-1001.36 557.76,-1006.05 558.612,-999.106"/>
<text text-anchor="middle" x="641" y="-1007" font-family="Arial" font-size="10.00"> regList</text>
</g>
<!-- Node25 -->
<g id="node25" class="node"><title>Node25</title>
<g id="a_node25"><a xlink:href="classid_user_interface_local.html" target="_top" xlink:title="idUserInterfaceLocal">
<polygon fill="white" stroke="black" points="458,-812.5 458,-831.5 562,-831.5 562,-812.5 458,-812.5"/>
<text text-anchor="middle" x="510" y="-819.5" font-family="Arial" font-size="10.00">idUserInterfaceLocal</text>
</a>
</g>
</g>
<!-- Node25&#45;&gt;Node4 -->
<g id="edge33" class="edge"><title>Node25&#45;&gt;Node4</title>
<path fill="none" stroke="#9a32cd" stroke-dasharray="5,2" d="M572.759,-826.904C610.6,-826.354 657.151,-818.695 686,-789 726.97,-746.828 732.232,-548.426 732.903,-502.505"/>
<polygon fill="#9a32cd" stroke="#9a32cd" points="572.346,-823.404 562.339,-826.884 572.332,-830.404 572.346,-823.404"/>
<text text-anchor="middle" x="641" y="-828" font-family="Arial" font-size="10.00"> gui</text>
</g>
<!-- Node26 -->
<g id="node26" class="node"><title>Node26</title>
<g id="a_node26"><a xlink:href="classid_user_interface.html" target="_top" xlink:title="idUserInterface">
<polygon fill="white" stroke="black" points="250.5,-812.5 250.5,-831.5 331.5,-831.5 331.5,-812.5 250.5,-812.5"/>
<text text-anchor="middle" x="291" y="-819.5" font-family="Arial" font-size="10.00">idUserInterface</text>
</a>
</g>
</g>
<!-- Node26&#45;&gt;Node25 -->
<g id="edge34" class="edge"><title>Node26&#45;&gt;Node25</title>
<path fill="none" stroke="midnightblue" d="M341.937,-822C376.672,-822 422.842,-822 457.841,-822"/>
<polygon fill="midnightblue" stroke="midnightblue" points="341.549,-818.5 331.549,-822 341.549,-825.5 341.549,-818.5"/>
</g>
<!-- Node27&#45;&gt;Node4 -->
<g id="edge35" class="edge"><title>Node27&#45;&gt;Node4</title>
<path fill="none" stroke="#9a32cd" stroke-dasharray="5,2" d="M422.247,-755.559C422.849,-755.053 423.434,-754.534 424,-754 436.152,-742.535 428.05,-730.194 442,-721 532.949,-661.059 604.088,-769.799 686,-698 716.136,-671.585 729.146,-539.757 732.244,-502.703"/>
<polygon fill="#9a32cd" stroke="#9a32cd" points="419.997,-752.856 413.69,-761.368 423.929,-758.647 419.997,-752.856"/>
<text text-anchor="middle" x="510" y="-757" font-family="Arial" font-size="10.00"> noTime</text>
<text text-anchor="middle" x="510" y="-746" font-family="Arial" font-size="10.00">hideCursor</text>
<text text-anchor="middle" x="510" y="-735" font-family="Arial" font-size="10.00">noEvents</text>
<text text-anchor="middle" x="510" y="-724" font-family="Arial" font-size="10.00">visible</text>
</g>
<!-- Node28 -->
<g id="node28" class="node"><title>Node28</title>
<g id="a_node28"><a xlink:href="classid_vec2.html" target="_top" xlink:title="idVec2">
<polygon fill="white" stroke="black" points="486.5,-850.5 486.5,-869.5 533.5,-869.5 533.5,-850.5 486.5,-850.5"/>
<text text-anchor="middle" x="510" y="-857.5" font-family="Arial" font-size="10.00">idVec2</text>
</a>
</g>
</g>
<!-- Node28&#45;&gt;Node4 -->
<g id="edge37" class="edge"><title>Node28&#45;&gt;Node4</title>
<path fill="none" stroke="#9a32cd" stroke-dasharray="5,2" d="M543.619,-866.496C583.05,-872.27 648.74,-874.877 686,-838 734.979,-789.524 733.995,-553.738 733.194,-502.739"/>
<polygon fill="#9a32cd" stroke="#9a32cd" points="544.146,-863.036 533.716,-864.899 543.031,-869.947 544.146,-863.036"/>
<text text-anchor="middle" x="641" y="-883" font-family="Arial" font-size="10.00"> origin</text>
<text text-anchor="middle" x="641" y="-872" font-family="Arial" font-size="10.00">shear</text>
</g>
<!-- Node29 -->
<g id="node29" class="node"><title>Node29</title>
<g id="a_node29"><a xlink:href="classid_list.html" target="_top" xlink:title="idList\&lt; drawWin_t \&gt;">
<polygon fill="white" stroke="black" points="458,-417.5 458,-436.5 562,-436.5 562,-417.5 458,-417.5"/>
<text text-anchor="middle" x="510" y="-424.5" font-family="Arial" font-size="10.00">idList&lt; drawWin_t &gt;</text>
</a>
</g>
</g>
<!-- Node29&#45;&gt;Node4 -->
<g id="edge38" class="edge"><title>Node29&#45;&gt;Node4</title>
<path fill="none" stroke="#9a32cd" stroke-dasharray="5,2" d="M571.994,-432.069C606.494,-436.499 649.833,-444.74 686,-460 699.595,-465.736 713.18,-475.87 722.222,-483.399"/>
<polygon fill="#9a32cd" stroke="#9a32cd" points="572.4,-428.593 562.051,-430.866 571.558,-435.542 572.4,-428.593"/>
<text text-anchor="middle" x="641" y="-463" font-family="Arial" font-size="10.00"> drawWindows</text>
</g>
<!-- Node30 -->
<g id="node30" class="node"><title>Node30</title>
<g id="a_node30"><a xlink:href="classid_list.html" target="_top" xlink:title="idList\&lt; idTransitionData \&gt;">
<polygon fill="white" stroke="black" points="446,-774.5 446,-793.5 574,-793.5 574,-774.5 446,-774.5"/>
<text text-anchor="middle" x="510" y="-781.5" font-family="Arial" font-size="10.00">idList&lt; idTransitionData &gt;</text>
</a>
</g>
</g>
<!-- Node30&#45;&gt;Node4 -->
<g id="edge40" class="edge"><title>Node30&#45;&gt;Node4</title>
<path fill="none" stroke="#9a32cd" stroke-dasharray="5,2" d="M584.147,-776.83C619.745,-769.561 660.296,-755.018 686,-726 716.303,-691.789 729.353,-542.348 732.32,-502.691"/>
<polygon fill="#9a32cd" stroke="#9a32cd" points="583.434,-773.403 574.254,-778.694 584.729,-780.282 583.434,-773.403"/>
<text text-anchor="middle" x="641" y="-777" font-family="Arial" font-size="10.00"> transitions</text>
</g>
<!-- Node31 -->
<g id="node31" class="node"><title>Node31</title>
<g id="a_node31"><a xlink:href="classid_c_var.html" target="_top" xlink:title="idCVar">
<polygon fill="white" stroke="black" points="487,-540.5 487,-559.5 533,-559.5 533,-540.5 487,-540.5"/>
<text text-anchor="middle" x="510" y="-547.5" font-family="Arial" font-size="10.00">idCVar</text>
</a>
</g>
</g>
<!-- Node31&#45;&gt;Node4 -->
<g id="edge41" class="edge"><title>Node31&#45;&gt;Node4</title>
<path fill="none" stroke="#9a32cd" stroke-dasharray="5,2" d="M543.464,-549.717C579.455,-548.422 638.673,-543.347 686,-525 699.438,-519.791 712.835,-510.115 721.868,-502.762"/>
<polygon fill="#9a32cd" stroke="#9a32cd" points="542.977,-546.229 533.079,-550.007 543.173,-553.226 542.977,-546.229"/>
<text text-anchor="middle" x="641" y="-559" font-family="Arial" font-size="10.00"> gui_debug</text>
<text text-anchor="middle" x="641" y="-548" font-family="Arial" font-size="10.00">gui_edit</text>
</g>
<!-- Node31&#45;&gt;Node31 -->
<g id="edge43" class="edge"><title>Node31&#45;&gt;Node31</title>
<path fill="none" stroke="#9a32cd" stroke-dasharray="5,2" d="M487.307,-569.029C488.544,-574.128 496.109,-578 510,-578 531.684,-578 537.952,-568.565 528.804,-559.757"/>
<polygon fill="#9a32cd" stroke="#9a32cd" points="490.555,-570.332 491.196,-559.757 484.1,-567.625 490.555,-570.332"/>
<text text-anchor="middle" x="510" y="-592" font-family="Arial" font-size="10.00"> next</text>
<text text-anchor="middle" x="510" y="-581" font-family="Arial" font-size="10.00">internalVar</text>
</g>
<!-- Node32 -->
<g id="node32" class="node"><title>Node32</title>
<g id="a_node32"><a xlink:href="classid_cmd_args.html" target="_top" xlink:title="idCmdArgs">
<polygon fill="white" stroke="black" points="258.5,-540.5 258.5,-559.5 323.5,-559.5 323.5,-540.5 258.5,-540.5"/>
<text text-anchor="middle" x="291" y="-547.5" font-family="Arial" font-size="10.00">idCmdArgs</text>
</a>
</g>
</g>
<!-- Node32&#45;&gt;Node31 -->
<g id="edge42" class="edge"><title>Node32&#45;&gt;Node31</title>
<path fill="none" stroke="#9a32cd" stroke-dasharray="5,2" d="M333.742,-550C379.48,-550 451.108,-550 486.979,-550"/>
<polygon fill="#9a32cd" stroke="#9a32cd" points="333.554,-546.5 323.554,-550 333.554,-553.5 333.554,-546.5"/>
<text text-anchor="middle" x="387" y="-553" font-family="Arial" font-size="10.00"> valueCompletion</text>
</g>
<!-- Node33 -->
<g id="node33" class="node"><title>Node33</title>
<g id="a_node33"><a xlink:href="structid_reg_entry.html" target="_top" xlink:title="idRegEntry">
<polygon fill="white" stroke="black" points="477.5,-332.5 477.5,-351.5 542.5,-351.5 542.5,-332.5 477.5,-332.5"/>
<text text-anchor="middle" x="510" y="-339.5" font-family="Arial" font-size="10.00">idRegEntry</text>
</a>
</g>
</g>
<!-- Node33&#45;&gt;Node4 -->
<g id="edge44" class="edge"><title>Node33&#45;&gt;Node4</title>
<path fill="none" stroke="#9a32cd" stroke-dasharray="5,2" d="M552.915,-335.532C591.601,-331.99 648.56,-333.237 686,-363 724.512,-393.615 731.483,-458.561 732.733,-483.223"/>
<polygon fill="#9a32cd" stroke="#9a32cd" points="552.093,-332.1 542.52,-336.639 552.834,-339.061 552.093,-332.1"/>
<text text-anchor="middle" x="641" y="-366" font-family="Arial" font-size="10.00"> RegisterVars</text>
</g>
<!-- Node34 -->
<g id="node34" class="node"><title>Node34</title>
<g id="a_node34"><a xlink:href="classid_list.html" target="_top" xlink:title="idList\&lt; rvNamedEvent * \&gt;">
<polygon fill="white" stroke="black" points="447,-256.5 447,-275.5 573,-275.5 573,-256.5 447,-256.5"/>
<text text-anchor="middle" x="510" y="-263.5" font-family="Arial" font-size="10.00">idList&lt; rvNamedEvent * &gt;</text>
</a>
</g>
</g>
<!-- Node34&#45;&gt;Node4 -->
<g id="edge46" class="edge"><title>Node34&#45;&gt;Node4</title>
<path fill="none" stroke="#9a32cd" stroke-dasharray="5,2" d="M583.177,-262.925C624.359,-262.756 670.743,-265.77 686,-279 717.684,-306.475 729.656,-445.384 732.367,-483.381"/>
<polygon fill="#9a32cd" stroke="#9a32cd" points="583.08,-259.426 573.116,-263.028 583.152,-266.426 583.08,-259.426"/>
<text text-anchor="middle" x="641" y="-282" font-family="Arial" font-size="10.00"> namedEvents</text>
</g>
<!-- Node35&#45;&gt;Node2 -->
<g id="edge47" class="edge"><title>Node35&#45;&gt;Node2</title>
<path fill="none" stroke="#9a32cd" stroke-dasharray="5,2" d="M918.123,-1068.52C947.627,-974.642 1074.57,-570.724 1095.94,-502.733"/>
<polygon fill="#9a32cd" stroke="#9a32cd" points="914.749,-1067.58 915.09,-1078.17 921.427,-1069.68 914.749,-1067.58"/>
<text text-anchor="middle" x="1015" y="-846" font-family="Arial" font-size="10.00"> mWrapper</text>
</g>
</g>
</svg>
        <g id="navigator" transform="translate(0 0)" fill="#404254">
                <rect fill="#f2f5e9" fill-opacity="0.5" stroke="#606060" stroke-width=".5" x="0" y="0" width="60" height="60"/>
                <use id="zoomplus" xlink:href="#zoomPlus" x="17" y="9" onmousedown="handleZoom(evt,'in')"/>
                <use id="zoomminus" xlink:href="#zoomMin" x="42" y="9" onmousedown="handleZoom(evt,'out')"/>
                <use id="reset" xlink:href="#resetDef" x="30" y="36" onmousedown="handleReset()"/>
                <g id="arrowUp" xlink:href="#dirArrow" transform="translate(30 24)" onmousedown="handlePan(0,-1)">
                  <use xlink:href="#rim" fill="#404040">
                        <set attributeName="fill" to="#808080" begin="arrowUp.mouseover" end="arrowUp.mouseout"/>
                  </use>
                  <path fill="none" stroke="white" stroke-width="1.5" d="M0,-3.0v7 M-2.5,-0.5L0,-3.0L2.5,-0.5"/>
                </g>
                <g id="arrowRight" xlink:href="#dirArrow" transform="rotate(90) translate(36 -43)" onmousedown="handlePan(1,0)">
                  <use xlink:href="#rim" fill="#404040">
                        <set attributeName="fill" to="#808080" begin="arrowRight.mouseover" end="arrowRight.mouseout"/>
                  </use>
                  <path fill="none" stroke="white" stroke-width="1.5" d="M0,-3.0v7 M-2.5,-0.5L0,-3.0L2.5,-0.5"/>
                </g>
                <g id="arrowDown" xlink:href="#dirArrow" transform="rotate(180) translate(-30 -48)" onmousedown="handlePan(0,1)">
                  <use xlink:href="#rim" fill="#404040">
                        <set attributeName="fill" to="#808080" begin="arrowDown.mouseover" end="arrowDown.mouseout"/>
                  </use>
                  <path fill="none" stroke="white" stroke-width="1.5" d="M0,-3.0v7 M-2.5,-0.5L0,-3.0L2.5,-0.5"/>
                </g>
                <g id="arrowLeft" xlink:href="#dirArrow" transform="rotate(270) translate(-36 17)" onmousedown="handlePan(-1,0)">
                  <use xlink:href="#rim" fill="#404040">
                        <set attributeName="fill" to="#808080" begin="arrowLeft.mouseover" end="arrowLeft.mouseout"/>
                  </use>
                  <path fill="none" stroke="white" stroke-width="1.5" d="M0,-3.0v7 M-2.5,-0.5L0,-3.0L2.5,-0.5"/>
                </g>
        </g>
        <svg viewBox="0 0 15 15" width="100%" height="30px" preserveAspectRatio="xMaxYMin meet">
         <g id="arrow_out" transform="scale(0.3 0.3)">
          <a xlink:href="classrv_g_e_insert_modifier__coll__graph_org.svg" target="_base">
           <rect id="button" ry="5" rx="5" y="6" x="6" height="38" width="38"
                fill="#f2f5e9" fill-opacity="0.5" stroke="#606060" stroke-width="1.0"/>
           <path id="arrow"
             d="M 11.500037,31.436501 C 11.940474,20.09759 22.043105,11.32322 32.158766,21.979434 L 37.068811,17.246167 C 37.068811,17.246167 37.088388,32 37.088388,32 L 22.160133,31.978069 C 22.160133,31.978069 26.997745,27.140456 26.997745,27.140456 C 18.528582,18.264221 13.291696,25.230495 11.500037,31.436501 z"
             style="fill:#404040;"/>
          </a>
         </g>
        </svg>
</svg>
