<?xml version="1.0" encoding="UTF-8" standalone="no"?>
<!DOCTYPE svg PUBLIC "-//W3C//DTD SVG 1.1//EN"
 "http://www.w3.org/Graphics/SVG/1.1/DTD/svg11.dtd">
<!-- Generated by graphviz version 2.34.0 (20130907.0111)
 -->
<!-- Title: idMapPatch Pages: 1 -->
<svg width="340pt" height="242pt"
 viewBox="0.00 0.00 340.00 242.00" xmlns="http://www.w3.org/2000/svg" xmlns:xlink="http://www.w3.org/1999/xlink">
<g id="graph0" class="graph" transform="scale(1 1) rotate(0) translate(4 238)">
<title>idMapPatch</title>
<polygon fill="white" stroke="white" points="-4,4 -4,-238 336,-238 336,4 -4,4"/>
<!-- Node1 -->
<g id="node1" class="node"><title>Node1</title>
<polygon fill="#bfbfbf" stroke="black" points="140,-0.5 140,-19.5 208,-19.5 208,-0.5 140,-0.5"/>
<text text-anchor="middle" x="174" y="-7.5" font-family="Arial" font-size="10.00">idMapPatch</text>
</g>
<!-- Node2 -->
<g id="node2" class="node"><title>Node2</title>
<g id="a_node2"><a xlink:href="classid_map_primitive.html" target="_top" xlink:title="idMapPrimitive">
<polygon fill="white" stroke="black" points="32,-68.5 32,-87.5 112,-87.5 112,-68.5 32,-68.5"/>
<text text-anchor="middle" x="72" y="-75.5" font-family="Arial" font-size="10.00">idMapPrimitive</text>
</a>
</g>
</g>
<!-- Node2&#45;&gt;Node1 -->
<g id="edge1" class="edge"><title>Node2&#45;&gt;Node1</title>
<path fill="none" stroke="midnightblue" d="M93.928,-62.8113C114.212,-49.6863 143.708,-30.6004 160.662,-19.6305"/>
<polygon fill="midnightblue" stroke="midnightblue" points="91.829,-60.0006 85.3347,-68.3717 95.6318,-65.8776 91.829,-60.0006"/>
</g>
<!-- Node3 -->
<g id="node3" class="node"><title>Node3</title>
<g id="a_node3"><a xlink:href="classid_dict.html" target="_top" xlink:title="idDict">
<polygon fill="white" stroke="black" points="51.5,-136.5 51.5,-155.5 92.5,-155.5 92.5,-136.5 51.5,-136.5"/>
<text text-anchor="middle" x="72" y="-143.5" font-family="Arial" font-size="10.00">idDict</text>
</a>
</g>
</g>
<!-- Node3&#45;&gt;Node2 -->
<g id="edge2" class="edge"><title>Node3&#45;&gt;Node2</title>
<path fill="none" stroke="#9a32cd" stroke-dasharray="5,2" d="M72,-126.041C72,-113.472 72,-97.5631 72,-87.8411"/>
<polygon fill="#9a32cd" stroke="#9a32cd" points="68.5001,-126.372 72,-136.372 75.5001,-126.372 68.5001,-126.372"/>
<text text-anchor="middle" x="87" y="-109.5" font-family="Arial" font-size="10.00"> epairs</text>
</g>
<!-- Node4 -->
<g id="node4" class="node"><title>Node4</title>
<g id="a_node4"><a xlink:href="classid_surface___patch.html" target="_top" xlink:title="idSurface_Patch">
<polygon fill="white" stroke="black" points="130,-68.5 130,-87.5 218,-87.5 218,-68.5 130,-68.5"/>
<text text-anchor="middle" x="174" y="-75.5" font-family="Arial" font-size="10.00">idSurface_Patch</text>
</a>
</g>
</g>
<!-- Node4&#45;&gt;Node1 -->
<g id="edge3" class="edge"><title>Node4&#45;&gt;Node1</title>
<path fill="none" stroke="midnightblue" d="M174,-58.0413C174,-45.4724 174,-29.5631 174,-19.8411"/>
<polygon fill="midnightblue" stroke="midnightblue" points="170.5,-58.3716 174,-68.3717 177.5,-58.3717 170.5,-58.3716"/>
</g>
<!-- Node5 -->
<g id="node5" class="node"><title>Node5</title>
<g id="a_node5"><a xlink:href="classid_surface.html" target="_top" xlink:title="idSurface">
<polygon fill="white" stroke="black" points="145.5,-136.5 145.5,-155.5 202.5,-155.5 202.5,-136.5 145.5,-136.5"/>
<text text-anchor="middle" x="174" y="-143.5" font-family="Arial" font-size="10.00">idSurface</text>
</a>
</g>
</g>
<!-- Node5&#45;&gt;Node4 -->
<g id="edge4" class="edge"><title>Node5&#45;&gt;Node4</title>
<path fill="none" stroke="midnightblue" d="M174,-126.041C174,-113.472 174,-97.5631 174,-87.8411"/>
<polygon fill="midnightblue" stroke="midnightblue" points="170.5,-126.372 174,-136.372 177.5,-126.372 170.5,-126.372"/>
</g>
<!-- Node6 -->
<g id="node6" class="node"><title>Node6</title>
<g id="a_node6"><a xlink:href="classid_list.html" target="_top" xlink:title="idList\&lt; surfaceEdge_s \&gt;">
<polygon fill="white" stroke="black" points="0,-214.5 0,-233.5 122,-233.5 122,-214.5 0,-214.5"/>
<text text-anchor="middle" x="61" y="-221.5" font-family="Arial" font-size="10.00">idList&lt; surfaceEdge_s &gt;</text>
</a>
</g>
</g>
<!-- Node6&#45;&gt;Node5 -->
<g id="edge5" class="edge"><title>Node6&#45;&gt;Node5</title>
<path fill="none" stroke="#9a32cd" stroke-dasharray="5,2" d="M82.4586,-208.568C105.707,-192.931 142.036,-168.498 161.189,-155.616"/>
<polygon fill="#9a32cd" stroke="#9a32cd" points="80.3071,-205.797 73.9625,-214.282 84.2137,-211.605 80.3071,-205.797"/>
<text text-anchor="middle" x="146" y="-182.5" font-family="Arial" font-size="10.00"> edges</text>
</g>
<!-- Node7 -->
<g id="node7" class="node"><title>Node7</title>
<g id="a_node7"><a xlink:href="classid_list.html" target="_top" xlink:title="idList\&lt; int \&gt;">
<polygon fill="white" stroke="black" points="140,-214.5 140,-233.5 208,-233.5 208,-214.5 140,-214.5"/>
<text text-anchor="middle" x="174" y="-221.5" font-family="Arial" font-size="10.00">idList&lt; int &gt;</text>
</a>
</g>
</g>
<!-- Node7&#45;&gt;Node5 -->
<g id="edge6" class="edge"><title>Node7&#45;&gt;Node5</title>
<path fill="none" stroke="#9a32cd" stroke-dasharray="5,2" d="M174,-204.224C174,-188.697 174,-167.358 174,-155.616"/>
<polygon fill="#9a32cd" stroke="#9a32cd" points="170.5,-204.282 174,-214.282 177.5,-204.282 170.5,-204.282"/>
<text text-anchor="middle" x="201.5" y="-188" font-family="Arial" font-size="10.00"> indexes</text>
<text text-anchor="middle" x="201.5" y="-177" font-family="Arial" font-size="10.00">edgeIndexes</text>
</g>
<!-- Node8 -->
<g id="node8" class="node"><title>Node8</title>
<g id="a_node8"><a xlink:href="classid_list.html" target="_top" xlink:title="idList\&lt; idDrawVert \&gt;">
<polygon fill="white" stroke="black" points="226.5,-214.5 226.5,-233.5 331.5,-233.5 331.5,-214.5 226.5,-214.5"/>
<text text-anchor="middle" x="279" y="-221.5" font-family="Arial" font-size="10.00">idList&lt; idDrawVert &gt;</text>
</a>
</g>
</g>
<!-- Node8&#45;&gt;Node5 -->
<g id="edge7" class="edge"><title>Node8&#45;&gt;Node5</title>
<path fill="none" stroke="#9a32cd" stroke-dasharray="5,2" d="M266.339,-206.524C257.773,-196.194 245.733,-183.149 233,-174 222.388,-166.375 209.28,-160.116 198.115,-155.552"/>
<polygon fill="#9a32cd" stroke="#9a32cd" points="263.675,-208.797 272.656,-214.418 269.14,-204.423 263.675,-208.797"/>
<text text-anchor="middle" x="269" y="-182.5" font-family="Arial" font-size="10.00"> verts</text>
</g>
<!-- Node9 -->
<g id="node9" class="node"><title>Node9</title>
<g id="a_node9"><a xlink:href="classid_str.html" target="_top" xlink:title="idStr">
<polygon fill="white" stroke="black" points="236.5,-68.5 236.5,-87.5 273.5,-87.5 273.5,-68.5 236.5,-68.5"/>
<text text-anchor="middle" x="255" y="-75.5" font-family="Arial" font-size="10.00">idStr</text>
</a>
</g>
</g>
<!-- Node9&#45;&gt;Node1 -->
<g id="edge8" class="edge"><title>Node9&#45;&gt;Node1</title>
<path fill="none" stroke="#9a32cd" stroke-dasharray="5,2" d="M236.265,-61.7343C220.22,-48.6606 197.691,-30.3039 184.592,-19.6305"/>
<polygon fill="#9a32cd" stroke="#9a32cd" points="234.447,-64.7682 244.411,-68.3717 238.869,-59.3416 234.447,-64.7682"/>
<text text-anchor="middle" x="241" y="-41.5" font-family="Arial" font-size="10.00"> material</text>
</g>
</g>
</svg>
