<?xml version="1.0" encoding="UTF-8" standalone="no"?>
<!DOCTYPE svg PUBLIC "-//W3C//DTD SVG 1.1//EN"
 "http://www.w3.org/Graphics/SVG/1.1/DTD/svg11.dtd">
<!-- Generated by graphviz version 2.34.0 (20130907.0111)
 -->
<!-- Title: idSoundWorldLocal Pages: 1 -->
<svg width="882pt" height="556pt"
 viewBox="0.00 0.00 882.00 556.00" xmlns="http://www.w3.org/2000/svg" xmlns:xlink="http://www.w3.org/1999/xlink">
<g id="graph0" class="graph" transform="scale(1 1) rotate(0) translate(4 552)">
<title>idSoundWorldLocal</title>
<polygon fill="white" stroke="white" points="-4,4 -4,-552 878,-552 878,4 -4,4"/>
<!-- Node1 -->
<g id="node1" class="node"><title>Node1</title>
<polygon fill="#bfbfbf" stroke="black" points="564.5,-309.5 564.5,-328.5 665.5,-328.5 665.5,-309.5 564.5,-309.5"/>
<text text-anchor="middle" x="615" y="-316.5" font-family="Arial" font-size="10.00">idSoundWorldLocal</text>
</g>
<!-- Node6 -->
<g id="node6" class="node"><title>Node6</title>
<g id="a_node6"><a xlink:href="classid_sound_emitter_local.html" target="_top" xlink:title="idSoundEmitterLocal">
<polygon fill="white" stroke="black" points="766.5,-275.5 766.5,-294.5 873.5,-294.5 873.5,-275.5 766.5,-275.5"/>
<text text-anchor="middle" x="820" y="-282.5" font-family="Arial" font-size="10.00">idSoundEmitterLocal</text>
</a>
</g>
</g>
<!-- Node1&#45;&gt;Node6 -->
<g id="edge7" class="edge"><title>Node1&#45;&gt;Node6</title>
<path fill="none" stroke="#9a32cd" stroke-dasharray="5,2" d="M675.673,-309.084C698.324,-305.312 724.356,-300.968 748,-297 753.918,-296.007 760.113,-294.964 766.272,-293.925"/>
<polygon fill="#9a32cd" stroke="#9a32cd" points="674.813,-305.679 665.523,-310.774 675.962,-312.584 674.813,-305.679"/>
<text text-anchor="middle" x="716" y="-310" font-family="Arial" font-size="10.00"> soundWorld</text>
</g>
<!-- Node2 -->
<g id="node2" class="node"><title>Node2</title>
<g id="a_node2"><a xlink:href="classid_sound_world.html" target="_top" xlink:title="idSoundWorld">
<polygon fill="white" stroke="black" points="335.5,-309.5 335.5,-328.5 412.5,-328.5 412.5,-309.5 335.5,-309.5"/>
<text text-anchor="middle" x="374" y="-316.5" font-family="Arial" font-size="10.00">idSoundWorld</text>
</a>
</g>
</g>
<!-- Node2&#45;&gt;Node1 -->
<g id="edge1" class="edge"><title>Node2&#45;&gt;Node1</title>
<path fill="none" stroke="midnightblue" d="M422.618,-319C463.603,-319 522.539,-319 564.157,-319"/>
<polygon fill="midnightblue" stroke="midnightblue" points="422.607,-315.5 412.607,-319 422.607,-322.5 422.607,-315.5"/>
</g>
<!-- Node3 -->
<g id="node3" class="node"><title>Node3</title>
<g id="a_node3"><a xlink:href="classid_sound_fade.html" target="_top" xlink:title="idSoundFade">
<polygon fill="white" stroke="black" points="337,-164.5 337,-183.5 411,-183.5 411,-164.5 337,-164.5"/>
<text text-anchor="middle" x="374" y="-171.5" font-family="Arial" font-size="10.00">idSoundFade</text>
</a>
</g>
</g>
<!-- Node3&#45;&gt;Node1 -->
<g id="edge2" class="edge"><title>Node3&#45;&gt;Node1</title>
<path fill="none" stroke="#9a32cd" stroke-dasharray="5,2" d="M421.474,-170.195C458.314,-169.516 509.494,-174.014 546,-199 586.114,-226.456 605.368,-285.824 611.621,-309.23"/>
<polygon fill="#9a32cd" stroke="#9a32cd" points="420.893,-166.712 411.011,-170.533 421.119,-173.708 420.893,-166.712"/>
<text text-anchor="middle" x="508" y="-202" font-family="Arial" font-size="10.00"> soundClassFade</text>
</g>
<!-- Node9 -->
<g id="node9" class="node"><title>Node9</title>
<g id="a_node9"><a xlink:href="classid_sound_channel.html" target="_top" xlink:title="idSoundChannel">
<polygon fill="white" stroke="black" points="571.5,-122.5 571.5,-141.5 658.5,-141.5 658.5,-122.5 571.5,-122.5"/>
<text text-anchor="middle" x="615" y="-129.5" font-family="Arial" font-size="10.00">idSoundChannel</text>
</a>
</g>
</g>
<!-- Node3&#45;&gt;Node9 -->
<g id="edge13" class="edge"><title>Node3&#45;&gt;Node9</title>
<path fill="none" stroke="#9a32cd" stroke-dasharray="5,2" d="M421.247,-165.899C455.655,-159.869 503.764,-151.432 546,-144 554.147,-142.567 562.842,-141.034 571.198,-139.56"/>
<polygon fill="#9a32cd" stroke="#9a32cd" points="420.277,-162.516 411.031,-167.69 421.485,-169.411 420.277,-162.516"/>
<text text-anchor="middle" x="508" y="-160" font-family="Arial" font-size="10.00"> channelFade</text>
</g>
<!-- Node4 -->
<g id="node4" class="node"><title>Node4</title>
<g id="a_node4"><a xlink:href="classid_str.html" target="_top" xlink:title="idStr">
<polygon fill="white" stroke="black" points="152.5,-220.5 152.5,-239.5 189.5,-239.5 189.5,-220.5 152.5,-220.5"/>
<text text-anchor="middle" x="171" y="-227.5" font-family="Arial" font-size="10.00">idStr</text>
</a>
</g>
</g>
<!-- Node4&#45;&gt;Node1 -->
<g id="edge3" class="edge"><title>Node4&#45;&gt;Node1</title>
<path fill="none" stroke="#9a32cd" stroke-dasharray="5,2" d="M199.695,-232.005C250.291,-236.032 360.853,-246.523 452,-267 501.57,-278.136 557.66,-297.782 589.132,-309.475"/>
<polygon fill="#9a32cd" stroke="#9a32cd" points="199.797,-228.502 189.557,-231.221 199.258,-235.481 199.797,-228.502"/>
<text text-anchor="middle" x="374" y="-292" font-family="Arial" font-size="10.00"> aviDemoName</text>
<text text-anchor="middle" x="374" y="-281" font-family="Arial" font-size="10.00">aviDemoPath</text>
<text text-anchor="middle" x="374" y="-270" font-family="Arial" font-size="10.00">listenerAreaName</text>
</g>
<!-- Node10 -->
<g id="node10" class="node"><title>Node10</title>
<g id="a_node10"><a xlink:href="classid_sound_sample.html" target="_top" xlink:title="idSoundSample">
<polygon fill="white" stroke="black" points="331.5,-126.5 331.5,-145.5 416.5,-145.5 416.5,-126.5 331.5,-126.5"/>
<text text-anchor="middle" x="374" y="-133.5" font-family="Arial" font-size="10.00">idSoundSample</text>
</a>
</g>
</g>
<!-- Node4&#45;&gt;Node10 -->
<g id="edge11" class="edge"><title>Node4&#45;&gt;Node10</title>
<path fill="none" stroke="#9a32cd" stroke-dasharray="5,2" d="M193.359,-214.311C217.259,-197.435 257.667,-170.889 296,-155 307.066,-150.413 319.504,-146.749 331.103,-143.911"/>
<polygon fill="#9a32cd" stroke="#9a32cd" points="191.14,-211.595 185.047,-220.263 195.215,-217.287 191.14,-211.595"/>
<text text-anchor="middle" x="255" y="-191" font-family="Arial" font-size="10.00"> name</text>
</g>
<!-- Node5 -->
<g id="node5" class="node"><title>Node5</title>
<g id="a_node5"><a xlink:href="classid_mat3.html" target="_top" xlink:title="idMat3">
<polygon fill="white" stroke="black" points="351,-202.5 351,-221.5 397,-221.5 397,-202.5 351,-202.5"/>
<text text-anchor="middle" x="374" y="-209.5" font-family="Arial" font-size="10.00">idMat3</text>
</a>
</g>
</g>
<!-- Node5&#45;&gt;Node1 -->
<g id="edge4" class="edge"><title>Node5&#45;&gt;Node1</title>
<path fill="none" stroke="#9a32cd" stroke-dasharray="5,2" d="M407.573,-209.493C443.731,-208.205 502.692,-210.662 546,-235 577.569,-252.741 600.187,-291.475 609.408,-309.465"/>
<polygon fill="#9a32cd" stroke="#9a32cd" points="406.948,-206.019 397.127,-209.993 407.282,-213.011 406.948,-206.019"/>
<text text-anchor="middle" x="508" y="-238" font-family="Arial" font-size="10.00"> listenerAxis</text>
</g>
<!-- Node6&#45;&gt;Node1 -->
<g id="edge5" class="edge"><title>Node6&#45;&gt;Node1</title>
<path fill="none" stroke="#9a32cd" stroke-dasharray="5,2" d="M756.434,-279.742C733.398,-279.297 707.261,-280.563 684,-286 664.45,-290.57 643.979,-301.464 630.671,-309.492"/>
<polygon fill="#9a32cd" stroke="#9a32cd" points="756.336,-283.241 766.438,-280.044 756.548,-276.244 756.336,-283.241"/>
<text text-anchor="middle" x="716" y="-289" font-family="Arial" font-size="10.00"> localSound</text>
</g>
<!-- Node7 -->
<g id="node7" class="node"><title>Node7</title>
<g id="a_node7"><a xlink:href="classid_sound_emitter.html" target="_top" xlink:title="idSoundEmitter">
<polygon fill="white" stroke="black" points="573.5,-347.5 573.5,-366.5 656.5,-366.5 656.5,-347.5 573.5,-347.5"/>
<text text-anchor="middle" x="615" y="-354.5" font-family="Arial" font-size="10.00">idSoundEmitter</text>
</a>
</g>
</g>
<!-- Node7&#45;&gt;Node6 -->
<g id="edge6" class="edge"><title>Node7&#45;&gt;Node6</title>
<path fill="none" stroke="midnightblue" d="M666.567,-346.366C691.499,-340.428 721.771,-332.167 748,-322 767.699,-314.364 789.036,-302.752 803.121,-294.577"/>
<polygon fill="midnightblue" stroke="midnightblue" points="665.537,-343.012 656.59,-348.687 667.123,-349.83 665.537,-343.012"/>
</g>
<!-- Node8 -->
<g id="node8" class="node"><title>Node8</title>
<g id="a_node8"><a xlink:href="structsound_shader_parms__t.html" target="_top" xlink:title="soundShaderParms_t">
<polygon fill="white" stroke="black" points="319,-0.5 319,-19.5 429,-19.5 429,-0.5 319,-0.5"/>
<text text-anchor="middle" x="374" y="-7.5" font-family="Arial" font-size="10.00">soundShaderParms_t</text>
</a>
</g>
</g>
<!-- Node8&#45;&gt;Node6 -->
<g id="edge8" class="edge"><title>Node8&#45;&gt;Node6</title>
<path fill="none" stroke="#9a32cd" stroke-dasharray="5,2" d="M439.361,-4.78411C471.698,-3.66502 511.285,-4.58984 546,-12 645.154,-33.1652 683.056,-40.143 748,-118 790.177,-168.563 810.81,-247.875 816.964,-275.293"/>
<polygon fill="#9a32cd" stroke="#9a32cd" points="438.977,-1.29707 429.132,-5.21364 439.27,-8.29091 438.977,-1.29707"/>
<text text-anchor="middle" x="615" y="-50" font-family="Arial" font-size="10.00"> parms</text>
</g>
<!-- Node8&#45;&gt;Node9 -->
<g id="edge14" class="edge"><title>Node8&#45;&gt;Node9</title>
<path fill="none" stroke="#9a32cd" stroke-dasharray="5,2" d="M439.396,-10.2816C475.056,-13.7983 517.751,-24.0545 546,-51 566.763,-70.8045 544.545,-91.9098 564,-113 567.589,-116.891 572.059,-119.991 576.839,-122.459"/>
<polygon fill="#9a32cd" stroke="#9a32cd" points="439.316,-6.76313 429.062,-9.42756 438.739,-13.7393 439.316,-6.76313"/>
<text text-anchor="middle" x="508" y="-54" font-family="Arial" font-size="10.00"> parms</text>
</g>
<!-- Node9&#45;&gt;Node6 -->
<g id="edge9" class="edge"><title>Node9&#45;&gt;Node6</title>
<path fill="none" stroke="#9a32cd" stroke-dasharray="5,2" d="M636.824,-147.695C678.759,-179.301 772.277,-249.785 806.306,-275.433"/>
<polygon fill="#9a32cd" stroke="#9a32cd" points="638.791,-144.795 628.699,-141.571 634.578,-150.385 638.791,-144.795"/>
<text text-anchor="middle" x="716" y="-234" font-family="Arial" font-size="10.00"> channels</text>
</g>
<!-- Node10&#45;&gt;Node9 -->
<g id="edge10" class="edge"><title>Node10&#45;&gt;Node9</title>
<path fill="none" stroke="#9a32cd" stroke-dasharray="5,2" d="M426.617,-134.139C440.686,-133.694 455.928,-133.271 470,-133 504.119,-132.343 542.794,-132.102 571.465,-132.021"/>
<polygon fill="#9a32cd" stroke="#9a32cd" points="426.494,-130.641 416.613,-134.464 426.722,-137.637 426.494,-130.641"/>
<text text-anchor="middle" x="508" y="-136" font-family="Arial" font-size="10.00"> leadinSample</text>
</g>
<!-- Node11 -->
<g id="node11" class="node"><title>Node11</title>
<g id="a_node11"><a xlink:href="structwaveformatex__s.html" target="_top" xlink:title="waveformatex_s">
<polygon fill="white" stroke="black" points="128,-126.5 128,-145.5 214,-145.5 214,-126.5 128,-126.5"/>
<text text-anchor="middle" x="171" y="-133.5" font-family="Arial" font-size="10.00">waveformatex_s</text>
</a>
</g>
</g>
<!-- Node11&#45;&gt;Node10 -->
<g id="edge12" class="edge"><title>Node11&#45;&gt;Node10</title>
<path fill="none" stroke="#9a32cd" stroke-dasharray="5,2" d="M224.162,-136C257.507,-136 300.17,-136 331.264,-136"/>
<polygon fill="#9a32cd" stroke="#9a32cd" points="224.136,-132.5 214.136,-136 224.136,-139.5 224.136,-132.5"/>
<text text-anchor="middle" x="255" y="-139" font-family="Arial" font-size="10.00"> objectInfo</text>
</g>
<!-- Node12 -->
<g id="node12" class="node"><title>Node12</title>
<g id="a_node12"><a xlink:href="classid_sound_shader.html" target="_top" xlink:title="idSoundShader">
<polygon fill="white" stroke="black" points="332.5,-50.5 332.5,-69.5 415.5,-69.5 415.5,-50.5 332.5,-50.5"/>
<text text-anchor="middle" x="374" y="-57.5" font-family="Arial" font-size="10.00">idSoundShader</text>
</a>
</g>
</g>
<!-- Node12&#45;&gt;Node9 -->
<g id="edge15" class="edge"><title>Node12&#45;&gt;Node9</title>
<path fill="none" stroke="#9a32cd" stroke-dasharray="5,2" d="M425.966,-60.1165C461.761,-62.2873 509.56,-69.5409 546,-91 556.886,-97.4106 553.748,-105.617 564,-113 569.2,-116.744 575.229,-119.851 581.262,-122.391"/>
<polygon fill="#9a32cd" stroke="#9a32cd" points="425.899,-56.609 415.739,-59.6134 425.555,-63.6006 425.899,-56.609"/>
<text text-anchor="middle" x="508" y="-94" font-family="Arial" font-size="10.00"> soundShader</text>
</g>
<!-- Node13 -->
<g id="node13" class="node"><title>Node13</title>
<g id="a_node13"><a xlink:href="classid_decl.html" target="_top" xlink:title="idDecl">
<polygon fill="white" stroke="black" points="149,-50.5 149,-69.5 193,-69.5 193,-50.5 149,-50.5"/>
<text text-anchor="middle" x="171" y="-57.5" font-family="Arial" font-size="10.00">idDecl</text>
</a>
</g>
</g>
<!-- Node13&#45;&gt;Node12 -->
<g id="edge16" class="edge"><title>Node13&#45;&gt;Node12</title>
<path fill="none" stroke="midnightblue" d="M203.181,-60C237.938,-60 294.266,-60 332.43,-60"/>
<polygon fill="midnightblue" stroke="midnightblue" points="203.131,-56.5001 193.131,-60 203.131,-63.5001 203.131,-56.5001"/>
</g>
<!-- Node14 -->
<g id="node14" class="node"><title>Node14</title>
<g id="a_node14"><a xlink:href="classid_decl_base.html" target="_top" xlink:title="idDeclBase">
<polygon fill="white" stroke="black" points="0,-50.5 0,-69.5 66,-69.5 66,-50.5 0,-50.5"/>
<text text-anchor="middle" x="33" y="-57.5" font-family="Arial" font-size="10.00">idDeclBase</text>
</a>
</g>
</g>
<!-- Node14&#45;&gt;Node13 -->
<g id="edge17" class="edge"><title>Node14&#45;&gt;Node13</title>
<path fill="none" stroke="#9a32cd" stroke-dasharray="5,2" d="M76.4907,-60C100.44,-60 129.326,-60 148.596,-60"/>
<polygon fill="#9a32cd" stroke="#9a32cd" points="76.2301,-56.5001 66.2301,-60 76.2301,-63.5001 76.2301,-56.5001"/>
<text text-anchor="middle" x="97" y="-63" font-family="Arial" font-size="10.00"> base</text>
</g>
<!-- Node15 -->
<g id="node15" class="node"><title>Node15</title>
<g id="a_node15"><a xlink:href="classid_sample_decoder.html" target="_top" xlink:title="idSampleDecoder">
<polygon fill="white" stroke="black" points="327.5,-88.5 327.5,-107.5 420.5,-107.5 420.5,-88.5 327.5,-88.5"/>
<text text-anchor="middle" x="374" y="-95.5" font-family="Arial" font-size="10.00">idSampleDecoder</text>
</a>
</g>
</g>
<!-- Node15&#45;&gt;Node9 -->
<g id="edge18" class="edge"><title>Node15&#45;&gt;Node9</title>
<path fill="none" stroke="#9a32cd" stroke-dasharray="5,2" d="M430.618,-102.67C464.16,-105.861 507.675,-110.662 546,-117 555.184,-118.519 564.995,-120.481 574.225,-122.482"/>
<polygon fill="#9a32cd" stroke="#9a32cd" points="430.827,-99.1741 420.545,-101.731 430.177,-106.144 430.827,-99.1741"/>
<text text-anchor="middle" x="508" y="-120" font-family="Arial" font-size="10.00"> decoder</text>
</g>
<!-- Node16 -->
<g id="node16" class="node"><title>Node16</title>
<g id="a_node16"><a xlink:href="classid_slow_channel.html" target="_top" xlink:title="idSlowChannel">
<polygon fill="white" stroke="black" points="575,-84.5 575,-103.5 655,-103.5 655,-84.5 575,-84.5"/>
<text text-anchor="middle" x="615" y="-91.5" font-family="Arial" font-size="10.00">idSlowChannel</text>
</a>
</g>
</g>
<!-- Node16&#45;&gt;Node6 -->
<g id="edge19" class="edge"><title>Node16&#45;&gt;Node6</title>
<path fill="none" stroke="#9a32cd" stroke-dasharray="5,2" d="M654.226,-107.408C658.263,-109.153 662.258,-111.026 666,-113 705.26,-133.704 717.48,-137.775 748,-170 780.108,-203.902 805.201,-254.587 814.783,-275.477"/>
<polygon fill="#9a32cd" stroke="#9a32cd" points="655.405,-104.109 644.823,-103.578 652.765,-110.592 655.405,-104.109"/>
<text text-anchor="middle" x="716" y="-173" font-family="Arial" font-size="10.00"> slowChannels</text>
</g>
<!-- Node17 -->
<g id="node17" class="node"><title>Node17</title>
<g id="a_node17"><a xlink:href="classid_vec3.html" target="_top" xlink:title="idVec3">
<polygon fill="white" stroke="black" points="350.5,-523.5 350.5,-542.5 397.5,-542.5 397.5,-523.5 350.5,-523.5"/>
<text text-anchor="middle" x="374" y="-530.5" font-family="Arial" font-size="10.00">idVec3</text>
</a>
</g>
</g>
<!-- Node17&#45;&gt;Node1 -->
<g id="edge24" class="edge"><title>Node17&#45;&gt;Node1</title>
<path fill="none" stroke="#9a32cd" stroke-dasharray="5,2" d="M407.603,-525.799C455.919,-514.987 541.375,-495.261 546,-490 590.915,-438.908 522.143,-391.626 564,-338 566.971,-334.193 570.798,-331.149 575.011,-328.715"/>
<polygon fill="#9a32cd" stroke="#9a32cd" points="406.613,-522.434 397.614,-528.026 408.136,-529.267 406.613,-522.434"/>
<text text-anchor="middle" x="508" y="-524" font-family="Arial" font-size="10.00"> listenerQU</text>
<text text-anchor="middle" x="508" y="-513" font-family="Arial" font-size="10.00">listenerPos</text>
</g>
<!-- Node17&#45;&gt;Node6 -->
<g id="edge20" class="edge"><title>Node17&#45;&gt;Node6</title>
<path fill="none" stroke="#9a32cd" stroke-dasharray="5,2" d="M407.777,-540.42C443.181,-546.856 500.608,-552.644 546,-535 678.679,-483.428 786.137,-333.942 812.691,-294.588"/>
<polygon fill="#9a32cd" stroke="#9a32cd" points="408.019,-536.902 397.534,-538.427 406.682,-543.773 408.019,-536.902"/>
<text text-anchor="middle" x="615" y="-540" font-family="Arial" font-size="10.00"> origin</text>
<text text-anchor="middle" x="615" y="-529" font-family="Arial" font-size="10.00">spatializedOrigin</text>
</g>
<!-- Node18 -->
<g id="node18" class="node"><title>Node18</title>
<g id="a_node18"><a xlink:href="classid_render_world.html" target="_top" xlink:title="idRenderWorld">
<polygon fill="white" stroke="black" points="334,-423.5 334,-442.5 414,-442.5 414,-423.5 334,-423.5"/>
<text text-anchor="middle" x="374" y="-430.5" font-family="Arial" font-size="10.00">idRenderWorld</text>
</a>
</g>
</g>
<!-- Node18&#45;&gt;Node1 -->
<g id="edge21" class="edge"><title>Node18&#45;&gt;Node1</title>
<path fill="none" stroke="#9a32cd" stroke-dasharray="5,2" d="M424.332,-436.799C462.19,-436.947 513.343,-430.743 546,-401 567.529,-381.391 544.301,-359.446 564,-338 567.581,-334.102 572.046,-330.998 576.824,-328.527"/>
<polygon fill="#9a32cd" stroke="#9a32cd" points="424.098,-433.294 414.033,-436.603 423.965,-440.292 424.098,-433.294"/>
<text text-anchor="middle" x="508" y="-436" font-family="Arial" font-size="10.00"> rw</text>
</g>
<!-- Node19 -->
<g id="node19" class="node"><title>Node19</title>
<g id="a_node19"><a xlink:href="classid_file.html" target="_top" xlink:title="idFile">
<polygon fill="white" stroke="black" points="151,-441.5 151,-460.5 191,-460.5 191,-441.5 151,-441.5"/>
<text text-anchor="middle" x="171" y="-448.5" font-family="Arial" font-size="10.00">idFile</text>
</a>
</g>
</g>
<!-- Node19&#45;&gt;Node1 -->
<g id="edge22" class="edge"><title>Node19&#45;&gt;Node1</title>
<path fill="none" stroke="#9a32cd" stroke-dasharray="5,2" d="M201.184,-462.058C270.697,-486.297 447.582,-535.293 546,-448 583.062,-415.128 532.661,-376.366 564,-338 567.172,-334.116 571.231,-331.026 575.661,-328.566"/>
<polygon fill="#9a32cd" stroke="#9a32cd" points="201.948,-458.614 191.353,-458.542 199.591,-465.205 201.948,-458.614"/>
<text text-anchor="middle" x="374" y="-500" font-family="Arial" font-size="10.00"> fpa</text>
</g>
<!-- Node21 -->
<g id="node21" class="node"><title>Node21</title>
<g id="a_node21"><a xlink:href="classid_demo_file.html" target="_top" xlink:title="idDemoFile">
<polygon fill="white" stroke="black" points="341.5,-385.5 341.5,-404.5 406.5,-404.5 406.5,-385.5 341.5,-385.5"/>
<text text-anchor="middle" x="374" y="-392.5" font-family="Arial" font-size="10.00">idDemoFile</text>
</a>
</g>
</g>
<!-- Node19&#45;&gt;Node21 -->
<g id="edge26" class="edge"><title>Node19&#45;&gt;Node21</title>
<path fill="none" stroke="midnightblue" d="M200.865,-441.959C225.924,-434.212 263.232,-422.926 296,-414 310.879,-409.947 327.477,-405.804 341.442,-402.425"/>
<polygon fill="midnightblue" stroke="midnightblue" points="199.761,-438.637 191.248,-444.944 201.836,-445.322 199.761,-438.637"/>
</g>
<!-- Node20 -->
<g id="node20" class="node"><title>Node20</title>
<g id="a_node20"><a xlink:href="classid_list.html" target="_top" xlink:title="idList\&lt; idSoundEmitterLocal * \&gt;">
<polygon fill="white" stroke="black" points="296.5,-347.5 296.5,-366.5 451.5,-366.5 451.5,-347.5 296.5,-347.5"/>
<text text-anchor="middle" x="374" y="-354.5" font-family="Arial" font-size="10.00">idList&lt; idSoundEmitterLocal * &gt;</text>
</a>
</g>
</g>
<!-- Node20&#45;&gt;Node1 -->
<g id="edge23" class="edge"><title>Node20&#45;&gt;Node1</title>
<path fill="none" stroke="#9a32cd" stroke-dasharray="5,2" d="M460.441,-346.095C487.827,-342.31 518.244,-337.8 546,-333 553.72,-331.665 561.903,-330.105 569.817,-328.521"/>
<polygon fill="#9a32cd" stroke="#9a32cd" points="459.932,-342.632 450.499,-347.457 460.881,-349.568 459.932,-342.632"/>
<text text-anchor="middle" x="508" y="-347" font-family="Arial" font-size="10.00"> emitters</text>
</g>
<!-- Node21&#45;&gt;Node1 -->
<g id="edge25" class="edge"><title>Node21&#45;&gt;Node1</title>
<path fill="none" stroke="#9a32cd" stroke-dasharray="5,2" d="M416.768,-393.666C453.166,-390.838 506.208,-382.574 546,-359 556.576,-352.734 553.943,-345.069 564,-338 569.318,-334.262 575.466,-331.148 581.593,-328.595"/>
<polygon fill="#9a32cd" stroke="#9a32cd" points="416.248,-390.193 406.504,-394.354 416.716,-397.177 416.248,-390.193"/>
<text text-anchor="middle" x="508" y="-389" font-family="Arial" font-size="10.00"> writeDemo</text>
</g>
</g>
</svg>
