<?xml version="1.0" encoding="UTF-8" standalone="no"?>
<!DOCTYPE svg PUBLIC "-//W3C//DTD SVG 1.1//EN"
 "http://www.w3.org/Graphics/SVG/1.1/DTD/svg11.dtd">
<!-- Generated by graphviz version 2.34.0 (20130907.0111)
 -->
<!-- Title: idRegister Pages: 1 -->
<svg width="125pt" height="164pt"
 viewBox="0.00 0.00 125.00 164.00" xmlns="http://www.w3.org/2000/svg" xmlns:xlink="http://www.w3.org/1999/xlink">
<g id="graph0" class="graph" transform="scale(1 1) rotate(0) translate(4 160)">
<title>idRegister</title>
<polygon fill="white" stroke="white" points="-4,4 -4,-160 121,-160 121,4 -4,4"/>
<!-- Node1 -->
<g id="node1" class="node"><title>Node1</title>
<polygon fill="#bfbfbf" stroke="black" points="17,-0.5 17,-19.5 77,-19.5 77,-0.5 17,-0.5"/>
<text text-anchor="middle" x="47" y="-7.5" font-family="Arial" font-size="10.00">idRegister</text>
</g>
<!-- Node2 -->
<g id="node2" class="node"><title>Node2</title>
<g id="a_node2"><a xlink:href="classid_str.html" target="_top" xlink:title="idStr">
<polygon fill="white" stroke="black" points="-0.5,-68.5 -0.5,-87.5 36.5,-87.5 36.5,-68.5 -0.5,-68.5"/>
<text text-anchor="middle" x="18" y="-75.5" font-family="Arial" font-size="10.00">idStr</text>
</a>
</g>
</g>
<!-- Node2&#45;&gt;Node1 -->
<g id="edge1" class="edge"><title>Node2&#45;&gt;Node1</title>
<path fill="none" stroke="#9a32cd" stroke-dasharray="5,2" d="M20.0722,-58.1848C21.2571,-51.5928 23.1099,-44.2738 26,-38 29.0809,-31.3119 34.1042,-24.7682 38.4654,-19.7981"/>
<polygon fill="#9a32cd" stroke="#9a32cd" points="16.5794,-57.8875 18.6433,-68.2794 23.5103,-58.8686 16.5794,-57.8875"/>
<text text-anchor="middle" x="40" y="-41.5" font-family="Arial" font-size="10.00"> name</text>
</g>
<!-- Node3 -->
<g id="node3" class="node"><title>Node3</title>
<g id="a_node3"><a xlink:href="classid_win_var.html" target="_top" xlink:title="idWinVar">
<polygon fill="white" stroke="black" points="55,-68.5 55,-87.5 111,-87.5 111,-68.5 55,-68.5"/>
<text text-anchor="middle" x="83" y="-75.5" font-family="Arial" font-size="10.00">idWinVar</text>
</a>
</g>
</g>
<!-- Node3&#45;&gt;Node1 -->
<g id="edge2" class="edge"><title>Node3&#45;&gt;Node1</title>
<path fill="none" stroke="#9a32cd" stroke-dasharray="5,2" d="M73.4889,-59.563C66.5172,-46.7815 57.3418,-29.9599 51.8224,-19.8411"/>
<polygon fill="#9a32cd" stroke="#9a32cd" points="70.4324,-61.2687 78.2936,-68.3717 76.5777,-57.9167 70.4324,-61.2687"/>
<text text-anchor="middle" x="76" y="-41.5" font-family="Arial" font-size="10.00"> var</text>
</g>
<!-- Node4 -->
<g id="node4" class="node"><title>Node4</title>
<g id="a_node4"><a xlink:href="classid_dict.html" target="_top" xlink:title="idDict">
<polygon fill="white" stroke="black" points="62.5,-136.5 62.5,-155.5 103.5,-155.5 103.5,-136.5 62.5,-136.5"/>
<text text-anchor="middle" x="83" y="-143.5" font-family="Arial" font-size="10.00">idDict</text>
</a>
</g>
</g>
<!-- Node4&#45;&gt;Node3 -->
<g id="edge3" class="edge"><title>Node4&#45;&gt;Node3</title>
<path fill="none" stroke="#9a32cd" stroke-dasharray="5,2" d="M83,-126.041C83,-113.472 83,-97.5631 83,-87.8411"/>
<polygon fill="#9a32cd" stroke="#9a32cd" points="79.5001,-126.372 83,-136.372 86.5001,-126.372 79.5001,-126.372"/>
<text text-anchor="middle" x="100" y="-109.5" font-family="Arial" font-size="10.00"> guiDict</text>
</g>
</g>
</svg>
