<?xml version="1.0" encoding="UTF-8" standalone="no"?>
<!DOCTYPE svg PUBLIC "-//W3C//DTD SVG 1.1//EN"
 "http://www.w3.org/Graphics/SVG/1.1/DTD/svg11.dtd">
<!-- Generated by graphviz version 2.34.0 (20130907.0111)
 -->
<!-- Title: idCameraPosition Pages: 1 -->
<svg width="286pt" height="164pt"
 viewBox="0.00 0.00 286.00 164.00" xmlns="http://www.w3.org/2000/svg" xmlns:xlink="http://www.w3.org/1999/xlink">
<g id="graph0" class="graph" transform="scale(1 1) rotate(0) translate(4 160)">
<title>idCameraPosition</title>
<polygon fill="white" stroke="white" points="-4,4 -4,-160 282,-160 282,4 -4,4"/>
<!-- Node1 -->
<g id="node1" class="node"><title>Node1</title>
<polygon fill="#bfbfbf" stroke="black" points="88.5,-0.5 88.5,-19.5 181.5,-19.5 181.5,-0.5 88.5,-0.5"/>
<text text-anchor="middle" x="135" y="-7.5" font-family="Arial" font-size="10.00">idCameraPosition</text>
</g>
<!-- Node2 -->
<g id="node2" class="node"><title>Node2</title>
<g id="a_node2"><a xlink:href="classid_point_list_interface.html" target="_top" xlink:title="idPointListInterface">
<polygon fill="white" stroke="black" points="-0.5,-68.5 -0.5,-87.5 98.5,-87.5 98.5,-68.5 -0.5,-68.5"/>
<text text-anchor="middle" x="49" y="-75.5" font-family="Arial" font-size="10.00">idPointListInterface</text>
</a>
</g>
</g>
<!-- Node2&#45;&gt;Node1 -->
<g id="edge1" class="edge"><title>Node2&#45;&gt;Node1</title>
<path fill="none" stroke="midnightblue" d="M68.4202,-62.0961C85.4833,-49.0012 109.718,-30.4028 123.754,-19.6305"/>
<polygon fill="midnightblue" stroke="midnightblue" points="66.0452,-59.5068 60.243,-68.3717 70.307,-65.06 66.0452,-59.5068"/>
</g>
<!-- Node3 -->
<g id="node3" class="node"><title>Node3</title>
<g id="a_node3"><a xlink:href="classid_list.html" target="_top" xlink:title="idList\&lt; int \&gt;">
<polygon fill="white" stroke="black" points="15,-136.5 15,-155.5 83,-155.5 83,-136.5 15,-136.5"/>
<text text-anchor="middle" x="49" y="-143.5" font-family="Arial" font-size="10.00">idList&lt; int &gt;</text>
</a>
</g>
</g>
<!-- Node3&#45;&gt;Node2 -->
<g id="edge2" class="edge"><title>Node3&#45;&gt;Node2</title>
<path fill="none" stroke="#9a32cd" stroke-dasharray="5,2" d="M49,-126.041C49,-113.472 49,-97.5631 49,-87.8411"/>
<polygon fill="#9a32cd" stroke="#9a32cd" points="45.5001,-126.372 49,-136.372 52.5001,-126.372 45.5001,-126.372"/>
<text text-anchor="middle" x="83" y="-109.5" font-family="Arial" font-size="10.00"> selectedPoints</text>
</g>
<!-- Node4 -->
<g id="node4" class="node"><title>Node4</title>
<g id="a_node4"><a xlink:href="classid_str.html" target="_top" xlink:title="idStr">
<polygon fill="white" stroke="black" points="116.5,-68.5 116.5,-87.5 153.5,-87.5 153.5,-68.5 116.5,-68.5"/>
<text text-anchor="middle" x="135" y="-75.5" font-family="Arial" font-size="10.00">idStr</text>
</a>
</g>
</g>
<!-- Node4&#45;&gt;Node1 -->
<g id="edge3" class="edge"><title>Node4&#45;&gt;Node1</title>
<path fill="none" stroke="#9a32cd" stroke-dasharray="5,2" d="M135,-58.0413C135,-45.4724 135,-29.5631 135,-19.8411"/>
<polygon fill="#9a32cd" stroke="#9a32cd" points="131.5,-58.3716 135,-68.3717 138.5,-58.3717 131.5,-58.3716"/>
<text text-anchor="middle" x="149" y="-41.5" font-family="Arial" font-size="10.00"> name</text>
</g>
<!-- Node5 -->
<g id="node5" class="node"><title>Node5</title>
<g id="a_node5"><a xlink:href="classid_list.html" target="_top" xlink:title="idList\&lt; idVelocity * \&gt;">
<polygon fill="white" stroke="black" points="171.5,-68.5 171.5,-87.5 278.5,-87.5 278.5,-68.5 171.5,-68.5"/>
<text text-anchor="middle" x="225" y="-75.5" font-family="Arial" font-size="10.00">idList&lt; idVelocity * &gt;</text>
</a>
</g>
</g>
<!-- Node5&#45;&gt;Node1 -->
<g id="edge4" class="edge"><title>Node5&#45;&gt;Node1</title>
<path fill="none" stroke="#9a32cd" stroke-dasharray="5,2" d="M205.166,-62.4551C187.286,-49.3431 161.593,-30.5016 146.769,-19.6305"/>
<polygon fill="#9a32cd" stroke="#9a32cd" points="203.1,-65.2804 213.234,-68.3717 207.24,-59.6356 203.1,-65.2804"/>
<text text-anchor="middle" x="209.5" y="-41.5" font-family="Arial" font-size="10.00"> velocities</text>
</g>
</g>
</svg>
