<?xml version="1.0" encoding="UTF-8" standalone="no"?>
<!DOCTYPE svg PUBLIC "-//W3C//DTD SVG 1.1//EN"
 "http://www.w3.org/Graphics/SVG/1.1/DTD/svg11.dtd">
<!-- Generated by graphviz version 2.34.0 (20130907.0111)
 -->
<!-- Title: idSurface_Polytope Pages: 1 -->
<svg width="339pt" height="164pt"
 viewBox="0.00 0.00 339.00 164.00" xmlns="http://www.w3.org/2000/svg" xmlns:xlink="http://www.w3.org/1999/xlink">
<g id="graph0" class="graph" transform="scale(1 1) rotate(0) translate(4 160)">
<title>idSurface_Polytope</title>
<polygon fill="white" stroke="white" points="-4,4 -4,-160 335,-160 335,4 -4,4"/>
<!-- Node1 -->
<g id="node1" class="node"><title>Node1</title>
<polygon fill="#bfbfbf" stroke="black" points="123.5,-0.5 123.5,-19.5 224.5,-19.5 224.5,-0.5 123.5,-0.5"/>
<text text-anchor="middle" x="174" y="-7.5" font-family="Arial" font-size="10.00">idSurface_Polytope</text>
</g>
<!-- Node2 -->
<g id="node2" class="node"><title>Node2</title>
<g id="a_node2"><a xlink:href="classid_surface.html" target="_top" xlink:title="idSurface">
<polygon fill="white" stroke="black" points="145.5,-58.5 145.5,-77.5 202.5,-77.5 202.5,-58.5 145.5,-58.5"/>
<text text-anchor="middle" x="174" y="-65.5" font-family="Arial" font-size="10.00">idSurface</text>
</a>
</g>
</g>
<!-- Node2&#45;&gt;Node1 -->
<g id="edge1" class="edge"><title>Node2&#45;&gt;Node1</title>
<path fill="none" stroke="midnightblue" d="M174,-47.953C174,-38.2875 174,-27.0312 174,-19.5052"/>
<polygon fill="midnightblue" stroke="midnightblue" points="170.5,-48.25 174,-58.25 177.5,-48.25 170.5,-48.25"/>
</g>
<!-- Node3 -->
<g id="node3" class="node"><title>Node3</title>
<g id="a_node3"><a xlink:href="classid_list.html" target="_top" xlink:title="idList\&lt; surfaceEdge_s \&gt;">
<polygon fill="white" stroke="black" points="0,-136.5 0,-155.5 122,-155.5 122,-136.5 0,-136.5"/>
<text text-anchor="middle" x="61" y="-143.5" font-family="Arial" font-size="10.00">idList&lt; surfaceEdge_s &gt;</text>
</a>
</g>
</g>
<!-- Node3&#45;&gt;Node2 -->
<g id="edge2" class="edge"><title>Node3&#45;&gt;Node2</title>
<path fill="none" stroke="#9a32cd" stroke-dasharray="5,2" d="M82.4586,-130.568C105.707,-114.931 142.036,-90.4981 161.189,-77.6165"/>
<polygon fill="#9a32cd" stroke="#9a32cd" points="80.3071,-127.797 73.9625,-136.282 84.2137,-133.605 80.3071,-127.797"/>
<text text-anchor="middle" x="146" y="-104.5" font-family="Arial" font-size="10.00"> edges</text>
</g>
<!-- Node4 -->
<g id="node4" class="node"><title>Node4</title>
<g id="a_node4"><a xlink:href="classid_list.html" target="_top" xlink:title="idList\&lt; int \&gt;">
<polygon fill="white" stroke="black" points="140,-136.5 140,-155.5 208,-155.5 208,-136.5 140,-136.5"/>
<text text-anchor="middle" x="174" y="-143.5" font-family="Arial" font-size="10.00">idList&lt; int &gt;</text>
</a>
</g>
</g>
<!-- Node4&#45;&gt;Node2 -->
<g id="edge3" class="edge"><title>Node4&#45;&gt;Node2</title>
<path fill="none" stroke="#9a32cd" stroke-dasharray="5,2" d="M174,-126.224C174,-110.697 174,-89.3582 174,-77.6165"/>
<polygon fill="#9a32cd" stroke="#9a32cd" points="170.5,-126.282 174,-136.282 177.5,-126.282 170.5,-126.282"/>
<text text-anchor="middle" x="201.5" y="-110" font-family="Arial" font-size="10.00"> indexes</text>
<text text-anchor="middle" x="201.5" y="-99" font-family="Arial" font-size="10.00">edgeIndexes</text>
</g>
<!-- Node5 -->
<g id="node5" class="node"><title>Node5</title>
<g id="a_node5"><a xlink:href="classid_list.html" target="_top" xlink:title="idList\&lt; idDrawVert \&gt;">
<polygon fill="white" stroke="black" points="226.5,-136.5 226.5,-155.5 331.5,-155.5 331.5,-136.5 226.5,-136.5"/>
<text text-anchor="middle" x="279" y="-143.5" font-family="Arial" font-size="10.00">idList&lt; idDrawVert &gt;</text>
</a>
</g>
</g>
<!-- Node5&#45;&gt;Node2 -->
<g id="edge4" class="edge"><title>Node5&#45;&gt;Node2</title>
<path fill="none" stroke="#9a32cd" stroke-dasharray="5,2" d="M266.339,-128.524C257.773,-118.194 245.733,-105.149 233,-96 222.388,-88.375 209.28,-82.1164 198.115,-77.5516"/>
<polygon fill="#9a32cd" stroke="#9a32cd" points="263.675,-130.797 272.656,-136.418 269.14,-126.423 263.675,-130.797"/>
<text text-anchor="middle" x="269" y="-104.5" font-family="Arial" font-size="10.00"> verts</text>
</g>
</g>
</svg>
