<?xml version="1.0" encoding="UTF-8" standalone="no"?>
<!DOCTYPE svg PUBLIC "-//W3C//DTD SVG 1.1//EN"
 "http://www.w3.org/Graphics/SVG/1.1/DTD/svg11.dtd">
<!-- Generated by graphviz version 2.34.0 (20130907.0111)
 -->
<!-- Title: CPropTree Pages: 1 -->
<svg width="458pt" height="221pt"
 viewBox="0.00 0.00 458.00 220.50" xmlns="http://www.w3.org/2000/svg" xmlns:xlink="http://www.w3.org/1999/xlink">
<g id="graph0" class="graph" transform="scale(1 1) rotate(0) translate(4 216.5)">
<title>CPropTree</title>
<polygon fill="white" stroke="white" points="-4,4 -4,-216.5 454,-216.5 454,4 -4,4"/>
<!-- Node1 -->
<g id="node1" class="node"><title>Node1</title>
<polygon fill="#bfbfbf" stroke="black" points="130,-135 130,-154 192,-154 192,-135 130,-135"/>
<text text-anchor="middle" x="161" y="-142" font-family="Arial" font-size="10.00">CPropTree</text>
</g>
<!-- Node3 -->
<g id="node3" class="node"><title>Node3</title>
<g id="a_node3"><a xlink:href="class_c_prop_tree_list.html" target="_top" xlink:title="CPropTreeList">
<polygon fill="white" stroke="black" points="0,-18 0,-37 78,-37 78,-18 0,-18"/>
<text text-anchor="middle" x="39" y="-25" font-family="Arial" font-size="10.00">CPropTreeList</text>
</a>
</g>
</g>
<!-- Node1&#45;&gt;Node3 -->
<g id="edge4" class="edge"><title>Node1&#45;&gt;Node3</title>
<path fill="none" stroke="#9a32cd" stroke-dasharray="5,2" d="M119.697,-140.096C87.4601,-136.481 46.443,-129.44 36,-116.5 17.2788,-93.3032 28.8188,-54.3863 35.3813,-37.1571"/>
<polygon fill="#9a32cd" stroke="#9a32cd" points="119.496,-143.594 129.806,-141.152 120.224,-136.632 119.496,-143.594"/>
<text text-anchor="middle" x="57.5" y="-92" font-family="Arial" font-size="10.00"> m_pProp</text>
</g>
<!-- Node4 -->
<g id="node4" class="node"><title>Node4</title>
<g id="a_node4"><a xlink:href="class_c_prop_tree_item.html" target="_top" xlink:title="CPropTreeItem">
<polygon fill="white" stroke="black" points="145.5,-18 145.5,-37 226.5,-37 226.5,-18 145.5,-18"/>
<text text-anchor="middle" x="186" y="-25" font-family="Arial" font-size="10.00">CPropTreeItem</text>
</a>
</g>
</g>
<!-- Node1&#45;&gt;Node4 -->
<g id="edge6" class="edge"><title>Node1&#45;&gt;Node4</title>
<path fill="none" stroke="#9a32cd" stroke-dasharray="5,2" d="M156.985,-124.774C154.629,-110.226 152.992,-89.698 158,-72.5 161.949,-58.9384 171.483,-45.5661 178.328,-37.1884"/>
<polygon fill="#9a32cd" stroke="#9a32cd" points="153.618,-125.807 158.915,-134.983 160.497,-124.506 153.618,-125.807"/>
<text text-anchor="middle" x="179.5" y="-92" font-family="Arial" font-size="10.00"> m_pProp</text>
</g>
<!-- Node5 -->
<g id="node5" class="node"><title>Node5</title>
<g id="a_node5"><a xlink:href="class_c_prop_tree_info.html" target="_top" xlink:title="CPropTreeInfo">
<polygon fill="white" stroke="black" points="339.5,-18 339.5,-37 416.5,-37 416.5,-18 339.5,-18"/>
<text text-anchor="middle" x="378" y="-25" font-family="Arial" font-size="10.00">CPropTreeInfo</text>
</a>
</g>
</g>
<!-- Node1&#45;&gt;Node5 -->
<g id="edge10" class="edge"><title>Node1&#45;&gt;Node5</title>
<path fill="none" stroke="#9a32cd" stroke-dasharray="5,2" d="M202.187,-141.002C225.719,-137.924 254.855,-131.178 277,-116.5 297.155,-103.141 291.387,-89.0676 309,-72.5 324.73,-57.7035 346.106,-44.9662 360.878,-37.059"/>
<polygon fill="#9a32cd" stroke="#9a32cd" points="201.691,-137.536 192.149,-142.142 202.48,-144.491 201.691,-137.536"/>
<text text-anchor="middle" x="330.5" y="-92" font-family="Arial" font-size="10.00"> m_pProp</text>
</g>
<!-- Node2 -->
<g id="node2" class="node"><title>Node2</title>
<polygon fill="white" stroke="#bfbfbf" points="29,-193 29,-212 73,-212 73,-193 29,-193"/>
<text text-anchor="middle" x="51" y="-200" font-family="Arial" font-size="10.00">CWnd</text>
</g>
<!-- Node2&#45;&gt;Node1 -->
<g id="edge1" class="edge"><title>Node2&#45;&gt;Node1</title>
<path fill="none" stroke="midnightblue" d="M76.6358,-188.449C97.4289,-177.863 126.144,-163.245 144.136,-154.085"/>
<polygon fill="midnightblue" stroke="midnightblue" points="75.0304,-185.339 67.7066,-192.995 78.2062,-191.577 75.0304,-185.339"/>
</g>
<!-- Node2&#45;&gt;Node3 -->
<g id="edge3" class="edge"><title>Node2&#45;&gt;Node3</title>
<path fill="none" stroke="midnightblue" d="M42.245,-183.534C31.2194,-158.688 14.5628,-112.385 22,-72.5 24.3718,-59.7803 30.2915,-46.001 34.4763,-37.3152"/>
<polygon fill="midnightblue" stroke="midnightblue" points="39.1546,-185.189 46.5388,-192.787 45.5043,-182.242 39.1546,-185.189"/>
</g>
<!-- Node3&#45;&gt;Node1 -->
<g id="edge2" class="edge"><title>Node3&#45;&gt;Node1</title>
<path fill="none" stroke="#9a32cd" stroke-dasharray="5,2" d="M55.8069,-44.4255C64.2054,-52.6015 74.3868,-62.8499 83,-72.5 99.6391,-91.1423 99.3757,-99.8408 118,-116.5 126.015,-123.67 136.157,-130.138 144.578,-134.945"/>
<polygon fill="#9a32cd" stroke="#9a32cd" points="58.0432,-41.7202 48.4104,-37.3088 53.1898,-46.7644 58.0432,-41.7202"/>
<text text-anchor="middle" x="134.5" y="-92" font-family="Arial" font-size="10.00"> m_List</text>
</g>
<!-- Node4&#45;&gt;Node1 -->
<g id="edge5" class="edge"><title>Node4&#45;&gt;Node1</title>
<path fill="none" stroke="#9a32cd" stroke-dasharray="5,2" d="M196.671,-46.1863C206.371,-64.7617 217.423,-94.3021 205,-116.5 200.448,-124.634 192.333,-130.615 184.301,-134.85"/>
<polygon fill="#9a32cd" stroke="#9a32cd" points="199.657,-44.3544 191.717,-37.3399 193.549,-47.775 199.657,-44.3544"/>
<text text-anchor="middle" x="242" y="-108.5" font-family="Arial" font-size="10.00"> m_Root</text>
<text text-anchor="middle" x="242" y="-97.5" font-family="Arial" font-size="10.00">m_pVisbleList</text>
<text text-anchor="middle" x="242" y="-86.5" font-family="Arial" font-size="10.00">m_pFocus</text>
<text text-anchor="middle" x="242" y="-75.5" font-family="Arial" font-size="10.00">s_pFound</text>
</g>
<!-- Node4&#45;&gt;Node4 -->
<g id="edge7" class="edge"><title>Node4&#45;&gt;Node4</title>
<path fill="none" stroke="#9a32cd" stroke-dasharray="5,2" d="M213.895,-39.2608C229.547,-41.5082 244,-37.5879 244,-27.5 244,-15.3184 222.924,-12.1302 204.113,-17.9355"/>
<polygon fill="#9a32cd" stroke="#9a32cd" points="214.637,-35.8404 204.113,-37.0645 213.103,-42.6703 214.637,-35.8404"/>
<text text-anchor="middle" x="269.5" y="-47" font-family="Arial" font-size="10.00"> m_pParent</text>
<text text-anchor="middle" x="269.5" y="-36" font-family="Arial" font-size="10.00">m_pVis</text>
<text text-anchor="middle" x="269.5" y="-25" font-family="Arial" font-size="10.00">m_pSibling</text>
<text text-anchor="middle" x="269.5" y="-14" font-family="Arial" font-size="10.00">m_pChild</text>
<text text-anchor="middle" x="269.5" y="-3" font-family="Arial" font-size="10.00">m_lParam</text>
</g>
<!-- Node5&#45;&gt;Node1 -->
<g id="edge8" class="edge"><title>Node5&#45;&gt;Node1</title>
<path fill="none" stroke="#9a32cd" stroke-dasharray="5,2" d="M375.79,-47.1461C372.664,-70.1562 366.17,-107.367 356,-116.5 332.478,-137.622 241.117,-142.317 192.25,-143.296"/>
<polygon fill="#9a32cd" stroke="#9a32cd" points="379.269,-47.5374 377.056,-37.1762 372.324,-46.6557 379.269,-47.5374"/>
<text text-anchor="middle" x="388" y="-92" font-family="Arial" font-size="10.00"> m_Info</text>
</g>
<!-- Node6 -->
<g id="node6" class="node"><title>Node6</title>
<polygon fill="white" stroke="#bfbfbf" points="400.5,-135 400.5,-154 449.5,-154 449.5,-135 400.5,-135"/>
<text text-anchor="middle" x="425" y="-142" font-family="Arial" font-size="10.00">CStatic</text>
</g>
<!-- Node6&#45;&gt;Node5 -->
<g id="edge9" class="edge"><title>Node6&#45;&gt;Node5</title>
<path fill="none" stroke="midnightblue" d="M423.574,-124.473C421.929,-109.762 418.423,-89.1624 411,-72.5 404.938,-58.8933 394.01,-45.5309 386.398,-37.1677"/>
<polygon fill="midnightblue" stroke="midnightblue" points="420.125,-125.187 424.533,-134.822 427.095,-124.541 420.125,-125.187"/>
</g>
</g>
</svg>
