<?xml version="1.0" encoding="UTF-8" standalone="no"?>
<!DOCTYPE svg PUBLIC "-//W3C//DTD SVG 1.1//EN"
 "http://www.w3.org/Graphics/SVG/1.1/DTD/svg11.dtd">
<!-- Generated by graphviz version 2.34.0 (20130907.0111)
 -->
<!-- Title: idAsyncNetwork Pages: 1 -->
<svg width="380pt" height="334pt"
 viewBox="0.00 0.00 380.00 334.00" xmlns="http://www.w3.org/2000/svg" xmlns:xlink="http://www.w3.org/1999/xlink">
<g id="graph0" class="graph" transform="scale(1 1) rotate(0) translate(4 330)">
<title>idAsyncNetwork</title>
<polygon fill="white" stroke="white" points="-4,4 -4,-330 376,-330 376,4 -4,4"/>
<!-- Node1 -->
<g id="node1" class="node"><title>Node1</title>
<polygon fill="#bfbfbf" stroke="black" points="115.5,-0.5 115.5,-19.5 202.5,-19.5 202.5,-0.5 115.5,-0.5"/>
<text text-anchor="middle" x="159" y="-7.5" font-family="Arial" font-size="10.00">idAsyncNetwork</text>
</g>
<!-- Node2 -->
<g id="node2" class="node"><title>Node2</title>
<g id="a_node2"><a xlink:href="classid_async_client.html" target="_top" xlink:title="idAsyncClient">
<polygon fill="white" stroke="black" points="24.5,-179.5 24.5,-198.5 101.5,-198.5 101.5,-179.5 24.5,-179.5"/>
<text text-anchor="middle" x="63" y="-186.5" font-family="Arial" font-size="10.00">idAsyncClient</text>
</a>
</g>
</g>
<!-- Node2&#45;&gt;Node1 -->
<g id="edge1" class="edge"><title>Node2&#45;&gt;Node1</title>
<path fill="none" stroke="#9a32cd" stroke-dasharray="5,2" d="M68.1528,-169.293C76.9818,-139.479 97.0936,-80.2484 128,-38 133.141,-30.9724 140.422,-24.511 146.637,-19.6721"/>
<polygon fill="#9a32cd" stroke="#9a32cd" points="64.7092,-168.605 65.3224,-179.182 71.439,-170.531 64.7092,-168.605"/>
<text text-anchor="middle" x="141.5" y="-96.5" font-family="Arial" font-size="10.00"> client</text>
</g>
<!-- Node3 -->
<g id="node3" class="node"><title>Node3</title>
<g id="a_node3"><a xlink:href="classid_server_scan.html" target="_top" xlink:title="idServerScan">
<polygon fill="white" stroke="black" points="26,-248.5 26,-267.5 100,-267.5 100,-248.5 26,-248.5"/>
<text text-anchor="middle" x="63" y="-255.5" font-family="Arial" font-size="10.00">idServerScan</text>
</a>
</g>
</g>
<!-- Node3&#45;&gt;Node2 -->
<g id="edge2" class="edge"><title>Node3&#45;&gt;Node2</title>
<path fill="none" stroke="#9a32cd" stroke-dasharray="5,2" d="M63,-238.018C63,-225.034 63,-208.442 63,-198.549"/>
<polygon fill="#9a32cd" stroke="#9a32cd" points="59.5001,-238.241 63,-248.241 66.5001,-238.241 59.5001,-238.241"/>
<text text-anchor="middle" x="85.5" y="-221.5" font-family="Arial" font-size="10.00"> serverList</text>
</g>
<!-- Node4 -->
<g id="node4" class="node"><title>Node4</title>
<g id="a_node4"><a xlink:href="classid_list.html" target="_top" xlink:title="idList\&lt; networkServer_t \&gt;">
<polygon fill="white" stroke="black" points="-0.5,-306.5 -0.5,-325.5 126.5,-325.5 126.5,-306.5 -0.5,-306.5"/>
<text text-anchor="middle" x="63" y="-313.5" font-family="Arial" font-size="10.00">idList&lt; networkServer_t &gt;</text>
</a>
</g>
</g>
<!-- Node4&#45;&gt;Node3 -->
<g id="edge3" class="edge"><title>Node4&#45;&gt;Node3</title>
<path fill="none" stroke="midnightblue" d="M63,-295.953C63,-286.287 63,-275.031 63,-267.505"/>
<polygon fill="midnightblue" stroke="midnightblue" points="59.5001,-296.25 63,-306.25 66.5001,-296.25 59.5001,-296.25"/>
</g>
<!-- Node5 -->
<g id="node5" class="node"><title>Node5</title>
<g id="a_node5"><a xlink:href="classid_async_server.html" target="_top" xlink:title="idAsyncServer">
<polygon fill="white" stroke="black" points="119.5,-179.5 119.5,-198.5 198.5,-198.5 198.5,-179.5 119.5,-179.5"/>
<text text-anchor="middle" x="159" y="-186.5" font-family="Arial" font-size="10.00">idAsyncServer</text>
</a>
</g>
</g>
<!-- Node5&#45;&gt;Node1 -->
<g id="edge4" class="edge"><title>Node5&#45;&gt;Node1</title>
<path fill="none" stroke="#9a32cd" stroke-dasharray="5,2" d="M159,-169.352C159,-131.597 159,-47.3648 159,-19.8684"/>
<polygon fill="#9a32cd" stroke="#9a32cd" points="155.5,-169.463 159,-179.463 162.5,-169.463 155.5,-169.463"/>
<text text-anchor="middle" x="173.5" y="-96.5" font-family="Arial" font-size="10.00"> server</text>
</g>
<!-- Node6 -->
<g id="node6" class="node"><title>Node6</title>
<g id="a_node6"><a xlink:href="classid_c_var.html" target="_top" xlink:title="idCVar">
<polygon fill="white" stroke="black" points="217,-179.5 217,-198.5 263,-198.5 263,-179.5 217,-179.5"/>
<text text-anchor="middle" x="240" y="-186.5" font-family="Arial" font-size="10.00">idCVar</text>
</a>
</g>
</g>
<!-- Node6&#45;&gt;Node1 -->
<g id="edge5" class="edge"><title>Node6&#45;&gt;Node1</title>
<path fill="none" stroke="#9a32cd" stroke-dasharray="5,2" d="M237.5,-169.198C232.783,-139.216 220.377,-79.7118 192,-38 187.004,-30.6555 179.44,-24.2639 172.814,-19.5456"/>
<polygon fill="#9a32cd" stroke="#9a32cd" points="234.09,-170.073 238.991,-179.466 241.017,-169.067 234.09,-170.073"/>
<text text-anchor="middle" x="304" y="-151.5" font-family="Arial" font-size="10.00"> idleServer</text>
<text text-anchor="middle" x="304" y="-140.5" font-family="Arial" font-size="10.00">clientRemoteConsolePassword</text>
<text text-anchor="middle" x="304" y="-129.5" font-family="Arial" font-size="10.00">serverMaxClientRate</text>
<text text-anchor="middle" x="304" y="-118.5" font-family="Arial" font-size="10.00">clientMaxPrediction</text>
<text text-anchor="middle" x="304" y="-107.5" font-family="Arial" font-size="10.00">serverReloadEngine</text>
<text text-anchor="middle" x="304" y="-96.5" font-family="Arial" font-size="10.00">master0</text>
<text text-anchor="middle" x="304" y="-85.5" font-family="Arial" font-size="10.00">master1</text>
<text text-anchor="middle" x="304" y="-74.5" font-family="Arial" font-size="10.00">serverZombieTimeout</text>
<text text-anchor="middle" x="304" y="-63.5" font-family="Arial" font-size="10.00">master2</text>
<text text-anchor="middle" x="304" y="-52.5" font-family="Arial" font-size="10.00">serverDrawClient</text>
<text text-anchor="middle" x="304" y="-41.5" font-family="Arial" font-size="10.00">...</text>
</g>
<!-- Node6&#45;&gt;Node6 -->
<g id="edge7" class="edge"><title>Node6&#45;&gt;Node6</title>
<path fill="none" stroke="#9a32cd" stroke-dasharray="5,2" d="M273.411,-194.666C277.964,-193.721 281,-191.833 281,-189 281,-184.352 272.825,-182.245 263.182,-182.681"/>
<polygon fill="#9a32cd" stroke="#9a32cd" points="272.939,-191.189 263.182,-195.319 273.385,-198.175 272.939,-191.189"/>
<text text-anchor="middle" x="304.5" y="-192" font-family="Arial" font-size="10.00"> next</text>
<text text-anchor="middle" x="304.5" y="-181" font-family="Arial" font-size="10.00">internalVar</text>
</g>
<!-- Node7 -->
<g id="node7" class="node"><title>Node7</title>
<g id="a_node7"><a xlink:href="classid_cmd_args.html" target="_top" xlink:title="idCmdArgs">
<polygon fill="white" stroke="black" points="207.5,-248.5 207.5,-267.5 272.5,-267.5 272.5,-248.5 207.5,-248.5"/>
<text text-anchor="middle" x="240" y="-255.5" font-family="Arial" font-size="10.00">idCmdArgs</text>
</a>
</g>
</g>
<!-- Node7&#45;&gt;Node6 -->
<g id="edge6" class="edge"><title>Node7&#45;&gt;Node6</title>
<path fill="none" stroke="#9a32cd" stroke-dasharray="5,2" d="M240,-238.018C240,-225.034 240,-208.442 240,-198.549"/>
<polygon fill="#9a32cd" stroke="#9a32cd" points="236.5,-238.241 240,-248.241 243.5,-238.241 236.5,-238.241"/>
<text text-anchor="middle" x="277" y="-221.5" font-family="Arial" font-size="10.00"> valueCompletion</text>
</g>
</g>
</svg>
