<?xml version="1.0" encoding="UTF-8" standalone="no"?>
<!DOCTYPE svg PUBLIC "-//W3C//DTD SVG 1.1//EN"
 "http://www.w3.org/Graphics/SVG/1.1/DTD/svg11.dtd">
<!-- Generated by graphviz version 2.34.0 (20130907.0111)
 -->
<!-- Title: idCompressor_BitStream Pages: 1 -->
<!--zoomable 191 -->
<svg id="main" version="1.1" xmlns="http://www.w3.org/2000/svg" xmlns:xlink="http://www.w3.org/1999/xlink" xml:space="preserve" onload="init(evt)">
<style type="text/css"><![CDATA[
.edge:hover path { stroke: red; }
.edge:hover polygon { stroke: red; fill: red; }
]]></style>
<script type="text/javascript"><![CDATA[
var edges = document.getElementsByTagName('g');
if (edges && edges.length) {
  for (var i=0;i<edges.length;i++) {
    if (edges[i].id.substr(0,4)=='edge') {
      edges[i].setAttribute('class','edge');
    }
  }
}
]]></script>
        <defs>
                <circle id="rim" cx="0" cy="0" r="7"/>
                <circle id="rim2" cx="0" cy="0" r="3.5"/>
                <g id="zoomPlus">
                        <use xlink:href="#rim" fill="#404040">
                                <set attributeName="fill" to="#808080" begin="zoomplus.mouseover" end="zoomplus.mouseout"/>
                        </use>
                        <path d="M-4,0h8M0,-4v8" fill="none" stroke="white" stroke-width="1.5" pointer-events="none"/>
                </g>
                <g id="zoomMin">
                        <use xlink:href="#rim" fill="#404040">
                                <set attributeName="fill" to="#808080" begin="zoomminus.mouseover" end="zoomminus.mouseout"/>
                        </use>
                        <path d="M-4,0h8" fill="none" stroke="white" stroke-width="1.5" pointer-events="none"/>
                </g>
                <g id="dirArrow">
                        <path fill="none" stroke="white" stroke-width="1.5" d="M0,-3.0v7 M-2.5,-0.5L0,-3.0L2.5,-0.5"/>
                </g>
               <g id="resetDef">
                       <use xlink:href="#rim2" fill="#404040">
                               <set attributeName="fill" to="#808080" begin="reset.mouseover" end="reset.mouseout"/>
                       </use>
               </g>
        </defs>

<script type="text/javascript">
var viewWidth = 832;
var viewHeight = 191;
var sectionId = 'dynsection-0';
</script>
<script xlink:href="svgpan.js"/>
<svg id="graph" class="graph">
<g id="viewport">
<title>idCompressor_BitStream</title>
<polygon fill="white" stroke="white" points="-4,4 -4,-187 828,-187 828,4 -4,4"/>
<!-- Node1 -->
<g id="node1" class="node"><title>Node1</title>
<polygon fill="#bfbfbf" stroke="black" points="330.5,-87.5 330.5,-106.5 455.5,-106.5 455.5,-87.5 330.5,-87.5"/>
<text text-anchor="middle" x="393" y="-94.5" font-family="Arial" font-size="10.00">idCompressor_BitStream</text>
</g>
<!-- Node5 -->
<g id="node5" class="node"><title>Node5</title>
<g id="a_node5"><a xlink:href="classid_compressor___arithmetic.html" target="_top" xlink:title="idCompressor_Arithmetic">
<polygon fill="white" stroke="black" points="493,-163.5 493,-182.5 619,-182.5 619,-163.5 493,-163.5"/>
<text text-anchor="middle" x="556" y="-170.5" font-family="Arial" font-size="10.00">idCompressor_Arithmetic</text>
</a>
</g>
</g>
<!-- Node1&#45;&gt;Node5 -->
<g id="edge4" class="edge"><title>Node1&#45;&gt;Node5</title>
<path fill="none" stroke="midnightblue" d="M416.482,-112.121C435.848,-124.639 464.883,-142.219 492,-154 500.278,-157.596 509.446,-160.782 518.167,-163.469"/>
<polygon fill="midnightblue" stroke="midnightblue" points="418.337,-109.152 408.055,-106.598 414.5,-115.006 418.337,-109.152"/>
</g>
<!-- Node6 -->
<g id="node6" class="node"><title>Node6</title>
<g id="a_node6"><a xlink:href="classid_compressor___l_z_s_s.html" target="_top" xlink:title="idCompressor_LZSS">
<polygon fill="white" stroke="black" points="503,-125.5 503,-144.5 609,-144.5 609,-125.5 503,-125.5"/>
<text text-anchor="middle" x="556" y="-132.5" font-family="Arial" font-size="10.00">idCompressor_LZSS</text>
</a>
</g>
</g>
<!-- Node1&#45;&gt;Node6 -->
<g id="edge5" class="edge"><title>Node1&#45;&gt;Node6</title>
<path fill="none" stroke="midnightblue" d="M444.402,-108.896C467.032,-114.237 493.37,-120.454 514.665,-125.48"/>
<polygon fill="midnightblue" stroke="midnightblue" points="445.164,-105.48 434.627,-106.589 443.556,-112.293 445.164,-105.48"/>
</g>
<!-- Node8 -->
<g id="node8" class="node"><title>Node8</title>
<g id="a_node8"><a xlink:href="classid_compressor___l_z_w.html" target="_top" xlink:title="idCompressor_LZW">
<polygon fill="white" stroke="black" points="505,-87.5 505,-106.5 607,-106.5 607,-87.5 505,-87.5"/>
<text text-anchor="middle" x="556" y="-94.5" font-family="Arial" font-size="10.00">idCompressor_LZW</text>
</a>
</g>
</g>
<!-- Node1&#45;&gt;Node8 -->
<g id="edge7" class="edge"><title>Node1&#45;&gt;Node8</title>
<path fill="none" stroke="midnightblue" d="M466.172,-97C479.235,-97 492.593,-97 504.852,-97"/>
<polygon fill="midnightblue" stroke="midnightblue" points="465.786,-93.5001 455.786,-97 465.786,-100.5 465.786,-93.5001"/>
</g>
<!-- Node9 -->
<g id="node9" class="node"><title>Node9</title>
<g id="a_node9"><a xlink:href="classid_compressor___run_length.html" target="_top" xlink:title="idCompressor_RunLength">
<polygon fill="white" stroke="black" points="492,-49.5 492,-68.5 620,-68.5 620,-49.5 492,-49.5"/>
<text text-anchor="middle" x="556" y="-56.5" font-family="Arial" font-size="10.00">idCompressor_RunLength</text>
</a>
</g>
</g>
<!-- Node1&#45;&gt;Node9 -->
<g id="edge8" class="edge"><title>Node1&#45;&gt;Node9</title>
<path fill="none" stroke="midnightblue" d="M444.402,-85.1039C467.032,-79.7626 493.37,-73.5463 514.665,-68.5201"/>
<polygon fill="midnightblue" stroke="midnightblue" points="443.556,-81.7074 434.627,-87.411 445.164,-88.5202 443.556,-81.7074"/>
</g>
<!-- Node10 -->
<g id="node10" class="node"><title>Node10</title>
<g id="a_node10"><a xlink:href="classid_compressor___run_length___zero_based.html" target="_top" xlink:title="idCompressor_RunLength\l_ZeroBased">
<polygon fill="white" stroke="black" points="492,-0 492,-30 620,-30 620,-0 492,-0"/>
<text text-anchor="start" x="500" y="-18" font-family="Arial" font-size="10.00">idCompressor_RunLength</text>
<text text-anchor="middle" x="556" y="-7" font-family="Arial" font-size="10.00">_ZeroBased</text>
</a>
</g>
</g>
<!-- Node1&#45;&gt;Node10 -->
<g id="edge9" class="edge"><title>Node1&#45;&gt;Node10</title>
<path fill="none" stroke="midnightblue" d="M417.428,-82.0415C436.951,-69.9041 465.713,-52.7722 492,-40 499.091,-36.5545 506.786,-33.2001 514.283,-30.1251"/>
<polygon fill="midnightblue" stroke="midnightblue" points="415.505,-79.116 408.894,-87.3952 419.225,-85.0457 415.505,-79.116"/>
</g>
<!-- Node2 -->
<g id="node2" class="node"><title>Node2</title>
<g id="a_node2"><a xlink:href="classid_compressor___none.html" target="_top" xlink:title="idCompressor_None">
<polygon fill="white" stroke="black" points="190,-87.5 190,-106.5 294,-106.5 294,-87.5 190,-87.5"/>
<text text-anchor="middle" x="242" y="-94.5" font-family="Arial" font-size="10.00">idCompressor_None</text>
</a>
</g>
</g>
<!-- Node2&#45;&gt;Node1 -->
<g id="edge1" class="edge"><title>Node2&#45;&gt;Node1</title>
<path fill="none" stroke="midnightblue" d="M304.53,-97C313.056,-97 321.816,-97 330.344,-97"/>
<polygon fill="midnightblue" stroke="midnightblue" points="304.277,-93.5001 294.277,-97 304.277,-100.5 304.277,-93.5001"/>
</g>
<!-- Node3 -->
<g id="node3" class="node"><title>Node3</title>
<g id="a_node3"><a xlink:href="classid_compressor.html" target="_top" xlink:title="idCompressor">
<polygon fill="white" stroke="black" points="76.5,-87.5 76.5,-106.5 153.5,-106.5 153.5,-87.5 76.5,-87.5"/>
<text text-anchor="middle" x="115" y="-94.5" font-family="Arial" font-size="10.00">idCompressor</text>
</a>
</g>
</g>
<!-- Node3&#45;&gt;Node2 -->
<g id="edge2" class="edge"><title>Node3&#45;&gt;Node2</title>
<path fill="none" stroke="midnightblue" d="M163.642,-97C172.15,-97 181.047,-97 189.653,-97"/>
<polygon fill="midnightblue" stroke="midnightblue" points="163.504,-93.5001 153.504,-97 163.504,-100.5 163.504,-93.5001"/>
</g>
<!-- Node4 -->
<g id="node4" class="node"><title>Node4</title>
<g id="a_node4"><a xlink:href="classid_file.html" target="_top" xlink:title="idFile">
<polygon fill="white" stroke="black" points="0,-87.5 0,-106.5 40,-106.5 40,-87.5 0,-87.5"/>
<text text-anchor="middle" x="20" y="-94.5" font-family="Arial" font-size="10.00">idFile</text>
</a>
</g>
</g>
<!-- Node4&#45;&gt;Node3 -->
<g id="edge3" class="edge"><title>Node4&#45;&gt;Node3</title>
<path fill="none" stroke="midnightblue" d="M50.4828,-97C58.6906,-97 67.7191,-97 76.3284,-97"/>
<polygon fill="midnightblue" stroke="midnightblue" points="50.2697,-93.5001 40.2697,-97 50.2696,-100.5 50.2697,-93.5001"/>
</g>
<!-- Node7 -->
<g id="node7" class="node"><title>Node7</title>
<g id="a_node7"><a xlink:href="classid_compressor___l_z_s_s___word_aligned.html" target="_top" xlink:title="idCompressor_LZSS_WordAligned">
<polygon fill="white" stroke="black" points="656.5,-125.5 656.5,-144.5 823.5,-144.5 823.5,-125.5 656.5,-125.5"/>
<text text-anchor="middle" x="740" y="-132.5" font-family="Arial" font-size="10.00">idCompressor_LZSS_WordAligned</text>
</a>
</g>
</g>
<!-- Node6&#45;&gt;Node7 -->
<g id="edge6" class="edge"><title>Node6&#45;&gt;Node7</title>
<path fill="none" stroke="midnightblue" d="M619.382,-135C631.26,-135 643.863,-135 656.259,-135"/>
<polygon fill="midnightblue" stroke="midnightblue" points="619.154,-131.5 609.154,-135 619.154,-138.5 619.154,-131.5"/>
</g>
</g>
</svg>
        <g id="navigator" transform="translate(0 0)" fill="#404254">
                <rect fill="#f2f5e9" fill-opacity="0.5" stroke="#606060" stroke-width=".5" x="0" y="0" width="60" height="60"/>
                <use id="zoomplus" xlink:href="#zoomPlus" x="17" y="9" onmousedown="handleZoom(evt,'in')"/>
                <use id="zoomminus" xlink:href="#zoomMin" x="42" y="9" onmousedown="handleZoom(evt,'out')"/>
                <use id="reset" xlink:href="#resetDef" x="30" y="36" onmousedown="handleReset()"/>
                <g id="arrowUp" xlink:href="#dirArrow" transform="translate(30 24)" onmousedown="handlePan(0,-1)">
                  <use xlink:href="#rim" fill="#404040">
                        <set attributeName="fill" to="#808080" begin="arrowUp.mouseover" end="arrowUp.mouseout"/>
                  </use>
                  <path fill="none" stroke="white" stroke-width="1.5" d="M0,-3.0v7 M-2.5,-0.5L0,-3.0L2.5,-0.5"/>
                </g>
                <g id="arrowRight" xlink:href="#dirArrow" transform="rotate(90) translate(36 -43)" onmousedown="handlePan(1,0)">
                  <use xlink:href="#rim" fill="#404040">
                        <set attributeName="fill" to="#808080" begin="arrowRight.mouseover" end="arrowRight.mouseout"/>
                  </use>
                  <path fill="none" stroke="white" stroke-width="1.5" d="M0,-3.0v7 M-2.5,-0.5L0,-3.0L2.5,-0.5"/>
                </g>
                <g id="arrowDown" xlink:href="#dirArrow" transform="rotate(180) translate(-30 -48)" onmousedown="handlePan(0,1)">
                  <use xlink:href="#rim" fill="#404040">
                        <set attributeName="fill" to="#808080" begin="arrowDown.mouseover" end="arrowDown.mouseout"/>
                  </use>
                  <path fill="none" stroke="white" stroke-width="1.5" d="M0,-3.0v7 M-2.5,-0.5L0,-3.0L2.5,-0.5"/>
                </g>
                <g id="arrowLeft" xlink:href="#dirArrow" transform="rotate(270) translate(-36 17)" onmousedown="handlePan(-1,0)">
                  <use xlink:href="#rim" fill="#404040">
                        <set attributeName="fill" to="#808080" begin="arrowLeft.mouseover" end="arrowLeft.mouseout"/>
                  </use>
                  <path fill="none" stroke="white" stroke-width="1.5" d="M0,-3.0v7 M-2.5,-0.5L0,-3.0L2.5,-0.5"/>
                </g>
        </g>
        <svg viewBox="0 0 15 15" width="100%" height="30px" preserveAspectRatio="xMaxYMin meet">
         <g id="arrow_out" transform="scale(0.3 0.3)">
          <a xlink:href="classid_compressor___bit_stream__inherit__graph_org.svg" target="_base">
           <rect id="button" ry="5" rx="5" y="6" x="6" height="38" width="38"
                fill="#f2f5e9" fill-opacity="0.5" stroke="#606060" stroke-width="1.0"/>
           <path id="arrow"
             d="M 11.500037,31.436501 C 11.940474,20.09759 22.043105,11.32322 32.158766,21.979434 L 37.068811,17.246167 C 37.068811,17.246167 37.088388,32 37.088388,32 L 22.160133,31.978069 C 22.160133,31.978069 26.997745,27.140456 26.997745,27.140456 C 18.528582,18.264221 13.291696,25.230495 11.500037,31.436501 z"
             style="fill:#404040;"/>
          </a>
         </g>
        </svg>
</svg>
