<?xml version="1.0" encoding="UTF-8" standalone="no"?>
<!DOCTYPE svg PUBLIC "-//W3C//DTD SVG 1.1//EN"
 "http://www.w3.org/Graphics/SVG/1.1/DTD/svg11.dtd">
<!-- Generated by graphviz version 2.34.0 (20130907.0111)
 -->
<!-- Title: CZWnd Pages: 1 -->
<svg width="124pt" height="96pt"
 viewBox="0.00 0.00 124.00 96.00" xmlns="http://www.w3.org/2000/svg" xmlns:xlink="http://www.w3.org/1999/xlink">
<g id="graph0" class="graph" transform="scale(1 1) rotate(0) translate(4 92)">
<title>CZWnd</title>
<polygon fill="white" stroke="white" points="-4,4 -4,-92 120,-92 120,4 -4,4"/>
<!-- Node1 -->
<g id="node1" class="node"><title>Node1</title>
<polygon fill="#bfbfbf" stroke="black" points="28.5,-0.5 28.5,-19.5 77.5,-19.5 77.5,-0.5 28.5,-0.5"/>
<text text-anchor="middle" x="53" y="-7.5" font-family="Arial" font-size="10.00">CZWnd</text>
</g>
<!-- Node2 -->
<g id="node2" class="node"><title>Node2</title>
<polygon fill="white" stroke="#bfbfbf" points="0,-68.5 0,-87.5 44,-87.5 44,-68.5 0,-68.5"/>
<text text-anchor="middle" x="22" y="-75.5" font-family="Arial" font-size="10.00">CWnd</text>
</g>
<!-- Node2&#45;&gt;Node1 -->
<g id="edge1" class="edge"><title>Node2&#45;&gt;Node1</title>
<path fill="none" stroke="midnightblue" d="M30.3672,-59.1859C36.3482,-46.4523 44.1412,-29.8607 48.8474,-19.8411"/>
<polygon fill="midnightblue" stroke="midnightblue" points="27.1362,-57.8324 26.0527,-68.3717 33.4721,-60.8083 27.1362,-57.8324"/>
</g>
<!-- Node3 -->
<g id="node3" class="node"><title>Node3</title>
<g id="a_node3"><a xlink:href="class_c_z_clip.html" target="_top" xlink:title="CZClip">
<polygon fill="white" stroke="black" points="62.5,-68.5 62.5,-87.5 107.5,-87.5 107.5,-68.5 62.5,-68.5"/>
<text text-anchor="middle" x="85" y="-75.5" font-family="Arial" font-size="10.00">CZClip</text>
</a>
</g>
</g>
<!-- Node3&#45;&gt;Node1 -->
<g id="edge2" class="edge"><title>Node3&#45;&gt;Node1</title>
<path fill="none" stroke="#9a32cd" stroke-dasharray="5,2" d="M76.3629,-59.1859C70.189,-46.4523 62.1446,-29.8607 57.2866,-19.8411"/>
<polygon fill="#9a32cd" stroke="#9a32cd" points="73.3044,-60.9005 80.8166,-68.3717 79.6031,-57.8465 73.3044,-60.9005"/>
<text text-anchor="middle" x="94" y="-41.5" font-family="Arial" font-size="10.00"> m_pZClip</text>
</g>
</g>
</svg>
