<?xml version="1.0" encoding="UTF-8" standalone="no"?>
<!DOCTYPE svg PUBLIC "-//W3C//DTD SVG 1.1//EN"
 "http://www.w3.org/Graphics/SVG/1.1/DTD/svg11.dtd">
<!-- Generated by graphviz version 2.34.0 (20130907.0111)
 -->
<!-- Title: CDialogParticleEditor Pages: 1 -->
<svg width="277pt" height="264pt"
 viewBox="0.00 0.00 277.00 264.00" xmlns="http://www.w3.org/2000/svg" xmlns:xlink="http://www.w3.org/1999/xlink">
<g id="graph0" class="graph" transform="scale(1 1) rotate(0) translate(4 260)">
<title>CDialogParticleEditor</title>
<polygon fill="white" stroke="white" points="-4,4 -4,-260 273,-260 273,4 -4,4"/>
<!-- Node1 -->
<g id="node1" class="node"><title>Node1</title>
<polygon fill="#bfbfbf" stroke="black" points="45.5,-0.5 45.5,-19.5 154.5,-19.5 154.5,-0.5 45.5,-0.5"/>
<text text-anchor="middle" x="100" y="-7.5" font-family="Arial" font-size="10.00">CDialogParticleEditor</text>
</g>
<!-- Node2 -->
<g id="node2" class="node"><title>Node2</title>
<polygon fill="white" stroke="#bfbfbf" points="0,-178.5 0,-197.5 50,-197.5 50,-178.5 0,-178.5"/>
<text text-anchor="middle" x="25" y="-185.5" font-family="Arial" font-size="10.00">CDialog</text>
</g>
<!-- Node2&#45;&gt;Node1 -->
<g id="edge1" class="edge"><title>Node2&#45;&gt;Node1</title>
<path fill="none" stroke="midnightblue" d="M32.7507,-168.812C48.6888,-131.41 84.6202,-47.0911 96.2743,-19.7429"/>
<polygon fill="midnightblue" stroke="midnightblue" points="29.5228,-167.459 28.8224,-178.03 35.9625,-170.203 29.5228,-167.459"/>
</g>
<!-- Node3 -->
<g id="node3" class="node"><title>Node3</title>
<g id="a_node3"><a xlink:href="class_c_vector_ctl.html" target="_top" xlink:title="CVectorCtl">
<polygon fill="white" stroke="black" points="68,-178.5 68,-197.5 132,-197.5 132,-178.5 68,-178.5"/>
<text text-anchor="middle" x="100" y="-185.5" font-family="Arial" font-size="10.00">CVectorCtl</text>
</a>
</g>
</g>
<!-- Node3&#45;&gt;Node1 -->
<g id="edge2" class="edge"><title>Node3&#45;&gt;Node1</title>
<path fill="none" stroke="#9a32cd" stroke-dasharray="5,2" d="M100,-167.842C100,-129.973 100,-46.8574 100,-19.7429"/>
<polygon fill="#9a32cd" stroke="#9a32cd" points="96.5001,-168.03 100,-178.03 103.5,-168.03 96.5001,-168.03"/>
<text text-anchor="middle" x="130" y="-96.5" font-family="Arial" font-size="10.00"> vectorControl</text>
</g>
<!-- Node4 -->
<g id="node4" class="node"><title>Node4</title>
<polygon fill="white" stroke="#bfbfbf" points="74,-236.5 74,-255.5 126,-255.5 126,-236.5 74,-236.5"/>
<text text-anchor="middle" x="100" y="-243.5" font-family="Arial" font-size="10.00">CButton</text>
</g>
<!-- Node4&#45;&gt;Node3 -->
<g id="edge3" class="edge"><title>Node4&#45;&gt;Node3</title>
<path fill="none" stroke="midnightblue" d="M100,-225.953C100,-216.287 100,-205.031 100,-197.505"/>
<polygon fill="midnightblue" stroke="midnightblue" points="96.5001,-226.25 100,-236.25 103.5,-226.25 96.5001,-226.25"/>
</g>
<!-- Node5 -->
<g id="node5" class="node"><title>Node5</title>
<g id="a_node5"><a xlink:href="class_c_range_slider.html" target="_top" xlink:title="CRangeSlider">
<polygon fill="white" stroke="black" points="150,-178.5 150,-197.5 226,-197.5 226,-178.5 150,-178.5"/>
<text text-anchor="middle" x="188" y="-185.5" font-family="Arial" font-size="10.00">CRangeSlider</text>
</a>
</g>
</g>
<!-- Node5&#45;&gt;Node1 -->
<g id="edge4" class="edge"><title>Node5&#45;&gt;Node1</title>
<path fill="none" stroke="#9a32cd" stroke-dasharray="5,2" d="M190.168,-168.379C192.682,-137.773 193.18,-76.4027 163,-38 156.309,-29.4859 146.414,-23.6131 136.439,-19.5797"/>
<polygon fill="#9a32cd" stroke="#9a32cd" points="186.669,-168.195 189.165,-178.491 193.635,-168.886 186.669,-168.195"/>
<text text-anchor="middle" x="230.5" y="-151.5" font-family="Arial" font-size="10.00"> sliderFadeOut</text>
<text text-anchor="middle" x="230.5" y="-140.5" font-family="Arial" font-size="10.00">sliderGravity</text>
<text text-anchor="middle" x="230.5" y="-129.5" font-family="Arial" font-size="10.00">sliderTime</text>
<text text-anchor="middle" x="230.5" y="-118.5" font-family="Arial" font-size="10.00">sliderCount</text>
<text text-anchor="middle" x="230.5" y="-107.5" font-family="Arial" font-size="10.00">sliderAspectFrom</text>
<text text-anchor="middle" x="230.5" y="-96.5" font-family="Arial" font-size="10.00">sliderAspectTo</text>
<text text-anchor="middle" x="230.5" y="-85.5" font-family="Arial" font-size="10.00">sliderSpeedTo</text>
<text text-anchor="middle" x="230.5" y="-74.5" font-family="Arial" font-size="10.00">sliderFadeIn</text>
<text text-anchor="middle" x="230.5" y="-63.5" font-family="Arial" font-size="10.00">sliderSizeTo</text>
<text text-anchor="middle" x="230.5" y="-52.5" font-family="Arial" font-size="10.00">sliderSizeFrom</text>
<text text-anchor="middle" x="230.5" y="-41.5" font-family="Arial" font-size="10.00">...</text>
</g>
<!-- Node6 -->
<g id="node6" class="node"><title>Node6</title>
<polygon fill="white" stroke="#bfbfbf" points="156.5,-236.5 156.5,-255.5 219.5,-255.5 219.5,-236.5 156.5,-236.5"/>
<text text-anchor="middle" x="188" y="-243.5" font-family="Arial" font-size="10.00">CSliderCtrl</text>
</g>
<!-- Node6&#45;&gt;Node5 -->
<g id="edge5" class="edge"><title>Node6&#45;&gt;Node5</title>
<path fill="none" stroke="midnightblue" d="M188,-225.953C188,-216.287 188,-205.031 188,-197.505"/>
<polygon fill="midnightblue" stroke="midnightblue" points="184.5,-226.25 188,-236.25 191.5,-226.25 184.5,-226.25"/>
</g>
</g>
</svg>
