<?xml version="1.0" encoding="UTF-8" standalone="no"?>
<!DOCTYPE svg PUBLIC "-//W3C//DTD SVG 1.1//EN"
 "http://www.w3.org/Graphics/SVG/1.1/DTD/svg11.dtd">
<!-- Generated by graphviz version 2.34.0 (20130907.0111)
 -->
<!-- Title: idAF Pages: 1 -->
<svg width="1508pt" height="837pt"
 viewBox="0.00 0.00 1508.00 837.00" xmlns="http://www.w3.org/2000/svg" xmlns:xlink="http://www.w3.org/1999/xlink">
<g id="graph0" class="graph" transform="scale(1 1) rotate(0) translate(4 833)">
<title>idAF</title>
<polygon fill="white" stroke="white" points="-4,4 -4,-833 1504,-833 1504,4 -4,4"/>
<!-- Node1 -->
<g id="node1" class="node"><title>Node1</title>
<polygon fill="#bfbfbf" stroke="black" points="1462.5,-141.5 1462.5,-160.5 1499.5,-160.5 1499.5,-141.5 1462.5,-141.5"/>
<text text-anchor="middle" x="1481" y="-148.5" font-family="Arial" font-size="10.00">idAF</text>
</g>
<!-- Node2 -->
<g id="node2" class="node"><title>Node2</title>
<g id="a_node2"><a xlink:href="classid_list.html" target="_top" xlink:title="idList\&lt; int \&gt;">
<polygon fill="white" stroke="black" points="1273,-806.5 1273,-825.5 1341,-825.5 1341,-806.5 1273,-806.5"/>
<text text-anchor="middle" x="1307" y="-813.5" font-family="Arial" font-size="10.00">idList&lt; int &gt;</text>
</a>
</g>
</g>
<!-- Node2&#45;&gt;Node1 -->
<g id="edge1" class="edge"><title>Node2&#45;&gt;Node1</title>
<path fill="none" stroke="#9a32cd" stroke-dasharray="5,2" d="M1351.18,-821.098C1381.8,-822.084 1421.33,-817.53 1444,-792 1465.92,-767.309 1478.11,-238.952 1479.8,-160.661"/>
<polygon fill="#9a32cd" stroke="#9a32cd" points="1351.34,-817.602 1341.18,-820.574 1350.98,-824.592 1351.34,-817.602"/>
<text text-anchor="middle" x="1418" y="-821" font-family="Arial" font-size="10.00"> jointBody</text>
</g>
<!-- Node3 -->
<g id="node3" class="node"><title>Node3</title>
<g id="a_node3"><a xlink:href="classid_mat3.html" target="_top" xlink:title="idMat3">
<polygon fill="white" stroke="black" points="242,-498.5 242,-517.5 288,-517.5 288,-498.5 242,-498.5"/>
<text text-anchor="middle" x="265" y="-505.5" font-family="Arial" font-size="10.00">idMat3</text>
</a>
</g>
</g>
<!-- Node3&#45;&gt;Node1 -->
<g id="edge2" class="edge"><title>Node3&#45;&gt;Node1</title>
<path fill="none" stroke="#9a32cd" stroke-dasharray="5,2" d="M271.389,-527.294C289.942,-589.075 357.282,-778 487,-778 487,-778 487,-778 1308,-778 1441.76,-778 1475.27,-240.617 1479.51,-160.849"/>
<polygon fill="#9a32cd" stroke="#9a32cd" points="274.726,-526.234 268.572,-517.609 268.004,-528.189 274.726,-526.234"/>
<text text-anchor="middle" x="961" y="-781" font-family="Arial" font-size="10.00"> baseAxis</text>
</g>
<!-- Node12 -->
<g id="node12" class="node"><title>Node12</title>
<g id="a_node12"><a xlink:href="structrender_view__s.html" target="_top" xlink:title="renderView_s">
<polygon fill="white" stroke="black" points="450.5,-358.5 450.5,-377.5 525.5,-377.5 525.5,-358.5 450.5,-358.5"/>
<text text-anchor="middle" x="488" y="-365.5" font-family="Arial" font-size="10.00">renderView_s</text>
</a>
</g>
</g>
<!-- Node3&#45;&gt;Node12 -->
<g id="edge17" class="edge"><title>Node3&#45;&gt;Node12</title>
<path fill="none" stroke="#9a32cd" stroke-dasharray="5,2" d="M297.845,-496.776C329.643,-484.216 378.232,-461.179 410,-428 422.371,-415.079 414.872,-404.151 428,-392 434.736,-385.766 443.306,-381.051 451.813,-377.526"/>
<polygon fill="#9a32cd" stroke="#9a32cd" points="296.241,-493.642 288.153,-500.486 298.744,-500.18 296.241,-493.642"/>
<text text-anchor="middle" x="374" y="-481" font-family="Arial" font-size="10.00"> viewaxis</text>
</g>
<!-- Node19 -->
<g id="node19" class="node"><title>Node19</title>
<g id="a_node19"><a xlink:href="structrender_entity__s.html" target="_top" xlink:title="renderEntity_s">
<polygon fill="white" stroke="black" points="694,-460.5 694,-479.5 774,-479.5 774,-460.5 694,-460.5"/>
<text text-anchor="middle" x="734" y="-467.5" font-family="Arial" font-size="10.00">renderEntity_s</text>
</a>
</g>
</g>
<!-- Node3&#45;&gt;Node19 -->
<g id="edge25" class="edge"><title>Node3&#45;&gt;Node19</title>
<path fill="none" stroke="#9a32cd" stroke-dasharray="5,2" d="M298.201,-511.56C328.873,-513.423 375.372,-512.155 410,-493 421.359,-486.717 416.331,-475.685 428,-470 516.778,-426.745 638.078,-446.514 697.397,-460.436"/>
<polygon fill="#9a32cd" stroke="#9a32cd" points="298.293,-508.057 288.058,-510.794 297.766,-515.037 298.293,-508.057"/>
<text text-anchor="middle" x="488" y="-473" font-family="Arial" font-size="10.00"> axis</text>
</g>
<!-- Node4 -->
<g id="node4" class="node"><title>Node4</title>
<g id="a_node4"><a xlink:href="classid_entity.html" target="_top" xlink:title="idEntity">
<polygon fill="white" stroke="black" points="936,-366.5 936,-385.5 986,-385.5 986,-366.5 936,-366.5"/>
<text text-anchor="middle" x="961" y="-373.5" font-family="Arial" font-size="10.00">idEntity</text>
</a>
</g>
</g>
<!-- Node4&#45;&gt;Node1 -->
<g id="edge3" class="edge"><title>Node4&#45;&gt;Node1</title>
<path fill="none" stroke="#9a32cd" stroke-dasharray="5,2" d="M993.249,-362.427C1090.72,-320.087 1387.18,-191.316 1462.47,-158.615"/>
<polygon fill="#9a32cd" stroke="#9a32cd" points="991.705,-359.281 983.927,-366.476 994.493,-365.702 991.705,-359.281"/>
<text text-anchor="middle" x="1212" y="-275" font-family="Arial" font-size="10.00"> self</text>
</g>
<!-- Node4&#45;&gt;Node4 -->
<g id="edge13" class="edge"><title>Node4&#45;&gt;Node4</title>
<path fill="none" stroke="#9a32cd" stroke-dasharray="5,2" d="M943.223,-395.4C944.41,-400.315 950.336,-404 961,-404 978.063,-404 982.995,-394.565 975.796,-385.757"/>
<polygon fill="#9a32cd" stroke="#9a32cd" points="946.594,-396.345 946.204,-385.757 939.907,-394.278 946.594,-396.345"/>
<text text-anchor="middle" x="961" y="-407" font-family="Arial" font-size="10.00"> cameraTarget</text>
</g>
<!-- Node32 -->
<g id="node32" class="node"><title>Node32</title>
<g id="a_node32"><a xlink:href="classid_physics___base.html" target="_top" xlink:title="idPhysics_Base">
<polygon fill="white" stroke="black" points="1096.5,-516.5 1096.5,-535.5 1183.5,-535.5 1183.5,-516.5 1096.5,-516.5"/>
<text text-anchor="middle" x="1140" y="-523.5" font-family="Arial" font-size="10.00">idPhysics_Base</text>
</a>
</g>
</g>
<!-- Node4&#45;&gt;Node32 -->
<g id="edge52" class="edge"><title>Node4&#45;&gt;Node32</title>
<path fill="none" stroke="#9a32cd" stroke-dasharray="5,2" d="M981.359,-392.406C1018.31,-423.719 1097.85,-491.124 1127.52,-516.275"/>
<polygon fill="#9a32cd" stroke="#9a32cd" points="983.233,-389.406 973.341,-385.611 978.708,-394.747 983.233,-389.406"/>
<text text-anchor="middle" x="1057" y="-477" font-family="Arial" font-size="10.00"> self</text>
</g>
<!-- Node5 -->
<g id="node5" class="node"><title>Node5</title>
<g id="a_node5"><a xlink:href="classid_class.html" target="_top" xlink:title="idClass">
<polygon fill="white" stroke="black" points="709.5,-593.5 709.5,-612.5 758.5,-612.5 758.5,-593.5 709.5,-593.5"/>
<text text-anchor="middle" x="734" y="-600.5" font-family="Arial" font-size="10.00">idClass</text>
</a>
</g>
</g>
<!-- Node5&#45;&gt;Node4 -->
<g id="edge4" class="edge"><title>Node5&#45;&gt;Node4</title>
<path fill="none" stroke="midnightblue" d="M757.191,-588.837C789.454,-572.606 849.441,-544.357 886,-503 919.825,-464.735 944.204,-408.355 954.525,-385.507"/>
<polygon fill="midnightblue" stroke="midnightblue" points="755.423,-585.81 748.124,-593.489 758.619,-592.038 755.423,-585.81"/>
</g>
<!-- Node5&#45;&gt;Node4 -->
<g id="edge12" class="edge"><title>Node5&#45;&gt;Node4</title>
<path fill="none" stroke="midnightblue" d="M768.554,-596.688C802.142,-584.349 853.391,-557.889 886,-521 924.276,-477.7 950.455,-411.205 957.859,-385.685"/>
<polygon fill="midnightblue" stroke="midnightblue" points="767.058,-593.501 758.737,-600.06 769.332,-600.122 767.058,-593.501"/>
</g>
<!-- Node6 -->
<g id="node6" class="node"><title>Node6</title>
<g id="a_node6"><a xlink:href="classid_type_info.html" target="_top" xlink:title="idTypeInfo">
<polygon fill="white" stroke="black" points="931,-675.5 931,-694.5 991,-694.5 991,-675.5 931,-675.5"/>
<text text-anchor="middle" x="961" y="-682.5" font-family="Arial" font-size="10.00">idTypeInfo</text>
</a>
</g>
</g>
<!-- Node5&#45;&gt;Node6 -->
<g id="edge10" class="edge"><title>Node5&#45;&gt;Node6</title>
<path fill="none" stroke="#9a32cd" stroke-dasharray="5,2" d="M768.64,-611.13C806.303,-620.41 864.833,-635.409 886,-644 907.503,-652.727 930.651,-666.299 945.223,-675.412"/>
<polygon fill="#9a32cd" stroke="#9a32cd" points="769.165,-607.656 758.619,-608.675 767.499,-614.454 769.165,-607.656"/>
<text text-anchor="middle" x="851" y="-647" font-family="Arial" font-size="10.00"> CreateInstance</text>
</g>
<!-- Node33 -->
<g id="node33" class="node"><title>Node33</title>
<g id="a_node33"><a xlink:href="classid_physics.html" target="_top" xlink:title="idPhysics">
<polygon fill="white" stroke="black" points="931.5,-593.5 931.5,-612.5 990.5,-612.5 990.5,-593.5 931.5,-593.5"/>
<text text-anchor="middle" x="961" y="-600.5" font-family="Arial" font-size="10.00">idPhysics</text>
</a>
</g>
</g>
<!-- Node5&#45;&gt;Node33 -->
<g id="edge49" class="edge"><title>Node5&#45;&gt;Node33</title>
<path fill="none" stroke="midnightblue" d="M768.905,-598.005C813.18,-595.564 889.912,-595.669 931.397,-598.32"/>
<polygon fill="midnightblue" stroke="midnightblue" points="768.41,-594.53 758.654,-598.661 768.857,-601.516 768.41,-594.53"/>
</g>
<!-- Node5&#45;&gt;Node33 -->
<g id="edge50" class="edge"><title>Node5&#45;&gt;Node33</title>
<path fill="none" stroke="midnightblue" d="M768.905,-607.995C813.18,-610.436 889.912,-610.331 931.397,-607.68"/>
<polygon fill="midnightblue" stroke="midnightblue" points="768.857,-604.484 758.654,-607.339 768.41,-611.47 768.857,-604.484"/>
</g>
<!-- Node6&#45;&gt;Node5 -->
<g id="edge5" class="edge"><title>Node6&#45;&gt;Node5</title>
<path fill="none" stroke="#9a32cd" stroke-dasharray="5,2" d="M920.919,-681.62C891.254,-678.062 849.925,-670.946 816,-657 788.801,-645.819 761.156,-624.89 746.236,-612.63"/>
<polygon fill="#9a32cd" stroke="#9a32cd" points="920.568,-685.102 930.895,-682.735 921.345,-678.145 920.568,-685.102"/>
<text text-anchor="middle" x="851" y="-680" font-family="Arial" font-size="10.00"> Type</text>
</g>
<!-- Node6&#45;&gt;Node6 -->
<g id="edge6" class="edge"><title>Node6&#45;&gt;Node6</title>
<path fill="none" stroke="#9a32cd" stroke-dasharray="5,2" d="M943.223,-704.4C944.41,-709.315 950.336,-713 961,-713 978.063,-713 982.995,-703.565 975.796,-694.757"/>
<polygon fill="#9a32cd" stroke="#9a32cd" points="946.594,-705.345 946.204,-694.757 939.907,-703.278 946.594,-705.345"/>
<text text-anchor="middle" x="961" y="-727" font-family="Arial" font-size="10.00"> next</text>
<text text-anchor="middle" x="961" y="-716" font-family="Arial" font-size="10.00">super</text>
</g>
<!-- Node7 -->
<g id="node7" class="node"><title>Node7</title>
<g id="a_node7"><a xlink:href="classid_hierarchy.html" target="_top" xlink:title="idHierarchy\&lt; idTypeInfo \&gt;">
<polygon fill="white" stroke="black" points="670.5,-683.5 670.5,-702.5 797.5,-702.5 797.5,-683.5 670.5,-683.5"/>
<text text-anchor="middle" x="734" y="-690.5" font-family="Arial" font-size="10.00">idHierarchy&lt; idTypeInfo &gt;</text>
</a>
</g>
</g>
<!-- Node7&#45;&gt;Node6 -->
<g id="edge7" class="edge"><title>Node7&#45;&gt;Node6</title>
<path fill="none" stroke="#9a32cd" stroke-dasharray="5,2" d="M807.902,-693.03C832.697,-692.775 860.566,-692.198 886,-691 900.806,-690.302 917.243,-689.021 930.858,-687.821"/>
<polygon fill="#9a32cd" stroke="#9a32cd" points="807.812,-689.53 797.843,-693.117 807.873,-696.53 807.812,-689.53"/>
<text text-anchor="middle" x="851" y="-696" font-family="Arial" font-size="10.00"> node</text>
</g>
<!-- Node8 -->
<g id="node8" class="node"><title>Node8</title>
<g id="a_node8"><a xlink:href="structid_event_func.html" target="_top" xlink:title="idEventFunc\&lt; idClass \&gt;">
<polygon fill="white" stroke="black" points="428,-729.5 428,-748.5 548,-748.5 548,-729.5 428,-729.5"/>
<text text-anchor="middle" x="488" y="-736.5" font-family="Arial" font-size="10.00">idEventFunc&lt; idClass &gt;</text>
</a>
</g>
</g>
<!-- Node8&#45;&gt;Node5 -->
<g id="edge11" class="edge"><title>Node8&#45;&gt;Node5</title>
<path fill="none" stroke="#9a32cd" stroke-dasharray="5,2" d="M526.989,-726.228C539.383,-722.178 553.238,-717.775 566,-714 603.94,-702.776 618.147,-711.48 652,-691 660.928,-685.599 705.77,-634.43 724.626,-612.692"/>
<polygon fill="#9a32cd" stroke="#9a32cd" points="525.815,-722.929 517.411,-729.381 528.004,-729.578 525.815,-722.929"/>
<text text-anchor="middle" x="609" y="-717" font-family="Arial" font-size="10.00"> eventCallbacks</text>
</g>
<!-- Node8&#45;&gt;Node6 -->
<g id="edge8" class="edge"><title>Node8&#45;&gt;Node6</title>
<path fill="none" stroke="#9a32cd" stroke-dasharray="5,2" d="M558.472,-738.256C638.216,-736.324 772.616,-729.763 886,-708 902.383,-704.855 920.257,-699.361 934.334,-694.531"/>
<polygon fill="#9a32cd" stroke="#9a32cd" points="557.987,-734.766 548.068,-738.489 558.144,-741.764 557.987,-734.766"/>
<text text-anchor="middle" x="734" y="-736" font-family="Arial" font-size="10.00"> eventCallbacks</text>
</g>
<!-- Node9 -->
<g id="node9" class="node"><title>Node9</title>
<g id="a_node9"><a xlink:href="classid_event_def.html" target="_top" xlink:title="idEventDef">
<polygon fill="white" stroke="black" points="234,-801.5 234,-820.5 296,-820.5 296,-801.5 234,-801.5"/>
<text text-anchor="middle" x="265" y="-808.5" font-family="Arial" font-size="10.00">idEventDef</text>
</a>
</g>
</g>
<!-- Node9&#45;&gt;Node8 -->
<g id="edge9" class="edge"><title>Node9&#45;&gt;Node8</title>
<path fill="none" stroke="#9a32cd" stroke-dasharray="5,2" d="M305.038,-798.282C348.645,-784.075 418.254,-761.397 457.532,-748.601"/>
<polygon fill="#9a32cd" stroke="#9a32cd" points="303.771,-795.013 295.347,-801.439 305.939,-801.669 303.771,-795.013"/>
<text text-anchor="middle" x="374" y="-788" font-family="Arial" font-size="10.00"> event</text>
</g>
<!-- Node10 -->
<g id="node10" class="node"><title>Node10</title>
<g id="a_node10"><a xlink:href="classid_str.html" target="_top" xlink:title="idStr">
<polygon fill="white" stroke="black" points="715.5,-114.5 715.5,-133.5 752.5,-133.5 752.5,-114.5 715.5,-114.5"/>
<text text-anchor="middle" x="734" y="-121.5" font-family="Arial" font-size="10.00">idStr</text>
</a>
</g>
</g>
<!-- Node10&#45;&gt;Node1 -->
<g id="edge45" class="edge"><title>Node10&#45;&gt;Node1</title>
<path fill="none" stroke="#9a32cd" stroke-dasharray="5,2" d="M762.921,-125.631C805.441,-127.971 888.985,-132 960,-132 960,-132 960,-132 1308,-132 1364.78,-132 1431.47,-142.356 1462.49,-147.777"/>
<polygon fill="#9a32cd" stroke="#9a32cd" points="762.965,-122.128 752.785,-125.062 762.573,-129.117 762.965,-122.128"/>
<text text-anchor="middle" x="1140" y="-135" font-family="Arial" font-size="10.00"> name</text>
</g>
<!-- Node10&#45;&gt;Node4 -->
<g id="edge14" class="edge"><title>Node10&#45;&gt;Node4</title>
<path fill="none" stroke="#9a32cd" stroke-dasharray="5,2" d="M762.302,-131.416C795.99,-141.924 852.863,-164.306 886,-203 930.622,-255.105 951.832,-338.139 958.013,-366.297"/>
<polygon fill="#9a32cd" stroke="#9a32cd" points="763.227,-128.04 752.643,-128.531 761.223,-134.747 763.227,-128.04"/>
<text text-anchor="middle" x="851" y="-206" font-family="Arial" font-size="10.00"> name</text>
</g>
<!-- Node11 -->
<g id="node11" class="node"><title>Node11</title>
<g id="a_node11"><a xlink:href="structid_entity_1_1entity_flags__s.html" target="_top" xlink:title="idEntity::entityFlags_s">
<polygon fill="white" stroke="black" points="677,-422.5 677,-441.5 791,-441.5 791,-422.5 677,-422.5"/>
<text text-anchor="middle" x="734" y="-429.5" font-family="Arial" font-size="10.00">idEntity::entityFlags_s</text>
</a>
</g>
</g>
<!-- Node11&#45;&gt;Node4 -->
<g id="edge15" class="edge"><title>Node11&#45;&gt;Node4</title>
<path fill="none" stroke="#9a32cd" stroke-dasharray="5,2" d="M801.07,-426.518C827.811,-423.234 858.744,-418.065 886,-410 906.336,-403.983 928.247,-393.344 942.905,-385.565"/>
<polygon fill="#9a32cd" stroke="#9a32cd" points="800.571,-423.052 791.043,-427.686 801.381,-430.005 800.571,-423.052"/>
<text text-anchor="middle" x="851" y="-428" font-family="Arial" font-size="10.00"> fl</text>
</g>
<!-- Node12&#45;&gt;Node4 -->
<g id="edge16" class="edge"><title>Node12&#45;&gt;Node4</title>
<path fill="none" stroke="#9a32cd" stroke-dasharray="5,2" d="M512.264,-353.142C545.627,-332.807 609.704,-297.31 670,-284 725.552,-271.738 742.18,-273.024 798,-284 839.463,-292.153 849.288,-299.074 886,-320 910.075,-333.723 935.204,-354.285 949.103,-366.301"/>
<polygon fill="#9a32cd" stroke="#9a32cd" points="510.358,-350.206 503.697,-358.445 514.042,-356.158 510.358,-350.206"/>
<text text-anchor="middle" x="734" y="-287" font-family="Arial" font-size="10.00"> renderView</text>
</g>
<!-- Node12&#45;&gt;Node19 -->
<g id="edge29" class="edge"><title>Node12&#45;&gt;Node19</title>
<path fill="none" stroke="#9a32cd" stroke-dasharray="5,2" d="M535.837,-361.295C571.739,-358.88 620.342,-361.889 652,-389 673.794,-407.664 649.816,-430.606 670,-451 676.429,-457.496 684.992,-461.787 693.728,-464.618"/>
<polygon fill="#9a32cd" stroke="#9a32cd" points="535.279,-357.83 525.605,-362.151 535.862,-364.805 535.279,-357.83"/>
<text text-anchor="middle" x="609" y="-392" font-family="Arial" font-size="10.00"> remoteRenderView</text>
</g>
<!-- Node13 -->
<g id="node13" class="node"><title>Node13</title>
<g id="a_node13"><a xlink:href="classid_vec3.html" target="_top" xlink:title="idVec3">
<polygon fill="white" stroke="black" points="241.5,-265.5 241.5,-284.5 288.5,-284.5 288.5,-265.5 241.5,-265.5"/>
<text text-anchor="middle" x="265" y="-272.5" font-family="Arial" font-size="10.00">idVec3</text>
</a>
</g>
</g>
<!-- Node13&#45;&gt;Node1 -->
<g id="edge59" class="edge"><title>Node13&#45;&gt;Node1</title>
<path fill="none" stroke="#9a32cd" stroke-dasharray="5,2" d="M298.525,-269.646C306.592,-266.832 314.495,-262.541 320,-256 351.051,-219.103 308.102,-186.837 338,-149 382.576,-92.5873 415.102,-86 487,-86 487,-86 487,-86 1308,-86 1369.93,-86 1436.77,-123.328 1465.52,-141.409"/>
<polygon fill="#9a32cd" stroke="#9a32cd" points="297.43,-266.318 288.753,-272.398 299.327,-273.056 297.43,-266.318"/>
<text text-anchor="middle" x="961" y="-89" font-family="Arial" font-size="10.00"> baseOrigin</text>
</g>
<!-- Node13&#45;&gt;Node12 -->
<g id="edge18" class="edge"><title>Node13&#45;&gt;Node12</title>
<path fill="none" stroke="#9a32cd" stroke-dasharray="5,2" d="M294.682,-289.109C307.741,-295.282 323.491,-302.381 338,-308 369.326,-320.132 378.786,-318.584 410,-331 430.672,-339.222 453.555,-350.512 468.96,-358.452"/>
<polygon fill="#9a32cd" stroke="#9a32cd" points="295.816,-285.772 285.285,-284.609 292.793,-292.085 295.816,-285.772"/>
<text text-anchor="middle" x="374" y="-334" font-family="Arial" font-size="10.00"> vieworg</text>
</g>
<!-- Node13&#45;&gt;Node19 -->
<g id="edge33" class="edge"><title>Node13&#45;&gt;Node19</title>
<path fill="none" stroke="#9a32cd" stroke-dasharray="5,2" d="M298.548,-277.377C382.375,-284.178 602.564,-306.559 652,-357 681.774,-387.379 641.521,-419.403 670,-451 676.272,-457.958 684.989,-462.409 693.943,-465.243"/>
<polygon fill="#9a32cd" stroke="#9a32cd" points="298.809,-273.887 288.565,-276.589 298.258,-280.865 298.809,-273.887"/>
<text text-anchor="middle" x="488" y="-316" font-family="Arial" font-size="10.00"> origin</text>
</g>
<!-- Node27 -->
<g id="node27" class="node"><title>Node27</title>
<g id="a_node27"><a xlink:href="structref_sound__t.html" target="_top" xlink:title="refSound_t">
<polygon fill="white" stroke="black" points="456.5,-203.5 456.5,-222.5 519.5,-222.5 519.5,-203.5 456.5,-203.5"/>
<text text-anchor="middle" x="488" y="-210.5" font-family="Arial" font-size="10.00">refSound_t</text>
</a>
</g>
</g>
<!-- Node13&#45;&gt;Node27 -->
<g id="edge43" class="edge"><title>Node13&#45;&gt;Node27</title>
<path fill="none" stroke="#9a32cd" stroke-dasharray="5,2" d="M299.043,-271.468C328.939,-267.448 373.709,-259.345 410,-244 418.856,-240.256 419.341,-236.18 428,-232 436.916,-227.696 447.043,-224.031 456.36,-221.103"/>
<polygon fill="#9a32cd" stroke="#9a32cd" points="298.227,-268.043 288.745,-272.77 299.106,-274.988 298.227,-268.043"/>
<text text-anchor="middle" x="374" y="-268" font-family="Arial" font-size="10.00"> origin</text>
</g>
<!-- Node13&#45;&gt;Node32 -->
<g id="edge55" class="edge"><title>Node13&#45;&gt;Node32</title>
<path fill="none" stroke="#9a32cd" stroke-dasharray="5,2" d="M298.181,-269.087C306.179,-266.272 314.133,-262.121 320,-256 338.972,-236.21 316.242,-213.679 338,-197 500.272,-72.6122 602.156,-132.265 798,-191 978.845,-245.236 1107.57,-467.638 1133.99,-516.485"/>
<polygon fill="#9a32cd" stroke="#9a32cd" points="297.159,-265.739 288.54,-271.9 299.12,-272.458 297.159,-265.739"/>
<text text-anchor="middle" x="734" y="-205" font-family="Arial" font-size="10.00"> gravityNormal</text>
<text text-anchor="middle" x="734" y="-194" font-family="Arial" font-size="10.00">gravityVector</text>
</g>
<!-- Node14 -->
<g id="node14" class="node"><title>Node14</title>
<g id="a_node14"><a xlink:href="classid_material.html" target="_top" xlink:title="idMaterial">
<polygon fill="white" stroke="black" points="235.5,-426.5 235.5,-445.5 294.5,-445.5 294.5,-426.5 235.5,-426.5"/>
<text text-anchor="middle" x="265" y="-433.5" font-family="Arial" font-size="10.00">idMaterial</text>
</a>
</g>
</g>
<!-- Node14&#45;&gt;Node12 -->
<g id="edge19" class="edge"><title>Node14&#45;&gt;Node12</title>
<path fill="none" stroke="#9a32cd" stroke-dasharray="5,2" d="M304.716,-424.088C347.729,-410.852 416.328,-389.745 455.965,-377.549"/>
<polygon fill="#9a32cd" stroke="#9a32cd" points="303.42,-420.824 294.892,-427.11 305.479,-427.514 303.42,-420.824"/>
<text text-anchor="middle" x="374" y="-416" font-family="Arial" font-size="10.00"> globalMaterial</text>
</g>
<!-- Node14&#45;&gt;Node19 -->
<g id="edge35" class="edge"><title>Node14&#45;&gt;Node19</title>
<path fill="none" stroke="#9a32cd" stroke-dasharray="5,2" d="M283.404,-453.092C325.209,-494.146 427.855,-594.941 428,-595 520.265,-632.713 574.975,-647.265 652,-584 672.857,-566.869 655.377,-548.686 670,-526 682.606,-506.443 703.856,-489.577 718.149,-479.603"/>
<polygon fill="#9a32cd" stroke="#9a32cd" points="285.71,-450.451 276.123,-445.942 280.806,-455.446 285.71,-450.451"/>
<text text-anchor="middle" x="488" y="-642" font-family="Arial" font-size="10.00"> customShader</text>
<text text-anchor="middle" x="488" y="-631" font-family="Arial" font-size="10.00">referenceShader</text>
</g>
<!-- Node15 -->
<g id="node15" class="node"><title>Node15</title>
<g id="a_node15"><a xlink:href="classid_decl.html" target="_top" xlink:title="idDecl">
<polygon fill="white" stroke="black" points="128,-426.5 128,-445.5 172,-445.5 172,-426.5 128,-426.5"/>
<text text-anchor="middle" x="150" y="-433.5" font-family="Arial" font-size="10.00">idDecl</text>
</a>
</g>
</g>
<!-- Node15&#45;&gt;Node14 -->
<g id="edge20" class="edge"><title>Node15&#45;&gt;Node14</title>
<path fill="none" stroke="midnightblue" d="M182.507,-436C199.008,-436 219.073,-436 235.163,-436"/>
<polygon fill="midnightblue" stroke="midnightblue" points="182.254,-432.5 172.254,-436 182.254,-439.5 182.254,-432.5"/>
</g>
<!-- Node20 -->
<g id="node20" class="node"><title>Node20</title>
<g id="a_node20"><a xlink:href="classid_decl_skin.html" target="_top" xlink:title="idDeclSkin">
<polygon fill="white" stroke="black" points="342.5,-636.5 342.5,-655.5 405.5,-655.5 405.5,-636.5 342.5,-636.5"/>
<text text-anchor="middle" x="374" y="-643.5" font-family="Arial" font-size="10.00">idDeclSkin</text>
</a>
</g>
</g>
<!-- Node15&#45;&gt;Node20 -->
<g id="edge27" class="edge"><title>Node15&#45;&gt;Node20</title>
<path fill="none" stroke="midnightblue" d="M160.419,-454.602C170.834,-474.042 188.953,-504.754 210,-527 255.992,-575.613 324.09,-617.929 355.706,-636.283"/>
<polygon fill="midnightblue" stroke="midnightblue" points="163.432,-452.811 155.699,-445.568 157.227,-456.052 163.432,-452.811"/>
</g>
<!-- Node29 -->
<g id="node29" class="node"><title>Node29</title>
<g id="a_node29"><a xlink:href="classid_sound_shader.html" target="_top" xlink:title="idSoundShader">
<polygon fill="white" stroke="black" points="223.5,-189.5 223.5,-208.5 306.5,-208.5 306.5,-189.5 223.5,-189.5"/>
<text text-anchor="middle" x="265" y="-196.5" font-family="Arial" font-size="10.00">idSoundShader</text>
</a>
</g>
</g>
<!-- Node15&#45;&gt;Node29 -->
<g id="edge41" class="edge"><title>Node15&#45;&gt;Node29</title>
<path fill="none" stroke="midnightblue" d="M150.579,-416.171C150.778,-374.045 157.211,-274.848 210,-218 213.719,-213.995 218.333,-210.833 223.285,-208.338"/>
<polygon fill="midnightblue" stroke="midnightblue" points="147.079,-416.267 150.65,-426.242 154.079,-416.217 147.079,-416.267"/>
</g>
<!-- Node16 -->
<g id="node16" class="node"><title>Node16</title>
<g id="a_node16"><a xlink:href="classid_decl_base.html" target="_top" xlink:title="idDeclBase">
<polygon fill="white" stroke="black" points="0,-426.5 0,-445.5 66,-445.5 66,-426.5 0,-426.5"/>
<text text-anchor="middle" x="33" y="-433.5" font-family="Arial" font-size="10.00">idDeclBase</text>
</a>
</g>
</g>
<!-- Node16&#45;&gt;Node15 -->
<g id="edge21" class="edge"><title>Node16&#45;&gt;Node15</title>
<path fill="none" stroke="#9a32cd" stroke-dasharray="5,2" d="M76.0643,-436C93.5984,-436 113.201,-436 127.664,-436"/>
<polygon fill="#9a32cd" stroke="#9a32cd" points="76.0339,-432.5 66.0339,-436 76.0339,-439.5 76.0339,-432.5"/>
<text text-anchor="middle" x="97" y="-439" font-family="Arial" font-size="10.00"> base</text>
</g>
<!-- Node17 -->
<g id="node17" class="node"><title>Node17</title>
<g id="a_node17"><a xlink:href="classid_list.html" target="_top" xlink:title="idList\&lt; idEntityPtr\l\&lt; idEntity \&gt; \&gt;">
<polygon fill="white" stroke="black" points="686.5,-536 686.5,-566 781.5,-566 781.5,-536 686.5,-536"/>
<text text-anchor="start" x="694.5" y="-554" font-family="Arial" font-size="10.00">idList&lt; idEntityPtr</text>
<text text-anchor="middle" x="734" y="-543" font-family="Arial" font-size="10.00">&lt; idEntity &gt; &gt;</text>
</a>
</g>
</g>
<!-- Node17&#45;&gt;Node4 -->
<g id="edge22" class="edge"><title>Node17&#45;&gt;Node4</title>
<path fill="none" stroke="#9a32cd" stroke-dasharray="5,2" d="M777.072,-531.028C784.259,-527.04 791.498,-522.639 798,-518 806.958,-511.609 806.582,-506.691 816,-501 844.149,-483.99 859.51,-496.493 886,-477 920.491,-451.62 945.719,-405.491 955.516,-385.577"/>
<polygon fill="#9a32cd" stroke="#9a32cd" points="775.225,-528.046 768.053,-535.845 778.523,-534.221 775.225,-528.046"/>
<text text-anchor="middle" x="851" y="-504" font-family="Arial" font-size="10.00"> targets</text>
</g>
<!-- Node17&#45;&gt;Node32 -->
<g id="edge53" class="edge"><title>Node17&#45;&gt;Node32</title>
<path fill="none" stroke="#9a32cd" stroke-dasharray="5,2" d="M791.863,-544.815C824.617,-541.453 866.586,-537.486 904,-535 971.015,-530.548 1048.94,-528.101 1096.08,-526.921"/>
<polygon fill="#9a32cd" stroke="#9a32cd" points="791.155,-541.369 781.57,-545.882 791.877,-548.332 791.155,-541.369"/>
<text text-anchor="middle" x="961" y="-538" font-family="Arial" font-size="10.00"> contactEntities</text>
</g>
<!-- Node18 -->
<g id="node18" class="node"><title>Node18</title>
<g id="a_node18"><a xlink:href="classid_link_list.html" target="_top" xlink:title="idLinkList\&lt; idEntity \&gt;">
<polygon fill="white" stroke="black" points="679.5,-380.5 679.5,-399.5 788.5,-399.5 788.5,-380.5 679.5,-380.5"/>
<text text-anchor="middle" x="734" y="-387.5" font-family="Arial" font-size="10.00">idLinkList&lt; idEntity &gt;</text>
</a>
</g>
</g>
<!-- Node18&#45;&gt;Node4 -->
<g id="edge23" class="edge"><title>Node18&#45;&gt;Node4</title>
<path fill="none" stroke="#9a32cd" stroke-dasharray="5,2" d="M796.809,-379.088C803.273,-378.244 809.759,-377.519 816,-377 858.105,-373.495 907.375,-374.182 935.999,-375.054"/>
<polygon fill="#9a32cd" stroke="#9a32cd" points="796.129,-375.649 786.71,-380.5 797.098,-382.581 796.129,-375.649"/>
<text text-anchor="middle" x="851" y="-402" font-family="Arial" font-size="10.00"> spawnNode</text>
<text text-anchor="middle" x="851" y="-391" font-family="Arial" font-size="10.00">snapshotNode</text>
<text text-anchor="middle" x="851" y="-380" font-family="Arial" font-size="10.00">activeNode</text>
</g>
<!-- Node19&#45;&gt;Node4 -->
<g id="edge24" class="edge"><title>Node19&#45;&gt;Node4</title>
<path fill="none" stroke="#9a32cd" stroke-dasharray="5,2" d="M784.292,-466.649C814.839,-463.042 854.178,-455.552 886,-440 913.774,-426.426 939.459,-399.805 951.987,-385.549"/>
<polygon fill="#9a32cd" stroke="#9a32cd" points="783.859,-463.176 774.293,-467.73 784.611,-470.135 783.859,-463.176"/>
<text text-anchor="middle" x="851" y="-465" font-family="Arial" font-size="10.00"> renderEntity</text>
</g>
<!-- Node19&#45;&gt;Node19 -->
<g id="edge34" class="edge"><title>Node19&#45;&gt;Node19</title>
<path fill="none" stroke="#9a32cd" stroke-dasharray="5,2" d="M712.52,-489.4C713.954,-494.315 721.114,-498 734,-498 754.617,-498 760.577,-488.565 751.879,-479.757"/>
<polygon fill="#9a32cd" stroke="#9a32cd" points="715.901,-490.35 716.121,-479.757 709.343,-487.9 715.901,-490.35"/>
<text text-anchor="middle" x="734" y="-501" font-family="Arial" font-size="10.00"> callback</text>
</g>
<!-- Node20&#45;&gt;Node19 -->
<g id="edge26" class="edge"><title>Node20&#45;&gt;Node19</title>
<path fill="none" stroke="#9a32cd" stroke-dasharray="5,2" d="M412.877,-658.481C472.44,-675.462 587.809,-697.223 652,-636 687.848,-601.809 646.112,-569.399 670,-526 681.079,-505.872 702.264,-489.37 716.992,-479.617"/>
<polygon fill="#9a32cd" stroke="#9a32cd" points="413.703,-655.075 403.121,-655.599 411.72,-661.789 413.703,-655.075"/>
<text text-anchor="middle" x="488" y="-680" font-family="Arial" font-size="10.00"> customSkin</text>
</g>
<!-- Node21 -->
<g id="node21" class="node"><title>Node21</title>
<g id="a_node21"><a xlink:href="classid_joint_mat.html" target="_top" xlink:title="idJointMat">
<polygon fill="white" stroke="black" points="457.5,-241.5 457.5,-260.5 518.5,-260.5 518.5,-241.5 457.5,-241.5"/>
<text text-anchor="middle" x="488" y="-248.5" font-family="Arial" font-size="10.00">idJointMat</text>
</a>
</g>
</g>
<!-- Node21&#45;&gt;Node19 -->
<g id="edge28" class="edge"><title>Node21&#45;&gt;Node19</title>
<path fill="none" stroke="#9a32cd" stroke-dasharray="5,2" d="M528.785,-243.64C566.071,-239.258 620.635,-239.747 652,-272 679.872,-300.661 644.581,-420.143 670,-451 676.029,-458.319 684.771,-462.889 693.833,-465.723"/>
<polygon fill="#9a32cd" stroke="#9a32cd" points="528.206,-240.187 518.76,-244.983 529.136,-247.125 528.206,-240.187"/>
<text text-anchor="middle" x="609" y="-275" font-family="Arial" font-size="10.00"> joints</text>
</g>
<!-- Node22 -->
<g id="node22" class="node"><title>Node22</title>
<g id="a_node22"><a xlink:href="classid_sound_emitter.html" target="_top" xlink:title="idSoundEmitter">
<polygon fill="white" stroke="black" points="223.5,-371.5 223.5,-390.5 306.5,-390.5 306.5,-371.5 223.5,-371.5"/>
<text text-anchor="middle" x="265" y="-378.5" font-family="Arial" font-size="10.00">idSoundEmitter</text>
</a>
</g>
</g>
<!-- Node22&#45;&gt;Node19 -->
<g id="edge30" class="edge"><title>Node22&#45;&gt;Node19</title>
<path fill="none" stroke="#9a32cd" stroke-dasharray="5,2" d="M294.663,-394.793C307.612,-400.431 323.28,-406.451 338,-410 474.287,-442.856 519.236,-394.975 652,-440 660.879,-443.011 661.442,-447.171 670,-451 678.134,-454.639 687.159,-457.825 695.779,-460.495"/>
<polygon fill="#9a32cd" stroke="#9a32cd" points="295.907,-391.515 285.352,-390.603 293.035,-397.898 295.907,-391.515"/>
<text text-anchor="middle" x="488" y="-426" font-family="Arial" font-size="10.00"> referenceSound</text>
</g>
<!-- Node22&#45;&gt;Node27 -->
<g id="edge42" class="edge"><title>Node22&#45;&gt;Node27</title>
<path fill="none" stroke="#9a32cd" stroke-dasharray="5,2" d="M316.735,-373.207C352.966,-366.582 397.429,-355.928 410,-342 443.193,-305.226 395.682,-269.545 428,-232 435.161,-223.681 445.982,-218.975 456.409,-216.324"/>
<polygon fill="#9a32cd" stroke="#9a32cd" points="316.006,-369.782 306.768,-374.969 317.224,-376.675 316.006,-369.782"/>
<text text-anchor="middle" x="374" y="-372" font-family="Arial" font-size="10.00"> referenceSound</text>
</g>
<!-- Node23 -->
<g id="node23" class="node"><title>Node23</title>
<g id="a_node23"><a xlink:href="classid_render_model.html" target="_top" xlink:title="idRenderModel">
<polygon fill="white" stroke="black" points="447.5,-566.5 447.5,-585.5 528.5,-585.5 528.5,-566.5 447.5,-566.5"/>
<text text-anchor="middle" x="488" y="-573.5" font-family="Arial" font-size="10.00">idRenderModel</text>
</a>
</g>
</g>
<!-- Node23&#45;&gt;Node19 -->
<g id="edge31" class="edge"><title>Node23&#45;&gt;Node19</title>
<path fill="none" stroke="#9a32cd" stroke-dasharray="5,2" d="M538.768,-572.355C572.236,-568.322 616.545,-559.838 652,-542 652.065,-541.967 699.996,-499.348 722.086,-479.705"/>
<polygon fill="#9a32cd" stroke="#9a32cd" points="538.303,-568.885 528.751,-573.469 539.076,-575.842 538.303,-568.885"/>
<text text-anchor="middle" x="609" y="-572" font-family="Arial" font-size="10.00"> hModel</text>
</g>
<!-- Node24 -->
<g id="node24" class="node"><title>Node24</title>
<g id="a_node24"><a xlink:href="classid_bounds.html" target="_top" xlink:title="idBounds">
<polygon fill="white" stroke="black" points="459.5,-528.5 459.5,-547.5 516.5,-547.5 516.5,-528.5 459.5,-528.5"/>
<text text-anchor="middle" x="488" y="-535.5" font-family="Arial" font-size="10.00">idBounds</text>
</a>
</g>
</g>
<!-- Node24&#45;&gt;Node19 -->
<g id="edge32" class="edge"><title>Node24&#45;&gt;Node19</title>
<path fill="none" stroke="#9a32cd" stroke-dasharray="5,2" d="M526.825,-533.035C560.251,-528.069 610.065,-519.25 652,-506 674.304,-498.953 698.678,-487.583 714.8,-479.508"/>
<polygon fill="#9a32cd" stroke="#9a32cd" points="525.977,-529.621 516.579,-534.512 526.976,-536.549 525.977,-529.621"/>
<text text-anchor="middle" x="609" y="-530" font-family="Arial" font-size="10.00"> bounds</text>
</g>
<!-- Node25 -->
<g id="node25" class="node"><title>Node25</title>
<g id="a_node25"><a xlink:href="classid_user_interface.html" target="_top" xlink:title="idUserInterface">
<polygon fill="white" stroke="black" points="447.5,-490.5 447.5,-509.5 528.5,-509.5 528.5,-490.5 447.5,-490.5"/>
<text text-anchor="middle" x="488" y="-497.5" font-family="Arial" font-size="10.00">idUserInterface</text>
</a>
</g>
</g>
<!-- Node25&#45;&gt;Node19 -->
<g id="edge36" class="edge"><title>Node25&#45;&gt;Node19</title>
<path fill="none" stroke="#9a32cd" stroke-dasharray="5,2" d="M538.749,-493.883C584.531,-488.254 651.532,-480.017 693.675,-474.835"/>
<polygon fill="#9a32cd" stroke="#9a32cd" points="538.244,-490.419 528.746,-495.113 539.098,-497.367 538.244,-490.419"/>
<text text-anchor="middle" x="609" y="-494" font-family="Arial" font-size="10.00"> gui</text>
</g>
<!-- Node26 -->
<g id="node26" class="node"><title>Node26</title>
<g id="a_node26"><a xlink:href="classid_dict.html" target="_top" xlink:title="idDict">
<polygon fill="white" stroke="black" points="713.5,-342.5 713.5,-361.5 754.5,-361.5 754.5,-342.5 713.5,-342.5"/>
<text text-anchor="middle" x="734" y="-349.5" font-family="Arial" font-size="10.00">idDict</text>
</a>
</g>
</g>
<!-- Node26&#45;&gt;Node4 -->
<g id="edge37" class="edge"><title>Node26&#45;&gt;Node4</title>
<path fill="none" stroke="#9a32cd" stroke-dasharray="5,2" d="M765.035,-352.18C795.601,-352.693 844.286,-354.422 886,-360 902.806,-362.247 921.465,-366.293 935.842,-369.753"/>
<polygon fill="#9a32cd" stroke="#9a32cd" points="764.685,-348.675 754.639,-352.041 764.592,-355.674 764.685,-348.675"/>
<text text-anchor="middle" x="851" y="-363" font-family="Arial" font-size="10.00"> spawnArgs</text>
</g>
<!-- Node27&#45;&gt;Node4 -->
<g id="edge38" class="edge"><title>Node27&#45;&gt;Node4</title>
<path fill="none" stroke="#9a32cd" stroke-dasharray="5,2" d="M529.934,-210.489C606.385,-207.809 773.311,-211.626 886,-285 919.105,-306.555 944.532,-347.7 954.906,-366.366"/>
<polygon fill="#9a32cd" stroke="#9a32cd" points="529.611,-206.999 519.762,-210.904 529.896,-213.993 529.611,-206.999"/>
<text text-anchor="middle" x="734" y="-245" font-family="Arial" font-size="10.00"> refSound</text>
</g>
<!-- Node28 -->
<g id="node28" class="node"><title>Node28</title>
<g id="a_node28"><a xlink:href="structsound_shader_parms__t.html" target="_top" xlink:title="soundShaderParms_t">
<polygon fill="white" stroke="black" points="210,-227.5 210,-246.5 320,-246.5 320,-227.5 210,-227.5"/>
<text text-anchor="middle" x="265" y="-234.5" font-family="Arial" font-size="10.00">soundShaderParms_t</text>
</a>
</g>
</g>
<!-- Node28&#45;&gt;Node27 -->
<g id="edge39" class="edge"><title>Node28&#45;&gt;Node27</title>
<path fill="none" stroke="#9a32cd" stroke-dasharray="5,2" d="M330.097,-230.039C371.612,-225.531 423.806,-219.863 456.29,-216.335"/>
<polygon fill="#9a32cd" stroke="#9a32cd" points="329.626,-226.57 320.063,-231.129 330.382,-233.529 329.626,-226.57"/>
<text text-anchor="middle" x="374" y="-232" font-family="Arial" font-size="10.00"> parms</text>
</g>
<!-- Node29&#45;&gt;Node27 -->
<g id="edge40" class="edge"><title>Node29&#45;&gt;Node27</title>
<path fill="none" stroke="#9a32cd" stroke-dasharray="5,2" d="M316.906,-199.755C344.488,-200.419 379.145,-201.665 410,-204 425.3,-205.158 442.242,-207.069 456.331,-208.833"/>
<polygon fill="#9a32cd" stroke="#9a32cd" points="316.78,-196.251 306.704,-199.528 316.624,-203.25 316.78,-196.251"/>
<text text-anchor="middle" x="374" y="-207" font-family="Arial" font-size="10.00"> shader</text>
</g>
<!-- Node30 -->
<g id="node30" class="node"><title>Node30</title>
<g id="a_node30"><a xlink:href="classid_script_object.html" target="_top" xlink:title="idScriptObject">
<polygon fill="white" stroke="black" points="695,-304.5 695,-323.5 773,-323.5 773,-304.5 695,-304.5"/>
<text text-anchor="middle" x="734" y="-311.5" font-family="Arial" font-size="10.00">idScriptObject</text>
</a>
</g>
</g>
<!-- Node30&#45;&gt;Node4 -->
<g id="edge44" class="edge"><title>Node30&#45;&gt;Node4</title>
<path fill="none" stroke="#9a32cd" stroke-dasharray="5,2" d="M783.476,-318.818C813.51,-322.663 852.592,-329.238 886,-340 906.806,-346.702 929.175,-358.252 943.806,-366.461"/>
<polygon fill="#9a32cd" stroke="#9a32cd" points="783.605,-315.307 773.255,-317.569 782.757,-322.256 783.605,-315.307"/>
<text text-anchor="middle" x="851" y="-343" font-family="Arial" font-size="10.00"> scriptObject</text>
</g>
<!-- Node31 -->
<g id="node31" class="node"><title>Node31</title>
<g id="a_node31"><a xlink:href="classid_physics___a_f.html" target="_top" xlink:title="idPhysics_AF">
<polygon fill="white" stroke="black" points="1268.5,-516.5 1268.5,-535.5 1345.5,-535.5 1345.5,-516.5 1268.5,-516.5"/>
<text text-anchor="middle" x="1307" y="-523.5" font-family="Arial" font-size="10.00">idPhysics_AF</text>
</a>
</g>
</g>
<!-- Node31&#45;&gt;Node1 -->
<g id="edge46" class="edge"><title>Node31&#45;&gt;Node1</title>
<path fill="none" stroke="#9a32cd" stroke-dasharray="5,2" d="M1316.77,-506.872C1347.96,-438.876 1452.82,-210.269 1475.6,-160.583"/>
<polygon fill="#9a32cd" stroke="#9a32cd" points="1313.41,-505.805 1312.42,-516.353 1319.77,-508.723 1313.41,-505.805"/>
<text text-anchor="middle" x="1418" y="-342" font-family="Arial" font-size="10.00"> physicsObj</text>
</g>
<!-- Node32&#45;&gt;Node31 -->
<g id="edge47" class="edge"><title>Node32&#45;&gt;Node31</title>
<path fill="none" stroke="midnightblue" d="M1194.03,-519.648C1218.24,-518.966 1246.35,-519.16 1268.35,-520.229"/>
<polygon fill="midnightblue" stroke="midnightblue" points="1193.8,-516.154 1183.92,-519.994 1194.03,-523.15 1193.8,-516.154"/>
</g>
<!-- Node32&#45;&gt;Node31 -->
<g id="edge56" class="edge"><title>Node32&#45;&gt;Node31</title>
<path fill="none" stroke="midnightblue" d="M1194.03,-532.352C1218.24,-533.034 1246.35,-532.84 1268.35,-531.771"/>
<polygon fill="midnightblue" stroke="midnightblue" points="1194.03,-528.85 1183.92,-532.006 1193.8,-535.846 1194.03,-528.85"/>
</g>
<!-- Node33&#45;&gt;Node32 -->
<g id="edge48" class="edge"><title>Node33&#45;&gt;Node32</title>
<path fill="none" stroke="midnightblue" d="M986.909,-589.898C1010.88,-581.387 1047.84,-570.298 1078,-556 1090.49,-550.077 1103.51,-542.043 1114.3,-535.52"/>
<polygon fill="midnightblue" stroke="midnightblue" points="985.648,-586.633 977.487,-593.39 988.08,-593.197 985.648,-586.633"/>
</g>
<!-- Node33&#45;&gt;Node32 -->
<g id="edge51" class="edge"><title>Node33&#45;&gt;Node32</title>
<path fill="none" stroke="midnightblue" d="M1000.97,-600.744C1023.94,-595.3 1053.26,-585.73 1078,-574 1099.58,-563.769 1122.73,-547.242 1133.23,-535.721"/>
<polygon fill="midnightblue" stroke="midnightblue" points="999.921,-597.391 990.901,-602.949 1001.42,-604.229 999.921,-597.391"/>
</g>
<!-- Node34 -->
<g id="node34" class="node"><title>Node34</title>
<g id="a_node34"><a xlink:href="classid_list.html" target="_top" xlink:title="idList\&lt; contactInfo_t \&gt;">
<polygon fill="white" stroke="black" points="904.5,-555.5 904.5,-574.5 1017.5,-574.5 1017.5,-555.5 904.5,-555.5"/>
<text text-anchor="middle" x="961" y="-562.5" font-family="Arial" font-size="10.00">idList&lt; contactInfo_t &gt;</text>
</a>
</g>
</g>
<!-- Node34&#45;&gt;Node32 -->
<g id="edge54" class="edge"><title>Node34&#45;&gt;Node32</title>
<path fill="none" stroke="#9a32cd" stroke-dasharray="5,2" d="M1016.79,-553.349C1036.14,-549.192 1058.05,-544.439 1078,-540 1084.36,-538.584 1091.1,-537.063 1097.67,-535.563"/>
<polygon fill="#9a32cd" stroke="#9a32cd" points="1015.97,-549.945 1006.93,-555.464 1017.44,-556.789 1015.97,-549.945"/>
<text text-anchor="middle" x="1057" y="-553" font-family="Arial" font-size="10.00"> contacts</text>
</g>
<!-- Node35 -->
<g id="node35" class="node"><title>Node35</title>
<g id="a_node35"><a xlink:href="classid_list.html" target="_top" xlink:title="idList\&lt; jointConversion_s \&gt;">
<polygon fill="white" stroke="black" points="1240,-38.5 1240,-57.5 1374,-57.5 1374,-38.5 1240,-38.5"/>
<text text-anchor="middle" x="1307" y="-45.5" font-family="Arial" font-size="10.00">idList&lt; jointConversion_s &gt;</text>
</a>
</g>
</g>
<!-- Node35&#45;&gt;Node1 -->
<g id="edge57" class="edge"><title>Node35&#45;&gt;Node1</title>
<path fill="none" stroke="#9a32cd" stroke-dasharray="5,2" d="M1384.28,-41.2029C1405.34,-42.8738 1427.03,-48.2928 1444,-61 1470.27,-80.6709 1477.41,-122.594 1479.32,-141.456"/>
<polygon fill="#9a32cd" stroke="#9a32cd" points="1384.19,-37.6934 1374.02,-40.6682 1383.82,-44.6839 1384.19,-37.6934"/>
<text text-anchor="middle" x="1418" y="-64" font-family="Arial" font-size="10.00"> jointMods</text>
</g>
<!-- Node36 -->
<g id="node36" class="node"><title>Node36</title>
<g id="a_node36"><a xlink:href="classid_animator.html" target="_top" xlink:title="idAnimator">
<polygon fill="white" stroke="black" points="1275.5,-0.5 1275.5,-19.5 1338.5,-19.5 1338.5,-0.5 1275.5,-0.5"/>
<text text-anchor="middle" x="1307" y="-7.5" font-family="Arial" font-size="10.00">idAnimator</text>
</a>
</g>
</g>
<!-- Node36&#45;&gt;Node1 -->
<g id="edge58" class="edge"><title>Node36&#45;&gt;Node1</title>
<path fill="none" stroke="#9a32cd" stroke-dasharray="5,2" d="M1348.63,-4.48649C1378.42,-2.78766 1418.04,-5.74122 1444,-28 1478.46,-57.5464 1480.86,-118.109 1480.41,-141.494"/>
<polygon fill="#9a32cd" stroke="#9a32cd" points="1348.25,-1.00562 1338.54,-5.2574 1348.78,-7.98528 1348.25,-1.00562"/>
<text text-anchor="middle" x="1418" y="-31" font-family="Arial" font-size="10.00"> animator</text>
</g>
</g>
</svg>
