<?xml version="1.0" encoding="UTF-8" standalone="no"?>
<!DOCTYPE svg PUBLIC "-//W3C//DTD SVG 1.1//EN"
 "http://www.w3.org/Graphics/SVG/1.1/DTD/svg11.dtd">
<!-- Generated by graphviz version 2.34.0 (20130907.0111)
 -->
<!-- Title: StageDeleteModifier Pages: 1 -->
<!--zoomable 413 -->
<svg id="main" version="1.1" xmlns="http://www.w3.org/2000/svg" xmlns:xlink="http://www.w3.org/1999/xlink" xml:space="preserve" onload="init(evt)">
<style type="text/css"><![CDATA[
.edge:hover path { stroke: red; }
.edge:hover polygon { stroke: red; fill: red; }
]]></style>
<script type="text/javascript"><![CDATA[
var edges = document.getElementsByTagName('g');
if (edges && edges.length) {
  for (var i=0;i<edges.length;i++) {
    if (edges[i].id.substr(0,4)=='edge') {
      edges[i].setAttribute('class','edge');
    }
  }
}
]]></script>
        <defs>
                <circle id="rim" cx="0" cy="0" r="7"/>
                <circle id="rim2" cx="0" cy="0" r="3.5"/>
                <g id="zoomPlus">
                        <use xlink:href="#rim" fill="#404040">
                                <set attributeName="fill" to="#808080" begin="zoomplus.mouseover" end="zoomplus.mouseout"/>
                        </use>
                        <path d="M-4,0h8M0,-4v8" fill="none" stroke="white" stroke-width="1.5" pointer-events="none"/>
                </g>
                <g id="zoomMin">
                        <use xlink:href="#rim" fill="#404040">
                                <set attributeName="fill" to="#808080" begin="zoomminus.mouseover" end="zoomminus.mouseout"/>
                        </use>
                        <path d="M-4,0h8" fill="none" stroke="white" stroke-width="1.5" pointer-events="none"/>
                </g>
                <g id="dirArrow">
                        <path fill="none" stroke="white" stroke-width="1.5" d="M0,-3.0v7 M-2.5,-0.5L0,-3.0L2.5,-0.5"/>
                </g>
               <g id="resetDef">
                       <use xlink:href="#rim2" fill="#404040">
                               <set attributeName="fill" to="#808080" begin="reset.mouseover" end="reset.mouseout"/>
                       </use>
               </g>
        </defs>

<script type="text/javascript">
var viewWidth = 948;
var viewHeight = 413;
var sectionId = 'dynsection-1';
</script>
<script xlink:href="svgpan.js"/>
<svg id="graph" class="graph">
<g id="viewport">
<title>StageDeleteModifier</title>
<polygon fill="white" stroke="white" points="-4,4 -4,-409 944,-409 944,4 -4,4"/>
<!-- Node1 -->
<g id="node1" class="node"><title>Node1</title>
<polygon fill="#bfbfbf" stroke="black" points="836,-366.5 836,-385.5 940,-385.5 940,-366.5 836,-366.5"/>
<text text-anchor="middle" x="888" y="-373.5" font-family="Arial" font-size="10.00">StageDeleteModifier</text>
</g>
<!-- Node2 -->
<g id="node2" class="node"><title>Node2</title>
<g id="a_node2"><a xlink:href="class_material_modifier.html" target="_top" xlink:title="MaterialModifier">
<polygon fill="white" stroke="black" points="712.5,-337.5 712.5,-356.5 797.5,-356.5 797.5,-337.5 712.5,-337.5"/>
<text text-anchor="middle" x="755" y="-344.5" font-family="Arial" font-size="10.00">MaterialModifier</text>
</a>
</g>
</g>
<!-- Node2&#45;&gt;Node1 -->
<g id="edge1" class="edge"><title>Node2&#45;&gt;Node1</title>
<path fill="none" stroke="midnightblue" d="M807.667,-358.438C819.627,-361.085 832.231,-363.876 843.785,-366.433"/>
<polygon fill="midnightblue" stroke="midnightblue" points="808.33,-355 797.809,-356.256 806.816,-361.834 808.33,-355"/>
</g>
<!-- Node3 -->
<g id="node3" class="node"><title>Node3</title>
<g id="a_node3"><a xlink:href="classid_str.html" target="_top" xlink:title="idStr">
<polygon fill="white" stroke="black" points="262.5,-301.5 262.5,-320.5 299.5,-320.5 299.5,-301.5 262.5,-301.5"/>
<text text-anchor="middle" x="281" y="-308.5" font-family="Arial" font-size="10.00">idStr</text>
</a>
</g>
</g>
<!-- Node3&#45;&gt;Node2 -->
<g id="edge2" class="edge"><title>Node3&#45;&gt;Node2</title>
<path fill="none" stroke="#9a32cd" stroke-dasharray="5,2" d="M309.499,-315.985C327.274,-319.031 350.936,-322.76 372,-325 495.361,-338.116 642.025,-343.803 712.346,-345.921"/>
<polygon fill="#9a32cd" stroke="#9a32cd" points="309.978,-312.515 299.524,-314.241 308.772,-319.411 309.978,-312.515"/>
<text text-anchor="middle" x="533" y="-343" font-family="Arial" font-size="10.00"> materialName</text>
</g>
<!-- Node4 -->
<g id="node4" class="node"><title>Node4</title>
<g id="a_node4"><a xlink:href="class_material_doc_manager.html" target="_top" xlink:title="MaterialDocManager">
<polygon fill="white" stroke="black" points="480,-173.5 480,-192.5 586,-192.5 586,-173.5 480,-173.5"/>
<text text-anchor="middle" x="533" y="-180.5" font-family="Arial" font-size="10.00">MaterialDocManager</text>
</a>
</g>
</g>
<!-- Node3&#45;&gt;Node4 -->
<g id="edge4" class="edge"><title>Node3&#45;&gt;Node4</title>
<path fill="none" stroke="#9a32cd" stroke-dasharray="5,2" d="M309.484,-299.436C327.211,-292.12 350.826,-282.636 372,-275 411.533,-260.743 425.577,-266.964 462,-246 487.223,-231.482 511.213,-206.695 523.489,-192.938"/>
<polygon fill="#9a32cd" stroke="#9a32cd" points="307.683,-296.394 299.791,-303.463 310.368,-302.859 307.683,-296.394"/>
<text text-anchor="middle" x="417" y="-289" font-family="Arial" font-size="10.00"> copyMaterial</text>
<text text-anchor="middle" x="417" y="-278" font-family="Arial" font-size="10.00">copyStageMaterial</text>
</g>
<!-- Node8 -->
<g id="node8" class="node"><title>Node8</title>
<g id="a_node8"><a xlink:href="class_material_doc.html" target="_top" xlink:title="MaterialDoc">
<polygon fill="white" stroke="black" points="721,-106.5 721,-125.5 789,-125.5 789,-106.5 721,-106.5"/>
<text text-anchor="middle" x="755" y="-113.5" font-family="Arial" font-size="10.00">MaterialDoc</text>
</a>
</g>
</g>
<!-- Node3&#45;&gt;Node8 -->
<g id="edge9" class="edge"><title>Node3&#45;&gt;Node8</title>
<path fill="none" stroke="#9a32cd" stroke-dasharray="5,2" d="M309.925,-311.066C397.615,-311.032 663.478,-309.013 694,-286 746.98,-246.053 753.359,-155.684 753.987,-125.799"/>
<polygon fill="#9a32cd" stroke="#9a32cd" points="309.686,-307.566 299.684,-311.061 309.682,-314.566 309.686,-307.566"/>
<text text-anchor="middle" x="533" y="-311" font-family="Arial" font-size="10.00"> name</text>
</g>
<!-- Node4&#45;&gt;Node2 -->
<g id="edge3" class="edge"><title>Node4&#45;&gt;Node2</title>
<path fill="none" stroke="#9a32cd" stroke-dasharray="5,2" d="M554.942,-198.612C599.933,-232.15 704.689,-310.241 741.186,-337.448"/>
<polygon fill="#9a32cd" stroke="#9a32cd" points="556.888,-195.697 546.779,-192.526 552.705,-201.309 556.888,-195.697"/>
<text text-anchor="middle" x="649" y="-301" font-family="Arial" font-size="10.00"> manager</text>
</g>
<!-- Node4&#45;&gt;Node8 -->
<g id="edge13" class="edge"><title>Node4&#45;&gt;Node8</title>
<path fill="none" stroke="#9a32cd" stroke-dasharray="5,2" d="M596.308,-178.618C626.603,-174.966 663.063,-168.27 694,-156 712.62,-148.615 731.402,-134.836 742.871,-125.541"/>
<polygon fill="#9a32cd" stroke="#9a32cd" points="595.833,-175.15 586.287,-179.744 596.615,-182.106 595.833,-175.15"/>
<text text-anchor="middle" x="649" y="-180" font-family="Arial" font-size="10.00"> manager</text>
</g>
<!-- Node5 -->
<g id="node5" class="node"><title>Node5</title>
<g id="a_node5"><a xlink:href="classid_list.html" target="_top" xlink:title="idList\&lt; MaterialModifier * \&gt;">
<polygon fill="white" stroke="black" points="214.5,-155.5 214.5,-174.5 347.5,-174.5 347.5,-155.5 214.5,-155.5"/>
<text text-anchor="middle" x="281" y="-162.5" font-family="Arial" font-size="10.00">idList&lt; MaterialModifier * &gt;</text>
</a>
</g>
</g>
<!-- Node5&#45;&gt;Node4 -->
<g id="edge5" class="edge"><title>Node5&#45;&gt;Node4</title>
<path fill="none" stroke="#9a32cd" stroke-dasharray="5,2" d="M357.99,-158.3C390.22,-156.86 428.098,-157.024 462,-162 477.19,-164.229 493.659,-169.043 506.804,-173.499"/>
<polygon fill="#9a32cd" stroke="#9a32cd" points="357.546,-154.818 347.736,-158.819 357.901,-161.809 357.546,-154.818"/>
<text text-anchor="middle" x="417" y="-176" font-family="Arial" font-size="10.00"> undoModifiers</text>
<text text-anchor="middle" x="417" y="-165" font-family="Arial" font-size="10.00">redoModifiers</text>
</g>
<!-- Node6 -->
<g id="node6" class="node"><title>Node6</title>
<g id="a_node6"><a xlink:href="struct_m_e_stage__t.html" target="_top" xlink:title="MEStage_t">
<polygon fill="white" stroke="black" points="248.5,-234.5 248.5,-253.5 313.5,-253.5 313.5,-234.5 248.5,-234.5"/>
<text text-anchor="middle" x="281" y="-241.5" font-family="Arial" font-size="10.00">MEStage_t</text>
</a>
</g>
</g>
<!-- Node6&#45;&gt;Node4 -->
<g id="edge6" class="edge"><title>Node6&#45;&gt;Node4</title>
<path fill="none" stroke="#9a32cd" stroke-dasharray="5,2" d="M324.059,-239.148C360.921,-234.277 415.694,-225.534 462,-212 479.424,-206.907 498.404,-198.878 512.199,-192.558"/>
<polygon fill="#9a32cd" stroke="#9a32cd" points="323.166,-235.734 313.692,-240.478 324.056,-242.677 323.166,-235.734"/>
<text text-anchor="middle" x="417" y="-234" font-family="Arial" font-size="10.00"> copyStage</text>
</g>
<!-- Node7 -->
<g id="node7" class="node"><title>Node7</title>
<g id="a_node7"><a xlink:href="classid_dict.html" target="_top" xlink:title="idDict">
<polygon fill="white" stroke="black" points="36.5,-234.5 36.5,-253.5 77.5,-253.5 77.5,-234.5 36.5,-234.5"/>
<text text-anchor="middle" x="57" y="-241.5" font-family="Arial" font-size="10.00">idDict</text>
</a>
</g>
</g>
<!-- Node7&#45;&gt;Node1 -->
<g id="edge20" class="edge"><title>Node7&#45;&gt;Node1</title>
<path fill="none" stroke="#9a32cd" stroke-dasharray="5,2" d="M71.4801,-261.907C103.126,-301.702 186.592,-394 280,-394 280,-394 280,-394 756,-394 784.237,-394 815.581,-389.845 840.528,-385.527"/>
<polygon fill="#9a32cd" stroke="#9a32cd" points="74.1093,-259.587 65.2073,-253.842 68.5837,-263.884 74.1093,-259.587"/>
<text text-anchor="middle" x="533" y="-397" font-family="Arial" font-size="10.00"> stageData</text>
</g>
<!-- Node7&#45;&gt;Node6 -->
<g id="edge7" class="edge"><title>Node7&#45;&gt;Node6</title>
<path fill="none" stroke="#9a32cd" stroke-dasharray="5,2" d="M87.8162,-244C129.678,-244 205.536,-244 248.36,-244"/>
<polygon fill="#9a32cd" stroke="#9a32cd" points="87.7011,-240.5 77.701,-244 87.701,-247.5 87.7011,-240.5"/>
<text text-anchor="middle" x="161" y="-247" font-family="Arial" font-size="10.00"> stageData</text>
</g>
<!-- Node9 -->
<g id="node9" class="node"><title>Node9</title>
<g id="a_node9"><a xlink:href="struct_m_e_material__t.html" target="_top" xlink:title="MEMaterial_t">
<polygon fill="white" stroke="black" points="244,-79.5 244,-98.5 318,-98.5 318,-79.5 244,-79.5"/>
<text text-anchor="middle" x="281" y="-86.5" font-family="Arial" font-size="10.00">MEMaterial_t</text>
</a>
</g>
</g>
<!-- Node7&#45;&gt;Node9 -->
<g id="edge12" class="edge"><title>Node7&#45;&gt;Node9</title>
<path fill="none" stroke="#9a32cd" stroke-dasharray="5,2" d="M72.3493,-226.374C96.9973,-197.276 150.323,-139.303 208,-108 219.021,-102.018 232.028,-97.8418 243.932,-94.9612"/>
<polygon fill="#9a32cd" stroke="#9a32cd" points="69.3608,-224.493 65.6475,-234.416 74.7383,-228.974 69.3608,-224.493"/>
<text text-anchor="middle" x="161" y="-166" font-family="Arial" font-size="10.00"> materialData</text>
</g>
<!-- Node8&#45;&gt;Node4 -->
<g id="edge8" class="edge"><title>Node8&#45;&gt;Node4</title>
<path fill="none" stroke="#9a32cd" stroke-dasharray="5,2" d="M710.458,-120.831C680.005,-125.069 638.731,-132.552 604,-145 583.693,-152.278 562.142,-164.797 548.403,-173.467"/>
<polygon fill="#9a32cd" stroke="#9a32cd" points="711.297,-124.251 720.749,-119.465 710.376,-117.312 711.297,-124.251"/>
<text text-anchor="middle" x="649" y="-148" font-family="Arial" font-size="10.00"> currentMaterial</text>
</g>
<!-- Node9&#45;&gt;Node8 -->
<g id="edge10" class="edge"><title>Node9&#45;&gt;Node8</title>
<path fill="none" stroke="#9a32cd" stroke-dasharray="5,2" d="M328.425,-91.6557C423.479,-97.0931 638.245,-109.378 720.804,-114.101"/>
<polygon fill="#9a32cd" stroke="#9a32cd" points="328.437,-88.1507 318.253,-91.0738 328.037,-95.1393 328.437,-88.1507"/>
<text text-anchor="middle" x="533" y="-110" font-family="Arial" font-size="10.00"> editMaterial</text>
</g>
<!-- Node10 -->
<g id="node10" class="node"><title>Node10</title>
<g id="a_node10"><a xlink:href="classid_list.html" target="_top" xlink:title="idList\&lt; MEStage_t * \&gt;">
<polygon fill="white" stroke="black" points="0.5,-79.5 0.5,-98.5 113.5,-98.5 113.5,-79.5 0.5,-79.5"/>
<text text-anchor="middle" x="57" y="-86.5" font-family="Arial" font-size="10.00">idList&lt; MEStage_t * &gt;</text>
</a>
</g>
</g>
<!-- Node10&#45;&gt;Node9 -->
<g id="edge11" class="edge"><title>Node10&#45;&gt;Node9</title>
<path fill="none" stroke="#9a32cd" stroke-dasharray="5,2" d="M123.754,-89C162.982,-89 211.306,-89 243.736,-89"/>
<polygon fill="#9a32cd" stroke="#9a32cd" points="123.733,-85.5001 113.733,-89 123.733,-92.5001 123.733,-85.5001"/>
<text text-anchor="middle" x="161" y="-92" font-family="Arial" font-size="10.00"> stages</text>
</g>
<!-- Node11 -->
<g id="node11" class="node"><title>Node11</title>
<g id="a_node11"><a xlink:href="class_source_modify_owner.html" target="_top" xlink:title="SourceModifyOwner">
<polygon fill="white" stroke="black" points="481,-0.5 481,-19.5 585,-19.5 585,-0.5 481,-0.5"/>
<text text-anchor="middle" x="533" y="-7.5" font-family="Arial" font-size="10.00">SourceModifyOwner</text>
</a>
</g>
</g>
<!-- Node11&#45;&gt;Node8 -->
<g id="edge14" class="edge"><title>Node11&#45;&gt;Node8</title>
<path fill="none" stroke="#9a32cd" stroke-dasharray="5,2" d="M595.702,-8.79613C627.102,-10.7618 664.716,-17.2821 694,-35 722.598,-52.3033 741.922,-88.876 749.891,-106.333"/>
<polygon fill="#9a32cd" stroke="#9a32cd" points="595.469,-5.28092 585.312,-8.2945 595.132,-12.2728 595.469,-5.28092"/>
<text text-anchor="middle" x="649" y="-38" font-family="Arial" font-size="10.00"> sourceModifyOwner</text>
</g>
<!-- Node12 -->
<g id="node12" class="node"><title>Node12</title>
<g id="a_node12"><a xlink:href="classid_material.html" target="_top" xlink:title="idMaterial">
<polygon fill="white" stroke="black" points="503.5,-38.5 503.5,-57.5 562.5,-57.5 562.5,-38.5 503.5,-38.5"/>
<text text-anchor="middle" x="533" y="-45.5" font-family="Arial" font-size="10.00">idMaterial</text>
</a>
</g>
</g>
<!-- Node12&#45;&gt;Node8 -->
<g id="edge15" class="edge"><title>Node12&#45;&gt;Node8</title>
<path fill="none" stroke="#9a32cd" stroke-dasharray="5,2" d="M572.89,-47.4331C606.245,-48.2517 654.957,-52.608 694,-69 714.497,-77.6055 733.931,-95.1575 744.871,-106.208"/>
<polygon fill="#9a32cd" stroke="#9a32cd" points="572.682,-43.9297 562.631,-47.2808 572.578,-50.9289 572.682,-43.9297"/>
<text text-anchor="middle" x="649" y="-72" font-family="Arial" font-size="10.00"> renderMaterial</text>
</g>
<!-- Node13 -->
<g id="node13" class="node"><title>Node13</title>
<g id="a_node13"><a xlink:href="classid_decl.html" target="_top" xlink:title="idDecl">
<polygon fill="white" stroke="black" points="259,-38.5 259,-57.5 303,-57.5 303,-38.5 259,-38.5"/>
<text text-anchor="middle" x="281" y="-45.5" font-family="Arial" font-size="10.00">idDecl</text>
</a>
</g>
</g>
<!-- Node13&#45;&gt;Node12 -->
<g id="edge16" class="edge"><title>Node13&#45;&gt;Node12</title>
<path fill="none" stroke="midnightblue" d="M313.621,-48C362.579,-48 455.99,-48 503.185,-48"/>
<polygon fill="midnightblue" stroke="midnightblue" points="313.315,-44.5001 303.315,-48 313.315,-51.5001 313.315,-44.5001"/>
</g>
<!-- Node14 -->
<g id="node14" class="node"><title>Node14</title>
<g id="a_node14"><a xlink:href="classid_decl_base.html" target="_top" xlink:title="idDeclBase">
<polygon fill="white" stroke="black" points="24,-38.5 24,-57.5 90,-57.5 90,-38.5 24,-38.5"/>
<text text-anchor="middle" x="57" y="-45.5" font-family="Arial" font-size="10.00">idDeclBase</text>
</a>
</g>
</g>
<!-- Node14&#45;&gt;Node13 -->
<g id="edge17" class="edge"><title>Node14&#45;&gt;Node13</title>
<path fill="none" stroke="#9a32cd" stroke-dasharray="5,2" d="M100.52,-48C147.836,-48 222.398,-48 258.71,-48"/>
<polygon fill="#9a32cd" stroke="#9a32cd" points="100.281,-44.5001 90.2807,-48 100.281,-51.5001 100.281,-44.5001"/>
<text text-anchor="middle" x="161" y="-51" font-family="Arial" font-size="10.00"> base</text>
</g>
<!-- Node15 -->
<g id="node15" class="node"><title>Node15</title>
<g id="a_node15"><a xlink:href="classid_hash_table.html" target="_top" xlink:title="idHashTable\&lt; MaterialDoc * \&gt;">
<polygon fill="white" stroke="black" points="208,-117.5 208,-136.5 354,-136.5 354,-117.5 208,-117.5"/>
<text text-anchor="middle" x="281" y="-124.5" font-family="Arial" font-size="10.00">idHashTable&lt; MaterialDoc * &gt;</text>
</a>
</g>
</g>
<!-- Node15&#45;&gt;Node4 -->
<g id="edge18" class="edge"><title>Node15&#45;&gt;Node4</title>
<path fill="none" stroke="#9a32cd" stroke-dasharray="5,2" d="M364.745,-126.211C395.835,-127.896 431.11,-132.224 462,-142 483.753,-148.884 506.006,-163.474 519.416,-173.26"/>
<polygon fill="#9a32cd" stroke="#9a32cd" points="364.523,-122.697 354.374,-125.736 364.204,-129.69 364.523,-122.697"/>
<text text-anchor="middle" x="417" y="-145" font-family="Arial" font-size="10.00"> inProgressMaterials</text>
</g>
<!-- Node16 -->
<g id="node16" class="node"><title>Node16</title>
<g id="a_node16"><a xlink:href="classid_list.html" target="_top" xlink:title="idList\&lt; MaterialView * \&gt;">
<polygon fill="white" stroke="black" points="221,-196.5 221,-215.5 341,-215.5 341,-196.5 221,-196.5"/>
<text text-anchor="middle" x="281" y="-203.5" font-family="Arial" font-size="10.00">idList&lt; MaterialView * &gt;</text>
</a>
</g>
</g>
<!-- Node16&#45;&gt;Node4 -->
<g id="edge19" class="edge"><title>Node16&#45;&gt;Node4</title>
<path fill="none" stroke="#9a32cd" stroke-dasharray="5,2" d="M351.37,-199.618C392.081,-195.873 442.683,-191.217 479.963,-187.787"/>
<polygon fill="#9a32cd" stroke="#9a32cd" points="350.884,-196.148 341.247,-200.549 351.525,-203.118 350.884,-196.148"/>
<text text-anchor="middle" x="417" y="-200" font-family="Arial" font-size="10.00"> materialViews</text>
</g>
</g>
</svg>
        <g id="navigator" transform="translate(0 0)" fill="#404254">
                <rect fill="#f2f5e9" fill-opacity="0.5" stroke="#606060" stroke-width=".5" x="0" y="0" width="60" height="60"/>
                <use id="zoomplus" xlink:href="#zoomPlus" x="17" y="9" onmousedown="handleZoom(evt,'in')"/>
                <use id="zoomminus" xlink:href="#zoomMin" x="42" y="9" onmousedown="handleZoom(evt,'out')"/>
                <use id="reset" xlink:href="#resetDef" x="30" y="36" onmousedown="handleReset()"/>
                <g id="arrowUp" xlink:href="#dirArrow" transform="translate(30 24)" onmousedown="handlePan(0,-1)">
                  <use xlink:href="#rim" fill="#404040">
                        <set attributeName="fill" to="#808080" begin="arrowUp.mouseover" end="arrowUp.mouseout"/>
                  </use>
                  <path fill="none" stroke="white" stroke-width="1.5" d="M0,-3.0v7 M-2.5,-0.5L0,-3.0L2.5,-0.5"/>
                </g>
                <g id="arrowRight" xlink:href="#dirArrow" transform="rotate(90) translate(36 -43)" onmousedown="handlePan(1,0)">
                  <use xlink:href="#rim" fill="#404040">
                        <set attributeName="fill" to="#808080" begin="arrowRight.mouseover" end="arrowRight.mouseout"/>
                  </use>
                  <path fill="none" stroke="white" stroke-width="1.5" d="M0,-3.0v7 M-2.5,-0.5L0,-3.0L2.5,-0.5"/>
                </g>
                <g id="arrowDown" xlink:href="#dirArrow" transform="rotate(180) translate(-30 -48)" onmousedown="handlePan(0,1)">
                  <use xlink:href="#rim" fill="#404040">
                        <set attributeName="fill" to="#808080" begin="arrowDown.mouseover" end="arrowDown.mouseout"/>
                  </use>
                  <path fill="none" stroke="white" stroke-width="1.5" d="M0,-3.0v7 M-2.5,-0.5L0,-3.0L2.5,-0.5"/>
                </g>
                <g id="arrowLeft" xlink:href="#dirArrow" transform="rotate(270) translate(-36 17)" onmousedown="handlePan(-1,0)">
                  <use xlink:href="#rim" fill="#404040">
                        <set attributeName="fill" to="#808080" begin="arrowLeft.mouseover" end="arrowLeft.mouseout"/>
                  </use>
                  <path fill="none" stroke="white" stroke-width="1.5" d="M0,-3.0v7 M-2.5,-0.5L0,-3.0L2.5,-0.5"/>
                </g>
        </g>
        <svg viewBox="0 0 15 15" width="100%" height="30px" preserveAspectRatio="xMaxYMin meet">
         <g id="arrow_out" transform="scale(0.3 0.3)">
          <a xlink:href="class_stage_delete_modifier__coll__graph_org.svg" target="_base">
           <rect id="button" ry="5" rx="5" y="6" x="6" height="38" width="38"
                fill="#f2f5e9" fill-opacity="0.5" stroke="#606060" stroke-width="1.0"/>
           <path id="arrow"
             d="M 11.500037,31.436501 C 11.940474,20.09759 22.043105,11.32322 32.158766,21.979434 L 37.068811,17.246167 C 37.068811,17.246167 37.088388,32 37.088388,32 L 22.160133,31.978069 C 22.160133,31.978069 26.997745,27.140456 26.997745,27.140456 C 18.528582,18.264221 13.291696,25.230495 11.500037,31.436501 z"
             style="fill:#404040;"/>
          </a>
         </g>
        </svg>
</svg>
