<?xml version="1.0" encoding="UTF-8" standalone="no"?>
<!DOCTYPE svg PUBLIC "-//W3C//DTD SVG 1.1//EN"
 "http://www.w3.org/Graphics/SVG/1.1/DTD/svg11.dtd">
<!-- Generated by graphviz version 2.34.0 (20130907.0111)
 -->
<!-- Title: idCompressor_RunLength_ZeroBased Pages: 1 -->
<svg width="136pt" height="264pt"
 viewBox="0.00 0.00 136.00 264.00" xmlns="http://www.w3.org/2000/svg" xmlns:xlink="http://www.w3.org/1999/xlink">
<g id="graph0" class="graph" transform="scale(1 1) rotate(0) translate(4 260)">
<title>idCompressor_RunLength_ZeroBased</title>
<polygon fill="white" stroke="white" points="-4,4 -4,-260 132,-260 132,4 -4,4"/>
<!-- Node1 -->
<g id="node1" class="node"><title>Node1</title>
<polygon fill="#bfbfbf" stroke="black" points="0,-1 0,-31 128,-31 128,-1 0,-1"/>
<text text-anchor="start" x="8" y="-19" font-family="Arial" font-size="10.00">idCompressor_RunLength</text>
<text text-anchor="middle" x="64" y="-8" font-family="Arial" font-size="10.00">_ZeroBased</text>
</g>
<!-- Node2 -->
<g id="node2" class="node"><title>Node2</title>
<g id="a_node2"><a xlink:href="classid_compressor___bit_stream.html" target="_top" xlink:title="idCompressor_BitStream">
<polygon fill="white" stroke="black" points="1.5,-68.5 1.5,-87.5 126.5,-87.5 126.5,-68.5 1.5,-68.5"/>
<text text-anchor="middle" x="64" y="-75.5" font-family="Arial" font-size="10.00">idCompressor_BitStream</text>
</a>
</g>
</g>
<!-- Node2&#45;&gt;Node1 -->
<g id="edge1" class="edge"><title>Node2&#45;&gt;Node1</title>
<path fill="none" stroke="midnightblue" d="M64,-58.3707C64,-49.5849 64,-39.2721 64,-31.1408"/>
<polygon fill="midnightblue" stroke="midnightblue" points="60.5001,-58.4034 64,-68.4035 67.5001,-58.4035 60.5001,-58.4034"/>
</g>
<!-- Node3 -->
<g id="node3" class="node"><title>Node3</title>
<g id="a_node3"><a xlink:href="classid_compressor___none.html" target="_top" xlink:title="idCompressor_None">
<polygon fill="white" stroke="black" points="12,-124.5 12,-143.5 116,-143.5 116,-124.5 12,-124.5"/>
<text text-anchor="middle" x="64" y="-131.5" font-family="Arial" font-size="10.00">idCompressor_None</text>
</a>
</g>
</g>
<!-- Node3&#45;&gt;Node2 -->
<g id="edge2" class="edge"><title>Node3&#45;&gt;Node2</title>
<path fill="none" stroke="midnightblue" d="M64,-113.805C64,-104.91 64,-94.7798 64,-87.7511"/>
<polygon fill="midnightblue" stroke="midnightblue" points="60.5001,-114.083 64,-124.083 67.5001,-114.083 60.5001,-114.083"/>
</g>
<!-- Node4 -->
<g id="node4" class="node"><title>Node4</title>
<g id="a_node4"><a xlink:href="classid_compressor.html" target="_top" xlink:title="idCompressor">
<polygon fill="white" stroke="black" points="25.5,-180.5 25.5,-199.5 102.5,-199.5 102.5,-180.5 25.5,-180.5"/>
<text text-anchor="middle" x="64" y="-187.5" font-family="Arial" font-size="10.00">idCompressor</text>
</a>
</g>
</g>
<!-- Node4&#45;&gt;Node3 -->
<g id="edge3" class="edge"><title>Node4&#45;&gt;Node3</title>
<path fill="none" stroke="midnightblue" d="M64,-169.805C64,-160.91 64,-150.78 64,-143.751"/>
<polygon fill="midnightblue" stroke="midnightblue" points="60.5001,-170.083 64,-180.083 67.5001,-170.083 60.5001,-170.083"/>
</g>
<!-- Node5 -->
<g id="node5" class="node"><title>Node5</title>
<g id="a_node5"><a xlink:href="classid_file.html" target="_top" xlink:title="idFile">
<polygon fill="white" stroke="black" points="44,-236.5 44,-255.5 84,-255.5 84,-236.5 44,-236.5"/>
<text text-anchor="middle" x="64" y="-243.5" font-family="Arial" font-size="10.00">idFile</text>
</a>
</g>
</g>
<!-- Node5&#45;&gt;Node4 -->
<g id="edge4" class="edge"><title>Node5&#45;&gt;Node4</title>
<path fill="none" stroke="midnightblue" d="M64,-225.805C64,-216.91 64,-206.78 64,-199.751"/>
<polygon fill="midnightblue" stroke="midnightblue" points="60.5001,-226.083 64,-236.083 67.5001,-226.083 60.5001,-226.083"/>
</g>
</g>
</svg>
