<?xml version="1.0" encoding="UTF-8" standalone="no"?>
<!DOCTYPE svg PUBLIC "-//W3C//DTD SVG 1.1//EN"
 "http://www.w3.org/Graphics/SVG/1.1/DTD/svg11.dtd">
<!-- Generated by graphviz version 2.34.0 (20130907.0111)
 -->
<!-- Title: MaterialPropTreeView Pages: 1 -->
<svg width="181pt" height="140pt"
 viewBox="0.00 0.00 181.00 140.00" xmlns="http://www.w3.org/2000/svg" xmlns:xlink="http://www.w3.org/1999/xlink">
<g id="graph0" class="graph" transform="scale(1 1) rotate(0) translate(4 136)">
<title>MaterialPropTreeView</title>
<polygon fill="white" stroke="white" points="-4,4 -4,-136 177,-136 177,4 -4,4"/>
<!-- Node1 -->
<g id="node1" class="node"><title>Node1</title>
<polygon fill="#bfbfbf" stroke="black" points="33.5,-0.5 33.5,-19.5 144.5,-19.5 144.5,-0.5 33.5,-0.5"/>
<text text-anchor="middle" x="89" y="-7.5" font-family="Arial" font-size="10.00">MaterialPropTreeView</text>
</g>
<!-- Node2 -->
<g id="node2" class="node"><title>Node2</title>
<g id="a_node2"><a xlink:href="class_c_prop_tree_view.html" target="_top" xlink:title="CPropTreeView">
<polygon fill="white" stroke="black" points="-0.5,-56.5 -0.5,-75.5 82.5,-75.5 82.5,-56.5 -0.5,-56.5"/>
<text text-anchor="middle" x="41" y="-63.5" font-family="Arial" font-size="10.00">CPropTreeView</text>
</a>
</g>
</g>
<!-- Node2&#45;&gt;Node1 -->
<g id="edge1" class="edge"><title>Node2&#45;&gt;Node1</title>
<path fill="none" stroke="midnightblue" d="M55.7277,-48.4314C64.1401,-38.9673 74.3487,-27.4827 81.2213,-19.7511"/>
<polygon fill="midnightblue" stroke="midnightblue" points="52.954,-46.2836 48.9262,-56.083 58.1858,-50.9342 52.954,-46.2836"/>
</g>
<!-- Node3 -->
<g id="node3" class="node"><title>Node3</title>
<polygon fill="white" stroke="#bfbfbf" points="7.5,-112.5 7.5,-131.5 74.5,-131.5 74.5,-112.5 7.5,-112.5"/>
<text text-anchor="middle" x="41" y="-119.5" font-family="Arial" font-size="10.00">CFormView</text>
</g>
<!-- Node3&#45;&gt;Node2 -->
<g id="edge2" class="edge"><title>Node3&#45;&gt;Node2</title>
<path fill="none" stroke="midnightblue" d="M41,-101.805C41,-92.9102 41,-82.7798 41,-75.7511"/>
<polygon fill="midnightblue" stroke="midnightblue" points="37.5001,-102.083 41,-112.083 44.5001,-102.083 37.5001,-102.083"/>
</g>
<!-- Node4 -->
<g id="node4" class="node"><title>Node4</title>
<g id="a_node4"><a xlink:href="class_material_view.html" target="_top" xlink:title="MaterialView">
<polygon fill="white" stroke="black" points="101,-56.5 101,-75.5 173,-75.5 173,-56.5 101,-56.5"/>
<text text-anchor="middle" x="137" y="-63.5" font-family="Arial" font-size="10.00">MaterialView</text>
</a>
</g>
</g>
<!-- Node4&#45;&gt;Node1 -->
<g id="edge3" class="edge"><title>Node4&#45;&gt;Node1</title>
<path fill="none" stroke="midnightblue" d="M122.272,-48.4314C113.86,-38.9673 103.651,-27.4827 96.7787,-19.7511"/>
<polygon fill="midnightblue" stroke="midnightblue" points="119.814,-50.9342 129.074,-56.083 125.046,-46.2836 119.814,-50.9342"/>
</g>
</g>
</svg>
