<?xml version="1.0" encoding="UTF-8" standalone="no"?>
<!DOCTYPE svg PUBLIC "-//W3C//DTD SVG 1.1//EN"
 "http://www.w3.org/Graphics/SVG/1.1/DTD/svg11.dtd">
<!-- Generated by graphviz version 2.34.0 (20130907.0111)
 -->
<!-- Title: DialogAFConstraint Pages: 1 -->
<svg width="798pt" height="579pt"
 viewBox="0.00 0.00 798.00 579.11" xmlns="http://www.w3.org/2000/svg" xmlns:xlink="http://www.w3.org/1999/xlink">
<g id="graph0" class="graph" transform="scale(1 1) rotate(0) translate(4 575.107)">
<title>DialogAFConstraint</title>
<polygon fill="white" stroke="white" points="-4,4 -4,-575.107 794,-575.107 794,4 -4,4"/>
<!-- Node1 -->
<g id="node1" class="node"><title>Node1</title>
<polygon fill="#bfbfbf" stroke="black" points="688.5,-227.447 688.5,-246.447 789.5,-246.447 789.5,-227.447 688.5,-227.447"/>
<text text-anchor="middle" x="739" y="-234.447" font-family="Arial" font-size="10.00">DialogAFConstraint</text>
</g>
<!-- Node2 -->
<g id="node2" class="node"><title>Node2</title>
<polygon fill="white" stroke="#bfbfbf" points="270,-439.447 270,-458.447 320,-458.447 320,-439.447 270,-439.447"/>
<text text-anchor="middle" x="295" y="-446.447" font-family="Arial" font-size="10.00">CDialog</text>
</g>
<!-- Node2&#45;&gt;Node1 -->
<g id="edge1" class="edge"><title>Node2&#45;&gt;Node1</title>
<path fill="none" stroke="midnightblue" d="M301.479,-468.272C310.195,-494.918 330.027,-541.915 366,-561.947 414.376,-588.885 494.259,-549.844 570,-517.947 617.351,-498.005 638.07,-500.2 670,-459.947 724.331,-391.452 735.389,-279.785 737.518,-246.562"/>
<polygon fill="midnightblue" stroke="midnightblue" points="304.773,-467.076 298.496,-458.541 298.08,-469.127 304.773,-467.076"/>
</g>
<!-- Node3 -->
<g id="node3" class="node"><title>Node3</title>
<g id="a_node3"><a xlink:href="class_dialog_a_f_constraint_hinge.html" target="_top" xlink:title="DialogAFConstraintHinge">
<polygon fill="white" stroke="black" points="437.5,-227.447 437.5,-246.447 562.5,-246.447 562.5,-227.447 437.5,-227.447"/>
<text text-anchor="middle" x="500" y="-234.447" font-family="Arial" font-size="10.00">DialogAFConstraintHinge</text>
</a>
</g>
</g>
<!-- Node2&#45;&gt;Node3 -->
<g id="edge3" class="edge"><title>Node2&#45;&gt;Node3</title>
<path fill="none" stroke="midnightblue" d="M309.989,-431.386C323.551,-414.806 345.087,-389.621 366,-369.947 384.909,-352.158 396.499,-354.772 412,-333.947 425.108,-316.336 416.65,-305.375 430,-287.947 443.768,-269.972 465.512,-255.362 480.906,-246.459"/>
<polygon fill="midnightblue" stroke="midnightblue" points="307.238,-429.222 303.669,-439.197 312.68,-433.625 307.238,-429.222"/>
</g>
<!-- Node8 -->
<g id="node8" class="node"><title>Node8</title>
<g id="a_node8"><a xlink:href="class_dialog_a_f_constraint_fixed.html" target="_top" xlink:title="DialogAFConstraintFixed">
<polygon fill="white" stroke="black" points="437.5,-57.4467 437.5,-76.4467 562.5,-76.4467 562.5,-57.4467 437.5,-57.4467"/>
<text text-anchor="middle" x="500" y="-64.4467" font-family="Arial" font-size="10.00">DialogAFConstraintFixed</text>
</a>
</g>
</g>
<!-- Node2&#45;&gt;Node8 -->
<g id="edge10" class="edge"><title>Node2&#45;&gt;Node8</title>
<path fill="none" stroke="midnightblue" d="M301.028,-429.439C313.888,-379.965 348.214,-250.647 366,-209.947 368.774,-203.6 424.962,-107.7 430,-102.947 442.285,-91.3563 459.024,-82.5015 472.938,-76.4743"/>
<polygon fill="midnightblue" stroke="midnightblue" points="297.613,-428.663 298.495,-439.221 304.39,-430.418 297.613,-428.663"/>
</g>
<!-- Node9 -->
<g id="node9" class="node"><title>Node9</title>
<g id="a_node9"><a xlink:href="class_dialog_a_f_constraint_spring.html" target="_top" xlink:title="DialogAFConstraintSpring">
<polygon fill="white" stroke="black" points="436,-396.447 436,-415.447 564,-415.447 564,-396.447 436,-396.447"/>
<text text-anchor="middle" x="500" y="-403.447" font-family="Arial" font-size="10.00">DialogAFConstraintSpring</text>
</a>
</g>
</g>
<!-- Node2&#45;&gt;Node9 -->
<g id="edge14" class="edge"><title>Node2&#45;&gt;Node9</title>
<path fill="none" stroke="midnightblue" d="M305.953,-467.356C317.51,-486.572 338.553,-515.595 366,-527.947 384.644,-536.337 395.196,-539.592 412,-527.947 430.727,-514.969 418.002,-499.315 430,-479.947 446.188,-453.815 472.488,-428.83 487.51,-415.635"/>
<polygon fill="midnightblue" stroke="midnightblue" points="308.933,-465.517 300.922,-458.583 302.86,-468.999 308.933,-465.517"/>
</g>
<!-- Node10 -->
<g id="node10" class="node"><title>Node10</title>
<g id="a_node10"><a xlink:href="class_dialog_a_f_constraint_universal.html" target="_top" xlink:title="DialogAFConstraintUniversal">
<polygon fill="white" stroke="black" points="430,-112.447 430,-131.447 570,-131.447 570,-112.447 430,-112.447"/>
<text text-anchor="middle" x="500" y="-119.447" font-family="Arial" font-size="10.00">DialogAFConstraintUniversal</text>
</a>
</g>
</g>
<!-- Node2&#45;&gt;Node10 -->
<g id="edge19" class="edge"><title>Node2&#45;&gt;Node10</title>
<path fill="none" stroke="midnightblue" d="M299.797,-429.124C307.238,-394.734 326.57,-323.263 366,-276.947 381.515,-258.722 398.482,-268.698 412,-248.947 437.753,-211.319 400.857,-183.014 430,-147.947 436.137,-140.563 444.6,-135.274 453.5,-131.486"/>
<polygon fill="midnightblue" stroke="midnightblue" points="296.295,-428.776 297.717,-439.275 303.153,-430.181 296.295,-428.776"/>
</g>
<!-- Node11 -->
<g id="node11" class="node"><title>Node11</title>
<g id="a_node11"><a xlink:href="class_dialog_a_f_constraint_ball_and_socket.html" target="_top" xlink:title="DialogAFConstraintBallAnd\lSocket">
<polygon fill="white" stroke="black" points="433,-297.947 433,-327.947 567,-327.947 567,-297.947 433,-297.947"/>
<text text-anchor="start" x="441" y="-315.947" font-family="Arial" font-size="10.00">DialogAFConstraintBallAnd</text>
<text text-anchor="middle" x="500" y="-304.947" font-family="Arial" font-size="10.00">Socket</text>
</a>
</g>
</g>
<!-- Node2&#45;&gt;Node11 -->
<g id="edge24" class="edge"><title>Node2&#45;&gt;Node11</title>
<path fill="none" stroke="midnightblue" d="M330.256,-453.632C355.436,-455.154 389.113,-452.933 412,-434.947 429.914,-420.868 418.002,-406.315 430,-386.947 444.153,-364.1 466.035,-342.13 481.352,-328.149"/>
<polygon fill="midnightblue" stroke="midnightblue" points="330.297,-450.124 320.042,-452.786 329.719,-457.1 330.297,-450.124"/>
</g>
<!-- Node12 -->
<g id="node12" class="node"><title>Node12</title>
<g id="a_node12"><a xlink:href="class_dialog_a_f_constraint_slider.html" target="_top" xlink:title="DialogAFConstraintSlider">
<polygon fill="white" stroke="black" points="437.5,-489.447 437.5,-508.447 562.5,-508.447 562.5,-489.447 437.5,-489.447"/>
<text text-anchor="middle" x="500" y="-496.447" font-family="Arial" font-size="10.00">DialogAFConstraintSlider</text>
</a>
</g>
</g>
<!-- Node2&#45;&gt;Node12 -->
<g id="edge28" class="edge"><title>Node2&#45;&gt;Node12</title>
<path fill="none" stroke="midnightblue" d="M303.502,-468.097C313.718,-491.189 334.429,-528.895 366,-544.947 408.904,-566.761 464.536,-527.762 487.9,-508.627"/>
<polygon fill="midnightblue" stroke="midnightblue" points="306.636,-466.519 299.545,-458.647 300.179,-469.222 306.636,-466.519"/>
</g>
<!-- Node3&#45;&gt;Node1 -->
<g id="edge2" class="edge"><title>Node3&#45;&gt;Node1</title>
<path fill="none" stroke="#9a32cd" stroke-dasharray="5,2" d="M572.952,-236.947C610.217,-236.947 654.785,-236.947 688.21,-236.947"/>
<polygon fill="#9a32cd" stroke="#9a32cd" points="572.65,-233.447 562.65,-236.947 572.65,-240.447 572.65,-233.447"/>
<text text-anchor="middle" x="629" y="-239.947" font-family="Arial" font-size="10.00"> hingeDlg</text>
</g>
<!-- Node4 -->
<g id="node4" class="node"><title>Node4</title>
<g id="a_node4"><a xlink:href="structtool_tip__s.html" target="_top" xlink:title="toolTip_s">
<polygon fill="white" stroke="black" points="267,-229.447 267,-248.447 323,-248.447 323,-229.447 267,-229.447"/>
<text text-anchor="middle" x="295" y="-236.447" font-family="Arial" font-size="10.00">toolTip_s</text>
</a>
</g>
</g>
<!-- Node4&#45;&gt;Node1 -->
<g id="edge17" class="edge"><title>Node4&#45;&gt;Node1</title>
<path fill="none" stroke="#9a32cd" stroke-dasharray="5,2" d="M332.416,-226.468C337.699,-224.42 343.028,-222.219 348,-219.947 356.323,-216.142 357.197,-212.449 366,-209.947 487.924,-175.287 640.893,-209.419 706.143,-227.405"/>
<polygon fill="#9a32cd" stroke="#9a32cd" points="331.185,-223.192 323.045,-229.973 333.638,-229.748 331.185,-223.192"/>
<text text-anchor="middle" x="500" y="-202.947" font-family="Arial" font-size="10.00"> toolTips</text>
</g>
<!-- Node4&#45;&gt;Node3 -->
<g id="edge4" class="edge"><title>Node4&#45;&gt;Node3</title>
<path fill="none" stroke="#9a32cd" stroke-dasharray="5,2" d="M333.497,-238.577C362.505,-238.291 403.294,-237.89 437.12,-237.556"/>
<polygon fill="#9a32cd" stroke="#9a32cd" points="333.342,-235.078 323.377,-238.677 333.412,-242.078 333.342,-235.078"/>
<text text-anchor="middle" x="389" y="-241.947" font-family="Arial" font-size="10.00"> toolTips</text>
</g>
<!-- Node4&#45;&gt;Node8 -->
<g id="edge11" class="edge"><title>Node4&#45;&gt;Node8</title>
<path fill="none" stroke="#9a32cd" stroke-dasharray="5,2" d="M332.669,-231.426C338.555,-228.704 344.013,-224.996 348,-219.947 369.353,-192.906 340.261,-88.8523 366,-65.9467 394.807,-40.3109 442.628,-48.5473 472.397,-57.3727"/>
<polygon fill="#9a32cd" stroke="#9a32cd" points="331.368,-228.176 323.217,-234.945 333.81,-234.736 331.368,-228.176"/>
<text text-anchor="middle" x="389" y="-68.9467" font-family="Arial" font-size="10.00"> toolTips</text>
</g>
<!-- Node4&#45;&gt;Node9 -->
<g id="edge15" class="edge"><title>Node4&#45;&gt;Node9</title>
<path fill="none" stroke="#9a32cd" stroke-dasharray="5,2" d="M297.951,-258.92C302.609,-294.451 317.863,-367.997 366,-400.947 391.741,-418.567 427.319,-418.993 455.202,-415.461"/>
<polygon fill="#9a32cd" stroke="#9a32cd" points="301.409,-258.351 296.783,-248.819 294.455,-259.155 301.409,-258.351"/>
<text text-anchor="middle" x="389" y="-419.947" font-family="Arial" font-size="10.00"> toolTips</text>
</g>
<!-- Node4&#45;&gt;Node10 -->
<g id="edge20" class="edge"><title>Node4&#45;&gt;Node10</title>
<path fill="none" stroke="#9a32cd" stroke-dasharray="5,2" d="M332.782,-230.751C338.494,-228.099 343.862,-224.589 348,-219.947 370.809,-194.357 340.994,-168.394 366,-144.947 383.008,-128.998 406.887,-121.973 429.726,-119.343"/>
<polygon fill="#9a32cd" stroke="#9a32cd" points="331.113,-227.64 323.001,-234.455 333.592,-234.187 331.113,-227.64"/>
<text text-anchor="middle" x="389" y="-147.947" font-family="Arial" font-size="10.00"> toolTips</text>
</g>
<!-- Node4&#45;&gt;Node11 -->
<g id="edge25" class="edge"><title>Node4&#45;&gt;Node11</title>
<path fill="none" stroke="#9a32cd" stroke-dasharray="5,2" d="M308.091,-256.907C320.444,-273.541 341.285,-297.267 366,-307.947 386.681,-316.883 410.901,-319.738 432.964,-319.847"/>
<polygon fill="#9a32cd" stroke="#9a32cd" points="310.778,-254.646 302.131,-248.524 305.073,-258.702 310.778,-254.646"/>
<text text-anchor="middle" x="389" y="-321.947" font-family="Arial" font-size="10.00"> toolTips</text>
</g>
<!-- Node4&#45;&gt;Node12 -->
<g id="edge29" class="edge"><title>Node4&#45;&gt;Node12</title>
<path fill="none" stroke="#9a32cd" stroke-dasharray="5,2" d="M301.266,-258.275C317.449,-317.657 365.402,-493.473 366,-493.947 392.619,-515.046 432.521,-513.562 461.675,-508.474"/>
<polygon fill="#9a32cd" stroke="#9a32cd" points="304.638,-257.339 298.632,-248.611 297.885,-259.179 304.638,-257.339"/>
<text text-anchor="middle" x="389" y="-512.947" font-family="Arial" font-size="10.00"> toolTips</text>
</g>
<!-- Node5 -->
<g id="node5" class="node"><title>Node5</title>
<g id="a_node5"><a xlink:href="classid_decl_a_f___constraint.html" target="_top" xlink:title="idDeclAF_Constraint">
<polygon fill="white" stroke="black" points="242,-191.447 242,-210.447 348,-210.447 348,-191.447 242,-191.447"/>
<text text-anchor="middle" x="295" y="-198.447" font-family="Arial" font-size="10.00">idDeclAF_Constraint</text>
</a>
</g>
</g>
<!-- Node5&#45;&gt;Node1 -->
<g id="edge22" class="edge"><title>Node5&#45;&gt;Node1</title>
<path fill="none" stroke="#9a32cd" stroke-dasharray="5,2" d="M296.195,-181.417C297.789,-140.63 307.916,-46.8088 366,-5.94665 382.721,5.81677 391.651,-3.96928 412,-5.94665 529.588,-17.3733 583.672,10.707 670,-69.9467 718.037,-114.826 733.021,-198.452 736.855,-227.055"/>
<polygon fill="#9a32cd" stroke="#9a32cd" points="292.696,-181.34 295.939,-191.426 299.693,-181.519 292.696,-181.34"/>
<text text-anchor="middle" x="500" y="-17.9467" font-family="Arial" font-size="10.00"> constraint</text>
</g>
<!-- Node5&#45;&gt;Node3 -->
<g id="edge5" class="edge"><title>Node5&#45;&gt;Node3</title>
<path fill="none" stroke="#9a32cd" stroke-dasharray="5,2" d="M358.056,-211.952C385.944,-216.897 418.537,-222.677 445.352,-227.433"/>
<polygon fill="#9a32cd" stroke="#9a32cd" points="358.471,-208.471 348.014,-210.171 357.249,-215.363 358.471,-208.471"/>
<text text-anchor="middle" x="389" y="-224.947" font-family="Arial" font-size="10.00"> constraint</text>
</g>
<!-- Node5&#45;&gt;Node8 -->
<g id="edge12" class="edge"><title>Node5&#45;&gt;Node8</title>
<path fill="none" stroke="#9a32cd" stroke-dasharray="5,2" d="M296.731,-180.996C299.372,-141.845 311.421,-55.5053 366,-17.9467 406.746,10.0924 465.498,-36.1057 488.863,-57.2506"/>
<polygon fill="#9a32cd" stroke="#9a32cd" points="293.229,-180.946 296.192,-191.118 300.219,-181.318 293.229,-180.946"/>
<text text-anchor="middle" x="389" y="-20.9467" font-family="Arial" font-size="10.00"> constraint</text>
</g>
<!-- Node5&#45;&gt;Node9 -->
<g id="edge16" class="edge"><title>Node5&#45;&gt;Node9</title>
<path fill="none" stroke="#9a32cd" stroke-dasharray="5,2" d="M344.787,-216.553C345.932,-217.611 347.008,-218.741 348,-219.947 380.593,-259.555 336.38,-292.069 366,-333.947 389.274,-366.852 432.455,-386.183 463.302,-396.387"/>
<polygon fill="#9a32cd" stroke="#9a32cd" points="346.559,-213.518 336.385,-210.561 342.494,-219.217 346.559,-213.518"/>
<text text-anchor="middle" x="389" y="-376.947" font-family="Arial" font-size="10.00"> constraint</text>
</g>
<!-- Node5&#45;&gt;Node10 -->
<g id="edge21" class="edge"><title>Node5&#45;&gt;Node10</title>
<path fill="none" stroke="#9a32cd" stroke-dasharray="5,2" d="M301.374,-181.292C309.964,-154.189 329.646,-106.377 366,-85.9467 383.823,-75.9304 391.948,-81.9617 412,-85.9467 437.332,-90.9807 464.535,-103.514 481.65,-112.372"/>
<polygon fill="#9a32cd" stroke="#9a32cd" points="297.926,-180.607 298.44,-191.189 304.638,-182.596 297.926,-180.607"/>
<text text-anchor="middle" x="389" y="-88.9467" font-family="Arial" font-size="10.00"> constraint</text>
</g>
<!-- Node5&#45;&gt;Node11 -->
<g id="edge26" class="edge"><title>Node5&#45;&gt;Node11</title>
<path fill="none" stroke="#9a32cd" stroke-dasharray="5,2" d="M341.769,-215.312C343.971,-216.72 346.067,-218.261 348,-219.947 360.887,-231.184 353.498,-242.283 366,-253.947 387.887,-274.366 418.009,-288.523 444.053,-297.841"/>
<polygon fill="#9a32cd" stroke="#9a32cd" points="343.322,-212.174 332.858,-210.517 340.005,-218.338 343.322,-212.174"/>
<text text-anchor="middle" x="389" y="-285.947" font-family="Arial" font-size="10.00"> constraint</text>
</g>
<!-- Node5&#45;&gt;Node12 -->
<g id="edge30" class="edge"><title>Node5&#45;&gt;Node12</title>
<path fill="none" stroke="#9a32cd" stroke-dasharray="5,2" d="M344.967,-216.524C346.054,-217.59 347.07,-218.73 348,-219.947 376.711,-257.512 339.521,-392.776 366,-431.947 386.85,-462.791 426.326,-480.135 456.876,-489.407"/>
<polygon fill="#9a32cd" stroke="#9a32cd" points="347.008,-213.681 336.905,-210.493 342.815,-219.286 347.008,-213.681"/>
<text text-anchor="middle" x="389" y="-473.947" font-family="Arial" font-size="10.00"> constraint</text>
</g>
<!-- Node6 -->
<g id="node6" class="node"><title>Node6</title>
<g id="a_node6"><a xlink:href="classid_str.html" target="_top" xlink:title="idStr">
<polygon fill="white" stroke="black" points="0.5,-202.447 0.5,-221.447 37.5,-221.447 37.5,-202.447 0.5,-202.447"/>
<text text-anchor="middle" x="19" y="-209.447" font-family="Arial" font-size="10.00">idStr</text>
</a>
</g>
</g>
<!-- Node6&#45;&gt;Node5 -->
<g id="edge6" class="edge"><title>Node6&#45;&gt;Node5</title>
<path fill="none" stroke="#9a32cd" stroke-dasharray="5,2" d="M47.6347,-220.43C50.4392,-221.048 53.2624,-221.573 56,-221.947 129.983,-232.031 150.125,-232.789 224,-221.947 239.19,-219.717 255.659,-214.904 268.804,-210.447"/>
<polygon fill="#9a32cd" stroke="#9a32cd" points="48.3004,-216.988 37.7451,-217.903 46.5669,-223.77 48.3004,-216.988"/>
<text text-anchor="middle" x="135" y="-254.947" font-family="Arial" font-size="10.00"> name</text>
<text text-anchor="middle" x="135" y="-243.947" font-family="Arial" font-size="10.00">body1</text>
<text text-anchor="middle" x="135" y="-232.947" font-family="Arial" font-size="10.00">body2</text>
</g>
<!-- Node7 -->
<g id="node7" class="node"><title>Node7</title>
<g id="a_node7"><a xlink:href="classid_a_f_vector.html" target="_top" xlink:title="idAFVector">
<polygon fill="white" stroke="black" points="102.5,-168.447 102.5,-187.447 167.5,-187.447 167.5,-168.447 102.5,-168.447"/>
<text text-anchor="middle" x="135" y="-175.447" font-family="Arial" font-size="10.00">idAFVector</text>
</a>
</g>
</g>
<!-- Node6&#45;&gt;Node7 -->
<g id="edge8" class="edge"><title>Node6&#45;&gt;Node7</title>
<path fill="none" stroke="#9a32cd" stroke-dasharray="5,2" d="M47.2789,-202.705C50.2165,-201.754 53.1663,-200.818 56,-199.947 71.1968,-195.274 88.1752,-190.439 102.401,-186.497"/>
<polygon fill="#9a32cd" stroke="#9a32cd" points="45.9254,-199.465 37.5252,-205.922 48.1183,-206.113 45.9254,-199.465"/>
<text text-anchor="middle" x="70" y="-213.947" font-family="Arial" font-size="10.00"> joint1</text>
<text text-anchor="middle" x="70" y="-202.947" font-family="Arial" font-size="10.00">joint2</text>
</g>
<!-- Node7&#45;&gt;Node5 -->
<g id="edge7" class="edge"><title>Node7&#45;&gt;Node5</title>
<path fill="none" stroke="#9a32cd" stroke-dasharray="5,2" d="M177.519,-166.821C192.306,-164.418 209.005,-163.498 224,-166.947 244.408,-171.641 265.765,-183.115 279.44,-191.438"/>
<polygon fill="#9a32cd" stroke="#9a32cd" points="176.81,-163.394 167.632,-168.687 178.108,-170.272 176.81,-163.394"/>
<text text-anchor="middle" x="205" y="-213.947" font-family="Arial" font-size="10.00"> shaft</text>
<text text-anchor="middle" x="205" y="-202.947" font-family="Arial" font-size="10.00">anchor2</text>
<text text-anchor="middle" x="205" y="-191.947" font-family="Arial" font-size="10.00">anchor</text>
<text text-anchor="middle" x="205" y="-180.947" font-family="Arial" font-size="10.00">limitAxis</text>
<text text-anchor="middle" x="205" y="-169.947" font-family="Arial" font-size="10.00">axis</text>
</g>
<!-- Node8&#45;&gt;Node1 -->
<g id="edge9" class="edge"><title>Node8&#45;&gt;Node1</title>
<path fill="none" stroke="#9a32cd" stroke-dasharray="5,2" d="M572.57,-70.4955C605.095,-75.2605 642.384,-85.4854 670,-106.947 711.229,-138.987 730.032,-203.075 735.888,-227.339"/>
<polygon fill="#9a32cd" stroke="#9a32cd" points="573.017,-67.0242 562.645,-69.1856 572.101,-73.964 573.017,-67.0242"/>
<text text-anchor="middle" x="629" y="-109.947" font-family="Arial" font-size="10.00"> fixedDlg</text>
</g>
<!-- Node9&#45;&gt;Node1 -->
<g id="edge13" class="edge"><title>Node9&#45;&gt;Node1</title>
<path fill="none" stroke="#9a32cd" stroke-dasharray="5,2" d="M527.379,-391.459C561.509,-372.259 622.252,-336.526 670,-299.947 692.485,-282.721 716.194,-259.403 728.816,-246.512"/>
<polygon fill="#9a32cd" stroke="#9a32cd" points="525.515,-388.491 518.491,-396.423 528.928,-394.602 525.515,-388.491"/>
<text text-anchor="middle" x="629" y="-358.947" font-family="Arial" font-size="10.00"> springDlg</text>
</g>
<!-- Node10&#45;&gt;Node1 -->
<g id="edge18" class="edge"><title>Node10&#45;&gt;Node1</title>
<path fill="none" stroke="#9a32cd" stroke-dasharray="5,2" d="M580.01,-119.966C609.938,-122.37 643.22,-129.083 670,-144.947 703.494,-164.787 725.56,-208.175 734.064,-227.424"/>
<polygon fill="#9a32cd" stroke="#9a32cd" points="580.21,-116.472 570.003,-119.309 579.752,-123.457 580.21,-116.472"/>
<text text-anchor="middle" x="629" y="-147.947" font-family="Arial" font-size="10.00"> universalDlg</text>
</g>
<!-- Node11&#45;&gt;Node1 -->
<g id="edge23" class="edge"><title>Node11&#45;&gt;Node1</title>
<path fill="none" stroke="#9a32cd" stroke-dasharray="5,2" d="M557.621,-294.79C604.912,-279.625 670.479,-258.599 708.147,-246.52"/>
<polygon fill="#9a32cd" stroke="#9a32cd" points="556.277,-291.545 547.824,-297.931 558.415,-298.211 556.277,-291.545"/>
<text text-anchor="middle" x="629" y="-287.947" font-family="Arial" font-size="10.00"> ballAndSocketDlg</text>
</g>
<!-- Node12&#45;&gt;Node1 -->
<g id="edge27" class="edge"><title>Node12&#45;&gt;Node1</title>
<path fill="none" stroke="#9a32cd" stroke-dasharray="5,2" d="M527.312,-484.244C563.306,-463.069 628.187,-420.985 670,-370.947 703.958,-330.309 726.819,-269.861 734.83,-246.574"/>
<polygon fill="#9a32cd" stroke="#9a32cd" points="525.291,-481.369 518.392,-489.41 528.799,-487.427 525.291,-481.369"/>
<text text-anchor="middle" x="629" y="-447.947" font-family="Arial" font-size="10.00"> sliderDlg</text>
</g>
</g>
</svg>
