<?xml version="1.0" encoding="UTF-8" standalone="no"?>
<!DOCTYPE svg PUBLIC "-//W3C//DTD SVG 1.1//EN"
 "http://www.w3.org/Graphics/SVG/1.1/DTD/svg11.dtd">
<!-- Generated by graphviz version 2.34.0 (20130907.0111)
 -->
<!-- Title: CPropTreeItemEditButton Pages: 1 -->
<svg width="422pt" height="231pt"
 viewBox="0.00 0.00 422.00 230.50" xmlns="http://www.w3.org/2000/svg" xmlns:xlink="http://www.w3.org/1999/xlink">
<g id="graph0" class="graph" transform="scale(1 1) rotate(0) translate(4 226.5)">
<title>CPropTreeItemEditButton</title>
<polygon fill="white" stroke="white" points="-4,4 -4,-226.5 418,-226.5 418,4 -4,4"/>
<!-- Node1 -->
<g id="node1" class="node"><title>Node1</title>
<polygon fill="#bfbfbf" stroke="black" points="-0.5,-0.5 -0.5,-19.5 126.5,-19.5 126.5,-0.5 -0.5,-0.5"/>
<text text-anchor="middle" x="63" y="-7.5" font-family="Arial" font-size="10.00">CPropTreeItemEditButton</text>
</g>
<!-- Node2 -->
<g id="node2" class="node"><title>Node2</title>
<g id="a_node2"><a xlink:href="class_c_prop_tree_item_edit.html" target="_top" xlink:title="CPropTreeItemEdit">
<polygon fill="white" stroke="black" points="14,-68.5 14,-87.5 112,-87.5 112,-68.5 14,-68.5"/>
<text text-anchor="middle" x="63" y="-75.5" font-family="Arial" font-size="10.00">CPropTreeItemEdit</text>
</a>
</g>
</g>
<!-- Node2&#45;&gt;Node1 -->
<g id="edge1" class="edge"><title>Node2&#45;&gt;Node1</title>
<path fill="none" stroke="midnightblue" d="M63,-58.0413C63,-45.4724 63,-29.5631 63,-19.8411"/>
<polygon fill="midnightblue" stroke="midnightblue" points="59.5001,-58.3716 63,-68.3717 66.5001,-58.3717 59.5001,-58.3716"/>
</g>
<!-- Node3 -->
<g id="node3" class="node"><title>Node3</title>
<polygon fill="white" stroke="#bfbfbf" points="42.5,-185.5 42.5,-204.5 83.5,-204.5 83.5,-185.5 42.5,-185.5"/>
<text text-anchor="middle" x="63" y="-192.5" font-family="Arial" font-size="10.00">CEdit</text>
</g>
<!-- Node3&#45;&gt;Node2 -->
<g id="edge2" class="edge"><title>Node3&#45;&gt;Node2</title>
<path fill="none" stroke="midnightblue" d="M63,-175.245C63,-150.056 63,-106.317 63,-87.744"/>
<polygon fill="midnightblue" stroke="midnightblue" points="59.5001,-175.356 63,-185.356 66.5001,-175.356 59.5001,-175.356"/>
</g>
<!-- Node4 -->
<g id="node4" class="node"><title>Node4</title>
<g id="a_node4"><a xlink:href="class_c_prop_tree_item.html" target="_top" xlink:title="CPropTreeItem">
<polygon fill="white" stroke="black" points="155.5,-185.5 155.5,-204.5 236.5,-204.5 236.5,-185.5 155.5,-185.5"/>
<text text-anchor="middle" x="196" y="-192.5" font-family="Arial" font-size="10.00">CPropTreeItem</text>
</a>
</g>
</g>
<!-- Node4&#45;&gt;Node2 -->
<g id="edge3" class="edge"><title>Node4&#45;&gt;Node2</title>
<path fill="none" stroke="midnightblue" d="M178.111,-178.532C149.794,-154.048 95.5597,-107.153 73.1126,-87.744"/>
<polygon fill="midnightblue" stroke="midnightblue" points="176.15,-181.463 186.003,-185.356 180.728,-176.168 176.15,-181.463"/>
</g>
<!-- Node4&#45;&gt;Node4 -->
<g id="edge13" class="edge"><title>Node4&#45;&gt;Node4</title>
<path fill="none" stroke="#9a32cd" stroke-dasharray="5,2" d="M223.895,-206.761C239.547,-209.008 254,-205.088 254,-195 254,-182.818 232.924,-179.63 214.113,-185.436"/>
<polygon fill="#9a32cd" stroke="#9a32cd" points="224.637,-203.34 214.113,-204.564 223.103,-210.17 224.637,-203.34"/>
<text text-anchor="middle" x="279.5" y="-214.5" font-family="Arial" font-size="10.00"> m_pParent</text>
<text text-anchor="middle" x="279.5" y="-203.5" font-family="Arial" font-size="10.00">m_pVis</text>
<text text-anchor="middle" x="279.5" y="-192.5" font-family="Arial" font-size="10.00">m_pSibling</text>
<text text-anchor="middle" x="279.5" y="-181.5" font-family="Arial" font-size="10.00">m_pChild</text>
<text text-anchor="middle" x="279.5" y="-170.5" font-family="Arial" font-size="10.00">m_lParam</text>
</g>
<!-- Node5 -->
<g id="node5" class="node"><title>Node5</title>
<g id="a_node5"><a xlink:href="class_c_prop_tree.html" target="_top" xlink:title="CPropTree">
<polygon fill="white" stroke="black" points="250,-68.5 250,-87.5 312,-87.5 312,-68.5 250,-68.5"/>
<text text-anchor="middle" x="281" y="-75.5" font-family="Arial" font-size="10.00">CPropTree</text>
</a>
</g>
</g>
<!-- Node4&#45;&gt;Node5 -->
<g id="edge9" class="edge"><title>Node4&#45;&gt;Node5</title>
<path fill="none" stroke="#9a32cd" stroke-dasharray="5,2" d="M189.318,-175.803C183.505,-156.52 178.119,-126.132 193,-106 205.919,-88.5227 229.948,-81.9949 249.636,-79.7154"/>
<polygon fill="#9a32cd" stroke="#9a32cd" points="186.061,-177.101 192.552,-185.475 192.7,-174.881 186.061,-177.101"/>
<text text-anchor="middle" x="224" y="-142" font-family="Arial" font-size="10.00"> m_Root</text>
<text text-anchor="middle" x="224" y="-131" font-family="Arial" font-size="10.00">m_pVisbleList</text>
<text text-anchor="middle" x="224" y="-120" font-family="Arial" font-size="10.00">m_pFocus</text>
<text text-anchor="middle" x="224" y="-109" font-family="Arial" font-size="10.00">s_pFound</text>
</g>
<!-- Node5&#45;&gt;Node4 -->
<g id="edge4" class="edge"><title>Node5&#45;&gt;Node4</title>
<path fill="none" stroke="#9a32cd" stroke-dasharray="5,2" d="M278.584,-97.9448C275.874,-113.193 270.281,-134.554 259,-150 247.433,-165.837 228.377,-177.994 214.247,-185.476"/>
<polygon fill="#9a32cd" stroke="#9a32cd" points="282.102,-98.0864 280.14,-87.6747 275.181,-97.0373 282.102,-98.0864"/>
<text text-anchor="middle" x="298.5" y="-125.5" font-family="Arial" font-size="10.00"> m_pProp</text>
</g>
<!-- Node7 -->
<g id="node7" class="node"><title>Node7</title>
<g id="a_node7"><a xlink:href="class_c_prop_tree_list.html" target="_top" xlink:title="CPropTreeList">
<polygon fill="white" stroke="black" points="336,-0.5 336,-19.5 414,-19.5 414,-0.5 336,-0.5"/>
<text text-anchor="middle" x="375" y="-7.5" font-family="Arial" font-size="10.00">CPropTreeList</text>
</a>
</g>
</g>
<!-- Node5&#45;&gt;Node7 -->
<g id="edge8" class="edge"><title>Node5&#45;&gt;Node7</title>
<path fill="none" stroke="#9a32cd" stroke-dasharray="5,2" d="M289.29,-59.1608C293.442,-51.7996 299.074,-43.6801 306,-38 316.146,-29.6798 329.16,-23.7034 341.147,-19.524"/>
<polygon fill="#9a32cd" stroke="#9a32cd" points="285.989,-57.9303 284.562,-68.4286 292.224,-61.1115 285.989,-57.9303"/>
<text text-anchor="middle" x="327.5" y="-41.5" font-family="Arial" font-size="10.00"> m_pProp</text>
</g>
<!-- Node8 -->
<g id="node8" class="node"><title>Node8</title>
<g id="a_node8"><a xlink:href="class_c_prop_tree_info.html" target="_top" xlink:title="CPropTreeInfo">
<polygon fill="white" stroke="black" points="149.5,-0.5 149.5,-19.5 226.5,-19.5 226.5,-0.5 149.5,-0.5"/>
<text text-anchor="middle" x="188" y="-7.5" font-family="Arial" font-size="10.00">CPropTreeInfo</text>
</a>
</g>
</g>
<!-- Node5&#45;&gt;Node8 -->
<g id="edge12" class="edge"><title>Node5&#45;&gt;Node8</title>
<path fill="none" stroke="#9a32cd" stroke-dasharray="5,2" d="M239.582,-76.3197C219.76,-73.6347 197.642,-66.6878 185,-50 178.439,-41.3392 181.251,-28.27 184.283,-19.6861"/>
<polygon fill="#9a32cd" stroke="#9a32cd" points="239.368,-79.8162 249.675,-77.3643 240.089,-72.8534 239.368,-79.8162"/>
<text text-anchor="middle" x="206.5" y="-41.5" font-family="Arial" font-size="10.00"> m_pProp</text>
</g>
<!-- Node6 -->
<g id="node6" class="node"><title>Node6</title>
<polygon fill="white" stroke="#bfbfbf" points="351,-185.5 351,-204.5 395,-204.5 395,-185.5 351,-185.5"/>
<text text-anchor="middle" x="373" y="-192.5" font-family="Arial" font-size="10.00">CWnd</text>
</g>
<!-- Node6&#45;&gt;Node5 -->
<g id="edge5" class="edge"><title>Node6&#45;&gt;Node5</title>
<path fill="none" stroke="midnightblue" d="M366.166,-176.025C358.241,-156.953 343.7,-126.765 324,-106 316.841,-98.454 307.146,-92.1279 298.773,-87.5005"/>
<polygon fill="midnightblue" stroke="midnightblue" points="362.926,-177.351 369.878,-185.346 369.429,-174.761 362.926,-177.351"/>
</g>
<!-- Node6&#45;&gt;Node7 -->
<g id="edge7" class="edge"><title>Node6&#45;&gt;Node7</title>
<path fill="none" stroke="midnightblue" d="M377.587,-175.595C384.113,-148.362 395.759,-95.6322 400,-50 400.494,-44.6896 401.946,-42.9657 400,-38 397.203,-30.8625 391.535,-24.4838 386.302,-19.7208"/>
<polygon fill="midnightblue" stroke="midnightblue" points="374.186,-174.769 375.213,-185.314 380.986,-176.429 374.186,-174.769"/>
</g>
<!-- Node7&#45;&gt;Node5 -->
<g id="edge6" class="edge"><title>Node7&#45;&gt;Node5</title>
<path fill="none" stroke="#9a32cd" stroke-dasharray="5,2" d="M368.167,-28.8868C364.596,-36.2566 359.577,-44.3696 353,-50 341.438,-59.8969 325.896,-66.3336 312.211,-70.4292"/>
<polygon fill="#9a32cd" stroke="#9a32cd" points="371.424,-30.1707 372.149,-19.6007 364.991,-27.4114 371.424,-30.1707"/>
<text text-anchor="middle" x="379.5" y="-41.5" font-family="Arial" font-size="10.00"> m_List</text>
</g>
<!-- Node8&#45;&gt;Node5 -->
<g id="edge10" class="edge"><title>Node8&#45;&gt;Node5</title>
<path fill="none" stroke="#9a32cd" stroke-dasharray="5,2" d="M211.632,-24.7737C218.324,-28.8683 225.541,-33.4733 232,-38 245.889,-47.7348 261.047,-60.0875 270.769,-68.2526"/>
<polygon fill="#9a32cd" stroke="#9a32cd" points="213.329,-21.71 202.954,-19.5618 209.725,-27.7109 213.329,-21.71"/>
<text text-anchor="middle" x="264" y="-41.5" font-family="Arial" font-size="10.00"> m_Info</text>
</g>
<!-- Node9 -->
<g id="node9" class="node"><title>Node9</title>
<polygon fill="white" stroke="#bfbfbf" points="130.5,-68.5 130.5,-87.5 179.5,-87.5 179.5,-68.5 130.5,-68.5"/>
<text text-anchor="middle" x="155" y="-75.5" font-family="Arial" font-size="10.00">CStatic</text>
</g>
<!-- Node9&#45;&gt;Node8 -->
<g id="edge11" class="edge"><title>Node9&#45;&gt;Node8</title>
<path fill="none" stroke="midnightblue" d="M160.407,-58.7838C162.688,-52.0816 165.606,-44.5361 169,-38 172.381,-31.4888 177.131,-24.7388 181.036,-19.6166"/>
<polygon fill="midnightblue" stroke="midnightblue" points="157.059,-57.7654 157.372,-68.3556 163.731,-59.8812 157.059,-57.7654"/>
</g>
</g>
</svg>
