<?xml version="1.0" encoding="UTF-8" standalone="no"?>
<!DOCTYPE svg PUBLIC "-//W3C//DTD SVG 1.1//EN"
 "http://www.w3.org/Graphics/SVG/1.1/DTD/svg11.dtd">
<!-- Generated by graphviz version 2.34.0 (20130907.0111)
 -->
<!-- Title: idRenderModelMD5 Pages: 1 -->
<svg width="861pt" height="390pt"
 viewBox="0.00 0.00 861.00 390.00" xmlns="http://www.w3.org/2000/svg" xmlns:xlink="http://www.w3.org/1999/xlink">
<g id="graph0" class="graph" transform="scale(1 1) rotate(0) translate(4 386)">
<title>idRenderModelMD5</title>
<polygon fill="white" stroke="white" points="-4,4 -4,-386 857,-386 857,4 -4,4"/>
<!-- Node1 -->
<g id="node1" class="node"><title>Node1</title>
<polygon fill="#bfbfbf" stroke="black" points="450.5,-0.5 450.5,-19.5 551.5,-19.5 551.5,-0.5 450.5,-0.5"/>
<text text-anchor="middle" x="501" y="-7.5" font-family="Arial" font-size="10.00">idRenderModelMD5</text>
</g>
<!-- Node2 -->
<g id="node2" class="node"><title>Node2</title>
<g id="a_node2"><a xlink:href="classid_render_model_static.html" target="_top" xlink:title="idRenderModelStatic">
<polygon fill="white" stroke="black" points="447.5,-58.5 447.5,-77.5 554.5,-77.5 554.5,-58.5 447.5,-58.5"/>
<text text-anchor="middle" x="501" y="-65.5" font-family="Arial" font-size="10.00">idRenderModelStatic</text>
</a>
</g>
</g>
<!-- Node2&#45;&gt;Node1 -->
<g id="edge1" class="edge"><title>Node2&#45;&gt;Node1</title>
<path fill="none" stroke="midnightblue" d="M501,-47.953C501,-38.2875 501,-27.0312 501,-19.5052"/>
<polygon fill="midnightblue" stroke="midnightblue" points="497.5,-48.25 501,-58.25 504.5,-48.25 497.5,-48.25"/>
</g>
<!-- Node3 -->
<g id="node3" class="node"><title>Node3</title>
<g id="a_node3"><a xlink:href="classid_render_model.html" target="_top" xlink:title="idRenderModel">
<polygon fill="white" stroke="black" points="182.5,-159.5 182.5,-178.5 263.5,-178.5 263.5,-159.5 182.5,-159.5"/>
<text text-anchor="middle" x="223" y="-166.5" font-family="Arial" font-size="10.00">idRenderModel</text>
</a>
</g>
</g>
<!-- Node3&#45;&gt;Node2 -->
<g id="edge2" class="edge"><title>Node3&#45;&gt;Node2</title>
<path fill="none" stroke="midnightblue" d="M239.32,-152.421C257.975,-135.588 290.19,-109.382 323,-96 362.794,-79.7687 411.192,-73.1842 447.47,-70.5663"/>
<polygon fill="midnightblue" stroke="midnightblue" points="236.719,-150.059 231.749,-159.417 241.469,-155.201 236.719,-150.059"/>
</g>
<!-- Node4 -->
<g id="node4" class="node"><title>Node4</title>
<g id="a_node4"><a xlink:href="classid_str.html" target="_top" xlink:title="idStr">
<polygon fill="white" stroke="black" points="281.5,-159.5 281.5,-178.5 318.5,-178.5 318.5,-159.5 281.5,-159.5"/>
<text text-anchor="middle" x="300" y="-166.5" font-family="Arial" font-size="10.00">idStr</text>
</a>
</g>
</g>
<!-- Node4&#45;&gt;Node2 -->
<g id="edge3" class="edge"><title>Node4&#45;&gt;Node2</title>
<path fill="none" stroke="#9a32cd" stroke-dasharray="5,2" d="M313.829,-151.571C328.71,-134.986 353.914,-109.895 381,-96 401.425,-85.5223 425.856,-79.0832 447.328,-75.1385"/>
<polygon fill="#9a32cd" stroke="#9a32cd" points="310.968,-149.527 307.033,-159.364 316.243,-154.128 310.968,-149.527"/>
<text text-anchor="middle" x="395" y="-115.5" font-family="Arial" font-size="10.00"> name</text>
</g>
<!-- Node5 -->
<g id="node5" class="node"><title>Node5</title>
<g id="a_node5"><a xlink:href="structsrf_triangles__s.html" target="_top" xlink:title="srfTriangles_s">
<polygon fill="white" stroke="black" points="336.5,-159.5 336.5,-178.5 413.5,-178.5 413.5,-159.5 336.5,-159.5"/>
<text text-anchor="middle" x="375" y="-166.5" font-family="Arial" font-size="10.00">srfTriangles_s</text>
</a>
</g>
</g>
<!-- Node5&#45;&gt;Node2 -->
<g id="edge4" class="edge"><title>Node5&#45;&gt;Node2</title>
<path fill="none" stroke="#9a32cd" stroke-dasharray="5,2" d="M394.063,-153.022C420.798,-132.015 468.56,-94.4889 490.023,-77.6245"/>
<polygon fill="#9a32cd" stroke="#9a32cd" points="391.882,-150.284 386.182,-159.214 396.207,-155.788 391.882,-150.284"/>
<text text-anchor="middle" x="490.5" y="-115.5" font-family="Arial" font-size="10.00"> shadowHull</text>
</g>
<!-- Node5&#45;&gt;Node5 -->
<g id="edge9" class="edge"><title>Node5&#45;&gt;Node5</title>
<path fill="none" stroke="#9a32cd" stroke-dasharray="5,2" d="M423.872,-176.415C428.251,-174.864 431,-172.392 431,-169 431,-163.434 423.597,-160.346 413.735,-159.737"/>
<polygon fill="#9a32cd" stroke="#9a32cd" points="422.945,-173.026 413.735,-178.263 424.201,-179.912 422.945,-173.026"/>
<text text-anchor="middle" x="468.5" y="-172" font-family="Arial" font-size="10.00"> ambientSurface</text>
<text text-anchor="middle" x="468.5" y="-161" font-family="Arial" font-size="10.00">nextDeferredFree</text>
</g>
<!-- Node6 -->
<g id="node6" class="node"><title>Node6</title>
<g id="a_node6"><a xlink:href="structvert_cache__s.html" target="_top" xlink:title="vertCache_s">
<polygon fill="white" stroke="black" points="170,-266.5 170,-285.5 240,-285.5 240,-266.5 170,-266.5"/>
<text text-anchor="middle" x="205" y="-273.5" font-family="Arial" font-size="10.00">vertCache_s</text>
</a>
</g>
</g>
<!-- Node6&#45;&gt;Node5 -->
<g id="edge5" class="edge"><title>Node6&#45;&gt;Node5</title>
<path fill="none" stroke="#9a32cd" stroke-dasharray="5,2" d="M210.586,-256.719C216.978,-238.958 229.201,-212.593 249,-198 250.809,-196.666 299.877,-185.999 336.234,-178.226"/>
<polygon fill="#9a32cd" stroke="#9a32cd" points="207.249,-255.664 207.413,-266.257 213.891,-257.873 207.249,-255.664"/>
<text text-anchor="middle" x="280.5" y="-234" font-family="Arial" font-size="10.00"> indexCache</text>
<text text-anchor="middle" x="280.5" y="-223" font-family="Arial" font-size="10.00">ambientCache</text>
<text text-anchor="middle" x="280.5" y="-212" font-family="Arial" font-size="10.00">shadowCache</text>
<text text-anchor="middle" x="280.5" y="-201" font-family="Arial" font-size="10.00">lightingCache</text>
</g>
<!-- Node6&#45;&gt;Node6 -->
<g id="edge6" class="edge"><title>Node6&#45;&gt;Node6</title>
<path fill="none" stroke="#9a32cd" stroke-dasharray="5,2" d="M250.235,-283.768C254.967,-282.251 258,-279.662 258,-276 258,-270.141 250.236,-267.028 240.168,-266.662"/>
<polygon fill="#9a32cd" stroke="#9a32cd" points="249.509,-280.339 240.168,-285.338 250.588,-287.255 249.509,-280.339"/>
<text text-anchor="middle" x="268.5" y="-284.5" font-family="Arial" font-size="10.00"> prev</text>
<text text-anchor="middle" x="268.5" y="-273.5" font-family="Arial" font-size="10.00">next</text>
<text text-anchor="middle" x="268.5" y="-262.5" font-family="Arial" font-size="10.00">user</text>
</g>
<!-- Node7 -->
<g id="node7" class="node"><title>Node7</title>
<g id="a_node7"><a xlink:href="classid_plane.html" target="_top" xlink:title="idPlane">
<polygon fill="white" stroke="black" points="297.5,-266.5 297.5,-285.5 346.5,-285.5 346.5,-266.5 297.5,-266.5"/>
<text text-anchor="middle" x="322" y="-273.5" font-family="Arial" font-size="10.00">idPlane</text>
</a>
</g>
</g>
<!-- Node7&#45;&gt;Node5 -->
<g id="edge7" class="edge"><title>Node7&#45;&gt;Node5</title>
<path fill="none" stroke="#9a32cd" stroke-dasharray="5,2" d="M317.526,-256.039C314.713,-239.484 313.37,-215.443 324,-198 329.414,-189.116 338.728,-182.848 347.926,-178.53"/>
<polygon fill="#9a32cd" stroke="#9a32cd" points="314.156,-257.03 319.579,-266.132 321.015,-255.635 314.156,-257.03"/>
<text text-anchor="middle" x="350" y="-217.5" font-family="Arial" font-size="10.00"> facePlanes</text>
</g>
<!-- Node8 -->
<g id="node8" class="node"><title>Node8</title>
<g id="a_node8"><a xlink:href="structsil_edge__t.html" target="_top" xlink:title="silEdge_t">
<polygon fill="white" stroke="black" points="-0.5,-266.5 -0.5,-285.5 56.5,-285.5 56.5,-266.5 -0.5,-266.5"/>
<text text-anchor="middle" x="28" y="-273.5" font-family="Arial" font-size="10.00">silEdge_t</text>
</a>
</g>
</g>
<!-- Node8&#45;&gt;Node5 -->
<g id="edge8" class="edge"><title>Node8&#45;&gt;Node5</title>
<path fill="none" stroke="#9a32cd" stroke-dasharray="5,2" d="M34.4848,-256.841C42.079,-238.522 56.5527,-211.126 79,-198 126.7,-170.108 272.276,-187.652 327,-180 330.035,-179.576 333.165,-179.073 336.305,-178.522"/>
<polygon fill="#9a32cd" stroke="#9a32cd" points="31.1305,-255.812 30.8001,-266.401 37.6622,-258.329 31.1305,-255.812"/>
<text text-anchor="middle" x="99.5" y="-217.5" font-family="Arial" font-size="10.00"> silEdges</text>
</g>
<!-- Node9 -->
<g id="node9" class="node"><title>Node9</title>
<g id="a_node9"><a xlink:href="structshadow_cache__s.html" target="_top" xlink:title="shadowCache_s">
<polygon fill="white" stroke="black" points="440,-266.5 440,-285.5 528,-285.5 528,-266.5 440,-266.5"/>
<text text-anchor="middle" x="484" y="-273.5" font-family="Arial" font-size="10.00">shadowCache_s</text>
</a>
</g>
</g>
<!-- Node9&#45;&gt;Node5 -->
<g id="edge10" class="edge"><title>Node9&#45;&gt;Node5</title>
<path fill="none" stroke="#9a32cd" stroke-dasharray="5,2" d="M474.228,-257.615C464.1,-240.768 446.969,-215.294 427,-198 417.777,-190.012 405.892,-183.4 395.813,-178.611"/>
<polygon fill="#9a32cd" stroke="#9a32cd" points="471.294,-259.531 479.351,-266.41 477.342,-256.008 471.294,-259.531"/>
<text text-anchor="middle" x="502" y="-217.5" font-family="Arial" font-size="10.00"> shadowVertexes</text>
</g>
<!-- Node10 -->
<g id="node10" class="node"><title>Node10</title>
<g id="a_node10"><a xlink:href="classid_vec4.html" target="_top" xlink:title="idVec4">
<polygon fill="white" stroke="black" points="460.5,-362.5 460.5,-381.5 507.5,-381.5 507.5,-362.5 460.5,-362.5"/>
<text text-anchor="middle" x="484" y="-369.5" font-family="Arial" font-size="10.00">idVec4</text>
</a>
</g>
</g>
<!-- Node10&#45;&gt;Node9 -->
<g id="edge11" class="edge"><title>Node10&#45;&gt;Node9</title>
<path fill="none" stroke="#9a32cd" stroke-dasharray="5,2" d="M484,-352.143C484,-331.915 484,-300.678 484,-285.654"/>
<polygon fill="#9a32cd" stroke="#9a32cd" points="480.5,-352.325 484,-362.325 487.5,-352.325 480.5,-352.325"/>
<text text-anchor="middle" x="493.5" y="-324.5" font-family="Arial" font-size="10.00"> xyz</text>
</g>
<!-- Node11 -->
<g id="node11" class="node"><title>Node11</title>
<g id="a_node11"><a xlink:href="classid_bounds.html" target="_top" xlink:title="idBounds">
<polygon fill="white" stroke="black" points="364.5,-266.5 364.5,-285.5 421.5,-285.5 421.5,-266.5 364.5,-266.5"/>
<text text-anchor="middle" x="393" y="-273.5" font-family="Arial" font-size="10.00">idBounds</text>
</a>
</g>
</g>
<!-- Node11&#45;&gt;Node2 -->
<g id="edge17" class="edge"><title>Node11&#45;&gt;Node2</title>
<path fill="none" stroke="#9a32cd" stroke-dasharray="5,2" d="M421.93,-262.914C424.965,-261.847 428.027,-260.851 431,-260 473.574,-247.813 500.656,-276.025 529,-242 542.24,-226.107 539.59,-145.704 521,-96 518.466,-89.2249 513.694,-82.6785 509.447,-77.7287"/>
<polygon fill="#9a32cd" stroke="#9a32cd" points="420.597,-259.676 412.471,-266.474 423.063,-266.227 420.597,-259.676"/>
<text text-anchor="middle" x="554.5" y="-166.5" font-family="Arial" font-size="10.00"> bounds</text>
</g>
<!-- Node11&#45;&gt;Node5 -->
<g id="edge12" class="edge"><title>Node11&#45;&gt;Node5</title>
<path fill="none" stroke="#9a32cd" stroke-dasharray="5,2" d="M389.787,-256.255C385.865,-233.378 379.398,-195.653 376.493,-178.711"/>
<polygon fill="#9a32cd" stroke="#9a32cd" points="386.388,-257.143 391.527,-266.407 393.287,-255.96 386.388,-257.143"/>
<text text-anchor="middle" x="405.5" y="-217.5" font-family="Arial" font-size="10.00"> bounds</text>
</g>
<!-- Node12 -->
<g id="node12" class="node"><title>Node12</title>
<g id="a_node12"><a xlink:href="classid_draw_vert.html" target="_top" xlink:title="idDrawVert">
<polygon fill="white" stroke="black" points="546,-266.5 546,-285.5 610,-285.5 610,-266.5 546,-266.5"/>
<text text-anchor="middle" x="578" y="-273.5" font-family="Arial" font-size="10.00">idDrawVert</text>
</a>
</g>
</g>
<!-- Node12&#45;&gt;Node5 -->
<g id="edge13" class="edge"><title>Node12&#45;&gt;Node5</title>
<path fill="none" stroke="#9a32cd" stroke-dasharray="5,2" d="M574.963,-256.345C571.03,-238.493 562.361,-212.238 544,-198 524.199,-182.646 457.248,-175.374 413.794,-172.196"/>
<polygon fill="#9a32cd" stroke="#9a32cd" points="571.53,-257.027 576.845,-266.193 578.406,-255.713 571.53,-257.027"/>
<text text-anchor="middle" x="583" y="-217.5" font-family="Arial" font-size="10.00"> verts</text>
</g>
<!-- Node13 -->
<g id="node13" class="node"><title>Node13</title>
<g id="a_node13"><a xlink:href="classid_vec2.html" target="_top" xlink:title="idVec2">
<polygon fill="white" stroke="black" points="539.5,-362.5 539.5,-381.5 586.5,-381.5 586.5,-362.5 539.5,-362.5"/>
<text text-anchor="middle" x="563" y="-369.5" font-family="Arial" font-size="10.00">idVec2</text>
</a>
</g>
</g>
<!-- Node13&#45;&gt;Node12 -->
<g id="edge14" class="edge"><title>Node13&#45;&gt;Node12</title>
<path fill="none" stroke="#9a32cd" stroke-dasharray="5,2" d="M565.964,-352.424C569.191,-332.206 574.21,-300.748 576.619,-285.654"/>
<polygon fill="#9a32cd" stroke="#9a32cd" points="562.504,-351.899 564.384,-362.325 569.416,-353.002 562.504,-351.899"/>
<text text-anchor="middle" x="579" y="-324.5" font-family="Arial" font-size="10.00"> st</text>
</g>
<!-- Node14 -->
<g id="node14" class="node"><title>Node14</title>
<g id="a_node14"><a xlink:href="classid_vec3.html" target="_top" xlink:title="idVec3">
<polygon fill="white" stroke="black" points="604.5,-362.5 604.5,-381.5 651.5,-381.5 651.5,-362.5 604.5,-362.5"/>
<text text-anchor="middle" x="628" y="-369.5" font-family="Arial" font-size="10.00">idVec3</text>
</a>
</g>
</g>
<!-- Node14&#45;&gt;Node12 -->
<g id="edge15" class="edge"><title>Node14&#45;&gt;Node12</title>
<path fill="none" stroke="#9a32cd" stroke-dasharray="5,2" d="M618.564,-353.26C607.831,-333.083 590.743,-300.958 582.603,-285.654"/>
<polygon fill="#9a32cd" stroke="#9a32cd" points="615.6,-355.14 623.386,-362.325 621.78,-351.853 615.6,-355.14"/>
<text text-anchor="middle" x="633" y="-335.5" font-family="Arial" font-size="10.00"> xyz</text>
<text text-anchor="middle" x="633" y="-324.5" font-family="Arial" font-size="10.00">normal</text>
<text text-anchor="middle" x="633" y="-313.5" font-family="Arial" font-size="10.00">tangents</text>
</g>
<!-- Node15 -->
<g id="node15" class="node"><title>Node15</title>
<g id="a_node15"><a xlink:href="structdominant_tri__s.html" target="_top" xlink:title="dominantTri_s">
<polygon fill="white" stroke="black" points="74.5,-266.5 74.5,-285.5 151.5,-285.5 151.5,-266.5 74.5,-266.5"/>
<text text-anchor="middle" x="113" y="-273.5" font-family="Arial" font-size="10.00">dominantTri_s</text>
</a>
</g>
</g>
<!-- Node15&#45;&gt;Node5 -->
<g id="edge16" class="edge"><title>Node15&#45;&gt;Node5</title>
<path fill="none" stroke="#9a32cd" stroke-dasharray="5,2" d="M117.518,-256.261C122.943,-238.145 133.931,-211.513 154,-198 186.062,-176.412 288.809,-185.949 327,-180 330.028,-179.528 333.153,-178.992 336.289,-178.417"/>
<polygon fill="#9a32cd" stroke="#9a32cd" points="114.113,-255.447 114.884,-266.014 120.871,-257.273 114.113,-255.447"/>
<text text-anchor="middle" x="183.5" y="-217.5" font-family="Arial" font-size="10.00"> dominantTris</text>
</g>
<!-- Node16 -->
<g id="node16" class="node"><title>Node16</title>
<g id="a_node16"><a xlink:href="classid_c_var.html" target="_top" xlink:title="idCVar">
<polygon fill="white" stroke="black" points="596,-159.5 596,-178.5 642,-178.5 642,-159.5 596,-159.5"/>
<text text-anchor="middle" x="619" y="-166.5" font-family="Arial" font-size="10.00">idCVar</text>
</a>
</g>
</g>
<!-- Node16&#45;&gt;Node2 -->
<g id="edge18" class="edge"><title>Node16&#45;&gt;Node2</title>
<path fill="none" stroke="#9a32cd" stroke-dasharray="5,2" d="M607.607,-151.146C596.247,-135.322 577.566,-111.783 557,-96 547.068,-88.3775 534.638,-82.1191 524.014,-77.5538"/>
<polygon fill="#9a32cd" stroke="#9a32cd" points="604.813,-153.26 613.408,-159.455 610.553,-149.252 604.813,-153.26"/>
<text text-anchor="middle" x="651.5" y="-132" font-family="Arial" font-size="10.00"> r_mergeModelSurfaces</text>
<text text-anchor="middle" x="651.5" y="-121" font-family="Arial" font-size="10.00">r_slopTexCoord</text>
<text text-anchor="middle" x="651.5" y="-110" font-family="Arial" font-size="10.00">r_slopVertex</text>
<text text-anchor="middle" x="651.5" y="-99" font-family="Arial" font-size="10.00">r_slopNormal</text>
</g>
<!-- Node16&#45;&gt;Node16 -->
<g id="edge20" class="edge"><title>Node16&#45;&gt;Node16</title>
<path fill="none" stroke="#9a32cd" stroke-dasharray="5,2" d="M652.411,-177.332C656.964,-175.943 660,-173.166 660,-169 660,-162.164 651.825,-159.067 642.182,-159.707"/>
<polygon fill="#9a32cd" stroke="#9a32cd" points="651.811,-173.873 642.182,-178.293 652.465,-180.843 651.811,-173.873"/>
<text text-anchor="middle" x="683.5" y="-172" font-family="Arial" font-size="10.00"> next</text>
<text text-anchor="middle" x="683.5" y="-161" font-family="Arial" font-size="10.00">internalVar</text>
</g>
<!-- Node17 -->
<g id="node17" class="node"><title>Node17</title>
<g id="a_node17"><a xlink:href="classid_cmd_args.html" target="_top" xlink:title="idCmdArgs">
<polygon fill="white" stroke="black" points="628.5,-266.5 628.5,-285.5 693.5,-285.5 693.5,-266.5 628.5,-266.5"/>
<text text-anchor="middle" x="661" y="-273.5" font-family="Arial" font-size="10.00">idCmdArgs</text>
</a>
</g>
</g>
<!-- Node17&#45;&gt;Node16 -->
<g id="edge19" class="edge"><title>Node17&#45;&gt;Node16</title>
<path fill="none" stroke="#9a32cd" stroke-dasharray="5,2" d="M653.751,-256.878C644.627,-234.068 629.323,-195.807 622.485,-178.711"/>
<polygon fill="#9a32cd" stroke="#9a32cd" points="650.599,-258.423 657.563,-266.407 657.099,-255.823 650.599,-258.423"/>
<text text-anchor="middle" x="685" y="-217.5" font-family="Arial" font-size="10.00"> valueCompletion</text>
</g>
<!-- Node18 -->
<g id="node18" class="node"><title>Node18</title>
<g id="a_node18"><a xlink:href="classid_list.html" target="_top" xlink:title="idList\&lt; modelSurface_s \&gt;">
<polygon fill="white" stroke="black" points="725,-159.5 725,-178.5 853,-178.5 853,-159.5 725,-159.5"/>
<text text-anchor="middle" x="789" y="-166.5" font-family="Arial" font-size="10.00">idList&lt; modelSurface_s &gt;</text>
</a>
</g>
</g>
<!-- Node18&#45;&gt;Node2 -->
<g id="edge21" class="edge"><title>Node18&#45;&gt;Node2</title>
<path fill="none" stroke="#9a32cd" stroke-dasharray="5,2" d="M775.437,-151.334C760.57,-134.339 735.067,-108.718 707,-96 680.634,-84.0534 606.356,-76.4738 554.607,-72.4813"/>
<polygon fill="#9a32cd" stroke="#9a32cd" points="773.067,-153.95 782.2,-159.32 778.409,-149.427 773.067,-153.95"/>
<text text-anchor="middle" x="785" y="-115.5" font-family="Arial" font-size="10.00"> surfaces</text>
</g>
</g>
</svg>
