<?xml version="1.0" encoding="UTF-8" standalone="no"?>
<!DOCTYPE svg PUBLIC "-//W3C//DTD SVG 1.1//EN"
 "http://www.w3.org/Graphics/SVG/1.1/DTD/svg11.dtd">
<!-- Generated by graphviz version 2.34.0 (20130907.0111)
 -->
<!-- Title: MaterialDoc Pages: 1 -->
<!--zoomable 294 -->
<svg id="main" version="1.1" xmlns="http://www.w3.org/2000/svg" xmlns:xlink="http://www.w3.org/1999/xlink" xml:space="preserve" onload="init(evt)">
<style type="text/css"><![CDATA[
.edge:hover path { stroke: red; }
.edge:hover polygon { stroke: red; fill: red; }
]]></style>
<script type="text/javascript"><![CDATA[
var edges = document.getElementsByTagName('g');
if (edges && edges.length) {
  for (var i=0;i<edges.length;i++) {
    if (edges[i].id.substr(0,4)=='edge') {
      edges[i].setAttribute('class','edge');
    }
  }
}
]]></script>
        <defs>
                <circle id="rim" cx="0" cy="0" r="7"/>
                <circle id="rim2" cx="0" cy="0" r="3.5"/>
                <g id="zoomPlus">
                        <use xlink:href="#rim" fill="#404040">
                                <set attributeName="fill" to="#808080" begin="zoomplus.mouseover" end="zoomplus.mouseout"/>
                        </use>
                        <path d="M-4,0h8M0,-4v8" fill="none" stroke="white" stroke-width="1.5" pointer-events="none"/>
                </g>
                <g id="zoomMin">
                        <use xlink:href="#rim" fill="#404040">
                                <set attributeName="fill" to="#808080" begin="zoomminus.mouseover" end="zoomminus.mouseout"/>
                        </use>
                        <path d="M-4,0h8" fill="none" stroke="white" stroke-width="1.5" pointer-events="none"/>
                </g>
                <g id="dirArrow">
                        <path fill="none" stroke="white" stroke-width="1.5" d="M0,-3.0v7 M-2.5,-0.5L0,-3.0L2.5,-0.5"/>
                </g>
               <g id="resetDef">
                       <use xlink:href="#rim2" fill="#404040">
                               <set attributeName="fill" to="#808080" begin="reset.mouseover" end="reset.mouseout"/>
                       </use>
               </g>
        </defs>

<script type="text/javascript">
var viewWidth = 952;
var viewHeight = 294;
var sectionId = 'dynsection-0';
</script>
<script xlink:href="svgpan.js"/>
<svg id="graph" class="graph">
<g id="viewport">
<title>MaterialDoc</title>
<polygon fill="white" stroke="white" points="-4,4 -4,-290 948,-290 948,4 -4,4"/>
<!-- Node1 -->
<g id="node1" class="node"><title>Node1</title>
<polygon fill="#bfbfbf" stroke="black" points="605,-179.5 605,-198.5 673,-198.5 673,-179.5 605,-179.5"/>
<text text-anchor="middle" x="639" y="-186.5" font-family="Arial" font-size="10.00">MaterialDoc</text>
</g>
<!-- Node6 -->
<g id="node6" class="node"><title>Node6</title>
<g id="a_node6"><a xlink:href="class_material_doc_manager.html" target="_top" xlink:title="MaterialDocManager">
<polygon fill="white" stroke="black" points="838,-120.5 838,-139.5 944,-139.5 944,-120.5 838,-120.5"/>
<text text-anchor="middle" x="891" y="-127.5" font-family="Arial" font-size="10.00">MaterialDocManager</text>
</a>
</g>
</g>
<!-- Node1&#45;&gt;Node6 -->
<g id="edge10" class="edge"><title>Node1&#45;&gt;Node6</title>
<path fill="none" stroke="#9a32cd" stroke-dasharray="5,2" d="M683.065,-196.306C720.443,-200.848 775.41,-203.138 820,-187 846.526,-177.4 870.357,-153.12 882.168,-139.55"/>
<polygon fill="#9a32cd" stroke="#9a32cd" points="683.384,-192.818 673.012,-194.978 682.467,-199.757 683.384,-192.818"/>
<text text-anchor="middle" x="775" y="-202" font-family="Arial" font-size="10.00"> currentMaterial</text>
</g>
<!-- Node2 -->
<g id="node2" class="node"><title>Node2</title>
<g id="a_node2"><a xlink:href="classid_str.html" target="_top" xlink:title="idStr">
<polygon fill="white" stroke="black" points="369.5,-236.5 369.5,-255.5 406.5,-255.5 406.5,-236.5 369.5,-236.5"/>
<text text-anchor="middle" x="388" y="-243.5" font-family="Arial" font-size="10.00">idStr</text>
</a>
</g>
</g>
<!-- Node2&#45;&gt;Node1 -->
<g id="edge1" class="edge"><title>Node2&#45;&gt;Node1</title>
<path fill="none" stroke="#9a32cd" stroke-dasharray="5,2" d="M416.506,-239.596C429.144,-236.66 444.33,-233.142 458,-230 509.227,-218.226 568.692,-204.711 604.816,-196.518"/>
<polygon fill="#9a32cd" stroke="#9a32cd" points="415.527,-236.23 406.579,-241.904 417.112,-243.048 415.527,-236.23"/>
<text text-anchor="middle" x="503" y="-233" font-family="Arial" font-size="10.00"> name</text>
</g>
<!-- Node2&#45;&gt;Node6 -->
<g id="edge6" class="edge"><title>Node2&#45;&gt;Node6</title>
<path fill="none" stroke="#9a32cd" stroke-dasharray="5,2" d="M416.844,-251.195C488.614,-263.126 683.802,-286.21 820,-214 852.37,-196.838 875.718,-157.81 885.25,-139.64"/>
<polygon fill="#9a32cd" stroke="#9a32cd" points="417.241,-247.712 406.792,-249.461 416.051,-254.61 417.241,-247.712"/>
<text text-anchor="middle" x="639" y="-278" font-family="Arial" font-size="10.00"> copyMaterial</text>
<text text-anchor="middle" x="639" y="-267" font-family="Arial" font-size="10.00">copyStageMaterial</text>
</g>
<!-- Node3 -->
<g id="node3" class="node"><title>Node3</title>
<g id="a_node3"><a xlink:href="struct_m_e_material__t.html" target="_top" xlink:title="MEMaterial_t">
<polygon fill="white" stroke="black" points="351,-113.5 351,-132.5 425,-132.5 425,-113.5 351,-113.5"/>
<text text-anchor="middle" x="388" y="-120.5" font-family="Arial" font-size="10.00">MEMaterial_t</text>
</a>
</g>
</g>
<!-- Node3&#45;&gt;Node1 -->
<g id="edge2" class="edge"><title>Node3&#45;&gt;Node1</title>
<path fill="none" stroke="#9a32cd" stroke-dasharray="5,2" d="M435.164,-128.808C467.222,-133.473 510.705,-141.064 548,-152 572.803,-159.273 600.106,-171.069 618.061,-179.383"/>
<polygon fill="#9a32cd" stroke="#9a32cd" points="435.571,-125.331 425.18,-127.396 434.591,-132.262 435.571,-125.331"/>
<text text-anchor="middle" x="503" y="-155" font-family="Arial" font-size="10.00"> editMaterial</text>
</g>
<!-- Node4 -->
<g id="node4" class="node"><title>Node4</title>
<g id="a_node4"><a xlink:href="classid_list.html" target="_top" xlink:title="idList\&lt; MEStage_t * \&gt;">
<polygon fill="white" stroke="black" points="128.5,-143.5 128.5,-162.5 241.5,-162.5 241.5,-143.5 128.5,-143.5"/>
<text text-anchor="middle" x="185" y="-150.5" font-family="Arial" font-size="10.00">idList&lt; MEStage_t * &gt;</text>
</a>
</g>
</g>
<!-- Node4&#45;&gt;Node3 -->
<g id="edge3" class="edge"><title>Node4&#45;&gt;Node3</title>
<path fill="none" stroke="#9a32cd" stroke-dasharray="5,2" d="M251.745,-143.187C284.687,-138.271 323.311,-132.506 350.831,-128.398"/>
<polygon fill="#9a32cd" stroke="#9a32cd" points="251.097,-139.745 241.723,-144.683 252.13,-146.669 251.097,-139.745"/>
<text text-anchor="middle" x="289" y="-144" font-family="Arial" font-size="10.00"> stages</text>
</g>
<!-- Node5 -->
<g id="node5" class="node"><title>Node5</title>
<g id="a_node5"><a xlink:href="classid_dict.html" target="_top" xlink:title="idDict">
<polygon fill="white" stroke="black" points="164.5,-90.5 164.5,-109.5 205.5,-109.5 205.5,-90.5 164.5,-90.5"/>
<text text-anchor="middle" x="185" y="-97.5" font-family="Arial" font-size="10.00">idDict</text>
</a>
</g>
</g>
<!-- Node5&#45;&gt;Node3 -->
<g id="edge4" class="edge"><title>Node5&#45;&gt;Node3</title>
<path fill="none" stroke="#9a32cd" stroke-dasharray="5,2" d="M215.967,-103.429C251.922,-107.543 312.169,-114.437 350.72,-118.849"/>
<polygon fill="#9a32cd" stroke="#9a32cd" points="215.972,-99.9069 205.639,-102.247 215.176,-106.861 215.972,-99.9069"/>
<text text-anchor="middle" x="289" y="-117" font-family="Arial" font-size="10.00"> materialData</text>
</g>
<!-- Node8 -->
<g id="node8" class="node"><title>Node8</title>
<g id="a_node8"><a xlink:href="struct_m_e_stage__t.html" target="_top" xlink:title="MEStage_t">
<polygon fill="white" stroke="black" points="470.5,-80.5 470.5,-99.5 535.5,-99.5 535.5,-80.5 470.5,-80.5"/>
<text text-anchor="middle" x="503" y="-87.5" font-family="Arial" font-size="10.00">MEStage_t</text>
</a>
</g>
</g>
<!-- Node5&#45;&gt;Node8 -->
<g id="edge9" class="edge"><title>Node5&#45;&gt;Node8</title>
<path fill="none" stroke="#9a32cd" stroke-dasharray="5,2" d="M215.902,-96.6095C229.361,-95.2284 245.46,-93.7765 260,-93 335.313,-88.9778 423.989,-89.1212 470.261,-89.5661"/>
<polygon fill="#9a32cd" stroke="#9a32cd" points="215.329,-93.1506 205.755,-97.6877 216.069,-100.111 215.329,-93.1506"/>
<text text-anchor="middle" x="289" y="-96" font-family="Arial" font-size="10.00"> stageData</text>
</g>
<!-- Node6&#45;&gt;Node1 -->
<g id="edge5" class="edge"><title>Node6&#45;&gt;Node1</title>
<path fill="none" stroke="#9a32cd" stroke-dasharray="5,2" d="M853.763,-142.824C842.978,-146.391 831.081,-150.083 820,-153 769.303,-166.347 709.436,-177.406 673.118,-183.606"/>
<polygon fill="#9a32cd" stroke="#9a32cd" points="854.942,-146.12 863.3,-139.609 852.706,-139.487 854.942,-146.12"/>
<text text-anchor="middle" x="775" y="-175" font-family="Arial" font-size="10.00"> manager</text>
</g>
<!-- Node7 -->
<g id="node7" class="node"><title>Node7</title>
<g id="a_node7"><a xlink:href="classid_list.html" target="_top" xlink:title="idList\&lt; MaterialModifier * \&gt;">
<polygon fill="white" stroke="black" points="572.5,-123.5 572.5,-142.5 705.5,-142.5 705.5,-123.5 572.5,-123.5"/>
<text text-anchor="middle" x="639" y="-130.5" font-family="Arial" font-size="10.00">idList&lt; MaterialModifier * &gt;</text>
</a>
</g>
</g>
<!-- Node7&#45;&gt;Node6 -->
<g id="edge7" class="edge"><title>Node7&#45;&gt;Node6</title>
<path fill="none" stroke="#9a32cd" stroke-dasharray="5,2" d="M716.153,-131.223C720.838,-131.14 725.483,-131.064 730,-131 765.969,-130.488 806.491,-130.238 837.755,-130.116"/>
<polygon fill="#9a32cd" stroke="#9a32cd" points="715.796,-127.729 705.863,-131.415 715.927,-134.727 715.796,-127.729"/>
<text text-anchor="middle" x="775" y="-145" font-family="Arial" font-size="10.00"> undoModifiers</text>
<text text-anchor="middle" x="775" y="-134" font-family="Arial" font-size="10.00">redoModifiers</text>
</g>
<!-- Node8&#45;&gt;Node6 -->
<g id="edge8" class="edge"><title>Node8&#45;&gt;Node6</title>
<path fill="none" stroke="#9a32cd" stroke-dasharray="5,2" d="M545.936,-91.5351C588.009,-93.3304 654.623,-96.8674 712,-103 754.579,-107.551 802.563,-114.964 837.972,-120.872"/>
<polygon fill="#9a32cd" stroke="#9a32cd" points="545.924,-88.0317 535.788,-91.1156 545.635,-95.0257 545.924,-88.0317"/>
<text text-anchor="middle" x="639" y="-106" font-family="Arial" font-size="10.00"> copyStage</text>
</g>
<!-- Node9 -->
<g id="node9" class="node"><title>Node9</title>
<g id="a_node9"><a xlink:href="classid_hash_table.html" target="_top" xlink:title="idHashTable\&lt; MaterialDoc * \&gt;">
<polygon fill="white" stroke="black" points="566,-38.5 566,-57.5 712,-57.5 712,-38.5 566,-38.5"/>
<text text-anchor="middle" x="639" y="-45.5" font-family="Arial" font-size="10.00">idHashTable&lt; MaterialDoc * &gt;</text>
</a>
</g>
</g>
<!-- Node9&#45;&gt;Node6 -->
<g id="edge11" class="edge"><title>Node9&#45;&gt;Node6</title>
<path fill="none" stroke="#9a32cd" stroke-dasharray="5,2" d="M722.353,-47.3428C753.995,-49.6881 789.753,-55.6204 820,-69 846.535,-80.7378 870.362,-106.127 882.171,-120.167"/>
<polygon fill="#9a32cd" stroke="#9a32cd" points="722.437,-43.8413 712.236,-46.7025 721.995,-50.8273 722.437,-43.8413"/>
<text text-anchor="middle" x="775" y="-72" font-family="Arial" font-size="10.00"> inProgressMaterials</text>
</g>
<!-- Node10 -->
<g id="node10" class="node"><title>Node10</title>
<g id="a_node10"><a xlink:href="classid_list.html" target="_top" xlink:title="idList\&lt; MaterialView * \&gt;">
<polygon fill="white" stroke="black" points="579,-0.5 579,-19.5 699,-19.5 699,-0.5 579,-0.5"/>
<text text-anchor="middle" x="639" y="-7.5" font-family="Arial" font-size="10.00">idList&lt; MaterialView * &gt;</text>
</a>
</g>
</g>
<!-- Node10&#45;&gt;Node6 -->
<g id="edge12" class="edge"><title>Node10&#45;&gt;Node6</title>
<path fill="none" stroke="#9a32cd" stroke-dasharray="5,2" d="M709.583,-6.69553C744.858,-8.01487 787.078,-14.4151 820,-34 854.923,-54.7753 877.55,-100.425 886.124,-120.363"/>
<polygon fill="#9a32cd" stroke="#9a32cd" points="709.438,-3.19103 699.356,-6.44556 709.267,-10.1889 709.438,-3.19103"/>
<text text-anchor="middle" x="775" y="-37" font-family="Arial" font-size="10.00"> materialViews</text>
</g>
<!-- Node11 -->
<g id="node11" class="node"><title>Node11</title>
<g id="a_node11"><a xlink:href="class_source_modify_owner.html" target="_top" xlink:title="SourceModifyOwner">
<polygon fill="white" stroke="black" points="336,-151.5 336,-170.5 440,-170.5 440,-151.5 336,-151.5"/>
<text text-anchor="middle" x="388" y="-158.5" font-family="Arial" font-size="10.00">SourceModifyOwner</text>
</a>
</g>
</g>
<!-- Node11&#45;&gt;Node1 -->
<g id="edge13" class="edge"><title>Node11&#45;&gt;Node1</title>
<path fill="none" stroke="#9a32cd" stroke-dasharray="5,2" d="M450.408,-166.713C479.94,-169.58 515.832,-173.238 548,-177 566.788,-179.197 587.738,-181.971 604.694,-184.299"/>
<polygon fill="#9a32cd" stroke="#9a32cd" points="450.534,-163.209 440.244,-165.733 449.862,-170.177 450.534,-163.209"/>
<text text-anchor="middle" x="503" y="-180" font-family="Arial" font-size="10.00"> sourceModifyOwner</text>
</g>
<!-- Node12 -->
<g id="node12" class="node"><title>Node12</title>
<g id="a_node12"><a xlink:href="classid_material.html" target="_top" xlink:title="idMaterial">
<polygon fill="white" stroke="black" points="358.5,-189.5 358.5,-208.5 417.5,-208.5 417.5,-189.5 358.5,-189.5"/>
<text text-anchor="middle" x="388" y="-196.5" font-family="Arial" font-size="10.00">idMaterial</text>
</a>
</g>
</g>
<!-- Node12&#45;&gt;Node1 -->
<g id="edge14" class="edge"><title>Node12&#45;&gt;Node1</title>
<path fill="none" stroke="#9a32cd" stroke-dasharray="5,2" d="M427.543,-197.293C437.467,-196.862 448.13,-196.406 458,-196 509.245,-193.89 568.705,-191.61 604.823,-190.245"/>
<polygon fill="#9a32cd" stroke="#9a32cd" points="427.372,-193.797 417.534,-197.73 427.677,-200.79 427.372,-193.797"/>
<text text-anchor="middle" x="503" y="-199" font-family="Arial" font-size="10.00"> renderMaterial</text>
</g>
<!-- Node13 -->
<g id="node13" class="node"><title>Node13</title>
<g id="a_node13"><a xlink:href="classid_decl.html" target="_top" xlink:title="idDecl">
<polygon fill="white" stroke="black" points="163,-189.5 163,-208.5 207,-208.5 207,-189.5 163,-189.5"/>
<text text-anchor="middle" x="185" y="-196.5" font-family="Arial" font-size="10.00">idDecl</text>
</a>
</g>
</g>
<!-- Node13&#45;&gt;Node12 -->
<g id="edge15" class="edge"><title>Node13&#45;&gt;Node12</title>
<path fill="none" stroke="midnightblue" d="M217.28,-199C255.92,-199 321.11,-199 358.448,-199"/>
<polygon fill="midnightblue" stroke="midnightblue" points="217.131,-195.5 207.131,-199 217.131,-202.5 217.131,-195.5"/>
</g>
<!-- Node14 -->
<g id="node14" class="node"><title>Node14</title>
<g id="a_node14"><a xlink:href="classid_decl_base.html" target="_top" xlink:title="idDeclBase">
<polygon fill="white" stroke="black" points="0,-189.5 0,-208.5 66,-208.5 66,-189.5 0,-189.5"/>
<text text-anchor="middle" x="33" y="-196.5" font-family="Arial" font-size="10.00">idDeclBase</text>
</a>
</g>
</g>
<!-- Node14&#45;&gt;Node13 -->
<g id="edge16" class="edge"><title>Node14&#45;&gt;Node13</title>
<path fill="none" stroke="#9a32cd" stroke-dasharray="5,2" d="M76.2125,-199C104.506,-199 140.551,-199 162.953,-199"/>
<polygon fill="#9a32cd" stroke="#9a32cd" points="76.1788,-195.5 66.1788,-199 76.1787,-202.5 76.1788,-195.5"/>
<text text-anchor="middle" x="97" y="-202" font-family="Arial" font-size="10.00"> base</text>
</g>
</g>
</svg>
        <g id="navigator" transform="translate(0 0)" fill="#404254">
                <rect fill="#f2f5e9" fill-opacity="0.5" stroke="#606060" stroke-width=".5" x="0" y="0" width="60" height="60"/>
                <use id="zoomplus" xlink:href="#zoomPlus" x="17" y="9" onmousedown="handleZoom(evt,'in')"/>
                <use id="zoomminus" xlink:href="#zoomMin" x="42" y="9" onmousedown="handleZoom(evt,'out')"/>
                <use id="reset" xlink:href="#resetDef" x="30" y="36" onmousedown="handleReset()"/>
                <g id="arrowUp" xlink:href="#dirArrow" transform="translate(30 24)" onmousedown="handlePan(0,-1)">
                  <use xlink:href="#rim" fill="#404040">
                        <set attributeName="fill" to="#808080" begin="arrowUp.mouseover" end="arrowUp.mouseout"/>
                  </use>
                  <path fill="none" stroke="white" stroke-width="1.5" d="M0,-3.0v7 M-2.5,-0.5L0,-3.0L2.5,-0.5"/>
                </g>
                <g id="arrowRight" xlink:href="#dirArrow" transform="rotate(90) translate(36 -43)" onmousedown="handlePan(1,0)">
                  <use xlink:href="#rim" fill="#404040">
                        <set attributeName="fill" to="#808080" begin="arrowRight.mouseover" end="arrowRight.mouseout"/>
                  </use>
                  <path fill="none" stroke="white" stroke-width="1.5" d="M0,-3.0v7 M-2.5,-0.5L0,-3.0L2.5,-0.5"/>
                </g>
                <g id="arrowDown" xlink:href="#dirArrow" transform="rotate(180) translate(-30 -48)" onmousedown="handlePan(0,1)">
                  <use xlink:href="#rim" fill="#404040">
                        <set attributeName="fill" to="#808080" begin="arrowDown.mouseover" end="arrowDown.mouseout"/>
                  </use>
                  <path fill="none" stroke="white" stroke-width="1.5" d="M0,-3.0v7 M-2.5,-0.5L0,-3.0L2.5,-0.5"/>
                </g>
                <g id="arrowLeft" xlink:href="#dirArrow" transform="rotate(270) translate(-36 17)" onmousedown="handlePan(-1,0)">
                  <use xlink:href="#rim" fill="#404040">
                        <set attributeName="fill" to="#808080" begin="arrowLeft.mouseover" end="arrowLeft.mouseout"/>
                  </use>
                  <path fill="none" stroke="white" stroke-width="1.5" d="M0,-3.0v7 M-2.5,-0.5L0,-3.0L2.5,-0.5"/>
                </g>
        </g>
        <svg viewBox="0 0 15 15" width="100%" height="30px" preserveAspectRatio="xMaxYMin meet">
         <g id="arrow_out" transform="scale(0.3 0.3)">
          <a xlink:href="class_material_doc__coll__graph_org.svg" target="_base">
           <rect id="button" ry="5" rx="5" y="6" x="6" height="38" width="38"
                fill="#f2f5e9" fill-opacity="0.5" stroke="#606060" stroke-width="1.0"/>
           <path id="arrow"
             d="M 11.500037,31.436501 C 11.940474,20.09759 22.043105,11.32322 32.158766,21.979434 L 37.068811,17.246167 C 37.068811,17.246167 37.088388,32 37.088388,32 L 22.160133,31.978069 C 22.160133,31.978069 26.997745,27.140456 26.997745,27.140456 C 18.528582,18.264221 13.291696,25.230495 11.500037,31.436501 z"
             style="fill:#404040;"/>
          </a>
         </g>
        </svg>
</svg>
