<?xml version="1.0" encoding="UTF-8" standalone="no"?>
<!DOCTYPE svg PUBLIC "-//W3C//DTD SVG 1.1//EN"
 "http://www.w3.org/Graphics/SVG/1.1/DTD/svg11.dtd">
<!-- Generated by graphviz version 2.34.0 (20130907.0111)
 -->
<!-- Title: BSEntity Pages: 1 -->
<svg width="1098pt" height="1210pt"
 viewBox="0.00 0.00 1098.00 1210.48" xmlns="http://www.w3.org/2000/svg" xmlns:xlink="http://www.w3.org/1999/xlink">
<g id="graph0" class="graph" transform="scale(1 1) rotate(0) translate(4 1206.48)">
<title>BSEntity</title>
<polygon fill="white" stroke="white" points="-4,4 -4,-1206.48 1094,-1206.48 1094,4 -4,4"/>
<!-- Node1 -->
<g id="node1" class="node"><title>Node1</title>
<polygon fill="#bfbfbf" stroke="black" points="1034,-1033.98 1034,-1052.98 1090,-1052.98 1090,-1033.98 1034,-1033.98"/>
<text text-anchor="middle" x="1062" y="-1040.98" font-family="Arial" font-size="10.00">BSEntity</text>
</g>
<!-- Node2 -->
<g id="node2" class="node"><title>Node2</title>
<g id="a_node2"><a xlink:href="classid_str.html" target="_top" xlink:title="idStr">
<polygon fill="white" stroke="black" points="145.5,-905.976 145.5,-924.976 182.5,-924.976 182.5,-905.976 145.5,-905.976"/>
<text text-anchor="middle" x="164" y="-912.976" font-family="Arial" font-size="10.00">idStr</text>
</a>
</g>
</g>
<!-- Node2&#45;&gt;Node1 -->
<g id="edge1" class="edge"><title>Node2&#45;&gt;Node1</title>
<path fill="none" stroke="#9a32cd" stroke-dasharray="5,2" d="M165.668,-935.277C168.821,-994.546 186.857,-1166.48 290,-1166.48 290,-1166.48 290,-1166.48 905,-1166.48 978.117,-1166.48 1037.12,-1082.12 1055.24,-1053.13"/>
<polygon fill="#9a32cd" stroke="#9a32cd" points="169.152,-934.845 165.215,-925.009 162.159,-935.154 169.152,-934.845"/>
<text text-anchor="middle" x="641" y="-1169.48" font-family="Arial" font-size="10.00"> materialName</text>
</g>
<!-- Node4 -->
<g id="node4" class="node"><title>Node4</title>
<g id="a_node4"><a xlink:href="classid_window.html" target="_top" xlink:title="idWindow">
<polygon fill="white" stroke="black" points="704.5,-610.976 704.5,-629.976 763.5,-629.976 763.5,-610.976 704.5,-610.976"/>
<text text-anchor="middle" x="734" y="-617.976" font-family="Arial" font-size="10.00">idWindow</text>
</a>
</g>
</g>
<!-- Node2&#45;&gt;Node4 -->
<g id="edge11" class="edge"><title>Node2&#45;&gt;Node4</title>
<path fill="none" stroke="#9a32cd" stroke-dasharray="5,2" d="M192.76,-910.537C228.856,-904.319 293.922,-893.807 350,-888.476 387.203,-884.94 657.803,-898.002 686,-873.476 723.669,-840.713 731.388,-672.318 732.741,-630.09"/>
<polygon fill="#9a32cd" stroke="#9a32cd" points="191.781,-907.155 182.53,-912.318 192.982,-914.051 191.781,-907.155"/>
<text text-anchor="middle" x="387" y="-913.476" font-family="Arial" font-size="10.00"> comment</text>
<text text-anchor="middle" x="387" y="-902.476" font-family="Arial" font-size="10.00">cmd</text>
<text text-anchor="middle" x="387" y="-891.476" font-family="Arial" font-size="10.00">name</text>
</g>
<!-- Node12 -->
<g id="node12" class="node"><title>Node12</title>
<g id="a_node12"><a xlink:href="classid_win_str.html" target="_top" xlink:title="idWinStr">
<polygon fill="white" stroke="black" points="264,-677.976 264,-696.976 318,-696.976 318,-677.976 264,-677.976"/>
<text text-anchor="middle" x="291" y="-684.976" font-family="Arial" font-size="10.00">idWinStr</text>
</a>
</g>
</g>
<!-- Node2&#45;&gt;Node12 -->
<g id="edge16" class="edge"><title>Node2&#45;&gt;Node12</title>
<path fill="none" stroke="#9a32cd" stroke-dasharray="5,2" d="M170.906,-895.97C182.374,-860.03 210.084,-781.882 250,-725.476 257.746,-714.53 268.983,-704.192 277.576,-697.07"/>
<polygon fill="#9a32cd" stroke="#9a32cd" points="167.509,-895.109 167.873,-905.697 174.191,-897.193 167.509,-895.109"/>
<text text-anchor="middle" x="221" y="-797.476" font-family="Arial" font-size="10.00"> data</text>
</g>
<!-- Node18 -->
<g id="node18" class="node"><title>Node18</title>
<g id="a_node18"><a xlink:href="classid_win_background.html" target="_top" xlink:title="idWinBackground">
<polygon fill="white" stroke="black" points="463.5,-919.976 463.5,-938.976 556.5,-938.976 556.5,-919.976 463.5,-919.976"/>
<text text-anchor="middle" x="510" y="-926.976" font-family="Arial" font-size="10.00">idWinBackground</text>
</a>
</g>
</g>
<!-- Node2&#45;&gt;Node18 -->
<g id="edge26" class="edge"><title>Node2&#45;&gt;Node18</title>
<path fill="none" stroke="#9a32cd" stroke-dasharray="5,2" d="M192.853,-917.233C229.049,-919.458 294.222,-923.268 350,-925.476 388.214,-926.99 431.618,-928.036 463.411,-928.678"/>
<polygon fill="#9a32cd" stroke="#9a32cd" points="192.79,-913.722 182.593,-916.597 192.357,-920.709 192.79,-913.722"/>
<text text-anchor="middle" x="291" y="-927.476" font-family="Arial" font-size="10.00"> data</text>
</g>
<!-- Node3 -->
<g id="node3" class="node"><title>Node3</title>
<g id="a_node3"><a xlink:href="classid_game_bear_shoot_window.html" target="_top" xlink:title="idGameBearShootWindow">
<polygon fill="white" stroke="black" points="838.5,-803.976 838.5,-822.976 969.5,-822.976 969.5,-803.976 838.5,-803.976"/>
<text text-anchor="middle" x="904" y="-810.976" font-family="Arial" font-size="10.00">idGameBearShootWindow</text>
</a>
</g>
</g>
<!-- Node3&#45;&gt;Node1 -->
<g id="edge2" class="edge"><title>Node3&#45;&gt;Node1</title>
<path fill="none" stroke="#9a32cd" stroke-dasharray="5,2" d="M917.207,-831.474C948.481,-877.583 1030.69,-998.782 1054.47,-1033.85"/>
<polygon fill="#9a32cd" stroke="#9a32cd" points="920.014,-829.378 911.505,-823.066 914.221,-833.307 920.014,-829.378"/>
<text text-anchor="middle" x="1002" y="-978.476" font-family="Arial" font-size="10.00"> game</text>
</g>
<!-- Node4&#45;&gt;Node3 -->
<g id="edge3" class="edge"><title>Node4&#45;&gt;Node3</title>
<path fill="none" stroke="midnightblue" d="M750.289,-638.041C784.83,-677.722 867.956,-773.218 894.619,-803.848"/>
<polygon fill="midnightblue" stroke="midnightblue" points="752.537,-635.292 743.331,-630.047 747.257,-639.888 752.537,-635.292"/>
</g>
<!-- Node4&#45;&gt;Node4 -->
<g id="edge13" class="edge"><title>Node4&#45;&gt;Node4</title>
<path fill="none" stroke="#9a32cd" stroke-dasharray="5,2" d="M721.846,-640.243C722.8,-644.973 726.852,-648.476 734,-648.476 745.73,-648.476 749.121,-639.042 744.173,-630.234"/>
<polygon fill="#9a32cd" stroke="#9a32cd" points="725.318,-640.723 723.827,-630.234 718.452,-639.363 725.318,-640.723"/>
<text text-anchor="middle" x="734" y="-684.476" font-family="Arial" font-size="10.00"> captureChild</text>
<text text-anchor="middle" x="734" y="-673.476" font-family="Arial" font-size="10.00">overChild</text>
<text text-anchor="middle" x="734" y="-662.476" font-family="Arial" font-size="10.00">parent</text>
<text text-anchor="middle" x="734" y="-651.476" font-family="Arial" font-size="10.00">focusedChild</text>
</g>
<!-- Node5 -->
<g id="node5" class="node"><title>Node5</title>
<g id="a_node5"><a xlink:href="classid_device_context.html" target="_top" xlink:title="idDeviceContext">
<polygon fill="white" stroke="black" points="467,-767.976 467,-786.976 553,-786.976 553,-767.976 467,-767.976"/>
<text text-anchor="middle" x="510" y="-774.976" font-family="Arial" font-size="10.00">idDeviceContext</text>
</a>
</g>
</g>
<!-- Node5&#45;&gt;Node4 -->
<g id="edge4" class="edge"><title>Node5&#45;&gt;Node4</title>
<path fill="none" stroke="#9a32cd" stroke-dasharray="5,2" d="M563.711,-779.348C601.773,-777.939 652.217,-770.024 686,-741.476 720.943,-711.949 730.022,-653.166 732.284,-630.091"/>
<polygon fill="#9a32cd" stroke="#9a32cd" points="563.246,-775.858 553.328,-779.585 563.405,-782.856 563.246,-775.858"/>
<text text-anchor="middle" x="641" y="-778.476" font-family="Arial" font-size="10.00"> dc</text>
</g>
<!-- Node6 -->
<g id="node6" class="node"><title>Node6</title>
<g id="a_node6"><a xlink:href="classid_vec4.html" target="_top" xlink:title="idVec4">
<polygon fill="white" stroke="black" points="267.5,-734.976 267.5,-753.976 314.5,-753.976 314.5,-734.976 267.5,-734.976"/>
<text text-anchor="middle" x="291" y="-741.976" font-family="Arial" font-size="10.00">idVec4</text>
</a>
</g>
</g>
<!-- Node6&#45;&gt;Node1 -->
<g id="edge48" class="edge"><title>Node6&#45;&gt;Node1</title>
<path fill="none" stroke="#9a32cd" stroke-dasharray="5,2" d="M296.988,-763.897C305.04,-795.66 321.099,-860.764 332,-916.476 336.883,-941.431 331.401,-1012.14 350,-1029.48 401.89,-1077.85 438.06,-1043.48 509,-1043.48 509,-1043.48 509,-1043.48 905,-1043.48 950.229,-1043.48 1002.83,-1043.48 1033.95,-1043.48"/>
<polygon fill="#9a32cd" stroke="#9a32cd" points="300.359,-762.948 294.496,-754.123 293.576,-764.678 300.359,-762.948"/>
<text text-anchor="middle" x="734" y="-1046.48" font-family="Arial" font-size="10.00"> entColor</text>
</g>
<!-- Node6&#45;&gt;Node5 -->
<g id="edge5" class="edge"><title>Node6&#45;&gt;Node5</title>
<path fill="none" stroke="#9a32cd" stroke-dasharray="5,2" d="M324.827,-749.469C362.78,-755.24 425.341,-764.754 466.858,-771.068"/>
<polygon fill="#9a32cd" stroke="#9a32cd" points="325.225,-745.989 314.813,-747.946 324.173,-752.909 325.225,-745.989"/>
<text text-anchor="middle" x="387" y="-854.476" font-family="Arial" font-size="10.00"> colorRed</text>
<text text-anchor="middle" x="387" y="-843.476" font-family="Arial" font-size="10.00">colorNone</text>
<text text-anchor="middle" x="387" y="-832.476" font-family="Arial" font-size="10.00">colorYellow</text>
<text text-anchor="middle" x="387" y="-821.476" font-family="Arial" font-size="10.00">colorPurple</text>
<text text-anchor="middle" x="387" y="-810.476" font-family="Arial" font-size="10.00">colorBlue</text>
<text text-anchor="middle" x="387" y="-799.476" font-family="Arial" font-size="10.00">colorWhite</text>
<text text-anchor="middle" x="387" y="-788.476" font-family="Arial" font-size="10.00">colorGreen</text>
<text text-anchor="middle" x="387" y="-777.476" font-family="Arial" font-size="10.00">colorOrange</text>
<text text-anchor="middle" x="387" y="-766.476" font-family="Arial" font-size="10.00">colorBlack</text>
</g>
<!-- Node7 -->
<g id="node7" class="node"><title>Node7</title>
<g id="a_node7"><a xlink:href="classid_win_vec4.html" target="_top" xlink:title="idWinVec4">
<polygon fill="white" stroke="black" points="478,-548.976 478,-567.976 542,-567.976 542,-548.976 478,-548.976"/>
<text text-anchor="middle" x="510" y="-555.976" font-family="Arial" font-size="10.00">idWinVec4</text>
</a>
</g>
</g>
<!-- Node6&#45;&gt;Node7 -->
<g id="edge9" class="edge"><title>Node6&#45;&gt;Node7</title>
<path fill="none" stroke="#9a32cd" stroke-dasharray="5,2" d="M323.893,-733.093C354.348,-720.546 399.171,-697.394 424,-662.476 445.12,-632.775 417.858,-609.778 442,-582.476 451.167,-572.11 465.137,-566.22 477.953,-562.875"/>
<polygon fill="#9a32cd" stroke="#9a32cd" points="322.56,-729.856 314.554,-736.795 325.14,-736.363 322.56,-729.856"/>
<text text-anchor="middle" x="387" y="-721.476" font-family="Arial" font-size="10.00"> data</text>
</g>
<!-- Node7&#45;&gt;Node4 -->
<g id="edge6" class="edge"><title>Node7&#45;&gt;Node4</title>
<path fill="none" stroke="#9a32cd" stroke-dasharray="5,2" d="M549.86,-546.254C587.056,-536.916 643.617,-529.065 686,-551.476 709.96,-564.147 723.995,-595.124 729.819,-610.902"/>
<polygon fill="#9a32cd" stroke="#9a32cd" points="548.673,-542.948 539.91,-548.903 550.474,-549.712 548.673,-542.948"/>
<text text-anchor="middle" x="641" y="-598.476" font-family="Arial" font-size="10.00"> foreColor</text>
<text text-anchor="middle" x="641" y="-587.476" font-family="Arial" font-size="10.00">matColor</text>
<text text-anchor="middle" x="641" y="-576.476" font-family="Arial" font-size="10.00">hoverColor</text>
<text text-anchor="middle" x="641" y="-565.476" font-family="Arial" font-size="10.00">borderColor</text>
<text text-anchor="middle" x="641" y="-554.476" font-family="Arial" font-size="10.00">backColor</text>
</g>
<!-- Node8 -->
<g id="node8" class="node"><title>Node8</title>
<g id="a_node8"><a xlink:href="classid_win_var.html" target="_top" xlink:title="idWinVar">
<polygon fill="white" stroke="black" points="136,-548.976 136,-567.976 192,-567.976 192,-548.976 136,-548.976"/>
<text text-anchor="middle" x="164" y="-555.976" font-family="Arial" font-size="10.00">idWinVar</text>
</a>
</g>
</g>
<!-- Node8&#45;&gt;Node7 -->
<g id="edge7" class="edge"><title>Node8&#45;&gt;Node7</title>
<path fill="none" stroke="midnightblue" d="M202.584,-558.476C270.95,-558.476 414.432,-558.476 477.791,-558.476"/>
<polygon fill="midnightblue" stroke="midnightblue" points="202.281,-554.977 192.281,-558.476 202.281,-561.977 202.281,-554.977"/>
</g>
<!-- Node8&#45;&gt;Node12 -->
<g id="edge15" class="edge"><title>Node8&#45;&gt;Node12</title>
<path fill="none" stroke="midnightblue" d="M170.23,-577.83C176.614,-598.218 189.209,-630.132 210,-650.476 224.984,-665.139 246.842,-674.704 263.925,-680.429"/>
<polygon fill="midnightblue" stroke="midnightblue" points="173.547,-576.703 167.378,-568.089 166.829,-578.669 173.547,-576.703"/>
</g>
<!-- Node13 -->
<g id="node13" class="node"><title>Node13</title>
<g id="a_node13"><a xlink:href="classid_win_rectangle.html" target="_top" xlink:title="idWinRectangle">
<polygon fill="white" stroke="black" points="467.5,-162.976 467.5,-181.976 552.5,-181.976 552.5,-162.976 467.5,-162.976"/>
<text text-anchor="middle" x="510" y="-169.976" font-family="Arial" font-size="10.00">idWinRectangle</text>
</a>
</g>
</g>
<!-- Node8&#45;&gt;Node13 -->
<g id="edge18" class="edge"><title>Node8&#45;&gt;Node13</title>
<path fill="none" stroke="midnightblue" d="M165.603,-538.699C168.154,-490.861 181.41,-367.947 250,-301.476 320.624,-233.035 351.352,-229.62 442,-191.476 450.581,-187.866 460.061,-184.708 469.124,-182.058"/>
<polygon fill="midnightblue" stroke="midnightblue" points="162.096,-538.787 165.165,-548.928 169.09,-539.086 162.096,-538.787"/>
</g>
<!-- Node16 -->
<g id="node16" class="node"><title>Node16</title>
<g id="a_node16"><a xlink:href="classid_win_float.html" target="_top" xlink:title="idWinFloat">
<polygon fill="white" stroke="black" points="355.5,-633.976 355.5,-652.976 418.5,-652.976 418.5,-633.976 355.5,-633.976"/>
<text text-anchor="middle" x="387" y="-640.976" font-family="Arial" font-size="10.00">idWinFloat</text>
</a>
</g>
</g>
<!-- Node8&#45;&gt;Node16 -->
<g id="edge22" class="edge"><title>Node8&#45;&gt;Node16</title>
<path fill="none" stroke="midnightblue" d="M199.516,-571.752C244.385,-589.009 321.662,-618.731 361.169,-633.926"/>
<polygon fill="midnightblue" stroke="midnightblue" points="200.512,-568.385 189.922,-568.062 197.999,-574.918 200.512,-568.385"/>
</g>
<!-- Node27 -->
<g id="node27" class="node"><title>Node27</title>
<g id="a_node27"><a xlink:href="classid_win_bool.html" target="_top" xlink:title="idWinBool">
<polygon fill="white" stroke="black" points="356.5,-286.976 356.5,-305.976 417.5,-305.976 417.5,-286.976 356.5,-286.976"/>
<text text-anchor="middle" x="387" y="-293.976" font-family="Arial" font-size="10.00">idWinBool</text>
</a>
</g>
</g>
<!-- Node8&#45;&gt;Node27 -->
<g id="edge36" class="edge"><title>Node8&#45;&gt;Node27</title>
<path fill="none" stroke="midnightblue" d="M167.639,-538.38C174.101,-497.013 194.46,-401.689 250,-347.476 279.233,-318.942 325.93,-306.098 356.281,-300.514"/>
<polygon fill="midnightblue" stroke="midnightblue" points="164.137,-538.139 166.167,-548.537 171.065,-539.143 164.137,-538.139"/>
</g>
<!-- Node9 -->
<g id="node9" class="node"><title>Node9</title>
<g id="a_node9"><a xlink:href="classid_dict.html" target="_top" xlink:title="idDict">
<polygon fill="white" stroke="black" points="12.5,-548.976 12.5,-567.976 53.5,-567.976 53.5,-548.976 12.5,-548.976"/>
<text text-anchor="middle" x="33" y="-555.976" font-family="Arial" font-size="10.00">idDict</text>
</a>
</g>
</g>
<!-- Node9&#45;&gt;Node8 -->
<g id="edge8" class="edge"><title>Node9&#45;&gt;Node8</title>
<path fill="none" stroke="#9a32cd" stroke-dasharray="5,2" d="M63.8475,-558.476C85.4761,-558.476 114.498,-558.476 135.551,-558.476"/>
<polygon fill="#9a32cd" stroke="#9a32cd" points="63.5924,-554.977 53.5923,-558.476 63.5923,-561.977 63.5924,-554.977"/>
<text text-anchor="middle" x="101" y="-561.476" font-family="Arial" font-size="10.00"> guiDict</text>
</g>
<!-- Node10 -->
<g id="node10" class="node"><title>Node10</title>
<g id="a_node10"><a xlink:href="classid_list.html" target="_top" xlink:title="idList\&lt; float \&gt;">
<polygon fill="white" stroke="black" points="472,-510.976 472,-529.976 548,-529.976 548,-510.976 472,-510.976"/>
<text text-anchor="middle" x="510" y="-517.976" font-family="Arial" font-size="10.00">idList&lt; float &gt;</text>
</a>
</g>
</g>
<!-- Node10&#45;&gt;Node4 -->
<g id="edge10" class="edge"><title>Node10&#45;&gt;Node4</title>
<path fill="none" stroke="#9a32cd" stroke-dasharray="5,2" d="M558.16,-511.595C602.742,-504.284 665.738,-497.1 686,-510.476 721.009,-533.589 730.033,-588.715 732.282,-610.943"/>
<polygon fill="#9a32cd" stroke="#9a32cd" points="557.381,-508.177 548.105,-513.296 558.549,-515.079 557.381,-508.177"/>
<text text-anchor="middle" x="641" y="-524.476" font-family="Arial" font-size="10.00"> saveRegs</text>
<text text-anchor="middle" x="641" y="-513.476" font-family="Arial" font-size="10.00">expressionRegisters</text>
</g>
<!-- Node11 -->
<g id="node11" class="node"><title>Node11</title>
<g id="a_node11"><a xlink:href="classid_list.html" target="_top" xlink:title="idList\&lt; idWindow * \&gt;">
<polygon fill="white" stroke="black" points="456.5,-472.976 456.5,-491.976 563.5,-491.976 563.5,-472.976 456.5,-472.976"/>
<text text-anchor="middle" x="510" y="-479.976" font-family="Arial" font-size="10.00">idList&lt; idWindow * &gt;</text>
</a>
</g>
</g>
<!-- Node11&#45;&gt;Node4 -->
<g id="edge12" class="edge"><title>Node11&#45;&gt;Node4</title>
<path fill="none" stroke="#9a32cd" stroke-dasharray="5,2" d="M555.059,-470.929C593.365,-463.642 648.458,-460.114 686,-487.476 726.769,-517.191 732.359,-585.204 732.987,-610.638"/>
<polygon fill="#9a32cd" stroke="#9a32cd" points="554.307,-467.51 545.217,-472.953 555.717,-474.366 554.307,-467.51"/>
<text text-anchor="middle" x="641" y="-490.476" font-family="Arial" font-size="10.00"> children</text>
</g>
<!-- Node12&#45;&gt;Node4 -->
<g id="edge14" class="edge"><title>Node12&#45;&gt;Node4</title>
<path fill="none" stroke="#9a32cd" stroke-dasharray="5,2" d="M303.239,-669.453C313.488,-654.707 330.052,-634.681 350,-624.476 411.642,-592.943 626.443,-610.066 704.43,-617.551"/>
<polygon fill="#9a32cd" stroke="#9a32cd" points="300.303,-667.547 297.699,-677.816 306.139,-671.412 300.303,-667.547"/>
<text text-anchor="middle" x="510" y="-610.476" font-family="Arial" font-size="10.00"> text</text>
</g>
<!-- Node12&#45;&gt;Node18 -->
<g id="edge25" class="edge"><title>Node12&#45;&gt;Node18</title>
<path fill="none" stroke="midnightblue" d="M313.996,-703.569C320.817,-709.672 327.672,-717.174 332,-725.476 356.728,-772.908 316.382,-802.87 350,-844.476 372.1,-871.828 392.748,-856.356 424,-872.476 451.318,-886.568 480.532,-907.645 496.604,-919.83"/>
<polygon fill="midnightblue" stroke="midnightblue" points="316.094,-700.762 306.158,-697.083 311.631,-706.155 316.094,-700.762"/>
</g>
<!-- Node13&#45;&gt;Node4 -->
<g id="edge17" class="edge"><title>Node13&#45;&gt;Node4</title>
<path fill="none" stroke="#9a32cd" stroke-dasharray="5,2" d="M551.679,-160.601C591.293,-151.782 650.567,-146.315 686,-179.476 718.676,-210.058 730.766,-548.842 732.711,-610.783"/>
<polygon fill="#9a32cd" stroke="#9a32cd" points="550.723,-157.231 541.809,-162.957 552.349,-164.04 550.723,-157.231"/>
<text text-anchor="middle" x="641" y="-182.476" font-family="Arial" font-size="10.00"> rect</text>
</g>
<!-- Node14 -->
<g id="node14" class="node"><title>Node14</title>
<g id="a_node14"><a xlink:href="classid_rectangle.html" target="_top" xlink:title="idRectangle">
<polygon fill="white" stroke="black" points="257,-118.976 257,-137.976 325,-137.976 325,-118.976 257,-118.976"/>
<text text-anchor="middle" x="291" y="-125.976" font-family="Arial" font-size="10.00">idRectangle</text>
</a>
</g>
</g>
<!-- Node14&#45;&gt;Node4 -->
<g id="edge39" class="edge"><title>Node14&#45;&gt;Node4</title>
<path fill="none" stroke="#9a32cd" stroke-dasharray="5,2" d="M335.262,-123.518C428.203,-113.973 642.081,-98.3087 686,-150.476 716.764,-187.018 730.462,-546.383 732.675,-610.662"/>
<polygon fill="#9a32cd" stroke="#9a32cd" points="334.651,-120.063 325.072,-124.59 335.383,-127.025 334.651,-120.063"/>
<text text-anchor="middle" x="510" y="-141.476" font-family="Arial" font-size="10.00"> drawRect</text>
<text text-anchor="middle" x="510" y="-130.476" font-family="Arial" font-size="10.00">clientRect</text>
<text text-anchor="middle" x="510" y="-119.476" font-family="Arial" font-size="10.00">textRect</text>
</g>
<!-- Node14&#45;&gt;Node13 -->
<g id="edge19" class="edge"><title>Node14&#45;&gt;Node13</title>
<path fill="none" stroke="#9a32cd" stroke-dasharray="5,2" d="M335.288,-137.254C373.699,-145.042 429.447,-156.346 467.354,-164.032"/>
<polygon fill="#9a32cd" stroke="#9a32cd" points="335.927,-133.812 325.431,-135.255 334.536,-140.673 335.927,-133.812"/>
<text text-anchor="middle" x="387" y="-157.476" font-family="Arial" font-size="10.00"> data</text>
</g>
<!-- Node15 -->
<g id="node15" class="node"><title>Node15</title>
<g id="a_node15"><a xlink:href="classid_list.html" target="_top" xlink:title="idList\&lt; wexpOp_t \&gt;">
<polygon fill="white" stroke="black" points="459.5,-318.976 459.5,-337.976 560.5,-337.976 560.5,-318.976 459.5,-318.976"/>
<text text-anchor="middle" x="510" y="-325.976" font-family="Arial" font-size="10.00">idList&lt; wexpOp_t &gt;</text>
</a>
</g>
</g>
<!-- Node15&#45;&gt;Node4 -->
<g id="edge20" class="edge"><title>Node15&#45;&gt;Node4</title>
<path fill="none" stroke="#9a32cd" stroke-dasharray="5,2" d="M555.881,-317.015C595.149,-309.902 651.205,-307.252 686,-338.476 727.558,-375.77 732.371,-565.347 732.928,-610.713"/>
<polygon fill="#9a32cd" stroke="#9a32cd" points="555.168,-313.588 546.032,-318.955 556.52,-320.456 555.168,-313.588"/>
<text text-anchor="middle" x="641" y="-352.476" font-family="Arial" font-size="10.00"> saveOps</text>
<text text-anchor="middle" x="641" y="-341.476" font-family="Arial" font-size="10.00">ops</text>
</g>
<!-- Node16&#45;&gt;Node4 -->
<g id="edge21" class="edge"><title>Node16&#45;&gt;Node4</title>
<path fill="none" stroke="#9a32cd" stroke-dasharray="5,2" d="M423.732,-660.691C435.412,-677.061 427.297,-690.782 442,-700.476 492.462,-733.751 517.62,-703.266 578,-700.476 626.154,-698.252 644.553,-715.092 686,-690.476 709.41,-676.574 723.613,-645.921 729.63,-630.197"/>
<polygon fill="#9a32cd" stroke="#9a32cd" points="426.103,-658.093 416.819,-652.987 420.893,-662.768 426.103,-658.093"/>
<text text-anchor="middle" x="510" y="-729.476" font-family="Arial" font-size="10.00"> textScale</text>
<text text-anchor="middle" x="510" y="-718.476" font-family="Arial" font-size="10.00">rotate</text>
</g>
<!-- Node17 -->
<g id="node17" class="node"><title>Node17</title>
<g id="a_node17"><a xlink:href="classid_list.html" target="_top" xlink:title="idList\&lt; idWinVar * \&gt;">
<polygon fill="white" stroke="black" points="458,-200.976 458,-219.976 562,-219.976 562,-200.976 458,-200.976"/>
<text text-anchor="middle" x="510" y="-207.976" font-family="Arial" font-size="10.00">idList&lt; idWinVar * &gt;</text>
</a>
</g>
</g>
<!-- Node17&#45;&gt;Node4 -->
<g id="edge23" class="edge"><title>Node17&#45;&gt;Node4</title>
<path fill="none" stroke="#9a32cd" stroke-dasharray="5,2" d="M554.834,-198.884C594.409,-191.312 651.56,-188.039 686,-220.476 715.459,-248.222 730.073,-552.888 732.6,-610.949"/>
<polygon fill="#9a32cd" stroke="#9a32cd" points="554.006,-195.482 544.925,-200.939 555.427,-202.336 554.006,-195.482"/>
<text text-anchor="middle" x="641" y="-234.476" font-family="Arial" font-size="10.00"> definedVars</text>
<text text-anchor="middle" x="641" y="-223.476" font-family="Arial" font-size="10.00">updateVars</text>
</g>
<!-- Node18&#45;&gt;Node4 -->
<g id="edge24" class="edge"><title>Node18&#45;&gt;Node4</title>
<path fill="none" stroke="#9a32cd" stroke-dasharray="5,2" d="M567.012,-928.817C611.69,-927.055 669.434,-921.598 686,-905.476 726.43,-866.13 732.098,-675.791 732.878,-630.271"/>
<polygon fill="#9a32cd" stroke="#9a32cd" points="566.709,-925.325 556.835,-929.165 566.949,-932.321 566.709,-925.325"/>
<text text-anchor="middle" x="641" y="-929.476" font-family="Arial" font-size="10.00"> backGroundName</text>
</g>
<!-- Node19 -->
<g id="node19" class="node"><title>Node19</title>
<g id="a_node19"><a xlink:href="classid_material.html" target="_top" xlink:title="idMaterial">
<polygon fill="white" stroke="black" points="261.5,-1099.98 261.5,-1118.98 320.5,-1118.98 320.5,-1099.98 261.5,-1099.98"/>
<text text-anchor="middle" x="291" y="-1106.98" font-family="Arial" font-size="10.00">idMaterial</text>
</a>
</g>
</g>
<!-- Node19&#45;&gt;Node1 -->
<g id="edge49" class="edge"><title>Node19&#45;&gt;Node1</title>
<path fill="none" stroke="#9a32cd" stroke-dasharray="5,2" d="M331.013,-1113.3C337.353,-1113.79 343.855,-1114.21 350,-1114.48 382.858,-1115.89 391.114,-1114.9 424,-1114.48 688.306,-1111.04 757.535,-1112.84 1016,-1057.48 1021.76,-1056.24 1027.84,-1054.6 1033.6,-1052.86"/>
<polygon fill="#9a32cd" stroke="#9a32cd" points="330.841,-1109.78 320.584,-1112.43 330.258,-1116.75 330.841,-1109.78"/>
<text text-anchor="middle" x="734" y="-1109.48" font-family="Arial" font-size="10.00"> material</text>
</g>
<!-- Node19&#45;&gt;Node4 -->
<g id="edge45" class="edge"><title>Node19&#45;&gt;Node4</title>
<path fill="none" stroke="#9a32cd" stroke-dasharray="5,2" d="M330.521,-1107.05C420.085,-1100.56 638.345,-1079.64 686,-1027.48 713.767,-997.085 729.749,-688.834 732.554,-630.111"/>
<polygon fill="#9a32cd" stroke="#9a32cd" points="330.236,-1103.56 320.506,-1107.75 330.727,-1110.54 330.236,-1103.56"/>
<text text-anchor="middle" x="510" y="-1098.48" font-family="Arial" font-size="10.00"> background</text>
</g>
<!-- Node19&#45;&gt;Node18 -->
<g id="edge27" class="edge"><title>Node19&#45;&gt;Node18</title>
<path fill="none" stroke="#9a32cd" stroke-dasharray="5,2" d="M303.719,-1091.47C326.357,-1058.13 379.427,-986.715 442,-948.476 448.5,-944.505 455.858,-941.337 463.258,-938.818"/>
<polygon fill="#9a32cd" stroke="#9a32cd" points="300.797,-1089.54 298.158,-1099.8 306.62,-1093.43 300.797,-1089.54"/>
<text text-anchor="middle" x="387" y="-1029.48" font-family="Arial" font-size="10.00"> mat</text>
</g>
<!-- Node20 -->
<g id="node20" class="node"><title>Node20</title>
<g id="a_node20"><a xlink:href="classid_decl.html" target="_top" xlink:title="idDecl">
<polygon fill="white" stroke="black" points="142,-1181.98 142,-1200.98 186,-1200.98 186,-1181.98 142,-1181.98"/>
<text text-anchor="middle" x="164" y="-1188.98" font-family="Arial" font-size="10.00">idDecl</text>
</a>
</g>
</g>
<!-- Node20&#45;&gt;Node19 -->
<g id="edge28" class="edge"><title>Node20&#45;&gt;Node19</title>
<path fill="none" stroke="midnightblue" d="M188.496,-1176.06C213.947,-1159.37 253.774,-1133.24 275.189,-1119.19"/>
<polygon fill="midnightblue" stroke="midnightblue" points="186.272,-1173.34 179.83,-1181.75 190.111,-1179.19 186.272,-1173.34"/>
</g>
<!-- Node21 -->
<g id="node21" class="node"><title>Node21</title>
<g id="a_node21"><a xlink:href="classid_decl_base.html" target="_top" xlink:title="idDeclBase">
<polygon fill="white" stroke="black" points="0,-1181.98 0,-1200.98 66,-1200.98 66,-1181.98 0,-1181.98"/>
<text text-anchor="middle" x="33" y="-1188.98" font-family="Arial" font-size="10.00">idDeclBase</text>
</a>
</g>
</g>
<!-- Node21&#45;&gt;Node20 -->
<g id="edge29" class="edge"><title>Node21&#45;&gt;Node20</title>
<path fill="none" stroke="#9a32cd" stroke-dasharray="5,2" d="M76.2792,-1191.48C98.1687,-1191.48 123.948,-1191.48 141.678,-1191.48"/>
<polygon fill="#9a32cd" stroke="#9a32cd" points="76.2194,-1187.98 66.2194,-1191.48 76.2193,-1194.98 76.2194,-1187.98"/>
<text text-anchor="middle" x="101" y="-1194.48" font-family="Arial" font-size="10.00"> base</text>
</g>
<!-- Node22 -->
<g id="node22" class="node"><title>Node22</title>
<g id="a_node22"><a xlink:href="classid_list.html" target="_top" xlink:title="idList\&lt; idTimeLineEvent * \&gt;">
<polygon fill="white" stroke="black" points="442.5,-55.9765 442.5,-74.9765 577.5,-74.9765 577.5,-55.9765 442.5,-55.9765"/>
<text text-anchor="middle" x="510" y="-62.9765" font-family="Arial" font-size="10.00">idList&lt; idTimeLineEvent * &gt;</text>
</a>
</g>
</g>
<!-- Node22&#45;&gt;Node4 -->
<g id="edge30" class="edge"><title>Node22&#45;&gt;Node4</title>
<path fill="none" stroke="#9a32cd" stroke-dasharray="5,2" d="M587.711,-65.4033C628.211,-67.1121 672.309,-72.3451 686,-86.4765 723.965,-125.662 731.814,-541.13 732.864,-610.639"/>
<polygon fill="#9a32cd" stroke="#9a32cd" points="587.631,-61.8984 577.513,-65.0416 587.382,-68.894 587.631,-61.8984"/>
<text text-anchor="middle" x="641" y="-89.4765" font-family="Arial" font-size="10.00"> timeLineEvents</text>
</g>
<!-- Node23 -->
<g id="node23" class="node"><title>Node23</title>
<g id="a_node23"><a xlink:href="classid_gui_script_list.html" target="_top" xlink:title="idGuiScriptList">
<polygon fill="white" stroke="black" points="470,-995.976 470,-1014.98 550,-1014.98 550,-995.976 470,-995.976"/>
<text text-anchor="middle" x="510" y="-1002.98" font-family="Arial" font-size="10.00">idGuiScriptList</text>
</a>
</g>
</g>
<!-- Node23&#45;&gt;Node4 -->
<g id="edge31" class="edge"><title>Node23&#45;&gt;Node4</title>
<path fill="none" stroke="#9a32cd" stroke-dasharray="5,2" d="M559.99,-1012.41C599.595,-1015.03 653.874,-1011.34 686,-978.476 736.068,-927.267 734.202,-682.257 733.223,-630.21"/>
<polygon fill="#9a32cd" stroke="#9a32cd" points="560.256,-1008.92 550.005,-1011.6 559.688,-1015.9 560.256,-1008.92"/>
<text text-anchor="middle" x="641" y="-1015.48" font-family="Arial" font-size="10.00"> scripts</text>
</g>
<!-- Node24 -->
<g id="node24" class="node"><title>Node24</title>
<g id="a_node24"><a xlink:href="classid_register_list.html" target="_top" xlink:title="idRegisterList">
<polygon fill="white" stroke="black" points="472,-957.976 472,-976.976 548,-976.976 548,-957.976 472,-957.976"/>
<text text-anchor="middle" x="510" y="-964.976" font-family="Arial" font-size="10.00">idRegisterList</text>
</a>
</g>
</g>
<!-- Node24&#45;&gt;Node4 -->
<g id="edge32" class="edge"><title>Node24&#45;&gt;Node4</title>
<path fill="none" stroke="#9a32cd" stroke-dasharray="5,2" d="M558.336,-966.617C603.953,-964.738 668.552,-958.961 686,-941.476 731.156,-896.226 733.185,-678.832 733.066,-630.159"/>
<polygon fill="#9a32cd" stroke="#9a32cd" points="558.207,-963.12 548.34,-966.98 558.461,-970.115 558.207,-963.12"/>
<text text-anchor="middle" x="641" y="-966.476" font-family="Arial" font-size="10.00"> regList</text>
</g>
<!-- Node25 -->
<g id="node25" class="node"><title>Node25</title>
<g id="a_node25"><a xlink:href="classid_user_interface_local.html" target="_top" xlink:title="idUserInterfaceLocal">
<polygon fill="white" stroke="black" points="458,-434.976 458,-453.976 562,-453.976 562,-434.976 458,-434.976"/>
<text text-anchor="middle" x="510" y="-441.976" font-family="Arial" font-size="10.00">idUserInterfaceLocal</text>
</a>
</g>
</g>
<!-- Node25&#45;&gt;Node4 -->
<g id="edge33" class="edge"><title>Node25&#45;&gt;Node4</title>
<path fill="none" stroke="#9a32cd" stroke-dasharray="5,2" d="M554.533,-432.802C593.217,-425.217 649.185,-421.449 686,-450.476 711.969,-470.952 727.575,-577.901 731.818,-610.822"/>
<polygon fill="#9a32cd" stroke="#9a32cd" points="553.66,-429.41 544.603,-434.907 555.111,-436.258 553.66,-429.41"/>
<text text-anchor="middle" x="641" y="-453.476" font-family="Arial" font-size="10.00"> gui</text>
</g>
<!-- Node26 -->
<g id="node26" class="node"><title>Node26</title>
<g id="a_node26"><a xlink:href="classid_user_interface.html" target="_top" xlink:title="idUserInterface">
<polygon fill="white" stroke="black" points="250.5,-434.976 250.5,-453.976 331.5,-453.976 331.5,-434.976 250.5,-434.976"/>
<text text-anchor="middle" x="291" y="-441.976" font-family="Arial" font-size="10.00">idUserInterface</text>
</a>
</g>
</g>
<!-- Node26&#45;&gt;Node25 -->
<g id="edge34" class="edge"><title>Node26&#45;&gt;Node25</title>
<path fill="none" stroke="midnightblue" d="M341.937,-444.476C376.672,-444.476 422.842,-444.476 457.841,-444.476"/>
<polygon fill="midnightblue" stroke="midnightblue" points="341.549,-440.977 331.549,-444.476 341.549,-447.977 341.549,-440.977"/>
</g>
<!-- Node27&#45;&gt;Node4 -->
<g id="edge35" class="edge"><title>Node27&#45;&gt;Node4</title>
<path fill="none" stroke="#9a32cd" stroke-dasharray="5,2" d="M408.892,-281.072C418.47,-274.937 430.285,-268.6 442,-265.476 548.325,-237.127 617.282,-221.532 686,-307.476 724.862,-356.081 731.749,-563.698 732.82,-610.902"/>
<polygon fill="#9a32cd" stroke="#9a32cd" points="406.783,-278.273 400.469,-286.781 410.711,-284.067 406.783,-278.273"/>
<text text-anchor="middle" x="510" y="-301.476" font-family="Arial" font-size="10.00"> noTime</text>
<text text-anchor="middle" x="510" y="-290.476" font-family="Arial" font-size="10.00">hideCursor</text>
<text text-anchor="middle" x="510" y="-279.476" font-family="Arial" font-size="10.00">noEvents</text>
<text text-anchor="middle" x="510" y="-268.476" font-family="Arial" font-size="10.00">visible</text>
</g>
<!-- Node28 -->
<g id="node28" class="node"><title>Node28</title>
<g id="a_node28"><a xlink:href="classid_vec2.html" target="_top" xlink:title="idVec2">
<polygon fill="white" stroke="black" points="486.5,-7.9765 486.5,-26.9765 533.5,-26.9765 533.5,-7.9765 486.5,-7.9765"/>
<text text-anchor="middle" x="510" y="-14.9765" font-family="Arial" font-size="10.00">idVec2</text>
</a>
</g>
</g>
<!-- Node28&#45;&gt;Node1 -->
<g id="edge47" class="edge"><title>Node28&#45;&gt;Node1</title>
<path fill="none" stroke="#9a32cd" stroke-dasharray="5,2" d="M543.662,-8.14235C581.603,0.604394 644.311,8.33456 686,-21.4765 1053.04,-283.944 1061.63,-945.758 1061.12,-1033.76"/>
<polygon fill="#9a32cd" stroke="#9a32cd" points="542.528,-4.8168 533.655,-10.606 544.202,-11.6138 542.528,-4.8168"/>
<text text-anchor="middle" x="801" y="-158.476" font-family="Arial" font-size="10.00"> position</text>
<text text-anchor="middle" x="801" y="-147.476" font-family="Arial" font-size="10.00">velocity</text>
</g>
<!-- Node28&#45;&gt;Node4 -->
<g id="edge37" class="edge"><title>Node28&#45;&gt;Node4</title>
<path fill="none" stroke="#9a32cd" stroke-dasharray="5,2" d="M543.737,-17.0738C588.949,-17.2735 667.082,-20.5912 686,-40.4765 726.997,-83.5685 732.34,-538.207 732.933,-610.743"/>
<polygon fill="#9a32cd" stroke="#9a32cd" points="543.543,-13.5738 533.545,-17.079 543.547,-20.5738 543.543,-13.5738"/>
<text text-anchor="middle" x="641" y="-54.4765" font-family="Arial" font-size="10.00"> origin</text>
<text text-anchor="middle" x="641" y="-43.4765" font-family="Arial" font-size="10.00">shear</text>
</g>
<!-- Node29 -->
<g id="node29" class="node"><title>Node29</title>
<g id="a_node29"><a xlink:href="classid_list.html" target="_top" xlink:title="idList\&lt; drawWin_t \&gt;">
<polygon fill="white" stroke="black" points="458,-843.976 458,-862.976 562,-862.976 562,-843.976 458,-843.976"/>
<text text-anchor="middle" x="510" y="-850.976" font-family="Arial" font-size="10.00">idList&lt; drawWin_t &gt;</text>
</a>
</g>
</g>
<!-- Node29&#45;&gt;Node4 -->
<g id="edge38" class="edge"><title>Node29&#45;&gt;Node4</title>
<path fill="none" stroke="#9a32cd" stroke-dasharray="5,2" d="M572.656,-860.064C610.015,-860.538 656.079,-854.339 686,-826.476 715.463,-799.041 728.955,-667.207 732.203,-630.172"/>
<polygon fill="#9a32cd" stroke="#9a32cd" points="572.468,-856.557 562.371,-859.765 572.265,-863.554 572.468,-856.557"/>
<text text-anchor="middle" x="641" y="-861.476" font-family="Arial" font-size="10.00"> drawWindows</text>
</g>
<!-- Node30 -->
<g id="node30" class="node"><title>Node30</title>
<g id="a_node30"><a xlink:href="classid_list.html" target="_top" xlink:title="idList\&lt; idTransitionData \&gt;">
<polygon fill="white" stroke="black" points="446,-805.976 446,-824.976 574,-824.976 574,-805.976 446,-805.976"/>
<text text-anchor="middle" x="510" y="-812.976" font-family="Arial" font-size="10.00">idList&lt; idTransitionData &gt;</text>
</a>
</g>
</g>
<!-- Node30&#45;&gt;Node4 -->
<g id="edge40" class="edge"><title>Node30&#45;&gt;Node4</title>
<path fill="none" stroke="#9a32cd" stroke-dasharray="5,2" d="M584.026,-812.956C624.987,-810.05 670.832,-803.819 686,-790.476 734.741,-747.599 734.987,-659.153 733.632,-630.016"/>
<polygon fill="#9a32cd" stroke="#9a32cd" points="583.765,-809.465 574.014,-813.609 584.22,-816.45 583.765,-809.465"/>
<text text-anchor="middle" x="641" y="-814.476" font-family="Arial" font-size="10.00"> transitions</text>
</g>
<!-- Node31 -->
<g id="node31" class="node"><title>Node31</title>
<g id="a_node31"><a xlink:href="classid_c_var.html" target="_top" xlink:title="idCVar">
<polygon fill="white" stroke="black" points="487,-356.976 487,-375.976 533,-375.976 533,-356.976 487,-356.976"/>
<text text-anchor="middle" x="510" y="-363.976" font-family="Arial" font-size="10.00">idCVar</text>
</a>
</g>
</g>
<!-- Node31&#45;&gt;Node4 -->
<g id="edge41" class="edge"><title>Node31&#45;&gt;Node4</title>
<path fill="none" stroke="#9a32cd" stroke-dasharray="5,2" d="M543.372,-362.983C582.611,-360.678 648.166,-363.338 686,-400.476 716.799,-430.709 729.449,-572.699 732.332,-610.959"/>
<polygon fill="#9a32cd" stroke="#9a32cd" points="543.003,-359.5 533.285,-363.719 543.513,-366.481 543.003,-359.5"/>
<text text-anchor="middle" x="641" y="-414.476" font-family="Arial" font-size="10.00"> gui_debug</text>
<text text-anchor="middle" x="641" y="-403.476" font-family="Arial" font-size="10.00">gui_edit</text>
</g>
<!-- Node31&#45;&gt;Node31 -->
<g id="edge43" class="edge"><title>Node31&#45;&gt;Node31</title>
<path fill="none" stroke="#9a32cd" stroke-dasharray="5,2" d="M487.307,-385.506C488.544,-390.604 496.109,-394.476 510,-394.476 531.684,-394.476 537.952,-385.042 528.804,-376.234"/>
<polygon fill="#9a32cd" stroke="#9a32cd" points="490.555,-386.809 491.196,-376.234 484.1,-384.101 490.555,-386.809"/>
<text text-anchor="middle" x="510" y="-408.476" font-family="Arial" font-size="10.00"> next</text>
<text text-anchor="middle" x="510" y="-397.476" font-family="Arial" font-size="10.00">internalVar</text>
</g>
<!-- Node32 -->
<g id="node32" class="node"><title>Node32</title>
<g id="a_node32"><a xlink:href="classid_cmd_args.html" target="_top" xlink:title="idCmdArgs">
<polygon fill="white" stroke="black" points="258.5,-356.976 258.5,-375.976 323.5,-375.976 323.5,-356.976 258.5,-356.976"/>
<text text-anchor="middle" x="291" y="-363.976" font-family="Arial" font-size="10.00">idCmdArgs</text>
</a>
</g>
</g>
<!-- Node32&#45;&gt;Node31 -->
<g id="edge42" class="edge"><title>Node32&#45;&gt;Node31</title>
<path fill="none" stroke="#9a32cd" stroke-dasharray="5,2" d="M333.742,-366.476C379.48,-366.476 451.108,-366.476 486.979,-366.476"/>
<polygon fill="#9a32cd" stroke="#9a32cd" points="333.554,-362.977 323.554,-366.476 333.554,-369.977 333.554,-362.977"/>
<text text-anchor="middle" x="387" y="-369.476" font-family="Arial" font-size="10.00"> valueCompletion</text>
</g>
<!-- Node33 -->
<g id="node33" class="node"><title>Node33</title>
<g id="a_node33"><a xlink:href="structid_reg_entry.html" target="_top" xlink:title="idRegEntry">
<polygon fill="white" stroke="black" points="477.5,-671.976 477.5,-690.976 542.5,-690.976 542.5,-671.976 477.5,-671.976"/>
<text text-anchor="middle" x="510" y="-678.976" font-family="Arial" font-size="10.00">idRegEntry</text>
</a>
</g>
</g>
<!-- Node33&#45;&gt;Node4 -->
<g id="edge44" class="edge"><title>Node33&#45;&gt;Node4</title>
<path fill="none" stroke="#9a32cd" stroke-dasharray="5,2" d="M552.781,-680.517C589.189,-678.417 642.777,-672.227 686,-654.476 699.974,-648.738 713.708,-638.051 722.686,-630.185"/>
<polygon fill="#9a32cd" stroke="#9a32cd" points="552.342,-677.035 542.528,-681.027 552.689,-684.026 552.342,-677.035"/>
<text text-anchor="middle" x="641" y="-678.476" font-family="Arial" font-size="10.00"> RegisterVars</text>
</g>
<!-- Node34 -->
<g id="node34" class="node"><title>Node34</title>
<g id="a_node34"><a xlink:href="classid_list.html" target="_top" xlink:title="idList\&lt; rvNamedEvent * \&gt;">
<polygon fill="white" stroke="black" points="447,-633.976 447,-652.976 573,-652.976 573,-633.976 447,-633.976"/>
<text text-anchor="middle" x="510" y="-640.976" font-family="Arial" font-size="10.00">idList&lt; rvNamedEvent * &gt;</text>
</a>
</g>
</g>
<!-- Node34&#45;&gt;Node4 -->
<g id="edge46" class="edge"><title>Node34&#45;&gt;Node4</title>
<path fill="none" stroke="#9a32cd" stroke-dasharray="5,2" d="M583.282,-641.144C614.936,-639.447 652.44,-636.521 686,-631.476 691.967,-630.58 698.295,-629.317 704.309,-627.966"/>
<polygon fill="#9a32cd" stroke="#9a32cd" points="583.033,-637.652 573.223,-641.653 583.387,-644.643 583.033,-637.652"/>
<text text-anchor="middle" x="641" y="-642.476" font-family="Arial" font-size="10.00"> namedEvents</text>
</g>
</g>
</svg>
