<?xml version="1.0" encoding="UTF-8" standalone="no"?>
<!DOCTYPE svg PUBLIC "-//W3C//DTD SVG 1.1//EN"
 "http://www.w3.org/Graphics/SVG/1.1/DTD/svg11.dtd">
<!-- Generated by graphviz version 2.34.0 (20130907.0111)
 -->
<!-- Title: idMapPatch Pages: 1 -->
<svg width="194pt" height="140pt"
 viewBox="0.00 0.00 194.00 140.00" xmlns="http://www.w3.org/2000/svg" xmlns:xlink="http://www.w3.org/1999/xlink">
<g id="graph0" class="graph" transform="scale(1 1) rotate(0) translate(4 136)">
<title>idMapPatch</title>
<polygon fill="white" stroke="white" points="-4,4 -4,-136 190,-136 190,4 -4,4"/>
<!-- Node1 -->
<g id="node1" class="node"><title>Node1</title>
<polygon fill="#bfbfbf" stroke="black" points="57,-0.5 57,-19.5 125,-19.5 125,-0.5 57,-0.5"/>
<text text-anchor="middle" x="91" y="-7.5" font-family="Arial" font-size="10.00">idMapPatch</text>
</g>
<!-- Node2 -->
<g id="node2" class="node"><title>Node2</title>
<g id="a_node2"><a xlink:href="classid_map_primitive.html" target="_top" xlink:title="idMapPrimitive">
<polygon fill="white" stroke="black" points="0,-56.5 0,-75.5 80,-75.5 80,-56.5 0,-56.5"/>
<text text-anchor="middle" x="40" y="-63.5" font-family="Arial" font-size="10.00">idMapPrimitive</text>
</a>
</g>
</g>
<!-- Node2&#45;&gt;Node1 -->
<g id="edge1" class="edge"><title>Node2&#45;&gt;Node1</title>
<path fill="none" stroke="midnightblue" d="M55.3779,-48.7175C64.3669,-39.1997 75.3592,-27.5608 82.7351,-19.7511"/>
<polygon fill="midnightblue" stroke="midnightblue" points="52.7433,-46.4096 48.4216,-56.083 57.8324,-51.216 52.7433,-46.4096"/>
</g>
<!-- Node3 -->
<g id="node3" class="node"><title>Node3</title>
<g id="a_node3"><a xlink:href="classid_surface___patch.html" target="_top" xlink:title="idSurface_Patch">
<polygon fill="white" stroke="black" points="98,-56.5 98,-75.5 186,-75.5 186,-56.5 98,-56.5"/>
<text text-anchor="middle" x="142" y="-63.5" font-family="Arial" font-size="10.00">idSurface_Patch</text>
</a>
</g>
</g>
<!-- Node3&#45;&gt;Node1 -->
<g id="edge2" class="edge"><title>Node3&#45;&gt;Node1</title>
<path fill="none" stroke="midnightblue" d="M126.622,-48.7175C117.633,-39.1997 106.641,-27.5608 99.2649,-19.7511"/>
<polygon fill="midnightblue" stroke="midnightblue" points="124.168,-51.216 133.578,-56.083 129.257,-46.4096 124.168,-51.216"/>
</g>
<!-- Node4 -->
<g id="node4" class="node"><title>Node4</title>
<g id="a_node4"><a xlink:href="classid_surface.html" target="_top" xlink:title="idSurface">
<polygon fill="white" stroke="black" points="113.5,-112.5 113.5,-131.5 170.5,-131.5 170.5,-112.5 113.5,-112.5"/>
<text text-anchor="middle" x="142" y="-119.5" font-family="Arial" font-size="10.00">idSurface</text>
</a>
</g>
</g>
<!-- Node4&#45;&gt;Node3 -->
<g id="edge3" class="edge"><title>Node4&#45;&gt;Node3</title>
<path fill="none" stroke="midnightblue" d="M142,-101.805C142,-92.9102 142,-82.7798 142,-75.7511"/>
<polygon fill="midnightblue" stroke="midnightblue" points="138.5,-102.083 142,-112.083 145.5,-102.083 138.5,-102.083"/>
</g>
</g>
</svg>
