<?xml version="1.0" encoding="UTF-8" standalone="no"?>
<!DOCTYPE svg PUBLIC "-//W3C//DTD SVG 1.1//EN"
 "http://www.w3.org/Graphics/SVG/1.1/DTD/svg11.dtd">
<!-- Generated by graphviz version 2.34.0 (20130907.0111)
 -->
<!-- Title: idImage Pages: 1 -->
<svg width="266pt" height="267pt"
 viewBox="0.00 0.00 266.00 266.50" xmlns="http://www.w3.org/2000/svg" xmlns:xlink="http://www.w3.org/1999/xlink">
<g id="graph0" class="graph" transform="scale(1 1) rotate(0) translate(4 262.5)">
<title>idImage</title>
<polygon fill="white" stroke="white" points="-4,4 -4,-262.5 262,-262.5 262,4 -4,4"/>
<!-- Node1 -->
<g id="node1" class="node"><title>Node1</title>
<polygon fill="#bfbfbf" stroke="black" points="5,-18 5,-37 55,-37 55,-18 5,-18"/>
<text text-anchor="middle" x="30" y="-25" font-family="Arial" font-size="10.00">idImage</text>
</g>
<!-- Node1&#45;&gt;Node1 -->
<g id="edge2" class="edge"><title>Node1&#45;&gt;Node1</title>
<path fill="none" stroke="#9a32cd" stroke-dasharray="5,2" d="M65.446,-35.7098C69.9957,-34.2832 73,-31.5466 73,-27.5 73,-20.8594 64.9095,-17.7466 55.1756,-18.1616"/>
<polygon fill="#9a32cd" stroke="#9a32cd" points="64.7335,-32.267 55.1756,-36.8384 65.4981,-39.2251 64.7335,-32.267"/>
<text text-anchor="middle" x="111" y="-47" font-family="Arial" font-size="10.00"> cacheUsagePrev</text>
<text text-anchor="middle" x="111" y="-36" font-family="Arial" font-size="10.00">cacheUsageNext</text>
<text text-anchor="middle" x="111" y="-25" font-family="Arial" font-size="10.00">hashNext</text>
<text text-anchor="middle" x="111" y="-14" font-family="Arial" font-size="10.00">partialImage</text>
<text text-anchor="middle" x="111" y="-3" font-family="Arial" font-size="10.00">bglNext</text>
</g>
<!-- Node2 -->
<g id="node2" class="node"><title>Node2</title>
<g id="a_node2"><a xlink:href="classid_str.html" target="_top" xlink:title="idStr">
<polygon fill="white" stroke="black" points="-0.5,-239 -0.5,-258 36.5,-258 36.5,-239 -0.5,-239"/>
<text text-anchor="middle" x="18" y="-246" font-family="Arial" font-size="10.00">idStr</text>
</a>
</g>
</g>
<!-- Node2&#45;&gt;Node1 -->
<g id="edge1" class="edge"><title>Node2&#45;&gt;Node1</title>
<path fill="none" stroke="#9a32cd" stroke-dasharray="5,2" d="M15.4899,-228.45C14.1595,-217.393 12.6658,-203.185 12,-190.5 8.91489,-131.721 22.7259,-61.5125 28.0135,-37.2508"/>
<polygon fill="#9a32cd" stroke="#9a32cd" points="12.0509,-229.154 16.7757,-238.637 18.9958,-228.277 12.0509,-229.154"/>
<text text-anchor="middle" x="35.5" y="-144" font-family="Arial" font-size="10.00"> imgName</text>
</g>
<!-- Node6 -->
<g id="node6" class="node"><title>Node6</title>
<g id="a_node6"><a xlink:href="structurl_download__s.html" target="_top" xlink:title="urlDownload_s">
<polygon fill="white" stroke="black" points="21,-171 21,-190 101,-190 101,-171 21,-171"/>
<text text-anchor="middle" x="61" y="-178" font-family="Arial" font-size="10.00">urlDownload_s</text>
</a>
</g>
</g>
<!-- Node2&#45;&gt;Node6 -->
<g id="edge8" class="edge"><title>Node2&#45;&gt;Node6</title>
<path fill="none" stroke="#9a32cd" stroke-dasharray="5,2" d="M29.1163,-230.438C37.4725,-217.612 48.5827,-200.559 55.2399,-190.341"/>
<polygon fill="#9a32cd" stroke="#9a32cd" points="26.1478,-228.582 23.6215,-238.872 32.0129,-232.404 26.1478,-228.582"/>
<text text-anchor="middle" x="51" y="-212" font-family="Arial" font-size="10.00"> url</text>
</g>
<!-- Node3 -->
<g id="node3" class="node"><title>Node3</title>
<g id="a_node3"><a xlink:href="structbackground_download__s.html" target="_top" xlink:title="backgroundDownload_s">
<polygon fill="white" stroke="black" points="50.5,-103 50.5,-122 169.5,-122 169.5,-103 50.5,-103"/>
<text text-anchor="middle" x="110" y="-110" font-family="Arial" font-size="10.00">backgroundDownload_s</text>
</a>
</g>
</g>
<!-- Node3&#45;&gt;Node1 -->
<g id="edge3" class="edge"><title>Node3&#45;&gt;Node1</title>
<path fill="none" stroke="#9a32cd" stroke-dasharray="5,2" d="M94.7945,-95.7243C78.0323,-78.3335 51.6778,-50.9907 38.335,-37.1476"/>
<polygon fill="#9a32cd" stroke="#9a32cd" points="92.2801,-98.1591 101.74,-102.93 97.3201,-93.3012 92.2801,-98.1591"/>
<text text-anchor="middle" x="90" y="-76" font-family="Arial" font-size="10.00"> bgl</text>
</g>
<!-- Node3&#45;&gt;Node3 -->
<g id="edge5" class="edge"><title>Node3&#45;&gt;Node3</title>
<path fill="none" stroke="#9a32cd" stroke-dasharray="5,2" d="M179.677,-117.043C184.239,-115.986 187,-114.471 187,-112.5 187,-109.346 179.931,-107.362 169.728,-106.549"/>
<polygon fill="#9a32cd" stroke="#9a32cd" points="179.138,-113.584 169.728,-118.451 180.119,-120.515 179.138,-113.584"/>
<text text-anchor="middle" x="198" y="-110" font-family="Arial" font-size="10.00"> next</text>
</g>
<!-- Node4 -->
<g id="node4" class="node"><title>Node4</title>
<g id="a_node4"><a xlink:href="classid_file.html" target="_top" xlink:title="idFile">
<polygon fill="white" stroke="black" points="119,-171 119,-190 159,-190 159,-171 119,-171"/>
<text text-anchor="middle" x="139" y="-178" font-family="Arial" font-size="10.00">idFile</text>
</a>
</g>
</g>
<!-- Node4&#45;&gt;Node3 -->
<g id="edge4" class="edge"><title>Node4&#45;&gt;Node3</title>
<path fill="none" stroke="#9a32cd" stroke-dasharray="5,2" d="M131.173,-161.686C125.578,-148.952 118.287,-132.361 113.885,-122.341"/>
<polygon fill="#9a32cd" stroke="#9a32cd" points="127.982,-163.124 135.209,-170.872 134.39,-160.308 127.982,-163.124"/>
<text text-anchor="middle" x="131" y="-144" font-family="Arial" font-size="10.00"> f</text>
</g>
<!-- Node5 -->
<g id="node5" class="node"><title>Node5</title>
<g id="a_node5"><a xlink:href="structfile_download__s.html" target="_top" xlink:title="fileDownload_s">
<polygon fill="white" stroke="black" points="177.5,-171 177.5,-190 258.5,-190 258.5,-171 177.5,-171"/>
<text text-anchor="middle" x="218" y="-178" font-family="Arial" font-size="10.00">fileDownload_s</text>
</a>
</g>
</g>
<!-- Node5&#45;&gt;Node3 -->
<g id="edge6" class="edge"><title>Node5&#45;&gt;Node3</title>
<path fill="none" stroke="#9a32cd" stroke-dasharray="5,2" d="M195.072,-165.488C173.587,-152.358 142.154,-133.15 124.123,-122.13"/>
<polygon fill="#9a32cd" stroke="#9a32cd" points="193.523,-168.644 203.881,-170.872 197.173,-162.671 193.523,-168.644"/>
<text text-anchor="middle" x="182" y="-144" font-family="Arial" font-size="10.00"> file</text>
</g>
<!-- Node6&#45;&gt;Node3 -->
<g id="edge7" class="edge"><title>Node6&#45;&gt;Node3</title>
<path fill="none" stroke="#9a32cd" stroke-dasharray="5,2" d="M73.391,-162.81C82.9433,-149.944 95.7764,-132.658 103.436,-122.341"/>
<polygon fill="#9a32cd" stroke="#9a32cd" points="70.5567,-160.756 67.4059,-170.872 76.1771,-164.929 70.5567,-160.756"/>
<text text-anchor="middle" x="97" y="-144" font-family="Arial" font-size="10.00"> url</text>
</g>
</g>
</svg>
