<?xml version="1.0" encoding="UTF-8" standalone="no"?>
<!DOCTYPE svg PUBLIC "-//W3C//DTD SVG 1.1//EN"
 "http://www.w3.org/Graphics/SVG/1.1/DTD/svg11.dtd">
<!-- Generated by graphviz version 2.34.0 (20130907.0111)
 -->
<!-- Title: CPropTreeItemFileEdit Pages: 1 -->
<svg width="147pt" height="140pt"
 viewBox="0.00 0.00 147.00 140.00" xmlns="http://www.w3.org/2000/svg" xmlns:xlink="http://www.w3.org/1999/xlink">
<g id="graph0" class="graph" transform="scale(1 1) rotate(0) translate(4 136)">
<title>CPropTreeItemFileEdit</title>
<polygon fill="white" stroke="white" points="-4,4 -4,-136 143,-136 143,4 -4,4"/>
<!-- Node1 -->
<g id="node1" class="node"><title>Node1</title>
<polygon fill="#bfbfbf" stroke="black" points="2,-0.5 2,-19.5 116,-19.5 116,-0.5 2,-0.5"/>
<text text-anchor="middle" x="59" y="-7.5" font-family="Arial" font-size="10.00">CPropTreeItemFileEdit</text>
</g>
<!-- Node2 -->
<g id="node2" class="node"><title>Node2</title>
<g id="a_node2"><a xlink:href="class_c_prop_tree_item_edit.html" target="_top" xlink:title="CPropTreeItemEdit">
<polygon fill="white" stroke="black" points="10,-56.5 10,-75.5 108,-75.5 108,-56.5 10,-56.5"/>
<text text-anchor="middle" x="59" y="-63.5" font-family="Arial" font-size="10.00">CPropTreeItemEdit</text>
</a>
</g>
</g>
<!-- Node2&#45;&gt;Node1 -->
<g id="edge1" class="edge"><title>Node2&#45;&gt;Node1</title>
<path fill="none" stroke="midnightblue" d="M59,-45.8045C59,-36.9102 59,-26.7798 59,-19.7511"/>
<polygon fill="midnightblue" stroke="midnightblue" points="55.5001,-46.083 59,-56.083 62.5001,-46.083 55.5001,-46.083"/>
</g>
<!-- Node3 -->
<g id="node3" class="node"><title>Node3</title>
<polygon fill="white" stroke="#bfbfbf" points="-0.5,-112.5 -0.5,-131.5 40.5,-131.5 40.5,-112.5 -0.5,-112.5"/>
<text text-anchor="middle" x="20" y="-119.5" font-family="Arial" font-size="10.00">CEdit</text>
</g>
<!-- Node3&#45;&gt;Node2 -->
<g id="edge2" class="edge"><title>Node3&#45;&gt;Node2</title>
<path fill="none" stroke="midnightblue" d="M32.3822,-103.855C39.1354,-94.5048 47.2086,-83.3265 52.6798,-75.7511"/>
<polygon fill="midnightblue" stroke="midnightblue" points="29.4576,-101.927 26.4401,-112.083 35.1324,-106.025 29.4576,-101.927"/>
</g>
<!-- Node4 -->
<g id="node4" class="node"><title>Node4</title>
<g id="a_node4"><a xlink:href="class_c_prop_tree_item.html" target="_top" xlink:title="CPropTreeItem">
<polygon fill="white" stroke="black" points="58.5,-112.5 58.5,-131.5 139.5,-131.5 139.5,-112.5 58.5,-112.5"/>
<text text-anchor="middle" x="99" y="-119.5" font-family="Arial" font-size="10.00">CPropTreeItem</text>
</a>
</g>
</g>
<!-- Node4&#45;&gt;Node2 -->
<g id="edge3" class="edge"><title>Node4&#45;&gt;Node2</title>
<path fill="none" stroke="midnightblue" d="M86.3003,-103.855C79.374,-94.5048 71.0937,-83.3265 65.4823,-75.7511"/>
<polygon fill="midnightblue" stroke="midnightblue" points="83.63,-106.131 92.3948,-112.083 89.255,-101.964 83.63,-106.131"/>
</g>
</g>
</svg>
