<?xml version="1.0" encoding="UTF-8" standalone="no"?>
<!DOCTYPE svg PUBLIC "-//W3C//DTD SVG 1.1//EN"
 "http://www.w3.org/Graphics/SVG/1.1/DTD/svg11.dtd">
<!-- Generated by graphviz version 2.34.0 (20130907.0111)
 -->
<!-- Title: idIK Pages: 1 -->
<svg width="1088pt" height="689pt"
 viewBox="0.00 0.00 1088.00 689.00" xmlns="http://www.w3.org/2000/svg" xmlns:xlink="http://www.w3.org/1999/xlink">
<g id="graph0" class="graph" transform="scale(1 1) rotate(0) translate(4 685)">
<title>idIK</title>
<polygon fill="white" stroke="white" points="-4,4 -4,-685 1084,-685 1084,4 -4,4"/>
<!-- Node1 -->
<g id="node1" class="node"><title>Node1</title>
<polygon fill="#bfbfbf" stroke="black" points="1046.5,-175.5 1046.5,-194.5 1079.5,-194.5 1079.5,-175.5 1046.5,-175.5"/>
<text text-anchor="middle" x="1063" y="-182.5" font-family="Arial" font-size="10.00">idIK</text>
</g>
<!-- Node2 -->
<g id="node2" class="node"><title>Node2</title>
<g id="a_node2"><a xlink:href="classid_entity.html" target="_top" xlink:title="idEntity">
<polygon fill="white" stroke="black" points="911,-345.5 911,-364.5 961,-364.5 961,-345.5 911,-345.5"/>
<text text-anchor="middle" x="936" y="-352.5" font-family="Arial" font-size="10.00">idEntity</text>
</a>
</g>
</g>
<!-- Node2&#45;&gt;Node1 -->
<g id="edge1" class="edge"><title>Node2&#45;&gt;Node1</title>
<path fill="none" stroke="#9a32cd" stroke-dasharray="5,2" d="M950.017,-337.297C976.277,-301.583 1034.81,-221.972 1055,-194.521"/>
<polygon fill="#9a32cd" stroke="#9a32cd" points="947.183,-335.243 944.079,-345.373 952.822,-339.39 947.183,-335.243"/>
<text text-anchor="middle" x="1007" y="-289" font-family="Arial" font-size="10.00"> self</text>
</g>
<!-- Node2&#45;&gt;Node2 -->
<g id="edge11" class="edge"><title>Node2&#45;&gt;Node2</title>
<path fill="none" stroke="#9a32cd" stroke-dasharray="5,2" d="M923.109,-374.766C924.122,-379.497 928.419,-383 936,-383 948.441,-383 952.038,-373.565 946.789,-364.757"/>
<polygon fill="#9a32cd" stroke="#9a32cd" points="926.581,-375.263 925.211,-364.757 919.73,-373.824 926.581,-375.263"/>
<text text-anchor="middle" x="936" y="-386" font-family="Arial" font-size="10.00"> cameraTarget</text>
</g>
<!-- Node3 -->
<g id="node3" class="node"><title>Node3</title>
<g id="a_node3"><a xlink:href="classid_class.html" target="_top" xlink:title="idClass">
<polygon fill="white" stroke="black" points="709.5,-562.5 709.5,-581.5 758.5,-581.5 758.5,-562.5 709.5,-562.5"/>
<text text-anchor="middle" x="734" y="-569.5" font-family="Arial" font-size="10.00">idClass</text>
</a>
</g>
</g>
<!-- Node3&#45;&gt;Node2 -->
<g id="edge2" class="edge"><title>Node3&#45;&gt;Node2</title>
<path fill="none" stroke="midnightblue" d="M767.549,-559.554C801.666,-549.476 854.586,-532.537 886,-498 922.566,-457.799 931.863,-390.056 934.213,-364.549"/>
<polygon fill="midnightblue" stroke="midnightblue" points="766.218,-556.297 757.61,-562.473 768.191,-563.013 766.218,-556.297"/>
</g>
<!-- Node3&#45;&gt;Node2 -->
<g id="edge10" class="edge"><title>Node3&#45;&gt;Node2</title>
<path fill="none" stroke="midnightblue" d="M768.69,-572.675C802.836,-567.099 854.934,-550.154 886,-516 926.67,-471.286 933.607,-392.502 934.77,-364.54"/>
<polygon fill="midnightblue" stroke="midnightblue" points="768.143,-569.217 758.713,-574.047 769.096,-576.152 768.143,-569.217"/>
</g>
<!-- Node4 -->
<g id="node4" class="node"><title>Node4</title>
<g id="a_node4"><a xlink:href="classid_type_info.html" target="_top" xlink:title="idTypeInfo">
<polygon fill="white" stroke="black" points="906,-609.5 906,-628.5 966,-628.5 966,-609.5 906,-609.5"/>
<text text-anchor="middle" x="936" y="-616.5" font-family="Arial" font-size="10.00">idTypeInfo</text>
</a>
</g>
</g>
<!-- Node3&#45;&gt;Node4 -->
<g id="edge8" class="edge"><title>Node3&#45;&gt;Node4</title>
<path fill="none" stroke="#9a32cd" stroke-dasharray="5,2" d="M768.697,-579.685C799.317,-586.698 845.724,-597.401 886,-607 892.475,-608.543 899.424,-610.228 905.995,-611.834"/>
<polygon fill="#9a32cd" stroke="#9a32cd" points="769.09,-576.184 758.561,-577.366 767.528,-583.008 769.09,-576.184"/>
<text text-anchor="middle" x="851" y="-610" font-family="Arial" font-size="10.00"> CreateInstance</text>
</g>
<!-- Node4&#45;&gt;Node3 -->
<g id="edge3" class="edge"><title>Node4&#45;&gt;Node3</title>
<path fill="none" stroke="#9a32cd" stroke-dasharray="5,2" d="M921.877,-601.292C913.037,-590.916 900.39,-578.751 886,-573 843.642,-556.071 789.106,-561.693 758.515,-567.031"/>
<polygon fill="#9a32cd" stroke="#9a32cd" points="919.385,-603.779 928.362,-609.406 924.853,-599.409 919.385,-603.779"/>
<text text-anchor="middle" x="851" y="-576" font-family="Arial" font-size="10.00"> Type</text>
</g>
<!-- Node4&#45;&gt;Node4 -->
<g id="edge4" class="edge"><title>Node4&#45;&gt;Node4</title>
<path fill="none" stroke="#9a32cd" stroke-dasharray="5,2" d="M923.109,-638.766C924.122,-643.497 928.419,-647 936,-647 948.441,-647 952.038,-637.565 946.789,-628.757"/>
<polygon fill="#9a32cd" stroke="#9a32cd" points="926.581,-639.263 925.211,-628.757 919.73,-637.824 926.581,-639.263"/>
<text text-anchor="middle" x="936" y="-661" font-family="Arial" font-size="10.00"> next</text>
<text text-anchor="middle" x="936" y="-650" font-family="Arial" font-size="10.00">super</text>
</g>
<!-- Node5 -->
<g id="node5" class="node"><title>Node5</title>
<g id="a_node5"><a xlink:href="classid_hierarchy.html" target="_top" xlink:title="idHierarchy\&lt; idTypeInfo \&gt;">
<polygon fill="white" stroke="black" points="670.5,-661.5 670.5,-680.5 797.5,-680.5 797.5,-661.5 670.5,-661.5"/>
<text text-anchor="middle" x="734" y="-668.5" font-family="Arial" font-size="10.00">idHierarchy&lt; idTypeInfo &gt;</text>
</a>
</g>
</g>
<!-- Node5&#45;&gt;Node4 -->
<g id="edge5" class="edge"><title>Node5&#45;&gt;Node4</title>
<path fill="none" stroke="#9a32cd" stroke-dasharray="5,2" d="M807.433,-664.087C832.752,-660.348 861.067,-654.648 886,-646 898.297,-641.735 911.146,-634.537 920.6,-628.646"/>
<polygon fill="#9a32cd" stroke="#9a32cd" points="806.942,-660.622 797.524,-665.474 807.912,-667.554 806.942,-660.622"/>
<text text-anchor="middle" x="851" y="-665" font-family="Arial" font-size="10.00"> node</text>
</g>
<!-- Node6 -->
<g id="node6" class="node"><title>Node6</title>
<g id="a_node6"><a xlink:href="structid_event_func.html" target="_top" xlink:title="idEventFunc\&lt; idClass \&gt;">
<polygon fill="white" stroke="black" points="428,-600.5 428,-619.5 548,-619.5 548,-600.5 428,-600.5"/>
<text text-anchor="middle" x="488" y="-607.5" font-family="Arial" font-size="10.00">idEventFunc&lt; idClass &gt;</text>
</a>
</g>
</g>
<!-- Node6&#45;&gt;Node3 -->
<g id="edge9" class="edge"><title>Node6&#45;&gt;Node3</title>
<path fill="none" stroke="#9a32cd" stroke-dasharray="5,2" d="M558.001,-599.254C608.76,-591.349 674.712,-581.078 709.358,-575.682"/>
<polygon fill="#9a32cd" stroke="#9a32cd" points="557.408,-595.804 548.066,-600.801 558.485,-602.721 557.408,-595.804"/>
<text text-anchor="middle" x="609" y="-601" font-family="Arial" font-size="10.00"> eventCallbacks</text>
</g>
<!-- Node6&#45;&gt;Node4 -->
<g id="edge6" class="edge"><title>Node6&#45;&gt;Node4</title>
<path fill="none" stroke="#9a32cd" stroke-dasharray="5,2" d="M558.335,-612.763C560.923,-612.846 563.484,-612.926 566,-613 677.085,-616.275 704.878,-616.422 816,-618 846.574,-618.434 881.57,-618.701 905.657,-618.848"/>
<polygon fill="#9a32cd" stroke="#9a32cd" points="558.383,-609.263 548.27,-612.422 558.146,-616.259 558.383,-609.263"/>
<text text-anchor="middle" x="734" y="-621" font-family="Arial" font-size="10.00"> eventCallbacks</text>
</g>
<!-- Node7 -->
<g id="node7" class="node"><title>Node7</title>
<g id="a_node7"><a xlink:href="classid_event_def.html" target="_top" xlink:title="idEventDef">
<polygon fill="white" stroke="black" points="234,-600.5 234,-619.5 296,-619.5 296,-600.5 234,-600.5"/>
<text text-anchor="middle" x="265" y="-607.5" font-family="Arial" font-size="10.00">idEventDef</text>
</a>
</g>
</g>
<!-- Node7&#45;&gt;Node6 -->
<g id="edge7" class="edge"><title>Node7&#45;&gt;Node6</title>
<path fill="none" stroke="#9a32cd" stroke-dasharray="5,2" d="M306.282,-610C340.209,-610 389.214,-610 427.636,-610"/>
<polygon fill="#9a32cd" stroke="#9a32cd" points="306.266,-606.5 296.266,-610 306.266,-613.5 306.266,-606.5"/>
<text text-anchor="middle" x="374" y="-613" font-family="Arial" font-size="10.00"> event</text>
</g>
<!-- Node8 -->
<g id="node8" class="node"><title>Node8</title>
<g id="a_node8"><a xlink:href="classid_str.html" target="_top" xlink:title="idStr">
<polygon fill="white" stroke="black" points="715.5,-364.5 715.5,-383.5 752.5,-383.5 752.5,-364.5 715.5,-364.5"/>
<text text-anchor="middle" x="734" y="-371.5" font-family="Arial" font-size="10.00">idStr</text>
</a>
</g>
</g>
<!-- Node8&#45;&gt;Node2 -->
<g id="edge12" class="edge"><title>Node8&#45;&gt;Node2</title>
<path fill="none" stroke="#9a32cd" stroke-dasharray="5,2" d="M762.717,-371.367C802.087,-367.627 873.555,-360.837 910.863,-357.293"/>
<polygon fill="#9a32cd" stroke="#9a32cd" points="762.373,-367.884 752.749,-372.314 763.035,-374.852 762.373,-367.884"/>
<text text-anchor="middle" x="851" y="-370" font-family="Arial" font-size="10.00"> name</text>
</g>
<!-- Node9 -->
<g id="node9" class="node"><title>Node9</title>
<g id="a_node9"><a xlink:href="structid_entity_1_1entity_flags__s.html" target="_top" xlink:title="idEntity::entityFlags_s">
<polygon fill="white" stroke="black" points="677,-326.5 677,-345.5 791,-345.5 791,-326.5 677,-326.5"/>
<text text-anchor="middle" x="734" y="-333.5" font-family="Arial" font-size="10.00">idEntity::entityFlags_s</text>
</a>
</g>
</g>
<!-- Node9&#45;&gt;Node2 -->
<g id="edge13" class="edge"><title>Node9&#45;&gt;Node2</title>
<path fill="none" stroke="#9a32cd" stroke-dasharray="5,2" d="M801.356,-338.735C827.762,-340.255 858.381,-342.561 886,-346 894.154,-347.015 903.004,-348.517 910.91,-350.003"/>
<polygon fill="#9a32cd" stroke="#9a32cd" points="801.257,-335.224 791.08,-338.17 800.873,-342.213 801.257,-335.224"/>
<text text-anchor="middle" x="851" y="-349" font-family="Arial" font-size="10.00"> fl</text>
</g>
<!-- Node10 -->
<g id="node10" class="node"><title>Node10</title>
<g id="a_node10"><a xlink:href="structrender_view__s.html" target="_top" xlink:title="renderView_s">
<polygon fill="white" stroke="black" points="450.5,-474.5 450.5,-493.5 525.5,-493.5 525.5,-474.5 450.5,-474.5"/>
<text text-anchor="middle" x="488" y="-481.5" font-family="Arial" font-size="10.00">renderView_s</text>
</a>
</g>
</g>
<!-- Node10&#45;&gt;Node2 -->
<g id="edge14" class="edge"><title>Node10&#45;&gt;Node2</title>
<path fill="none" stroke="#9a32cd" stroke-dasharray="5,2" d="M535.364,-495.359C615.341,-512.068 780.753,-533.615 886,-457 917.448,-434.107 929.562,-385.61 933.437,-364.809"/>
<polygon fill="#9a32cd" stroke="#9a32cd" points="536.096,-491.936 525.583,-493.25 534.62,-498.779 536.096,-491.936"/>
<text text-anchor="middle" x="734" y="-515" font-family="Arial" font-size="10.00"> renderView</text>
</g>
<!-- Node18 -->
<g id="node18" class="node"><title>Node18</title>
<g id="a_node18"><a xlink:href="structrender_entity__s.html" target="_top" xlink:title="renderEntity_s">
<polygon fill="white" stroke="black" points="694,-259.5 694,-278.5 774,-278.5 774,-259.5 694,-259.5"/>
<text text-anchor="middle" x="734" y="-266.5" font-family="Arial" font-size="10.00">renderEntity_s</text>
</a>
</g>
</g>
<!-- Node10&#45;&gt;Node18 -->
<g id="edge27" class="edge"><title>Node10&#45;&gt;Node18</title>
<path fill="none" stroke="#9a32cd" stroke-dasharray="5,2" d="M535.49,-475.08C582.235,-465.908 647.973,-452.366 652,-448 691.843,-404.799 640.385,-367.762 670,-317 680.047,-299.779 698.924,-286.667 713.405,-278.534"/>
<polygon fill="#9a32cd" stroke="#9a32cd" points="534.683,-471.672 525.539,-477.023 536.024,-478.542 534.683,-471.672"/>
<text text-anchor="middle" x="609" y="-472" font-family="Arial" font-size="10.00"> remoteRenderView</text>
</g>
<!-- Node11 -->
<g id="node11" class="node"><title>Node11</title>
<g id="a_node11"><a xlink:href="classid_mat3.html" target="_top" xlink:title="idMat3">
<polygon fill="white" stroke="black" points="242,-504.5 242,-523.5 288,-523.5 288,-504.5 242,-504.5"/>
<text text-anchor="middle" x="265" y="-511.5" font-family="Arial" font-size="10.00">idMat3</text>
</a>
</g>
</g>
<!-- Node11&#45;&gt;Node10 -->
<g id="edge15" class="edge"><title>Node11&#45;&gt;Node10</title>
<path fill="none" stroke="#9a32cd" stroke-dasharray="5,2" d="M298.538,-509.583C339.018,-504.088 407.951,-494.731 450.283,-488.984"/>
<polygon fill="#9a32cd" stroke="#9a32cd" points="297.845,-506.145 288.407,-510.958 298.787,-513.081 297.845,-506.145"/>
<text text-anchor="middle" x="374" y="-507" font-family="Arial" font-size="10.00"> viewaxis</text>
</g>
<!-- Node11&#45;&gt;Node18 -->
<g id="edge23" class="edge"><title>Node11&#45;&gt;Node18</title>
<path fill="none" stroke="#9a32cd" stroke-dasharray="5,2" d="M297.943,-523.836C372.679,-544.64 559.576,-583.463 652,-484 677.408,-456.657 651.663,-349.511 670,-317 679.727,-299.754 698.445,-286.722 712.961,-278.62"/>
<polygon fill="#9a32cd" stroke="#9a32cd" points="298.74,-520.423 288.163,-521.036 296.814,-527.153 298.74,-520.423"/>
<text text-anchor="middle" x="488" y="-553" font-family="Arial" font-size="10.00"> axis</text>
</g>
<!-- Node12 -->
<g id="node12" class="node"><title>Node12</title>
<g id="a_node12"><a xlink:href="classid_vec3.html" target="_top" xlink:title="idVec3">
<polygon fill="white" stroke="black" points="241.5,-173.5 241.5,-192.5 288.5,-192.5 288.5,-173.5 241.5,-173.5"/>
<text text-anchor="middle" x="265" y="-180.5" font-family="Arial" font-size="10.00">idVec3</text>
</a>
</g>
</g>
<!-- Node12&#45;&gt;Node1 -->
<g id="edge44" class="edge"><title>Node12&#45;&gt;Node1</title>
<path fill="none" stroke="#9a32cd" stroke-dasharray="5,2" d="M298.742,-181.873C329.429,-179.507 375.604,-172.483 410,-152 420.562,-145.71 417.392,-137.212 428,-131 498.4,-89.7717 526.416,-95 608,-95 608,-95 608,-95 937,-95 991.552,-95 1038.54,-152.151 1055.38,-175.368"/>
<polygon fill="#9a32cd" stroke="#9a32cd" points="298.331,-178.392 288.578,-182.53 298.783,-185.378 298.331,-178.392"/>
<text text-anchor="middle" x="734" y="-98" font-family="Arial" font-size="10.00"> modelOffset</text>
</g>
<!-- Node12&#45;&gt;Node10 -->
<g id="edge16" class="edge"><title>Node12&#45;&gt;Node10</title>
<path fill="none" stroke="#9a32cd" stroke-dasharray="5,2" d="M272.853,-201.975C283.905,-231.136 307.539,-287.999 338,-330 364.203,-366.129 387.252,-361.601 410,-400 425.278,-425.79 407.247,-443.37 428,-465 434.035,-471.29 442.157,-475.501 450.442,-478.32"/>
<polygon fill="#9a32cd" stroke="#9a32cd" points="276.122,-200.721 269.362,-192.563 269.559,-203.156 276.122,-200.721"/>
<text text-anchor="middle" x="374" y="-403" font-family="Arial" font-size="10.00"> vieworg</text>
</g>
<!-- Node12&#45;&gt;Node18 -->
<g id="edge31" class="edge"><title>Node12&#45;&gt;Node18</title>
<path fill="none" stroke="#9a32cd" stroke-dasharray="5,2" d="M298.002,-195.971C330.271,-208.497 381.784,-226.997 428,-237 521.927,-257.329 635.029,-264.899 693.571,-267.596"/>
<polygon fill="#9a32cd" stroke="#9a32cd" points="299.22,-192.689 288.633,-192.291 296.661,-199.204 299.22,-192.689"/>
<text text-anchor="middle" x="488" y="-259" font-family="Arial" font-size="10.00"> origin</text>
</g>
<!-- Node26 -->
<g id="node26" class="node"><title>Node26</title>
<g id="a_node26"><a xlink:href="structref_sound__t.html" target="_top" xlink:title="refSound_t">
<polygon fill="white" stroke="black" points="456.5,-47.5 456.5,-66.5 519.5,-66.5 519.5,-47.5 456.5,-47.5"/>
<text text-anchor="middle" x="488" y="-54.5" font-family="Arial" font-size="10.00">refSound_t</text>
</a>
</g>
</g>
<!-- Node12&#45;&gt;Node26 -->
<g id="edge41" class="edge"><title>Node12&#45;&gt;Node26</title>
<path fill="none" stroke="#9a32cd" stroke-dasharray="5,2" d="M290.22,-168.163C318.947,-150.496 368.208,-119.983 410,-93 418.078,-87.7849 419.504,-85.5009 428,-81 438.26,-75.5646 450.029,-70.5504 460.343,-66.5264"/>
<polygon fill="#9a32cd" stroke="#9a32cd" points="288.339,-165.211 281.65,-173.427 292.003,-171.175 288.339,-165.211"/>
<text text-anchor="middle" x="374" y="-141" font-family="Arial" font-size="10.00"> origin</text>
</g>
<!-- Node13 -->
<g id="node13" class="node"><title>Node13</title>
<g id="a_node13"><a xlink:href="classid_material.html" target="_top" xlink:title="idMaterial">
<polygon fill="white" stroke="black" points="235.5,-348.5 235.5,-367.5 294.5,-367.5 294.5,-348.5 235.5,-348.5"/>
<text text-anchor="middle" x="265" y="-355.5" font-family="Arial" font-size="10.00">idMaterial</text>
</a>
</g>
</g>
<!-- Node13&#45;&gt;Node10 -->
<g id="edge17" class="edge"><title>Node13&#45;&gt;Node10</title>
<path fill="none" stroke="#9a32cd" stroke-dasharray="5,2" d="M285.618,-374.042C314.91,-397.25 372.584,-440.128 428,-465 435.854,-468.525 444.561,-471.703 452.821,-474.405"/>
<polygon fill="#9a32cd" stroke="#9a32cd" points="287.795,-371.301 277.803,-367.78 283.418,-376.764 287.795,-371.301"/>
<text text-anchor="middle" x="374" y="-459" font-family="Arial" font-size="10.00"> globalMaterial</text>
</g>
<!-- Node13&#45;&gt;Node18 -->
<g id="edge33" class="edge"><title>Node13&#45;&gt;Node18</title>
<path fill="none" stroke="#9a32cd" stroke-dasharray="5,2" d="M304.759,-355.119C375.074,-349.205 527.873,-333.174 652,-298 671.401,-292.502 692.865,-284.738 708.821,-278.627"/>
<polygon fill="#9a32cd" stroke="#9a32cd" points="304.278,-351.647 294.597,-355.951 304.85,-358.624 304.278,-351.647"/>
<text text-anchor="middle" x="488" y="-356" font-family="Arial" font-size="10.00"> customShader</text>
<text text-anchor="middle" x="488" y="-345" font-family="Arial" font-size="10.00">referenceShader</text>
</g>
<!-- Node14 -->
<g id="node14" class="node"><title>Node14</title>
<g id="a_node14"><a xlink:href="classid_decl.html" target="_top" xlink:title="idDecl">
<polygon fill="white" stroke="black" points="128,-301.5 128,-320.5 172,-320.5 172,-301.5 128,-301.5"/>
<text text-anchor="middle" x="150" y="-308.5" font-family="Arial" font-size="10.00">idDecl</text>
</a>
</g>
</g>
<!-- Node14&#45;&gt;Node13 -->
<g id="edge18" class="edge"><title>Node14&#45;&gt;Node13</title>
<path fill="none" stroke="midnightblue" d="M181.527,-323.697C200.218,-331.471 223.755,-341.261 240.896,-348.391"/>
<polygon fill="midnightblue" stroke="midnightblue" points="182.832,-320.449 172.254,-319.84 180.143,-326.912 182.832,-320.449"/>
</g>
<!-- Node19 -->
<g id="node19" class="node"><title>Node19</title>
<g id="a_node19"><a xlink:href="classid_decl_skin.html" target="_top" xlink:title="idDeclSkin">
<polygon fill="white" stroke="black" points="342.5,-301.5 342.5,-320.5 405.5,-320.5 405.5,-301.5 342.5,-301.5"/>
<text text-anchor="middle" x="374" y="-308.5" font-family="Arial" font-size="10.00">idDeclSkin</text>
</a>
</g>
</g>
<!-- Node14&#45;&gt;Node19 -->
<g id="edge25" class="edge"><title>Node14&#45;&gt;Node19</title>
<path fill="none" stroke="midnightblue" d="M182.334,-311C224.798,-311 300.143,-311 342.285,-311"/>
<polygon fill="midnightblue" stroke="midnightblue" points="182.286,-307.5 172.286,-311 182.286,-314.5 182.286,-307.5"/>
</g>
<!-- Node28 -->
<g id="node28" class="node"><title>Node28</title>
<g id="a_node28"><a xlink:href="classid_sound_shader.html" target="_top" xlink:title="idSoundShader">
<polygon fill="white" stroke="black" points="223.5,-0.5 223.5,-19.5 306.5,-19.5 306.5,-0.5 223.5,-0.5"/>
<text text-anchor="middle" x="265" y="-7.5" font-family="Arial" font-size="10.00">idSoundShader</text>
</a>
</g>
</g>
<!-- Node14&#45;&gt;Node28 -->
<g id="edge39" class="edge"><title>Node14&#45;&gt;Node28</title>
<path fill="none" stroke="midnightblue" d="M152.642,-291.193C157.779,-233.74 175.313,-68.6002 210,-29 213.667,-24.8135 218.314,-21.5494 223.336,-19.0045"/>
<polygon fill="midnightblue" stroke="midnightblue" points="149.129,-291.194 151.755,-301.458 156.103,-291.796 149.129,-291.194"/>
</g>
<!-- Node15 -->
<g id="node15" class="node"><title>Node15</title>
<g id="a_node15"><a xlink:href="classid_decl_base.html" target="_top" xlink:title="idDeclBase">
<polygon fill="white" stroke="black" points="0,-301.5 0,-320.5 66,-320.5 66,-301.5 0,-301.5"/>
<text text-anchor="middle" x="33" y="-308.5" font-family="Arial" font-size="10.00">idDeclBase</text>
</a>
</g>
</g>
<!-- Node15&#45;&gt;Node14 -->
<g id="edge19" class="edge"><title>Node15&#45;&gt;Node14</title>
<path fill="none" stroke="#9a32cd" stroke-dasharray="5,2" d="M76.0643,-311C93.5984,-311 113.201,-311 127.664,-311"/>
<polygon fill="#9a32cd" stroke="#9a32cd" points="76.0339,-307.5 66.0339,-311 76.0339,-314.5 76.0339,-307.5"/>
<text text-anchor="middle" x="97" y="-314" font-family="Arial" font-size="10.00"> base</text>
</g>
<!-- Node16 -->
<g id="node16" class="node"><title>Node16</title>
<g id="a_node16"><a xlink:href="classid_list.html" target="_top" xlink:title="idList\&lt; idEntityPtr\l\&lt; idEntity \&gt; \&gt;">
<polygon fill="white" stroke="black" points="686.5,-163 686.5,-193 781.5,-193 781.5,-163 686.5,-163"/>
<text text-anchor="start" x="694.5" y="-181" font-family="Arial" font-size="10.00">idList&lt; idEntityPtr</text>
<text text-anchor="middle" x="734" y="-170" font-family="Arial" font-size="10.00">&lt; idEntity &gt; &gt;</text>
</a>
</g>
</g>
<!-- Node16&#45;&gt;Node2 -->
<g id="edge20" class="edge"><title>Node16&#45;&gt;Node2</title>
<path fill="none" stroke="#9a32cd" stroke-dasharray="5,2" d="M791.852,-174.744C823.046,-175.968 860.458,-182.778 886,-205 929.197,-242.582 934.521,-318.778 935.02,-345.489"/>
<polygon fill="#9a32cd" stroke="#9a32cd" points="791.609,-171.238 781.538,-174.528 791.463,-178.236 791.609,-171.238"/>
<text text-anchor="middle" x="851" y="-208" font-family="Arial" font-size="10.00"> targets</text>
</g>
<!-- Node17 -->
<g id="node17" class="node"><title>Node17</title>
<g id="a_node17"><a xlink:href="classid_link_list.html" target="_top" xlink:title="idLinkList\&lt; idEntity \&gt;">
<polygon fill="white" stroke="black" points="679.5,-124.5 679.5,-143.5 788.5,-143.5 788.5,-124.5 679.5,-124.5"/>
<text text-anchor="middle" x="734" y="-131.5" font-family="Arial" font-size="10.00">idLinkList&lt; idEntity &gt;</text>
</a>
</g>
</g>
<!-- Node17&#45;&gt;Node2 -->
<g id="edge21" class="edge"><title>Node17&#45;&gt;Node2</title>
<path fill="none" stroke="#9a32cd" stroke-dasharray="5,2" d="M780.954,-122.744C813.899,-117.568 857.346,-117.059 886,-141 894.135,-147.797 925.144,-304.436 933.12,-345.315"/>
<polygon fill="#9a32cd" stroke="#9a32cd" points="780.337,-119.299 771.095,-124.479 781.55,-126.193 780.337,-119.299"/>
<text text-anchor="middle" x="851" y="-166" font-family="Arial" font-size="10.00"> spawnNode</text>
<text text-anchor="middle" x="851" y="-155" font-family="Arial" font-size="10.00">snapshotNode</text>
<text text-anchor="middle" x="851" y="-144" font-family="Arial" font-size="10.00">activeNode</text>
</g>
<!-- Node18&#45;&gt;Node2 -->
<g id="edge22" class="edge"><title>Node18&#45;&gt;Node2</title>
<path fill="none" stroke="#9a32cd" stroke-dasharray="5,2" d="M775.671,-281.69C806.581,-291.902 849.805,-307.415 886,-325 898.202,-330.928 911.268,-339.024 920.837,-345.312"/>
<polygon fill="#9a32cd" stroke="#9a32cd" points="776.686,-278.34 766.093,-278.565 774.514,-284.995 776.686,-278.34"/>
<text text-anchor="middle" x="851" y="-328" font-family="Arial" font-size="10.00"> renderEntity</text>
</g>
<!-- Node18&#45;&gt;Node18 -->
<g id="edge32" class="edge"><title>Node18&#45;&gt;Node18</title>
<path fill="none" stroke="#9a32cd" stroke-dasharray="5,2" d="M712.52,-288.4C713.954,-293.315 721.114,-297 734,-297 754.617,-297 760.577,-287.565 751.879,-278.757"/>
<polygon fill="#9a32cd" stroke="#9a32cd" points="715.901,-289.35 716.121,-278.757 709.343,-286.9 715.901,-289.35"/>
<text text-anchor="middle" x="734" y="-300" font-family="Arial" font-size="10.00"> callback</text>
</g>
<!-- Node19&#45;&gt;Node18 -->
<g id="edge24" class="edge"><title>Node19&#45;&gt;Node18</title>
<path fill="none" stroke="#9a32cd" stroke-dasharray="5,2" d="M415.622,-306.234C484.968,-298.099 625.311,-281.634 693.725,-273.608"/>
<polygon fill="#9a32cd" stroke="#9a32cd" points="415.047,-302.778 405.523,-307.419 415.863,-309.73 415.047,-302.778"/>
<text text-anchor="middle" x="488" y="-308" font-family="Arial" font-size="10.00"> customSkin</text>
</g>
<!-- Node20 -->
<g id="node20" class="node"><title>Node20</title>
<g id="a_node20"><a xlink:href="classid_joint_mat.html" target="_top" xlink:title="idJointMat">
<polygon fill="white" stroke="black" points="457.5,-208.5 457.5,-227.5 518.5,-227.5 518.5,-208.5 457.5,-208.5"/>
<text text-anchor="middle" x="488" y="-215.5" font-family="Arial" font-size="10.00">idJointMat</text>
</a>
</g>
</g>
<!-- Node20&#45;&gt;Node18 -->
<g id="edge26" class="edge"><title>Node20&#45;&gt;Node18</title>
<path fill="none" stroke="#9a32cd" stroke-dasharray="5,2" d="M528.762,-220.593C562.054,-223.365 610.626,-228.813 652,-239 657.679,-240.398 686.515,-251.233 708.177,-259.483"/>
<polygon fill="#9a32cd" stroke="#9a32cd" points="528.763,-217.083 518.518,-219.785 528.212,-224.061 528.763,-217.083"/>
<text text-anchor="middle" x="609" y="-242" font-family="Arial" font-size="10.00"> joints</text>
</g>
<!-- Node21 -->
<g id="node21" class="node"><title>Node21</title>
<g id="a_node21"><a xlink:href="classid_sound_emitter.html" target="_top" xlink:title="idSoundEmitter">
<polygon fill="white" stroke="black" points="223.5,-114.5 223.5,-133.5 306.5,-133.5 306.5,-114.5 223.5,-114.5"/>
<text text-anchor="middle" x="265" y="-121.5" font-family="Arial" font-size="10.00">idSoundEmitter</text>
</a>
</g>
</g>
<!-- Node21&#45;&gt;Node18 -->
<g id="edge28" class="edge"><title>Node21&#45;&gt;Node18</title>
<path fill="none" stroke="#9a32cd" stroke-dasharray="5,2" d="M317.049,-126.216C373.791,-129.255 467.982,-136.019 548,-150 595.042,-158.219 618.152,-143.313 652,-177 674.159,-199.054 649.087,-221.762 670,-245 676.342,-252.047 684.978,-257.037 693.821,-260.567"/>
<polygon fill="#9a32cd" stroke="#9a32cd" points="317.07,-122.712 306.902,-125.69 316.708,-129.703 317.07,-122.712"/>
<text text-anchor="middle" x="488" y="-153" font-family="Arial" font-size="10.00"> referenceSound</text>
</g>
<!-- Node21&#45;&gt;Node26 -->
<g id="edge40" class="edge"><title>Node21&#45;&gt;Node26</title>
<path fill="none" stroke="#9a32cd" stroke-dasharray="5,2" d="M287.392,-108.742C301.205,-99.6106 319.916,-88.5429 338,-82 377.341,-67.7663 425.499,-61.5644 456.216,-58.9113"/>
<polygon fill="#9a32cd" stroke="#9a32cd" points="285.378,-105.879 279.077,-114.397 289.314,-111.667 285.378,-105.879"/>
<text text-anchor="middle" x="374" y="-85" font-family="Arial" font-size="10.00"> referenceSound</text>
</g>
<!-- Node22 -->
<g id="node22" class="node"><title>Node22</title>
<g id="a_node22"><a xlink:href="classid_render_model.html" target="_top" xlink:title="idRenderModel">
<polygon fill="white" stroke="black" points="447.5,-436.5 447.5,-455.5 528.5,-455.5 528.5,-436.5 447.5,-436.5"/>
<text text-anchor="middle" x="488" y="-443.5" font-family="Arial" font-size="10.00">idRenderModel</text>
</a>
</g>
</g>
<!-- Node22&#45;&gt;Node18 -->
<g id="edge29" class="edge"><title>Node22&#45;&gt;Node18</title>
<path fill="none" stroke="#9a32cd" stroke-dasharray="5,2" d="M538.416,-438.833C583.39,-431.858 643.968,-421.149 652,-413 682.474,-382.084 647.216,-353.951 670,-317 680.537,-299.912 699.546,-286.702 713.937,-278.506"/>
<polygon fill="#9a32cd" stroke="#9a32cd" points="537.865,-435.377 528.51,-440.349 538.924,-442.296 537.865,-435.377"/>
<text text-anchor="middle" x="609" y="-437" font-family="Arial" font-size="10.00"> hModel</text>
</g>
<!-- Node23 -->
<g id="node23" class="node"><title>Node23</title>
<g id="a_node23"><a xlink:href="classid_bounds.html" target="_top" xlink:title="idBounds">
<polygon fill="white" stroke="black" points="459.5,-398.5 459.5,-417.5 516.5,-417.5 516.5,-398.5 459.5,-398.5"/>
<text text-anchor="middle" x="488" y="-405.5" font-family="Arial" font-size="10.00">idBounds</text>
</a>
</g>
</g>
<!-- Node23&#45;&gt;Node18 -->
<g id="edge30" class="edge"><title>Node23&#45;&gt;Node18</title>
<path fill="none" stroke="#9a32cd" stroke-dasharray="5,2" d="M526.693,-404.011C568.936,-398.813 633.892,-388.4 652,-372 671.064,-354.734 655.097,-337.963 670,-317 681.791,-300.414 701.005,-286.962 715.119,-278.565"/>
<polygon fill="#9a32cd" stroke="#9a32cd" points="526.265,-400.538 516.747,-405.191 527.089,-407.489 526.265,-400.538"/>
<text text-anchor="middle" x="609" y="-401" font-family="Arial" font-size="10.00"> bounds</text>
</g>
<!-- Node24 -->
<g id="node24" class="node"><title>Node24</title>
<g id="a_node24"><a xlink:href="classid_user_interface.html" target="_top" xlink:title="idUserInterface">
<polygon fill="white" stroke="black" points="447.5,-170.5 447.5,-189.5 528.5,-189.5 528.5,-170.5 447.5,-170.5"/>
<text text-anchor="middle" x="488" y="-177.5" font-family="Arial" font-size="10.00">idUserInterface</text>
</a>
</g>
</g>
<!-- Node24&#45;&gt;Node18 -->
<g id="edge34" class="edge"><title>Node24&#45;&gt;Node18</title>
<path fill="none" stroke="#9a32cd" stroke-dasharray="5,2" d="M539.142,-178.1C573.935,-179.257 619.659,-185.976 652,-210 666.042,-220.431 656.964,-233.337 670,-245 676.978,-251.243 685.747,-255.928 694.507,-259.419"/>
<polygon fill="#9a32cd" stroke="#9a32cd" points="538.785,-174.593 528.722,-177.907 538.655,-181.592 538.785,-174.593"/>
<text text-anchor="middle" x="609" y="-213" font-family="Arial" font-size="10.00"> gui</text>
</g>
<!-- Node25 -->
<g id="node25" class="node"><title>Node25</title>
<g id="a_node25"><a xlink:href="classid_dict.html" target="_top" xlink:title="idDict">
<polygon fill="white" stroke="black" points="713.5,-440.5 713.5,-459.5 754.5,-459.5 754.5,-440.5 713.5,-440.5"/>
<text text-anchor="middle" x="734" y="-447.5" font-family="Arial" font-size="10.00">idDict</text>
</a>
</g>
</g>
<!-- Node25&#45;&gt;Node2 -->
<g id="edge35" class="edge"><title>Node25&#45;&gt;Node2</title>
<path fill="none" stroke="#9a32cd" stroke-dasharray="5,2" d="M764.758,-449.038C796.895,-446.756 848.515,-439.384 886,-416 906.745,-403.058 922.542,-378.158 930.093,-364.515"/>
<polygon fill="#9a32cd" stroke="#9a32cd" points="764.432,-445.551 754.655,-449.632 764.843,-452.539 764.432,-445.551"/>
<text text-anchor="middle" x="851" y="-445" font-family="Arial" font-size="10.00"> spawnArgs</text>
</g>
<!-- Node26&#45;&gt;Node2 -->
<g id="edge36" class="edge"><title>Node26&#45;&gt;Node2</title>
<path fill="none" stroke="#9a32cd" stroke-dasharray="5,2" d="M528.688,-70.0207C565.529,-84.029 619.446,-109.731 652,-149 667.877,-168.152 652.009,-184.819 670,-202 712.826,-242.899 743.83,-215.076 798,-239 839.976,-257.539 851.689,-262.53 886,-293 904.055,-309.034 920.444,-332.326 928.925,-345.318"/>
<polygon fill="#9a32cd" stroke="#9a32cd" points="529.841,-66.7156 519.248,-66.544 527.422,-73.2843 529.841,-66.7156"/>
<text text-anchor="middle" x="734" y="-242" font-family="Arial" font-size="10.00"> refSound</text>
</g>
<!-- Node27 -->
<g id="node27" class="node"><title>Node27</title>
<g id="a_node27"><a xlink:href="structsound_shader_parms__t.html" target="_top" xlink:title="soundShaderParms_t">
<polygon fill="white" stroke="black" points="210,-38.5 210,-57.5 320,-57.5 320,-38.5 210,-38.5"/>
<text text-anchor="middle" x="265" y="-45.5" font-family="Arial" font-size="10.00">soundShaderParms_t</text>
</a>
</g>
</g>
<!-- Node27&#45;&gt;Node26 -->
<g id="edge37" class="edge"><title>Node27&#45;&gt;Node26</title>
<path fill="none" stroke="#9a32cd" stroke-dasharray="5,2" d="M330.139,-46.4045C355.087,-46.2016 383.897,-46.4797 410,-48 425.317,-48.8921 442.262,-50.7744 456.347,-52.5881"/>
<polygon fill="#9a32cd" stroke="#9a32cd" points="330.025,-42.9054 320.064,-46.5138 330.101,-49.905 330.025,-42.9054"/>
<text text-anchor="middle" x="374" y="-51" font-family="Arial" font-size="10.00"> parms</text>
</g>
<!-- Node28&#45;&gt;Node26 -->
<g id="edge38" class="edge"><title>Node28&#45;&gt;Node26</title>
<path fill="none" stroke="#9a32cd" stroke-dasharray="5,2" d="M316.941,-15.7333C344.669,-19.3662 379.451,-24.7579 410,-32 427.368,-36.1175 446.455,-42.3024 461.28,-47.4901"/>
<polygon fill="#9a32cd" stroke="#9a32cd" points="317.046,-12.2184 306.684,-14.4269 316.161,-19.1623 317.046,-12.2184"/>
<text text-anchor="middle" x="374" y="-35" font-family="Arial" font-size="10.00"> shader</text>
</g>
<!-- Node29 -->
<g id="node29" class="node"><title>Node29</title>
<g id="a_node29"><a xlink:href="classid_script_object.html" target="_top" xlink:title="idScriptObject">
<polygon fill="white" stroke="black" points="695,-402.5 695,-421.5 773,-421.5 773,-402.5 695,-402.5"/>
<text text-anchor="middle" x="734" y="-409.5" font-family="Arial" font-size="10.00">idScriptObject</text>
</a>
</g>
</g>
<!-- Node29&#45;&gt;Node2 -->
<g id="edge42" class="edge"><title>Node29&#45;&gt;Node2</title>
<path fill="none" stroke="#9a32cd" stroke-dasharray="5,2" d="M783.367,-406.255C813.515,-401.737 852.759,-394.129 886,-382 898.227,-377.539 911.079,-370.35 920.552,-364.512"/>
<polygon fill="#9a32cd" stroke="#9a32cd" points="782.509,-402.842 773.107,-407.727 783.503,-409.771 782.509,-402.842"/>
<text text-anchor="middle" x="851" y="-404" font-family="Arial" font-size="10.00"> scriptObject</text>
</g>
<!-- Node30 -->
<g id="node30" class="node"><title>Node30</title>
<g id="a_node30"><a xlink:href="classid_animator.html" target="_top" xlink:title="idAnimator">
<polygon fill="white" stroke="black" points="904.5,-175.5 904.5,-194.5 967.5,-194.5 967.5,-175.5 904.5,-175.5"/>
<text text-anchor="middle" x="936" y="-182.5" font-family="Arial" font-size="10.00">idAnimator</text>
</a>
</g>
</g>
<!-- Node30&#45;&gt;Node1 -->
<g id="edge43" class="edge"><title>Node30&#45;&gt;Node1</title>
<path fill="none" stroke="#9a32cd" stroke-dasharray="5,2" d="M977.602,-185C1000.99,-185 1029.06,-185 1046.2,-185"/>
<polygon fill="#9a32cd" stroke="#9a32cd" points="977.578,-181.5 967.578,-185 977.578,-188.5 977.578,-181.5"/>
<text text-anchor="middle" x="1007" y="-188" font-family="Arial" font-size="10.00"> animator</text>
</g>
</g>
</svg>
