<?xml version="1.0" encoding="UTF-8" standalone="no"?>
<!DOCTYPE svg PUBLIC "-//W3C//DTD SVG 1.1//EN"
 "http://www.w3.org/Graphics/SVG/1.1/DTD/svg11.dtd">
<!-- Generated by graphviz version 2.34.0 (20130907.0111)
 -->
<!-- Title: idCompressor_RunLength Pages: 1 -->
<svg width="159pt" height="260pt"
 viewBox="0.00 0.00 159.00 260.00" xmlns="http://www.w3.org/2000/svg" xmlns:xlink="http://www.w3.org/1999/xlink">
<g id="graph0" class="graph" transform="scale(1 1) rotate(0) translate(4 256)">
<title>idCompressor_RunLength</title>
<polygon fill="white" stroke="white" points="-4,4 -4,-256 155,-256 155,4 -4,4"/>
<!-- Node1 -->
<g id="node1" class="node"><title>Node1</title>
<polygon fill="#bfbfbf" stroke="black" points="0,-0.5 0,-19.5 128,-19.5 128,-0.5 0,-0.5"/>
<text text-anchor="middle" x="64" y="-7.5" font-family="Arial" font-size="10.00">idCompressor_RunLength</text>
</g>
<!-- Node2 -->
<g id="node2" class="node"><title>Node2</title>
<g id="a_node2"><a xlink:href="classid_compressor___bit_stream.html" target="_top" xlink:title="idCompressor_BitStream">
<polygon fill="white" stroke="black" points="1.5,-58.5 1.5,-77.5 126.5,-77.5 126.5,-58.5 1.5,-58.5"/>
<text text-anchor="middle" x="64" y="-65.5" font-family="Arial" font-size="10.00">idCompressor_BitStream</text>
</a>
</g>
</g>
<!-- Node2&#45;&gt;Node1 -->
<g id="edge1" class="edge"><title>Node2&#45;&gt;Node1</title>
<path fill="none" stroke="midnightblue" d="M64,-47.953C64,-38.2875 64,-27.0312 64,-19.5052"/>
<polygon fill="midnightblue" stroke="midnightblue" points="60.5001,-48.25 64,-58.25 67.5001,-48.25 60.5001,-48.25"/>
</g>
<!-- Node3 -->
<g id="node3" class="node"><title>Node3</title>
<g id="a_node3"><a xlink:href="classid_compressor___none.html" target="_top" xlink:title="idCompressor_None">
<polygon fill="white" stroke="black" points="12,-116.5 12,-135.5 116,-135.5 116,-116.5 12,-116.5"/>
<text text-anchor="middle" x="64" y="-123.5" font-family="Arial" font-size="10.00">idCompressor_None</text>
</a>
</g>
</g>
<!-- Node3&#45;&gt;Node2 -->
<g id="edge2" class="edge"><title>Node3&#45;&gt;Node2</title>
<path fill="none" stroke="midnightblue" d="M64,-105.953C64,-96.2875 64,-85.0312 64,-77.5052"/>
<polygon fill="midnightblue" stroke="midnightblue" points="60.5001,-106.25 64,-116.25 67.5001,-106.25 60.5001,-106.25"/>
</g>
<!-- Node4 -->
<g id="node4" class="node"><title>Node4</title>
<g id="a_node4"><a xlink:href="classid_compressor.html" target="_top" xlink:title="idCompressor">
<polygon fill="white" stroke="black" points="74.5,-174.5 74.5,-193.5 151.5,-193.5 151.5,-174.5 74.5,-174.5"/>
<text text-anchor="middle" x="113" y="-181.5" font-family="Arial" font-size="10.00">idCompressor</text>
</a>
</g>
</g>
<!-- Node4&#45;&gt;Node3 -->
<g id="edge3" class="edge"><title>Node4&#45;&gt;Node3</title>
<path fill="none" stroke="midnightblue" d="M98.5055,-166.435C89.6142,-156.273 78.5999,-143.686 71.442,-135.505"/>
<polygon fill="midnightblue" stroke="midnightblue" points="96.1246,-169.029 105.344,-174.25 101.393,-164.419 96.1246,-169.029"/>
</g>
<!-- Node5 -->
<g id="node5" class="node"><title>Node5</title>
<g id="a_node5"><a xlink:href="classid_file.html" target="_top" xlink:title="idFile">
<polygon fill="white" stroke="black" points="44,-232.5 44,-251.5 84,-251.5 84,-232.5 44,-232.5"/>
<text text-anchor="middle" x="64" y="-239.5" font-family="Arial" font-size="10.00">idFile</text>
</a>
</g>
</g>
<!-- Node5&#45;&gt;Node3 -->
<g id="edge5" class="edge"><title>Node5&#45;&gt;Node3</title>
<path fill="none" stroke="#9a32cd" stroke-dasharray="5,2" d="M56.6988,-222.917C52.1417,-209.494 47.5654,-190.701 50,-174 51.9896,-160.352 57.0674,-145.156 60.5282,-135.836"/>
<polygon fill="#9a32cd" stroke="#9a32cd" points="53.4533,-224.231 60.2152,-232.387 60.0156,-221.794 53.4533,-224.231"/>
<text text-anchor="middle" x="58" y="-181.5" font-family="Arial" font-size="10.00"> file</text>
</g>
<!-- Node5&#45;&gt;Node4 -->
<g id="edge4" class="edge"><title>Node5&#45;&gt;Node4</title>
<path fill="none" stroke="midnightblue" d="M78.4945,-224.435C87.3858,-214.273 98.4001,-201.686 105.558,-193.505"/>
<polygon fill="midnightblue" stroke="midnightblue" points="75.6073,-222.419 71.6563,-232.25 80.8754,-227.029 75.6073,-222.419"/>
</g>
</g>
</svg>
