<?xml version="1.0" encoding="UTF-8" standalone="no"?>
<!DOCTYPE svg PUBLIC "-//W3C//DTD SVG 1.1//EN"
 "http://www.w3.org/Graphics/SVG/1.1/DTD/svg11.dtd">
<!-- Generated by graphviz version 2.34.0 (20130907.0111)
 -->
<!-- Title: idSession Pages: 1 -->
<svg width="266pt" height="164pt"
 viewBox="0.00 0.00 266.00 164.00" xmlns="http://www.w3.org/2000/svg" xmlns:xlink="http://www.w3.org/1999/xlink">
<g id="graph0" class="graph" transform="scale(1 1) rotate(0) translate(4 160)">
<title>idSession</title>
<polygon fill="white" stroke="white" points="-4,4 -4,-160 262,-160 262,4 -4,4"/>
<!-- Node1 -->
<g id="node1" class="node"><title>Node1</title>
<polygon fill="#bfbfbf" stroke="black" points="107.5,-0.5 107.5,-19.5 166.5,-19.5 166.5,-0.5 107.5,-0.5"/>
<text text-anchor="middle" x="137" y="-7.5" font-family="Arial" font-size="10.00">idSession</text>
</g>
<!-- Node2 -->
<g id="node2" class="node"><title>Node2</title>
<g id="a_node2"><a xlink:href="classid_render_world.html" target="_top" xlink:title="idRenderWorld">
<polygon fill="white" stroke="black" points="0,-78.5 0,-97.5 80,-97.5 80,-78.5 0,-78.5"/>
<text text-anchor="middle" x="40" y="-85.5" font-family="Arial" font-size="10.00">idRenderWorld</text>
</a>
</g>
</g>
<!-- Node2&#45;&gt;Node1 -->
<g id="edge1" class="edge"><title>Node2&#45;&gt;Node1</title>
<path fill="none" stroke="#9a32cd" stroke-dasharray="5,2" d="M59.2208,-71.9404C79.2023,-56.2848 109.78,-32.3271 126.003,-19.6165"/>
<polygon fill="#9a32cd" stroke="#9a32cd" points="56.8402,-69.3593 51.1271,-78.2818 61.1574,-74.8694 56.8402,-69.3593"/>
<text text-anchor="middle" x="107.5" y="-46.5" font-family="Arial" font-size="10.00"> rw</text>
</g>
<!-- Node3 -->
<g id="node3" class="node"><title>Node3</title>
<g id="a_node3"><a xlink:href="classid_sound_world.html" target="_top" xlink:title="idSoundWorld">
<polygon fill="white" stroke="black" points="98.5,-78.5 98.5,-97.5 175.5,-97.5 175.5,-78.5 98.5,-78.5"/>
<text text-anchor="middle" x="137" y="-85.5" font-family="Arial" font-size="10.00">idSoundWorld</text>
</a>
</g>
</g>
<!-- Node3&#45;&gt;Node1 -->
<g id="edge2" class="edge"><title>Node3&#45;&gt;Node1</title>
<path fill="none" stroke="#9a32cd" stroke-dasharray="5,2" d="M137,-68.2239C137,-52.6974 137,-31.3582 137,-19.6165"/>
<polygon fill="#9a32cd" stroke="#9a32cd" points="133.5,-68.2818 137,-78.2818 140.5,-68.2819 133.5,-68.2818"/>
<text text-anchor="middle" x="145" y="-46.5" font-family="Arial" font-size="10.00"> sw</text>
</g>
<!-- Node4 -->
<g id="node4" class="node"><title>Node4</title>
<g id="a_node4"><a xlink:href="classid_demo_file.html" target="_top" xlink:title="idDemoFile">
<polygon fill="white" stroke="black" points="193.5,-78.5 193.5,-97.5 258.5,-97.5 258.5,-78.5 193.5,-78.5"/>
<text text-anchor="middle" x="226" y="-85.5" font-family="Arial" font-size="10.00">idDemoFile</text>
</a>
</g>
</g>
<!-- Node4&#45;&gt;Node1 -->
<g id="edge3" class="edge"><title>Node4&#45;&gt;Node1</title>
<path fill="none" stroke="#9a32cd" stroke-dasharray="5,2" d="M208.117,-71.7293C189.78,-56.0702 161.908,-32.2701 147.09,-19.6165"/>
<polygon fill="#9a32cd" stroke="#9a32cd" points="205.913,-74.4496 215.791,-78.2818 210.459,-69.1263 205.913,-74.4496"/>
<text text-anchor="middle" x="216" y="-52" font-family="Arial" font-size="10.00"> readDemo</text>
<text text-anchor="middle" x="216" y="-41" font-family="Arial" font-size="10.00">writeDemo</text>
</g>
<!-- Node5 -->
<g id="node5" class="node"><title>Node5</title>
<g id="a_node5"><a xlink:href="classid_file.html" target="_top" xlink:title="idFile">
<polygon fill="white" stroke="black" points="206,-136.5 206,-155.5 246,-155.5 246,-136.5 206,-136.5"/>
<text text-anchor="middle" x="226" y="-143.5" font-family="Arial" font-size="10.00">idFile</text>
</a>
</g>
</g>
<!-- Node5&#45;&gt;Node4 -->
<g id="edge4" class="edge"><title>Node5&#45;&gt;Node4</title>
<path fill="none" stroke="midnightblue" d="M226,-125.953C226,-116.287 226,-105.031 226,-97.5052"/>
<polygon fill="midnightblue" stroke="midnightblue" points="222.5,-126.25 226,-136.25 229.5,-126.25 222.5,-126.25"/>
</g>
</g>
</svg>
