<?xml version="1.0" encoding="UTF-8" standalone="no"?>
<!DOCTYPE svg PUBLIC "-//W3C//DTD SVG 1.1//EN"
 "http://www.w3.org/Graphics/SVG/1.1/DTD/svg11.dtd">
<!-- Generated by graphviz version 2.34.0 (20130907.0111)
 -->
<!-- Title: rvGEItemPropsGeneralPage Pages: 1 -->
<svg width="218pt" height="96pt"
 viewBox="0.00 0.00 218.00 96.00" xmlns="http://www.w3.org/2000/svg" xmlns:xlink="http://www.w3.org/1999/xlink">
<g id="graph0" class="graph" transform="scale(1 1) rotate(0) translate(4 92)">
<title>rvGEItemPropsGeneralPage</title>
<polygon fill="white" stroke="white" points="-4,4 -4,-92 214,-92 214,4 -4,4"/>
<!-- Node1 -->
<g id="node1" class="node"><title>Node1</title>
<polygon fill="#bfbfbf" stroke="black" points="64,-0.5 64,-19.5 202,-19.5 202,-0.5 64,-0.5"/>
<text text-anchor="middle" x="133" y="-7.5" font-family="Arial" font-size="10.00">rvGEItemPropsGeneralPage</text>
</g>
<!-- Node2 -->
<g id="node2" class="node"><title>Node2</title>
<g id="a_node2"><a xlink:href="classrv_g_e_property_page.html" target="_top" xlink:title="rvGEPropertyPage">
<polygon fill="white" stroke="black" points="-0.5,-68.5 -0.5,-87.5 96.5,-87.5 96.5,-68.5 -0.5,-68.5"/>
<text text-anchor="middle" x="48" y="-75.5" font-family="Arial" font-size="10.00">rvGEPropertyPage</text>
</a>
</g>
</g>
<!-- Node2&#45;&gt;Node1 -->
<g id="edge1" class="edge"><title>Node2&#45;&gt;Node1</title>
<path fill="none" stroke="midnightblue" d="M67.1944,-62.0961C84.0591,-49.0012 108.012,-30.4028 121.885,-19.6305"/>
<polygon fill="midnightblue" stroke="midnightblue" points="64.8643,-59.4742 59.1123,-68.3717 69.1574,-65.0031 64.8643,-59.4742"/>
</g>
<!-- Node3 -->
<g id="node3" class="node"><title>Node3</title>
<g id="a_node3"><a xlink:href="classid_str.html" target="_top" xlink:title="idStr">
<polygon fill="white" stroke="black" points="114.5,-68.5 114.5,-87.5 151.5,-87.5 151.5,-68.5 114.5,-68.5"/>
<text text-anchor="middle" x="133" y="-75.5" font-family="Arial" font-size="10.00">idStr</text>
</a>
</g>
</g>
<!-- Node3&#45;&gt;Node1 -->
<g id="edge2" class="edge"><title>Node3&#45;&gt;Node1</title>
<path fill="none" stroke="#9a32cd" stroke-dasharray="5,2" d="M133,-58.0413C133,-45.4724 133,-29.5631 133,-19.8411"/>
<polygon fill="#9a32cd" stroke="#9a32cd" points="129.5,-58.3716 133,-68.3717 136.5,-58.3717 129.5,-58.3716"/>
<text text-anchor="middle" x="149.5" y="-41.5" font-family="Arial" font-size="10.00"> mType</text>
</g>
<!-- Node4 -->
<g id="node4" class="node"><title>Node4</title>
<g id="a_node4"><a xlink:href="classid_dict.html" target="_top" xlink:title="idDict">
<polygon fill="white" stroke="black" points="169.5,-68.5 169.5,-87.5 210.5,-87.5 210.5,-68.5 169.5,-68.5"/>
<text text-anchor="middle" x="190" y="-75.5" font-family="Arial" font-size="10.00">idDict</text>
</a>
</g>
</g>
<!-- Node4&#45;&gt;Node1 -->
<g id="edge3" class="edge"><title>Node4&#45;&gt;Node1</title>
<path fill="none" stroke="#9a32cd" stroke-dasharray="5,2" d="M181.764,-58.969C178.107,-52.0094 173.402,-44.2386 168,-38 161.871,-30.9221 153.635,-24.4583 146.692,-19.6308"/>
<polygon fill="#9a32cd" stroke="#9a32cd" points="178.795,-60.8652 186.331,-68.3121 185.084,-57.7909 178.795,-60.8652"/>
<text text-anchor="middle" x="190.5" y="-41.5" font-family="Arial" font-size="10.00"> mDict</text>
</g>
</g>
</svg>
