<?xml version="1.0" encoding="UTF-8" standalone="no"?>
<!DOCTYPE svg PUBLIC "-//W3C//DTD SVG 1.1//EN"
 "http://www.w3.org/Graphics/SVG/1.1/DTD/svg11.dtd">
<!-- Generated by graphviz version 2.34.0 (20130907.0111)
 -->
<!-- Title: CConsoleDlg Pages: 1 -->
<svg width="274pt" height="106pt"
 viewBox="0.00 0.00 274.00 106.00" xmlns="http://www.w3.org/2000/svg" xmlns:xlink="http://www.w3.org/1999/xlink">
<g id="graph0" class="graph" transform="scale(1 1) rotate(0) translate(4 102)">
<title>CConsoleDlg</title>
<polygon fill="white" stroke="white" points="-4,4 -4,-102 270,-102 270,4 -4,4"/>
<!-- Node1 -->
<g id="node1" class="node"><title>Node1</title>
<polygon fill="#bfbfbf" stroke="black" points="70.5,-0.5 70.5,-19.5 143.5,-19.5 143.5,-0.5 70.5,-0.5"/>
<text text-anchor="middle" x="107" y="-7.5" font-family="Arial" font-size="10.00">CConsoleDlg</text>
</g>
<!-- Node2 -->
<g id="node2" class="node"><title>Node2</title>
<polygon fill="white" stroke="#bfbfbf" points="0,-78.5 0,-97.5 50,-97.5 50,-78.5 0,-78.5"/>
<text text-anchor="middle" x="25" y="-85.5" font-family="Arial" font-size="10.00">CDialog</text>
</g>
<!-- Node2&#45;&gt;Node1 -->
<g id="edge1" class="edge"><title>Node2&#45;&gt;Node1</title>
<path fill="none" stroke="midnightblue" d="M41.9351,-71.3041C58.8334,-55.6422 84.1736,-32.1562 97.7033,-19.6165"/>
<polygon fill="midnightblue" stroke="midnightblue" points="39.3616,-68.9171 34.4064,-78.2818 44.12,-74.0512 39.3616,-68.9171"/>
</g>
<!-- Node3 -->
<g id="node3" class="node"><title>Node3</title>
<g id="a_node3"><a xlink:href="classid_list.html" target="_top" xlink:title="idList\&lt; idStr \&gt;">
<polygon fill="white" stroke="black" points="68,-78.5 68,-97.5 146,-97.5 146,-78.5 68,-78.5"/>
<text text-anchor="middle" x="107" y="-85.5" font-family="Arial" font-size="10.00">idList&lt; idStr &gt;</text>
</a>
</g>
</g>
<!-- Node3&#45;&gt;Node1 -->
<g id="edge2" class="edge"><title>Node3&#45;&gt;Node1</title>
<path fill="none" stroke="#9a32cd" stroke-dasharray="5,2" d="M107,-68.2239C107,-52.6974 107,-31.3582 107,-19.6165"/>
<polygon fill="#9a32cd" stroke="#9a32cd" points="103.5,-68.2818 107,-78.2818 110.5,-68.2819 103.5,-68.2818"/>
<text text-anchor="middle" x="141" y="-46.5" font-family="Arial" font-size="10.00"> consoleHistory</text>
</g>
<!-- Node4 -->
<g id="node4" class="node"><title>Node4</title>
<g id="a_node4"><a xlink:href="classid_str.html" target="_top" xlink:title="idStr">
<polygon fill="white" stroke="black" points="179.5,-78.5 179.5,-97.5 216.5,-97.5 216.5,-78.5 179.5,-78.5"/>
<text text-anchor="middle" x="198" y="-85.5" font-family="Arial" font-size="10.00">idStr</text>
</a>
</g>
</g>
<!-- Node4&#45;&gt;Node1 -->
<g id="edge3" class="edge"><title>Node4&#45;&gt;Node1</title>
<path fill="none" stroke="#9a32cd" stroke-dasharray="5,2" d="M193.456,-68.5909C190.115,-58.4149 184.621,-46.2086 176,-38 167.057,-29.4845 155.118,-23.5587 143.687,-19.4779"/>
<polygon fill="#9a32cd" stroke="#9a32cd" points="190.091,-69.5518 196.2,-78.2076 196.822,-67.631 190.091,-69.5518"/>
<text text-anchor="middle" x="228.5" y="-52" font-family="Arial" font-size="10.00"> consoleStr</text>
<text text-anchor="middle" x="228.5" y="-41" font-family="Arial" font-size="10.00">currentCommand</text>
</g>
</g>
</svg>
