<?xml version="1.0" encoding="UTF-8" standalone="no"?>
<!DOCTYPE svg PUBLIC "-//W3C//DTD SVG 1.1//EN"
 "http://www.w3.org/Graphics/SVG/1.1/DTD/svg11.dtd">
<!-- Generated by graphviz version 2.34.0 (20130907.0111)
 -->
<!-- Title: idDecl Pages: 1 -->
<svg width="172pt" height="484pt"
 viewBox="0.00 0.00 172.00 484.00" xmlns="http://www.w3.org/2000/svg" xmlns:xlink="http://www.w3.org/1999/xlink">
<g id="graph0" class="graph" transform="scale(1 1) rotate(0) translate(4 480)">
<title>idDecl</title>
<polygon fill="white" stroke="white" points="-4,4 -4,-480 168,-480 168,4 -4,4"/>
<!-- Node1 -->
<g id="node1" class="node"><title>Node1</title>
<polygon fill="#bfbfbf" stroke="black" points="0,-247.5 0,-266.5 44,-266.5 44,-247.5 0,-247.5"/>
<text text-anchor="middle" x="22" y="-254.5" font-family="Arial" font-size="10.00">idDecl</text>
</g>
<!-- Node2 -->
<g id="node2" class="node"><title>Node2</title>
<g id="a_node2"><a xlink:href="classid_decl_a_f.html" target="_top" xlink:title="idDeclAF">
<polygon fill="white" stroke="black" points="94,-456.5 94,-475.5 150,-475.5 150,-456.5 94,-456.5"/>
<text text-anchor="middle" x="122" y="-463.5" font-family="Arial" font-size="10.00">idDeclAF</text>
</a>
</g>
</g>
<!-- Node1&#45;&gt;Node2 -->
<g id="edge1" class="edge"><title>Node1&#45;&gt;Node2</title>
<path fill="none" stroke="midnightblue" d="M23.7464,-276.713C26.1725,-314.262 36.4592,-396.767 80,-447 83.6997,-451.268 88.5614,-454.639 93.639,-457.278"/>
<polygon fill="midnightblue" stroke="midnightblue" points="27.2345,-276.393 23.2177,-266.589 20.2441,-276.758 27.2345,-276.393"/>
</g>
<!-- Node3 -->
<g id="node3" class="node"><title>Node3</title>
<g id="a_node3"><a xlink:href="classid_decl_audio.html" target="_top" xlink:title="idDeclAudio">
<polygon fill="white" stroke="black" points="88,-418.5 88,-437.5 156,-437.5 156,-418.5 88,-418.5"/>
<text text-anchor="middle" x="122" y="-425.5" font-family="Arial" font-size="10.00">idDeclAudio</text>
</a>
</g>
</g>
<!-- Node1&#45;&gt;Node3 -->
<g id="edge2" class="edge"><title>Node1&#45;&gt;Node3</title>
<path fill="none" stroke="midnightblue" d="M25.5919,-277.099C30.6627,-308.848 44.6664,-370.905 80,-409 83.5211,-412.796 87.9518,-415.898 92.589,-418.411"/>
<polygon fill="midnightblue" stroke="midnightblue" points="29.0077,-276.265 24.105,-266.873 22.0805,-277.273 29.0077,-276.265"/>
</g>
<!-- Node4 -->
<g id="node4" class="node"><title>Node4</title>
<g id="a_node4"><a xlink:href="classid_decl_email.html" target="_top" xlink:title="idDeclEmail">
<polygon fill="white" stroke="black" points="88,-380.5 88,-399.5 156,-399.5 156,-380.5 88,-380.5"/>
<text text-anchor="middle" x="122" y="-387.5" font-family="Arial" font-size="10.00">idDeclEmail</text>
</a>
</g>
</g>
<!-- Node1&#45;&gt;Node4 -->
<g id="edge3" class="edge"><title>Node1&#45;&gt;Node4</title>
<path fill="none" stroke="midnightblue" d="M28.2658,-276.248C35.928,-301.046 52.3388,-344.148 80,-371 83.8278,-374.716 88.5149,-377.798 93.3348,-380.321"/>
<polygon fill="midnightblue" stroke="midnightblue" points="31.5969,-275.169 25.4308,-266.554 24.8783,-277.134 31.5969,-275.169"/>
</g>
<!-- Node5 -->
<g id="node5" class="node"><title>Node5</title>
<g id="a_node5"><a xlink:href="classid_decl_entity_def.html" target="_top" xlink:title="idDeclEntityDef">
<polygon fill="white" stroke="black" points="80.5,-342.5 80.5,-361.5 163.5,-361.5 163.5,-342.5 80.5,-342.5"/>
<text text-anchor="middle" x="122" y="-349.5" font-family="Arial" font-size="10.00">idDeclEntityDef</text>
</a>
</g>
</g>
<!-- Node1&#45;&gt;Node5 -->
<g id="edge4" class="edge"><title>Node1&#45;&gt;Node5</title>
<path fill="none" stroke="midnightblue" d="M33.2441,-275.486C43.3228,-292.292 60.0699,-316.863 80,-333 84.5119,-336.653 89.8412,-339.782 95.1383,-342.384"/>
<polygon fill="midnightblue" stroke="midnightblue" points="36.1454,-273.511 28.1069,-266.61 30.087,-277.018 36.1454,-273.511"/>
</g>
<!-- Node6 -->
<g id="node6" class="node"><title>Node6</title>
<g id="a_node6"><a xlink:href="classid_decl_f_x.html" target="_top" xlink:title="idDeclFX">
<polygon fill="white" stroke="black" points="94.5,-304.5 94.5,-323.5 149.5,-323.5 149.5,-304.5 94.5,-304.5"/>
<text text-anchor="middle" x="122" y="-311.5" font-family="Arial" font-size="10.00">idDeclFX</text>
</a>
</g>
</g>
<!-- Node1&#45;&gt;Node6 -->
<g id="edge5" class="edge"><title>Node1&#45;&gt;Node6</title>
<path fill="none" stroke="midnightblue" d="M44.6947,-272.608C55.131,-279.816 67.9644,-288.252 80,-295 85.8851,-298.299 92.4431,-301.526 98.5579,-304.357"/>
<polygon fill="midnightblue" stroke="midnightblue" points="46.4173,-269.541 36.2209,-266.663 42.3968,-275.271 46.4173,-269.541"/>
</g>
<!-- Node7 -->
<g id="node7" class="node"><title>Node7</title>
<g id="a_node7"><a xlink:href="classid_decl_model_def.html" target="_top" xlink:title="idDeclModelDef">
<polygon fill="white" stroke="black" points="80,-266.5 80,-285.5 164,-285.5 164,-266.5 80,-266.5"/>
<text text-anchor="middle" x="122" y="-273.5" font-family="Arial" font-size="10.00">idDeclModelDef</text>
</a>
</g>
</g>
<!-- Node1&#45;&gt;Node7 -->
<g id="edge6" class="edge"><title>Node1&#45;&gt;Node7</title>
<path fill="none" stroke="midnightblue" d="M54.2958,-256.725C69.5191,-258.945 87.3764,-262.66 100.782,-266.495"/>
<polygon fill="midnightblue" stroke="midnightblue" points="54.6274,-253.239 44.2645,-255.444 53.7405,-260.183 54.6274,-253.239"/>
</g>
<!-- Node1&#45;&gt;Node7 -->
<g id="edge7" class="edge"><title>Node1&#45;&gt;Node7</title>
<path fill="none" stroke="midnightblue" d="M53.0486,-269.105C61.4623,-271.175 70.7572,-273.109 79.701,-274.668"/>
<polygon fill="midnightblue" stroke="midnightblue" points="53.8681,-265.702 43.3057,-266.53 52.0789,-272.469 53.8681,-265.702"/>
</g>
<!-- Node8 -->
<g id="node8" class="node"><title>Node8</title>
<g id="a_node8"><a xlink:href="classid_decl_particle.html" target="_top" xlink:title="idDeclParticle">
<polygon fill="white" stroke="black" points="83.5,-228.5 83.5,-247.5 160.5,-247.5 160.5,-228.5 83.5,-228.5"/>
<text text-anchor="middle" x="122" y="-235.5" font-family="Arial" font-size="10.00">idDeclParticle</text>
</a>
</g>
</g>
<!-- Node1&#45;&gt;Node8 -->
<g id="edge8" class="edge"><title>Node1&#45;&gt;Node8</title>
<path fill="none" stroke="midnightblue" d="M54.175,-250.956C63.3943,-249.168 73.5882,-247.192 83.1786,-245.333"/>
<polygon fill="midnightblue" stroke="midnightblue" points="53.4155,-247.538 44.2645,-252.877 54.7479,-254.41 53.4155,-247.538"/>
</g>
<!-- Node9 -->
<g id="node9" class="node"><title>Node9</title>
<g id="a_node9"><a xlink:href="classid_decl_p_d_a.html" target="_top" xlink:title="idDeclPDA">
<polygon fill="white" stroke="black" points="90,-190.5 90,-209.5 154,-209.5 154,-190.5 90,-190.5"/>
<text text-anchor="middle" x="122" y="-197.5" font-family="Arial" font-size="10.00">idDeclPDA</text>
</a>
</g>
</g>
<!-- Node1&#45;&gt;Node9 -->
<g id="edge9" class="edge"><title>Node1&#45;&gt;Node9</title>
<path fill="none" stroke="midnightblue" d="M44.6947,-241.392C55.131,-234.184 67.9644,-225.748 80,-219 85.8851,-215.701 92.4431,-212.474 98.5579,-209.643"/>
<polygon fill="midnightblue" stroke="midnightblue" points="42.3968,-238.729 36.2209,-247.337 46.4173,-244.459 42.3968,-238.729"/>
</g>
<!-- Node10 -->
<g id="node10" class="node"><title>Node10</title>
<g id="a_node10"><a xlink:href="classid_decl_skin.html" target="_top" xlink:title="idDeclSkin">
<polygon fill="white" stroke="black" points="90.5,-152.5 90.5,-171.5 153.5,-171.5 153.5,-152.5 90.5,-152.5"/>
<text text-anchor="middle" x="122" y="-159.5" font-family="Arial" font-size="10.00">idDeclSkin</text>
</a>
</g>
</g>
<!-- Node1&#45;&gt;Node10 -->
<g id="edge10" class="edge"><title>Node1&#45;&gt;Node10</title>
<path fill="none" stroke="midnightblue" d="M33.2441,-238.514C43.3228,-221.708 60.0699,-197.137 80,-181 84.5119,-177.347 89.8412,-174.218 95.1383,-171.616"/>
<polygon fill="midnightblue" stroke="midnightblue" points="30.087,-236.982 28.1069,-247.39 36.1454,-240.489 30.087,-236.982"/>
</g>
<!-- Node11 -->
<g id="node11" class="node"><title>Node11</title>
<g id="a_node11"><a xlink:href="classid_decl_table.html" target="_top" xlink:title="idDeclTable">
<polygon fill="white" stroke="black" points="88.5,-114.5 88.5,-133.5 155.5,-133.5 155.5,-114.5 88.5,-114.5"/>
<text text-anchor="middle" x="122" y="-121.5" font-family="Arial" font-size="10.00">idDeclTable</text>
</a>
</g>
</g>
<!-- Node1&#45;&gt;Node11 -->
<g id="edge11" class="edge"><title>Node1&#45;&gt;Node11</title>
<path fill="none" stroke="midnightblue" d="M28.2658,-237.752C35.928,-212.954 52.3388,-169.852 80,-143 83.8278,-139.284 88.5149,-136.202 93.3348,-133.679"/>
<polygon fill="midnightblue" stroke="midnightblue" points="24.8783,-236.866 25.4308,-247.446 31.5969,-238.831 24.8783,-236.866"/>
</g>
<!-- Node12 -->
<g id="node12" class="node"><title>Node12</title>
<g id="a_node12"><a xlink:href="classid_decl_video.html" target="_top" xlink:title="idDeclVideo">
<polygon fill="white" stroke="black" points="88,-76.5 88,-95.5 156,-95.5 156,-76.5 88,-76.5"/>
<text text-anchor="middle" x="122" y="-83.5" font-family="Arial" font-size="10.00">idDeclVideo</text>
</a>
</g>
</g>
<!-- Node1&#45;&gt;Node12 -->
<g id="edge12" class="edge"><title>Node1&#45;&gt;Node12</title>
<path fill="none" stroke="midnightblue" d="M25.5919,-236.901C30.6627,-205.152 44.6664,-143.095 80,-105 83.5211,-101.204 87.9518,-98.102 92.589,-95.589"/>
<polygon fill="midnightblue" stroke="midnightblue" points="22.0805,-236.727 24.105,-247.127 29.0077,-237.735 22.0805,-236.727"/>
</g>
<!-- Node13 -->
<g id="node13" class="node"><title>Node13</title>
<g id="a_node13"><a xlink:href="classid_material.html" target="_top" xlink:title="idMaterial">
<polygon fill="white" stroke="black" points="92.5,-38.5 92.5,-57.5 151.5,-57.5 151.5,-38.5 92.5,-38.5"/>
<text text-anchor="middle" x="122" y="-45.5" font-family="Arial" font-size="10.00">idMaterial</text>
</a>
</g>
</g>
<!-- Node1&#45;&gt;Node13 -->
<g id="edge13" class="edge"><title>Node1&#45;&gt;Node13</title>
<path fill="none" stroke="midnightblue" d="M23.7464,-237.287C26.1725,-199.738 36.4592,-117.233 80,-67 83.3914,-63.0874 87.7592,-59.9293 92.3746,-57.3968"/>
<polygon fill="midnightblue" stroke="midnightblue" points="20.2441,-237.242 23.2177,-247.411 27.2345,-237.607 20.2441,-237.242"/>
</g>
<!-- Node14 -->
<g id="node14" class="node"><title>Node14</title>
<g id="a_node14"><a xlink:href="classid_sound_shader.html" target="_top" xlink:title="idSoundShader">
<polygon fill="white" stroke="black" points="80.5,-0.5 80.5,-19.5 163.5,-19.5 163.5,-0.5 80.5,-0.5"/>
<text text-anchor="middle" x="122" y="-7.5" font-family="Arial" font-size="10.00">idSoundShader</text>
</a>
</g>
</g>
<!-- Node1&#45;&gt;Node14 -->
<g id="edge14" class="edge"><title>Node1&#45;&gt;Node14</title>
<path fill="none" stroke="midnightblue" d="M22.5238,-237.285C22.5292,-194.405 28.3177,-91.5037 80,-29 83.1995,-25.1305 87.3618,-22.0083 91.8055,-19.5015"/>
<polygon fill="midnightblue" stroke="midnightblue" points="19.0262,-237.528 22.6373,-247.488 26.0258,-237.45 19.0262,-237.528"/>
</g>
</g>
</svg>
