<?xml version="1.0" encoding="UTF-8" standalone="no"?>
<!DOCTYPE svg PUBLIC "-//W3C//DTD SVG 1.1//EN"
 "http://www.w3.org/Graphics/SVG/1.1/DTD/svg11.dtd">
<!-- Generated by graphviz version 2.34.0 (20130907.0111)
 -->
<!-- Title: MaterialPreviewView Pages: 1 -->
<svg width="142pt" height="84pt"
 viewBox="0.00 0.00 142.00 84.00" xmlns="http://www.w3.org/2000/svg" xmlns:xlink="http://www.w3.org/1999/xlink">
<g id="graph0" class="graph" transform="scale(1 1) rotate(0) translate(4 80)">
<title>MaterialPreviewView</title>
<polygon fill="white" stroke="white" points="-4,4 -4,-80 138,-80 138,4 -4,4"/>
<!-- Node1 -->
<g id="node1" class="node"><title>Node1</title>
<polygon fill="#bfbfbf" stroke="black" points="7.5,-0.5 7.5,-19.5 112.5,-19.5 112.5,-0.5 7.5,-0.5"/>
<text text-anchor="middle" x="60" y="-7.5" font-family="Arial" font-size="10.00">MaterialPreviewView</text>
</g>
<!-- Node2 -->
<g id="node2" class="node"><title>Node2</title>
<polygon fill="white" stroke="#bfbfbf" points="0,-56.5 0,-75.5 44,-75.5 44,-56.5 0,-56.5"/>
<text text-anchor="middle" x="22" y="-63.5" font-family="Arial" font-size="10.00">CView</text>
</g>
<!-- Node2&#45;&gt;Node1 -->
<g id="edge1" class="edge"><title>Node2&#45;&gt;Node1</title>
<path fill="none" stroke="midnightblue" d="M34.0647,-47.8554C40.6447,-38.5048 48.511,-27.3265 53.8418,-19.7511"/>
<polygon fill="midnightblue" stroke="midnightblue" points="31.1676,-45.8907 28.2749,-56.083 36.8922,-49.9192 31.1676,-45.8907"/>
</g>
<!-- Node3 -->
<g id="node3" class="node"><title>Node3</title>
<g id="a_node3"><a xlink:href="class_material_view.html" target="_top" xlink:title="MaterialView">
<polygon fill="white" stroke="black" points="62,-56.5 62,-75.5 134,-75.5 134,-56.5 62,-56.5"/>
<text text-anchor="middle" x="98" y="-63.5" font-family="Arial" font-size="10.00">MaterialView</text>
</a>
</g>
</g>
<!-- Node3&#45;&gt;Node1 -->
<g id="edge2" class="edge"><title>Node3&#45;&gt;Node1</title>
<path fill="none" stroke="midnightblue" d="M85.9353,-47.8554C79.3553,-38.5048 71.489,-27.3265 66.1582,-19.7511"/>
<polygon fill="midnightblue" stroke="midnightblue" points="83.1078,-49.9192 91.7251,-56.083 88.8324,-45.8907 83.1078,-49.9192"/>
</g>
</g>
</svg>
