<?xml version="1.0" encoding="UTF-8" standalone="no"?>
<!DOCTYPE svg PUBLIC "-//W3C//DTD SVG 1.1//EN"
 "http://www.w3.org/Graphics/SVG/1.1/DTD/svg11.dtd">
<!-- Generated by graphviz version 2.34.0 (20130907.0111)
 -->
<!-- Title: idCompressor_LZSS Pages: 1 -->
<svg width="157pt" height="260pt"
 viewBox="0.00 0.00 157.00 260.00" xmlns="http://www.w3.org/2000/svg" xmlns:xlink="http://www.w3.org/1999/xlink">
<g id="graph0" class="graph" transform="scale(1 1) rotate(0) translate(4 256)">
<title>idCompressor_LZSS</title>
<polygon fill="white" stroke="white" points="-4,4 -4,-256 153,-256 153,4 -4,4"/>
<!-- Node1 -->
<g id="node1" class="node"><title>Node1</title>
<polygon fill="#bfbfbf" stroke="black" points="9,-0.5 9,-19.5 115,-19.5 115,-0.5 9,-0.5"/>
<text text-anchor="middle" x="62" y="-7.5" font-family="Arial" font-size="10.00">idCompressor_LZSS</text>
</g>
<!-- Node2 -->
<g id="node2" class="node"><title>Node2</title>
<g id="a_node2"><a xlink:href="classid_compressor___bit_stream.html" target="_top" xlink:title="idCompressor_BitStream">
<polygon fill="white" stroke="black" points="-0.5,-58.5 -0.5,-77.5 124.5,-77.5 124.5,-58.5 -0.5,-58.5"/>
<text text-anchor="middle" x="62" y="-65.5" font-family="Arial" font-size="10.00">idCompressor_BitStream</text>
</a>
</g>
</g>
<!-- Node2&#45;&gt;Node1 -->
<g id="edge1" class="edge"><title>Node2&#45;&gt;Node1</title>
<path fill="none" stroke="midnightblue" d="M62,-47.953C62,-38.2875 62,-27.0312 62,-19.5052"/>
<polygon fill="midnightblue" stroke="midnightblue" points="58.5001,-48.25 62,-58.25 65.5001,-48.25 58.5001,-48.25"/>
</g>
<!-- Node3 -->
<g id="node3" class="node"><title>Node3</title>
<g id="a_node3"><a xlink:href="classid_compressor___none.html" target="_top" xlink:title="idCompressor_None">
<polygon fill="white" stroke="black" points="10,-116.5 10,-135.5 114,-135.5 114,-116.5 10,-116.5"/>
<text text-anchor="middle" x="62" y="-123.5" font-family="Arial" font-size="10.00">idCompressor_None</text>
</a>
</g>
</g>
<!-- Node3&#45;&gt;Node2 -->
<g id="edge2" class="edge"><title>Node3&#45;&gt;Node2</title>
<path fill="none" stroke="midnightblue" d="M62,-105.953C62,-96.2875 62,-85.0312 62,-77.5052"/>
<polygon fill="midnightblue" stroke="midnightblue" points="58.5001,-106.25 62,-116.25 65.5001,-106.25 58.5001,-106.25"/>
</g>
<!-- Node4 -->
<g id="node4" class="node"><title>Node4</title>
<g id="a_node4"><a xlink:href="classid_compressor.html" target="_top" xlink:title="idCompressor">
<polygon fill="white" stroke="black" points="72.5,-174.5 72.5,-193.5 149.5,-193.5 149.5,-174.5 72.5,-174.5"/>
<text text-anchor="middle" x="111" y="-181.5" font-family="Arial" font-size="10.00">idCompressor</text>
</a>
</g>
</g>
<!-- Node4&#45;&gt;Node3 -->
<g id="edge3" class="edge"><title>Node4&#45;&gt;Node3</title>
<path fill="none" stroke="midnightblue" d="M96.5055,-166.435C87.6142,-156.273 76.5999,-143.686 69.442,-135.505"/>
<polygon fill="midnightblue" stroke="midnightblue" points="94.1246,-169.029 103.344,-174.25 99.3927,-164.419 94.1246,-169.029"/>
</g>
<!-- Node5 -->
<g id="node5" class="node"><title>Node5</title>
<g id="a_node5"><a xlink:href="classid_file.html" target="_top" xlink:title="idFile">
<polygon fill="white" stroke="black" points="42,-232.5 42,-251.5 82,-251.5 82,-232.5 42,-232.5"/>
<text text-anchor="middle" x="62" y="-239.5" font-family="Arial" font-size="10.00">idFile</text>
</a>
</g>
</g>
<!-- Node5&#45;&gt;Node3 -->
<g id="edge5" class="edge"><title>Node5&#45;&gt;Node3</title>
<path fill="none" stroke="#9a32cd" stroke-dasharray="5,2" d="M54.6988,-222.917C50.1417,-209.494 45.5654,-190.701 48,-174 49.9896,-160.352 55.0674,-145.156 58.5282,-135.836"/>
<polygon fill="#9a32cd" stroke="#9a32cd" points="51.4533,-224.231 58.2152,-232.387 58.0156,-221.794 51.4533,-224.231"/>
<text text-anchor="middle" x="56" y="-181.5" font-family="Arial" font-size="10.00"> file</text>
</g>
<!-- Node5&#45;&gt;Node4 -->
<g id="edge4" class="edge"><title>Node5&#45;&gt;Node4</title>
<path fill="none" stroke="midnightblue" d="M76.4945,-224.435C85.3858,-214.273 96.4001,-201.686 103.558,-193.505"/>
<polygon fill="midnightblue" stroke="midnightblue" points="73.6073,-222.419 69.6563,-232.25 78.8754,-227.029 73.6073,-222.419"/>
</g>
</g>
</svg>
