<?xml version="1.0" encoding="UTF-8" standalone="no"?>
<!DOCTYPE svg PUBLIC "-//W3C//DTD SVG 1.1//EN"
 "http://www.w3.org/Graphics/SVG/1.1/DTD/svg11.dtd">
<!-- Generated by graphviz version 2.34.0 (20130907.0111)
 -->
<!-- Title: idBeam Pages: 1 -->
<svg width="58pt" height="140pt"
 viewBox="0.00 0.00 58.00 140.00" xmlns="http://www.w3.org/2000/svg" xmlns:xlink="http://www.w3.org/1999/xlink">
<g id="graph0" class="graph" transform="scale(1 1) rotate(0) translate(4 136)">
<title>idBeam</title>
<polygon fill="white" stroke="white" points="-4,4 -4,-136 54,-136 54,4 -4,4"/>
<!-- Node1 -->
<g id="node1" class="node"><title>Node1</title>
<polygon fill="#bfbfbf" stroke="black" points="0,-0.5 0,-19.5 50,-19.5 50,-0.5 0,-0.5"/>
<text text-anchor="middle" x="25" y="-7.5" font-family="Arial" font-size="10.00">idBeam</text>
</g>
<!-- Node2 -->
<g id="node2" class="node"><title>Node2</title>
<g id="a_node2"><a xlink:href="classid_entity.html" target="_top" xlink:title="idEntity">
<polygon fill="white" stroke="black" points="0,-56.5 0,-75.5 50,-75.5 50,-56.5 0,-56.5"/>
<text text-anchor="middle" x="25" y="-63.5" font-family="Arial" font-size="10.00">idEntity</text>
</a>
</g>
</g>
<!-- Node2&#45;&gt;Node1 -->
<g id="edge1" class="edge"><title>Node2&#45;&gt;Node1</title>
<path fill="none" stroke="midnightblue" d="M18.5276,-46.1005C17.8956,-37.1357 18.3427,-26.8579 19.869,-19.7511"/>
<polygon fill="midnightblue" stroke="midnightblue" points="15.0658,-46.6216 19.8337,-56.083 22.0067,-45.7134 15.0658,-46.6216"/>
</g>
<!-- Node2&#45;&gt;Node1 -->
<g id="edge4" class="edge"><title>Node2&#45;&gt;Node1</title>
<path fill="none" stroke="midnightblue" d="M31.4724,-46.1005C32.1044,-37.1357 31.6573,-26.8579 30.131,-19.7511"/>
<polygon fill="midnightblue" stroke="midnightblue" points="27.9933,-45.7134 30.1663,-56.083 34.9342,-46.6216 27.9933,-45.7134"/>
</g>
<!-- Node3 -->
<g id="node3" class="node"><title>Node3</title>
<g id="a_node3"><a xlink:href="classid_class.html" target="_top" xlink:title="idClass">
<polygon fill="white" stroke="black" points="0.5,-112.5 0.5,-131.5 49.5,-131.5 49.5,-112.5 0.5,-112.5"/>
<text text-anchor="middle" x="25" y="-119.5" font-family="Arial" font-size="10.00">idClass</text>
</a>
</g>
</g>
<!-- Node3&#45;&gt;Node2 -->
<g id="edge2" class="edge"><title>Node3&#45;&gt;Node2</title>
<path fill="none" stroke="midnightblue" d="M18.5276,-102.101C17.8956,-93.1357 18.3427,-82.8579 19.869,-75.7511"/>
<polygon fill="midnightblue" stroke="midnightblue" points="15.0658,-102.622 19.8337,-112.083 22.0067,-101.713 15.0658,-102.622"/>
</g>
<!-- Node3&#45;&gt;Node2 -->
<g id="edge3" class="edge"><title>Node3&#45;&gt;Node2</title>
<path fill="none" stroke="midnightblue" d="M31.4724,-102.101C32.1044,-93.1357 31.6573,-82.8579 30.131,-75.7511"/>
<polygon fill="midnightblue" stroke="midnightblue" points="27.9933,-101.713 30.1663,-112.083 34.9342,-102.622 27.9933,-101.713"/>
</g>
</g>
</svg>
