<?xml version="1.0" encoding="UTF-8" standalone="no"?>
<!DOCTYPE svg PUBLIC "-//W3C//DTD SVG 1.1//EN"
 "http://www.w3.org/Graphics/SVG/1.1/DTD/svg11.dtd">
<!-- Generated by graphviz version 2.34.0 (20130907.0111)
 -->
<!-- Title: idForce_Drag Pages: 1 -->
<svg width="82pt" height="140pt"
 viewBox="0.00 0.00 82.00 140.00" xmlns="http://www.w3.org/2000/svg" xmlns:xlink="http://www.w3.org/1999/xlink">
<g id="graph0" class="graph" transform="scale(1 1) rotate(0) translate(4 136)">
<title>idForce_Drag</title>
<polygon fill="white" stroke="white" points="-4,4 -4,-136 78,-136 78,4 -4,4"/>
<!-- Node1 -->
<g id="node1" class="node"><title>Node1</title>
<polygon fill="#bfbfbf" stroke="black" points="0,-0.5 0,-19.5 74,-19.5 74,-0.5 0,-0.5"/>
<text text-anchor="middle" x="37" y="-7.5" font-family="Arial" font-size="10.00">idForce_Drag</text>
</g>
<!-- Node2 -->
<g id="node2" class="node"><title>Node2</title>
<g id="a_node2"><a xlink:href="classid_force.html" target="_top" xlink:title="idForce">
<polygon fill="white" stroke="black" points="12.5,-56.5 12.5,-75.5 61.5,-75.5 61.5,-56.5 12.5,-56.5"/>
<text text-anchor="middle" x="37" y="-63.5" font-family="Arial" font-size="10.00">idForce</text>
</a>
</g>
</g>
<!-- Node2&#45;&gt;Node1 -->
<g id="edge1" class="edge"><title>Node2&#45;&gt;Node1</title>
<path fill="none" stroke="midnightblue" d="M30.5276,-46.1005C29.8956,-37.1357 30.3427,-26.8579 31.869,-19.7511"/>
<polygon fill="midnightblue" stroke="midnightblue" points="27.0658,-46.6216 31.8337,-56.083 34.0067,-45.7134 27.0658,-46.6216"/>
</g>
<!-- Node2&#45;&gt;Node1 -->
<g id="edge4" class="edge"><title>Node2&#45;&gt;Node1</title>
<path fill="none" stroke="midnightblue" d="M43.4724,-46.1005C44.1044,-37.1357 43.6573,-26.8579 42.131,-19.7511"/>
<polygon fill="midnightblue" stroke="midnightblue" points="39.9933,-45.7134 42.1663,-56.083 46.9342,-46.6216 39.9933,-45.7134"/>
</g>
<!-- Node3 -->
<g id="node3" class="node"><title>Node3</title>
<g id="a_node3"><a xlink:href="classid_class.html" target="_top" xlink:title="idClass">
<polygon fill="white" stroke="black" points="12.5,-112.5 12.5,-131.5 61.5,-131.5 61.5,-112.5 12.5,-112.5"/>
<text text-anchor="middle" x="37" y="-119.5" font-family="Arial" font-size="10.00">idClass</text>
</a>
</g>
</g>
<!-- Node3&#45;&gt;Node2 -->
<g id="edge2" class="edge"><title>Node3&#45;&gt;Node2</title>
<path fill="none" stroke="midnightblue" d="M30.5276,-102.101C29.8956,-93.1357 30.3427,-82.8579 31.869,-75.7511"/>
<polygon fill="midnightblue" stroke="midnightblue" points="27.0658,-102.622 31.8337,-112.083 34.0067,-101.713 27.0658,-102.622"/>
</g>
<!-- Node3&#45;&gt;Node2 -->
<g id="edge3" class="edge"><title>Node3&#45;&gt;Node2</title>
<path fill="none" stroke="midnightblue" d="M43.4724,-102.101C44.1044,-93.1357 43.6573,-82.8579 42.131,-75.7511"/>
<polygon fill="midnightblue" stroke="midnightblue" points="39.9933,-101.713 42.1663,-112.083 46.9342,-102.622 39.9933,-101.713"/>
</g>
</g>
</svg>
