<?xml version="1.0" encoding="UTF-8" standalone="no"?>
<!DOCTYPE svg PUBLIC "-//W3C//DTD SVG 1.1//EN"
 "http://www.w3.org/Graphics/SVG/1.1/DTD/svg11.dtd">
<!-- Generated by graphviz version 2.34.0 (20130907.0111)
 -->
<!-- Title: idCamera Pages: 1 -->
<svg width="185pt" height="196pt"
 viewBox="0.00 0.00 185.00 196.00" xmlns="http://www.w3.org/2000/svg" xmlns:xlink="http://www.w3.org/1999/xlink">
<g id="graph0" class="graph" transform="scale(1 1) rotate(0) translate(4 192)">
<title>idCamera</title>
<polygon fill="white" stroke="white" points="-4,4 -4,-192 181,-192 181,4 -4,4"/>
<!-- Node1 -->
<g id="node1" class="node"><title>Node1</title>
<polygon fill="#bfbfbf" stroke="black" points="60,-56.5 60,-75.5 118,-75.5 118,-56.5 60,-56.5"/>
<text text-anchor="middle" x="89" y="-63.5" font-family="Arial" font-size="10.00">idCamera</text>
</g>
<!-- Node4 -->
<g id="node4" class="node"><title>Node4</title>
<g id="a_node4"><a xlink:href="classid_camera_anim.html" target="_top" xlink:title="idCameraAnim">
<polygon fill="white" stroke="black" points="0,-0.5 0,-19.5 80,-19.5 80,-0.5 0,-0.5"/>
<text text-anchor="middle" x="40" y="-7.5" font-family="Arial" font-size="10.00">idCameraAnim</text>
</a>
</g>
</g>
<!-- Node1&#45;&gt;Node4 -->
<g id="edge5" class="edge"><title>Node1&#45;&gt;Node4</title>
<path fill="none" stroke="midnightblue" d="M68.512,-49.2533C58.8257,-39.6731 48.3936,-27.7906 42.8672,-19.8339"/>
<polygon fill="midnightblue" stroke="midnightblue" points="66.3351,-52.0112 76.0125,-56.324 71.1368,-46.9176 66.3351,-52.0112"/>
</g>
<!-- Node1&#45;&gt;Node4 -->
<g id="edge6" class="edge"><title>Node1&#45;&gt;Node4</title>
<path fill="none" stroke="midnightblue" d="M79.7762,-47.8554C72.1168,-38.5048 61.5727,-27.3265 53.0718,-19.7511"/>
<polygon fill="midnightblue" stroke="midnightblue" points="77.217,-50.2703 86.075,-56.083 82.7752,-46.0151 77.217,-50.2703"/>
</g>
<!-- Node5 -->
<g id="node5" class="node"><title>Node5</title>
<g id="a_node5"><a xlink:href="classid_camera_view.html" target="_top" xlink:title="idCameraView">
<polygon fill="white" stroke="black" points="98.5,-0.5 98.5,-19.5 177.5,-19.5 177.5,-0.5 98.5,-0.5"/>
<text text-anchor="middle" x="138" y="-7.5" font-family="Arial" font-size="10.00">idCameraView</text>
</a>
</g>
</g>
<!-- Node1&#45;&gt;Node5 -->
<g id="edge7" class="edge"><title>Node1&#45;&gt;Node5</title>
<path fill="none" stroke="midnightblue" d="M98.2238,-47.8554C105.883,-38.5048 116.427,-27.3265 124.928,-19.7511"/>
<polygon fill="midnightblue" stroke="midnightblue" points="95.2248,-46.0151 91.925,-56.083 100.783,-50.2703 95.2248,-46.0151"/>
</g>
<!-- Node1&#45;&gt;Node5 -->
<g id="edge8" class="edge"><title>Node1&#45;&gt;Node5</title>
<path fill="none" stroke="midnightblue" d="M109.488,-49.2533C119.174,-39.6731 129.606,-27.7906 135.133,-19.8339"/>
<polygon fill="midnightblue" stroke="midnightblue" points="106.863,-46.9176 101.988,-56.324 111.665,-52.0112 106.863,-46.9176"/>
</g>
<!-- Node2 -->
<g id="node2" class="node"><title>Node2</title>
<g id="a_node2"><a xlink:href="classid_entity.html" target="_top" xlink:title="idEntity">
<polygon fill="white" stroke="black" points="64,-112.5 64,-131.5 114,-131.5 114,-112.5 64,-112.5"/>
<text text-anchor="middle" x="89" y="-119.5" font-family="Arial" font-size="10.00">idEntity</text>
</a>
</g>
</g>
<!-- Node2&#45;&gt;Node1 -->
<g id="edge1" class="edge"><title>Node2&#45;&gt;Node1</title>
<path fill="none" stroke="midnightblue" d="M82.5276,-102.101C81.8956,-93.1357 82.3427,-82.8579 83.869,-75.7511"/>
<polygon fill="midnightblue" stroke="midnightblue" points="79.0658,-102.622 83.8337,-112.083 86.0067,-101.713 79.0658,-102.622"/>
</g>
<!-- Node2&#45;&gt;Node1 -->
<g id="edge4" class="edge"><title>Node2&#45;&gt;Node1</title>
<path fill="none" stroke="midnightblue" d="M95.4724,-102.101C96.1044,-93.1357 95.6573,-82.8579 94.131,-75.7511"/>
<polygon fill="midnightblue" stroke="midnightblue" points="91.9933,-101.713 94.1663,-112.083 98.9342,-102.622 91.9933,-101.713"/>
</g>
<!-- Node3 -->
<g id="node3" class="node"><title>Node3</title>
<g id="a_node3"><a xlink:href="classid_class.html" target="_top" xlink:title="idClass">
<polygon fill="white" stroke="black" points="64.5,-168.5 64.5,-187.5 113.5,-187.5 113.5,-168.5 64.5,-168.5"/>
<text text-anchor="middle" x="89" y="-175.5" font-family="Arial" font-size="10.00">idClass</text>
</a>
</g>
</g>
<!-- Node3&#45;&gt;Node2 -->
<g id="edge2" class="edge"><title>Node3&#45;&gt;Node2</title>
<path fill="none" stroke="midnightblue" d="M82.5276,-158.101C81.8956,-149.136 82.3427,-138.858 83.869,-131.751"/>
<polygon fill="midnightblue" stroke="midnightblue" points="79.0658,-158.622 83.8337,-168.083 86.0067,-157.713 79.0658,-158.622"/>
</g>
<!-- Node3&#45;&gt;Node2 -->
<g id="edge3" class="edge"><title>Node3&#45;&gt;Node2</title>
<path fill="none" stroke="midnightblue" d="M95.4724,-158.101C96.1044,-149.136 95.6573,-138.858 94.131,-131.751"/>
<polygon fill="midnightblue" stroke="midnightblue" points="91.9933,-157.713 94.1663,-168.083 98.9342,-158.622 91.9933,-157.713"/>
</g>
</g>
</svg>
