<?xml version="1.0" encoding="UTF-8" standalone="no"?>
<!DOCTYPE svg PUBLIC "-//W3C//DTD SVG 1.1//EN"
 "http://www.w3.org/Graphics/SVG/1.1/DTD/svg11.dtd">
<!-- Generated by graphviz version 2.34.0 (20130907.0111)
 -->
<!-- Title: idPhysics_StaticMulti Pages: 1 -->
<!--zoomable 704 -->
<svg id="main" version="1.1" xmlns="http://www.w3.org/2000/svg" xmlns:xlink="http://www.w3.org/1999/xlink" xml:space="preserve" onload="init(evt)">
<style type="text/css"><![CDATA[
.edge:hover path { stroke: red; }
.edge:hover polygon { stroke: red; fill: red; }
]]></style>
<script type="text/javascript"><![CDATA[
var edges = document.getElementsByTagName('g');
if (edges && edges.length) {
  for (var i=0;i<edges.length;i++) {
    if (edges[i].id.substr(0,4)=='edge') {
      edges[i].setAttribute('class','edge');
    }
  }
}
]]></script>
        <defs>
                <circle id="rim" cx="0" cy="0" r="7"/>
                <circle id="rim2" cx="0" cy="0" r="3.5"/>
                <g id="zoomPlus">
                        <use xlink:href="#rim" fill="#404040">
                                <set attributeName="fill" to="#808080" begin="zoomplus.mouseover" end="zoomplus.mouseout"/>
                        </use>
                        <path d="M-4,0h8M0,-4v8" fill="none" stroke="white" stroke-width="1.5" pointer-events="none"/>
                </g>
                <g id="zoomMin">
                        <use xlink:href="#rim" fill="#404040">
                                <set attributeName="fill" to="#808080" begin="zoomminus.mouseover" end="zoomminus.mouseout"/>
                        </use>
                        <path d="M-4,0h8" fill="none" stroke="white" stroke-width="1.5" pointer-events="none"/>
                </g>
                <g id="dirArrow">
                        <path fill="none" stroke="white" stroke-width="1.5" d="M0,-3.0v7 M-2.5,-0.5L0,-3.0L2.5,-0.5"/>
                </g>
               <g id="resetDef">
                       <use xlink:href="#rim2" fill="#404040">
                               <set attributeName="fill" to="#808080" begin="reset.mouseover" end="reset.mouseout"/>
                       </use>
               </g>
        </defs>

<script type="text/javascript">
var viewWidth = 1232;
var viewHeight = 704;
var sectionId = 'dynsection-1';
</script>
<script xlink:href="svgpan.js"/>
<svg id="graph" class="graph">
<g id="viewport">
<title>idPhysics_StaticMulti</title>
<polygon fill="white" stroke="white" points="-4,4 -4,-700 1228,-700 1228,4 -4,4"/>
<!-- Node1 -->
<g id="node1" class="node"><title>Node1</title>
<polygon fill="#bfbfbf" stroke="black" points="1112.5,-505.5 1112.5,-524.5 1223.5,-524.5 1223.5,-505.5 1112.5,-505.5"/>
<text text-anchor="middle" x="1168" y="-512.5" font-family="Arial" font-size="10.00">idPhysics_StaticMulti</text>
</g>
<!-- Node2 -->
<g id="node2" class="node"><title>Node2</title>
<g id="a_node2"><a xlink:href="classid_physics.html" target="_top" xlink:title="idPhysics">
<polygon fill="white" stroke="black" points="935.5,-543.5 935.5,-562.5 994.5,-562.5 994.5,-543.5 935.5,-543.5"/>
<text text-anchor="middle" x="965" y="-550.5" font-family="Arial" font-size="10.00">idPhysics</text>
</a>
</g>
</g>
<!-- Node2&#45;&gt;Node1 -->
<g id="edge1" class="edge"><title>Node2&#45;&gt;Node1</title>
<path fill="none" stroke="midnightblue" d="M1001.71,-540.944C1032.45,-533.513 1077.26,-524.782 1112.48,-519.229"/>
<polygon fill="midnightblue" stroke="midnightblue" points="1000.72,-537.585 991.866,-543.408 1002.42,-544.376 1000.72,-537.585"/>
</g>
<!-- Node2&#45;&gt;Node1 -->
<g id="edge11" class="edge"><title>Node2&#45;&gt;Node1</title>
<path fill="none" stroke="midnightblue" d="M1004.79,-551.126C1045.07,-545.461 1106.91,-533.51 1141.44,-524.513"/>
<polygon fill="midnightblue" stroke="midnightblue" points="1004.25,-547.667 994.798,-552.456 1005.17,-554.606 1004.25,-547.667"/>
</g>
<!-- Node3 -->
<g id="node3" class="node"><title>Node3</title>
<g id="a_node3"><a xlink:href="classid_class.html" target="_top" xlink:title="idClass">
<polygon fill="white" stroke="black" points="709.5,-543.5 709.5,-562.5 758.5,-562.5 758.5,-543.5 709.5,-543.5"/>
<text text-anchor="middle" x="734" y="-550.5" font-family="Arial" font-size="10.00">idClass</text>
</a>
</g>
</g>
<!-- Node3&#45;&gt;Node2 -->
<g id="edge2" class="edge"><title>Node3&#45;&gt;Node2</title>
<path fill="none" stroke="midnightblue" d="M768.785,-548.045C813.816,-545.559 892.739,-545.655 935.131,-548.335"/>
<polygon fill="midnightblue" stroke="midnightblue" points="768.401,-544.562 758.645,-548.693 768.847,-551.548 768.401,-544.562"/>
</g>
<!-- Node3&#45;&gt;Node2 -->
<g id="edge10" class="edge"><title>Node3&#45;&gt;Node2</title>
<path fill="none" stroke="midnightblue" d="M768.785,-557.955C813.816,-560.441 892.739,-560.345 935.131,-557.665"/>
<polygon fill="midnightblue" stroke="midnightblue" points="768.847,-554.452 758.645,-557.307 768.401,-561.438 768.847,-554.452"/>
</g>
<!-- Node4 -->
<g id="node4" class="node"><title>Node4</title>
<g id="a_node4"><a xlink:href="classid_type_info.html" target="_top" xlink:title="idTypeInfo">
<polygon fill="white" stroke="black" points="935,-636.5 935,-655.5 995,-655.5 995,-636.5 935,-636.5"/>
<text text-anchor="middle" x="965" y="-643.5" font-family="Arial" font-size="10.00">idTypeInfo</text>
</a>
</g>
</g>
<!-- Node3&#45;&gt;Node4 -->
<g id="edge8" class="edge"><title>Node3&#45;&gt;Node4</title>
<path fill="none" stroke="#9a32cd" stroke-dasharray="5,2" d="M768.402,-561.461C809.522,-571.972 875.256,-589.117 886,-594 911.337,-605.515 937.627,-624.848 952.293,-636.417"/>
<polygon fill="#9a32cd" stroke="#9a32cd" points="769.082,-558.023 758.527,-558.943 767.352,-564.806 769.082,-558.023"/>
<text text-anchor="middle" x="851" y="-597" font-family="Arial" font-size="10.00"> CreateInstance</text>
</g>
<!-- Node8 -->
<g id="node8" class="node"><title>Node8</title>
<g id="a_node8"><a xlink:href="classid_entity.html" target="_top" xlink:title="idEntity">
<polygon fill="white" stroke="black" points="940,-346.5 940,-365.5 990,-365.5 990,-346.5 940,-346.5"/>
<text text-anchor="middle" x="965" y="-353.5" font-family="Arial" font-size="10.00">idEntity</text>
</a>
</g>
</g>
<!-- Node3&#45;&gt;Node8 -->
<g id="edge13" class="edge"><title>Node3&#45;&gt;Node8</title>
<path fill="none" stroke="midnightblue" d="M763.054,-539.932C795.717,-528.447 849.798,-509.938 886,-478 888.518,-475.778 936.089,-394.707 955.678,-365.722"/>
<polygon fill="midnightblue" stroke="midnightblue" points="761.499,-536.771 753.252,-543.422 763.847,-543.365 761.499,-536.771"/>
</g>
<!-- Node3&#45;&gt;Node8 -->
<g id="edge14" class="edge"><title>Node3&#45;&gt;Node8</title>
<path fill="none" stroke="midnightblue" d="M768.752,-551.596C801.734,-544.326 851.831,-526.145 886,-496 888.742,-493.581 944.88,-397.71 960.178,-365.75"/>
<polygon fill="midnightblue" stroke="midnightblue" points="767.824,-548.211 758.687,-553.574 769.174,-555.08 767.824,-548.211"/>
</g>
<!-- Node4&#45;&gt;Node3 -->
<g id="edge3" class="edge"><title>Node4&#45;&gt;Node3</title>
<path fill="none" stroke="#9a32cd" stroke-dasharray="5,2" d="M925.1,-639.403C894.539,-633.365 851.377,-622.919 816,-607 789.336,-595.002 761.719,-574.559 746.614,-562.565"/>
<polygon fill="#9a32cd" stroke="#9a32cd" points="924.472,-642.847 934.951,-641.283 925.785,-635.971 924.472,-642.847"/>
<text text-anchor="middle" x="851" y="-633" font-family="Arial" font-size="10.00"> Type</text>
</g>
<!-- Node4&#45;&gt;Node4 -->
<g id="edge4" class="edge"><title>Node4&#45;&gt;Node4</title>
<path fill="none" stroke="#9a32cd" stroke-dasharray="5,2" d="M945.742,-665.4C947.028,-670.315 953.447,-674 965,-674 983.484,-674 988.828,-664.565 981.029,-655.757"/>
<polygon fill="#9a32cd" stroke="#9a32cd" points="949.114,-666.351 948.971,-655.757 942.476,-664.128 949.114,-666.351"/>
<text text-anchor="middle" x="965" y="-688" font-family="Arial" font-size="10.00"> next</text>
<text text-anchor="middle" x="965" y="-677" font-family="Arial" font-size="10.00">super</text>
</g>
<!-- Node5 -->
<g id="node5" class="node"><title>Node5</title>
<g id="a_node5"><a xlink:href="classid_hierarchy.html" target="_top" xlink:title="idHierarchy\&lt; idTypeInfo \&gt;">
<polygon fill="white" stroke="black" points="670.5,-643.5 670.5,-662.5 797.5,-662.5 797.5,-643.5 670.5,-643.5"/>
<text text-anchor="middle" x="734" y="-650.5" font-family="Arial" font-size="10.00">idHierarchy&lt; idTypeInfo &gt;</text>
</a>
</g>
</g>
<!-- Node5&#45;&gt;Node4 -->
<g id="edge5" class="edge"><title>Node5&#45;&gt;Node4</title>
<path fill="none" stroke="#9a32cd" stroke-dasharray="5,2" d="M807.748,-650.776C850.842,-649.459 903.079,-647.862 934.91,-646.889"/>
<polygon fill="#9a32cd" stroke="#9a32cd" points="807.464,-647.283 797.575,-651.087 807.678,-654.28 807.464,-647.283"/>
<text text-anchor="middle" x="851" y="-654" font-family="Arial" font-size="10.00"> node</text>
</g>
<!-- Node6 -->
<g id="node6" class="node"><title>Node6</title>
<g id="a_node6"><a xlink:href="structid_event_func.html" target="_top" xlink:title="idEventFunc\&lt; idClass \&gt;">
<polygon fill="white" stroke="black" points="428,-544.5 428,-563.5 548,-563.5 548,-544.5 428,-544.5"/>
<text text-anchor="middle" x="488" y="-551.5" font-family="Arial" font-size="10.00">idEventFunc&lt; idClass &gt;</text>
</a>
</g>
</g>
<!-- Node6&#45;&gt;Node3 -->
<g id="edge9" class="edge"><title>Node6&#45;&gt;Node3</title>
<path fill="none" stroke="#9a32cd" stroke-dasharray="5,2" d="M558.318,-553.716C609.035,-553.508 674.785,-553.239 709.358,-553.097"/>
<polygon fill="#9a32cd" stroke="#9a32cd" points="558.051,-550.217 548.066,-553.758 558.08,-557.217 558.051,-550.217"/>
<text text-anchor="middle" x="609" y="-557" font-family="Arial" font-size="10.00"> eventCallbacks</text>
</g>
<!-- Node6&#45;&gt;Node4 -->
<g id="edge6" class="edge"><title>Node6&#45;&gt;Node4</title>
<path fill="none" stroke="#9a32cd" stroke-dasharray="5,2" d="M506.518,-570.572C536.906,-598.045 602.622,-651.977 670,-672 763.815,-699.88 881.297,-671.685 934.908,-655.569"/>
<polygon fill="#9a32cd" stroke="#9a32cd" points="508.641,-567.77 498.912,-563.575 503.902,-572.922 508.641,-567.77"/>
<text text-anchor="middle" x="734" y="-687" font-family="Arial" font-size="10.00"> eventCallbacks</text>
</g>
<!-- Node7 -->
<g id="node7" class="node"><title>Node7</title>
<g id="a_node7"><a xlink:href="classid_event_def.html" target="_top" xlink:title="idEventDef">
<polygon fill="white" stroke="black" points="234,-544.5 234,-563.5 296,-563.5 296,-544.5 234,-544.5"/>
<text text-anchor="middle" x="265" y="-551.5" font-family="Arial" font-size="10.00">idEventDef</text>
</a>
</g>
</g>
<!-- Node7&#45;&gt;Node6 -->
<g id="edge7" class="edge"><title>Node7&#45;&gt;Node6</title>
<path fill="none" stroke="#9a32cd" stroke-dasharray="5,2" d="M306.282,-554C340.209,-554 389.214,-554 427.636,-554"/>
<polygon fill="#9a32cd" stroke="#9a32cd" points="306.266,-550.5 296.266,-554 306.266,-557.5 306.266,-550.5"/>
<text text-anchor="middle" x="374" y="-557" font-family="Arial" font-size="10.00"> event</text>
</g>
<!-- Node8&#45;&gt;Node1 -->
<g id="edge12" class="edge"><title>Node8&#45;&gt;Node1</title>
<path fill="none" stroke="#9a32cd" stroke-dasharray="5,2" d="M986.308,-372.064C1027.87,-404.938 1121.5,-479.009 1154.89,-505.42"/>
<polygon fill="#9a32cd" stroke="#9a32cd" points="988.285,-369.166 978.271,-365.707 983.942,-374.656 988.285,-369.166"/>
<text text-anchor="middle" x="1069" y="-458" font-family="Arial" font-size="10.00"> self</text>
</g>
<!-- Node8&#45;&gt;Node8 -->
<g id="edge15" class="edge"><title>Node8&#45;&gt;Node8</title>
<path fill="none" stroke="#9a32cd" stroke-dasharray="5,2" d="M945.742,-375.4C947.028,-380.315 953.447,-384 965,-384 983.484,-384 988.828,-374.565 981.029,-365.757"/>
<polygon fill="#9a32cd" stroke="#9a32cd" points="949.114,-376.351 948.971,-365.757 942.476,-374.128 949.114,-376.351"/>
<text text-anchor="middle" x="965" y="-387" font-family="Arial" font-size="10.00"> cameraTarget</text>
</g>
<!-- Node9 -->
<g id="node9" class="node"><title>Node9</title>
<g id="a_node9"><a xlink:href="classid_str.html" target="_top" xlink:title="idStr">
<polygon fill="white" stroke="black" points="715.5,-221.5 715.5,-240.5 752.5,-240.5 752.5,-221.5 715.5,-221.5"/>
<text text-anchor="middle" x="734" y="-228.5" font-family="Arial" font-size="10.00">idStr</text>
</a>
</g>
</g>
<!-- Node9&#45;&gt;Node8 -->
<g id="edge16" class="edge"><title>Node9&#45;&gt;Node8</title>
<path fill="none" stroke="#9a32cd" stroke-dasharray="5,2" d="M762.804,-234.151C794.53,-238.742 847.05,-249.447 886,-273 918.319,-292.543 945.831,-329.127 957.719,-346.444"/>
<polygon fill="#9a32cd" stroke="#9a32cd" points="762.883,-230.63 752.506,-232.77 761.953,-237.568 762.883,-230.63"/>
<text text-anchor="middle" x="851" y="-276" font-family="Arial" font-size="10.00"> name</text>
</g>
<!-- Node10 -->
<g id="node10" class="node"><title>Node10</title>
<g id="a_node10"><a xlink:href="structid_entity_1_1entity_flags__s.html" target="_top" xlink:title="idEntity::entityFlags_s">
<polygon fill="white" stroke="black" points="677,-183.5 677,-202.5 791,-202.5 791,-183.5 677,-183.5"/>
<text text-anchor="middle" x="734" y="-190.5" font-family="Arial" font-size="10.00">idEntity::entityFlags_s</text>
</a>
</g>
</g>
<!-- Node10&#45;&gt;Node8 -->
<g id="edge17" class="edge"><title>Node10&#45;&gt;Node8</title>
<path fill="none" stroke="#9a32cd" stroke-dasharray="5,2" d="M801.527,-198.65C829.699,-203.706 861.58,-213.205 886,-231 928.174,-261.732 952.664,-322.861 960.873,-346.427"/>
<polygon fill="#9a32cd" stroke="#9a32cd" points="801.771,-195.143 791.337,-196.981 800.639,-202.051 801.771,-195.143"/>
<text text-anchor="middle" x="851" y="-234" font-family="Arial" font-size="10.00"> fl</text>
</g>
<!-- Node11 -->
<g id="node11" class="node"><title>Node11</title>
<g id="a_node11"><a xlink:href="structrender_view__s.html" target="_top" xlink:title="renderView_s">
<polygon fill="white" stroke="black" points="450.5,-435.5 450.5,-454.5 525.5,-454.5 525.5,-435.5 450.5,-435.5"/>
<text text-anchor="middle" x="488" y="-442.5" font-family="Arial" font-size="10.00">renderView_s</text>
</a>
</g>
</g>
<!-- Node11&#45;&gt;Node8 -->
<g id="edge18" class="edge"><title>Node11&#45;&gt;Node8</title>
<path fill="none" stroke="#9a32cd" stroke-dasharray="5,2" d="M535.54,-455.053C569.187,-460.101 615.035,-462.311 652,-447 662.453,-442.67 660.058,-434.4 670,-429 756.249,-382.149 791.444,-409.326 886,-383 904.361,-377.888 924.697,-370.8 940,-365.169"/>
<polygon fill="#9a32cd" stroke="#9a32cd" points="535.947,-451.573 525.513,-453.411 534.816,-458.481 535.947,-451.573"/>
<text text-anchor="middle" x="734" y="-432" font-family="Arial" font-size="10.00"> renderView</text>
</g>
<!-- Node19 -->
<g id="node19" class="node"><title>Node19</title>
<g id="a_node19"><a xlink:href="structrender_entity__s.html" target="_top" xlink:title="renderEntity_s">
<polygon fill="white" stroke="black" points="694,-297.5 694,-316.5 774,-316.5 774,-297.5 694,-297.5"/>
<text text-anchor="middle" x="734" y="-304.5" font-family="Arial" font-size="10.00">renderEntity_s</text>
</a>
</g>
</g>
<!-- Node11&#45;&gt;Node19 -->
<g id="edge31" class="edge"><title>Node11&#45;&gt;Node19</title>
<path fill="none" stroke="#9a32cd" stroke-dasharray="5,2" d="M535.467,-437.749C580.517,-430.333 643.31,-418.82 652,-411 671.434,-393.513 654.909,-376.347 670,-355 681.747,-338.382 700.968,-324.936 715.095,-316.548"/>
<polygon fill="#9a32cd" stroke="#9a32cd" points="534.888,-434.297 525.581,-439.359 536.013,-441.207 534.888,-434.297"/>
<text text-anchor="middle" x="609" y="-435" font-family="Arial" font-size="10.00"> remoteRenderView</text>
</g>
<!-- Node12 -->
<g id="node12" class="node"><title>Node12</title>
<g id="a_node12"><a xlink:href="classid_mat3.html" target="_top" xlink:title="idMat3">
<polygon fill="white" stroke="black" points="242,-406.5 242,-425.5 288,-425.5 288,-406.5 242,-406.5"/>
<text text-anchor="middle" x="265" y="-413.5" font-family="Arial" font-size="10.00">idMat3</text>
</a>
</g>
</g>
<!-- Node12&#45;&gt;Node11 -->
<g id="edge19" class="edge"><title>Node12&#45;&gt;Node11</title>
<path fill="none" stroke="#9a32cd" stroke-dasharray="5,2" d="M298.538,-420.27C339.018,-425.581 407.951,-434.627 450.283,-440.182"/>
<polygon fill="#9a32cd" stroke="#9a32cd" points="298.777,-416.771 288.407,-418.94 297.866,-423.712 298.777,-416.771"/>
<text text-anchor="middle" x="374" y="-438" font-family="Arial" font-size="10.00"> viewaxis</text>
</g>
<!-- Node12&#45;&gt;Node19 -->
<g id="edge27" class="edge"><title>Node12&#45;&gt;Node19</title>
<path fill="none" stroke="#9a32cd" stroke-dasharray="5,2" d="M297.588,-404.209C310.045,-399.893 324.565,-395.271 338,-392 475.372,-358.556 516.295,-380.67 652,-341 673.811,-334.624 697.673,-324.152 713.809,-316.512"/>
<polygon fill="#9a32cd" stroke="#9a32cd" points="296.355,-400.933 288.1,-407.574 298.694,-407.531 296.355,-400.933"/>
<text text-anchor="middle" x="488" y="-378" font-family="Arial" font-size="10.00"> axis</text>
</g>
<!-- Node13 -->
<g id="node13" class="node"><title>Node13</title>
<g id="a_node13"><a xlink:href="classid_vec3.html" target="_top" xlink:title="idVec3">
<polygon fill="white" stroke="black" points="241.5,-343.5 241.5,-362.5 288.5,-362.5 288.5,-343.5 241.5,-343.5"/>
<text text-anchor="middle" x="265" y="-350.5" font-family="Arial" font-size="10.00">idVec3</text>
</a>
</g>
</g>
<!-- Node13&#45;&gt;Node11 -->
<g id="edge20" class="edge"><title>Node13&#45;&gt;Node11</title>
<path fill="none" stroke="#9a32cd" stroke-dasharray="5,2" d="M298.042,-365.957C327.264,-377.814 371.607,-395.909 410,-412 428.511,-419.758 449.44,-428.741 464.801,-435.375"/>
<polygon fill="#9a32cd" stroke="#9a32cd" points="299.325,-362.7 288.742,-362.187 296.695,-369.187 299.325,-362.7"/>
<text text-anchor="middle" x="374" y="-415" font-family="Arial" font-size="10.00"> vieworg</text>
</g>
<!-- Node13&#45;&gt;Node19 -->
<g id="edge35" class="edge"><title>Node13&#45;&gt;Node19</title>
<path fill="none" stroke="#9a32cd" stroke-dasharray="5,2" d="M299.026,-351.496C365.882,-348.199 521.945,-339.218 652,-322 665.753,-320.179 680.712,-317.585 693.99,-315.064"/>
<polygon fill="#9a32cd" stroke="#9a32cd" points="298.53,-348.016 288.71,-351.994 298.867,-355.008 298.53,-348.016"/>
<text text-anchor="middle" x="488" y="-347" font-family="Arial" font-size="10.00"> origin</text>
</g>
<!-- Node27 -->
<g id="node27" class="node"><title>Node27</title>
<g id="a_node27"><a xlink:href="structref_sound__t.html" target="_top" xlink:title="refSound_t">
<polygon fill="white" stroke="black" points="456.5,-51.5 456.5,-70.5 519.5,-70.5 519.5,-51.5 456.5,-51.5"/>
<text text-anchor="middle" x="488" y="-58.5" font-family="Arial" font-size="10.00">refSound_t</text>
</a>
</g>
</g>
<!-- Node13&#45;&gt;Node27 -->
<g id="edge45" class="edge"><title>Node13&#45;&gt;Node27</title>
<path fill="none" stroke="#9a32cd" stroke-dasharray="5,2" d="M272.636,-333.943C290.348,-285.686 343.241,-157.37 428,-85 436.157,-78.035 446.604,-72.9025 456.433,-69.2137"/>
<polygon fill="#9a32cd" stroke="#9a32cd" points="269.304,-332.865 269.222,-343.459 275.893,-335.228 269.304,-332.865"/>
<text text-anchor="middle" x="374" y="-193" font-family="Arial" font-size="10.00"> origin</text>
</g>
<!-- Node14 -->
<g id="node14" class="node"><title>Node14</title>
<g id="a_node14"><a xlink:href="classid_material.html" target="_top" xlink:title="idMaterial">
<polygon fill="white" stroke="black" points="235.5,-469.5 235.5,-488.5 294.5,-488.5 294.5,-469.5 235.5,-469.5"/>
<text text-anchor="middle" x="265" y="-476.5" font-family="Arial" font-size="10.00">idMaterial</text>
</a>
</g>
</g>
<!-- Node14&#45;&gt;Node11 -->
<g id="edge21" class="edge"><title>Node14&#45;&gt;Node11</title>
<path fill="none" stroke="#9a32cd" stroke-dasharray="5,2" d="M304.801,-473.031C345.861,-466.714 410.165,-456.821 450.379,-450.634"/>
<polygon fill="#9a32cd" stroke="#9a32cd" points="304.243,-469.575 294.892,-474.555 305.308,-476.494 304.243,-469.575"/>
<text text-anchor="middle" x="374" y="-471" font-family="Arial" font-size="10.00"> globalMaterial</text>
</g>
<!-- Node14&#45;&gt;Node19 -->
<g id="edge37" class="edge"><title>Node14&#45;&gt;Node19</title>
<path fill="none" stroke="#9a32cd" stroke-dasharray="5,2" d="M304.52,-489.591C382.183,-508.353 558.127,-537.319 652,-445 681.084,-416.397 648.382,-389.593 670,-355 680.639,-337.976 699.634,-324.757 713.994,-316.541"/>
<polygon fill="#9a32cd" stroke="#9a32cd" points="305.22,-486.158 294.67,-487.137 303.528,-492.951 305.22,-486.158"/>
<text text-anchor="middle" x="488" y="-524" font-family="Arial" font-size="10.00"> customShader</text>
<text text-anchor="middle" x="488" y="-513" font-family="Arial" font-size="10.00">referenceShader</text>
</g>
<!-- Node15 -->
<g id="node15" class="node"><title>Node15</title>
<g id="a_node15"><a xlink:href="classid_decl.html" target="_top" xlink:title="idDecl">
<polygon fill="white" stroke="black" points="128,-258.5 128,-277.5 172,-277.5 172,-258.5 128,-258.5"/>
<text text-anchor="middle" x="150" y="-265.5" font-family="Arial" font-size="10.00">idDecl</text>
</a>
</g>
</g>
<!-- Node15&#45;&gt;Node14 -->
<g id="edge22" class="edge"><title>Node15&#45;&gt;Node14</title>
<path fill="none" stroke="midnightblue" d="M154.339,-287.631C160.684,-320.576 176.91,-387.991 210,-435 220.024,-449.24 235.857,-461.382 247.792,-469.28"/>
<polygon fill="midnightblue" stroke="midnightblue" points="157.73,-286.717 152.495,-277.506 150.843,-287.971 157.73,-286.717"/>
</g>
<!-- Node20 -->
<g id="node20" class="node"><title>Node20</title>
<g id="a_node20"><a xlink:href="classid_decl_skin.html" target="_top" xlink:title="idDeclSkin">
<polygon fill="white" stroke="black" points="342.5,-258.5 342.5,-277.5 405.5,-277.5 405.5,-258.5 342.5,-258.5"/>
<text text-anchor="middle" x="374" y="-265.5" font-family="Arial" font-size="10.00">idDeclSkin</text>
</a>
</g>
</g>
<!-- Node15&#45;&gt;Node20 -->
<g id="edge29" class="edge"><title>Node15&#45;&gt;Node20</title>
<path fill="none" stroke="midnightblue" d="M182.334,-268C224.798,-268 300.143,-268 342.285,-268"/>
<polygon fill="midnightblue" stroke="midnightblue" points="182.286,-264.5 172.286,-268 182.286,-271.5 182.286,-264.5"/>
</g>
<!-- Node29 -->
<g id="node29" class="node"><title>Node29</title>
<g id="a_node29"><a xlink:href="classid_sound_shader.html" target="_top" xlink:title="idSoundShader">
<polygon fill="white" stroke="black" points="223.5,-0.5 223.5,-19.5 306.5,-19.5 306.5,-0.5 223.5,-0.5"/>
<text text-anchor="middle" x="265" y="-7.5" font-family="Arial" font-size="10.00">idSoundShader</text>
</a>
</g>
</g>
<!-- Node15&#45;&gt;Node29 -->
<g id="edge43" class="edge"><title>Node15&#45;&gt;Node29</title>
<path fill="none" stroke="midnightblue" d="M153.448,-248.231C160.16,-197 180.351,-61.6514 210,-29 213.741,-24.8797 218.43,-21.6529 223.472,-19.1258"/>
<polygon fill="midnightblue" stroke="midnightblue" points="149.953,-247.968 152.158,-258.331 156.897,-248.855 149.953,-247.968"/>
</g>
<!-- Node16 -->
<g id="node16" class="node"><title>Node16</title>
<g id="a_node16"><a xlink:href="classid_decl_base.html" target="_top" xlink:title="idDeclBase">
<polygon fill="white" stroke="black" points="0,-258.5 0,-277.5 66,-277.5 66,-258.5 0,-258.5"/>
<text text-anchor="middle" x="33" y="-265.5" font-family="Arial" font-size="10.00">idDeclBase</text>
</a>
</g>
</g>
<!-- Node16&#45;&gt;Node15 -->
<g id="edge23" class="edge"><title>Node16&#45;&gt;Node15</title>
<path fill="none" stroke="#9a32cd" stroke-dasharray="5,2" d="M76.0643,-268C93.5984,-268 113.201,-268 127.664,-268"/>
<polygon fill="#9a32cd" stroke="#9a32cd" points="76.0339,-264.5 66.0339,-268 76.0339,-271.5 76.0339,-264.5"/>
<text text-anchor="middle" x="97" y="-271" font-family="Arial" font-size="10.00"> base</text>
</g>
<!-- Node17 -->
<g id="node17" class="node"><title>Node17</title>
<g id="a_node17"><a xlink:href="classid_list.html" target="_top" xlink:title="idList\&lt; idEntityPtr\l\&lt; idEntity \&gt; \&gt;">
<polygon fill="white" stroke="black" points="686.5,-15 686.5,-45 781.5,-45 781.5,-15 686.5,-15"/>
<text text-anchor="start" x="694.5" y="-33" font-family="Arial" font-size="10.00">idList&lt; idEntityPtr</text>
<text text-anchor="middle" x="734" y="-22" font-family="Arial" font-size="10.00">&lt; idEntity &gt; &gt;</text>
</a>
</g>
</g>
<!-- Node17&#45;&gt;Node8 -->
<g id="edge24" class="edge"><title>Node17&#45;&gt;Node8</title>
<path fill="none" stroke="#9a32cd" stroke-dasharray="5,2" d="M792.041,-26.1529C823.471,-27.1522 861.054,-33.9338 886,-57 930.509,-98.1562 957.222,-299.674 962.871,-346.34"/>
<polygon fill="#9a32cd" stroke="#9a32cd" points="791.689,-22.6482 781.645,-26.0205 791.599,-29.6476 791.689,-22.6482"/>
<text text-anchor="middle" x="851" y="-60" font-family="Arial" font-size="10.00"> targets</text>
</g>
<!-- Node18 -->
<g id="node18" class="node"><title>Node18</title>
<g id="a_node18"><a xlink:href="classid_link_list.html" target="_top" xlink:title="idLinkList\&lt; idEntity \&gt;">
<polygon fill="white" stroke="black" points="679.5,-449.5 679.5,-468.5 788.5,-468.5 788.5,-449.5 679.5,-449.5"/>
<text text-anchor="middle" x="734" y="-456.5" font-family="Arial" font-size="10.00">idLinkList&lt; idEntity &gt;</text>
</a>
</g>
</g>
<!-- Node18&#45;&gt;Node8 -->
<g id="edge25" class="edge"><title>Node18&#45;&gt;Node8</title>
<path fill="none" stroke="#9a32cd" stroke-dasharray="5,2" d="M798.875,-455.405C826.834,-451.794 859.281,-444.726 886,-431 917.415,-414.861 944.755,-381.978 957.063,-365.648"/>
<polygon fill="#9a32cd" stroke="#9a32cd" points="798.321,-451.946 788.796,-456.585 799.136,-458.899 798.321,-451.946"/>
<text text-anchor="middle" x="851" y="-478" font-family="Arial" font-size="10.00"> spawnNode</text>
<text text-anchor="middle" x="851" y="-467" font-family="Arial" font-size="10.00">snapshotNode</text>
<text text-anchor="middle" x="851" y="-456" font-family="Arial" font-size="10.00">activeNode</text>
</g>
<!-- Node19&#45;&gt;Node8 -->
<g id="edge26" class="edge"><title>Node19&#45;&gt;Node8</title>
<path fill="none" stroke="#9a32cd" stroke-dasharray="5,2" d="M783.965,-317.477C831.908,-327.736 902.96,-342.939 939.83,-350.828"/>
<polygon fill="#9a32cd" stroke="#9a32cd" points="784.617,-314.038 774.106,-315.368 783.153,-320.883 784.617,-314.038"/>
<text text-anchor="middle" x="851" y="-342" font-family="Arial" font-size="10.00"> renderEntity</text>
</g>
<!-- Node19&#45;&gt;Node19 -->
<g id="edge36" class="edge"><title>Node19&#45;&gt;Node19</title>
<path fill="none" stroke="#9a32cd" stroke-dasharray="5,2" d="M712.52,-326.4C713.954,-331.315 721.114,-335 734,-335 754.617,-335 760.577,-325.565 751.879,-316.757"/>
<polygon fill="#9a32cd" stroke="#9a32cd" points="715.901,-327.35 716.121,-316.757 709.343,-324.9 715.901,-327.35"/>
<text text-anchor="middle" x="734" y="-338" font-family="Arial" font-size="10.00"> callback</text>
</g>
<!-- Node20&#45;&gt;Node19 -->
<g id="edge28" class="edge"><title>Node20&#45;&gt;Node19</title>
<path fill="none" stroke="#9a32cd" stroke-dasharray="5,2" d="M416.04,-268.879C451.156,-269.931 503.011,-272.196 548,-277 598.634,-282.406 656.498,-292.414 693.83,-299.377"/>
<polygon fill="#9a32cd" stroke="#9a32cd" points="415.799,-265.371 405.705,-268.59 415.603,-272.368 415.799,-265.371"/>
<text text-anchor="middle" x="488" y="-280" font-family="Arial" font-size="10.00"> customSkin</text>
</g>
<!-- Node21 -->
<g id="node21" class="node"><title>Node21</title>
<g id="a_node21"><a xlink:href="classid_joint_mat.html" target="_top" xlink:title="idJointMat">
<polygon fill="white" stroke="black" points="457.5,-136.5 457.5,-155.5 518.5,-155.5 518.5,-136.5 457.5,-136.5"/>
<text text-anchor="middle" x="488" y="-143.5" font-family="Arial" font-size="10.00">idJointMat</text>
</a>
</g>
</g>
<!-- Node21&#45;&gt;Node19 -->
<g id="edge30" class="edge"><title>Node21&#45;&gt;Node19</title>
<path fill="none" stroke="#9a32cd" stroke-dasharray="5,2" d="M528.599,-136.927C565.505,-131.019 619.583,-129.289 652,-160 693.705,-199.51 632.606,-244.388 670,-288 676.098,-295.111 684.753,-299.617 693.701,-302.455"/>
<polygon fill="#9a32cd" stroke="#9a32cd" points="527.915,-133.493 518.677,-138.681 529.133,-140.387 527.915,-133.493"/>
<text text-anchor="middle" x="609" y="-163" font-family="Arial" font-size="10.00"> joints</text>
</g>
<!-- Node22 -->
<g id="node22" class="node"><title>Node22</title>
<g id="a_node22"><a xlink:href="classid_sound_emitter.html" target="_top" xlink:title="idSoundEmitter">
<polygon fill="white" stroke="black" points="223.5,-87.5 223.5,-106.5 306.5,-106.5 306.5,-87.5 223.5,-87.5"/>
<text text-anchor="middle" x="265" y="-94.5" font-family="Arial" font-size="10.00">idSoundEmitter</text>
</a>
</g>
</g>
<!-- Node22&#45;&gt;Node19 -->
<g id="edge32" class="edge"><title>Node22&#45;&gt;Node19</title>
<path fill="none" stroke="#9a32cd" stroke-dasharray="5,2" d="M316.879,-97.7288C416.367,-99.6681 629.013,-106.54 652,-130 701.464,-180.482 624.704,-233.747 670,-288 676.077,-295.279 684.836,-299.835 693.899,-302.669"/>
<polygon fill="#9a32cd" stroke="#9a32cd" points="316.819,-94.2272 306.756,-97.5409 316.689,-101.226 316.819,-94.2272"/>
<text text-anchor="middle" x="488" y="-112" font-family="Arial" font-size="10.00"> referenceSound</text>
</g>
<!-- Node22&#45;&gt;Node27 -->
<g id="edge44" class="edge"><title>Node22&#45;&gt;Node27</title>
<path fill="none" stroke="#9a32cd" stroke-dasharray="5,2" d="M316.889,-85.9666C323.966,-84.5585 331.155,-83.1941 338,-82 378.79,-74.8844 426.188,-68.5299 456.374,-64.7217"/>
<polygon fill="#9a32cd" stroke="#9a32cd" points="315.756,-82.6251 306.654,-88.0464 317.15,-89.485 315.756,-82.6251"/>
<text text-anchor="middle" x="374" y="-85" font-family="Arial" font-size="10.00"> referenceSound</text>
</g>
<!-- Node23 -->
<g id="node23" class="node"><title>Node23</title>
<g id="a_node23"><a xlink:href="classid_render_model.html" target="_top" xlink:title="idRenderModel">
<polygon fill="white" stroke="black" points="447.5,-297.5 447.5,-316.5 528.5,-316.5 528.5,-297.5 447.5,-297.5"/>
<text text-anchor="middle" x="488" y="-304.5" font-family="Arial" font-size="10.00">idRenderModel</text>
</a>
</g>
</g>
<!-- Node23&#45;&gt;Node19 -->
<g id="edge33" class="edge"><title>Node23&#45;&gt;Node19</title>
<path fill="none" stroke="#9a32cd" stroke-dasharray="5,2" d="M538.749,-307C584.531,-307 651.532,-307 693.675,-307"/>
<polygon fill="#9a32cd" stroke="#9a32cd" points="538.746,-303.5 528.746,-307 538.746,-310.5 538.746,-303.5"/>
<text text-anchor="middle" x="609" y="-310" font-family="Arial" font-size="10.00"> hModel</text>
</g>
<!-- Node24 -->
<g id="node24" class="node"><title>Node24</title>
<g id="a_node24"><a xlink:href="classid_bounds.html" target="_top" xlink:title="idBounds">
<polygon fill="white" stroke="black" points="459.5,-212.5 459.5,-231.5 516.5,-231.5 516.5,-212.5 459.5,-212.5"/>
<text text-anchor="middle" x="488" y="-219.5" font-family="Arial" font-size="10.00">idBounds</text>
</a>
</g>
</g>
<!-- Node24&#45;&gt;Node19 -->
<g id="edge34" class="edge"><title>Node24&#45;&gt;Node19</title>
<path fill="none" stroke="#9a32cd" stroke-dasharray="5,2" d="M526.765,-216.732C562.686,-213.862 616.384,-215.403 652,-243 669.027,-256.193 654.116,-273.45 670,-288 676.655,-294.096 685.202,-298.239 693.84,-301.054"/>
<polygon fill="#9a32cd" stroke="#9a32cd" points="526.306,-213.26 516.682,-217.69 526.968,-220.229 526.306,-213.26"/>
<text text-anchor="middle" x="609" y="-246" font-family="Arial" font-size="10.00"> bounds</text>
</g>
<!-- Node25 -->
<g id="node25" class="node"><title>Node25</title>
<g id="a_node25"><a xlink:href="classid_user_interface.html" target="_top" xlink:title="idUserInterface">
<polygon fill="white" stroke="black" points="447.5,-174.5 447.5,-193.5 528.5,-193.5 528.5,-174.5 447.5,-174.5"/>
<text text-anchor="middle" x="488" y="-181.5" font-family="Arial" font-size="10.00">idUserInterface</text>
</a>
</g>
</g>
<!-- Node25&#45;&gt;Node19 -->
<g id="edge38" class="edge"><title>Node25&#45;&gt;Node19</title>
<path fill="none" stroke="#9a32cd" stroke-dasharray="5,2" d="M539.044,-175.39C574.901,-172.241 621.977,-174.738 652,-202 680.91,-228.251 643.608,-259.218 670,-288 676.254,-294.82 684.857,-299.227 693.697,-302.064"/>
<polygon fill="#9a32cd" stroke="#9a32cd" points="538.36,-171.943 528.781,-176.469 539.092,-178.904 538.36,-171.943"/>
<text text-anchor="middle" x="609" y="-205" font-family="Arial" font-size="10.00"> gui</text>
</g>
<!-- Node26 -->
<g id="node26" class="node"><title>Node26</title>
<g id="a_node26"><a xlink:href="classid_dict.html" target="_top" xlink:title="idDict">
<polygon fill="white" stroke="black" points="713.5,-364.5 713.5,-383.5 754.5,-383.5 754.5,-364.5 713.5,-364.5"/>
<text text-anchor="middle" x="734" y="-371.5" font-family="Arial" font-size="10.00">idDict</text>
</a>
</g>
</g>
<!-- Node26&#45;&gt;Node8 -->
<g id="edge39" class="edge"><title>Node26&#45;&gt;Node8</title>
<path fill="none" stroke="#9a32cd" stroke-dasharray="5,2" d="M764.703,-371.665C810.513,-368.064 897.521,-361.225 939.771,-357.904"/>
<polygon fill="#9a32cd" stroke="#9a32cd" points="764.219,-368.192 754.524,-372.465 764.768,-375.171 764.219,-368.192"/>
<text text-anchor="middle" x="851" y="-371" font-family="Arial" font-size="10.00"> spawnArgs</text>
</g>
<!-- Node27&#45;&gt;Node8 -->
<g id="edge40" class="edge"><title>Node27&#45;&gt;Node8</title>
<path fill="none" stroke="#9a32cd" stroke-dasharray="5,2" d="M529.533,-64.3596C608.026,-72.9139 782.167,-102.161 886,-198 932.981,-241.364 955.239,-319.233 961.829,-346.364"/>
<polygon fill="#9a32cd" stroke="#9a32cd" points="529.861,-60.8749 519.554,-63.3283 529.141,-67.8378 529.861,-60.8749"/>
<text text-anchor="middle" x="734" y="-141" font-family="Arial" font-size="10.00"> refSound</text>
</g>
<!-- Node28 -->
<g id="node28" class="node"><title>Node28</title>
<g id="a_node28"><a xlink:href="structsound_shader_parms__t.html" target="_top" xlink:title="soundShaderParms_t">
<polygon fill="white" stroke="black" points="210,-38.5 210,-57.5 320,-57.5 320,-38.5 210,-38.5"/>
<text text-anchor="middle" x="265" y="-45.5" font-family="Arial" font-size="10.00">soundShaderParms_t</text>
</a>
</g>
</g>
<!-- Node28&#45;&gt;Node27 -->
<g id="edge41" class="edge"><title>Node28&#45;&gt;Node27</title>
<path fill="none" stroke="#9a32cd" stroke-dasharray="5,2" d="M330.188,-45.708C355.143,-45.4165 383.944,-45.8159 410,-48 425.401,-49.291 442.355,-52.0101 456.425,-54.6295"/>
<polygon fill="#9a32cd" stroke="#9a32cd" points="330.054,-42.2095 320.11,-45.8649 330.163,-49.2087 330.054,-42.2095"/>
<text text-anchor="middle" x="374" y="-51" font-family="Arial" font-size="10.00"> parms</text>
</g>
<!-- Node29&#45;&gt;Node27 -->
<g id="edge42" class="edge"><title>Node29&#45;&gt;Node27</title>
<path fill="none" stroke="#9a32cd" stroke-dasharray="5,2" d="M316.823,-14.5673C344.651,-17.7761 379.568,-22.9641 410,-31 429.559,-36.1646 450.931,-44.7409 466.186,-51.4039"/>
<polygon fill="#9a32cd" stroke="#9a32cd" points="316.852,-11.0494 306.528,-13.4326 316.085,-18.0073 316.852,-11.0494"/>
<text text-anchor="middle" x="374" y="-34" font-family="Arial" font-size="10.00"> shader</text>
</g>
<!-- Node30 -->
<g id="node30" class="node"><title>Node30</title>
<g id="a_node30"><a xlink:href="classid_script_object.html" target="_top" xlink:title="idScriptObject">
<polygon fill="white" stroke="black" points="695,-259.5 695,-278.5 773,-278.5 773,-259.5 695,-259.5"/>
<text text-anchor="middle" x="734" y="-266.5" font-family="Arial" font-size="10.00">idScriptObject</text>
</a>
</g>
</g>
<!-- Node30&#45;&gt;Node8 -->
<g id="edge46" class="edge"><title>Node30&#45;&gt;Node8</title>
<path fill="none" stroke="#9a32cd" stroke-dasharray="5,2" d="M782.988,-279.078C813.194,-286.213 852.637,-297.001 886,-311 909.498,-320.86 934.695,-336.407 949.901,-346.402"/>
<polygon fill="#9a32cd" stroke="#9a32cd" points="783.652,-275.639 773.121,-276.799 782.077,-282.459 783.652,-275.639"/>
<text text-anchor="middle" x="851" y="-314" font-family="Arial" font-size="10.00"> scriptObject</text>
</g>
<!-- Node31 -->
<g id="node31" class="node"><title>Node31</title>
<g id="a_node31"><a xlink:href="classid_list.html" target="_top" xlink:title="idList\&lt; staticPState_s \&gt;">
<polygon fill="white" stroke="black" points="904,-505.5 904,-524.5 1026,-524.5 1026,-505.5 904,-505.5"/>
<text text-anchor="middle" x="965" y="-512.5" font-family="Arial" font-size="10.00">idList&lt; staticPState_s &gt;</text>
</a>
</g>
</g>
<!-- Node31&#45;&gt;Node1 -->
<g id="edge47" class="edge"><title>Node31&#45;&gt;Node1</title>
<path fill="none" stroke="#9a32cd" stroke-dasharray="5,2" d="M1036.19,-515C1061.18,-515 1088.93,-515 1112.41,-515"/>
<polygon fill="#9a32cd" stroke="#9a32cd" points="1036.03,-511.5 1026.03,-515 1036.03,-518.5 1036.03,-511.5"/>
<text text-anchor="middle" x="1069" y="-518" font-family="Arial" font-size="10.00"> current</text>
</g>
<!-- Node32 -->
<g id="node32" class="node"><title>Node32</title>
<g id="a_node32"><a xlink:href="classid_list.html" target="_top" xlink:title="idList\&lt; idClipModel * \&gt;">
<polygon fill="white" stroke="black" points="907.5,-467.5 907.5,-486.5 1022.5,-486.5 1022.5,-467.5 907.5,-467.5"/>
<text text-anchor="middle" x="965" y="-474.5" font-family="Arial" font-size="10.00">idList&lt; idClipModel * &gt;</text>
</a>
</g>
</g>
<!-- Node32&#45;&gt;Node1 -->
<g id="edge48" class="edge"><title>Node32&#45;&gt;Node1</title>
<path fill="none" stroke="#9a32cd" stroke-dasharray="5,2" d="M1030.92,-488.342C1051.15,-491.963 1073.52,-496.056 1094,-500 1102.89,-501.712 1112.38,-503.61 1121.47,-505.463"/>
<polygon fill="#9a32cd" stroke="#9a32cd" points="1031.33,-484.86 1020.87,-486.55 1030.1,-491.751 1031.33,-484.86"/>
<text text-anchor="middle" x="1069" y="-503" font-family="Arial" font-size="10.00"> clipModels</text>
</g>
</g>
</svg>
        <g id="navigator" transform="translate(0 0)" fill="#404254">
                <rect fill="#f2f5e9" fill-opacity="0.5" stroke="#606060" stroke-width=".5" x="0" y="0" width="60" height="60"/>
                <use id="zoomplus" xlink:href="#zoomPlus" x="17" y="9" onmousedown="handleZoom(evt,'in')"/>
                <use id="zoomminus" xlink:href="#zoomMin" x="42" y="9" onmousedown="handleZoom(evt,'out')"/>
                <use id="reset" xlink:href="#resetDef" x="30" y="36" onmousedown="handleReset()"/>
                <g id="arrowUp" xlink:href="#dirArrow" transform="translate(30 24)" onmousedown="handlePan(0,-1)">
                  <use xlink:href="#rim" fill="#404040">
                        <set attributeName="fill" to="#808080" begin="arrowUp.mouseover" end="arrowUp.mouseout"/>
                  </use>
                  <path fill="none" stroke="white" stroke-width="1.5" d="M0,-3.0v7 M-2.5,-0.5L0,-3.0L2.5,-0.5"/>
                </g>
                <g id="arrowRight" xlink:href="#dirArrow" transform="rotate(90) translate(36 -43)" onmousedown="handlePan(1,0)">
                  <use xlink:href="#rim" fill="#404040">
                        <set attributeName="fill" to="#808080" begin="arrowRight.mouseover" end="arrowRight.mouseout"/>
                  </use>
                  <path fill="none" stroke="white" stroke-width="1.5" d="M0,-3.0v7 M-2.5,-0.5L0,-3.0L2.5,-0.5"/>
                </g>
                <g id="arrowDown" xlink:href="#dirArrow" transform="rotate(180) translate(-30 -48)" onmousedown="handlePan(0,1)">
                  <use xlink:href="#rim" fill="#404040">
                        <set attributeName="fill" to="#808080" begin="arrowDown.mouseover" end="arrowDown.mouseout"/>
                  </use>
                  <path fill="none" stroke="white" stroke-width="1.5" d="M0,-3.0v7 M-2.5,-0.5L0,-3.0L2.5,-0.5"/>
                </g>
                <g id="arrowLeft" xlink:href="#dirArrow" transform="rotate(270) translate(-36 17)" onmousedown="handlePan(-1,0)">
                  <use xlink:href="#rim" fill="#404040">
                        <set attributeName="fill" to="#808080" begin="arrowLeft.mouseover" end="arrowLeft.mouseout"/>
                  </use>
                  <path fill="none" stroke="white" stroke-width="1.5" d="M0,-3.0v7 M-2.5,-0.5L0,-3.0L2.5,-0.5"/>
                </g>
        </g>
        <svg viewBox="0 0 15 15" width="100%" height="30px" preserveAspectRatio="xMaxYMin meet">
         <g id="arrow_out" transform="scale(0.3 0.3)">
          <a xlink:href="classid_physics___static_multi__coll__graph_org.svg" target="_base">
           <rect id="button" ry="5" rx="5" y="6" x="6" height="38" width="38"
                fill="#f2f5e9" fill-opacity="0.5" stroke="#606060" stroke-width="1.0"/>
           <path id="arrow"
             d="M 11.500037,31.436501 C 11.940474,20.09759 22.043105,11.32322 32.158766,21.979434 L 37.068811,17.246167 C 37.068811,17.246167 37.088388,32 37.088388,32 L 22.160133,31.978069 C 22.160133,31.978069 26.997745,27.140456 26.997745,27.140456 C 18.528582,18.264221 13.291696,25.230495 11.500037,31.436501 z"
             style="fill:#404040;"/>
          </a>
         </g>
        </svg>
</svg>
