<?xml version="1.0" encoding="UTF-8" standalone="no"?>
<!DOCTYPE svg PUBLIC "-//W3C//DTD SVG 1.1//EN"
 "http://www.w3.org/Graphics/SVG/1.1/DTD/svg11.dtd">
<!-- Generated by graphviz version 2.34.0 (20130907.0111)
 -->
<!-- Title: idWinBool Pages: 1 -->
<svg width="72pt" height="154pt"
 viewBox="0.00 0.00 72.00 154.00" xmlns="http://www.w3.org/2000/svg" xmlns:xlink="http://www.w3.org/1999/xlink">
<g id="graph0" class="graph" transform="scale(1 1) rotate(0) translate(4 150)">
<title>idWinBool</title>
<polygon fill="white" stroke="white" points="-4,4 -4,-150 68,-150 68,4 -4,4"/>
<!-- Node1 -->
<g id="node1" class="node"><title>Node1</title>
<polygon fill="#bfbfbf" stroke="black" points="-0.5,-0.5 -0.5,-19.5 60.5,-19.5 60.5,-0.5 -0.5,-0.5"/>
<text text-anchor="middle" x="30" y="-7.5" font-family="Arial" font-size="10.00">idWinBool</text>
</g>
<!-- Node2 -->
<g id="node2" class="node"><title>Node2</title>
<g id="a_node2"><a xlink:href="classid_win_var.html" target="_top" xlink:title="idWinVar">
<polygon fill="white" stroke="black" points="2,-58.5 2,-77.5 58,-77.5 58,-58.5 2,-58.5"/>
<text text-anchor="middle" x="30" y="-65.5" font-family="Arial" font-size="10.00">idWinVar</text>
</a>
</g>
</g>
<!-- Node2&#45;&gt;Node1 -->
<g id="edge1" class="edge"><title>Node2&#45;&gt;Node1</title>
<path fill="none" stroke="midnightblue" d="M30,-47.953C30,-38.2875 30,-27.0312 30,-19.5052"/>
<polygon fill="midnightblue" stroke="midnightblue" points="26.5001,-48.25 30,-58.25 33.5001,-48.25 26.5001,-48.25"/>
</g>
<!-- Node3 -->
<g id="node3" class="node"><title>Node3</title>
<g id="a_node3"><a xlink:href="classid_dict.html" target="_top" xlink:title="idDict">
<polygon fill="white" stroke="black" points="9.5,-126.5 9.5,-145.5 50.5,-145.5 50.5,-126.5 9.5,-126.5"/>
<text text-anchor="middle" x="30" y="-133.5" font-family="Arial" font-size="10.00">idDict</text>
</a>
</g>
</g>
<!-- Node3&#45;&gt;Node2 -->
<g id="edge2" class="edge"><title>Node3&#45;&gt;Node2</title>
<path fill="none" stroke="#9a32cd" stroke-dasharray="5,2" d="M30,-116.041C30,-103.472 30,-87.5631 30,-77.8411"/>
<polygon fill="#9a32cd" stroke="#9a32cd" points="26.5001,-116.372 30,-126.372 33.5001,-116.372 26.5001,-116.372"/>
<text text-anchor="middle" x="47" y="-99.5" font-family="Arial" font-size="10.00"> guiDict</text>
</g>
</g>
</svg>
