<?xml version="1.0" encoding="UTF-8" standalone="no"?>
<!DOCTYPE svg PUBLIC "-//W3C//DTD SVG 1.1//EN"
 "http://www.w3.org/Graphics/SVG/1.1/DTD/svg11.dtd">
<!-- Generated by graphviz version 2.34.0 (20130907.0111)
 -->
<!-- Title: idPhysics_Base Pages: 1 -->
<!--zoomable 252 -->
<svg id="main" version="1.1" xmlns="http://www.w3.org/2000/svg" xmlns:xlink="http://www.w3.org/1999/xlink" xml:space="preserve" onload="init(evt)">
<style type="text/css"><![CDATA[
.edge:hover path { stroke: red; }
.edge:hover polygon { stroke: red; fill: red; }
]]></style>
<script type="text/javascript"><![CDATA[
var edges = document.getElementsByTagName('g');
if (edges && edges.length) {
  for (var i=0;i<edges.length;i++) {
    if (edges[i].id.substr(0,4)=='edge') {
      edges[i].setAttribute('class','edge');
    }
  }
}
]]></script>
        <defs>
                <circle id="rim" cx="0" cy="0" r="7"/>
                <circle id="rim2" cx="0" cy="0" r="3.5"/>
                <g id="zoomPlus">
                        <use xlink:href="#rim" fill="#404040">
                                <set attributeName="fill" to="#808080" begin="zoomplus.mouseover" end="zoomplus.mouseout"/>
                        </use>
                        <path d="M-4,0h8M0,-4v8" fill="none" stroke="white" stroke-width="1.5" pointer-events="none"/>
                </g>
                <g id="zoomMin">
                        <use xlink:href="#rim" fill="#404040">
                                <set attributeName="fill" to="#808080" begin="zoomminus.mouseover" end="zoomminus.mouseout"/>
                        </use>
                        <path d="M-4,0h8" fill="none" stroke="white" stroke-width="1.5" pointer-events="none"/>
                </g>
                <g id="dirArrow">
                        <path fill="none" stroke="white" stroke-width="1.5" d="M0,-3.0v7 M-2.5,-0.5L0,-3.0L2.5,-0.5"/>
                </g>
               <g id="resetDef">
                       <use xlink:href="#rim2" fill="#404040">
                               <set attributeName="fill" to="#808080" begin="reset.mouseover" end="reset.mouseout"/>
                       </use>
               </g>
        </defs>

<script type="text/javascript">
var viewWidth = 512;
var viewHeight = 252;
var sectionId = 'dynsection-0';
</script>
<script xlink:href="svgpan.js"/>
<svg id="graph" class="graph">
<g id="viewport">
<title>idPhysics_Base</title>
<polygon fill="white" stroke="white" points="-4,4 -4,-248 508,-248 508,4 -4,4"/>
<!-- Node1 -->
<g id="node1" class="node"><title>Node1</title>
<polygon fill="#bfbfbf" stroke="black" points="220.5,-112.5 220.5,-131.5 307.5,-131.5 307.5,-112.5 220.5,-112.5"/>
<text text-anchor="middle" x="264" y="-119.5" font-family="Arial" font-size="10.00">idPhysics_Base</text>
</g>
<!-- Node4 -->
<g id="node4" class="node"><title>Node4</title>
<g id="a_node4"><a xlink:href="classid_physics___actor.html" target="_top" xlink:title="idPhysics_Actor">
<polygon fill="white" stroke="black" points="63,-56.5 63,-75.5 151,-75.5 151,-56.5 63,-56.5"/>
<text text-anchor="middle" x="107" y="-63.5" font-family="Arial" font-size="10.00">idPhysics_Actor</text>
</a>
</g>
</g>
<!-- Node1&#45;&gt;Node4 -->
<g id="edge5" class="edge"><title>Node1&#45;&gt;Node4</title>
<path fill="none" stroke="midnightblue" d="M224.321,-109.304C193.128,-99.1294 151.155,-84.6246 126.681,-75.5164"/>
<polygon fill="midnightblue" stroke="midnightblue" points="223.442,-112.699 234.034,-112.444 225.595,-106.038 223.442,-112.699"/>
</g>
<!-- Node1&#45;&gt;Node4 -->
<g id="edge10" class="edge"><title>Node1&#45;&gt;Node4</title>
<path fill="none" stroke="midnightblue" d="M234.574,-108.906C206.6,-98.7536 164.958,-84.5063 136.841,-75.5164"/>
<polygon fill="midnightblue" stroke="midnightblue" points="233.618,-112.283 244.212,-112.444 236.03,-105.712 233.618,-112.283"/>
</g>
<!-- Node7 -->
<g id="node7" class="node"><title>Node7</title>
<g id="a_node7"><a xlink:href="classid_physics___a_f.html" target="_top" xlink:title="idPhysics_AF">
<polygon fill="white" stroke="black" points="169.5,-56.5 169.5,-75.5 246.5,-75.5 246.5,-56.5 169.5,-56.5"/>
<text text-anchor="middle" x="208" y="-63.5" font-family="Arial" font-size="10.00">idPhysics_AF</text>
</a>
</g>
</g>
<!-- Node1&#45;&gt;Node7 -->
<g id="edge11" class="edge"><title>Node1&#45;&gt;Node7</title>
<path fill="none" stroke="midnightblue" d="M242.119,-105.82C231.019,-96.1452 218.7,-83.9481 212.012,-75.8339"/>
<polygon fill="midnightblue" stroke="midnightblue" points="239.973,-108.588 249.888,-112.324 244.467,-103.221 239.973,-108.588"/>
</g>
<!-- Node1&#45;&gt;Node7 -->
<g id="edge12" class="edge"><title>Node1&#45;&gt;Node7</title>
<path fill="none" stroke="midnightblue" d="M253.098,-104.431C244.178,-94.9673 231.885,-83.4827 222.206,-75.7511"/>
<polygon fill="midnightblue" stroke="midnightblue" points="250.652,-106.947 259.919,-112.083 255.878,-102.289 250.652,-106.947"/>
</g>
<!-- Node8 -->
<g id="node8" class="node"><title>Node8</title>
<g id="a_node8"><a xlink:href="classid_physics___parametric.html" target="_top" xlink:title="idPhysics_Parametric">
<polygon fill="white" stroke="black" points="265,-56.5 265,-75.5 377,-75.5 377,-56.5 265,-56.5"/>
<text text-anchor="middle" x="321" y="-63.5" font-family="Arial" font-size="10.00">idPhysics_Parametric</text>
</a>
</g>
</g>
<!-- Node1&#45;&gt;Node8 -->
<g id="edge13" class="edge"><title>Node1&#45;&gt;Node8</title>
<path fill="none" stroke="midnightblue" d="M275.208,-104.431C284.304,-94.9673 296.81,-83.4827 306.632,-75.7511"/>
<polygon fill="midnightblue" stroke="midnightblue" points="272.387,-102.331 268.246,-112.083 277.565,-107.042 272.387,-102.331"/>
</g>
<!-- Node1&#45;&gt;Node8 -->
<g id="edge14" class="edge"><title>Node1&#45;&gt;Node8</title>
<path fill="none" stroke="midnightblue" d="M286.162,-105.82C297.441,-96.1452 309.986,-83.9481 316.824,-75.8339"/>
<polygon fill="midnightblue" stroke="midnightblue" points="283.762,-103.262 278.273,-112.324 288.215,-108.663 283.762,-103.262"/>
</g>
<!-- Node9 -->
<g id="node9" class="node"><title>Node9</title>
<g id="a_node9"><a xlink:href="classid_physics___rigid_body.html" target="_top" xlink:title="idPhysics_RigidBody">
<polygon fill="white" stroke="black" points="395.5,-56.5 395.5,-75.5 504.5,-75.5 504.5,-56.5 395.5,-56.5"/>
<text text-anchor="middle" x="450" y="-63.5" font-family="Arial" font-size="10.00">idPhysics_RigidBody</text>
</a>
</g>
</g>
<!-- Node1&#45;&gt;Node9 -->
<g id="edge15" class="edge"><title>Node1&#45;&gt;Node9</title>
<path fill="none" stroke="midnightblue" d="M298.176,-109.436C331.613,-99.2551 382.062,-84.664 415.586,-75.5164"/>
<polygon fill="midnightblue" stroke="midnightblue" points="296.915,-106.162 288.383,-112.444 298.97,-112.854 296.915,-106.162"/>
</g>
<!-- Node1&#45;&gt;Node9 -->
<g id="edge16" class="edge"><title>Node1&#45;&gt;Node9</title>
<path fill="none" stroke="midnightblue" d="M308.538,-109.699C345.321,-99.507 395.998,-84.7429 425.746,-75.5164"/>
<polygon fill="midnightblue" stroke="midnightblue" points="307.274,-106.416 298.561,-112.444 309.131,-113.165 307.274,-106.416"/>
</g>
<!-- Node2 -->
<g id="node2" class="node"><title>Node2</title>
<g id="a_node2"><a xlink:href="classid_physics.html" target="_top" xlink:title="idPhysics">
<polygon fill="white" stroke="black" points="234.5,-168.5 234.5,-187.5 293.5,-187.5 293.5,-168.5 234.5,-168.5"/>
<text text-anchor="middle" x="264" y="-175.5" font-family="Arial" font-size="10.00">idPhysics</text>
</a>
</g>
</g>
<!-- Node2&#45;&gt;Node1 -->
<g id="edge1" class="edge"><title>Node2&#45;&gt;Node1</title>
<path fill="none" stroke="midnightblue" d="M257.528,-158.101C256.896,-149.136 257.343,-138.858 258.869,-131.751"/>
<polygon fill="midnightblue" stroke="midnightblue" points="254.066,-158.622 258.834,-168.083 261.007,-157.713 254.066,-158.622"/>
</g>
<!-- Node2&#45;&gt;Node1 -->
<g id="edge4" class="edge"><title>Node2&#45;&gt;Node1</title>
<path fill="none" stroke="midnightblue" d="M270.472,-158.101C271.104,-149.136 270.657,-138.858 269.131,-131.751"/>
<polygon fill="midnightblue" stroke="midnightblue" points="266.993,-157.713 269.166,-168.083 273.934,-158.622 266.993,-157.713"/>
</g>
<!-- Node3 -->
<g id="node3" class="node"><title>Node3</title>
<g id="a_node3"><a xlink:href="classid_class.html" target="_top" xlink:title="idClass">
<polygon fill="white" stroke="black" points="239.5,-224.5 239.5,-243.5 288.5,-243.5 288.5,-224.5 239.5,-224.5"/>
<text text-anchor="middle" x="264" y="-231.5" font-family="Arial" font-size="10.00">idClass</text>
</a>
</g>
</g>
<!-- Node3&#45;&gt;Node2 -->
<g id="edge2" class="edge"><title>Node3&#45;&gt;Node2</title>
<path fill="none" stroke="midnightblue" d="M257.528,-214.101C256.896,-205.136 257.343,-194.858 258.869,-187.751"/>
<polygon fill="midnightblue" stroke="midnightblue" points="254.066,-214.622 258.834,-224.083 261.007,-213.713 254.066,-214.622"/>
</g>
<!-- Node3&#45;&gt;Node2 -->
<g id="edge3" class="edge"><title>Node3&#45;&gt;Node2</title>
<path fill="none" stroke="midnightblue" d="M270.472,-214.101C271.104,-205.136 270.657,-194.858 269.131,-187.751"/>
<polygon fill="midnightblue" stroke="midnightblue" points="266.993,-213.713 269.166,-224.083 273.934,-214.622 266.993,-213.713"/>
</g>
<!-- Node5 -->
<g id="node5" class="node"><title>Node5</title>
<g id="a_node5"><a xlink:href="classid_physics___monster.html" target="_top" xlink:title="idPhysics_Monster">
<polygon fill="white" stroke="black" points="0,-0.5 0,-19.5 100,-19.5 100,-0.5 0,-0.5"/>
<text text-anchor="middle" x="50" y="-7.5" font-family="Arial" font-size="10.00">idPhysics_Monster</text>
</a>
</g>
</g>
<!-- Node4&#45;&gt;Node5 -->
<g id="edge6" class="edge"><title>Node4&#45;&gt;Node5</title>
<path fill="none" stroke="midnightblue" d="M84.8376,-49.8197C73.5586,-40.1452 61.0139,-27.9481 54.176,-19.8339"/>
<polygon fill="midnightblue" stroke="midnightblue" points="82.7848,-52.6634 92.7271,-56.324 87.2376,-47.2622 82.7848,-52.6634"/>
</g>
<!-- Node4&#45;&gt;Node5 -->
<g id="edge7" class="edge"><title>Node4&#45;&gt;Node5</title>
<path fill="none" stroke="midnightblue" d="M95.7916,-48.4314C86.6958,-38.9673 74.1898,-27.4827 64.3683,-19.7511"/>
<polygon fill="midnightblue" stroke="midnightblue" points="93.4351,-51.0421 102.754,-56.083 98.6126,-46.3311 93.4351,-51.0421"/>
</g>
<!-- Node6 -->
<g id="node6" class="node"><title>Node6</title>
<g id="a_node6"><a xlink:href="classid_physics___player.html" target="_top" xlink:title="idPhysics_Player">
<polygon fill="white" stroke="black" points="118,-0.5 118,-19.5 210,-19.5 210,-0.5 118,-0.5"/>
<text text-anchor="middle" x="164" y="-7.5" font-family="Arial" font-size="10.00">idPhysics_Player</text>
</a>
</g>
</g>
<!-- Node4&#45;&gt;Node6 -->
<g id="edge8" class="edge"><title>Node4&#45;&gt;Node6</title>
<path fill="none" stroke="midnightblue" d="M118.208,-48.4314C127.304,-38.9673 139.81,-27.4827 149.632,-19.7511"/>
<polygon fill="midnightblue" stroke="midnightblue" points="115.387,-46.3311 111.246,-56.083 120.565,-51.0421 115.387,-46.3311"/>
</g>
<!-- Node4&#45;&gt;Node6 -->
<g id="edge9" class="edge"><title>Node4&#45;&gt;Node6</title>
<path fill="none" stroke="midnightblue" d="M129.162,-49.8197C140.441,-40.1452 152.986,-27.9481 159.824,-19.8339"/>
<polygon fill="midnightblue" stroke="midnightblue" points="126.762,-47.2622 121.273,-56.324 131.215,-52.6634 126.762,-47.2622"/>
</g>
</g>
</svg>
        <g id="navigator" transform="translate(0 0)" fill="#404254">
                <rect fill="#f2f5e9" fill-opacity="0.5" stroke="#606060" stroke-width=".5" x="0" y="0" width="60" height="60"/>
                <use id="zoomplus" xlink:href="#zoomPlus" x="17" y="9" onmousedown="handleZoom(evt,'in')"/>
                <use id="zoomminus" xlink:href="#zoomMin" x="42" y="9" onmousedown="handleZoom(evt,'out')"/>
                <use id="reset" xlink:href="#resetDef" x="30" y="36" onmousedown="handleReset()"/>
                <g id="arrowUp" xlink:href="#dirArrow" transform="translate(30 24)" onmousedown="handlePan(0,-1)">
                  <use xlink:href="#rim" fill="#404040">
                        <set attributeName="fill" to="#808080" begin="arrowUp.mouseover" end="arrowUp.mouseout"/>
                  </use>
                  <path fill="none" stroke="white" stroke-width="1.5" d="M0,-3.0v7 M-2.5,-0.5L0,-3.0L2.5,-0.5"/>
                </g>
                <g id="arrowRight" xlink:href="#dirArrow" transform="rotate(90) translate(36 -43)" onmousedown="handlePan(1,0)">
                  <use xlink:href="#rim" fill="#404040">
                        <set attributeName="fill" to="#808080" begin="arrowRight.mouseover" end="arrowRight.mouseout"/>
                  </use>
                  <path fill="none" stroke="white" stroke-width="1.5" d="M0,-3.0v7 M-2.5,-0.5L0,-3.0L2.5,-0.5"/>
                </g>
                <g id="arrowDown" xlink:href="#dirArrow" transform="rotate(180) translate(-30 -48)" onmousedown="handlePan(0,1)">
                  <use xlink:href="#rim" fill="#404040">
                        <set attributeName="fill" to="#808080" begin="arrowDown.mouseover" end="arrowDown.mouseout"/>
                  </use>
                  <path fill="none" stroke="white" stroke-width="1.5" d="M0,-3.0v7 M-2.5,-0.5L0,-3.0L2.5,-0.5"/>
                </g>
                <g id="arrowLeft" xlink:href="#dirArrow" transform="rotate(270) translate(-36 17)" onmousedown="handlePan(-1,0)">
                  <use xlink:href="#rim" fill="#404040">
                        <set attributeName="fill" to="#808080" begin="arrowLeft.mouseover" end="arrowLeft.mouseout"/>
                  </use>
                  <path fill="none" stroke="white" stroke-width="1.5" d="M0,-3.0v7 M-2.5,-0.5L0,-3.0L2.5,-0.5"/>
                </g>
        </g>
        <svg viewBox="0 0 15 15" width="100%" height="30px" preserveAspectRatio="xMaxYMin meet">
         <g id="arrow_out" transform="scale(0.3 0.3)">
          <a xlink:href="classid_physics___base__inherit__graph_org.svg" target="_base">
           <rect id="button" ry="5" rx="5" y="6" x="6" height="38" width="38"
                fill="#f2f5e9" fill-opacity="0.5" stroke="#606060" stroke-width="1.0"/>
           <path id="arrow"
             d="M 11.500037,31.436501 C 11.940474,20.09759 22.043105,11.32322 32.158766,21.979434 L 37.068811,17.246167 C 37.068811,17.246167 37.088388,32 37.088388,32 L 22.160133,31.978069 C 22.160133,31.978069 26.997745,27.140456 26.997745,27.140456 C 18.528582,18.264221 13.291696,25.230495 11.500037,31.436501 z"
             style="fill:#404040;"/>
          </a>
         </g>
        </svg>
</svg>
