<?xml version="1.0" encoding="UTF-8" standalone="no"?>
<!DOCTYPE svg PUBLIC "-//W3C//DTD SVG 1.1//EN"
 "http://www.w3.org/Graphics/SVG/1.1/DTD/svg11.dtd">
<!-- Generated by graphviz version 2.34.0 (20130907.0111)
 -->
<!-- Title: idWaveFile Pages: 1 -->
<svg width="126pt" height="164pt"
 viewBox="0.00 0.00 126.00 164.00" xmlns="http://www.w3.org/2000/svg" xmlns:xlink="http://www.w3.org/1999/xlink">
<g id="graph0" class="graph" transform="scale(1 1) rotate(0) translate(4 160)">
<title>idWaveFile</title>
<polygon fill="white" stroke="white" points="-4,4 -4,-160 122,-160 122,4 -4,4"/>
<!-- Node1 -->
<g id="node1" class="node"><title>Node1</title>
<polygon fill="#bfbfbf" stroke="black" points="27,-0.5 27,-19.5 91,-19.5 91,-0.5 27,-0.5"/>
<text text-anchor="middle" x="59" y="-7.5" font-family="Arial" font-size="10.00">idWaveFile</text>
</g>
<!-- Node2 -->
<g id="node2" class="node"><title>Node2</title>
<g id="a_node2"><a xlink:href="structwaveformatextensible__s.html" target="_top" xlink:title="waveformatextensible_s">
<polygon fill="white" stroke="black" points="-0.5,-68.5 -0.5,-87.5 118.5,-87.5 118.5,-68.5 -0.5,-68.5"/>
<text text-anchor="middle" x="59" y="-75.5" font-family="Arial" font-size="10.00">waveformatextensible_s</text>
</a>
</g>
</g>
<!-- Node2&#45;&gt;Node1 -->
<g id="edge1" class="edge"><title>Node2&#45;&gt;Node1</title>
<path fill="none" stroke="#9a32cd" stroke-dasharray="5,2" d="M59,-58.0413C59,-45.4724 59,-29.5631 59,-19.8411"/>
<polygon fill="#9a32cd" stroke="#9a32cd" points="55.5001,-58.3716 59,-68.3717 62.5001,-58.3717 55.5001,-58.3716"/>
<text text-anchor="middle" x="74.5" y="-41.5" font-family="Arial" font-size="10.00"> mpwfx</text>
</g>
<!-- Node3 -->
<g id="node3" class="node"><title>Node3</title>
<g id="a_node3"><a xlink:href="structwaveformatex__s.html" target="_top" xlink:title="waveformatex_s">
<polygon fill="white" stroke="black" points="16,-136.5 16,-155.5 102,-155.5 102,-136.5 16,-136.5"/>
<text text-anchor="middle" x="59" y="-143.5" font-family="Arial" font-size="10.00">waveformatex_s</text>
</a>
</g>
</g>
<!-- Node3&#45;&gt;Node2 -->
<g id="edge2" class="edge"><title>Node3&#45;&gt;Node2</title>
<path fill="none" stroke="#9a32cd" stroke-dasharray="5,2" d="M59,-126.041C59,-113.472 59,-97.5631 59,-87.8411"/>
<polygon fill="#9a32cd" stroke="#9a32cd" points="55.5001,-126.372 59,-136.372 62.5001,-126.372 55.5001,-126.372"/>
<text text-anchor="middle" x="76" y="-109.5" font-family="Arial" font-size="10.00"> Format</text>
</g>
</g>
</svg>
