<?xml version="1.0" encoding="UTF-8" standalone="no"?>
<!DOCTYPE svg PUBLIC "-//W3C//DTD SVG 1.1//EN"
 "http://www.w3.org/Graphics/SVG/1.1/DTD/svg11.dtd">
<!-- Generated by graphviz version 2.34.0 (20130907.0111)
 -->
<!-- Title: idPhysics_Monster Pages: 1 -->
<svg width="108pt" height="252pt"
 viewBox="0.00 0.00 108.00 252.00" xmlns="http://www.w3.org/2000/svg" xmlns:xlink="http://www.w3.org/1999/xlink">
<g id="graph0" class="graph" transform="scale(1 1) rotate(0) translate(4 248)">
<title>idPhysics_Monster</title>
<polygon fill="white" stroke="white" points="-4,4 -4,-248 104,-248 104,4 -4,4"/>
<!-- Node1 -->
<g id="node1" class="node"><title>Node1</title>
<polygon fill="#bfbfbf" stroke="black" points="0,-0.5 0,-19.5 100,-19.5 100,-0.5 0,-0.5"/>
<text text-anchor="middle" x="50" y="-7.5" font-family="Arial" font-size="10.00">idPhysics_Monster</text>
</g>
<!-- Node2 -->
<g id="node2" class="node"><title>Node2</title>
<g id="a_node2"><a xlink:href="classid_physics___actor.html" target="_top" xlink:title="idPhysics_Actor">
<polygon fill="white" stroke="black" points="6,-56.5 6,-75.5 94,-75.5 94,-56.5 6,-56.5"/>
<text text-anchor="middle" x="50" y="-63.5" font-family="Arial" font-size="10.00">idPhysics_Actor</text>
</a>
</g>
</g>
<!-- Node2&#45;&gt;Node1 -->
<g id="edge1" class="edge"><title>Node2&#45;&gt;Node1</title>
<path fill="none" stroke="midnightblue" d="M43.5276,-46.1005C42.8956,-37.1357 43.3427,-26.8579 44.869,-19.7511"/>
<polygon fill="midnightblue" stroke="midnightblue" points="40.0658,-46.6216 44.8337,-56.083 47.0067,-45.7134 40.0658,-46.6216"/>
</g>
<!-- Node2&#45;&gt;Node1 -->
<g id="edge8" class="edge"><title>Node2&#45;&gt;Node1</title>
<path fill="none" stroke="midnightblue" d="M56.4724,-46.1005C57.1044,-37.1357 56.6573,-26.8579 55.131,-19.7511"/>
<polygon fill="midnightblue" stroke="midnightblue" points="52.9933,-45.7134 55.1663,-56.083 59.9342,-46.6216 52.9933,-45.7134"/>
</g>
<!-- Node3 -->
<g id="node3" class="node"><title>Node3</title>
<g id="a_node3"><a xlink:href="classid_physics___base.html" target="_top" xlink:title="idPhysics_Base">
<polygon fill="white" stroke="black" points="6.5,-112.5 6.5,-131.5 93.5,-131.5 93.5,-112.5 6.5,-112.5"/>
<text text-anchor="middle" x="50" y="-119.5" font-family="Arial" font-size="10.00">idPhysics_Base</text>
</a>
</g>
</g>
<!-- Node3&#45;&gt;Node2 -->
<g id="edge2" class="edge"><title>Node3&#45;&gt;Node2</title>
<path fill="none" stroke="midnightblue" d="M43.5276,-102.101C42.8956,-93.1357 43.3427,-82.8579 44.869,-75.7511"/>
<polygon fill="midnightblue" stroke="midnightblue" points="40.0658,-102.622 44.8337,-112.083 47.0067,-101.713 40.0658,-102.622"/>
</g>
<!-- Node3&#45;&gt;Node2 -->
<g id="edge7" class="edge"><title>Node3&#45;&gt;Node2</title>
<path fill="none" stroke="midnightblue" d="M56.4724,-102.101C57.1044,-93.1357 56.6573,-82.8579 55.131,-75.7511"/>
<polygon fill="midnightblue" stroke="midnightblue" points="52.9933,-101.713 55.1663,-112.083 59.9342,-102.622 52.9933,-101.713"/>
</g>
<!-- Node4 -->
<g id="node4" class="node"><title>Node4</title>
<g id="a_node4"><a xlink:href="classid_physics.html" target="_top" xlink:title="idPhysics">
<polygon fill="white" stroke="black" points="20.5,-168.5 20.5,-187.5 79.5,-187.5 79.5,-168.5 20.5,-168.5"/>
<text text-anchor="middle" x="50" y="-175.5" font-family="Arial" font-size="10.00">idPhysics</text>
</a>
</g>
</g>
<!-- Node4&#45;&gt;Node3 -->
<g id="edge3" class="edge"><title>Node4&#45;&gt;Node3</title>
<path fill="none" stroke="midnightblue" d="M43.5276,-158.101C42.8956,-149.136 43.3427,-138.858 44.869,-131.751"/>
<polygon fill="midnightblue" stroke="midnightblue" points="40.0658,-158.622 44.8337,-168.083 47.0067,-157.713 40.0658,-158.622"/>
</g>
<!-- Node4&#45;&gt;Node3 -->
<g id="edge6" class="edge"><title>Node4&#45;&gt;Node3</title>
<path fill="none" stroke="midnightblue" d="M56.4724,-158.101C57.1044,-149.136 56.6573,-138.858 55.131,-131.751"/>
<polygon fill="midnightblue" stroke="midnightblue" points="52.9933,-157.713 55.1663,-168.083 59.9342,-158.622 52.9933,-157.713"/>
</g>
<!-- Node5 -->
<g id="node5" class="node"><title>Node5</title>
<g id="a_node5"><a xlink:href="classid_class.html" target="_top" xlink:title="idClass">
<polygon fill="white" stroke="black" points="25.5,-224.5 25.5,-243.5 74.5,-243.5 74.5,-224.5 25.5,-224.5"/>
<text text-anchor="middle" x="50" y="-231.5" font-family="Arial" font-size="10.00">idClass</text>
</a>
</g>
</g>
<!-- Node5&#45;&gt;Node4 -->
<g id="edge4" class="edge"><title>Node5&#45;&gt;Node4</title>
<path fill="none" stroke="midnightblue" d="M43.5276,-214.101C42.8956,-205.136 43.3427,-194.858 44.869,-187.751"/>
<polygon fill="midnightblue" stroke="midnightblue" points="40.0658,-214.622 44.8337,-224.083 47.0067,-213.713 40.0658,-214.622"/>
</g>
<!-- Node5&#45;&gt;Node4 -->
<g id="edge5" class="edge"><title>Node5&#45;&gt;Node4</title>
<path fill="none" stroke="midnightblue" d="M56.4724,-214.101C57.1044,-205.136 56.6573,-194.858 55.131,-187.751"/>
<polygon fill="midnightblue" stroke="midnightblue" points="52.9933,-213.713 55.1663,-224.083 59.9342,-214.622 52.9933,-213.713"/>
</g>
</g>
</svg>
