<?xml version="1.0" encoding="UTF-8" standalone="no"?>
<!DOCTYPE svg PUBLIC "-//W3C//DTD SVG 1.1//EN"
 "http://www.w3.org/Graphics/SVG/1.1/DTD/svg11.dtd">
<!-- Generated by graphviz version 2.34.0 (20130907.0111)
 -->
<!-- Title: idMover_Periodic Pages: 1 -->
<svg width="289pt" height="196pt"
 viewBox="0.00 0.00 289.00 196.00" xmlns="http://www.w3.org/2000/svg" xmlns:xlink="http://www.w3.org/1999/xlink">
<g id="graph0" class="graph" transform="scale(1 1) rotate(0) translate(4 192)">
<title>idMover_Periodic</title>
<polygon fill="white" stroke="white" points="-4,4 -4,-192 285,-192 285,4 -4,4"/>
<!-- Node1 -->
<g id="node1" class="node"><title>Node1</title>
<polygon fill="#bfbfbf" stroke="black" points="100,-56.5 100,-75.5 190,-75.5 190,-56.5 100,-56.5"/>
<text text-anchor="middle" x="145" y="-63.5" font-family="Arial" font-size="10.00">idMover_Periodic</text>
</g>
<!-- Node4 -->
<g id="node4" class="node"><title>Node4</title>
<g id="a_node4"><a xlink:href="classid_bobber.html" target="_top" xlink:title="idBobber">
<polygon fill="white" stroke="black" points="-0.5,-0.5 -0.5,-19.5 54.5,-19.5 54.5,-0.5 -0.5,-0.5"/>
<text text-anchor="middle" x="27" y="-7.5" font-family="Arial" font-size="10.00">idBobber</text>
</a>
</g>
</g>
<!-- Node1&#45;&gt;Node4 -->
<g id="edge5" class="edge"><title>Node1&#45;&gt;Node4</title>
<path fill="none" stroke="midnightblue" d="M111.895,-52.503C88.2967,-42.3795 57.9616,-28.388 40.53,-19.5164"/>
<polygon fill="midnightblue" stroke="midnightblue" points="110.64,-55.7724 121.214,-56.4435 113.367,-49.3252 110.64,-55.7724"/>
</g>
<!-- Node1&#45;&gt;Node4 -->
<g id="edge6" class="edge"><title>Node1&#45;&gt;Node4</title>
<path fill="none" stroke="midnightblue" d="M122.179,-51.8622C101.667,-41.8492 71.9002,-28.3458 51.0218,-19.6545"/>
<polygon fill="midnightblue" stroke="midnightblue" points="120.643,-55.0075 131.156,-56.324 123.759,-48.739 120.643,-55.0075"/>
</g>
<!-- Node5 -->
<g id="node5" class="node"><title>Node5</title>
<g id="a_node5"><a xlink:href="classid_pendulum.html" target="_top" xlink:title="idPendulum">
<polygon fill="white" stroke="black" points="73,-0.5 73,-19.5 141,-19.5 141,-0.5 73,-0.5"/>
<text text-anchor="middle" x="107" y="-7.5" font-family="Arial" font-size="10.00">idPendulum</text>
</a>
</g>
</g>
<!-- Node1&#45;&gt;Node5 -->
<g id="edge7" class="edge"><title>Node1&#45;&gt;Node5</title>
<path fill="none" stroke="midnightblue" d="M127.06,-48.4314C119.506,-38.9673 111.807,-27.4827 108.027,-19.7511"/>
<polygon fill="midnightblue" stroke="midnightblue" points="124.417,-50.7269 133.559,-56.083 129.753,-46.1953 124.417,-50.7269"/>
</g>
<!-- Node1&#45;&gt;Node5 -->
<g id="edge8" class="edge"><title>Node1&#45;&gt;Node5</title>
<path fill="none" stroke="midnightblue" d="M138.909,-47.2747C133.174,-38.0454 125.103,-27.1703 118.289,-19.7511"/>
<polygon fill="midnightblue" stroke="midnightblue" points="135.922,-49.1019 143.891,-56.083 142.015,-45.6557 135.922,-49.1019"/>
</g>
<!-- Node6 -->
<g id="node6" class="node"><title>Node6</title>
<g id="a_node6"><a xlink:href="classid_riser.html" target="_top" xlink:title="idRiser">
<polygon fill="white" stroke="black" points="159.5,-0.5 159.5,-19.5 206.5,-19.5 206.5,-0.5 159.5,-0.5"/>
<text text-anchor="middle" x="183" y="-7.5" font-family="Arial" font-size="10.00">idRiser</text>
</a>
</g>
</g>
<!-- Node1&#45;&gt;Node6 -->
<g id="edge9" class="edge"><title>Node1&#45;&gt;Node6</title>
<path fill="none" stroke="midnightblue" d="M151.091,-47.2747C156.826,-38.0454 164.897,-27.1703 171.711,-19.7511"/>
<polygon fill="midnightblue" stroke="midnightblue" points="147.985,-45.6557 146.109,-56.083 154.078,-49.1019 147.985,-45.6557"/>
</g>
<!-- Node1&#45;&gt;Node6 -->
<g id="edge10" class="edge"><title>Node1&#45;&gt;Node6</title>
<path fill="none" stroke="midnightblue" d="M162.94,-48.4314C170.494,-38.9673 178.193,-27.4827 181.973,-19.7511"/>
<polygon fill="midnightblue" stroke="midnightblue" points="160.247,-46.1953 156.441,-56.083 165.583,-50.7269 160.247,-46.1953"/>
</g>
<!-- Node7 -->
<g id="node7" class="node"><title>Node7</title>
<g id="a_node7"><a xlink:href="classid_rotater.html" target="_top" xlink:title="idRotater">
<polygon fill="white" stroke="black" points="225,-0.5 225,-19.5 281,-19.5 281,-0.5 225,-0.5"/>
<text text-anchor="middle" x="253" y="-7.5" font-family="Arial" font-size="10.00">idRotater</text>
</a>
</g>
</g>
<!-- Node1&#45;&gt;Node7 -->
<g id="edge11" class="edge"><title>Node1&#45;&gt;Node7</title>
<path fill="none" stroke="midnightblue" d="M166.153,-51.4526C184.785,-41.4835 211.574,-28.2279 230.581,-19.6545"/>
<polygon fill="midnightblue" stroke="midnightblue" points="164.335,-48.4576 157.237,-56.324 167.691,-54.6005 164.335,-48.4576"/>
</g>
<!-- Node1&#45;&gt;Node7 -->
<g id="edge12" class="edge"><title>Node1&#45;&gt;Node7</title>
<path fill="none" stroke="midnightblue" d="M176.372,-52.2321C198.007,-42.1312 225.399,-28.3091 241.047,-19.5164"/>
<polygon fill="midnightblue" stroke="midnightblue" points="174.828,-49.0893 167.202,-56.4435 177.75,-55.4505 174.828,-49.0893"/>
</g>
<!-- Node2 -->
<g id="node2" class="node"><title>Node2</title>
<g id="a_node2"><a xlink:href="classid_entity.html" target="_top" xlink:title="idEntity">
<polygon fill="white" stroke="black" points="120,-112.5 120,-131.5 170,-131.5 170,-112.5 120,-112.5"/>
<text text-anchor="middle" x="145" y="-119.5" font-family="Arial" font-size="10.00">idEntity</text>
</a>
</g>
</g>
<!-- Node2&#45;&gt;Node1 -->
<g id="edge1" class="edge"><title>Node2&#45;&gt;Node1</title>
<path fill="none" stroke="midnightblue" d="M138.528,-102.101C137.896,-93.1357 138.343,-82.8579 139.869,-75.7511"/>
<polygon fill="midnightblue" stroke="midnightblue" points="135.066,-102.622 139.834,-112.083 142.007,-101.713 135.066,-102.622"/>
</g>
<!-- Node2&#45;&gt;Node1 -->
<g id="edge4" class="edge"><title>Node2&#45;&gt;Node1</title>
<path fill="none" stroke="midnightblue" d="M151.472,-102.101C152.104,-93.1357 151.657,-82.8579 150.131,-75.7511"/>
<polygon fill="midnightblue" stroke="midnightblue" points="147.993,-101.713 150.166,-112.083 154.934,-102.622 147.993,-101.713"/>
</g>
<!-- Node3 -->
<g id="node3" class="node"><title>Node3</title>
<g id="a_node3"><a xlink:href="classid_class.html" target="_top" xlink:title="idClass">
<polygon fill="white" stroke="black" points="120.5,-168.5 120.5,-187.5 169.5,-187.5 169.5,-168.5 120.5,-168.5"/>
<text text-anchor="middle" x="145" y="-175.5" font-family="Arial" font-size="10.00">idClass</text>
</a>
</g>
</g>
<!-- Node3&#45;&gt;Node2 -->
<g id="edge2" class="edge"><title>Node3&#45;&gt;Node2</title>
<path fill="none" stroke="midnightblue" d="M138.528,-158.101C137.896,-149.136 138.343,-138.858 139.869,-131.751"/>
<polygon fill="midnightblue" stroke="midnightblue" points="135.066,-158.622 139.834,-168.083 142.007,-157.713 135.066,-158.622"/>
</g>
<!-- Node3&#45;&gt;Node2 -->
<g id="edge3" class="edge"><title>Node3&#45;&gt;Node2</title>
<path fill="none" stroke="midnightblue" d="M151.472,-158.101C152.104,-149.136 151.657,-138.858 150.131,-131.751"/>
<polygon fill="midnightblue" stroke="midnightblue" points="147.993,-157.713 150.166,-168.083 154.934,-158.622 147.993,-157.713"/>
</g>
</g>
</svg>
