<?xml version="1.0" encoding="UTF-8" standalone="no"?>
<!DOCTYPE svg PUBLIC "-//W3C//DTD SVG 1.1//EN"
 "http://www.w3.org/Graphics/SVG/1.1/DTD/svg11.dtd">
<!-- Generated by graphviz version 2.34.0 (20130907.0111)
 -->
<!-- Title: SoundFX Pages: 1 -->
<svg width="348pt" height="84pt"
 viewBox="0.00 0.00 348.00 84.00" xmlns="http://www.w3.org/2000/svg" xmlns:xlink="http://www.w3.org/1999/xlink">
<g id="graph0" class="graph" transform="scale(1 1) rotate(0) translate(4 80)">
<title>SoundFX</title>
<polygon fill="white" stroke="white" points="-4,4 -4,-80 344,-80 344,4 -4,4"/>
<!-- Node1 -->
<g id="node1" class="node"><title>Node1</title>
<polygon fill="#bfbfbf" stroke="black" points="126,-56.5 126,-75.5 182,-75.5 182,-56.5 126,-56.5"/>
<text text-anchor="middle" x="154" y="-63.5" font-family="Arial" font-size="10.00">SoundFX</text>
</g>
<!-- Node2 -->
<g id="node2" class="node"><title>Node2</title>
<g id="a_node2"><a xlink:href="class_sound_f_x___comb.html" target="_top" xlink:title="SoundFX_Comb">
<polygon fill="white" stroke="black" points="0,-0.5 0,-19.5 86,-19.5 86,-0.5 0,-0.5"/>
<text text-anchor="middle" x="43" y="-7.5" font-family="Arial" font-size="10.00">SoundFX_Comb</text>
</a>
</g>
</g>
<!-- Node1&#45;&gt;Node2 -->
<g id="edge1" class="edge"><title>Node1&#45;&gt;Node2</title>
<path fill="none" stroke="midnightblue" d="M126.995,-51.8622C106.412,-41.8492 78.6553,-28.3458 60.7898,-19.6545"/>
<polygon fill="midnightblue" stroke="midnightblue" points="125.642,-55.0966 136.166,-56.324 128.705,-48.8019 125.642,-55.0966"/>
</g>
<!-- Node3 -->
<g id="node3" class="node"><title>Node3</title>
<g id="a_node3"><a xlink:href="class_sound_f_x___lowpass.html" target="_top" xlink:title="SoundFX_Lowpass">
<polygon fill="white" stroke="black" points="104.5,-0.5 104.5,-19.5 203.5,-19.5 203.5,-0.5 104.5,-0.5"/>
<text text-anchor="middle" x="154" y="-7.5" font-family="Arial" font-size="10.00">SoundFX_Lowpass</text>
</a>
</g>
</g>
<!-- Node1&#45;&gt;Node3 -->
<g id="edge2" class="edge"><title>Node1&#45;&gt;Node3</title>
<path fill="none" stroke="midnightblue" d="M154,-45.8045C154,-36.9102 154,-26.7798 154,-19.7511"/>
<polygon fill="midnightblue" stroke="midnightblue" points="150.5,-46.083 154,-56.083 157.5,-46.083 150.5,-46.083"/>
</g>
<!-- Node4 -->
<g id="node4" class="node"><title>Node4</title>
<g id="a_node4"><a xlink:href="class_sound_f_x___lowpass_fast.html" target="_top" xlink:title="SoundFX_LowpassFast">
<polygon fill="white" stroke="black" points="221.5,-0.5 221.5,-19.5 340.5,-19.5 340.5,-0.5 221.5,-0.5"/>
<text text-anchor="middle" x="281" y="-7.5" font-family="Arial" font-size="10.00">SoundFX_LowpassFast</text>
</a>
</g>
</g>
<!-- Node1&#45;&gt;Node4 -->
<g id="edge3" class="edge"><title>Node1&#45;&gt;Node4</title>
<path fill="none" stroke="midnightblue" d="M183.391,-52.503C207.2,-42.3795 240.106,-28.388 260.971,-19.5164"/>
<polygon fill="midnightblue" stroke="midnightblue" points="181.957,-49.3096 174.124,-56.4435 184.696,-55.7515 181.957,-49.3096"/>
</g>
</g>
</svg>
