<?xml version="1.0" encoding="UTF-8" standalone="no"?>
<!DOCTYPE svg PUBLIC "-//W3C//DTD SVG 1.1//EN"
 "http://www.w3.org/Graphics/SVG/1.1/DTD/svg11.dtd">
<!-- Generated by graphviz version 2.34.0 (20130907.0111)
 -->
<!-- Title: idAFConstraint_Plane Pages: 1 -->
<svg width="118pt" height="84pt"
 viewBox="0.00 0.00 118.00 84.00" xmlns="http://www.w3.org/2000/svg" xmlns:xlink="http://www.w3.org/1999/xlink">
<g id="graph0" class="graph" transform="scale(1 1) rotate(0) translate(4 80)">
<title>idAFConstraint_Plane</title>
<polygon fill="white" stroke="white" points="-4,4 -4,-80 114,-80 114,4 -4,4"/>
<!-- Node1 -->
<g id="node1" class="node"><title>Node1</title>
<polygon fill="#bfbfbf" stroke="black" points="-0.5,-0.5 -0.5,-19.5 110.5,-19.5 110.5,-0.5 -0.5,-0.5"/>
<text text-anchor="middle" x="55" y="-7.5" font-family="Arial" font-size="10.00">idAFConstraint_Plane</text>
</g>
<!-- Node2 -->
<g id="node2" class="node"><title>Node2</title>
<g id="a_node2"><a xlink:href="classid_a_f_constraint.html" target="_top" xlink:title="idAFConstraint">
<polygon fill="white" stroke="black" points="14.5,-56.5 14.5,-75.5 95.5,-75.5 95.5,-56.5 14.5,-56.5"/>
<text text-anchor="middle" x="55" y="-63.5" font-family="Arial" font-size="10.00">idAFConstraint</text>
</a>
</g>
</g>
<!-- Node2&#45;&gt;Node1 -->
<g id="edge1" class="edge"><title>Node2&#45;&gt;Node1</title>
<path fill="none" stroke="midnightblue" d="M48.5276,-46.1005C47.8956,-37.1357 48.3427,-26.8579 49.869,-19.7511"/>
<polygon fill="midnightblue" stroke="midnightblue" points="45.0658,-46.6216 49.8337,-56.083 52.0067,-45.7134 45.0658,-46.6216"/>
</g>
<!-- Node2&#45;&gt;Node1 -->
<g id="edge2" class="edge"><title>Node2&#45;&gt;Node1</title>
<path fill="none" stroke="midnightblue" d="M61.4724,-46.1005C62.1044,-37.1357 61.6573,-26.8579 60.131,-19.7511"/>
<polygon fill="midnightblue" stroke="midnightblue" points="57.9933,-45.7134 60.1663,-56.083 64.9342,-46.6216 57.9933,-45.7134"/>
</g>
</g>
</svg>
