<?xml version="1.0" encoding="UTF-8" standalone="no"?>
<!DOCTYPE svg PUBLIC "-//W3C//DTD SVG 1.1//EN"
 "http://www.w3.org/Graphics/SVG/1.1/DTD/svg11.dtd">
<!-- Generated by graphviz version 2.34.0 (20130907.0111)
 -->
<!-- Title: DialogScriptEditor Pages: 1 -->
<svg width="384pt" height="164pt"
 viewBox="0.00 0.00 384.00 164.00" xmlns="http://www.w3.org/2000/svg" xmlns:xlink="http://www.w3.org/1999/xlink">
<g id="graph0" class="graph" transform="scale(1 1) rotate(0) translate(4 160)">
<title>DialogScriptEditor</title>
<polygon fill="white" stroke="white" points="-4,4 -4,-160 380,-160 380,4 -4,4"/>
<!-- Node1 -->
<g id="node1" class="node"><title>Node1</title>
<polygon fill="#bfbfbf" stroke="black" points="99.5,-0.5 99.5,-19.5 194.5,-19.5 194.5,-0.5 99.5,-0.5"/>
<text text-anchor="middle" x="147" y="-7.5" font-family="Arial" font-size="10.00">DialogScriptEditor</text>
</g>
<!-- Node2 -->
<g id="node2" class="node"><title>Node2</title>
<polygon fill="white" stroke="#bfbfbf" points="22,-68.5 22,-87.5 72,-87.5 72,-68.5 22,-68.5"/>
<text text-anchor="middle" x="47" y="-75.5" font-family="Arial" font-size="10.00">CDialog</text>
</g>
<!-- Node2&#45;&gt;Node1 -->
<g id="edge1" class="edge"><title>Node2&#45;&gt;Node1</title>
<path fill="none" stroke="midnightblue" d="M68.4981,-62.8113C88.3844,-49.6863 117.302,-30.6004 133.924,-19.6305"/>
<polygon fill="midnightblue" stroke="midnightblue" points="66.4914,-59.942 60.0733,-68.3717 70.3473,-65.7843 66.4914,-59.942"/>
</g>
<!-- Node3 -->
<g id="node3" class="node"><title>Node3</title>
<g id="a_node3"><a xlink:href="classid_str.html" target="_top" xlink:title="idStr">
<polygon fill="white" stroke="black" points="90.5,-68.5 90.5,-87.5 127.5,-87.5 127.5,-68.5 90.5,-68.5"/>
<text text-anchor="middle" x="109" y="-75.5" font-family="Arial" font-size="10.00">idStr</text>
</a>
</g>
</g>
<!-- Node3&#45;&gt;Node1 -->
<g id="edge2" class="edge"><title>Node3&#45;&gt;Node1</title>
<path fill="none" stroke="#9a32cd" stroke-dasharray="5,2" d="M114.013,-58.5646C116.25,-51.8381 119.241,-44.3332 123,-38 126.969,-31.3124 132.724,-24.7687 137.604,-19.7985"/>
<polygon fill="#9a32cd" stroke="#9a32cd" points="110.639,-57.6301 111.118,-68.2141 117.344,-59.6418 110.639,-57.6301"/>
<text text-anchor="middle" x="143.5" y="-41.5" font-family="Arial" font-size="10.00"> fileName</text>
</g>
<!-- Node4 -->
<g id="node4" class="node"><title>Node4</title>
<g id="a_node4"><a xlink:href="class_c_syntax_rich_edit_ctrl.html" target="_top" xlink:title="CSyntaxRichEditCtrl">
<polygon fill="white" stroke="black" points="146,-68.5 146,-87.5 252,-87.5 252,-68.5 146,-68.5"/>
<text text-anchor="middle" x="199" y="-75.5" font-family="Arial" font-size="10.00">CSyntaxRichEditCtrl</text>
</a>
</g>
</g>
<!-- Node4&#45;&gt;Node1 -->
<g id="edge3" class="edge"><title>Node4&#45;&gt;Node1</title>
<path fill="none" stroke="#9a32cd" stroke-dasharray="5,2" d="M185.85,-60.3101C175.713,-47.4437 162.094,-30.1583 153.966,-19.8411"/>
<polygon fill="#9a32cd" stroke="#9a32cd" points="183.264,-62.6828 192.202,-68.3717 188.762,-58.3506 183.264,-62.6828"/>
<text text-anchor="middle" x="200.5" y="-41.5" font-family="Arial" font-size="10.00"> scriptEdit</text>
</g>
<!-- Node5 -->
<g id="node5" class="node"><title>Node5</title>
<polygon fill="white" stroke="#bfbfbf" points="-0.5,-136.5 -0.5,-155.5 74.5,-155.5 74.5,-136.5 -0.5,-136.5"/>
<text text-anchor="middle" x="37" y="-143.5" font-family="Arial" font-size="10.00">CRichEditCtrl</text>
</g>
<!-- Node5&#45;&gt;Node4 -->
<g id="edge4" class="edge"><title>Node5&#45;&gt;Node4</title>
<path fill="none" stroke="midnightblue" d="M67.5932,-132.536C99.9085,-119.371 149.989,-98.9673 178.073,-87.5259"/>
<polygon fill="midnightblue" stroke="midnightblue" points="66.119,-129.357 58.1787,-136.372 68.7602,-135.84 66.119,-129.357"/>
</g>
<!-- Node6 -->
<g id="node6" class="node"><title>Node6</title>
<g id="a_node6"><a xlink:href="classid_list.html" target="_top" xlink:title="idList\&lt; keyWord_t \&gt;">
<polygon fill="white" stroke="black" points="92.5,-136.5 92.5,-155.5 197.5,-155.5 197.5,-136.5 92.5,-136.5"/>
<text text-anchor="middle" x="145" y="-143.5" font-family="Arial" font-size="10.00">idList&lt; keyWord_t &gt;</text>
</a>
</g>
</g>
<!-- Node6&#45;&gt;Node4 -->
<g id="edge5" class="edge"><title>Node6&#45;&gt;Node4</title>
<path fill="none" stroke="#9a32cd" stroke-dasharray="5,2" d="M141.644,-125.829C141.422,-119.109 142.343,-111.799 146,-106 151.343,-97.5273 160.246,-91.5989 169.245,-87.5032"/>
<polygon fill="#9a32cd" stroke="#9a32cd" points="138.216,-126.666 142.818,-136.209 145.172,-125.88 138.216,-126.666"/>
<text text-anchor="middle" x="189" y="-109.5" font-family="Arial" font-size="10.00"> keyWordsFromFile</text>
</g>
<!-- Node7 -->
<g id="node7" class="node"><title>Node7</title>
<g id="a_node7"><a xlink:href="structkey_word__t.html" target="_top" xlink:title="keyWord_t">
<polygon fill="white" stroke="black" points="222,-136.5 222,-155.5 286,-155.5 286,-136.5 222,-136.5"/>
<text text-anchor="middle" x="254" y="-143.5" font-family="Arial" font-size="10.00">keyWord_t</text>
</a>
</g>
</g>
<!-- Node7&#45;&gt;Node4 -->
<g id="edge6" class="edge"><title>Node7&#45;&gt;Node4</title>
<path fill="none" stroke="#9a32cd" stroke-dasharray="5,2" d="M245.671,-127.048C242.002,-120.099 237.312,-112.315 232,-106 226.091,-98.9756 218.164,-92.4213 211.56,-87.5299"/>
<polygon fill="#9a32cd" stroke="#9a32cd" points="242.706,-128.946 250.272,-136.362 248.982,-125.846 242.706,-128.946"/>
<text text-anchor="middle" x="265" y="-109.5" font-family="Arial" font-size="10.00"> keyWords</text>
</g>
<!-- Node8 -->
<g id="node8" class="node"><title>Node8</title>
<g id="a_node8"><a xlink:href="classid_hash_index.html" target="_top" xlink:title="idHashIndex">
<polygon fill="white" stroke="black" points="304,-136.5 304,-155.5 374,-155.5 374,-136.5 304,-136.5"/>
<text text-anchor="middle" x="339" y="-143.5" font-family="Arial" font-size="10.00">idHashIndex</text>
</a>
</g>
</g>
<!-- Node8&#45;&gt;Node4 -->
<g id="edge7" class="edge"><title>Node8&#45;&gt;Node4</title>
<path fill="none" stroke="#9a32cd" stroke-dasharray="5,2" d="M323.799,-129.234C315.374,-121.283 304.332,-112.066 293,-106 277.581,-97.7467 259.353,-91.764 243.072,-87.5608"/>
<polygon fill="#9a32cd" stroke="#9a32cd" points="321.417,-131.8 330.997,-136.324 326.329,-126.813 321.417,-131.8"/>
<text text-anchor="middle" x="343.5" y="-109.5" font-family="Arial" font-size="10.00"> keyWordHash</text>
</g>
<!-- Node9 -->
<g id="node9" class="node"><title>Node9</title>
<g id="a_node9"><a xlink:href="structtool_tip__s.html" target="_top" xlink:title="toolTip_s">
<polygon fill="white" stroke="black" points="270,-68.5 270,-87.5 326,-87.5 326,-68.5 270,-68.5"/>
<text text-anchor="middle" x="298" y="-75.5" font-family="Arial" font-size="10.00">toolTip_s</text>
</a>
</g>
</g>
<!-- Node9&#45;&gt;Node1 -->
<g id="edge8" class="edge"><title>Node9&#45;&gt;Node1</title>
<path fill="none" stroke="#9a32cd" stroke-dasharray="5,2" d="M275.497,-63.3007C261.786,-55.2951 243.739,-45.353 227,-38 210.627,-30.8076 191.69,-24.3384 176.352,-19.5366"/>
<polygon fill="#9a32cd" stroke="#9a32cd" points="273.84,-66.3873 284.226,-68.478 277.411,-60.3665 273.84,-66.3873"/>
<text text-anchor="middle" x="270.5" y="-41.5" font-family="Arial" font-size="10.00"> toolTips</text>
</g>
</g>
</svg>
