<?xml version="1.0" encoding="UTF-8" standalone="no"?>
<!DOCTYPE svg PUBLIC "-//W3C//DTD SVG 1.1//EN"
 "http://www.w3.org/Graphics/SVG/1.1/DTD/svg11.dtd">
<!-- Generated by graphviz version 2.34.0 (20130907.0111)
 -->
<!-- Title: idMapBrushSide Pages: 1 -->
<svg width="176pt" height="106pt"
 viewBox="0.00 0.00 176.00 106.00" xmlns="http://www.w3.org/2000/svg" xmlns:xlink="http://www.w3.org/1999/xlink">
<g id="graph0" class="graph" transform="scale(1 1) rotate(0) translate(4 102)">
<title>idMapBrushSide</title>
<polygon fill="white" stroke="white" points="-4,4 -4,-102 172,-102 172,4 -4,4"/>
<!-- Node1 -->
<g id="node1" class="node"><title>Node1</title>
<polygon fill="#bfbfbf" stroke="black" points="35,-0.5 35,-19.5 123,-19.5 123,-0.5 35,-0.5"/>
<text text-anchor="middle" x="79" y="-7.5" font-family="Arial" font-size="10.00">idMapBrushSide</text>
</g>
<!-- Node2 -->
<g id="node2" class="node"><title>Node2</title>
<g id="a_node2"><a xlink:href="classid_str.html" target="_top" xlink:title="idStr">
<polygon fill="white" stroke="black" points="-0.5,-78.5 -0.5,-97.5 36.5,-97.5 36.5,-78.5 -0.5,-78.5"/>
<text text-anchor="middle" x="18" y="-85.5" font-family="Arial" font-size="10.00">idStr</text>
</a>
</g>
</g>
<!-- Node2&#45;&gt;Node1 -->
<g id="edge1" class="edge"><title>Node2&#45;&gt;Node1</title>
<path fill="none" stroke="#9a32cd" stroke-dasharray="5,2" d="M22.2725,-68.2271C25.2001,-58.4422 29.8728,-46.7297 37,-38 43.2496,-30.3452 52.2619,-24.1538 60.337,-19.6404"/>
<polygon fill="#9a32cd" stroke="#9a32cd" points="18.8101,-67.6339 19.6709,-78.1937 25.5832,-69.4019 18.8101,-67.6339"/>
<text text-anchor="middle" x="56" y="-46.5" font-family="Arial" font-size="10.00"> material</text>
</g>
<!-- Node3 -->
<g id="node3" class="node"><title>Node3</title>
<g id="a_node3"><a xlink:href="classid_plane.html" target="_top" xlink:title="idPlane">
<polygon fill="white" stroke="black" points="54.5,-78.5 54.5,-97.5 103.5,-97.5 103.5,-78.5 54.5,-78.5"/>
<text text-anchor="middle" x="79" y="-85.5" font-family="Arial" font-size="10.00">idPlane</text>
</a>
</g>
</g>
<!-- Node3&#45;&gt;Node1 -->
<g id="edge2" class="edge"><title>Node3&#45;&gt;Node1</title>
<path fill="none" stroke="#9a32cd" stroke-dasharray="5,2" d="M79,-68.2239C79,-52.6974 79,-31.3582 79,-19.6165"/>
<polygon fill="#9a32cd" stroke="#9a32cd" points="75.5001,-68.2818 79,-78.2818 82.5001,-68.2819 75.5001,-68.2818"/>
<text text-anchor="middle" x="92.5" y="-46.5" font-family="Arial" font-size="10.00"> plane</text>
</g>
<!-- Node4 -->
<g id="node4" class="node"><title>Node4</title>
<g id="a_node4"><a xlink:href="classid_vec3.html" target="_top" xlink:title="idVec3">
<polygon fill="white" stroke="black" points="121.5,-78.5 121.5,-97.5 168.5,-97.5 168.5,-78.5 121.5,-78.5"/>
<text text-anchor="middle" x="145" y="-85.5" font-family="Arial" font-size="10.00">idVec3</text>
</a>
</g>
</g>
<!-- Node4&#45;&gt;Node1 -->
<g id="edge3" class="edge"><title>Node4&#45;&gt;Node1</title>
<path fill="none" stroke="#9a32cd" stroke-dasharray="5,2" d="M134.142,-69.7722C127.652,-60.025 118.947,-47.8533 110,-38 103.955,-31.3425 96.3504,-24.6978 90.1864,-19.666"/>
<polygon fill="#9a32cd" stroke="#9a32cd" points="131.243,-71.7349 139.622,-78.2197 137.116,-67.9255 131.243,-71.7349"/>
<text text-anchor="middle" x="142.5" y="-52" font-family="Arial" font-size="10.00"> origin</text>
<text text-anchor="middle" x="142.5" y="-41" font-family="Arial" font-size="10.00">texMat</text>
</g>
</g>
</svg>
