<?xml version="1.0" encoding="UTF-8" standalone="no"?>
<!DOCTYPE svg PUBLIC "-//W3C//DTD SVG 1.1//EN"
 "http://www.w3.org/Graphics/SVG/1.1/DTD/svg11.dtd">
<!-- Generated by graphviz version 2.34.0 (20130907.0111)
 -->
<!-- Title: CPropTreeItemCombo Pages: 1 -->
<svg width="422pt" height="231pt"
 viewBox="0.00 0.00 422.00 230.50" xmlns="http://www.w3.org/2000/svg" xmlns:xlink="http://www.w3.org/1999/xlink">
<g id="graph0" class="graph" transform="scale(1 1) rotate(0) translate(4 226.5)">
<title>CPropTreeItemCombo</title>
<polygon fill="white" stroke="white" points="-4,4 -4,-226.5 418,-226.5 418,4 -4,4"/>
<!-- Node1 -->
<g id="node1" class="node"><title>Node1</title>
<polygon fill="#bfbfbf" stroke="black" points="0,-68.5 0,-87.5 112,-87.5 112,-68.5 0,-68.5"/>
<text text-anchor="middle" x="56" y="-75.5" font-family="Arial" font-size="10.00">CPropTreeItemCombo</text>
</g>
<!-- Node2 -->
<g id="node2" class="node"><title>Node2</title>
<polygon fill="white" stroke="#bfbfbf" points="8.5,-185.5 8.5,-204.5 79.5,-204.5 79.5,-185.5 8.5,-185.5"/>
<text text-anchor="middle" x="44" y="-192.5" font-family="Arial" font-size="10.00">CComboBox</text>
</g>
<!-- Node2&#45;&gt;Node1 -->
<g id="edge1" class="edge"><title>Node2&#45;&gt;Node1</title>
<path fill="none" stroke="midnightblue" d="M45.957,-175.245C48.5854,-150.056 53.1496,-106.317 55.0876,-87.744"/>
<polygon fill="midnightblue" stroke="midnightblue" points="42.4588,-175.047 44.902,-185.356 49.421,-175.774 42.4588,-175.047"/>
</g>
<!-- Node3 -->
<g id="node3" class="node"><title>Node3</title>
<g id="a_node3"><a xlink:href="class_c_prop_tree_item.html" target="_top" xlink:title="CPropTreeItem">
<polygon fill="white" stroke="black" points="139.5,-185.5 139.5,-204.5 220.5,-204.5 220.5,-185.5 139.5,-185.5"/>
<text text-anchor="middle" x="180" y="-192.5" font-family="Arial" font-size="10.00">CPropTreeItem</text>
</a>
</g>
</g>
<!-- Node3&#45;&gt;Node1 -->
<g id="edge2" class="edge"><title>Node3&#45;&gt;Node1</title>
<path fill="none" stroke="midnightblue" d="M135.442,-182.049C117.172,-175.227 97.0592,-164.966 83,-150 66.0249,-131.93 59.4207,-102.11 57.1099,-87.5424"/>
<polygon fill="midnightblue" stroke="midnightblue" points="134.473,-185.418 145.068,-185.402 136.775,-178.807 134.473,-185.418"/>
</g>
<!-- Node3&#45;&gt;Node1 -->
<g id="edge13" class="edge"><title>Node3&#45;&gt;Node1</title>
<path fill="none" stroke="#9a32cd" stroke-dasharray="5,2" d="M148.777,-181.221C133.56,-173.82 115.826,-163.316 103,-150 87.692,-134.107 92.535,-124.16 80,-106 75.4397,-99.3933 69.4397,-92.6433 64.5798,-87.545"/>
<polygon fill="#9a32cd" stroke="#9a32cd" points="147.315,-184.401 157.86,-185.426 150.255,-178.049 147.315,-184.401"/>
<text text-anchor="middle" x="138" y="-125.5" font-family="Arial" font-size="10.00"> m_lComboData</text>
</g>
<!-- Node3&#45;&gt;Node3 -->
<g id="edge12" class="edge"><title>Node3&#45;&gt;Node3</title>
<path fill="none" stroke="#9a32cd" stroke-dasharray="5,2" d="M207.895,-206.761C223.547,-209.008 238,-205.088 238,-195 238,-182.818 216.924,-179.63 198.113,-185.436"/>
<polygon fill="#9a32cd" stroke="#9a32cd" points="208.637,-203.34 198.113,-204.564 207.103,-210.17 208.637,-203.34"/>
<text text-anchor="middle" x="263.5" y="-214.5" font-family="Arial" font-size="10.00"> m_pParent</text>
<text text-anchor="middle" x="263.5" y="-203.5" font-family="Arial" font-size="10.00">m_pVis</text>
<text text-anchor="middle" x="263.5" y="-192.5" font-family="Arial" font-size="10.00">m_pSibling</text>
<text text-anchor="middle" x="263.5" y="-181.5" font-family="Arial" font-size="10.00">m_pChild</text>
<text text-anchor="middle" x="263.5" y="-170.5" font-family="Arial" font-size="10.00">m_lParam</text>
</g>
<!-- Node4 -->
<g id="node4" class="node"><title>Node4</title>
<g id="a_node4"><a xlink:href="class_c_prop_tree.html" target="_top" xlink:title="CPropTree">
<polygon fill="white" stroke="black" points="249,-68.5 249,-87.5 311,-87.5 311,-68.5 249,-68.5"/>
<text text-anchor="middle" x="280" y="-75.5" font-family="Arial" font-size="10.00">CPropTree</text>
</a>
</g>
</g>
<!-- Node3&#45;&gt;Node4 -->
<g id="edge8" class="edge"><title>Node3&#45;&gt;Node4</title>
<path fill="none" stroke="#9a32cd" stroke-dasharray="5,2" d="M177.157,-175.183C175.311,-155.595 175.725,-125.154 192,-106 205.969,-89.5594 229.677,-82.95 248.968,-80.375"/>
<polygon fill="#9a32cd" stroke="#9a32cd" points="173.707,-175.798 178.403,-185.295 180.654,-174.942 173.707,-175.798"/>
<text text-anchor="middle" x="223" y="-142" font-family="Arial" font-size="10.00"> m_Root</text>
<text text-anchor="middle" x="223" y="-131" font-family="Arial" font-size="10.00">m_pVisbleList</text>
<text text-anchor="middle" x="223" y="-120" font-family="Arial" font-size="10.00">m_pFocus</text>
<text text-anchor="middle" x="223" y="-109" font-family="Arial" font-size="10.00">s_pFound</text>
</g>
<!-- Node4&#45;&gt;Node3 -->
<g id="edge3" class="edge"><title>Node4&#45;&gt;Node3</title>
<path fill="none" stroke="#9a32cd" stroke-dasharray="5,2" d="M278.043,-97.7905C275.594,-113.243 270.127,-134.967 258,-150 244.431,-166.82 222.601,-178.347 205.482,-185.369"/>
<polygon fill="#9a32cd" stroke="#9a32cd" points="281.519,-98.2016 279.345,-87.8322 274.578,-97.294 281.519,-98.2016"/>
<text text-anchor="middle" x="298.5" y="-125.5" font-family="Arial" font-size="10.00"> m_pProp</text>
</g>
<!-- Node6 -->
<g id="node6" class="node"><title>Node6</title>
<g id="a_node6"><a xlink:href="class_c_prop_tree_list.html" target="_top" xlink:title="CPropTreeList">
<polygon fill="white" stroke="black" points="336,-0.5 336,-19.5 414,-19.5 414,-0.5 336,-0.5"/>
<text text-anchor="middle" x="375" y="-7.5" font-family="Arial" font-size="10.00">CPropTreeList</text>
</a>
</g>
</g>
<!-- Node4&#45;&gt;Node6 -->
<g id="edge7" class="edge"><title>Node4&#45;&gt;Node6</title>
<path fill="none" stroke="#9a32cd" stroke-dasharray="5,2" d="M288.759,-59.1646C293.103,-51.804 298.941,-43.684 306,-38 316.32,-29.6905 329.505,-23.6968 341.58,-19.5005"/>
<polygon fill="#9a32cd" stroke="#9a32cd" points="285.432,-57.9642 283.789,-68.4309 291.6,-61.273 285.432,-57.9642"/>
<text text-anchor="middle" x="327.5" y="-41.5" font-family="Arial" font-size="10.00"> m_pProp</text>
</g>
<!-- Node7 -->
<g id="node7" class="node"><title>Node7</title>
<g id="a_node7"><a xlink:href="class_c_prop_tree_info.html" target="_top" xlink:title="CPropTreeInfo">
<polygon fill="white" stroke="black" points="149.5,-0.5 149.5,-19.5 226.5,-19.5 226.5,-0.5 149.5,-0.5"/>
<text text-anchor="middle" x="188" y="-7.5" font-family="Arial" font-size="10.00">CPropTreeInfo</text>
</a>
</g>
</g>
<!-- Node4&#45;&gt;Node7 -->
<g id="edge11" class="edge"><title>Node4&#45;&gt;Node7</title>
<path fill="none" stroke="#9a32cd" stroke-dasharray="5,2" d="M259.725,-62.4551C241.448,-49.3431 215.184,-30.5016 200.03,-19.6305"/>
<polygon fill="#9a32cd" stroke="#9a32cd" points="257.807,-65.3864 267.973,-68.3717 261.887,-59.6986 257.807,-65.3864"/>
<text text-anchor="middle" x="264.5" y="-41.5" font-family="Arial" font-size="10.00"> m_pProp</text>
</g>
<!-- Node5 -->
<g id="node5" class="node"><title>Node5</title>
<polygon fill="white" stroke="#bfbfbf" points="334,-185.5 334,-204.5 378,-204.5 378,-185.5 334,-185.5"/>
<text text-anchor="middle" x="356" y="-192.5" font-family="Arial" font-size="10.00">CWnd</text>
</g>
<!-- Node5&#45;&gt;Node4 -->
<g id="edge4" class="edge"><title>Node5&#45;&gt;Node4</title>
<path fill="none" stroke="midnightblue" d="M353.811,-175.35C350.719,-156.137 343.481,-126.221 327,-106 320.579,-98.1221 311.211,-92.0858 302.525,-87.7393"/>
<polygon fill="midnightblue" stroke="midnightblue" points="350.346,-175.849 355.19,-185.272 357.279,-174.885 350.346,-175.849"/>
</g>
<!-- Node5&#45;&gt;Node6 -->
<g id="edge6" class="edge"><title>Node5&#45;&gt;Node6</title>
<path fill="none" stroke="midnightblue" d="M363.293,-175.827C373.674,-148.885 392.203,-96.5154 399,-50 399.771,-44.7227 400.895,-42.9852 399,-38 396.281,-30.848 390.703,-24.3808 385.608,-19.5699"/>
<polygon fill="midnightblue" stroke="midnightblue" points="359.919,-174.846 359.519,-185.433 366.434,-177.406 359.919,-174.846"/>
</g>
<!-- Node6&#45;&gt;Node4 -->
<g id="edge5" class="edge"><title>Node6&#45;&gt;Node4</title>
<path fill="none" stroke="#9a32cd" stroke-dasharray="5,2" d="M368.179,-28.901C364.61,-36.2734 359.59,-44.3845 353,-50 341.172,-60.0788 325.24,-66.5509 311.277,-70.6229"/>
<polygon fill="#9a32cd" stroke="#9a32cd" points="371.439,-30.1799 372.157,-19.6094 365.003,-27.4247 371.439,-30.1799"/>
<text text-anchor="middle" x="378.5" y="-41.5" font-family="Arial" font-size="10.00"> m_List</text>
</g>
<!-- Node7&#45;&gt;Node4 -->
<g id="edge9" class="edge"><title>Node7&#45;&gt;Node4</title>
<path fill="none" stroke="#9a32cd" stroke-dasharray="5,2" d="M184.118,-29.8081C183.728,-36.7806 184.673,-44.3557 189,-50 202.835,-68.0489 228.198,-74.4847 248.64,-76.583"/>
<polygon fill="#9a32cd" stroke="#9a32cd" points="187.611,-30.1009 185.535,-19.7114 180.679,-29.1276 187.611,-30.1009"/>
<text text-anchor="middle" x="205" y="-41.5" font-family="Arial" font-size="10.00"> m_Info</text>
</g>
<!-- Node8 -->
<g id="node8" class="node"><title>Node8</title>
<polygon fill="white" stroke="#bfbfbf" points="130.5,-68.5 130.5,-87.5 179.5,-87.5 179.5,-68.5 130.5,-68.5"/>
<text text-anchor="middle" x="155" y="-75.5" font-family="Arial" font-size="10.00">CStatic</text>
</g>
<!-- Node8&#45;&gt;Node7 -->
<g id="edge10" class="edge"><title>Node8&#45;&gt;Node7</title>
<path fill="none" stroke="midnightblue" d="M160.407,-58.7838C162.688,-52.0816 165.606,-44.5361 169,-38 172.381,-31.4888 177.131,-24.7388 181.036,-19.6166"/>
<polygon fill="midnightblue" stroke="midnightblue" points="157.059,-57.7654 157.372,-68.3556 163.731,-59.8812 157.059,-57.7654"/>
</g>
</g>
</svg>
