<?xml version="1.0" encoding="UTF-8" standalone="no"?>
<!DOCTYPE svg PUBLIC "-//W3C//DTD SVG 1.1//EN"
 "http://www.w3.org/Graphics/SVG/1.1/DTD/svg11.dtd">
<!-- Generated by graphviz version 2.34.0 (20130907.0111)
 -->
<!-- Title: idGLDrawableModel Pages: 1 -->
<svg width="443pt" height="164pt"
 viewBox="0.00 0.00 443.00 164.00" xmlns="http://www.w3.org/2000/svg" xmlns:xlink="http://www.w3.org/1999/xlink">
<g id="graph0" class="graph" transform="scale(1 1) rotate(0) translate(4 160)">
<title>idGLDrawableModel</title>
<polygon fill="white" stroke="white" points="-4,4 -4,-160 439,-160 439,4 -4,4"/>
<!-- Node1 -->
<g id="node1" class="node"><title>Node1</title>
<polygon fill="#bfbfbf" stroke="black" points="229.5,-0.5 229.5,-19.5 332.5,-19.5 332.5,-0.5 229.5,-0.5"/>
<text text-anchor="middle" x="281" y="-7.5" font-family="Arial" font-size="10.00">idGLDrawableModel</text>
</g>
<!-- Node2 -->
<g id="node2" class="node"><title>Node2</title>
<g id="a_node2"><a xlink:href="classid_g_l_drawable_world.html" target="_top" xlink:title="idGLDrawableWorld">
<polygon fill="white" stroke="black" points="84,-68.5 84,-87.5 186,-87.5 186,-68.5 84,-68.5"/>
<text text-anchor="middle" x="135" y="-75.5" font-family="Arial" font-size="10.00">idGLDrawableWorld</text>
</a>
</g>
</g>
<!-- Node2&#45;&gt;Node1 -->
<g id="edge1" class="edge"><title>Node2&#45;&gt;Node1</title>
<path fill="none" stroke="midnightblue" d="M163.301,-64.2063C192.355,-51.0724 236.767,-30.9957 261.908,-19.6305"/>
<polygon fill="midnightblue" stroke="midnightblue" points="161.757,-61.0631 154.087,-68.3717 164.641,-67.4417 161.757,-61.0631"/>
</g>
<!-- Node3 -->
<g id="node3" class="node"><title>Node3</title>
<g id="a_node3"><a xlink:href="classid_g_l_drawable.html" target="_top" xlink:title="idGLDrawable">
<polygon fill="white" stroke="black" points="-0.5,-136.5 -0.5,-155.5 76.5,-155.5 76.5,-136.5 -0.5,-136.5"/>
<text text-anchor="middle" x="38" y="-143.5" font-family="Arial" font-size="10.00">idGLDrawable</text>
</a>
</g>
</g>
<!-- Node3&#45;&gt;Node2 -->
<g id="edge2" class="edge"><title>Node3&#45;&gt;Node2</title>
<path fill="none" stroke="midnightblue" d="M59.1143,-130.634C78.3953,-117.515 106.266,-98.551 122.316,-87.6305"/>
<polygon fill="midnightblue" stroke="midnightblue" points="56.9798,-127.852 50.6811,-136.372 60.9177,-133.64 56.9798,-127.852"/>
</g>
<!-- Node4 -->
<g id="node4" class="node"><title>Node4</title>
<g id="a_node4"><a xlink:href="classid_render_world.html" target="_top" xlink:title="idRenderWorld">
<polygon fill="white" stroke="black" points="95,-136.5 95,-155.5 175,-155.5 175,-136.5 95,-136.5"/>
<text text-anchor="middle" x="135" y="-143.5" font-family="Arial" font-size="10.00">idRenderWorld</text>
</a>
</g>
</g>
<!-- Node4&#45;&gt;Node2 -->
<g id="edge3" class="edge"><title>Node4&#45;&gt;Node2</title>
<path fill="none" stroke="#9a32cd" stroke-dasharray="5,2" d="M135,-126.041C135,-113.472 135,-97.5631 135,-87.8411"/>
<polygon fill="#9a32cd" stroke="#9a32cd" points="131.5,-126.372 135,-136.372 138.5,-126.372 131.5,-126.372"/>
<text text-anchor="middle" x="148" y="-109.5" font-family="Arial" font-size="10.00"> world</text>
</g>
<!-- Node5 -->
<g id="node5" class="node"><title>Node5</title>
<g id="a_node5"><a xlink:href="classid_render_model.html" target="_top" xlink:title="idRenderModel">
<polygon fill="white" stroke="black" points="193.5,-136.5 193.5,-155.5 274.5,-155.5 274.5,-136.5 193.5,-136.5"/>
<text text-anchor="middle" x="234" y="-143.5" font-family="Arial" font-size="10.00">idRenderModel</text>
</a>
</g>
</g>
<!-- Node5&#45;&gt;Node2 -->
<g id="edge4" class="edge"><title>Node5&#45;&gt;Node2</title>
<path fill="none" stroke="#9a32cd" stroke-dasharray="5,2" d="M212.717,-130.811C193.029,-117.686 164.401,-98.6004 147.946,-87.6305"/>
<polygon fill="#9a32cd" stroke="#9a32cd" points="210.795,-133.737 221.057,-136.372 214.678,-127.912 210.795,-133.737"/>
<text text-anchor="middle" x="220" y="-109.5" font-family="Arial" font-size="10.00"> worldModel</text>
</g>
<!-- Node6 -->
<g id="node6" class="node"><title>Node6</title>
<g id="a_node6"><a xlink:href="classid_str.html" target="_top" xlink:title="idStr">
<polygon fill="white" stroke="black" points="204.5,-68.5 204.5,-87.5 241.5,-87.5 241.5,-68.5 204.5,-68.5"/>
<text text-anchor="middle" x="223" y="-75.5" font-family="Arial" font-size="10.00">idStr</text>
</a>
</g>
</g>
<!-- Node6&#45;&gt;Node1 -->
<g id="edge5" class="edge"><title>Node6&#45;&gt;Node1</title>
<path fill="none" stroke="#9a32cd" stroke-dasharray="5,2" d="M230.647,-58.8805C234.108,-51.9087 238.635,-44.1525 244,-38 250.272,-30.8081 258.794,-24.426 266.078,-19.6748"/>
<polygon fill="#9a32cd" stroke="#9a32cd" points="227.336,-57.7055 226.365,-68.2558 233.703,-60.6135 227.336,-57.7055"/>
<text text-anchor="middle" x="261" y="-41.5" font-family="Arial" font-size="10.00"> skinStr</text>
</g>
<!-- Node7 -->
<g id="node7" class="node"><title>Node7</title>
<g id="a_node7"><a xlink:href="classid_vec3.html" target="_top" xlink:title="idVec3">
<polygon fill="white" stroke="black" points="259.5,-68.5 259.5,-87.5 306.5,-87.5 306.5,-68.5 259.5,-68.5"/>
<text text-anchor="middle" x="283" y="-75.5" font-family="Arial" font-size="10.00">idVec3</text>
</a>
</g>
</g>
<!-- Node7&#45;&gt;Node1 -->
<g id="edge6" class="edge"><title>Node7&#45;&gt;Node1</title>
<path fill="none" stroke="#9a32cd" stroke-dasharray="5,2" d="M282.282,-58.3734C282.182,-55.5675 282.085,-52.7076 282,-50 281.673,-39.5746 281.378,-27.579 281.194,-19.6751"/>
<polygon fill="#9a32cd" stroke="#9a32cd" points="278.789,-58.6261 282.66,-68.4886 285.784,-58.3649 278.789,-58.6261"/>
<text text-anchor="middle" x="304.5" y="-41.5" font-family="Arial" font-size="10.00"> lastPress</text>
</g>
<!-- Node8 -->
<g id="node8" class="node"><title>Node8</title>
<g id="a_node8"><a xlink:href="classid_vec4.html" target="_top" xlink:title="idVec4">
<polygon fill="white" stroke="black" points="325.5,-68.5 325.5,-87.5 372.5,-87.5 372.5,-68.5 325.5,-68.5"/>
<text text-anchor="middle" x="349" y="-75.5" font-family="Arial" font-size="10.00">idVec4</text>
</a>
</g>
</g>
<!-- Node8&#45;&gt;Node1 -->
<g id="edge7" class="edge"><title>Node8&#45;&gt;Node1</title>
<path fill="none" stroke="#9a32cd" stroke-dasharray="5,2" d="M341.294,-58.8716C337.676,-51.7912 332.858,-43.9597 327,-38 319.47,-30.3395 309.319,-24.0776 300.469,-19.5197"/>
<polygon fill="#9a32cd" stroke="#9a32cd" points="338.333,-60.8053 345.718,-68.4023 344.682,-57.8582 338.333,-60.8053"/>
<text text-anchor="middle" x="346" y="-41.5" font-family="Arial" font-size="10.00"> rect</text>
</g>
<!-- Node9 -->
<g id="node9" class="node"><title>Node9</title>
<g id="a_node9"><a xlink:href="classid_quat.html" target="_top" xlink:title="idQuat">
<polygon fill="white" stroke="black" points="390.5,-68.5 390.5,-87.5 435.5,-87.5 435.5,-68.5 390.5,-68.5"/>
<text text-anchor="middle" x="413" y="-75.5" font-family="Arial" font-size="10.00">idQuat</text>
</a>
</g>
</g>
<!-- Node9&#45;&gt;Node1 -->
<g id="edge8" class="edge"><title>Node9&#45;&gt;Node1</title>
<path fill="none" stroke="#9a32cd" stroke-dasharray="5,2" d="M395.211,-61.7745C385.328,-53.8824 372.528,-44.5516 360,-38 345.23,-30.2755 327.787,-24.0425 313.055,-19.5197"/>
<polygon fill="#9a32cd" stroke="#9a32cd" points="393.117,-64.5845 403.064,-68.2337 397.564,-59.1782 393.117,-64.5845"/>
<text text-anchor="middle" x="397" y="-41.5" font-family="Arial" font-size="10.00"> rotation</text>
</g>
</g>
</svg>
