<?xml version="1.0" encoding="UTF-8" standalone="no"?>
<!DOCTYPE svg PUBLIC "-//W3C//DTD SVG 1.1//EN"
 "http://www.w3.org/Graphics/SVG/1.1/DTD/svg11.dtd">
<!-- Generated by graphviz version 2.34.0 (20130907.0111)
 -->
<!-- Title: idAASSettings Pages: 1 -->
<svg width="250pt" height="118pt"
 viewBox="0.00 0.00 250.00 118.00" xmlns="http://www.w3.org/2000/svg" xmlns:xlink="http://www.w3.org/1999/xlink">
<g id="graph0" class="graph" transform="scale(1 1) rotate(0) translate(4 114)">
<title>idAASSettings</title>
<polygon fill="white" stroke="white" points="-4,4 -4,-114 246,-114 246,4 -4,4"/>
<!-- Node1 -->
<g id="node1" class="node"><title>Node1</title>
<polygon fill="#bfbfbf" stroke="black" points="60,-0.5 60,-19.5 140,-19.5 140,-0.5 60,-0.5"/>
<text text-anchor="middle" x="100" y="-7.5" font-family="Arial" font-size="10.00">idAASSettings</text>
</g>
<!-- Node2 -->
<g id="node2" class="node"><title>Node2</title>
<g id="a_node2"><a xlink:href="classid_str.html" target="_top" xlink:title="idStr">
<polygon fill="white" stroke="black" points="-0.5,-90.5 -0.5,-109.5 36.5,-109.5 36.5,-90.5 -0.5,-90.5"/>
<text text-anchor="middle" x="18" y="-97.5" font-family="Arial" font-size="10.00">idStr</text>
</a>
</g>
</g>
<!-- Node2&#45;&gt;Node1 -->
<g id="edge1" class="edge"><title>Node2&#45;&gt;Node1</title>
<path fill="none" stroke="#9a32cd" stroke-dasharray="5,2" d="M19.7265,-80.0952C21.8403,-66.8813 26.542,-49.5941 37,-38 44.6515,-29.5174 55.4237,-23.5998 65.9002,-19.5164"/>
<polygon fill="#9a32cd" stroke="#9a32cd" points="16.2044,-80.0605 18.4555,-90.4134 23.1519,-80.9163 16.2044,-80.0605"/>
<text text-anchor="middle" x="66.5" y="-52.5" font-family="Arial" font-size="10.00"> fileExtension</text>
</g>
<!-- Node3 -->
<g id="node3" class="node"><title>Node3</title>
<g id="a_node3"><a xlink:href="classid_bounds.html" target="_top" xlink:title="idBounds">
<polygon fill="white" stroke="black" points="71.5,-90.5 71.5,-109.5 128.5,-109.5 128.5,-90.5 71.5,-90.5"/>
<text text-anchor="middle" x="100" y="-97.5" font-family="Arial" font-size="10.00">idBounds</text>
</a>
</g>
</g>
<!-- Node3&#45;&gt;Node1 -->
<g id="edge2" class="edge"><title>Node3&#45;&gt;Node1</title>
<path fill="none" stroke="#9a32cd" stroke-dasharray="5,2" d="M100,-79.9784C100,-61.3096 100,-33.6696 100,-19.7241"/>
<polygon fill="#9a32cd" stroke="#9a32cd" points="96.5001,-80.2405 100,-90.2405 103.5,-80.2405 96.5001,-80.2405"/>
<text text-anchor="middle" x="135" y="-52.5" font-family="Arial" font-size="10.00"> boundingBoxes</text>
</g>
<!-- Node4 -->
<g id="node4" class="node"><title>Node4</title>
<g id="a_node4"><a xlink:href="classid_vec3.html" target="_top" xlink:title="idVec3">
<polygon fill="white" stroke="black" points="169.5,-90.5 169.5,-109.5 216.5,-109.5 216.5,-90.5 169.5,-90.5"/>
<text text-anchor="middle" x="193" y="-97.5" font-family="Arial" font-size="10.00">idVec3</text>
</a>
</g>
</g>
<!-- Node4&#45;&gt;Node1 -->
<g id="edge3" class="edge"><title>Node4&#45;&gt;Node1</title>
<path fill="none" stroke="#9a32cd" stroke-dasharray="5,2" d="M190.475,-80.3195C187.764,-66.9688 182.221,-49.4162 171,-38 162.588,-29.4413 151.185,-23.5557 139.98,-19.5241"/>
<polygon fill="#9a32cd" stroke="#9a32cd" points="187.046,-81.0337 192.148,-90.3187 193.95,-79.8782 187.046,-81.0337"/>
<text text-anchor="middle" x="215" y="-63.5" font-family="Arial" font-size="10.00"> gravityDir</text>
<text text-anchor="middle" x="215" y="-52.5" font-family="Arial" font-size="10.00">invGravityDir</text>
<text text-anchor="middle" x="215" y="-41.5" font-family="Arial" font-size="10.00">gravity</text>
</g>
</g>
</svg>
