<?xml version="1.0" encoding="UTF-8" standalone="no"?>
<!DOCTYPE svg PUBLIC "-//W3C//DTD SVG 1.1//EN"
 "http://www.w3.org/Graphics/SVG/1.1/DTD/svg11.dtd">
<!-- Generated by graphviz version 2.34.0 (20130907.0111)
 -->
<!-- Title: idNamePair Pages: 1 -->
<svg width="74pt" height="106pt"
 viewBox="0.00 0.00 74.00 106.00" xmlns="http://www.w3.org/2000/svg" xmlns:xlink="http://www.w3.org/1999/xlink">
<g id="graph0" class="graph" transform="scale(1 1) rotate(0) translate(4 102)">
<title>idNamePair</title>
<polygon fill="white" stroke="white" points="-4,4 -4,-102 70,-102 70,4 -4,4"/>
<!-- Node1 -->
<g id="node1" class="node"><title>Node1</title>
<polygon fill="#bfbfbf" stroke="black" points="-0.5,-0.5 -0.5,-19.5 66.5,-19.5 66.5,-0.5 -0.5,-0.5"/>
<text text-anchor="middle" x="33" y="-7.5" font-family="Arial" font-size="10.00">idNamePair</text>
</g>
<!-- Node2 -->
<g id="node2" class="node"><title>Node2</title>
<g id="a_node2"><a xlink:href="classid_str.html" target="_top" xlink:title="idStr">
<polygon fill="white" stroke="black" points="14.5,-78.5 14.5,-97.5 51.5,-97.5 51.5,-78.5 14.5,-78.5"/>
<text text-anchor="middle" x="33" y="-85.5" font-family="Arial" font-size="10.00">idStr</text>
</a>
</g>
</g>
<!-- Node2&#45;&gt;Node1 -->
<g id="edge1" class="edge"><title>Node2&#45;&gt;Node1</title>
<path fill="none" stroke="#9a32cd" stroke-dasharray="5,2" d="M33,-68.2239C33,-52.6974 33,-31.3582 33,-19.6165"/>
<polygon fill="#9a32cd" stroke="#9a32cd" points="29.5001,-68.2818 33,-78.2818 36.5001,-68.2819 29.5001,-68.2818"/>
<text text-anchor="middle" x="44" y="-52" font-family="Arial" font-size="10.00"> from</text>
<text text-anchor="middle" x="44" y="-41" font-family="Arial" font-size="10.00">to</text>
</g>
</g>
</svg>
