<?xml version="1.0" encoding="UTF-8" standalone="no"?>
<!DOCTYPE svg PUBLIC "-//W3C//DTD SVG 1.1//EN"
 "http://www.w3.org/Graphics/SVG/1.1/DTD/svg11.dtd">
<!-- Generated by graphviz version 2.34.0 (20130907.0111)
 -->
<!-- Title: idDeclFile Pages: 1 -->
<svg width="129pt" height="154pt"
 viewBox="0.00 0.00 129.00 154.00" xmlns="http://www.w3.org/2000/svg" xmlns:xlink="http://www.w3.org/1999/xlink">
<g id="graph0" class="graph" transform="scale(1 1) rotate(0) translate(4 150)">
<title>idDeclFile</title>
<polygon fill="white" stroke="white" points="-4,4 -4,-150 125,-150 125,4 -4,4"/>
<!-- Node1 -->
<g id="node1" class="node"><title>Node1</title>
<polygon fill="#bfbfbf" stroke="black" points="21.5,-0.5 21.5,-19.5 80.5,-19.5 80.5,-0.5 21.5,-0.5"/>
<text text-anchor="middle" x="51" y="-7.5" font-family="Arial" font-size="10.00">idDeclFile</text>
</g>
<!-- Node2 -->
<g id="node2" class="node"><title>Node2</title>
<g id="a_node2"><a xlink:href="classid_str.html" target="_top" xlink:title="idStr">
<polygon fill="white" stroke="black" points="-0.5,-68.5 -0.5,-87.5 36.5,-87.5 36.5,-68.5 -0.5,-68.5"/>
<text text-anchor="middle" x="18" y="-75.5" font-family="Arial" font-size="10.00">idStr</text>
</a>
</g>
</g>
<!-- Node2&#45;&gt;Node1 -->
<g id="edge1" class="edge"><title>Node2&#45;&gt;Node1</title>
<path fill="none" stroke="#9a32cd" stroke-dasharray="5,2" d="M17.2532,-58.2338C17.6639,-51.5555 18.9313,-44.1681 22,-38 25.6769,-30.6093 32.2788,-24.2148 38.2556,-19.5064"/>
<polygon fill="#9a32cd" stroke="#9a32cd" points="13.7522,-58.4461 17.2038,-68.4629 20.7521,-58.4799 13.7522,-58.4461"/>
<text text-anchor="middle" x="42.5" y="-41.5" font-family="Arial" font-size="10.00"> fileName</text>
</g>
<!-- Node3 -->
<g id="node3" class="node"><title>Node3</title>
<g id="a_node3"><a xlink:href="classid_decl_local.html" target="_top" xlink:title="idDeclLocal">
<polygon fill="white" stroke="black" points="54.5,-68.5 54.5,-87.5 121.5,-87.5 121.5,-68.5 54.5,-68.5"/>
<text text-anchor="middle" x="88" y="-75.5" font-family="Arial" font-size="10.00">idDeclLocal</text>
</a>
</g>
</g>
<!-- Node3&#45;&gt;Node1 -->
<g id="edge2" class="edge"><title>Node3&#45;&gt;Node1</title>
<path fill="none" stroke="#9a32cd" stroke-dasharray="5,2" d="M78.2247,-59.563C71.0593,-46.7815 61.629,-29.9599 55.9564,-19.8411"/>
<polygon fill="#9a32cd" stroke="#9a32cd" points="75.2198,-61.3604 83.1629,-68.3717 81.3258,-57.9373 75.2198,-61.3604"/>
<text text-anchor="middle" x="85.5" y="-41.5" font-family="Arial" font-size="10.00"> decls</text>
</g>
<!-- Node4 -->
<g id="node4" class="node"><title>Node4</title>
<g id="a_node4"><a xlink:href="classid_decl_base.html" target="_top" xlink:title="idDeclBase">
<polygon fill="white" stroke="black" points="55,-126.5 55,-145.5 121,-145.5 121,-126.5 55,-126.5"/>
<text text-anchor="middle" x="88" y="-133.5" font-family="Arial" font-size="10.00">idDeclBase</text>
</a>
</g>
</g>
<!-- Node4&#45;&gt;Node3 -->
<g id="edge3" class="edge"><title>Node4&#45;&gt;Node3</title>
<path fill="none" stroke="midnightblue" d="M88,-115.953C88,-106.287 88,-95.0312 88,-87.5052"/>
<polygon fill="midnightblue" stroke="midnightblue" points="84.5001,-116.25 88,-126.25 91.5001,-116.25 84.5001,-116.25"/>
</g>
</g>
</svg>
