<?xml version="1.0" encoding="UTF-8" standalone="no"?>
<!DOCTYPE svg PUBLIC "-//W3C//DTD SVG 1.1//EN"
 "http://www.w3.org/Graphics/SVG/1.1/DTD/svg11.dtd">
<!-- Generated by graphviz version 2.34.0 (20130907.0111)
 -->
<!-- Title: idPhysics_Actor Pages: 1 -->
<svg width="218pt" height="252pt"
 viewBox="0.00 0.00 218.00 252.00" xmlns="http://www.w3.org/2000/svg" xmlns:xlink="http://www.w3.org/1999/xlink">
<g id="graph0" class="graph" transform="scale(1 1) rotate(0) translate(4 248)">
<title>idPhysics_Actor</title>
<polygon fill="white" stroke="white" points="-4,4 -4,-248 214,-248 214,4 -4,4"/>
<!-- Node1 -->
<g id="node1" class="node"><title>Node1</title>
<polygon fill="#bfbfbf" stroke="black" points="63,-56.5 63,-75.5 151,-75.5 151,-56.5 63,-56.5"/>
<text text-anchor="middle" x="107" y="-63.5" font-family="Arial" font-size="10.00">idPhysics_Actor</text>
</g>
<!-- Node5 -->
<g id="node5" class="node"><title>Node5</title>
<g id="a_node5"><a xlink:href="classid_physics___monster.html" target="_top" xlink:title="idPhysics_Monster">
<polygon fill="white" stroke="black" points="0,-0.5 0,-19.5 100,-19.5 100,-0.5 0,-0.5"/>
<text text-anchor="middle" x="50" y="-7.5" font-family="Arial" font-size="10.00">idPhysics_Monster</text>
</a>
</g>
</g>
<!-- Node1&#45;&gt;Node5 -->
<g id="edge7" class="edge"><title>Node1&#45;&gt;Node5</title>
<path fill="none" stroke="midnightblue" d="M84.8376,-49.8197C73.5586,-40.1452 61.0139,-27.9481 54.176,-19.8339"/>
<polygon fill="midnightblue" stroke="midnightblue" points="82.7848,-52.6634 92.7271,-56.324 87.2376,-47.2622 82.7848,-52.6634"/>
</g>
<!-- Node1&#45;&gt;Node5 -->
<g id="edge8" class="edge"><title>Node1&#45;&gt;Node5</title>
<path fill="none" stroke="midnightblue" d="M95.7916,-48.4314C86.6958,-38.9673 74.1898,-27.4827 64.3683,-19.7511"/>
<polygon fill="midnightblue" stroke="midnightblue" points="93.4351,-51.0421 102.754,-56.083 98.6126,-46.3311 93.4351,-51.0421"/>
</g>
<!-- Node6 -->
<g id="node6" class="node"><title>Node6</title>
<g id="a_node6"><a xlink:href="classid_physics___player.html" target="_top" xlink:title="idPhysics_Player">
<polygon fill="white" stroke="black" points="118,-0.5 118,-19.5 210,-19.5 210,-0.5 118,-0.5"/>
<text text-anchor="middle" x="164" y="-7.5" font-family="Arial" font-size="10.00">idPhysics_Player</text>
</a>
</g>
</g>
<!-- Node1&#45;&gt;Node6 -->
<g id="edge9" class="edge"><title>Node1&#45;&gt;Node6</title>
<path fill="none" stroke="midnightblue" d="M118.208,-48.4314C127.304,-38.9673 139.81,-27.4827 149.632,-19.7511"/>
<polygon fill="midnightblue" stroke="midnightblue" points="115.387,-46.3311 111.246,-56.083 120.565,-51.0421 115.387,-46.3311"/>
</g>
<!-- Node1&#45;&gt;Node6 -->
<g id="edge10" class="edge"><title>Node1&#45;&gt;Node6</title>
<path fill="none" stroke="midnightblue" d="M129.162,-49.8197C140.441,-40.1452 152.986,-27.9481 159.824,-19.8339"/>
<polygon fill="midnightblue" stroke="midnightblue" points="126.762,-47.2622 121.273,-56.324 131.215,-52.6634 126.762,-47.2622"/>
</g>
<!-- Node2 -->
<g id="node2" class="node"><title>Node2</title>
<g id="a_node2"><a xlink:href="classid_physics___base.html" target="_top" xlink:title="idPhysics_Base">
<polygon fill="white" stroke="black" points="63.5,-112.5 63.5,-131.5 150.5,-131.5 150.5,-112.5 63.5,-112.5"/>
<text text-anchor="middle" x="107" y="-119.5" font-family="Arial" font-size="10.00">idPhysics_Base</text>
</a>
</g>
</g>
<!-- Node2&#45;&gt;Node1 -->
<g id="edge1" class="edge"><title>Node2&#45;&gt;Node1</title>
<path fill="none" stroke="midnightblue" d="M100.528,-102.101C99.8956,-93.1357 100.343,-82.8579 101.869,-75.7511"/>
<polygon fill="midnightblue" stroke="midnightblue" points="97.0658,-102.622 101.834,-112.083 104.007,-101.713 97.0658,-102.622"/>
</g>
<!-- Node2&#45;&gt;Node1 -->
<g id="edge6" class="edge"><title>Node2&#45;&gt;Node1</title>
<path fill="none" stroke="midnightblue" d="M113.472,-102.101C114.104,-93.1357 113.657,-82.8579 112.131,-75.7511"/>
<polygon fill="midnightblue" stroke="midnightblue" points="109.993,-101.713 112.166,-112.083 116.934,-102.622 109.993,-101.713"/>
</g>
<!-- Node3 -->
<g id="node3" class="node"><title>Node3</title>
<g id="a_node3"><a xlink:href="classid_physics.html" target="_top" xlink:title="idPhysics">
<polygon fill="white" stroke="black" points="77.5,-168.5 77.5,-187.5 136.5,-187.5 136.5,-168.5 77.5,-168.5"/>
<text text-anchor="middle" x="107" y="-175.5" font-family="Arial" font-size="10.00">idPhysics</text>
</a>
</g>
</g>
<!-- Node3&#45;&gt;Node2 -->
<g id="edge2" class="edge"><title>Node3&#45;&gt;Node2</title>
<path fill="none" stroke="midnightblue" d="M100.528,-158.101C99.8956,-149.136 100.343,-138.858 101.869,-131.751"/>
<polygon fill="midnightblue" stroke="midnightblue" points="97.0658,-158.622 101.834,-168.083 104.007,-157.713 97.0658,-158.622"/>
</g>
<!-- Node3&#45;&gt;Node2 -->
<g id="edge5" class="edge"><title>Node3&#45;&gt;Node2</title>
<path fill="none" stroke="midnightblue" d="M113.472,-158.101C114.104,-149.136 113.657,-138.858 112.131,-131.751"/>
<polygon fill="midnightblue" stroke="midnightblue" points="109.993,-157.713 112.166,-168.083 116.934,-158.622 109.993,-157.713"/>
</g>
<!-- Node4 -->
<g id="node4" class="node"><title>Node4</title>
<g id="a_node4"><a xlink:href="classid_class.html" target="_top" xlink:title="idClass">
<polygon fill="white" stroke="black" points="82.5,-224.5 82.5,-243.5 131.5,-243.5 131.5,-224.5 82.5,-224.5"/>
<text text-anchor="middle" x="107" y="-231.5" font-family="Arial" font-size="10.00">idClass</text>
</a>
</g>
</g>
<!-- Node4&#45;&gt;Node3 -->
<g id="edge3" class="edge"><title>Node4&#45;&gt;Node3</title>
<path fill="none" stroke="midnightblue" d="M100.528,-214.101C99.8956,-205.136 100.343,-194.858 101.869,-187.751"/>
<polygon fill="midnightblue" stroke="midnightblue" points="97.0658,-214.622 101.834,-224.083 104.007,-213.713 97.0658,-214.622"/>
</g>
<!-- Node4&#45;&gt;Node3 -->
<g id="edge4" class="edge"><title>Node4&#45;&gt;Node3</title>
<path fill="none" stroke="midnightblue" d="M113.472,-214.101C114.104,-205.136 113.657,-194.858 112.131,-187.751"/>
<polygon fill="midnightblue" stroke="midnightblue" points="109.993,-213.713 112.166,-224.083 116.934,-214.622 109.993,-213.713"/>
</g>
</g>
</svg>
