<?xml version="1.0" encoding="UTF-8" standalone="no"?>
<!DOCTYPE svg PUBLIC "-//W3C//DTD SVG 1.1//EN"
 "http://www.w3.org/Graphics/SVG/1.1/DTD/svg11.dtd">
<!-- Generated by graphviz version 2.34.0 (20130907.0111)
 -->
<!-- Title: idSIMD_MMX Pages: 1 -->
<svg width="187pt" height="308pt"
 viewBox="0.00 0.00 187.00 308.00" xmlns="http://www.w3.org/2000/svg" xmlns:xlink="http://www.w3.org/1999/xlink">
<g id="graph0" class="graph" transform="scale(1 1) rotate(0) translate(4 304)">
<title>idSIMD_MMX</title>
<polygon fill="white" stroke="white" points="-4,4 -4,-304 183,-304 183,4 -4,4"/>
<!-- Node1 -->
<g id="node1" class="node"><title>Node1</title>
<polygon fill="#bfbfbf" stroke="black" points="52.5,-168.5 52.5,-187.5 127.5,-187.5 127.5,-168.5 52.5,-168.5"/>
<text text-anchor="middle" x="90" y="-175.5" font-family="Arial" font-size="10.00">idSIMD_MMX</text>
</g>
<!-- Node4 -->
<g id="node4" class="node"><title>Node4</title>
<g id="a_node4"><a xlink:href="classid_s_i_m_d__3_d_now.html" target="_top" xlink:title="idSIMD_3DNow">
<polygon fill="white" stroke="black" points="0,-112.5 0,-131.5 84,-131.5 84,-112.5 0,-112.5"/>
<text text-anchor="middle" x="42" y="-119.5" font-family="Arial" font-size="10.00">idSIMD_3DNow</text>
</a>
</g>
</g>
<!-- Node1&#45;&gt;Node4 -->
<g id="edge3" class="edge"><title>Node1&#45;&gt;Node4</title>
<path fill="none" stroke="midnightblue" d="M75.2723,-160.431C66.8599,-150.967 56.6513,-139.483 49.7787,-131.751"/>
<polygon fill="midnightblue" stroke="midnightblue" points="72.8142,-162.934 82.0738,-168.083 78.046,-158.284 72.8142,-162.934"/>
</g>
<!-- Node5 -->
<g id="node5" class="node"><title>Node5</title>
<g id="a_node5"><a xlink:href="classid_s_i_m_d___s_s_e.html" target="_top" xlink:title="idSIMD_SSE">
<polygon fill="white" stroke="black" points="102,-112.5 102,-131.5 176,-131.5 176,-112.5 102,-112.5"/>
<text text-anchor="middle" x="139" y="-119.5" font-family="Arial" font-size="10.00">idSIMD_SSE</text>
</a>
</g>
</g>
<!-- Node1&#45;&gt;Node5 -->
<g id="edge4" class="edge"><title>Node1&#45;&gt;Node5</title>
<path fill="none" stroke="midnightblue" d="M105.034,-160.431C113.622,-150.967 124.043,-139.483 131.059,-131.751"/>
<polygon fill="midnightblue" stroke="midnightblue" points="102.219,-158.325 98.0914,-168.083 107.403,-163.029 102.219,-158.325"/>
</g>
<!-- Node2 -->
<g id="node2" class="node"><title>Node2</title>
<g id="a_node2"><a xlink:href="classid_s_i_m_d___generic.html" target="_top" xlink:title="idSIMD_Generic">
<polygon fill="white" stroke="black" points="46.5,-224.5 46.5,-243.5 133.5,-243.5 133.5,-224.5 46.5,-224.5"/>
<text text-anchor="middle" x="90" y="-231.5" font-family="Arial" font-size="10.00">idSIMD_Generic</text>
</a>
</g>
</g>
<!-- Node2&#45;&gt;Node1 -->
<g id="edge1" class="edge"><title>Node2&#45;&gt;Node1</title>
<path fill="none" stroke="midnightblue" d="M90,-213.805C90,-204.91 90,-194.78 90,-187.751"/>
<polygon fill="midnightblue" stroke="midnightblue" points="86.5001,-214.083 90,-224.083 93.5001,-214.083 86.5001,-214.083"/>
</g>
<!-- Node3 -->
<g id="node3" class="node"><title>Node3</title>
<g id="a_node3"><a xlink:href="classid_s_i_m_d_processor.html" target="_top" xlink:title="idSIMDProcessor">
<polygon fill="white" stroke="black" points="44,-280.5 44,-299.5 136,-299.5 136,-280.5 44,-280.5"/>
<text text-anchor="middle" x="90" y="-287.5" font-family="Arial" font-size="10.00">idSIMDProcessor</text>
</a>
</g>
</g>
<!-- Node3&#45;&gt;Node2 -->
<g id="edge2" class="edge"><title>Node3&#45;&gt;Node2</title>
<path fill="none" stroke="midnightblue" d="M90,-269.805C90,-260.91 90,-250.78 90,-243.751"/>
<polygon fill="midnightblue" stroke="midnightblue" points="86.5001,-270.083 90,-280.083 93.5001,-270.083 86.5001,-270.083"/>
</g>
<!-- Node6 -->
<g id="node6" class="node"><title>Node6</title>
<g id="a_node6"><a xlink:href="classid_s_i_m_d___s_s_e2.html" target="_top" xlink:title="idSIMD_SSE2">
<polygon fill="white" stroke="black" points="99.5,-56.5 99.5,-75.5 178.5,-75.5 178.5,-56.5 99.5,-56.5"/>
<text text-anchor="middle" x="139" y="-63.5" font-family="Arial" font-size="10.00">idSIMD_SSE2</text>
</a>
</g>
</g>
<!-- Node5&#45;&gt;Node6 -->
<g id="edge5" class="edge"><title>Node5&#45;&gt;Node6</title>
<path fill="none" stroke="midnightblue" d="M139,-101.805C139,-92.9102 139,-82.7798 139,-75.7511"/>
<polygon fill="midnightblue" stroke="midnightblue" points="135.5,-102.083 139,-112.083 142.5,-102.083 135.5,-102.083"/>
</g>
<!-- Node7 -->
<g id="node7" class="node"><title>Node7</title>
<g id="a_node7"><a xlink:href="classid_s_i_m_d___s_s_e3.html" target="_top" xlink:title="idSIMD_SSE3">
<polygon fill="white" stroke="black" points="99.5,-0.5 99.5,-19.5 178.5,-19.5 178.5,-0.5 99.5,-0.5"/>
<text text-anchor="middle" x="139" y="-7.5" font-family="Arial" font-size="10.00">idSIMD_SSE3</text>
</a>
</g>
</g>
<!-- Node6&#45;&gt;Node7 -->
<g id="edge6" class="edge"><title>Node6&#45;&gt;Node7</title>
<path fill="none" stroke="midnightblue" d="M139,-45.8045C139,-36.9102 139,-26.7798 139,-19.7511"/>
<polygon fill="midnightblue" stroke="midnightblue" points="135.5,-46.083 139,-56.083 142.5,-46.083 135.5,-46.083"/>
</g>
</g>
</svg>
