<?xml version="1.0" encoding="UTF-8" standalone="no"?>
<!DOCTYPE svg PUBLIC "-//W3C//DTD SVG 1.1//EN"
 "http://www.w3.org/Graphics/SVG/1.1/DTD/svg11.dtd">
<!-- Generated by graphviz version 2.34.0 (20130907.0111)
 -->
<!-- Title: StageView Pages: 1 -->
<svg width="180pt" height="140pt"
 viewBox="0.00 0.00 180.00 140.00" xmlns="http://www.w3.org/2000/svg" xmlns:xlink="http://www.w3.org/1999/xlink">
<g id="graph0" class="graph" transform="scale(1 1) rotate(0) translate(4 136)">
<title>StageView</title>
<polygon fill="white" stroke="white" points="-4,4 -4,-136 176,-136 176,4 -4,4"/>
<!-- Node1 -->
<g id="node1" class="node"><title>Node1</title>
<polygon fill="#bfbfbf" stroke="black" points="56.5,-0.5 56.5,-19.5 119.5,-19.5 119.5,-0.5 56.5,-0.5"/>
<text text-anchor="middle" x="88" y="-7.5" font-family="Arial" font-size="10.00">StageView</text>
</g>
<!-- Node2 -->
<g id="node2" class="node"><title>Node2</title>
<g id="a_node2"><a xlink:href="class_toggle_list_view.html" target="_top" xlink:title="ToggleListView">
<polygon fill="white" stroke="black" points="0,-56.5 0,-75.5 82,-75.5 82,-56.5 0,-56.5"/>
<text text-anchor="middle" x="41" y="-63.5" font-family="Arial" font-size="10.00">ToggleListView</text>
</a>
</g>
</g>
<!-- Node2&#45;&gt;Node1 -->
<g id="edge1" class="edge"><title>Node2&#45;&gt;Node1</title>
<path fill="none" stroke="midnightblue" d="M55.4208,-48.4314C63.6581,-38.9673 73.6539,-27.4827 80.3833,-19.7511"/>
<polygon fill="midnightblue" stroke="midnightblue" points="52.6863,-46.2421 48.7611,-56.083 57.9664,-50.8378 52.6863,-46.2421"/>
</g>
<!-- Node3 -->
<g id="node3" class="node"><title>Node3</title>
<polygon fill="white" stroke="#bfbfbf" points="11,-112.5 11,-131.5 71,-131.5 71,-112.5 11,-112.5"/>
<text text-anchor="middle" x="41" y="-119.5" font-family="Arial" font-size="10.00">CListView</text>
</g>
<!-- Node3&#45;&gt;Node2 -->
<g id="edge2" class="edge"><title>Node3&#45;&gt;Node2</title>
<path fill="none" stroke="midnightblue" d="M41,-101.805C41,-92.9102 41,-82.7798 41,-75.7511"/>
<polygon fill="midnightblue" stroke="midnightblue" points="37.5001,-102.083 41,-112.083 44.5001,-102.083 37.5001,-102.083"/>
</g>
<!-- Node4 -->
<g id="node4" class="node"><title>Node4</title>
<g id="a_node4"><a xlink:href="class_material_view.html" target="_top" xlink:title="MaterialView">
<polygon fill="white" stroke="black" points="100,-56.5 100,-75.5 172,-75.5 172,-56.5 100,-56.5"/>
<text text-anchor="middle" x="136" y="-63.5" font-family="Arial" font-size="10.00">MaterialView</text>
</a>
</g>
</g>
<!-- Node4&#45;&gt;Node1 -->
<g id="edge3" class="edge"><title>Node4&#45;&gt;Node1</title>
<path fill="none" stroke="midnightblue" d="M121.272,-48.4314C112.86,-38.9673 102.651,-27.4827 95.7787,-19.7511"/>
<polygon fill="midnightblue" stroke="midnightblue" points="118.814,-50.9342 128.074,-56.083 124.046,-46.2836 118.814,-50.9342"/>
</g>
</g>
</svg>
