<?xml version="1.0" encoding="UTF-8" standalone="no"?>
<!DOCTYPE svg PUBLIC "-//W3C//DTD SVG 1.1//EN"
 "http://www.w3.org/Graphics/SVG/1.1/DTD/svg11.dtd">
<!-- Generated by graphviz version 2.34.0 (20130907.0111)
 -->
<!-- Title: CPropTreeItemStatic Pages: 1 -->
<svg width="416pt" height="231pt"
 viewBox="0.00 0.00 416.00 230.50" xmlns="http://www.w3.org/2000/svg" xmlns:xlink="http://www.w3.org/1999/xlink">
<g id="graph0" class="graph" transform="scale(1 1) rotate(0) translate(4 226.5)">
<title>CPropTreeItemStatic</title>
<polygon fill="white" stroke="white" points="-4,4 -4,-226.5 412,-226.5 412,4 -4,4"/>
<!-- Node1 -->
<g id="node1" class="node"><title>Node1</title>
<polygon fill="#bfbfbf" stroke="black" points="-0.5,-68.5 -0.5,-87.5 106.5,-87.5 106.5,-68.5 -0.5,-68.5"/>
<text text-anchor="middle" x="53" y="-75.5" font-family="Arial" font-size="10.00">CPropTreeItemStatic</text>
</g>
<!-- Node2 -->
<g id="node2" class="node"><title>Node2</title>
<g id="a_node2"><a xlink:href="class_c_prop_tree_item.html" target="_top" xlink:title="CPropTreeItem">
<polygon fill="white" stroke="black" points="163.5,-185.5 163.5,-204.5 244.5,-204.5 244.5,-185.5 163.5,-185.5"/>
<text text-anchor="middle" x="204" y="-192.5" font-family="Arial" font-size="10.00">CPropTreeItem</text>
</a>
</g>
</g>
<!-- Node2&#45;&gt;Node1 -->
<g id="edge1" class="edge"><title>Node2&#45;&gt;Node1</title>
<path fill="none" stroke="midnightblue" d="M184.515,-179.161C152.605,-154.858 90.186,-107.32 64.4812,-87.744"/>
<polygon fill="midnightblue" stroke="midnightblue" points="182.574,-182.082 192.65,-185.356 186.816,-176.513 182.574,-182.082"/>
</g>
<!-- Node2&#45;&gt;Node2 -->
<g id="edge11" class="edge"><title>Node2&#45;&gt;Node2</title>
<path fill="none" stroke="#9a32cd" stroke-dasharray="5,2" d="M231.895,-206.761C247.547,-209.008 262,-205.088 262,-195 262,-182.818 240.924,-179.63 222.113,-185.436"/>
<polygon fill="#9a32cd" stroke="#9a32cd" points="232.637,-203.34 222.113,-204.564 231.103,-210.17 232.637,-203.34"/>
<text text-anchor="middle" x="287.5" y="-214.5" font-family="Arial" font-size="10.00"> m_pParent</text>
<text text-anchor="middle" x="287.5" y="-203.5" font-family="Arial" font-size="10.00">m_pVis</text>
<text text-anchor="middle" x="287.5" y="-192.5" font-family="Arial" font-size="10.00">m_pSibling</text>
<text text-anchor="middle" x="287.5" y="-181.5" font-family="Arial" font-size="10.00">m_pChild</text>
<text text-anchor="middle" x="287.5" y="-170.5" font-family="Arial" font-size="10.00">m_lParam</text>
</g>
<!-- Node3 -->
<g id="node3" class="node"><title>Node3</title>
<g id="a_node3"><a xlink:href="class_c_prop_tree.html" target="_top" xlink:title="CPropTree">
<polygon fill="white" stroke="black" points="239,-68.5 239,-87.5 301,-87.5 301,-68.5 239,-68.5"/>
<text text-anchor="middle" x="270" y="-75.5" font-family="Arial" font-size="10.00">CPropTree</text>
</a>
</g>
</g>
<!-- Node2&#45;&gt;Node3 -->
<g id="edge7" class="edge"><title>Node2&#45;&gt;Node3</title>
<path fill="none" stroke="#9a32cd" stroke-dasharray="5,2" d="M223.119,-178.683C231.767,-170.891 241.486,-160.794 248,-150 260.268,-129.67 266.266,-101.886 268.669,-87.8651"/>
<polygon fill="#9a32cd" stroke="#9a32cd" points="220.606,-176.227 215.295,-185.395 225.164,-181.54 220.606,-176.227"/>
<text text-anchor="middle" x="296" y="-142" font-family="Arial" font-size="10.00"> m_Root</text>
<text text-anchor="middle" x="296" y="-131" font-family="Arial" font-size="10.00">m_pVisbleList</text>
<text text-anchor="middle" x="296" y="-120" font-family="Arial" font-size="10.00">m_pFocus</text>
<text text-anchor="middle" x="296" y="-109" font-family="Arial" font-size="10.00">s_pFound</text>
</g>
<!-- Node3&#45;&gt;Node2 -->
<g id="edge2" class="edge"><title>Node3&#45;&gt;Node2</title>
<path fill="none" stroke="#9a32cd" stroke-dasharray="5,2" d="M229.185,-87.669C219.721,-91.6646 210.747,-97.4951 205,-106 188.405,-130.56 196.387,-168.433 201.227,-185.337"/>
<polygon fill="#9a32cd" stroke="#9a32cd" points="230.479,-90.9233 238.711,-84.2541 228.117,-84.3339 230.479,-90.9233"/>
<text text-anchor="middle" x="226.5" y="-125.5" font-family="Arial" font-size="10.00"> m_pProp</text>
</g>
<!-- Node5 -->
<g id="node5" class="node"><title>Node5</title>
<g id="a_node5"><a xlink:href="class_c_prop_tree_list.html" target="_top" xlink:title="CPropTreeList">
<polygon fill="white" stroke="black" points="330,-0.5 330,-19.5 408,-19.5 408,-0.5 330,-0.5"/>
<text text-anchor="middle" x="369" y="-7.5" font-family="Arial" font-size="10.00">CPropTreeList</text>
</a>
</g>
</g>
<!-- Node3&#45;&gt;Node5 -->
<g id="edge6" class="edge"><title>Node3&#45;&gt;Node5</title>
<path fill="none" stroke="#9a32cd" stroke-dasharray="5,2" d="M280.276,-59.6922C285.423,-52.2068 292.219,-43.8424 300,-38 310.904,-29.8128 324.608,-23.7765 336.924,-19.5136"/>
<polygon fill="#9a32cd" stroke="#9a32cd" points="277.117,-58.1352 274.688,-68.4477 283.018,-61.9011 277.117,-58.1352"/>
<text text-anchor="middle" x="321.5" y="-41.5" font-family="Arial" font-size="10.00"> m_pProp</text>
</g>
<!-- Node6 -->
<g id="node6" class="node"><title>Node6</title>
<g id="a_node6"><a xlink:href="class_c_prop_tree_info.html" target="_top" xlink:title="CPropTreeInfo">
<polygon fill="white" stroke="black" points="143.5,-0.5 143.5,-19.5 220.5,-19.5 220.5,-0.5 143.5,-0.5"/>
<text text-anchor="middle" x="182" y="-7.5" font-family="Arial" font-size="10.00">CPropTreeInfo</text>
</a>
</g>
</g>
<!-- Node3&#45;&gt;Node6 -->
<g id="edge10" class="edge"><title>Node3&#45;&gt;Node6</title>
<path fill="none" stroke="#9a32cd" stroke-dasharray="5,2" d="M250.128,-62.0961C232.668,-49.0012 207.87,-30.4028 193.507,-19.6305"/>
<polygon fill="#9a32cd" stroke="#9a32cd" points="248.396,-65.1716 258.496,-68.3717 252.596,-59.5716 248.396,-65.1716"/>
<text text-anchor="middle" x="255.5" y="-41.5" font-family="Arial" font-size="10.00"> m_pProp</text>
</g>
<!-- Node4 -->
<g id="node4" class="node"><title>Node4</title>
<polygon fill="white" stroke="#bfbfbf" points="351,-185.5 351,-204.5 395,-204.5 395,-185.5 351,-185.5"/>
<text text-anchor="middle" x="373" y="-192.5" font-family="Arial" font-size="10.00">CWnd</text>
</g>
<!-- Node4&#45;&gt;Node3 -->
<g id="edge3" class="edge"><title>Node4&#45;&gt;Node3</title>
<path fill="none" stroke="midnightblue" d="M368.316,-175.487C362.514,-155.936 350.882,-125.321 331,-106 322.528,-97.7673 311.124,-91.8087 300.468,-87.619"/>
<polygon fill="midnightblue" stroke="midnightblue" points="364.99,-176.595 371.015,-185.31 371.74,-174.74 364.99,-176.595"/>
</g>
<!-- Node4&#45;&gt;Node5 -->
<g id="edge5" class="edge"><title>Node4&#45;&gt;Node5</title>
<path fill="none" stroke="midnightblue" d="M381.29,-176C393.777,-146.195 414.031,-85.1984 395,-38 392.08,-30.7575 386.184,-24.3723 380.745,-19.6319"/>
<polygon fill="midnightblue" stroke="midnightblue" points="378.08,-174.604 377.274,-185.168 384.492,-177.413 378.08,-174.604"/>
</g>
<!-- Node5&#45;&gt;Node3 -->
<g id="edge4" class="edge"><title>Node5&#45;&gt;Node3</title>
<path fill="none" stroke="#9a32cd" stroke-dasharray="5,2" d="M362.224,-28.9548C358.664,-36.3369 353.638,-44.4407 347,-50 333.968,-60.9151 316.234,-67.5299 301.071,-71.4776"/>
<polygon fill="#9a32cd" stroke="#9a32cd" points="365.492,-30.2146 366.185,-19.6425 359.05,-27.475 365.492,-30.2146"/>
<text text-anchor="middle" x="374.5" y="-41.5" font-family="Arial" font-size="10.00"> m_List</text>
</g>
<!-- Node6&#45;&gt;Node3 -->
<g id="edge8" class="edge"><title>Node6&#45;&gt;Node3</title>
<path fill="none" stroke="#9a32cd" stroke-dasharray="5,2" d="M178.154,-29.78C177.77,-36.7489 178.709,-44.3288 183,-50 195.883,-67.0253 219.372,-73.6027 238.699,-76.0169"/>
<polygon fill="#9a32cd" stroke="#9a32cd" points="181.646,-30.0811 179.558,-19.6941 174.713,-29.1163 181.646,-30.0811"/>
<text text-anchor="middle" x="199" y="-41.5" font-family="Arial" font-size="10.00"> m_Info</text>
</g>
<!-- Node7 -->
<g id="node7" class="node"><title>Node7</title>
<polygon fill="white" stroke="#bfbfbf" points="124.5,-68.5 124.5,-87.5 173.5,-87.5 173.5,-68.5 124.5,-68.5"/>
<text text-anchor="middle" x="149" y="-75.5" font-family="Arial" font-size="10.00">CStatic</text>
</g>
<!-- Node7&#45;&gt;Node6 -->
<g id="edge9" class="edge"><title>Node7&#45;&gt;Node6</title>
<path fill="none" stroke="midnightblue" d="M154.407,-58.7838C156.688,-52.0816 159.606,-44.5361 163,-38 166.381,-31.4888 171.131,-24.7388 175.036,-19.6166"/>
<polygon fill="midnightblue" stroke="midnightblue" points="151.059,-57.7654 151.372,-68.3556 157.731,-59.8812 151.059,-57.7654"/>
</g>
</g>
</svg>
