<?xml version="1.0" encoding="UTF-8" standalone="no"?>
<!DOCTYPE svg PUBLIC "-//W3C//DTD SVG 1.1//EN"
 "http://www.w3.org/Graphics/SVG/1.1/DTD/svg11.dtd">
<!-- Generated by graphviz version 2.34.0 (20130907.0111)
 -->
<!-- Title: idAFEntity_WithAttachedHead Pages: 1 -->
<svg width="156pt" height="308pt"
 viewBox="0.00 0.00 156.00 308.00" xmlns="http://www.w3.org/2000/svg" xmlns:xlink="http://www.w3.org/1999/xlink">
<g id="graph0" class="graph" transform="scale(1 1) rotate(0) translate(4 304)">
<title>idAFEntity_WithAttachedHead</title>
<polygon fill="white" stroke="white" points="-4,4 -4,-304 152,-304 152,4 -4,4"/>
<!-- Node1 -->
<g id="node1" class="node"><title>Node1</title>
<polygon fill="#bfbfbf" stroke="black" points="-0.5,-0.5 -0.5,-19.5 148.5,-19.5 148.5,-0.5 -0.5,-0.5"/>
<text text-anchor="middle" x="74" y="-7.5" font-family="Arial" font-size="10.00">idAFEntity_WithAttachedHead</text>
</g>
<!-- Node2 -->
<g id="node2" class="node"><title>Node2</title>
<g id="a_node2"><a xlink:href="classid_a_f_entity___gibbable.html" target="_top" xlink:title="idAFEntity_Gibbable">
<polygon fill="white" stroke="black" points="21,-56.5 21,-75.5 127,-75.5 127,-56.5 21,-56.5"/>
<text text-anchor="middle" x="74" y="-63.5" font-family="Arial" font-size="10.00">idAFEntity_Gibbable</text>
</a>
</g>
</g>
<!-- Node2&#45;&gt;Node1 -->
<g id="edge1" class="edge"><title>Node2&#45;&gt;Node1</title>
<path fill="none" stroke="midnightblue" d="M67.5276,-46.1005C66.8956,-37.1357 67.3427,-26.8579 68.869,-19.7511"/>
<polygon fill="midnightblue" stroke="midnightblue" points="64.0658,-46.6216 68.8337,-56.083 71.0067,-45.7134 64.0658,-46.6216"/>
</g>
<!-- Node2&#45;&gt;Node1 -->
<g id="edge10" class="edge"><title>Node2&#45;&gt;Node1</title>
<path fill="none" stroke="midnightblue" d="M80.4724,-46.1005C81.1044,-37.1357 80.6573,-26.8579 79.131,-19.7511"/>
<polygon fill="midnightblue" stroke="midnightblue" points="76.9933,-45.7134 79.1663,-56.083 83.9342,-46.6216 76.9933,-45.7134"/>
</g>
<!-- Node3 -->
<g id="node3" class="node"><title>Node3</title>
<g id="a_node3"><a xlink:href="classid_a_f_entity___base.html" target="_top" xlink:title="idAFEntity_Base">
<polygon fill="white" stroke="black" points="29,-112.5 29,-131.5 119,-131.5 119,-112.5 29,-112.5"/>
<text text-anchor="middle" x="74" y="-119.5" font-family="Arial" font-size="10.00">idAFEntity_Base</text>
</a>
</g>
</g>
<!-- Node3&#45;&gt;Node2 -->
<g id="edge2" class="edge"><title>Node3&#45;&gt;Node2</title>
<path fill="none" stroke="midnightblue" d="M67.5276,-102.101C66.8956,-93.1357 67.3427,-82.8579 68.869,-75.7511"/>
<polygon fill="midnightblue" stroke="midnightblue" points="64.0658,-102.622 68.8337,-112.083 71.0067,-101.713 64.0658,-102.622"/>
</g>
<!-- Node3&#45;&gt;Node2 -->
<g id="edge9" class="edge"><title>Node3&#45;&gt;Node2</title>
<path fill="none" stroke="midnightblue" d="M80.4724,-102.101C81.1044,-93.1357 80.6573,-82.8579 79.131,-75.7511"/>
<polygon fill="midnightblue" stroke="midnightblue" points="76.9933,-101.713 79.1663,-112.083 83.9342,-102.622 76.9933,-101.713"/>
</g>
<!-- Node4 -->
<g id="node4" class="node"><title>Node4</title>
<g id="a_node4"><a xlink:href="classid_animated_entity.html" target="_top" xlink:title="idAnimatedEntity">
<polygon fill="white" stroke="black" points="28.5,-168.5 28.5,-187.5 119.5,-187.5 119.5,-168.5 28.5,-168.5"/>
<text text-anchor="middle" x="74" y="-175.5" font-family="Arial" font-size="10.00">idAnimatedEntity</text>
</a>
</g>
</g>
<!-- Node4&#45;&gt;Node3 -->
<g id="edge3" class="edge"><title>Node4&#45;&gt;Node3</title>
<path fill="none" stroke="midnightblue" d="M67.5276,-158.101C66.8956,-149.136 67.3427,-138.858 68.869,-131.751"/>
<polygon fill="midnightblue" stroke="midnightblue" points="64.0658,-158.622 68.8337,-168.083 71.0067,-157.713 64.0658,-158.622"/>
</g>
<!-- Node4&#45;&gt;Node3 -->
<g id="edge8" class="edge"><title>Node4&#45;&gt;Node3</title>
<path fill="none" stroke="midnightblue" d="M80.4724,-158.101C81.1044,-149.136 80.6573,-138.858 79.131,-131.751"/>
<polygon fill="midnightblue" stroke="midnightblue" points="76.9933,-157.713 79.1663,-168.083 83.9342,-158.622 76.9933,-157.713"/>
</g>
<!-- Node5 -->
<g id="node5" class="node"><title>Node5</title>
<g id="a_node5"><a xlink:href="classid_entity.html" target="_top" xlink:title="idEntity">
<polygon fill="white" stroke="black" points="49,-224.5 49,-243.5 99,-243.5 99,-224.5 49,-224.5"/>
<text text-anchor="middle" x="74" y="-231.5" font-family="Arial" font-size="10.00">idEntity</text>
</a>
</g>
</g>
<!-- Node5&#45;&gt;Node4 -->
<g id="edge4" class="edge"><title>Node5&#45;&gt;Node4</title>
<path fill="none" stroke="midnightblue" d="M67.5276,-214.101C66.8956,-205.136 67.3427,-194.858 68.869,-187.751"/>
<polygon fill="midnightblue" stroke="midnightblue" points="64.0658,-214.622 68.8337,-224.083 71.0067,-213.713 64.0658,-214.622"/>
</g>
<!-- Node5&#45;&gt;Node4 -->
<g id="edge7" class="edge"><title>Node5&#45;&gt;Node4</title>
<path fill="none" stroke="midnightblue" d="M80.4724,-214.101C81.1044,-205.136 80.6573,-194.858 79.131,-187.751"/>
<polygon fill="midnightblue" stroke="midnightblue" points="76.9933,-213.713 79.1663,-224.083 83.9342,-214.622 76.9933,-213.713"/>
</g>
<!-- Node6 -->
<g id="node6" class="node"><title>Node6</title>
<g id="a_node6"><a xlink:href="classid_class.html" target="_top" xlink:title="idClass">
<polygon fill="white" stroke="black" points="49.5,-280.5 49.5,-299.5 98.5,-299.5 98.5,-280.5 49.5,-280.5"/>
<text text-anchor="middle" x="74" y="-287.5" font-family="Arial" font-size="10.00">idClass</text>
</a>
</g>
</g>
<!-- Node6&#45;&gt;Node5 -->
<g id="edge5" class="edge"><title>Node6&#45;&gt;Node5</title>
<path fill="none" stroke="midnightblue" d="M67.5276,-270.101C66.8956,-261.136 67.3427,-250.858 68.869,-243.751"/>
<polygon fill="midnightblue" stroke="midnightblue" points="64.0658,-270.622 68.8337,-280.083 71.0067,-269.713 64.0658,-270.622"/>
</g>
<!-- Node6&#45;&gt;Node5 -->
<g id="edge6" class="edge"><title>Node6&#45;&gt;Node5</title>
<path fill="none" stroke="midnightblue" d="M80.4724,-270.101C81.1044,-261.136 80.6573,-250.858 79.131,-243.751"/>
<polygon fill="midnightblue" stroke="midnightblue" points="76.9933,-269.713 79.1663,-280.083 83.9342,-270.622 76.9933,-269.713"/>
</g>
</g>
</svg>
