<?xml version="1.0" encoding="UTF-8" standalone="no"?>
<!DOCTYPE svg PUBLIC "-//W3C//DTD SVG 1.1//EN"
 "http://www.w3.org/Graphics/SVG/1.1/DTD/svg11.dtd">
<!-- Generated by graphviz version 2.34.0 (20130907.0111)
 -->
<!-- Title: idCurve_QuadraticBezier&lt; type &gt; Pages: 1 -->
<svg width="130pt" height="166pt"
 viewBox="0.00 0.00 130.00 166.00" xmlns="http://www.w3.org/2000/svg" xmlns:xlink="http://www.w3.org/1999/xlink">
<g id="graph0" class="graph" transform="scale(1 1) rotate(0) translate(4 162)">
<title>idCurve_QuadraticBezier&lt; type &gt;</title>
<polygon fill="white" stroke="white" points="-4,4 -4,-162 126,-162 126,4 -4,4"/>
<!-- Node1 -->
<g id="node1" class="node"><title>Node1</title>
<polygon fill="#bfbfbf" stroke="black" points="-0.5,-1 -0.5,-31 122.5,-31 122.5,-1 -0.5,-1"/>
<text text-anchor="start" x="7.5" y="-19" font-family="Arial" font-size="10.00">idCurve_QuadraticBezier</text>
<text text-anchor="middle" x="61" y="-8" font-family="Arial" font-size="10.00">&lt; type &gt;</text>
</g>
<!-- Node2 -->
<g id="node2" class="node"><title>Node2</title>
<g id="a_node2"><a xlink:href="classid_curve.html" target="_top" xlink:title="idCurve\&lt; type \&gt;">
<polygon fill="white" stroke="black" points="18.5,-70.5 18.5,-89.5 103.5,-89.5 103.5,-70.5 18.5,-70.5"/>
<text text-anchor="middle" x="61" y="-77.5" font-family="Arial" font-size="10.00">idCurve&lt; type &gt;</text>
</a>
</g>
</g>
<!-- Node2&#45;&gt;Node1 -->
<g id="edge1" class="edge"><title>Node2&#45;&gt;Node1</title>
<path fill="none" stroke="midnightblue" d="M61,-60.1826C61,-50.8859 61,-39.8507 61,-31.263"/>
<polygon fill="midnightblue" stroke="midnightblue" points="57.5001,-60.3791 61,-70.3792 64.5001,-60.3792 57.5001,-60.3791"/>
</g>
<!-- Node3 -->
<g id="node3" class="node"><title>Node3</title>
<g id="a_node3"><a xlink:href="classid_list.html" target="_top" xlink:title="idList\&lt; float \&gt;">
<polygon fill="white" stroke="black" points="23,-138.5 23,-157.5 99,-157.5 99,-138.5 23,-138.5"/>
<text text-anchor="middle" x="61" y="-145.5" font-family="Arial" font-size="10.00">idList&lt; float &gt;</text>
</a>
</g>
</g>
<!-- Node3&#45;&gt;Node2 -->
<g id="edge2" class="edge"><title>Node3&#45;&gt;Node2</title>
<path fill="none" stroke="#9a32cd" stroke-dasharray="5,2" d="M61,-128.041C61,-115.472 61,-99.5631 61,-89.8411"/>
<polygon fill="#9a32cd" stroke="#9a32cd" points="57.5001,-128.372 61,-138.372 64.5001,-128.372 57.5001,-128.372"/>
<text text-anchor="middle" x="75" y="-111.5" font-family="Arial" font-size="10.00"> times</text>
</g>
</g>
</svg>
