<?xml version="1.0" encoding="UTF-8" standalone="no"?>
<!DOCTYPE svg PUBLIC "-//W3C//DTD SVG 1.1//EN"
 "http://www.w3.org/Graphics/SVG/1.1/DTD/svg11.dtd">
<!-- Generated by graphviz version 2.34.0 (20130907.0111)
 -->
<!-- Title: AttributeMaterialModifier Pages: 1 -->
<svg width="289pt" height="152pt"
 viewBox="0.00 0.00 289.00 152.00" xmlns="http://www.w3.org/2000/svg" xmlns:xlink="http://www.w3.org/1999/xlink">
<g id="graph0" class="graph" transform="scale(1 1) rotate(0) translate(4 148)">
<title>AttributeMaterialModifier</title>
<polygon fill="white" stroke="white" points="-4,4 -4,-148 285,-148 285,4 -4,4"/>
<!-- Node1 -->
<g id="node1" class="node"><title>Node1</title>
<polygon fill="#bfbfbf" stroke="black" points="84,-68.5 84,-87.5 206,-87.5 206,-68.5 84,-68.5"/>
<text text-anchor="middle" x="145" y="-75.5" font-family="Arial" font-size="10.00">AttributeMaterialModifier</text>
</g>
<!-- Node3 -->
<g id="node3" class="node"><title>Node3</title>
<g id="a_node3"><a xlink:href="class_attribute_material_modifier_bool.html" target="_top" xlink:title="AttributeMaterialModifierBool">
<polygon fill="white" stroke="black" points="-0.5,-6.5 -0.5,-25.5 140.5,-25.5 140.5,-6.5 -0.5,-6.5"/>
<text text-anchor="middle" x="70" y="-13.5" font-family="Arial" font-size="10.00">AttributeMaterialModifierBool</text>
</a>
</g>
</g>
<!-- Node1&#45;&gt;Node3 -->
<g id="edge2" class="edge"><title>Node1&#45;&gt;Node3</title>
<path fill="none" stroke="midnightblue" d="M126.058,-61.8464C111.713,-50.3706 92.5244,-35.0195 80.7257,-25.5806"/>
<polygon fill="midnightblue" stroke="midnightblue" points="124.259,-64.8895 134.254,-68.4035 128.632,-59.4234 124.259,-64.8895"/>
</g>
<!-- Node4 -->
<g id="node4" class="node"><title>Node4</title>
<g id="a_node4"><a xlink:href="class_attribute_material_modifier_string.html" target="_top" xlink:title="AttributeMaterialModifier\lString">
<polygon fill="white" stroke="black" points="159,-1 159,-31 281,-31 281,-1 159,-1"/>
<text text-anchor="start" x="167" y="-19" font-family="Arial" font-size="10.00">AttributeMaterialModifier</text>
<text text-anchor="middle" x="220" y="-8" font-family="Arial" font-size="10.00">String</text>
</a>
</g>
</g>
<!-- Node1&#45;&gt;Node4 -->
<g id="edge3" class="edge"><title>Node1&#45;&gt;Node4</title>
<path fill="none" stroke="midnightblue" d="M163.661,-62.0711C175.488,-52.6097 190.692,-40.4466 202.324,-31.1408"/>
<polygon fill="midnightblue" stroke="midnightblue" points="161.368,-59.4234 155.746,-68.4035 165.741,-64.8895 161.368,-59.4234"/>
</g>
<!-- Node2 -->
<g id="node2" class="node"><title>Node2</title>
<g id="a_node2"><a xlink:href="class_material_modifier.html" target="_top" xlink:title="MaterialModifier">
<polygon fill="white" stroke="black" points="102.5,-124.5 102.5,-143.5 187.5,-143.5 187.5,-124.5 102.5,-124.5"/>
<text text-anchor="middle" x="145" y="-131.5" font-family="Arial" font-size="10.00">MaterialModifier</text>
</a>
</g>
</g>
<!-- Node2&#45;&gt;Node1 -->
<g id="edge1" class="edge"><title>Node2&#45;&gt;Node1</title>
<path fill="none" stroke="midnightblue" d="M145,-113.805C145,-104.91 145,-94.7798 145,-87.7511"/>
<polygon fill="midnightblue" stroke="midnightblue" points="141.5,-114.083 145,-124.083 148.5,-114.083 141.5,-114.083"/>
</g>
</g>
</svg>
