<?xml version="1.0" encoding="UTF-8" standalone="no"?>
<!DOCTYPE svg PUBLIC "-//W3C//DTD SVG 1.1//EN"
 "http://www.w3.org/Graphics/SVG/1.1/DTD/svg11.dtd">
<!-- Generated by graphviz version 2.34.0 (20130907.0111)
 -->
<!-- Title: idSurface Pages: 1 -->
<svg width="339pt" height="106pt"
 viewBox="0.00 0.00 339.00 106.00" xmlns="http://www.w3.org/2000/svg" xmlns:xlink="http://www.w3.org/1999/xlink">
<g id="graph0" class="graph" transform="scale(1 1) rotate(0) translate(4 102)">
<title>idSurface</title>
<polygon fill="white" stroke="white" points="-4,4 -4,-102 335,-102 335,4 -4,4"/>
<!-- Node1 -->
<g id="node1" class="node"><title>Node1</title>
<polygon fill="#bfbfbf" stroke="black" points="145.5,-0.5 145.5,-19.5 202.5,-19.5 202.5,-0.5 145.5,-0.5"/>
<text text-anchor="middle" x="174" y="-7.5" font-family="Arial" font-size="10.00">idSurface</text>
</g>
<!-- Node2 -->
<g id="node2" class="node"><title>Node2</title>
<g id="a_node2"><a xlink:href="classid_list.html" target="_top" xlink:title="idList\&lt; surfaceEdge_s \&gt;">
<polygon fill="white" stroke="black" points="0,-78.5 0,-97.5 122,-97.5 122,-78.5 0,-78.5"/>
<text text-anchor="middle" x="61" y="-85.5" font-family="Arial" font-size="10.00">idList&lt; surfaceEdge_s &gt;</text>
</a>
</g>
</g>
<!-- Node2&#45;&gt;Node1 -->
<g id="edge1" class="edge"><title>Node2&#45;&gt;Node1</title>
<path fill="none" stroke="#9a32cd" stroke-dasharray="5,2" d="M82.4586,-72.5677C105.707,-56.9314 142.036,-32.4981 161.189,-19.6165"/>
<polygon fill="#9a32cd" stroke="#9a32cd" points="80.3071,-69.7967 73.9625,-78.2818 84.2137,-75.6052 80.3071,-69.7967"/>
<text text-anchor="middle" x="146" y="-46.5" font-family="Arial" font-size="10.00"> edges</text>
</g>
<!-- Node3 -->
<g id="node3" class="node"><title>Node3</title>
<g id="a_node3"><a xlink:href="classid_list.html" target="_top" xlink:title="idList\&lt; int \&gt;">
<polygon fill="white" stroke="black" points="140,-78.5 140,-97.5 208,-97.5 208,-78.5 140,-78.5"/>
<text text-anchor="middle" x="174" y="-85.5" font-family="Arial" font-size="10.00">idList&lt; int &gt;</text>
</a>
</g>
</g>
<!-- Node3&#45;&gt;Node1 -->
<g id="edge2" class="edge"><title>Node3&#45;&gt;Node1</title>
<path fill="none" stroke="#9a32cd" stroke-dasharray="5,2" d="M174,-68.2239C174,-52.6974 174,-31.3582 174,-19.6165"/>
<polygon fill="#9a32cd" stroke="#9a32cd" points="170.5,-68.2818 174,-78.2818 177.5,-68.2819 170.5,-68.2818"/>
<text text-anchor="middle" x="201.5" y="-52" font-family="Arial" font-size="10.00"> indexes</text>
<text text-anchor="middle" x="201.5" y="-41" font-family="Arial" font-size="10.00">edgeIndexes</text>
</g>
<!-- Node4 -->
<g id="node4" class="node"><title>Node4</title>
<g id="a_node4"><a xlink:href="classid_list.html" target="_top" xlink:title="idList\&lt; idDrawVert \&gt;">
<polygon fill="white" stroke="black" points="226.5,-78.5 226.5,-97.5 331.5,-97.5 331.5,-78.5 226.5,-78.5"/>
<text text-anchor="middle" x="279" y="-85.5" font-family="Arial" font-size="10.00">idList&lt; idDrawVert &gt;</text>
</a>
</g>
</g>
<!-- Node4&#45;&gt;Node1 -->
<g id="edge3" class="edge"><title>Node4&#45;&gt;Node1</title>
<path fill="none" stroke="#9a32cd" stroke-dasharray="5,2" d="M266.339,-70.5243C257.773,-60.1942 245.733,-47.1493 233,-38 222.388,-30.375 209.28,-24.1164 198.115,-19.5516"/>
<polygon fill="#9a32cd" stroke="#9a32cd" points="263.675,-72.7975 272.656,-78.4179 269.14,-68.4235 263.675,-72.7975"/>
<text text-anchor="middle" x="269" y="-46.5" font-family="Arial" font-size="10.00"> verts</text>
</g>
</g>
</svg>
