<?xml version="1.0" encoding="UTF-8" standalone="no"?>
<!DOCTYPE svg PUBLIC "-//W3C//DTD SVG 1.1//EN"
 "http://www.w3.org/Graphics/SVG/1.1/DTD/svg11.dtd">
<!-- Generated by graphviz version 2.34.0 (20130907.0111)
 -->
<!-- Title: idWinRectangle Pages: 1 -->
<svg width="150pt" height="164pt"
 viewBox="0.00 0.00 150.00 164.00" xmlns="http://www.w3.org/2000/svg" xmlns:xlink="http://www.w3.org/1999/xlink">
<g id="graph0" class="graph" transform="scale(1 1) rotate(0) translate(4 160)">
<title>idWinRectangle</title>
<polygon fill="white" stroke="white" points="-4,4 -4,-160 146,-160 146,4 -4,4"/>
<!-- Node1 -->
<g id="node1" class="node"><title>Node1</title>
<polygon fill="#bfbfbf" stroke="black" points="45.5,-0.5 45.5,-19.5 130.5,-19.5 130.5,-0.5 45.5,-0.5"/>
<text text-anchor="middle" x="88" y="-7.5" font-family="Arial" font-size="10.00">idWinRectangle</text>
</g>
<!-- Node2 -->
<g id="node2" class="node"><title>Node2</title>
<g id="a_node2"><a xlink:href="classid_win_var.html" target="_top" xlink:title="idWinVar">
<polygon fill="white" stroke="black" points="0,-68.5 0,-87.5 56,-87.5 56,-68.5 0,-68.5"/>
<text text-anchor="middle" x="28" y="-75.5" font-family="Arial" font-size="10.00">idWinVar</text>
</a>
</g>
</g>
<!-- Node2&#45;&gt;Node1 -->
<g id="edge1" class="edge"><title>Node2&#45;&gt;Node1</title>
<path fill="none" stroke="midnightblue" d="M42.8364,-60.68C54.5666,-47.7768 70.4932,-30.2575 79.9626,-19.8411"/>
<polygon fill="midnightblue" stroke="midnightblue" points="39.9809,-58.6179 35.844,-68.3717 45.1605,-63.3266 39.9809,-58.6179"/>
</g>
<!-- Node3 -->
<g id="node3" class="node"><title>Node3</title>
<g id="a_node3"><a xlink:href="classid_dict.html" target="_top" xlink:title="idDict">
<polygon fill="white" stroke="black" points="7.5,-136.5 7.5,-155.5 48.5,-155.5 48.5,-136.5 7.5,-136.5"/>
<text text-anchor="middle" x="28" y="-143.5" font-family="Arial" font-size="10.00">idDict</text>
</a>
</g>
</g>
<!-- Node3&#45;&gt;Node2 -->
<g id="edge2" class="edge"><title>Node3&#45;&gt;Node2</title>
<path fill="none" stroke="#9a32cd" stroke-dasharray="5,2" d="M28,-126.041C28,-113.472 28,-97.5631 28,-87.8411"/>
<polygon fill="#9a32cd" stroke="#9a32cd" points="24.5001,-126.372 28,-136.372 31.5001,-126.372 24.5001,-126.372"/>
<text text-anchor="middle" x="45" y="-109.5" font-family="Arial" font-size="10.00"> guiDict</text>
</g>
<!-- Node4 -->
<g id="node4" class="node"><title>Node4</title>
<g id="a_node4"><a xlink:href="classid_rectangle.html" target="_top" xlink:title="idRectangle">
<polygon fill="white" stroke="black" points="74,-68.5 74,-87.5 142,-87.5 142,-68.5 74,-68.5"/>
<text text-anchor="middle" x="108" y="-75.5" font-family="Arial" font-size="10.00">idRectangle</text>
</a>
</g>
</g>
<!-- Node4&#45;&gt;Node1 -->
<g id="edge3" class="edge"><title>Node4&#45;&gt;Node1</title>
<path fill="none" stroke="#9a32cd" stroke-dasharray="5,2" d="M102.371,-58.425C98.5448,-45.7978 93.6552,-29.6623 90.6791,-19.8411"/>
<polygon fill="#9a32cd" stroke="#9a32cd" points="99.1356,-59.8165 105.385,-68.3717 105.835,-57.7864 99.1356,-59.8165"/>
<text text-anchor="middle" x="110" y="-41.5" font-family="Arial" font-size="10.00"> data</text>
</g>
</g>
</svg>
