<?xml version="1.0" encoding="UTF-8" standalone="no"?>
<!DOCTYPE svg PUBLIC "-//W3C//DTD SVG 1.1//EN"
 "http://www.w3.org/Graphics/SVG/1.1/DTD/svg11.dtd">
<!-- Generated by graphviz version 2.34.0 (20130907.0111)
 -->
<!-- Title: idPhysics_Monster Pages: 1 -->
<svg width="1552pt" height="817pt"
 viewBox="0.00 0.00 1552.00 817.00" xmlns="http://www.w3.org/2000/svg" xmlns:xlink="http://www.w3.org/1999/xlink">
<g id="graph0" class="graph" transform="scale(1 1) rotate(0) translate(4 813)">
<title>idPhysics_Monster</title>
<polygon fill="white" stroke="white" points="-4,4 -4,-813 1548,-813 1548,4 -4,4"/>
<!-- Node1 -->
<g id="node1" class="node"><title>Node1</title>
<polygon fill="#bfbfbf" stroke="black" points="1444,-162.5 1444,-181.5 1544,-181.5 1544,-162.5 1444,-162.5"/>
<text text-anchor="middle" x="1494" y="-169.5" font-family="Arial" font-size="10.00">idPhysics_Monster</text>
</g>
<!-- Node2 -->
<g id="node2" class="node"><title>Node2</title>
<g id="a_node2"><a xlink:href="classid_physics___actor.html" target="_top" xlink:title="idPhysics_Actor">
<polygon fill="white" stroke="black" points="1318,-162.5 1318,-181.5 1406,-181.5 1406,-162.5 1318,-162.5"/>
<text text-anchor="middle" x="1362" y="-169.5" font-family="Arial" font-size="10.00">idPhysics_Actor</text>
</a>
</g>
</g>
<!-- Node2&#45;&gt;Node1 -->
<g id="edge1" class="edge"><title>Node2&#45;&gt;Node1</title>
<path fill="none" stroke="midnightblue" d="M1416.31,-165.348C1425.34,-165.195 1434.69,-165.221 1443.61,-165.426"/>
<polygon fill="midnightblue" stroke="midnightblue" points="1416.2,-161.85 1406.29,-165.596 1416.37,-168.847 1416.2,-161.85"/>
</g>
<!-- Node2&#45;&gt;Node1 -->
<g id="edge57" class="edge"><title>Node2&#45;&gt;Node1</title>
<path fill="none" stroke="midnightblue" d="M1416.31,-178.652C1425.34,-178.805 1434.69,-178.779 1443.61,-178.574"/>
<polygon fill="midnightblue" stroke="midnightblue" points="1416.37,-175.153 1406.29,-178.404 1416.2,-182.15 1416.37,-175.153"/>
</g>
<!-- Node3 -->
<g id="node3" class="node"><title>Node3</title>
<g id="a_node3"><a xlink:href="classid_physics___base.html" target="_top" xlink:title="idPhysics_Base">
<polygon fill="white" stroke="black" points="1109.5,-542.5 1109.5,-561.5 1196.5,-561.5 1196.5,-542.5 1109.5,-542.5"/>
<text text-anchor="middle" x="1153" y="-549.5" font-family="Arial" font-size="10.00">idPhysics_Base</text>
</a>
</g>
</g>
<!-- Node3&#45;&gt;Node2 -->
<g id="edge2" class="edge"><title>Node3&#45;&gt;Node2</title>
<path fill="none" stroke="midnightblue" d="M1162.69,-533.129C1197.15,-464.65 1323.84,-232.189 1354.36,-181.609"/>
<polygon fill="midnightblue" stroke="midnightblue" points="1159.43,-531.817 1158.13,-542.332 1165.71,-534.921 1159.43,-531.817"/>
</g>
<!-- Node3&#45;&gt;Node2 -->
<g id="edge52" class="edge"><title>Node3&#45;&gt;Node2</title>
<path fill="none" stroke="midnightblue" d="M1165.85,-533.606C1205.49,-465.745 1332.42,-232.314 1356.89,-181.607"/>
<polygon fill="midnightblue" stroke="midnightblue" points="1162.74,-531.988 1160.65,-542.376 1168.76,-535.555 1162.74,-531.988"/>
</g>
<!-- Node4 -->
<g id="node4" class="node"><title>Node4</title>
<g id="a_node4"><a xlink:href="classid_physics.html" target="_top" xlink:title="idPhysics">
<polygon fill="white" stroke="black" points="931.5,-635.5 931.5,-654.5 990.5,-654.5 990.5,-635.5 931.5,-635.5"/>
<text text-anchor="middle" x="961" y="-642.5" font-family="Arial" font-size="10.00">idPhysics</text>
</a>
</g>
</g>
<!-- Node4&#45;&gt;Node3 -->
<g id="edge3" class="edge"><title>Node4&#45;&gt;Node3</title>
<path fill="none" stroke="midnightblue" d="M1000.53,-634.073C1023.98,-629.714 1053.94,-623.458 1078,-611 1102.64,-598.246 1125.22,-575.103 1138.79,-561.553"/>
<polygon fill="midnightblue" stroke="midnightblue" points="999.797,-630.65 990.593,-635.898 1001.06,-637.535 999.797,-630.65"/>
</g>
<!-- Node4&#45;&gt;Node3 -->
<g id="edge13" class="edge"><title>Node4&#45;&gt;Node3</title>
<path fill="none" stroke="midnightblue" d="M1000.85,-649.606C1024.25,-647.658 1054.04,-641.403 1078,-629 1109.61,-612.636 1137.83,-579.171 1147.99,-561.697"/>
<polygon fill="midnightblue" stroke="midnightblue" points="1000.37,-646.127 990.593,-650.204 1000.78,-653.116 1000.37,-646.127"/>
</g>
<!-- Node5 -->
<g id="node5" class="node"><title>Node5</title>
<g id="a_node5"><a xlink:href="classid_class.html" target="_top" xlink:title="idClass">
<polygon fill="white" stroke="black" points="709.5,-635.5 709.5,-654.5 758.5,-654.5 758.5,-635.5 709.5,-635.5"/>
<text text-anchor="middle" x="734" y="-642.5" font-family="Arial" font-size="10.00">idClass</text>
</a>
</g>
</g>
<!-- Node5&#45;&gt;Node4 -->
<g id="edge4" class="edge"><title>Node5&#45;&gt;Node4</title>
<path fill="none" stroke="midnightblue" d="M768.905,-640.005C813.18,-637.564 889.912,-637.669 931.397,-640.32"/>
<polygon fill="midnightblue" stroke="midnightblue" points="768.41,-636.53 758.654,-640.661 768.857,-643.516 768.41,-636.53"/>
</g>
<!-- Node5&#45;&gt;Node4 -->
<g id="edge12" class="edge"><title>Node5&#45;&gt;Node4</title>
<path fill="none" stroke="midnightblue" d="M768.905,-649.995C813.18,-652.436 889.912,-652.331 931.397,-649.68"/>
<polygon fill="midnightblue" stroke="midnightblue" points="768.857,-646.484 758.654,-649.339 768.41,-653.47 768.857,-646.484"/>
</g>
<!-- Node6 -->
<g id="node6" class="node"><title>Node6</title>
<g id="a_node6"><a xlink:href="classid_type_info.html" target="_top" xlink:title="idTypeInfo">
<polygon fill="white" stroke="black" points="931,-711.5 931,-730.5 991,-730.5 991,-711.5 931,-711.5"/>
<text text-anchor="middle" x="961" y="-718.5" font-family="Arial" font-size="10.00">idTypeInfo</text>
</a>
</g>
</g>
<!-- Node5&#45;&gt;Node6 -->
<g id="edge10" class="edge"><title>Node5&#45;&gt;Node6</title>
<path fill="none" stroke="#9a32cd" stroke-dasharray="5,2" d="M768.547,-653.372C806.122,-662.879 864.569,-678.093 886,-686 905.733,-693.281 927.383,-703.841 942.138,-711.456"/>
<polygon fill="#9a32cd" stroke="#9a32cd" points="769.103,-649.902 758.55,-650.852 767.392,-656.69 769.103,-649.902"/>
<text text-anchor="middle" x="851" y="-689" font-family="Arial" font-size="10.00"> CreateInstance</text>
</g>
<!-- Node10 -->
<g id="node10" class="node"><title>Node10</title>
<g id="a_node10"><a xlink:href="classid_entity.html" target="_top" xlink:title="idEntity">
<polygon fill="white" stroke="black" points="936,-408.5 936,-427.5 986,-427.5 986,-408.5 936,-408.5"/>
<text text-anchor="middle" x="961" y="-415.5" font-family="Arial" font-size="10.00">idEntity</text>
</a>
</g>
</g>
<!-- Node5&#45;&gt;Node10 -->
<g id="edge15" class="edge"><title>Node5&#45;&gt;Node10</title>
<path fill="none" stroke="midnightblue" d="M756.294,-630.701C787.909,-614.023 847.646,-585.082 886,-545 921.309,-508.1 944.969,-451.059 954.821,-427.779"/>
<polygon fill="midnightblue" stroke="midnightblue" points="754.576,-627.651 747.44,-635.482 757.902,-633.811 754.576,-627.651"/>
</g>
<!-- Node5&#45;&gt;Node10 -->
<g id="edge16" class="edge"><title>Node5&#45;&gt;Node10</title>
<path fill="none" stroke="midnightblue" d="M768.242,-638.035C801.366,-625.22 852.056,-598.473 886,-563 925.955,-521.245 950.993,-453.699 957.988,-427.803"/>
<polygon fill="midnightblue" stroke="midnightblue" points="766.763,-634.848 758.564,-641.559 769.158,-641.426 766.763,-634.848"/>
</g>
<!-- Node6&#45;&gt;Node5 -->
<g id="edge5" class="edge"><title>Node6&#45;&gt;Node5</title>
<path fill="none" stroke="#9a32cd" stroke-dasharray="5,2" d="M920.551,-719.583C890.924,-717.433 849.812,-712.107 816,-699 788.423,-688.31 760.697,-667.001 745.913,-654.587"/>
<polygon fill="#9a32cd" stroke="#9a32cd" points="920.71,-723.1 930.911,-720.239 921.153,-716.114 920.71,-723.1"/>
<text text-anchor="middle" x="851" y="-719" font-family="Arial" font-size="10.00"> Type</text>
</g>
<!-- Node6&#45;&gt;Node6 -->
<g id="edge6" class="edge"><title>Node6&#45;&gt;Node6</title>
<path fill="none" stroke="#9a32cd" stroke-dasharray="5,2" d="M943.223,-740.4C944.41,-745.315 950.336,-749 961,-749 978.063,-749 982.995,-739.565 975.796,-730.757"/>
<polygon fill="#9a32cd" stroke="#9a32cd" points="946.594,-741.345 946.204,-730.757 939.907,-739.278 946.594,-741.345"/>
<text text-anchor="middle" x="961" y="-763" font-family="Arial" font-size="10.00"> next</text>
<text text-anchor="middle" x="961" y="-752" font-family="Arial" font-size="10.00">super</text>
</g>
<!-- Node7 -->
<g id="node7" class="node"><title>Node7</title>
<g id="a_node7"><a xlink:href="classid_hierarchy.html" target="_top" xlink:title="idHierarchy\&lt; idTypeInfo \&gt;">
<polygon fill="white" stroke="black" points="670.5,-735.5 670.5,-754.5 797.5,-754.5 797.5,-735.5 670.5,-735.5"/>
<text text-anchor="middle" x="734" y="-742.5" font-family="Arial" font-size="10.00">idHierarchy&lt; idTypeInfo &gt;</text>
</a>
</g>
</g>
<!-- Node7&#45;&gt;Node6 -->
<g id="edge7" class="edge"><title>Node7&#45;&gt;Node6</title>
<path fill="none" stroke="#9a32cd" stroke-dasharray="5,2" d="M807.655,-740.43C832.542,-738.546 860.529,-736.072 886,-733 900.86,-731.208 917.302,-728.604 930.906,-726.28"/>
<polygon fill="#9a32cd" stroke="#9a32cd" points="807.275,-736.949 797.56,-741.176 807.791,-743.93 807.275,-736.949"/>
<text text-anchor="middle" x="851" y="-743" font-family="Arial" font-size="10.00"> node</text>
</g>
<!-- Node8 -->
<g id="node8" class="node"><title>Node8</title>
<g id="a_node8"><a xlink:href="structid_event_func.html" target="_top" xlink:title="idEventFunc\&lt; idClass \&gt;">
<polygon fill="white" stroke="black" points="428,-742.5 428,-761.5 548,-761.5 548,-742.5 428,-742.5"/>
<text text-anchor="middle" x="488" y="-749.5" font-family="Arial" font-size="10.00">idEventFunc&lt; idClass &gt;</text>
</a>
</g>
</g>
<!-- Node8&#45;&gt;Node5 -->
<g id="edge11" class="edge"><title>Node8&#45;&gt;Node5</title>
<path fill="none" stroke="#9a32cd" stroke-dasharray="5,2" d="M520.478,-738.196C570.718,-716.165 667.776,-673.602 711.142,-654.585"/>
<polygon fill="#9a32cd" stroke="#9a32cd" points="518.836,-735.094 511.084,-742.316 521.647,-741.505 518.836,-735.094"/>
<text text-anchor="middle" x="609" y="-721" font-family="Arial" font-size="10.00"> eventCallbacks</text>
</g>
<!-- Node8&#45;&gt;Node6 -->
<g id="edge8" class="edge"><title>Node8&#45;&gt;Node6</title>
<path fill="none" stroke="#9a32cd" stroke-dasharray="5,2" d="M553.533,-763.018C633.244,-774.25 772.246,-786.03 886,-755 906.596,-749.382 928.641,-738.562 943.26,-730.632"/>
<polygon fill="#9a32cd" stroke="#9a32cd" points="553.562,-759.485 543.163,-761.512 552.556,-766.413 553.562,-759.485"/>
<text text-anchor="middle" x="734" y="-777" font-family="Arial" font-size="10.00"> eventCallbacks</text>
</g>
<!-- Node9 -->
<g id="node9" class="node"><title>Node9</title>
<g id="a_node9"><a xlink:href="classid_event_def.html" target="_top" xlink:title="idEventDef">
<polygon fill="white" stroke="black" points="234,-742.5 234,-761.5 296,-761.5 296,-742.5 234,-742.5"/>
<text text-anchor="middle" x="265" y="-749.5" font-family="Arial" font-size="10.00">idEventDef</text>
</a>
</g>
</g>
<!-- Node9&#45;&gt;Node8 -->
<g id="edge9" class="edge"><title>Node9&#45;&gt;Node8</title>
<path fill="none" stroke="#9a32cd" stroke-dasharray="5,2" d="M306.282,-752C340.209,-752 389.214,-752 427.636,-752"/>
<polygon fill="#9a32cd" stroke="#9a32cd" points="306.266,-748.5 296.266,-752 306.266,-755.5 306.266,-748.5"/>
<text text-anchor="middle" x="374" y="-755" font-family="Arial" font-size="10.00"> event</text>
</g>
<!-- Node10&#45;&gt;Node2 -->
<g id="edge53" class="edge"><title>Node10&#45;&gt;Node2</title>
<path fill="none" stroke="#9a32cd" stroke-dasharray="5,2" d="M986.362,-402.98C1060.89,-357.03 1284.45,-219.197 1345.47,-181.577"/>
<polygon fill="#9a32cd" stroke="#9a32cd" points="984.317,-400.129 977.641,-408.357 987.99,-406.088 984.317,-400.129"/>
<text text-anchor="middle" x="1153" y="-339" font-family="Arial" font-size="10.00"> masterEntity</text>
</g>
<!-- Node10&#45;&gt;Node3 -->
<g id="edge14" class="edge"><title>Node10&#45;&gt;Node3</title>
<path fill="none" stroke="#9a32cd" stroke-dasharray="5,2" d="M983.876,-433.428C1023.49,-461.365 1105.99,-519.554 1138.46,-542.45"/>
<polygon fill="#9a32cd" stroke="#9a32cd" points="985.854,-430.54 975.664,-427.637 981.819,-436.261 985.854,-430.54"/>
<text text-anchor="middle" x="1057" y="-501" font-family="Arial" font-size="10.00"> self</text>
</g>
<!-- Node10&#45;&gt;Node10 -->
<g id="edge17" class="edge"><title>Node10&#45;&gt;Node10</title>
<path fill="none" stroke="#9a32cd" stroke-dasharray="5,2" d="M943.223,-437.4C944.41,-442.315 950.336,-446 961,-446 978.063,-446 982.995,-436.565 975.796,-427.757"/>
<polygon fill="#9a32cd" stroke="#9a32cd" points="946.594,-438.345 946.204,-427.757 939.907,-436.278 946.594,-438.345"/>
<text text-anchor="middle" x="961" y="-449" font-family="Arial" font-size="10.00"> cameraTarget</text>
</g>
<!-- Node11 -->
<g id="node11" class="node"><title>Node11</title>
<g id="a_node11"><a xlink:href="classid_str.html" target="_top" xlink:title="idStr">
<polygon fill="white" stroke="black" points="715.5,-416.5 715.5,-435.5 752.5,-435.5 752.5,-416.5 715.5,-416.5"/>
<text text-anchor="middle" x="734" y="-423.5" font-family="Arial" font-size="10.00">idStr</text>
</a>
</g>
</g>
<!-- Node11&#45;&gt;Node10 -->
<g id="edge18" class="edge"><title>Node11&#45;&gt;Node10</title>
<path fill="none" stroke="#9a32cd" stroke-dasharray="5,2" d="M762.729,-423.056C778.355,-421.535 798.243,-419.828 816,-419 858.08,-417.039 907.151,-417.226 935.78,-417.583"/>
<polygon fill="#9a32cd" stroke="#9a32cd" points="762.27,-419.585 752.67,-424.067 762.97,-426.55 762.27,-419.585"/>
<text text-anchor="middle" x="851" y="-422" font-family="Arial" font-size="10.00"> name</text>
</g>
<!-- Node12 -->
<g id="node12" class="node"><title>Node12</title>
<g id="a_node12"><a xlink:href="structid_entity_1_1entity_flags__s.html" target="_top" xlink:title="idEntity::entityFlags_s">
<polygon fill="white" stroke="black" points="677,-378.5 677,-397.5 791,-397.5 791,-378.5 677,-378.5"/>
<text text-anchor="middle" x="734" y="-385.5" font-family="Arial" font-size="10.00">idEntity::entityFlags_s</text>
</a>
</g>
</g>
<!-- Node12&#45;&gt;Node10 -->
<g id="edge19" class="edge"><title>Node12&#45;&gt;Node10</title>
<path fill="none" stroke="#9a32cd" stroke-dasharray="5,2" d="M801.379,-393.135C827.788,-395.558 858.403,-398.843 886,-403 902.721,-405.519 921.381,-409.308 935.779,-412.448"/>
<polygon fill="#9a32cd" stroke="#9a32cd" points="801.373,-389.62 791.101,-392.215 800.75,-396.593 801.373,-389.62"/>
<text text-anchor="middle" x="851" y="-406" font-family="Arial" font-size="10.00"> fl</text>
</g>
<!-- Node13 -->
<g id="node13" class="node"><title>Node13</title>
<g id="a_node13"><a xlink:href="structrender_view__s.html" target="_top" xlink:title="renderView_s">
<polygon fill="white" stroke="black" points="450.5,-297.5 450.5,-316.5 525.5,-316.5 525.5,-297.5 450.5,-297.5"/>
<text text-anchor="middle" x="488" y="-304.5" font-family="Arial" font-size="10.00">renderView_s</text>
</a>
</g>
</g>
<!-- Node13&#45;&gt;Node10 -->
<g id="edge20" class="edge"><title>Node13&#45;&gt;Node10</title>
<path fill="none" stroke="#9a32cd" stroke-dasharray="5,2" d="M518.073,-293.25C573.418,-268.967 697.376,-223.698 798,-253 842.51,-265.961 852.736,-276.71 886,-309 918.331,-340.385 944.724,-388.014 955.172,-408.301"/>
<polygon fill="#9a32cd" stroke="#9a32cd" points="516.56,-290.093 508.865,-297.376 519.422,-296.481 516.56,-290.093"/>
<text text-anchor="middle" x="734" y="-256" font-family="Arial" font-size="10.00"> renderView</text>
</g>
<!-- Node21 -->
<g id="node21" class="node"><title>Node21</title>
<g id="a_node21"><a xlink:href="structrender_entity__s.html" target="_top" xlink:title="renderEntity_s">
<polygon fill="white" stroke="black" points="694,-273.5 694,-292.5 774,-292.5 774,-273.5 694,-273.5"/>
<text text-anchor="middle" x="734" y="-280.5" font-family="Arial" font-size="10.00">renderEntity_s</text>
</a>
</g>
</g>
<!-- Node13&#45;&gt;Node21 -->
<g id="edge33" class="edge"><title>Node13&#45;&gt;Node21</title>
<path fill="none" stroke="#9a32cd" stroke-dasharray="5,2" d="M535.509,-302.425C581.361,-297.915 650.652,-291.1 693.793,-286.856"/>
<polygon fill="#9a32cd" stroke="#9a32cd" points="535.139,-298.945 525.529,-303.407 535.824,-305.911 535.139,-298.945"/>
<text text-anchor="middle" x="609" y="-303" font-family="Arial" font-size="10.00"> remoteRenderView</text>
</g>
<!-- Node14 -->
<g id="node14" class="node"><title>Node14</title>
<g id="a_node14"><a xlink:href="classid_mat3.html" target="_top" xlink:title="idMat3">
<polygon fill="white" stroke="black" points="242,-297.5 242,-316.5 288,-316.5 288,-297.5 242,-297.5"/>
<text text-anchor="middle" x="265" y="-304.5" font-family="Arial" font-size="10.00">idMat3</text>
</a>
</g>
</g>
<!-- Node14&#45;&gt;Node2 -->
<g id="edge54" class="edge"><title>Node14&#45;&gt;Node2</title>
<path fill="none" stroke="#9a32cd" stroke-dasharray="5,2" d="M298.249,-305.025C331.452,-301.176 382.153,-289.9 410,-257 440.872,-220.526 391.565,-181.918 428,-151 499.504,-90.3236 756.221,-149 850,-149 850,-149 850,-149 1154,-149 1210.95,-149 1276.18,-157.706 1317.94,-164.405"/>
<polygon fill="#9a32cd" stroke="#9a32cd" points="297.738,-301.559 288.134,-306.032 298.432,-308.524 297.738,-301.559"/>
<text text-anchor="middle" x="851" y="-152" font-family="Arial" font-size="10.00"> clipModelAxis</text>
</g>
<!-- Node14&#45;&gt;Node13 -->
<g id="edge21" class="edge"><title>Node14&#45;&gt;Node13</title>
<path fill="none" stroke="#9a32cd" stroke-dasharray="5,2" d="M298.538,-307C339.018,-307 407.951,-307 450.283,-307"/>
<polygon fill="#9a32cd" stroke="#9a32cd" points="298.407,-303.5 288.407,-307 298.407,-310.5 298.407,-303.5"/>
<text text-anchor="middle" x="374" y="-310" font-family="Arial" font-size="10.00"> viewaxis</text>
</g>
<!-- Node14&#45;&gt;Node21 -->
<g id="edge29" class="edge"><title>Node14&#45;&gt;Node21</title>
<path fill="none" stroke="#9a32cd" stroke-dasharray="5,2" d="M298.105,-314.842C310.497,-317.565 324.836,-320.347 338,-322 476.503,-339.39 516.438,-348.291 652,-315 673.585,-309.699 697.089,-299.935 713.191,-292.581"/>
<polygon fill="#9a32cd" stroke="#9a32cd" points="298.75,-311.4 288.222,-312.596 297.198,-318.225 298.75,-311.4"/>
<text text-anchor="middle" x="488" y="-341" font-family="Arial" font-size="10.00"> axis</text>
</g>
<!-- Node15 -->
<g id="node15" class="node"><title>Node15</title>
<g id="a_node15"><a xlink:href="classid_vec3.html" target="_top" xlink:title="idVec3">
<polygon fill="white" stroke="black" points="241.5,-193.5 241.5,-212.5 288.5,-212.5 288.5,-193.5 241.5,-193.5"/>
<text text-anchor="middle" x="265" y="-200.5" font-family="Arial" font-size="10.00">idVec3</text>
</a>
</g>
</g>
<!-- Node15&#45;&gt;Node3 -->
<g id="edge51" class="edge"><title>Node15&#45;&gt;Node3</title>
<path fill="none" stroke="#9a32cd" stroke-dasharray="5,2" d="M288.956,-187.858C319.318,-168.748 375.173,-136.721 428,-123 625.026,-71.8251 717.5,-12.7816 886,-127 1050.64,-238.601 1133.29,-489.572 1149.15,-542.204"/>
<polygon fill="#9a32cd" stroke="#9a32cd" points="286.923,-185.003 280.383,-193.339 290.693,-190.901 286.923,-185.003"/>
<text text-anchor="middle" x="734" y="-94" font-family="Arial" font-size="10.00"> gravityNormal</text>
<text text-anchor="middle" x="734" y="-83" font-family="Arial" font-size="10.00">gravityVector</text>
</g>
<!-- Node15&#45;&gt;Node13 -->
<g id="edge22" class="edge"><title>Node15&#45;&gt;Node13</title>
<path fill="none" stroke="#9a32cd" stroke-dasharray="5,2" d="M293.426,-217.302C325.413,-233.804 380.035,-261.435 428,-283 439.195,-288.033 451.774,-293.214 462.432,-297.468"/>
<polygon fill="#9a32cd" stroke="#9a32cd" points="294.747,-214.045 284.258,-212.556 291.53,-220.261 294.747,-214.045"/>
<text text-anchor="middle" x="374" y="-276" font-family="Arial" font-size="10.00"> vieworg</text>
</g>
<!-- Node15&#45;&gt;Node21 -->
<g id="edge37" class="edge"><title>Node15&#45;&gt;Node21</title>
<path fill="none" stroke="#9a32cd" stroke-dasharray="5,2" d="M298.681,-210.749C344.132,-221.513 421.61,-239.813 428,-241 522.857,-258.616 635.577,-272.271 693.814,-278.792"/>
<polygon fill="#9a32cd" stroke="#9a32cd" points="299.229,-207.282 288.692,-208.382 297.615,-214.093 299.229,-207.282"/>
<text text-anchor="middle" x="488" y="-263" font-family="Arial" font-size="10.00"> origin</text>
</g>
<!-- Node29 -->
<g id="node29" class="node"><title>Node29</title>
<g id="a_node29"><a xlink:href="structref_sound__t.html" target="_top" xlink:title="refSound_t">
<polygon fill="white" stroke="black" points="456.5,-51.5 456.5,-70.5 519.5,-70.5 519.5,-51.5 456.5,-51.5"/>
<text text-anchor="middle" x="488" y="-58.5" font-family="Arial" font-size="10.00">refSound_t</text>
</a>
</g>
</g>
<!-- Node15&#45;&gt;Node29 -->
<g id="edge47" class="edge"><title>Node15&#45;&gt;Node29</title>
<path fill="none" stroke="#9a32cd" stroke-dasharray="5,2" d="M294.484,-188.35C303.681,-182.456 313.236,-174.921 320,-166 335.03,-146.177 320.25,-130.43 338,-113 361.969,-89.4633 378.271,-101.035 410,-90 427.675,-83.8531 447.423,-76.4034 462.495,-70.5937"/>
<polygon fill="#9a32cd" stroke="#9a32cd" points="292.67,-185.356 285.88,-193.489 296.26,-191.366 292.67,-185.356"/>
<text text-anchor="middle" x="374" y="-116" font-family="Arial" font-size="10.00"> origin</text>
</g>
<!-- Node16 -->
<g id="node16" class="node"><title>Node16</title>
<g id="a_node16"><a xlink:href="classid_material.html" target="_top" xlink:title="idMaterial">
<polygon fill="white" stroke="black" points="235.5,-376.5 235.5,-395.5 294.5,-395.5 294.5,-376.5 235.5,-376.5"/>
<text text-anchor="middle" x="265" y="-383.5" font-family="Arial" font-size="10.00">idMaterial</text>
</a>
</g>
</g>
<!-- Node16&#45;&gt;Node13 -->
<g id="edge23" class="edge"><title>Node16&#45;&gt;Node13</title>
<path fill="none" stroke="#9a32cd" stroke-dasharray="5,2" d="M302.185,-373.065C346.549,-357.206 420.702,-330.699 460.248,-316.563"/>
<polygon fill="#9a32cd" stroke="#9a32cd" points="300.896,-369.809 292.658,-376.471 303.252,-376.4 300.896,-369.809"/>
<text text-anchor="middle" x="374" y="-362" font-family="Arial" font-size="10.00"> globalMaterial</text>
</g>
<!-- Node16&#45;&gt;Node21 -->
<g id="edge39" class="edge"><title>Node16&#45;&gt;Node21</title>
<path fill="none" stroke="#9a32cd" stroke-dasharray="5,2" d="M305.104,-387.363C376.587,-388.521 532.026,-384.822 652,-338 679.869,-327.124 707.703,-305.206 722.378,-292.57"/>
<polygon fill="#9a32cd" stroke="#9a32cd" points="304.845,-383.857 294.776,-387.151 304.702,-390.855 304.845,-383.857"/>
<text text-anchor="middle" x="488" y="-398" font-family="Arial" font-size="10.00"> customShader</text>
<text text-anchor="middle" x="488" y="-387" font-family="Arial" font-size="10.00">referenceShader</text>
</g>
<!-- Node17 -->
<g id="node17" class="node"><title>Node17</title>
<g id="a_node17"><a xlink:href="classid_decl.html" target="_top" xlink:title="idDecl">
<polygon fill="white" stroke="black" points="128,-376.5 128,-395.5 172,-395.5 172,-376.5 128,-376.5"/>
<text text-anchor="middle" x="150" y="-383.5" font-family="Arial" font-size="10.00">idDecl</text>
</a>
</g>
</g>
<!-- Node17&#45;&gt;Node16 -->
<g id="edge24" class="edge"><title>Node17&#45;&gt;Node16</title>
<path fill="none" stroke="midnightblue" d="M182.507,-386C199.008,-386 219.073,-386 235.163,-386"/>
<polygon fill="midnightblue" stroke="midnightblue" points="182.254,-382.5 172.254,-386 182.254,-389.5 182.254,-382.5"/>
</g>
<!-- Node22 -->
<g id="node22" class="node"><title>Node22</title>
<g id="a_node22"><a xlink:href="classid_decl_skin.html" target="_top" xlink:title="idDeclSkin">
<polygon fill="white" stroke="black" points="342.5,-451.5 342.5,-470.5 405.5,-470.5 405.5,-451.5 342.5,-451.5"/>
<text text-anchor="middle" x="374" y="-458.5" font-family="Arial" font-size="10.00">idDeclSkin</text>
</a>
</g>
</g>
<!-- Node17&#45;&gt;Node22 -->
<g id="edge31" class="edge"><title>Node17&#45;&gt;Node22</title>
<path fill="none" stroke="midnightblue" d="M181.567,-397.048C184.415,-398.055 187.259,-399.051 190,-400 244.117,-418.73 307.589,-439.655 343.771,-451.486"/>
<polygon fill="midnightblue" stroke="midnightblue" points="182.613,-393.705 172.019,-393.645 180.263,-400.299 182.613,-393.705"/>
</g>
<!-- Node31 -->
<g id="node31" class="node"><title>Node31</title>
<g id="a_node31"><a xlink:href="classid_sound_shader.html" target="_top" xlink:title="idSoundShader">
<polygon fill="white" stroke="black" points="223.5,-64.5 223.5,-83.5 306.5,-83.5 306.5,-64.5 223.5,-64.5"/>
<text text-anchor="middle" x="265" y="-71.5" font-family="Arial" font-size="10.00">idSoundShader</text>
</a>
</g>
</g>
<!-- Node17&#45;&gt;Node31 -->
<g id="edge45" class="edge"><title>Node17&#45;&gt;Node31</title>
<path fill="none" stroke="midnightblue" d="M151.829,-366.276C154.475,-321.264 165.411,-208.638 210,-128 220.137,-109.668 238.331,-93.3948 250.775,-83.6222"/>
<polygon fill="midnightblue" stroke="midnightblue" points="148.325,-366.262 151.31,-376.428 155.316,-366.62 148.325,-366.262"/>
</g>
<!-- Node18 -->
<g id="node18" class="node"><title>Node18</title>
<g id="a_node18"><a xlink:href="classid_decl_base.html" target="_top" xlink:title="idDeclBase">
<polygon fill="white" stroke="black" points="0,-376.5 0,-395.5 66,-395.5 66,-376.5 0,-376.5"/>
<text text-anchor="middle" x="33" y="-383.5" font-family="Arial" font-size="10.00">idDeclBase</text>
</a>
</g>
</g>
<!-- Node18&#45;&gt;Node17 -->
<g id="edge25" class="edge"><title>Node18&#45;&gt;Node17</title>
<path fill="none" stroke="#9a32cd" stroke-dasharray="5,2" d="M76.0643,-386C93.5984,-386 113.201,-386 127.664,-386"/>
<polygon fill="#9a32cd" stroke="#9a32cd" points="76.0339,-382.5 66.0339,-386 76.0339,-389.5 76.0339,-382.5"/>
<text text-anchor="middle" x="97" y="-389" font-family="Arial" font-size="10.00"> base</text>
</g>
<!-- Node19 -->
<g id="node19" class="node"><title>Node19</title>
<g id="a_node19"><a xlink:href="classid_list.html" target="_top" xlink:title="idList\&lt; idEntityPtr\l\&lt; idEntity \&gt; \&gt;">
<polygon fill="white" stroke="black" points="686.5,-561 686.5,-591 781.5,-591 781.5,-561 686.5,-561"/>
<text text-anchor="start" x="694.5" y="-579" font-family="Arial" font-size="10.00">idList&lt; idEntityPtr</text>
<text text-anchor="middle" x="734" y="-568" font-family="Arial" font-size="10.00">&lt; idEntity &gt; &gt;</text>
</a>
</g>
</g>
<!-- Node19&#45;&gt;Node3 -->
<g id="edge49" class="edge"><title>Node19&#45;&gt;Node3</title>
<path fill="none" stroke="#9a32cd" stroke-dasharray="5,2" d="M791.826,-572.729C876.506,-567.856 1033.91,-558.796 1109.43,-554.45"/>
<polygon fill="#9a32cd" stroke="#9a32cd" points="791.404,-569.248 781.621,-573.317 791.806,-576.236 791.404,-569.248"/>
<text text-anchor="middle" x="961" y="-569" font-family="Arial" font-size="10.00"> contactEntities</text>
</g>
<!-- Node19&#45;&gt;Node10 -->
<g id="edge26" class="edge"><title>Node19&#45;&gt;Node10</title>
<path fill="none" stroke="#9a32cd" stroke-dasharray="5,2" d="M780.22,-557.05C791.83,-552.33 804.336,-547.372 816,-543 846.797,-531.458 859.51,-538.493 886,-519 920.491,-493.62 945.719,-447.491 955.516,-427.577"/>
<polygon fill="#9a32cd" stroke="#9a32cd" points="778.644,-553.913 770.716,-560.941 781.296,-560.391 778.644,-553.913"/>
<text text-anchor="middle" x="851" y="-546" font-family="Arial" font-size="10.00"> targets</text>
</g>
<!-- Node20 -->
<g id="node20" class="node"><title>Node20</title>
<g id="a_node20"><a xlink:href="classid_link_list.html" target="_top" xlink:title="idLinkList\&lt; idEntity \&gt;">
<polygon fill="white" stroke="black" points="679.5,-454.5 679.5,-473.5 788.5,-473.5 788.5,-454.5 679.5,-454.5"/>
<text text-anchor="middle" x="734" y="-461.5" font-family="Arial" font-size="10.00">idLinkList&lt; idEntity &gt;</text>
</a>
</g>
</g>
<!-- Node20&#45;&gt;Node10 -->
<g id="edge27" class="edge"><title>Node20&#45;&gt;Node10</title>
<path fill="none" stroke="#9a32cd" stroke-dasharray="5,2" d="M791.569,-452.435C838.103,-442.921 901.762,-429.906 935.949,-422.917"/>
<polygon fill="#9a32cd" stroke="#9a32cd" points="790.716,-449.037 781.62,-454.469 792.119,-455.895 790.716,-449.037"/>
<text text-anchor="middle" x="851" y="-472" font-family="Arial" font-size="10.00"> spawnNode</text>
<text text-anchor="middle" x="851" y="-461" font-family="Arial" font-size="10.00">snapshotNode</text>
<text text-anchor="middle" x="851" y="-450" font-family="Arial" font-size="10.00">activeNode</text>
</g>
<!-- Node21&#45;&gt;Node10 -->
<g id="edge28" class="edge"><title>Node21&#45;&gt;Node10</title>
<path fill="none" stroke="#9a32cd" stroke-dasharray="5,2" d="M776.219,-295.886C807.77,-306.806 851.571,-324.305 886,-347 913.055,-364.834 939.043,-393.196 951.807,-408.103"/>
<polygon fill="#9a32cd" stroke="#9a32cd" points="777.028,-292.465 766.434,-292.574 774.784,-299.095 777.028,-292.465"/>
<text text-anchor="middle" x="851" y="-350" font-family="Arial" font-size="10.00"> renderEntity</text>
</g>
<!-- Node21&#45;&gt;Node21 -->
<g id="edge38" class="edge"><title>Node21&#45;&gt;Node21</title>
<path fill="none" stroke="#9a32cd" stroke-dasharray="5,2" d="M712.52,-302.4C713.954,-307.315 721.114,-311 734,-311 754.617,-311 760.577,-301.565 751.879,-292.757"/>
<polygon fill="#9a32cd" stroke="#9a32cd" points="715.901,-303.35 716.121,-292.757 709.343,-300.9 715.901,-303.35"/>
<text text-anchor="middle" x="734" y="-314" font-family="Arial" font-size="10.00"> callback</text>
</g>
<!-- Node22&#45;&gt;Node21 -->
<g id="edge30" class="edge"><title>Node22&#45;&gt;Node21</title>
<path fill="none" stroke="#9a32cd" stroke-dasharray="5,2" d="M408.037,-474.197C465.632,-494.78 584.691,-526.195 652,-465 696.462,-424.577 639.797,-382.949 670,-331 680.021,-313.763 698.902,-300.653 713.391,-292.525"/>
<polygon fill="#9a32cd" stroke="#9a32cd" points="408.945,-470.802 398.352,-470.629 406.526,-477.37 408.945,-470.802"/>
<text text-anchor="middle" x="488" y="-504" font-family="Arial" font-size="10.00"> customSkin</text>
</g>
<!-- Node23 -->
<g id="node23" class="node"><title>Node23</title>
<g id="a_node23"><a xlink:href="classid_joint_mat.html" target="_top" xlink:title="idJointMat">
<polygon fill="white" stroke="black" points="457.5,-563.5 457.5,-582.5 518.5,-582.5 518.5,-563.5 457.5,-563.5"/>
<text text-anchor="middle" x="488" y="-570.5" font-family="Arial" font-size="10.00">idJointMat</text>
</a>
</g>
</g>
<!-- Node23&#45;&gt;Node21 -->
<g id="edge32" class="edge"><title>Node23&#45;&gt;Node21</title>
<path fill="none" stroke="#9a32cd" stroke-dasharray="5,2" d="M528.74,-579.072C566.242,-582.322 621.182,-580.222 652,-547 684.757,-511.688 646.847,-373.237 670,-331 679.518,-313.637 698.262,-300.62 712.841,-292.553"/>
<polygon fill="#9a32cd" stroke="#9a32cd" points="528.966,-575.577 518.66,-578.035 528.249,-582.54 528.966,-575.577"/>
<text text-anchor="middle" x="609" y="-583" font-family="Arial" font-size="10.00"> joints</text>
</g>
<!-- Node24 -->
<g id="node24" class="node"><title>Node24</title>
<g id="a_node24"><a xlink:href="classid_sound_emitter.html" target="_top" xlink:title="idSoundEmitter">
<polygon fill="white" stroke="black" points="223.5,-137.5 223.5,-156.5 306.5,-156.5 306.5,-137.5 223.5,-137.5"/>
<text text-anchor="middle" x="265" y="-144.5" font-family="Arial" font-size="10.00">idSoundEmitter</text>
</a>
</g>
</g>
<!-- Node24&#45;&gt;Node21 -->
<g id="edge34" class="edge"><title>Node24&#45;&gt;Node21</title>
<path fill="none" stroke="#9a32cd" stroke-dasharray="5,2" d="M316.626,-141.185C398.058,-134.814 558.45,-135.007 652,-220 668.863,-235.321 652.914,-252.927 670,-268 676.661,-273.876 685.21,-277.554 693.848,-279.831"/>
<polygon fill="#9a32cd" stroke="#9a32cd" points="316.292,-137.701 306.623,-142.033 316.882,-144.676 316.292,-137.701"/>
<text text-anchor="middle" x="488" y="-165" font-family="Arial" font-size="10.00"> referenceSound</text>
</g>
<!-- Node24&#45;&gt;Node29 -->
<g id="edge46" class="edge"><title>Node24&#45;&gt;Node29</title>
<path fill="none" stroke="#9a32cd" stroke-dasharray="5,2" d="M282.803,-130.059C301.934,-110.945 331.399,-82.096 338,-79 375.981,-61.1875 425.122,-58.6604 456.363,-59.2378"/>
<polygon fill="#9a32cd" stroke="#9a32cd" points="280.153,-127.76 275.571,-137.312 285.11,-132.702 280.153,-127.76"/>
<text text-anchor="middle" x="374" y="-82" font-family="Arial" font-size="10.00"> referenceSound</text>
</g>
<!-- Node25 -->
<g id="node25" class="node"><title>Node25</title>
<g id="a_node25"><a xlink:href="classid_render_model.html" target="_top" xlink:title="idRenderModel">
<polygon fill="white" stroke="black" points="447.5,-440.5 447.5,-459.5 528.5,-459.5 528.5,-440.5 447.5,-440.5"/>
<text text-anchor="middle" x="488" y="-447.5" font-family="Arial" font-size="10.00">idRenderModel</text>
</a>
</g>
</g>
<!-- Node25&#45;&gt;Node21 -->
<g id="edge35" class="edge"><title>Node25&#45;&gt;Node21</title>
<path fill="none" stroke="#9a32cd" stroke-dasharray="5,2" d="M538.878,-452.319C575.087,-451.19 622.68,-443.432 652,-414 678.64,-387.258 649.738,-362.847 670,-331 680.777,-314.062 699.752,-300.832 714.07,-292.589"/>
<polygon fill="#9a32cd" stroke="#9a32cd" points="538.463,-448.825 528.517,-452.474 538.568,-455.824 538.463,-448.825"/>
<text text-anchor="middle" x="609" y="-453" font-family="Arial" font-size="10.00"> hModel</text>
</g>
<!-- Node26 -->
<g id="node26" class="node"><title>Node26</title>
<g id="a_node26"><a xlink:href="classid_bounds.html" target="_top" xlink:title="idBounds">
<polygon fill="white" stroke="black" points="459.5,-212.5 459.5,-231.5 516.5,-231.5 516.5,-212.5 459.5,-212.5"/>
<text text-anchor="middle" x="488" y="-219.5" font-family="Arial" font-size="10.00">idBounds</text>
</a>
</g>
</g>
<!-- Node26&#45;&gt;Node21 -->
<g id="edge36" class="edge"><title>Node26&#45;&gt;Node21</title>
<path fill="none" stroke="#9a32cd" stroke-dasharray="5,2" d="M526.798,-221.26C560.897,-221.924 611.732,-226.285 652,-244 661.532,-248.193 661.012,-253.741 670,-259 679.9,-264.792 691.453,-269.667 701.942,-273.478"/>
<polygon fill="#9a32cd" stroke="#9a32cd" points="526.816,-217.76 516.783,-221.162 526.748,-224.76 526.816,-217.76"/>
<text text-anchor="middle" x="609" y="-247" font-family="Arial" font-size="10.00"> bounds</text>
</g>
<!-- Node27 -->
<g id="node27" class="node"><title>Node27</title>
<g id="a_node27"><a xlink:href="classid_user_interface.html" target="_top" xlink:title="idUserInterface">
<polygon fill="white" stroke="black" points="447.5,-525.5 447.5,-544.5 528.5,-544.5 528.5,-525.5 447.5,-525.5"/>
<text text-anchor="middle" x="488" y="-532.5" font-family="Arial" font-size="10.00">idUserInterface</text>
</a>
</g>
</g>
<!-- Node27&#45;&gt;Node21 -->
<g id="edge40" class="edge"><title>Node27&#45;&gt;Node21</title>
<path fill="none" stroke="#9a32cd" stroke-dasharray="5,2" d="M538.931,-533.863C581.052,-531.773 636.84,-525.969 652,-510 679.525,-481.006 650.484,-365.891 670,-331 679.666,-313.719 698.391,-300.692 712.926,-292.6"/>
<polygon fill="#9a32cd" stroke="#9a32cd" points="538.658,-530.372 528.821,-534.308 538.965,-537.365 538.658,-530.372"/>
<text text-anchor="middle" x="609" y="-535" font-family="Arial" font-size="10.00"> gui</text>
</g>
<!-- Node28 -->
<g id="node28" class="node"><title>Node28</title>
<g id="a_node28"><a xlink:href="classid_dict.html" target="_top" xlink:title="idDict">
<polygon fill="white" stroke="black" points="713.5,-340.5 713.5,-359.5 754.5,-359.5 754.5,-340.5 713.5,-340.5"/>
<text text-anchor="middle" x="734" y="-347.5" font-family="Arial" font-size="10.00">idDict</text>
</a>
</g>
</g>
<!-- Node28&#45;&gt;Node10 -->
<g id="edge41" class="edge"><title>Node28&#45;&gt;Node10</title>
<path fill="none" stroke="#9a32cd" stroke-dasharray="5,2" d="M764.638,-353.409C795.56,-357.534 845.135,-365.762 886,-380 907.139,-387.365 929.808,-399.742 944.405,-408.362"/>
<polygon fill="#9a32cd" stroke="#9a32cd" points="764.887,-349.912 754.524,-352.118 764,-356.856 764.887,-349.912"/>
<text text-anchor="middle" x="851" y="-383" font-family="Arial" font-size="10.00"> spawnArgs</text>
</g>
<!-- Node29&#45;&gt;Node10 -->
<g id="edge42" class="edge"><title>Node29&#45;&gt;Node10</title>
<path fill="none" stroke="#9a32cd" stroke-dasharray="5,2" d="M523.304,-74.2541C609.31,-108.019 831.16,-198.581 886,-255 931.273,-301.576 951.946,-380.745 958.011,-408.245"/>
<polygon fill="#9a32cd" stroke="#9a32cd" points="524.334,-70.8987 513.746,-70.5162 521.784,-77.418 524.334,-70.8987"/>
<text text-anchor="middle" x="734" y="-200" font-family="Arial" font-size="10.00"> refSound</text>
</g>
<!-- Node30 -->
<g id="node30" class="node"><title>Node30</title>
<g id="a_node30"><a xlink:href="structsound_shader_parms__t.html" target="_top" xlink:title="soundShaderParms_t">
<polygon fill="white" stroke="black" points="210,-0.5 210,-19.5 320,-19.5 320,-0.5 210,-0.5"/>
<text text-anchor="middle" x="265" y="-7.5" font-family="Arial" font-size="10.00">soundShaderParms_t</text>
</a>
</g>
</g>
<!-- Node30&#45;&gt;Node29 -->
<g id="edge43" class="edge"><title>Node30&#45;&gt;Node29</title>
<path fill="none" stroke="#9a32cd" stroke-dasharray="5,2" d="M330.248,-13.464C355.438,-15.8867 384.388,-20.0037 410,-27 431.286,-32.8147 454.251,-43.599 469.508,-51.4673"/>
<polygon fill="#9a32cd" stroke="#9a32cd" points="330.34,-9.95841 320.068,-12.556 329.718,-16.9307 330.34,-9.95841"/>
<text text-anchor="middle" x="374" y="-30" font-family="Arial" font-size="10.00"> parms</text>
</g>
<!-- Node31&#45;&gt;Node29 -->
<g id="edge44" class="edge"><title>Node31&#45;&gt;Node29</title>
<path fill="none" stroke="#9a32cd" stroke-dasharray="5,2" d="M293.433,-60.0662C306.558,-54.159 322.714,-47.9629 338,-45 378.483,-37.1534 425.954,-45.1565 456.241,-52.3907"/>
<polygon fill="#9a32cd" stroke="#9a32cd" points="291.617,-57.0521 284.051,-64.4687 294.591,-63.3891 291.617,-57.0521"/>
<text text-anchor="middle" x="374" y="-48" font-family="Arial" font-size="10.00"> shader</text>
</g>
<!-- Node32 -->
<g id="node32" class="node"><title>Node32</title>
<g id="a_node32"><a xlink:href="classid_script_object.html" target="_top" xlink:title="idScriptObject">
<polygon fill="white" stroke="black" points="695,-498.5 695,-517.5 773,-517.5 773,-498.5 695,-498.5"/>
<text text-anchor="middle" x="734" y="-505.5" font-family="Arial" font-size="10.00">idScriptObject</text>
</a>
</g>
</g>
<!-- Node32&#45;&gt;Node10 -->
<g id="edge48" class="edge"><title>Node32&#45;&gt;Node10</title>
<path fill="none" stroke="#9a32cd" stroke-dasharray="5,2" d="M783.082,-507.246C813.81,-505.135 853.788,-499.282 886,-484 914.618,-470.423 940.326,-442.267 952.523,-427.504"/>
<polygon fill="#9a32cd" stroke="#9a32cd" points="782.822,-503.755 773.041,-507.826 783.226,-510.743 782.822,-503.755"/>
<text text-anchor="middle" x="851" y="-507" font-family="Arial" font-size="10.00"> scriptObject</text>
</g>
<!-- Node33 -->
<g id="node33" class="node"><title>Node33</title>
<g id="a_node33"><a xlink:href="classid_list.html" target="_top" xlink:title="idList\&lt; contactInfo_t \&gt;">
<polygon fill="white" stroke="black" points="904.5,-789.5 904.5,-808.5 1017.5,-808.5 1017.5,-789.5 904.5,-789.5"/>
<text text-anchor="middle" x="961" y="-796.5" font-family="Arial" font-size="10.00">idList&lt; contactInfo_t &gt;</text>
</a>
</g>
</g>
<!-- Node33&#45;&gt;Node3 -->
<g id="edge50" class="edge"><title>Node33&#45;&gt;Node3</title>
<path fill="none" stroke="#9a32cd" stroke-dasharray="5,2" d="M1010.8,-784.971C1013.34,-783.475 1015.76,-781.823 1018,-780 1095.27,-717.098 1137.82,-597.012 1149,-561.883"/>
<polygon fill="#9a32cd" stroke="#9a32cd" points="1009.18,-781.867 1001.81,-789.481 1012.32,-788.123 1009.18,-781.867"/>
<text text-anchor="middle" x="1057" y="-763" font-family="Arial" font-size="10.00"> contacts</text>
</g>
<!-- Node34 -->
<g id="node34" class="node"><title>Node34</title>
<g id="a_node34"><a xlink:href="classid_clip_model.html" target="_top" xlink:title="idClipModel">
<polygon fill="white" stroke="black" points="1119.5,-101.5 1119.5,-120.5 1186.5,-120.5 1186.5,-101.5 1119.5,-101.5"/>
<text text-anchor="middle" x="1153" y="-108.5" font-family="Arial" font-size="10.00">idClipModel</text>
</a>
</g>
</g>
<!-- Node34&#45;&gt;Node2 -->
<g id="edge55" class="edge"><title>Node34&#45;&gt;Node2</title>
<path fill="none" stroke="#9a32cd" stroke-dasharray="5,2" d="M1196.66,-108.492C1226.59,-108.221 1266.99,-110.902 1300,-124 1321.29,-132.45 1341.21,-150.844 1352.18,-162.249"/>
<polygon fill="#9a32cd" stroke="#9a32cd" points="1196.46,-104.995 1186.54,-108.699 1196.61,-111.994 1196.46,-104.995"/>
<text text-anchor="middle" x="1264" y="-127" font-family="Arial" font-size="10.00"> clipModel</text>
</g>
<!-- Node35 -->
<g id="node35" class="node"><title>Node35</title>
<g id="a_node35"><a xlink:href="classid_entity_ptr.html" target="_top" xlink:title="idEntityPtr\&lt; idEntity \&gt;">
<polygon fill="white" stroke="black" points="1096.5,-63.5 1096.5,-82.5 1209.5,-82.5 1209.5,-63.5 1096.5,-63.5"/>
<text text-anchor="middle" x="1153" y="-70.5" font-family="Arial" font-size="10.00">idEntityPtr&lt; idEntity &gt;</text>
</a>
</g>
</g>
<!-- Node35&#45;&gt;Node2 -->
<g id="edge56" class="edge"><title>Node35&#45;&gt;Node2</title>
<path fill="none" stroke="#9a32cd" stroke-dasharray="5,2" d="M1219.85,-72.6301C1246.24,-75.0192 1276.01,-81.1012 1300,-95 1327.89,-111.161 1347.85,-145.429 1356.38,-162.259"/>
<polygon fill="#9a32cd" stroke="#9a32cd" points="1219.77,-69.1147 1209.54,-71.8642 1219.25,-76.0954 1219.77,-69.1147"/>
<text text-anchor="middle" x="1264" y="-98" font-family="Arial" font-size="10.00"> groundEntityPtr</text>
</g>
</g>
</svg>
