<?xml version="1.0" encoding="UTF-8" standalone="no"?>
<!DOCTYPE svg PUBLIC "-//W3C//DTD SVG 1.1//EN"
 "http://www.w3.org/Graphics/SVG/1.1/DTD/svg11.dtd">
<!-- Generated by graphviz version 2.34.0 (20130907.0111)
 -->
<!-- Title: idTrigger_Count Pages: 1 -->
<svg width="92pt" height="196pt"
 viewBox="0.00 0.00 92.00 196.00" xmlns="http://www.w3.org/2000/svg" xmlns:xlink="http://www.w3.org/1999/xlink">
<g id="graph0" class="graph" transform="scale(1 1) rotate(0) translate(4 192)">
<title>idTrigger_Count</title>
<polygon fill="white" stroke="white" points="-4,4 -4,-192 88,-192 88,4 -4,4"/>
<!-- Node1 -->
<g id="node1" class="node"><title>Node1</title>
<polygon fill="#bfbfbf" stroke="black" points="0,-0.5 0,-19.5 84,-19.5 84,-0.5 0,-0.5"/>
<text text-anchor="middle" x="42" y="-7.5" font-family="Arial" font-size="10.00">idTrigger_Count</text>
</g>
<!-- Node2 -->
<g id="node2" class="node"><title>Node2</title>
<g id="a_node2"><a xlink:href="classid_trigger.html" target="_top" xlink:title="idTrigger">
<polygon fill="white" stroke="black" points="15.5,-56.5 15.5,-75.5 68.5,-75.5 68.5,-56.5 15.5,-56.5"/>
<text text-anchor="middle" x="42" y="-63.5" font-family="Arial" font-size="10.00">idTrigger</text>
</a>
</g>
</g>
<!-- Node2&#45;&gt;Node1 -->
<g id="edge1" class="edge"><title>Node2&#45;&gt;Node1</title>
<path fill="none" stroke="midnightblue" d="M35.5276,-46.1005C34.8956,-37.1357 35.3427,-26.8579 36.869,-19.7511"/>
<polygon fill="midnightblue" stroke="midnightblue" points="32.0658,-46.6216 36.8337,-56.083 39.0067,-45.7134 32.0658,-46.6216"/>
</g>
<!-- Node2&#45;&gt;Node1 -->
<g id="edge6" class="edge"><title>Node2&#45;&gt;Node1</title>
<path fill="none" stroke="midnightblue" d="M48.4724,-46.1005C49.1044,-37.1357 48.6573,-26.8579 47.131,-19.7511"/>
<polygon fill="midnightblue" stroke="midnightblue" points="44.9933,-45.7134 47.1663,-56.083 51.9342,-46.6216 44.9933,-45.7134"/>
</g>
<!-- Node3 -->
<g id="node3" class="node"><title>Node3</title>
<g id="a_node3"><a xlink:href="classid_entity.html" target="_top" xlink:title="idEntity">
<polygon fill="white" stroke="black" points="17,-112.5 17,-131.5 67,-131.5 67,-112.5 17,-112.5"/>
<text text-anchor="middle" x="42" y="-119.5" font-family="Arial" font-size="10.00">idEntity</text>
</a>
</g>
</g>
<!-- Node3&#45;&gt;Node2 -->
<g id="edge2" class="edge"><title>Node3&#45;&gt;Node2</title>
<path fill="none" stroke="midnightblue" d="M35.5276,-102.101C34.8956,-93.1357 35.3427,-82.8579 36.869,-75.7511"/>
<polygon fill="midnightblue" stroke="midnightblue" points="32.0658,-102.622 36.8337,-112.083 39.0067,-101.713 32.0658,-102.622"/>
</g>
<!-- Node3&#45;&gt;Node2 -->
<g id="edge5" class="edge"><title>Node3&#45;&gt;Node2</title>
<path fill="none" stroke="midnightblue" d="M48.4724,-102.101C49.1044,-93.1357 48.6573,-82.8579 47.131,-75.7511"/>
<polygon fill="midnightblue" stroke="midnightblue" points="44.9933,-101.713 47.1663,-112.083 51.9342,-102.622 44.9933,-101.713"/>
</g>
<!-- Node4 -->
<g id="node4" class="node"><title>Node4</title>
<g id="a_node4"><a xlink:href="classid_class.html" target="_top" xlink:title="idClass">
<polygon fill="white" stroke="black" points="17.5,-168.5 17.5,-187.5 66.5,-187.5 66.5,-168.5 17.5,-168.5"/>
<text text-anchor="middle" x="42" y="-175.5" font-family="Arial" font-size="10.00">idClass</text>
</a>
</g>
</g>
<!-- Node4&#45;&gt;Node3 -->
<g id="edge3" class="edge"><title>Node4&#45;&gt;Node3</title>
<path fill="none" stroke="midnightblue" d="M35.5276,-158.101C34.8956,-149.136 35.3427,-138.858 36.869,-131.751"/>
<polygon fill="midnightblue" stroke="midnightblue" points="32.0658,-158.622 36.8337,-168.083 39.0067,-157.713 32.0658,-158.622"/>
</g>
<!-- Node4&#45;&gt;Node3 -->
<g id="edge4" class="edge"><title>Node4&#45;&gt;Node3</title>
<path fill="none" stroke="midnightblue" d="M48.4724,-158.101C49.1044,-149.136 48.6573,-138.858 47.131,-131.751"/>
<polygon fill="midnightblue" stroke="midnightblue" points="44.9933,-157.713 47.1663,-168.083 51.9342,-158.622 44.9933,-157.713"/>
</g>
</g>
</svg>
