<?xml version="1.0" encoding="UTF-8" standalone="no"?>
<!DOCTYPE svg PUBLIC "-//W3C//DTD SVG 1.1//EN"
 "http://www.w3.org/Graphics/SVG/1.1/DTD/svg11.dtd">
<!-- Generated by graphviz version 2.34.0 (20130907.0111)
 -->
<!-- Title: MaterialPropTreeView Pages: 1 -->
<!--zoomable 353 -->
<svg id="main" version="1.1" xmlns="http://www.w3.org/2000/svg" xmlns:xlink="http://www.w3.org/1999/xlink" xml:space="preserve" onload="init(evt)">
<style type="text/css"><![CDATA[
.edge:hover path { stroke: red; }
.edge:hover polygon { stroke: red; fill: red; }
]]></style>
<script type="text/javascript"><![CDATA[
var edges = document.getElementsByTagName('g');
if (edges && edges.length) {
  for (var i=0;i<edges.length;i++) {
    if (edges[i].id.substr(0,4)=='edge') {
      edges[i].setAttribute('class','edge');
    }
  }
}
]]></script>
        <defs>
                <circle id="rim" cx="0" cy="0" r="7"/>
                <circle id="rim2" cx="0" cy="0" r="3.5"/>
                <g id="zoomPlus">
                        <use xlink:href="#rim" fill="#404040">
                                <set attributeName="fill" to="#808080" begin="zoomplus.mouseover" end="zoomplus.mouseout"/>
                        </use>
                        <path d="M-4,0h8M0,-4v8" fill="none" stroke="white" stroke-width="1.5" pointer-events="none"/>
                </g>
                <g id="zoomMin">
                        <use xlink:href="#rim" fill="#404040">
                                <set attributeName="fill" to="#808080" begin="zoomminus.mouseover" end="zoomminus.mouseout"/>
                        </use>
                        <path d="M-4,0h8" fill="none" stroke="white" stroke-width="1.5" pointer-events="none"/>
                </g>
                <g id="dirArrow">
                        <path fill="none" stroke="white" stroke-width="1.5" d="M0,-3.0v7 M-2.5,-0.5L0,-3.0L2.5,-0.5"/>
                </g>
               <g id="resetDef">
                       <use xlink:href="#rim2" fill="#404040">
                               <set attributeName="fill" to="#808080" begin="reset.mouseover" end="reset.mouseout"/>
                       </use>
               </g>
        </defs>

<script type="text/javascript">
var viewWidth = 1040;
var viewHeight = 353;
var sectionId = 'dynsection-1';
</script>
<script xlink:href="svgpan.js"/>
<svg id="graph" class="graph">
<g id="viewport">
<title>MaterialPropTreeView</title>
<polygon fill="white" stroke="white" points="-4,4 -4,-349.382 1036,-349.382 1036,4 -4,4"/>
<!-- Node1 -->
<g id="node1" class="node"><title>Node1</title>
<polygon fill="#bfbfbf" stroke="black" points="920.5,-138.882 920.5,-157.882 1031.5,-157.882 1031.5,-138.882 920.5,-138.882"/>
<text text-anchor="middle" x="976" y="-145.882" font-family="Arial" font-size="10.00">MaterialPropTreeView</text>
</g>
<!-- Node2 -->
<g id="node2" class="node"><title>Node2</title>
<g id="a_node2"><a xlink:href="class_c_prop_tree_view.html" target="_top" xlink:title="CPropTreeView">
<polygon fill="white" stroke="black" points="721.5,-252.882 721.5,-271.882 804.5,-271.882 804.5,-252.882 721.5,-252.882"/>
<text text-anchor="middle" x="763" y="-259.882" font-family="Arial" font-size="10.00">CPropTreeView</text>
</a>
</g>
</g>
<!-- Node2&#45;&gt;Node1 -->
<g id="edge1" class="edge"><title>Node2&#45;&gt;Node1</title>
<path fill="none" stroke="midnightblue" d="M794.755,-248.356C823.038,-235.194 865.928,-214.562 902,-194.382 922.917,-182.68 946.203,-167.637 960.727,-158"/>
<polygon fill="midnightblue" stroke="midnightblue" points="793.001,-245.311 785.396,-252.687 795.941,-251.664 793.001,-245.311"/>
</g>
<!-- Node3 -->
<g id="node3" class="node"><title>Node3</title>
<polygon fill="white" stroke="#bfbfbf" points="499.5,-259.882 499.5,-278.882 566.5,-278.882 566.5,-259.882 499.5,-259.882"/>
<text text-anchor="middle" x="533" y="-266.882" font-family="Arial" font-size="10.00">CFormView</text>
</g>
<!-- Node3&#45;&gt;Node2 -->
<g id="edge2" class="edge"><title>Node3&#45;&gt;Node2</title>
<path fill="none" stroke="midnightblue" d="M576.723,-268.071C618.158,-266.798 680.573,-264.882 721.306,-263.632"/>
<polygon fill="midnightblue" stroke="midnightblue" points="576.555,-264.574 566.667,-268.379 576.77,-271.571 576.555,-264.574"/>
</g>
<!-- Node4 -->
<g id="node4" class="node"><title>Node4</title>
<g id="a_node4"><a xlink:href="class_material_view.html" target="_top" xlink:title="MaterialView">
<polygon fill="white" stroke="black" points="727,-201.882 727,-220.882 799,-220.882 799,-201.882 727,-201.882"/>
<text text-anchor="middle" x="763" y="-208.882" font-family="Arial" font-size="10.00">MaterialView</text>
</a>
</g>
</g>
<!-- Node4&#45;&gt;Node1 -->
<g id="edge3" class="edge"><title>Node4&#45;&gt;Node1</title>
<path fill="none" stroke="midnightblue" d="M805.848,-198.887C846.186,-186.843 906.351,-168.879 942.998,-157.937"/>
<polygon fill="midnightblue" stroke="midnightblue" points="804.627,-195.599 796.046,-201.814 806.63,-202.307 804.627,-195.599"/>
</g>
<!-- Node5 -->
<g id="node5" class="node"><title>Node5</title>
<g id="a_node5"><a xlink:href="class_material_doc_manager.html" target="_top" xlink:title="MaterialDocManager">
<polygon fill="white" stroke="black" points="480,-216.882 480,-235.882 586,-235.882 586,-216.882 480,-216.882"/>
<text text-anchor="middle" x="533" y="-223.882" font-family="Arial" font-size="10.00">MaterialDocManager</text>
</a>
</g>
</g>
<!-- Node5&#45;&gt;Node4 -->
<g id="edge4" class="edge"><title>Node5&#45;&gt;Node4</title>
<path fill="none" stroke="#9a32cd" stroke-dasharray="5,2" d="M596.301,-226.305C626.981,-225.804 664.491,-224.499 698,-221.382 707.406,-220.507 717.53,-219.13 726.888,-217.674"/>
<polygon fill="#9a32cd" stroke="#9a32cd" points="596.124,-222.807 586.173,-226.446 596.221,-229.807 596.124,-222.807"/>
<text text-anchor="middle" x="651" y="-228.382" font-family="Arial" font-size="10.00"> materialDocManager</text>
</g>
<!-- Node10 -->
<g id="node10" class="node"><title>Node10</title>
<g id="a_node10"><a xlink:href="class_material_doc.html" target="_top" xlink:title="MaterialDoc">
<polygon fill="white" stroke="black" points="729,-138.882 729,-157.882 797,-157.882 797,-138.882 729,-138.882"/>
<text text-anchor="middle" x="763" y="-145.882" font-family="Arial" font-size="10.00">MaterialDoc</text>
</a>
</g>
</g>
<!-- Node5&#45;&gt;Node10 -->
<g id="edge14" class="edge"><title>Node5&#45;&gt;Node10</title>
<path fill="none" stroke="#9a32cd" stroke-dasharray="5,2" d="M551.383,-209.732C564.716,-197.948 584.147,-182.799 604,-174.382 625.947,-165.077 689.398,-156.571 728.895,-151.969"/>
<polygon fill="#9a32cd" stroke="#9a32cd" points="548.947,-207.217 543.921,-216.543 553.666,-212.387 548.947,-207.217"/>
<text text-anchor="middle" x="651" y="-177.382" font-family="Arial" font-size="10.00"> manager</text>
</g>
<!-- Node6 -->
<g id="node6" class="node"><title>Node6</title>
<g id="a_node6"><a xlink:href="classid_str.html" target="_top" xlink:title="idStr">
<polygon fill="white" stroke="black" points="262.5,-149.882 262.5,-168.882 299.5,-168.882 299.5,-149.882 262.5,-149.882"/>
<text text-anchor="middle" x="281" y="-156.882" font-family="Arial" font-size="10.00">idStr</text>
</a>
</g>
</g>
<!-- Node6&#45;&gt;Node5 -->
<g id="edge5" class="edge"><title>Node6&#45;&gt;Node5</title>
<path fill="none" stroke="#9a32cd" stroke-dasharray="5,2" d="M309.808,-160.953C345.784,-163.637 410.005,-170.657 462,-188.382 482.549,-195.387 504.221,-208.092 517.91,-216.872"/>
<polygon fill="#9a32cd" stroke="#9a32cd" points="309.811,-157.445 299.595,-160.253 309.332,-164.429 309.811,-157.445"/>
<text text-anchor="middle" x="417" y="-202.382" font-family="Arial" font-size="10.00"> copyMaterial</text>
<text text-anchor="middle" x="417" y="-191.382" font-family="Arial" font-size="10.00">copyStageMaterial</text>
</g>
<!-- Node6&#45;&gt;Node10 -->
<g id="edge10" class="edge"><title>Node6&#45;&gt;Node10</title>
<path fill="none" stroke="#9a32cd" stroke-dasharray="5,2" d="M309.832,-158.744C392.938,-156.84 639.066,-151.199 728.793,-149.143"/>
<polygon fill="#9a32cd" stroke="#9a32cd" points="309.57,-155.249 299.653,-158.978 309.73,-162.248 309.57,-155.249"/>
<text text-anchor="middle" x="533" y="-157.382" font-family="Arial" font-size="10.00"> name</text>
</g>
<!-- Node7 -->
<g id="node7" class="node"><title>Node7</title>
<g id="a_node7"><a xlink:href="classid_list.html" target="_top" xlink:title="idList\&lt; MaterialModifier * \&gt;">
<polygon fill="white" stroke="black" points="214.5,-316.882 214.5,-335.882 347.5,-335.882 347.5,-316.882 214.5,-316.882"/>
<text text-anchor="middle" x="281" y="-323.882" font-family="Arial" font-size="10.00">idList&lt; MaterialModifier * &gt;</text>
</a>
</g>
</g>
<!-- Node7&#45;&gt;Node5 -->
<g id="edge6" class="edge"><title>Node7&#45;&gt;Node5</title>
<path fill="none" stroke="#9a32cd" stroke-dasharray="5,2" d="M357.748,-326.015C392.675,-322.292 432.767,-312.569 462,-289.382 476.957,-277.519 466.501,-263.881 480,-250.382 486.117,-244.265 494.082,-239.534 501.932,-235.954"/>
<polygon fill="#9a32cd" stroke="#9a32cd" points="357.209,-322.549 347.571,-326.948 357.849,-329.52 357.209,-322.549"/>
<text text-anchor="middle" x="417" y="-337.382" font-family="Arial" font-size="10.00"> undoModifiers</text>
<text text-anchor="middle" x="417" y="-326.382" font-family="Arial" font-size="10.00">redoModifiers</text>
</g>
<!-- Node8 -->
<g id="node8" class="node"><title>Node8</title>
<g id="a_node8"><a xlink:href="struct_m_e_stage__t.html" target="_top" xlink:title="MEStage_t">
<polygon fill="white" stroke="black" points="248.5,-197.882 248.5,-216.882 313.5,-216.882 313.5,-197.882 248.5,-197.882"/>
<text text-anchor="middle" x="281" y="-204.882" font-family="Arial" font-size="10.00">MEStage_t</text>
</a>
</g>
</g>
<!-- Node8&#45;&gt;Node5 -->
<g id="edge7" class="edge"><title>Node8&#45;&gt;Node5</title>
<path fill="none" stroke="#9a32cd" stroke-dasharray="5,2" d="M323.748,-210.555C366.595,-213.811 433.372,-218.886 479.711,-222.408"/>
<polygon fill="#9a32cd" stroke="#9a32cd" points="323.899,-207.057 313.663,-209.789 323.369,-214.036 323.899,-207.057"/>
<text text-anchor="middle" x="417" y="-223.382" font-family="Arial" font-size="10.00"> copyStage</text>
</g>
<!-- Node9 -->
<g id="node9" class="node"><title>Node9</title>
<g id="a_node9"><a xlink:href="classid_dict.html" target="_top" xlink:title="idDict">
<polygon fill="white" stroke="black" points="36.5,-164.882 36.5,-183.882 77.5,-183.882 77.5,-164.882 36.5,-164.882"/>
<text text-anchor="middle" x="57" y="-171.882" font-family="Arial" font-size="10.00">idDict</text>
</a>
</g>
</g>
<!-- Node9&#45;&gt;Node8 -->
<g id="edge8" class="edge"><title>Node9&#45;&gt;Node8</title>
<path fill="none" stroke="#9a32cd" stroke-dasharray="5,2" d="M87.8162,-178.814C129.678,-185.037 205.536,-196.313 248.36,-202.679"/>
<polygon fill="#9a32cd" stroke="#9a32cd" points="88.107,-175.319 77.701,-177.311 87.0777,-182.243 88.107,-175.319"/>
<text text-anchor="middle" x="161" y="-196.382" font-family="Arial" font-size="10.00"> stageData</text>
</g>
<!-- Node11 -->
<g id="node11" class="node"><title>Node11</title>
<g id="a_node11"><a xlink:href="struct_m_e_material__t.html" target="_top" xlink:title="MEMaterial_t">
<polygon fill="white" stroke="black" points="244,-105.882 244,-124.882 318,-124.882 318,-105.882 244,-105.882"/>
<text text-anchor="middle" x="281" y="-112.882" font-family="Arial" font-size="10.00">MEMaterial_t</text>
</a>
</g>
</g>
<!-- Node9&#45;&gt;Node11 -->
<g id="edge13" class="edge"><title>Node9&#45;&gt;Node11</title>
<path fill="none" stroke="#9a32cd" stroke-dasharray="5,2" d="M87.4856,-166.546C127.905,-155.804 200.457,-136.522 244.023,-124.944"/>
<polygon fill="#9a32cd" stroke="#9a32cd" points="86.4665,-163.195 77.701,-169.146 88.2645,-169.96 86.4665,-163.195"/>
<text text-anchor="middle" x="161" y="-156.382" font-family="Arial" font-size="10.00"> materialData</text>
</g>
<!-- Node10&#45;&gt;Node1 -->
<g id="edge22" class="edge"><title>Node10&#45;&gt;Node1</title>
<path fill="none" stroke="#9a32cd" stroke-dasharray="5,2" d="M807.59,-148.382C840.285,-148.382 885.258,-148.382 920.358,-148.382"/>
<polygon fill="#9a32cd" stroke="#9a32cd" points="807.434,-144.882 797.434,-148.382 807.434,-151.882 807.434,-144.882"/>
<text text-anchor="middle" x="865" y="-151.382" font-family="Arial" font-size="10.00"> currentMaterial</text>
</g>
<!-- Node10&#45;&gt;Node5 -->
<g id="edge9" class="edge"><title>Node10&#45;&gt;Node5</title>
<path fill="none" stroke="#9a32cd" stroke-dasharray="5,2" d="M740.525,-163.92C728.523,-171.959 713,-181.329 698,-187.382 658.303,-203.401 645.624,-198.384 604,-208.382 593.019,-211.02 581.107,-214.028 570.277,-216.819"/>
<polygon fill="#9a32cd" stroke="#9a32cd" points="742.705,-166.668 748.949,-158.109 738.73,-160.906 742.705,-166.668"/>
<text text-anchor="middle" x="651" y="-211.382" font-family="Arial" font-size="10.00"> currentMaterial</text>
</g>
<!-- Node11&#45;&gt;Node10 -->
<g id="edge11" class="edge"><title>Node11&#45;&gt;Node10</title>
<path fill="none" stroke="#9a32cd" stroke-dasharray="5,2" d="M328.095,-118.551C424.368,-125.17 644.804,-140.325 728.726,-146.095"/>
<polygon fill="#9a32cd" stroke="#9a32cd" points="328.295,-115.057 318.078,-117.863 327.814,-122.04 328.295,-115.057"/>
<text text-anchor="middle" x="533" y="-138.382" font-family="Arial" font-size="10.00"> editMaterial</text>
</g>
<!-- Node12 -->
<g id="node12" class="node"><title>Node12</title>
<g id="a_node12"><a xlink:href="classid_list.html" target="_top" xlink:title="idList\&lt; MEStage_t * \&gt;">
<polygon fill="white" stroke="black" points="0.5,-105.882 0.5,-124.882 113.5,-124.882 113.5,-105.882 0.5,-105.882"/>
<text text-anchor="middle" x="57" y="-112.882" font-family="Arial" font-size="10.00">idList&lt; MEStage_t * &gt;</text>
</a>
</g>
</g>
<!-- Node12&#45;&gt;Node11 -->
<g id="edge12" class="edge"><title>Node12&#45;&gt;Node11</title>
<path fill="none" stroke="#9a32cd" stroke-dasharray="5,2" d="M123.754,-115.382C162.982,-115.382 211.306,-115.382 243.736,-115.382"/>
<polygon fill="#9a32cd" stroke="#9a32cd" points="123.733,-111.882 113.733,-115.382 123.733,-118.882 123.733,-111.882"/>
<text text-anchor="middle" x="161" y="-118.382" font-family="Arial" font-size="10.00"> stages</text>
</g>
<!-- Node13 -->
<g id="node13" class="node"><title>Node13</title>
<g id="a_node13"><a xlink:href="class_source_modify_owner.html" target="_top" xlink:title="SourceModifyOwner">
<polygon fill="white" stroke="black" points="481,-1.8822 481,-20.8822 585,-20.8822 585,-1.8822 481,-1.8822"/>
<text text-anchor="middle" x="533" y="-8.8822" font-family="Arial" font-size="10.00">SourceModifyOwner</text>
</a>
</g>
</g>
<!-- Node13&#45;&gt;Node10 -->
<g id="edge15" class="edge"><title>Node13&#45;&gt;Node10</title>
<path fill="none" stroke="#9a32cd" stroke-dasharray="5,2" d="M593.033,-0.925542C627.861,1.69293 670.386,-1.82768 698,-27.3822 731.786,-58.6489 687.166,-93.4976 716,-129.382 719.356,-133.558 723.784,-136.826 728.568,-139.38"/>
<polygon fill="#9a32cd" stroke="#9a32cd" points="592.598,2.54911 582.966,-1.86514 593.248,-4.4206 592.598,2.54911"/>
<text text-anchor="middle" x="651" y="-30.3822" font-family="Arial" font-size="10.00"> sourceModifyOwner</text>
</g>
<!-- Node14 -->
<g id="node14" class="node"><title>Node14</title>
<g id="a_node14"><a xlink:href="classid_material.html" target="_top" xlink:title="idMaterial">
<polygon fill="white" stroke="black" points="503.5,-39.8822 503.5,-58.8822 562.5,-58.8822 562.5,-39.8822 503.5,-39.8822"/>
<text text-anchor="middle" x="533" y="-46.8822" font-family="Arial" font-size="10.00">idMaterial</text>
</a>
</g>
</g>
<!-- Node14&#45;&gt;Node10 -->
<g id="edge16" class="edge"><title>Node14&#45;&gt;Node10</title>
<path fill="none" stroke="#9a32cd" stroke-dasharray="5,2" d="M572.84,-43.3628C609.367,-39.9944 663.461,-41.2299 698,-70.3822 718.95,-88.065 697.563,-109.093 716,-129.382 719.603,-133.347 724.159,-136.506 728.994,-139.016"/>
<polygon fill="#9a32cd" stroke="#9a32cd" points="572.138,-39.9182 562.572,-44.4725 572.89,-46.8776 572.138,-39.9182"/>
<text text-anchor="middle" x="651" y="-73.3822" font-family="Arial" font-size="10.00"> renderMaterial</text>
</g>
<!-- Node15 -->
<g id="node15" class="node"><title>Node15</title>
<g id="a_node15"><a xlink:href="classid_decl.html" target="_top" xlink:title="idDecl">
<polygon fill="white" stroke="black" points="259,-39.8822 259,-58.8822 303,-58.8822 303,-39.8822 259,-39.8822"/>
<text text-anchor="middle" x="281" y="-46.8822" font-family="Arial" font-size="10.00">idDecl</text>
</a>
</g>
</g>
<!-- Node15&#45;&gt;Node14 -->
<g id="edge17" class="edge"><title>Node15&#45;&gt;Node14</title>
<path fill="none" stroke="midnightblue" d="M313.621,-49.3822C362.579,-49.3822 455.99,-49.3822 503.185,-49.3822"/>
<polygon fill="midnightblue" stroke="midnightblue" points="313.315,-45.8823 303.315,-49.3822 313.315,-52.8823 313.315,-45.8823"/>
</g>
<!-- Node16 -->
<g id="node16" class="node"><title>Node16</title>
<g id="a_node16"><a xlink:href="classid_decl_base.html" target="_top" xlink:title="idDeclBase">
<polygon fill="white" stroke="black" points="24,-39.8822 24,-58.8822 90,-58.8822 90,-39.8822 24,-39.8822"/>
<text text-anchor="middle" x="57" y="-46.8822" font-family="Arial" font-size="10.00">idDeclBase</text>
</a>
</g>
</g>
<!-- Node16&#45;&gt;Node15 -->
<g id="edge18" class="edge"><title>Node16&#45;&gt;Node15</title>
<path fill="none" stroke="#9a32cd" stroke-dasharray="5,2" d="M100.52,-49.3822C147.836,-49.3822 222.398,-49.3822 258.71,-49.3822"/>
<polygon fill="#9a32cd" stroke="#9a32cd" points="100.281,-45.8823 90.2807,-49.3822 100.281,-52.8823 100.281,-45.8823"/>
<text text-anchor="middle" x="161" y="-52.3822" font-family="Arial" font-size="10.00"> base</text>
</g>
<!-- Node17 -->
<g id="node17" class="node"><title>Node17</title>
<g id="a_node17"><a xlink:href="classid_hash_table.html" target="_top" xlink:title="idHashTable\&lt; MaterialDoc * \&gt;">
<polygon fill="white" stroke="black" points="208,-278.882 208,-297.882 354,-297.882 354,-278.882 208,-278.882"/>
<text text-anchor="middle" x="281" y="-285.882" font-family="Arial" font-size="10.00">idHashTable&lt; MaterialDoc * &gt;</text>
</a>
</g>
</g>
<!-- Node17&#45;&gt;Node5 -->
<g id="edge19" class="edge"><title>Node17&#45;&gt;Node5</title>
<path fill="none" stroke="#9a32cd" stroke-dasharray="5,2" d="M363.302,-277.223C394.51,-271.968 430.243,-264.757 462,-255.382 479.41,-250.243 498.391,-242.217 512.19,-235.911"/>
<polygon fill="#9a32cd" stroke="#9a32cd" points="362.639,-273.785 353.339,-278.861 363.774,-280.692 362.639,-273.785"/>
<text text-anchor="middle" x="417" y="-277.382" font-family="Arial" font-size="10.00"> inProgressMaterials</text>
</g>
<!-- Node18 -->
<g id="node18" class="node"><title>Node18</title>
<g id="a_node18"><a xlink:href="classid_list.html" target="_top" xlink:title="idList\&lt; MaterialView * \&gt;">
<polygon fill="white" stroke="black" points="221,-240.882 221,-259.882 341,-259.882 341,-240.882 221,-240.882"/>
<text text-anchor="middle" x="281" y="-247.882" font-family="Arial" font-size="10.00">idList&lt; MaterialView * &gt;</text>
</a>
</g>
</g>
<!-- Node18&#45;&gt;Node5 -->
<g id="edge20" class="edge"><title>Node18&#45;&gt;Node5</title>
<path fill="none" stroke="#9a32cd" stroke-dasharray="5,2" d="M351.37,-243.723C392.081,-239.814 442.683,-234.957 479.963,-231.378"/>
<polygon fill="#9a32cd" stroke="#9a32cd" points="350.866,-240.255 341.247,-244.695 351.535,-247.223 350.866,-240.255"/>
<text text-anchor="middle" x="417" y="-243.382" font-family="Arial" font-size="10.00"> materialViews</text>
</g>
<!-- Node19 -->
<g id="node19" class="node"><title>Node19</title>
<g id="a_node19"><a xlink:href="classrv_registry_options.html" target="_top" xlink:title="rvRegistryOptions">
<polygon fill="white" stroke="black" points="716.5,-100.882 716.5,-119.882 809.5,-119.882 809.5,-100.882 716.5,-100.882"/>
<text text-anchor="middle" x="763" y="-107.882" font-family="Arial" font-size="10.00">rvRegistryOptions</text>
</a>
</g>
</g>
<!-- Node19&#45;&gt;Node1 -->
<g id="edge21" class="edge"><title>Node19&#45;&gt;Node1</title>
<path fill="none" stroke="#9a32cd" stroke-dasharray="5,2" d="M819.855,-119.203C844.999,-123.299 875.031,-128.366 902,-133.382 911.031,-135.062 920.668,-136.964 929.88,-138.835"/>
<polygon fill="#9a32cd" stroke="#9a32cd" points="820.193,-115.712 809.762,-117.568 819.073,-122.622 820.193,-115.712"/>
<text text-anchor="middle" x="865" y="-136.382" font-family="Arial" font-size="10.00"> registry</text>
</g>
<!-- Node20 -->
<g id="node20" class="node"><title>Node20</title>
<g id="a_node20"><a xlink:href="classid_list.html" target="_top" xlink:title="idList\&lt; type \&gt;">
<polygon fill="white" stroke="black" points="724.5,-62.8822 724.5,-81.8822 801.5,-81.8822 801.5,-62.8822 724.5,-62.8822"/>
<text text-anchor="middle" x="763" y="-69.8822" font-family="Arial" font-size="10.00">idList&lt; type &gt;</text>
</a>
</g>
</g>
<!-- Node20&#45;&gt;Node1 -->
<g id="edge23" class="edge"><title>Node20&#45;&gt;Node1</title>
<path fill="none" stroke="#9a32cd" stroke-dasharray="5,2" d="M811.552,-80.1274C838.667,-85.4311 872.932,-93.6532 902,-105.382 924.097,-114.299 947.461,-129.15 961.639,-138.854"/>
<polygon fill="#9a32cd" stroke="#9a32cd" points="812.012,-76.6524 801.536,-78.2364 810.713,-83.5309 812.012,-76.6524"/>
<text text-anchor="middle" x="865" y="-108.382" font-family="Arial" font-size="10.00"> currentPropDefs</text>
</g>
</g>
</svg>
        <g id="navigator" transform="translate(0 0)" fill="#404254">
                <rect fill="#f2f5e9" fill-opacity="0.5" stroke="#606060" stroke-width=".5" x="0" y="0" width="60" height="60"/>
                <use id="zoomplus" xlink:href="#zoomPlus" x="17" y="9" onmousedown="handleZoom(evt,'in')"/>
                <use id="zoomminus" xlink:href="#zoomMin" x="42" y="9" onmousedown="handleZoom(evt,'out')"/>
                <use id="reset" xlink:href="#resetDef" x="30" y="36" onmousedown="handleReset()"/>
                <g id="arrowUp" xlink:href="#dirArrow" transform="translate(30 24)" onmousedown="handlePan(0,-1)">
                  <use xlink:href="#rim" fill="#404040">
                        <set attributeName="fill" to="#808080" begin="arrowUp.mouseover" end="arrowUp.mouseout"/>
                  </use>
                  <path fill="none" stroke="white" stroke-width="1.5" d="M0,-3.0v7 M-2.5,-0.5L0,-3.0L2.5,-0.5"/>
                </g>
                <g id="arrowRight" xlink:href="#dirArrow" transform="rotate(90) translate(36 -43)" onmousedown="handlePan(1,0)">
                  <use xlink:href="#rim" fill="#404040">
                        <set attributeName="fill" to="#808080" begin="arrowRight.mouseover" end="arrowRight.mouseout"/>
                  </use>
                  <path fill="none" stroke="white" stroke-width="1.5" d="M0,-3.0v7 M-2.5,-0.5L0,-3.0L2.5,-0.5"/>
                </g>
                <g id="arrowDown" xlink:href="#dirArrow" transform="rotate(180) translate(-30 -48)" onmousedown="handlePan(0,1)">
                  <use xlink:href="#rim" fill="#404040">
                        <set attributeName="fill" to="#808080" begin="arrowDown.mouseover" end="arrowDown.mouseout"/>
                  </use>
                  <path fill="none" stroke="white" stroke-width="1.5" d="M0,-3.0v7 M-2.5,-0.5L0,-3.0L2.5,-0.5"/>
                </g>
                <g id="arrowLeft" xlink:href="#dirArrow" transform="rotate(270) translate(-36 17)" onmousedown="handlePan(-1,0)">
                  <use xlink:href="#rim" fill="#404040">
                        <set attributeName="fill" to="#808080" begin="arrowLeft.mouseover" end="arrowLeft.mouseout"/>
                  </use>
                  <path fill="none" stroke="white" stroke-width="1.5" d="M0,-3.0v7 M-2.5,-0.5L0,-3.0L2.5,-0.5"/>
                </g>
        </g>
        <svg viewBox="0 0 15 15" width="100%" height="30px" preserveAspectRatio="xMaxYMin meet">
         <g id="arrow_out" transform="scale(0.3 0.3)">
          <a xlink:href="class_material_prop_tree_view__coll__graph_org.svg" target="_base">
           <rect id="button" ry="5" rx="5" y="6" x="6" height="38" width="38"
                fill="#f2f5e9" fill-opacity="0.5" stroke="#606060" stroke-width="1.0"/>
           <path id="arrow"
             d="M 11.500037,31.436501 C 11.940474,20.09759 22.043105,11.32322 32.158766,21.979434 L 37.068811,17.246167 C 37.068811,17.246167 37.088388,32 37.088388,32 L 22.160133,31.978069 C 22.160133,31.978069 26.997745,27.140456 26.997745,27.140456 C 18.528582,18.264221 13.291696,25.230495 11.500037,31.436501 z"
             style="fill:#404040;"/>
          </a>
         </g>
        </svg>
</svg>
