<?xml version="1.0" encoding="UTF-8" standalone="no"?>
<!DOCTYPE svg PUBLIC "-//W3C//DTD SVG 1.1//EN"
 "http://www.w3.org/Graphics/SVG/1.1/DTD/svg11.dtd">
<!-- Generated by graphviz version 2.34.0 (20130907.0111)
 -->
<!-- Title: MaterialView Pages: 1 -->
<svg width="796pt" height="312pt"
 viewBox="0.00 0.00 796.00 312.00" xmlns="http://www.w3.org/2000/svg" xmlns:xlink="http://www.w3.org/1999/xlink">
<g id="graph0" class="graph" transform="scale(1 1) rotate(0) translate(4 308)">
<title>MaterialView</title>
<polygon fill="white" stroke="white" points="-4,4 -4,-308 792,-308 792,4 -4,4"/>
<!-- Node1 -->
<g id="node1" class="node"><title>Node1</title>
<polygon fill="#bfbfbf" stroke="black" points="716,-185.5 716,-204.5 788,-204.5 788,-185.5 716,-185.5"/>
<text text-anchor="middle" x="752" y="-192.5" font-family="Arial" font-size="10.00">MaterialView</text>
</g>
<!-- Node2 -->
<g id="node2" class="node"><title>Node2</title>
<g id="a_node2"><a xlink:href="class_material_doc_manager.html" target="_top" xlink:title="MaterialDocManager">
<polygon fill="white" stroke="black" points="480,-168.5 480,-187.5 586,-187.5 586,-168.5 480,-168.5"/>
<text text-anchor="middle" x="533" y="-175.5" font-family="Arial" font-size="10.00">MaterialDocManager</text>
</a>
</g>
</g>
<!-- Node2&#45;&gt;Node1 -->
<g id="edge1" class="edge"><title>Node2&#45;&gt;Node1</title>
<path fill="none" stroke="#9a32cd" stroke-dasharray="5,2" d="M596.397,-182.888C635.167,-185.926 683.585,-189.719 715.803,-192.243"/>
<polygon fill="#9a32cd" stroke="#9a32cd" points="596.496,-179.385 586.253,-182.094 595.949,-186.364 596.496,-179.385"/>
<text text-anchor="middle" x="651" y="-193" font-family="Arial" font-size="10.00"> materialDocManager</text>
</g>
<!-- Node7 -->
<g id="node7" class="node"><title>Node7</title>
<g id="a_node7"><a xlink:href="class_material_doc.html" target="_top" xlink:title="MaterialDoc">
<polygon fill="white" stroke="black" points="718,-100.5 718,-119.5 786,-119.5 786,-100.5 718,-100.5"/>
<text text-anchor="middle" x="752" y="-107.5" font-family="Arial" font-size="10.00">MaterialDoc</text>
</a>
</g>
</g>
<!-- Node2&#45;&gt;Node7 -->
<g id="edge11" class="edge"><title>Node2&#45;&gt;Node7</title>
<path fill="none" stroke="#9a32cd" stroke-dasharray="5,2" d="M550.791,-161.443C564.067,-149.436 583.691,-133.963 604,-126 641.045,-111.475 687.12,-108.673 717.71,-108.724"/>
<polygon fill="#9a32cd" stroke="#9a32cd" points="548.3,-158.98 543.396,-168.372 553.087,-164.088 548.3,-158.98"/>
<text text-anchor="middle" x="651" y="-129" font-family="Arial" font-size="10.00"> manager</text>
</g>
<!-- Node3 -->
<g id="node3" class="node"><title>Node3</title>
<g id="a_node3"><a xlink:href="classid_str.html" target="_top" xlink:title="idStr">
<polygon fill="white" stroke="black" points="262.5,-283.5 262.5,-302.5 299.5,-302.5 299.5,-283.5 262.5,-283.5"/>
<text text-anchor="middle" x="281" y="-290.5" font-family="Arial" font-size="10.00">idStr</text>
</a>
</g>
</g>
<!-- Node3&#45;&gt;Node2 -->
<g id="edge2" class="edge"><title>Node3&#45;&gt;Node2</title>
<path fill="none" stroke="#9a32cd" stroke-dasharray="5,2" d="M309.68,-287.278C356.795,-277.405 448.79,-257.511 462,-250 490.189,-233.972 514.368,-203.227 525.484,-187.611"/>
<polygon fill="#9a32cd" stroke="#9a32cd" points="308.887,-283.867 299.813,-289.336 310.317,-290.72 308.887,-283.867"/>
<text text-anchor="middle" x="417" y="-287" font-family="Arial" font-size="10.00"> copyMaterial</text>
<text text-anchor="middle" x="417" y="-276" font-family="Arial" font-size="10.00">copyStageMaterial</text>
</g>
<!-- Node3&#45;&gt;Node7 -->
<g id="edge7" class="edge"><title>Node3&#45;&gt;Node7</title>
<path fill="none" stroke="#9a32cd" stroke-dasharray="5,2" d="M309.677,-297.133C345.268,-301.647 408.827,-306.998 462,-297 572.638,-276.197 613.128,-278.961 698,-205 701.631,-201.836 733.131,-143.389 745.777,-119.775"/>
<polygon fill="#9a32cd" stroke="#9a32cd" points="309.949,-293.638 299.572,-295.776 309.018,-300.576 309.949,-293.638"/>
<text text-anchor="middle" x="533" y="-296" font-family="Arial" font-size="10.00"> name</text>
</g>
<!-- Node4 -->
<g id="node4" class="node"><title>Node4</title>
<g id="a_node4"><a xlink:href="classid_list.html" target="_top" xlink:title="idList\&lt; MaterialModifier * \&gt;">
<polygon fill="white" stroke="black" points="214.5,-227.5 214.5,-246.5 347.5,-246.5 347.5,-227.5 214.5,-227.5"/>
<text text-anchor="middle" x="281" y="-234.5" font-family="Arial" font-size="10.00">idList&lt; MaterialModifier * &gt;</text>
</a>
</g>
</g>
<!-- Node4&#45;&gt;Node2 -->
<g id="edge3" class="edge"><title>Node4&#45;&gt;Node2</title>
<path fill="none" stroke="#9a32cd" stroke-dasharray="5,2" d="M357.548,-226.881C390.019,-221.682 428.198,-214.429 462,-205 478.561,-200.38 496.655,-193.346 510.297,-187.616"/>
<polygon fill="#9a32cd" stroke="#9a32cd" points="357.004,-223.423 347.665,-228.428 358.086,-230.339 357.004,-223.423"/>
<text text-anchor="middle" x="417" y="-238" font-family="Arial" font-size="10.00"> undoModifiers</text>
<text text-anchor="middle" x="417" y="-227" font-family="Arial" font-size="10.00">redoModifiers</text>
</g>
<!-- Node5 -->
<g id="node5" class="node"><title>Node5</title>
<g id="a_node5"><a xlink:href="struct_m_e_stage__t.html" target="_top" xlink:title="MEStage_t">
<polygon fill="white" stroke="black" points="248.5,-189.5 248.5,-208.5 313.5,-208.5 313.5,-189.5 248.5,-189.5"/>
<text text-anchor="middle" x="281" y="-196.5" font-family="Arial" font-size="10.00">MEStage_t</text>
</a>
</g>
</g>
<!-- Node5&#45;&gt;Node2 -->
<g id="edge4" class="edge"><title>Node5&#45;&gt;Node2</title>
<path fill="none" stroke="#9a32cd" stroke-dasharray="5,2" d="M323.748,-195.493C366.595,-191.894 433.372,-186.285 479.711,-182.392"/>
<polygon fill="#9a32cd" stroke="#9a32cd" points="323.335,-192.015 313.663,-196.34 323.921,-198.991 323.335,-192.015"/>
<text text-anchor="middle" x="417" y="-193" font-family="Arial" font-size="10.00"> copyStage</text>
</g>
<!-- Node6 -->
<g id="node6" class="node"><title>Node6</title>
<g id="a_node6"><a xlink:href="classid_dict.html" target="_top" xlink:title="idDict">
<polygon fill="white" stroke="black" points="36.5,-140.5 36.5,-159.5 77.5,-159.5 77.5,-140.5 36.5,-140.5"/>
<text text-anchor="middle" x="57" y="-147.5" font-family="Arial" font-size="10.00">idDict</text>
</a>
</g>
</g>
<!-- Node6&#45;&gt;Node5 -->
<g id="edge5" class="edge"><title>Node6&#45;&gt;Node5</title>
<path fill="none" stroke="#9a32cd" stroke-dasharray="5,2" d="M87.55,-156.522C129.356,-165.75 205.445,-182.544 248.36,-192.017"/>
<polygon fill="#9a32cd" stroke="#9a32cd" points="88.2204,-153.086 77.701,-154.348 86.7116,-159.922 88.2204,-153.086"/>
<text text-anchor="middle" x="161" y="-181" font-family="Arial" font-size="10.00"> stageData</text>
</g>
<!-- Node8 -->
<g id="node8" class="node"><title>Node8</title>
<g id="a_node8"><a xlink:href="struct_m_e_material__t.html" target="_top" xlink:title="MEMaterial_t">
<polygon fill="white" stroke="black" points="244,-75.5 244,-94.5 318,-94.5 318,-75.5 244,-75.5"/>
<text text-anchor="middle" x="281" y="-82.5" font-family="Arial" font-size="10.00">MEMaterial_t</text>
</a>
</g>
</g>
<!-- Node6&#45;&gt;Node8 -->
<g id="edge10" class="edge"><title>Node6&#45;&gt;Node8</title>
<path fill="none" stroke="#9a32cd" stroke-dasharray="5,2" d="M87.7111,-140.509C117.9,-130.955 166.057,-115.96 208,-104 219.562,-100.703 232.226,-97.294 243.665,-94.2895"/>
<polygon fill="#9a32cd" stroke="#9a32cd" points="86.2946,-137.286 77.8219,-143.648 88.4122,-143.958 86.2946,-137.286"/>
<text text-anchor="middle" x="161" y="-129" font-family="Arial" font-size="10.00"> materialData</text>
</g>
<!-- Node7&#45;&gt;Node2 -->
<g id="edge6" class="edge"><title>Node7&#45;&gt;Node2</title>
<path fill="none" stroke="#9a32cd" stroke-dasharray="5,2" d="M727.098,-124.848C718.211,-129.889 707.882,-135.201 698,-139 661.669,-152.969 618.822,-162.95 586.037,-169.316"/>
<polygon fill="#9a32cd" stroke="#9a32cd" points="728.903,-127.847 735.758,-119.768 725.361,-121.809 728.903,-127.847"/>
<text text-anchor="middle" x="651" y="-168" font-family="Arial" font-size="10.00"> currentMaterial</text>
</g>
<!-- Node8&#45;&gt;Node7 -->
<g id="edge8" class="edge"><title>Node8&#45;&gt;Node7</title>
<path fill="none" stroke="#9a32cd" stroke-dasharray="5,2" d="M328.117,-87.4583C422.441,-92.4862 635.44,-103.84 717.705,-108.225"/>
<polygon fill="#9a32cd" stroke="#9a32cd" points="328.195,-83.9575 318.023,-86.9202 327.822,-90.9476 328.195,-83.9575"/>
<text text-anchor="middle" x="533" y="-104" font-family="Arial" font-size="10.00"> editMaterial</text>
</g>
<!-- Node9 -->
<g id="node9" class="node"><title>Node9</title>
<g id="a_node9"><a xlink:href="classid_list.html" target="_top" xlink:title="idList\&lt; MEStage_t * \&gt;">
<polygon fill="white" stroke="black" points="0.5,-75.5 0.5,-94.5 113.5,-94.5 113.5,-75.5 0.5,-75.5"/>
<text text-anchor="middle" x="57" y="-82.5" font-family="Arial" font-size="10.00">idList&lt; MEStage_t * &gt;</text>
</a>
</g>
</g>
<!-- Node9&#45;&gt;Node8 -->
<g id="edge9" class="edge"><title>Node9&#45;&gt;Node8</title>
<path fill="none" stroke="#9a32cd" stroke-dasharray="5,2" d="M123.754,-85C162.982,-85 211.306,-85 243.736,-85"/>
<polygon fill="#9a32cd" stroke="#9a32cd" points="123.733,-81.5001 113.733,-85 123.733,-88.5001 123.733,-81.5001"/>
<text text-anchor="middle" x="161" y="-88" font-family="Arial" font-size="10.00"> stages</text>
</g>
<!-- Node10 -->
<g id="node10" class="node"><title>Node10</title>
<g id="a_node10"><a xlink:href="class_source_modify_owner.html" target="_top" xlink:title="SourceModifyOwner">
<polygon fill="white" stroke="black" points="481,-38.5 481,-57.5 585,-57.5 585,-38.5 481,-38.5"/>
<text text-anchor="middle" x="533" y="-45.5" font-family="Arial" font-size="10.00">SourceModifyOwner</text>
</a>
</g>
</g>
<!-- Node10&#45;&gt;Node7 -->
<g id="edge12" class="edge"><title>Node10&#45;&gt;Node7</title>
<path fill="none" stroke="#9a32cd" stroke-dasharray="5,2" d="M595.313,-48.2261C627.002,-50.2108 665.697,-55.6125 698,-69 715.41,-76.2153 732.009,-90.7173 741.852,-100.394"/>
<polygon fill="#9a32cd" stroke="#9a32cd" points="595.458,-44.729 585.287,-47.696 595.089,-51.7192 595.458,-44.729"/>
<text text-anchor="middle" x="651" y="-72" font-family="Arial" font-size="10.00"> sourceModifyOwner</text>
</g>
<!-- Node11 -->
<g id="node11" class="node"><title>Node11</title>
<g id="a_node11"><a xlink:href="classid_material.html" target="_top" xlink:title="idMaterial">
<polygon fill="white" stroke="black" points="503.5,-0.5 503.5,-19.5 562.5,-19.5 562.5,-0.5 503.5,-0.5"/>
<text text-anchor="middle" x="533" y="-7.5" font-family="Arial" font-size="10.00">idMaterial</text>
</a>
</g>
</g>
<!-- Node11&#45;&gt;Node7 -->
<g id="edge13" class="edge"><title>Node11&#45;&gt;Node7</title>
<path fill="none" stroke="#9a32cd" stroke-dasharray="5,2" d="M573.036,-7.64354C608.238,-7.34673 660.141,-11.6088 698,-35 723.5,-50.7552 740.13,-83.8179 747.166,-100.271"/>
<polygon fill="#9a32cd" stroke="#9a32cd" points="572.604,-4.15191 562.681,-7.86589 572.754,-11.1503 572.604,-4.15191"/>
<text text-anchor="middle" x="651" y="-38" font-family="Arial" font-size="10.00"> renderMaterial</text>
</g>
<!-- Node12 -->
<g id="node12" class="node"><title>Node12</title>
<g id="a_node12"><a xlink:href="classid_decl.html" target="_top" xlink:title="idDecl">
<polygon fill="white" stroke="black" points="259,-0.5 259,-19.5 303,-19.5 303,-0.5 259,-0.5"/>
<text text-anchor="middle" x="281" y="-7.5" font-family="Arial" font-size="10.00">idDecl</text>
</a>
</g>
</g>
<!-- Node12&#45;&gt;Node11 -->
<g id="edge14" class="edge"><title>Node12&#45;&gt;Node11</title>
<path fill="none" stroke="midnightblue" d="M313.621,-10C362.579,-10 455.99,-10 503.185,-10"/>
<polygon fill="midnightblue" stroke="midnightblue" points="313.315,-6.5001 303.315,-10 313.315,-13.5001 313.315,-6.5001"/>
</g>
<!-- Node13 -->
<g id="node13" class="node"><title>Node13</title>
<g id="a_node13"><a xlink:href="classid_decl_base.html" target="_top" xlink:title="idDeclBase">
<polygon fill="white" stroke="black" points="24,-0.5 24,-19.5 90,-19.5 90,-0.5 24,-0.5"/>
<text text-anchor="middle" x="57" y="-7.5" font-family="Arial" font-size="10.00">idDeclBase</text>
</a>
</g>
</g>
<!-- Node13&#45;&gt;Node12 -->
<g id="edge15" class="edge"><title>Node13&#45;&gt;Node12</title>
<path fill="none" stroke="#9a32cd" stroke-dasharray="5,2" d="M100.52,-10C147.836,-10 222.398,-10 258.71,-10"/>
<polygon fill="#9a32cd" stroke="#9a32cd" points="100.281,-6.5001 90.2807,-10 100.281,-13.5001 100.281,-6.5001"/>
<text text-anchor="middle" x="161" y="-13" font-family="Arial" font-size="10.00"> base</text>
</g>
<!-- Node14 -->
<g id="node14" class="node"><title>Node14</title>
<g id="a_node14"><a xlink:href="classid_hash_table.html" target="_top" xlink:title="idHashTable\&lt; MaterialDoc * \&gt;">
<polygon fill="white" stroke="black" points="208,-151.5 208,-170.5 354,-170.5 354,-151.5 208,-151.5"/>
<text text-anchor="middle" x="281" y="-158.5" font-family="Arial" font-size="10.00">idHashTable&lt; MaterialDoc * &gt;</text>
</a>
</g>
</g>
<!-- Node14&#45;&gt;Node2 -->
<g id="edge16" class="edge"><title>Node14&#45;&gt;Node2</title>
<path fill="none" stroke="#9a32cd" stroke-dasharray="5,2" d="M364.289,-157.678C395.039,-157.428 430.205,-158.323 462,-162 473.517,-163.332 485.904,-165.808 497.009,-168.42"/>
<polygon fill="#9a32cd" stroke="#9a32cd" points="363.997,-154.181 354.041,-157.804 364.083,-161.181 363.997,-154.181"/>
<text text-anchor="middle" x="417" y="-165" font-family="Arial" font-size="10.00"> inProgressMaterials</text>
</g>
<!-- Node15 -->
<g id="node15" class="node"><title>Node15</title>
<g id="a_node15"><a xlink:href="classid_list.html" target="_top" xlink:title="idList\&lt; MaterialView * \&gt;">
<polygon fill="white" stroke="black" points="221,-113.5 221,-132.5 341,-132.5 341,-113.5 221,-113.5"/>
<text text-anchor="middle" x="281" y="-120.5" font-family="Arial" font-size="10.00">idList&lt; MaterialView * &gt;</text>
</a>
</g>
</g>
<!-- Node15&#45;&gt;Node2 -->
<g id="edge17" class="edge"><title>Node15&#45;&gt;Node2</title>
<path fill="none" stroke="#9a32cd" stroke-dasharray="5,2" d="M351.322,-124.35C385.265,-126.506 426.389,-131.37 462,-142 482.297,-148.059 503.677,-159.978 517.388,-168.44"/>
<polygon fill="#9a32cd" stroke="#9a32cd" points="351.215,-120.839 341.033,-123.765 350.818,-127.827 351.215,-120.839"/>
<text text-anchor="middle" x="417" y="-145" font-family="Arial" font-size="10.00"> materialViews</text>
</g>
</g>
</svg>
