<?xml version="1.0" encoding="UTF-8" standalone="no"?>
<!DOCTYPE svg PUBLIC "-//W3C//DTD SVG 1.1//EN"
 "http://www.w3.org/Graphics/SVG/1.1/DTD/svg11.dtd">
<!-- Generated by graphviz version 2.34.0 (20130907.0111)
 -->
<!-- Title: MaterialView Pages: 1 -->
<svg width="228pt" height="218pt"
 viewBox="0.00 0.00 228.00 218.00" xmlns="http://www.w3.org/2000/svg" xmlns:xlink="http://www.w3.org/1999/xlink">
<g id="graph0" class="graph" transform="scale(1 1) rotate(0) translate(4 214)">
<title>MaterialView</title>
<polygon fill="white" stroke="white" points="-4,4 -4,-214 224,-214 224,4 -4,4"/>
<!-- Node1 -->
<g id="node1" class="node"><title>Node1</title>
<polygon fill="#bfbfbf" stroke="black" points="0,-95.5 0,-114.5 72,-114.5 72,-95.5 0,-95.5"/>
<text text-anchor="middle" x="36" y="-102.5" font-family="Arial" font-size="10.00">MaterialView</text>
</g>
<!-- Node2 -->
<g id="node2" class="node"><title>Node2</title>
<g id="a_node2"><a xlink:href="class_material_edit_view.html" target="_top" xlink:title="MaterialEditView">
<polygon fill="white" stroke="black" points="119.5,-190.5 119.5,-209.5 208.5,-209.5 208.5,-190.5 119.5,-190.5"/>
<text text-anchor="middle" x="164" y="-197.5" font-family="Arial" font-size="10.00">MaterialEditView</text>
</a>
</g>
</g>
<!-- Node1&#45;&gt;Node2 -->
<g id="edge1" class="edge"><title>Node1&#45;&gt;Node2</title>
<path fill="none" stroke="midnightblue" d="M49.4266,-122.652C62.2996,-139.754 83.8862,-165.339 108,-181 113.846,-184.797 120.536,-187.927 127.191,-190.474"/>
<polygon fill="midnightblue" stroke="midnightblue" points="52.2506,-120.584 43.5219,-114.579 46.6006,-124.717 52.2506,-120.584"/>
</g>
<!-- Node3 -->
<g id="node3" class="node"><title>Node3</title>
<g id="a_node3"><a xlink:href="class_material_preview_view.html" target="_top" xlink:title="MaterialPreviewView">
<polygon fill="white" stroke="black" points="111.5,-152.5 111.5,-171.5 216.5,-171.5 216.5,-152.5 111.5,-152.5"/>
<text text-anchor="middle" x="164" y="-159.5" font-family="Arial" font-size="10.00">MaterialPreviewView</text>
</a>
</g>
</g>
<!-- Node1&#45;&gt;Node3 -->
<g id="edge2" class="edge"><title>Node1&#45;&gt;Node3</title>
<path fill="none" stroke="midnightblue" d="M62.045,-119.663C75.4269,-127.173 92.3308,-136.152 108,-143 115.868,-146.439 124.575,-149.689 132.696,-152.496"/>
<polygon fill="midnightblue" stroke="midnightblue" points="63.413,-116.414 52.9915,-114.505 59.948,-122.496 63.413,-116.414"/>
</g>
<!-- Node4 -->
<g id="node4" class="node"><title>Node4</title>
<g id="a_node4"><a xlink:href="class_material_prop_tree_view.html" target="_top" xlink:title="MaterialPropTreeView">
<polygon fill="white" stroke="black" points="108.5,-114.5 108.5,-133.5 219.5,-133.5 219.5,-114.5 108.5,-114.5"/>
<text text-anchor="middle" x="164" y="-121.5" font-family="Arial" font-size="10.00">MaterialPropTreeView</text>
</a>
</g>
</g>
<!-- Node1&#45;&gt;Node4 -->
<g id="edge3" class="edge"><title>Node1&#45;&gt;Node4</title>
<path fill="none" stroke="midnightblue" d="M82.147,-111.808C90.6138,-113.085 99.5494,-114.432 108.27,-115.747"/>
<polygon fill="midnightblue" stroke="midnightblue" points="82.5081,-108.323 72.098,-110.293 81.4643,-115.245 82.5081,-108.323"/>
</g>
<!-- Node5 -->
<g id="node5" class="node"><title>Node5</title>
<g id="a_node5"><a xlink:href="class_material_tree_view.html" target="_top" xlink:title="MaterialTreeView">
<polygon fill="white" stroke="black" points="118.5,-76.5 118.5,-95.5 209.5,-95.5 209.5,-76.5 118.5,-76.5"/>
<text text-anchor="middle" x="164" y="-83.5" font-family="Arial" font-size="10.00">MaterialTreeView</text>
</a>
</g>
</g>
<!-- Node1&#45;&gt;Node5 -->
<g id="edge4" class="edge"><title>Node1&#45;&gt;Node5</title>
<path fill="none" stroke="midnightblue" d="M82.1217,-98.1959C93.8435,-96.4284 106.466,-94.525 118.172,-92.7597"/>
<polygon fill="midnightblue" stroke="midnightblue" points="81.4643,-94.7554 72.098,-99.7074 82.5081,-101.677 81.4643,-94.7554"/>
</g>
<!-- Node6 -->
<g id="node6" class="node"><title>Node6</title>
<g id="a_node6"><a xlink:href="class_m_e_main_frame.html" target="_top" xlink:title="MEMainFrame">
<polygon fill="white" stroke="black" points="124,-38.5 124,-57.5 204,-57.5 204,-38.5 124,-38.5"/>
<text text-anchor="middle" x="164" y="-45.5" font-family="Arial" font-size="10.00">MEMainFrame</text>
</a>
</g>
</g>
<!-- Node1&#45;&gt;Node6 -->
<g id="edge5" class="edge"><title>Node1&#45;&gt;Node6</title>
<path fill="none" stroke="midnightblue" d="M62.045,-90.337C75.4269,-82.8268 92.3308,-73.848 108,-67 115.868,-63.5613 124.575,-60.3114 132.696,-57.5041"/>
<polygon fill="midnightblue" stroke="midnightblue" points="59.948,-87.5035 52.9915,-95.4946 63.413,-93.5858 59.948,-87.5035"/>
</g>
<!-- Node7 -->
<g id="node7" class="node"><title>Node7</title>
<g id="a_node7"><a xlink:href="class_stage_view.html" target="_top" xlink:title="StageView">
<polygon fill="white" stroke="black" points="132.5,-0.5 132.5,-19.5 195.5,-19.5 195.5,-0.5 132.5,-0.5"/>
<text text-anchor="middle" x="164" y="-7.5" font-family="Arial" font-size="10.00">StageView</text>
</a>
</g>
</g>
<!-- Node1&#45;&gt;Node7 -->
<g id="edge6" class="edge"><title>Node1&#45;&gt;Node7</title>
<path fill="none" stroke="midnightblue" d="M49.4266,-87.3482C62.2996,-70.2457 83.8862,-44.6614 108,-29 115.371,-24.2128 124.084,-20.485 132.376,-17.6495"/>
<polygon fill="midnightblue" stroke="midnightblue" points="46.6006,-85.2833 43.5219,-95.421 52.2506,-89.4159 46.6006,-85.2833"/>
</g>
</g>
</svg>
