<?xml version="1.0" encoding="UTF-8" standalone="no"?>
<!DOCTYPE svg PUBLIC "-//W3C//DTD SVG 1.1//EN"
 "http://www.w3.org/Graphics/SVG/1.1/DTD/svg11.dtd">
<!-- Generated by graphviz version 2.34.0 (20130907.0111)
 -->
<!-- Title: idCurve_Bezier&lt; type &gt; Pages: 1 -->
<svg width="126pt" height="154pt"
 viewBox="0.00 0.00 126.00 154.00" xmlns="http://www.w3.org/2000/svg" xmlns:xlink="http://www.w3.org/1999/xlink">
<g id="graph0" class="graph" transform="scale(1 1) rotate(0) translate(4 150)">
<title>idCurve_Bezier&lt; type &gt;</title>
<polygon fill="white" stroke="white" points="-4,4 -4,-150 122,-150 122,4 -4,4"/>
<!-- Node1 -->
<g id="node1" class="node"><title>Node1</title>
<polygon fill="#bfbfbf" stroke="black" points="0,-0.5 0,-19.5 118,-19.5 118,-0.5 0,-0.5"/>
<text text-anchor="middle" x="59" y="-7.5" font-family="Arial" font-size="10.00">idCurve_Bezier&lt; type &gt;</text>
</g>
<!-- Node2 -->
<g id="node2" class="node"><title>Node2</title>
<g id="a_node2"><a xlink:href="classid_curve.html" target="_top" xlink:title="idCurve\&lt; type \&gt;">
<polygon fill="white" stroke="black" points="16.5,-58.5 16.5,-77.5 101.5,-77.5 101.5,-58.5 16.5,-58.5"/>
<text text-anchor="middle" x="59" y="-65.5" font-family="Arial" font-size="10.00">idCurve&lt; type &gt;</text>
</a>
</g>
</g>
<!-- Node2&#45;&gt;Node1 -->
<g id="edge1" class="edge"><title>Node2&#45;&gt;Node1</title>
<path fill="none" stroke="midnightblue" d="M59,-47.953C59,-38.2875 59,-27.0312 59,-19.5052"/>
<polygon fill="midnightblue" stroke="midnightblue" points="55.5001,-48.25 59,-58.25 62.5001,-48.25 55.5001,-48.25"/>
</g>
<!-- Node3 -->
<g id="node3" class="node"><title>Node3</title>
<g id="a_node3"><a xlink:href="classid_list.html" target="_top" xlink:title="idList\&lt; float \&gt;">
<polygon fill="white" stroke="black" points="21,-126.5 21,-145.5 97,-145.5 97,-126.5 21,-126.5"/>
<text text-anchor="middle" x="59" y="-133.5" font-family="Arial" font-size="10.00">idList&lt; float &gt;</text>
</a>
</g>
</g>
<!-- Node3&#45;&gt;Node2 -->
<g id="edge2" class="edge"><title>Node3&#45;&gt;Node2</title>
<path fill="none" stroke="#9a32cd" stroke-dasharray="5,2" d="M59,-116.041C59,-103.472 59,-87.5631 59,-77.8411"/>
<polygon fill="#9a32cd" stroke="#9a32cd" points="55.5001,-116.372 59,-126.372 62.5001,-116.372 55.5001,-116.372"/>
<text text-anchor="middle" x="73" y="-99.5" font-family="Arial" font-size="10.00"> times</text>
</g>
</g>
</svg>
