<?xml version="1.0" encoding="UTF-8" standalone="no"?>
<!DOCTYPE svg PUBLIC "-//W3C//DTD SVG 1.1//EN"
 "http://www.w3.org/Graphics/SVG/1.1/DTD/svg11.dtd">
<!-- Generated by graphviz version 2.34.0 (20130907.0111)
 -->
<!-- Title: CPreviewDlg Pages: 1 -->
<svg width="138pt" height="96pt"
 viewBox="0.00 0.00 138.00 96.00" xmlns="http://www.w3.org/2000/svg" xmlns:xlink="http://www.w3.org/1999/xlink">
<g id="graph0" class="graph" transform="scale(1 1) rotate(0) translate(4 92)">
<title>CPreviewDlg</title>
<polygon fill="white" stroke="white" points="-4,4 -4,-92 134,-92 134,4 -4,4"/>
<!-- Node1 -->
<g id="node1" class="node"><title>Node1</title>
<polygon fill="#bfbfbf" stroke="black" points="20.5,-0.5 20.5,-19.5 91.5,-19.5 91.5,-0.5 20.5,-0.5"/>
<text text-anchor="middle" x="56" y="-7.5" font-family="Arial" font-size="10.00">CPreviewDlg</text>
</g>
<!-- Node2 -->
<g id="node2" class="node"><title>Node2</title>
<polygon fill="white" stroke="#bfbfbf" points="0,-68.5 0,-87.5 50,-87.5 50,-68.5 0,-68.5"/>
<text text-anchor="middle" x="25" y="-75.5" font-family="Arial" font-size="10.00">CDialog</text>
</g>
<!-- Node2&#45;&gt;Node1 -->
<g id="edge1" class="edge"><title>Node2&#45;&gt;Node1</title>
<path fill="none" stroke="midnightblue" d="M33.3672,-59.1859C39.3482,-46.4523 47.1412,-29.8607 51.8474,-19.8411"/>
<polygon fill="midnightblue" stroke="midnightblue" points="30.1362,-57.8324 29.0527,-68.3717 36.4721,-60.8083 30.1362,-57.8324"/>
</g>
<!-- Node3 -->
<g id="node3" class="node"><title>Node3</title>
<g id="a_node3"><a xlink:href="classid_str.html" target="_top" xlink:title="idStr">
<polygon fill="white" stroke="black" points="68.5,-68.5 68.5,-87.5 105.5,-87.5 105.5,-68.5 68.5,-68.5"/>
<text text-anchor="middle" x="87" y="-75.5" font-family="Arial" font-size="10.00">idStr</text>
</a>
</g>
</g>
<!-- Node3&#45;&gt;Node1 -->
<g id="edge2" class="edge"><title>Node3&#45;&gt;Node1</title>
<path fill="none" stroke="#9a32cd" stroke-dasharray="5,2" d="M78.6328,-59.1859C72.6518,-46.4523 64.8588,-29.8607 60.1526,-19.8411"/>
<polygon fill="#9a32cd" stroke="#9a32cd" points="75.5279,-60.8083 82.9473,-68.3717 81.8638,-57.8324 75.5279,-60.8083"/>
<text text-anchor="middle" x="102.5" y="-41.5" font-family="Arial" font-size="10.00"> mediaName</text>
</g>
</g>
</svg>
