<?xml version="1.0" encoding="UTF-8" standalone="no"?>
<!DOCTYPE svg PUBLIC "-//W3C//DTD SVG 1.1//EN"
 "http://www.w3.org/Graphics/SVG/1.1/DTD/svg11.dtd">
<!-- Generated by graphviz version 2.34.0 (20130907.0111)
 -->
<!-- Title: idCurve&lt; type &gt; Pages: 1 -->
<!--zoomable 243 -->
<svg id="main" version="1.1" xmlns="http://www.w3.org/2000/svg" xmlns:xlink="http://www.w3.org/1999/xlink" xml:space="preserve" onload="init(evt)">
<style type="text/css"><![CDATA[
.edge:hover path { stroke: red; }
.edge:hover polygon { stroke: red; fill: red; }
]]></style>
<script type="text/javascript"><![CDATA[
var edges = document.getElementsByTagName('g');
if (edges && edges.length) {
  for (var i=0;i<edges.length;i++) {
    if (edges[i].id.substr(0,4)=='edge') {
      edges[i].setAttribute('class','edge');
    }
  }
}
]]></script>
        <defs>
                <circle id="rim" cx="0" cy="0" r="7"/>
                <circle id="rim2" cx="0" cy="0" r="3.5"/>
                <g id="zoomPlus">
                        <use xlink:href="#rim" fill="#404040">
                                <set attributeName="fill" to="#808080" begin="zoomplus.mouseover" end="zoomplus.mouseout"/>
                        </use>
                        <path d="M-4,0h8M0,-4v8" fill="none" stroke="white" stroke-width="1.5" pointer-events="none"/>
                </g>
                <g id="zoomMin">
                        <use xlink:href="#rim" fill="#404040">
                                <set attributeName="fill" to="#808080" begin="zoomminus.mouseover" end="zoomminus.mouseout"/>
                        </use>
                        <path d="M-4,0h8" fill="none" stroke="white" stroke-width="1.5" pointer-events="none"/>
                </g>
                <g id="dirArrow">
                        <path fill="none" stroke="white" stroke-width="1.5" d="M0,-3.0v7 M-2.5,-0.5L0,-3.0L2.5,-0.5"/>
                </g>
               <g id="resetDef">
                       <use xlink:href="#rim2" fill="#404040">
                               <set attributeName="fill" to="#808080" begin="reset.mouseover" end="reset.mouseout"/>
                       </use>
               </g>
        </defs>

<script type="text/javascript">
var viewWidth = 788;
var viewHeight = 243;
var sectionId = 'dynsection-0';
</script>
<script xlink:href="svgpan.js"/>
<svg id="graph" class="graph">
<g id="viewport">
<title>idCurve&lt; type &gt;</title>
<polygon fill="white" stroke="white" points="-4,4 -4,-239 784,-239 784,4 -4,4"/>
<!-- Node1 -->
<g id="node1" class="node"><title>Node1</title>
<polygon fill="#bfbfbf" stroke="black" points="0.5,-146.5 0.5,-165.5 85.5,-165.5 85.5,-146.5 0.5,-146.5"/>
<text text-anchor="middle" x="43" y="-153.5" font-family="Arial" font-size="10.00">idCurve&lt; type &gt;</text>
</g>
<!-- Node2 -->
<g id="node2" class="node"><title>Node2</title>
<g id="a_node2"><a xlink:href="classid_curve___bezier.html" target="_top" xlink:title="idCurve_Bezier\&lt; type \&gt;">
<polygon fill="white" stroke="black" points="125,-215.5 125,-234.5 243,-234.5 243,-215.5 125,-215.5"/>
<text text-anchor="middle" x="184" y="-222.5" font-family="Arial" font-size="10.00">idCurve_Bezier&lt; type &gt;</text>
</a>
</g>
</g>
<!-- Node1&#45;&gt;Node2 -->
<g id="edge1" class="edge"><title>Node1&#45;&gt;Node2</title>
<path fill="none" stroke="midnightblue" d="M65.1782,-171.295C80.4272,-181.802 101.791,-195.514 122,-205 130.475,-208.978 139.955,-212.499 148.87,-215.434"/>
<polygon fill="midnightblue" stroke="midnightblue" points="67.1588,-168.409 56.9613,-165.535 63.1406,-174.141 67.1588,-168.409"/>
</g>
<!-- Node3 -->
<g id="node3" class="node"><title>Node3</title>
<g id="a_node3"><a xlink:href="classid_curve___cubic_bezier.html" target="_top" xlink:title="idCurve_CubicBezier\l\&lt; type \&gt;">
<polygon fill="white" stroke="black" points="131,-166 131,-196 237,-196 237,-166 131,-166"/>
<text text-anchor="start" x="139" y="-184" font-family="Arial" font-size="10.00">idCurve_CubicBezier</text>
<text text-anchor="middle" x="184" y="-173" font-family="Arial" font-size="10.00">&lt; type &gt;</text>
</a>
</g>
</g>
<!-- Node1&#45;&gt;Node3 -->
<g id="edge2" class="edge"><title>Node1&#45;&gt;Node3</title>
<path fill="none" stroke="midnightblue" d="M95.6311,-165.286C107.173,-167.362 119.421,-169.565 130.979,-171.644"/>
<polygon fill="midnightblue" stroke="midnightblue" points="96.1662,-161.826 85.7046,-163.501 94.9271,-168.716 96.1662,-161.826"/>
</g>
<!-- Node4 -->
<g id="node4" class="node"><title>Node4</title>
<g id="a_node4"><a xlink:href="classid_curve___quadratic_bezier.html" target="_top" xlink:title="idCurve_QuadraticBezier\l\&lt; type \&gt;">
<polygon fill="white" stroke="black" points="122.5,-117 122.5,-147 245.5,-147 245.5,-117 122.5,-117"/>
<text text-anchor="start" x="130.5" y="-135" font-family="Arial" font-size="10.00">idCurve_QuadraticBezier</text>
<text text-anchor="middle" x="184" y="-124" font-family="Arial" font-size="10.00">&lt; type &gt;</text>
</a>
</g>
</g>
<!-- Node1&#45;&gt;Node4 -->
<g id="edge3" class="edge"><title>Node1&#45;&gt;Node4</title>
<path fill="none" stroke="midnightblue" d="M95.6743,-147.078C104.353,-145.579 113.429,-144.012 122.311,-142.479"/>
<polygon fill="midnightblue" stroke="midnightblue" points="94.9632,-143.649 85.7046,-148.799 96.1543,-150.547 94.9632,-143.649"/>
</g>
<!-- Node5 -->
<g id="node5" class="node"><title>Node5</title>
<g id="a_node5"><a xlink:href="classid_curve___spline.html" target="_top" xlink:title="idCurve_Spline\&lt; type \&gt;">
<polygon fill="white" stroke="black" points="125.5,-78.5 125.5,-97.5 242.5,-97.5 242.5,-78.5 125.5,-78.5"/>
<text text-anchor="middle" x="184" y="-85.5" font-family="Arial" font-size="10.00">idCurve_Spline&lt; type &gt;</text>
</a>
</g>
</g>
<!-- Node1&#45;&gt;Node5 -->
<g id="edge4" class="edge"><title>Node1&#45;&gt;Node5</title>
<path fill="none" stroke="midnightblue" d="M65.9273,-140.573C81.1458,-130.357 102.171,-117.196 122,-108 130.594,-104.014 140.206,-100.471 149.213,-97.5146"/>
<polygon fill="midnightblue" stroke="midnightblue" points="63.5471,-137.96 57.2645,-146.491 67.4959,-143.74 63.5471,-137.96"/>
</g>
<!-- Node6 -->
<g id="node6" class="node"><title>Node6</title>
<g id="a_node6"><a xlink:href="classid_curve___b_spline.html" target="_top" xlink:title="idCurve_BSpline\&lt; type \&gt;">
<polygon fill="white" stroke="black" points="298,-147.5 298,-166.5 422,-166.5 422,-147.5 298,-147.5"/>
<text text-anchor="middle" x="360" y="-154.5" font-family="Arial" font-size="10.00">idCurve_BSpline&lt; type &gt;</text>
</a>
</g>
</g>
<!-- Node5&#45;&gt;Node6 -->
<g id="edge5" class="edge"><title>Node5&#45;&gt;Node6</title>
<path fill="none" stroke="midnightblue" d="M230.818,-101.003C236.057,-103.077 241.225,-105.407 246,-108 264.055,-117.804 263.646,-127.766 282,-137 290.513,-141.283 300.031,-144.71 309.394,-147.432"/>
<polygon fill="midnightblue" stroke="midnightblue" points="231.976,-97.6991 221.382,-97.5446 229.567,-104.272 231.976,-97.6991"/>
</g>
<!-- Node10 -->
<g id="node10" class="node"><title>Node10</title>
<g id="a_node10"><a xlink:href="classid_curve___catmull_rom_spline.html" target="_top" xlink:title="idCurve_CatmullRomSpline\l\&lt; type \&gt;">
<polygon fill="white" stroke="black" points="293,-98 293,-128 427,-128 427,-98 293,-98"/>
<text text-anchor="start" x="301" y="-116" font-family="Arial" font-size="10.00">idCurve_CatmullRomSpline</text>
<text text-anchor="middle" x="360" y="-105" font-family="Arial" font-size="10.00">&lt; type &gt;</text>
</a>
</g>
</g>
<!-- Node5&#45;&gt;Node10 -->
<g id="edge9" class="edge"><title>Node5&#45;&gt;Node10</title>
<path fill="none" stroke="midnightblue" d="M252.861,-97.7502C266.021,-99.6409 279.794,-101.62 292.896,-103.502"/>
<polygon fill="midnightblue" stroke="midnightblue" points="253.336,-94.2825 242.939,-96.3246 252.34,-101.211 253.336,-94.2825"/>
</g>
<!-- Node11 -->
<g id="node11" class="node"><title>Node11</title>
<g id="a_node11"><a xlink:href="classid_curve___kochanek_bartels_spline.html" target="_top" xlink:title="idCurve_KochanekBartelsSpline\l\&lt; type \&gt;">
<polygon fill="white" stroke="black" points="282.5,-49 282.5,-79 437.5,-79 437.5,-49 282.5,-49"/>
<text text-anchor="start" x="290.5" y="-67" font-family="Arial" font-size="10.00">idCurve_KochanekBartelsSpline</text>
<text text-anchor="middle" x="360" y="-56" font-family="Arial" font-size="10.00">&lt; type &gt;</text>
</a>
</g>
</g>
<!-- Node5&#45;&gt;Node11 -->
<g id="edge10" class="edge"><title>Node5&#45;&gt;Node11</title>
<path fill="none" stroke="midnightblue" d="M252.89,-78.6359C262.575,-77.3001 272.591,-75.9184 282.428,-74.5617"/>
<polygon fill="midnightblue" stroke="midnightblue" points="252.367,-75.1747 242.939,-80.0083 253.324,-82.1091 252.367,-75.1747"/>
</g>
<!-- Node12 -->
<g id="node12" class="node"><title>Node12</title>
<g id="a_node12"><a xlink:href="classid_curve___natural_cubic_spline.html" target="_top" xlink:title="idCurve_NaturalCubicSpline\l\&lt; type \&gt;">
<polygon fill="white" stroke="black" points="292,-0 292,-30 428,-30 428,-0 292,-0"/>
<text text-anchor="start" x="300" y="-18" font-family="Arial" font-size="10.00">idCurve_NaturalCubicSpline</text>
<text text-anchor="middle" x="360" y="-7" font-family="Arial" font-size="10.00">&lt; type &gt;</text>
</a>
</g>
</g>
<!-- Node5&#45;&gt;Node12 -->
<g id="edge11" class="edge"><title>Node5&#45;&gt;Node12</title>
<path fill="none" stroke="midnightblue" d="M211.571,-73.5406C230.798,-63.4035 257.586,-49.9422 282,-40 290.591,-36.5014 299.871,-33.145 308.912,-30.0902"/>
<polygon fill="midnightblue" stroke="midnightblue" points="209.702,-70.5707 202.521,-78.361 212.993,-76.7489 209.702,-70.5707"/>
</g>
<!-- Node7 -->
<g id="node7" class="node"><title>Node7</title>
<g id="a_node7"><a xlink:href="classid_curve___non_uniform_b_spline.html" target="_top" xlink:title="idCurve_NonUniformBSpline\l\&lt; type \&gt;">
<polygon fill="white" stroke="black" points="478.5,-166 478.5,-196 615.5,-196 615.5,-166 478.5,-166"/>
<text text-anchor="start" x="486.5" y="-184" font-family="Arial" font-size="10.00">idCurve_NonUniformBSpline</text>
<text text-anchor="middle" x="547" y="-173" font-family="Arial" font-size="10.00">&lt; type &gt;</text>
</a>
</g>
</g>
<!-- Node6&#45;&gt;Node7 -->
<g id="edge6" class="edge"><title>Node6&#45;&gt;Node7</title>
<path fill="none" stroke="midnightblue" d="M432.381,-166.26C447.46,-168.216 463.331,-170.275 478.271,-172.214"/>
<polygon fill="midnightblue" stroke="midnightblue" points="432.456,-162.741 422.089,-164.925 431.555,-169.683 432.456,-162.741"/>
</g>
<!-- Node9 -->
<g id="node9" class="node"><title>Node9</title>
<g id="a_node9"><a xlink:href="classid_curve___uniform_cubic_b_spline.html" target="_top" xlink:title="idCurve_UniformCubicBSpline\l\&lt; type \&gt;">
<polygon fill="white" stroke="black" points="474.5,-117 474.5,-147 619.5,-147 619.5,-117 474.5,-117"/>
<text text-anchor="start" x="482.5" y="-135" font-family="Arial" font-size="10.00">idCurve_UniformCubicBSpline</text>
<text text-anchor="middle" x="547" y="-124" font-family="Arial" font-size="10.00">&lt; type &gt;</text>
</a>
</g>
</g>
<!-- Node6&#45;&gt;Node9 -->
<g id="edge8" class="edge"><title>Node6&#45;&gt;Node9</title>
<path fill="none" stroke="midnightblue" d="M432.053,-147.398C445.929,-145.523 460.486,-143.556 474.38,-141.678"/>
<polygon fill="midnightblue" stroke="midnightblue" points="431.53,-143.937 422.089,-148.745 432.467,-150.874 431.53,-143.937"/>
</g>
<!-- Node8 -->
<g id="node8" class="node"><title>Node8</title>
<g id="a_node8"><a xlink:href="classid_curve___n_u_r_b_s.html" target="_top" xlink:title="idCurve_NURBS\&lt; type \&gt;">
<polygon fill="white" stroke="black" points="656,-171.5 656,-190.5 780,-190.5 780,-171.5 656,-171.5"/>
<text text-anchor="middle" x="718" y="-178.5" font-family="Arial" font-size="10.00">idCurve_NURBS&lt; type &gt;</text>
</a>
</g>
</g>
<!-- Node7&#45;&gt;Node8 -->
<g id="edge7" class="edge"><title>Node7&#45;&gt;Node8</title>
<path fill="none" stroke="midnightblue" d="M625.768,-181C635.835,-181 646.031,-181 655.778,-181"/>
<polygon fill="midnightblue" stroke="midnightblue" points="625.765,-177.5 615.765,-181 625.765,-184.5 625.765,-177.5"/>
</g>
</g>
</svg>
        <g id="navigator" transform="translate(0 0)" fill="#404254">
                <rect fill="#f2f5e9" fill-opacity="0.5" stroke="#606060" stroke-width=".5" x="0" y="0" width="60" height="60"/>
                <use id="zoomplus" xlink:href="#zoomPlus" x="17" y="9" onmousedown="handleZoom(evt,'in')"/>
                <use id="zoomminus" xlink:href="#zoomMin" x="42" y="9" onmousedown="handleZoom(evt,'out')"/>
                <use id="reset" xlink:href="#resetDef" x="30" y="36" onmousedown="handleReset()"/>
                <g id="arrowUp" xlink:href="#dirArrow" transform="translate(30 24)" onmousedown="handlePan(0,-1)">
                  <use xlink:href="#rim" fill="#404040">
                        <set attributeName="fill" to="#808080" begin="arrowUp.mouseover" end="arrowUp.mouseout"/>
                  </use>
                  <path fill="none" stroke="white" stroke-width="1.5" d="M0,-3.0v7 M-2.5,-0.5L0,-3.0L2.5,-0.5"/>
                </g>
                <g id="arrowRight" xlink:href="#dirArrow" transform="rotate(90) translate(36 -43)" onmousedown="handlePan(1,0)">
                  <use xlink:href="#rim" fill="#404040">
                        <set attributeName="fill" to="#808080" begin="arrowRight.mouseover" end="arrowRight.mouseout"/>
                  </use>
                  <path fill="none" stroke="white" stroke-width="1.5" d="M0,-3.0v7 M-2.5,-0.5L0,-3.0L2.5,-0.5"/>
                </g>
                <g id="arrowDown" xlink:href="#dirArrow" transform="rotate(180) translate(-30 -48)" onmousedown="handlePan(0,1)">
                  <use xlink:href="#rim" fill="#404040">
                        <set attributeName="fill" to="#808080" begin="arrowDown.mouseover" end="arrowDown.mouseout"/>
                  </use>
                  <path fill="none" stroke="white" stroke-width="1.5" d="M0,-3.0v7 M-2.5,-0.5L0,-3.0L2.5,-0.5"/>
                </g>
                <g id="arrowLeft" xlink:href="#dirArrow" transform="rotate(270) translate(-36 17)" onmousedown="handlePan(-1,0)">
                  <use xlink:href="#rim" fill="#404040">
                        <set attributeName="fill" to="#808080" begin="arrowLeft.mouseover" end="arrowLeft.mouseout"/>
                  </use>
                  <path fill="none" stroke="white" stroke-width="1.5" d="M0,-3.0v7 M-2.5,-0.5L0,-3.0L2.5,-0.5"/>
                </g>
        </g>
        <svg viewBox="0 0 15 15" width="100%" height="30px" preserveAspectRatio="xMaxYMin meet">
         <g id="arrow_out" transform="scale(0.3 0.3)">
          <a xlink:href="classid_curve__inherit__graph_org.svg" target="_base">
           <rect id="button" ry="5" rx="5" y="6" x="6" height="38" width="38"
                fill="#f2f5e9" fill-opacity="0.5" stroke="#606060" stroke-width="1.0"/>
           <path id="arrow"
             d="M 11.500037,31.436501 C 11.940474,20.09759 22.043105,11.32322 32.158766,21.979434 L 37.068811,17.246167 C 37.068811,17.246167 37.088388,32 37.088388,32 L 22.160133,31.978069 C 22.160133,31.978069 26.997745,27.140456 26.997745,27.140456 C 18.528582,18.264221 13.291696,25.230495 11.500037,31.436501 z"
             style="fill:#404040;"/>
          </a>
         </g>
        </svg>
</svg>
