<?xml version="1.0" encoding="UTF-8" standalone="no"?>
<!DOCTYPE svg PUBLIC "-//W3C//DTD SVG 1.1//EN"
 "http://www.w3.org/Graphics/SVG/1.1/DTD/svg11.dtd">
<!-- Generated by graphviz version 2.34.0 (20130907.0111)
 -->
<!-- Title: idAFEntity_VehicleFourWheels Pages: 1 -->
<svg width="160pt" height="308pt"
 viewBox="0.00 0.00 160.00 308.00" xmlns="http://www.w3.org/2000/svg" xmlns:xlink="http://www.w3.org/1999/xlink">
<g id="graph0" class="graph" transform="scale(1 1) rotate(0) translate(4 304)">
<title>idAFEntity_VehicleFourWheels</title>
<polygon fill="white" stroke="white" points="-4,4 -4,-304 156,-304 156,4 -4,4"/>
<!-- Node1 -->
<g id="node1" class="node"><title>Node1</title>
<polygon fill="#bfbfbf" stroke="black" points="0,-0.5 0,-19.5 152,-19.5 152,-0.5 0,-0.5"/>
<text text-anchor="middle" x="76" y="-7.5" font-family="Arial" font-size="10.00">idAFEntity_VehicleFourWheels</text>
</g>
<!-- Node2 -->
<g id="node2" class="node"><title>Node2</title>
<g id="a_node2"><a xlink:href="classid_a_f_entity___vehicle.html" target="_top" xlink:title="idAFEntity_Vehicle">
<polygon fill="white" stroke="black" points="26,-56.5 26,-75.5 126,-75.5 126,-56.5 26,-56.5"/>
<text text-anchor="middle" x="76" y="-63.5" font-family="Arial" font-size="10.00">idAFEntity_Vehicle</text>
</a>
</g>
</g>
<!-- Node2&#45;&gt;Node1 -->
<g id="edge1" class="edge"><title>Node2&#45;&gt;Node1</title>
<path fill="none" stroke="midnightblue" d="M69.5276,-46.1005C68.8956,-37.1357 69.3427,-26.8579 70.869,-19.7511"/>
<polygon fill="midnightblue" stroke="midnightblue" points="66.0658,-46.6216 70.8337,-56.083 73.0067,-45.7134 66.0658,-46.6216"/>
</g>
<!-- Node2&#45;&gt;Node1 -->
<g id="edge10" class="edge"><title>Node2&#45;&gt;Node1</title>
<path fill="none" stroke="midnightblue" d="M82.4724,-46.1005C83.1044,-37.1357 82.6573,-26.8579 81.131,-19.7511"/>
<polygon fill="midnightblue" stroke="midnightblue" points="78.9933,-45.7134 81.1663,-56.083 85.9342,-46.6216 78.9933,-45.7134"/>
</g>
<!-- Node3 -->
<g id="node3" class="node"><title>Node3</title>
<g id="a_node3"><a xlink:href="classid_a_f_entity___base.html" target="_top" xlink:title="idAFEntity_Base">
<polygon fill="white" stroke="black" points="31,-112.5 31,-131.5 121,-131.5 121,-112.5 31,-112.5"/>
<text text-anchor="middle" x="76" y="-119.5" font-family="Arial" font-size="10.00">idAFEntity_Base</text>
</a>
</g>
</g>
<!-- Node3&#45;&gt;Node2 -->
<g id="edge2" class="edge"><title>Node3&#45;&gt;Node2</title>
<path fill="none" stroke="midnightblue" d="M69.5276,-102.101C68.8956,-93.1357 69.3427,-82.8579 70.869,-75.7511"/>
<polygon fill="midnightblue" stroke="midnightblue" points="66.0658,-102.622 70.8337,-112.083 73.0067,-101.713 66.0658,-102.622"/>
</g>
<!-- Node3&#45;&gt;Node2 -->
<g id="edge9" class="edge"><title>Node3&#45;&gt;Node2</title>
<path fill="none" stroke="midnightblue" d="M82.4724,-102.101C83.1044,-93.1357 82.6573,-82.8579 81.131,-75.7511"/>
<polygon fill="midnightblue" stroke="midnightblue" points="78.9933,-101.713 81.1663,-112.083 85.9342,-102.622 78.9933,-101.713"/>
</g>
<!-- Node4 -->
<g id="node4" class="node"><title>Node4</title>
<g id="a_node4"><a xlink:href="classid_animated_entity.html" target="_top" xlink:title="idAnimatedEntity">
<polygon fill="white" stroke="black" points="30.5,-168.5 30.5,-187.5 121.5,-187.5 121.5,-168.5 30.5,-168.5"/>
<text text-anchor="middle" x="76" y="-175.5" font-family="Arial" font-size="10.00">idAnimatedEntity</text>
</a>
</g>
</g>
<!-- Node4&#45;&gt;Node3 -->
<g id="edge3" class="edge"><title>Node4&#45;&gt;Node3</title>
<path fill="none" stroke="midnightblue" d="M69.5276,-158.101C68.8956,-149.136 69.3427,-138.858 70.869,-131.751"/>
<polygon fill="midnightblue" stroke="midnightblue" points="66.0658,-158.622 70.8337,-168.083 73.0067,-157.713 66.0658,-158.622"/>
</g>
<!-- Node4&#45;&gt;Node3 -->
<g id="edge8" class="edge"><title>Node4&#45;&gt;Node3</title>
<path fill="none" stroke="midnightblue" d="M82.4724,-158.101C83.1044,-149.136 82.6573,-138.858 81.131,-131.751"/>
<polygon fill="midnightblue" stroke="midnightblue" points="78.9933,-157.713 81.1663,-168.083 85.9342,-158.622 78.9933,-157.713"/>
</g>
<!-- Node5 -->
<g id="node5" class="node"><title>Node5</title>
<g id="a_node5"><a xlink:href="classid_entity.html" target="_top" xlink:title="idEntity">
<polygon fill="white" stroke="black" points="51,-224.5 51,-243.5 101,-243.5 101,-224.5 51,-224.5"/>
<text text-anchor="middle" x="76" y="-231.5" font-family="Arial" font-size="10.00">idEntity</text>
</a>
</g>
</g>
<!-- Node5&#45;&gt;Node4 -->
<g id="edge4" class="edge"><title>Node5&#45;&gt;Node4</title>
<path fill="none" stroke="midnightblue" d="M69.5276,-214.101C68.8956,-205.136 69.3427,-194.858 70.869,-187.751"/>
<polygon fill="midnightblue" stroke="midnightblue" points="66.0658,-214.622 70.8337,-224.083 73.0067,-213.713 66.0658,-214.622"/>
</g>
<!-- Node5&#45;&gt;Node4 -->
<g id="edge7" class="edge"><title>Node5&#45;&gt;Node4</title>
<path fill="none" stroke="midnightblue" d="M82.4724,-214.101C83.1044,-205.136 82.6573,-194.858 81.131,-187.751"/>
<polygon fill="midnightblue" stroke="midnightblue" points="78.9933,-213.713 81.1663,-224.083 85.9342,-214.622 78.9933,-213.713"/>
</g>
<!-- Node6 -->
<g id="node6" class="node"><title>Node6</title>
<g id="a_node6"><a xlink:href="classid_class.html" target="_top" xlink:title="idClass">
<polygon fill="white" stroke="black" points="51.5,-280.5 51.5,-299.5 100.5,-299.5 100.5,-280.5 51.5,-280.5"/>
<text text-anchor="middle" x="76" y="-287.5" font-family="Arial" font-size="10.00">idClass</text>
</a>
</g>
</g>
<!-- Node6&#45;&gt;Node5 -->
<g id="edge5" class="edge"><title>Node6&#45;&gt;Node5</title>
<path fill="none" stroke="midnightblue" d="M69.5276,-270.101C68.8956,-261.136 69.3427,-250.858 70.869,-243.751"/>
<polygon fill="midnightblue" stroke="midnightblue" points="66.0658,-270.622 70.8337,-280.083 73.0067,-269.713 66.0658,-270.622"/>
</g>
<!-- Node6&#45;&gt;Node5 -->
<g id="edge6" class="edge"><title>Node6&#45;&gt;Node5</title>
<path fill="none" stroke="midnightblue" d="M82.4724,-270.101C83.1044,-261.136 82.6573,-250.858 81.131,-243.751"/>
<polygon fill="midnightblue" stroke="midnightblue" points="78.9933,-269.713 81.1663,-280.083 85.9342,-270.622 78.9933,-269.713"/>
</g>
</g>
</svg>
