<?xml version="1.0" encoding="UTF-8" standalone="no"?>
<!DOCTYPE svg PUBLIC "-//W3C//DTD SVG 1.1//EN"
 "http://www.w3.org/Graphics/SVG/1.1/DTD/svg11.dtd">
<!-- Generated by graphviz version 2.34.0 (20130907.0111)
 -->
<!-- Title: idFile Pages: 1 -->
<!--zoomable 313 -->
<svg id="main" version="1.1" xmlns="http://www.w3.org/2000/svg" xmlns:xlink="http://www.w3.org/1999/xlink" xml:space="preserve" onload="init(evt)">
<style type="text/css"><![CDATA[
.edge:hover path { stroke: red; }
.edge:hover polygon { stroke: red; fill: red; }
]]></style>
<script type="text/javascript"><![CDATA[
var edges = document.getElementsByTagName('g');
if (edges && edges.length) {
  for (var i=0;i<edges.length;i++) {
    if (edges[i].id.substr(0,4)=='edge') {
      edges[i].setAttribute('class','edge');
    }
  }
}
]]></script>
        <defs>
                <circle id="rim" cx="0" cy="0" r="7"/>
                <circle id="rim2" cx="0" cy="0" r="3.5"/>
                <g id="zoomPlus">
                        <use xlink:href="#rim" fill="#404040">
                                <set attributeName="fill" to="#808080" begin="zoomplus.mouseover" end="zoomplus.mouseout"/>
                        </use>
                        <path d="M-4,0h8M0,-4v8" fill="none" stroke="white" stroke-width="1.5" pointer-events="none"/>
                </g>
                <g id="zoomMin">
                        <use xlink:href="#rim" fill="#404040">
                                <set attributeName="fill" to="#808080" begin="zoomminus.mouseover" end="zoomminus.mouseout"/>
                        </use>
                        <path d="M-4,0h8" fill="none" stroke="white" stroke-width="1.5" pointer-events="none"/>
                </g>
                <g id="dirArrow">
                        <path fill="none" stroke="white" stroke-width="1.5" d="M0,-3.0v7 M-2.5,-0.5L0,-3.0L2.5,-0.5"/>
                </g>
               <g id="resetDef">
                       <use xlink:href="#rim2" fill="#404040">
                               <set attributeName="fill" to="#808080" begin="reset.mouseover" end="reset.mouseout"/>
                       </use>
               </g>
        </defs>

<script type="text/javascript">
var viewWidth = 846;
var viewHeight = 313;
var sectionId = 'dynsection-0';
</script>
<script xlink:href="svgpan.js"/>
<svg id="graph" class="graph">
<g id="viewport">
<title>idFile</title>
<polygon fill="white" stroke="white" points="-4,4 -4,-309 842,-309 842,4 -4,4"/>
<!-- Node1 -->
<g id="node1" class="node"><title>Node1</title>
<polygon fill="#bfbfbf" stroke="black" points="0,-95.5 0,-114.5 40,-114.5 40,-95.5 0,-95.5"/>
<text text-anchor="middle" x="20" y="-102.5" font-family="Arial" font-size="10.00">idFile</text>
</g>
<!-- Node2 -->
<g id="node2" class="node"><title>Node2</title>
<g id="a_node2"><a xlink:href="classid_compressor.html" target="_top" xlink:title="idCompressor">
<polygon fill="white" stroke="black" points="83.5,-190.5 83.5,-209.5 160.5,-209.5 160.5,-190.5 83.5,-190.5"/>
<text text-anchor="middle" x="122" y="-197.5" font-family="Arial" font-size="10.00">idCompressor</text>
</a>
</g>
</g>
<!-- Node1&#45;&gt;Node2 -->
<g id="edge1" class="edge"><title>Node1&#45;&gt;Node2</title>
<path fill="none" stroke="midnightblue" d="M30.6126,-123.658C40.1478,-140.585 56.181,-165.236 76,-181 80.6458,-184.695 86.1155,-187.79 91.6112,-190.337"/>
<polygon fill="midnightblue" stroke="midnightblue" points="33.6076,-121.838 25.7699,-114.71 27.4513,-125.17 33.6076,-121.838"/>
</g>
<!-- Node12 -->
<g id="node12" class="node"><title>Node12</title>
<g id="a_node12"><a xlink:href="classid_demo_file.html" target="_top" xlink:title="idDemoFile">
<polygon fill="white" stroke="black" points="89.5,-152.5 89.5,-171.5 154.5,-171.5 154.5,-152.5 89.5,-152.5"/>
<text text-anchor="middle" x="122" y="-159.5" font-family="Arial" font-size="10.00">idDemoFile</text>
</a>
</g>
</g>
<!-- Node1&#45;&gt;Node12 -->
<g id="edge11" class="edge"><title>Node1&#45;&gt;Node12</title>
<path fill="none" stroke="midnightblue" d="M41.3632,-120.558C51.4652,-127.885 64.0395,-136.434 76,-143 82.2444,-146.428 89.2359,-149.652 95.8119,-152.437"/>
<polygon fill="midnightblue" stroke="midnightblue" points="43.3197,-117.652 33.1997,-114.516 39.1549,-123.278 43.3197,-117.652"/>
</g>
<!-- Node13 -->
<g id="node13" class="node"><title>Node13</title>
<g id="a_node13"><a xlink:href="classid_file___bit_msg.html" target="_top" xlink:title="idFile_BitMsg">
<polygon fill="white" stroke="black" points="84,-114.5 84,-133.5 160,-133.5 160,-114.5 84,-114.5"/>
<text text-anchor="middle" x="122" y="-121.5" font-family="Arial" font-size="10.00">idFile_BitMsg</text>
</a>
</g>
</g>
<!-- Node1&#45;&gt;Node13 -->
<g id="edge12" class="edge"><title>Node1&#45;&gt;Node13</title>
<path fill="none" stroke="midnightblue" d="M50.2392,-110.555C60.7866,-112.559 72.8326,-114.848 83.9591,-116.962"/>
<polygon fill="midnightblue" stroke="midnightblue" points="50.7586,-107.092 40.281,-108.663 49.4519,-113.969 50.7586,-107.092"/>
</g>
<!-- Node14 -->
<g id="node14" class="node"><title>Node14</title>
<g id="a_node14"><a xlink:href="classid_file___in_zip.html" target="_top" xlink:title="idFile_InZip">
<polygon fill="white" stroke="black" points="89.5,-76.5 89.5,-95.5 154.5,-95.5 154.5,-76.5 89.5,-76.5"/>
<text text-anchor="middle" x="122" y="-83.5" font-family="Arial" font-size="10.00">idFile_InZip</text>
</a>
</g>
</g>
<!-- Node1&#45;&gt;Node14 -->
<g id="edge13" class="edge"><title>Node1&#45;&gt;Node14</title>
<path fill="none" stroke="midnightblue" d="M50.3905,-99.4158C62.5812,-97.0996 76.7532,-94.4069 89.1876,-92.0444"/>
<polygon fill="midnightblue" stroke="midnightblue" points="49.4519,-96.0314 40.281,-101.337 50.7586,-102.908 49.4519,-96.0314"/>
</g>
<!-- Node15 -->
<g id="node15" class="node"><title>Node15</title>
<g id="a_node15"><a xlink:href="classid_file___memory.html" target="_top" xlink:title="idFile_Memory">
<polygon fill="white" stroke="black" points="82,-38.5 82,-57.5 162,-57.5 162,-38.5 82,-38.5"/>
<text text-anchor="middle" x="122" y="-45.5" font-family="Arial" font-size="10.00">idFile_Memory</text>
</a>
</g>
</g>
<!-- Node1&#45;&gt;Node15 -->
<g id="edge14" class="edge"><title>Node1&#45;&gt;Node15</title>
<path fill="none" stroke="midnightblue" d="M41.3632,-89.4416C51.4652,-82.1153 64.0395,-73.566 76,-67 82.2444,-63.572 89.2359,-60.3479 95.8119,-57.5631"/>
<polygon fill="midnightblue" stroke="midnightblue" points="39.1549,-86.7216 33.1997,-95.4844 43.3197,-92.3479 39.1549,-86.7216"/>
</g>
<!-- Node16 -->
<g id="node16" class="node"><title>Node16</title>
<g id="a_node16"><a xlink:href="classid_file___permanent.html" target="_top" xlink:title="idFile_Permanent">
<polygon fill="white" stroke="black" points="76,-0.5 76,-19.5 168,-19.5 168,-0.5 76,-0.5"/>
<text text-anchor="middle" x="122" y="-7.5" font-family="Arial" font-size="10.00">idFile_Permanent</text>
</a>
</g>
</g>
<!-- Node1&#45;&gt;Node16 -->
<g id="edge15" class="edge"><title>Node1&#45;&gt;Node16</title>
<path fill="none" stroke="midnightblue" d="M30.6126,-86.3419C40.1478,-69.4146 56.181,-44.7641 76,-29 80.6458,-25.3047 86.1155,-22.2097 91.6112,-19.6629"/>
<polygon fill="midnightblue" stroke="midnightblue" points="27.4513,-84.8298 25.7699,-95.2904 33.6076,-88.1615 27.4513,-84.8298"/>
</g>
<!-- Node3 -->
<g id="node3" class="node"><title>Node3</title>
<g id="a_node3"><a xlink:href="classid_compressor___none.html" target="_top" xlink:title="idCompressor_None">
<polygon fill="white" stroke="black" points="204,-190.5 204,-209.5 308,-209.5 308,-190.5 204,-190.5"/>
<text text-anchor="middle" x="256" y="-197.5" font-family="Arial" font-size="10.00">idCompressor_None</text>
</a>
</g>
</g>
<!-- Node2&#45;&gt;Node3 -->
<g id="edge2" class="edge"><title>Node2&#45;&gt;Node3</title>
<path fill="none" stroke="midnightblue" d="M170.863,-200C181.596,-200 193.023,-200 203.883,-200"/>
<polygon fill="midnightblue" stroke="midnightblue" points="170.826,-196.5 160.826,-200 170.826,-203.5 170.826,-196.5"/>
</g>
<!-- Node4 -->
<g id="node4" class="node"><title>Node4</title>
<g id="a_node4"><a xlink:href="classid_compressor___bit_stream.html" target="_top" xlink:title="idCompressor_BitStream">
<polygon fill="white" stroke="black" points="344.5,-209.5 344.5,-228.5 469.5,-228.5 469.5,-209.5 344.5,-209.5"/>
<text text-anchor="middle" x="407" y="-216.5" font-family="Arial" font-size="10.00">idCompressor_BitStream</text>
</a>
</g>
</g>
<!-- Node3&#45;&gt;Node4 -->
<g id="edge3" class="edge"><title>Node3&#45;&gt;Node4</title>
<path fill="none" stroke="midnightblue" d="M318.249,-207.81C326.863,-208.909 335.722,-210.038 344.344,-211.138"/>
<polygon fill="midnightblue" stroke="midnightblue" points="318.64,-204.332 308.277,-206.539 317.754,-211.276 318.64,-204.332"/>
</g>
<!-- Node11 -->
<g id="node11" class="node"><title>Node11</title>
<g id="a_node11"><a xlink:href="classid_compressor___huffman.html" target="_top" xlink:title="idCompressor_Huffman">
<polygon fill="white" stroke="black" points="348.5,-171.5 348.5,-190.5 465.5,-190.5 465.5,-171.5 348.5,-171.5"/>
<text text-anchor="middle" x="407" y="-178.5" font-family="Arial" font-size="10.00">idCompressor_Huffman</text>
</a>
</g>
</g>
<!-- Node3&#45;&gt;Node11 -->
<g id="edge10" class="edge"><title>Node3&#45;&gt;Node11</title>
<path fill="none" stroke="midnightblue" d="M318.481,-192.16C328.413,-190.894 338.663,-189.587 348.496,-188.333"/>
<polygon fill="midnightblue" stroke="midnightblue" points="317.754,-188.724 308.277,-193.461 318.64,-195.668 317.754,-188.724"/>
</g>
<!-- Node5 -->
<g id="node5" class="node"><title>Node5</title>
<g id="a_node5"><a xlink:href="classid_compressor___arithmetic.html" target="_top" xlink:title="idCompressor_Arithmetic">
<polygon fill="white" stroke="black" points="507,-285.5 507,-304.5 633,-304.5 633,-285.5 507,-285.5"/>
<text text-anchor="middle" x="570" y="-292.5" font-family="Arial" font-size="10.00">idCompressor_Arithmetic</text>
</a>
</g>
</g>
<!-- Node4&#45;&gt;Node5 -->
<g id="edge4" class="edge"><title>Node4&#45;&gt;Node5</title>
<path fill="none" stroke="midnightblue" d="M430.482,-234.121C449.848,-246.639 478.883,-264.219 506,-276 514.278,-279.596 523.446,-282.782 532.167,-285.469"/>
<polygon fill="midnightblue" stroke="midnightblue" points="432.337,-231.152 422.055,-228.598 428.5,-237.006 432.337,-231.152"/>
</g>
<!-- Node6 -->
<g id="node6" class="node"><title>Node6</title>
<g id="a_node6"><a xlink:href="classid_compressor___l_z_s_s.html" target="_top" xlink:title="idCompressor_LZSS">
<polygon fill="white" stroke="black" points="517,-247.5 517,-266.5 623,-266.5 623,-247.5 517,-247.5"/>
<text text-anchor="middle" x="570" y="-254.5" font-family="Arial" font-size="10.00">idCompressor_LZSS</text>
</a>
</g>
</g>
<!-- Node4&#45;&gt;Node6 -->
<g id="edge5" class="edge"><title>Node4&#45;&gt;Node6</title>
<path fill="none" stroke="midnightblue" d="M458.402,-230.896C481.032,-236.237 507.37,-242.454 528.665,-247.48"/>
<polygon fill="midnightblue" stroke="midnightblue" points="459.164,-227.48 448.627,-228.589 457.556,-234.293 459.164,-227.48"/>
</g>
<!-- Node8 -->
<g id="node8" class="node"><title>Node8</title>
<g id="a_node8"><a xlink:href="classid_compressor___l_z_w.html" target="_top" xlink:title="idCompressor_LZW">
<polygon fill="white" stroke="black" points="519,-209.5 519,-228.5 621,-228.5 621,-209.5 519,-209.5"/>
<text text-anchor="middle" x="570" y="-216.5" font-family="Arial" font-size="10.00">idCompressor_LZW</text>
</a>
</g>
</g>
<!-- Node4&#45;&gt;Node8 -->
<g id="edge7" class="edge"><title>Node4&#45;&gt;Node8</title>
<path fill="none" stroke="midnightblue" d="M480.172,-219C493.235,-219 506.593,-219 518.852,-219"/>
<polygon fill="midnightblue" stroke="midnightblue" points="479.786,-215.5 469.786,-219 479.786,-222.5 479.786,-215.5"/>
</g>
<!-- Node9 -->
<g id="node9" class="node"><title>Node9</title>
<g id="a_node9"><a xlink:href="classid_compressor___run_length.html" target="_top" xlink:title="idCompressor_RunLength">
<polygon fill="white" stroke="black" points="506,-171.5 506,-190.5 634,-190.5 634,-171.5 506,-171.5"/>
<text text-anchor="middle" x="570" y="-178.5" font-family="Arial" font-size="10.00">idCompressor_RunLength</text>
</a>
</g>
</g>
<!-- Node4&#45;&gt;Node9 -->
<g id="edge8" class="edge"><title>Node4&#45;&gt;Node9</title>
<path fill="none" stroke="midnightblue" d="M458.402,-207.104C481.032,-201.763 507.37,-195.546 528.665,-190.52"/>
<polygon fill="midnightblue" stroke="midnightblue" points="457.556,-203.707 448.627,-209.411 459.164,-210.52 457.556,-203.707"/>
</g>
<!-- Node10 -->
<g id="node10" class="node"><title>Node10</title>
<g id="a_node10"><a xlink:href="classid_compressor___run_length___zero_based.html" target="_top" xlink:title="idCompressor_RunLength\l_ZeroBased">
<polygon fill="white" stroke="black" points="506,-122 506,-152 634,-152 634,-122 506,-122"/>
<text text-anchor="start" x="514" y="-140" font-family="Arial" font-size="10.00">idCompressor_RunLength</text>
<text text-anchor="middle" x="570" y="-129" font-family="Arial" font-size="10.00">_ZeroBased</text>
</a>
</g>
</g>
<!-- Node4&#45;&gt;Node10 -->
<g id="edge9" class="edge"><title>Node4&#45;&gt;Node10</title>
<path fill="none" stroke="midnightblue" d="M459.179,-205.688C462.946,-203.998 466.599,-202.108 470,-200 489.774,-187.743 486.735,-175.042 506,-162 511.554,-158.24 517.758,-154.915 524.048,-152.018"/>
<polygon fill="midnightblue" stroke="midnightblue" points="457.642,-202.533 449.652,-209.491 460.237,-209.034 457.642,-202.533"/>
</g>
<!-- Node7 -->
<g id="node7" class="node"><title>Node7</title>
<g id="a_node7"><a xlink:href="classid_compressor___l_z_s_s___word_aligned.html" target="_top" xlink:title="idCompressor_LZSS_WordAligned">
<polygon fill="white" stroke="black" points="670.5,-247.5 670.5,-266.5 837.5,-266.5 837.5,-247.5 670.5,-247.5"/>
<text text-anchor="middle" x="754" y="-254.5" font-family="Arial" font-size="10.00">idCompressor_LZSS_WordAligned</text>
</a>
</g>
</g>
<!-- Node6&#45;&gt;Node7 -->
<g id="edge6" class="edge"><title>Node6&#45;&gt;Node7</title>
<path fill="none" stroke="midnightblue" d="M633.382,-257C645.26,-257 657.863,-257 670.259,-257"/>
<polygon fill="midnightblue" stroke="midnightblue" points="633.154,-253.5 623.154,-257 633.154,-260.5 633.154,-253.5"/>
</g>
</g>
</svg>
        <g id="navigator" transform="translate(0 0)" fill="#404254">
                <rect fill="#f2f5e9" fill-opacity="0.5" stroke="#606060" stroke-width=".5" x="0" y="0" width="60" height="60"/>
                <use id="zoomplus" xlink:href="#zoomPlus" x="17" y="9" onmousedown="handleZoom(evt,'in')"/>
                <use id="zoomminus" xlink:href="#zoomMin" x="42" y="9" onmousedown="handleZoom(evt,'out')"/>
                <use id="reset" xlink:href="#resetDef" x="30" y="36" onmousedown="handleReset()"/>
                <g id="arrowUp" xlink:href="#dirArrow" transform="translate(30 24)" onmousedown="handlePan(0,-1)">
                  <use xlink:href="#rim" fill="#404040">
                        <set attributeName="fill" to="#808080" begin="arrowUp.mouseover" end="arrowUp.mouseout"/>
                  </use>
                  <path fill="none" stroke="white" stroke-width="1.5" d="M0,-3.0v7 M-2.5,-0.5L0,-3.0L2.5,-0.5"/>
                </g>
                <g id="arrowRight" xlink:href="#dirArrow" transform="rotate(90) translate(36 -43)" onmousedown="handlePan(1,0)">
                  <use xlink:href="#rim" fill="#404040">
                        <set attributeName="fill" to="#808080" begin="arrowRight.mouseover" end="arrowRight.mouseout"/>
                  </use>
                  <path fill="none" stroke="white" stroke-width="1.5" d="M0,-3.0v7 M-2.5,-0.5L0,-3.0L2.5,-0.5"/>
                </g>
                <g id="arrowDown" xlink:href="#dirArrow" transform="rotate(180) translate(-30 -48)" onmousedown="handlePan(0,1)">
                  <use xlink:href="#rim" fill="#404040">
                        <set attributeName="fill" to="#808080" begin="arrowDown.mouseover" end="arrowDown.mouseout"/>
                  </use>
                  <path fill="none" stroke="white" stroke-width="1.5" d="M0,-3.0v7 M-2.5,-0.5L0,-3.0L2.5,-0.5"/>
                </g>
                <g id="arrowLeft" xlink:href="#dirArrow" transform="rotate(270) translate(-36 17)" onmousedown="handlePan(-1,0)">
                  <use xlink:href="#rim" fill="#404040">
                        <set attributeName="fill" to="#808080" begin="arrowLeft.mouseover" end="arrowLeft.mouseout"/>
                  </use>
                  <path fill="none" stroke="white" stroke-width="1.5" d="M0,-3.0v7 M-2.5,-0.5L0,-3.0L2.5,-0.5"/>
                </g>
        </g>
        <svg viewBox="0 0 15 15" width="100%" height="30px" preserveAspectRatio="xMaxYMin meet">
         <g id="arrow_out" transform="scale(0.3 0.3)">
          <a xlink:href="classid_file__inherit__graph_org.svg" target="_base">
           <rect id="button" ry="5" rx="5" y="6" x="6" height="38" width="38"
                fill="#f2f5e9" fill-opacity="0.5" stroke="#606060" stroke-width="1.0"/>
           <path id="arrow"
             d="M 11.500037,31.436501 C 11.940474,20.09759 22.043105,11.32322 32.158766,21.979434 L 37.068811,17.246167 C 37.068811,17.246167 37.088388,32 37.088388,32 L 22.160133,31.978069 C 22.160133,31.978069 26.997745,27.140456 26.997745,27.140456 C 18.528582,18.264221 13.291696,25.230495 11.500037,31.436501 z"
             style="fill:#404040;"/>
          </a>
         </g>
        </svg>
</svg>
