<?xml version="1.0" encoding="UTF-8" standalone="no"?>
<!DOCTYPE svg PUBLIC "-//W3C//DTD SVG 1.1//EN"
 "http://www.w3.org/Graphics/SVG/1.1/DTD/svg11.dtd">
<!-- Generated by graphviz version 2.34.0 (20130907.0111)
 -->
<!-- Title: idReachability_Walk Pages: 1 -->
<svg width="153pt" height="166pt"
 viewBox="0.00 0.00 153.00 166.00" xmlns="http://www.w3.org/2000/svg" xmlns:xlink="http://www.w3.org/1999/xlink">
<g id="graph0" class="graph" transform="scale(1 1) rotate(0) translate(4 162)">
<title>idReachability_Walk</title>
<polygon fill="white" stroke="white" points="-4,4 -4,-162 149,-162 149,4 -4,4"/>
<!-- Node1 -->
<g id="node1" class="node"><title>Node1</title>
<polygon fill="#bfbfbf" stroke="black" points="-0.5,-0.5 -0.5,-19.5 104.5,-19.5 104.5,-0.5 -0.5,-0.5"/>
<text text-anchor="middle" x="52" y="-7.5" font-family="Arial" font-size="10.00">idReachability_Walk</text>
</g>
<!-- Node2 -->
<g id="node2" class="node"><title>Node2</title>
<g id="a_node2"><a xlink:href="classid_reachability.html" target="_top" xlink:title="idReachability">
<polygon fill="white" stroke="black" points="13.5,-59.5 13.5,-78.5 90.5,-78.5 90.5,-59.5 13.5,-59.5"/>
<text text-anchor="middle" x="52" y="-66.5" font-family="Arial" font-size="10.00">idReachability</text>
</a>
</g>
</g>
<!-- Node2&#45;&gt;Node1 -->
<g id="edge1" class="edge"><title>Node2&#45;&gt;Node1</title>
<path fill="none" stroke="midnightblue" d="M52,-48.9331C52,-39.0243 52,-27.4007 52,-19.6571"/>
<polygon fill="midnightblue" stroke="midnightblue" points="48.5001,-49.0937 52,-59.0938 55.5001,-49.0938 48.5001,-49.0937"/>
</g>
<!-- Node2&#45;&gt;Node2 -->
<g id="edge2" class="edge"><title>Node2&#45;&gt;Node2</title>
<path fill="none" stroke="#9a32cd" stroke-dasharray="5,2" d="M100.872,-73.4488C105.251,-72.5182 108,-71.0352 108,-69 108,-65.6602 100.597,-63.8076 90.7352,-63.4423"/>
<polygon fill="#9a32cd" stroke="#9a32cd" points="100.295,-69.9909 90.7352,-74.5577 101.057,-76.9494 100.295,-69.9909"/>
<text text-anchor="middle" x="126.5" y="-72" font-family="Arial" font-size="10.00"> next</text>
<text text-anchor="middle" x="126.5" y="-61" font-family="Arial" font-size="10.00">rev_next</text>
</g>
<!-- Node3 -->
<g id="node3" class="node"><title>Node3</title>
<g id="a_node3"><a xlink:href="classid_vec3.html" target="_top" xlink:title="idVec3">
<polygon fill="white" stroke="black" points="28.5,-138.5 28.5,-157.5 75.5,-157.5 75.5,-138.5 28.5,-138.5"/>
<text text-anchor="middle" x="52" y="-145.5" font-family="Arial" font-size="10.00">idVec3</text>
</a>
</g>
</g>
<!-- Node3&#45;&gt;Node2 -->
<g id="edge3" class="edge"><title>Node3&#45;&gt;Node2</title>
<path fill="none" stroke="#9a32cd" stroke-dasharray="5,2" d="M52,-128.315C52,-112.592 52,-90.8079 52,-78.8094"/>
<polygon fill="#9a32cd" stroke="#9a32cd" points="48.5001,-128.465 52,-138.465 55.5001,-128.465 48.5001,-128.465"/>
<text text-anchor="middle" x="62" y="-112" font-family="Arial" font-size="10.00"> end</text>
<text text-anchor="middle" x="62" y="-101" font-family="Arial" font-size="10.00">start</text>
</g>
</g>
</svg>
