<?xml version="1.0" encoding="UTF-8" standalone="no"?>
<!DOCTYPE svg PUBLIC "-//W3C//DTD SVG 1.1//EN"
 "http://www.w3.org/Graphics/SVG/1.1/DTD/svg11.dtd">
<!-- Generated by graphviz version 2.34.0 (20130907.0111)
 -->
<!-- Title: DialogAFView Pages: 1 -->
<svg width="132pt" height="96pt"
 viewBox="0.00 0.00 132.00 96.00" xmlns="http://www.w3.org/2000/svg" xmlns:xlink="http://www.w3.org/1999/xlink">
<g id="graph0" class="graph" transform="scale(1 1) rotate(0) translate(4 92)">
<title>DialogAFView</title>
<polygon fill="white" stroke="white" points="-4,4 -4,-92 128,-92 128,4 -4,4"/>
<!-- Node1 -->
<g id="node1" class="node"><title>Node1</title>
<polygon fill="#bfbfbf" stroke="black" points="21.5,-0.5 21.5,-19.5 98.5,-19.5 98.5,-0.5 21.5,-0.5"/>
<text text-anchor="middle" x="60" y="-7.5" font-family="Arial" font-size="10.00">DialogAFView</text>
</g>
<!-- Node2 -->
<g id="node2" class="node"><title>Node2</title>
<polygon fill="white" stroke="#bfbfbf" points="0,-68.5 0,-87.5 50,-87.5 50,-68.5 0,-68.5"/>
<text text-anchor="middle" x="25" y="-75.5" font-family="Arial" font-size="10.00">CDialog</text>
</g>
<!-- Node2&#45;&gt;Node1 -->
<g id="edge1" class="edge"><title>Node2&#45;&gt;Node1</title>
<path fill="none" stroke="midnightblue" d="M34.4469,-59.1859C41.1995,-46.4523 49.9981,-29.8607 55.3115,-19.8411"/>
<polygon fill="midnightblue" stroke="midnightblue" points="31.1686,-57.8972 29.5756,-68.3717 37.3528,-61.1768 31.1686,-57.8972"/>
</g>
<!-- Node3 -->
<g id="node3" class="node"><title>Node3</title>
<g id="a_node3"><a xlink:href="structtool_tip__s.html" target="_top" xlink:title="toolTip_s">
<polygon fill="white" stroke="black" points="68,-68.5 68,-87.5 124,-87.5 124,-68.5 68,-68.5"/>
<text text-anchor="middle" x="96" y="-75.5" font-family="Arial" font-size="10.00">toolTip_s</text>
</a>
</g>
</g>
<!-- Node3&#45;&gt;Node1 -->
<g id="edge2" class="edge"><title>Node3&#45;&gt;Node1</title>
<path fill="none" stroke="#9a32cd" stroke-dasharray="5,2" d="M86.4889,-59.563C79.5172,-46.7815 70.3418,-29.9599 64.8224,-19.8411"/>
<polygon fill="#9a32cd" stroke="#9a32cd" points="83.4324,-61.2687 91.2936,-68.3717 89.5777,-57.9167 83.4324,-61.2687"/>
<text text-anchor="middle" x="99.5" y="-41.5" font-family="Arial" font-size="10.00"> toolTips</text>
</g>
</g>
</svg>
