<?xml version="1.0" encoding="UTF-8" standalone="no"?>
<!DOCTYPE svg PUBLIC "-//W3C//DTD SVG 1.1//EN"
 "http://www.w3.org/Graphics/SVG/1.1/DTD/svg11.dtd">
<!-- Generated by graphviz version 2.34.0 (20130907.0111)
 -->
<!-- Title: idDeclAF_Constraint Pages: 1 -->
<svg width="156pt" height="232pt"
 viewBox="0.00 0.00 156.00 232.00" xmlns="http://www.w3.org/2000/svg" xmlns:xlink="http://www.w3.org/1999/xlink">
<g id="graph0" class="graph" transform="scale(1 1) rotate(0) translate(4 228)">
<title>idDeclAF_Constraint</title>
<polygon fill="white" stroke="white" points="-4,4 -4,-228 152,-228 152,4 -4,4"/>
<!-- Node1 -->
<g id="node1" class="node"><title>Node1</title>
<polygon fill="#bfbfbf" stroke="black" points="0,-0.5 0,-19.5 106,-19.5 106,-0.5 0,-0.5"/>
<text text-anchor="middle" x="53" y="-7.5" font-family="Arial" font-size="10.00">idDeclAF_Constraint</text>
</g>
<!-- Node2 -->
<g id="node2" class="node"><title>Node2</title>
<g id="a_node2"><a xlink:href="classid_str.html" target="_top" xlink:title="idStr">
<polygon fill="white" stroke="black" points="46.5,-204.5 46.5,-223.5 83.5,-223.5 83.5,-204.5 46.5,-204.5"/>
<text text-anchor="middle" x="65" y="-211.5" font-family="Arial" font-size="10.00">idStr</text>
</a>
</g>
</g>
<!-- Node2&#45;&gt;Node1 -->
<g id="edge1" class="edge"><title>Node2&#45;&gt;Node1</title>
<path fill="none" stroke="#9a32cd" stroke-dasharray="5,2" d="M58.3278,-194.702C53.8439,-181.397 48.3417,-162.84 46,-146 39.4062,-98.5795 47.7663,-41.0091 51.4347,-19.5777"/>
<polygon fill="#9a32cd" stroke="#9a32cd" points="55.149,-196.214 61.7631,-204.49 61.7541,-193.896 55.149,-196.214"/>
<text text-anchor="middle" x="60" y="-137.5" font-family="Arial" font-size="10.00"> name</text>
<text text-anchor="middle" x="60" y="-126.5" font-family="Arial" font-size="10.00">body1</text>
<text text-anchor="middle" x="60" y="-115.5" font-family="Arial" font-size="10.00">body2</text>
</g>
<!-- Node3 -->
<g id="node3" class="node"><title>Node3</title>
<g id="a_node3"><a xlink:href="classid_a_f_vector.html" target="_top" xlink:title="idAFVector">
<polygon fill="white" stroke="black" points="83.5,-119.5 83.5,-138.5 148.5,-138.5 148.5,-119.5 83.5,-119.5"/>
<text text-anchor="middle" x="116" y="-126.5" font-family="Arial" font-size="10.00">idAFVector</text>
</a>
</g>
</g>
<!-- Node2&#45;&gt;Node3 -->
<g id="edge3" class="edge"><title>Node2&#45;&gt;Node3</title>
<path fill="none" stroke="#9a32cd" stroke-dasharray="5,2" d="M75.573,-195.793C86.2815,-178.365 102.41,-152.117 110.686,-138.648"/>
<polygon fill="#9a32cd" stroke="#9a32cd" points="72.5191,-194.078 70.2658,-204.43 78.4831,-197.742 72.5191,-194.078"/>
<text text-anchor="middle" x="108.5" y="-178" font-family="Arial" font-size="10.00"> joint1</text>
<text text-anchor="middle" x="108.5" y="-167" font-family="Arial" font-size="10.00">joint2</text>
</g>
<!-- Node3&#45;&gt;Node1 -->
<g id="edge2" class="edge"><title>Node3&#45;&gt;Node1</title>
<path fill="none" stroke="#9a32cd" stroke-dasharray="5,2" d="M106.435,-110.236C92.6864,-84.7032 67.8674,-38.6108 57.619,-19.5781"/>
<polygon fill="#9a32cd" stroke="#9a32cd" points="103.442,-112.061 111.265,-119.206 109.605,-108.742 103.442,-112.061"/>
<text text-anchor="middle" x="116" y="-85.5" font-family="Arial" font-size="10.00"> shaft</text>
<text text-anchor="middle" x="116" y="-74.5" font-family="Arial" font-size="10.00">anchor2</text>
<text text-anchor="middle" x="116" y="-63.5" font-family="Arial" font-size="10.00">anchor</text>
<text text-anchor="middle" x="116" y="-52.5" font-family="Arial" font-size="10.00">limitAxis</text>
<text text-anchor="middle" x="116" y="-41.5" font-family="Arial" font-size="10.00">axis</text>
</g>
</g>
</svg>
