<?xml version="1.0" encoding="UTF-8" standalone="no"?>
<!DOCTYPE svg PUBLIC "-//W3C//DTD SVG 1.1//EN"
 "http://www.w3.org/Graphics/SVG/1.1/DTD/svg11.dtd">
<!-- Generated by graphviz version 2.34.0 (20130907.0111)
 -->
<!-- Title: rvRollupPanel Pages: 1 -->
<svg width="215pt" height="96pt"
 viewBox="0.00 0.00 215.00 96.00" xmlns="http://www.w3.org/2000/svg" xmlns:xlink="http://www.w3.org/1999/xlink">
<g id="graph0" class="graph" transform="scale(1 1) rotate(0) translate(4 92)">
<title>rvRollupPanel</title>
<polygon fill="white" stroke="white" points="-4,4 -4,-92 211,-92 211,4 -4,4"/>
<!-- Node1 -->
<g id="node1" class="node"><title>Node1</title>
<polygon fill="#bfbfbf" stroke="black" points="62.5,-0.5 62.5,-19.5 137.5,-19.5 137.5,-0.5 62.5,-0.5"/>
<text text-anchor="middle" x="100" y="-7.5" font-family="Arial" font-size="10.00">rvRollupPanel</text>
</g>
<!-- Node2 -->
<g id="node2" class="node"><title>Node2</title>
<g id="a_node2"><a xlink:href="classid_list.html" target="_top" xlink:title="idList\&lt; HWND \&gt;">
<polygon fill="white" stroke="black" points="0,-68.5 0,-87.5 88,-87.5 88,-68.5 0,-68.5"/>
<text text-anchor="middle" x="44" y="-75.5" font-family="Arial" font-size="10.00">idList&lt; HWND &gt;</text>
</a>
</g>
</g>
<!-- Node2&#45;&gt;Node1 -->
<g id="edge1" class="edge"><title>Node2&#45;&gt;Node1</title>
<path fill="none" stroke="#9a32cd" stroke-dasharray="5,2" d="M57.8473,-60.68C68.7955,-47.7768 83.6603,-30.2575 92.4984,-19.8411"/>
<polygon fill="#9a32cd" stroke="#9a32cd" points="55.122,-58.4821 51.321,-68.3717 60.4596,-63.011 55.122,-58.4821"/>
<text text-anchor="middle" x="100" y="-41.5" font-family="Arial" font-size="10.00"> mDialogs</text>
</g>
<!-- Node3 -->
<g id="node3" class="node"><title>Node3</title>
<g id="a_node3"><a xlink:href="classid_list.html" target="_top" xlink:title="idList\&lt; RPITEM * \&gt;">
<polygon fill="white" stroke="black" points="106.5,-68.5 106.5,-87.5 207.5,-87.5 207.5,-68.5 106.5,-68.5"/>
<text text-anchor="middle" x="157" y="-75.5" font-family="Arial" font-size="10.00">idList&lt; RPITEM * &gt;</text>
</a>
</g>
</g>
<!-- Node3&#45;&gt;Node1 -->
<g id="edge2" class="edge"><title>Node3&#45;&gt;Node1</title>
<path fill="none" stroke="#9a32cd" stroke-dasharray="5,2" d="M144.32,-60.339C138.834,-53.3193 132.249,-45.1383 126,-38 120.513,-31.7326 114.013,-24.9826 108.885,-19.7995"/>
<polygon fill="#9a32cd" stroke="#9a32cd" points="141.693,-62.6643 150.573,-68.4437 147.236,-58.3883 141.693,-62.6643"/>
<text text-anchor="middle" x="154" y="-41.5" font-family="Arial" font-size="10.00"> mItems</text>
</g>
</g>
</svg>
