<?xml version="1.0" encoding="UTF-8" standalone="no"?>
<!DOCTYPE svg PUBLIC "-//W3C//DTD SVG 1.1//EN"
 "http://www.w3.org/Graphics/SVG/1.1/DTD/svg11.dtd">
<!-- Generated by graphviz version 2.34.0 (20130907.0111)
 -->
<!-- Title: idPDAItem Pages: 1 -->
<svg width="70pt" height="196pt"
 viewBox="0.00 0.00 70.00 196.00" xmlns="http://www.w3.org/2000/svg" xmlns:xlink="http://www.w3.org/1999/xlink">
<g id="graph0" class="graph" transform="scale(1 1) rotate(0) translate(4 192)">
<title>idPDAItem</title>
<polygon fill="white" stroke="white" points="-4,4 -4,-192 66,-192 66,4 -4,4"/>
<!-- Node1 -->
<g id="node1" class="node"><title>Node1</title>
<polygon fill="#bfbfbf" stroke="black" points="-0.5,-0.5 -0.5,-19.5 62.5,-19.5 62.5,-0.5 -0.5,-0.5"/>
<text text-anchor="middle" x="31" y="-7.5" font-family="Arial" font-size="10.00">idPDAItem</text>
</g>
<!-- Node2 -->
<g id="node2" class="node"><title>Node2</title>
<g id="a_node2"><a xlink:href="classid_item.html" target="_top" xlink:title="idItem">
<polygon fill="white" stroke="black" points="9.5,-56.5 9.5,-75.5 52.5,-75.5 52.5,-56.5 9.5,-56.5"/>
<text text-anchor="middle" x="31" y="-63.5" font-family="Arial" font-size="10.00">idItem</text>
</a>
</g>
</g>
<!-- Node2&#45;&gt;Node1 -->
<g id="edge1" class="edge"><title>Node2&#45;&gt;Node1</title>
<path fill="none" stroke="midnightblue" d="M24.5276,-46.1005C23.8956,-37.1357 24.3427,-26.8579 25.869,-19.7511"/>
<polygon fill="midnightblue" stroke="midnightblue" points="21.0658,-46.6216 25.8337,-56.083 28.0067,-45.7134 21.0658,-46.6216"/>
</g>
<!-- Node2&#45;&gt;Node1 -->
<g id="edge6" class="edge"><title>Node2&#45;&gt;Node1</title>
<path fill="none" stroke="midnightblue" d="M37.4724,-46.1005C38.1044,-37.1357 37.6573,-26.8579 36.131,-19.7511"/>
<polygon fill="midnightblue" stroke="midnightblue" points="33.9933,-45.7134 36.1663,-56.083 40.9342,-46.6216 33.9933,-45.7134"/>
</g>
<!-- Node3 -->
<g id="node3" class="node"><title>Node3</title>
<g id="a_node3"><a xlink:href="classid_entity.html" target="_top" xlink:title="idEntity">
<polygon fill="white" stroke="black" points="6,-112.5 6,-131.5 56,-131.5 56,-112.5 6,-112.5"/>
<text text-anchor="middle" x="31" y="-119.5" font-family="Arial" font-size="10.00">idEntity</text>
</a>
</g>
</g>
<!-- Node3&#45;&gt;Node2 -->
<g id="edge2" class="edge"><title>Node3&#45;&gt;Node2</title>
<path fill="none" stroke="midnightblue" d="M24.5276,-102.101C23.8956,-93.1357 24.3427,-82.8579 25.869,-75.7511"/>
<polygon fill="midnightblue" stroke="midnightblue" points="21.0658,-102.622 25.8337,-112.083 28.0067,-101.713 21.0658,-102.622"/>
</g>
<!-- Node3&#45;&gt;Node2 -->
<g id="edge5" class="edge"><title>Node3&#45;&gt;Node2</title>
<path fill="none" stroke="midnightblue" d="M37.4724,-102.101C38.1044,-93.1357 37.6573,-82.8579 36.131,-75.7511"/>
<polygon fill="midnightblue" stroke="midnightblue" points="33.9933,-101.713 36.1663,-112.083 40.9342,-102.622 33.9933,-101.713"/>
</g>
<!-- Node4 -->
<g id="node4" class="node"><title>Node4</title>
<g id="a_node4"><a xlink:href="classid_class.html" target="_top" xlink:title="idClass">
<polygon fill="white" stroke="black" points="6.5,-168.5 6.5,-187.5 55.5,-187.5 55.5,-168.5 6.5,-168.5"/>
<text text-anchor="middle" x="31" y="-175.5" font-family="Arial" font-size="10.00">idClass</text>
</a>
</g>
</g>
<!-- Node4&#45;&gt;Node3 -->
<g id="edge3" class="edge"><title>Node4&#45;&gt;Node3</title>
<path fill="none" stroke="midnightblue" d="M24.5276,-158.101C23.8956,-149.136 24.3427,-138.858 25.869,-131.751"/>
<polygon fill="midnightblue" stroke="midnightblue" points="21.0658,-158.622 25.8337,-168.083 28.0067,-157.713 21.0658,-158.622"/>
</g>
<!-- Node4&#45;&gt;Node3 -->
<g id="edge4" class="edge"><title>Node4&#45;&gt;Node3</title>
<path fill="none" stroke="midnightblue" d="M37.4724,-158.101C38.1044,-149.136 37.6573,-138.858 36.131,-131.751"/>
<polygon fill="midnightblue" stroke="midnightblue" points="33.9933,-157.713 36.1663,-168.083 40.9342,-158.622 33.9933,-157.713"/>
</g>
</g>
</svg>
