<?xml version="1.0" encoding="UTF-8" standalone="no"?>
<!DOCTYPE svg PUBLIC "-//W3C//DTD SVG 1.1//EN"
 "http://www.w3.org/Graphics/SVG/1.1/DTD/svg11.dtd">
<!-- Generated by graphviz version 2.34.0 (20130907.0111)
 -->
<!-- Title: idSoundSample Pages: 1 -->
<svg width="149pt" height="96pt"
 viewBox="0.00 0.00 149.00 96.00" xmlns="http://www.w3.org/2000/svg" xmlns:xlink="http://www.w3.org/1999/xlink">
<g id="graph0" class="graph" transform="scale(1 1) rotate(0) translate(4 92)">
<title>idSoundSample</title>
<polygon fill="white" stroke="white" points="-4,4 -4,-92 145,-92 145,4 -4,4"/>
<!-- Node1 -->
<g id="node1" class="node"><title>Node1</title>
<polygon fill="#bfbfbf" stroke="black" points="15.5,-0.5 15.5,-19.5 100.5,-19.5 100.5,-0.5 15.5,-0.5"/>
<text text-anchor="middle" x="58" y="-7.5" font-family="Arial" font-size="10.00">idSoundSample</text>
</g>
<!-- Node2 -->
<g id="node2" class="node"><title>Node2</title>
<g id="a_node2"><a xlink:href="classid_str.html" target="_top" xlink:title="idStr">
<polygon fill="white" stroke="black" points="-0.5,-68.5 -0.5,-87.5 36.5,-87.5 36.5,-68.5 -0.5,-68.5"/>
<text text-anchor="middle" x="18" y="-75.5" font-family="Arial" font-size="10.00">idStr</text>
</a>
</g>
</g>
<!-- Node2&#45;&gt;Node1 -->
<g id="edge1" class="edge"><title>Node2&#45;&gt;Node1</title>
<path fill="none" stroke="#9a32cd" stroke-dasharray="5,2" d="M28.5679,-59.563C36.3143,-46.7815 46.5091,-29.9599 52.6417,-19.8411"/>
<polygon fill="#9a32cd" stroke="#9a32cd" points="25.4192,-58.0056 23.2293,-68.3717 31.4056,-61.6337 25.4192,-58.0056"/>
<text text-anchor="middle" x="56" y="-41.5" font-family="Arial" font-size="10.00"> name</text>
</g>
<!-- Node3 -->
<g id="node3" class="node"><title>Node3</title>
<g id="a_node3"><a xlink:href="structwaveformatex__s.html" target="_top" xlink:title="waveformatex_s">
<polygon fill="white" stroke="black" points="55,-68.5 55,-87.5 141,-87.5 141,-68.5 55,-68.5"/>
<text text-anchor="middle" x="98" y="-75.5" font-family="Arial" font-size="10.00">waveformatex_s</text>
</a>
</g>
</g>
<!-- Node3&#45;&gt;Node1 -->
<g id="edge2" class="edge"><title>Node3&#45;&gt;Node1</title>
<path fill="none" stroke="#9a32cd" stroke-dasharray="5,2" d="M87.4321,-59.563C79.6857,-46.7815 69.4909,-29.9599 63.3583,-19.8411"/>
<polygon fill="#9a32cd" stroke="#9a32cd" points="84.5944,-61.6337 92.7707,-68.3717 90.5808,-58.0056 84.5944,-61.6337"/>
<text text-anchor="middle" x="104.5" y="-41.5" font-family="Arial" font-size="10.00"> objectInfo</text>
</g>
</g>
</svg>
