<?xml version="1.0" encoding="UTF-8" standalone="no"?>
<!DOCTYPE svg PUBLIC "-//W3C//DTD SVG 1.1//EN"
 "http://www.w3.org/Graphics/SVG/1.1/DTD/svg11.dtd">
<!-- Generated by graphviz version 2.34.0 (20130907.0111)
 -->
<!-- Title: DialogAFBody Pages: 1 -->
<svg width="334pt" height="300pt"
 viewBox="0.00 0.00 334.00 300.00" xmlns="http://www.w3.org/2000/svg" xmlns:xlink="http://www.w3.org/1999/xlink">
<g id="graph0" class="graph" transform="scale(1 1) rotate(0) translate(4 296)">
<title>DialogAFBody</title>
<polygon fill="white" stroke="white" points="-4,4 -4,-296 330,-296 330,4 -4,4"/>
<!-- Node1 -->
<g id="node1" class="node"><title>Node1</title>
<polygon fill="#bfbfbf" stroke="black" points="81.5,-0.5 81.5,-19.5 160.5,-19.5 160.5,-0.5 81.5,-0.5"/>
<text text-anchor="middle" x="121" y="-7.5" font-family="Arial" font-size="10.00">DialogAFBody</text>
</g>
<!-- Node2 -->
<g id="node2" class="node"><title>Node2</title>
<polygon fill="white" stroke="#bfbfbf" points="11,-68.5 11,-87.5 61,-87.5 61,-68.5 11,-68.5"/>
<text text-anchor="middle" x="36" y="-75.5" font-family="Arial" font-size="10.00">CDialog</text>
</g>
<!-- Node2&#45;&gt;Node1 -->
<g id="edge1" class="edge"><title>Node2&#45;&gt;Node1</title>
<path fill="none" stroke="midnightblue" d="M55.1944,-62.0961C72.0591,-49.0012 96.0116,-30.4028 109.885,-19.6305"/>
<polygon fill="midnightblue" stroke="midnightblue" points="52.8643,-59.4742 47.1123,-68.3717 57.1574,-65.0031 52.8643,-59.4742"/>
</g>
<!-- Node3 -->
<g id="node3" class="node"><title>Node3</title>
<g id="a_node3"><a xlink:href="classid_decl_a_f___body.html" target="_top" xlink:title="idDeclAF_Body">
<polygon fill="white" stroke="black" points="79,-68.5 79,-87.5 163,-87.5 163,-68.5 79,-68.5"/>
<text text-anchor="middle" x="121" y="-75.5" font-family="Arial" font-size="10.00">idDeclAF_Body</text>
</a>
</g>
</g>
<!-- Node3&#45;&gt;Node1 -->
<g id="edge2" class="edge"><title>Node3&#45;&gt;Node1</title>
<path fill="none" stroke="#9a32cd" stroke-dasharray="5,2" d="M121,-58.0413C121,-45.4724 121,-29.5631 121,-19.8411"/>
<polygon fill="#9a32cd" stroke="#9a32cd" points="117.5,-58.3716 121,-68.3717 124.5,-58.3717 117.5,-58.3716"/>
<text text-anchor="middle" x="133.5" y="-41.5" font-family="Arial" font-size="10.00"> body</text>
</g>
<!-- Node4 -->
<g id="node4" class="node"><title>Node4</title>
<g id="a_node4"><a xlink:href="classid_mat3.html" target="_top" xlink:title="idMat3">
<polygon fill="white" stroke="black" points="0,-187.5 0,-206.5 46,-206.5 46,-187.5 0,-187.5"/>
<text text-anchor="middle" x="23" y="-194.5" font-family="Arial" font-size="10.00">idMat3</text>
</a>
</g>
</g>
<!-- Node4&#45;&gt;Node3 -->
<g id="edge3" class="edge"><title>Node4&#45;&gt;Node3</title>
<path fill="none" stroke="#9a32cd" stroke-dasharray="5,2" d="M17.3674,-177.853C12.4344,-158.065 8.25406,-126.49 24,-106 27.7413,-101.131 56.5935,-93.4742 81.8666,-87.5557"/>
<polygon fill="#9a32cd" stroke="#9a32cd" points="13.9983,-178.801 20.0637,-187.488 20.7393,-176.915 13.9983,-178.801"/>
<text text-anchor="middle" x="51.5" y="-131.5" font-family="Arial" font-size="10.00"> inertiaScale</text>
</g>
<!-- Node5 -->
<g id="node5" class="node"><title>Node5</title>
<g id="a_node5"><a xlink:href="classid_str.html" target="_top" xlink:title="idStr">
<polygon fill="white" stroke="black" points="112.5,-272.5 112.5,-291.5 149.5,-291.5 149.5,-272.5 112.5,-272.5"/>
<text text-anchor="middle" x="131" y="-279.5" font-family="Arial" font-size="10.00">idStr</text>
</a>
</g>
</g>
<!-- Node5&#45;&gt;Node3 -->
<g id="edge4" class="edge"><title>Node5&#45;&gt;Node3</title>
<path fill="none" stroke="#9a32cd" stroke-dasharray="5,2" d="M121.018,-263.416C114.155,-250.27 105.647,-231.605 102,-214 92.2067,-166.72 110.087,-109.066 117.754,-87.5951"/>
<polygon fill="#9a32cd" stroke="#9a32cd" points="117.988,-265.169 125.838,-272.283 124.138,-261.826 117.988,-265.169"/>
<text text-anchor="middle" x="137.5" y="-205.5" font-family="Arial" font-size="10.00"> containedJoints</text>
<text text-anchor="middle" x="137.5" y="-194.5" font-family="Arial" font-size="10.00">jointName</text>
<text text-anchor="middle" x="137.5" y="-183.5" font-family="Arial" font-size="10.00">name</text>
</g>
<!-- Node6 -->
<g id="node6" class="node"><title>Node6</title>
<g id="a_node6"><a xlink:href="classid_a_f_vector.html" target="_top" xlink:title="idAFVector">
<polygon fill="white" stroke="black" points="182.5,-187.5 182.5,-206.5 247.5,-206.5 247.5,-187.5 182.5,-187.5"/>
<text text-anchor="middle" x="215" y="-194.5" font-family="Arial" font-size="10.00">idAFVector</text>
</a>
</g>
</g>
<!-- Node5&#45;&gt;Node6 -->
<g id="edge6" class="edge"><title>Node5&#45;&gt;Node6</title>
<path fill="none" stroke="#9a32cd" stroke-dasharray="5,2" d="M146.966,-265.224C164.566,-247.833 192.238,-220.491 206.248,-206.648"/>
<polygon fill="#9a32cd" stroke="#9a32cd" points="144.326,-262.912 139.673,-272.43 149.246,-267.891 144.326,-262.912"/>
<text text-anchor="middle" x="194.5" y="-246" font-family="Arial" font-size="10.00"> joint1</text>
<text text-anchor="middle" x="194.5" y="-235" font-family="Arial" font-size="10.00">joint2</text>
</g>
<!-- Node6&#45;&gt;Node3 -->
<g id="edge5" class="edge"><title>Node6&#45;&gt;Node3</title>
<path fill="none" stroke="#9a32cd" stroke-dasharray="5,2" d="M194.929,-180.87C188.209,-175.319 180.926,-168.736 175,-162 153.311,-137.348 133.927,-103.279 125.481,-87.5676"/>
<polygon fill="#9a32cd" stroke="#9a32cd" points="192.99,-183.8 202.996,-187.284 197.347,-178.321 192.99,-183.8"/>
<text text-anchor="middle" x="223" y="-153.5" font-family="Arial" font-size="10.00"> v2</text>
<text text-anchor="middle" x="223" y="-142.5" font-family="Arial" font-size="10.00">origin</text>
<text text-anchor="middle" x="223" y="-131.5" font-family="Arial" font-size="10.00">contactMotorDirection</text>
<text text-anchor="middle" x="223" y="-120.5" font-family="Arial" font-size="10.00">frictionDirection</text>
<text text-anchor="middle" x="223" y="-109.5" font-family="Arial" font-size="10.00">v1</text>
</g>
<!-- Node7 -->
<g id="node7" class="node"><title>Node7</title>
<g id="a_node7"><a xlink:href="classid_angles.html" target="_top" xlink:title="idAngles">
<polygon fill="white" stroke="black" points="266,-187.5 266,-206.5 320,-206.5 320,-187.5 266,-187.5"/>
<text text-anchor="middle" x="293" y="-194.5" font-family="Arial" font-size="10.00">idAngles</text>
</a>
</g>
</g>
<!-- Node7&#45;&gt;Node3 -->
<g id="edge7" class="edge"><title>Node7&#45;&gt;Node3</title>
<path fill="none" stroke="#9a32cd" stroke-dasharray="5,2" d="M293.968,-177.313C293.938,-156.788 290.479,-124.314 271,-106 270.5,-105.53 207.578,-94.3167 163.397,-86.4906"/>
<polygon fill="#9a32cd" stroke="#9a32cd" points="290.469,-177.235 293.712,-187.321 297.466,-177.414 290.469,-177.235"/>
<text text-anchor="middle" x="310" y="-131.5" font-family="Arial" font-size="10.00"> angles</text>
</g>
<!-- Node8 -->
<g id="node8" class="node"><title>Node8</title>
<g id="a_node8"><a xlink:href="structtool_tip__s.html" target="_top" xlink:title="toolTip_s">
<polygon fill="white" stroke="black" points="181,-68.5 181,-87.5 237,-87.5 237,-68.5 181,-68.5"/>
<text text-anchor="middle" x="209" y="-75.5" font-family="Arial" font-size="10.00">toolTip_s</text>
</a>
</g>
</g>
<!-- Node8&#45;&gt;Node1 -->
<g id="edge8" class="edge"><title>Node8&#45;&gt;Node1</title>
<path fill="none" stroke="#9a32cd" stroke-dasharray="5,2" d="M189.128,-62.0961C171.668,-49.0012 146.87,-30.4028 132.507,-19.6305"/>
<polygon fill="#9a32cd" stroke="#9a32cd" points="187.396,-65.1716 197.496,-68.3717 191.596,-59.5716 187.396,-65.1716"/>
<text text-anchor="middle" x="191.5" y="-41.5" font-family="Arial" font-size="10.00"> toolTips</text>
</g>
</g>
</svg>
