<?xml version="1.0" encoding="UTF-8" standalone="no"?>
<!DOCTYPE svg PUBLIC "-//W3C//DTD SVG 1.1//EN"
 "http://www.w3.org/Graphics/SVG/1.1/DTD/svg11.dtd">
<!-- Generated by graphviz version 2.34.0 (20130907.0111)
 -->
<!-- Title: idAllocError Pages: 1 -->
<svg width="76pt" height="84pt"
 viewBox="0.00 0.00 76.00 84.00" xmlns="http://www.w3.org/2000/svg" xmlns:xlink="http://www.w3.org/1999/xlink">
<g id="graph0" class="graph" transform="scale(1 1) rotate(0) translate(4 80)">
<title>idAllocError</title>
<polygon fill="white" stroke="white" points="-4,4 -4,-80 72,-80 72,4 -4,4"/>
<!-- Node1 -->
<g id="node1" class="node"><title>Node1</title>
<polygon fill="#bfbfbf" stroke="black" points="0.5,-0.5 0.5,-19.5 67.5,-19.5 67.5,-0.5 0.5,-0.5"/>
<text text-anchor="middle" x="34" y="-7.5" font-family="Arial" font-size="10.00">idAllocError</text>
</g>
<!-- Node2 -->
<g id="node2" class="node"><title>Node2</title>
<g id="a_node2"><a xlink:href="classid_exception.html" target="_top" xlink:title="idException">
<polygon fill="white" stroke="black" points="0,-56.5 0,-75.5 68,-75.5 68,-56.5 0,-56.5"/>
<text text-anchor="middle" x="34" y="-63.5" font-family="Arial" font-size="10.00">idException</text>
</a>
</g>
</g>
<!-- Node2&#45;&gt;Node1 -->
<g id="edge1" class="edge"><title>Node2&#45;&gt;Node1</title>
<path fill="none" stroke="midnightblue" d="M27.5276,-46.1005C26.8956,-37.1357 27.3427,-26.8579 28.869,-19.7511"/>
<polygon fill="midnightblue" stroke="midnightblue" points="24.0658,-46.6216 28.8337,-56.083 31.0067,-45.7134 24.0658,-46.6216"/>
</g>
<!-- Node2&#45;&gt;Node1 -->
<g id="edge2" class="edge"><title>Node2&#45;&gt;Node1</title>
<path fill="none" stroke="midnightblue" d="M40.4724,-46.1005C41.1044,-37.1357 40.6573,-26.8579 39.131,-19.7511"/>
<polygon fill="midnightblue" stroke="midnightblue" points="36.9933,-45.7134 39.1663,-56.083 43.9342,-46.6216 36.9933,-45.7134"/>
</g>
</g>
</svg>
