<?xml version="1.0" encoding="UTF-8" standalone="no"?>
<!DOCTYPE svg PUBLIC "-//W3C//DTD SVG 1.1//EN"
 "http://www.w3.org/Graphics/SVG/1.1/DTD/svg11.dtd">
<!-- Generated by graphviz version 2.34.0 (20130907.0111)
 -->
<!-- Title: idCurve_NURBS&lt; type &gt; Pages: 1 -->
<svg width="205pt" height="350pt"
 viewBox="0.00 0.00 205.00 350.00" xmlns="http://www.w3.org/2000/svg" xmlns:xlink="http://www.w3.org/1999/xlink">
<g id="graph0" class="graph" transform="scale(1 1) rotate(0) translate(4 346)">
<title>idCurve_NURBS&lt; type &gt;</title>
<polygon fill="white" stroke="white" points="-4,4 -4,-346 201,-346 201,4 -4,4"/>
<!-- Node1 -->
<g id="node1" class="node"><title>Node1</title>
<polygon fill="#bfbfbf" stroke="black" points="0,-0.5 0,-19.5 124,-19.5 124,-0.5 0,-0.5"/>
<text text-anchor="middle" x="62" y="-7.5" font-family="Arial" font-size="10.00">idCurve_NURBS&lt; type &gt;</text>
</g>
<!-- Node2 -->
<g id="node2" class="node"><title>Node2</title>
<g id="a_node2"><a xlink:href="classid_curve___non_uniform_b_spline.html" target="_top" xlink:title="idCurve_NonUniformBSpline\l\&lt; type \&gt;">
<polygon fill="white" stroke="black" points="60.5,-59 60.5,-89 197.5,-89 197.5,-59 60.5,-59"/>
<text text-anchor="start" x="68.5" y="-77" font-family="Arial" font-size="10.00">idCurve_NonUniformBSpline</text>
<text text-anchor="middle" x="129" y="-66" font-family="Arial" font-size="10.00">&lt; type &gt;</text>
</a>
</g>
</g>
<!-- Node2&#45;&gt;Node1 -->
<g id="edge1" class="edge"><title>Node2&#45;&gt;Node1</title>
<path fill="none" stroke="midnightblue" d="M106.365,-52.054C94.498,-41.0728 80.5916,-28.2041 71.555,-19.8419"/>
<polygon fill="midnightblue" stroke="midnightblue" points="104.08,-54.7082 113.797,-58.9312 108.834,-49.5704 104.08,-54.7082"/>
</g>
<!-- Node3 -->
<g id="node3" class="node"><title>Node3</title>
<g id="a_node3"><a xlink:href="classid_curve___b_spline.html" target="_top" xlink:title="idCurve_BSpline\&lt; type \&gt;">
<polygon fill="white" stroke="black" points="62,-128.5 62,-147.5 186,-147.5 186,-128.5 62,-128.5"/>
<text text-anchor="middle" x="124" y="-135.5" font-family="Arial" font-size="10.00">idCurve_BSpline&lt; type &gt;</text>
</a>
</g>
</g>
<!-- Node3&#45;&gt;Node2 -->
<g id="edge2" class="edge"><title>Node3&#45;&gt;Node2</title>
<path fill="none" stroke="midnightblue" d="M125.518,-118.183C126.267,-108.886 127.157,-97.8507 127.85,-89.263"/>
<polygon fill="midnightblue" stroke="midnightblue" points="122.01,-118.13 124.695,-128.379 128.988,-118.693 122.01,-118.13"/>
</g>
<!-- Node4 -->
<g id="node4" class="node"><title>Node4</title>
<g id="a_node4"><a xlink:href="classid_curve___spline.html" target="_top" xlink:title="idCurve_Spline\&lt; type \&gt;">
<polygon fill="white" stroke="black" points="61.5,-196.5 61.5,-215.5 178.5,-215.5 178.5,-196.5 61.5,-196.5"/>
<text text-anchor="middle" x="120" y="-203.5" font-family="Arial" font-size="10.00">idCurve_Spline&lt; type &gt;</text>
</a>
</g>
</g>
<!-- Node4&#45;&gt;Node3 -->
<g id="edge3" class="edge"><title>Node4&#45;&gt;Node3</title>
<path fill="none" stroke="midnightblue" d="M121.149,-186.041C121.911,-173.472 122.875,-157.563 123.464,-147.841"/>
<polygon fill="midnightblue" stroke="midnightblue" points="117.634,-186.178 120.523,-196.372 124.622,-186.602 117.634,-186.178"/>
</g>
<!-- Node5 -->
<g id="node5" class="node"><title>Node5</title>
<g id="a_node5"><a xlink:href="classid_curve.html" target="_top" xlink:title="idCurve\&lt; type \&gt;">
<polygon fill="white" stroke="black" points="64.5,-254.5 64.5,-273.5 149.5,-273.5 149.5,-254.5 64.5,-254.5"/>
<text text-anchor="middle" x="107" y="-261.5" font-family="Arial" font-size="10.00">idCurve&lt; type &gt;</text>
</a>
</g>
</g>
<!-- Node5&#45;&gt;Node4 -->
<g id="edge4" class="edge"><title>Node5&#45;&gt;Node4</title>
<path fill="none" stroke="midnightblue" d="M111.349,-244.268C113.608,-234.533 116.259,-223.113 118.026,-215.505"/>
<polygon fill="midnightblue" stroke="midnightblue" points="107.883,-243.718 109.031,-254.25 114.702,-245.301 107.883,-243.718"/>
</g>
<!-- Node6 -->
<g id="node6" class="node"><title>Node6</title>
<g id="a_node6"><a xlink:href="classid_list.html" target="_top" xlink:title="idList\&lt; float \&gt;">
<polygon fill="white" stroke="black" points="21,-322.5 21,-341.5 97,-341.5 97,-322.5 21,-322.5"/>
<text text-anchor="middle" x="59" y="-329.5" font-family="Arial" font-size="10.00">idList&lt; float &gt;</text>
</a>
</g>
</g>
<!-- Node6&#45;&gt;Node1 -->
<g id="edge6" class="edge"><title>Node6&#45;&gt;Node1</title>
<path fill="none" stroke="#9a32cd" stroke-dasharray="5,2" d="M47.6816,-313.808C40.289,-300.923 32,-282.56 32,-265 32,-265 32,-265 32,-73 32,-52.1935 45.8593,-31.0284 54.7378,-19.6042"/>
<polygon fill="#9a32cd" stroke="#9a32cd" points="44.7951,-315.796 53.0078,-322.49 50.7616,-312.136 44.7951,-315.796"/>
<text text-anchor="middle" x="50.5" y="-169.5" font-family="Arial" font-size="10.00"> weights</text>
</g>
<!-- Node6&#45;&gt;Node5 -->
<g id="edge5" class="edge"><title>Node6&#45;&gt;Node5</title>
<path fill="none" stroke="#9a32cd" stroke-dasharray="5,2" d="M71.4089,-313.938C80.7368,-301.112 93.1388,-284.059 100.57,-273.841"/>
<polygon fill="#9a32cd" stroke="#9a32cd" points="68.3263,-312.226 65.2752,-322.372 73.9875,-316.343 68.3263,-312.226"/>
<text text-anchor="middle" x="101" y="-295.5" font-family="Arial" font-size="10.00"> times</text>
</g>
</g>
</svg>
