<?xml version="1.0" encoding="UTF-8" standalone="no"?>
<!DOCTYPE svg PUBLIC "-//W3C//DTD SVG 1.1//EN"
 "http://www.w3.org/Graphics/SVG/1.1/DTD/svg11.dtd">
<!-- Generated by graphviz version 2.34.0 (20130907.0111)
 -->
<!-- Title: idCompiler Pages: 1 -->
<svg width="439pt" height="254pt"
 viewBox="0.00 0.00 439.00 254.00" xmlns="http://www.w3.org/2000/svg" xmlns:xlink="http://www.w3.org/1999/xlink">
<g id="graph0" class="graph" transform="scale(1 1) rotate(0) translate(4 250)">
<title>idCompiler</title>
<polygon fill="white" stroke="white" points="-4,4 -4,-250 435,-250 435,4 -4,4"/>
<!-- Node1 -->
<g id="node1" class="node"><title>Node1</title>
<polygon fill="#bfbfbf" stroke="black" points="0,-68.5 0,-87.5 62,-87.5 62,-68.5 0,-68.5"/>
<text text-anchor="middle" x="31" y="-75.5" font-family="Arial" font-size="10.00">idCompiler</text>
</g>
<!-- Node2 -->
<g id="node2" class="node"><title>Node2</title>
<g id="a_node2"><a xlink:href="structopcode__s.html" target="_top" xlink:title="opcode_s">
<polygon fill="white" stroke="black" points="4.5,-136.5 4.5,-155.5 63.5,-155.5 63.5,-136.5 4.5,-136.5"/>
<text text-anchor="middle" x="34" y="-143.5" font-family="Arial" font-size="10.00">opcode_s</text>
</a>
</g>
</g>
<!-- Node2&#45;&gt;Node1 -->
<g id="edge1" class="edge"><title>Node2&#45;&gt;Node1</title>
<path fill="none" stroke="#9a32cd" stroke-dasharray="5,2" d="M32.5025,-126.38C32.311,-123.573 32.1351,-120.711 32,-118 31.4809,-107.582 31.2245,-95.5853 31.1025,-87.6789"/>
<polygon fill="#9a32cd" stroke="#9a32cd" points="29.023,-126.785 33.2642,-136.494 36.0032,-126.26 29.023,-126.785"/>
<text text-anchor="middle" x="52" y="-109.5" font-family="Arial" font-size="10.00"> opcodes</text>
</g>
<!-- Node3 -->
<g id="node3" class="node"><title>Node3</title>
<g id="a_node3"><a xlink:href="classid_var_def.html" target="_top" xlink:title="idVarDef">
<polygon fill="white" stroke="black" points="173.5,-226.5 173.5,-245.5 226.5,-245.5 226.5,-226.5 173.5,-226.5"/>
<text text-anchor="middle" x="200" y="-233.5" font-family="Arial" font-size="10.00">idVarDef</text>
</a>
</g>
</g>
<!-- Node3&#45;&gt;Node2 -->
<g id="edge2" class="edge"><title>Node3&#45;&gt;Node2</title>
<path fill="none" stroke="#9a32cd" stroke-dasharray="5,2" d="M163.307,-233.154C123.427,-230.372 63.2112,-223.649 47,-208 32.8212,-194.313 32.2322,-169.256 33.0765,-155.913"/>
<polygon fill="#9a32cd" stroke="#9a32cd" points="163.26,-236.658 173.465,-233.809 163.711,-229.673 163.26,-236.658"/>
<text text-anchor="middle" x="63.5" y="-199.5" font-family="Arial" font-size="10.00"> type_a</text>
<text text-anchor="middle" x="63.5" y="-188.5" font-family="Arial" font-size="10.00">type_b</text>
<text text-anchor="middle" x="63.5" y="-177.5" font-family="Arial" font-size="10.00">type_c</text>
</g>
<!-- Node3&#45;&gt;Node3 -->
<g id="edge13" class="edge"><title>Node3&#45;&gt;Node3</title>
<path fill="none" stroke="#9a32cd" stroke-dasharray="5,2" d="M236.677,-243.111C241.104,-241.827 244,-239.456 244,-236 244,-230.328 236.201,-227.581 226.635,-227.758"/>
<polygon fill="#9a32cd" stroke="#9a32cd" points="236.181,-239.645 226.635,-244.242 236.964,-246.601 236.181,-239.645"/>
<text text-anchor="middle" x="259" y="-233.5" font-family="Arial" font-size="10.00"> scope</text>
</g>
<!-- Node5 -->
<g id="node5" class="node"><title>Node5</title>
<g id="a_node5"><a xlink:href="classfunction__t.html" target="_top" xlink:title="function_t">
<polygon fill="white" stroke="black" points="209.5,-68.5 209.5,-87.5 268.5,-87.5 268.5,-68.5 209.5,-68.5"/>
<text text-anchor="middle" x="239" y="-75.5" font-family="Arial" font-size="10.00">function_t</text>
</a>
</g>
</g>
<!-- Node3&#45;&gt;Node5 -->
<g id="edge8" class="edge"><title>Node3&#45;&gt;Node5</title>
<path fill="none" stroke="#9a32cd" stroke-dasharray="5,2" d="M221.48,-220.433C240.265,-206.362 266.448,-183.218 279,-156 288.323,-135.784 292.772,-125.483 282,-106 277.479,-97.8228 269.33,-91.7882 261.332,-87.5239"/>
<polygon fill="#9a32cd" stroke="#9a32cd" points="219.254,-217.723 213.196,-226.415 223.352,-223.398 219.254,-217.723"/>
<text text-anchor="middle" x="295" y="-143.5" font-family="Arial" font-size="10.00"> def</text>
</g>
<!-- Node7 -->
<g id="node7" class="node"><title>Node7</title>
<g id="a_node7"><a xlink:href="classid_type_def.html" target="_top" xlink:title="idTypeDef">
<polygon fill="white" stroke="black" points="340.5,-136.5 340.5,-155.5 399.5,-155.5 399.5,-136.5 340.5,-136.5"/>
<text text-anchor="middle" x="370" y="-143.5" font-family="Arial" font-size="10.00">idTypeDef</text>
</a>
</g>
</g>
<!-- Node3&#45;&gt;Node7 -->
<g id="edge7" class="edge"><title>Node3&#45;&gt;Node7</title>
<path fill="none" stroke="#9a32cd" stroke-dasharray="5,2" d="M236.861,-232.956C261.889,-230.133 294.874,-223.5 320,-208 341.444,-194.772 357.892,-169.046 365.448,-155.622"/>
<polygon fill="#9a32cd" stroke="#9a32cd" points="236.282,-229.495 226.668,-233.947 236.96,-236.463 236.282,-229.495"/>
<text text-anchor="middle" x="360" y="-188.5" font-family="Arial" font-size="10.00"> def</text>
</g>
<!-- Node4 -->
<g id="node4" class="node"><title>Node4</title>
<g id="a_node4"><a xlink:href="unionvar_eval__s.html" target="_top" xlink:title="varEval_s">
<polygon fill="white" stroke="black" points="245.5,-0.5 245.5,-19.5 302.5,-19.5 302.5,-0.5 245.5,-0.5"/>
<text text-anchor="middle" x="274" y="-7.5" font-family="Arial" font-size="10.00">varEval_s</text>
</a>
</g>
</g>
<!-- Node4&#45;&gt;Node3 -->
<g id="edge3" class="edge"><title>Node4&#45;&gt;Node3</title>
<path fill="none" stroke="#9a32cd" stroke-dasharray="5,2" d="M243.838,-23.7311C204.974,-42.0315 139.29,-79.8695 113,-136 94.6573,-175.163 150.819,-210.46 181.472,-226.254"/>
<polygon fill="#9a32cd" stroke="#9a32cd" points="245.459,-26.8387 253.101,-19.5002 242.55,-20.4715 245.459,-26.8387"/>
<text text-anchor="middle" x="143.5" y="-109.5" font-family="Arial" font-size="10.00"> value</text>
</g>
<!-- Node4&#45;&gt;Node4 -->
<g id="edge10" class="edge"><title>Node4&#45;&gt;Node4</title>
<path fill="none" stroke="#9a32cd" stroke-dasharray="5,2" d="M312.76,-15.4023C317.153,-14.3906 320,-12.5898 320,-10 320,-5.75 312.333,-3.625 302.75,-3.625"/>
<polygon fill="#9a32cd" stroke="#9a32cd" points="312.365,-11.9241 302.75,-16.375 313.042,-18.8913 312.365,-11.9241"/>
<text text-anchor="middle" x="336.5" y="-7.5" font-family="Arial" font-size="10.00"> evalPtr</text>
</g>
<!-- Node5&#45;&gt;Node4 -->
<g id="edge4" class="edge"><title>Node5&#45;&gt;Node4</title>
<path fill="none" stroke="#9a32cd" stroke-dasharray="5,2" d="M235.684,-58.2145C235.344,-51.5342 235.977,-44.1505 239,-38 242.792,-30.2863 249.965,-24.1541 256.835,-19.6961"/>
<polygon fill="#9a32cd" stroke="#9a32cd" points="232.247,-58.9446 236.925,-68.4508 239.196,-58.1023 232.247,-58.9446"/>
<text text-anchor="middle" x="264" y="-41.5" font-family="Arial" font-size="10.00"> functionPtr</text>
</g>
<!-- Node6 -->
<g id="node6" class="node"><title>Node6</title>
<g id="a_node6"><a xlink:href="classid_list.html" target="_top" xlink:title="idList\&lt; int \&gt;">
<polygon fill="white" stroke="black" points="122,-136.5 122,-155.5 190,-155.5 190,-136.5 122,-136.5"/>
<text text-anchor="middle" x="156" y="-143.5" font-family="Arial" font-size="10.00">idList&lt; int &gt;</text>
</a>
</g>
</g>
<!-- Node6&#45;&gt;Node5 -->
<g id="edge5" class="edge"><title>Node6&#45;&gt;Node5</title>
<path fill="none" stroke="#9a32cd" stroke-dasharray="5,2" d="M168.263,-128.441C174.282,-121.014 181.959,-112.485 190,-106 199.072,-98.6828 210.406,-92.2929 219.888,-87.5687"/>
<polygon fill="#9a32cd" stroke="#9a32cd" points="165.402,-126.42 162.038,-136.467 170.933,-130.71 165.402,-126.42"/>
<text text-anchor="middle" x="212.5" y="-109.5" font-family="Arial" font-size="10.00"> parmSize</text>
</g>
<!-- Node7&#45;&gt;Node5 -->
<g id="edge6" class="edge"><title>Node7&#45;&gt;Node5</title>
<path fill="none" stroke="#9a32cd" stroke-dasharray="5,2" d="M353.432,-129.737C344.144,-121.806 332.034,-112.451 320,-106 303.931,-97.3857 284.604,-90.8163 268.86,-86.3153"/>
<polygon fill="#9a32cd" stroke="#9a32cd" points="351.272,-132.499 361.084,-136.495 355.906,-127.252 351.272,-132.499"/>
<text text-anchor="middle" x="348" y="-109.5" font-family="Arial" font-size="10.00"> type</text>
</g>
<!-- Node8 -->
<g id="node8" class="node"><title>Node8</title>
<g id="a_node8"><a xlink:href="classid_event_def.html" target="_top" xlink:title="idEventDef">
<polygon fill="white" stroke="black" points="208,-136.5 208,-155.5 270,-155.5 270,-136.5 208,-136.5"/>
<text text-anchor="middle" x="239" y="-143.5" font-family="Arial" font-size="10.00">idEventDef</text>
</a>
</g>
</g>
<!-- Node8&#45;&gt;Node5 -->
<g id="edge9" class="edge"><title>Node8&#45;&gt;Node5</title>
<path fill="none" stroke="#9a32cd" stroke-dasharray="5,2" d="M239,-126.041C239,-113.472 239,-97.5631 239,-87.8411"/>
<polygon fill="#9a32cd" stroke="#9a32cd" points="235.5,-126.372 239,-136.372 242.5,-126.372 235.5,-126.372"/>
<text text-anchor="middle" x="258.5" y="-109.5" font-family="Arial" font-size="10.00"> eventdef</text>
</g>
<!-- Node9 -->
<g id="node9" class="node"><title>Node9</title>
<g id="a_node9"><a xlink:href="classid_vec3.html" target="_top" xlink:title="idVec3">
<polygon fill="white" stroke="black" points="287.5,-68.5 287.5,-87.5 334.5,-87.5 334.5,-68.5 287.5,-68.5"/>
<text text-anchor="middle" x="311" y="-75.5" font-family="Arial" font-size="10.00">idVec3</text>
</a>
</g>
</g>
<!-- Node9&#45;&gt;Node4 -->
<g id="edge11" class="edge"><title>Node9&#45;&gt;Node4</title>
<path fill="none" stroke="#9a32cd" stroke-dasharray="5,2" d="M301.225,-59.563C294.059,-46.7815 284.629,-29.9599 278.956,-19.8411"/>
<polygon fill="#9a32cd" stroke="#9a32cd" points="298.22,-61.3604 306.163,-68.3717 304.326,-57.9373 298.22,-61.3604"/>
<text text-anchor="middle" x="317" y="-41.5" font-family="Arial" font-size="10.00"> vectorPtr</text>
</g>
<!-- Node10 -->
<g id="node10" class="node"><title>Node10</title>
<g id="a_node10"><a xlink:href="classid_script_object.html" target="_top" xlink:title="idScriptObject">
<polygon fill="white" stroke="black" points="353,-68.5 353,-87.5 431,-87.5 431,-68.5 353,-68.5"/>
<text text-anchor="middle" x="392" y="-75.5" font-family="Arial" font-size="10.00">idScriptObject</text>
</a>
</g>
</g>
<!-- Node10&#45;&gt;Node4 -->
<g id="edge12" class="edge"><title>Node10&#45;&gt;Node4</title>
<path fill="none" stroke="#9a32cd" stroke-dasharray="5,2" d="M374.937,-61.7127C365.654,-53.9213 353.702,-44.7032 342,-38 328.994,-30.5499 313.531,-24.2314 300.638,-19.5841"/>
<polygon fill="#9a32cd" stroke="#9a32cd" points="372.771,-64.4673 382.628,-68.3538 377.346,-59.1691 372.771,-64.4673"/>
<text text-anchor="middle" x="386.5" y="-41.5" font-family="Arial" font-size="10.00"> objectPtrPtr</text>
</g>
</g>
</svg>
