<?xml version="1.0" encoding="UTF-8" standalone="no"?>
<!DOCTYPE svg PUBLIC "-//W3C//DTD SVG 1.1//EN"
 "http://www.w3.org/Graphics/SVG/1.1/DTD/svg11.dtd">
<!-- Generated by graphviz version 2.34.0 (20130907.0111)
 -->
<!-- Title: CPropTreeItemEdit Pages: 1 -->
<svg width="408pt" height="231pt"
 viewBox="0.00 0.00 408.00 230.50" xmlns="http://www.w3.org/2000/svg" xmlns:xlink="http://www.w3.org/1999/xlink">
<g id="graph0" class="graph" transform="scale(1 1) rotate(0) translate(4 226.5)">
<title>CPropTreeItemEdit</title>
<polygon fill="white" stroke="white" points="-4,4 -4,-226.5 404,-226.5 404,4 -4,4"/>
<!-- Node1 -->
<g id="node1" class="node"><title>Node1</title>
<polygon fill="#bfbfbf" stroke="black" points="0,-68.5 0,-87.5 98,-87.5 98,-68.5 0,-68.5"/>
<text text-anchor="middle" x="49" y="-75.5" font-family="Arial" font-size="10.00">CPropTreeItemEdit</text>
</g>
<!-- Node2 -->
<g id="node2" class="node"><title>Node2</title>
<polygon fill="white" stroke="#bfbfbf" points="28.5,-185.5 28.5,-204.5 69.5,-204.5 69.5,-185.5 28.5,-185.5"/>
<text text-anchor="middle" x="49" y="-192.5" font-family="Arial" font-size="10.00">CEdit</text>
</g>
<!-- Node2&#45;&gt;Node1 -->
<g id="edge1" class="edge"><title>Node2&#45;&gt;Node1</title>
<path fill="none" stroke="midnightblue" d="M49,-175.245C49,-150.056 49,-106.317 49,-87.744"/>
<polygon fill="midnightblue" stroke="midnightblue" points="45.5001,-175.356 49,-185.356 52.5001,-175.356 45.5001,-175.356"/>
</g>
<!-- Node3 -->
<g id="node3" class="node"><title>Node3</title>
<g id="a_node3"><a xlink:href="class_c_prop_tree_item.html" target="_top" xlink:title="CPropTreeItem">
<polygon fill="white" stroke="black" points="143.5,-185.5 143.5,-204.5 224.5,-204.5 224.5,-185.5 143.5,-185.5"/>
<text text-anchor="middle" x="184" y="-192.5" font-family="Arial" font-size="10.00">CPropTreeItem</text>
</a>
</g>
</g>
<!-- Node3&#45;&gt;Node1 -->
<g id="edge2" class="edge"><title>Node3&#45;&gt;Node1</title>
<path fill="none" stroke="midnightblue" d="M166.213,-178.848C137.575,-154.453 82.1475,-107.237 59.2647,-87.744"/>
<polygon fill="midnightblue" stroke="midnightblue" points="163.971,-181.536 173.853,-185.356 168.51,-176.207 163.971,-181.536"/>
</g>
<!-- Node3&#45;&gt;Node3 -->
<g id="edge12" class="edge"><title>Node3&#45;&gt;Node3</title>
<path fill="none" stroke="#9a32cd" stroke-dasharray="5,2" d="M211.895,-206.761C227.547,-209.008 242,-205.088 242,-195 242,-182.818 220.924,-179.63 202.113,-185.436"/>
<polygon fill="#9a32cd" stroke="#9a32cd" points="212.637,-203.34 202.113,-204.564 211.103,-210.17 212.637,-203.34"/>
<text text-anchor="middle" x="267.5" y="-214.5" font-family="Arial" font-size="10.00"> m_pParent</text>
<text text-anchor="middle" x="267.5" y="-203.5" font-family="Arial" font-size="10.00">m_pVis</text>
<text text-anchor="middle" x="267.5" y="-192.5" font-family="Arial" font-size="10.00">m_pSibling</text>
<text text-anchor="middle" x="267.5" y="-181.5" font-family="Arial" font-size="10.00">m_pChild</text>
<text text-anchor="middle" x="267.5" y="-170.5" font-family="Arial" font-size="10.00">m_lParam</text>
</g>
<!-- Node4 -->
<g id="node4" class="node"><title>Node4</title>
<g id="a_node4"><a xlink:href="class_c_prop_tree.html" target="_top" xlink:title="CPropTree">
<polygon fill="white" stroke="black" points="238,-68.5 238,-87.5 300,-87.5 300,-68.5 238,-68.5"/>
<text text-anchor="middle" x="269" y="-75.5" font-family="Arial" font-size="10.00">CPropTree</text>
</a>
</g>
</g>
<!-- Node3&#45;&gt;Node4 -->
<g id="edge8" class="edge"><title>Node3&#45;&gt;Node4</title>
<path fill="none" stroke="#9a32cd" stroke-dasharray="5,2" d="M177.318,-175.803C171.505,-156.52 166.119,-126.132 181,-106 193.919,-88.5227 217.948,-81.9949 237.636,-79.7154"/>
<polygon fill="#9a32cd" stroke="#9a32cd" points="174.061,-177.101 180.552,-185.475 180.7,-174.881 174.061,-177.101"/>
<text text-anchor="middle" x="212" y="-142" font-family="Arial" font-size="10.00"> m_Root</text>
<text text-anchor="middle" x="212" y="-131" font-family="Arial" font-size="10.00">m_pVisbleList</text>
<text text-anchor="middle" x="212" y="-120" font-family="Arial" font-size="10.00">m_pFocus</text>
<text text-anchor="middle" x="212" y="-109" font-family="Arial" font-size="10.00">s_pFound</text>
</g>
<!-- Node4&#45;&gt;Node3 -->
<g id="edge3" class="edge"><title>Node4&#45;&gt;Node3</title>
<path fill="none" stroke="#9a32cd" stroke-dasharray="5,2" d="M266.584,-97.9448C263.874,-113.193 258.281,-134.554 247,-150 235.433,-165.837 216.377,-177.994 202.247,-185.476"/>
<polygon fill="#9a32cd" stroke="#9a32cd" points="270.102,-98.0864 268.14,-87.6747 263.181,-97.0373 270.102,-98.0864"/>
<text text-anchor="middle" x="286.5" y="-125.5" font-family="Arial" font-size="10.00"> m_pProp</text>
</g>
<!-- Node6 -->
<g id="node6" class="node"><title>Node6</title>
<g id="a_node6"><a xlink:href="class_c_prop_tree_list.html" target="_top" xlink:title="CPropTreeList">
<polygon fill="white" stroke="black" points="322,-0.5 322,-19.5 400,-19.5 400,-0.5 322,-0.5"/>
<text text-anchor="middle" x="361" y="-7.5" font-family="Arial" font-size="10.00">CPropTreeList</text>
</a>
</g>
</g>
<!-- Node4&#45;&gt;Node6 -->
<g id="edge7" class="edge"><title>Node4&#45;&gt;Node6</title>
<path fill="none" stroke="#9a32cd" stroke-dasharray="5,2" d="M276.346,-59.1574C280.116,-51.7955 285.335,-43.6765 292,-38 301.793,-29.6593 314.464,-23.7149 326.27,-19.5674"/>
<polygon fill="#9a32cd" stroke="#9a32cd" points="273.083,-57.8769 272.104,-68.4265 279.448,-60.7899 273.083,-57.8769"/>
<text text-anchor="middle" x="313.5" y="-41.5" font-family="Arial" font-size="10.00"> m_pProp</text>
</g>
<!-- Node7 -->
<g id="node7" class="node"><title>Node7</title>
<g id="a_node7"><a xlink:href="class_c_prop_tree_info.html" target="_top" xlink:title="CPropTreeInfo">
<polygon fill="white" stroke="black" points="135.5,-0.5 135.5,-19.5 212.5,-19.5 212.5,-0.5 135.5,-0.5"/>
<text text-anchor="middle" x="174" y="-7.5" font-family="Arial" font-size="10.00">CPropTreeInfo</text>
</a>
</g>
</g>
<!-- Node4&#45;&gt;Node7 -->
<g id="edge11" class="edge"><title>Node4&#45;&gt;Node7</title>
<path fill="none" stroke="#9a32cd" stroke-dasharray="5,2" d="M248.321,-62.6336C229.438,-49.5145 202.142,-30.551 186.423,-19.6305"/>
<polygon fill="#9a32cd" stroke="#9a32cd" points="246.371,-65.5404 256.58,-68.3717 250.365,-59.7916 246.371,-65.5404"/>
<text text-anchor="middle" x="252.5" y="-41.5" font-family="Arial" font-size="10.00"> m_pProp</text>
</g>
<!-- Node5 -->
<g id="node5" class="node"><title>Node5</title>
<polygon fill="white" stroke="#bfbfbf" points="338,-185.5 338,-204.5 382,-204.5 382,-185.5 338,-185.5"/>
<text text-anchor="middle" x="360" y="-192.5" font-family="Arial" font-size="10.00">CWnd</text>
</g>
<!-- Node5&#45;&gt;Node4 -->
<g id="edge4" class="edge"><title>Node5&#45;&gt;Node4</title>
<path fill="none" stroke="midnightblue" d="M353.283,-175.754C345.567,-156.664 331.425,-126.655 312,-106 304.995,-98.5513 295.509,-92.3093 287.229,-87.7098"/>
<polygon fill="midnightblue" stroke="midnightblue" points="350.119,-177.276 356.987,-185.343 356.648,-174.753 350.119,-177.276"/>
</g>
<!-- Node5&#45;&gt;Node6 -->
<g id="edge6" class="edge"><title>Node5&#45;&gt;Node6</title>
<path fill="none" stroke="midnightblue" d="M364.501,-175.219C370.802,-147.868 381.935,-95.3872 386,-50 386.476,-44.6879 387.946,-42.9657 386,-38 383.203,-30.8625 377.535,-24.4838 372.302,-19.7208"/>
<polygon fill="midnightblue" stroke="midnightblue" points="361.011,-174.772 362.131,-185.308 367.825,-176.373 361.011,-174.772"/>
</g>
<!-- Node6&#45;&gt;Node4 -->
<g id="edge5" class="edge"><title>Node6&#45;&gt;Node4</title>
<path fill="none" stroke="#9a32cd" stroke-dasharray="5,2" d="M354.141,-28.8574C350.566,-36.2219 345.551,-44.3389 339,-50 327.962,-59.5387 313.184,-65.899 300.051,-70.0362"/>
<polygon fill="#9a32cd" stroke="#9a32cd" points="357.395,-30.1516 358.134,-19.5826 350.965,-27.3838 357.395,-30.1516"/>
<text text-anchor="middle" x="365.5" y="-41.5" font-family="Arial" font-size="10.00"> m_List</text>
</g>
<!-- Node7&#45;&gt;Node4 -->
<g id="edge9" class="edge"><title>Node7&#45;&gt;Node4</title>
<path fill="none" stroke="#9a32cd" stroke-dasharray="5,2" d="M170.092,-29.8279C169.699,-36.803 170.649,-44.3747 175,-50 189.544,-68.8028 216.293,-75.1149 237.548,-76.9747"/>
<polygon fill="#9a32cd" stroke="#9a32cd" points="173.586,-30.1149 171.519,-19.7236 166.655,-29.1356 173.586,-30.1149"/>
<text text-anchor="middle" x="191" y="-41.5" font-family="Arial" font-size="10.00"> m_Info</text>
</g>
<!-- Node8 -->
<g id="node8" class="node"><title>Node8</title>
<polygon fill="white" stroke="#bfbfbf" points="116.5,-68.5 116.5,-87.5 165.5,-87.5 165.5,-68.5 116.5,-68.5"/>
<text text-anchor="middle" x="141" y="-75.5" font-family="Arial" font-size="10.00">CStatic</text>
</g>
<!-- Node8&#45;&gt;Node7 -->
<g id="edge10" class="edge"><title>Node8&#45;&gt;Node7</title>
<path fill="none" stroke="midnightblue" d="M146.407,-58.7838C148.688,-52.0816 151.606,-44.5361 155,-38 158.381,-31.4888 163.131,-24.7388 167.036,-19.6166"/>
<polygon fill="midnightblue" stroke="midnightblue" points="143.059,-57.7654 143.372,-68.3556 149.731,-59.8812 143.059,-57.7654"/>
</g>
</g>
</svg>
