<?xml version="1.0" encoding="UTF-8" standalone="no"?>
<!DOCTYPE svg PUBLIC "-//W3C//DTD SVG 1.1//EN"
 "http://www.w3.org/Graphics/SVG/1.1/DTD/svg11.dtd">
<!-- Generated by graphviz version 2.34.0 (20130907.0111)
 -->
<!-- Title: CLightDlg Pages: 1 -->
<!--zoomable 386 -->
<svg id="main" version="1.1" xmlns="http://www.w3.org/2000/svg" xmlns:xlink="http://www.w3.org/1999/xlink" xml:space="preserve" onload="init(evt)">
<style type="text/css"><![CDATA[
.edge:hover path { stroke: red; }
.edge:hover polygon { stroke: red; fill: red; }
]]></style>
<script type="text/javascript"><![CDATA[
var edges = document.getElementsByTagName('g');
if (edges && edges.length) {
  for (var i=0;i<edges.length;i++) {
    if (edges[i].id.substr(0,4)=='edge') {
      edges[i].setAttribute('class','edge');
    }
  }
}
]]></script>
        <defs>
                <circle id="rim" cx="0" cy="0" r="7"/>
                <circle id="rim2" cx="0" cy="0" r="3.5"/>
                <g id="zoomPlus">
                        <use xlink:href="#rim" fill="#404040">
                                <set attributeName="fill" to="#808080" begin="zoomplus.mouseover" end="zoomplus.mouseout"/>
                        </use>
                        <path d="M-4,0h8M0,-4v8" fill="none" stroke="white" stroke-width="1.5" pointer-events="none"/>
                </g>
                <g id="zoomMin">
                        <use xlink:href="#rim" fill="#404040">
                                <set attributeName="fill" to="#808080" begin="zoomminus.mouseover" end="zoomminus.mouseout"/>
                        </use>
                        <path d="M-4,0h8" fill="none" stroke="white" stroke-width="1.5" pointer-events="none"/>
                </g>
                <g id="dirArrow">
                        <path fill="none" stroke="white" stroke-width="1.5" d="M0,-3.0v7 M-2.5,-0.5L0,-3.0L2.5,-0.5"/>
                </g>
               <g id="resetDef">
                       <use xlink:href="#rim2" fill="#404040">
                               <set attributeName="fill" to="#808080" begin="reset.mouseover" end="reset.mouseout"/>
                       </use>
               </g>
        </defs>

<script type="text/javascript">
var viewWidth = 512;
var viewHeight = 386;
var sectionId = 'dynsection-1';
</script>
<script xlink:href="svgpan.js"/>
<svg id="graph" class="graph">
<g id="viewport">
<title>CLightDlg</title>
<polygon fill="white" stroke="white" points="-4,4 -4,-382 508,-382 508,4 -4,4"/>
<!-- Node1 -->
<g id="node1" class="node"><title>Node1</title>
<polygon fill="#bfbfbf" stroke="black" points="159.5,-0.5 159.5,-19.5 218.5,-19.5 218.5,-0.5 159.5,-0.5"/>
<text text-anchor="middle" x="189" y="-7.5" font-family="Arial" font-size="10.00">CLightDlg</text>
</g>
<!-- Node2 -->
<g id="node2" class="node"><title>Node2</title>
<polygon fill="white" stroke="#bfbfbf" points="0,-78.5 0,-97.5 50,-97.5 50,-78.5 0,-78.5"/>
<text text-anchor="middle" x="25" y="-85.5" font-family="Arial" font-size="10.00">CDialog</text>
</g>
<!-- Node2&#45;&gt;Node1 -->
<g id="edge1" class="edge"><title>Node2&#45;&gt;Node1</title>
<path fill="none" stroke="midnightblue" d="M37.1226,-69.9978C45.6781,-59.2391 58.0665,-45.9134 72,-38 99.1903,-22.5575 134.686,-15.942 159.419,-13.1111"/>
<polygon fill="midnightblue" stroke="midnightblue" points="34.1199,-68.1664 30.8878,-78.2562 39.7065,-72.3842 34.1199,-68.1664"/>
</g>
<!-- Node3 -->
<g id="node3" class="node"><title>Node3</title>
<g id="a_node3"><a xlink:href="classid_g_l_widget.html" target="_top" xlink:title="idGLWidget">
<polygon fill="white" stroke="black" points="56,-222.5 56,-241.5 124,-241.5 124,-222.5 56,-222.5"/>
<text text-anchor="middle" x="90" y="-229.5" font-family="Arial" font-size="10.00">idGLWidget</text>
</a>
</g>
</g>
<!-- Node3&#45;&gt;Node1 -->
<g id="edge2" class="edge"><title>Node3&#45;&gt;Node1</title>
<path fill="none" stroke="#9a32cd" stroke-dasharray="5,2" d="M90.7095,-212.189C92.5517,-182.117 99.1765,-122.115 123,-78 136.5,-53.0019 162.139,-31.0333 177.178,-19.5244"/>
<polygon fill="#9a32cd" stroke="#9a32cd" points="87.1991,-212.314 90.1997,-222.475 94.1905,-212.661 87.1991,-212.314"/>
<text text-anchor="middle" x="156.5" y="-85.5" font-family="Arial" font-size="10.00"> m_wndPreview</text>
</g>
<!-- Node4 -->
<g id="node4" class="node"><title>Node4</title>
<polygon fill="white" stroke="#bfbfbf" points="68,-290.5 68,-309.5 112,-309.5 112,-290.5 68,-290.5"/>
<text text-anchor="middle" x="90" y="-297.5" font-family="Arial" font-size="10.00">CWnd</text>
</g>
<!-- Node4&#45;&gt;Node3 -->
<g id="edge3" class="edge"><title>Node4&#45;&gt;Node3</title>
<path fill="none" stroke="midnightblue" d="M90,-280.041C90,-267.472 90,-251.563 90,-241.841"/>
<polygon fill="midnightblue" stroke="midnightblue" points="86.5001,-280.372 90,-290.372 93.5001,-280.372 86.5001,-280.372"/>
</g>
<!-- Node5 -->
<g id="node5" class="node"><title>Node5</title>
<g id="a_node5"><a xlink:href="classid_g_l_drawable.html" target="_top" xlink:title="idGLDrawable">
<polygon fill="white" stroke="black" points="144.5,-290.5 144.5,-309.5 221.5,-309.5 221.5,-290.5 144.5,-290.5"/>
<text text-anchor="middle" x="183" y="-297.5" font-family="Arial" font-size="10.00">idGLDrawable</text>
</a>
</g>
</g>
<!-- Node5&#45;&gt;Node3 -->
<g id="edge4" class="edge"><title>Node5&#45;&gt;Node3</title>
<path fill="none" stroke="#9a32cd" stroke-dasharray="5,2" d="M162.505,-284.455C144.029,-271.343 117.48,-252.502 102.161,-241.63"/>
<polygon fill="#9a32cd" stroke="#9a32cd" points="160.661,-287.438 170.842,-290.372 164.712,-281.73 160.661,-287.438"/>
<text text-anchor="middle" x="166" y="-263.5" font-family="Arial" font-size="10.00"> drawable</text>
</g>
<!-- Node10 -->
<g id="node10" class="node"><title>Node10</title>
<g id="a_node10"><a xlink:href="classid_g_l_drawable_world.html" target="_top" xlink:title="idGLDrawableWorld">
<polygon fill="white" stroke="black" points="321,-222.5 321,-241.5 423,-241.5 423,-222.5 321,-222.5"/>
<text text-anchor="middle" x="372" y="-229.5" font-family="Arial" font-size="10.00">idGLDrawableWorld</text>
</a>
</g>
</g>
<!-- Node5&#45;&gt;Node10 -->
<g id="edge11" class="edge"><title>Node5&#45;&gt;Node10</title>
<path fill="none" stroke="midnightblue" d="M217.24,-287.043C254.878,-273.9 314.397,-253.115 347.585,-241.526"/>
<polygon fill="midnightblue" stroke="midnightblue" points="215.995,-283.77 207.708,-290.372 218.303,-290.379 215.995,-283.77"/>
</g>
<!-- Node6 -->
<g id="node6" class="node"><title>Node6</title>
<g id="a_node6"><a xlink:href="class_c_light_info.html" target="_top" xlink:title="CLightInfo">
<polygon fill="white" stroke="black" points="232.5,-78.5 232.5,-97.5 291.5,-97.5 291.5,-78.5 232.5,-78.5"/>
<text text-anchor="middle" x="262" y="-85.5" font-family="Arial" font-size="10.00">CLightInfo</text>
</a>
</g>
</g>
<!-- Node6&#45;&gt;Node1 -->
<g id="edge5" class="edge"><title>Node6&#45;&gt;Node1</title>
<path fill="none" stroke="#9a32cd" stroke-dasharray="5,2" d="M246.512,-70.875C231.471,-55.2161 209.212,-32.0422 197.276,-19.6165"/>
<polygon fill="#9a32cd" stroke="#9a32cd" points="244.174,-73.4944 253.626,-78.2818 249.223,-68.6453 244.174,-73.4944"/>
<text text-anchor="middle" x="270" y="-52" font-family="Arial" font-size="10.00"> lightInfoOriginal</text>
<text text-anchor="middle" x="270" y="-41" font-family="Arial" font-size="10.00">lightInfo</text>
</g>
<!-- Node7 -->
<g id="node7" class="node"><title>Node7</title>
<g id="a_node7"><a xlink:href="classid_vec3.html" target="_top" xlink:title="idVec3">
<polygon fill="white" stroke="black" points="179.5,-222.5 179.5,-241.5 226.5,-241.5 226.5,-222.5 179.5,-222.5"/>
<text text-anchor="middle" x="203" y="-229.5" font-family="Arial" font-size="10.00">idVec3</text>
</a>
</g>
</g>
<!-- Node7&#45;&gt;Node1 -->
<g id="edge8" class="edge"><title>Node7&#45;&gt;Node1</title>
<path fill="none" stroke="#9a32cd" stroke-dasharray="5,2" d="M201.802,-212.175C198.911,-166.738 191.635,-52.4075 189.56,-19.8037"/>
<polygon fill="#9a32cd" stroke="#9a32cd" points="198.323,-212.618 202.451,-222.376 205.309,-212.174 198.323,-212.618"/>
<text text-anchor="middle" x="207.5" y="-85.5" font-family="Arial" font-size="10.00"> color</text>
</g>
<!-- Node7&#45;&gt;Node6 -->
<g id="edge6" class="edge"><title>Node7&#45;&gt;Node6</title>
<path fill="none" stroke="#9a32cd" stroke-dasharray="5,2" d="M201.02,-212.386C199.402,-188.181 199.908,-145.514 219,-116 224.171,-108.007 232.632,-101.952 240.687,-97.6234"/>
<polygon fill="#9a32cd" stroke="#9a32cd" points="197.535,-212.71 201.883,-222.372 204.509,-212.107 197.535,-212.71"/>
<text text-anchor="middle" x="244" y="-196" font-family="Arial" font-size="10.00"> lightCenter</text>
<text text-anchor="middle" x="244" y="-185" font-family="Arial" font-size="10.00">lightTarget</text>
<text text-anchor="middle" x="244" y="-174" font-family="Arial" font-size="10.00">lightUp</text>
<text text-anchor="middle" x="244" y="-163" font-family="Arial" font-size="10.00">lightStart</text>
<text text-anchor="middle" x="244" y="-152" font-family="Arial" font-size="10.00">lightEnd</text>
<text text-anchor="middle" x="244" y="-141" font-family="Arial" font-size="10.00">lightRadius</text>
<text text-anchor="middle" x="244" y="-130" font-family="Arial" font-size="10.00">lightRight</text>
<text text-anchor="middle" x="244" y="-119" font-family="Arial" font-size="10.00">color</text>
</g>
<!-- Node8 -->
<g id="node8" class="node"><title>Node8</title>
<g id="a_node8"><a xlink:href="classid_vec4.html" target="_top" xlink:title="idVec4">
<polygon fill="white" stroke="black" points="255.5,-222.5 255.5,-241.5 302.5,-241.5 302.5,-222.5 255.5,-222.5"/>
<text text-anchor="middle" x="279" y="-229.5" font-family="Arial" font-size="10.00">idVec4</text>
</a>
</g>
</g>
<!-- Node8&#45;&gt;Node6 -->
<g id="edge7" class="edge"><title>Node8&#45;&gt;Node6</title>
<path fill="none" stroke="#9a32cd" stroke-dasharray="5,2" d="M279.926,-212.112C280.619,-189.111 280.411,-149.218 273,-116 271.589,-109.677 268.839,-102.927 266.442,-97.7575"/>
<polygon fill="#9a32cd" stroke="#9a32cd" points="276.425,-212.08 279.529,-222.21 283.419,-212.356 276.425,-212.08"/>
<text text-anchor="middle" x="305.5" y="-157.5" font-family="Arial" font-size="10.00"> fogDensity</text>
</g>
<!-- Node9 -->
<g id="node9" class="node"><title>Node9</title>
<g id="a_node9"><a xlink:href="classid_g_l_drawable_material.html" target="_top" xlink:title="idGLDrawableMaterial">
<polygon fill="white" stroke="black" points="316.5,-78.5 316.5,-97.5 427.5,-97.5 427.5,-78.5 316.5,-78.5"/>
<text text-anchor="middle" x="372" y="-85.5" font-family="Arial" font-size="10.00">idGLDrawableMaterial</text>
</a>
</g>
</g>
<!-- Node9&#45;&gt;Node1 -->
<g id="edge9" class="edge"><title>Node9&#45;&gt;Node1</title>
<path fill="none" stroke="#9a32cd" stroke-dasharray="5,2" d="M356.073,-71.3571C344.076,-60.4345 326.714,-46.3648 309,-38 280.036,-24.3225 243.815,-17.4036 218.786,-14.0189"/>
<polygon fill="#9a32cd" stroke="#9a32cd" points="353.778,-74.0038 363.46,-78.3073 358.575,-68.9056 353.778,-74.0038"/>
<text text-anchor="middle" x="378" y="-46.5" font-family="Arial" font-size="10.00"> m_drawMaterial</text>
</g>
<!-- Node10&#45;&gt;Node9 -->
<g id="edge10" class="edge"><title>Node10&#45;&gt;Node9</title>
<path fill="none" stroke="midnightblue" d="M372,-212.107C372,-180.929 372,-119.926 372,-97.5184"/>
<polygon fill="midnightblue" stroke="midnightblue" points="368.5,-212.117 372,-222.117 375.5,-212.117 368.5,-212.117"/>
</g>
<!-- Node11 -->
<g id="node11" class="node"><title>Node11</title>
<g id="a_node11"><a xlink:href="classid_render_world.html" target="_top" xlink:title="idRenderWorld">
<polygon fill="white" stroke="black" points="247,-290.5 247,-309.5 327,-309.5 327,-290.5 247,-290.5"/>
<text text-anchor="middle" x="287" y="-297.5" font-family="Arial" font-size="10.00">idRenderWorld</text>
</a>
</g>
</g>
<!-- Node11&#45;&gt;Node10 -->
<g id="edge12" class="edge"><title>Node11&#45;&gt;Node10</title>
<path fill="none" stroke="#9a32cd" stroke-dasharray="5,2" d="M306.194,-284.096C323.059,-271.001 347.012,-252.403 360.885,-241.63"/>
<polygon fill="#9a32cd" stroke="#9a32cd" points="303.864,-281.474 298.112,-290.372 308.157,-287.003 303.864,-281.474"/>
<text text-anchor="middle" x="351" y="-263.5" font-family="Arial" font-size="10.00"> world</text>
</g>
<!-- Node12 -->
<g id="node12" class="node"><title>Node12</title>
<g id="a_node12"><a xlink:href="classid_render_model.html" target="_top" xlink:title="idRenderModel">
<polygon fill="white" stroke="black" points="345.5,-290.5 345.5,-309.5 426.5,-309.5 426.5,-290.5 345.5,-290.5"/>
<text text-anchor="middle" x="386" y="-297.5" font-family="Arial" font-size="10.00">idRenderModel</text>
</a>
</g>
</g>
<!-- Node12&#45;&gt;Node10 -->
<g id="edge13" class="edge"><title>Node12&#45;&gt;Node10</title>
<path fill="none" stroke="#9a32cd" stroke-dasharray="5,2" d="M382.06,-280.425C379.381,-267.798 375.959,-251.662 373.875,-241.841"/>
<polygon fill="#9a32cd" stroke="#9a32cd" points="378.671,-281.316 384.17,-290.372 385.518,-279.863 378.671,-281.316"/>
<text text-anchor="middle" x="407" y="-263.5" font-family="Arial" font-size="10.00"> worldModel</text>
</g>
<!-- Node13 -->
<g id="node13" class="node"><title>Node13</title>
<g id="a_node13"><a xlink:href="classid_material.html" target="_top" xlink:title="idMaterial">
<polygon fill="white" stroke="black" points="441.5,-222.5 441.5,-241.5 500.5,-241.5 500.5,-222.5 441.5,-222.5"/>
<text text-anchor="middle" x="471" y="-229.5" font-family="Arial" font-size="10.00">idMaterial</text>
</a>
</g>
</g>
<!-- Node13&#45;&gt;Node9 -->
<g id="edge14" class="edge"><title>Node13&#45;&gt;Node9</title>
<path fill="none" stroke="#9a32cd" stroke-dasharray="5,2" d="M458.953,-213.72C437.592,-183.082 393.835,-120.319 377.939,-97.5184"/>
<polygon fill="#9a32cd" stroke="#9a32cd" points="456.217,-215.916 464.807,-222.117 461.959,-211.912 456.217,-215.916"/>
<text text-anchor="middle" x="472" y="-157.5" font-family="Arial" font-size="10.00"> material</text>
</g>
<!-- Node14 -->
<g id="node14" class="node"><title>Node14</title>
<g id="a_node14"><a xlink:href="classid_decl.html" target="_top" xlink:title="idDecl">
<polygon fill="white" stroke="black" points="449,-290.5 449,-309.5 493,-309.5 493,-290.5 449,-290.5"/>
<text text-anchor="middle" x="471" y="-297.5" font-family="Arial" font-size="10.00">idDecl</text>
</a>
</g>
</g>
<!-- Node14&#45;&gt;Node13 -->
<g id="edge15" class="edge"><title>Node14&#45;&gt;Node13</title>
<path fill="none" stroke="midnightblue" d="M471,-280.041C471,-267.472 471,-251.563 471,-241.841"/>
<polygon fill="midnightblue" stroke="midnightblue" points="467.5,-280.372 471,-290.372 474.5,-280.372 467.5,-280.372"/>
</g>
<!-- Node15 -->
<g id="node15" class="node"><title>Node15</title>
<g id="a_node15"><a xlink:href="classid_decl_base.html" target="_top" xlink:title="idDeclBase">
<polygon fill="white" stroke="black" points="438,-358.5 438,-377.5 504,-377.5 504,-358.5 438,-358.5"/>
<text text-anchor="middle" x="471" y="-365.5" font-family="Arial" font-size="10.00">idDeclBase</text>
</a>
</g>
</g>
<!-- Node15&#45;&gt;Node14 -->
<g id="edge16" class="edge"><title>Node15&#45;&gt;Node14</title>
<path fill="none" stroke="#9a32cd" stroke-dasharray="5,2" d="M471,-348.041C471,-335.472 471,-319.563 471,-309.841"/>
<polygon fill="#9a32cd" stroke="#9a32cd" points="467.5,-348.372 471,-358.372 474.5,-348.372 467.5,-348.372"/>
<text text-anchor="middle" x="483.5" y="-331.5" font-family="Arial" font-size="10.00"> base</text>
</g>
</g>
</svg>
        <g id="navigator" transform="translate(0 0)" fill="#404254">
                <rect fill="#f2f5e9" fill-opacity="0.5" stroke="#606060" stroke-width=".5" x="0" y="0" width="60" height="60"/>
                <use id="zoomplus" xlink:href="#zoomPlus" x="17" y="9" onmousedown="handleZoom(evt,'in')"/>
                <use id="zoomminus" xlink:href="#zoomMin" x="42" y="9" onmousedown="handleZoom(evt,'out')"/>
                <use id="reset" xlink:href="#resetDef" x="30" y="36" onmousedown="handleReset()"/>
                <g id="arrowUp" xlink:href="#dirArrow" transform="translate(30 24)" onmousedown="handlePan(0,-1)">
                  <use xlink:href="#rim" fill="#404040">
                        <set attributeName="fill" to="#808080" begin="arrowUp.mouseover" end="arrowUp.mouseout"/>
                  </use>
                  <path fill="none" stroke="white" stroke-width="1.5" d="M0,-3.0v7 M-2.5,-0.5L0,-3.0L2.5,-0.5"/>
                </g>
                <g id="arrowRight" xlink:href="#dirArrow" transform="rotate(90) translate(36 -43)" onmousedown="handlePan(1,0)">
                  <use xlink:href="#rim" fill="#404040">
                        <set attributeName="fill" to="#808080" begin="arrowRight.mouseover" end="arrowRight.mouseout"/>
                  </use>
                  <path fill="none" stroke="white" stroke-width="1.5" d="M0,-3.0v7 M-2.5,-0.5L0,-3.0L2.5,-0.5"/>
                </g>
                <g id="arrowDown" xlink:href="#dirArrow" transform="rotate(180) translate(-30 -48)" onmousedown="handlePan(0,1)">
                  <use xlink:href="#rim" fill="#404040">
                        <set attributeName="fill" to="#808080" begin="arrowDown.mouseover" end="arrowDown.mouseout"/>
                  </use>
                  <path fill="none" stroke="white" stroke-width="1.5" d="M0,-3.0v7 M-2.5,-0.5L0,-3.0L2.5,-0.5"/>
                </g>
                <g id="arrowLeft" xlink:href="#dirArrow" transform="rotate(270) translate(-36 17)" onmousedown="handlePan(-1,0)">
                  <use xlink:href="#rim" fill="#404040">
                        <set attributeName="fill" to="#808080" begin="arrowLeft.mouseover" end="arrowLeft.mouseout"/>
                  </use>
                  <path fill="none" stroke="white" stroke-width="1.5" d="M0,-3.0v7 M-2.5,-0.5L0,-3.0L2.5,-0.5"/>
                </g>
        </g>
        <svg viewBox="0 0 15 15" width="100%" height="30px" preserveAspectRatio="xMaxYMin meet">
         <g id="arrow_out" transform="scale(0.3 0.3)">
          <a xlink:href="class_c_light_dlg__coll__graph_org.svg" target="_base">
           <rect id="button" ry="5" rx="5" y="6" x="6" height="38" width="38"
                fill="#f2f5e9" fill-opacity="0.5" stroke="#606060" stroke-width="1.0"/>
           <path id="arrow"
             d="M 11.500037,31.436501 C 11.940474,20.09759 22.043105,11.32322 32.158766,21.979434 L 37.068811,17.246167 C 37.068811,17.246167 37.088388,32 37.088388,32 L 22.160133,31.978069 C 22.160133,31.978069 26.997745,27.140456 26.997745,27.140456 C 18.528582,18.264221 13.291696,25.230495 11.500037,31.436501 z"
             style="fill:#404040;"/>
          </a>
         </g>
        </svg>
</svg>
