<?xml version="1.0" encoding="UTF-8" standalone="no"?>
<!DOCTYPE svg PUBLIC "-//W3C//DTD SVG 1.1//EN"
 "http://www.w3.org/Graphics/SVG/1.1/DTD/svg11.dtd">
<!-- Generated by graphviz version 2.34.0 (20130907.0111)
 -->
<!-- Title: CMainFrame Pages: 1 -->
<!--zoomable 727 -->
<svg id="main" version="1.1" xmlns="http://www.w3.org/2000/svg" xmlns:xlink="http://www.w3.org/1999/xlink" xml:space="preserve" onload="init(evt)">
<style type="text/css"><![CDATA[
.edge:hover path { stroke: red; }
.edge:hover polygon { stroke: red; fill: red; }
]]></style>
<script type="text/javascript"><![CDATA[
var edges = document.getElementsByTagName('g');
if (edges && edges.length) {
  for (var i=0;i<edges.length;i++) {
    if (edges[i].id.substr(0,4)=='edge') {
      edges[i].setAttribute('class','edge');
    }
  }
}
]]></script>
        <defs>
                <circle id="rim" cx="0" cy="0" r="7"/>
                <circle id="rim2" cx="0" cy="0" r="3.5"/>
                <g id="zoomPlus">
                        <use xlink:href="#rim" fill="#404040">
                                <set attributeName="fill" to="#808080" begin="zoomplus.mouseover" end="zoomplus.mouseout"/>
                        </use>
                        <path d="M-4,0h8M0,-4v8" fill="none" stroke="white" stroke-width="1.5" pointer-events="none"/>
                </g>
                <g id="zoomMin">
                        <use xlink:href="#rim" fill="#404040">
                                <set attributeName="fill" to="#808080" begin="zoomminus.mouseover" end="zoomminus.mouseout"/>
                        </use>
                        <path d="M-4,0h8" fill="none" stroke="white" stroke-width="1.5" pointer-events="none"/>
                </g>
                <g id="dirArrow">
                        <path fill="none" stroke="white" stroke-width="1.5" d="M0,-3.0v7 M-2.5,-0.5L0,-3.0L2.5,-0.5"/>
                </g>
               <g id="resetDef">
                       <use xlink:href="#rim2" fill="#404040">
                               <set attributeName="fill" to="#808080" begin="reset.mouseover" end="reset.mouseout"/>
                       </use>
               </g>
        </defs>

<script type="text/javascript">
var viewWidth = 1354;
var viewHeight = 727;
var sectionId = 'dynsection-1';
</script>
<script xlink:href="svgpan.js"/>
<svg id="graph" class="graph">
<g id="viewport">
<title>CMainFrame</title>
<polygon fill="white" stroke="white" points="-4,4 -4,-723 1350,-723 1350,4 -4,4"/>
<!-- Node1 -->
<g id="node1" class="node"><title>Node1</title>
<polygon fill="#bfbfbf" stroke="black" points="1274,-554.5 1274,-573.5 1346,-573.5 1346,-554.5 1274,-554.5"/>
<text text-anchor="middle" x="1310" y="-561.5" font-family="Arial" font-size="10.00">CMainFrame</text>
</g>
<!-- Node2 -->
<g id="node2" class="node"><title>Node2</title>
<polygon fill="white" stroke="#bfbfbf" points="1052.5,-699.5 1052.5,-718.5 1123.5,-718.5 1123.5,-699.5 1052.5,-699.5"/>
<text text-anchor="middle" x="1088" y="-706.5" font-family="Arial" font-size="10.00">CFrameWnd</text>
</g>
<!-- Node2&#45;&gt;Node1 -->
<g id="edge1" class="edge"><title>Node2&#45;&gt;Node1</title>
<path fill="none" stroke="midnightblue" d="M1134.07,-713.439C1170.53,-714.607 1221.32,-710.462 1256,-684 1292.76,-655.956 1304.55,-596.932 1307.85,-573.695"/>
<polygon fill="midnightblue" stroke="midnightblue" points="1133.88,-709.927 1123.73,-712.955 1133.55,-716.919 1133.88,-709.927"/>
</g>
<!-- Node3 -->
<g id="node3" class="node"><title>Node3</title>
<g id="a_node3"><a xlink:href="class_c_z_wnd.html" target="_top" xlink:title="CZWnd">
<polygon fill="white" stroke="black" points="816.5,-661.5 816.5,-680.5 865.5,-680.5 865.5,-661.5 816.5,-661.5"/>
<text text-anchor="middle" x="841" y="-668.5" font-family="Arial" font-size="10.00">CZWnd</text>
</a>
</g>
</g>
<!-- Node3&#45;&gt;Node1 -->
<g id="edge2" class="edge"><title>Node3&#45;&gt;Node1</title>
<path fill="none" stroke="#9a32cd" stroke-dasharray="5,2" d="M875.793,-669.852C934.004,-667.18 1056.52,-658.503 1156,-631 1207.43,-616.782 1263.97,-588.39 1291.7,-573.544"/>
<polygon fill="#9a32cd" stroke="#9a32cd" points="875.533,-666.36 865.692,-670.284 875.832,-673.353 875.533,-666.36"/>
<text text-anchor="middle" x="1088" y="-659" font-family="Arial" font-size="10.00"> m_pZWnd</text>
</g>
<!-- Node4 -->
<g id="node4" class="node"><title>Node4</title>
<polygon fill="white" stroke="#bfbfbf" points="562,-623.5 562,-642.5 606,-642.5 606,-623.5 562,-623.5"/>
<text text-anchor="middle" x="584" y="-630.5" font-family="Arial" font-size="10.00">CWnd</text>
</g>
<!-- Node4&#45;&gt;Node3 -->
<g id="edge3" class="edge"><title>Node4&#45;&gt;Node3</title>
<path fill="none" stroke="midnightblue" d="M616.234,-637.655C667.939,-645.36 770.188,-660.597 816.374,-667.479"/>
<polygon fill="midnightblue" stroke="midnightblue" points="616.709,-634.187 606.303,-636.174 615.677,-641.11 616.709,-634.187"/>
</g>
<!-- Node6 -->
<g id="node6" class="node"><title>Node6</title>
<g id="a_node6"><a xlink:href="class_c_cam_wnd.html" target="_top" xlink:title="CCamWnd">
<polygon fill="white" stroke="black" points="1056,-503.5 1056,-522.5 1120,-522.5 1120,-503.5 1056,-503.5"/>
<text text-anchor="middle" x="1088" y="-510.5" font-family="Arial" font-size="10.00">CCamWnd</text>
</a>
</g>
</g>
<!-- Node4&#45;&gt;Node6 -->
<g id="edge6" class="edge"><title>Node4&#45;&gt;Node6</title>
<path fill="none" stroke="midnightblue" d="M616.565,-636.624C689.63,-643.47 873.925,-651.768 1002,-580 1031.67,-563.374 1061.88,-536.766 1077.03,-522.601"/>
<polygon fill="midnightblue" stroke="midnightblue" points="616.512,-633.101 606.214,-635.592 615.818,-640.067 616.512,-633.101"/>
</g>
<!-- Node18 -->
<g id="node18" class="node"><title>Node18</title>
<g id="a_node18"><a xlink:href="class_c_x_y_wnd.html" target="_top" xlink:title="CXYWnd">
<polygon fill="white" stroke="black" points="813,-585.5 813,-604.5 869,-604.5 869,-585.5 813,-585.5"/>
<text text-anchor="middle" x="841" y="-592.5" font-family="Arial" font-size="10.00">CXYWnd</text>
</a>
</g>
</g>
<!-- Node4&#45;&gt;Node18 -->
<g id="edge20" class="edge"><title>Node4&#45;&gt;Node18</title>
<path fill="none" stroke="midnightblue" d="M616.307,-628.335C666.775,-620.814 765.26,-606.138 812.901,-599.038"/>
<polygon fill="midnightblue" stroke="midnightblue" points="615.677,-624.89 606.303,-629.826 616.709,-631.813 615.677,-624.89"/>
</g>
<!-- Node5 -->
<g id="node5" class="node"><title>Node5</title>
<g id="a_node5"><a xlink:href="class_c_z_clip.html" target="_top" xlink:title="CZClip">
<polygon fill="white" stroke="black" points="561.5,-681.5 561.5,-700.5 606.5,-700.5 606.5,-681.5 561.5,-681.5"/>
<text text-anchor="middle" x="584" y="-688.5" font-family="Arial" font-size="10.00">CZClip</text>
</a>
</g>
</g>
<!-- Node5&#45;&gt;Node3 -->
<g id="edge4" class="edge"><title>Node5&#45;&gt;Node3</title>
<path fill="none" stroke="#9a32cd" stroke-dasharray="5,2" d="M616.721,-688.512C668.617,-684.442 770.486,-676.452 816.478,-672.845"/>
<polygon fill="#9a32cd" stroke="#9a32cd" points="616.437,-685.024 606.741,-689.295 616.984,-692.002 616.437,-685.024"/>
<text text-anchor="middle" x="712" y="-686" font-family="Arial" font-size="10.00"> m_pZClip</text>
</g>
<!-- Node6&#45;&gt;Node1 -->
<g id="edge5" class="edge"><title>Node6&#45;&gt;Node1</title>
<path fill="none" stroke="#9a32cd" stroke-dasharray="5,2" d="M1129.81,-522.461C1171.17,-532.048 1234.49,-546.728 1273.74,-555.826"/>
<polygon fill="#9a32cd" stroke="#9a32cd" points="1130.59,-519.048 1120.05,-520.199 1129.01,-525.867 1130.59,-519.048"/>
<text text-anchor="middle" x="1215" y="-554" font-family="Arial" font-size="10.00"> m_pCamWnd</text>
</g>
<!-- Node7 -->
<g id="node7" class="node"><title>Node7</title>
<g id="a_node7"><a xlink:href="structface__s.html" target="_top" xlink:title="face_s">
<polygon fill="white" stroke="black" points="818.5,-216.5 818.5,-235.5 863.5,-235.5 863.5,-216.5 818.5,-216.5"/>
<text text-anchor="middle" x="841" y="-223.5" font-family="Arial" font-size="10.00">face_s</text>
</a>
</g>
</g>
<!-- Node7&#45;&gt;Node6 -->
<g id="edge7" class="edge"><title>Node7&#45;&gt;Node6</title>
<path fill="none" stroke="#9a32cd" stroke-dasharray="5,2" d="M873.569,-230.181C909.235,-236.492 966.876,-251.717 1002,-287 1066.18,-351.467 1082.63,-469.028 1086.15,-503.351"/>
<polygon fill="#9a32cd" stroke="#9a32cd" points="874.126,-226.726 863.692,-228.562 872.994,-233.634 874.126,-226.726"/>
<text text-anchor="middle" x="965" y="-290" font-family="Arial" font-size="10.00"> m_pSide_select</text>
</g>
<!-- Node7&#45;&gt;Node7 -->
<g id="edge8" class="edge"><title>Node7&#45;&gt;Node7</title>
<path fill="none" stroke="#9a32cd" stroke-dasharray="5,2" d="M817.935,-245.029C819.193,-250.128 826.881,-254 841,-254 863.039,-254 869.41,-244.565 860.112,-235.757"/>
<polygon fill="#9a32cd" stroke="#9a32cd" points="821.185,-246.329 821.888,-235.757 814.746,-243.583 821.185,-246.329"/>
<text text-anchor="middle" x="841" y="-268" font-family="Arial" font-size="10.00"> original</text>
<text text-anchor="middle" x="841" y="-257" font-family="Arial" font-size="10.00">next</text>
</g>
<!-- Node8 -->
<g id="node8" class="node"><title>Node8</title>
<g id="a_node8"><a xlink:href="classid_winding.html" target="_top" xlink:title="idWinding">
<polygon fill="white" stroke="black" points="554.5,-126.5 554.5,-145.5 613.5,-145.5 613.5,-126.5 554.5,-126.5"/>
<text text-anchor="middle" x="584" y="-133.5" font-family="Arial" font-size="10.00">idWinding</text>
</a>
</g>
</g>
<!-- Node8&#45;&gt;Node7 -->
<g id="edge9" class="edge"><title>Node8&#45;&gt;Node7</title>
<path fill="none" stroke="#9a32cd" stroke-dasharray="5,2" d="M623.954,-137.048C659.15,-139.182 711.755,-145.371 754,-163 784.745,-175.83 814.772,-201.764 829.891,-216.032"/>
<polygon fill="#9a32cd" stroke="#9a32cd" points="623.79,-133.535 613.621,-136.508 623.424,-140.525 623.79,-133.535"/>
<text text-anchor="middle" x="712" y="-166" font-family="Arial" font-size="10.00"> face_winding</text>
</g>
<!-- Node9 -->
<g id="node9" class="node"><title>Node9</title>
<g id="a_node9"><a xlink:href="classid_vec5.html" target="_top" xlink:title="idVec5">
<polygon fill="white" stroke="black" points="354.5,-126.5 354.5,-145.5 401.5,-145.5 401.5,-126.5 354.5,-126.5"/>
<text text-anchor="middle" x="378" y="-133.5" font-family="Arial" font-size="10.00">idVec5</text>
</a>
</g>
</g>
<!-- Node9&#45;&gt;Node8 -->
<g id="edge10" class="edge"><title>Node9&#45;&gt;Node8</title>
<path fill="none" stroke="#9a32cd" stroke-dasharray="5,2" d="M411.765,-136C451.234,-136 516.9,-136 554.406,-136"/>
<polygon fill="#9a32cd" stroke="#9a32cd" points="411.611,-132.5 401.611,-136 411.611,-139.5 411.611,-132.5"/>
<text text-anchor="middle" x="479" y="-139" font-family="Arial" font-size="10.00"> p</text>
</g>
<!-- Node10 -->
<g id="node10" class="node"><title>Node10</title>
<g id="a_node10"><a xlink:href="classbrushprimit__texdef__t.html" target="_top" xlink:title="brushprimit_texdef_t">
<polygon fill="white" stroke="black" points="532,-279.5 532,-298.5 636,-298.5 636,-279.5 532,-279.5"/>
<text text-anchor="middle" x="584" y="-286.5" font-family="Arial" font-size="10.00">brushprimit_texdef_t</text>
</a>
</g>
</g>
<!-- Node10&#45;&gt;Node7 -->
<g id="edge11" class="edge"><title>Node10&#45;&gt;Node7</title>
<path fill="none" stroke="#9a32cd" stroke-dasharray="5,2" d="M646.386,-280.39C678.713,-275.192 718.838,-267.687 754,-258 776.423,-251.823 801.242,-242.283 818.431,-235.226"/>
<polygon fill="#9a32cd" stroke="#9a32cd" points="645.515,-276.984 636.18,-281.996 646.603,-283.899 645.515,-276.984"/>
<text text-anchor="middle" x="712" y="-280" font-family="Arial" font-size="10.00"> brushprimit_texdef</text>
</g>
<!-- Node11 -->
<g id="node11" class="node"><title>Node11</title>
<g id="a_node11"><a xlink:href="classtexdef__t.html" target="_top" xlink:title="texdef_t">
<polygon fill="white" stroke="black" points="558.5,-241.5 558.5,-260.5 609.5,-260.5 609.5,-241.5 558.5,-241.5"/>
<text text-anchor="middle" x="584" y="-248.5" font-family="Arial" font-size="10.00">texdef_t</text>
</a>
</g>
</g>
<!-- Node11&#45;&gt;Node7 -->
<g id="edge12" class="edge"><title>Node11&#45;&gt;Node7</title>
<path fill="none" stroke="#9a32cd" stroke-dasharray="5,2" d="M619.957,-247.573C673.462,-242.327 774.103,-232.46 818.278,-228.13"/>
<polygon fill="#9a32cd" stroke="#9a32cd" points="619.526,-244.098 609.915,-248.557 620.209,-251.065 619.526,-244.098"/>
<text text-anchor="middle" x="712" y="-246" font-family="Arial" font-size="10.00"> texdef</text>
</g>
<!-- Node12 -->
<g id="node12" class="node"><title>Node12</title>
<g id="a_node12"><a xlink:href="classid_plane.html" target="_top" xlink:title="idPlane">
<polygon fill="white" stroke="black" points="559.5,-202.5 559.5,-221.5 608.5,-221.5 608.5,-202.5 559.5,-202.5"/>
<text text-anchor="middle" x="584" y="-209.5" font-family="Arial" font-size="10.00">idPlane</text>
</a>
</g>
</g>
<!-- Node12&#45;&gt;Node7 -->
<g id="edge13" class="edge"><title>Node12&#45;&gt;Node7</title>
<path fill="none" stroke="#9a32cd" stroke-dasharray="5,2" d="M618.951,-208.68C653.147,-205.926 707.375,-203.173 754,-208 776.153,-210.293 801.009,-215.826 818.281,-220.156"/>
<polygon fill="#9a32cd" stroke="#9a32cd" points="618.253,-205.226 608.587,-209.564 618.848,-212.201 618.253,-205.226"/>
<text text-anchor="middle" x="712" y="-222" font-family="Arial" font-size="10.00"> plane</text>
<text text-anchor="middle" x="712" y="-211" font-family="Arial" font-size="10.00">originalPlane</text>
</g>
<!-- Node13 -->
<g id="node13" class="node"><title>Node13</title>
<g id="a_node13"><a xlink:href="classid_vec3.html" target="_top" xlink:title="idVec3">
<polygon fill="white" stroke="black" points="560.5,-476.5 560.5,-495.5 607.5,-495.5 607.5,-476.5 560.5,-476.5"/>
<text text-anchor="middle" x="584" y="-483.5" font-family="Arial" font-size="10.00">idVec3</text>
</a>
</g>
</g>
<!-- Node13&#45;&gt;Node6 -->
<g id="edge23" class="edge"><title>Node13&#45;&gt;Node6</title>
<path fill="none" stroke="#9a32cd" stroke-dasharray="5,2" d="M609.865,-500.472C626.325,-509.191 648.724,-519.461 670,-524 706.512,-531.79 719.705,-538.752 754,-524 764.686,-519.404 761.314,-509.596 772,-505 828.342,-480.765 848.682,-503.615 910,-505 961.203,-506.157 1020.67,-509.193 1056,-511.174"/>
<polygon fill="#9a32cd" stroke="#9a32cd" points="611.366,-497.303 600.914,-495.572 608.005,-503.443 611.366,-497.303"/>
<text text-anchor="middle" x="841" y="-530" font-family="Arial" font-size="10.00"> saveOrg</text>
<text text-anchor="middle" x="841" y="-519" font-family="Arial" font-size="10.00">m_vCull1</text>
<text text-anchor="middle" x="841" y="-508" font-family="Arial" font-size="10.00">m_vCull2</text>
</g>
<!-- Node13&#45;&gt;Node7 -->
<g id="edge14" class="edge"><title>Node13&#45;&gt;Node7</title>
<path fill="none" stroke="#9a32cd" stroke-dasharray="5,2" d="M596.869,-468.068C611.723,-446.848 639.011,-411.669 670,-390 702.872,-367.015 727.267,-386.904 754,-357 774.55,-334.012 756.172,-316.461 772,-290 785.815,-266.905 810.306,-246.851 825.818,-235.605"/>
<polygon fill="#9a32cd" stroke="#9a32cd" points="593.871,-466.251 591.119,-476.483 599.65,-470.201 593.871,-466.251"/>
<text text-anchor="middle" x="712" y="-415" font-family="Arial" font-size="10.00"> planepts</text>
<text text-anchor="middle" x="712" y="-404" font-family="Arial" font-size="10.00">d_color</text>
<text text-anchor="middle" x="712" y="-393" font-family="Arial" font-size="10.00">orgplanepts</text>
</g>
<!-- Node13&#45;&gt;Node18 -->
<g id="edge21" class="edge"><title>Node13&#45;&gt;Node18</title>
<path fill="none" stroke="#9a32cd" stroke-dasharray="5,2" d="M602.834,-502.361C619.192,-516.565 644.661,-536.727 670,-549 717.605,-572.057 778.505,-584.959 812.99,-590.9"/>
<polygon fill="#9a32cd" stroke="#9a32cd" points="604.961,-499.57 595.159,-495.55 600.315,-504.805 604.961,-499.57"/>
<text text-anchor="middle" x="712" y="-591" font-family="Arial" font-size="10.00"> m_vOrigin</text>
<text text-anchor="middle" x="712" y="-580" font-family="Arial" font-size="10.00">m_vPressdelta</text>
</g>
<!-- Node20 -->
<g id="node20" class="node"><title>Node20</title>
<g id="a_node20"><a xlink:href="structcamera__t.html" target="_top" xlink:title="camera_t">
<polygon fill="white" stroke="black" points="812.5,-425.5 812.5,-444.5 869.5,-444.5 869.5,-425.5 812.5,-425.5"/>
<text text-anchor="middle" x="841" y="-432.5" font-family="Arial" font-size="10.00">camera_t</text>
</a>
</g>
</g>
<!-- Node13&#45;&gt;Node20 -->
<g id="edge26" class="edge"><title>Node13&#45;&gt;Node20</title>
<path fill="none" stroke="#9a32cd" stroke-dasharray="5,2" d="M604.973,-470.115C621.373,-458.139 645.767,-442.675 670,-436 718.657,-422.596 778.162,-426.653 812.313,-430.824"/>
<polygon fill="#9a32cd" stroke="#9a32cd" points="602.609,-467.514 596.736,-476.332 606.826,-473.101 602.609,-467.514"/>
<text text-anchor="middle" x="712" y="-516" font-family="Arial" font-size="10.00"> forward</text>
<text text-anchor="middle" x="712" y="-505" font-family="Arial" font-size="10.00">right</text>
<text text-anchor="middle" x="712" y="-494" font-family="Arial" font-size="10.00">vright</text>
<text text-anchor="middle" x="712" y="-483" font-family="Arial" font-size="10.00">origin</text>
<text text-anchor="middle" x="712" y="-472" font-family="Arial" font-size="10.00">vup</text>
<text text-anchor="middle" x="712" y="-461" font-family="Arial" font-size="10.00">up</text>
<text text-anchor="middle" x="712" y="-450" font-family="Arial" font-size="10.00">vpn</text>
<text text-anchor="middle" x="712" y="-439" font-family="Arial" font-size="10.00">color</text>
</g>
<!-- Node14 -->
<g id="node14" class="node"><title>Node14</title>
<g id="a_node14"><a xlink:href="classid_material.html" target="_top" xlink:title="idMaterial">
<polygon fill="white" stroke="black" points="554.5,-164.5 554.5,-183.5 613.5,-183.5 613.5,-164.5 554.5,-164.5"/>
<text text-anchor="middle" x="584" y="-171.5" font-family="Arial" font-size="10.00">idMaterial</text>
</a>
</g>
</g>
<!-- Node14&#45;&gt;Node7 -->
<g id="edge15" class="edge"><title>Node14&#45;&gt;Node7</title>
<path fill="none" stroke="#9a32cd" stroke-dasharray="5,2" d="M623.688,-174.757C658.293,-176.171 710.168,-180.116 754,-191 777.936,-196.943 803.98,-208.284 821.062,-216.448"/>
<polygon fill="#9a32cd" stroke="#9a32cd" points="623.649,-171.253 613.531,-174.395 623.4,-178.249 623.649,-171.253"/>
<text text-anchor="middle" x="712" y="-194" font-family="Arial" font-size="10.00"> d_texture</text>
</g>
<!-- Node15 -->
<g id="node15" class="node"><title>Node15</title>
<g id="a_node15"><a xlink:href="classid_decl.html" target="_top" xlink:title="idDecl">
<polygon fill="white" stroke="black" points="356,-164.5 356,-183.5 400,-183.5 400,-164.5 356,-164.5"/>
<text text-anchor="middle" x="378" y="-171.5" font-family="Arial" font-size="10.00">idDecl</text>
</a>
</g>
</g>
<!-- Node15&#45;&gt;Node14 -->
<g id="edge16" class="edge"><title>Node15&#45;&gt;Node14</title>
<path fill="none" stroke="midnightblue" d="M410.107,-174C449.315,-174 516.174,-174 554.24,-174"/>
<polygon fill="midnightblue" stroke="midnightblue" points="410.063,-170.5 400.063,-174 410.063,-177.5 410.063,-170.5"/>
</g>
<!-- Node16 -->
<g id="node16" class="node"><title>Node16</title>
<g id="a_node16"><a xlink:href="classid_decl_base.html" target="_top" xlink:title="idDeclBase">
<polygon fill="white" stroke="black" points="171,-164.5 171,-183.5 237,-183.5 237,-164.5 171,-164.5"/>
<text text-anchor="middle" x="204" y="-171.5" font-family="Arial" font-size="10.00">idDeclBase</text>
</a>
</g>
</g>
<!-- Node16&#45;&gt;Node15 -->
<g id="edge17" class="edge"><title>Node16&#45;&gt;Node15</title>
<path fill="none" stroke="#9a32cd" stroke-dasharray="5,2" d="M247.569,-174C281.903,-174 328.759,-174 355.656,-174"/>
<polygon fill="#9a32cd" stroke="#9a32cd" points="247.352,-170.5 237.352,-174 247.352,-177.5 247.352,-170.5"/>
<text text-anchor="middle" x="283" y="-177" font-family="Arial" font-size="10.00"> base</text>
</g>
<!-- Node17 -->
<g id="node17" class="node"><title>Node17</title>
<g id="a_node17"><a xlink:href="classid_render_model.html" target="_top" xlink:title="idRenderModel">
<polygon fill="white" stroke="black" points="800.5,-547.5 800.5,-566.5 881.5,-566.5 881.5,-547.5 800.5,-547.5"/>
<text text-anchor="middle" x="841" y="-554.5" font-family="Arial" font-size="10.00">idRenderModel</text>
</a>
</g>
</g>
<!-- Node17&#45;&gt;Node6 -->
<g id="edge18" class="edge"><title>Node17&#45;&gt;Node6</title>
<path fill="none" stroke="#9a32cd" stroke-dasharray="5,2" d="M879.112,-544.176C894.134,-539.408 911.739,-534.35 928,-531 971.943,-521.948 1023.72,-517.153 1055.96,-514.847"/>
<polygon fill="#9a32cd" stroke="#9a32cd" points="877.603,-540.986 869.174,-547.406 879.766,-547.644 877.603,-540.986"/>
<text text-anchor="middle" x="965" y="-534" font-family="Arial" font-size="10.00"> worldModel</text>
</g>
<!-- Node18&#45;&gt;Node1 -->
<g id="edge27" class="edge"><title>Node18&#45;&gt;Node1</title>
<path fill="none" stroke="#9a32cd" stroke-dasharray="5,2" d="M879.194,-592.531C967.272,-586.684 1187.64,-572.056 1273.74,-566.34"/>
<polygon fill="#9a32cd" stroke="#9a32cd" points="878.873,-589.045 869.126,-593.199 879.336,-596.029 878.873,-589.045"/>
<text text-anchor="middle" x="1088" y="-619" font-family="Arial" font-size="10.00"> m_pActiveXY</text>
<text text-anchor="middle" x="1088" y="-608" font-family="Arial" font-size="10.00">m_pXZWnd</text>
<text text-anchor="middle" x="1088" y="-597" font-family="Arial" font-size="10.00">m_pYZWnd</text>
<text text-anchor="middle" x="1088" y="-586" font-family="Arial" font-size="10.00">m_pXYWnd</text>
</g>
<!-- Node18&#45;&gt;Node6 -->
<g id="edge19" class="edge"><title>Node18&#45;&gt;Node6</title>
<path fill="none" stroke="#9a32cd" stroke-dasharray="5,2" d="M878.993,-586.656C889.236,-583.813 900.222,-580.256 910,-576 918.597,-572.258 919.458,-568.865 928,-565 959.378,-550.801 969.254,-552.673 1002,-542 1021.27,-535.719 1042.89,-528.339 1059.5,-522.595"/>
<polygon fill="#9a32cd" stroke="#9a32cd" points="877.854,-583.336 869.07,-589.259 879.631,-590.107 877.854,-583.336"/>
<text text-anchor="middle" x="965" y="-568" font-family="Arial" font-size="10.00"> m_pXYFriend</text>
</g>
<!-- Node19 -->
<g id="node19" class="node"><title>Node19</title>
<g id="a_node19"><a xlink:href="classid_angles.html" target="_top" xlink:title="idAngles">
<polygon fill="white" stroke="black" points="557,-326.5 557,-345.5 611,-345.5 611,-326.5 557,-326.5"/>
<text text-anchor="middle" x="584" y="-333.5" font-family="Arial" font-size="10.00">idAngles</text>
</a>
</g>
</g>
<!-- Node19&#45;&gt;Node6 -->
<g id="edge22" class="edge"><title>Node19&#45;&gt;Node6</title>
<path fill="none" stroke="#9a32cd" stroke-dasharray="5,2" d="M621.247,-327.985C655.811,-321.713 709.101,-315.631 754,-326 873.497,-353.597 897.901,-382.159 1002,-447 1030.39,-464.681 1060.63,-489.904 1076.26,-503.478"/>
<polygon fill="#9a32cd" stroke="#9a32cd" points="620.314,-324.6 611.152,-329.92 621.632,-331.475 620.314,-324.6"/>
<text text-anchor="middle" x="841" y="-391" font-family="Arial" font-size="10.00"> saveAng</text>
</g>
<!-- Node19&#45;&gt;Node20 -->
<g id="edge25" class="edge"><title>Node19&#45;&gt;Node20</title>
<path fill="none" stroke="#9a32cd" stroke-dasharray="5,2" d="M621.387,-330.787C656.909,-327.348 711.646,-326.534 754,-346 792.07,-363.498 822.041,-405.978 834.163,-425.229"/>
<polygon fill="#9a32cd" stroke="#9a32cd" points="620.576,-327.354 611.014,-331.919 621.335,-334.313 620.576,-327.354"/>
<text text-anchor="middle" x="712" y="-349" font-family="Arial" font-size="10.00"> angles</text>
</g>
<!-- Node20&#45;&gt;Node6 -->
<g id="edge24" class="edge"><title>Node20&#45;&gt;Node6</title>
<path fill="none" stroke="#9a32cd" stroke-dasharray="5,2" d="M879.828,-440.895C912.705,-446.631 961.31,-456.601 1002,-471 1026.83,-479.786 1053.82,-493.996 1070.58,-503.417"/>
<polygon fill="#9a32cd" stroke="#9a32cd" points="880.18,-437.404 869.736,-439.18 879.008,-444.306 880.18,-437.404"/>
<text text-anchor="middle" x="965" y="-474" font-family="Arial" font-size="10.00"> m_Camera</text>
</g>
<!-- Node21 -->
<g id="node21" class="node"><title>Node21</title>
<g id="a_node21"><a xlink:href="classid_curve___n_u_r_b_s.html" target="_top" xlink:title="idCurve_NURBS\&lt; idVec2 \&gt;">
<polygon fill="white" stroke="black" points="1020.5,-88.5 1020.5,-107.5 1155.5,-107.5 1155.5,-88.5 1020.5,-88.5"/>
<text text-anchor="middle" x="1088" y="-95.5" font-family="Arial" font-size="10.00">idCurve_NURBS&lt; idVec2 &gt;</text>
</a>
</g>
</g>
<!-- Node21&#45;&gt;Node1 -->
<g id="edge28" class="edge"><title>Node21&#45;&gt;Node1</title>
<path fill="none" stroke="#9a32cd" stroke-dasharray="5,2" d="M1097.96,-116.975C1135.2,-195.858 1277.1,-496.43 1304.43,-554.32"/>
<polygon fill="#9a32cd" stroke="#9a32cd" points="1101.03,-115.282 1093.6,-107.733 1094.7,-118.27 1101.03,-115.282"/>
<text text-anchor="middle" x="1215" y="-455" font-family="Arial" font-size="10.00"> nurb</text>
</g>
<!-- Node22 -->
<g id="node22" class="node"><title>Node22</title>
<g id="a_node22"><a xlink:href="classid_curve___non_uniform_b_spline.html" target="_top" xlink:title="idCurve_NonUniformBSpline\l\&lt; idVec2 \&gt;">
<polygon fill="white" stroke="black" points="772.5,-39 772.5,-69 909.5,-69 909.5,-39 772.5,-39"/>
<text text-anchor="start" x="780.5" y="-57" font-family="Arial" font-size="10.00">idCurve_NonUniformBSpline</text>
<text text-anchor="middle" x="841" y="-46" font-family="Arial" font-size="10.00">&lt; idVec2 &gt;</text>
</a>
</g>
</g>
<!-- Node22&#45;&gt;Node21 -->
<g id="edge29" class="edge"><title>Node22&#45;&gt;Node21</title>
<path fill="none" stroke="midnightblue" d="M919.907,-67.9914C957.111,-74.6729 1000.67,-82.4957 1033.98,-88.4787"/>
<polygon fill="midnightblue" stroke="midnightblue" points="920.057,-64.4625 909.596,-66.1397 918.82,-71.3523 920.057,-64.4625"/>
</g>
<!-- Node23 -->
<g id="node23" class="node"><title>Node23</title>
<g id="a_node23"><a xlink:href="classid_curve___b_spline.html" target="_top" xlink:title="idCurve_BSpline\&lt; idVec2 \&gt;">
<polygon fill="white" stroke="black" points="516.5,-44.5 516.5,-63.5 651.5,-63.5 651.5,-44.5 516.5,-44.5"/>
<text text-anchor="middle" x="584" y="-51.5" font-family="Arial" font-size="10.00">idCurve_BSpline&lt; idVec2 &gt;</text>
</a>
</g>
</g>
<!-- Node23&#45;&gt;Node22 -->
<g id="edge30" class="edge"><title>Node23&#45;&gt;Node22</title>
<path fill="none" stroke="midnightblue" d="M661.894,-54C697.083,-54 738.411,-54 772.394,-54"/>
<polygon fill="midnightblue" stroke="midnightblue" points="661.665,-50.5001 651.665,-54 661.665,-57.5001 661.665,-50.5001"/>
</g>
<!-- Node24 -->
<g id="node24" class="node"><title>Node24</title>
<g id="a_node24"><a xlink:href="classid_curve___spline.html" target="_top" xlink:title="idCurve_Spline\&lt; idVec2 \&gt;">
<polygon fill="white" stroke="black" points="314,-44.5 314,-63.5 442,-63.5 442,-44.5 314,-44.5"/>
<text text-anchor="middle" x="378" y="-51.5" font-family="Arial" font-size="10.00">idCurve_Spline&lt; idVec2 &gt;</text>
</a>
</g>
</g>
<!-- Node24&#45;&gt;Node23 -->
<g id="edge31" class="edge"><title>Node24&#45;&gt;Node23</title>
<path fill="none" stroke="midnightblue" d="M452.248,-54C473.139,-54 495.782,-54 516.263,-54"/>
<polygon fill="midnightblue" stroke="midnightblue" points="452.15,-50.5001 442.15,-54 452.15,-57.5001 452.15,-50.5001"/>
</g>
<!-- Node25 -->
<g id="node25" class="node"><title>Node25</title>
<g id="a_node25"><a xlink:href="classid_curve.html" target="_top" xlink:title="idCurve\&lt; idVec2 \&gt;">
<polygon fill="white" stroke="black" points="156,-44.5 156,-63.5 252,-63.5 252,-44.5 156,-44.5"/>
<text text-anchor="middle" x="204" y="-51.5" font-family="Arial" font-size="10.00">idCurve&lt; idVec2 &gt;</text>
</a>
</g>
</g>
<!-- Node25&#45;&gt;Node24 -->
<g id="edge32" class="edge"><title>Node25&#45;&gt;Node24</title>
<path fill="none" stroke="midnightblue" d="M262.503,-54C279.008,-54 297.093,-54 313.916,-54"/>
<polygon fill="midnightblue" stroke="midnightblue" points="262.455,-50.5001 252.455,-54 262.455,-57.5001 262.455,-50.5001"/>
</g>
<!-- Node26 -->
<g id="node26" class="node"><title>Node26</title>
<g id="a_node26"><a xlink:href="classid_list.html" target="_top" xlink:title="idList\&lt; float \&gt;">
<polygon fill="white" stroke="black" points="6,-77.5 6,-96.5 82,-96.5 82,-77.5 6,-77.5"/>
<text text-anchor="middle" x="44" y="-84.5" font-family="Arial" font-size="10.00">idList&lt; float &gt;</text>
</a>
</g>
</g>
<!-- Node26&#45;&gt;Node21 -->
<g id="edge35" class="edge"><title>Node26&#45;&gt;Node21</title>
<path fill="none" stroke="#9a32cd" stroke-dasharray="5,2" d="M92.4977,-92.0355C123.837,-94.9313 165.82,-98 203,-98 203,-98 203,-98 842,-98 902.399,-98 971.174,-98 1020.45,-98"/>
<polygon fill="#9a32cd" stroke="#9a32cd" points="92.5865,-88.5282 82.2998,-91.0647 91.9231,-95.4967 92.5865,-88.5282"/>
<text text-anchor="middle" x="479" y="-101" font-family="Arial" font-size="10.00"> weights</text>
</g>
<!-- Node26&#45;&gt;Node25 -->
<g id="edge33" class="edge"><title>Node26&#45;&gt;Node25</title>
<path fill="none" stroke="#9a32cd" stroke-dasharray="5,2" d="M91.81,-76.0958C96.5981,-75.0287 101.393,-73.9795 106,-73 122.114,-69.5737 139.783,-66.0452 155.575,-62.9731"/>
<polygon fill="#9a32cd" stroke="#9a32cd" points="91.0401,-72.6815 82.0546,-78.295 92.5795,-79.5101 91.0401,-72.6815"/>
<text text-anchor="middle" x="122" y="-76" font-family="Arial" font-size="10.00"> times</text>
</g>
<!-- Node27 -->
<g id="node27" class="node"><title>Node27</title>
<g id="a_node27"><a xlink:href="classid_list.html" target="_top" xlink:title="idList\&lt; idVec2 \&gt;">
<polygon fill="white" stroke="black" points="0,-28.5 0,-47.5 88,-47.5 88,-28.5 0,-28.5"/>
<text text-anchor="middle" x="44" y="-35.5" font-family="Arial" font-size="10.00">idList&lt; idVec2 &gt;</text>
</a>
</g>
</g>
<!-- Node27&#45;&gt;Node25 -->
<g id="edge34" class="edge"><title>Node27&#45;&gt;Node25</title>
<path fill="none" stroke="#9a32cd" stroke-dasharray="5,2" d="M98.3918,-36.5999C111.387,-36.8028 125.222,-37.4752 138,-39 147.775,-40.1665 158.224,-42.212 167.823,-44.4243"/>
<polygon fill="#9a32cd" stroke="#9a32cd" points="98.2092,-33.0987 88.1856,-36.5306 98.1616,-40.0985 98.2092,-33.0987"/>
<text text-anchor="middle" x="122" y="-42" font-family="Arial" font-size="10.00"> values</text>
</g>
<!-- Node28 -->
<g id="node28" class="node"><title>Node28</title>
<g id="a_node28"><a xlink:href="class_c_texture_bar.html" target="_top" xlink:title="CTextureBar">
<polygon fill="white" stroke="black" points="1052.5,-25.5 1052.5,-44.5 1123.5,-44.5 1123.5,-25.5 1052.5,-25.5"/>
<text text-anchor="middle" x="1088" y="-32.5" font-family="Arial" font-size="10.00">CTextureBar</text>
</a>
</g>
</g>
<!-- Node28&#45;&gt;Node1 -->
<g id="edge36" class="edge"><title>Node28&#45;&gt;Node1</title>
<path fill="none" stroke="#9a32cd" stroke-dasharray="5,2" d="M1118.11,-49.6383C1130.9,-57.1221 1145.39,-67.1588 1156,-79 1221.27,-151.825 1224.63,-182.375 1256,-275 1291.84,-380.808 1305.15,-517.083 1308.24,-554.265"/>
<polygon fill="#9a32cd" stroke="#9a32cd" points="1119.62,-46.4702 1109.18,-44.6507 1116.2,-52.582 1119.62,-46.4702"/>
<text text-anchor="middle" x="1215" y="-278" font-family="Arial" font-size="10.00"> m_wndTextureBar</text>
</g>
<!-- Node29 -->
<g id="node29" class="node"><title>Node29</title>
<polygon fill="white" stroke="#bfbfbf" points="808.5,-0.5 808.5,-19.5 873.5,-19.5 873.5,-0.5 808.5,-0.5"/>
<text text-anchor="middle" x="841" y="-7.5" font-family="Arial" font-size="10.00">CDialogBar</text>
</g>
<!-- Node29&#45;&gt;Node28 -->
<g id="edge37" class="edge"><title>Node29&#45;&gt;Node28</title>
<path fill="none" stroke="midnightblue" d="M883.489,-14.2335C931.015,-19.0831 1008.03,-26.9417 1052.44,-31.4732"/>
<polygon fill="midnightblue" stroke="midnightblue" points="883.832,-10.7504 873.528,-13.2171 883.121,-17.7143 883.832,-10.7504"/>
</g>
</g>
</svg>
        <g id="navigator" transform="translate(0 0)" fill="#404254">
                <rect fill="#f2f5e9" fill-opacity="0.5" stroke="#606060" stroke-width=".5" x="0" y="0" width="60" height="60"/>
                <use id="zoomplus" xlink:href="#zoomPlus" x="17" y="9" onmousedown="handleZoom(evt,'in')"/>
                <use id="zoomminus" xlink:href="#zoomMin" x="42" y="9" onmousedown="handleZoom(evt,'out')"/>
                <use id="reset" xlink:href="#resetDef" x="30" y="36" onmousedown="handleReset()"/>
                <g id="arrowUp" xlink:href="#dirArrow" transform="translate(30 24)" onmousedown="handlePan(0,-1)">
                  <use xlink:href="#rim" fill="#404040">
                        <set attributeName="fill" to="#808080" begin="arrowUp.mouseover" end="arrowUp.mouseout"/>
                  </use>
                  <path fill="none" stroke="white" stroke-width="1.5" d="M0,-3.0v7 M-2.5,-0.5L0,-3.0L2.5,-0.5"/>
                </g>
                <g id="arrowRight" xlink:href="#dirArrow" transform="rotate(90) translate(36 -43)" onmousedown="handlePan(1,0)">
                  <use xlink:href="#rim" fill="#404040">
                        <set attributeName="fill" to="#808080" begin="arrowRight.mouseover" end="arrowRight.mouseout"/>
                  </use>
                  <path fill="none" stroke="white" stroke-width="1.5" d="M0,-3.0v7 M-2.5,-0.5L0,-3.0L2.5,-0.5"/>
                </g>
                <g id="arrowDown" xlink:href="#dirArrow" transform="rotate(180) translate(-30 -48)" onmousedown="handlePan(0,1)">
                  <use xlink:href="#rim" fill="#404040">
                        <set attributeName="fill" to="#808080" begin="arrowDown.mouseover" end="arrowDown.mouseout"/>
                  </use>
                  <path fill="none" stroke="white" stroke-width="1.5" d="M0,-3.0v7 M-2.5,-0.5L0,-3.0L2.5,-0.5"/>
                </g>
                <g id="arrowLeft" xlink:href="#dirArrow" transform="rotate(270) translate(-36 17)" onmousedown="handlePan(-1,0)">
                  <use xlink:href="#rim" fill="#404040">
                        <set attributeName="fill" to="#808080" begin="arrowLeft.mouseover" end="arrowLeft.mouseout"/>
                  </use>
                  <path fill="none" stroke="white" stroke-width="1.5" d="M0,-3.0v7 M-2.5,-0.5L0,-3.0L2.5,-0.5"/>
                </g>
        </g>
        <svg viewBox="0 0 15 15" width="100%" height="30px" preserveAspectRatio="xMaxYMin meet">
         <g id="arrow_out" transform="scale(0.3 0.3)">
          <a xlink:href="class_c_main_frame__coll__graph_org.svg" target="_base">
           <rect id="button" ry="5" rx="5" y="6" x="6" height="38" width="38"
                fill="#f2f5e9" fill-opacity="0.5" stroke="#606060" stroke-width="1.0"/>
           <path id="arrow"
             d="M 11.500037,31.436501 C 11.940474,20.09759 22.043105,11.32322 32.158766,21.979434 L 37.068811,17.246167 C 37.068811,17.246167 37.088388,32 37.088388,32 L 22.160133,31.978069 C 22.160133,31.978069 26.997745,27.140456 26.997745,27.140456 C 18.528582,18.264221 13.291696,25.230495 11.500037,31.436501 z"
             style="fill:#404040;"/>
          </a>
         </g>
        </svg>
</svg>
