<?xml version="1.0" encoding="UTF-8" standalone="no"?>
<!DOCTYPE svg PUBLIC "-//W3C//DTD SVG 1.1//EN"
 "http://www.w3.org/Graphics/SVG/1.1/DTD/svg11.dtd">
<!-- Generated by graphviz version 2.34.0 (20130907.0111)
 -->
<!-- Title: idAFConstraint_Contact Pages: 1 -->
<svg width="128pt" height="84pt"
 viewBox="0.00 0.00 128.00 84.00" xmlns="http://www.w3.org/2000/svg" xmlns:xlink="http://www.w3.org/1999/xlink">
<g id="graph0" class="graph" transform="scale(1 1) rotate(0) translate(4 80)">
<title>idAFConstraint_Contact</title>
<polygon fill="white" stroke="white" points="-4,4 -4,-80 124,-80 124,4 -4,4"/>
<!-- Node1 -->
<g id="node1" class="node"><title>Node1</title>
<polygon fill="#bfbfbf" stroke="black" points="0,-0.5 0,-19.5 120,-19.5 120,-0.5 0,-0.5"/>
<text text-anchor="middle" x="60" y="-7.5" font-family="Arial" font-size="10.00">idAFConstraint_Contact</text>
</g>
<!-- Node2 -->
<g id="node2" class="node"><title>Node2</title>
<g id="a_node2"><a xlink:href="classid_a_f_constraint.html" target="_top" xlink:title="idAFConstraint">
<polygon fill="white" stroke="black" points="19.5,-56.5 19.5,-75.5 100.5,-75.5 100.5,-56.5 19.5,-56.5"/>
<text text-anchor="middle" x="60" y="-63.5" font-family="Arial" font-size="10.00">idAFConstraint</text>
</a>
</g>
</g>
<!-- Node2&#45;&gt;Node1 -->
<g id="edge1" class="edge"><title>Node2&#45;&gt;Node1</title>
<path fill="none" stroke="midnightblue" d="M53.5276,-46.1005C52.8956,-37.1357 53.3427,-26.8579 54.869,-19.7511"/>
<polygon fill="midnightblue" stroke="midnightblue" points="50.0658,-46.6216 54.8337,-56.083 57.0067,-45.7134 50.0658,-46.6216"/>
</g>
<!-- Node2&#45;&gt;Node1 -->
<g id="edge2" class="edge"><title>Node2&#45;&gt;Node1</title>
<path fill="none" stroke="midnightblue" d="M66.4724,-46.1005C67.1044,-37.1357 66.6573,-26.8579 65.131,-19.7511"/>
<polygon fill="midnightblue" stroke="midnightblue" points="62.9933,-45.7134 65.1663,-56.083 69.9342,-46.6216 62.9933,-45.7134"/>
</g>
</g>
</svg>
