<?xml version="1.0" encoding="UTF-8" standalone="no"?>
<!DOCTYPE svg PUBLIC "-//W3C//DTD SVG 1.1//EN"
 "http://www.w3.org/Graphics/SVG/1.1/DTD/svg11.dtd">
<!-- Generated by graphviz version 2.34.0 (20130907.0111)
 -->
<!-- Title: idStr Pages: 1 -->
<svg width="132pt" height="84pt"
 viewBox="0.00 0.00 132.00 84.00" xmlns="http://www.w3.org/2000/svg" xmlns:xlink="http://www.w3.org/1999/xlink">
<g id="graph0" class="graph" transform="scale(1 1) rotate(0) translate(4 80)">
<title>idStr</title>
<polygon fill="white" stroke="white" points="-4,4 -4,-80 128,-80 128,4 -4,4"/>
<!-- Node1 -->
<g id="node1" class="node"><title>Node1</title>
<polygon fill="#bfbfbf" stroke="black" points="44.5,-56.5 44.5,-75.5 81.5,-75.5 81.5,-56.5 44.5,-56.5"/>
<text text-anchor="middle" x="63" y="-63.5" font-family="Arial" font-size="10.00">idStr</text>
</g>
<!-- Node2 -->
<g id="node2" class="node"><title>Node2</title>
<g id="a_node2"><a xlink:href="classid_pool_str.html" target="_top" xlink:title="idPoolStr">
<polygon fill="white" stroke="black" points="0,-0.5 0,-19.5 56,-19.5 56,-0.5 0,-0.5"/>
<text text-anchor="middle" x="28" y="-7.5" font-family="Arial" font-size="10.00">idPoolStr</text>
</a>
</g>
</g>
<!-- Node1&#45;&gt;Node2 -->
<g id="edge1" class="edge"><title>Node1&#45;&gt;Node2</title>
<path fill="none" stroke="midnightblue" d="M51.6999,-47.5656C45.6781,-38.2747 38.5314,-27.2484 33.672,-19.7511"/>
<polygon fill="midnightblue" stroke="midnightblue" points="48.8444,-49.5951 57.2205,-56.083 54.7185,-45.7878 48.8444,-49.5951"/>
</g>
<!-- Node3 -->
<g id="node3" class="node"><title>Node3</title>
<g id="a_node3"><a xlink:href="classid_token.html" target="_top" xlink:title="idToken">
<polygon fill="white" stroke="black" points="74,-0.5 74,-19.5 124,-19.5 124,-0.5 74,-0.5"/>
<text text-anchor="middle" x="99" y="-7.5" font-family="Arial" font-size="10.00">idToken</text>
</a>
</g>
</g>
<!-- Node1&#45;&gt;Node3 -->
<g id="edge2" class="edge"><title>Node1&#45;&gt;Node3</title>
<path fill="none" stroke="midnightblue" d="M74.6229,-47.5656C80.8168,-38.2747 88.1677,-27.2484 93.1659,-19.7511"/>
<polygon fill="midnightblue" stroke="midnightblue" points="71.5795,-45.821 68.9447,-56.083 77.4039,-49.7039 71.5795,-45.821"/>
</g>
</g>
</svg>
