<?xml version="1.0" encoding="UTF-8" standalone="no"?>
<!DOCTYPE svg PUBLIC "-//W3C//DTD SVG 1.1//EN"
 "http://www.w3.org/Graphics/SVG/1.1/DTD/svg11.dtd">
<!-- Generated by graphviz version 2.34.0 (20130907.0111)
 -->
<!-- Title: CMediaPreviewDlg Pages: 1 -->
<svg width="529pt" height="300pt"
 viewBox="0.00 0.00 529.00 300.00" xmlns="http://www.w3.org/2000/svg" xmlns:xlink="http://www.w3.org/1999/xlink">
<g id="graph0" class="graph" transform="scale(1 1) rotate(0) translate(4 296)">
<title>CMediaPreviewDlg</title>
<polygon fill="white" stroke="white" points="-4,4 -4,-296 525,-296 525,4 -4,4"/>
<!-- Node1 -->
<g id="node1" class="node"><title>Node1</title>
<polygon fill="#bfbfbf" stroke="black" points="93.5,-0.5 93.5,-19.5 190.5,-19.5 190.5,-0.5 93.5,-0.5"/>
<text text-anchor="middle" x="142" y="-7.5" font-family="Arial" font-size="10.00">CMediaPreviewDlg</text>
</g>
<!-- Node2 -->
<g id="node2" class="node"><title>Node2</title>
<polygon fill="white" stroke="#bfbfbf" points="0,-68.5 0,-87.5 50,-87.5 50,-68.5 0,-68.5"/>
<text text-anchor="middle" x="25" y="-75.5" font-family="Arial" font-size="10.00">CDialog</text>
</g>
<!-- Node2&#45;&gt;Node1 -->
<g id="edge1" class="edge"><title>Node2&#45;&gt;Node1</title>
<path fill="none" stroke="midnightblue" d="M46.7756,-62.8433C58.778,-55.213 74.0359,-45.7922 88,-38 99.7158,-31.4624 113.216,-24.7124 123.787,-19.5968"/>
<polygon fill="midnightblue" stroke="midnightblue" points="44.8366,-59.9289 38.3073,-68.2726 48.6147,-65.8217 44.8366,-59.9289"/>
</g>
<!-- Node3 -->
<g id="node3" class="node"><title>Node3</title>
<g id="a_node3"><a xlink:href="classid_str.html" target="_top" xlink:title="idStr">
<polygon fill="white" stroke="black" points="68.5,-68.5 68.5,-87.5 105.5,-87.5 105.5,-68.5 68.5,-68.5"/>
<text text-anchor="middle" x="87" y="-75.5" font-family="Arial" font-size="10.00">idStr</text>
</a>
</g>
</g>
<!-- Node3&#45;&gt;Node1 -->
<g id="edge2" class="edge"><title>Node3&#45;&gt;Node1</title>
<path fill="none" stroke="#9a32cd" stroke-dasharray="5,2" d="M89.3149,-58.4493C90.8921,-51.5103 93.5434,-43.8909 98,-38 103.948,-30.1377 112.908,-24.047 121.194,-19.6571"/>
<polygon fill="#9a32cd" stroke="#9a32cd" points="85.8408,-58.002 87.6155,-68.4472 92.7418,-59.1751 85.8408,-58.002"/>
<text text-anchor="middle" x="113" y="-41.5" font-family="Arial" font-size="10.00"> media</text>
</g>
<!-- Node4 -->
<g id="node4" class="node"><title>Node4</title>
<g id="a_node4"><a xlink:href="classid_g_l_widget.html" target="_top" xlink:title="idGLWidget">
<polygon fill="white" stroke="black" points="108,-136.5 108,-155.5 176,-155.5 176,-136.5 108,-136.5"/>
<text text-anchor="middle" x="142" y="-143.5" font-family="Arial" font-size="10.00">idGLWidget</text>
</a>
</g>
</g>
<!-- Node4&#45;&gt;Node1 -->
<g id="edge3" class="edge"><title>Node4&#45;&gt;Node1</title>
<path fill="none" stroke="#9a32cd" stroke-dasharray="5,2" d="M142,-125.992C142,-96.5227 142,-40.9856 142,-19.6503"/>
<polygon fill="#9a32cd" stroke="#9a32cd" points="138.5,-126.208 142,-136.208 145.5,-126.208 138.5,-126.208"/>
<text text-anchor="middle" x="169" y="-75.5" font-family="Arial" font-size="10.00"> wndPreview</text>
</g>
<!-- Node5 -->
<g id="node5" class="node"><title>Node5</title>
<polygon fill="white" stroke="#bfbfbf" points="110,-204.5 110,-223.5 154,-223.5 154,-204.5 110,-204.5"/>
<text text-anchor="middle" x="132" y="-211.5" font-family="Arial" font-size="10.00">CWnd</text>
</g>
<!-- Node5&#45;&gt;Node4 -->
<g id="edge4" class="edge"><title>Node5&#45;&gt;Node4</title>
<path fill="none" stroke="midnightblue" d="M134.814,-194.425C136.728,-181.798 139.172,-165.662 140.66,-155.841"/>
<polygon fill="midnightblue" stroke="midnightblue" points="131.345,-193.96 133.307,-204.372 138.266,-195.009 131.345,-193.96"/>
</g>
<!-- Node6 -->
<g id="node6" class="node"><title>Node6</title>
<g id="a_node6"><a xlink:href="classid_g_l_drawable.html" target="_top" xlink:title="idGLDrawable">
<polygon fill="white" stroke="black" points="172.5,-204.5 172.5,-223.5 249.5,-223.5 249.5,-204.5 172.5,-204.5"/>
<text text-anchor="middle" x="211" y="-211.5" font-family="Arial" font-size="10.00">idGLDrawable</text>
</a>
</g>
</g>
<!-- Node6&#45;&gt;Node1 -->
<g id="edge6" class="edge"><title>Node6&#45;&gt;Node1</title>
<path fill="none" stroke="#9a32cd" stroke-dasharray="5,2" d="M213.726,-194.026C216.974,-165.234 219.733,-109.476 200,-68 189.992,-46.9645 168.79,-29.3661 154.982,-19.5128"/>
<polygon fill="#9a32cd" stroke="#9a32cd" points="210.211,-193.92 212.413,-204.283 217.154,-194.809 210.211,-193.92"/>
<text text-anchor="middle" x="244" y="-109.5" font-family="Arial" font-size="10.00"> testDrawable</text>
</g>
<!-- Node6&#45;&gt;Node4 -->
<g id="edge5" class="edge"><title>Node6&#45;&gt;Node4</title>
<path fill="none" stroke="#9a32cd" stroke-dasharray="5,2" d="M185.28,-199.325C179.244,-195.469 173.094,-190.956 168,-186 158.669,-176.92 150.845,-163.956 146.29,-155.509"/>
<polygon fill="#9a32cd" stroke="#9a32cd" points="183.527,-202.355 193.906,-204.482 187.118,-196.347 183.527,-202.355"/>
<text text-anchor="middle" x="189" y="-177.5" font-family="Arial" font-size="10.00"> drawable</text>
</g>
<!-- Node8 -->
<g id="node8" class="node"><title>Node8</title>
<g id="a_node8"><a xlink:href="classid_g_l_drawable_world.html" target="_top" xlink:title="idGLDrawableWorld">
<polygon fill="white" stroke="black" points="257,-136.5 257,-155.5 359,-155.5 359,-136.5 257,-136.5"/>
<text text-anchor="middle" x="308" y="-143.5" font-family="Arial" font-size="10.00">idGLDrawableWorld</text>
</a>
</g>
</g>
<!-- Node6&#45;&gt;Node8 -->
<g id="edge9" class="edge"><title>Node6&#45;&gt;Node8</title>
<path fill="none" stroke="midnightblue" d="M232.114,-198.634C251.395,-185.515 279.266,-166.551 295.316,-155.63"/>
<polygon fill="midnightblue" stroke="midnightblue" points="229.98,-195.852 223.681,-204.372 233.918,-201.64 229.98,-195.852"/>
</g>
<!-- Node7 -->
<g id="node7" class="node"><title>Node7</title>
<g id="a_node7"><a xlink:href="classid_g_l_drawable_material.html" target="_top" xlink:title="idGLDrawableMaterial">
<polygon fill="white" stroke="black" points="252.5,-68.5 252.5,-87.5 363.5,-87.5 363.5,-68.5 252.5,-68.5"/>
<text text-anchor="middle" x="308" y="-75.5" font-family="Arial" font-size="10.00">idGLDrawableMaterial</text>
</a>
</g>
</g>
<!-- Node7&#45;&gt;Node1 -->
<g id="edge7" class="edge"><title>Node7&#45;&gt;Node1</title>
<path fill="none" stroke="#9a32cd" stroke-dasharray="5,2" d="M286.222,-63.1211C272.731,-54.9703 254.823,-44.9396 238,-38 219.434,-30.3415 197.983,-24.0798 180.073,-19.5215"/>
<polygon fill="#9a32cd" stroke="#9a32cd" points="284.44,-66.134 294.789,-68.4025 288.114,-60.1753 284.44,-66.134"/>
<text text-anchor="middle" x="290" y="-41.5" font-family="Arial" font-size="10.00"> drawMaterial</text>
</g>
<!-- Node8&#45;&gt;Node7 -->
<g id="edge8" class="edge"><title>Node8&#45;&gt;Node7</title>
<path fill="none" stroke="midnightblue" d="M308,-126.041C308,-113.472 308,-97.5631 308,-87.8411"/>
<polygon fill="midnightblue" stroke="midnightblue" points="304.5,-126.372 308,-136.372 311.5,-126.372 304.5,-126.372"/>
</g>
<!-- Node9 -->
<g id="node9" class="node"><title>Node9</title>
<g id="a_node9"><a xlink:href="classid_render_world.html" target="_top" xlink:title="idRenderWorld">
<polygon fill="white" stroke="black" points="268,-204.5 268,-223.5 348,-223.5 348,-204.5 268,-204.5"/>
<text text-anchor="middle" x="308" y="-211.5" font-family="Arial" font-size="10.00">idRenderWorld</text>
</a>
</g>
</g>
<!-- Node9&#45;&gt;Node8 -->
<g id="edge10" class="edge"><title>Node9&#45;&gt;Node8</title>
<path fill="none" stroke="#9a32cd" stroke-dasharray="5,2" d="M308,-194.041C308,-181.472 308,-165.563 308,-155.841"/>
<polygon fill="#9a32cd" stroke="#9a32cd" points="304.5,-194.372 308,-204.372 311.5,-194.372 304.5,-194.372"/>
<text text-anchor="middle" x="321" y="-177.5" font-family="Arial" font-size="10.00"> world</text>
</g>
<!-- Node10 -->
<g id="node10" class="node"><title>Node10</title>
<g id="a_node10"><a xlink:href="classid_render_model.html" target="_top" xlink:title="idRenderModel">
<polygon fill="white" stroke="black" points="366.5,-204.5 366.5,-223.5 447.5,-223.5 447.5,-204.5 366.5,-204.5"/>
<text text-anchor="middle" x="407" y="-211.5" font-family="Arial" font-size="10.00">idRenderModel</text>
</a>
</g>
</g>
<!-- Node10&#45;&gt;Node8 -->
<g id="edge11" class="edge"><title>Node10&#45;&gt;Node8</title>
<path fill="none" stroke="#9a32cd" stroke-dasharray="5,2" d="M385.717,-198.811C366.029,-185.686 337.401,-166.6 320.946,-155.63"/>
<polygon fill="#9a32cd" stroke="#9a32cd" points="383.795,-201.737 394.057,-204.372 387.678,-195.912 383.795,-201.737"/>
<text text-anchor="middle" x="392" y="-177.5" font-family="Arial" font-size="10.00"> worldModel</text>
</g>
<!-- Node11 -->
<g id="node11" class="node"><title>Node11</title>
<g id="a_node11"><a xlink:href="classid_material.html" target="_top" xlink:title="idMaterial">
<polygon fill="white" stroke="black" points="414.5,-136.5 414.5,-155.5 473.5,-155.5 473.5,-136.5 414.5,-136.5"/>
<text text-anchor="middle" x="444" y="-143.5" font-family="Arial" font-size="10.00">idMaterial</text>
</a>
</g>
</g>
<!-- Node11&#45;&gt;Node7 -->
<g id="edge12" class="edge"><title>Node11&#45;&gt;Node7</title>
<path fill="none" stroke="#9a32cd" stroke-dasharray="5,2" d="M416.928,-131.862C389.855,-118.724 349,-98.8969 325.784,-87.6305"/>
<polygon fill="#9a32cd" stroke="#9a32cd" points="415.696,-135.154 426.22,-136.372 418.752,-128.857 415.696,-135.154"/>
<text text-anchor="middle" x="407" y="-109.5" font-family="Arial" font-size="10.00"> material</text>
</g>
<!-- Node12 -->
<g id="node12" class="node"><title>Node12</title>
<g id="a_node12"><a xlink:href="classid_decl.html" target="_top" xlink:title="idDecl">
<polygon fill="white" stroke="black" points="466,-204.5 466,-223.5 510,-223.5 510,-204.5 466,-204.5"/>
<text text-anchor="middle" x="488" y="-211.5" font-family="Arial" font-size="10.00">idDecl</text>
</a>
</g>
</g>
<!-- Node12&#45;&gt;Node11 -->
<g id="edge13" class="edge"><title>Node12&#45;&gt;Node11</title>
<path fill="none" stroke="midnightblue" d="M477.191,-195.786C472.846,-188.96 467.749,-181.068 463,-174 458.908,-167.91 454.158,-161.16 450.431,-155.933"/>
<polygon fill="midnightblue" stroke="midnightblue" points="474.243,-197.674 482.546,-204.256 480.16,-193.933 474.243,-197.674"/>
</g>
<!-- Node13 -->
<g id="node13" class="node"><title>Node13</title>
<g id="a_node13"><a xlink:href="classid_decl_base.html" target="_top" xlink:title="idDeclBase">
<polygon fill="white" stroke="black" points="455,-272.5 455,-291.5 521,-291.5 521,-272.5 455,-272.5"/>
<text text-anchor="middle" x="488" y="-279.5" font-family="Arial" font-size="10.00">idDeclBase</text>
</a>
</g>
</g>
<!-- Node13&#45;&gt;Node12 -->
<g id="edge14" class="edge"><title>Node13&#45;&gt;Node12</title>
<path fill="none" stroke="#9a32cd" stroke-dasharray="5,2" d="M488,-262.041C488,-249.472 488,-233.563 488,-223.841"/>
<polygon fill="#9a32cd" stroke="#9a32cd" points="484.5,-262.372 488,-272.372 491.5,-262.372 484.5,-262.372"/>
<text text-anchor="middle" x="500.5" y="-245.5" font-family="Arial" font-size="10.00"> base</text>
</g>
</g>
</svg>
