<?xml version="1.0" encoding="UTF-8" standalone="no"?>
<!DOCTYPE svg PUBLIC "-//W3C//DTD SVG 1.1//EN"
 "http://www.w3.org/Graphics/SVG/1.1/DTD/svg11.dtd">
<!-- Generated by graphviz version 2.34.0 (20130907.0111)
 -->
<!-- Title: idPhysics Pages: 1 -->
<svg width="425pt" height="234pt"
 viewBox="0.00 0.00 425.00 234.00" xmlns="http://www.w3.org/2000/svg" xmlns:xlink="http://www.w3.org/1999/xlink">
<g id="graph0" class="graph" transform="scale(1 1) rotate(0) translate(4 230)">
<title>idPhysics</title>
<polygon fill="white" stroke="white" points="-4,4 -4,-230 421,-230 421,4 -4,4"/>
<!-- Node1 -->
<g id="node1" class="node"><title>Node1</title>
<polygon fill="#bfbfbf" stroke="black" points="-0.5,-1.5 -0.5,-20.5 58.5,-20.5 58.5,-1.5 -0.5,-1.5"/>
<text text-anchor="middle" x="29" y="-8.5" font-family="Arial" font-size="10.00">idPhysics</text>
</g>
<!-- Node2 -->
<g id="node2" class="node"><title>Node2</title>
<g id="a_node2"><a xlink:href="classid_class.html" target="_top" xlink:title="idClass">
<polygon fill="white" stroke="black" points="46.5,-70.5 46.5,-89.5 95.5,-89.5 95.5,-70.5 46.5,-70.5"/>
<text text-anchor="middle" x="71" y="-77.5" font-family="Arial" font-size="10.00">idClass</text>
</a>
</g>
</g>
<!-- Node2&#45;&gt;Node1 -->
<g id="edge1" class="edge"><title>Node2&#45;&gt;Node1</title>
<path fill="none" stroke="midnightblue" d="M50.0845,-62.3102C47.5546,-58.9351 45.1568,-55.3833 43,-52 36.2826,-41.4625 29.2112,-28.914 26.7483,-20.7185"/>
<polygon fill="midnightblue" stroke="midnightblue" points="47.503,-64.6802 56.5828,-70.1399 52.8895,-60.2097 47.503,-64.6802"/>
</g>
<!-- Node2&#45;&gt;Node1 -->
<g id="edge9" class="edge"><title>Node2&#45;&gt;Node1</title>
<path fill="none" stroke="midnightblue" d="M67.1557,-61.4387C65.1453,-58.3274 62.9719,-55.0933 61,-52 54.2826,-41.4625 47.2112,-28.914 40.6752,-20.7185"/>
<polygon fill="midnightblue" stroke="midnightblue" points="64.2117,-63.3357 72.3328,-70.1399 70.2274,-59.7564 64.2117,-63.3357"/>
</g>
<!-- Node3 -->
<g id="node3" class="node"><title>Node3</title>
<g id="a_node3"><a xlink:href="classid_type_info.html" target="_top" xlink:title="idTypeInfo">
<polygon fill="white" stroke="black" points="153,-1.5 153,-20.5 213,-20.5 213,-1.5 153,-1.5"/>
<text text-anchor="middle" x="183" y="-8.5" font-family="Arial" font-size="10.00">idTypeInfo</text>
</a>
</g>
</g>
<!-- Node2&#45;&gt;Node3 -->
<g id="edge7" class="edge"><title>Node2&#45;&gt;Node3</title>
<path fill="none" stroke="#9a32cd" stroke-dasharray="5,2" d="M64.502,-60.1527C63.3077,-53.175 63.5946,-45.6067 68,-40 78.3786,-26.7912 122.409,-19.0333 152.873,-15.1516"/>
<polygon fill="#9a32cd" stroke="#9a32cd" points="61.2438,-61.5151 67.2188,-70.2645 68.0041,-59.6988 61.2438,-61.5151"/>
<text text-anchor="middle" x="102.5" y="-43.5" font-family="Arial" font-size="10.00"> CreateInstance</text>
</g>
<!-- Node3&#45;&gt;Node2 -->
<g id="edge2" class="edge"><title>Node3&#45;&gt;Node2</title>
<path fill="none" stroke="#9a32cd" stroke-dasharray="5,2" d="M168.961,-28.1013C161.321,-36.1114 151.336,-45.4539 141,-52 127.025,-60.851 109.688,-67.5651 95.7643,-72.0842"/>
<polygon fill="#9a32cd" stroke="#9a32cd" points="171.576,-30.4285 175.745,-20.6883 166.411,-25.7028 171.576,-30.4285"/>
<text text-anchor="middle" x="169.5" y="-43.5" font-family="Arial" font-size="10.00"> Type</text>
</g>
<!-- Node3&#45;&gt;Node3 -->
<g id="edge3" class="edge"><title>Node3&#45;&gt;Node3</title>
<path fill="none" stroke="#9a32cd" stroke-dasharray="5,2" d="M223.659,-16.3543C228.121,-15.3341 231,-13.5494 231,-11 231,-6.81641 223.248,-4.69193 213.467,-4.62656"/>
<polygon fill="#9a32cd" stroke="#9a32cd" points="223.069,-12.8957 213.467,-17.3734 223.766,-19.861 223.069,-12.8957"/>
<text text-anchor="middle" x="243.5" y="-14" font-family="Arial" font-size="10.00"> next</text>
<text text-anchor="middle" x="243.5" y="-3" font-family="Arial" font-size="10.00">super</text>
</g>
<!-- Node4 -->
<g id="node4" class="node"><title>Node4</title>
<g id="a_node4"><a xlink:href="classid_hierarchy.html" target="_top" xlink:title="idHierarchy\&lt; idTypeInfo \&gt;">
<polygon fill="white" stroke="black" points="290.5,-70.5 290.5,-89.5 417.5,-89.5 417.5,-70.5 290.5,-70.5"/>
<text text-anchor="middle" x="354" y="-77.5" font-family="Arial" font-size="10.00">idHierarchy&lt; idTypeInfo &gt;</text>
</a>
</g>
</g>
<!-- Node4&#45;&gt;Node3 -->
<g id="edge4" class="edge"><title>Node4&#45;&gt;Node3</title>
<path fill="none" stroke="#9a32cd" stroke-dasharray="5,2" d="M322.493,-66.6553C288.349,-53.2772 234.76,-32.2803 204.921,-20.5888"/>
<polygon fill="#9a32cd" stroke="#9a32cd" points="321.407,-69.9887 331.995,-70.3781 323.961,-63.4711 321.407,-69.9887"/>
<text text-anchor="middle" x="296.5" y="-43.5" font-family="Arial" font-size="10.00"> node</text>
</g>
<!-- Node5 -->
<g id="node5" class="node"><title>Node5</title>
<g id="a_node5"><a xlink:href="structid_event_func.html" target="_top" xlink:title="idEventFunc\&lt; idClass \&gt;">
<polygon fill="white" stroke="black" points="101,-138.5 101,-157.5 221,-157.5 221,-138.5 101,-138.5"/>
<text text-anchor="middle" x="161" y="-145.5" font-family="Arial" font-size="10.00">idEventFunc&lt; idClass &gt;</text>
</a>
</g>
</g>
<!-- Node5&#45;&gt;Node2 -->
<g id="edge8" class="edge"><title>Node5&#45;&gt;Node2</title>
<path fill="none" stroke="#9a32cd" stroke-dasharray="5,2" d="M138.623,-132.786C132.508,-128.761 125.934,-124.302 120,-120 106.268,-110.044 91.0763,-97.7401 81.3031,-89.6463"/>
<polygon fill="#9a32cd" stroke="#9a32cd" points="136.83,-135.795 147.124,-138.302 140.641,-129.923 136.83,-135.795"/>
<text text-anchor="middle" x="154.5" y="-111.5" font-family="Arial" font-size="10.00"> eventCallbacks</text>
</g>
<!-- Node5&#45;&gt;Node3 -->
<g id="edge5" class="edge"><title>Node5&#45;&gt;Node3</title>
<path fill="none" stroke="#9a32cd" stroke-dasharray="5,2" d="M181.444,-131.294C184.521,-127.927 187.247,-124.125 189,-120 203.614,-85.606 191.882,-39.4235 185.933,-20.5629"/>
<polygon fill="#9a32cd" stroke="#9a32cd" points="178.844,-128.933 173.921,-138.315 183.62,-134.051 178.844,-128.933"/>
<text text-anchor="middle" x="231.5" y="-77.5" font-family="Arial" font-size="10.00"> eventCallbacks</text>
</g>
<!-- Node6 -->
<g id="node6" class="node"><title>Node6</title>
<g id="a_node6"><a xlink:href="classid_event_def.html" target="_top" xlink:title="idEventDef">
<polygon fill="white" stroke="black" points="130,-206.5 130,-225.5 192,-225.5 192,-206.5 130,-206.5"/>
<text text-anchor="middle" x="161" y="-213.5" font-family="Arial" font-size="10.00">idEventDef</text>
</a>
</g>
</g>
<!-- Node6&#45;&gt;Node5 -->
<g id="edge6" class="edge"><title>Node6&#45;&gt;Node5</title>
<path fill="none" stroke="#9a32cd" stroke-dasharray="5,2" d="M161,-196.041C161,-183.472 161,-167.563 161,-157.841"/>
<polygon fill="#9a32cd" stroke="#9a32cd" points="157.5,-196.372 161,-206.372 164.5,-196.372 157.5,-196.372"/>
<text text-anchor="middle" x="174" y="-179.5" font-family="Arial" font-size="10.00"> event</text>
</g>
</g>
</svg>
