<?xml version="1.0" encoding="UTF-8" standalone="no"?>
<!DOCTYPE svg PUBLIC "-//W3C//DTD SVG 1.1//EN"
 "http://www.w3.org/Graphics/SVG/1.1/DTD/svg11.dtd">
<!-- Generated by graphviz version 2.34.0 (20130907.0111)
 -->
<!-- Title: rvGEItemPropsKeysPage Pages: 1 -->
<svg width="1178pt" height="1247pt"
 viewBox="0.00 0.00 1178.00 1247.23" xmlns="http://www.w3.org/2000/svg" xmlns:xlink="http://www.w3.org/1999/xlink">
<g id="graph0" class="graph" transform="scale(1 1) rotate(0) translate(4 1243.23)">
<title>rvGEItemPropsKeysPage</title>
<polygon fill="white" stroke="white" points="-4,4 -4,-1243.23 1174,-1243.23 1174,4 -4,4"/>
<!-- Node1 -->
<g id="node1" class="node"><title>Node1</title>
<polygon fill="#bfbfbf" stroke="black" points="1042.5,-1181.73 1042.5,-1200.73 1169.5,-1200.73 1169.5,-1181.73 1042.5,-1181.73"/>
<text text-anchor="middle" x="1106" y="-1188.73" font-family="Arial" font-size="10.00">rvGEItemPropsKeysPage</text>
</g>
<!-- Node2 -->
<g id="node2" class="node"><title>Node2</title>
<g id="a_node2"><a xlink:href="classrv_g_e_property_page.html" target="_top" xlink:title="rvGEPropertyPage">
<polygon fill="white" stroke="black" points="852.5,-1219.73 852.5,-1238.73 949.5,-1238.73 949.5,-1219.73 852.5,-1219.73"/>
<text text-anchor="middle" x="901" y="-1226.73" font-family="Arial" font-size="10.00">rvGEPropertyPage</text>
</a>
</g>
</g>
<!-- Node2&#45;&gt;Node1 -->
<g id="edge1" class="edge"><title>Node2&#45;&gt;Node1</title>
<path fill="none" stroke="midnightblue" d="M959.444,-1218.48C989.257,-1212.9 1025.36,-1206.14 1054.16,-1200.75"/>
<polygon fill="midnightblue" stroke="midnightblue" points="958.78,-1215.04 949.594,-1220.32 960.068,-1221.92 958.78,-1215.04"/>
</g>
<!-- Node3 -->
<g id="node3" class="node"><title>Node3</title>
<g id="a_node3"><a xlink:href="classrv_g_e_window_wrapper.html" target="_top" xlink:title="rvGEWindowWrapper">
<polygon fill="white" stroke="black" points="846.5,-847.733 846.5,-866.733 955.5,-866.733 955.5,-847.733 846.5,-847.733"/>
<text text-anchor="middle" x="901" y="-854.733" font-family="Arial" font-size="10.00">rvGEWindowWrapper</text>
</a>
</g>
</g>
<!-- Node3&#45;&gt;Node1 -->
<g id="edge2" class="edge"><title>Node3&#45;&gt;Node1</title>
<path fill="none" stroke="#9a32cd" stroke-dasharray="5,2" d="M913.12,-875.529C950.53,-937.08 1071.05,-1135.38 1099.12,-1181.56"/>
<polygon fill="#9a32cd" stroke="#9a32cd" points="916.041,-873.596 907.856,-866.869 910.059,-877.232 916.041,-873.596"/>
<text text-anchor="middle" x="999" y="-1056.23" font-family="Arial" font-size="10.00"> mWrapper</text>
</g>
<!-- Node4 -->
<g id="node4" class="node"><title>Node4</title>
<g id="a_node4"><a xlink:href="classid_window.html" target="_top" xlink:title="idWindow">
<polygon fill="white" stroke="black" points="704.5,-561.733 704.5,-580.733 763.5,-580.733 763.5,-561.733 704.5,-561.733"/>
<text text-anchor="middle" x="734" y="-568.733" font-family="Arial" font-size="10.00">idWindow</text>
</a>
</g>
</g>
<!-- Node4&#45;&gt;Node3 -->
<g id="edge3" class="edge"><title>Node4&#45;&gt;Node3</title>
<path fill="none" stroke="#9a32cd" stroke-dasharray="5,2" d="M745.682,-589.748C777.485,-644.873 870.813,-806.642 894.49,-847.681"/>
<polygon fill="#9a32cd" stroke="#9a32cd" points="748.519,-587.661 740.49,-580.749 742.455,-591.16 748.519,-587.661"/>
<text text-anchor="middle" x="805" y="-734.233" font-family="Arial" font-size="10.00"> mWindow</text>
</g>
<!-- Node4&#45;&gt;Node4 -->
<g id="edge13" class="edge"><title>Node4&#45;&gt;Node4</title>
<path fill="none" stroke="#9a32cd" stroke-dasharray="5,2" d="M721.109,-590.999C722.122,-595.729 726.419,-599.233 734,-599.233 746.441,-599.233 750.038,-589.798 744.789,-580.99"/>
<polygon fill="#9a32cd" stroke="#9a32cd" points="724.581,-591.496 723.211,-580.99 717.73,-590.057 724.581,-591.496"/>
<text text-anchor="middle" x="734" y="-635.233" font-family="Arial" font-size="10.00"> captureChild</text>
<text text-anchor="middle" x="734" y="-624.233" font-family="Arial" font-size="10.00">overChild</text>
<text text-anchor="middle" x="734" y="-613.233" font-family="Arial" font-size="10.00">parent</text>
<text text-anchor="middle" x="734" y="-602.233" font-family="Arial" font-size="10.00">focusedChild</text>
</g>
<!-- Node5 -->
<g id="node5" class="node"><title>Node5</title>
<g id="a_node5"><a xlink:href="classid_device_context.html" target="_top" xlink:title="idDeviceContext">
<polygon fill="white" stroke="black" points="467,-798.733 467,-817.733 553,-817.733 553,-798.733 467,-798.733"/>
<text text-anchor="middle" x="510" y="-805.733" font-family="Arial" font-size="10.00">idDeviceContext</text>
</a>
</g>
</g>
<!-- Node5&#45;&gt;Node4 -->
<g id="edge4" class="edge"><title>Node5&#45;&gt;Node4</title>
<path fill="none" stroke="#9a32cd" stroke-dasharray="5,2" d="M563.213,-798.298C613.147,-788.583 681.525,-774.627 686,-770.233 713.734,-742.997 728.413,-616.726 732.076,-580.795"/>
<polygon fill="#9a32cd" stroke="#9a32cd" points="562.334,-794.903 553.182,-800.241 563.665,-801.775 562.334,-794.903"/>
<text text-anchor="middle" x="641" y="-793.233" font-family="Arial" font-size="10.00"> dc</text>
</g>
<!-- Node6 -->
<g id="node6" class="node"><title>Node6</title>
<g id="a_node6"><a xlink:href="classid_vec4.html" target="_top" xlink:title="idVec4">
<polygon fill="white" stroke="black" points="267.5,-812.733 267.5,-831.733 314.5,-831.733 314.5,-812.733 267.5,-812.733"/>
<text text-anchor="middle" x="291" y="-819.733" font-family="Arial" font-size="10.00">idVec4</text>
</a>
</g>
</g>
<!-- Node6&#45;&gt;Node5 -->
<g id="edge5" class="edge"><title>Node6&#45;&gt;Node5</title>
<path fill="none" stroke="#9a32cd" stroke-dasharray="5,2" d="M304.005,-804.488C314.374,-790.877 330.706,-773.127 350,-765.233 380.44,-752.779 394.583,-750.525 424,-765.233 435.926,-771.196 431.009,-781.684 442,-789.233 449.375,-794.298 458.085,-798.023 466.741,-800.758"/>
<polygon fill="#9a32cd" stroke="#9a32cd" points="301.099,-802.533 298.081,-812.689 306.774,-806.632 301.099,-802.533"/>
<text text-anchor="middle" x="387" y="-856.233" font-family="Arial" font-size="10.00"> colorRed</text>
<text text-anchor="middle" x="387" y="-845.233" font-family="Arial" font-size="10.00">colorNone</text>
<text text-anchor="middle" x="387" y="-834.233" font-family="Arial" font-size="10.00">colorYellow</text>
<text text-anchor="middle" x="387" y="-823.233" font-family="Arial" font-size="10.00">colorPurple</text>
<text text-anchor="middle" x="387" y="-812.233" font-family="Arial" font-size="10.00">colorBlue</text>
<text text-anchor="middle" x="387" y="-801.233" font-family="Arial" font-size="10.00">colorWhite</text>
<text text-anchor="middle" x="387" y="-790.233" font-family="Arial" font-size="10.00">colorGreen</text>
<text text-anchor="middle" x="387" y="-779.233" font-family="Arial" font-size="10.00">colorOrange</text>
<text text-anchor="middle" x="387" y="-768.233" font-family="Arial" font-size="10.00">colorBlack</text>
</g>
<!-- Node7 -->
<g id="node7" class="node"><title>Node7</title>
<g id="a_node7"><a xlink:href="classid_win_vec4.html" target="_top" xlink:title="idWinVec4">
<polygon fill="white" stroke="black" points="478,-841.733 478,-860.733 542,-860.733 542,-841.733 478,-841.733"/>
<text text-anchor="middle" x="510" y="-848.733" font-family="Arial" font-size="10.00">idWinVec4</text>
</a>
</g>
</g>
<!-- Node6&#45;&gt;Node7 -->
<g id="edge9" class="edge"><title>Node6&#45;&gt;Node7</title>
<path fill="none" stroke="#9a32cd" stroke-dasharray="5,2" d="M308.584,-838.628C319.392,-848.119 334.355,-859.163 350,-864.233 392.815,-878.107 445.34,-869.129 477.997,-860.721"/>
<polygon fill="#9a32cd" stroke="#9a32cd" points="310.907,-836.009 301.186,-831.797 306.159,-841.152 310.907,-836.009"/>
<text text-anchor="middle" x="387" y="-874.233" font-family="Arial" font-size="10.00"> data</text>
</g>
<!-- Node7&#45;&gt;Node4 -->
<g id="edge6" class="edge"><title>Node7&#45;&gt;Node4</title>
<path fill="none" stroke="#9a32cd" stroke-dasharray="5,2" d="M551.857,-839.474C565.836,-835.51 581.582,-831.11 596,-827.233 635.869,-816.512 657.563,-834.163 686,-804.233 717.479,-771.101 729.67,-620.872 732.384,-580.982"/>
<polygon fill="#9a32cd" stroke="#9a32cd" points="550.695,-836.165 542.035,-842.269 552.611,-842.898 550.695,-836.165"/>
<text text-anchor="middle" x="641" y="-874.233" font-family="Arial" font-size="10.00"> foreColor</text>
<text text-anchor="middle" x="641" y="-863.233" font-family="Arial" font-size="10.00">matColor</text>
<text text-anchor="middle" x="641" y="-852.233" font-family="Arial" font-size="10.00">hoverColor</text>
<text text-anchor="middle" x="641" y="-841.233" font-family="Arial" font-size="10.00">borderColor</text>
<text text-anchor="middle" x="641" y="-830.233" font-family="Arial" font-size="10.00">backColor</text>
</g>
<!-- Node8 -->
<g id="node8" class="node"><title>Node8</title>
<g id="a_node8"><a xlink:href="classid_win_var.html" target="_top" xlink:title="idWinVar">
<polygon fill="white" stroke="black" points="136,-959.733 136,-978.733 192,-978.733 192,-959.733 136,-959.733"/>
<text text-anchor="middle" x="164" y="-966.733" font-family="Arial" font-size="10.00">idWinVar</text>
</a>
</g>
</g>
<!-- Node8&#45;&gt;Node7 -->
<g id="edge7" class="edge"><title>Node8&#45;&gt;Node7</title>
<path fill="none" stroke="midnightblue" d="M192.893,-955.342C209.255,-947.554 230.487,-938.064 250,-931.233 325.391,-904.84 353.516,-923.815 424,-886.233 433.445,-881.197 432.614,-875.378 442,-870.233 453.026,-864.188 466.151,-859.919 477.85,-856.98"/>
<polygon fill="midnightblue" stroke="midnightblue" points="191.355,-952.197 183.871,-959.697 194.398,-958.501 191.355,-952.197"/>
</g>
<!-- Node13 -->
<g id="node13" class="node"><title>Node13</title>
<g id="a_node13"><a xlink:href="classid_win_str.html" target="_top" xlink:title="idWinStr">
<polygon fill="white" stroke="black" points="264,-721.733 264,-740.733 318,-740.733 318,-721.733 264,-721.733"/>
<text text-anchor="middle" x="291" y="-728.733" font-family="Arial" font-size="10.00">idWinStr</text>
</a>
</g>
</g>
<!-- Node8&#45;&gt;Node13 -->
<g id="edge15" class="edge"><title>Node8&#45;&gt;Node13</title>
<path fill="none" stroke="midnightblue" d="M174.461,-950.243C189.942,-919.29 221.789,-856.101 250,-803.233 261.983,-780.777 276.64,-754.74 284.46,-740.958"/>
<polygon fill="midnightblue" stroke="midnightblue" points="171.203,-948.933 169.867,-959.444 177.466,-952.06 171.203,-948.933"/>
</g>
<!-- Node14 -->
<g id="node14" class="node"><title>Node14</title>
<g id="a_node14"><a xlink:href="classid_win_rectangle.html" target="_top" xlink:title="idWinRectangle">
<polygon fill="white" stroke="black" points="467.5,-637.733 467.5,-656.733 552.5,-656.733 552.5,-637.733 467.5,-637.733"/>
<text text-anchor="middle" x="510" y="-644.733" font-family="Arial" font-size="10.00">idWinRectangle</text>
</a>
</g>
</g>
<!-- Node8&#45;&gt;Node14 -->
<g id="edge18" class="edge"><title>Node8&#45;&gt;Node14</title>
<path fill="none" stroke="midnightblue" d="M165.59,-949.577C167.65,-894.74 176.357,-741.83 210,-707.233 214.504,-702.601 386.067,-670.132 467.239,-654.983"/>
<polygon fill="midnightblue" stroke="midnightblue" points="162.087,-949.599 165.244,-959.712 169.083,-949.837 162.087,-949.599"/>
</g>
<!-- Node17 -->
<g id="node17" class="node"><title>Node17</title>
<g id="a_node17"><a xlink:href="classid_win_float.html" target="_top" xlink:title="idWinFloat">
<polygon fill="white" stroke="black" points="355.5,-1076.73 355.5,-1095.73 418.5,-1095.73 418.5,-1076.73 355.5,-1076.73"/>
<text text-anchor="middle" x="387" y="-1083.73" font-family="Arial" font-size="10.00">idWinFloat</text>
</a>
</g>
</g>
<!-- Node8&#45;&gt;Node17 -->
<g id="edge22" class="edge"><title>Node8&#45;&gt;Node17</title>
<path fill="none" stroke="midnightblue" d="M181.205,-986.437C189.319,-994.386 199.611,-1003.53 210,-1010.23 257.535,-1040.92 319.55,-1064.37 355.852,-1076.65"/>
<polygon fill="midnightblue" stroke="midnightblue" points="183.407,-983.685 173.894,-979.02 178.421,-988.599 183.407,-983.685"/>
</g>
<!-- Node28 -->
<g id="node28" class="node"><title>Node28</title>
<g id="a_node28"><a xlink:href="classid_win_bool.html" target="_top" xlink:title="idWinBool">
<polygon fill="white" stroke="black" points="356.5,-1010.73 356.5,-1029.73 417.5,-1029.73 417.5,-1010.73 356.5,-1010.73"/>
<text text-anchor="middle" x="387" y="-1017.73" font-family="Arial" font-size="10.00">idWinBool</text>
</a>
</g>
</g>
<!-- Node8&#45;&gt;Node28 -->
<g id="edge36" class="edge"><title>Node8&#45;&gt;Node28</title>
<path fill="none" stroke="midnightblue" d="M190.958,-983.498C207.388,-991.847 229.356,-1001.79 250,-1007.23 285.778,-1016.67 328.453,-1019.43 356.334,-1020.15"/>
<polygon fill="midnightblue" stroke="midnightblue" points="192.46,-980.334 181.975,-978.812 189.222,-986.541 192.46,-980.334"/>
</g>
<!-- Node9 -->
<g id="node9" class="node"><title>Node9</title>
<g id="a_node9"><a xlink:href="classid_dict.html" target="_top" xlink:title="idDict">
<polygon fill="white" stroke="black" points="12.5,-1133.73 12.5,-1152.73 53.5,-1152.73 53.5,-1133.73 12.5,-1133.73"/>
<text text-anchor="middle" x="33" y="-1140.73" font-family="Arial" font-size="10.00">idDict</text>
</a>
</g>
</g>
<!-- Node9&#45;&gt;Node1 -->
<g id="edge49" class="edge"><title>Node9&#45;&gt;Node1</title>
<path fill="none" stroke="#9a32cd" stroke-dasharray="5,2" d="M58.0355,-1158.06C83.2282,-1172.16 124.436,-1191.23 163,-1191.23 163,-1191.23 163,-1191.23 902,-1191.23 949.049,-1191.23 1002.23,-1191.23 1042.36,-1191.23"/>
<polygon fill="#9a32cd" stroke="#9a32cd" points="59.6116,-1154.93 49.2032,-1152.95 56.1059,-1160.98 59.6116,-1154.93"/>
<text text-anchor="middle" x="510" y="-1194.23" font-family="Arial" font-size="10.00"> mDict</text>
</g>
<!-- Node9&#45;&gt;Node3 -->
<g id="edge48" class="edge"><title>Node9&#45;&gt;Node3</title>
<path fill="none" stroke="#9a32cd" stroke-dasharray="5,2" d="M63.6911,-1143.23C89.8375,-1143.23 128.947,-1143.23 163,-1143.23 163,-1143.23 163,-1143.23 735,-1143.23 865.698,-1143.23 894.47,-916.374 899.201,-866.749"/>
<polygon fill="#9a32cd" stroke="#9a32cd" points="63.6694,-1139.73 53.6693,-1143.23 63.6693,-1146.73 63.6694,-1139.73"/>
<text text-anchor="middle" x="387" y="-1168.23" font-family="Arial" font-size="10.00"> mScripts</text>
<text text-anchor="middle" x="387" y="-1157.23" font-family="Arial" font-size="10.00">mState</text>
<text text-anchor="middle" x="387" y="-1146.23" font-family="Arial" font-size="10.00">mVariables</text>
</g>
<!-- Node9&#45;&gt;Node8 -->
<g id="edge8" class="edge"><title>Node9&#45;&gt;Node8</title>
<path fill="none" stroke="#9a32cd" stroke-dasharray="5,2" d="M47.2077,-1125.42C74.1839,-1089.03 134.826,-1007.24 155.744,-979.021"/>
<polygon fill="#9a32cd" stroke="#9a32cd" points="44.2634,-1123.51 41.1194,-1133.63 49.8866,-1127.68 44.2634,-1123.51"/>
<text text-anchor="middle" x="101" y="-1074.23" font-family="Arial" font-size="10.00"> guiDict</text>
</g>
<!-- Node10 -->
<g id="node10" class="node"><title>Node10</title>
<g id="a_node10"><a xlink:href="classid_list.html" target="_top" xlink:title="idList\&lt; float \&gt;">
<polygon fill="white" stroke="black" points="472,-599.733 472,-618.733 548,-618.733 548,-599.733 472,-599.733"/>
<text text-anchor="middle" x="510" y="-606.733" font-family="Arial" font-size="10.00">idList&lt; float &gt;</text>
</a>
</g>
</g>
<!-- Node10&#45;&gt;Node4 -->
<g id="edge10" class="edge"><title>Node10&#45;&gt;Node4</title>
<path fill="none" stroke="#9a32cd" stroke-dasharray="5,2" d="M558.042,-602.975C593.369,-598.033 642.875,-590.593 686,-582.233 691.923,-581.085 698.233,-579.712 704.242,-578.332"/>
<polygon fill="#9a32cd" stroke="#9a32cd" points="557.44,-599.525 548.014,-604.364 558.4,-606.458 557.44,-599.525"/>
<text text-anchor="middle" x="641" y="-610.233" font-family="Arial" font-size="10.00"> saveRegs</text>
<text text-anchor="middle" x="641" y="-599.233" font-family="Arial" font-size="10.00">expressionRegisters</text>
</g>
<!-- Node11 -->
<g id="node11" class="node"><title>Node11</title>
<g id="a_node11"><a xlink:href="classid_str.html" target="_top" xlink:title="idStr">
<polygon fill="white" stroke="black" points="145.5,-644.733 145.5,-663.733 182.5,-663.733 182.5,-644.733 145.5,-644.733"/>
<text text-anchor="middle" x="164" y="-651.733" font-family="Arial" font-size="10.00">idStr</text>
</a>
</g>
</g>
<!-- Node11&#45;&gt;Node4 -->
<g id="edge11" class="edge"><title>Node11&#45;&gt;Node4</title>
<path fill="none" stroke="#9a32cd" stroke-dasharray="5,2" d="M183.065,-637.741C214.301,-610.473 281.645,-557.034 350,-537.233 381.59,-528.082 393.076,-526.037 424,-537.233 433.792,-540.778 432.329,-548.371 442,-552.233 532.273,-588.286 650.824,-580.947 704.458,-575.024"/>
<polygon fill="#9a32cd" stroke="#9a32cd" points="180.738,-635.127 175.581,-644.382 185.384,-640.363 180.738,-635.127"/>
<text text-anchor="middle" x="387" y="-562.233" font-family="Arial" font-size="10.00"> comment</text>
<text text-anchor="middle" x="387" y="-551.233" font-family="Arial" font-size="10.00">cmd</text>
<text text-anchor="middle" x="387" y="-540.233" font-family="Arial" font-size="10.00">name</text>
</g>
<!-- Node11&#45;&gt;Node13 -->
<g id="edge16" class="edge"><title>Node11&#45;&gt;Node13</title>
<path fill="none" stroke="#9a32cd" stroke-dasharray="5,2" d="M189.159,-669.115C214.254,-684.573 252.787,-708.31 274.225,-721.516"/>
<polygon fill="#9a32cd" stroke="#9a32cd" points="190.929,-666.094 180.579,-663.829 187.257,-672.054 190.929,-666.094"/>
<text text-anchor="middle" x="221" y="-697.233" font-family="Arial" font-size="10.00"> data</text>
</g>
<!-- Node19 -->
<g id="node19" class="node"><title>Node19</title>
<g id="a_node19"><a xlink:href="classid_win_background.html" target="_top" xlink:title="idWinBackground">
<polygon fill="white" stroke="black" points="463.5,-675.733 463.5,-694.733 556.5,-694.733 556.5,-675.733 463.5,-675.733"/>
<text text-anchor="middle" x="510" y="-682.733" font-family="Arial" font-size="10.00">idWinBackground</text>
</a>
</g>
</g>
<!-- Node11&#45;&gt;Node19 -->
<g id="edge26" class="edge"><title>Node11&#45;&gt;Node19</title>
<path fill="none" stroke="#9a32cd" stroke-dasharray="5,2" d="M192.595,-656.72C251.666,-662.043 390.862,-674.587 463.337,-681.118"/>
<polygon fill="#9a32cd" stroke="#9a32cd" points="192.806,-653.225 182.532,-655.813 192.177,-660.196 192.806,-653.225"/>
<text text-anchor="middle" x="291" y="-671.233" font-family="Arial" font-size="10.00"> data</text>
</g>
<!-- Node12 -->
<g id="node12" class="node"><title>Node12</title>
<g id="a_node12"><a xlink:href="classid_list.html" target="_top" xlink:title="idList\&lt; idWindow * \&gt;">
<polygon fill="white" stroke="black" points="456.5,-523.733 456.5,-542.733 563.5,-542.733 563.5,-523.733 456.5,-523.733"/>
<text text-anchor="middle" x="510" y="-530.733" font-family="Arial" font-size="10.00">idList&lt; idWindow * &gt;</text>
</a>
</g>
</g>
<!-- Node12&#45;&gt;Node4 -->
<g id="edge12" class="edge"><title>Node12&#45;&gt;Node4</title>
<path fill="none" stroke="#9a32cd" stroke-dasharray="5,2" d="M573.898,-531.672C607.719,-532.377 649.796,-535.764 686,-546.233 697.72,-549.622 709.849,-556.163 718.85,-561.704"/>
<polygon fill="#9a32cd" stroke="#9a32cd" points="573.729,-528.17 563.683,-531.535 573.635,-535.169 573.729,-528.17"/>
<text text-anchor="middle" x="641" y="-549.233" font-family="Arial" font-size="10.00"> children</text>
</g>
<!-- Node13&#45;&gt;Node4 -->
<g id="edge14" class="edge"><title>Node13&#45;&gt;Node4</title>
<path fill="none" stroke="#9a32cd" stroke-dasharray="5,2" d="M328.197,-733.526C414.73,-738.258 630.509,-745.404 686,-703.233 725.898,-672.912 732.019,-605.916 732.888,-580.902"/>
<polygon fill="#9a32cd" stroke="#9a32cd" points="328.247,-730.023 318.065,-732.95 327.85,-737.012 328.247,-730.023"/>
<text text-anchor="middle" x="510" y="-739.233" font-family="Arial" font-size="10.00"> text</text>
</g>
<!-- Node13&#45;&gt;Node19 -->
<g id="edge25" class="edge"><title>Node13&#45;&gt;Node19</title>
<path fill="none" stroke="midnightblue" d="M328.095,-723.581C365.351,-715.684 423.557,-703.345 463.84,-694.806"/>
<polygon fill="midnightblue" stroke="midnightblue" points="327.232,-720.186 318.175,-725.684 328.684,-727.034 327.232,-720.186"/>
</g>
<!-- Node14&#45;&gt;Node4 -->
<g id="edge17" class="edge"><title>Node14&#45;&gt;Node4</title>
<path fill="none" stroke="#9a32cd" stroke-dasharray="5,2" d="M563.033,-648.796C599.4,-647.807 648.048,-642.186 686,-622.233 704.331,-612.595 719.246,-592.886 727.061,-580.989"/>
<polygon fill="#9a32cd" stroke="#9a32cd" points="562.587,-645.302 552.644,-648.963 562.699,-652.301 562.587,-645.302"/>
<text text-anchor="middle" x="641" y="-649.233" font-family="Arial" font-size="10.00"> rect</text>
</g>
<!-- Node15 -->
<g id="node15" class="node"><title>Node15</title>
<g id="a_node15"><a xlink:href="classid_rectangle.html" target="_top" xlink:title="idRectangle">
<polygon fill="white" stroke="black" points="257,-348.733 257,-367.733 325,-367.733 325,-348.733 257,-348.733"/>
<text text-anchor="middle" x="291" y="-355.733" font-family="Arial" font-size="10.00">idRectangle</text>
</a>
</g>
</g>
<!-- Node15&#45;&gt;Node3 -->
<g id="edge47" class="edge"><title>Node15&#45;&gt;Node3</title>
<path fill="none" stroke="#9a32cd" stroke-dasharray="5,2" d="M294.934,-338.735C304.429,-283.264 339.865,-124.197 442,-56.2329 532.453,3.95772 599.979,25.1376 686,-41.2329 824.131,-147.81 890.508,-762.779 899.048,-847.545"/>
<polygon fill="#9a32cd" stroke="#9a32cd" points="291.47,-338.231 293.328,-348.662 298.381,-339.349 291.47,-338.231"/>
<text text-anchor="middle" x="641" y="-55.2329" font-family="Arial" font-size="10.00"> mScreenRect</text>
<text text-anchor="middle" x="641" y="-44.2329" font-family="Arial" font-size="10.00">mClientRect</text>
</g>
<!-- Node15&#45;&gt;Node4 -->
<g id="edge39" class="edge"><title>Node15&#45;&gt;Node4</title>
<path fill="none" stroke="#9a32cd" stroke-dasharray="5,2" d="M335.195,-355.53C427.026,-350.784 637.257,-345.546 686,-393.233 734.435,-440.618 734.882,-531.592 733.604,-561.465"/>
<polygon fill="#9a32cd" stroke="#9a32cd" points="334.918,-352.04 325.121,-356.074 335.295,-359.03 334.918,-352.04"/>
<text text-anchor="middle" x="510" y="-383.233" font-family="Arial" font-size="10.00"> drawRect</text>
<text text-anchor="middle" x="510" y="-372.233" font-family="Arial" font-size="10.00">clientRect</text>
<text text-anchor="middle" x="510" y="-361.233" font-family="Arial" font-size="10.00">textRect</text>
</g>
<!-- Node15&#45;&gt;Node14 -->
<g id="edge19" class="edge"><title>Node15&#45;&gt;Node14</title>
<path fill="none" stroke="#9a32cd" stroke-dasharray="5,2" d="M304.789,-376.572C313.914,-390.607 325.651,-410.795 332,-430.233 342.014,-460.888 328.996,-549.762 350,-574.233 372.267,-600.175 397.288,-573.896 424,-595.233 437.054,-605.66 428.945,-617.807 442,-628.233 449.275,-634.042 458.235,-638.076 467.208,-640.877"/>
<polygon fill="#9a32cd" stroke="#9a32cd" points="307.465,-374.278 298.988,-367.923 301.652,-378.178 307.465,-374.278"/>
<text text-anchor="middle" x="387" y="-598.233" font-family="Arial" font-size="10.00"> data</text>
</g>
<!-- Node16 -->
<g id="node16" class="node"><title>Node16</title>
<g id="a_node16"><a xlink:href="classid_list.html" target="_top" xlink:title="idList\&lt; wexpOp_t \&gt;">
<polygon fill="white" stroke="black" points="459.5,-447.733 459.5,-466.733 560.5,-466.733 560.5,-447.733 459.5,-447.733"/>
<text text-anchor="middle" x="510" y="-454.733" font-family="Arial" font-size="10.00">idList&lt; wexpOp_t &gt;</text>
</a>
</g>
</g>
<!-- Node16&#45;&gt;Node4 -->
<g id="edge20" class="edge"><title>Node16&#45;&gt;Node4</title>
<path fill="none" stroke="#9a32cd" stroke-dasharray="5,2" d="M566.55,-446.458C603.534,-442.419 651.489,-443.536 686,-467.233 718.668,-489.664 728.979,-540.523 731.926,-561.701"/>
<polygon fill="#9a32cd" stroke="#9a32cd" points="565.92,-443.009 556.43,-447.719 566.786,-449.956 565.92,-443.009"/>
<text text-anchor="middle" x="641" y="-481.233" font-family="Arial" font-size="10.00"> saveOps</text>
<text text-anchor="middle" x="641" y="-470.233" font-family="Arial" font-size="10.00">ops</text>
</g>
<!-- Node17&#45;&gt;Node4 -->
<g id="edge21" class="edge"><title>Node17&#45;&gt;Node4</title>
<path fill="none" stroke="#9a32cd" stroke-dasharray="5,2" d="M429.178,-1088.71C497.67,-1090.23 632.729,-1081.53 686,-995.233 730.837,-922.601 733.035,-637.025 733.029,-580.854"/>
<polygon fill="#9a32cd" stroke="#9a32cd" points="428.884,-1085.2 418.78,-1088.39 428.667,-1092.2 428.884,-1085.2"/>
<text text-anchor="middle" x="510" y="-1102.23" font-family="Arial" font-size="10.00"> textScale</text>
<text text-anchor="middle" x="510" y="-1091.23" font-family="Arial" font-size="10.00">rotate</text>
</g>
<!-- Node18 -->
<g id="node18" class="node"><title>Node18</title>
<g id="a_node18"><a xlink:href="classid_list.html" target="_top" xlink:title="idList\&lt; idWinVar * \&gt;">
<polygon fill="white" stroke="black" points="458,-409.733 458,-428.733 562,-428.733 562,-409.733 458,-409.733"/>
<text text-anchor="middle" x="510" y="-416.733" font-family="Arial" font-size="10.00">idList&lt; idWinVar * &gt;</text>
</a>
</g>
</g>
<!-- Node18&#45;&gt;Node4 -->
<g id="edge23" class="edge"><title>Node18&#45;&gt;Node4</title>
<path fill="none" stroke="#9a32cd" stroke-dasharray="5,2" d="M548.757,-407.016C587.172,-397.109 646.522,-389.061 686,-418.233 732.931,-452.912 734.493,-533.651 733.539,-561.547"/>
<polygon fill="#9a32cd" stroke="#9a32cd" points="547.709,-403.674 538.989,-409.691 549.558,-410.425 547.709,-403.674"/>
<text text-anchor="middle" x="641" y="-432.233" font-family="Arial" font-size="10.00"> definedVars</text>
<text text-anchor="middle" x="641" y="-421.233" font-family="Arial" font-size="10.00">updateVars</text>
</g>
<!-- Node19&#45;&gt;Node4 -->
<g id="edge24" class="edge"><title>Node19&#45;&gt;Node4</title>
<path fill="none" stroke="#9a32cd" stroke-dasharray="5,2" d="M566.921,-690.162C603.856,-690.583 651.607,-685.42 686,-661.233 714.117,-641.46 726.669,-599.59 731.055,-580.76"/>
<polygon fill="#9a32cd" stroke="#9a32cd" points="566.896,-686.66 556.811,-689.906 566.719,-693.658 566.896,-686.66"/>
<text text-anchor="middle" x="641" y="-691.233" font-family="Arial" font-size="10.00"> backGroundName</text>
</g>
<!-- Node20 -->
<g id="node20" class="node"><title>Node20</title>
<g id="a_node20"><a xlink:href="classid_material.html" target="_top" xlink:title="idMaterial">
<polygon fill="white" stroke="black" points="261.5,-439.733 261.5,-458.733 320.5,-458.733 320.5,-439.733 261.5,-439.733"/>
<text text-anchor="middle" x="291" y="-446.733" font-family="Arial" font-size="10.00">idMaterial</text>
</a>
</g>
</g>
<!-- Node20&#45;&gt;Node4 -->
<g id="edge45" class="edge"><title>Node20&#45;&gt;Node4</title>
<path fill="none" stroke="#9a32cd" stroke-dasharray="5,2" d="M302.636,-430.933C334.957,-375.473 430.513,-212.642 442,-206.233 489.377,-179.802 646.562,-176.979 686,-214.233 737.921,-263.277 734.6,-509.19 733.287,-561.457"/>
<polygon fill="#9a32cd" stroke="#9a32cd" points="299.536,-429.302 297.53,-439.705 305.586,-432.823 299.536,-429.302"/>
<text text-anchor="middle" x="510" y="-209.233" font-family="Arial" font-size="10.00"> background</text>
</g>
<!-- Node20&#45;&gt;Node19 -->
<g id="edge27" class="edge"><title>Node20&#45;&gt;Node19</title>
<path fill="none" stroke="#9a32cd" stroke-dasharray="5,2" d="M294.933,-468.824C300.601,-500.996 315.664,-565.689 350,-608.233 353.795,-612.935 436.482,-663.772 442,-666.233 450.282,-669.926 459.462,-673.085 468.303,-675.708"/>
<polygon fill="#9a32cd" stroke="#9a32cd" points="298.376,-468.192 293.304,-458.89 291.469,-469.325 298.376,-468.192"/>
<text text-anchor="middle" x="387" y="-657.233" font-family="Arial" font-size="10.00"> mat</text>
</g>
<!-- Node21 -->
<g id="node21" class="node"><title>Node21</title>
<g id="a_node21"><a xlink:href="classid_decl.html" target="_top" xlink:title="idDecl">
<polygon fill="white" stroke="black" points="142,-439.733 142,-458.733 186,-458.733 186,-439.733 142,-439.733"/>
<text text-anchor="middle" x="164" y="-446.733" font-family="Arial" font-size="10.00">idDecl</text>
</a>
</g>
</g>
<!-- Node21&#45;&gt;Node20 -->
<g id="edge28" class="edge"><title>Node21&#45;&gt;Node20</title>
<path fill="none" stroke="midnightblue" d="M196.314,-449.233C216.211,-449.233 241.778,-449.233 261.175,-449.233"/>
<polygon fill="midnightblue" stroke="midnightblue" points="196.205,-445.733 186.205,-449.233 196.205,-452.733 196.205,-445.733"/>
</g>
<!-- Node22 -->
<g id="node22" class="node"><title>Node22</title>
<g id="a_node22"><a xlink:href="classid_decl_base.html" target="_top" xlink:title="idDeclBase">
<polygon fill="white" stroke="black" points="0,-439.733 0,-458.733 66,-458.733 66,-439.733 0,-439.733"/>
<text text-anchor="middle" x="33" y="-446.733" font-family="Arial" font-size="10.00">idDeclBase</text>
</a>
</g>
</g>
<!-- Node22&#45;&gt;Node21 -->
<g id="edge29" class="edge"><title>Node22&#45;&gt;Node21</title>
<path fill="none" stroke="#9a32cd" stroke-dasharray="5,2" d="M76.2792,-449.233C98.1687,-449.233 123.948,-449.233 141.678,-449.233"/>
<polygon fill="#9a32cd" stroke="#9a32cd" points="76.2194,-445.733 66.2194,-449.233 76.2193,-452.733 76.2194,-445.733"/>
<text text-anchor="middle" x="101" y="-452.233" font-family="Arial" font-size="10.00"> base</text>
</g>
<!-- Node23 -->
<g id="node23" class="node"><title>Node23</title>
<g id="a_node23"><a xlink:href="classid_list.html" target="_top" xlink:title="idList\&lt; idTimeLineEvent * \&gt;">
<polygon fill="white" stroke="black" points="442.5,-302.733 442.5,-321.733 577.5,-321.733 577.5,-302.733 442.5,-302.733"/>
<text text-anchor="middle" x="510" y="-309.733" font-family="Arial" font-size="10.00">idList&lt; idTimeLineEvent * &gt;</text>
</a>
</g>
</g>
<!-- Node23&#45;&gt;Node4 -->
<g id="edge30" class="edge"><title>Node23&#45;&gt;Node4</title>
<path fill="none" stroke="#9a32cd" stroke-dasharray="5,2" d="M588.217,-302.553C622.198,-302.629 660.174,-309.288 686,-333.233 720.359,-365.09 730.497,-521.357 732.561,-561.709"/>
<polygon fill="#9a32cd" stroke="#9a32cd" points="587.756,-299.06 577.817,-302.728 587.875,-306.059 587.756,-299.06"/>
<text text-anchor="middle" x="641" y="-336.233" font-family="Arial" font-size="10.00"> timeLineEvents</text>
</g>
<!-- Node24 -->
<g id="node24" class="node"><title>Node24</title>
<g id="a_node24"><a xlink:href="classid_gui_script_list.html" target="_top" xlink:title="idGuiScriptList">
<polygon fill="white" stroke="black" points="470,-264.733 470,-283.733 550,-283.733 550,-264.733 470,-264.733"/>
<text text-anchor="middle" x="510" y="-271.733" font-family="Arial" font-size="10.00">idGuiScriptList</text>
</a>
</g>
</g>
<!-- Node24&#45;&gt;Node4 -->
<g id="edge31" class="edge"><title>Node24&#45;&gt;Node4</title>
<path fill="none" stroke="#9a32cd" stroke-dasharray="5,2" d="M560.189,-263.01C599.246,-257.224 652.661,-256.762 686,-287.233 727.593,-325.247 732.379,-516.65 732.929,-561.719"/>
<polygon fill="#9a32cd" stroke="#9a32cd" points="559.387,-259.594 550.087,-264.67 560.522,-266.502 559.387,-259.594"/>
<text text-anchor="middle" x="641" y="-290.233" font-family="Arial" font-size="10.00"> scripts</text>
</g>
<!-- Node25 -->
<g id="node25" class="node"><title>Node25</title>
<g id="a_node25"><a xlink:href="classid_register_list.html" target="_top" xlink:title="idRegisterList">
<polygon fill="white" stroke="black" points="472,-226.733 472,-245.733 548,-245.733 548,-226.733 472,-226.733"/>
<text text-anchor="middle" x="510" y="-233.733" font-family="Arial" font-size="10.00">idRegisterList</text>
</a>
</g>
</g>
<!-- Node25&#45;&gt;Node4 -->
<g id="edge32" class="edge"><title>Node25&#45;&gt;Node4</title>
<path fill="none" stroke="#9a32cd" stroke-dasharray="5,2" d="M553.523,-224.478C592.942,-216.399 650.672,-212.178 686,-244.233 734.316,-288.072 733.875,-512.238 733.179,-561.607"/>
<polygon fill="#9a32cd" stroke="#9a32cd" points="552.681,-221.079 543.671,-226.653 554.191,-227.914 552.681,-221.079"/>
<text text-anchor="middle" x="641" y="-247.233" font-family="Arial" font-size="10.00"> regList</text>
</g>
<!-- Node26 -->
<g id="node26" class="node"><title>Node26</title>
<g id="a_node26"><a xlink:href="classid_user_interface_local.html" target="_top" xlink:title="idUserInterfaceLocal">
<polygon fill="white" stroke="black" points="458,-879.733 458,-898.733 562,-898.733 562,-879.733 458,-879.733"/>
<text text-anchor="middle" x="510" y="-886.733" font-family="Arial" font-size="10.00">idUserInterfaceLocal</text>
</a>
</g>
</g>
<!-- Node26&#45;&gt;Node4 -->
<g id="edge33" class="edge"><title>Node26&#45;&gt;Node4</title>
<path fill="none" stroke="#9a32cd" stroke-dasharray="5,2" d="M572.156,-894.735C615.82,-897.231 669.61,-896.912 686,-882.233 732.066,-840.975 733.409,-629.27 733.107,-581.027"/>
<polygon fill="#9a32cd" stroke="#9a32cd" points="572.36,-891.241 562.16,-894.106 571.92,-898.227 572.36,-891.241"/>
<text text-anchor="middle" x="641" y="-898.233" font-family="Arial" font-size="10.00"> gui</text>
</g>
<!-- Node27 -->
<g id="node27" class="node"><title>Node27</title>
<g id="a_node27"><a xlink:href="classid_user_interface.html" target="_top" xlink:title="idUserInterface">
<polygon fill="white" stroke="black" points="250.5,-940.733 250.5,-959.733 331.5,-959.733 331.5,-940.733 250.5,-940.733"/>
<text text-anchor="middle" x="291" y="-947.733" font-family="Arial" font-size="10.00">idUserInterface</text>
</a>
</g>
</g>
<!-- Node27&#45;&gt;Node26 -->
<g id="edge34" class="edge"><title>Node27&#45;&gt;Node26</title>
<path fill="none" stroke="midnightblue" d="M341.842,-948.241C367.585,-945.507 398.794,-939.439 424,-926.233 434.021,-920.982 432.243,-913.961 442,-908.233 448.569,-904.377 455.962,-901.268 463.376,-898.772"/>
<polygon fill="midnightblue" stroke="midnightblue" points="341.178,-944.788 331.542,-949.192 341.822,-951.758 341.178,-944.788"/>
</g>
<!-- Node28&#45;&gt;Node4 -->
<g id="edge35" class="edge"><title>Node28&#45;&gt;Node4</title>
<path fill="none" stroke="#9a32cd" stroke-dasharray="5,2" d="M427.782,-1018.59C500.726,-1014.71 651.568,-1002.29 686,-965.233 713.081,-936.09 729.558,-638.737 732.518,-580.938"/>
<polygon fill="#9a32cd" stroke="#9a32cd" points="427.419,-1015.11 417.609,-1019.11 427.772,-1022.1 427.419,-1015.11"/>
<text text-anchor="middle" x="510" y="-1053.23" font-family="Arial" font-size="10.00"> noTime</text>
<text text-anchor="middle" x="510" y="-1042.23" font-family="Arial" font-size="10.00">hideCursor</text>
<text text-anchor="middle" x="510" y="-1031.23" font-family="Arial" font-size="10.00">noEvents</text>
<text text-anchor="middle" x="510" y="-1020.23" font-family="Arial" font-size="10.00">visible</text>
</g>
<!-- Node29 -->
<g id="node29" class="node"><title>Node29</title>
<g id="a_node29"><a xlink:href="classid_vec2.html" target="_top" xlink:title="idVec2">
<polygon fill="white" stroke="black" points="486.5,-141.733 486.5,-160.733 533.5,-160.733 533.5,-141.733 486.5,-141.733"/>
<text text-anchor="middle" x="510" y="-148.733" font-family="Arial" font-size="10.00">idVec2</text>
</a>
</g>
</g>
<!-- Node29&#45;&gt;Node4 -->
<g id="edge37" class="edge"><title>Node29&#45;&gt;Node4</title>
<path fill="none" stroke="#9a32cd" stroke-dasharray="5,2" d="M543.416,-142.022C582.642,-133.061 648.125,-125.459 686,-161.233 716.145,-189.705 730.204,-501.961 732.619,-561.468"/>
<polygon fill="#9a32cd" stroke="#9a32cd" points="542.452,-138.655 533.568,-144.427 544.113,-145.455 542.452,-138.655"/>
<text text-anchor="middle" x="641" y="-175.233" font-family="Arial" font-size="10.00"> origin</text>
<text text-anchor="middle" x="641" y="-164.233" font-family="Arial" font-size="10.00">shear</text>
</g>
<!-- Node30 -->
<g id="node30" class="node"><title>Node30</title>
<g id="a_node30"><a xlink:href="classid_list.html" target="_top" xlink:title="idList\&lt; drawWin_t \&gt;">
<polygon fill="white" stroke="black" points="458,-103.733 458,-122.733 562,-122.733 562,-103.733 458,-103.733"/>
<text text-anchor="middle" x="510" y="-110.733" font-family="Arial" font-size="10.00">idList&lt; drawWin_t &gt;</text>
</a>
</g>
</g>
<!-- Node30&#45;&gt;Node4 -->
<g id="edge38" class="edge"><title>Node30&#45;&gt;Node4</title>
<path fill="none" stroke="#9a32cd" stroke-dasharray="5,2" d="M551.695,-101.34C591.322,-92.5075 650.606,-87.0298 686,-120.233 719.444,-151.606 730.943,-499.472 732.74,-561.725"/>
<polygon fill="#9a32cd" stroke="#9a32cd" points="550.735,-97.9711 541.822,-103.7 552.362,-104.779 550.735,-97.9711"/>
<text text-anchor="middle" x="641" y="-123.233" font-family="Arial" font-size="10.00"> drawWindows</text>
</g>
<!-- Node31 -->
<g id="node31" class="node"><title>Node31</title>
<g id="a_node31"><a xlink:href="classid_list.html" target="_top" xlink:title="idList\&lt; idTransitionData \&gt;">
<polygon fill="white" stroke="black" points="446,-65.7329 446,-84.7329 574,-84.7329 574,-65.7329 446,-65.7329"/>
<text text-anchor="middle" x="510" y="-72.7329" font-family="Arial" font-size="10.00">idList&lt; idTransitionData &gt;</text>
</a>
</g>
</g>
<!-- Node31&#45;&gt;Node4 -->
<g id="edge40" class="edge"><title>Node31&#45;&gt;Node4</title>
<path fill="none" stroke="#9a32cd" stroke-dasharray="5,2" d="M584.42,-67.9522C625.527,-65.634 671.388,-66.567 686,-80.2329 722.509,-114.378 731.519,-494.719 732.821,-561.312"/>
<polygon fill="#9a32cd" stroke="#9a32cd" points="584.128,-64.4636 574.368,-68.5867 584.569,-71.4497 584.128,-64.4636"/>
<text text-anchor="middle" x="641" y="-83.2329" font-family="Arial" font-size="10.00"> transitions</text>
</g>
<!-- Node32 -->
<g id="node32" class="node"><title>Node32</title>
<g id="a_node32"><a xlink:href="classid_c_var.html" target="_top" xlink:title="idCVar">
<polygon fill="white" stroke="black" points="487,-917.733 487,-936.733 533,-936.733 533,-917.733 487,-917.733"/>
<text text-anchor="middle" x="510" y="-924.733" font-family="Arial" font-size="10.00">idCVar</text>
</a>
</g>
</g>
<!-- Node32&#45;&gt;Node4 -->
<g id="edge41" class="edge"><title>Node32&#45;&gt;Node4</title>
<path fill="none" stroke="#9a32cd" stroke-dasharray="5,2" d="M542.844,-934.672C582.054,-941.76 648.097,-946.616 686,-910.233 734.866,-863.327 733.97,-631.073 733.19,-580.829"/>
<polygon fill="#9a32cd" stroke="#9a32cd" points="543.501,-931.234 533.015,-932.746 542.155,-938.103 543.501,-931.234"/>
<text text-anchor="middle" x="641" y="-953.233" font-family="Arial" font-size="10.00"> gui_debug</text>
<text text-anchor="middle" x="641" y="-942.233" font-family="Arial" font-size="10.00">gui_edit</text>
</g>
<!-- Node32&#45;&gt;Node32 -->
<g id="edge43" class="edge"><title>Node32&#45;&gt;Node32</title>
<path fill="none" stroke="#9a32cd" stroke-dasharray="5,2" d="M487.307,-946.262C488.544,-951.361 496.109,-955.233 510,-955.233 531.684,-955.233 537.952,-945.798 528.804,-936.99"/>
<polygon fill="#9a32cd" stroke="#9a32cd" points="490.555,-947.565 491.196,-936.99 484.1,-944.857 490.555,-947.565"/>
<text text-anchor="middle" x="510" y="-969.233" font-family="Arial" font-size="10.00"> next</text>
<text text-anchor="middle" x="510" y="-958.233" font-family="Arial" font-size="10.00">internalVar</text>
</g>
<!-- Node33 -->
<g id="node33" class="node"><title>Node33</title>
<g id="a_node33"><a xlink:href="classid_cmd_args.html" target="_top" xlink:title="idCmdArgs">
<polygon fill="white" stroke="black" points="258.5,-978.733 258.5,-997.733 323.5,-997.733 323.5,-978.733 258.5,-978.733"/>
<text text-anchor="middle" x="291" y="-985.733" font-family="Arial" font-size="10.00">idCmdArgs</text>
</a>
</g>
</g>
<!-- Node33&#45;&gt;Node32 -->
<g id="edge42" class="edge"><title>Node33&#45;&gt;Node32</title>
<path fill="none" stroke="#9a32cd" stroke-dasharray="5,2" d="M333.453,-976.58C379.178,-963.727 451.032,-943.528 486.979,-933.423"/>
<polygon fill="#9a32cd" stroke="#9a32cd" points="332.233,-973.287 323.554,-979.363 334.128,-980.026 332.233,-973.287"/>
<text text-anchor="middle" x="387" y="-974.233" font-family="Arial" font-size="10.00"> valueCompletion</text>
</g>
<!-- Node34 -->
<g id="node34" class="node"><title>Node34</title>
<g id="a_node34"><a xlink:href="structid_reg_entry.html" target="_top" xlink:title="idRegEntry">
<polygon fill="white" stroke="black" points="477.5,-485.733 477.5,-504.733 542.5,-504.733 542.5,-485.733 477.5,-485.733"/>
<text text-anchor="middle" x="510" y="-492.733" font-family="Arial" font-size="10.00">idRegEntry</text>
</a>
</g>
</g>
<!-- Node34&#45;&gt;Node4 -->
<g id="edge44" class="edge"><title>Node34&#45;&gt;Node4</title>
<path fill="none" stroke="#9a32cd" stroke-dasharray="5,2" d="M553.182,-492.346C590.291,-491.642 644.684,-495.205 686,-517.233 705.302,-527.524 720.279,-549.188 727.754,-561.724"/>
<polygon fill="#9a32cd" stroke="#9a32cd" points="552.616,-488.861 542.728,-492.665 552.83,-495.858 552.616,-488.861"/>
<text text-anchor="middle" x="641" y="-520.233" font-family="Arial" font-size="10.00"> RegisterVars</text>
</g>
<!-- Node35 -->
<g id="node35" class="node"><title>Node35</title>
<g id="a_node35"><a xlink:href="classid_list.html" target="_top" xlink:title="idList\&lt; rvNamedEvent * \&gt;">
<polygon fill="white" stroke="black" points="447,-760.733 447,-779.733 573,-779.733 573,-760.733 447,-760.733"/>
<text text-anchor="middle" x="510" y="-767.733" font-family="Arial" font-size="10.00">idList&lt; rvNamedEvent * &gt;</text>
</a>
</g>
</g>
<!-- Node35&#45;&gt;Node4 -->
<g id="edge46" class="edge"><title>Node35&#45;&gt;Node4</title>
<path fill="none" stroke="#9a32cd" stroke-dasharray="5,2" d="M583.196,-759.832C627.852,-752.777 678.13,-743.456 686,-736.233 732.3,-693.736 734.206,-609.202 733.446,-580.796"/>
<polygon fill="#9a32cd" stroke="#9a32cd" points="582.523,-756.395 573.181,-761.392 583.601,-763.311 582.523,-756.395"/>
<text text-anchor="middle" x="641" y="-760.233" font-family="Arial" font-size="10.00"> namedEvents</text>
</g>
</g>
</svg>
