<?xml version="1.0" encoding="UTF-8" standalone="no"?>
<!DOCTYPE svg PUBLIC "-//W3C//DTD SVG 1.1//EN"
 "http://www.w3.org/Graphics/SVG/1.1/DTD/svg11.dtd">
<!-- Generated by graphviz version 2.34.0 (20130907.0111)
 -->
<!-- Title: AddMaterialFolderModifier Pages: 1 -->
<!--zoomable 361 -->
<svg id="main" version="1.1" xmlns="http://www.w3.org/2000/svg" xmlns:xlink="http://www.w3.org/1999/xlink" xml:space="preserve" onload="init(evt)">
<style type="text/css"><![CDATA[
.edge:hover path { stroke: red; }
.edge:hover polygon { stroke: red; fill: red; }
]]></style>
<script type="text/javascript"><![CDATA[
var edges = document.getElementsByTagName('g');
if (edges && edges.length) {
  for (var i=0;i<edges.length;i++) {
    if (edges[i].id.substr(0,4)=='edge') {
      edges[i].setAttribute('class','edge');
    }
  }
}
]]></script>
        <defs>
                <circle id="rim" cx="0" cy="0" r="7"/>
                <circle id="rim2" cx="0" cy="0" r="3.5"/>
                <g id="zoomPlus">
                        <use xlink:href="#rim" fill="#404040">
                                <set attributeName="fill" to="#808080" begin="zoomplus.mouseover" end="zoomplus.mouseout"/>
                        </use>
                        <path d="M-4,0h8M0,-4v8" fill="none" stroke="white" stroke-width="1.5" pointer-events="none"/>
                </g>
                <g id="zoomMin">
                        <use xlink:href="#rim" fill="#404040">
                                <set attributeName="fill" to="#808080" begin="zoomminus.mouseover" end="zoomminus.mouseout"/>
                        </use>
                        <path d="M-4,0h8" fill="none" stroke="white" stroke-width="1.5" pointer-events="none"/>
                </g>
                <g id="dirArrow">
                        <path fill="none" stroke="white" stroke-width="1.5" d="M0,-3.0v7 M-2.5,-0.5L0,-3.0L2.5,-0.5"/>
                </g>
               <g id="resetDef">
                       <use xlink:href="#rim2" fill="#404040">
                               <set attributeName="fill" to="#808080" begin="reset.mouseover" end="reset.mouseout"/>
                       </use>
               </g>
        </defs>

<script type="text/javascript">
var viewWidth = 1262;
var viewHeight = 361;
var sectionId = 'dynsection-1';
</script>
<script xlink:href="svgpan.js"/>
<svg id="graph" class="graph">
<g id="viewport">
<title>AddMaterialFolderModifier</title>
<polygon fill="white" stroke="white" points="-4,4 -4,-357 1258,-357 1258,4 -4,4"/>
<!-- Node1 -->
<g id="node1" class="node"><title>Node1</title>
<polygon fill="#bfbfbf" stroke="black" points="1124.5,-246.5 1124.5,-265.5 1253.5,-265.5 1253.5,-246.5 1124.5,-246.5"/>
<text text-anchor="middle" x="1189" y="-253.5" font-family="Arial" font-size="10.00">AddMaterialFolderModifier</text>
</g>
<!-- Node2 -->
<g id="node2" class="node"><title>Node2</title>
<g id="a_node2"><a xlink:href="class_material_modifier.html" target="_top" xlink:title="MaterialModifier">
<polygon fill="white" stroke="black" points="745.5,-274.5 745.5,-293.5 830.5,-293.5 830.5,-274.5 745.5,-274.5"/>
<text text-anchor="middle" x="788" y="-281.5" font-family="Arial" font-size="10.00">MaterialModifier</text>
</a>
</g>
</g>
<!-- Node2&#45;&gt;Node1 -->
<g id="edge1" class="edge"><title>Node2&#45;&gt;Node1</title>
<path fill="none" stroke="midnightblue" d="M840.853,-280.361C913.554,-275.259 1045.67,-265.988 1124.28,-260.472"/>
<polygon fill="midnightblue" stroke="midnightblue" points="840.301,-276.891 830.571,-281.083 840.791,-283.874 840.301,-276.891"/>
</g>
<!-- Node3 -->
<g id="node3" class="node"><title>Node3</title>
<g id="a_node3"><a xlink:href="classid_str.html" target="_top" xlink:title="idStr">
<polygon fill="white" stroke="black" points="262.5,-303.5 262.5,-322.5 299.5,-322.5 299.5,-303.5 262.5,-303.5"/>
<text text-anchor="middle" x="281" y="-310.5" font-family="Arial" font-size="10.00">idStr</text>
</a>
</g>
</g>
<!-- Node3&#45;&gt;Node2 -->
<g id="edge2" class="edge"><title>Node3&#45;&gt;Node2</title>
<path fill="none" stroke="#9a32cd" stroke-dasharray="5,2" d="M309.608,-318.817C377.039,-331.978 555.059,-360.394 698,-327 725.906,-320.481 755.278,-304.168 772.327,-293.614"/>
<polygon fill="#9a32cd" stroke="#9a32cd" points="310.25,-315.376 299.758,-316.848 308.877,-322.24 310.25,-315.376"/>
<text text-anchor="middle" x="533" y="-345" font-family="Arial" font-size="10.00"> materialName</text>
</g>
<!-- Node4 -->
<g id="node4" class="node"><title>Node4</title>
<g id="a_node4"><a xlink:href="class_material_doc_manager.html" target="_top" xlink:title="MaterialDocManager">
<polygon fill="white" stroke="black" points="480,-187.5 480,-206.5 586,-206.5 586,-187.5 480,-187.5"/>
<text text-anchor="middle" x="533" y="-194.5" font-family="Arial" font-size="10.00">MaterialDocManager</text>
</a>
</g>
</g>
<!-- Node3&#45;&gt;Node4 -->
<g id="edge4" class="edge"><title>Node3&#45;&gt;Node4</title>
<path fill="none" stroke="#9a32cd" stroke-dasharray="5,2" d="M309.458,-301.363C327.174,-294.017 350.788,-284.529 372,-277 411.478,-262.988 424.656,-267.982 462,-249 484.943,-237.338 508.283,-218.234 521.376,-206.714"/>
<polygon fill="#9a32cd" stroke="#9a32cd" points="307.65,-298.325 299.772,-305.409 310.348,-304.784 307.65,-298.325"/>
<text text-anchor="middle" x="417" y="-291" font-family="Arial" font-size="10.00"> copyMaterial</text>
<text text-anchor="middle" x="417" y="-280" font-family="Arial" font-size="10.00">copyStageMaterial</text>
</g>
<!-- Node8 -->
<g id="node8" class="node"><title>Node8</title>
<g id="a_node8"><a xlink:href="class_material_doc.html" target="_top" xlink:title="MaterialDoc">
<polygon fill="white" stroke="black" points="754,-84.5 754,-103.5 822,-103.5 822,-84.5 754,-84.5"/>
<text text-anchor="middle" x="788" y="-91.5" font-family="Arial" font-size="10.00">MaterialDoc</text>
</a>
</g>
</g>
<!-- Node3&#45;&gt;Node8 -->
<g id="edge9" class="edge"><title>Node3&#45;&gt;Node8</title>
<path fill="none" stroke="#9a32cd" stroke-dasharray="5,2" d="M309.581,-314.663C393.527,-319.089 643.504,-327.371 698,-273 748.659,-222.458 669.318,-167.237 716,-113 725.323,-102.168 740.078,-97.1776 753.728,-94.9903"/>
<polygon fill="#9a32cd" stroke="#9a32cd" points="309.708,-311.165 299.53,-314.109 309.322,-318.154 309.708,-311.165"/>
<text text-anchor="middle" x="533" y="-320" font-family="Arial" font-size="10.00"> name</text>
</g>
<!-- Node4&#45;&gt;Node2 -->
<g id="edge3" class="edge"><title>Node4&#45;&gt;Node2</title>
<path fill="none" stroke="#9a32cd" stroke-dasharray="5,2" d="M566.856,-210.365C603.049,-224.832 663.14,-248.095 716,-265 726.452,-268.343 737.894,-271.584 748.482,-274.414"/>
<polygon fill="#9a32cd" stroke="#9a32cd" points="567.891,-207.01 557.307,-206.531 565.283,-213.505 567.891,-207.01"/>
<text text-anchor="middle" x="651" y="-261" font-family="Arial" font-size="10.00"> manager</text>
</g>
<!-- Node4&#45;&gt;Node8 -->
<g id="edge13" class="edge"><title>Node4&#45;&gt;Node8</title>
<path fill="none" stroke="#9a32cd" stroke-dasharray="5,2" d="M547.151,-179.337C559.891,-163.568 580.668,-141.145 604,-129 617.091,-122.186 704.52,-107.3 753.644,-99.3135"/>
<polygon fill="#9a32cd" stroke="#9a32cd" points="544.326,-177.267 540.935,-187.305 549.845,-181.573 544.326,-177.267"/>
<text text-anchor="middle" x="651" y="-132" font-family="Arial" font-size="10.00"> manager</text>
</g>
<!-- Node19 -->
<g id="node19" class="node"><title>Node19</title>
<g id="a_node19"><a xlink:href="class_material_view.html" target="_top" xlink:title="MaterialView">
<polygon fill="white" stroke="black" points="752,-198.5 752,-217.5 824,-217.5 824,-198.5 752,-198.5"/>
<text text-anchor="middle" x="788" y="-205.5" font-family="Arial" font-size="10.00">MaterialView</text>
</a>
</g>
</g>
<!-- Node4&#45;&gt;Node19 -->
<g id="edge23" class="edge"><title>Node4&#45;&gt;Node19</title>
<path fill="none" stroke="#9a32cd" stroke-dasharray="5,2" d="M596.266,-199.707C645.151,-201.833 711.456,-204.715 751.629,-206.462"/>
<polygon fill="#9a32cd" stroke="#9a32cd" points="596.258,-196.204 586.115,-199.266 595.953,-203.197 596.258,-196.204"/>
<text text-anchor="middle" x="651" y="-207" font-family="Arial" font-size="10.00"> materialDocManager</text>
</g>
<!-- Node5 -->
<g id="node5" class="node"><title>Node5</title>
<g id="a_node5"><a xlink:href="classid_list.html" target="_top" xlink:title="idList\&lt; MaterialModifier * \&gt;">
<polygon fill="white" stroke="black" points="214.5,-229.5 214.5,-248.5 347.5,-248.5 347.5,-229.5 214.5,-229.5"/>
<text text-anchor="middle" x="281" y="-236.5" font-family="Arial" font-size="10.00">idList&lt; MaterialModifier * &gt;</text>
</a>
</g>
</g>
<!-- Node5&#45;&gt;Node4 -->
<g id="edge5" class="edge"><title>Node5&#45;&gt;Node4</title>
<path fill="none" stroke="#9a32cd" stroke-dasharray="5,2" d="M349.778,-227.78C383.515,-222.175 424.915,-215.269 462,-209 467.714,-208.034 473.689,-207.018 479.638,-206.004"/>
<polygon fill="#9a32cd" stroke="#9a32cd" points="348.859,-224.384 339.567,-229.475 350.005,-231.29 348.859,-224.384"/>
<text text-anchor="middle" x="417" y="-237" font-family="Arial" font-size="10.00"> undoModifiers</text>
<text text-anchor="middle" x="417" y="-226" font-family="Arial" font-size="10.00">redoModifiers</text>
</g>
<!-- Node6 -->
<g id="node6" class="node"><title>Node6</title>
<g id="a_node6"><a xlink:href="struct_m_e_stage__t.html" target="_top" xlink:title="MEStage_t">
<polygon fill="white" stroke="black" points="248.5,-191.5 248.5,-210.5 313.5,-210.5 313.5,-191.5 248.5,-191.5"/>
<text text-anchor="middle" x="281" y="-198.5" font-family="Arial" font-size="10.00">MEStage_t</text>
</a>
</g>
</g>
<!-- Node6&#45;&gt;Node4 -->
<g id="edge6" class="edge"><title>Node6&#45;&gt;Node4</title>
<path fill="none" stroke="#9a32cd" stroke-dasharray="5,2" d="M323.778,-199.372C338.96,-198.843 356.252,-198.312 372,-198 407.966,-197.288 448.487,-197.041 479.752,-196.97"/>
<polygon fill="#9a32cd" stroke="#9a32cd" points="323.517,-195.879 313.649,-199.736 323.769,-202.875 323.517,-195.879"/>
<text text-anchor="middle" x="417" y="-201" font-family="Arial" font-size="10.00"> copyStage</text>
</g>
<!-- Node7 -->
<g id="node7" class="node"><title>Node7</title>
<g id="a_node7"><a xlink:href="classid_dict.html" target="_top" xlink:title="idDict">
<polygon fill="white" stroke="black" points="36.5,-142.5 36.5,-161.5 77.5,-161.5 77.5,-142.5 36.5,-142.5"/>
<text text-anchor="middle" x="57" y="-149.5" font-family="Arial" font-size="10.00">idDict</text>
</a>
</g>
</g>
<!-- Node7&#45;&gt;Node6 -->
<g id="edge7" class="edge"><title>Node7&#45;&gt;Node6</title>
<path fill="none" stroke="#9a32cd" stroke-dasharray="5,2" d="M87.55,-158.522C129.356,-167.75 205.445,-184.544 248.36,-194.017"/>
<polygon fill="#9a32cd" stroke="#9a32cd" points="88.2204,-155.086 77.701,-156.348 86.7116,-161.922 88.2204,-155.086"/>
<text text-anchor="middle" x="161" y="-183" font-family="Arial" font-size="10.00"> stageData</text>
</g>
<!-- Node9 -->
<g id="node9" class="node"><title>Node9</title>
<g id="a_node9"><a xlink:href="struct_m_e_material__t.html" target="_top" xlink:title="MEMaterial_t">
<polygon fill="white" stroke="black" points="244,-77.5 244,-96.5 318,-96.5 318,-77.5 244,-77.5"/>
<text text-anchor="middle" x="281" y="-84.5" font-family="Arial" font-size="10.00">MEMaterial_t</text>
</a>
</g>
</g>
<!-- Node7&#45;&gt;Node9 -->
<g id="edge12" class="edge"><title>Node7&#45;&gt;Node9</title>
<path fill="none" stroke="#9a32cd" stroke-dasharray="5,2" d="M87.7111,-142.509C117.9,-132.955 166.057,-117.96 208,-106 219.562,-102.703 232.226,-99.294 243.665,-96.2895"/>
<polygon fill="#9a32cd" stroke="#9a32cd" points="86.2946,-139.286 77.8219,-145.648 88.4122,-145.958 86.2946,-139.286"/>
<text text-anchor="middle" x="161" y="-131" font-family="Arial" font-size="10.00"> materialData</text>
</g>
<!-- Node8&#45;&gt;Node4 -->
<g id="edge8" class="edge"><title>Node8&#45;&gt;Node4</title>
<path fill="none" stroke="#9a32cd" stroke-dasharray="5,2" d="M744.056,-99.7712C734.143,-102.589 724.133,-106.778 716,-113 703.347,-122.681 710.402,-133.999 698,-144 678.842,-159.449 616.589,-176.928 574.534,-187.449"/>
<polygon fill="#9a32cd" stroke="#9a32cd" points="744.973,-103.15 753.862,-97.3853 743.318,-96.3487 744.973,-103.15"/>
<text text-anchor="middle" x="651" y="-182" font-family="Arial" font-size="10.00"> currentMaterial</text>
</g>
<!-- Node9&#45;&gt;Node8 -->
<g id="edge10" class="edge"><title>Node9&#45;&gt;Node8</title>
<path fill="none" stroke="#9a32cd" stroke-dasharray="5,2" d="M328.514,-87.6448C429.489,-89.0444 666.694,-92.3324 753.996,-93.5425"/>
<polygon fill="#9a32cd" stroke="#9a32cd" points="328.366,-84.1425 318.318,-87.5034 328.269,-91.1418 328.366,-84.1425"/>
<text text-anchor="middle" x="533" y="-95" font-family="Arial" font-size="10.00"> editMaterial</text>
</g>
<!-- Node10 -->
<g id="node10" class="node"><title>Node10</title>
<g id="a_node10"><a xlink:href="classid_list.html" target="_top" xlink:title="idList\&lt; MEStage_t * \&gt;">
<polygon fill="white" stroke="black" points="0.5,-77.5 0.5,-96.5 113.5,-96.5 113.5,-77.5 0.5,-77.5"/>
<text text-anchor="middle" x="57" y="-84.5" font-family="Arial" font-size="10.00">idList&lt; MEStage_t * &gt;</text>
</a>
</g>
</g>
<!-- Node10&#45;&gt;Node9 -->
<g id="edge11" class="edge"><title>Node10&#45;&gt;Node9</title>
<path fill="none" stroke="#9a32cd" stroke-dasharray="5,2" d="M123.754,-87C162.982,-87 211.306,-87 243.736,-87"/>
<polygon fill="#9a32cd" stroke="#9a32cd" points="123.733,-83.5001 113.733,-87 123.733,-90.5001 123.733,-83.5001"/>
<text text-anchor="middle" x="161" y="-90" font-family="Arial" font-size="10.00"> stages</text>
</g>
<!-- Node11 -->
<g id="node11" class="node"><title>Node11</title>
<g id="a_node11"><a xlink:href="class_source_modify_owner.html" target="_top" xlink:title="SourceModifyOwner">
<polygon fill="white" stroke="black" points="481,-38.5 481,-57.5 585,-57.5 585,-38.5 481,-38.5"/>
<text text-anchor="middle" x="533" y="-45.5" font-family="Arial" font-size="10.00">SourceModifyOwner</text>
</a>
</g>
</g>
<!-- Node11&#45;&gt;Node8 -->
<g id="edge14" class="edge"><title>Node11&#45;&gt;Node8</title>
<path fill="none" stroke="#9a32cd" stroke-dasharray="5,2" d="M595.492,-53.7154C626.423,-57.136 664.388,-62.1655 698,-69 717.974,-73.0614 740.034,-79.2458 757.194,-84.4473"/>
<polygon fill="#9a32cd" stroke="#9a32cd" points="595.606,-50.2075 585.288,-52.6168 594.856,-57.1673 595.606,-50.2075"/>
<text text-anchor="middle" x="651" y="-72" font-family="Arial" font-size="10.00"> sourceModifyOwner</text>
</g>
<!-- Node12 -->
<g id="node12" class="node"><title>Node12</title>
<g id="a_node12"><a xlink:href="classid_material.html" target="_top" xlink:title="idMaterial">
<polygon fill="white" stroke="black" points="503.5,-0.5 503.5,-19.5 562.5,-19.5 562.5,-0.5 503.5,-0.5"/>
<text text-anchor="middle" x="533" y="-7.5" font-family="Arial" font-size="10.00">idMaterial</text>
</a>
</g>
</g>
<!-- Node12&#45;&gt;Node8 -->
<g id="edge15" class="edge"><title>Node12&#45;&gt;Node8</title>
<path fill="none" stroke="#9a32cd" stroke-dasharray="5,2" d="M572.678,-13.0751C606.603,-16.7009 656.806,-24.3463 698,-40 727.396,-51.1705 757.948,-72.1028 774.504,-84.3664"/>
<polygon fill="#9a32cd" stroke="#9a32cd" points="572.999,-9.58986 562.7,-12.0745 572.301,-16.5549 572.999,-9.58986"/>
<text text-anchor="middle" x="651" y="-43" font-family="Arial" font-size="10.00"> renderMaterial</text>
</g>
<!-- Node13 -->
<g id="node13" class="node"><title>Node13</title>
<g id="a_node13"><a xlink:href="classid_decl.html" target="_top" xlink:title="idDecl">
<polygon fill="white" stroke="black" points="259,-0.5 259,-19.5 303,-19.5 303,-0.5 259,-0.5"/>
<text text-anchor="middle" x="281" y="-7.5" font-family="Arial" font-size="10.00">idDecl</text>
</a>
</g>
</g>
<!-- Node13&#45;&gt;Node12 -->
<g id="edge16" class="edge"><title>Node13&#45;&gt;Node12</title>
<path fill="none" stroke="midnightblue" d="M313.621,-10C362.579,-10 455.99,-10 503.185,-10"/>
<polygon fill="midnightblue" stroke="midnightblue" points="313.315,-6.5001 303.315,-10 313.315,-13.5001 313.315,-6.5001"/>
</g>
<!-- Node14 -->
<g id="node14" class="node"><title>Node14</title>
<g id="a_node14"><a xlink:href="classid_decl_base.html" target="_top" xlink:title="idDeclBase">
<polygon fill="white" stroke="black" points="24,-0.5 24,-19.5 90,-19.5 90,-0.5 24,-0.5"/>
<text text-anchor="middle" x="57" y="-7.5" font-family="Arial" font-size="10.00">idDeclBase</text>
</a>
</g>
</g>
<!-- Node14&#45;&gt;Node13 -->
<g id="edge17" class="edge"><title>Node14&#45;&gt;Node13</title>
<path fill="none" stroke="#9a32cd" stroke-dasharray="5,2" d="M100.52,-10C147.836,-10 222.398,-10 258.71,-10"/>
<polygon fill="#9a32cd" stroke="#9a32cd" points="100.281,-6.5001 90.2807,-10 100.281,-13.5001 100.281,-6.5001"/>
<text text-anchor="middle" x="161" y="-13" font-family="Arial" font-size="10.00"> base</text>
</g>
<!-- Node15 -->
<g id="node15" class="node"><title>Node15</title>
<g id="a_node15"><a xlink:href="classid_hash_table.html" target="_top" xlink:title="idHashTable\&lt; MaterialDoc * \&gt;">
<polygon fill="white" stroke="black" points="208,-153.5 208,-172.5 354,-172.5 354,-153.5 208,-153.5"/>
<text text-anchor="middle" x="281" y="-160.5" font-family="Arial" font-size="10.00">idHashTable&lt; MaterialDoc * &gt;</text>
</a>
</g>
</g>
<!-- Node15&#45;&gt;Node4 -->
<g id="edge18" class="edge"><title>Node15&#45;&gt;Node4</title>
<path fill="none" stroke="#9a32cd" stroke-dasharray="5,2" d="M364.302,-169.838C395.053,-172.878 430.217,-176.932 462,-182 471.451,-183.507 481.549,-185.465 491.05,-187.465"/>
<polygon fill="#9a32cd" stroke="#9a32cd" points="364.344,-166.325 354.053,-168.845 363.67,-173.293 364.344,-166.325"/>
<text text-anchor="middle" x="417" y="-185" font-family="Arial" font-size="10.00"> inProgressMaterials</text>
</g>
<!-- Node16 -->
<g id="node16" class="node"><title>Node16</title>
<g id="a_node16"><a xlink:href="classid_list.html" target="_top" xlink:title="idList\&lt; MaterialView * \&gt;">
<polygon fill="white" stroke="black" points="221,-115.5 221,-134.5 341,-134.5 341,-115.5 221,-115.5"/>
<text text-anchor="middle" x="281" y="-122.5" font-family="Arial" font-size="10.00">idList&lt; MaterialView * &gt;</text>
</a>
</g>
</g>
<!-- Node16&#45;&gt;Node4 -->
<g id="edge19" class="edge"><title>Node16&#45;&gt;Node4</title>
<path fill="none" stroke="#9a32cd" stroke-dasharray="5,2" d="M351.713,-130.466C385.75,-134.667 426.84,-142.054 462,-155 483.545,-162.933 505.854,-177.645 519.332,-187.379"/>
<polygon fill="#9a32cd" stroke="#9a32cd" points="351.729,-126.944 341.391,-129.261 350.918,-133.897 351.729,-126.944"/>
<text text-anchor="middle" x="417" y="-158" font-family="Arial" font-size="10.00"> materialViews</text>
</g>
<!-- Node17 -->
<g id="node17" class="node"><title>Node17</title>
<g id="a_node17"><a xlink:href="class_material_tree_view.html" target="_top" xlink:title="MaterialTreeView">
<polygon fill="white" stroke="black" points="974.5,-208.5 974.5,-227.5 1065.5,-227.5 1065.5,-208.5 974.5,-208.5"/>
<text text-anchor="middle" x="1020" y="-215.5" font-family="Arial" font-size="10.00">MaterialTreeView</text>
</a>
</g>
</g>
<!-- Node17&#45;&gt;Node1 -->
<g id="edge20" class="edge"><title>Node17&#45;&gt;Node1</title>
<path fill="none" stroke="#9a32cd" stroke-dasharray="5,2" d="M1072.96,-229.824C1096.51,-235.182 1123.97,-241.431 1146.16,-246.48"/>
<polygon fill="#9a32cd" stroke="#9a32cd" points="1073.67,-226.395 1063.14,-227.589 1072.12,-233.221 1073.67,-226.395"/>
<text text-anchor="middle" x="1095" y="-240" font-family="Arial" font-size="10.00"> view</text>
</g>
<!-- Node18 -->
<g id="node18" class="node"><title>Node18</title>
<polygon fill="white" stroke="#bfbfbf" points="756.5,-236.5 756.5,-255.5 819.5,-255.5 819.5,-236.5 756.5,-236.5"/>
<text text-anchor="middle" x="788" y="-243.5" font-family="Arial" font-size="10.00">CTreeView</text>
</g>
<!-- Node18&#45;&gt;Node17 -->
<g id="edge21" class="edge"><title>Node18&#45;&gt;Node17</title>
<path fill="none" stroke="midnightblue" d="M829.481,-241.722C863.325,-238.067 912.852,-232.535 956,-227 961.918,-226.241 968.142,-225.401 974.28,-224.55"/>
<polygon fill="midnightblue" stroke="midnightblue" points="829.074,-238.246 819.505,-242.794 829.822,-245.206 829.074,-238.246"/>
</g>
<!-- Node19&#45;&gt;Node17 -->
<g id="edge22" class="edge"><title>Node19&#45;&gt;Node17</title>
<path fill="none" stroke="midnightblue" d="M834.327,-209.971C874.885,-211.734 933.997,-214.304 974.347,-216.059"/>
<polygon fill="midnightblue" stroke="midnightblue" points="834.325,-206.467 824.182,-209.53 834.021,-213.461 834.325,-206.467"/>
</g>
<!-- Node20 -->
<g id="node20" class="node"><title>Node20</title>
<g id="a_node20"><a xlink:href="classid_hash_table.html" target="_top" xlink:title="idHashTable\&lt; HTREEITEM \&gt;">
<polygon fill="white" stroke="black" points="716.5,-160.5 716.5,-179.5 859.5,-179.5 859.5,-160.5 716.5,-160.5"/>
<text text-anchor="middle" x="788" y="-167.5" font-family="Arial" font-size="10.00">idHashTable&lt; HTREEITEM &gt;</text>
</a>
</g>
</g>
<!-- Node20&#45;&gt;Node17 -->
<g id="edge24" class="edge"><title>Node20&#45;&gt;Node17</title>
<path fill="none" stroke="#9a32cd" stroke-dasharray="5,2" d="M869.698,-163.315C897.618,-163.367 928.731,-166.132 956,-175 976.905,-181.798 997.188,-197.86 1008.87,-208.314"/>
<polygon fill="#9a32cd" stroke="#9a32cd" points="869.534,-159.816 859.568,-163.412 869.602,-166.816 869.534,-159.816"/>
<text text-anchor="middle" x="917" y="-200" font-family="Arial" font-size="10.00"> materialToTree</text>
<text text-anchor="middle" x="917" y="-189" font-family="Arial" font-size="10.00">quickTree</text>
<text text-anchor="middle" x="917" y="-178" font-family="Arial" font-size="10.00">fileToTree</text>
</g>
<!-- Node21 -->
<g id="node21" class="node"><title>Node21</title>
<g id="a_node21"><a xlink:href="classid_list.html" target="_top" xlink:title="idList\&lt; MaterialTreeItem_t \&gt;">
<polygon fill="white" stroke="black" points="719,-122.5 719,-141.5 857,-141.5 857,-122.5 719,-122.5"/>
<text text-anchor="middle" x="788" y="-129.5" font-family="Arial" font-size="10.00">idList&lt; MaterialTreeItem_t &gt;</text>
</a>
</g>
</g>
<!-- Node21&#45;&gt;Node17 -->
<g id="edge25" class="edge"><title>Node21&#45;&gt;Node17</title>
<path fill="none" stroke="#9a32cd" stroke-dasharray="5,2" d="M867.297,-127.817C896.463,-129.197 929.01,-134.4 956,-148 983.304,-161.758 1004.33,-192.767 1013.69,-208.484"/>
<polygon fill="#9a32cd" stroke="#9a32cd" points="867.247,-124.314 857.137,-127.481 867.016,-131.31 867.247,-124.314"/>
<text text-anchor="middle" x="917" y="-151" font-family="Arial" font-size="10.00"> affectedMaterials</text>
</g>
</g>
</svg>
        <g id="navigator" transform="translate(0 0)" fill="#404254">
                <rect fill="#f2f5e9" fill-opacity="0.5" stroke="#606060" stroke-width=".5" x="0" y="0" width="60" height="60"/>
                <use id="zoomplus" xlink:href="#zoomPlus" x="17" y="9" onmousedown="handleZoom(evt,'in')"/>
                <use id="zoomminus" xlink:href="#zoomMin" x="42" y="9" onmousedown="handleZoom(evt,'out')"/>
                <use id="reset" xlink:href="#resetDef" x="30" y="36" onmousedown="handleReset()"/>
                <g id="arrowUp" xlink:href="#dirArrow" transform="translate(30 24)" onmousedown="handlePan(0,-1)">
                  <use xlink:href="#rim" fill="#404040">
                        <set attributeName="fill" to="#808080" begin="arrowUp.mouseover" end="arrowUp.mouseout"/>
                  </use>
                  <path fill="none" stroke="white" stroke-width="1.5" d="M0,-3.0v7 M-2.5,-0.5L0,-3.0L2.5,-0.5"/>
                </g>
                <g id="arrowRight" xlink:href="#dirArrow" transform="rotate(90) translate(36 -43)" onmousedown="handlePan(1,0)">
                  <use xlink:href="#rim" fill="#404040">
                        <set attributeName="fill" to="#808080" begin="arrowRight.mouseover" end="arrowRight.mouseout"/>
                  </use>
                  <path fill="none" stroke="white" stroke-width="1.5" d="M0,-3.0v7 M-2.5,-0.5L0,-3.0L2.5,-0.5"/>
                </g>
                <g id="arrowDown" xlink:href="#dirArrow" transform="rotate(180) translate(-30 -48)" onmousedown="handlePan(0,1)">
                  <use xlink:href="#rim" fill="#404040">
                        <set attributeName="fill" to="#808080" begin="arrowDown.mouseover" end="arrowDown.mouseout"/>
                  </use>
                  <path fill="none" stroke="white" stroke-width="1.5" d="M0,-3.0v7 M-2.5,-0.5L0,-3.0L2.5,-0.5"/>
                </g>
                <g id="arrowLeft" xlink:href="#dirArrow" transform="rotate(270) translate(-36 17)" onmousedown="handlePan(-1,0)">
                  <use xlink:href="#rim" fill="#404040">
                        <set attributeName="fill" to="#808080" begin="arrowLeft.mouseover" end="arrowLeft.mouseout"/>
                  </use>
                  <path fill="none" stroke="white" stroke-width="1.5" d="M0,-3.0v7 M-2.5,-0.5L0,-3.0L2.5,-0.5"/>
                </g>
        </g>
        <svg viewBox="0 0 15 15" width="100%" height="30px" preserveAspectRatio="xMaxYMin meet">
         <g id="arrow_out" transform="scale(0.3 0.3)">
          <a xlink:href="class_add_material_folder_modifier__coll__graph_org.svg" target="_base">
           <rect id="button" ry="5" rx="5" y="6" x="6" height="38" width="38"
                fill="#f2f5e9" fill-opacity="0.5" stroke="#606060" stroke-width="1.0"/>
           <path id="arrow"
             d="M 11.500037,31.436501 C 11.940474,20.09759 22.043105,11.32322 32.158766,21.979434 L 37.068811,17.246167 C 37.068811,17.246167 37.088388,32 37.088388,32 L 22.160133,31.978069 C 22.160133,31.978069 26.997745,27.140456 26.997745,27.140456 C 18.528582,18.264221 13.291696,25.230495 11.500037,31.436501 z"
             style="fill:#404040;"/>
          </a>
         </g>
        </svg>
</svg>
