<?xml version="1.0" encoding="UTF-8" standalone="no"?>
<!DOCTYPE svg PUBLIC "-//W3C//DTD SVG 1.1//EN"
 "http://www.w3.org/Graphics/SVG/1.1/DTD/svg11.dtd">
<!-- Generated by graphviz version 2.34.0 (20130907.0111)
 -->
<!-- Title: idItem Pages: 1 -->
<svg width="452pt" height="252pt"
 viewBox="0.00 0.00 452.00 252.00" xmlns="http://www.w3.org/2000/svg" xmlns:xlink="http://www.w3.org/1999/xlink">
<g id="graph0" class="graph" transform="scale(1 1) rotate(0) translate(4 248)">
<title>idItem</title>
<polygon fill="white" stroke="white" points="-4,4 -4,-248 448,-248 448,4 -4,4"/>
<!-- Node1 -->
<g id="node1" class="node"><title>Node1</title>
<polygon fill="#bfbfbf" stroke="black" points="210.5,-112.5 210.5,-131.5 253.5,-131.5 253.5,-112.5 210.5,-112.5"/>
<text text-anchor="middle" x="232" y="-119.5" font-family="Arial" font-size="10.00">idItem</text>
</g>
<!-- Node4 -->
<g id="node4" class="node"><title>Node4</title>
<g id="a_node4"><a xlink:href="classid_item_powerup.html" target="_top" xlink:title="idItemPowerup">
<polygon fill="white" stroke="black" points="0,-56.5 0,-75.5 80,-75.5 80,-56.5 0,-56.5"/>
<text text-anchor="middle" x="40" y="-63.5" font-family="Arial" font-size="10.00">idItemPowerup</text>
</a>
</g>
</g>
<!-- Node1&#45;&gt;Node4 -->
<g id="edge5" class="edge"><title>Node1&#45;&gt;Node4</title>
<path fill="none" stroke="midnightblue" d="M200.178,-113.418C162.327,-103.457 100.22,-86.0115 65.4089,-75.5788"/>
<polygon fill="midnightblue" stroke="midnightblue" points="199.609,-116.886 210.168,-116.017 201.371,-110.112 199.609,-116.886"/>
</g>
<!-- Node1&#45;&gt;Node4 -->
<g id="edge6" class="edge"><title>Node1&#45;&gt;Node4</title>
<path fill="none" stroke="midnightblue" d="M200.139,-110.5C165.671,-100.292 111.104,-84.9826 75.343,-75.5118"/>
<polygon fill="midnightblue" stroke="midnightblue" points="199.565,-113.981 210.148,-113.492 201.57,-107.274 199.565,-113.981"/>
</g>
<!-- Node5 -->
<g id="node5" class="node"><title>Node5</title>
<g id="a_node5"><a xlink:href="classid_moveable_item.html" target="_top" xlink:title="idMoveableItem">
<polygon fill="white" stroke="black" points="98.5,-56.5 98.5,-75.5 181.5,-75.5 181.5,-56.5 98.5,-56.5"/>
<text text-anchor="middle" x="140" y="-63.5" font-family="Arial" font-size="10.00">idMoveableItem</text>
</a>
</g>
</g>
<!-- Node1&#45;&gt;Node5 -->
<g id="edge7" class="edge"><title>Node1&#45;&gt;Node5</title>
<path fill="none" stroke="midnightblue" d="M203.229,-107.59C184.892,-97.6052 162.439,-84.2672 149.635,-75.6545"/>
<polygon fill="midnightblue" stroke="midnightblue" points="201.633,-110.705 212.104,-112.324 204.928,-104.529 201.633,-110.705"/>
</g>
<!-- Node1&#45;&gt;Node5 -->
<g id="edge10" class="edge"><title>Node1&#45;&gt;Node5</title>
<path fill="none" stroke="midnightblue" d="M213.551,-106.622C197.929,-96.7574 175.869,-83.9919 159.855,-75.6545"/>
<polygon fill="midnightblue" stroke="midnightblue" points="212.04,-109.814 222.333,-112.324 215.852,-103.943 212.04,-109.814"/>
</g>
<!-- Node7 -->
<g id="node7" class="node"><title>Node7</title>
<g id="a_node7"><a xlink:href="classid_objective.html" target="_top" xlink:title="idObjective">
<polygon fill="white" stroke="black" points="200,-56.5 200,-75.5 264,-75.5 264,-56.5 200,-56.5"/>
<text text-anchor="middle" x="232" y="-63.5" font-family="Arial" font-size="10.00">idObjective</text>
</a>
</g>
</g>
<!-- Node1&#45;&gt;Node7 -->
<g id="edge11" class="edge"><title>Node1&#45;&gt;Node7</title>
<path fill="none" stroke="midnightblue" d="M225.528,-102.101C224.896,-93.1357 225.343,-82.8579 226.869,-75.7511"/>
<polygon fill="midnightblue" stroke="midnightblue" points="222.066,-102.622 226.834,-112.083 229.007,-101.713 222.066,-102.622"/>
</g>
<!-- Node1&#45;&gt;Node7 -->
<g id="edge12" class="edge"><title>Node1&#45;&gt;Node7</title>
<path fill="none" stroke="midnightblue" d="M238.472,-102.101C239.104,-93.1357 238.657,-82.8579 237.131,-75.7511"/>
<polygon fill="midnightblue" stroke="midnightblue" points="234.993,-101.713 237.166,-112.083 241.934,-102.622 234.993,-101.713"/>
</g>
<!-- Node8 -->
<g id="node8" class="node"><title>Node8</title>
<g id="a_node8"><a xlink:href="classid_p_d_a_item.html" target="_top" xlink:title="idPDAItem">
<polygon fill="white" stroke="black" points="282.5,-56.5 282.5,-75.5 345.5,-75.5 345.5,-56.5 282.5,-56.5"/>
<text text-anchor="middle" x="314" y="-63.5" font-family="Arial" font-size="10.00">idPDAItem</text>
</a>
</g>
</g>
<!-- Node1&#45;&gt;Node8 -->
<g id="edge13" class="edge"><title>Node1&#45;&gt;Node8</title>
<path fill="none" stroke="midnightblue" d="M248.179,-106.342C261.952,-96.5169 281.414,-83.9132 295.748,-75.6545"/>
<polygon fill="midnightblue" stroke="midnightblue" points="246.035,-103.574 240.06,-112.324 250.187,-109.21 246.035,-103.574"/>
</g>
<!-- Node1&#45;&gt;Node8 -->
<g id="edge14" class="edge"><title>Node1&#45;&gt;Node8</title>
<path fill="none" stroke="midnightblue" d="M258.914,-107.21C275.164,-97.339 294.625,-84.342 305.734,-75.8339"/>
<polygon fill="midnightblue" stroke="midnightblue" points="257.106,-104.213 250.29,-112.324 260.676,-110.234 257.106,-104.213"/>
</g>
<!-- Node9 -->
<g id="node9" class="node"><title>Node9</title>
<g id="a_node9"><a xlink:href="classid_video_c_d_item.html" target="_top" xlink:title="idVideoCDItem">
<polygon fill="white" stroke="black" points="363.5,-56.5 363.5,-75.5 444.5,-75.5 444.5,-56.5 363.5,-56.5"/>
<text text-anchor="middle" x="404" y="-63.5" font-family="Arial" font-size="10.00">idVideoCDItem</text>
</a>
</g>
</g>
<!-- Node1&#45;&gt;Node9 -->
<g id="edge15" class="edge"><title>Node1&#45;&gt;Node9</title>
<path fill="none" stroke="midnightblue" d="M263.602,-109.296C294.357,-99.1366 340.648,-84.6646 371.657,-75.5565"/>
<polygon fill="midnightblue" stroke="midnightblue" points="262.191,-106.077 253.813,-112.563 264.406,-112.718 262.191,-106.077"/>
</g>
<!-- Node1&#45;&gt;Node9 -->
<g id="edge16" class="edge"><title>Node1&#45;&gt;Node9</title>
<path fill="none" stroke="midnightblue" d="M263.701,-112.632C298.025,-102.564 351.598,-85.7491 381.75,-75.5851"/>
<polygon fill="midnightblue" stroke="midnightblue" points="262.345,-109.381 253.714,-115.525 264.293,-116.104 262.345,-109.381"/>
</g>
<!-- Node2 -->
<g id="node2" class="node"><title>Node2</title>
<g id="a_node2"><a xlink:href="classid_entity.html" target="_top" xlink:title="idEntity">
<polygon fill="white" stroke="black" points="207,-168.5 207,-187.5 257,-187.5 257,-168.5 207,-168.5"/>
<text text-anchor="middle" x="232" y="-175.5" font-family="Arial" font-size="10.00">idEntity</text>
</a>
</g>
</g>
<!-- Node2&#45;&gt;Node1 -->
<g id="edge1" class="edge"><title>Node2&#45;&gt;Node1</title>
<path fill="none" stroke="midnightblue" d="M225.528,-158.101C224.896,-149.136 225.343,-138.858 226.869,-131.751"/>
<polygon fill="midnightblue" stroke="midnightblue" points="222.066,-158.622 226.834,-168.083 229.007,-157.713 222.066,-158.622"/>
</g>
<!-- Node2&#45;&gt;Node1 -->
<g id="edge4" class="edge"><title>Node2&#45;&gt;Node1</title>
<path fill="none" stroke="midnightblue" d="M238.472,-158.101C239.104,-149.136 238.657,-138.858 237.131,-131.751"/>
<polygon fill="midnightblue" stroke="midnightblue" points="234.993,-157.713 237.166,-168.083 241.934,-158.622 234.993,-157.713"/>
</g>
<!-- Node3 -->
<g id="node3" class="node"><title>Node3</title>
<g id="a_node3"><a xlink:href="classid_class.html" target="_top" xlink:title="idClass">
<polygon fill="white" stroke="black" points="207.5,-224.5 207.5,-243.5 256.5,-243.5 256.5,-224.5 207.5,-224.5"/>
<text text-anchor="middle" x="232" y="-231.5" font-family="Arial" font-size="10.00">idClass</text>
</a>
</g>
</g>
<!-- Node3&#45;&gt;Node2 -->
<g id="edge2" class="edge"><title>Node3&#45;&gt;Node2</title>
<path fill="none" stroke="midnightblue" d="M225.528,-214.101C224.896,-205.136 225.343,-194.858 226.869,-187.751"/>
<polygon fill="midnightblue" stroke="midnightblue" points="222.066,-214.622 226.834,-224.083 229.007,-213.713 222.066,-214.622"/>
</g>
<!-- Node3&#45;&gt;Node2 -->
<g id="edge3" class="edge"><title>Node3&#45;&gt;Node2</title>
<path fill="none" stroke="midnightblue" d="M238.472,-214.101C239.104,-205.136 238.657,-194.858 237.131,-187.751"/>
<polygon fill="midnightblue" stroke="midnightblue" points="234.993,-213.713 237.166,-224.083 241.934,-214.622 234.993,-213.713"/>
</g>
<!-- Node6 -->
<g id="node6" class="node"><title>Node6</title>
<g id="a_node6"><a xlink:href="classid_moveable_p_d_a_item.html" target="_top" xlink:title="idMoveablePDAItem">
<polygon fill="white" stroke="black" points="88,-0.5 88,-19.5 192,-19.5 192,-0.5 88,-0.5"/>
<text text-anchor="middle" x="140" y="-7.5" font-family="Arial" font-size="10.00">idMoveablePDAItem</text>
</a>
</g>
</g>
<!-- Node5&#45;&gt;Node6 -->
<g id="edge8" class="edge"><title>Node5&#45;&gt;Node6</title>
<path fill="none" stroke="midnightblue" d="M133.528,-46.1005C132.896,-37.1357 133.343,-26.8579 134.869,-19.7511"/>
<polygon fill="midnightblue" stroke="midnightblue" points="130.066,-46.6216 134.834,-56.083 137.007,-45.7134 130.066,-46.6216"/>
</g>
<!-- Node5&#45;&gt;Node6 -->
<g id="edge9" class="edge"><title>Node5&#45;&gt;Node6</title>
<path fill="none" stroke="midnightblue" d="M146.472,-46.1005C147.104,-37.1357 146.657,-26.8579 145.131,-19.7511"/>
<polygon fill="midnightblue" stroke="midnightblue" points="142.993,-45.7134 145.166,-56.083 149.934,-46.6216 142.993,-45.7134"/>
</g>
</g>
</svg>
