<?xml version="1.0" encoding="UTF-8" standalone="no"?>
<!DOCTYPE svg PUBLIC "-//W3C//DTD SVG 1.1//EN"
 "http://www.w3.org/Graphics/SVG/1.1/DTD/svg11.dtd">
<!-- Generated by graphviz version 2.34.0 (20130907.0111)
 -->
<!-- Title: idDeclAF Pages: 1 -->
<svg width="511pt" height="174pt"
 viewBox="0.00 0.00 511.00 174.00" xmlns="http://www.w3.org/2000/svg" xmlns:xlink="http://www.w3.org/1999/xlink">
<g id="graph0" class="graph" transform="scale(1 1) rotate(0) translate(4 170)">
<title>idDeclAF</title>
<polygon fill="white" stroke="white" points="-4,4 -4,-170 507,-170 507,4 -4,4"/>
<!-- Node1 -->
<g id="node1" class="node"><title>Node1</title>
<polygon fill="#bfbfbf" stroke="black" points="236,-0.5 236,-19.5 292,-19.5 292,-0.5 236,-0.5"/>
<text text-anchor="middle" x="264" y="-7.5" font-family="Arial" font-size="10.00">idDeclAF</text>
</g>
<!-- Node2 -->
<g id="node2" class="node"><title>Node2</title>
<g id="a_node2"><a xlink:href="classid_decl.html" target="_top" xlink:title="idDecl">
<polygon fill="white" stroke="black" points="11,-78.5 11,-97.5 55,-97.5 55,-78.5 11,-78.5"/>
<text text-anchor="middle" x="33" y="-85.5" font-family="Arial" font-size="10.00">idDecl</text>
</a>
</g>
</g>
<!-- Node2&#45;&gt;Node1 -->
<g id="edge1" class="edge"><title>Node2&#45;&gt;Node1</title>
<path fill="none" stroke="midnightblue" d="M64.7864,-75.7778C93.6999,-65.6487 137.595,-50.4679 176,-38 195.912,-31.5358 218.488,-24.6172 235.789,-19.4019"/>
<polygon fill="midnightblue" stroke="midnightblue" points="63.4937,-72.5221 55.2177,-79.1371 65.8125,-79.1269 63.4937,-72.5221"/>
</g>
<!-- Node3 -->
<g id="node3" class="node"><title>Node3</title>
<g id="a_node3"><a xlink:href="classid_decl_base.html" target="_top" xlink:title="idDeclBase">
<polygon fill="white" stroke="black" points="0,-146.5 0,-165.5 66,-165.5 66,-146.5 0,-146.5"/>
<text text-anchor="middle" x="33" y="-153.5" font-family="Arial" font-size="10.00">idDeclBase</text>
</a>
</g>
</g>
<!-- Node3&#45;&gt;Node2 -->
<g id="edge2" class="edge"><title>Node3&#45;&gt;Node2</title>
<path fill="none" stroke="#9a32cd" stroke-dasharray="5,2" d="M33,-136.041C33,-123.472 33,-107.563 33,-97.8411"/>
<polygon fill="#9a32cd" stroke="#9a32cd" points="29.5001,-136.372 33,-146.372 36.5001,-136.372 29.5001,-136.372"/>
<text text-anchor="middle" x="45.5" y="-119.5" font-family="Arial" font-size="10.00"> base</text>
</g>
<!-- Node4 -->
<g id="node4" class="node"><title>Node4</title>
<g id="a_node4"><a xlink:href="classid_list.html" target="_top" xlink:title="idList\&lt; idDeclAF_Constraint * \&gt;">
<polygon fill="white" stroke="black" points="73,-78.5 73,-97.5 227,-97.5 227,-78.5 73,-78.5"/>
<text text-anchor="middle" x="150" y="-85.5" font-family="Arial" font-size="10.00">idList&lt; idDeclAF_Constraint * &gt;</text>
</a>
</g>
</g>
<!-- Node4&#45;&gt;Node1 -->
<g id="edge3" class="edge"><title>Node4&#45;&gt;Node1</title>
<path fill="none" stroke="#9a32cd" stroke-dasharray="5,2" d="M166.174,-71.4041C177.349,-61.1296 192.871,-47.8123 208,-38 219.048,-30.8348 232.284,-24.3669 243.113,-19.559"/>
<polygon fill="#9a32cd" stroke="#9a32cd" points="163.771,-68.8594 158.873,-78.2542 168.561,-73.9643 163.771,-68.8594"/>
<text text-anchor="middle" x="234" y="-46.5" font-family="Arial" font-size="10.00"> constraints</text>
</g>
<!-- Node5 -->
<g id="node5" class="node"><title>Node5</title>
<g id="a_node5"><a xlink:href="classid_str.html" target="_top" xlink:title="idStr">
<polygon fill="white" stroke="black" points="245.5,-78.5 245.5,-97.5 282.5,-97.5 282.5,-78.5 245.5,-78.5"/>
<text text-anchor="middle" x="264" y="-85.5" font-family="Arial" font-size="10.00">idStr</text>
</a>
</g>
</g>
<!-- Node5&#45;&gt;Node1 -->
<g id="edge4" class="edge"><title>Node5&#45;&gt;Node1</title>
<path fill="none" stroke="#9a32cd" stroke-dasharray="5,2" d="M264,-68.2239C264,-52.6974 264,-31.3582 264,-19.6165"/>
<polygon fill="#9a32cd" stroke="#9a32cd" points="260.5,-68.2818 264,-78.2818 267.5,-68.2819 260.5,-68.2818"/>
<text text-anchor="middle" x="279" y="-52" font-family="Arial" font-size="10.00"> model</text>
<text text-anchor="middle" x="279" y="-41" font-family="Arial" font-size="10.00">skin</text>
</g>
<!-- Node6 -->
<g id="node6" class="node"><title>Node6</title>
<g id="a_node6"><a xlink:href="classid_vec2.html" target="_top" xlink:title="idVec2">
<polygon fill="white" stroke="black" points="300.5,-78.5 300.5,-97.5 347.5,-97.5 347.5,-78.5 300.5,-78.5"/>
<text text-anchor="middle" x="324" y="-85.5" font-family="Arial" font-size="10.00">idVec2</text>
</a>
</g>
</g>
<!-- Node6&#45;&gt;Node1 -->
<g id="edge5" class="edge"><title>Node6&#45;&gt;Node1</title>
<path fill="none" stroke="#9a32cd" stroke-dasharray="5,2" d="M316.716,-69.1834C312.196,-59.3782 305.769,-47.3422 298,-38 292.12,-30.9297 284.123,-24.4662 277.361,-19.637"/>
<polygon fill="#9a32cd" stroke="#9a32cd" points="313.519,-70.609 320.713,-78.3874 319.94,-67.8208 313.519,-70.609"/>
<text text-anchor="middle" x="359" y="-52" font-family="Arial" font-size="10.00"> suspendAcceleration</text>
<text text-anchor="middle" x="359" y="-41" font-family="Arial" font-size="10.00">suspendVelocity</text>
</g>
<!-- Node7 -->
<g id="node7" class="node"><title>Node7</title>
<g id="a_node7"><a xlink:href="classid_list.html" target="_top" xlink:title="idList\&lt; idDeclAF_Body * \&gt;">
<polygon fill="white" stroke="black" points="371,-78.5 371,-97.5 503,-97.5 503,-78.5 371,-78.5"/>
<text text-anchor="middle" x="437" y="-85.5" font-family="Arial" font-size="10.00">idList&lt; idDeclAF_Body * &gt;</text>
</a>
</g>
</g>
<!-- Node7&#45;&gt;Node1 -->
<g id="edge6" class="edge"><title>Node7&#45;&gt;Node1</title>
<path fill="none" stroke="#9a32cd" stroke-dasharray="5,2" d="M431.307,-68.5649C427.095,-58.0048 420.279,-45.4165 410,-38 391.552,-24.6898 329.142,-16.8988 292.158,-13.3435"/>
<polygon fill="#9a32cd" stroke="#9a32cd" points="428.068,-69.906 434.683,-78.1822 434.673,-67.5874 428.068,-69.906"/>
<text text-anchor="middle" x="443" y="-46.5" font-family="Arial" font-size="10.00"> bodies</text>
</g>
</g>
</svg>
