<?xml version="1.0" encoding="UTF-8" standalone="no"?>
<!DOCTYPE svg PUBLIC "-//W3C//DTD SVG 1.1//EN"
 "http://www.w3.org/Graphics/SVG/1.1/DTD/svg11.dtd">
<!-- Generated by graphviz version 2.34.0 (20130907.0111)
 -->
<!-- Title: idForce_Spring Pages: 1 -->
<svg width="437pt" height="292pt"
 viewBox="0.00 0.00 437.00 292.00" xmlns="http://www.w3.org/2000/svg" xmlns:xlink="http://www.w3.org/1999/xlink">
<g id="graph0" class="graph" transform="scale(1 1) rotate(0) translate(4 288)">
<title>idForce_Spring</title>
<polygon fill="white" stroke="white" points="-4,4 -4,-288 433,-288 433,4 -4,4"/>
<!-- Node1 -->
<g id="node1" class="node"><title>Node1</title>
<polygon fill="#bfbfbf" stroke="black" points="0,-0.5 0,-19.5 82,-19.5 82,-0.5 0,-0.5"/>
<text text-anchor="middle" x="41" y="-7.5" font-family="Arial" font-size="10.00">idForce_Spring</text>
</g>
<!-- Node2 -->
<g id="node2" class="node"><title>Node2</title>
<g id="a_node2"><a xlink:href="classid_force.html" target="_top" xlink:title="idForce">
<polygon fill="white" stroke="black" points="16.5,-59.5 16.5,-78.5 65.5,-78.5 65.5,-59.5 16.5,-59.5"/>
<text text-anchor="middle" x="41" y="-66.5" font-family="Arial" font-size="10.00">idForce</text>
</a>
</g>
</g>
<!-- Node2&#45;&gt;Node1 -->
<g id="edge1" class="edge"><title>Node2&#45;&gt;Node1</title>
<path fill="none" stroke="midnightblue" d="M34.59,-48.9331C33.8505,-39.0243 34.3174,-27.4007 35.9906,-19.6571"/>
<polygon fill="midnightblue" stroke="midnightblue" points="31.1531,-49.6407 35.9375,-59.0938 38.0923,-48.7204 31.1531,-49.6407"/>
</g>
<!-- Node2&#45;&gt;Node1 -->
<g id="edge11" class="edge"><title>Node2&#45;&gt;Node1</title>
<path fill="none" stroke="midnightblue" d="M47.41,-48.9331C48.1495,-39.0243 47.6826,-27.4007 46.0094,-19.6571"/>
<polygon fill="midnightblue" stroke="midnightblue" points="43.9077,-48.7204 46.0625,-59.0938 50.8469,-49.6407 43.9077,-48.7204"/>
</g>
<!-- Node3 -->
<g id="node3" class="node"><title>Node3</title>
<g id="a_node3"><a xlink:href="classid_class.html" target="_top" xlink:title="idClass">
<polygon fill="white" stroke="black" points="58.5,-128.5 58.5,-147.5 107.5,-147.5 107.5,-128.5 58.5,-128.5"/>
<text text-anchor="middle" x="83" y="-135.5" font-family="Arial" font-size="10.00">idClass</text>
</a>
</g>
</g>
<!-- Node3&#45;&gt;Node2 -->
<g id="edge2" class="edge"><title>Node3&#45;&gt;Node2</title>
<path fill="none" stroke="midnightblue" d="M62.0845,-120.31C59.5546,-116.935 57.1568,-113.383 55,-110 48.2826,-99.4625 41.2112,-86.914 38.7483,-78.7185"/>
<polygon fill="midnightblue" stroke="midnightblue" points="59.503,-122.68 68.5828,-128.14 64.8895,-118.21 59.503,-122.68"/>
</g>
<!-- Node3&#45;&gt;Node2 -->
<g id="edge10" class="edge"><title>Node3&#45;&gt;Node2</title>
<path fill="none" stroke="midnightblue" d="M79.1557,-119.439C77.1453,-116.327 74.9719,-113.093 73,-110 66.2826,-99.4625 59.2112,-86.914 52.6752,-78.7185"/>
<polygon fill="midnightblue" stroke="midnightblue" points="76.2117,-121.336 84.3328,-128.14 82.2274,-117.756 76.2117,-121.336"/>
</g>
<!-- Node4 -->
<g id="node4" class="node"><title>Node4</title>
<g id="a_node4"><a xlink:href="classid_type_info.html" target="_top" xlink:title="idTypeInfo">
<polygon fill="white" stroke="black" points="165,-59.5 165,-78.5 225,-78.5 225,-59.5 165,-59.5"/>
<text text-anchor="middle" x="195" y="-66.5" font-family="Arial" font-size="10.00">idTypeInfo</text>
</a>
</g>
</g>
<!-- Node3&#45;&gt;Node4 -->
<g id="edge8" class="edge"><title>Node3&#45;&gt;Node4</title>
<path fill="none" stroke="#9a32cd" stroke-dasharray="5,2" d="M76.502,-118.153C75.3077,-111.175 75.5946,-103.607 80,-98 90.3786,-84.7912 134.409,-77.0333 164.873,-73.1516"/>
<polygon fill="#9a32cd" stroke="#9a32cd" points="73.2438,-119.515 79.2188,-128.264 80.0041,-117.699 73.2438,-119.515"/>
<text text-anchor="middle" x="114.5" y="-101.5" font-family="Arial" font-size="10.00"> CreateInstance</text>
</g>
<!-- Node4&#45;&gt;Node3 -->
<g id="edge3" class="edge"><title>Node4&#45;&gt;Node3</title>
<path fill="none" stroke="#9a32cd" stroke-dasharray="5,2" d="M180.961,-86.1013C173.321,-94.1114 163.336,-103.454 153,-110 139.025,-118.851 121.688,-125.565 107.764,-130.084"/>
<polygon fill="#9a32cd" stroke="#9a32cd" points="183.576,-88.4285 187.745,-78.6883 178.411,-83.7028 183.576,-88.4285"/>
<text text-anchor="middle" x="181.5" y="-101.5" font-family="Arial" font-size="10.00"> Type</text>
</g>
<!-- Node4&#45;&gt;Node4 -->
<g id="edge4" class="edge"><title>Node4&#45;&gt;Node4</title>
<path fill="none" stroke="#9a32cd" stroke-dasharray="5,2" d="M235.659,-73.7243C240.121,-72.8242 243,-71.2495 243,-69 243,-65.3086 235.248,-63.4341 225.467,-63.3764"/>
<polygon fill="#9a32cd" stroke="#9a32cd" points="235.121,-70.2582 225.467,-74.6236 235.736,-77.2311 235.121,-70.2582"/>
<text text-anchor="middle" x="255.5" y="-72" font-family="Arial" font-size="10.00"> next</text>
<text text-anchor="middle" x="255.5" y="-61" font-family="Arial" font-size="10.00">super</text>
</g>
<!-- Node5 -->
<g id="node5" class="node"><title>Node5</title>
<g id="a_node5"><a xlink:href="classid_hierarchy.html" target="_top" xlink:title="idHierarchy\&lt; idTypeInfo \&gt;">
<polygon fill="white" stroke="black" points="302.5,-128.5 302.5,-147.5 429.5,-147.5 429.5,-128.5 302.5,-128.5"/>
<text text-anchor="middle" x="366" y="-135.5" font-family="Arial" font-size="10.00">idHierarchy&lt; idTypeInfo &gt;</text>
</a>
</g>
</g>
<!-- Node5&#45;&gt;Node4 -->
<g id="edge5" class="edge"><title>Node5&#45;&gt;Node4</title>
<path fill="none" stroke="#9a32cd" stroke-dasharray="5,2" d="M334.493,-124.655C300.349,-111.277 246.76,-90.2803 216.921,-78.5888"/>
<polygon fill="#9a32cd" stroke="#9a32cd" points="333.407,-127.989 343.995,-128.378 335.961,-121.471 333.407,-127.989"/>
<text text-anchor="middle" x="308.5" y="-101.5" font-family="Arial" font-size="10.00"> node</text>
</g>
<!-- Node6 -->
<g id="node6" class="node"><title>Node6</title>
<g id="a_node6"><a xlink:href="structid_event_func.html" target="_top" xlink:title="idEventFunc\&lt; idClass \&gt;">
<polygon fill="white" stroke="black" points="113,-196.5 113,-215.5 233,-215.5 233,-196.5 113,-196.5"/>
<text text-anchor="middle" x="173" y="-203.5" font-family="Arial" font-size="10.00">idEventFunc&lt; idClass &gt;</text>
</a>
</g>
</g>
<!-- Node6&#45;&gt;Node3 -->
<g id="edge9" class="edge"><title>Node6&#45;&gt;Node3</title>
<path fill="none" stroke="#9a32cd" stroke-dasharray="5,2" d="M150.623,-190.786C144.508,-186.761 137.934,-182.302 132,-178 118.268,-168.044 103.076,-155.74 93.3031,-147.646"/>
<polygon fill="#9a32cd" stroke="#9a32cd" points="148.83,-193.795 159.124,-196.302 152.641,-187.923 148.83,-193.795"/>
<text text-anchor="middle" x="166.5" y="-169.5" font-family="Arial" font-size="10.00"> eventCallbacks</text>
</g>
<!-- Node6&#45;&gt;Node4 -->
<g id="edge6" class="edge"><title>Node6&#45;&gt;Node4</title>
<path fill="none" stroke="#9a32cd" stroke-dasharray="5,2" d="M193.444,-189.294C196.521,-185.927 199.247,-182.125 201,-178 215.614,-143.606 203.882,-97.4235 197.933,-78.5629"/>
<polygon fill="#9a32cd" stroke="#9a32cd" points="190.844,-186.933 185.921,-196.315 195.62,-192.051 190.844,-186.933"/>
<text text-anchor="middle" x="243.5" y="-135.5" font-family="Arial" font-size="10.00"> eventCallbacks</text>
</g>
<!-- Node7 -->
<g id="node7" class="node"><title>Node7</title>
<g id="a_node7"><a xlink:href="classid_event_def.html" target="_top" xlink:title="idEventDef">
<polygon fill="white" stroke="black" points="142,-264.5 142,-283.5 204,-283.5 204,-264.5 142,-264.5"/>
<text text-anchor="middle" x="173" y="-271.5" font-family="Arial" font-size="10.00">idEventDef</text>
</a>
</g>
</g>
<!-- Node7&#45;&gt;Node6 -->
<g id="edge7" class="edge"><title>Node7&#45;&gt;Node6</title>
<path fill="none" stroke="#9a32cd" stroke-dasharray="5,2" d="M173,-254.041C173,-241.472 173,-225.563 173,-215.841"/>
<polygon fill="#9a32cd" stroke="#9a32cd" points="169.5,-254.372 173,-264.372 176.5,-254.372 169.5,-254.372"/>
<text text-anchor="middle" x="186" y="-237.5" font-family="Arial" font-size="10.00"> event</text>
</g>
</g>
</svg>
