<?xml version="1.0" encoding="UTF-8" standalone="no"?>
<!DOCTYPE svg PUBLIC "-//W3C//DTD SVG 1.1//EN"
 "http://www.w3.org/Graphics/SVG/1.1/DTD/svg11.dtd">
<!-- Generated by graphviz version 2.34.0 (20130907.0111)
 -->
<!-- Title: idRenderModelStatic Pages: 1 -->
<!--zoomable 332 -->
<svg id="main" version="1.1" xmlns="http://www.w3.org/2000/svg" xmlns:xlink="http://www.w3.org/1999/xlink" xml:space="preserve" onload="init(evt)">
<style type="text/css"><![CDATA[
.edge:hover path { stroke: red; }
.edge:hover polygon { stroke: red; fill: red; }
]]></style>
<script type="text/javascript"><![CDATA[
var edges = document.getElementsByTagName('g');
if (edges && edges.length) {
  for (var i=0;i<edges.length;i++) {
    if (edges[i].id.substr(0,4)=='edge') {
      edges[i].setAttribute('class','edge');
    }
  }
}
]]></script>
        <defs>
                <circle id="rim" cx="0" cy="0" r="7"/>
                <circle id="rim2" cx="0" cy="0" r="3.5"/>
                <g id="zoomPlus">
                        <use xlink:href="#rim" fill="#404040">
                                <set attributeName="fill" to="#808080" begin="zoomplus.mouseover" end="zoomplus.mouseout"/>
                        </use>
                        <path d="M-4,0h8M0,-4v8" fill="none" stroke="white" stroke-width="1.5" pointer-events="none"/>
                </g>
                <g id="zoomMin">
                        <use xlink:href="#rim" fill="#404040">
                                <set attributeName="fill" to="#808080" begin="zoomminus.mouseover" end="zoomminus.mouseout"/>
                        </use>
                        <path d="M-4,0h8" fill="none" stroke="white" stroke-width="1.5" pointer-events="none"/>
                </g>
                <g id="dirArrow">
                        <path fill="none" stroke="white" stroke-width="1.5" d="M0,-3.0v7 M-2.5,-0.5L0,-3.0L2.5,-0.5"/>
                </g>
               <g id="resetDef">
                       <use xlink:href="#rim2" fill="#404040">
                               <set attributeName="fill" to="#808080" begin="reset.mouseover" end="reset.mouseout"/>
                       </use>
               </g>
        </defs>

<script type="text/javascript">
var viewWidth = 861;
var viewHeight = 332;
var sectionId = 'dynsection-1';
</script>
<script xlink:href="svgpan.js"/>
<svg id="graph" class="graph">
<g id="viewport">
<title>idRenderModelStatic</title>
<polygon fill="white" stroke="white" points="-4,4 -4,-328 857,-328 857,4 -4,4"/>
<!-- Node1 -->
<g id="node1" class="node"><title>Node1</title>
<polygon fill="#bfbfbf" stroke="black" points="447.5,-0.5 447.5,-19.5 554.5,-19.5 554.5,-0.5 447.5,-0.5"/>
<text text-anchor="middle" x="501" y="-7.5" font-family="Arial" font-size="10.00">idRenderModelStatic</text>
</g>
<!-- Node2 -->
<g id="node2" class="node"><title>Node2</title>
<g id="a_node2"><a xlink:href="classid_render_model.html" target="_top" xlink:title="idRenderModel">
<polygon fill="white" stroke="black" points="182.5,-101.5 182.5,-120.5 263.5,-120.5 263.5,-101.5 182.5,-101.5"/>
<text text-anchor="middle" x="223" y="-108.5" font-family="Arial" font-size="10.00">idRenderModel</text>
</a>
</g>
</g>
<!-- Node2&#45;&gt;Node1 -->
<g id="edge1" class="edge"><title>Node2&#45;&gt;Node1</title>
<path fill="none" stroke="midnightblue" d="M239.32,-94.4215C257.975,-77.588 290.19,-51.3823 323,-38 362.794,-21.7687 411.192,-15.1842 447.47,-12.5663"/>
<polygon fill="midnightblue" stroke="midnightblue" points="236.719,-92.0595 231.749,-101.417 241.469,-97.2008 236.719,-92.0595"/>
</g>
<!-- Node3 -->
<g id="node3" class="node"><title>Node3</title>
<g id="a_node3"><a xlink:href="classid_str.html" target="_top" xlink:title="idStr">
<polygon fill="white" stroke="black" points="281.5,-101.5 281.5,-120.5 318.5,-120.5 318.5,-101.5 281.5,-101.5"/>
<text text-anchor="middle" x="300" y="-108.5" font-family="Arial" font-size="10.00">idStr</text>
</a>
</g>
</g>
<!-- Node3&#45;&gt;Node1 -->
<g id="edge2" class="edge"><title>Node3&#45;&gt;Node1</title>
<path fill="none" stroke="#9a32cd" stroke-dasharray="5,2" d="M313.829,-93.5711C328.71,-76.9862 353.914,-51.8947 381,-38 401.425,-27.5223 425.856,-21.0832 447.328,-17.1385"/>
<polygon fill="#9a32cd" stroke="#9a32cd" points="310.968,-91.5271 307.033,-101.364 316.243,-96.128 310.968,-91.5271"/>
<text text-anchor="middle" x="395" y="-57.5" font-family="Arial" font-size="10.00"> name</text>
</g>
<!-- Node4 -->
<g id="node4" class="node"><title>Node4</title>
<g id="a_node4"><a xlink:href="structsrf_triangles__s.html" target="_top" xlink:title="srfTriangles_s">
<polygon fill="white" stroke="black" points="336.5,-101.5 336.5,-120.5 413.5,-120.5 413.5,-101.5 336.5,-101.5"/>
<text text-anchor="middle" x="375" y="-108.5" font-family="Arial" font-size="10.00">srfTriangles_s</text>
</a>
</g>
</g>
<!-- Node4&#45;&gt;Node1 -->
<g id="edge3" class="edge"><title>Node4&#45;&gt;Node1</title>
<path fill="none" stroke="#9a32cd" stroke-dasharray="5,2" d="M394.063,-95.0218C420.798,-74.0155 468.56,-36.4889 490.023,-19.6245"/>
<polygon fill="#9a32cd" stroke="#9a32cd" points="391.882,-92.284 386.182,-101.214 396.207,-97.7883 391.882,-92.284"/>
<text text-anchor="middle" x="490.5" y="-57.5" font-family="Arial" font-size="10.00"> shadowHull</text>
</g>
<!-- Node4&#45;&gt;Node4 -->
<g id="edge8" class="edge"><title>Node4&#45;&gt;Node4</title>
<path fill="none" stroke="#9a32cd" stroke-dasharray="5,2" d="M423.872,-118.415C428.251,-116.864 431,-114.392 431,-111 431,-105.434 423.597,-102.346 413.735,-101.737"/>
<polygon fill="#9a32cd" stroke="#9a32cd" points="422.945,-115.026 413.735,-120.263 424.201,-121.912 422.945,-115.026"/>
<text text-anchor="middle" x="468.5" y="-114" font-family="Arial" font-size="10.00"> ambientSurface</text>
<text text-anchor="middle" x="468.5" y="-103" font-family="Arial" font-size="10.00">nextDeferredFree</text>
</g>
<!-- Node5 -->
<g id="node5" class="node"><title>Node5</title>
<g id="a_node5"><a xlink:href="structvert_cache__s.html" target="_top" xlink:title="vertCache_s">
<polygon fill="white" stroke="black" points="170,-208.5 170,-227.5 240,-227.5 240,-208.5 170,-208.5"/>
<text text-anchor="middle" x="205" y="-215.5" font-family="Arial" font-size="10.00">vertCache_s</text>
</a>
</g>
</g>
<!-- Node5&#45;&gt;Node4 -->
<g id="edge4" class="edge"><title>Node5&#45;&gt;Node4</title>
<path fill="none" stroke="#9a32cd" stroke-dasharray="5,2" d="M210.586,-198.719C216.978,-180.958 229.201,-154.593 249,-140 250.809,-138.666 299.877,-127.999 336.234,-120.226"/>
<polygon fill="#9a32cd" stroke="#9a32cd" points="207.249,-197.664 207.413,-208.257 213.891,-199.873 207.249,-197.664"/>
<text text-anchor="middle" x="280.5" y="-176" font-family="Arial" font-size="10.00"> indexCache</text>
<text text-anchor="middle" x="280.5" y="-165" font-family="Arial" font-size="10.00">ambientCache</text>
<text text-anchor="middle" x="280.5" y="-154" font-family="Arial" font-size="10.00">shadowCache</text>
<text text-anchor="middle" x="280.5" y="-143" font-family="Arial" font-size="10.00">lightingCache</text>
</g>
<!-- Node5&#45;&gt;Node5 -->
<g id="edge5" class="edge"><title>Node5&#45;&gt;Node5</title>
<path fill="none" stroke="#9a32cd" stroke-dasharray="5,2" d="M250.235,-225.768C254.967,-224.251 258,-221.662 258,-218 258,-212.141 250.236,-209.028 240.168,-208.662"/>
<polygon fill="#9a32cd" stroke="#9a32cd" points="249.509,-222.339 240.168,-227.338 250.588,-229.255 249.509,-222.339"/>
<text text-anchor="middle" x="268.5" y="-226.5" font-family="Arial" font-size="10.00"> prev</text>
<text text-anchor="middle" x="268.5" y="-215.5" font-family="Arial" font-size="10.00">next</text>
<text text-anchor="middle" x="268.5" y="-204.5" font-family="Arial" font-size="10.00">user</text>
</g>
<!-- Node6 -->
<g id="node6" class="node"><title>Node6</title>
<g id="a_node6"><a xlink:href="classid_plane.html" target="_top" xlink:title="idPlane">
<polygon fill="white" stroke="black" points="297.5,-208.5 297.5,-227.5 346.5,-227.5 346.5,-208.5 297.5,-208.5"/>
<text text-anchor="middle" x="322" y="-215.5" font-family="Arial" font-size="10.00">idPlane</text>
</a>
</g>
</g>
<!-- Node6&#45;&gt;Node4 -->
<g id="edge6" class="edge"><title>Node6&#45;&gt;Node4</title>
<path fill="none" stroke="#9a32cd" stroke-dasharray="5,2" d="M317.526,-198.039C314.713,-181.484 313.37,-157.443 324,-140 329.414,-131.116 338.728,-124.848 347.926,-120.53"/>
<polygon fill="#9a32cd" stroke="#9a32cd" points="314.156,-199.03 319.579,-208.132 321.015,-197.635 314.156,-199.03"/>
<text text-anchor="middle" x="350" y="-159.5" font-family="Arial" font-size="10.00"> facePlanes</text>
</g>
<!-- Node7 -->
<g id="node7" class="node"><title>Node7</title>
<g id="a_node7"><a xlink:href="structsil_edge__t.html" target="_top" xlink:title="silEdge_t">
<polygon fill="white" stroke="black" points="-0.5,-208.5 -0.5,-227.5 56.5,-227.5 56.5,-208.5 -0.5,-208.5"/>
<text text-anchor="middle" x="28" y="-215.5" font-family="Arial" font-size="10.00">silEdge_t</text>
</a>
</g>
</g>
<!-- Node7&#45;&gt;Node4 -->
<g id="edge7" class="edge"><title>Node7&#45;&gt;Node4</title>
<path fill="none" stroke="#9a32cd" stroke-dasharray="5,2" d="M34.4848,-198.841C42.079,-180.522 56.5527,-153.126 79,-140 126.7,-112.108 272.276,-129.652 327,-122 330.035,-121.576 333.165,-121.073 336.305,-120.522"/>
<polygon fill="#9a32cd" stroke="#9a32cd" points="31.1305,-197.812 30.8001,-208.401 37.6622,-200.329 31.1305,-197.812"/>
<text text-anchor="middle" x="99.5" y="-159.5" font-family="Arial" font-size="10.00"> silEdges</text>
</g>
<!-- Node8 -->
<g id="node8" class="node"><title>Node8</title>
<g id="a_node8"><a xlink:href="structshadow_cache__s.html" target="_top" xlink:title="shadowCache_s">
<polygon fill="white" stroke="black" points="440,-208.5 440,-227.5 528,-227.5 528,-208.5 440,-208.5"/>
<text text-anchor="middle" x="484" y="-215.5" font-family="Arial" font-size="10.00">shadowCache_s</text>
</a>
</g>
</g>
<!-- Node8&#45;&gt;Node4 -->
<g id="edge9" class="edge"><title>Node8&#45;&gt;Node4</title>
<path fill="none" stroke="#9a32cd" stroke-dasharray="5,2" d="M474.228,-199.615C464.1,-182.768 446.969,-157.294 427,-140 417.777,-132.012 405.892,-125.4 395.813,-120.611"/>
<polygon fill="#9a32cd" stroke="#9a32cd" points="471.294,-201.531 479.351,-208.41 477.342,-198.008 471.294,-201.531"/>
<text text-anchor="middle" x="502" y="-159.5" font-family="Arial" font-size="10.00"> shadowVertexes</text>
</g>
<!-- Node9 -->
<g id="node9" class="node"><title>Node9</title>
<g id="a_node9"><a xlink:href="classid_vec4.html" target="_top" xlink:title="idVec4">
<polygon fill="white" stroke="black" points="460.5,-304.5 460.5,-323.5 507.5,-323.5 507.5,-304.5 460.5,-304.5"/>
<text text-anchor="middle" x="484" y="-311.5" font-family="Arial" font-size="10.00">idVec4</text>
</a>
</g>
</g>
<!-- Node9&#45;&gt;Node8 -->
<g id="edge10" class="edge"><title>Node9&#45;&gt;Node8</title>
<path fill="none" stroke="#9a32cd" stroke-dasharray="5,2" d="M484,-294.143C484,-273.915 484,-242.678 484,-227.654"/>
<polygon fill="#9a32cd" stroke="#9a32cd" points="480.5,-294.325 484,-304.325 487.5,-294.325 480.5,-294.325"/>
<text text-anchor="middle" x="493.5" y="-266.5" font-family="Arial" font-size="10.00"> xyz</text>
</g>
<!-- Node10 -->
<g id="node10" class="node"><title>Node10</title>
<g id="a_node10"><a xlink:href="classid_bounds.html" target="_top" xlink:title="idBounds">
<polygon fill="white" stroke="black" points="364.5,-208.5 364.5,-227.5 421.5,-227.5 421.5,-208.5 364.5,-208.5"/>
<text text-anchor="middle" x="393" y="-215.5" font-family="Arial" font-size="10.00">idBounds</text>
</a>
</g>
</g>
<!-- Node10&#45;&gt;Node1 -->
<g id="edge16" class="edge"><title>Node10&#45;&gt;Node1</title>
<path fill="none" stroke="#9a32cd" stroke-dasharray="5,2" d="M421.93,-204.914C424.965,-203.847 428.027,-202.851 431,-202 473.574,-189.813 500.656,-218.025 529,-184 542.24,-168.107 539.59,-87.7039 521,-38 518.466,-31.2249 513.694,-24.6785 509.447,-19.7287"/>
<polygon fill="#9a32cd" stroke="#9a32cd" points="420.597,-201.676 412.471,-208.474 423.063,-208.227 420.597,-201.676"/>
<text text-anchor="middle" x="554.5" y="-108.5" font-family="Arial" font-size="10.00"> bounds</text>
</g>
<!-- Node10&#45;&gt;Node4 -->
<g id="edge11" class="edge"><title>Node10&#45;&gt;Node4</title>
<path fill="none" stroke="#9a32cd" stroke-dasharray="5,2" d="M389.787,-198.255C385.865,-175.378 379.398,-137.653 376.493,-120.711"/>
<polygon fill="#9a32cd" stroke="#9a32cd" points="386.388,-199.143 391.527,-208.407 393.287,-197.96 386.388,-199.143"/>
<text text-anchor="middle" x="405.5" y="-159.5" font-family="Arial" font-size="10.00"> bounds</text>
</g>
<!-- Node11 -->
<g id="node11" class="node"><title>Node11</title>
<g id="a_node11"><a xlink:href="classid_draw_vert.html" target="_top" xlink:title="idDrawVert">
<polygon fill="white" stroke="black" points="546,-208.5 546,-227.5 610,-227.5 610,-208.5 546,-208.5"/>
<text text-anchor="middle" x="578" y="-215.5" font-family="Arial" font-size="10.00">idDrawVert</text>
</a>
</g>
</g>
<!-- Node11&#45;&gt;Node4 -->
<g id="edge12" class="edge"><title>Node11&#45;&gt;Node4</title>
<path fill="none" stroke="#9a32cd" stroke-dasharray="5,2" d="M574.963,-198.345C571.03,-180.493 562.361,-154.238 544,-140 524.199,-124.646 457.248,-117.374 413.794,-114.196"/>
<polygon fill="#9a32cd" stroke="#9a32cd" points="571.53,-199.027 576.845,-208.193 578.406,-197.713 571.53,-199.027"/>
<text text-anchor="middle" x="583" y="-159.5" font-family="Arial" font-size="10.00"> verts</text>
</g>
<!-- Node12 -->
<g id="node12" class="node"><title>Node12</title>
<g id="a_node12"><a xlink:href="classid_vec2.html" target="_top" xlink:title="idVec2">
<polygon fill="white" stroke="black" points="539.5,-304.5 539.5,-323.5 586.5,-323.5 586.5,-304.5 539.5,-304.5"/>
<text text-anchor="middle" x="563" y="-311.5" font-family="Arial" font-size="10.00">idVec2</text>
</a>
</g>
</g>
<!-- Node12&#45;&gt;Node11 -->
<g id="edge13" class="edge"><title>Node12&#45;&gt;Node11</title>
<path fill="none" stroke="#9a32cd" stroke-dasharray="5,2" d="M565.964,-294.424C569.191,-274.206 574.21,-242.748 576.619,-227.654"/>
<polygon fill="#9a32cd" stroke="#9a32cd" points="562.504,-293.899 564.384,-304.325 569.416,-295.002 562.504,-293.899"/>
<text text-anchor="middle" x="579" y="-266.5" font-family="Arial" font-size="10.00"> st</text>
</g>
<!-- Node13 -->
<g id="node13" class="node"><title>Node13</title>
<g id="a_node13"><a xlink:href="classid_vec3.html" target="_top" xlink:title="idVec3">
<polygon fill="white" stroke="black" points="604.5,-304.5 604.5,-323.5 651.5,-323.5 651.5,-304.5 604.5,-304.5"/>
<text text-anchor="middle" x="628" y="-311.5" font-family="Arial" font-size="10.00">idVec3</text>
</a>
</g>
</g>
<!-- Node13&#45;&gt;Node11 -->
<g id="edge14" class="edge"><title>Node13&#45;&gt;Node11</title>
<path fill="none" stroke="#9a32cd" stroke-dasharray="5,2" d="M618.564,-295.26C607.831,-275.083 590.743,-242.958 582.603,-227.654"/>
<polygon fill="#9a32cd" stroke="#9a32cd" points="615.6,-297.14 623.386,-304.325 621.78,-293.853 615.6,-297.14"/>
<text text-anchor="middle" x="633" y="-277.5" font-family="Arial" font-size="10.00"> xyz</text>
<text text-anchor="middle" x="633" y="-266.5" font-family="Arial" font-size="10.00">normal</text>
<text text-anchor="middle" x="633" y="-255.5" font-family="Arial" font-size="10.00">tangents</text>
</g>
<!-- Node14 -->
<g id="node14" class="node"><title>Node14</title>
<g id="a_node14"><a xlink:href="structdominant_tri__s.html" target="_top" xlink:title="dominantTri_s">
<polygon fill="white" stroke="black" points="74.5,-208.5 74.5,-227.5 151.5,-227.5 151.5,-208.5 74.5,-208.5"/>
<text text-anchor="middle" x="113" y="-215.5" font-family="Arial" font-size="10.00">dominantTri_s</text>
</a>
</g>
</g>
<!-- Node14&#45;&gt;Node4 -->
<g id="edge15" class="edge"><title>Node14&#45;&gt;Node4</title>
<path fill="none" stroke="#9a32cd" stroke-dasharray="5,2" d="M117.518,-198.261C122.943,-180.145 133.931,-153.513 154,-140 186.062,-118.412 288.809,-127.949 327,-122 330.028,-121.528 333.153,-120.992 336.289,-120.417"/>
<polygon fill="#9a32cd" stroke="#9a32cd" points="114.113,-197.447 114.884,-208.014 120.871,-199.273 114.113,-197.447"/>
<text text-anchor="middle" x="183.5" y="-159.5" font-family="Arial" font-size="10.00"> dominantTris</text>
</g>
<!-- Node15 -->
<g id="node15" class="node"><title>Node15</title>
<g id="a_node15"><a xlink:href="classid_c_var.html" target="_top" xlink:title="idCVar">
<polygon fill="white" stroke="black" points="596,-101.5 596,-120.5 642,-120.5 642,-101.5 596,-101.5"/>
<text text-anchor="middle" x="619" y="-108.5" font-family="Arial" font-size="10.00">idCVar</text>
</a>
</g>
</g>
<!-- Node15&#45;&gt;Node1 -->
<g id="edge17" class="edge"><title>Node15&#45;&gt;Node1</title>
<path fill="none" stroke="#9a32cd" stroke-dasharray="5,2" d="M607.607,-93.1464C596.247,-77.3222 577.566,-53.7832 557,-38 547.068,-30.3775 534.638,-24.1191 524.014,-19.5538"/>
<polygon fill="#9a32cd" stroke="#9a32cd" points="604.813,-95.2597 613.408,-101.455 610.553,-91.2522 604.813,-95.2597"/>
<text text-anchor="middle" x="651.5" y="-74" font-family="Arial" font-size="10.00"> r_mergeModelSurfaces</text>
<text text-anchor="middle" x="651.5" y="-63" font-family="Arial" font-size="10.00">r_slopTexCoord</text>
<text text-anchor="middle" x="651.5" y="-52" font-family="Arial" font-size="10.00">r_slopVertex</text>
<text text-anchor="middle" x="651.5" y="-41" font-family="Arial" font-size="10.00">r_slopNormal</text>
</g>
<!-- Node15&#45;&gt;Node15 -->
<g id="edge19" class="edge"><title>Node15&#45;&gt;Node15</title>
<path fill="none" stroke="#9a32cd" stroke-dasharray="5,2" d="M652.411,-119.332C656.964,-117.943 660,-115.166 660,-111 660,-104.164 651.825,-101.067 642.182,-101.707"/>
<polygon fill="#9a32cd" stroke="#9a32cd" points="651.811,-115.873 642.182,-120.293 652.465,-122.843 651.811,-115.873"/>
<text text-anchor="middle" x="683.5" y="-114" font-family="Arial" font-size="10.00"> next</text>
<text text-anchor="middle" x="683.5" y="-103" font-family="Arial" font-size="10.00">internalVar</text>
</g>
<!-- Node16 -->
<g id="node16" class="node"><title>Node16</title>
<g id="a_node16"><a xlink:href="classid_cmd_args.html" target="_top" xlink:title="idCmdArgs">
<polygon fill="white" stroke="black" points="628.5,-208.5 628.5,-227.5 693.5,-227.5 693.5,-208.5 628.5,-208.5"/>
<text text-anchor="middle" x="661" y="-215.5" font-family="Arial" font-size="10.00">idCmdArgs</text>
</a>
</g>
</g>
<!-- Node16&#45;&gt;Node15 -->
<g id="edge18" class="edge"><title>Node16&#45;&gt;Node15</title>
<path fill="none" stroke="#9a32cd" stroke-dasharray="5,2" d="M653.751,-198.878C644.627,-176.068 629.323,-137.807 622.485,-120.711"/>
<polygon fill="#9a32cd" stroke="#9a32cd" points="650.599,-200.423 657.563,-208.407 657.099,-197.823 650.599,-200.423"/>
<text text-anchor="middle" x="685" y="-159.5" font-family="Arial" font-size="10.00"> valueCompletion</text>
</g>
<!-- Node17 -->
<g id="node17" class="node"><title>Node17</title>
<g id="a_node17"><a xlink:href="classid_list.html" target="_top" xlink:title="idList\&lt; modelSurface_s \&gt;">
<polygon fill="white" stroke="black" points="725,-101.5 725,-120.5 853,-120.5 853,-101.5 725,-101.5"/>
<text text-anchor="middle" x="789" y="-108.5" font-family="Arial" font-size="10.00">idList&lt; modelSurface_s &gt;</text>
</a>
</g>
</g>
<!-- Node17&#45;&gt;Node1 -->
<g id="edge20" class="edge"><title>Node17&#45;&gt;Node1</title>
<path fill="none" stroke="#9a32cd" stroke-dasharray="5,2" d="M775.437,-93.3336C760.57,-76.3388 735.067,-50.7176 707,-38 680.634,-26.0534 606.356,-18.4738 554.607,-14.4813"/>
<polygon fill="#9a32cd" stroke="#9a32cd" points="773.067,-95.9502 782.2,-101.32 778.409,-91.4269 773.067,-95.9502"/>
<text text-anchor="middle" x="785" y="-57.5" font-family="Arial" font-size="10.00"> surfaces</text>
</g>
</g>
</svg>
        <g id="navigator" transform="translate(0 0)" fill="#404254">
                <rect fill="#f2f5e9" fill-opacity="0.5" stroke="#606060" stroke-width=".5" x="0" y="0" width="60" height="60"/>
                <use id="zoomplus" xlink:href="#zoomPlus" x="17" y="9" onmousedown="handleZoom(evt,'in')"/>
                <use id="zoomminus" xlink:href="#zoomMin" x="42" y="9" onmousedown="handleZoom(evt,'out')"/>
                <use id="reset" xlink:href="#resetDef" x="30" y="36" onmousedown="handleReset()"/>
                <g id="arrowUp" xlink:href="#dirArrow" transform="translate(30 24)" onmousedown="handlePan(0,-1)">
                  <use xlink:href="#rim" fill="#404040">
                        <set attributeName="fill" to="#808080" begin="arrowUp.mouseover" end="arrowUp.mouseout"/>
                  </use>
                  <path fill="none" stroke="white" stroke-width="1.5" d="M0,-3.0v7 M-2.5,-0.5L0,-3.0L2.5,-0.5"/>
                </g>
                <g id="arrowRight" xlink:href="#dirArrow" transform="rotate(90) translate(36 -43)" onmousedown="handlePan(1,0)">
                  <use xlink:href="#rim" fill="#404040">
                        <set attributeName="fill" to="#808080" begin="arrowRight.mouseover" end="arrowRight.mouseout"/>
                  </use>
                  <path fill="none" stroke="white" stroke-width="1.5" d="M0,-3.0v7 M-2.5,-0.5L0,-3.0L2.5,-0.5"/>
                </g>
                <g id="arrowDown" xlink:href="#dirArrow" transform="rotate(180) translate(-30 -48)" onmousedown="handlePan(0,1)">
                  <use xlink:href="#rim" fill="#404040">
                        <set attributeName="fill" to="#808080" begin="arrowDown.mouseover" end="arrowDown.mouseout"/>
                  </use>
                  <path fill="none" stroke="white" stroke-width="1.5" d="M0,-3.0v7 M-2.5,-0.5L0,-3.0L2.5,-0.5"/>
                </g>
                <g id="arrowLeft" xlink:href="#dirArrow" transform="rotate(270) translate(-36 17)" onmousedown="handlePan(-1,0)">
                  <use xlink:href="#rim" fill="#404040">
                        <set attributeName="fill" to="#808080" begin="arrowLeft.mouseover" end="arrowLeft.mouseout"/>
                  </use>
                  <path fill="none" stroke="white" stroke-width="1.5" d="M0,-3.0v7 M-2.5,-0.5L0,-3.0L2.5,-0.5"/>
                </g>
        </g>
        <svg viewBox="0 0 15 15" width="100%" height="30px" preserveAspectRatio="xMaxYMin meet">
         <g id="arrow_out" transform="scale(0.3 0.3)">
          <a xlink:href="classid_render_model_static__coll__graph_org.svg" target="_base">
           <rect id="button" ry="5" rx="5" y="6" x="6" height="38" width="38"
                fill="#f2f5e9" fill-opacity="0.5" stroke="#606060" stroke-width="1.0"/>
           <path id="arrow"
             d="M 11.500037,31.436501 C 11.940474,20.09759 22.043105,11.32322 32.158766,21.979434 L 37.068811,17.246167 C 37.068811,17.246167 37.088388,32 37.088388,32 L 22.160133,31.978069 C 22.160133,31.978069 26.997745,27.140456 26.997745,27.140456 C 18.528582,18.264221 13.291696,25.230495 11.500037,31.436501 z"
             style="fill:#404040;"/>
          </a>
         </g>
        </svg>
</svg>
