<?xml version="1.0" encoding="UTF-8" standalone="no"?>
<!DOCTYPE svg PUBLIC "-//W3C//DTD SVG 1.1//EN"
 "http://www.w3.org/Graphics/SVG/1.1/DTD/svg11.dtd">
<!-- Generated by graphviz version 2.34.0 (20130907.0111)
 -->
<!-- Title: idAFEntity_VehicleSimple Pages: 1 -->
<svg width="138pt" height="308pt"
 viewBox="0.00 0.00 138.00 308.00" xmlns="http://www.w3.org/2000/svg" xmlns:xlink="http://www.w3.org/1999/xlink">
<g id="graph0" class="graph" transform="scale(1 1) rotate(0) translate(4 304)">
<title>idAFEntity_VehicleSimple</title>
<polygon fill="white" stroke="white" points="-4,4 -4,-304 134,-304 134,4 -4,4"/>
<!-- Node1 -->
<g id="node1" class="node"><title>Node1</title>
<polygon fill="#bfbfbf" stroke="black" points="0,-0.5 0,-19.5 130,-19.5 130,-0.5 0,-0.5"/>
<text text-anchor="middle" x="65" y="-7.5" font-family="Arial" font-size="10.00">idAFEntity_VehicleSimple</text>
</g>
<!-- Node2 -->
<g id="node2" class="node"><title>Node2</title>
<g id="a_node2"><a xlink:href="classid_a_f_entity___vehicle.html" target="_top" xlink:title="idAFEntity_Vehicle">
<polygon fill="white" stroke="black" points="15,-56.5 15,-75.5 115,-75.5 115,-56.5 15,-56.5"/>
<text text-anchor="middle" x="65" y="-63.5" font-family="Arial" font-size="10.00">idAFEntity_Vehicle</text>
</a>
</g>
</g>
<!-- Node2&#45;&gt;Node1 -->
<g id="edge1" class="edge"><title>Node2&#45;&gt;Node1</title>
<path fill="none" stroke="midnightblue" d="M58.5276,-46.1005C57.8956,-37.1357 58.3427,-26.8579 59.869,-19.7511"/>
<polygon fill="midnightblue" stroke="midnightblue" points="55.0658,-46.6216 59.8337,-56.083 62.0067,-45.7134 55.0658,-46.6216"/>
</g>
<!-- Node2&#45;&gt;Node1 -->
<g id="edge10" class="edge"><title>Node2&#45;&gt;Node1</title>
<path fill="none" stroke="midnightblue" d="M71.4724,-46.1005C72.1044,-37.1357 71.6573,-26.8579 70.131,-19.7511"/>
<polygon fill="midnightblue" stroke="midnightblue" points="67.9933,-45.7134 70.1663,-56.083 74.9342,-46.6216 67.9933,-45.7134"/>
</g>
<!-- Node3 -->
<g id="node3" class="node"><title>Node3</title>
<g id="a_node3"><a xlink:href="classid_a_f_entity___base.html" target="_top" xlink:title="idAFEntity_Base">
<polygon fill="white" stroke="black" points="20,-112.5 20,-131.5 110,-131.5 110,-112.5 20,-112.5"/>
<text text-anchor="middle" x="65" y="-119.5" font-family="Arial" font-size="10.00">idAFEntity_Base</text>
</a>
</g>
</g>
<!-- Node3&#45;&gt;Node2 -->
<g id="edge2" class="edge"><title>Node3&#45;&gt;Node2</title>
<path fill="none" stroke="midnightblue" d="M58.5276,-102.101C57.8956,-93.1357 58.3427,-82.8579 59.869,-75.7511"/>
<polygon fill="midnightblue" stroke="midnightblue" points="55.0658,-102.622 59.8337,-112.083 62.0067,-101.713 55.0658,-102.622"/>
</g>
<!-- Node3&#45;&gt;Node2 -->
<g id="edge9" class="edge"><title>Node3&#45;&gt;Node2</title>
<path fill="none" stroke="midnightblue" d="M71.4724,-102.101C72.1044,-93.1357 71.6573,-82.8579 70.131,-75.7511"/>
<polygon fill="midnightblue" stroke="midnightblue" points="67.9933,-101.713 70.1663,-112.083 74.9342,-102.622 67.9933,-101.713"/>
</g>
<!-- Node4 -->
<g id="node4" class="node"><title>Node4</title>
<g id="a_node4"><a xlink:href="classid_animated_entity.html" target="_top" xlink:title="idAnimatedEntity">
<polygon fill="white" stroke="black" points="19.5,-168.5 19.5,-187.5 110.5,-187.5 110.5,-168.5 19.5,-168.5"/>
<text text-anchor="middle" x="65" y="-175.5" font-family="Arial" font-size="10.00">idAnimatedEntity</text>
</a>
</g>
</g>
<!-- Node4&#45;&gt;Node3 -->
<g id="edge3" class="edge"><title>Node4&#45;&gt;Node3</title>
<path fill="none" stroke="midnightblue" d="M58.5276,-158.101C57.8956,-149.136 58.3427,-138.858 59.869,-131.751"/>
<polygon fill="midnightblue" stroke="midnightblue" points="55.0658,-158.622 59.8337,-168.083 62.0067,-157.713 55.0658,-158.622"/>
</g>
<!-- Node4&#45;&gt;Node3 -->
<g id="edge8" class="edge"><title>Node4&#45;&gt;Node3</title>
<path fill="none" stroke="midnightblue" d="M71.4724,-158.101C72.1044,-149.136 71.6573,-138.858 70.131,-131.751"/>
<polygon fill="midnightblue" stroke="midnightblue" points="67.9933,-157.713 70.1663,-168.083 74.9342,-158.622 67.9933,-157.713"/>
</g>
<!-- Node5 -->
<g id="node5" class="node"><title>Node5</title>
<g id="a_node5"><a xlink:href="classid_entity.html" target="_top" xlink:title="idEntity">
<polygon fill="white" stroke="black" points="40,-224.5 40,-243.5 90,-243.5 90,-224.5 40,-224.5"/>
<text text-anchor="middle" x="65" y="-231.5" font-family="Arial" font-size="10.00">idEntity</text>
</a>
</g>
</g>
<!-- Node5&#45;&gt;Node4 -->
<g id="edge4" class="edge"><title>Node5&#45;&gt;Node4</title>
<path fill="none" stroke="midnightblue" d="M58.5276,-214.101C57.8956,-205.136 58.3427,-194.858 59.869,-187.751"/>
<polygon fill="midnightblue" stroke="midnightblue" points="55.0658,-214.622 59.8337,-224.083 62.0067,-213.713 55.0658,-214.622"/>
</g>
<!-- Node5&#45;&gt;Node4 -->
<g id="edge7" class="edge"><title>Node5&#45;&gt;Node4</title>
<path fill="none" stroke="midnightblue" d="M71.4724,-214.101C72.1044,-205.136 71.6573,-194.858 70.131,-187.751"/>
<polygon fill="midnightblue" stroke="midnightblue" points="67.9933,-213.713 70.1663,-224.083 74.9342,-214.622 67.9933,-213.713"/>
</g>
<!-- Node6 -->
<g id="node6" class="node"><title>Node6</title>
<g id="a_node6"><a xlink:href="classid_class.html" target="_top" xlink:title="idClass">
<polygon fill="white" stroke="black" points="40.5,-280.5 40.5,-299.5 89.5,-299.5 89.5,-280.5 40.5,-280.5"/>
<text text-anchor="middle" x="65" y="-287.5" font-family="Arial" font-size="10.00">idClass</text>
</a>
</g>
</g>
<!-- Node6&#45;&gt;Node5 -->
<g id="edge5" class="edge"><title>Node6&#45;&gt;Node5</title>
<path fill="none" stroke="midnightblue" d="M58.5276,-270.101C57.8956,-261.136 58.3427,-250.858 59.869,-243.751"/>
<polygon fill="midnightblue" stroke="midnightblue" points="55.0658,-270.622 59.8337,-280.083 62.0067,-269.713 55.0658,-270.622"/>
</g>
<!-- Node6&#45;&gt;Node5 -->
<g id="edge6" class="edge"><title>Node6&#45;&gt;Node5</title>
<path fill="none" stroke="midnightblue" d="M71.4724,-270.101C72.1044,-261.136 71.6573,-250.858 70.131,-243.751"/>
<polygon fill="midnightblue" stroke="midnightblue" points="67.9933,-269.713 70.1663,-280.083 74.9342,-270.622 67.9933,-269.713"/>
</g>
</g>
</svg>
