<?xml version="1.0" encoding="UTF-8" standalone="no"?>
<!DOCTYPE svg PUBLIC "-//W3C//DTD SVG 1.1//EN"
 "http://www.w3.org/Graphics/SVG/1.1/DTD/svg11.dtd">
<!-- Generated by graphviz version 2.34.0 (20130907.0111)
 -->
<!-- Title: idPhysics_RigidBody Pages: 1 -->
<!--zoomable 677 -->
<svg id="main" version="1.1" xmlns="http://www.w3.org/2000/svg" xmlns:xlink="http://www.w3.org/1999/xlink" xml:space="preserve" onload="init(evt)">
<style type="text/css"><![CDATA[
.edge:hover path { stroke: red; }
.edge:hover polygon { stroke: red; fill: red; }
]]></style>
<script type="text/javascript"><![CDATA[
var edges = document.getElementsByTagName('g');
if (edges && edges.length) {
  for (var i=0;i<edges.length;i++) {
    if (edges[i].id.substr(0,4)=='edge') {
      edges[i].setAttribute('class','edge');
    }
  }
}
]]></script>
        <defs>
                <circle id="rim" cx="0" cy="0" r="7"/>
                <circle id="rim2" cx="0" cy="0" r="3.5"/>
                <g id="zoomPlus">
                        <use xlink:href="#rim" fill="#404040">
                                <set attributeName="fill" to="#808080" begin="zoomplus.mouseover" end="zoomplus.mouseout"/>
                        </use>
                        <path d="M-4,0h8M0,-4v8" fill="none" stroke="white" stroke-width="1.5" pointer-events="none"/>
                </g>
                <g id="zoomMin">
                        <use xlink:href="#rim" fill="#404040">
                                <set attributeName="fill" to="#808080" begin="zoomminus.mouseover" end="zoomminus.mouseout"/>
                        </use>
                        <path d="M-4,0h8" fill="none" stroke="white" stroke-width="1.5" pointer-events="none"/>
                </g>
                <g id="dirArrow">
                        <path fill="none" stroke="white" stroke-width="1.5" d="M0,-3.0v7 M-2.5,-0.5L0,-3.0L2.5,-0.5"/>
                </g>
               <g id="resetDef">
                       <use xlink:href="#rim2" fill="#404040">
                               <set attributeName="fill" to="#808080" begin="reset.mouseover" end="reset.mouseout"/>
                       </use>
               </g>
        </defs>

<script type="text/javascript">
var viewWidth = 1340;
var viewHeight = 677;
var sectionId = 'dynsection-1';
</script>
<script xlink:href="svgpan.js"/>
<svg id="graph" class="graph">
<g id="viewport">
<title>idPhysics_RigidBody</title>
<polygon fill="white" stroke="white" points="-4,4 -4,-673 1336,-673 1336,4 -4,4"/>
<!-- Node1 -->
<g id="node1" class="node"><title>Node1</title>
<polygon fill="#bfbfbf" stroke="black" points="1222.5,-169.5 1222.5,-188.5 1331.5,-188.5 1331.5,-169.5 1222.5,-169.5"/>
<text text-anchor="middle" x="1277" y="-176.5" font-family="Arial" font-size="10.00">idPhysics_RigidBody</text>
</g>
<!-- Node2 -->
<g id="node2" class="node"><title>Node2</title>
<g id="a_node2"><a xlink:href="classid_physics___base.html" target="_top" xlink:title="idPhysics_Base">
<polygon fill="white" stroke="black" points="1096.5,-169.5 1096.5,-188.5 1183.5,-188.5 1183.5,-169.5 1096.5,-169.5"/>
<text text-anchor="middle" x="1140" y="-176.5" font-family="Arial" font-size="10.00">idPhysics_Base</text>
</a>
</g>
</g>
<!-- Node2&#45;&gt;Node1 -->
<g id="edge1" class="edge"><title>Node2&#45;&gt;Node1</title>
<path fill="none" stroke="midnightblue" d="M1193.97,-172.391C1203.23,-172.209 1212.87,-172.203 1222.16,-172.374"/>
<polygon fill="midnightblue" stroke="midnightblue" points="1193.62,-168.899 1183.71,-172.672 1193.81,-175.897 1193.62,-168.899"/>
</g>
<!-- Node2&#45;&gt;Node1 -->
<g id="edge51" class="edge"><title>Node2&#45;&gt;Node1</title>
<path fill="none" stroke="midnightblue" d="M1193.97,-185.609C1203.23,-185.791 1212.87,-185.797 1222.16,-185.626"/>
<polygon fill="midnightblue" stroke="midnightblue" points="1193.81,-182.103 1183.71,-185.328 1193.62,-189.101 1193.81,-182.103"/>
</g>
<!-- Node3 -->
<g id="node3" class="node"><title>Node3</title>
<g id="a_node3"><a xlink:href="classid_physics.html" target="_top" xlink:title="idPhysics">
<polygon fill="white" stroke="black" points="931.5,-443.5 931.5,-462.5 990.5,-462.5 990.5,-443.5 931.5,-443.5"/>
<text text-anchor="middle" x="961" y="-450.5" font-family="Arial" font-size="10.00">idPhysics</text>
</a>
</g>
</g>
<!-- Node3&#45;&gt;Node2 -->
<g id="edge2" class="edge"><title>Node3&#45;&gt;Node2</title>
<path fill="none" stroke="midnightblue" d="M971.808,-434.51C1003.31,-381.067 1101.58,-229.032 1130.75,-188.703"/>
<polygon fill="midnightblue" stroke="midnightblue" points="968.707,-432.882 966.734,-443.292 974.768,-436.384 968.707,-432.882"/>
</g>
<!-- Node3&#45;&gt;Node2 -->
<g id="edge12" class="edge"><title>Node3&#45;&gt;Node2</title>
<path fill="none" stroke="midnightblue" d="M976.305,-434.747C1013.48,-381.469 1111.81,-228.745 1134.35,-188.559"/>
<polygon fill="midnightblue" stroke="midnightblue" points="973.225,-433.04 970.3,-443.223 978.937,-437.087 973.225,-433.04"/>
</g>
<!-- Node4 -->
<g id="node4" class="node"><title>Node4</title>
<g id="a_node4"><a xlink:href="classid_class.html" target="_top" xlink:title="idClass">
<polygon fill="white" stroke="black" points="709.5,-508.5 709.5,-527.5 758.5,-527.5 758.5,-508.5 709.5,-508.5"/>
<text text-anchor="middle" x="734" y="-515.5" font-family="Arial" font-size="10.00">idClass</text>
</a>
</g>
</g>
<!-- Node4&#45;&gt;Node3 -->
<g id="edge3" class="edge"><title>Node4&#45;&gt;Node3</title>
<path fill="none" stroke="midnightblue" d="M768.572,-509.405C799.74,-505.085 847.057,-499.5 886,-486 903.028,-480.097 920.632,-470.282 934.397,-462.598"/>
<polygon fill="midnightblue" stroke="midnightblue" points="768.057,-505.943 758.657,-510.831 769.053,-512.871 768.057,-505.943"/>
</g>
<!-- Node4&#45;&gt;Node3 -->
<g id="edge11" class="edge"><title>Node4&#45;&gt;Node3</title>
<path fill="none" stroke="midnightblue" d="M768.98,-523.372C800.151,-523.037 847.227,-517.441 886,-504 913.077,-494.613 941.612,-475.334 953.846,-462.629"/>
<polygon fill="midnightblue" stroke="midnightblue" points="768.689,-519.869 758.657,-523.276 768.624,-526.869 768.689,-519.869"/>
</g>
<!-- Node5 -->
<g id="node5" class="node"><title>Node5</title>
<g id="a_node5"><a xlink:href="classid_type_info.html" target="_top" xlink:title="idTypeInfo">
<polygon fill="white" stroke="black" points="931,-597.5 931,-616.5 991,-616.5 991,-597.5 931,-597.5"/>
<text text-anchor="middle" x="961" y="-604.5" font-family="Arial" font-size="10.00">idTypeInfo</text>
</a>
</g>
</g>
<!-- Node4&#45;&gt;Node5 -->
<g id="edge9" class="edge"><title>Node4&#45;&gt;Node5</title>
<path fill="none" stroke="#9a32cd" stroke-dasharray="5,2" d="M754.506,-533.862C770.243,-545.928 793.406,-562.093 816,-572 853.936,-588.633 901.111,-598.188 930.899,-602.989"/>
<polygon fill="#9a32cd" stroke="#9a32cd" points="756.607,-531.061 746.578,-527.646 752.288,-536.57 756.607,-531.061"/>
<text text-anchor="middle" x="851" y="-597" font-family="Arial" font-size="10.00"> CreateInstance</text>
</g>
<!-- Node9 -->
<g id="node9" class="node"><title>Node9</title>
<g id="a_node9"><a xlink:href="classid_entity.html" target="_top" xlink:title="idEntity">
<polygon fill="white" stroke="black" points="936,-289.5 936,-308.5 986,-308.5 986,-289.5 936,-289.5"/>
<text text-anchor="middle" x="961" y="-296.5" font-family="Arial" font-size="10.00">idEntity</text>
</a>
</g>
</g>
<!-- Node4&#45;&gt;Node9 -->
<g id="edge14" class="edge"><title>Node4&#45;&gt;Node9</title>
<path fill="none" stroke="midnightblue" d="M764.188,-505.256C797.381,-494.263 851.437,-476.26 886,-443 927.672,-402.9 948.911,-334.517 956.578,-308.705"/>
<polygon fill="midnightblue" stroke="midnightblue" points="762.981,-501.969 754.601,-508.451 765.195,-508.609 762.981,-501.969"/>
</g>
<!-- Node4&#45;&gt;Node9 -->
<g id="edge15" class="edge"><title>Node4&#45;&gt;Node9</title>
<path fill="none" stroke="midnightblue" d="M768.758,-517.331C802.172,-510.624 852.981,-492.774 886,-461 932.349,-416.399 953.422,-336.81 958.656,-308.607"/>
<polygon fill="midnightblue" stroke="midnightblue" points="767.809,-513.944 758.565,-519.121 769.02,-520.839 767.809,-513.944"/>
</g>
<!-- Node5&#45;&gt;Node4 -->
<g id="edge4" class="edge"><title>Node5&#45;&gt;Node4</title>
<path fill="none" stroke="#9a32cd" stroke-dasharray="5,2" d="M938.398,-591.323C924.095,-581.522 904.608,-569.239 886,-561 842.881,-541.91 789.082,-528.984 758.728,-522.609"/>
<polygon fill="#9a32cd" stroke="#9a32cd" points="936.788,-594.469 946.987,-597.339 940.804,-588.735 936.788,-594.469"/>
<text text-anchor="middle" x="851" y="-564" font-family="Arial" font-size="10.00"> Type</text>
</g>
<!-- Node5&#45;&gt;Node5 -->
<g id="edge5" class="edge"><title>Node5&#45;&gt;Node5</title>
<path fill="none" stroke="#9a32cd" stroke-dasharray="5,2" d="M943.223,-626.4C944.41,-631.315 950.336,-635 961,-635 978.063,-635 982.995,-625.565 975.796,-616.757"/>
<polygon fill="#9a32cd" stroke="#9a32cd" points="946.594,-627.345 946.204,-616.757 939.907,-625.278 946.594,-627.345"/>
<text text-anchor="middle" x="961" y="-649" font-family="Arial" font-size="10.00"> next</text>
<text text-anchor="middle" x="961" y="-638" font-family="Arial" font-size="10.00">super</text>
</g>
<!-- Node6 -->
<g id="node6" class="node"><title>Node6</title>
<g id="a_node6"><a xlink:href="classid_hierarchy.html" target="_top" xlink:title="idHierarchy\&lt; idTypeInfo \&gt;">
<polygon fill="white" stroke="black" points="670.5,-649.5 670.5,-668.5 797.5,-668.5 797.5,-649.5 670.5,-649.5"/>
<text text-anchor="middle" x="734" y="-656.5" font-family="Arial" font-size="10.00">idHierarchy&lt; idTypeInfo &gt;</text>
</a>
</g>
</g>
<!-- Node6&#45;&gt;Node5 -->
<g id="edge6" class="edge"><title>Node6&#45;&gt;Node5</title>
<path fill="none" stroke="#9a32cd" stroke-dasharray="5,2" d="M807.777,-649.749C832.784,-645.833 860.815,-640.618 886,-634 903.591,-629.377 922.878,-622.27 937.35,-616.508"/>
<polygon fill="#9a32cd" stroke="#9a32cd" points="806.988,-646.328 797.629,-651.294 808.041,-653.249 806.988,-646.328"/>
<text text-anchor="middle" x="851" y="-651" font-family="Arial" font-size="10.00"> node</text>
</g>
<!-- Node7 -->
<g id="node7" class="node"><title>Node7</title>
<g id="a_node7"><a xlink:href="structid_event_func.html" target="_top" xlink:title="idEventFunc\&lt; idClass \&gt;">
<polygon fill="white" stroke="black" points="428,-578.5 428,-597.5 548,-597.5 548,-578.5 428,-578.5"/>
<text text-anchor="middle" x="488" y="-585.5" font-family="Arial" font-size="10.00">idEventFunc&lt; idClass &gt;</text>
</a>
</g>
</g>
<!-- Node7&#45;&gt;Node4 -->
<g id="edge10" class="edge"><title>Node7&#45;&gt;Node4</title>
<path fill="none" stroke="#9a32cd" stroke-dasharray="5,2" d="M558.44,-577.557C587.714,-572.229 621.909,-564.776 652,-555 674.497,-547.691 699.035,-535.903 715.14,-527.6"/>
<polygon fill="#9a32cd" stroke="#9a32cd" points="557.542,-574.161 548.306,-579.353 558.764,-581.054 557.542,-574.161"/>
<text text-anchor="middle" x="609" y="-579" font-family="Arial" font-size="10.00"> eventCallbacks</text>
</g>
<!-- Node7&#45;&gt;Node5 -->
<g id="edge7" class="edge"><title>Node7&#45;&gt;Node5</title>
<path fill="none" stroke="#9a32cd" stroke-dasharray="5,2" d="M558.336,-592.785C624.499,-597.122 726.993,-603.243 816,-606 855.732,-607.231 901.658,-607.318 930.758,-607.208"/>
<polygon fill="#9a32cd" stroke="#9a32cd" points="558.246,-589.272 548.037,-592.105 557.784,-596.256 558.246,-589.272"/>
<text text-anchor="middle" x="734" y="-608" font-family="Arial" font-size="10.00"> eventCallbacks</text>
</g>
<!-- Node8 -->
<g id="node8" class="node"><title>Node8</title>
<g id="a_node8"><a xlink:href="classid_event_def.html" target="_top" xlink:title="idEventDef">
<polygon fill="white" stroke="black" points="234,-578.5 234,-597.5 296,-597.5 296,-578.5 234,-578.5"/>
<text text-anchor="middle" x="265" y="-585.5" font-family="Arial" font-size="10.00">idEventDef</text>
</a>
</g>
</g>
<!-- Node8&#45;&gt;Node7 -->
<g id="edge8" class="edge"><title>Node8&#45;&gt;Node7</title>
<path fill="none" stroke="#9a32cd" stroke-dasharray="5,2" d="M306.282,-588C340.209,-588 389.214,-588 427.636,-588"/>
<polygon fill="#9a32cd" stroke="#9a32cd" points="306.266,-584.5 296.266,-588 306.266,-591.5 306.266,-584.5"/>
<text text-anchor="middle" x="374" y="-591" font-family="Arial" font-size="10.00"> event</text>
</g>
<!-- Node9&#45;&gt;Node2 -->
<g id="edge13" class="edge"><title>Node9&#45;&gt;Node2</title>
<path fill="none" stroke="#9a32cd" stroke-dasharray="5,2" d="M984.805,-283.539C1021.87,-258.408 1094.13,-209.418 1124.75,-188.663"/>
<polygon fill="#9a32cd" stroke="#9a32cd" points="982.498,-280.874 976.185,-289.383 986.427,-286.668 982.498,-280.874"/>
<text text-anchor="middle" x="1057" y="-250" font-family="Arial" font-size="10.00"> self</text>
</g>
<!-- Node9&#45;&gt;Node9 -->
<g id="edge16" class="edge"><title>Node9&#45;&gt;Node9</title>
<path fill="none" stroke="#9a32cd" stroke-dasharray="5,2" d="M943.223,-318.4C944.41,-323.315 950.336,-327 961,-327 978.063,-327 982.995,-317.565 975.796,-308.757"/>
<polygon fill="#9a32cd" stroke="#9a32cd" points="946.594,-319.345 946.204,-308.757 939.907,-317.278 946.594,-319.345"/>
<text text-anchor="middle" x="961" y="-330" font-family="Arial" font-size="10.00"> cameraTarget</text>
</g>
<!-- Node10 -->
<g id="node10" class="node"><title>Node10</title>
<g id="a_node10"><a xlink:href="classid_str.html" target="_top" xlink:title="idStr">
<polygon fill="white" stroke="black" points="715.5,-348.5 715.5,-367.5 752.5,-367.5 752.5,-348.5 715.5,-348.5"/>
<text text-anchor="middle" x="734" y="-355.5" font-family="Arial" font-size="10.00">idStr</text>
</a>
</g>
</g>
<!-- Node10&#45;&gt;Node9 -->
<g id="edge17" class="edge"><title>Node10&#45;&gt;Node9</title>
<path fill="none" stroke="#9a32cd" stroke-dasharray="5,2" d="M762.824,-353.656C793.368,-348.571 843.693,-339.262 886,-327 903.679,-321.876 923.125,-314.445 937.645,-308.525"/>
<polygon fill="#9a32cd" stroke="#9a32cd" points="762.197,-350.212 752.891,-355.276 763.324,-357.12 762.197,-350.212"/>
<text text-anchor="middle" x="851" y="-347" font-family="Arial" font-size="10.00"> name</text>
</g>
<!-- Node11 -->
<g id="node11" class="node"><title>Node11</title>
<g id="a_node11"><a xlink:href="structid_entity_1_1entity_flags__s.html" target="_top" xlink:title="idEntity::entityFlags_s">
<polygon fill="white" stroke="black" points="677,-310.5 677,-329.5 791,-329.5 791,-310.5 677,-310.5"/>
<text text-anchor="middle" x="734" y="-317.5" font-family="Arial" font-size="10.00">idEntity::entityFlags_s</text>
</a>
</g>
</g>
<!-- Node11&#45;&gt;Node9 -->
<g id="edge18" class="edge"><title>Node11&#45;&gt;Node9</title>
<path fill="none" stroke="#9a32cd" stroke-dasharray="5,2" d="M801.238,-313.818C846.482,-309.595 903.814,-304.244 935.732,-301.265"/>
<polygon fill="#9a32cd" stroke="#9a32cd" points="800.828,-310.341 791.197,-314.755 801.479,-317.31 800.828,-310.341"/>
<text text-anchor="middle" x="851" y="-315" font-family="Arial" font-size="10.00"> fl</text>
</g>
<!-- Node12 -->
<g id="node12" class="node"><title>Node12</title>
<g id="a_node12"><a xlink:href="structrender_view__s.html" target="_top" xlink:title="renderView_s">
<polygon fill="white" stroke="black" points="450.5,-259.5 450.5,-278.5 525.5,-278.5 525.5,-259.5 450.5,-259.5"/>
<text text-anchor="middle" x="488" y="-266.5" font-family="Arial" font-size="10.00">renderView_s</text>
</a>
</g>
</g>
<!-- Node12&#45;&gt;Node9 -->
<g id="edge19" class="edge"><title>Node12&#45;&gt;Node9</title>
<path fill="none" stroke="#9a32cd" stroke-dasharray="5,2" d="M521.936,-255.767C557.702,-242.167 616.848,-221.897 670,-214 726.271,-205.639 742.024,-203.85 798,-214 839.1,-221.453 849.059,-227.502 886,-247 909.329,-259.314 933.908,-277.86 948.049,-289.156"/>
<polygon fill="#9a32cd" stroke="#9a32cd" points="520.562,-252.546 512.492,-259.411 523.082,-259.077 520.562,-252.546"/>
<text text-anchor="middle" x="734" y="-217" font-family="Arial" font-size="10.00"> renderView</text>
</g>
<!-- Node20 -->
<g id="node20" class="node"><title>Node20</title>
<g id="a_node20"><a xlink:href="structrender_entity__s.html" target="_top" xlink:title="renderEntity_s">
<polygon fill="white" stroke="black" points="694,-386.5 694,-405.5 774,-405.5 774,-386.5 694,-386.5"/>
<text text-anchor="middle" x="734" y="-393.5" font-family="Arial" font-size="10.00">renderEntity_s</text>
</a>
</g>
</g>
<!-- Node12&#45;&gt;Node20 -->
<g id="edge32" class="edge"><title>Node12&#45;&gt;Node20</title>
<path fill="none" stroke="#9a32cd" stroke-dasharray="5,2" d="M536.19,-264.084C572.508,-263.042 621.497,-268.02 652,-297 678.421,-322.102 645.169,-350.324 670,-377 676.305,-383.773 684.927,-388.162 693.769,-390.998"/>
<polygon fill="#9a32cd" stroke="#9a32cd" points="535.667,-260.604 525.835,-264.551 535.983,-267.597 535.667,-260.604"/>
<text text-anchor="middle" x="609" y="-300" font-family="Arial" font-size="10.00"> remoteRenderView</text>
</g>
<!-- Node13 -->
<g id="node13" class="node"><title>Node13</title>
<g id="a_node13"><a xlink:href="classid_mat3.html" target="_top" xlink:title="idMat3">
<polygon fill="white" stroke="black" points="242,-351.5 242,-370.5 288,-370.5 288,-351.5 242,-351.5"/>
<text text-anchor="middle" x="265" y="-358.5" font-family="Arial" font-size="10.00">idMat3</text>
</a>
</g>
</g>
<!-- Node13&#45;&gt;Node12 -->
<g id="edge20" class="edge"><title>Node13&#45;&gt;Node12</title>
<path fill="none" stroke="#9a32cd" stroke-dasharray="5,2" d="M297.698,-347.805C342.713,-329.065 424.103,-295.183 463.871,-278.628"/>
<polygon fill="#9a32cd" stroke="#9a32cd" points="296.294,-344.598 288.407,-351.672 298.984,-351.06 296.294,-344.598"/>
<text text-anchor="middle" x="374" y="-332" font-family="Arial" font-size="10.00"> viewaxis</text>
</g>
<!-- Node13&#45;&gt;Node20 -->
<g id="edge28" class="edge"><title>Node13&#45;&gt;Node20</title>
<path fill="none" stroke="#9a32cd" stroke-dasharray="5,2" d="M298.025,-367.874C330.599,-374.643 382.604,-384.837 428,-391 526.792,-404.411 552.394,-407.296 652,-403 665.679,-402.41 680.621,-401.262 693.905,-400.064"/>
<polygon fill="#9a32cd" stroke="#9a32cd" points="298.67,-364.433 288.164,-365.806 297.233,-371.284 298.67,-364.433"/>
<text text-anchor="middle" x="488" y="-407" font-family="Arial" font-size="10.00"> axis</text>
</g>
<!-- Node14 -->
<g id="node14" class="node"><title>Node14</title>
<g id="a_node14"><a xlink:href="classid_vec3.html" target="_top" xlink:title="idVec3">
<polygon fill="white" stroke="black" points="241.5,-172.5 241.5,-191.5 288.5,-191.5 288.5,-172.5 241.5,-172.5"/>
<text text-anchor="middle" x="265" y="-179.5" font-family="Arial" font-size="10.00">idVec3</text>
</a>
</g>
</g>
<!-- Node14&#45;&gt;Node2 -->
<g id="edge50" class="edge"><title>Node14&#45;&gt;Node2</title>
<path fill="none" stroke="#9a32cd" stroke-dasharray="5,2" d="M298.949,-180.036C352.65,-175.989 461.714,-164.217 548,-132 607.196,-109.898 609.095,-75.8302 670,-59 716.764,-46.0774 986.584,-62.6828 1018,-69 1045.85,-74.5992 1055.53,-73.6295 1078,-91 1106.24,-112.828 1126.43,-151.414 1134.76,-169.343"/>
<polygon fill="#9a32cd" stroke="#9a32cd" points="298.391,-176.567 288.664,-180.766 298.887,-183.549 298.391,-176.567"/>
<text text-anchor="middle" x="734" y="-73" font-family="Arial" font-size="10.00"> gravityNormal</text>
<text text-anchor="middle" x="734" y="-62" font-family="Arial" font-size="10.00">gravityVector</text>
</g>
<!-- Node14&#45;&gt;Node12 -->
<g id="edge21" class="edge"><title>Node14&#45;&gt;Node12</title>
<path fill="none" stroke="#9a32cd" stroke-dasharray="5,2" d="M298.323,-194.724C342.997,-212.311 422.62,-243.656 462.631,-259.407"/>
<polygon fill="#9a32cd" stroke="#9a32cd" points="299.406,-191.389 288.818,-190.983 296.841,-197.903 299.406,-191.389"/>
<text text-anchor="middle" x="374" y="-242" font-family="Arial" font-size="10.00"> vieworg</text>
</g>
<!-- Node14&#45;&gt;Node20 -->
<g id="edge36" class="edge"><title>Node14&#45;&gt;Node20</title>
<path fill="none" stroke="#9a32cd" stroke-dasharray="5,2" d="M298.68,-186.515C387.356,-199.064 627.51,-235.137 652,-261 687.872,-298.883 635.759,-337.636 670,-377 676.148,-384.068 684.821,-388.557 693.771,-391.395"/>
<polygon fill="#9a32cd" stroke="#9a32cd" points="299.032,-183.03 288.642,-185.104 298.057,-189.962 299.032,-183.03"/>
<text text-anchor="middle" x="488" y="-231" font-family="Arial" font-size="10.00"> origin</text>
</g>
<!-- Node28 -->
<g id="node28" class="node"><title>Node28</title>
<g id="a_node28"><a xlink:href="structref_sound__t.html" target="_top" xlink:title="refSound_t">
<polygon fill="white" stroke="black" points="456.5,-51.5 456.5,-70.5 519.5,-70.5 519.5,-51.5 456.5,-51.5"/>
<text text-anchor="middle" x="488" y="-58.5" font-family="Arial" font-size="10.00">refSound_t</text>
</a>
</g>
</g>
<!-- Node14&#45;&gt;Node28 -->
<g id="edge46" class="edge"><title>Node14&#45;&gt;Node28</title>
<path fill="none" stroke="#9a32cd" stroke-dasharray="5,2" d="M291.73,-167.38C320.737,-150.767 369.179,-122.628 410,-97 418.143,-91.8877 419.504,-89.5009 428,-85 438.26,-79.5646 450.029,-74.5504 460.343,-70.5264"/>
<polygon fill="#9a32cd" stroke="#9a32cd" points="289.976,-164.351 283.029,-172.351 293.448,-170.429 289.976,-164.351"/>
<text text-anchor="middle" x="374" y="-143" font-family="Arial" font-size="10.00"> origin</text>
</g>
<!-- Node15 -->
<g id="node15" class="node"><title>Node15</title>
<g id="a_node15"><a xlink:href="classid_material.html" target="_top" xlink:title="idMaterial">
<polygon fill="white" stroke="black" points="235.5,-284.5 235.5,-303.5 294.5,-303.5 294.5,-284.5 235.5,-284.5"/>
<text text-anchor="middle" x="265" y="-291.5" font-family="Arial" font-size="10.00">idMaterial</text>
</a>
</g>
</g>
<!-- Node15&#45;&gt;Node12 -->
<g id="edge22" class="edge"><title>Node15&#45;&gt;Node12</title>
<path fill="none" stroke="#9a32cd" stroke-dasharray="5,2" d="M294.901,-280.452C307.79,-275.126 323.345,-269.657 338,-267 375.801,-260.145 419.884,-261.916 450.241,-264.612"/>
<polygon fill="#9a32cd" stroke="#9a32cd" points="293.425,-277.277 285.625,-284.447 296.194,-283.706 293.425,-277.277"/>
<text text-anchor="middle" x="374" y="-270" font-family="Arial" font-size="10.00"> globalMaterial</text>
</g>
<!-- Node15&#45;&gt;Node20 -->
<g id="edge38" class="edge"><title>Node15&#45;&gt;Node20</title>
<path fill="none" stroke="#9a32cd" stroke-dasharray="5,2" d="M304.483,-304.789C315.258,-307.49 327.025,-310.143 338,-312 430.401,-327.634 456.656,-310.055 548,-331 604.483,-343.951 615.117,-358.401 670,-377 679.63,-380.263 690.178,-383.554 699.843,-386.459"/>
<polygon fill="#9a32cd" stroke="#9a32cd" points="305.073,-301.326 294.515,-302.209 303.319,-308.103 305.073,-301.326"/>
<text text-anchor="middle" x="488" y="-345" font-family="Arial" font-size="10.00"> customShader</text>
<text text-anchor="middle" x="488" y="-334" font-family="Arial" font-size="10.00">referenceShader</text>
</g>
<!-- Node16 -->
<g id="node16" class="node"><title>Node16</title>
<g id="a_node16"><a xlink:href="classid_decl.html" target="_top" xlink:title="idDecl">
<polygon fill="white" stroke="black" points="128,-284.5 128,-303.5 172,-303.5 172,-284.5 128,-284.5"/>
<text text-anchor="middle" x="150" y="-291.5" font-family="Arial" font-size="10.00">idDecl</text>
</a>
</g>
</g>
<!-- Node16&#45;&gt;Node15 -->
<g id="edge23" class="edge"><title>Node16&#45;&gt;Node15</title>
<path fill="none" stroke="midnightblue" d="M182.507,-294C199.008,-294 219.073,-294 235.163,-294"/>
<polygon fill="midnightblue" stroke="midnightblue" points="182.254,-290.5 172.254,-294 182.254,-297.5 182.254,-290.5"/>
</g>
<!-- Node21 -->
<g id="node21" class="node"><title>Node21</title>
<g id="a_node21"><a xlink:href="classid_decl_skin.html" target="_top" xlink:title="idDeclSkin">
<polygon fill="white" stroke="black" points="342.5,-496.5 342.5,-515.5 405.5,-515.5 405.5,-496.5 342.5,-496.5"/>
<text text-anchor="middle" x="374" y="-503.5" font-family="Arial" font-size="10.00">idDeclSkin</text>
</a>
</g>
</g>
<!-- Node16&#45;&gt;Node21 -->
<g id="edge30" class="edge"><title>Node16&#45;&gt;Node21</title>
<path fill="none" stroke="midnightblue" d="M161.404,-312.547C172.176,-330.839 190.184,-359.026 210,-380 257.654,-430.438 326.69,-476.79 357.334,-496.284"/>
<polygon fill="midnightblue" stroke="midnightblue" points="164.355,-310.658 156.329,-303.743 158.291,-314.154 164.355,-310.658"/>
</g>
<!-- Node30 -->
<g id="node30" class="node"><title>Node30</title>
<g id="a_node30"><a xlink:href="classid_sound_shader.html" target="_top" xlink:title="idSoundShader">
<polygon fill="white" stroke="black" points="223.5,-0.5 223.5,-19.5 306.5,-19.5 306.5,-0.5 223.5,-0.5"/>
<text text-anchor="middle" x="265" y="-7.5" font-family="Arial" font-size="10.00">idSoundShader</text>
</a>
</g>
</g>
<!-- Node16&#45;&gt;Node30 -->
<g id="edge44" class="edge"><title>Node16&#45;&gt;Node30</title>
<path fill="none" stroke="midnightblue" d="M152.92,-274.307C158.649,-219.339 177.29,-65.8638 210,-29 213.694,-24.8371 218.356,-21.5863 223.385,-19.0477"/>
<polygon fill="midnightblue" stroke="midnightblue" points="149.417,-274.163 151.893,-284.464 156.381,-274.867 149.417,-274.163"/>
</g>
<!-- Node17 -->
<g id="node17" class="node"><title>Node17</title>
<g id="a_node17"><a xlink:href="classid_decl_base.html" target="_top" xlink:title="idDeclBase">
<polygon fill="white" stroke="black" points="0,-284.5 0,-303.5 66,-303.5 66,-284.5 0,-284.5"/>
<text text-anchor="middle" x="33" y="-291.5" font-family="Arial" font-size="10.00">idDeclBase</text>
</a>
</g>
</g>
<!-- Node17&#45;&gt;Node16 -->
<g id="edge24" class="edge"><title>Node17&#45;&gt;Node16</title>
<path fill="none" stroke="#9a32cd" stroke-dasharray="5,2" d="M76.0643,-294C93.5984,-294 113.201,-294 127.664,-294"/>
<polygon fill="#9a32cd" stroke="#9a32cd" points="76.0339,-290.5 66.0339,-294 76.0339,-297.5 76.0339,-290.5"/>
<text text-anchor="middle" x="97" y="-297" font-family="Arial" font-size="10.00"> base</text>
</g>
<!-- Node18 -->
<g id="node18" class="node"><title>Node18</title>
<g id="a_node18"><a xlink:href="classid_list.html" target="_top" xlink:title="idList\&lt; idEntityPtr\l\&lt; idEntity \&gt; \&gt;">
<polygon fill="white" stroke="black" points="686.5,-91 686.5,-121 781.5,-121 781.5,-91 686.5,-91"/>
<text text-anchor="start" x="694.5" y="-109" font-family="Arial" font-size="10.00">idList&lt; idEntityPtr</text>
<text text-anchor="middle" x="734" y="-98" font-family="Arial" font-size="10.00">&lt; idEntity &gt; &gt;</text>
</a>
</g>
</g>
<!-- Node18&#45;&gt;Node2 -->
<g id="edge48" class="edge"><title>Node18&#45;&gt;Node2</title>
<path fill="none" stroke="#9a32cd" stroke-dasharray="5,2" d="M791.854,-113.025C820.209,-116.753 854.986,-121.662 886,-127 960.463,-139.817 1046.51,-158.289 1096.63,-169.42"/>
<polygon fill="#9a32cd" stroke="#9a32cd" points="792.084,-109.526 781.716,-111.707 791.181,-116.467 792.084,-109.526"/>
<text text-anchor="middle" x="961" y="-156" font-family="Arial" font-size="10.00"> contactEntities</text>
</g>
<!-- Node18&#45;&gt;Node9 -->
<g id="edge25" class="edge"><title>Node18&#45;&gt;Node9</title>
<path fill="none" stroke="#9a32cd" stroke-dasharray="5,2" d="M791.487,-118.951C831.152,-128.447 878.428,-140.733 886,-147 933.254,-186.114 952.673,-262.673 958.211,-289.466"/>
<polygon fill="#9a32cd" stroke="#9a32cd" points="792.134,-115.507 781.596,-116.602 790.517,-122.318 792.134,-115.507"/>
<text text-anchor="middle" x="851" y="-150" font-family="Arial" font-size="10.00"> targets</text>
</g>
<!-- Node19 -->
<g id="node19" class="node"><title>Node19</title>
<g id="a_node19"><a xlink:href="classid_link_list.html" target="_top" xlink:title="idLinkList\&lt; idEntity \&gt;">
<polygon fill="white" stroke="black" points="679.5,-453.5 679.5,-472.5 788.5,-472.5 788.5,-453.5 679.5,-453.5"/>
<text text-anchor="middle" x="734" y="-460.5" font-family="Arial" font-size="10.00">idLinkList&lt; idEntity &gt;</text>
</a>
</g>
</g>
<!-- Node19&#45;&gt;Node9 -->
<g id="edge26" class="edge"><title>Node19&#45;&gt;Node9</title>
<path fill="none" stroke="#9a32cd" stroke-dasharray="5,2" d="M789.397,-449.216C792.409,-447.657 795.303,-445.925 798,-444 809.144,-436.047 804.954,-427.09 816,-419 842.42,-399.651 859.315,-414.982 886,-396 919.83,-371.936 945.235,-327.861 955.286,-308.522"/>
<polygon fill="#9a32cd" stroke="#9a32cd" points="787.777,-446.106 780.085,-453.392 790.642,-452.493 787.777,-446.106"/>
<text text-anchor="middle" x="851" y="-444" font-family="Arial" font-size="10.00"> spawnNode</text>
<text text-anchor="middle" x="851" y="-433" font-family="Arial" font-size="10.00">snapshotNode</text>
<text text-anchor="middle" x="851" y="-422" font-family="Arial" font-size="10.00">activeNode</text>
</g>
<!-- Node20&#45;&gt;Node9 -->
<g id="edge27" class="edge"><title>Node20&#45;&gt;Node9</title>
<path fill="none" stroke="#9a32cd" stroke-dasharray="5,2" d="M784.142,-389.58C814.631,-384.258 853.963,-374.905 886,-359 912.37,-345.909 937.845,-322.015 950.921,-308.67"/>
<polygon fill="#9a32cd" stroke="#9a32cd" points="783.457,-386.146 774.164,-391.235 784.602,-393.052 783.457,-386.146"/>
<text text-anchor="middle" x="851" y="-386" font-family="Arial" font-size="10.00"> renderEntity</text>
</g>
<!-- Node20&#45;&gt;Node20 -->
<g id="edge37" class="edge"><title>Node20&#45;&gt;Node20</title>
<path fill="none" stroke="#9a32cd" stroke-dasharray="5,2" d="M712.52,-415.4C713.954,-420.315 721.114,-424 734,-424 754.617,-424 760.577,-414.565 751.879,-405.757"/>
<polygon fill="#9a32cd" stroke="#9a32cd" points="715.901,-416.35 716.121,-405.757 709.343,-413.9 715.901,-416.35"/>
<text text-anchor="middle" x="734" y="-427" font-family="Arial" font-size="10.00"> callback</text>
</g>
<!-- Node21&#45;&gt;Node20 -->
<g id="edge29" class="edge"><title>Node21&#45;&gt;Node20</title>
<path fill="none" stroke="#9a32cd" stroke-dasharray="5,2" d="M410.35,-518.844C467.928,-537.269 582.498,-563.186 652,-507 674.646,-488.693 653.581,-468.05 670,-444 681.397,-427.306 700.478,-413.957 714.66,-405.616"/>
<polygon fill="#9a32cd" stroke="#9a32cd" points="411.211,-515.442 400.618,-515.626 409.013,-522.088 411.211,-515.442"/>
<text text-anchor="middle" x="488" y="-545" font-family="Arial" font-size="10.00"> customSkin</text>
</g>
<!-- Node22 -->
<g id="node22" class="node"><title>Node22</title>
<g id="a_node22"><a xlink:href="classid_joint_mat.html" target="_top" xlink:title="idJointMat">
<polygon fill="white" stroke="black" points="457.5,-174.5 457.5,-193.5 518.5,-193.5 518.5,-174.5 457.5,-174.5"/>
<text text-anchor="middle" x="488" y="-181.5" font-family="Arial" font-size="10.00">idJointMat</text>
</a>
</g>
</g>
<!-- Node22&#45;&gt;Node20 -->
<g id="edge31" class="edge"><title>Node22&#45;&gt;Node20</title>
<path fill="none" stroke="#9a32cd" stroke-dasharray="5,2" d="M528.756,-176.669C566.021,-172.307 620.57,-172.811 652,-205 678.849,-232.497 645.505,-347.387 670,-377 676.044,-384.306 684.791,-388.872 693.853,-391.707"/>
<polygon fill="#9a32cd" stroke="#9a32cd" points="528.186,-173.214 518.737,-178.006 529.112,-180.152 528.186,-173.214"/>
<text text-anchor="middle" x="609" y="-208" font-family="Arial" font-size="10.00"> joints</text>
</g>
<!-- Node23 -->
<g id="node23" class="node"><title>Node23</title>
<g id="a_node23"><a xlink:href="classid_sound_emitter.html" target="_top" xlink:title="idSoundEmitter">
<polygon fill="white" stroke="black" points="223.5,-87.5 223.5,-106.5 306.5,-106.5 306.5,-87.5 223.5,-87.5"/>
<text text-anchor="middle" x="265" y="-94.5" font-family="Arial" font-size="10.00">idSoundEmitter</text>
</a>
</g>
</g>
<!-- Node23&#45;&gt;Node20 -->
<g id="edge33" class="edge"><title>Node23&#45;&gt;Node20</title>
<path fill="none" stroke="#9a32cd" stroke-dasharray="5,2" d="M317.006,-99.3203C411.528,-104.768 608.283,-121.864 652,-171 682.545,-205.331 641.016,-341.342 670,-377 675.981,-384.358 684.706,-388.942 693.767,-391.777"/>
<polygon fill="#9a32cd" stroke="#9a32cd" points="316.999,-95.8146 306.82,-98.7557 316.611,-102.804 316.999,-95.8146"/>
<text text-anchor="middle" x="488" y="-130" font-family="Arial" font-size="10.00"> referenceSound</text>
</g>
<!-- Node23&#45;&gt;Node28 -->
<g id="edge45" class="edge"><title>Node23&#45;&gt;Node28</title>
<path fill="none" stroke="#9a32cd" stroke-dasharray="5,2" d="M316.889,-85.9666C323.966,-84.5585 331.155,-83.1941 338,-82 378.79,-74.8844 426.188,-68.5299 456.374,-64.7217"/>
<polygon fill="#9a32cd" stroke="#9a32cd" points="315.756,-82.6251 306.654,-88.0464 317.15,-89.485 315.756,-82.6251"/>
<text text-anchor="middle" x="374" y="-85" font-family="Arial" font-size="10.00"> referenceSound</text>
</g>
<!-- Node24 -->
<g id="node24" class="node"><title>Node24</title>
<g id="a_node24"><a xlink:href="classid_render_model.html" target="_top" xlink:title="idRenderModel">
<polygon fill="white" stroke="black" points="447.5,-485.5 447.5,-504.5 528.5,-504.5 528.5,-485.5 447.5,-485.5"/>
<text text-anchor="middle" x="488" y="-492.5" font-family="Arial" font-size="10.00">idRenderModel</text>
</a>
</g>
</g>
<!-- Node24&#45;&gt;Node20 -->
<g id="edge34" class="edge"><title>Node24&#45;&gt;Node20</title>
<path fill="none" stroke="#9a32cd" stroke-dasharray="5,2" d="M538.881,-494.387C572.773,-491.994 617.531,-484.831 652,-465 662.655,-458.87 661.061,-452.439 670,-444 685.598,-429.275 705.58,-414.672 718.811,-405.51"/>
<polygon fill="#9a32cd" stroke="#9a32cd" points="538.512,-490.902 528.735,-494.985 538.924,-497.89 538.512,-490.902"/>
<text text-anchor="middle" x="609" y="-495" font-family="Arial" font-size="10.00"> hModel</text>
</g>
<!-- Node25 -->
<g id="node25" class="node"><title>Node25</title>
<g id="a_node25"><a xlink:href="classid_bounds.html" target="_top" xlink:title="idBounds">
<polygon fill="white" stroke="black" points="459.5,-447.5 459.5,-466.5 516.5,-466.5 516.5,-447.5 459.5,-447.5"/>
<text text-anchor="middle" x="488" y="-454.5" font-family="Arial" font-size="10.00">idBounds</text>
</a>
</g>
</g>
<!-- Node25&#45;&gt;Node20 -->
<g id="edge35" class="edge"><title>Node25&#45;&gt;Node20</title>
<path fill="none" stroke="#9a32cd" stroke-dasharray="5,2" d="M526.844,-454.068C560.283,-450.804 610.105,-444.284 652,-432 674.594,-425.376 699.114,-413.81 715.187,-405.576"/>
<polygon fill="#9a32cd" stroke="#9a32cd" points="526.229,-450.61 516.594,-455.017 526.874,-457.581 526.229,-450.61"/>
<text text-anchor="middle" x="609" y="-453" font-family="Arial" font-size="10.00"> bounds</text>
</g>
<!-- Node26 -->
<g id="node26" class="node"><title>Node26</title>
<g id="a_node26"><a xlink:href="classid_user_interface.html" target="_top" xlink:title="idUserInterface">
<polygon fill="white" stroke="black" points="447.5,-362.5 447.5,-381.5 528.5,-381.5 528.5,-362.5 447.5,-362.5"/>
<text text-anchor="middle" x="488" y="-369.5" font-family="Arial" font-size="10.00">idUserInterface</text>
</a>
</g>
</g>
<!-- Node26&#45;&gt;Node20 -->
<g id="edge39" class="edge"><title>Node26&#45;&gt;Node20</title>
<path fill="none" stroke="#9a32cd" stroke-dasharray="5,2" d="M538.749,-376.893C584.531,-381.396 651.532,-387.987 693.675,-392.132"/>
<polygon fill="#9a32cd" stroke="#9a32cd" points="539.04,-373.405 528.746,-375.909 538.355,-380.372 539.04,-373.405"/>
<text text-anchor="middle" x="609" y="-391" font-family="Arial" font-size="10.00"> gui</text>
</g>
<!-- Node27 -->
<g id="node27" class="node"><title>Node27</title>
<g id="a_node27"><a xlink:href="classid_dict.html" target="_top" xlink:title="idDict">
<polygon fill="white" stroke="black" points="713.5,-272.5 713.5,-291.5 754.5,-291.5 754.5,-272.5 713.5,-272.5"/>
<text text-anchor="middle" x="734" y="-279.5" font-family="Arial" font-size="10.00">idDict</text>
</a>
</g>
</g>
<!-- Node27&#45;&gt;Node9 -->
<g id="edge40" class="edge"><title>Node27&#45;&gt;Node9</title>
<path fill="none" stroke="#9a32cd" stroke-dasharray="5,2" d="M765.009,-280.385C795.556,-279.166 844.226,-278.395 886,-283 902.854,-284.858 921.512,-288.906 935.877,-292.465"/>
<polygon fill="#9a32cd" stroke="#9a32cd" points="764.457,-276.906 754.621,-280.845 764.767,-283.899 764.457,-276.906"/>
<text text-anchor="middle" x="851" y="-286" font-family="Arial" font-size="10.00"> spawnArgs</text>
</g>
<!-- Node28&#45;&gt;Node9 -->
<g id="edge41" class="edge"><title>Node28&#45;&gt;Node9</title>
<path fill="none" stroke="#9a32cd" stroke-dasharray="5,2" d="M529.603,-69.9361C563.682,-78.4725 612.92,-93.2771 652,-115 661.102,-120.059 661.03,-124.71 670,-130 758.725,-182.322 801.732,-154.766 886,-214 916.573,-235.49 942.718,-272.229 954.024,-289.5"/>
<polygon fill="#9a32cd" stroke="#9a32cd" points="530.086,-66.4515 519.541,-67.4874 528.43,-73.2529 530.086,-66.4515"/>
<text text-anchor="middle" x="734" y="-177" font-family="Arial" font-size="10.00"> refSound</text>
</g>
<!-- Node29 -->
<g id="node29" class="node"><title>Node29</title>
<g id="a_node29"><a xlink:href="structsound_shader_parms__t.html" target="_top" xlink:title="soundShaderParms_t">
<polygon fill="white" stroke="black" points="210,-38.5 210,-57.5 320,-57.5 320,-38.5 210,-38.5"/>
<text text-anchor="middle" x="265" y="-45.5" font-family="Arial" font-size="10.00">soundShaderParms_t</text>
</a>
</g>
</g>
<!-- Node29&#45;&gt;Node28 -->
<g id="edge42" class="edge"><title>Node29&#45;&gt;Node28</title>
<path fill="none" stroke="#9a32cd" stroke-dasharray="5,2" d="M330.188,-45.708C355.143,-45.4165 383.944,-45.8159 410,-48 425.401,-49.291 442.355,-52.0101 456.425,-54.6295"/>
<polygon fill="#9a32cd" stroke="#9a32cd" points="330.054,-42.2095 320.11,-45.8649 330.163,-49.2087 330.054,-42.2095"/>
<text text-anchor="middle" x="374" y="-51" font-family="Arial" font-size="10.00"> parms</text>
</g>
<!-- Node30&#45;&gt;Node28 -->
<g id="edge43" class="edge"><title>Node30&#45;&gt;Node28</title>
<path fill="none" stroke="#9a32cd" stroke-dasharray="5,2" d="M316.823,-14.5673C344.651,-17.7761 379.568,-22.9641 410,-31 429.559,-36.1646 450.931,-44.7409 466.186,-51.4039"/>
<polygon fill="#9a32cd" stroke="#9a32cd" points="316.852,-11.0494 306.528,-13.4326 316.085,-18.0073 316.852,-11.0494"/>
<text text-anchor="middle" x="374" y="-34" font-family="Arial" font-size="10.00"> shader</text>
</g>
<!-- Node31 -->
<g id="node31" class="node"><title>Node31</title>
<g id="a_node31"><a xlink:href="classid_script_object.html" target="_top" xlink:title="idScriptObject">
<polygon fill="white" stroke="black" points="695,-234.5 695,-253.5 773,-253.5 773,-234.5 695,-234.5"/>
<text text-anchor="middle" x="734" y="-241.5" font-family="Arial" font-size="10.00">idScriptObject</text>
</a>
</g>
</g>
<!-- Node31&#45;&gt;Node9 -->
<g id="edge47" class="edge"><title>Node31&#45;&gt;Node9</title>
<path fill="none" stroke="#9a32cd" stroke-dasharray="5,2" d="M783.398,-247.111C813.402,-249.924 852.481,-255.2 886,-265 906.355,-270.951 928.263,-281.601 942.915,-289.401"/>
<polygon fill="#9a32cd" stroke="#9a32cd" points="783.455,-243.603 773.188,-246.215 782.844,-250.576 783.455,-243.603"/>
<text text-anchor="middle" x="851" y="-268" font-family="Arial" font-size="10.00"> scriptObject</text>
</g>
<!-- Node32 -->
<g id="node32" class="node"><title>Node32</title>
<g id="a_node32"><a xlink:href="classid_list.html" target="_top" xlink:title="idList\&lt; contactInfo_t \&gt;">
<polygon fill="white" stroke="black" points="904.5,-78.5 904.5,-97.5 1017.5,-97.5 1017.5,-78.5 904.5,-78.5"/>
<text text-anchor="middle" x="961" y="-85.5" font-family="Arial" font-size="10.00">idList&lt; contactInfo_t &gt;</text>
</a>
</g>
</g>
<!-- Node32&#45;&gt;Node2 -->
<g id="edge49" class="edge"><title>Node32&#45;&gt;Node2</title>
<path fill="none" stroke="#9a32cd" stroke-dasharray="5,2" d="M1027.72,-92.0625C1044.89,-95.1745 1062.83,-100.382 1078,-109 1104.07,-123.808 1124.46,-154.05 1133.66,-169.482"/>
<polygon fill="#9a32cd" stroke="#9a32cd" points="1028.15,-88.587 1017.72,-90.4624 1027.04,-95.4991 1028.15,-88.587"/>
<text text-anchor="middle" x="1057" y="-112" font-family="Arial" font-size="10.00"> contacts</text>
</g>
</g>
</svg>
        <g id="navigator" transform="translate(0 0)" fill="#404254">
                <rect fill="#f2f5e9" fill-opacity="0.5" stroke="#606060" stroke-width=".5" x="0" y="0" width="60" height="60"/>
                <use id="zoomplus" xlink:href="#zoomPlus" x="17" y="9" onmousedown="handleZoom(evt,'in')"/>
                <use id="zoomminus" xlink:href="#zoomMin" x="42" y="9" onmousedown="handleZoom(evt,'out')"/>
                <use id="reset" xlink:href="#resetDef" x="30" y="36" onmousedown="handleReset()"/>
                <g id="arrowUp" xlink:href="#dirArrow" transform="translate(30 24)" onmousedown="handlePan(0,-1)">
                  <use xlink:href="#rim" fill="#404040">
                        <set attributeName="fill" to="#808080" begin="arrowUp.mouseover" end="arrowUp.mouseout"/>
                  </use>
                  <path fill="none" stroke="white" stroke-width="1.5" d="M0,-3.0v7 M-2.5,-0.5L0,-3.0L2.5,-0.5"/>
                </g>
                <g id="arrowRight" xlink:href="#dirArrow" transform="rotate(90) translate(36 -43)" onmousedown="handlePan(1,0)">
                  <use xlink:href="#rim" fill="#404040">
                        <set attributeName="fill" to="#808080" begin="arrowRight.mouseover" end="arrowRight.mouseout"/>
                  </use>
                  <path fill="none" stroke="white" stroke-width="1.5" d="M0,-3.0v7 M-2.5,-0.5L0,-3.0L2.5,-0.5"/>
                </g>
                <g id="arrowDown" xlink:href="#dirArrow" transform="rotate(180) translate(-30 -48)" onmousedown="handlePan(0,1)">
                  <use xlink:href="#rim" fill="#404040">
                        <set attributeName="fill" to="#808080" begin="arrowDown.mouseover" end="arrowDown.mouseout"/>
                  </use>
                  <path fill="none" stroke="white" stroke-width="1.5" d="M0,-3.0v7 M-2.5,-0.5L0,-3.0L2.5,-0.5"/>
                </g>
                <g id="arrowLeft" xlink:href="#dirArrow" transform="rotate(270) translate(-36 17)" onmousedown="handlePan(-1,0)">
                  <use xlink:href="#rim" fill="#404040">
                        <set attributeName="fill" to="#808080" begin="arrowLeft.mouseover" end="arrowLeft.mouseout"/>
                  </use>
                  <path fill="none" stroke="white" stroke-width="1.5" d="M0,-3.0v7 M-2.5,-0.5L0,-3.0L2.5,-0.5"/>
                </g>
        </g>
        <svg viewBox="0 0 15 15" width="100%" height="30px" preserveAspectRatio="xMaxYMin meet">
         <g id="arrow_out" transform="scale(0.3 0.3)">
          <a xlink:href="classid_physics___rigid_body__coll__graph_org.svg" target="_base">
           <rect id="button" ry="5" rx="5" y="6" x="6" height="38" width="38"
                fill="#f2f5e9" fill-opacity="0.5" stroke="#606060" stroke-width="1.0"/>
           <path id="arrow"
             d="M 11.500037,31.436501 C 11.940474,20.09759 22.043105,11.32322 32.158766,21.979434 L 37.068811,17.246167 C 37.068811,17.246167 37.088388,32 37.088388,32 L 22.160133,31.978069 C 22.160133,31.978069 26.997745,27.140456 26.997745,27.140456 C 18.528582,18.264221 13.291696,25.230495 11.500037,31.436501 z"
             style="fill:#404040;"/>
          </a>
         </g>
        </svg>
</svg>
