<?xml version="1.0" encoding="UTF-8" standalone="no"?>
<!DOCTYPE svg PUBLIC "-//W3C//DTD SVG 1.1//EN"
 "http://www.w3.org/Graphics/SVG/1.1/DTD/svg11.dtd">
<!-- Generated by graphviz version 2.34.0 (20130907.0111)
 -->
<!-- Title: RenameMaterialModifier Pages: 1 -->
<svg width="966pt" height="364pt"
 viewBox="0.00 0.00 966.00 364.00" xmlns="http://www.w3.org/2000/svg" xmlns:xlink="http://www.w3.org/1999/xlink">
<g id="graph0" class="graph" transform="scale(1 1) rotate(0) translate(4 360)">
<title>RenameMaterialModifier</title>
<polygon fill="white" stroke="white" points="-4,4 -4,-360 962,-360 962,4 -4,4"/>
<!-- Node1 -->
<g id="node1" class="node"><title>Node1</title>
<polygon fill="#bfbfbf" stroke="black" points="836.5,-335.5 836.5,-354.5 957.5,-354.5 957.5,-335.5 836.5,-335.5"/>
<text text-anchor="middle" x="897" y="-342.5" font-family="Arial" font-size="10.00">RenameMaterialModifier</text>
</g>
<!-- Node2 -->
<g id="node2" class="node"><title>Node2</title>
<g id="a_node2"><a xlink:href="class_material_modifier.html" target="_top" xlink:title="MaterialModifier">
<polygon fill="white" stroke="black" points="712.5,-312.5 712.5,-331.5 797.5,-331.5 797.5,-312.5 712.5,-312.5"/>
<text text-anchor="middle" x="755" y="-319.5" font-family="Arial" font-size="10.00">MaterialModifier</text>
</a>
</g>
</g>
<!-- Node2&#45;&gt;Node1 -->
<g id="edge1" class="edge"><title>Node2&#45;&gt;Node1</title>
<path fill="none" stroke="midnightblue" d="M807.674,-330.489C817.532,-332.109 827.912,-333.814 837.954,-335.464"/>
<polygon fill="midnightblue" stroke="midnightblue" points="808.061,-327.006 797.626,-328.838 806.926,-333.913 808.061,-327.006"/>
</g>
<!-- Node3 -->
<g id="node3" class="node"><title>Node3</title>
<g id="a_node3"><a xlink:href="classid_str.html" target="_top" xlink:title="idStr">
<polygon fill="white" stroke="black" points="262.5,-294.5 262.5,-313.5 299.5,-313.5 299.5,-294.5 262.5,-294.5"/>
<text text-anchor="middle" x="281" y="-301.5" font-family="Arial" font-size="10.00">idStr</text>
</a>
</g>
</g>
<!-- Node3&#45;&gt;Node1 -->
<g id="edge20" class="edge"><title>Node3&#45;&gt;Node1</title>
<path fill="none" stroke="#9a32cd" stroke-dasharray="5,2" d="M309.992,-310.991C327.664,-315.134 351.037,-320.123 372,-323 539.108,-345.934 738.756,-347.197 836.345,-346.143"/>
<polygon fill="#9a32cd" stroke="#9a32cd" points="310.338,-307.474 299.797,-308.546 308.706,-314.281 310.338,-307.474"/>
<text text-anchor="middle" x="649" y="-348" font-family="Arial" font-size="10.00"> oldName</text>
</g>
<!-- Node3&#45;&gt;Node2 -->
<g id="edge2" class="edge"><title>Node3&#45;&gt;Node2</title>
<path fill="none" stroke="#9a32cd" stroke-dasharray="5,2" d="M309.846,-305.062C389.384,-308.095 617.919,-316.81 712.377,-320.413"/>
<polygon fill="#9a32cd" stroke="#9a32cd" points="309.768,-301.556 299.642,-304.673 309.501,-308.551 309.768,-301.556"/>
<text text-anchor="middle" x="533" y="-318" font-family="Arial" font-size="10.00"> materialName</text>
</g>
<!-- Node4 -->
<g id="node4" class="node"><title>Node4</title>
<g id="a_node4"><a xlink:href="class_material_doc_manager.html" target="_top" xlink:title="MaterialDocManager">
<polygon fill="white" stroke="black" points="480,-171.5 480,-190.5 586,-190.5 586,-171.5 480,-171.5"/>
<text text-anchor="middle" x="533" y="-178.5" font-family="Arial" font-size="10.00">MaterialDocManager</text>
</a>
</g>
</g>
<!-- Node3&#45;&gt;Node4 -->
<g id="edge4" class="edge"><title>Node3&#45;&gt;Node4</title>
<path fill="none" stroke="#9a32cd" stroke-dasharray="5,2" d="M304.292,-288.656C322.044,-276.929 347.838,-260.966 372,-250 410.268,-232.631 423.549,-237.961 462,-221 481.978,-212.188 503.601,-199.262 517.446,-190.508"/>
<polygon fill="#9a32cd" stroke="#9a32cd" points="302.151,-285.877 295.793,-294.353 306.048,-291.692 302.151,-285.877"/>
<text text-anchor="middle" x="417" y="-264" font-family="Arial" font-size="10.00"> copyMaterial</text>
<text text-anchor="middle" x="417" y="-253" font-family="Arial" font-size="10.00">copyStageMaterial</text>
</g>
<!-- Node8 -->
<g id="node8" class="node"><title>Node8</title>
<g id="a_node8"><a xlink:href="class_material_doc.html" target="_top" xlink:title="MaterialDoc">
<polygon fill="white" stroke="black" points="721,-120.5 721,-139.5 789,-139.5 789,-120.5 721,-120.5"/>
<text text-anchor="middle" x="755" y="-127.5" font-family="Arial" font-size="10.00">MaterialDoc</text>
</a>
</g>
</g>
<!-- Node3&#45;&gt;Node8 -->
<g id="edge9" class="edge"><title>Node3&#45;&gt;Node8</title>
<path fill="none" stroke="#9a32cd" stroke-dasharray="5,2" d="M309.668,-301.849C379.336,-295.329 565.584,-270.971 694,-190 715.932,-176.171 736.067,-152.998 746.509,-139.865"/>
<polygon fill="#9a32cd" stroke="#9a32cd" points="309.167,-298.38 299.514,-302.748 309.784,-305.352 309.167,-298.38"/>
<text text-anchor="middle" x="533" y="-275" font-family="Arial" font-size="10.00"> name</text>
</g>
<!-- Node4&#45;&gt;Node2 -->
<g id="edge3" class="edge"><title>Node4&#45;&gt;Node2</title>
<path fill="none" stroke="#9a32cd" stroke-dasharray="5,2" d="M557.738,-196.214C603.246,-225.38 701.572,-288.398 739.064,-312.427"/>
<polygon fill="#9a32cd" stroke="#9a32cd" points="559.429,-193.141 549.121,-190.692 555.652,-199.034 559.429,-193.141"/>
<text text-anchor="middle" x="649" y="-283" font-family="Arial" font-size="10.00"> manager</text>
</g>
<!-- Node4&#45;&gt;Node8 -->
<g id="edge13" class="edge"><title>Node4&#45;&gt;Node8</title>
<path fill="none" stroke="#9a32cd" stroke-dasharray="5,2" d="M596.371,-176.992C626.364,-173.917 662.547,-168.504 694,-159 709.505,-154.315 725.996,-146.081 737.757,-139.581"/>
<polygon fill="#9a32cd" stroke="#9a32cd" points="595.658,-173.545 586.039,-177.986 596.328,-180.513 595.658,-173.545"/>
<text text-anchor="middle" x="649" y="-178" font-family="Arial" font-size="10.00"> manager</text>
</g>
<!-- Node5 -->
<g id="node5" class="node"><title>Node5</title>
<g id="a_node5"><a xlink:href="classid_list.html" target="_top" xlink:title="idList\&lt; MaterialModifier * \&gt;">
<polygon fill="white" stroke="black" points="214.5,-95.5 214.5,-114.5 347.5,-114.5 347.5,-95.5 214.5,-95.5"/>
<text text-anchor="middle" x="281" y="-102.5" font-family="Arial" font-size="10.00">idList&lt; MaterialModifier * &gt;</text>
</a>
</g>
</g>
<!-- Node5&#45;&gt;Node4 -->
<g id="edge5" class="edge"><title>Node5&#45;&gt;Node4</title>
<path fill="none" stroke="#9a32cd" stroke-dasharray="5,2" d="M357.891,-105.352C390.901,-107.74 429.401,-113.625 462,-127 486.992,-137.254 510.706,-158.932 523.086,-171.48"/>
<polygon fill="#9a32cd" stroke="#9a32cd" points="358.036,-101.854 347.836,-104.719 357.596,-108.841 358.036,-101.854"/>
<text text-anchor="middle" x="417" y="-141" font-family="Arial" font-size="10.00"> undoModifiers</text>
<text text-anchor="middle" x="417" y="-130" font-family="Arial" font-size="10.00">redoModifiers</text>
</g>
<!-- Node6 -->
<g id="node6" class="node"><title>Node6</title>
<g id="a_node6"><a xlink:href="struct_m_e_stage__t.html" target="_top" xlink:title="MEStage_t">
<polygon fill="white" stroke="black" points="248.5,-209.5 248.5,-228.5 313.5,-228.5 313.5,-209.5 248.5,-209.5"/>
<text text-anchor="middle" x="281" y="-216.5" font-family="Arial" font-size="10.00">MEStage_t</text>
</a>
</g>
</g>
<!-- Node6&#45;&gt;Node4 -->
<g id="edge6" class="edge"><title>Node6&#45;&gt;Node4</title>
<path fill="none" stroke="#9a32cd" stroke-dasharray="5,2" d="M323.844,-213.274C360.355,-208.201 414.738,-200.463 462,-193 467.724,-192.096 473.706,-191.12 479.658,-190.128"/>
<polygon fill="#9a32cd" stroke="#9a32cd" points="323.004,-209.857 313.578,-214.695 323.964,-216.79 323.004,-209.857"/>
<text text-anchor="middle" x="417" y="-209" font-family="Arial" font-size="10.00"> copyStage</text>
</g>
<!-- Node7 -->
<g id="node7" class="node"><title>Node7</title>
<g id="a_node7"><a xlink:href="classid_dict.html" target="_top" xlink:title="idDict">
<polygon fill="white" stroke="black" points="36.5,-38.5 36.5,-57.5 77.5,-57.5 77.5,-38.5 36.5,-38.5"/>
<text text-anchor="middle" x="57" y="-45.5" font-family="Arial" font-size="10.00">idDict</text>
</a>
</g>
</g>
<!-- Node7&#45;&gt;Node6 -->
<g id="edge7" class="edge"><title>Node7&#45;&gt;Node6</title>
<path fill="none" stroke="#9a32cd" stroke-dasharray="5,2" d="M87.568,-54.0928C96.6706,-56.9588 106.309,-61.0933 114,-67 125.438,-75.7848 123.797,-82.1378 132,-94 164.971,-141.679 160.267,-167.106 208,-200 219.816,-208.143 234.922,-212.796 248.243,-215.455"/>
<polygon fill="#9a32cd" stroke="#9a32cd" points="88.2212,-50.6427 77.6513,-51.3692 86.3672,-57.3927 88.2212,-50.6427"/>
<text text-anchor="middle" x="161" y="-187" font-family="Arial" font-size="10.00"> stageData</text>
</g>
<!-- Node9 -->
<g id="node9" class="node"><title>Node9</title>
<g id="a_node9"><a xlink:href="struct_m_e_material__t.html" target="_top" xlink:title="MEMaterial_t">
<polygon fill="white" stroke="black" points="244,-19.5 244,-38.5 318,-38.5 318,-19.5 244,-19.5"/>
<text text-anchor="middle" x="281" y="-26.5" font-family="Arial" font-size="10.00">MEMaterial_t</text>
</a>
</g>
</g>
<!-- Node7&#45;&gt;Node9 -->
<g id="edge12" class="edge"><title>Node7&#45;&gt;Node9</title>
<path fill="none" stroke="#9a32cd" stroke-dasharray="5,2" d="M87.7127,-45.457C128.051,-42.0047 200.091,-35.8391 243.619,-32.1137"/>
<polygon fill="#9a32cd" stroke="#9a32cd" points="87.3661,-41.9738 77.701,-46.3139 87.9631,-48.9483 87.3661,-41.9738"/>
<text text-anchor="middle" x="161" y="-45" font-family="Arial" font-size="10.00"> materialData</text>
</g>
<!-- Node8&#45;&gt;Node4 -->
<g id="edge8" class="edge"><title>Node8&#45;&gt;Node4</title>
<path fill="none" stroke="#9a32cd" stroke-dasharray="5,2" d="M710.665,-131.525C680.308,-133.478 639.063,-137.918 604,-148 584.761,-153.532 564.204,-163.803 550.381,-171.423"/>
<polygon fill="#9a32cd" stroke="#9a32cd" points="711.139,-135.004 720.921,-130.933 710.736,-128.016 711.139,-135.004"/>
<text text-anchor="middle" x="649" y="-151" font-family="Arial" font-size="10.00"> currentMaterial</text>
</g>
<!-- Node9&#45;&gt;Node8 -->
<g id="edge10" class="edge"><title>Node9&#45;&gt;Node8</title>
<path fill="none" stroke="#9a32cd" stroke-dasharray="5,2" d="M328.485,-22.4272C408.784,-13.4339 576.175,-5.25716 694,-72 716.187,-84.5677 736.226,-107.269 746.584,-120.23"/>
<polygon fill="#9a32cd" stroke="#9a32cd" points="327.731,-18.9917 318.208,-23.6367 328.549,-25.9437 327.731,-18.9917"/>
<text text-anchor="middle" x="533" y="-35" font-family="Arial" font-size="10.00"> editMaterial</text>
</g>
<!-- Node10 -->
<g id="node10" class="node"><title>Node10</title>
<g id="a_node10"><a xlink:href="classid_list.html" target="_top" xlink:title="idList\&lt; MEStage_t * \&gt;">
<polygon fill="white" stroke="black" points="0.5,-0.5 0.5,-19.5 113.5,-19.5 113.5,-0.5 0.5,-0.5"/>
<text text-anchor="middle" x="57" y="-7.5" font-family="Arial" font-size="10.00">idList&lt; MEStage_t * &gt;</text>
</a>
</g>
</g>
<!-- Node10&#45;&gt;Node9 -->
<g id="edge11" class="edge"><title>Node10&#45;&gt;Node9</title>
<path fill="none" stroke="#9a32cd" stroke-dasharray="5,2" d="M123.852,-9.51533C145.016,-9.88903 168.536,-10.8609 190,-13 207.845,-14.7784 227.471,-18.1042 243.83,-21.2649"/>
<polygon fill="#9a32cd" stroke="#9a32cd" points="123.717,-6.01328 113.67,-9.37744 123.622,-13.0126 123.717,-6.01328"/>
<text text-anchor="middle" x="161" y="-16" font-family="Arial" font-size="10.00"> stages</text>
</g>
<!-- Node11 -->
<g id="node11" class="node"><title>Node11</title>
<g id="a_node11"><a xlink:href="class_source_modify_owner.html" target="_top" xlink:title="SourceModifyOwner">
<polygon fill="white" stroke="black" points="481,-103.5 481,-122.5 585,-122.5 585,-103.5 481,-103.5"/>
<text text-anchor="middle" x="533" y="-110.5" font-family="Arial" font-size="10.00">SourceModifyOwner</text>
</a>
</g>
</g>
<!-- Node11&#45;&gt;Node8 -->
<g id="edge14" class="edge"><title>Node11&#45;&gt;Node8</title>
<path fill="none" stroke="#9a32cd" stroke-dasharray="5,2" d="M595.316,-109.751C625.209,-109.09 661.615,-109.653 694,-114 703.937,-115.334 714.572,-117.81 724.088,-120.423"/>
<polygon fill="#9a32cd" stroke="#9a32cd" points="594.932,-106.26 585.031,-110.032 595.123,-113.257 594.932,-106.26"/>
<text text-anchor="middle" x="649" y="-117" font-family="Arial" font-size="10.00"> sourceModifyOwner</text>
</g>
<!-- Node12 -->
<g id="node12" class="node"><title>Node12</title>
<g id="a_node12"><a xlink:href="classid_material.html" target="_top" xlink:title="idMaterial">
<polygon fill="white" stroke="black" points="503.5,-63.5 503.5,-82.5 562.5,-82.5 562.5,-63.5 503.5,-63.5"/>
<text text-anchor="middle" x="533" y="-70.5" font-family="Arial" font-size="10.00">idMaterial</text>
</a>
</g>
</g>
<!-- Node12&#45;&gt;Node8 -->
<g id="edge15" class="edge"><title>Node12&#45;&gt;Node8</title>
<path fill="none" stroke="#9a32cd" stroke-dasharray="5,2" d="M572.712,-73.6816C605.763,-75.2892 654.136,-80.1017 694,-94 711.665,-100.159 729.789,-111.935 741.428,-120.342"/>
<polygon fill="#9a32cd" stroke="#9a32cd" points="572.685,-70.1776 562.55,-73.2648 572.398,-77.1718 572.685,-70.1776"/>
<text text-anchor="middle" x="649" y="-97" font-family="Arial" font-size="10.00"> renderMaterial</text>
</g>
<!-- Node13 -->
<g id="node13" class="node"><title>Node13</title>
<g id="a_node13"><a xlink:href="classid_decl.html" target="_top" xlink:title="idDecl">
<polygon fill="white" stroke="black" points="259,-57.5 259,-76.5 303,-76.5 303,-57.5 259,-57.5"/>
<text text-anchor="middle" x="281" y="-64.5" font-family="Arial" font-size="10.00">idDecl</text>
</a>
</g>
</g>
<!-- Node13&#45;&gt;Node12 -->
<g id="edge16" class="edge"><title>Node13&#45;&gt;Node12</title>
<path fill="none" stroke="midnightblue" d="M313.313,-67.7515C362.186,-68.9245 455.891,-71.1734 503.185,-72.3084"/>
<polygon fill="midnightblue" stroke="midnightblue" points="313.396,-64.2526 303.315,-67.5116 313.228,-71.2506 313.396,-64.2526"/>
</g>
<!-- Node14 -->
<g id="node14" class="node"><title>Node14</title>
<g id="a_node14"><a xlink:href="classid_decl_base.html" target="_top" xlink:title="idDeclBase">
<polygon fill="white" stroke="black" points="24,-76.5 24,-95.5 90,-95.5 90,-76.5 24,-76.5"/>
<text text-anchor="middle" x="57" y="-83.5" font-family="Arial" font-size="10.00">idDeclBase</text>
</a>
</g>
</g>
<!-- Node14&#45;&gt;Node13 -->
<g id="edge17" class="edge"><title>Node14&#45;&gt;Node13</title>
<path fill="none" stroke="#9a32cd" stroke-dasharray="5,2" d="M100.52,-82.3609C147.836,-78.3113 222.398,-71.9299 258.71,-68.8221"/>
<polygon fill="#9a32cd" stroke="#9a32cd" points="99.9458,-78.8972 90.2807,-83.2372 100.543,-85.8717 99.9458,-78.8972"/>
<text text-anchor="middle" x="161" y="-82" font-family="Arial" font-size="10.00"> base</text>
</g>
<!-- Node15 -->
<g id="node15" class="node"><title>Node15</title>
<g id="a_node15"><a xlink:href="classid_hash_table.html" target="_top" xlink:title="idHashTable\&lt; MaterialDoc * \&gt;">
<polygon fill="white" stroke="black" points="208,-171.5 208,-190.5 354,-190.5 354,-171.5 208,-171.5"/>
<text text-anchor="middle" x="281" y="-178.5" font-family="Arial" font-size="10.00">idHashTable&lt; MaterialDoc * &gt;</text>
</a>
</g>
</g>
<!-- Node15&#45;&gt;Node4 -->
<g id="edge18" class="edge"><title>Node15&#45;&gt;Node4</title>
<path fill="none" stroke="#9a32cd" stroke-dasharray="5,2" d="M364.343,-181C402.345,-181 446.323,-181 479.701,-181"/>
<polygon fill="#9a32cd" stroke="#9a32cd" points="364.31,-177.5 354.31,-181 364.31,-184.5 364.31,-177.5"/>
<text text-anchor="middle" x="417" y="-184" font-family="Arial" font-size="10.00"> inProgressMaterials</text>
</g>
<!-- Node16 -->
<g id="node16" class="node"><title>Node16</title>
<g id="a_node16"><a xlink:href="classid_list.html" target="_top" xlink:title="idList\&lt; MaterialView * \&gt;">
<polygon fill="white" stroke="black" points="221,-133.5 221,-152.5 341,-152.5 341,-133.5 221,-133.5"/>
<text text-anchor="middle" x="281" y="-140.5" font-family="Arial" font-size="10.00">idList&lt; MaterialView * &gt;</text>
</a>
</g>
</g>
<!-- Node16&#45;&gt;Node4 -->
<g id="edge19" class="edge"><title>Node16&#45;&gt;Node4</title>
<path fill="none" stroke="#9a32cd" stroke-dasharray="5,2" d="M351.518,-150.502C385.011,-154.468 425.695,-159.802 462,-166 471.189,-167.569 481.001,-169.506 490.284,-171.461"/>
<polygon fill="#9a32cd" stroke="#9a32cd" points="351.706,-147 341.367,-149.316 350.893,-153.953 351.706,-147"/>
<text text-anchor="middle" x="417" y="-169" font-family="Arial" font-size="10.00"> materialViews</text>
</g>
</g>
</svg>
