<?xml version="1.0" encoding="UTF-8" standalone="no"?>
<!DOCTYPE svg PUBLIC "-//W3C//DTD SVG 1.1//EN"
 "http://www.w3.org/Graphics/SVG/1.1/DTD/svg11.dtd">
<!-- Generated by graphviz version 2.34.0 (20130907.0111)
 -->
<!-- Title: idAFConstraint Pages: 1 -->
<svg width="1516pt" height="707pt"
 viewBox="0.00 0.00 1516.00 707.00" xmlns="http://www.w3.org/2000/svg" xmlns:xlink="http://www.w3.org/1999/xlink">
<g id="graph0" class="graph" transform="scale(1 1) rotate(0) translate(4 703)">
<title>idAFConstraint</title>
<polygon fill="white" stroke="white" points="-4,4 -4,-703 1512,-703 1512,4 -4,4"/>
<!-- Node1 -->
<g id="node1" class="node"><title>Node1</title>
<polygon fill="#bfbfbf" stroke="black" points="1426.5,-367.5 1426.5,-386.5 1507.5,-386.5 1507.5,-367.5 1426.5,-367.5"/>
<text text-anchor="middle" x="1467" y="-374.5" font-family="Arial" font-size="10.00">idAFConstraint</text>
</g>
<!-- Node1&#45;&gt;Node1 -->
<g id="edge56" class="edge"><title>Node1&#45;&gt;Node1</title>
<path fill="none" stroke="#9a32cd" stroke-dasharray="5,2" d="M1452.64,-396.766C1453.76,-401.497 1458.55,-405 1467,-405 1480.86,-405 1484.87,-395.565 1479.02,-386.757"/>
<polygon fill="#9a32cd" stroke="#9a32cd" points="1456.11,-397.292 1454.98,-386.757 1449.29,-395.697 1456.11,-397.292"/>
<text text-anchor="middle" x="1467" y="-408" font-family="Arial" font-size="10.00"> boxConstraint</text>
</g>
<!-- Node2 -->
<g id="node2" class="node"><title>Node2</title>
<g id="a_node2"><a xlink:href="classid_str.html" target="_top" xlink:title="idStr">
<polygon fill="white" stroke="black" points="715.5,-499.5 715.5,-518.5 752.5,-518.5 752.5,-499.5 715.5,-499.5"/>
<text text-anchor="middle" x="734" y="-506.5" font-family="Arial" font-size="10.00">idStr</text>
</a>
</g>
</g>
<!-- Node2&#45;&gt;Node1 -->
<g id="edge1" class="edge"><title>Node2&#45;&gt;Node1</title>
<path fill="none" stroke="#9a32cd" stroke-dasharray="5,2" d="M762.911,-511.243C805.418,-514.46 888.945,-520 960,-520 960,-520 960,-520 1288,-520 1373.23,-520 1440.85,-419.137 1460.32,-386.829"/>
<polygon fill="#9a32cd" stroke="#9a32cd" points="763.018,-507.741 752.778,-510.461 762.479,-514.72 763.018,-507.741"/>
<text text-anchor="middle" x="1140" y="-523" font-family="Arial" font-size="10.00"> name</text>
</g>
<!-- Node13 -->
<g id="node13" class="node"><title>Node13</title>
<g id="a_node13"><a xlink:href="classid_entity.html" target="_top" xlink:title="idEntity">
<polygon fill="white" stroke="black" points="936,-348.5 936,-367.5 986,-367.5 986,-348.5 936,-348.5"/>
<text text-anchor="middle" x="961" y="-355.5" font-family="Arial" font-size="10.00">idEntity</text>
</a>
</g>
</g>
<!-- Node2&#45;&gt;Node13 -->
<g id="edge21" class="edge"><title>Node2&#45;&gt;Node13</title>
<path fill="none" stroke="#9a32cd" stroke-dasharray="5,2" d="M762.399,-501.824C774.742,-497.352 788.618,-490.413 798,-480 814.653,-461.519 798.322,-444.503 816,-427 839.271,-403.959 856.327,-417.854 886,-404 908.342,-393.569 932.233,-377.772 946.643,-367.672"/>
<polygon fill="#9a32cd" stroke="#9a32cd" points="760.959,-498.611 752.524,-505.022 763.115,-505.27 760.959,-498.611"/>
<text text-anchor="middle" x="851" y="-430" font-family="Arial" font-size="10.00"> name</text>
</g>
<!-- Node3 -->
<g id="node3" class="node"><title>Node3</title>
<g id="a_node3"><a xlink:href="structid_a_f_constraint_1_1constraint_flags__s.html" target="_top" xlink:title="idAFConstraint::constraint\lFlags_s">
<polygon fill="white" stroke="black" points="1222,-393 1222,-423 1352,-423 1352,-393 1222,-393"/>
<text text-anchor="start" x="1230" y="-411" font-family="Arial" font-size="10.00">idAFConstraint::constraint</text>
<text text-anchor="middle" x="1287" y="-400" font-family="Arial" font-size="10.00">Flags_s</text>
</a>
</g>
</g>
<!-- Node3&#45;&gt;Node1 -->
<g id="edge2" class="edge"><title>Node3&#45;&gt;Node1</title>
<path fill="none" stroke="#9a32cd" stroke-dasharray="5,2" d="M1362.55,-396.754C1377.62,-394.324 1393.33,-391.677 1408,-389 1413.97,-387.911 1420.27,-386.686 1426.42,-385.447"/>
<polygon fill="#9a32cd" stroke="#9a32cd" points="1361.56,-393.367 1352.24,-398.399 1362.67,-400.279 1361.56,-393.367"/>
<text text-anchor="middle" x="1389" y="-399" font-family="Arial" font-size="10.00"> fl</text>
</g>
<!-- Node4 -->
<g id="node4" class="node"><title>Node4</title>
<g id="a_node4"><a xlink:href="classid_mat_x.html" target="_top" xlink:title="idMatX">
<polygon fill="white" stroke="black" points="1264,-334.5 1264,-353.5 1310,-353.5 1310,-334.5 1264,-334.5"/>
<text text-anchor="middle" x="1287" y="-341.5" font-family="Arial" font-size="10.00">idMatX</text>
</a>
</g>
</g>
<!-- Node4&#45;&gt;Node1 -->
<g id="edge3" class="edge"><title>Node4&#45;&gt;Node1</title>
<path fill="none" stroke="#9a32cd" stroke-dasharray="5,2" d="M1320.37,-338.036C1344.91,-334.742 1379.19,-332.787 1408,-341 1426.01,-346.134 1443.88,-358.644 1454.93,-367.469"/>
<polygon fill="#9a32cd" stroke="#9a32cd" points="1319.55,-334.621 1310.17,-339.558 1320.58,-341.544 1319.55,-334.621"/>
<text text-anchor="middle" x="1389" y="-377" font-family="Arial" font-size="10.00"> J</text>
<text text-anchor="middle" x="1389" y="-366" font-family="Arial" font-size="10.00">J1</text>
<text text-anchor="middle" x="1389" y="-355" font-family="Arial" font-size="10.00">J2</text>
<text text-anchor="middle" x="1389" y="-344" font-family="Arial" font-size="10.00">invI</text>
</g>
<!-- Node5 -->
<g id="node5" class="node"><title>Node5</title>
<g id="a_node5"><a xlink:href="classid_physics___a_f.html" target="_top" xlink:title="idPhysics_AF">
<polygon fill="white" stroke="black" points="1248.5,-442.5 1248.5,-461.5 1325.5,-461.5 1325.5,-442.5 1248.5,-442.5"/>
<text text-anchor="middle" x="1287" y="-449.5" font-family="Arial" font-size="10.00">idPhysics_AF</text>
</a>
</g>
</g>
<!-- Node5&#45;&gt;Node1 -->
<g id="edge4" class="edge"><title>Node5&#45;&gt;Node1</title>
<path fill="none" stroke="#9a32cd" stroke-dasharray="5,2" d="M1332.56,-439.468C1355.59,-432.325 1383.85,-422.504 1408,-411 1423.17,-403.773 1439.63,-393.918 1451.12,-386.679"/>
<polygon fill="#9a32cd" stroke="#9a32cd" points="1331.26,-436.204 1322.71,-442.46 1333.29,-442.902 1331.26,-436.204"/>
<text text-anchor="middle" x="1389" y="-429" font-family="Arial" font-size="10.00"> physics</text>
</g>
<!-- Node6 -->
<g id="node6" class="node"><title>Node6</title>
<g id="a_node6"><a xlink:href="classid_physics___base.html" target="_top" xlink:title="idPhysics_Base">
<polygon fill="white" stroke="black" points="1096.5,-442.5 1096.5,-461.5 1183.5,-461.5 1183.5,-442.5 1096.5,-442.5"/>
<text text-anchor="middle" x="1140" y="-449.5" font-family="Arial" font-size="10.00">idPhysics_Base</text>
</a>
</g>
</g>
<!-- Node6&#45;&gt;Node5 -->
<g id="edge5" class="edge"><title>Node6&#45;&gt;Node5</title>
<path fill="none" stroke="midnightblue" d="M1193.77,-445.477C1211.74,-445.054 1231.45,-445.222 1248.02,-445.982"/>
<polygon fill="midnightblue" stroke="midnightblue" points="1193.61,-441.98 1183.72,-445.784 1193.82,-448.977 1193.61,-441.98"/>
</g>
<!-- Node6&#45;&gt;Node5 -->
<g id="edge55" class="edge"><title>Node6&#45;&gt;Node5</title>
<path fill="none" stroke="midnightblue" d="M1193.77,-458.523C1211.74,-458.946 1231.45,-458.778 1248.02,-458.018"/>
<polygon fill="midnightblue" stroke="midnightblue" points="1193.82,-455.023 1183.72,-458.216 1193.61,-462.02 1193.82,-455.023"/>
</g>
<!-- Node7 -->
<g id="node7" class="node"><title>Node7</title>
<g id="a_node7"><a xlink:href="classid_physics.html" target="_top" xlink:title="idPhysics">
<polygon fill="white" stroke="black" points="931.5,-548.5 931.5,-567.5 990.5,-567.5 990.5,-548.5 931.5,-548.5"/>
<text text-anchor="middle" x="961" y="-555.5" font-family="Arial" font-size="10.00">idPhysics</text>
</a>
</g>
</g>
<!-- Node7&#45;&gt;Node6 -->
<g id="edge6" class="edge"><title>Node7&#45;&gt;Node6</title>
<path fill="none" stroke="midnightblue" d="M980.809,-542.378C1013.14,-519.981 1079.23,-480.256 1114.89,-461.63"/>
<polygon fill="midnightblue" stroke="midnightblue" points="978.386,-539.808 972.281,-548.467 982.453,-545.504 978.386,-539.808"/>
</g>
<!-- Node7&#45;&gt;Node6 -->
<g id="edge16" class="edge"><title>Node7&#45;&gt;Node6</title>
<path fill="none" stroke="midnightblue" d="M994.887,-543.693C1035.67,-521.603 1102.94,-480.649 1128.61,-461.613"/>
<polygon fill="midnightblue" stroke="midnightblue" points="993.054,-540.704 985.871,-548.493 996.343,-546.883 993.054,-540.704"/>
</g>
<!-- Node8 -->
<g id="node8" class="node"><title>Node8</title>
<g id="a_node8"><a xlink:href="classid_class.html" target="_top" xlink:title="idClass">
<polygon fill="white" stroke="black" points="709.5,-546.5 709.5,-565.5 758.5,-565.5 758.5,-546.5 709.5,-546.5"/>
<text text-anchor="middle" x="734" y="-553.5" font-family="Arial" font-size="10.00">idClass</text>
</a>
</g>
</g>
<!-- Node8&#45;&gt;Node7 -->
<g id="edge7" class="edge"><title>Node8&#45;&gt;Node7</title>
<path fill="none" stroke="midnightblue" d="M768.905,-551.307C813.18,-549.259 889.912,-550.046 931.397,-553.066"/>
<polygon fill="midnightblue" stroke="midnightblue" points="768.446,-547.827 758.654,-551.871 768.831,-554.816 768.446,-547.827"/>
</g>
<!-- Node8&#45;&gt;Node7 -->
<g id="edge15" class="edge"><title>Node8&#45;&gt;Node7</title>
<path fill="none" stroke="midnightblue" d="M768.905,-561.296C813.18,-564.131 889.912,-564.708 931.397,-562.426"/>
<polygon fill="midnightblue" stroke="midnightblue" points="768.882,-557.785 758.654,-560.549 768.373,-564.767 768.882,-557.785"/>
</g>
<!-- Node9 -->
<g id="node9" class="node"><title>Node9</title>
<g id="a_node9"><a xlink:href="classid_type_info.html" target="_top" xlink:title="idTypeInfo">
<polygon fill="white" stroke="black" points="931,-639.5 931,-658.5 991,-658.5 991,-639.5 931,-639.5"/>
<text text-anchor="middle" x="961" y="-646.5" font-family="Arial" font-size="10.00">idTypeInfo</text>
</a>
</g>
</g>
<!-- Node8&#45;&gt;Node9 -->
<g id="edge13" class="edge"><title>Node8&#45;&gt;Node9</title>
<path fill="none" stroke="#9a32cd" stroke-dasharray="5,2" d="M754.579,-571.699C770.356,-583.676 793.537,-599.8 816,-610 853.969,-627.241 901.135,-638.222 930.913,-643.997"/>
<polygon fill="#9a32cd" stroke="#9a32cd" points="756.675,-568.896 746.627,-565.536 752.387,-574.428 756.675,-568.896"/>
<text text-anchor="middle" x="851" y="-637" font-family="Arial" font-size="10.00"> CreateInstance</text>
</g>
<!-- Node8&#45;&gt;Node13 -->
<g id="edge18" class="edge"><title>Node8&#45;&gt;Node13</title>
<path fill="none" stroke="midnightblue" d="M754.437,-541.929C767.424,-535.727 784.529,-528.363 798,-519 864.617,-472.695 925.556,-395.655 949.39,-367.871"/>
<polygon fill="midnightblue" stroke="midnightblue" points="752.796,-538.837 745.438,-546.459 755.943,-545.089 752.796,-538.837"/>
</g>
<!-- Node8&#45;&gt;Node13 -->
<g id="edge19" class="edge"><title>Node8&#45;&gt;Node13</title>
<path fill="none" stroke="midnightblue" d="M768.225,-552.602C778.221,-548.698 788.934,-543.302 798,-537 871.312,-486.041 937.748,-397.859 955.42,-367.799"/>
<polygon fill="midnightblue" stroke="midnightblue" points="766.838,-549.379 758.556,-555.986 769.151,-555.986 766.838,-549.379"/>
</g>
<!-- Node9&#45;&gt;Node8 -->
<g id="edge8" class="edge"><title>Node9&#45;&gt;Node8</title>
<path fill="none" stroke="#9a32cd" stroke-dasharray="5,2" d="M940.039,-632.945C925.711,-622.082 905.555,-608.106 886,-599 863.267,-588.414 795.206,-570.831 758.72,-561.779"/>
<polygon fill="#9a32cd" stroke="#9a32cd" points="938.103,-635.873 948.15,-639.235 942.393,-630.341 938.103,-635.873"/>
<text text-anchor="middle" x="851" y="-602" font-family="Arial" font-size="10.00"> Type</text>
</g>
<!-- Node9&#45;&gt;Node9 -->
<g id="edge9" class="edge"><title>Node9&#45;&gt;Node9</title>
<path fill="none" stroke="#9a32cd" stroke-dasharray="5,2" d="M943.223,-668.4C944.41,-673.315 950.336,-677 961,-677 978.063,-677 982.995,-667.565 975.796,-658.757"/>
<polygon fill="#9a32cd" stroke="#9a32cd" points="946.594,-669.345 946.204,-658.757 939.907,-667.278 946.594,-669.345"/>
<text text-anchor="middle" x="961" y="-691" font-family="Arial" font-size="10.00"> next</text>
<text text-anchor="middle" x="961" y="-680" font-family="Arial" font-size="10.00">super</text>
</g>
<!-- Node10 -->
<g id="node10" class="node"><title>Node10</title>
<g id="a_node10"><a xlink:href="classid_hierarchy.html" target="_top" xlink:title="idHierarchy\&lt; idTypeInfo \&gt;">
<polygon fill="white" stroke="black" points="670.5,-646.5 670.5,-665.5 797.5,-665.5 797.5,-646.5 670.5,-646.5"/>
<text text-anchor="middle" x="734" y="-653.5" font-family="Arial" font-size="10.00">idHierarchy&lt; idTypeInfo &gt;</text>
</a>
</g>
</g>
<!-- Node10&#45;&gt;Node9 -->
<g id="edge10" class="edge"><title>Node10&#45;&gt;Node9</title>
<path fill="none" stroke="#9a32cd" stroke-dasharray="5,2" d="M807.831,-653.734C849.644,-652.433 899.84,-650.872 930.832,-649.907"/>
<polygon fill="#9a32cd" stroke="#9a32cd" points="807.561,-650.241 797.675,-654.05 807.779,-657.237 807.561,-650.241"/>
<text text-anchor="middle" x="851" y="-657" font-family="Arial" font-size="10.00"> node</text>
</g>
<!-- Node11 -->
<g id="node11" class="node"><title>Node11</title>
<g id="a_node11"><a xlink:href="structid_event_func.html" target="_top" xlink:title="idEventFunc\&lt; idClass \&gt;">
<polygon fill="white" stroke="black" points="428,-649.5 428,-668.5 548,-668.5 548,-649.5 428,-649.5"/>
<text text-anchor="middle" x="488" y="-656.5" font-family="Arial" font-size="10.00">idEventFunc&lt; idClass &gt;</text>
</a>
</g>
</g>
<!-- Node11&#45;&gt;Node8 -->
<g id="edge14" class="edge"><title>Node11&#45;&gt;Node8</title>
<path fill="none" stroke="#9a32cd" stroke-dasharray="5,2" d="M520.877,-645.544C570.862,-624.444 666.476,-584.082 710.182,-565.632"/>
<polygon fill="#9a32cd" stroke="#9a32cd" points="519.369,-642.381 511.518,-649.495 522.092,-648.83 519.369,-642.381"/>
<text text-anchor="middle" x="609" y="-629" font-family="Arial" font-size="10.00"> eventCallbacks</text>
</g>
<!-- Node11&#45;&gt;Node9 -->
<g id="edge11" class="edge"><title>Node11&#45;&gt;Node9</title>
<path fill="none" stroke="#9a32cd" stroke-dasharray="5,2" d="M558.409,-668.685C638.096,-677.974 772.443,-688.028 886,-669 900.963,-666.493 917.274,-662.253 930.765,-658.32"/>
<polygon fill="#9a32cd" stroke="#9a32cd" points="558.358,-665.154 548.013,-667.441 557.526,-672.104 558.358,-665.154"/>
<text text-anchor="middle" x="734" y="-683" font-family="Arial" font-size="10.00"> eventCallbacks</text>
</g>
<!-- Node12 -->
<g id="node12" class="node"><title>Node12</title>
<g id="a_node12"><a xlink:href="classid_event_def.html" target="_top" xlink:title="idEventDef">
<polygon fill="white" stroke="black" points="234,-649.5 234,-668.5 296,-668.5 296,-649.5 234,-649.5"/>
<text text-anchor="middle" x="265" y="-656.5" font-family="Arial" font-size="10.00">idEventDef</text>
</a>
</g>
</g>
<!-- Node12&#45;&gt;Node11 -->
<g id="edge12" class="edge"><title>Node12&#45;&gt;Node11</title>
<path fill="none" stroke="#9a32cd" stroke-dasharray="5,2" d="M306.282,-659C340.209,-659 389.214,-659 427.636,-659"/>
<polygon fill="#9a32cd" stroke="#9a32cd" points="306.266,-655.5 296.266,-659 306.266,-662.5 306.266,-655.5"/>
<text text-anchor="middle" x="374" y="-662" font-family="Arial" font-size="10.00"> event</text>
</g>
<!-- Node13&#45;&gt;Node6 -->
<g id="edge17" class="edge"><title>Node13&#45;&gt;Node6</title>
<path fill="none" stroke="#9a32cd" stroke-dasharray="5,2" d="M989.043,-372.362C1025.61,-391.783 1089.83,-425.888 1121.01,-442.444"/>
<polygon fill="#9a32cd" stroke="#9a32cd" points="990.419,-369.13 979.946,-367.531 987.136,-375.312 990.419,-369.13"/>
<text text-anchor="middle" x="1057" y="-422" font-family="Arial" font-size="10.00"> self</text>
</g>
<!-- Node13&#45;&gt;Node13 -->
<g id="edge20" class="edge"><title>Node13&#45;&gt;Node13</title>
<path fill="none" stroke="#9a32cd" stroke-dasharray="5,2" d="M943.223,-377.4C944.41,-382.315 950.336,-386 961,-386 978.063,-386 982.995,-376.565 975.796,-367.757"/>
<polygon fill="#9a32cd" stroke="#9a32cd" points="946.594,-378.345 946.204,-367.757 939.907,-376.278 946.594,-378.345"/>
<text text-anchor="middle" x="961" y="-389" font-family="Arial" font-size="10.00"> cameraTarget</text>
</g>
<!-- Node14 -->
<g id="node14" class="node"><title>Node14</title>
<g id="a_node14"><a xlink:href="structid_entity_1_1entity_flags__s.html" target="_top" xlink:title="idEntity::entityFlags_s">
<polygon fill="white" stroke="black" points="677,-271.5 677,-290.5 791,-290.5 791,-271.5 677,-271.5"/>
<text text-anchor="middle" x="734" y="-278.5" font-family="Arial" font-size="10.00">idEntity::entityFlags_s</text>
</a>
</g>
</g>
<!-- Node14&#45;&gt;Node13 -->
<g id="edge22" class="edge"><title>Node14&#45;&gt;Node13</title>
<path fill="none" stroke="#9a32cd" stroke-dasharray="5,2" d="M801.098,-283.065C835.212,-285.34 872.464,-290.094 886,-300 901.406,-311.274 889.809,-326.23 904,-339 912.776,-346.898 924.968,-351.534 935.736,-354.245"/>
<polygon fill="#9a32cd" stroke="#9a32cd" points="801.306,-279.571 791.113,-282.461 800.883,-286.558 801.306,-279.571"/>
<text text-anchor="middle" x="851" y="-303" font-family="Arial" font-size="10.00"> fl</text>
</g>
<!-- Node15 -->
<g id="node15" class="node"><title>Node15</title>
<g id="a_node15"><a xlink:href="structrender_view__s.html" target="_top" xlink:title="renderView_s">
<polygon fill="white" stroke="black" points="450.5,-253.5 450.5,-272.5 525.5,-272.5 525.5,-253.5 450.5,-253.5"/>
<text text-anchor="middle" x="488" y="-260.5" font-family="Arial" font-size="10.00">renderView_s</text>
</a>
</g>
</g>
<!-- Node15&#45;&gt;Node13 -->
<g id="edge23" class="edge"><title>Node15&#45;&gt;Node13</title>
<path fill="none" stroke="#9a32cd" stroke-dasharray="5,2" d="M527.768,-250.874C563.054,-242.318 615.117,-236.152 652,-260 668.371,-270.585 654.752,-287.853 670,-300 690.933,-316.676 870.135,-344.662 935.915,-354.473"/>
<polygon fill="#9a32cd" stroke="#9a32cd" points="526.64,-247.551 517.84,-253.451 528.399,-254.327 526.64,-247.551"/>
<text text-anchor="middle" x="734" y="-335" font-family="Arial" font-size="10.00"> renderView</text>
</g>
<!-- Node23 -->
<g id="node23" class="node"><title>Node23</title>
<g id="a_node23"><a xlink:href="structrender_entity__s.html" target="_top" xlink:title="renderEntity_s">
<polygon fill="white" stroke="black" points="694,-356.5 694,-375.5 774,-375.5 774,-356.5 694,-356.5"/>
<text text-anchor="middle" x="734" y="-363.5" font-family="Arial" font-size="10.00">renderEntity_s</text>
</a>
</g>
</g>
<!-- Node15&#45;&gt;Node23 -->
<g id="edge36" class="edge"><title>Node15&#45;&gt;Node23</title>
<path fill="none" stroke="#9a32cd" stroke-dasharray="5,2" d="M535.821,-261.03C571.496,-261.998 619.809,-268.952 652,-296 668.809,-310.123 654.406,-326.546 670,-342 676.568,-348.509 685.081,-353.286 693.714,-356.78"/>
<polygon fill="#9a32cd" stroke="#9a32cd" points="535.695,-257.528 525.653,-260.904 535.609,-264.528 535.695,-257.528"/>
<text text-anchor="middle" x="609" y="-299" font-family="Arial" font-size="10.00"> remoteRenderView</text>
</g>
<!-- Node16 -->
<g id="node16" class="node"><title>Node16</title>
<g id="a_node16"><a xlink:href="classid_mat3.html" target="_top" xlink:title="idMat3">
<polygon fill="white" stroke="black" points="242,-311.5 242,-330.5 288,-330.5 288,-311.5 242,-311.5"/>
<text text-anchor="middle" x="265" y="-318.5" font-family="Arial" font-size="10.00">idMat3</text>
</a>
</g>
</g>
<!-- Node16&#45;&gt;Node15 -->
<g id="edge24" class="edge"><title>Node16&#45;&gt;Node15</title>
<path fill="none" stroke="#9a32cd" stroke-dasharray="5,2" d="M298.31,-312.52C338.886,-301.872 408.305,-283.653 450.68,-272.532"/>
<polygon fill="#9a32cd" stroke="#9a32cd" points="297.191,-309.196 288.407,-315.119 298.968,-315.966 297.191,-309.196"/>
<text text-anchor="middle" x="374" y="-304" font-family="Arial" font-size="10.00"> viewaxis</text>
</g>
<!-- Node16&#45;&gt;Node23 -->
<g id="edge32" class="edge"><title>Node16&#45;&gt;Node23</title>
<path fill="none" stroke="#9a32cd" stroke-dasharray="5,2" d="M290.455,-335.977C299.861,-341.962 310.593,-349.071 320,-356 328.384,-362.176 328.777,-366.165 338,-371 374.769,-390.275 386.866,-390.393 428,-396 526.692,-409.452 553.864,-406.041 652,-389 669.86,-385.899 689.422,-380.405 704.847,-375.565"/>
<polygon fill="#9a32cd" stroke="#9a32cd" points="292.261,-332.978 281.93,-330.625 288.539,-338.906 292.261,-332.978"/>
<text text-anchor="middle" x="488" y="-408" font-family="Arial" font-size="10.00"> axis</text>
</g>
<!-- Node17 -->
<g id="node17" class="node"><title>Node17</title>
<g id="a_node17"><a xlink:href="classid_vec3.html" target="_top" xlink:title="idVec3">
<polygon fill="white" stroke="black" points="241.5,-187.5 241.5,-206.5 288.5,-206.5 288.5,-187.5 241.5,-187.5"/>
<text text-anchor="middle" x="265" y="-194.5" font-family="Arial" font-size="10.00">idVec3</text>
</a>
</g>
</g>
<!-- Node17&#45;&gt;Node6 -->
<g id="edge54" class="edge"><title>Node17&#45;&gt;Node6</title>
<path fill="none" stroke="#9a32cd" stroke-dasharray="5,2" d="M296.16,-183.425C390.843,-143.008 687.643,-33.2551 886,-149 1018.29,-226.195 1112.43,-399.55 1134.2,-442.322"/>
<polygon fill="#9a32cd" stroke="#9a32cd" points="294.667,-180.257 286.881,-187.442 297.448,-186.681 294.667,-180.257"/>
<text text-anchor="middle" x="734" y="-127" font-family="Arial" font-size="10.00"> gravityNormal</text>
<text text-anchor="middle" x="734" y="-116" font-family="Arial" font-size="10.00">gravityVector</text>
</g>
<!-- Node17&#45;&gt;Node15 -->
<g id="edge25" class="edge"><title>Node17&#45;&gt;Node15</title>
<path fill="none" stroke="#9a32cd" stroke-dasharray="5,2" d="M288.096,-212.298C301.862,-221.124 320.273,-231.69 338,-238 374.943,-251.149 419.552,-257.466 450.275,-260.447"/>
<polygon fill="#9a32cd" stroke="#9a32cd" points="289.647,-209.128 279.373,-206.54 285.79,-214.97 289.647,-209.128"/>
<text text-anchor="middle" x="374" y="-258" font-family="Arial" font-size="10.00"> vieworg</text>
</g>
<!-- Node17&#45;&gt;Node23 -->
<g id="edge40" class="edge"><title>Node17&#45;&gt;Node23</title>
<path fill="none" stroke="#9a32cd" stroke-dasharray="5,2" d="M298.683,-197.467C382.839,-199.394 603.756,-209.281 652,-260 679.214,-288.61 643.348,-317.866 670,-347 676.246,-353.827 684.847,-358.237 693.686,-361.074"/>
<polygon fill="#9a32cd" stroke="#9a32cd" points="298.73,-193.967 288.66,-197.261 298.586,-200.966 298.73,-193.967"/>
<text text-anchor="middle" x="488" y="-223" font-family="Arial" font-size="10.00"> origin</text>
</g>
<!-- Node31 -->
<g id="node31" class="node"><title>Node31</title>
<g id="a_node31"><a xlink:href="structref_sound__t.html" target="_top" xlink:title="refSound_t">
<polygon fill="white" stroke="black" points="456.5,-60.5 456.5,-79.5 519.5,-79.5 519.5,-60.5 456.5,-60.5"/>
<text text-anchor="middle" x="488" y="-67.5" font-family="Arial" font-size="10.00">refSound_t</text>
</a>
</g>
</g>
<!-- Node17&#45;&gt;Node31 -->
<g id="edge50" class="edge"><title>Node17&#45;&gt;Node31</title>
<path fill="none" stroke="#9a32cd" stroke-dasharray="5,2" d="M287.696,-181.179C298.298,-172.729 310.734,-161.677 320,-150 330.628,-136.606 324.831,-126.906 338,-116 340.352,-114.052 413.461,-91.9828 456.379,-79.1348"/>
<polygon fill="#9a32cd" stroke="#9a32cd" points="285.463,-178.481 279.681,-187.359 289.737,-184.024 285.463,-178.481"/>
<text text-anchor="middle" x="374" y="-119" font-family="Arial" font-size="10.00"> origin</text>
</g>
<!-- Node18 -->
<g id="node18" class="node"><title>Node18</title>
<g id="a_node18"><a xlink:href="classid_material.html" target="_top" xlink:title="idMaterial">
<polygon fill="white" stroke="black" points="235.5,-365.5 235.5,-384.5 294.5,-384.5 294.5,-365.5 235.5,-365.5"/>
<text text-anchor="middle" x="265" y="-372.5" font-family="Arial" font-size="10.00">idMaterial</text>
</a>
</g>
</g>
<!-- Node18&#45;&gt;Node15 -->
<g id="edge26" class="edge"><title>Node18&#45;&gt;Node15</title>
<path fill="none" stroke="#9a32cd" stroke-dasharray="5,2" d="M304.31,-366.995C335.821,-358.752 380.017,-343.179 410,-316 422.668,-304.517 414.898,-292.985 428,-282 434.432,-276.607 442.422,-272.737 450.423,-269.962"/>
<polygon fill="#9a32cd" stroke="#9a32cd" points="303.419,-363.61 294.559,-369.419 305.108,-370.403 303.419,-363.61"/>
<text text-anchor="middle" x="374" y="-359" font-family="Arial" font-size="10.00"> globalMaterial</text>
</g>
<!-- Node18&#45;&gt;Node23 -->
<g id="edge42" class="edge"><title>Node18&#45;&gt;Node23</title>
<path fill="none" stroke="#9a32cd" stroke-dasharray="5,2" d="M286.732,-391.081C296.953,-399.212 309.343,-409.375 320,-419 328.396,-426.583 328.792,-430.426 338,-437 374.236,-462.872 384.621,-470.964 428,-481 525.041,-503.451 570.98,-531.937 652,-474 668.853,-461.949 658.592,-448.294 670,-431 684.71,-408.699 707.665,-387.353 721.428,-375.528"/>
<polygon fill="#9a32cd" stroke="#9a32cd" points="288.762,-388.225 278.741,-384.785 284.43,-393.723 288.762,-388.225"/>
<text text-anchor="middle" x="488" y="-522" font-family="Arial" font-size="10.00"> customShader</text>
<text text-anchor="middle" x="488" y="-511" font-family="Arial" font-size="10.00">referenceShader</text>
</g>
<!-- Node19 -->
<g id="node19" class="node"><title>Node19</title>
<g id="a_node19"><a xlink:href="classid_decl.html" target="_top" xlink:title="idDecl">
<polygon fill="white" stroke="black" points="128,-365.5 128,-384.5 172,-384.5 172,-365.5 128,-365.5"/>
<text text-anchor="middle" x="150" y="-372.5" font-family="Arial" font-size="10.00">idDecl</text>
</a>
</g>
</g>
<!-- Node19&#45;&gt;Node18 -->
<g id="edge27" class="edge"><title>Node19&#45;&gt;Node18</title>
<path fill="none" stroke="midnightblue" d="M182.507,-375C199.008,-375 219.073,-375 235.163,-375"/>
<polygon fill="midnightblue" stroke="midnightblue" points="182.254,-371.5 172.254,-375 182.254,-378.5 182.254,-371.5"/>
</g>
<!-- Node24 -->
<g id="node24" class="node"><title>Node24</title>
<g id="a_node24"><a xlink:href="classid_decl_skin.html" target="_top" xlink:title="idDeclSkin">
<polygon fill="white" stroke="black" points="342.5,-540.5 342.5,-559.5 405.5,-559.5 405.5,-540.5 342.5,-540.5"/>
<text text-anchor="middle" x="374" y="-547.5" font-family="Arial" font-size="10.00">idDeclSkin</text>
</a>
</g>
</g>
<!-- Node19&#45;&gt;Node24 -->
<g id="edge34" class="edge"><title>Node19&#45;&gt;Node24</title>
<path fill="none" stroke="midnightblue" d="M171.158,-390.891C216.294,-426.471 324.372,-511.667 360.786,-540.372"/>
<polygon fill="midnightblue" stroke="midnightblue" points="173.272,-388.1 163.252,-384.658 168.939,-393.597 173.272,-388.1"/>
</g>
<!-- Node33 -->
<g id="node33" class="node"><title>Node33</title>
<g id="a_node33"><a xlink:href="classid_sound_shader.html" target="_top" xlink:title="idSoundShader">
<polygon fill="white" stroke="black" points="223.5,-0.5 223.5,-19.5 306.5,-19.5 306.5,-0.5 223.5,-0.5"/>
<text text-anchor="middle" x="265" y="-7.5" font-family="Arial" font-size="10.00">idSoundShader</text>
</a>
</g>
</g>
<!-- Node19&#45;&gt;Node33 -->
<g id="edge48" class="edge"><title>Node19&#45;&gt;Node33</title>
<path fill="none" stroke="midnightblue" d="M151.802,-355.15C154.846,-289.254 167.748,-79.0935 210,-29 213.652,-24.6698 218.355,-21.3259 223.46,-18.7438"/>
<polygon fill="midnightblue" stroke="midnightblue" points="148.294,-355.251 151.356,-365.394 155.287,-355.555 148.294,-355.251"/>
</g>
<!-- Node20 -->
<g id="node20" class="node"><title>Node20</title>
<g id="a_node20"><a xlink:href="classid_decl_base.html" target="_top" xlink:title="idDeclBase">
<polygon fill="white" stroke="black" points="0,-365.5 0,-384.5 66,-384.5 66,-365.5 0,-365.5"/>
<text text-anchor="middle" x="33" y="-372.5" font-family="Arial" font-size="10.00">idDeclBase</text>
</a>
</g>
</g>
<!-- Node20&#45;&gt;Node19 -->
<g id="edge28" class="edge"><title>Node20&#45;&gt;Node19</title>
<path fill="none" stroke="#9a32cd" stroke-dasharray="5,2" d="M76.0643,-375C93.5984,-375 113.201,-375 127.664,-375"/>
<polygon fill="#9a32cd" stroke="#9a32cd" points="76.0339,-371.5 66.0339,-375 76.0339,-378.5 76.0339,-371.5"/>
<text text-anchor="middle" x="97" y="-378" font-family="Arial" font-size="10.00"> base</text>
</g>
<!-- Node21 -->
<g id="node21" class="node"><title>Node21</title>
<g id="a_node21"><a xlink:href="classid_list.html" target="_top" xlink:title="idList\&lt; idEntityPtr\l\&lt; idEntity \&gt; \&gt;">
<polygon fill="white" stroke="black" points="686.5,-441 686.5,-471 781.5,-471 781.5,-441 686.5,-441"/>
<text text-anchor="start" x="694.5" y="-459" font-family="Arial" font-size="10.00">idList&lt; idEntityPtr</text>
<text text-anchor="middle" x="734" y="-448" font-family="Arial" font-size="10.00">&lt; idEntity &gt; &gt;</text>
</a>
</g>
</g>
<!-- Node21&#45;&gt;Node6 -->
<g id="edge52" class="edge"><title>Node21&#45;&gt;Node6</title>
<path fill="none" stroke="#9a32cd" stroke-dasharray="5,2" d="M791.869,-455.437C873.794,-454.626 1023.19,-453.147 1096.35,-452.422"/>
<polygon fill="#9a32cd" stroke="#9a32cd" points="791.703,-451.938 781.739,-455.537 791.773,-458.938 791.703,-451.938"/>
<text text-anchor="middle" x="961" y="-458" font-family="Arial" font-size="10.00"> contactEntities</text>
</g>
<!-- Node21&#45;&gt;Node13 -->
<g id="edge29" class="edge"><title>Node21&#45;&gt;Node13</title>
<path fill="none" stroke="#9a32cd" stroke-dasharray="5,2" d="M769.584,-435.399C779.181,-429.04 789.338,-421.676 798,-414 807.2,-405.847 805.522,-399.428 816,-393 835.956,-380.757 900.319,-368.232 935.862,-362.014"/>
<polygon fill="#9a32cd" stroke="#9a32cd" points="767.498,-432.579 760.985,-440.936 771.288,-438.464 767.498,-432.579"/>
<text text-anchor="middle" x="851" y="-396" font-family="Arial" font-size="10.00"> targets</text>
</g>
<!-- Node22 -->
<g id="node22" class="node"><title>Node22</title>
<g id="a_node22"><a xlink:href="classid_link_list.html" target="_top" xlink:title="idLinkList\&lt; idEntity \&gt;">
<polygon fill="white" stroke="black" points="679.5,-233.5 679.5,-252.5 788.5,-252.5 788.5,-233.5 679.5,-233.5"/>
<text text-anchor="middle" x="734" y="-240.5" font-family="Arial" font-size="10.00">idLinkList&lt; idEntity &gt;</text>
</a>
</g>
</g>
<!-- Node22&#45;&gt;Node13 -->
<g id="edge30" class="edge"><title>Node22&#45;&gt;Node13</title>
<path fill="none" stroke="#9a32cd" stroke-dasharray="5,2" d="M777.652,-231.403C811.025,-225.099 856.564,-222.989 886,-248 917.418,-274.695 876.831,-307.991 904,-339 912.051,-348.189 924.718,-352.941 935.969,-355.395"/>
<polygon fill="#9a32cd" stroke="#9a32cd" points="776.794,-228.006 767.716,-233.469 778.219,-234.86 776.794,-228.006"/>
<text text-anchor="middle" x="851" y="-273" font-family="Arial" font-size="10.00"> spawnNode</text>
<text text-anchor="middle" x="851" y="-262" font-family="Arial" font-size="10.00">snapshotNode</text>
<text text-anchor="middle" x="851" y="-251" font-family="Arial" font-size="10.00">activeNode</text>
</g>
<!-- Node23&#45;&gt;Node13 -->
<g id="edge31" class="edge"><title>Node23&#45;&gt;Node13</title>
<path fill="none" stroke="#9a32cd" stroke-dasharray="5,2" d="M784.326,-361.11C794.774,-360.25 805.743,-359.478 816,-359 858.08,-357.039 907.151,-357.226 935.78,-357.583"/>
<polygon fill="#9a32cd" stroke="#9a32cd" points="783.76,-357.645 774.098,-361.991 784.361,-364.619 783.76,-357.645"/>
<text text-anchor="middle" x="851" y="-362" font-family="Arial" font-size="10.00"> renderEntity</text>
</g>
<!-- Node23&#45;&gt;Node23 -->
<g id="edge41" class="edge"><title>Node23&#45;&gt;Node23</title>
<path fill="none" stroke="#9a32cd" stroke-dasharray="5,2" d="M712.52,-385.4C713.954,-390.315 721.114,-394 734,-394 754.617,-394 760.577,-384.565 751.879,-375.757"/>
<polygon fill="#9a32cd" stroke="#9a32cd" points="715.901,-386.35 716.121,-375.757 709.343,-383.9 715.901,-386.35"/>
<text text-anchor="middle" x="734" y="-397" font-family="Arial" font-size="10.00"> callback</text>
</g>
<!-- Node24&#45;&gt;Node23 -->
<g id="edge33" class="edge"><title>Node24&#45;&gt;Node23</title>
<path fill="none" stroke="#9a32cd" stroke-dasharray="5,2" d="M415.811,-559.469C475.821,-570.755 587.691,-581.335 652,-522 682.301,-494.043 650.869,-467.521 670,-431 682.178,-407.752 705.277,-387.174 719.867,-375.676"/>
<polygon fill="#9a32cd" stroke="#9a32cd" points="416.425,-556.023 405.936,-557.517 415.067,-562.89 416.425,-556.023"/>
<text text-anchor="middle" x="488" y="-572" font-family="Arial" font-size="10.00"> customSkin</text>
</g>
<!-- Node25 -->
<g id="node25" class="node"><title>Node25</title>
<g id="a_node25"><a xlink:href="classid_joint_mat.html" target="_top" xlink:title="idJointMat">
<polygon fill="white" stroke="black" points="457.5,-452.5 457.5,-471.5 518.5,-471.5 518.5,-452.5 457.5,-452.5"/>
<text text-anchor="middle" x="488" y="-459.5" font-family="Arial" font-size="10.00">idJointMat</text>
</a>
</g>
</g>
<!-- Node25&#45;&gt;Node23 -->
<g id="edge35" class="edge"><title>Node25&#45;&gt;Node23</title>
<path fill="none" stroke="#9a32cd" stroke-dasharray="5,2" d="M528.759,-462.055C562.918,-460.697 612.724,-455.296 652,-437 683.529,-422.313 712.002,-391.487 725.215,-375.728"/>
<polygon fill="#9a32cd" stroke="#9a32cd" points="528.581,-458.559 518.69,-462.357 528.79,-465.556 528.581,-458.559"/>
<text text-anchor="middle" x="609" y="-462" font-family="Arial" font-size="10.00"> joints</text>
</g>
<!-- Node26 -->
<g id="node26" class="node"><title>Node26</title>
<g id="a_node26"><a xlink:href="classid_sound_emitter.html" target="_top" xlink:title="idSoundEmitter">
<polygon fill="white" stroke="black" points="223.5,-121.5 223.5,-140.5 306.5,-140.5 306.5,-121.5 223.5,-121.5"/>
<text text-anchor="middle" x="265" y="-128.5" font-family="Arial" font-size="10.00">idSoundEmitter</text>
</a>
</g>
</g>
<!-- Node26&#45;&gt;Node23 -->
<g id="edge37" class="edge"><title>Node26&#45;&gt;Node23</title>
<path fill="none" stroke="#9a32cd" stroke-dasharray="5,2" d="M316.726,-135.529C411.237,-145.089 608.638,-170.704 652,-221 688.938,-263.844 633.131,-304.097 670,-347 676.105,-354.105 684.763,-358.608 693.712,-361.446"/>
<polygon fill="#9a32cd" stroke="#9a32cd" points="316.841,-132.024 306.545,-134.522 316.151,-138.99 316.841,-132.024"/>
<text text-anchor="middle" x="488" y="-176" font-family="Arial" font-size="10.00"> referenceSound</text>
</g>
<!-- Node26&#45;&gt;Node31 -->
<g id="edge49" class="edge"><title>Node26&#45;&gt;Node31</title>
<path fill="none" stroke="#9a32cd" stroke-dasharray="5,2" d="M283.944,-114.855C297.69,-103.523 317.689,-89.1611 338,-82 377.16,-68.1934 425.573,-66.9575 456.376,-67.9722"/>
<polygon fill="#9a32cd" stroke="#9a32cd" points="281.578,-112.273 276.247,-121.428 286.124,-117.596 281.578,-112.273"/>
<text text-anchor="middle" x="374" y="-85" font-family="Arial" font-size="10.00"> referenceSound</text>
</g>
<!-- Node27 -->
<g id="node27" class="node"><title>Node27</title>
<g id="a_node27"><a xlink:href="classid_render_model.html" target="_top" xlink:title="idRenderModel">
<polygon fill="white" stroke="black" points="447.5,-367.5 447.5,-386.5 528.5,-386.5 528.5,-367.5 447.5,-367.5"/>
<text text-anchor="middle" x="488" y="-374.5" font-family="Arial" font-size="10.00">idRenderModel</text>
</a>
</g>
</g>
<!-- Node27&#45;&gt;Node23 -->
<g id="edge38" class="edge"><title>Node27&#45;&gt;Node23</title>
<path fill="none" stroke="#9a32cd" stroke-dasharray="5,2" d="M538.749,-374.757C584.531,-372.693 651.532,-369.673 693.675,-367.773"/>
<polygon fill="#9a32cd" stroke="#9a32cd" points="538.578,-371.261 528.746,-375.208 538.893,-378.254 538.578,-371.261"/>
<text text-anchor="middle" x="609" y="-377" font-family="Arial" font-size="10.00"> hModel</text>
</g>
<!-- Node28 -->
<g id="node28" class="node"><title>Node28</title>
<g id="a_node28"><a xlink:href="classid_bounds.html" target="_top" xlink:title="idBounds">
<polygon fill="white" stroke="black" points="459.5,-329.5 459.5,-348.5 516.5,-348.5 516.5,-329.5 459.5,-329.5"/>
<text text-anchor="middle" x="488" y="-336.5" font-family="Arial" font-size="10.00">idBounds</text>
</a>
</g>
</g>
<!-- Node28&#45;&gt;Node23 -->
<g id="edge39" class="edge"><title>Node28&#45;&gt;Node23</title>
<path fill="none" stroke="#9a32cd" stroke-dasharray="5,2" d="M526.858,-342.315C559.921,-345.306 609.187,-349.993 652,-355 665.673,-356.599 680.613,-358.565 693.898,-360.391"/>
<polygon fill="#9a32cd" stroke="#9a32cd" points="526.994,-338.813 516.721,-341.405 526.368,-345.785 526.994,-338.813"/>
<text text-anchor="middle" x="609" y="-358" font-family="Arial" font-size="10.00"> bounds</text>
</g>
<!-- Node29 -->
<g id="node29" class="node"><title>Node29</title>
<g id="a_node29"><a xlink:href="classid_user_interface.html" target="_top" xlink:title="idUserInterface">
<polygon fill="white" stroke="black" points="447.5,-291.5 447.5,-310.5 528.5,-310.5 528.5,-291.5 447.5,-291.5"/>
<text text-anchor="middle" x="488" y="-298.5" font-family="Arial" font-size="10.00">idUserInterface</text>
</a>
</g>
</g>
<!-- Node29&#45;&gt;Node23 -->
<g id="edge43" class="edge"><title>Node29&#45;&gt;Node23</title>
<path fill="none" stroke="#9a32cd" stroke-dasharray="5,2" d="M539.06,-306.318C571.882,-310.818 615.342,-318.722 652,-332 660.605,-335.117 661.703,-338.139 670,-342 681.354,-347.284 694.223,-352.343 705.357,-356.443"/>
<polygon fill="#9a32cd" stroke="#9a32cd" points="539.169,-302.803 528.8,-304.974 538.26,-309.744 539.169,-302.803"/>
<text text-anchor="middle" x="609" y="-335" font-family="Arial" font-size="10.00"> gui</text>
</g>
<!-- Node30 -->
<g id="node30" class="node"><title>Node30</title>
<g id="a_node30"><a xlink:href="classid_dict.html" target="_top" xlink:title="idDict">
<polygon fill="white" stroke="black" points="713.5,-195.5 713.5,-214.5 754.5,-214.5 754.5,-195.5 713.5,-195.5"/>
<text text-anchor="middle" x="734" y="-202.5" font-family="Arial" font-size="10.00">idDict</text>
</a>
</g>
</g>
<!-- Node30&#45;&gt;Node13 -->
<g id="edge44" class="edge"><title>Node30&#45;&gt;Node13</title>
<path fill="none" stroke="#9a32cd" stroke-dasharray="5,2" d="M764.386,-196.709C798.23,-189.129 853.349,-183.132 886,-213 927.739,-251.182 867.87,-295.473 904,-339 911.803,-348.401 924.452,-353.167 935.756,-355.577"/>
<polygon fill="#9a32cd" stroke="#9a32cd" points="763.51,-193.32 754.614,-199.075 765.157,-200.124 763.51,-193.32"/>
<text text-anchor="middle" x="851" y="-216" font-family="Arial" font-size="10.00"> spawnArgs</text>
</g>
<!-- Node31&#45;&gt;Node13 -->
<g id="edge45" class="edge"><title>Node31&#45;&gt;Node13</title>
<path fill="none" stroke="#9a32cd" stroke-dasharray="5,2" d="M529.784,-64.4993C590.301,-57.9447 706.565,-51.5806 798,-84 843.828,-100.249 862.071,-106.672 886,-149 906.872,-185.92 877.694,-305.733 904,-339 911.642,-348.664 924.424,-353.442 935.848,-355.793"/>
<polygon fill="#9a32cd" stroke="#9a32cd" points="529.042,-61.0613 519.503,-65.6737 529.836,-68.016 529.042,-61.0613"/>
<text text-anchor="middle" x="734" y="-87" font-family="Arial" font-size="10.00"> refSound</text>
</g>
<!-- Node32 -->
<g id="node32" class="node"><title>Node32</title>
<g id="a_node32"><a xlink:href="structsound_shader_parms__t.html" target="_top" xlink:title="soundShaderParms_t">
<polygon fill="white" stroke="black" points="210,-38.5 210,-57.5 320,-57.5 320,-38.5 210,-38.5"/>
<text text-anchor="middle" x="265" y="-45.5" font-family="Arial" font-size="10.00">soundShaderParms_t</text>
</a>
</g>
</g>
<!-- Node32&#45;&gt;Node31 -->
<g id="edge46" class="edge"><title>Node32&#45;&gt;Node31</title>
<path fill="none" stroke="#9a32cd" stroke-dasharray="5,2" d="M330.358,-44.1941C355.333,-43.71 384.105,-44.3733 410,-48 427.073,-50.3912 445.672,-55.6275 460.314,-60.3918"/>
<polygon fill="#9a32cd" stroke="#9a32cd" points="330.174,-40.6975 320.268,-44.4547 330.355,-47.6952 330.174,-40.6975"/>
<text text-anchor="middle" x="374" y="-51" font-family="Arial" font-size="10.00"> parms</text>
</g>
<!-- Node33&#45;&gt;Node31 -->
<g id="edge47" class="edge"><title>Node33&#45;&gt;Node31</title>
<path fill="none" stroke="#9a32cd" stroke-dasharray="5,2" d="M316.529,-12.7888C344.579,-15.3797 379.801,-20.3744 410,-30 432.964,-37.3196 457.301,-51.1147 472.325,-60.4317"/>
<polygon fill="#9a32cd" stroke="#9a32cd" points="316.802,-9.29955 306.542,-11.9389 316.209,-16.2743 316.802,-9.29955"/>
<text text-anchor="middle" x="374" y="-33" font-family="Arial" font-size="10.00"> shader</text>
</g>
<!-- Node34 -->
<g id="node34" class="node"><title>Node34</title>
<g id="a_node34"><a xlink:href="classid_script_object.html" target="_top" xlink:title="idScriptObject">
<polygon fill="white" stroke="black" points="695,-157.5 695,-176.5 773,-176.5 773,-157.5 695,-157.5"/>
<text text-anchor="middle" x="734" y="-164.5" font-family="Arial" font-size="10.00">idScriptObject</text>
</a>
</g>
</g>
<!-- Node34&#45;&gt;Node13 -->
<g id="edge51" class="edge"><title>Node34&#45;&gt;Node13</title>
<path fill="none" stroke="#9a32cd" stroke-dasharray="5,2" d="M780.932,-155.658C814.463,-150.35 858.662,-150.007 886,-176 912.41,-201.111 881.175,-310.591 904,-339 911.716,-348.604 924.503,-353.379 935.912,-355.742"/>
<polygon fill="#9a32cd" stroke="#9a32cd" points="780.131,-152.245 770.898,-157.441 781.356,-159.137 780.131,-152.245"/>
<text text-anchor="middle" x="851" y="-179" font-family="Arial" font-size="10.00"> scriptObject</text>
</g>
<!-- Node35 -->
<g id="node35" class="node"><title>Node35</title>
<g id="a_node35"><a xlink:href="classid_list.html" target="_top" xlink:title="idList\&lt; contactInfo_t \&gt;">
<polygon fill="white" stroke="black" points="904.5,-310.5 904.5,-329.5 1017.5,-329.5 1017.5,-310.5 904.5,-310.5"/>
<text text-anchor="middle" x="961" y="-317.5" font-family="Arial" font-size="10.00">idList&lt; contactInfo_t &gt;</text>
</a>
</g>
</g>
<!-- Node35&#45;&gt;Node6 -->
<g id="edge53" class="edge"><title>Node35&#45;&gt;Node6</title>
<path fill="none" stroke="#9a32cd" stroke-dasharray="5,2" d="M1005.43,-333.138C1009.76,-334.919 1014.02,-336.875 1018,-339 1068.96,-366.22 1114.49,-420.357 1131.7,-442.363"/>
<polygon fill="#9a32cd" stroke="#9a32cd" points="1006.51,-329.804 995.916,-329.518 1004.02,-336.347 1006.51,-329.804"/>
<text text-anchor="middle" x="1057" y="-385" font-family="Arial" font-size="10.00"> contacts</text>
</g>
<!-- Node36 -->
<g id="node36" class="node"><title>Node36</title>
<g id="a_node36"><a xlink:href="classid_a_f_body.html" target="_top" xlink:title="idAFBody">
<polygon fill="white" stroke="black" points="1257.5,-289.5 1257.5,-308.5 1316.5,-308.5 1316.5,-289.5 1257.5,-289.5"/>
<text text-anchor="middle" x="1287" y="-296.5" font-family="Arial" font-size="10.00">idAFBody</text>
</a>
</g>
</g>
<!-- Node36&#45;&gt;Node1 -->
<g id="edge57" class="edge"><title>Node36&#45;&gt;Node1</title>
<path fill="none" stroke="#9a32cd" stroke-dasharray="5,2" d="M1326.86,-295.388C1351.41,-294.786 1383.08,-297.207 1408,-310 1433.18,-322.93 1452.13,-351.885 1460.79,-367.15"/>
<polygon fill="#9a32cd" stroke="#9a32cd" points="1326.66,-291.893 1316.82,-295.809 1326.95,-298.887 1326.66,-291.893"/>
<text text-anchor="middle" x="1389" y="-324" font-family="Arial" font-size="10.00"> body1</text>
<text text-anchor="middle" x="1389" y="-313" font-family="Arial" font-size="10.00">body2</text>
</g>
<!-- Node37 -->
<g id="node37" class="node"><title>Node37</title>
<g id="a_node37"><a xlink:href="classid_vec_x.html" target="_top" xlink:title="idVecX">
<polygon fill="white" stroke="black" points="1263.5,-189.5 1263.5,-208.5 1310.5,-208.5 1310.5,-189.5 1263.5,-189.5"/>
<text text-anchor="middle" x="1287" y="-196.5" font-family="Arial" font-size="10.00">idVecX</text>
</a>
</g>
</g>
<!-- Node37&#45;&gt;Node1 -->
<g id="edge58" class="edge"><title>Node37&#45;&gt;Node1</title>
<path fill="none" stroke="#9a32cd" stroke-dasharray="5,2" d="M1320.9,-195.703C1347.3,-194.88 1383.82,-198.081 1408,-218 1455.63,-257.231 1464.15,-339.092 1465.67,-367.244"/>
<polygon fill="#9a32cd" stroke="#9a32cd" points="1320.43,-192.223 1310.62,-196.239 1320.79,-199.213 1320.43,-192.223"/>
<text text-anchor="middle" x="1389" y="-287" font-family="Arial" font-size="10.00"> lm</text>
<text text-anchor="middle" x="1389" y="-276" font-family="Arial" font-size="10.00">hi</text>
<text text-anchor="middle" x="1389" y="-265" font-family="Arial" font-size="10.00">c1</text>
<text text-anchor="middle" x="1389" y="-254" font-family="Arial" font-size="10.00">c2</text>
<text text-anchor="middle" x="1389" y="-243" font-family="Arial" font-size="10.00">lo</text>
<text text-anchor="middle" x="1389" y="-232" font-family="Arial" font-size="10.00">s</text>
<text text-anchor="middle" x="1389" y="-221" font-family="Arial" font-size="10.00">e</text>
</g>
</g>
</svg>
