<?xml version="1.0" encoding="UTF-8" standalone="no"?>
<!DOCTYPE svg PUBLIC "-//W3C//DTD SVG 1.1//EN"
 "http://www.w3.org/Graphics/SVG/1.1/DTD/svg11.dtd">
<!-- Generated by graphviz version 2.34.0 (20130907.0111)
 -->
<!-- Title: DialogEntityDefEditor Pages: 1 -->
<svg width="400pt" height="232pt"
 viewBox="0.00 0.00 400.00 232.00" xmlns="http://www.w3.org/2000/svg" xmlns:xlink="http://www.w3.org/1999/xlink">
<g id="graph0" class="graph" transform="scale(1 1) rotate(0) translate(4 228)">
<title>DialogEntityDefEditor</title>
<polygon fill="white" stroke="white" points="-4,4 -4,-228 396,-228 396,4 -4,4"/>
<!-- Node1 -->
<g id="node1" class="node"><title>Node1</title>
<polygon fill="#bfbfbf" stroke="black" points="78.5,-0.5 78.5,-19.5 187.5,-19.5 187.5,-0.5 78.5,-0.5"/>
<text text-anchor="middle" x="133" y="-7.5" font-family="Arial" font-size="10.00">DialogEntityDefEditor</text>
</g>
<!-- Node2 -->
<g id="node2" class="node"><title>Node2</title>
<polygon fill="white" stroke="#bfbfbf" points="0,-68.5 0,-87.5 50,-87.5 50,-68.5 0,-68.5"/>
<text text-anchor="middle" x="25" y="-75.5" font-family="Arial" font-size="10.00">CDialog</text>
</g>
<!-- Node2&#45;&gt;Node1 -->
<g id="edge1" class="edge"><title>Node2&#45;&gt;Node1</title>
<path fill="none" stroke="midnightblue" d="M47.9283,-62.9883C69.4135,-49.8584 100.846,-30.6498 118.877,-19.6305"/>
<polygon fill="midnightblue" stroke="midnightblue" points="45.8269,-60.1706 39.1191,-68.3717 49.477,-66.1436 45.8269,-60.1706"/>
</g>
<!-- Node3 -->
<g id="node3" class="node"><title>Node3</title>
<g id="a_node3"><a xlink:href="structtool_tip__s.html" target="_top" xlink:title="toolTip_s">
<polygon fill="white" stroke="black" points="68,-68.5 68,-87.5 124,-87.5 124,-68.5 68,-68.5"/>
<text text-anchor="middle" x="96" y="-75.5" font-family="Arial" font-size="10.00">toolTip_s</text>
</a>
</g>
</g>
<!-- Node3&#45;&gt;Node1 -->
<g id="edge2" class="edge"><title>Node3&#45;&gt;Node1</title>
<path fill="none" stroke="#9a32cd" stroke-dasharray="5,2" d="M101.698,-58.6636C104.13,-51.948 107.275,-44.4248 111,-38 114.761,-31.5137 120.04,-24.9763 124.484,-19.9591"/>
<polygon fill="#9a32cd" stroke="#9a32cd" points="98.3346,-57.6841 98.4798,-68.278 104.973,-59.9058 98.3346,-57.6841"/>
<text text-anchor="middle" x="129.5" y="-41.5" font-family="Arial" font-size="10.00"> toolTips</text>
</g>
<!-- Node4 -->
<g id="node4" class="node"><title>Node4</title>
<g id="a_node4"><a xlink:href="classid_decl_entity_def.html" target="_top" xlink:title="idDeclEntityDef">
<polygon fill="white" stroke="black" points="142.5,-68.5 142.5,-87.5 225.5,-87.5 225.5,-68.5 142.5,-68.5"/>
<text text-anchor="middle" x="184" y="-75.5" font-family="Arial" font-size="10.00">idDeclEntityDef</text>
</a>
</g>
</g>
<!-- Node4&#45;&gt;Node1 -->
<g id="edge3" class="edge"><title>Node4&#45;&gt;Node1</title>
<path fill="none" stroke="#9a32cd" stroke-dasharray="5,2" d="M171.103,-60.3101C161.161,-47.4437 147.804,-30.1583 139.832,-19.8411"/>
<polygon fill="#9a32cd" stroke="#9a32cd" points="168.449,-62.5989 177.333,-68.3717 173.988,-58.3187 168.449,-62.5989"/>
<text text-anchor="middle" x="175" y="-41.5" font-family="Arial" font-size="10.00"> decl</text>
</g>
<!-- Node5 -->
<g id="node5" class="node"><title>Node5</title>
<g id="a_node5"><a xlink:href="classid_decl.html" target="_top" xlink:title="idDecl">
<polygon fill="white" stroke="black" points="109,-136.5 109,-155.5 153,-155.5 153,-136.5 109,-136.5"/>
<text text-anchor="middle" x="131" y="-143.5" font-family="Arial" font-size="10.00">idDecl</text>
</a>
</g>
</g>
<!-- Node5&#45;&gt;Node4 -->
<g id="edge4" class="edge"><title>Node5&#45;&gt;Node4</title>
<path fill="none" stroke="midnightblue" d="M144.402,-128.31C154.735,-115.444 168.615,-98.1583 176.9,-87.8411"/>
<polygon fill="midnightblue" stroke="midnightblue" points="141.461,-126.383 137.929,-136.372 146.919,-130.766 141.461,-126.383"/>
</g>
<!-- Node6 -->
<g id="node6" class="node"><title>Node6</title>
<g id="a_node6"><a xlink:href="classid_decl_base.html" target="_top" xlink:title="idDeclBase">
<polygon fill="white" stroke="black" points="98,-204.5 98,-223.5 164,-223.5 164,-204.5 98,-204.5"/>
<text text-anchor="middle" x="131" y="-211.5" font-family="Arial" font-size="10.00">idDeclBase</text>
</a>
</g>
</g>
<!-- Node6&#45;&gt;Node5 -->
<g id="edge5" class="edge"><title>Node6&#45;&gt;Node5</title>
<path fill="none" stroke="#9a32cd" stroke-dasharray="5,2" d="M131,-194.041C131,-181.472 131,-165.563 131,-155.841"/>
<polygon fill="#9a32cd" stroke="#9a32cd" points="127.5,-194.372 131,-204.372 134.5,-194.372 127.5,-194.372"/>
<text text-anchor="middle" x="143.5" y="-177.5" font-family="Arial" font-size="10.00"> base</text>
</g>
<!-- Node7 -->
<g id="node7" class="node"><title>Node7</title>
<g id="a_node7"><a xlink:href="classid_dict.html" target="_top" xlink:title="idDict">
<polygon fill="white" stroke="black" points="171.5,-136.5 171.5,-155.5 212.5,-155.5 212.5,-136.5 171.5,-136.5"/>
<text text-anchor="middle" x="192" y="-143.5" font-family="Arial" font-size="10.00">idDict</text>
</a>
</g>
</g>
<!-- Node7&#45;&gt;Node4 -->
<g id="edge6" class="edge"><title>Node7&#45;&gt;Node4</title>
<path fill="none" stroke="#9a32cd" stroke-dasharray="5,2" d="M189.748,-126.425C188.218,-113.798 186.262,-97.6623 185.072,-87.8411"/>
<polygon fill="#9a32cd" stroke="#9a32cd" points="186.276,-126.866 190.954,-136.372 193.225,-126.023 186.276,-126.866"/>
<text text-anchor="middle" x="198.5" y="-109.5" font-family="Arial" font-size="10.00"> dict</text>
</g>
<!-- Node8 -->
<g id="node8" class="node"><title>Node8</title>
<g id="a_node8"><a xlink:href="class_c_property_list.html" target="_top" xlink:title="CPropertyList">
<polygon fill="white" stroke="black" points="244,-68.5 244,-87.5 320,-87.5 320,-68.5 244,-68.5"/>
<text text-anchor="middle" x="282" y="-75.5" font-family="Arial" font-size="10.00">CPropertyList</text>
</a>
</g>
</g>
<!-- Node8&#45;&gt;Node1 -->
<g id="edge7" class="edge"><title>Node8&#45;&gt;Node1</title>
<path fill="none" stroke="#9a32cd" stroke-dasharray="5,2" d="M253.117,-64.2063C223.467,-51.0724 178.142,-30.9957 152.484,-19.6305"/>
<polygon fill="#9a32cd" stroke="#9a32cd" points="251.96,-67.5217 262.521,-68.3717 254.795,-61.1215 251.96,-67.5217"/>
<text text-anchor="middle" x="248.5" y="-41.5" font-family="Arial" font-size="10.00"> keyValsList</text>
</g>
<!-- Node9 -->
<g id="node9" class="node"><title>Node9</title>
<polygon fill="white" stroke="#bfbfbf" points="239,-136.5 239,-155.5 295,-155.5 295,-136.5 239,-136.5"/>
<text text-anchor="middle" x="267" y="-143.5" font-family="Arial" font-size="10.00">CListBox</text>
</g>
<!-- Node9&#45;&gt;Node8 -->
<g id="edge8" class="edge"><title>Node9&#45;&gt;Node8</title>
<path fill="none" stroke="midnightblue" d="M271.222,-126.425C274.091,-113.798 277.759,-97.6623 279.991,-87.8411"/>
<polygon fill="midnightblue" stroke="midnightblue" points="267.764,-125.845 268.961,-136.372 274.59,-127.396 267.764,-125.845"/>
</g>
<!-- Node10 -->
<g id="node10" class="node"><title>Node10</title>
<g id="a_node10"><a xlink:href="class_c_property_item.html" target="_top" xlink:title="CPropertyItem">
<polygon fill="white" stroke="black" points="313.5,-136.5 313.5,-155.5 392.5,-155.5 392.5,-136.5 313.5,-136.5"/>
<text text-anchor="middle" x="353" y="-143.5" font-family="Arial" font-size="10.00">CPropertyItem</text>
</a>
</g>
</g>
<!-- Node10&#45;&gt;Node8 -->
<g id="edge9" class="edge"><title>Node10&#45;&gt;Node8</title>
<path fill="none" stroke="#9a32cd" stroke-dasharray="5,2" d="M336.231,-129.412C322.284,-116.447 302.93,-98.4559 291.511,-87.8411"/>
<polygon fill="#9a32cd" stroke="#9a32cd" points="334.011,-132.127 343.718,-136.372 338.777,-127 334.011,-132.127"/>
<text text-anchor="middle" x="354" y="-109.5" font-family="Arial" font-size="10.00"> measureItem</text>
</g>
</g>
</svg>
