<?xml version="1.0" encoding="UTF-8" standalone="no"?>
<!DOCTYPE svg PUBLIC "-//W3C//DTD SVG 1.1//EN"
 "http://www.w3.org/Graphics/SVG/1.1/DTD/svg11.dtd">
<!-- Generated by graphviz version 2.34.0 (20130907.0111)
 -->
<!-- Title: CDialogColorPicker Pages: 1 -->
<svg width="363pt" height="106pt"
 viewBox="0.00 0.00 363.00 106.00" xmlns="http://www.w3.org/2000/svg" xmlns:xlink="http://www.w3.org/1999/xlink">
<g id="graph0" class="graph" transform="scale(1 1) rotate(0) translate(4 102)">
<title>CDialogColorPicker</title>
<polygon fill="white" stroke="white" points="-4,4 -4,-102 359,-102 359,4 -4,4"/>
<!-- Node1 -->
<g id="node1" class="node"><title>Node1</title>
<polygon fill="#bfbfbf" stroke="black" points="117.5,-0.5 117.5,-19.5 218.5,-19.5 218.5,-0.5 117.5,-0.5"/>
<text text-anchor="middle" x="168" y="-7.5" font-family="Arial" font-size="10.00">CDialogColorPicker</text>
</g>
<!-- Node2 -->
<g id="node2" class="node"><title>Node2</title>
<polygon fill="white" stroke="#bfbfbf" points="0,-78.5 0,-97.5 50,-97.5 50,-78.5 0,-78.5"/>
<text text-anchor="middle" x="25" y="-85.5" font-family="Arial" font-size="10.00">CDialog</text>
</g>
<!-- Node2&#45;&gt;Node1 -->
<g id="edge1" class="edge"><title>Node2&#45;&gt;Node1</title>
<path fill="none" stroke="midnightblue" d="M46.5129,-72.9063C62.5813,-62.6477 85.255,-48.7311 106,-38 119.139,-31.2034 134.364,-24.5565 146.438,-19.5584"/>
<polygon fill="midnightblue" stroke="midnightblue" points="44.3881,-70.1118 37.8799,-78.472 48.1811,-75.9951 44.3881,-70.1118"/>
</g>
<!-- Node3 -->
<g id="node3" class="node"><title>Node3</title>
<g id="a_node3"><a xlink:href="struct_h_s_v_type.html" target="_top" xlink:title="HSVType">
<polygon fill="white" stroke="black" points="68,-78.5 68,-97.5 126,-97.5 126,-78.5 68,-78.5"/>
<text text-anchor="middle" x="97" y="-85.5" font-family="Arial" font-size="10.00">HSVType</text>
</a>
</g>
</g>
<!-- Node3&#45;&gt;Node1 -->
<g id="edge2" class="edge"><title>Node3&#45;&gt;Node1</title>
<path fill="none" stroke="#9a32cd" stroke-dasharray="5,2" d="M104.261,-68.8158C108.86,-58.895 115.539,-46.8658 124,-38 131.178,-30.4788 140.885,-24.2299 149.355,-19.6447"/>
<polygon fill="#9a32cd" stroke="#9a32cd" points="100.974,-67.6011 100.234,-78.1701 107.403,-70.3688 100.974,-67.6011"/>
<text text-anchor="middle" x="144" y="-46.5" font-family="Arial" font-size="10.00"> hsvColor</text>
</g>
<!-- Node4 -->
<g id="node4" class="node"><title>Node4</title>
<g id="a_node4"><a xlink:href="struct_r_g_b_type.html" target="_top" xlink:title="RGBType">
<polygon fill="white" stroke="black" points="144.5,-78.5 144.5,-97.5 203.5,-97.5 203.5,-78.5 144.5,-78.5"/>
<text text-anchor="middle" x="174" y="-85.5" font-family="Arial" font-size="10.00">RGBType</text>
</a>
</g>
</g>
<!-- Node4&#45;&gt;Node1 -->
<g id="edge3" class="edge"><title>Node4&#45;&gt;Node1</title>
<path fill="none" stroke="#9a32cd" stroke-dasharray="5,2" d="M170.11,-68.1737C169.663,-65.4417 169.271,-62.6558 169,-60 167.565,-45.9486 167.571,-29.517 167.752,-19.7003"/>
<polygon fill="#9a32cd" stroke="#9a32cd" points="166.679,-68.8706 171.965,-78.0528 173.559,-67.5786 166.679,-68.8706"/>
<text text-anchor="middle" x="196.5" y="-52" font-family="Arial" font-size="10.00"> m_OldColor</text>
<text text-anchor="middle" x="196.5" y="-41" font-family="Arial" font-size="10.00">color</text>
</g>
<!-- Node5 -->
<g id="node5" class="node"><title>Node5</title>
<g id="a_node5"><a xlink:href="class_c_d_i_b.html" target="_top" xlink:title="CDIB">
<polygon fill="white" stroke="black" points="226.5,-78.5 226.5,-97.5 265.5,-97.5 265.5,-78.5 226.5,-78.5"/>
<text text-anchor="middle" x="246" y="-85.5" font-family="Arial" font-size="10.00">CDIB</text>
</a>
</g>
</g>
<!-- Node5&#45;&gt;Node1 -->
<g id="edge4" class="edge"><title>Node5&#45;&gt;Node1</title>
<path fill="none" stroke="#9a32cd" stroke-dasharray="5,2" d="M241.107,-68.5147C237.679,-58.4819 232.215,-46.4415 224,-38 216.021,-29.8006 205.049,-23.7622 194.93,-19.5011"/>
<polygon fill="#9a32cd" stroke="#9a32cd" points="237.832,-69.7782 244.061,-78.348 244.536,-67.7638 237.832,-69.7782"/>
<text text-anchor="middle" x="267" y="-46.5" font-family="Arial" font-size="10.00"> m_BrightDIB</text>
</g>
<!-- Node6 -->
<g id="node6" class="node"><title>Node6</title>
<g id="a_node6"><a xlink:href="struct_line_desc.html" target="_top" xlink:title="LineDesc">
<polygon fill="white" stroke="black" points="298.5,-78.5 298.5,-97.5 355.5,-97.5 355.5,-78.5 298.5,-78.5"/>
<text text-anchor="middle" x="327" y="-85.5" font-family="Arial" font-size="10.00">LineDesc</text>
</a>
</g>
</g>
<!-- Node6&#45;&gt;Node1 -->
<g id="edge5" class="edge"><title>Node6&#45;&gt;Node1</title>
<path fill="none" stroke="#9a32cd" stroke-dasharray="5,2" d="M321.256,-68.6347C317.025,-58.0997 310.209,-45.5133 300,-38 276.734,-20.8767 245.195,-13.9909 218.781,-11.4503"/>
<polygon fill="#9a32cd" stroke="#9a32cd" points="318.014,-69.9656 324.654,-78.2219 324.612,-67.6272 318.014,-69.9656"/>
<text text-anchor="middle" x="329" y="-46.5" font-family="Arial" font-size="10.00"> lines</text>
</g>
</g>
</svg>
