<?xml version="1.0" encoding="UTF-8" standalone="no"?>
<!DOCTYPE svg PUBLIC "-//W3C//DTD SVG 1.1//EN"
 "http://www.w3.org/Graphics/SVG/1.1/DTD/svg11.dtd">
<!-- Generated by graphviz version 2.34.0 (20130907.0111)
 -->
<!-- Title: idDeviceContext Pages: 1 -->
<svg width="104pt" height="184pt"
 viewBox="0.00 0.00 104.00 184.00" xmlns="http://www.w3.org/2000/svg" xmlns:xlink="http://www.w3.org/1999/xlink">
<g id="graph0" class="graph" transform="scale(1 1) rotate(0) translate(4 180)">
<title>idDeviceContext</title>
<polygon fill="white" stroke="white" points="-4,4 -4,-180 100,-180 100,4 -4,4"/>
<!-- Node1 -->
<g id="node1" class="node"><title>Node1</title>
<polygon fill="#bfbfbf" stroke="black" points="0,-0.5 0,-19.5 86,-19.5 86,-0.5 0,-0.5"/>
<text text-anchor="middle" x="43" y="-7.5" font-family="Arial" font-size="10.00">idDeviceContext</text>
</g>
<!-- Node2 -->
<g id="node2" class="node"><title>Node2</title>
<g id="a_node2"><a xlink:href="classid_vec4.html" target="_top" xlink:title="idVec4">
<polygon fill="white" stroke="black" points="19.5,-156.5 19.5,-175.5 66.5,-175.5 66.5,-156.5 19.5,-156.5"/>
<text text-anchor="middle" x="43" y="-163.5" font-family="Arial" font-size="10.00">idVec4</text>
</a>
</g>
</g>
<!-- Node2&#45;&gt;Node1 -->
<g id="edge1" class="edge"><title>Node2&#45;&gt;Node1</title>
<path fill="none" stroke="#9a32cd" stroke-dasharray="5,2" d="M43,-145.982C43,-112.374 43,-43.755 43,-19.6253"/>
<polygon fill="#9a32cd" stroke="#9a32cd" points="39.5001,-146.279 43,-156.279 46.5001,-146.279 39.5001,-146.279"/>
<text text-anchor="middle" x="69.5" y="-129.5" font-family="Arial" font-size="10.00"> colorRed</text>
<text text-anchor="middle" x="69.5" y="-118.5" font-family="Arial" font-size="10.00">colorNone</text>
<text text-anchor="middle" x="69.5" y="-107.5" font-family="Arial" font-size="10.00">colorYellow</text>
<text text-anchor="middle" x="69.5" y="-96.5" font-family="Arial" font-size="10.00">colorPurple</text>
<text text-anchor="middle" x="69.5" y="-85.5" font-family="Arial" font-size="10.00">colorBlue</text>
<text text-anchor="middle" x="69.5" y="-74.5" font-family="Arial" font-size="10.00">colorWhite</text>
<text text-anchor="middle" x="69.5" y="-63.5" font-family="Arial" font-size="10.00">colorGreen</text>
<text text-anchor="middle" x="69.5" y="-52.5" font-family="Arial" font-size="10.00">colorOrange</text>
<text text-anchor="middle" x="69.5" y="-41.5" font-family="Arial" font-size="10.00">colorBlack</text>
</g>
</g>
</svg>
