<?xml version="1.0" encoding="UTF-8" standalone="no"?>
<!DOCTYPE svg PUBLIC "-//W3C//DTD SVG 1.1//EN"
 "http://www.w3.org/Graphics/SVG/1.1/DTD/svg11.dtd">
<!-- Generated by graphviz version 2.34.0 (20130907.0111)
 -->
<!-- Title: idFixedWinding Pages: 1 -->
<svg width="125pt" height="154pt"
 viewBox="0.00 0.00 125.00 154.00" xmlns="http://www.w3.org/2000/svg" xmlns:xlink="http://www.w3.org/1999/xlink">
<g id="graph0" class="graph" transform="scale(1 1) rotate(0) translate(4 150)">
<title>idFixedWinding</title>
<polygon fill="white" stroke="white" points="-4,4 -4,-150 121,-150 121,4 -4,4"/>
<!-- Node1 -->
<g id="node1" class="node"><title>Node1</title>
<polygon fill="#bfbfbf" stroke="black" points="-0.5,-0.5 -0.5,-19.5 82.5,-19.5 82.5,-0.5 -0.5,-0.5"/>
<text text-anchor="middle" x="41" y="-7.5" font-family="Arial" font-size="10.00">idFixedWinding</text>
</g>
<!-- Node2 -->
<g id="node2" class="node"><title>Node2</title>
<g id="a_node2"><a xlink:href="classid_winding.html" target="_top" xlink:title="idWinding">
<polygon fill="white" stroke="black" points="58.5,-58.5 58.5,-77.5 117.5,-77.5 117.5,-58.5 58.5,-58.5"/>
<text text-anchor="middle" x="88" y="-65.5" font-family="Arial" font-size="10.00">idWinding</text>
</a>
</g>
</g>
<!-- Node2&#45;&gt;Node1 -->
<g id="edge1" class="edge"><title>Node2&#45;&gt;Node1</title>
<path fill="none" stroke="midnightblue" d="M74.0972,-50.4349C65.5687,-40.2733 55.004,-27.6856 48.1383,-19.5052"/>
<polygon fill="midnightblue" stroke="midnightblue" points="71.5466,-52.8403 80.6563,-58.25 76.9084,-48.3402 71.5466,-52.8403"/>
</g>
<!-- Node3 -->
<g id="node3" class="node"><title>Node3</title>
<g id="a_node3"><a xlink:href="classid_vec5.html" target="_top" xlink:title="idVec5">
<polygon fill="white" stroke="black" points="19.5,-126.5 19.5,-145.5 66.5,-145.5 66.5,-126.5 19.5,-126.5"/>
<text text-anchor="middle" x="43" y="-133.5" font-family="Arial" font-size="10.00">idVec5</text>
</a>
</g>
</g>
<!-- Node3&#45;&gt;Node1 -->
<g id="edge3" class="edge"><title>Node3&#45;&gt;Node1</title>
<path fill="none" stroke="#9a32cd" stroke-dasharray="5,2" d="M35.4679,-116.596C30.0068,-101.066 24.0556,-78.1987 27,-58 28.9896,-44.3515 34.0674,-29.1557 37.5282,-19.8364"/>
<polygon fill="#9a32cd" stroke="#9a32cd" points="32.2359,-117.944 39.0551,-126.053 38.7809,-115.462 32.2359,-117.944"/>
<text text-anchor="middle" x="38" y="-65.5" font-family="Arial" font-size="10.00"> data</text>
</g>
<!-- Node3&#45;&gt;Node2 -->
<g id="edge2" class="edge"><title>Node3&#45;&gt;Node2</title>
<path fill="none" stroke="#9a32cd" stroke-dasharray="5,2" d="M54.6334,-117.938C63.3782,-105.112 75.0051,-88.0591 81.972,-77.8411"/>
<polygon fill="#9a32cd" stroke="#9a32cd" points="51.6246,-116.138 48.883,-126.372 57.4082,-120.081 51.6246,-116.138"/>
<text text-anchor="middle" x="73.5" y="-99.5" font-family="Arial" font-size="10.00"> p</text>
</g>
</g>
</svg>
