<?xml version="1.0" encoding="UTF-8" standalone="no"?>
<!DOCTYPE svg PUBLIC "-//W3C//DTD SVG 1.1//EN"
 "http://www.w3.org/Graphics/SVG/1.1/DTD/svg11.dtd">
<!-- Generated by graphviz version 2.34.0 (20130907.0111)
 -->
<!-- Title: CPropTreeItem Pages: 1 -->
<svg width="299pt" height="231pt"
 viewBox="0.00 0.00 299.00 230.50" xmlns="http://www.w3.org/2000/svg" xmlns:xlink="http://www.w3.org/1999/xlink">
<g id="graph0" class="graph" transform="scale(1 1) rotate(0) translate(4 226.5)">
<title>CPropTreeItem</title>
<polygon fill="white" stroke="white" points="-4,4 -4,-226.5 295,-226.5 295,4 -4,4"/>
<!-- Node1 -->
<g id="node1" class="node"><title>Node1</title>
<polygon fill="#bfbfbf" stroke="black" points="77.5,-185.5 77.5,-204.5 158.5,-204.5 158.5,-185.5 77.5,-185.5"/>
<text text-anchor="middle" x="118" y="-192.5" font-family="Arial" font-size="10.00">CPropTreeItem</text>
</g>
<!-- Node1&#45;&gt;Node1 -->
<g id="edge10" class="edge"><title>Node1&#45;&gt;Node1</title>
<path fill="none" stroke="#9a32cd" stroke-dasharray="5,2" d="M145.895,-206.761C161.547,-209.008 176,-205.088 176,-195 176,-182.818 154.924,-179.63 136.113,-185.436"/>
<polygon fill="#9a32cd" stroke="#9a32cd" points="146.637,-203.34 136.113,-204.564 145.103,-210.17 146.637,-203.34"/>
<text text-anchor="middle" x="201.5" y="-214.5" font-family="Arial" font-size="10.00"> m_pParent</text>
<text text-anchor="middle" x="201.5" y="-203.5" font-family="Arial" font-size="10.00">m_pVis</text>
<text text-anchor="middle" x="201.5" y="-192.5" font-family="Arial" font-size="10.00">m_pSibling</text>
<text text-anchor="middle" x="201.5" y="-181.5" font-family="Arial" font-size="10.00">m_pChild</text>
<text text-anchor="middle" x="201.5" y="-170.5" font-family="Arial" font-size="10.00">m_lParam</text>
</g>
<!-- Node2 -->
<g id="node2" class="node"><title>Node2</title>
<g id="a_node2"><a xlink:href="class_c_prop_tree.html" target="_top" xlink:title="CPropTree">
<polygon fill="white" stroke="black" points="147,-68.5 147,-87.5 209,-87.5 209,-68.5 147,-68.5"/>
<text text-anchor="middle" x="178" y="-75.5" font-family="Arial" font-size="10.00">CPropTree</text>
</a>
</g>
</g>
<!-- Node1&#45;&gt;Node2 -->
<g id="edge6" class="edge"><title>Node1&#45;&gt;Node2</title>
<path fill="none" stroke="#9a32cd" stroke-dasharray="5,2" d="M136.475,-178.674C144.78,-170.88 154.035,-160.785 160,-150 171.325,-129.525 175.669,-101.804 177.217,-87.8307"/>
<polygon fill="#9a32cd" stroke="#9a32cd" points="134.078,-176.122 128.941,-185.389 138.735,-181.348 134.078,-176.122"/>
<text text-anchor="middle" x="206" y="-142" font-family="Arial" font-size="10.00"> m_Root</text>
<text text-anchor="middle" x="206" y="-131" font-family="Arial" font-size="10.00">m_pVisbleList</text>
<text text-anchor="middle" x="206" y="-120" font-family="Arial" font-size="10.00">m_pFocus</text>
<text text-anchor="middle" x="206" y="-109" font-family="Arial" font-size="10.00">s_pFound</text>
</g>
<!-- Node2&#45;&gt;Node1 -->
<g id="edge1" class="edge"><title>Node2&#45;&gt;Node1</title>
<path fill="none" stroke="#9a32cd" stroke-dasharray="5,2" d="M137.605,-89.0665C129.466,-93.0016 121.912,-98.4543 117,-106 100.829,-130.841 109.742,-168.569 115.007,-185.386"/>
<polygon fill="#9a32cd" stroke="#9a32cd" points="139.01,-92.2731 146.932,-85.2379 136.352,-85.7974 139.01,-92.2731"/>
<text text-anchor="middle" x="138.5" y="-125.5" font-family="Arial" font-size="10.00"> m_pProp</text>
</g>
<!-- Node4 -->
<g id="node4" class="node"><title>Node4</title>
<g id="a_node4"><a xlink:href="class_c_prop_tree_list.html" target="_top" xlink:title="CPropTreeList">
<polygon fill="white" stroke="black" points="205,-0.5 205,-19.5 283,-19.5 283,-0.5 205,-0.5"/>
<text text-anchor="middle" x="244" y="-7.5" font-family="Arial" font-size="10.00">CPropTreeList</text>
</a>
</g>
</g>
<!-- Node2&#45;&gt;Node4 -->
<g id="edge5" class="edge"><title>Node2&#45;&gt;Node4</title>
<path fill="none" stroke="#9a32cd" stroke-dasharray="5,2" d="M171.905,-58.4477C170.763,-51.5085 170.98,-43.8894 175,-38 181.962,-27.8002 193.405,-21.4534 204.99,-17.5042"/>
<polygon fill="#9a32cd" stroke="#9a32cd" points="168.594,-59.628 174.467,-68.4462 175.375,-57.8903 168.594,-59.628"/>
<text text-anchor="middle" x="196.5" y="-41.5" font-family="Arial" font-size="10.00"> m_pProp</text>
</g>
<!-- Node5 -->
<g id="node5" class="node"><title>Node5</title>
<g id="a_node5"><a xlink:href="class_c_prop_tree_info.html" target="_top" xlink:title="CPropTreeInfo">
<polygon fill="white" stroke="black" points="18.5,-0.5 18.5,-19.5 95.5,-19.5 95.5,-0.5 18.5,-0.5"/>
<text text-anchor="middle" x="57" y="-7.5" font-family="Arial" font-size="10.00">CPropTreeInfo</text>
</a>
</g>
</g>
<!-- Node2&#45;&gt;Node5 -->
<g id="edge9" class="edge"><title>Node2&#45;&gt;Node5</title>
<path fill="none" stroke="#9a32cd" stroke-dasharray="5,2" d="M151.569,-63.8592C143.042,-59.5334 133.579,-54.6415 125,-50 106.327,-39.8971 85.1609,-27.6249 71.474,-19.5789"/>
<polygon fill="#9a32cd" stroke="#9a32cd" points="150.196,-67.0866 160.702,-68.459 153.345,-60.8348 150.196,-67.0866"/>
<text text-anchor="middle" x="146.5" y="-41.5" font-family="Arial" font-size="10.00"> m_pProp</text>
</g>
<!-- Node3 -->
<g id="node3" class="node"><title>Node3</title>
<polygon fill="white" stroke="#bfbfbf" points="247,-185.5 247,-204.5 291,-204.5 291,-185.5 247,-185.5"/>
<text text-anchor="middle" x="269" y="-192.5" font-family="Arial" font-size="10.00">CWnd</text>
</g>
<!-- Node3&#45;&gt;Node2 -->
<g id="edge2" class="edge"><title>Node3&#45;&gt;Node2</title>
<path fill="none" stroke="midnightblue" d="M267.553,-175.262C265.113,-155.739 258.564,-125.352 241,-106 232.603,-96.7477 220.496,-90.543 209.134,-86.4424"/>
<polygon fill="midnightblue" stroke="midnightblue" points="264.083,-175.736 268.567,-185.335 271.048,-175.035 264.083,-175.736"/>
</g>
<!-- Node3&#45;&gt;Node4 -->
<g id="edge4" class="edge"><title>Node3&#45;&gt;Node4</title>
<path fill="none" stroke="midnightblue" d="M272.926,-175.609C278.456,-145.627 285.988,-84.8591 268,-38 265.258,-30.8568 259.679,-24.3899 254.589,-19.5771"/>
<polygon fill="midnightblue" stroke="midnightblue" points="269.477,-175.01 270.963,-185.5 276.343,-176.373 269.477,-175.01"/>
</g>
<!-- Node4&#45;&gt;Node2 -->
<g id="edge3" class="edge"><title>Node4&#45;&gt;Node2</title>
<path fill="none" stroke="#9a32cd" stroke-dasharray="5,2" d="M236.234,-29.0707C232.608,-36.1425 227.8,-43.9831 222,-50 214.785,-57.4853 205.074,-63.7308 196.611,-68.3231"/>
<polygon fill="#9a32cd" stroke="#9a32cd" points="239.615,-30.103 240.681,-19.5618 233.274,-27.138 239.615,-30.103"/>
<text text-anchor="middle" x="247.5" y="-41.5" font-family="Arial" font-size="10.00"> m_List</text>
</g>
<!-- Node5&#45;&gt;Node2 -->
<g id="edge7" class="edge"><title>Node5&#45;&gt;Node2</title>
<path fill="none" stroke="#9a32cd" stroke-dasharray="5,2" d="M52.9224,-29.9629C52.5073,-36.9556 53.4865,-44.5041 58,-50 69.113,-63.532 115.236,-70.8069 146.951,-74.2881"/>
<polygon fill="#9a32cd" stroke="#9a32cd" points="56.4237,-30.2094 54.4149,-19.8068 49.4981,-29.1916 56.4237,-30.2094"/>
<text text-anchor="middle" x="74" y="-41.5" font-family="Arial" font-size="10.00"> m_Info</text>
</g>
<!-- Node6 -->
<g id="node6" class="node"><title>Node6</title>
<polygon fill="white" stroke="#bfbfbf" points="-0.5,-68.5 -0.5,-87.5 48.5,-87.5 48.5,-68.5 -0.5,-68.5"/>
<text text-anchor="middle" x="24" y="-75.5" font-family="Arial" font-size="10.00">CStatic</text>
</g>
<!-- Node6&#45;&gt;Node5 -->
<g id="edge8" class="edge"><title>Node6&#45;&gt;Node5</title>
<path fill="none" stroke="midnightblue" d="M29.4074,-58.7838C31.6878,-52.0816 34.6061,-44.5361 38,-38 41.381,-31.4888 46.131,-24.7388 50.0357,-19.6166"/>
<polygon fill="midnightblue" stroke="midnightblue" points="26.0586,-57.7654 26.3724,-68.3556 32.7312,-59.8812 26.0586,-57.7654"/>
</g>
</g>
</svg>
