<?xml version="1.0" encoding="UTF-8" standalone="no"?>
<!DOCTYPE svg PUBLIC "-//W3C//DTD SVG 1.1//EN"
 "http://www.w3.org/Graphics/SVG/1.1/DTD/svg11.dtd">
<!-- Generated by graphviz version 2.34.0 (20130907.0111)
 -->
<!-- Title: idForce Pages: 1 -->
<svg width="420pt" height="234pt"
 viewBox="0.00 0.00 420.00 234.00" xmlns="http://www.w3.org/2000/svg" xmlns:xlink="http://www.w3.org/1999/xlink">
<g id="graph0" class="graph" transform="scale(1 1) rotate(0) translate(4 230)">
<title>idForce</title>
<polygon fill="white" stroke="white" points="-4,4 -4,-230 416,-230 416,4 -4,4"/>
<!-- Node1 -->
<g id="node1" class="node"><title>Node1</title>
<polygon fill="#bfbfbf" stroke="black" points="-0.5,-1.5 -0.5,-20.5 48.5,-20.5 48.5,-1.5 -0.5,-1.5"/>
<text text-anchor="middle" x="24" y="-8.5" font-family="Arial" font-size="10.00">idForce</text>
</g>
<!-- Node2 -->
<g id="node2" class="node"><title>Node2</title>
<g id="a_node2"><a xlink:href="classid_class.html" target="_top" xlink:title="idClass">
<polygon fill="white" stroke="black" points="41.5,-70.5 41.5,-89.5 90.5,-89.5 90.5,-70.5 41.5,-70.5"/>
<text text-anchor="middle" x="66" y="-77.5" font-family="Arial" font-size="10.00">idClass</text>
</a>
</g>
</g>
<!-- Node2&#45;&gt;Node1 -->
<g id="edge1" class="edge"><title>Node2&#45;&gt;Node1</title>
<path fill="none" stroke="midnightblue" d="M45.0845,-62.3102C42.5546,-58.9351 40.1568,-55.3833 38,-52 31.2826,-41.4625 24.2112,-28.914 21.7483,-20.7185"/>
<polygon fill="midnightblue" stroke="midnightblue" points="42.503,-64.6802 51.5828,-70.1399 47.8895,-60.2097 42.503,-64.6802"/>
</g>
<!-- Node2&#45;&gt;Node1 -->
<g id="edge9" class="edge"><title>Node2&#45;&gt;Node1</title>
<path fill="none" stroke="midnightblue" d="M62.1557,-61.4387C60.1453,-58.3274 57.9719,-55.0933 56,-52 49.2826,-41.4625 42.2112,-28.914 35.6752,-20.7185"/>
<polygon fill="midnightblue" stroke="midnightblue" points="59.2117,-63.3357 67.3328,-70.1399 65.2274,-59.7564 59.2117,-63.3357"/>
</g>
<!-- Node3 -->
<g id="node3" class="node"><title>Node3</title>
<g id="a_node3"><a xlink:href="classid_type_info.html" target="_top" xlink:title="idTypeInfo">
<polygon fill="white" stroke="black" points="148,-1.5 148,-20.5 208,-20.5 208,-1.5 148,-1.5"/>
<text text-anchor="middle" x="178" y="-8.5" font-family="Arial" font-size="10.00">idTypeInfo</text>
</a>
</g>
</g>
<!-- Node2&#45;&gt;Node3 -->
<g id="edge7" class="edge"><title>Node2&#45;&gt;Node3</title>
<path fill="none" stroke="#9a32cd" stroke-dasharray="5,2" d="M59.502,-60.1527C58.3077,-53.175 58.5946,-45.6067 63,-40 73.3786,-26.7912 117.409,-19.0333 147.873,-15.1516"/>
<polygon fill="#9a32cd" stroke="#9a32cd" points="56.2438,-61.5151 62.2188,-70.2645 63.0041,-59.6988 56.2438,-61.5151"/>
<text text-anchor="middle" x="97.5" y="-43.5" font-family="Arial" font-size="10.00"> CreateInstance</text>
</g>
<!-- Node3&#45;&gt;Node2 -->
<g id="edge2" class="edge"><title>Node3&#45;&gt;Node2</title>
<path fill="none" stroke="#9a32cd" stroke-dasharray="5,2" d="M163.961,-28.1013C156.321,-36.1114 146.336,-45.4539 136,-52 122.025,-60.851 104.688,-67.5651 90.7643,-72.0842"/>
<polygon fill="#9a32cd" stroke="#9a32cd" points="166.576,-30.4285 170.745,-20.6883 161.411,-25.7028 166.576,-30.4285"/>
<text text-anchor="middle" x="164.5" y="-43.5" font-family="Arial" font-size="10.00"> Type</text>
</g>
<!-- Node3&#45;&gt;Node3 -->
<g id="edge3" class="edge"><title>Node3&#45;&gt;Node3</title>
<path fill="none" stroke="#9a32cd" stroke-dasharray="5,2" d="M218.659,-16.3543C223.121,-15.3341 226,-13.5494 226,-11 226,-6.81641 218.248,-4.69193 208.467,-4.62656"/>
<polygon fill="#9a32cd" stroke="#9a32cd" points="218.069,-12.8957 208.467,-17.3734 218.766,-19.861 218.069,-12.8957"/>
<text text-anchor="middle" x="238.5" y="-14" font-family="Arial" font-size="10.00"> next</text>
<text text-anchor="middle" x="238.5" y="-3" font-family="Arial" font-size="10.00">super</text>
</g>
<!-- Node4 -->
<g id="node4" class="node"><title>Node4</title>
<g id="a_node4"><a xlink:href="classid_hierarchy.html" target="_top" xlink:title="idHierarchy\&lt; idTypeInfo \&gt;">
<polygon fill="white" stroke="black" points="285.5,-70.5 285.5,-89.5 412.5,-89.5 412.5,-70.5 285.5,-70.5"/>
<text text-anchor="middle" x="349" y="-77.5" font-family="Arial" font-size="10.00">idHierarchy&lt; idTypeInfo &gt;</text>
</a>
</g>
</g>
<!-- Node4&#45;&gt;Node3 -->
<g id="edge4" class="edge"><title>Node4&#45;&gt;Node3</title>
<path fill="none" stroke="#9a32cd" stroke-dasharray="5,2" d="M317.493,-66.6553C283.349,-53.2772 229.76,-32.2803 199.921,-20.5888"/>
<polygon fill="#9a32cd" stroke="#9a32cd" points="316.407,-69.9887 326.995,-70.3781 318.961,-63.4711 316.407,-69.9887"/>
<text text-anchor="middle" x="291.5" y="-43.5" font-family="Arial" font-size="10.00"> node</text>
</g>
<!-- Node5 -->
<g id="node5" class="node"><title>Node5</title>
<g id="a_node5"><a xlink:href="structid_event_func.html" target="_top" xlink:title="idEventFunc\&lt; idClass \&gt;">
<polygon fill="white" stroke="black" points="96,-138.5 96,-157.5 216,-157.5 216,-138.5 96,-138.5"/>
<text text-anchor="middle" x="156" y="-145.5" font-family="Arial" font-size="10.00">idEventFunc&lt; idClass &gt;</text>
</a>
</g>
</g>
<!-- Node5&#45;&gt;Node2 -->
<g id="edge8" class="edge"><title>Node5&#45;&gt;Node2</title>
<path fill="none" stroke="#9a32cd" stroke-dasharray="5,2" d="M133.623,-132.786C127.508,-128.761 120.934,-124.302 115,-120 101.268,-110.044 86.0763,-97.7401 76.3031,-89.6463"/>
<polygon fill="#9a32cd" stroke="#9a32cd" points="131.83,-135.795 142.124,-138.302 135.641,-129.923 131.83,-135.795"/>
<text text-anchor="middle" x="149.5" y="-111.5" font-family="Arial" font-size="10.00"> eventCallbacks</text>
</g>
<!-- Node5&#45;&gt;Node3 -->
<g id="edge5" class="edge"><title>Node5&#45;&gt;Node3</title>
<path fill="none" stroke="#9a32cd" stroke-dasharray="5,2" d="M176.444,-131.294C179.521,-127.927 182.247,-124.125 184,-120 198.614,-85.606 186.882,-39.4235 180.933,-20.5629"/>
<polygon fill="#9a32cd" stroke="#9a32cd" points="173.844,-128.933 168.921,-138.315 178.62,-134.051 173.844,-128.933"/>
<text text-anchor="middle" x="226.5" y="-77.5" font-family="Arial" font-size="10.00"> eventCallbacks</text>
</g>
<!-- Node6 -->
<g id="node6" class="node"><title>Node6</title>
<g id="a_node6"><a xlink:href="classid_event_def.html" target="_top" xlink:title="idEventDef">
<polygon fill="white" stroke="black" points="125,-206.5 125,-225.5 187,-225.5 187,-206.5 125,-206.5"/>
<text text-anchor="middle" x="156" y="-213.5" font-family="Arial" font-size="10.00">idEventDef</text>
</a>
</g>
</g>
<!-- Node6&#45;&gt;Node5 -->
<g id="edge6" class="edge"><title>Node6&#45;&gt;Node5</title>
<path fill="none" stroke="#9a32cd" stroke-dasharray="5,2" d="M156,-196.041C156,-183.472 156,-167.563 156,-157.841"/>
<polygon fill="#9a32cd" stroke="#9a32cd" points="152.5,-196.372 156,-206.372 159.5,-196.372 152.5,-196.372"/>
<text text-anchor="middle" x="169" y="-179.5" font-family="Arial" font-size="10.00"> event</text>
</g>
</g>
</svg>
