<?xml version="1.0" encoding="UTF-8" standalone="no"?>
<!DOCTYPE svg PUBLIC "-//W3C//DTD SVG 1.1//EN"
 "http://www.w3.org/Graphics/SVG/1.1/DTD/svg11.dtd">
<!-- Generated by graphviz version 2.34.0 (20130907.0111)
 -->
<!-- Title: idCurve_NaturalCubicSpline&lt; type &gt; Pages: 1 -->
<svg width="144pt" height="224pt"
 viewBox="0.00 0.00 144.00 224.00" xmlns="http://www.w3.org/2000/svg" xmlns:xlink="http://www.w3.org/1999/xlink">
<g id="graph0" class="graph" transform="scale(1 1) rotate(0) translate(4 220)">
<title>idCurve_NaturalCubicSpline&lt; type &gt;</title>
<polygon fill="white" stroke="white" points="-4,4 -4,-220 140,-220 140,4 -4,4"/>
<!-- Node1 -->
<g id="node1" class="node"><title>Node1</title>
<polygon fill="#bfbfbf" stroke="black" points="0,-1 0,-31 136,-31 136,-1 0,-1"/>
<text text-anchor="start" x="8" y="-19" font-family="Arial" font-size="10.00">idCurve_NaturalCubicSpline</text>
<text text-anchor="middle" x="68" y="-8" font-family="Arial" font-size="10.00">&lt; type &gt;</text>
</g>
<!-- Node2 -->
<g id="node2" class="node"><title>Node2</title>
<g id="a_node2"><a xlink:href="classid_curve___spline.html" target="_top" xlink:title="idCurve_Spline\&lt; type \&gt;">
<polygon fill="white" stroke="black" points="9.5,-70.5 9.5,-89.5 126.5,-89.5 126.5,-70.5 9.5,-70.5"/>
<text text-anchor="middle" x="68" y="-77.5" font-family="Arial" font-size="10.00">idCurve_Spline&lt; type &gt;</text>
</a>
</g>
</g>
<!-- Node2&#45;&gt;Node1 -->
<g id="edge1" class="edge"><title>Node2&#45;&gt;Node1</title>
<path fill="none" stroke="midnightblue" d="M68,-60.1826C68,-50.8859 68,-39.8507 68,-31.263"/>
<polygon fill="midnightblue" stroke="midnightblue" points="64.5001,-60.3791 68,-70.3792 71.5001,-60.3792 64.5001,-60.3791"/>
</g>
<!-- Node3 -->
<g id="node3" class="node"><title>Node3</title>
<g id="a_node3"><a xlink:href="classid_curve.html" target="_top" xlink:title="idCurve\&lt; type \&gt;">
<polygon fill="white" stroke="black" points="25.5,-128.5 25.5,-147.5 110.5,-147.5 110.5,-128.5 25.5,-128.5"/>
<text text-anchor="middle" x="68" y="-135.5" font-family="Arial" font-size="10.00">idCurve&lt; type &gt;</text>
</a>
</g>
</g>
<!-- Node3&#45;&gt;Node2 -->
<g id="edge2" class="edge"><title>Node3&#45;&gt;Node2</title>
<path fill="none" stroke="midnightblue" d="M68,-117.953C68,-108.287 68,-97.0312 68,-89.5052"/>
<polygon fill="midnightblue" stroke="midnightblue" points="64.5001,-118.25 68,-128.25 71.5001,-118.25 64.5001,-118.25"/>
</g>
<!-- Node4 -->
<g id="node4" class="node"><title>Node4</title>
<g id="a_node4"><a xlink:href="classid_list.html" target="_top" xlink:title="idList\&lt; float \&gt;">
<polygon fill="white" stroke="black" points="30,-196.5 30,-215.5 106,-215.5 106,-196.5 30,-196.5"/>
<text text-anchor="middle" x="68" y="-203.5" font-family="Arial" font-size="10.00">idList&lt; float &gt;</text>
</a>
</g>
</g>
<!-- Node4&#45;&gt;Node3 -->
<g id="edge3" class="edge"><title>Node4&#45;&gt;Node3</title>
<path fill="none" stroke="#9a32cd" stroke-dasharray="5,2" d="M68,-186.041C68,-173.472 68,-157.563 68,-147.841"/>
<polygon fill="#9a32cd" stroke="#9a32cd" points="64.5001,-186.372 68,-196.372 71.5001,-186.372 64.5001,-186.372"/>
<text text-anchor="middle" x="82" y="-169.5" font-family="Arial" font-size="10.00"> times</text>
</g>
</g>
</svg>
