<?xml version="1.0" encoding="UTF-8" standalone="no"?>
<!DOCTYPE svg PUBLIC "-//W3C//DTD SVG 1.1//EN"
 "http://www.w3.org/Graphics/SVG/1.1/DTD/svg11.dtd">
<!-- Generated by graphviz version 2.34.0 (20130907.0111)
 -->
<!-- Title: idImageManager Pages: 1 -->
<!--zoomable 444 -->
<svg id="main" version="1.1" xmlns="http://www.w3.org/2000/svg" xmlns:xlink="http://www.w3.org/1999/xlink" xml:space="preserve" onload="init(evt)">
<style type="text/css"><![CDATA[
.edge:hover path { stroke: red; }
.edge:hover polygon { stroke: red; fill: red; }
]]></style>
<script type="text/javascript"><![CDATA[
var edges = document.getElementsByTagName('g');
if (edges && edges.length) {
  for (var i=0;i<edges.length;i++) {
    if (edges[i].id.substr(0,4)=='edge') {
      edges[i].setAttribute('class','edge');
    }
  }
}
]]></script>
        <defs>
                <circle id="rim" cx="0" cy="0" r="7"/>
                <circle id="rim2" cx="0" cy="0" r="3.5"/>
                <g id="zoomPlus">
                        <use xlink:href="#rim" fill="#404040">
                                <set attributeName="fill" to="#808080" begin="zoomplus.mouseover" end="zoomplus.mouseout"/>
                        </use>
                        <path d="M-4,0h8M0,-4v8" fill="none" stroke="white" stroke-width="1.5" pointer-events="none"/>
                </g>
                <g id="zoomMin">
                        <use xlink:href="#rim" fill="#404040">
                                <set attributeName="fill" to="#808080" begin="zoomminus.mouseover" end="zoomminus.mouseout"/>
                        </use>
                        <path d="M-4,0h8" fill="none" stroke="white" stroke-width="1.5" pointer-events="none"/>
                </g>
                <g id="dirArrow">
                        <path fill="none" stroke="white" stroke-width="1.5" d="M0,-3.0v7 M-2.5,-0.5L0,-3.0L2.5,-0.5"/>
                </g>
               <g id="resetDef">
                       <use xlink:href="#rim2" fill="#404040">
                               <set attributeName="fill" to="#808080" begin="reset.mouseover" end="reset.mouseout"/>
                       </use>
               </g>
        </defs>

<script type="text/javascript">
var viewWidth = 631;
var viewHeight = 444;
var sectionId = 'dynsection-0';
</script>
<script xlink:href="svgpan.js"/>
<svg id="graph" class="graph">
<g id="viewport">
<title>idImageManager</title>
<polygon fill="white" stroke="white" points="-4,4 -4,-440 627,-440 627,4 -4,4"/>
<!-- Node1 -->
<g id="node1" class="node"><title>Node1</title>
<polygon fill="#bfbfbf" stroke="black" points="263,-0.5 263,-19.5 351,-19.5 351,-0.5 263,-0.5"/>
<text text-anchor="middle" x="307" y="-7.5" font-family="Arial" font-size="10.00">idImageManager</text>
</g>
<!-- Node2 -->
<g id="node2" class="node"><title>Node2</title>
<g id="a_node2"><a xlink:href="classid_list.html" target="_top" xlink:title="idList\&lt; idStr \&gt;">
<polygon fill="white" stroke="black" points="0,-195.5 0,-214.5 78,-214.5 78,-195.5 0,-195.5"/>
<text text-anchor="middle" x="39" y="-202.5" font-family="Arial" font-size="10.00">idList&lt; idStr &gt;</text>
</a>
</g>
</g>
<!-- Node2&#45;&gt;Node1 -->
<g id="edge1" class="edge"><title>Node2&#45;&gt;Node1</title>
<path fill="none" stroke="#9a32cd" stroke-dasharray="5,2" d="M39.0245,-185.16C40.1813,-150.122 48.0944,-75.1301 93,-38 118.108,-17.2396 207.947,-12.227 262.925,-11.1459"/>
<polygon fill="#9a32cd" stroke="#9a32cd" points="35.521,-185.34 38.8475,-195.399 42.5199,-185.461 35.521,-185.34"/>
<text text-anchor="middle" x="110.5" y="-96.5" font-family="Arial" font-size="10.00"> ddsList</text>
</g>
<!-- Node3 -->
<g id="node3" class="node"><title>Node3</title>
<g id="a_node3"><a xlink:href="classid_image.html" target="_top" xlink:title="idImage">
<polygon fill="white" stroke="black" points="96,-195.5 96,-214.5 146,-214.5 146,-195.5 96,-195.5"/>
<text text-anchor="middle" x="121" y="-202.5" font-family="Arial" font-size="10.00">idImage</text>
</a>
</g>
</g>
<!-- Node3&#45;&gt;Node1 -->
<g id="edge2" class="edge"><title>Node3&#45;&gt;Node1</title>
<path fill="none" stroke="#9a32cd" stroke-dasharray="5,2" d="M124.533,-185.006C132.008,-150.318 152.773,-76.7318 200,-38 217.554,-23.6031 241.784,-16.7494 262.748,-13.5403"/>
<polygon fill="#9a32cd" stroke="#9a32cd" points="121.029,-184.678 122.489,-195.172 127.892,-186.058 121.029,-184.678"/>
<text text-anchor="middle" x="251.5" y="-151.5" font-family="Arial" font-size="10.00"> cacheLRU</text>
<text text-anchor="middle" x="251.5" y="-140.5" font-family="Arial" font-size="10.00">scratchImage</text>
<text text-anchor="middle" x="251.5" y="-129.5" font-family="Arial" font-size="10.00">cinematicImage</text>
<text text-anchor="middle" x="251.5" y="-118.5" font-family="Arial" font-size="10.00">ambientNormalMap</text>
<text text-anchor="middle" x="251.5" y="-107.5" font-family="Arial" font-size="10.00">alphaRampImage</text>
<text text-anchor="middle" x="251.5" y="-96.5" font-family="Arial" font-size="10.00">imageHashTable</text>
<text text-anchor="middle" x="251.5" y="-85.5" font-family="Arial" font-size="10.00">backgroundImageLoads</text>
<text text-anchor="middle" x="251.5" y="-74.5" font-family="Arial" font-size="10.00">specular2DTableImage</text>
<text text-anchor="middle" x="251.5" y="-63.5" font-family="Arial" font-size="10.00">flatNormalMap</text>
<text text-anchor="middle" x="251.5" y="-52.5" font-family="Arial" font-size="10.00">scratchCubeMapImage</text>
<text text-anchor="middle" x="251.5" y="-41.5" font-family="Arial" font-size="10.00">...</text>
</g>
<!-- Node3&#45;&gt;Node3 -->
<g id="edge4" class="edge"><title>Node3&#45;&gt;Node3</title>
<path fill="none" stroke="#9a32cd" stroke-dasharray="5,2" d="M156.446,-213.21C160.996,-211.783 164,-209.047 164,-205 164,-198.359 155.91,-195.247 146.176,-195.662"/>
<polygon fill="#9a32cd" stroke="#9a32cd" points="155.733,-209.767 146.176,-214.338 156.498,-216.725 155.733,-209.767"/>
<text text-anchor="middle" x="202" y="-224.5" font-family="Arial" font-size="10.00"> cacheUsagePrev</text>
<text text-anchor="middle" x="202" y="-213.5" font-family="Arial" font-size="10.00">cacheUsageNext</text>
<text text-anchor="middle" x="202" y="-202.5" font-family="Arial" font-size="10.00">hashNext</text>
<text text-anchor="middle" x="202" y="-191.5" font-family="Arial" font-size="10.00">partialImage</text>
<text text-anchor="middle" x="202" y="-180.5" font-family="Arial" font-size="10.00">bglNext</text>
</g>
<!-- Node4 -->
<g id="node4" class="node"><title>Node4</title>
<g id="a_node4"><a xlink:href="classid_str.html" target="_top" xlink:title="idStr">
<polygon fill="white" stroke="black" points="83.5,-416.5 83.5,-435.5 120.5,-435.5 120.5,-416.5 83.5,-416.5"/>
<text text-anchor="middle" x="102" y="-423.5" font-family="Arial" font-size="10.00">idStr</text>
</a>
</g>
</g>
<!-- Node4&#45;&gt;Node3 -->
<g id="edge3" class="edge"><title>Node4&#45;&gt;Node3</title>
<path fill="none" stroke="#9a32cd" stroke-dasharray="5,2" d="M99.4899,-405.95C98.1595,-394.893 96.6658,-380.685 96,-368 92.8975,-308.889 111.34,-238.888 118.366,-214.716"/>
<polygon fill="#9a32cd" stroke="#9a32cd" points="96.0509,-406.654 100.776,-416.137 102.996,-405.777 96.0509,-406.654"/>
<text text-anchor="middle" x="120.5" y="-321.5" font-family="Arial" font-size="10.00"> imgName</text>
</g>
<!-- Node8 -->
<g id="node8" class="node"><title>Node8</title>
<g id="a_node8"><a xlink:href="structurl_download__s.html" target="_top" xlink:title="urlDownload_s">
<polygon fill="white" stroke="black" points="105,-348.5 105,-367.5 185,-367.5 185,-348.5 105,-348.5"/>
<text text-anchor="middle" x="145" y="-355.5" font-family="Arial" font-size="10.00">urlDownload_s</text>
</a>
</g>
</g>
<!-- Node4&#45;&gt;Node8 -->
<g id="edge10" class="edge"><title>Node4&#45;&gt;Node8</title>
<path fill="none" stroke="#9a32cd" stroke-dasharray="5,2" d="M113.116,-407.938C121.473,-395.112 132.583,-378.059 139.24,-367.841"/>
<polygon fill="#9a32cd" stroke="#9a32cd" points="110.148,-406.082 107.621,-416.372 116.013,-409.904 110.148,-406.082"/>
<text text-anchor="middle" x="135" y="-389.5" font-family="Arial" font-size="10.00"> url</text>
</g>
<!-- Node5 -->
<g id="node5" class="node"><title>Node5</title>
<g id="a_node5"><a xlink:href="structbackground_download__s.html" target="_top" xlink:title="backgroundDownload_s">
<polygon fill="white" stroke="black" points="135.5,-280.5 135.5,-299.5 254.5,-299.5 254.5,-280.5 135.5,-280.5"/>
<text text-anchor="middle" x="195" y="-287.5" font-family="Arial" font-size="10.00">backgroundDownload_s</text>
</a>
</g>
</g>
<!-- Node5&#45;&gt;Node3 -->
<g id="edge5" class="edge"><title>Node5&#45;&gt;Node3</title>
<path fill="none" stroke="#9a32cd" stroke-dasharray="5,2" d="M180.514,-272.752C164.992,-255.342 140.941,-228.366 128.71,-214.648"/>
<polygon fill="#9a32cd" stroke="#9a32cd" points="178.092,-275.295 187.359,-280.43 183.317,-270.637 178.092,-275.295"/>
<text text-anchor="middle" x="177" y="-253.5" font-family="Arial" font-size="10.00"> bgl</text>
</g>
<!-- Node5&#45;&gt;Node5 -->
<g id="edge7" class="edge"><title>Node5&#45;&gt;Node5</title>
<path fill="none" stroke="#9a32cd" stroke-dasharray="5,2" d="M264.677,-294.543C269.239,-293.486 272,-291.971 272,-290 272,-286.846 264.931,-284.862 254.728,-284.049"/>
<polygon fill="#9a32cd" stroke="#9a32cd" points="264.138,-291.084 254.728,-295.951 265.119,-298.015 264.138,-291.084"/>
<text text-anchor="middle" x="283" y="-287.5" font-family="Arial" font-size="10.00"> next</text>
</g>
<!-- Node6 -->
<g id="node6" class="node"><title>Node6</title>
<g id="a_node6"><a xlink:href="classid_file.html" target="_top" xlink:title="idFile">
<polygon fill="white" stroke="black" points="203,-348.5 203,-367.5 243,-367.5 243,-348.5 203,-348.5"/>
<text text-anchor="middle" x="223" y="-355.5" font-family="Arial" font-size="10.00">idFile</text>
</a>
</g>
</g>
<!-- Node6&#45;&gt;Node5 -->
<g id="edge6" class="edge"><title>Node6&#45;&gt;Node5</title>
<path fill="none" stroke="#9a32cd" stroke-dasharray="5,2" d="M215.282,-338.807C209.901,-326.124 202.959,-309.762 198.751,-299.841"/>
<polygon fill="#9a32cd" stroke="#9a32cd" points="212.212,-340.533 219.339,-348.372 218.656,-337.799 212.212,-340.533"/>
<text text-anchor="middle" x="215" y="-321.5" font-family="Arial" font-size="10.00"> f</text>
</g>
<!-- Node7 -->
<g id="node7" class="node"><title>Node7</title>
<g id="a_node7"><a xlink:href="structfile_download__s.html" target="_top" xlink:title="fileDownload_s">
<polygon fill="white" stroke="black" points="261.5,-348.5 261.5,-367.5 342.5,-367.5 342.5,-348.5 261.5,-348.5"/>
<text text-anchor="middle" x="302" y="-355.5" font-family="Arial" font-size="10.00">fileDownload_s</text>
</a>
</g>
</g>
<!-- Node7&#45;&gt;Node5 -->
<g id="edge8" class="edge"><title>Node7&#45;&gt;Node5</title>
<path fill="none" stroke="#9a32cd" stroke-dasharray="5,2" d="M279.284,-342.988C257.998,-329.858 226.857,-310.65 208.992,-299.63"/>
<polygon fill="#9a32cd" stroke="#9a32cd" points="277.663,-346.101 288.012,-348.372 281.338,-340.143 277.663,-346.101"/>
<text text-anchor="middle" x="267" y="-321.5" font-family="Arial" font-size="10.00"> file</text>
</g>
<!-- Node8&#45;&gt;Node5 -->
<g id="edge9" class="edge"><title>Node8&#45;&gt;Node5</title>
<path fill="none" stroke="#9a32cd" stroke-dasharray="5,2" d="M157.644,-340.31C167.391,-327.444 180.486,-310.158 188.302,-299.841"/>
<polygon fill="#9a32cd" stroke="#9a32cd" points="154.785,-338.287 151.537,-348.372 160.365,-342.514 154.785,-338.287"/>
<text text-anchor="middle" x="182" y="-321.5" font-family="Arial" font-size="10.00"> url</text>
</g>
<!-- Node9 -->
<g id="node9" class="node"><title>Node9</title>
<g id="a_node9"><a xlink:href="classid_list.html" target="_top" xlink:title="idList\&lt; idImage * \&gt;">
<polygon fill="white" stroke="black" points="258,-195.5 258,-214.5 356,-214.5 356,-195.5 258,-195.5"/>
<text text-anchor="middle" x="307" y="-202.5" font-family="Arial" font-size="10.00">idList&lt; idImage * &gt;</text>
</a>
</g>
</g>
<!-- Node9&#45;&gt;Node1 -->
<g id="edge11" class="edge"><title>Node9&#45;&gt;Node1</title>
<path fill="none" stroke="#9a32cd" stroke-dasharray="5,2" d="M307,-185.335C307,-144.68 307,-49.4089 307,-19.8838"/>
<polygon fill="#9a32cd" stroke="#9a32cd" points="303.5,-185.458 307,-195.458 310.5,-185.458 303.5,-185.458"/>
<text text-anchor="middle" x="324.5" y="-96.5" font-family="Arial" font-size="10.00"> images</text>
</g>
<!-- Node10 -->
<g id="node10" class="node"><title>Node10</title>
<g id="a_node10"><a xlink:href="classid_hash_index.html" target="_top" xlink:title="idHashIndex">
<polygon fill="white" stroke="black" points="374,-195.5 374,-214.5 444,-214.5 444,-195.5 374,-195.5"/>
<text text-anchor="middle" x="409" y="-202.5" font-family="Arial" font-size="10.00">idHashIndex</text>
</a>
</g>
</g>
<!-- Node10&#45;&gt;Node1 -->
<g id="edge12" class="edge"><title>Node10&#45;&gt;Node1</title>
<path fill="none" stroke="#9a32cd" stroke-dasharray="5,2" d="M405.664,-185.136C399.085,-152.312 381.855,-83.8201 346,-38 340.113,-30.4769 331.554,-24.2279 323.952,-19.643"/>
<polygon fill="#9a32cd" stroke="#9a32cd" points="402.263,-185.988 407.56,-195.164 409.141,-184.688 402.263,-185.988"/>
<text text-anchor="middle" x="421" y="-96.5" font-family="Arial" font-size="10.00"> ddsHash</text>
</g>
<!-- Node11 -->
<g id="node11" class="node"><title>Node11</title>
<g id="a_node11"><a xlink:href="classid_c_var.html" target="_top" xlink:title="idCVar">
<polygon fill="white" stroke="black" points="462,-195.5 462,-214.5 508,-214.5 508,-195.5 462,-195.5"/>
<text text-anchor="middle" x="485" y="-202.5" font-family="Arial" font-size="10.00">idCVar</text>
</a>
</g>
</g>
<!-- Node11&#45;&gt;Node1 -->
<g id="edge13" class="edge"><title>Node11&#45;&gt;Node1</title>
<path fill="none" stroke="#9a32cd" stroke-dasharray="5,2" d="M486.605,-185.109C488.41,-150.591 486.831,-77.2728 446,-38 432.623,-25.1337 386.667,-18.0519 351.218,-14.4071"/>
<polygon fill="#9a32cd" stroke="#9a32cd" points="483.104,-185.008 485.915,-195.223 490.088,-185.484 483.104,-185.008"/>
<text text-anchor="middle" x="555" y="-151.5" font-family="Arial" font-size="10.00"> image_useAllFormats</text>
<text text-anchor="middle" x="555" y="-140.5" font-family="Arial" font-size="10.00">image_downSizeBump</text>
<text text-anchor="middle" x="555" y="-129.5" font-family="Arial" font-size="10.00">image_showBackgroundLoads</text>
<text text-anchor="middle" x="555" y="-118.5" font-family="Arial" font-size="10.00">image_lodbias</text>
<text text-anchor="middle" x="555" y="-107.5" font-family="Arial" font-size="10.00">image_filter</text>
<text text-anchor="middle" x="555" y="-96.5" font-family="Arial" font-size="10.00">image_downSize</text>
<text text-anchor="middle" x="555" y="-85.5" font-family="Arial" font-size="10.00">image_ignoreHighQuality</text>
<text text-anchor="middle" x="555" y="-74.5" font-family="Arial" font-size="10.00">image_useNormalCompression</text>
<text text-anchor="middle" x="555" y="-63.5" font-family="Arial" font-size="10.00">image_useCompression</text>
<text text-anchor="middle" x="555" y="-52.5" font-family="Arial" font-size="10.00">image_downSizeBumpLimit</text>
<text text-anchor="middle" x="555" y="-41.5" font-family="Arial" font-size="10.00">...</text>
</g>
<!-- Node11&#45;&gt;Node11 -->
<g id="edge15" class="edge"><title>Node11&#45;&gt;Node11</title>
<path fill="none" stroke="#9a32cd" stroke-dasharray="5,2" d="M518.411,-213.332C522.964,-211.943 526,-209.166 526,-205 526,-198.164 517.825,-195.067 508.182,-195.707"/>
<polygon fill="#9a32cd" stroke="#9a32cd" points="517.811,-209.873 508.182,-214.293 518.465,-216.843 517.811,-209.873"/>
<text text-anchor="middle" x="549.5" y="-208" font-family="Arial" font-size="10.00"> next</text>
<text text-anchor="middle" x="549.5" y="-197" font-family="Arial" font-size="10.00">internalVar</text>
</g>
<!-- Node12 -->
<g id="node12" class="node"><title>Node12</title>
<g id="a_node12"><a xlink:href="classid_cmd_args.html" target="_top" xlink:title="idCmdArgs">
<polygon fill="white" stroke="black" points="452.5,-280.5 452.5,-299.5 517.5,-299.5 517.5,-280.5 452.5,-280.5"/>
<text text-anchor="middle" x="485" y="-287.5" font-family="Arial" font-size="10.00">idCmdArgs</text>
</a>
</g>
</g>
<!-- Node12&#45;&gt;Node11 -->
<g id="edge14" class="edge"><title>Node12&#45;&gt;Node11</title>
<path fill="none" stroke="#9a32cd" stroke-dasharray="5,2" d="M485,-270.321C485,-252.917 485,-227.742 485,-214.648"/>
<polygon fill="#9a32cd" stroke="#9a32cd" points="481.5,-270.43 485,-280.43 488.5,-270.43 481.5,-270.43"/>
<text text-anchor="middle" x="522" y="-253.5" font-family="Arial" font-size="10.00"> valueCompletion</text>
</g>
</g>
</svg>
        <g id="navigator" transform="translate(0 0)" fill="#404254">
                <rect fill="#f2f5e9" fill-opacity="0.5" stroke="#606060" stroke-width=".5" x="0" y="0" width="60" height="60"/>
                <use id="zoomplus" xlink:href="#zoomPlus" x="17" y="9" onmousedown="handleZoom(evt,'in')"/>
                <use id="zoomminus" xlink:href="#zoomMin" x="42" y="9" onmousedown="handleZoom(evt,'out')"/>
                <use id="reset" xlink:href="#resetDef" x="30" y="36" onmousedown="handleReset()"/>
                <g id="arrowUp" xlink:href="#dirArrow" transform="translate(30 24)" onmousedown="handlePan(0,-1)">
                  <use xlink:href="#rim" fill="#404040">
                        <set attributeName="fill" to="#808080" begin="arrowUp.mouseover" end="arrowUp.mouseout"/>
                  </use>
                  <path fill="none" stroke="white" stroke-width="1.5" d="M0,-3.0v7 M-2.5,-0.5L0,-3.0L2.5,-0.5"/>
                </g>
                <g id="arrowRight" xlink:href="#dirArrow" transform="rotate(90) translate(36 -43)" onmousedown="handlePan(1,0)">
                  <use xlink:href="#rim" fill="#404040">
                        <set attributeName="fill" to="#808080" begin="arrowRight.mouseover" end="arrowRight.mouseout"/>
                  </use>
                  <path fill="none" stroke="white" stroke-width="1.5" d="M0,-3.0v7 M-2.5,-0.5L0,-3.0L2.5,-0.5"/>
                </g>
                <g id="arrowDown" xlink:href="#dirArrow" transform="rotate(180) translate(-30 -48)" onmousedown="handlePan(0,1)">
                  <use xlink:href="#rim" fill="#404040">
                        <set attributeName="fill" to="#808080" begin="arrowDown.mouseover" end="arrowDown.mouseout"/>
                  </use>
                  <path fill="none" stroke="white" stroke-width="1.5" d="M0,-3.0v7 M-2.5,-0.5L0,-3.0L2.5,-0.5"/>
                </g>
                <g id="arrowLeft" xlink:href="#dirArrow" transform="rotate(270) translate(-36 17)" onmousedown="handlePan(-1,0)">
                  <use xlink:href="#rim" fill="#404040">
                        <set attributeName="fill" to="#808080" begin="arrowLeft.mouseover" end="arrowLeft.mouseout"/>
                  </use>
                  <path fill="none" stroke="white" stroke-width="1.5" d="M0,-3.0v7 M-2.5,-0.5L0,-3.0L2.5,-0.5"/>
                </g>
        </g>
        <svg viewBox="0 0 15 15" width="100%" height="30px" preserveAspectRatio="xMaxYMin meet">
         <g id="arrow_out" transform="scale(0.3 0.3)">
          <a xlink:href="classid_image_manager__coll__graph_org.svg" target="_base">
           <rect id="button" ry="5" rx="5" y="6" x="6" height="38" width="38"
                fill="#f2f5e9" fill-opacity="0.5" stroke="#606060" stroke-width="1.0"/>
           <path id="arrow"
             d="M 11.500037,31.436501 C 11.940474,20.09759 22.043105,11.32322 32.158766,21.979434 L 37.068811,17.246167 C 37.068811,17.246167 37.088388,32 37.088388,32 L 22.160133,31.978069 C 22.160133,31.978069 26.997745,27.140456 26.997745,27.140456 C 18.528582,18.264221 13.291696,25.230495 11.500037,31.436501 z"
             style="fill:#404040;"/>
          </a>
         </g>
        </svg>
</svg>
