<?xml version="1.0" encoding="UTF-8" standalone="no"?>
<!DOCTYPE svg PUBLIC "-//W3C//DTD SVG 1.1//EN"
 "http://www.w3.org/Graphics/SVG/1.1/DTD/svg11.dtd">
<!-- Generated by graphviz version 2.34.0 (20130907.0111)
 -->
<!-- Title: CDialogSoundGroup Pages: 1 -->
<svg width="154pt" height="96pt"
 viewBox="0.00 0.00 154.00 96.00" xmlns="http://www.w3.org/2000/svg" xmlns:xlink="http://www.w3.org/1999/xlink">
<g id="graph0" class="graph" transform="scale(1 1) rotate(0) translate(4 92)">
<title>CDialogSoundGroup</title>
<polygon fill="white" stroke="white" points="-4,4 -4,-92 150,-92 150,4 -4,4"/>
<!-- Node1 -->
<g id="node1" class="node"><title>Node1</title>
<polygon fill="#bfbfbf" stroke="black" points="14,-0.5 14,-19.5 118,-19.5 118,-0.5 14,-0.5"/>
<text text-anchor="middle" x="66" y="-7.5" font-family="Arial" font-size="10.00">CDialogSoundGroup</text>
</g>
<!-- Node2 -->
<g id="node2" class="node"><title>Node2</title>
<polygon fill="white" stroke="#bfbfbf" points="0,-68.5 0,-87.5 50,-87.5 50,-68.5 0,-68.5"/>
<text text-anchor="middle" x="25" y="-75.5" font-family="Arial" font-size="10.00">CDialog</text>
</g>
<!-- Node2&#45;&gt;Node1 -->
<g id="edge1" class="edge"><title>Node2&#45;&gt;Node1</title>
<path fill="none" stroke="midnightblue" d="M35.8321,-59.563C43.7721,-46.7815 54.2219,-29.9599 60.5078,-19.8411"/>
<polygon fill="midnightblue" stroke="midnightblue" points="32.6639,-58.0303 30.36,-68.3717 38.61,-61.7241 32.6639,-58.0303"/>
</g>
<!-- Node3 -->
<g id="node3" class="node"><title>Node3</title>
<g id="a_node3"><a xlink:href="classid_list.html" target="_top" xlink:title="idList\&lt; idStr \&gt;">
<polygon fill="white" stroke="black" points="68,-68.5 68,-87.5 146,-87.5 146,-68.5 68,-68.5"/>
<text text-anchor="middle" x="107" y="-75.5" font-family="Arial" font-size="10.00">idList&lt; idStr &gt;</text>
</a>
</g>
</g>
<!-- Node3&#45;&gt;Node1 -->
<g id="edge2" class="edge"><title>Node3&#45;&gt;Node1</title>
<path fill="none" stroke="#9a32cd" stroke-dasharray="5,2" d="M96.1679,-59.563C88.2279,-46.7815 77.7781,-29.9599 71.4922,-19.8411"/>
<polygon fill="#9a32cd" stroke="#9a32cd" points="93.39,-61.7241 101.64,-68.3717 99.3361,-58.0303 93.39,-61.7241"/>
<text text-anchor="middle" x="98" y="-41.5" font-family="Arial" font-size="10.00"> list</text>
</g>
</g>
</svg>
