<?xml version="1.0" encoding="UTF-8" standalone="no"?>
<!DOCTYPE svg PUBLIC "-//W3C//DTD SVG 1.1//EN"
 "http://www.w3.org/Graphics/SVG/1.1/DTD/svg11.dtd">
<!-- Generated by graphviz version 2.34.0 (20130907.0111)
 -->
<!-- Title: idSimpleWindow Pages: 1 -->
<svg width="960pt" height="1391pt"
 viewBox="0.00 0.00 960.00 1391.00" xmlns="http://www.w3.org/2000/svg" xmlns:xlink="http://www.w3.org/1999/xlink">
<g id="graph0" class="graph" transform="scale(1 1) rotate(0) translate(4 1387)">
<title>idSimpleWindow</title>
<polygon fill="white" stroke="white" points="-4,4 -4,-1387 956,-1387 956,4 -4,4"/>
<!-- Node1 -->
<g id="node1" class="node"><title>Node1</title>
<polygon fill="#bfbfbf" stroke="black" points="862.5,-419.5 862.5,-438.5 951.5,-438.5 951.5,-419.5 862.5,-419.5"/>
<text text-anchor="middle" x="907" y="-426.5" font-family="Arial" font-size="10.00">idSimpleWindow</text>
</g>
<!-- Node2 -->
<g id="node2" class="node"><title>Node2</title>
<g id="a_node2"><a xlink:href="classid_win_vec4.html" target="_top" xlink:title="idWinVec4">
<polygon fill="white" stroke="black" points="478,-993.5 478,-1012.5 542,-1012.5 542,-993.5 478,-993.5"/>
<text text-anchor="middle" x="510" y="-1000.5" font-family="Arial" font-size="10.00">idWinVec4</text>
</a>
</g>
</g>
<!-- Node2&#45;&gt;Node1 -->
<g id="edge1" class="edge"><title>Node2&#45;&gt;Node1</title>
<path fill="none" stroke="#9a32cd" stroke-dasharray="5,2" d="M531.687,-1018.37C548.158,-1029.6 572.304,-1043.89 596,-1050 678.471,-1071.28 722.929,-1082.24 786,-1025 877.839,-941.654 902.187,-509.097 905.564,-438.691"/>
<polygon fill="#9a32cd" stroke="#9a32cd" points="533.569,-1015.42 523.378,-1012.52 529.539,-1021.14 533.569,-1015.42"/>
<text text-anchor="middle" x="745" y="-1102" font-family="Arial" font-size="10.00"> foreColor</text>
<text text-anchor="middle" x="745" y="-1091" font-family="Arial" font-size="10.00">matColor</text>
<text text-anchor="middle" x="745" y="-1080" font-family="Arial" font-size="10.00">borderColor</text>
<text text-anchor="middle" x="745" y="-1069" font-family="Arial" font-size="10.00">backColor</text>
</g>
<!-- Node8 -->
<g id="node8" class="node"><title>Node8</title>
<g id="a_node8"><a xlink:href="classid_window.html" target="_top" xlink:title="idWindow">
<polygon fill="white" stroke="black" points="715.5,-655.5 715.5,-674.5 774.5,-674.5 774.5,-655.5 715.5,-655.5"/>
<text text-anchor="middle" x="745" y="-662.5" font-family="Arial" font-size="10.00">idWindow</text>
</a>
</g>
</g>
<!-- Node2&#45;&gt;Node8 -->
<g id="edge10" class="edge"><title>Node2&#45;&gt;Node8</title>
<path fill="none" stroke="#9a32cd" stroke-dasharray="5,2" d="M552.238,-1002.05C592.284,-998.811 651.883,-987.459 686,-950 724.25,-908.003 740.067,-719.673 743.337,-674.678"/>
<polygon fill="#9a32cd" stroke="#9a32cd" points="551.997,-998.557 542.255,-1002.72 552.468,-1005.54 551.997,-998.557"/>
<text text-anchor="middle" x="641" y="-1042" font-family="Arial" font-size="10.00"> foreColor</text>
<text text-anchor="middle" x="641" y="-1031" font-family="Arial" font-size="10.00">matColor</text>
<text text-anchor="middle" x="641" y="-1020" font-family="Arial" font-size="10.00">hoverColor</text>
<text text-anchor="middle" x="641" y="-1009" font-family="Arial" font-size="10.00">borderColor</text>
<text text-anchor="middle" x="641" y="-998" font-family="Arial" font-size="10.00">backColor</text>
</g>
<!-- Node3 -->
<g id="node3" class="node"><title>Node3</title>
<g id="a_node3"><a xlink:href="classid_win_var.html" target="_top" xlink:title="idWinVar">
<polygon fill="white" stroke="black" points="136,-285.5 136,-304.5 192,-304.5 192,-285.5 136,-285.5"/>
<text text-anchor="middle" x="164" y="-292.5" font-family="Arial" font-size="10.00">idWinVar</text>
</a>
</g>
</g>
<!-- Node3&#45;&gt;Node2 -->
<g id="edge2" class="edge"><title>Node3&#45;&gt;Node2</title>
<path fill="none" stroke="midnightblue" d="M166.534,-315.029C174.601,-418.522 213.158,-889.941 250,-943 300.413,-1015.6 420.333,-1013.16 477.561,-1007.32"/>
<polygon fill="midnightblue" stroke="midnightblue" points="169.999,-314.448 165.738,-304.747 163.02,-314.988 169.999,-314.448"/>
</g>
<!-- Node11 -->
<g id="node11" class="node"><title>Node11</title>
<g id="a_node11"><a xlink:href="classid_win_str.html" target="_top" xlink:title="idWinStr">
<polygon fill="white" stroke="black" points="264,-1086.5 264,-1105.5 318,-1105.5 318,-1086.5 264,-1086.5"/>
<text text-anchor="middle" x="291" y="-1093.5" font-family="Arial" font-size="10.00">idWinStr</text>
</a>
</g>
</g>
<!-- Node3&#45;&gt;Node11 -->
<g id="edge16" class="edge"><title>Node3&#45;&gt;Node11</title>
<path fill="none" stroke="midnightblue" d="M164.621,-314.657C163.551,-390.391 163.183,-670.202 210,-894 226.219,-971.533 269.662,-1057.79 284.75,-1086.29"/>
<polygon fill="midnightblue" stroke="midnightblue" points="168.121,-314.698 164.785,-304.642 161.122,-314.584 168.121,-314.698"/>
</g>
<!-- Node12 -->
<g id="node12" class="node"><title>Node12</title>
<g id="a_node12"><a xlink:href="classid_win_rectangle.html" target="_top" xlink:title="idWinRectangle">
<polygon fill="white" stroke="black" points="467.5,-322.5 467.5,-341.5 552.5,-341.5 552.5,-322.5 467.5,-322.5"/>
<text text-anchor="middle" x="510" y="-329.5" font-family="Arial" font-size="10.00">idWinRectangle</text>
</a>
</g>
</g>
<!-- Node3&#45;&gt;Node12 -->
<g id="edge19" class="edge"><title>Node3&#45;&gt;Node12</title>
<path fill="none" stroke="midnightblue" d="M199.784,-307.765C214.991,-312.789 233.167,-318.051 250,-321 325.806,-334.278 415.901,-334.726 467.373,-333.559"/>
<polygon fill="midnightblue" stroke="midnightblue" points="200.858,-304.434 190.264,-304.526 198.603,-311.061 200.858,-304.434"/>
</g>
<!-- Node15 -->
<g id="node15" class="node"><title>Node15</title>
<g id="a_node15"><a xlink:href="classid_win_float.html" target="_top" xlink:title="idWinFloat">
<polygon fill="white" stroke="black" points="478.5,-233.5 478.5,-252.5 541.5,-252.5 541.5,-233.5 478.5,-233.5"/>
<text text-anchor="middle" x="510" y="-240.5" font-family="Arial" font-size="10.00">idWinFloat</text>
</a>
</g>
</g>
<!-- Node3&#45;&gt;Node15 -->
<g id="edge23" class="edge"><title>Node3&#45;&gt;Node15</title>
<path fill="none" stroke="midnightblue" d="M202.203,-289.365C239.56,-283.707 298.769,-274.743 350,-267 394.579,-260.262 446.192,-252.474 478.221,-247.642"/>
<polygon fill="midnightblue" stroke="midnightblue" points="201.633,-285.911 192.27,-290.869 202.682,-292.832 201.633,-285.911"/>
</g>
<!-- Node26 -->
<g id="node26" class="node"><title>Node26</title>
<g id="a_node26"><a xlink:href="classid_win_bool.html" target="_top" xlink:title="idWinBool">
<polygon fill="white" stroke="black" points="479.5,-149.5 479.5,-168.5 540.5,-168.5 540.5,-149.5 479.5,-149.5"/>
<text text-anchor="middle" x="510" y="-156.5" font-family="Arial" font-size="10.00">idWinBool</text>
</a>
</g>
</g>
<!-- Node3&#45;&gt;Node26 -->
<g id="edge37" class="edge"><title>Node3&#45;&gt;Node26</title>
<path fill="none" stroke="midnightblue" d="M173.748,-276.003C186.54,-250.647 212.922,-206.554 250,-186 324.137,-144.902 428.613,-149.522 479.216,-154.937"/>
<polygon fill="midnightblue" stroke="midnightblue" points="170.452,-274.781 169.243,-285.307 176.752,-277.832 170.452,-274.781"/>
</g>
<!-- Node34 -->
<g id="node34" class="node"><title>Node34</title>
<g id="a_node34"><a xlink:href="classid_win_vec2.html" target="_top" xlink:title="idWinVec2">
<polygon fill="white" stroke="black" points="713,-0.5 713,-19.5 777,-19.5 777,-0.5 713,-0.5"/>
<text text-anchor="middle" x="745" y="-7.5" font-family="Arial" font-size="10.00">idWinVec2</text>
</a>
</g>
</g>
<!-- Node3&#45;&gt;Node34 -->
<g id="edge58" class="edge"><title>Node3&#45;&gt;Node34</title>
<path fill="none" stroke="midnightblue" d="M171.187,-275.759C178.516,-254.598 192.034,-220.133 210,-194 280.532,-91.4036 325.086,-79.8018 442,-37 535.919,-2.61641 656.782,-4.39822 712.859,-7.60235"/>
<polygon fill="midnightblue" stroke="midnightblue" points="167.782,-274.903 167.927,-285.497 174.42,-277.125 167.782,-274.903"/>
</g>
<!-- Node4 -->
<g id="node4" class="node"><title>Node4</title>
<g id="a_node4"><a xlink:href="classid_dict.html" target="_top" xlink:title="idDict">
<polygon fill="white" stroke="black" points="12.5,-285.5 12.5,-304.5 53.5,-304.5 53.5,-285.5 12.5,-285.5"/>
<text text-anchor="middle" x="33" y="-292.5" font-family="Arial" font-size="10.00">idDict</text>
</a>
</g>
</g>
<!-- Node4&#45;&gt;Node3 -->
<g id="edge3" class="edge"><title>Node4&#45;&gt;Node3</title>
<path fill="none" stroke="#9a32cd" stroke-dasharray="5,2" d="M63.8475,-295C85.4761,-295 114.498,-295 135.551,-295"/>
<polygon fill="#9a32cd" stroke="#9a32cd" points="63.5924,-291.5 53.5923,-295 63.5923,-298.5 63.5924,-291.5"/>
<text text-anchor="middle" x="101" y="-298" font-family="Arial" font-size="10.00"> guiDict</text>
</g>
<!-- Node5 -->
<g id="node5" class="node"><title>Node5</title>
<g id="a_node5"><a xlink:href="classid_vec4.html" target="_top" xlink:title="idVec4">
<polygon fill="white" stroke="black" points="267.5,-914.5 267.5,-933.5 314.5,-933.5 314.5,-914.5 267.5,-914.5"/>
<text text-anchor="middle" x="291" y="-921.5" font-family="Arial" font-size="10.00">idVec4</text>
</a>
</g>
</g>
<!-- Node5&#45;&gt;Node2 -->
<g id="edge4" class="edge"><title>Node5&#45;&gt;Node2</title>
<path fill="none" stroke="#9a32cd" stroke-dasharray="5,2" d="M312.445,-939.775C323.147,-947.4 336.753,-956.145 350,-962 372.749,-972.055 438.362,-987.452 477.833,-996.237"/>
<polygon fill="#9a32cd" stroke="#9a32cd" points="314.34,-936.824 304.21,-933.721 310.194,-942.464 314.34,-936.824"/>
<text text-anchor="middle" x="387" y="-985" font-family="Arial" font-size="10.00"> data</text>
</g>
<!-- Node6 -->
<g id="node6" class="node"><title>Node6</title>
<g id="a_node6"><a xlink:href="classid_device_context.html" target="_top" xlink:title="idDeviceContext">
<polygon fill="white" stroke="black" points="467,-948.5 467,-967.5 553,-967.5 553,-948.5 467,-948.5"/>
<text text-anchor="middle" x="510" y="-955.5" font-family="Arial" font-size="10.00">idDeviceContext</text>
</a>
</g>
</g>
<!-- Node5&#45;&gt;Node6 -->
<g id="edge6" class="edge"><title>Node5&#45;&gt;Node6</title>
<path fill="none" stroke="#9a32cd" stroke-dasharray="5,2" d="M303.38,-905.525C313.56,-890.918 329.95,-871.602 350,-863 380.224,-850.032 398.203,-842.599 424,-863 451.227,-884.532 417.998,-913.923 442,-939 448.605,-945.9 457.513,-950.351 466.675,-953.207"/>
<polygon fill="#9a32cd" stroke="#9a32cd" points="300.188,-904.008 297.61,-914.284 306.034,-907.858 300.188,-904.008"/>
<text text-anchor="middle" x="387" y="-954" font-family="Arial" font-size="10.00"> colorRed</text>
<text text-anchor="middle" x="387" y="-943" font-family="Arial" font-size="10.00">colorNone</text>
<text text-anchor="middle" x="387" y="-932" font-family="Arial" font-size="10.00">colorYellow</text>
<text text-anchor="middle" x="387" y="-921" font-family="Arial" font-size="10.00">colorPurple</text>
<text text-anchor="middle" x="387" y="-910" font-family="Arial" font-size="10.00">colorBlue</text>
<text text-anchor="middle" x="387" y="-899" font-family="Arial" font-size="10.00">colorWhite</text>
<text text-anchor="middle" x="387" y="-888" font-family="Arial" font-size="10.00">colorGreen</text>
<text text-anchor="middle" x="387" y="-877" font-family="Arial" font-size="10.00">colorOrange</text>
<text text-anchor="middle" x="387" y="-866" font-family="Arial" font-size="10.00">colorBlack</text>
</g>
<!-- Node6&#45;&gt;Node1 -->
<g id="edge5" class="edge"><title>Node6&#45;&gt;Node1</title>
<path fill="none" stroke="#9a32cd" stroke-dasharray="5,2" d="M560.736,-971.889C567.055,-975.14 573.036,-979.125 578,-984 593.075,-998.804 578.458,-1016.22 596,-1028 629.21,-1050.3 653.2,-1050.9 686,-1028 898.117,-879.935 906.314,-503.639 906.116,-438.637"/>
<polygon fill="#9a32cd" stroke="#9a32cd" points="561.869,-968.56 551.315,-967.632 558.987,-974.939 561.869,-968.56"/>
<text text-anchor="middle" x="745" y="-1013" font-family="Arial" font-size="10.00"> dc</text>
</g>
<!-- Node6&#45;&gt;Node8 -->
<g id="edge9" class="edge"><title>Node6&#45;&gt;Node8</title>
<path fill="none" stroke="#9a32cd" stroke-dasharray="5,2" d="M562.94,-946.22C613.721,-934.6 683.764,-918.255 686,-916 721.113,-880.589 739.063,-716.411 743.108,-674.672"/>
<polygon fill="#9a32cd" stroke="#9a32cd" points="562.036,-942.836 553.067,-948.475 563.595,-949.66 562.036,-942.836"/>
<text text-anchor="middle" x="641" y="-941" font-family="Arial" font-size="10.00"> dc</text>
</g>
<!-- Node7 -->
<g id="node7" class="node"><title>Node7</title>
<g id="a_node7"><a xlink:href="classid_str.html" target="_top" xlink:title="idStr">
<polygon fill="white" stroke="black" points="145.5,-1114.5 145.5,-1133.5 182.5,-1133.5 182.5,-1114.5 145.5,-1114.5"/>
<text text-anchor="middle" x="164" y="-1121.5" font-family="Arial" font-size="10.00">idStr</text>
</a>
</g>
</g>
<!-- Node7&#45;&gt;Node1 -->
<g id="edge7" class="edge"><title>Node7&#45;&gt;Node1</title>
<path fill="none" stroke="#9a32cd" stroke-dasharray="5,2" d="M186.606,-1139.32C231.528,-1170.13 339.382,-1238.7 442,-1263 592.873,-1298.73 652.788,-1284.33 786,-1205 817.866,-1186.02 828.626,-1178.75 844,-1145 905.029,-1011.02 906.227,-515.57 906.041,-438.974"/>
<polygon fill="#9a32cd" stroke="#9a32cd" points="188.452,-1136.34 178.24,-1133.52 184.463,-1142.1 188.452,-1136.34"/>
<text text-anchor="middle" x="510" y="-1284" font-family="Arial" font-size="10.00"> name</text>
</g>
<!-- Node7&#45;&gt;Node8 -->
<g id="edge12" class="edge"><title>Node7&#45;&gt;Node8</title>
<path fill="none" stroke="#9a32cd" stroke-dasharray="5,2" d="M169.454,-1104.19C179.163,-1063.96 205.044,-970.905 250,-905 284.032,-855.11 294.95,-837.833 350,-813 418.43,-782.131 624.05,-820.4 686,-778 722.759,-752.842 737.62,-697.03 742.253,-674.604"/>
<polygon fill="#9a32cd" stroke="#9a32cd" points="166.012,-1103.54 167.142,-1114.07 172.828,-1105.13 166.012,-1103.54"/>
<text text-anchor="middle" x="387" y="-838" font-family="Arial" font-size="10.00"> comment</text>
<text text-anchor="middle" x="387" y="-827" font-family="Arial" font-size="10.00">cmd</text>
<text text-anchor="middle" x="387" y="-816" font-family="Arial" font-size="10.00">name</text>
</g>
<!-- Node7&#45;&gt;Node11 -->
<g id="edge17" class="edge"><title>Node7&#45;&gt;Node11</title>
<path fill="none" stroke="#9a32cd" stroke-dasharray="5,2" d="M192.635,-1117.81C213.829,-1113.06 242.888,-1106.55 263.733,-1101.88"/>
<polygon fill="#9a32cd" stroke="#9a32cd" points="191.637,-1114.45 182.644,-1120.05 193.168,-1121.28 191.637,-1114.45"/>
<text text-anchor="middle" x="221" y="-1116" font-family="Arial" font-size="10.00"> data</text>
</g>
<!-- Node17 -->
<g id="node17" class="node"><title>Node17</title>
<g id="a_node17"><a xlink:href="classid_win_background.html" target="_top" xlink:title="idWinBackground">
<polygon fill="white" stroke="black" points="463.5,-1153.5 463.5,-1172.5 556.5,-1172.5 556.5,-1153.5 463.5,-1153.5"/>
<text text-anchor="middle" x="510" y="-1160.5" font-family="Arial" font-size="10.00">idWinBackground</text>
</a>
</g>
</g>
<!-- Node7&#45;&gt;Node17 -->
<g id="edge27" class="edge"><title>Node7&#45;&gt;Node17</title>
<path fill="none" stroke="#9a32cd" stroke-dasharray="5,2" d="M192.595,-1127.13C251.666,-1133.83 390.862,-1149.61 463.337,-1157.82"/>
<polygon fill="#9a32cd" stroke="#9a32cd" points="192.863,-1123.64 182.532,-1125.99 192.074,-1130.59 192.863,-1123.64"/>
<text text-anchor="middle" x="291" y="-1145" font-family="Arial" font-size="10.00"> data</text>
</g>
<!-- Node8&#45;&gt;Node1 -->
<g id="edge8" class="edge"><title>Node8&#45;&gt;Node1</title>
<path fill="none" stroke="#9a32cd" stroke-dasharray="5,2" d="M758.085,-647.175C789.891,-600.261 875.143,-474.514 899.449,-438.663"/>
<polygon fill="#9a32cd" stroke="#9a32cd" points="755.185,-645.215 752.47,-655.456 760.979,-649.143 755.185,-645.215"/>
<text text-anchor="middle" x="824" y="-578" font-family="Arial" font-size="10.00"> mParent</text>
</g>
<!-- Node8&#45;&gt;Node8 -->
<g id="edge14" class="edge"><title>Node8&#45;&gt;Node8</title>
<path fill="none" stroke="#9a32cd" stroke-dasharray="5,2" d="M730.636,-684.766C731.764,-689.497 736.552,-693 745,-693 758.863,-693 762.871,-683.565 757.022,-674.757"/>
<polygon fill="#9a32cd" stroke="#9a32cd" points="734.107,-685.292 732.978,-674.757 727.292,-683.697 734.107,-685.292"/>
<text text-anchor="middle" x="745" y="-729" font-family="Arial" font-size="10.00"> captureChild</text>
<text text-anchor="middle" x="745" y="-718" font-family="Arial" font-size="10.00">overChild</text>
<text text-anchor="middle" x="745" y="-707" font-family="Arial" font-size="10.00">parent</text>
<text text-anchor="middle" x="745" y="-696" font-family="Arial" font-size="10.00">focusedChild</text>
</g>
<!-- Node9 -->
<g id="node9" class="node"><title>Node9</title>
<g id="a_node9"><a xlink:href="classid_list.html" target="_top" xlink:title="idList\&lt; float \&gt;">
<polygon fill="white" stroke="black" points="472,-872.5 472,-891.5 548,-891.5 548,-872.5 472,-872.5"/>
<text text-anchor="middle" x="510" y="-879.5" font-family="Arial" font-size="10.00">idList&lt; float &gt;</text>
</a>
</g>
</g>
<!-- Node9&#45;&gt;Node8 -->
<g id="edge11" class="edge"><title>Node9&#45;&gt;Node8</title>
<path fill="none" stroke="#9a32cd" stroke-dasharray="5,2" d="M557.567,-869.92C570.048,-866.69 583.536,-863.206 596,-860 635.984,-849.716 655.732,-865.078 686,-837 734.748,-791.779 742.539,-704.256 743.772,-674.884"/>
<polygon fill="#9a32cd" stroke="#9a32cd" points="556.615,-866.551 547.812,-872.446 558.37,-873.327 556.615,-866.551"/>
<text text-anchor="middle" x="641" y="-874" font-family="Arial" font-size="10.00"> saveRegs</text>
<text text-anchor="middle" x="641" y="-863" font-family="Arial" font-size="10.00">expressionRegisters</text>
</g>
<!-- Node10 -->
<g id="node10" class="node"><title>Node10</title>
<g id="a_node10"><a xlink:href="classid_list.html" target="_top" xlink:title="idList\&lt; idWindow * \&gt;">
<polygon fill="white" stroke="black" points="456.5,-834.5 456.5,-853.5 563.5,-853.5 563.5,-834.5 456.5,-834.5"/>
<text text-anchor="middle" x="510" y="-841.5" font-family="Arial" font-size="10.00">idList&lt; idWindow * &gt;</text>
</a>
</g>
</g>
<!-- Node10&#45;&gt;Node8 -->
<g id="edge13" class="edge"><title>Node10&#45;&gt;Node8</title>
<path fill="none" stroke="#9a32cd" stroke-dasharray="5,2" d="M566.131,-832.345C615.646,-821.683 681.289,-806.98 686,-803 726.894,-768.449 739.53,-700.145 742.907,-674.782"/>
<polygon fill="#9a32cd" stroke="#9a32cd" points="565.195,-828.966 556.152,-834.487 566.664,-835.811 565.195,-828.966"/>
<text text-anchor="middle" x="641" y="-827" font-family="Arial" font-size="10.00"> children</text>
</g>
<!-- Node11&#45;&gt;Node1 -->
<g id="edge48" class="edge"><title>Node11&#45;&gt;Node1</title>
<path fill="none" stroke="#9a32cd" stroke-dasharray="5,2" d="M315.338,-1112.08C321.451,-1117.21 327.564,-1123.32 332,-1130 346.694,-1152.13 328.572,-1171.3 350,-1187 389.076,-1215.64 746.02,-1210.36 786,-1183 916.034,-1094.01 908.04,-519.984 906.24,-438.593"/>
<polygon fill="#9a32cd" stroke="#9a32cd" points="317.202,-1109.09 307.161,-1105.71 312.902,-1114.62 317.202,-1109.09"/>
<text text-anchor="middle" x="641" y="-1208" font-family="Arial" font-size="10.00"> text</text>
</g>
<!-- Node11&#45;&gt;Node8 -->
<g id="edge15" class="edge"><title>Node11&#45;&gt;Node8</title>
<path fill="none" stroke="#9a32cd" stroke-dasharray="5,2" d="M328.214,-1094.63C420.752,-1090.78 660.424,-1078.53 686,-1054 700.261,-1040.32 736.159,-733.276 742.9,-674.631"/>
<polygon fill="#9a32cd" stroke="#9a32cd" points="328.04,-1091.13 318.191,-1095.04 328.325,-1098.13 328.04,-1091.13"/>
<text text-anchor="middle" x="510" y="-1091" font-family="Arial" font-size="10.00"> text</text>
</g>
<!-- Node11&#45;&gt;Node17 -->
<g id="edge26" class="edge"><title>Node11&#45;&gt;Node17</title>
<path fill="none" stroke="midnightblue" d="M328.109,-1099.93C355.629,-1104.04 393.805,-1112.19 424,-1128 433.483,-1132.96 432.614,-1138.85 442,-1144 448.997,-1147.84 456.84,-1150.96 464.627,-1153.48"/>
<polygon fill="midnightblue" stroke="midnightblue" points="328.508,-1096.45 318.122,-1098.54 327.547,-1103.38 328.508,-1096.45"/>
</g>
<!-- Node12&#45;&gt;Node1 -->
<g id="edge49" class="edge"><title>Node12&#45;&gt;Node1</title>
<path fill="none" stroke="#9a32cd" stroke-dasharray="5,2" d="M562.567,-328.979C597.74,-328.081 645.167,-329.158 686,-338 765.582,-355.232 852.961,-399.831 889.011,-419.473"/>
<polygon fill="#9a32cd" stroke="#9a32cd" points="562.412,-325.482 552.528,-329.297 562.634,-332.479 562.412,-325.482"/>
<text text-anchor="middle" x="745" y="-373" font-family="Arial" font-size="10.00"> rect</text>
</g>
<!-- Node12&#45;&gt;Node8 -->
<g id="edge18" class="edge"><title>Node12&#45;&gt;Node8</title>
<path fill="none" stroke="#9a32cd" stroke-dasharray="5,2" d="M542.12,-346.45C554.52,-353.401 568.153,-362.701 578,-374 590.808,-388.697 580.947,-401.612 596,-414 627.715,-440.101 656.699,-406.215 686,-435 718.535,-466.961 738.19,-615.8 742.896,-655.336"/>
<polygon fill="#9a32cd" stroke="#9a32cd" points="543.437,-343.186 532.962,-341.597 540.16,-349.372 543.437,-343.186"/>
<text text-anchor="middle" x="641" y="-438" font-family="Arial" font-size="10.00"> rect</text>
</g>
<!-- Node13 -->
<g id="node13" class="node"><title>Node13</title>
<g id="a_node13"><a xlink:href="classid_rectangle.html" target="_top" xlink:title="idRectangle">
<polygon fill="white" stroke="black" points="257,-292.5 257,-311.5 325,-311.5 325,-292.5 257,-292.5"/>
<text text-anchor="middle" x="291" y="-299.5" font-family="Arial" font-size="10.00">idRectangle</text>
</a>
</g>
</g>
<!-- Node13&#45;&gt;Node1 -->
<g id="edge55" class="edge"><title>Node13&#45;&gt;Node1</title>
<path fill="none" stroke="#9a32cd" stroke-dasharray="5,2" d="M335.467,-293.808C408.813,-281.525 561.352,-262.634 686,-291 763.344,-308.601 780.107,-326.993 844,-374 863.703,-388.496 884.579,-407.993 896.381,-419.457"/>
<polygon fill="#9a32cd" stroke="#9a32cd" points="334.496,-290.424 325.232,-295.566 335.681,-297.323 334.496,-290.424"/>
<text text-anchor="middle" x="641" y="-316" font-family="Arial" font-size="10.00"> drawRect</text>
<text text-anchor="middle" x="641" y="-305" font-family="Arial" font-size="10.00">clientRect</text>
<text text-anchor="middle" x="641" y="-294" font-family="Arial" font-size="10.00">textRect</text>
</g>
<!-- Node13&#45;&gt;Node8 -->
<g id="edge40" class="edge"><title>Node13&#45;&gt;Node8</title>
<path fill="none" stroke="#9a32cd" stroke-dasharray="5,2" d="M297.433,-321.571C312.047,-370.466 356.957,-498.703 442,-564 491.594,-602.079 523.803,-568.819 578,-600 587.807,-605.642 586.334,-612.121 596,-618 616.212,-630.293 678.267,-647.82 715.296,-657.627"/>
<polygon fill="#9a32cd" stroke="#9a32cd" points="300.706,-320.29 294.565,-311.657 293.982,-322.236 300.706,-320.29"/>
<text text-anchor="middle" x="510" y="-625" font-family="Arial" font-size="10.00"> drawRect</text>
<text text-anchor="middle" x="510" y="-614" font-family="Arial" font-size="10.00">clientRect</text>
<text text-anchor="middle" x="510" y="-603" font-family="Arial" font-size="10.00">textRect</text>
</g>
<!-- Node13&#45;&gt;Node12 -->
<g id="edge20" class="edge"><title>Node13&#45;&gt;Node12</title>
<path fill="none" stroke="#9a32cd" stroke-dasharray="5,2" d="M335.414,-305.184C361.227,-307.349 394.573,-310.619 424,-315 438.141,-317.105 453.492,-319.989 467.208,-322.784"/>
<polygon fill="#9a32cd" stroke="#9a32cd" points="335.454,-301.676 325.203,-304.353 334.886,-308.653 335.454,-301.676"/>
<text text-anchor="middle" x="387" y="-318" font-family="Arial" font-size="10.00"> data</text>
</g>
<!-- Node14 -->
<g id="node14" class="node"><title>Node14</title>
<g id="a_node14"><a xlink:href="classid_list.html" target="_top" xlink:title="idList\&lt; wexpOp_t \&gt;">
<polygon fill="white" stroke="black" points="459.5,-758.5 459.5,-777.5 560.5,-777.5 560.5,-758.5 459.5,-758.5"/>
<text text-anchor="middle" x="510" y="-765.5" font-family="Arial" font-size="10.00">idList&lt; wexpOp_t &gt;</text>
</a>
</g>
</g>
<!-- Node14&#45;&gt;Node8 -->
<g id="edge21" class="edge"><title>Node14&#45;&gt;Node8</title>
<path fill="none" stroke="#9a32cd" stroke-dasharray="5,2" d="M570.582,-758.068C617.263,-749.956 675.95,-738.902 686,-733 710.619,-718.542 729.811,-689.739 738.659,-674.68"/>
<polygon fill="#9a32cd" stroke="#9a32cd" points="569.784,-754.654 560.524,-759.803 570.973,-761.552 569.784,-754.654"/>
<text text-anchor="middle" x="641" y="-767" font-family="Arial" font-size="10.00"> saveOps</text>
<text text-anchor="middle" x="641" y="-756" font-family="Arial" font-size="10.00">ops</text>
</g>
<!-- Node15&#45;&gt;Node1 -->
<g id="edge50" class="edge"><title>Node15&#45;&gt;Node1</title>
<path fill="none" stroke="#9a32cd" stroke-dasharray="5,2" d="M551.788,-241.43C631.413,-239.29 803.326,-239.505 844,-279 886.049,-319.831 900.698,-393.335 904.713,-419.464"/>
<polygon fill="#9a32cd" stroke="#9a32cd" points="551.534,-237.936 541.642,-241.729 551.741,-244.933 551.534,-237.936"/>
<text text-anchor="middle" x="745" y="-268" font-family="Arial" font-size="10.00"> textScale</text>
<text text-anchor="middle" x="745" y="-257" font-family="Arial" font-size="10.00">rotate</text>
</g>
<!-- Node15&#45;&gt;Node8 -->
<g id="edge22" class="edge"><title>Node15&#45;&gt;Node8</title>
<path fill="none" stroke="#9a32cd" stroke-dasharray="5,2" d="M530.786,-259.215C545.646,-272.336 565.506,-292.026 578,-313 591.379,-335.46 576.588,-351.49 596,-369 626.357,-396.382 657.116,-359.068 686,-388 724.966,-427.031 740.194,-610.631 743.352,-655.223"/>
<polygon fill="#9a32cd" stroke="#9a32cd" points="532.991,-256.495 523.124,-252.635 528.43,-261.805 532.991,-256.495"/>
<text text-anchor="middle" x="641" y="-402" font-family="Arial" font-size="10.00"> textScale</text>
<text text-anchor="middle" x="641" y="-391" font-family="Arial" font-size="10.00">rotate</text>
</g>
<!-- Node16 -->
<g id="node16" class="node"><title>Node16</title>
<g id="a_node16"><a xlink:href="classid_list.html" target="_top" xlink:title="idList\&lt; idWinVar * \&gt;">
<polygon fill="white" stroke="black" points="458,-720.5 458,-739.5 562,-739.5 562,-720.5 458,-720.5"/>
<text text-anchor="middle" x="510" y="-727.5" font-family="Arial" font-size="10.00">idList&lt; idWinVar * &gt;</text>
</a>
</g>
</g>
<!-- Node16&#45;&gt;Node8 -->
<g id="edge24" class="edge"><title>Node16&#45;&gt;Node8</title>
<path fill="none" stroke="#9a32cd" stroke-dasharray="5,2" d="M562.029,-718.188C605.045,-708.097 663.136,-694.116 686,-687 697.62,-683.383 710.282,-678.673 720.803,-674.539"/>
<polygon fill="#9a32cd" stroke="#9a32cd" points="561.215,-714.784 552.275,-720.47 562.81,-721.6 561.215,-714.784"/>
<text text-anchor="middle" x="641" y="-723" font-family="Arial" font-size="10.00"> definedVars</text>
<text text-anchor="middle" x="641" y="-712" font-family="Arial" font-size="10.00">updateVars</text>
</g>
<!-- Node17&#45;&gt;Node1 -->
<g id="edge51" class="edge"><title>Node17&#45;&gt;Node1</title>
<path fill="none" stroke="#9a32cd" stroke-dasharray="5,2" d="M566.807,-1169.01C576.528,-1169.84 586.55,-1170.56 596,-1171 684.066,-1175.14 728.248,-1180.61 786,-1114 879.325,-1006.36 902.564,-515.031 905.626,-438.918"/>
<polygon fill="#9a32cd" stroke="#9a32cd" points="567.096,-1165.52 556.822,-1168.11 566.468,-1172.49 567.096,-1165.52"/>
<text text-anchor="middle" x="745" y="-1171" font-family="Arial" font-size="10.00"> backGroundName</text>
</g>
<!-- Node17&#45;&gt;Node8 -->
<g id="edge25" class="edge"><title>Node17&#45;&gt;Node8</title>
<path fill="none" stroke="#9a32cd" stroke-dasharray="5,2" d="M566.803,-1161.86C611.664,-1159.68 669.787,-1153.63 686,-1137 688.107,-1134.84 734.822,-742.268 742.835,-674.811"/>
<polygon fill="#9a32cd" stroke="#9a32cd" points="566.427,-1158.37 556.587,-1162.3 566.728,-1165.36 566.427,-1158.37"/>
<text text-anchor="middle" x="641" y="-1162" font-family="Arial" font-size="10.00"> backGroundName</text>
</g>
<!-- Node18 -->
<g id="node18" class="node"><title>Node18</title>
<g id="a_node18"><a xlink:href="classid_material.html" target="_top" xlink:title="idMaterial">
<polygon fill="white" stroke="black" points="261.5,-1254.5 261.5,-1273.5 320.5,-1273.5 320.5,-1254.5 261.5,-1254.5"/>
<text text-anchor="middle" x="291" y="-1261.5" font-family="Arial" font-size="10.00">idMaterial</text>
</a>
</g>
</g>
<!-- Node18&#45;&gt;Node1 -->
<g id="edge56" class="edge"><title>Node18&#45;&gt;Node1</title>
<path fill="none" stroke="#9a32cd" stroke-dasharray="5,2" d="M318.992,-1278.23C407.743,-1322.83 693.434,-1448.85 844,-1308 910.892,-1245.42 906.888,-530.591 906.094,-438.704"/>
<polygon fill="#9a32cd" stroke="#9a32cd" points="320.358,-1274.99 309.859,-1273.57 317.179,-1281.23 320.358,-1274.99"/>
<text text-anchor="middle" x="641" y="-1375" font-family="Arial" font-size="10.00"> background</text>
</g>
<!-- Node18&#45;&gt;Node8 -->
<g id="edge46" class="edge"><title>Node18&#45;&gt;Node8</title>
<path fill="none" stroke="#9a32cd" stroke-dasharray="5,2" d="M330.755,-1260.92C420.829,-1252.9 640.118,-1228.12 686,-1174 704.081,-1152.67 700.855,-950.783 704,-923 715.011,-825.715 735.917,-708.925 742.182,-674.803"/>
<polygon fill="#9a32cd" stroke="#9a32cd" points="330.342,-1257.44 320.683,-1261.79 330.948,-1264.42 330.342,-1257.44"/>
<text text-anchor="middle" x="510" y="-1251" font-family="Arial" font-size="10.00"> background</text>
</g>
<!-- Node18&#45;&gt;Node17 -->
<g id="edge28" class="edge"><title>Node18&#45;&gt;Node17</title>
<path fill="none" stroke="#9a32cd" stroke-dasharray="5,2" d="M313.196,-1248.62C323.914,-1241.24 337.311,-1232.58 350,-1226 393.618,-1203.37 447.292,-1183.67 479.79,-1172.57"/>
<polygon fill="#9a32cd" stroke="#9a32cd" points="311.067,-1245.84 304.898,-1254.45 315.092,-1251.57 311.067,-1245.84"/>
<text text-anchor="middle" x="387" y="-1229" font-family="Arial" font-size="10.00"> mat</text>
</g>
<!-- Node19 -->
<g id="node19" class="node"><title>Node19</title>
<g id="a_node19"><a xlink:href="classid_decl.html" target="_top" xlink:title="idDecl">
<polygon fill="white" stroke="black" points="142,-1254.5 142,-1273.5 186,-1273.5 186,-1254.5 142,-1254.5"/>
<text text-anchor="middle" x="164" y="-1261.5" font-family="Arial" font-size="10.00">idDecl</text>
</a>
</g>
</g>
<!-- Node19&#45;&gt;Node18 -->
<g id="edge29" class="edge"><title>Node19&#45;&gt;Node18</title>
<path fill="none" stroke="midnightblue" d="M196.314,-1264C216.211,-1264 241.778,-1264 261.175,-1264"/>
<polygon fill="midnightblue" stroke="midnightblue" points="196.205,-1260.5 186.205,-1264 196.205,-1267.5 196.205,-1260.5"/>
</g>
<!-- Node20 -->
<g id="node20" class="node"><title>Node20</title>
<g id="a_node20"><a xlink:href="classid_decl_base.html" target="_top" xlink:title="idDeclBase">
<polygon fill="white" stroke="black" points="0,-1254.5 0,-1273.5 66,-1273.5 66,-1254.5 0,-1254.5"/>
<text text-anchor="middle" x="33" y="-1261.5" font-family="Arial" font-size="10.00">idDeclBase</text>
</a>
</g>
</g>
<!-- Node20&#45;&gt;Node19 -->
<g id="edge30" class="edge"><title>Node20&#45;&gt;Node19</title>
<path fill="none" stroke="#9a32cd" stroke-dasharray="5,2" d="M76.2792,-1264C98.1687,-1264 123.948,-1264 141.678,-1264"/>
<polygon fill="#9a32cd" stroke="#9a32cd" points="76.2194,-1260.5 66.2194,-1264 76.2193,-1267.5 76.2194,-1260.5"/>
<text text-anchor="middle" x="101" y="-1267" font-family="Arial" font-size="10.00"> base</text>
</g>
<!-- Node21 -->
<g id="node21" class="node"><title>Node21</title>
<g id="a_node21"><a xlink:href="classid_list.html" target="_top" xlink:title="idList\&lt; idTimeLineEvent * \&gt;">
<polygon fill="white" stroke="black" points="442.5,-535.5 442.5,-554.5 577.5,-554.5 577.5,-535.5 442.5,-535.5"/>
<text text-anchor="middle" x="510" y="-542.5" font-family="Arial" font-size="10.00">idList&lt; idTimeLineEvent * &gt;</text>
</a>
</g>
</g>
<!-- Node21&#45;&gt;Node8 -->
<g id="edge31" class="edge"><title>Node21&#45;&gt;Node8</title>
<path fill="none" stroke="#9a32cd" stroke-dasharray="5,2" d="M554.174,-557.936C562.32,-561.075 570.599,-564.769 578,-569 587.041,-574.169 586.727,-579.261 596,-584 632.763,-602.788 650.127,-586.565 686,-607 707.778,-619.405 727.025,-642.167 736.928,-655.182"/>
<polygon fill="#9a32cd" stroke="#9a32cd" points="555.328,-554.631 544.733,-554.507 552.938,-561.211 555.328,-554.631"/>
<text text-anchor="middle" x="641" y="-610" font-family="Arial" font-size="10.00"> timeLineEvents</text>
</g>
<!-- Node22 -->
<g id="node22" class="node"><title>Node22</title>
<g id="a_node22"><a xlink:href="classid_gui_script_list.html" target="_top" xlink:title="idGuiScriptList">
<polygon fill="white" stroke="black" points="470,-497.5 470,-516.5 550,-516.5 550,-497.5 470,-497.5"/>
<text text-anchor="middle" x="510" y="-504.5" font-family="Arial" font-size="10.00">idGuiScriptList</text>
</a>
</g>
</g>
<!-- Node22&#45;&gt;Node8 -->
<g id="edge32" class="edge"><title>Node22&#45;&gt;Node8</title>
<path fill="none" stroke="#9a32cd" stroke-dasharray="5,2" d="M559.647,-516.682C566.126,-519.127 572.442,-522.183 578,-526 588.991,-533.548 584.834,-542.712 596,-550 630.396,-572.45 652.656,-547.014 686,-571 716.355,-592.836 734.119,-635.946 740.861,-655.251"/>
<polygon fill="#9a32cd" stroke="#9a32cd" points="560.698,-513.344 550.105,-513.52 558.496,-519.988 560.698,-513.344"/>
<text text-anchor="middle" x="641" y="-574" font-family="Arial" font-size="10.00"> scripts</text>
</g>
<!-- Node23 -->
<g id="node23" class="node"><title>Node23</title>
<g id="a_node23"><a xlink:href="classid_register_list.html" target="_top" xlink:title="idRegisterList">
<polygon fill="white" stroke="black" points="472,-459.5 472,-478.5 548,-478.5 548,-459.5 472,-459.5"/>
<text text-anchor="middle" x="510" y="-466.5" font-family="Arial" font-size="10.00">idRegisterList</text>
</a>
</g>
</g>
<!-- Node23&#45;&gt;Node8 -->
<g id="edge33" class="edge"><title>Node23&#45;&gt;Node8</title>
<path fill="none" stroke="#9a32cd" stroke-dasharray="5,2" d="M558.022,-477.609C565.127,-480.21 572.057,-483.594 578,-488 589.885,-496.81 583.911,-507.472 596,-516 629.564,-539.676 654.251,-510.941 686,-537 724.471,-568.576 738.459,-631.109 742.555,-655.21"/>
<polygon fill="#9a32cd" stroke="#9a32cd" points="558.891,-474.213 548.301,-474.527 556.775,-480.885 558.891,-474.213"/>
<text text-anchor="middle" x="641" y="-540" font-family="Arial" font-size="10.00"> regList</text>
</g>
<!-- Node24 -->
<g id="node24" class="node"><title>Node24</title>
<g id="a_node24"><a xlink:href="classid_user_interface_local.html" target="_top" xlink:title="idUserInterfaceLocal">
<polygon fill="white" stroke="black" points="458,-195.5 458,-214.5 562,-214.5 562,-195.5 458,-195.5"/>
<text text-anchor="middle" x="510" y="-202.5" font-family="Arial" font-size="10.00">idUserInterfaceLocal</text>
</a>
</g>
</g>
<!-- Node24&#45;&gt;Node1 -->
<g id="edge54" class="edge"><title>Node24&#45;&gt;Node1</title>
<path fill="none" stroke="#9a32cd" stroke-dasharray="5,2" d="M572.273,-205.388C658.278,-207.341 808.309,-216.367 844,-255 889.917,-304.701 902.261,-390.678 905.183,-419.368"/>
<polygon fill="#9a32cd" stroke="#9a32cd" points="572.182,-201.885 562.114,-205.183 572.041,-208.884 572.182,-201.885"/>
<text text-anchor="middle" x="745" y="-230" font-family="Arial" font-size="10.00"> gui</text>
</g>
<!-- Node24&#45;&gt;Node8 -->
<g id="edge34" class="edge"><title>Node24&#45;&gt;Node8</title>
<path fill="none" stroke="#9a32cd" stroke-dasharray="5,2" d="M571.099,-218.009C573.597,-219.767 575.921,-221.754 578,-224 605.42,-253.61 571.183,-281.176 596,-313 623.261,-347.958 658.984,-320.852 686,-356 723.587,-404.902 740.012,-608.283 743.346,-655.279"/>
<polygon fill="#9a32cd" stroke="#9a32cd" points="572.455,-214.755 562.028,-212.873 569.005,-220.846 572.455,-214.755"/>
<text text-anchor="middle" x="641" y="-359" font-family="Arial" font-size="10.00"> gui</text>
</g>
<!-- Node25 -->
<g id="node25" class="node"><title>Node25</title>
<g id="a_node25"><a xlink:href="classid_user_interface.html" target="_top" xlink:title="idUserInterface">
<polygon fill="white" stroke="black" points="250.5,-195.5 250.5,-214.5 331.5,-214.5 331.5,-195.5 250.5,-195.5"/>
<text text-anchor="middle" x="291" y="-202.5" font-family="Arial" font-size="10.00">idUserInterface</text>
</a>
</g>
</g>
<!-- Node25&#45;&gt;Node24 -->
<g id="edge35" class="edge"><title>Node25&#45;&gt;Node24</title>
<path fill="none" stroke="midnightblue" d="M341.937,-205C376.672,-205 422.842,-205 457.841,-205"/>
<polygon fill="midnightblue" stroke="midnightblue" points="341.549,-201.5 331.549,-205 341.549,-208.5 341.549,-201.5"/>
</g>
<!-- Node26&#45;&gt;Node1 -->
<g id="edge52" class="edge"><title>Node26&#45;&gt;Node1</title>
<path fill="none" stroke="#9a32cd" stroke-dasharray="5,2" d="M527.058,-141.722C542.86,-126.097 568.55,-104.179 596,-95 633.935,-82.3152 648.448,-81.2204 686,-95 772.44,-126.719 793.232,-152.184 844,-229 886.693,-293.597 901.263,-389.156 904.953,-419.435"/>
<polygon fill="#9a32cd" stroke="#9a32cd" points="524.221,-139.618 519.739,-149.218 529.23,-144.508 524.221,-139.618"/>
<text text-anchor="middle" x="745" y="-165" font-family="Arial" font-size="10.00"> hideCursor</text>
<text text-anchor="middle" x="745" y="-154" font-family="Arial" font-size="10.00">visible</text>
</g>
<!-- Node26&#45;&gt;Node8 -->
<g id="edge36" class="edge"><title>Node26&#45;&gt;Node8</title>
<path fill="none" stroke="#9a32cd" stroke-dasharray="5,2" d="M550.732,-158.782C591.224,-160.877 652.672,-170.893 686,-210 706.918,-234.545 699.943,-322.007 704,-354 719.066,-472.812 737.778,-617.097 742.743,-655.328"/>
<polygon fill="#9a32cd" stroke="#9a32cd" points="550.792,-155.282 540.667,-158.401 550.527,-162.277 550.792,-155.282"/>
<text text-anchor="middle" x="641" y="-246" font-family="Arial" font-size="10.00"> noTime</text>
<text text-anchor="middle" x="641" y="-235" font-family="Arial" font-size="10.00">hideCursor</text>
<text text-anchor="middle" x="641" y="-224" font-family="Arial" font-size="10.00">noEvents</text>
<text text-anchor="middle" x="641" y="-213" font-family="Arial" font-size="10.00">visible</text>
</g>
<!-- Node27 -->
<g id="node27" class="node"><title>Node27</title>
<g id="a_node27"><a xlink:href="classid_vec2.html" target="_top" xlink:title="idVec2">
<polygon fill="white" stroke="black" points="486.5,-46.5 486.5,-65.5 533.5,-65.5 533.5,-46.5 486.5,-46.5"/>
<text text-anchor="middle" x="510" y="-53.5" font-family="Arial" font-size="10.00">idVec2</text>
</a>
</g>
</g>
<!-- Node27&#45;&gt;Node1 -->
<g id="edge53" class="edge"><title>Node27&#45;&gt;Node1</title>
<path fill="none" stroke="#9a32cd" stroke-dasharray="5,2" d="M543.67,-51.7357C598.043,-46.3039 708.749,-42.4661 786,-88 908.461,-160.182 908.161,-371.574 906.465,-419.335"/>
<polygon fill="#9a32cd" stroke="#9a32cd" points="543.139,-48.2728 533.574,-52.8292 543.892,-55.2321 543.139,-48.2728"/>
<text text-anchor="middle" x="745" y="-91" font-family="Arial" font-size="10.00"> origin</text>
</g>
<!-- Node27&#45;&gt;Node8 -->
<g id="edge38" class="edge"><title>Node27&#45;&gt;Node8</title>
<path fill="none" stroke="#9a32cd" stroke-dasharray="5,2" d="M543.518,-61.1851C584.265,-69.5594 652.772,-90.2415 686,-138 713.509,-177.538 698.927,-306.102 704,-354 716.615,-473.097 737.089,-617.177 742.598,-655.345"/>
<polygon fill="#9a32cd" stroke="#9a32cd" points="544.031,-57.7197 533.55,-59.2683 542.709,-64.5938 544.031,-57.7197"/>
<text text-anchor="middle" x="641" y="-152" font-family="Arial" font-size="10.00"> origin</text>
<text text-anchor="middle" x="641" y="-141" font-family="Arial" font-size="10.00">shear</text>
</g>
<!-- Node27&#45;&gt;Node34 -->
<g id="edge59" class="edge"><title>Node27&#45;&gt;Node34</title>
<path fill="none" stroke="#9a32cd" stroke-dasharray="5,2" d="M543.617,-45.2004C559.315,-40.314 578.489,-34.7964 596,-31 635.946,-22.3395 682.76,-16.3867 712.87,-13.088"/>
<polygon fill="#9a32cd" stroke="#9a32cd" points="542.33,-41.9368 533.856,-48.2959 544.446,-48.6093 542.33,-41.9368"/>
<text text-anchor="middle" x="641" y="-34" font-family="Arial" font-size="10.00"> data</text>
</g>
<!-- Node28 -->
<g id="node28" class="node"><title>Node28</title>
<g id="a_node28"><a xlink:href="classid_list.html" target="_top" xlink:title="idList\&lt; drawWin_t \&gt;">
<polygon fill="white" stroke="black" points="458,-421.5 458,-440.5 562,-440.5 562,-421.5 458,-421.5"/>
<text text-anchor="middle" x="510" y="-428.5" font-family="Arial" font-size="10.00">idList&lt; drawWin_t &gt;</text>
</a>
</g>
</g>
<!-- Node28&#45;&gt;Node8 -->
<g id="edge39" class="edge"><title>Node28&#45;&gt;Node8</title>
<path fill="none" stroke="#9a32cd" stroke-dasharray="5,2" d="M570.608,-445.036C573.204,-446.527 575.685,-448.176 578,-450 590.817,-460.099 582.949,-472.205 596,-482 628.852,-506.655 655.341,-475.667 686,-503 732.827,-544.747 741.857,-627.015 743.591,-655.232"/>
<polygon fill="#9a32cd" stroke="#9a32cd" points="571.944,-441.794 561.422,-440.554 568.874,-448.085 571.944,-441.794"/>
<text text-anchor="middle" x="641" y="-506" font-family="Arial" font-size="10.00"> drawWindows</text>
</g>
<!-- Node29 -->
<g id="node29" class="node"><title>Node29</title>
<g id="a_node29"><a xlink:href="classid_list.html" target="_top" xlink:title="idList\&lt; idTransitionData \&gt;">
<polygon fill="white" stroke="black" points="446,-383.5 446,-402.5 574,-402.5 574,-383.5 446,-383.5"/>
<text text-anchor="middle" x="510" y="-390.5" font-family="Arial" font-size="10.00">idList&lt; idTransitionData &gt;</text>
</a>
</g>
</g>
<!-- Node29&#45;&gt;Node8 -->
<g id="edge41" class="edge"><title>Node29&#45;&gt;Node8</title>
<path fill="none" stroke="#9a32cd" stroke-dasharray="5,2" d="M571.505,-407.374C573.785,-408.775 575.963,-410.313 578,-412 591.777,-423.411 581.958,-436.917 596,-448 628.241,-473.448 656.119,-440.817 686,-469 741.245,-521.106 744.657,-623.06 744.29,-655.112"/>
<polygon fill="#9a32cd" stroke="#9a32cd" points="572.778,-404.093 562.287,-402.618 569.569,-410.314 572.778,-404.093"/>
<text text-anchor="middle" x="641" y="-472" font-family="Arial" font-size="10.00"> transitions</text>
</g>
<!-- Node30 -->
<g id="node30" class="node"><title>Node30</title>
<g id="a_node30"><a xlink:href="classid_c_var.html" target="_top" xlink:title="idCVar">
<polygon fill="white" stroke="black" points="487,-642.5 487,-661.5 533,-661.5 533,-642.5 487,-642.5"/>
<text text-anchor="middle" x="510" y="-649.5" font-family="Arial" font-size="10.00">idCVar</text>
</a>
</g>
</g>
<!-- Node30&#45;&gt;Node8 -->
<g id="edge42" class="edge"><title>Node30&#45;&gt;Node8</title>
<path fill="none" stroke="#9a32cd" stroke-dasharray="5,2" d="M543.586,-653.818C589.29,-656.368 671.704,-660.966 715.245,-663.396"/>
<polygon fill="#9a32cd" stroke="#9a32cd" points="543.52,-650.309 533.341,-653.246 543.13,-657.298 543.52,-650.309"/>
<text text-anchor="middle" x="641" y="-675" font-family="Arial" font-size="10.00"> gui_debug</text>
<text text-anchor="middle" x="641" y="-664" font-family="Arial" font-size="10.00">gui_edit</text>
</g>
<!-- Node30&#45;&gt;Node30 -->
<g id="edge44" class="edge"><title>Node30&#45;&gt;Node30</title>
<path fill="none" stroke="#9a32cd" stroke-dasharray="5,2" d="M487.307,-671.029C488.544,-676.128 496.109,-680 510,-680 531.684,-680 537.952,-670.565 528.804,-661.757"/>
<polygon fill="#9a32cd" stroke="#9a32cd" points="490.555,-672.332 491.196,-661.757 484.1,-669.625 490.555,-672.332"/>
<text text-anchor="middle" x="510" y="-694" font-family="Arial" font-size="10.00"> next</text>
<text text-anchor="middle" x="510" y="-683" font-family="Arial" font-size="10.00">internalVar</text>
</g>
<!-- Node31 -->
<g id="node31" class="node"><title>Node31</title>
<g id="a_node31"><a xlink:href="classid_cmd_args.html" target="_top" xlink:title="idCmdArgs">
<polygon fill="white" stroke="black" points="258.5,-642.5 258.5,-661.5 323.5,-661.5 323.5,-642.5 258.5,-642.5"/>
<text text-anchor="middle" x="291" y="-649.5" font-family="Arial" font-size="10.00">idCmdArgs</text>
</a>
</g>
</g>
<!-- Node31&#45;&gt;Node30 -->
<g id="edge43" class="edge"><title>Node31&#45;&gt;Node30</title>
<path fill="none" stroke="#9a32cd" stroke-dasharray="5,2" d="M333.742,-652C379.48,-652 451.108,-652 486.979,-652"/>
<polygon fill="#9a32cd" stroke="#9a32cd" points="333.554,-648.5 323.554,-652 333.554,-655.5 333.554,-648.5"/>
<text text-anchor="middle" x="387" y="-655" font-family="Arial" font-size="10.00"> valueCompletion</text>
</g>
<!-- Node32 -->
<g id="node32" class="node"><title>Node32</title>
<g id="a_node32"><a xlink:href="structid_reg_entry.html" target="_top" xlink:title="idRegEntry">
<polygon fill="white" stroke="black" points="477.5,-1115.5 477.5,-1134.5 542.5,-1134.5 542.5,-1115.5 477.5,-1115.5"/>
<text text-anchor="middle" x="510" y="-1122.5" font-family="Arial" font-size="10.00">idRegEntry</text>
</a>
</g>
</g>
<!-- Node32&#45;&gt;Node8 -->
<g id="edge45" class="edge"><title>Node32&#45;&gt;Node8</title>
<path fill="none" stroke="#9a32cd" stroke-dasharray="5,2" d="M552.796,-1125.41C598.539,-1124.91 667.811,-1121.07 686,-1103 693.925,-1095.13 735.47,-738.753 742.872,-674.781"/>
<polygon fill="#9a32cd" stroke="#9a32cd" points="552.549,-1121.91 542.57,-1125.47 552.59,-1128.91 552.549,-1121.91"/>
<text text-anchor="middle" x="641" y="-1126" font-family="Arial" font-size="10.00"> RegisterVars</text>
</g>
<!-- Node33 -->
<g id="node33" class="node"><title>Node33</title>
<g id="a_node33"><a xlink:href="classid_list.html" target="_top" xlink:title="idList\&lt; rvNamedEvent * \&gt;">
<polygon fill="white" stroke="black" points="447,-910.5 447,-929.5 573,-929.5 573,-910.5 447,-910.5"/>
<text text-anchor="middle" x="510" y="-917.5" font-family="Arial" font-size="10.00">idList&lt; rvNamedEvent * &gt;</text>
</a>
</g>
</g>
<!-- Node33&#45;&gt;Node8 -->
<g id="edge47" class="edge"><title>Node33&#45;&gt;Node8</title>
<path fill="none" stroke="#9a32cd" stroke-dasharray="5,2" d="M571.138,-908.481C620.06,-898.869 681.698,-886.103 686,-882 717.112,-852.327 737.658,-712.781 742.758,-674.65"/>
<polygon fill="#9a32cd" stroke="#9a32cd" points="570.373,-905.065 561.231,-910.419 571.717,-911.934 570.373,-905.065"/>
<text text-anchor="middle" x="641" y="-905" font-family="Arial" font-size="10.00"> namedEvents</text>
</g>
<!-- Node34&#45;&gt;Node1 -->
<g id="edge57" class="edge"><title>Node34&#45;&gt;Node1</title>
<path fill="none" stroke="#9a32cd" stroke-dasharray="5,2" d="M787.411,-8.63098C807.203,-10.2547 829.65,-15.8151 844,-31 899.235,-89.4508 905.265,-364.134 905.921,-419.327"/>
<polygon fill="#9a32cd" stroke="#9a32cd" points="787.527,-5.13241 777.359,-8.11061 787.165,-12.123 787.527,-5.13241"/>
<text text-anchor="middle" x="824" y="-34" font-family="Arial" font-size="10.00"> shear</text>
</g>
</g>
</svg>
