<?xml version="1.0" encoding="UTF-8" standalone="no"?>
<!DOCTYPE svg PUBLIC "-//W3C//DTD SVG 1.1//EN"
 "http://www.w3.org/Graphics/SVG/1.1/DTD/svg11.dtd">
<!-- Generated by graphviz version 2.34.0 (20130907.0111)
 -->
<!-- Title: idAnimGroup Pages: 1 -->
<svg width="141pt" height="96pt"
 viewBox="0.00 0.00 141.00 96.00" xmlns="http://www.w3.org/2000/svg" xmlns:xlink="http://www.w3.org/1999/xlink">
<g id="graph0" class="graph" transform="scale(1 1) rotate(0) translate(4 92)">
<title>idAnimGroup</title>
<polygon fill="white" stroke="white" points="-4,4 -4,-92 137,-92 137,4 -4,4"/>
<!-- Node1 -->
<g id="node1" class="node"><title>Node1</title>
<polygon fill="#bfbfbf" stroke="black" points="40.5,-0.5 40.5,-19.5 113.5,-19.5 113.5,-0.5 40.5,-0.5"/>
<text text-anchor="middle" x="77" y="-7.5" font-family="Arial" font-size="10.00">idAnimGroup</text>
</g>
<!-- Node2 -->
<g id="node2" class="node"><title>Node2</title>
<g id="a_node2"><a xlink:href="classid_list.html" target="_top" xlink:title="idList\&lt; idStr \&gt;">
<polygon fill="white" stroke="black" points="0,-68.5 0,-87.5 78,-87.5 78,-68.5 0,-68.5"/>
<text text-anchor="middle" x="39" y="-75.5" font-family="Arial" font-size="10.00">idList&lt; idStr &gt;</text>
</a>
</g>
</g>
<!-- Node2&#45;&gt;Node1 -->
<g id="edge1" class="edge"><title>Node2&#45;&gt;Node1</title>
<path fill="none" stroke="#9a32cd" stroke-dasharray="5,2" d="M49.0395,-59.563C56.3985,-46.7815 66.0837,-29.9599 71.9097,-19.8411"/>
<polygon fill="#9a32cd" stroke="#9a32cd" points="45.9243,-57.959 43.9678,-68.3717 51.9907,-61.4518 45.9243,-57.959"/>
<text text-anchor="middle" x="75.5" y="-41.5" font-family="Arial" font-size="10.00"> joints</text>
</g>
<!-- Node3 -->
<g id="node3" class="node"><title>Node3</title>
<g id="a_node3"><a xlink:href="classid_str.html" target="_top" xlink:title="idStr">
<polygon fill="white" stroke="black" points="96.5,-68.5 96.5,-87.5 133.5,-87.5 133.5,-68.5 96.5,-68.5"/>
<text text-anchor="middle" x="115" y="-75.5" font-family="Arial" font-size="10.00">idStr</text>
</a>
</g>
</g>
<!-- Node3&#45;&gt;Node1 -->
<g id="edge2" class="edge"><title>Node3&#45;&gt;Node1</title>
<path fill="none" stroke="#9a32cd" stroke-dasharray="5,2" d="M105.165,-59.3787C101.392,-52.6685 97.0265,-44.9631 93,-38 89.5087,-31.9624 85.5087,-25.2124 82.3815,-19.9718"/>
<polygon fill="#9a32cd" stroke="#9a32cd" points="102.219,-61.2815 110.16,-68.2955 108.326,-57.8605 102.219,-61.2815"/>
<text text-anchor="middle" x="114" y="-41.5" font-family="Arial" font-size="10.00"> name</text>
</g>
</g>
</svg>
