<?xml version="1.0" encoding="UTF-8" standalone="no"?>
<!DOCTYPE svg PUBLIC "-//W3C//DTD SVG 1.1//EN"
 "http://www.w3.org/Graphics/SVG/1.1/DTD/svg11.dtd">
<!-- Generated by graphviz version 2.34.0 (20130907.0111)
 -->
<!-- Title: idExportMesh Pages: 1 -->
<svg width="288pt" height="180pt"
 viewBox="0.00 0.00 288.00 180.00" xmlns="http://www.w3.org/2000/svg" xmlns:xlink="http://www.w3.org/1999/xlink">
<g id="graph0" class="graph" transform="scale(1 1) rotate(0) translate(4 176)">
<title>idExportMesh</title>
<polygon fill="white" stroke="white" points="-4,4 -4,-176 284,-176 284,4 -4,4"/>
<!-- Node1 -->
<g id="node1" class="node"><title>Node1</title>
<polygon fill="#bfbfbf" stroke="black" points="202.5,-76.5 202.5,-95.5 279.5,-95.5 279.5,-76.5 202.5,-76.5"/>
<text text-anchor="middle" x="241" y="-83.5" font-family="Arial" font-size="10.00">idExportMesh</text>
</g>
<!-- Node2 -->
<g id="node2" class="node"><title>Node2</title>
<g id="a_node2"><a xlink:href="classid_str.html" target="_top" xlink:title="idStr">
<polygon fill="white" stroke="black" points="45.5,-152.5 45.5,-171.5 82.5,-171.5 82.5,-152.5 45.5,-152.5"/>
<text text-anchor="middle" x="64" y="-159.5" font-family="Arial" font-size="10.00">idStr</text>
</a>
</g>
</g>
<!-- Node2&#45;&gt;Node1 -->
<g id="edge1" class="edge"><title>Node2&#45;&gt;Node1</title>
<path fill="none" stroke="#9a32cd" stroke-dasharray="5,2" d="M92.3568,-155.488C117.071,-149.04 154.051,-137.967 184,-123 199.635,-115.186 216.174,-103.826 227.19,-95.7585"/>
<polygon fill="#9a32cd" stroke="#9a32cd" points="91.4071,-152.118 82.5724,-157.966 93.1257,-158.904 91.4071,-152.118"/>
<text text-anchor="middle" x="165" y="-153" font-family="Arial" font-size="10.00"> shader</text>
<text text-anchor="middle" x="165" y="-142" font-family="Arial" font-size="10.00">name</text>
</g>
<!-- Node3 -->
<g id="node3" class="node"><title>Node3</title>
<g id="a_node3"><a xlink:href="classid_list.html" target="_top" xlink:title="idList\&lt; exportTriangle_t \&gt;">
<polygon fill="white" stroke="black" points="0.5,-114.5 0.5,-133.5 127.5,-133.5 127.5,-114.5 0.5,-114.5"/>
<text text-anchor="middle" x="64" y="-121.5" font-family="Arial" font-size="10.00">idList&lt; exportTriangle_t &gt;</text>
</a>
</g>
</g>
<!-- Node3&#45;&gt;Node1 -->
<g id="edge2" class="edge"><title>Node3&#45;&gt;Node1</title>
<path fill="none" stroke="#9a32cd" stroke-dasharray="5,2" d="M128.323,-112.623C146.367,-109.148 166.006,-105.143 184,-101 191.16,-99.3513 198.79,-97.4232 206.04,-95.509"/>
<polygon fill="#9a32cd" stroke="#9a32cd" points="127.653,-109.188 118.484,-114.497 128.962,-116.065 127.653,-109.188"/>
<text text-anchor="middle" x="165" y="-111" font-family="Arial" font-size="10.00"> tris</text>
</g>
<!-- Node4 -->
<g id="node4" class="node"><title>Node4</title>
<g id="a_node4"><a xlink:href="classid_list.html" target="_top" xlink:title="idList\&lt; exportVertex_t \&gt;">
<polygon fill="white" stroke="black" points="3,-76.5 3,-95.5 125,-95.5 125,-76.5 3,-76.5"/>
<text text-anchor="middle" x="64" y="-83.5" font-family="Arial" font-size="10.00">idList&lt; exportVertex_t &gt;</text>
</a>
</g>
</g>
<!-- Node4&#45;&gt;Node1 -->
<g id="edge3" class="edge"><title>Node4&#45;&gt;Node1</title>
<path fill="none" stroke="#9a32cd" stroke-dasharray="5,2" d="M135.279,-86C158.217,-86 182.8,-86 202.379,-86"/>
<polygon fill="#9a32cd" stroke="#9a32cd" points="135.225,-82.5001 125.225,-86 135.225,-89.5001 135.225,-82.5001"/>
<text text-anchor="middle" x="165" y="-89" font-family="Arial" font-size="10.00"> verts</text>
</g>
<!-- Node5 -->
<g id="node5" class="node"><title>Node5</title>
<g id="a_node5"><a xlink:href="classid_list.html" target="_top" xlink:title="idList\&lt; exportWeight_t \&gt;">
<polygon fill="white" stroke="black" points="2,-38.5 2,-57.5 126,-57.5 126,-38.5 2,-38.5"/>
<text text-anchor="middle" x="64" y="-45.5" font-family="Arial" font-size="10.00">idList&lt; exportWeight_t &gt;</text>
</a>
</g>
</g>
<!-- Node5&#45;&gt;Node1 -->
<g id="edge4" class="edge"><title>Node5&#45;&gt;Node1</title>
<path fill="none" stroke="#9a32cd" stroke-dasharray="5,2" d="M128.323,-59.3765C146.367,-62.8515 166.006,-66.8567 184,-71 191.16,-72.6487 198.79,-74.5768 206.04,-76.491"/>
<polygon fill="#9a32cd" stroke="#9a32cd" points="128.962,-55.9354 118.484,-57.503 127.653,-62.8118 128.962,-55.9354"/>
<text text-anchor="middle" x="165" y="-74" font-family="Arial" font-size="10.00"> weights</text>
</g>
<!-- Node6 -->
<g id="node6" class="node"><title>Node6</title>
<g id="a_node6"><a xlink:href="classid_list.html" target="_top" xlink:title="idList\&lt; exportUV_t \&gt;">
<polygon fill="white" stroke="black" points="10.5,-0.5 10.5,-19.5 117.5,-19.5 117.5,-0.5 10.5,-0.5"/>
<text text-anchor="middle" x="64" y="-7.5" font-family="Arial" font-size="10.00">idList&lt; exportUV_t &gt;</text>
</a>
</g>
</g>
<!-- Node6&#45;&gt;Node1 -->
<g id="edge5" class="edge"><title>Node6&#45;&gt;Node1</title>
<path fill="none" stroke="#9a32cd" stroke-dasharray="5,2" d="M114.78,-22.2234C136.62,-28.5085 162.194,-37.1516 184,-48 199.989,-55.9548 216.734,-67.8597 227.699,-76.2197"/>
<polygon fill="#9a32cd" stroke="#9a32cd" points="115.607,-18.8208 105.035,-19.5022 113.725,-25.5629 115.607,-18.8208"/>
<text text-anchor="middle" x="165" y="-51" font-family="Arial" font-size="10.00"> uv</text>
</g>
</g>
</svg>
