<?xml version="1.0" encoding="UTF-8" standalone="no"?>
<!DOCTYPE svg PUBLIC "-//W3C//DTD SVG 1.1//EN"
 "http://www.w3.org/Graphics/SVG/1.1/DTD/svg11.dtd">
<!-- Generated by graphviz version 2.34.0 (20130907.0111)
 -->
<!-- Title: idCurve_Spline&lt; type &gt; Pages: 1 -->
<!--zoomable 206 -->
<svg id="main" version="1.1" xmlns="http://www.w3.org/2000/svg" xmlns:xlink="http://www.w3.org/1999/xlink" xml:space="preserve" onload="init(evt)">
<style type="text/css"><![CDATA[
.edge:hover path { stroke: red; }
.edge:hover polygon { stroke: red; fill: red; }
]]></style>
<script type="text/javascript"><![CDATA[
var edges = document.getElementsByTagName('g');
if (edges && edges.length) {
  for (var i=0;i<edges.length;i++) {
    if (edges[i].id.substr(0,4)=='edge') {
      edges[i].setAttribute('class','edge');
    }
  }
}
]]></script>
        <defs>
                <circle id="rim" cx="0" cy="0" r="7"/>
                <circle id="rim2" cx="0" cy="0" r="3.5"/>
                <g id="zoomPlus">
                        <use xlink:href="#rim" fill="#404040">
                                <set attributeName="fill" to="#808080" begin="zoomplus.mouseover" end="zoomplus.mouseout"/>
                        </use>
                        <path d="M-4,0h8M0,-4v8" fill="none" stroke="white" stroke-width="1.5" pointer-events="none"/>
                </g>
                <g id="zoomMin">
                        <use xlink:href="#rim" fill="#404040">
                                <set attributeName="fill" to="#808080" begin="zoomminus.mouseover" end="zoomminus.mouseout"/>
                        </use>
                        <path d="M-4,0h8" fill="none" stroke="white" stroke-width="1.5" pointer-events="none"/>
                </g>
                <g id="dirArrow">
                        <path fill="none" stroke="white" stroke-width="1.5" d="M0,-3.0v7 M-2.5,-0.5L0,-3.0L2.5,-0.5"/>
                </g>
               <g id="resetDef">
                       <use xlink:href="#rim2" fill="#404040">
                               <set attributeName="fill" to="#808080" begin="reset.mouseover" end="reset.mouseout"/>
                       </use>
               </g>
        </defs>

<script type="text/javascript">
var viewWidth = 782;
var viewHeight = 206;
var sectionId = 'dynsection-0';
</script>
<script xlink:href="svgpan.js"/>
<svg id="graph" class="graph">
<g id="viewport">
<title>idCurve_Spline&lt; type &gt;</title>
<polygon fill="white" stroke="white" points="-4,4 -4,-202 778,-202 778,4 -4,4"/>
<!-- Node1 -->
<g id="node1" class="node"><title>Node1</title>
<polygon fill="#bfbfbf" stroke="black" points="122.5,-78.5 122.5,-97.5 239.5,-97.5 239.5,-78.5 122.5,-78.5"/>
<text text-anchor="middle" x="181" y="-85.5" font-family="Arial" font-size="10.00">idCurve_Spline&lt; type &gt;</text>
</g>
<!-- Node3 -->
<g id="node3" class="node"><title>Node3</title>
<g id="a_node3"><a xlink:href="classid_curve___b_spline.html" target="_top" xlink:title="idCurve_BSpline\&lt; type \&gt;">
<polygon fill="white" stroke="black" points="292,-147.5 292,-166.5 416,-166.5 416,-147.5 292,-147.5"/>
<text text-anchor="middle" x="354" y="-154.5" font-family="Arial" font-size="10.00">idCurve_BSpline&lt; type &gt;</text>
</a>
</g>
</g>
<!-- Node1&#45;&gt;Node3 -->
<g id="edge2" class="edge"><title>Node1&#45;&gt;Node3</title>
<path fill="none" stroke="midnightblue" d="M206.473,-102.719C225.037,-113.394 251.462,-127.558 276,-137 286.57,-141.067 298.269,-144.581 309.289,-147.478"/>
<polygon fill="midnightblue" stroke="midnightblue" points="208.184,-99.666 197.784,-97.6472 204.655,-105.711 208.184,-99.666"/>
</g>
<!-- Node7 -->
<g id="node7" class="node"><title>Node7</title>
<g id="a_node7"><a xlink:href="classid_curve___catmull_rom_spline.html" target="_top" xlink:title="idCurve_CatmullRomSpline\l\&lt; type \&gt;">
<polygon fill="white" stroke="black" points="287,-98 287,-128 421,-128 421,-98 287,-98"/>
<text text-anchor="start" x="295" y="-116" font-family="Arial" font-size="10.00">idCurve_CatmullRomSpline</text>
<text text-anchor="middle" x="354" y="-105" font-family="Arial" font-size="10.00">&lt; type &gt;</text>
</a>
</g>
</g>
<!-- Node1&#45;&gt;Node7 -->
<g id="edge6" class="edge"><title>Node1&#45;&gt;Node7</title>
<path fill="none" stroke="midnightblue" d="M249.974,-97.9378C262.142,-99.7166 274.804,-101.568 286.918,-103.339"/>
<polygon fill="midnightblue" stroke="midnightblue" points="250.294,-94.4474 239.893,-96.4639 249.281,-101.374 250.294,-94.4474"/>
</g>
<!-- Node8 -->
<g id="node8" class="node"><title>Node8</title>
<g id="a_node8"><a xlink:href="classid_curve___kochanek_bartels_spline.html" target="_top" xlink:title="idCurve_KochanekBartelsSpline\l\&lt; type \&gt;">
<polygon fill="white" stroke="black" points="276.5,-49 276.5,-79 431.5,-79 431.5,-49 276.5,-49"/>
<text text-anchor="start" x="284.5" y="-67" font-family="Arial" font-size="10.00">idCurve_KochanekBartelsSpline</text>
<text text-anchor="middle" x="354" y="-56" font-family="Arial" font-size="10.00">&lt; type &gt;</text>
</a>
</g>
</g>
<!-- Node1&#45;&gt;Node8 -->
<g id="edge7" class="edge"><title>Node1&#45;&gt;Node8</title>
<path fill="none" stroke="midnightblue" d="M249.946,-78.4637C258.628,-77.2452 267.563,-75.9912 276.37,-74.755"/>
<polygon fill="midnightblue" stroke="midnightblue" points="249.309,-75.0187 239.893,-79.8747 250.282,-81.9508 249.309,-75.0187"/>
</g>
<!-- Node9 -->
<g id="node9" class="node"><title>Node9</title>
<g id="a_node9"><a xlink:href="classid_curve___natural_cubic_spline.html" target="_top" xlink:title="idCurve_NaturalCubicSpline\l\&lt; type \&gt;">
<polygon fill="white" stroke="black" points="286,-0 286,-30 422,-30 422,-0 286,-0"/>
<text text-anchor="start" x="294" y="-18" font-family="Arial" font-size="10.00">idCurve_NaturalCubicSpline</text>
<text text-anchor="middle" x="354" y="-7" font-family="Arial" font-size="10.00">&lt; type &gt;</text>
</a>
</g>
</g>
<!-- Node1&#45;&gt;Node9 -->
<g id="edge8" class="edge"><title>Node1&#45;&gt;Node9</title>
<path fill="none" stroke="midnightblue" d="M206.945,-73.4351C225.56,-62.9553 251.841,-48.9683 276,-39 283.766,-35.7955 292.122,-32.7748 300.364,-30.0277"/>
<polygon fill="midnightblue" stroke="midnightblue" points="205.17,-70.4185 198.214,-78.4102 208.635,-76.5004 205.17,-70.4185"/>
</g>
<!-- Node2 -->
<g id="node2" class="node"><title>Node2</title>
<g id="a_node2"><a xlink:href="classid_curve.html" target="_top" xlink:title="idCurve\&lt; type \&gt;">
<polygon fill="white" stroke="black" points="0.5,-78.5 0.5,-97.5 85.5,-97.5 85.5,-78.5 0.5,-78.5"/>
<text text-anchor="middle" x="43" y="-85.5" font-family="Arial" font-size="10.00">idCurve&lt; type &gt;</text>
</a>
</g>
</g>
<!-- Node2&#45;&gt;Node1 -->
<g id="edge1" class="edge"><title>Node2&#45;&gt;Node1</title>
<path fill="none" stroke="midnightblue" d="M95.5479,-88C104.252,-88 113.338,-88 122.188,-88"/>
<polygon fill="midnightblue" stroke="midnightblue" points="95.5435,-84.5001 85.5435,-88 95.5434,-91.5001 95.5435,-84.5001"/>
</g>
<!-- Node4 -->
<g id="node4" class="node"><title>Node4</title>
<g id="a_node4"><a xlink:href="classid_curve___non_uniform_b_spline.html" target="_top" xlink:title="idCurve_NonUniformBSpline\l\&lt; type \&gt;">
<polygon fill="white" stroke="black" points="472.5,-167 472.5,-197 609.5,-197 609.5,-167 472.5,-167"/>
<text text-anchor="start" x="480.5" y="-185" font-family="Arial" font-size="10.00">idCurve_NonUniformBSpline</text>
<text text-anchor="middle" x="541" y="-174" font-family="Arial" font-size="10.00">&lt; type &gt;</text>
</a>
</g>
</g>
<!-- Node3&#45;&gt;Node4 -->
<g id="edge3" class="edge"><title>Node3&#45;&gt;Node4</title>
<path fill="none" stroke="midnightblue" d="M426.381,-166.646C441.46,-168.684 457.331,-170.829 472.271,-172.847"/>
<polygon fill="midnightblue" stroke="midnightblue" points="426.467,-163.126 416.089,-165.255 425.53,-170.063 426.467,-163.126"/>
</g>
<!-- Node6 -->
<g id="node6" class="node"><title>Node6</title>
<g id="a_node6"><a xlink:href="classid_curve___uniform_cubic_b_spline.html" target="_top" xlink:title="idCurve_UniformCubicBSpline\l\&lt; type \&gt;">
<polygon fill="white" stroke="black" points="468.5,-118 468.5,-148 613.5,-148 613.5,-118 468.5,-118"/>
<text text-anchor="start" x="476.5" y="-136" font-family="Arial" font-size="10.00">idCurve_UniformCubicBSpline</text>
<text text-anchor="middle" x="541" y="-125" font-family="Arial" font-size="10.00">&lt; type &gt;</text>
</a>
</g>
</g>
<!-- Node3&#45;&gt;Node6 -->
<g id="edge5" class="edge"><title>Node3&#45;&gt;Node6</title>
<path fill="none" stroke="midnightblue" d="M426.053,-147.782C439.929,-145.982 454.486,-144.094 468.38,-142.291"/>
<polygon fill="midnightblue" stroke="midnightblue" points="425.555,-144.317 416.089,-149.075 426.456,-151.259 425.555,-144.317"/>
</g>
<!-- Node5 -->
<g id="node5" class="node"><title>Node5</title>
<g id="a_node5"><a xlink:href="classid_curve___n_u_r_b_s.html" target="_top" xlink:title="idCurve_NURBS\&lt; type \&gt;">
<polygon fill="white" stroke="black" points="650,-172.5 650,-191.5 774,-191.5 774,-172.5 650,-172.5"/>
<text text-anchor="middle" x="712" y="-179.5" font-family="Arial" font-size="10.00">idCurve_NURBS&lt; type &gt;</text>
</a>
</g>
</g>
<!-- Node4&#45;&gt;Node5 -->
<g id="edge4" class="edge"><title>Node4&#45;&gt;Node5</title>
<path fill="none" stroke="midnightblue" d="M619.768,-182C629.835,-182 640.031,-182 649.778,-182"/>
<polygon fill="midnightblue" stroke="midnightblue" points="619.765,-178.5 609.765,-182 619.765,-185.5 619.765,-178.5"/>
</g>
</g>
</svg>
        <g id="navigator" transform="translate(0 0)" fill="#404254">
                <rect fill="#f2f5e9" fill-opacity="0.5" stroke="#606060" stroke-width=".5" x="0" y="0" width="60" height="60"/>
                <use id="zoomplus" xlink:href="#zoomPlus" x="17" y="9" onmousedown="handleZoom(evt,'in')"/>
                <use id="zoomminus" xlink:href="#zoomMin" x="42" y="9" onmousedown="handleZoom(evt,'out')"/>
                <use id="reset" xlink:href="#resetDef" x="30" y="36" onmousedown="handleReset()"/>
                <g id="arrowUp" xlink:href="#dirArrow" transform="translate(30 24)" onmousedown="handlePan(0,-1)">
                  <use xlink:href="#rim" fill="#404040">
                        <set attributeName="fill" to="#808080" begin="arrowUp.mouseover" end="arrowUp.mouseout"/>
                  </use>
                  <path fill="none" stroke="white" stroke-width="1.5" d="M0,-3.0v7 M-2.5,-0.5L0,-3.0L2.5,-0.5"/>
                </g>
                <g id="arrowRight" xlink:href="#dirArrow" transform="rotate(90) translate(36 -43)" onmousedown="handlePan(1,0)">
                  <use xlink:href="#rim" fill="#404040">
                        <set attributeName="fill" to="#808080" begin="arrowRight.mouseover" end="arrowRight.mouseout"/>
                  </use>
                  <path fill="none" stroke="white" stroke-width="1.5" d="M0,-3.0v7 M-2.5,-0.5L0,-3.0L2.5,-0.5"/>
                </g>
                <g id="arrowDown" xlink:href="#dirArrow" transform="rotate(180) translate(-30 -48)" onmousedown="handlePan(0,1)">
                  <use xlink:href="#rim" fill="#404040">
                        <set attributeName="fill" to="#808080" begin="arrowDown.mouseover" end="arrowDown.mouseout"/>
                  </use>
                  <path fill="none" stroke="white" stroke-width="1.5" d="M0,-3.0v7 M-2.5,-0.5L0,-3.0L2.5,-0.5"/>
                </g>
                <g id="arrowLeft" xlink:href="#dirArrow" transform="rotate(270) translate(-36 17)" onmousedown="handlePan(-1,0)">
                  <use xlink:href="#rim" fill="#404040">
                        <set attributeName="fill" to="#808080" begin="arrowLeft.mouseover" end="arrowLeft.mouseout"/>
                  </use>
                  <path fill="none" stroke="white" stroke-width="1.5" d="M0,-3.0v7 M-2.5,-0.5L0,-3.0L2.5,-0.5"/>
                </g>
        </g>
        <svg viewBox="0 0 15 15" width="100%" height="30px" preserveAspectRatio="xMaxYMin meet">
         <g id="arrow_out" transform="scale(0.3 0.3)">
          <a xlink:href="classid_curve___spline__inherit__graph_org.svg" target="_base">
           <rect id="button" ry="5" rx="5" y="6" x="6" height="38" width="38"
                fill="#f2f5e9" fill-opacity="0.5" stroke="#606060" stroke-width="1.0"/>
           <path id="arrow"
             d="M 11.500037,31.436501 C 11.940474,20.09759 22.043105,11.32322 32.158766,21.979434 L 37.068811,17.246167 C 37.068811,17.246167 37.088388,32 37.088388,32 L 22.160133,31.978069 C 22.160133,31.978069 26.997745,27.140456 26.997745,27.140456 C 18.528582,18.264221 13.291696,25.230495 11.500037,31.436501 z"
             style="fill:#404040;"/>
          </a>
         </g>
        </svg>
</svg>
