<?xml version="1.0" encoding="UTF-8" standalone="no"?>
<!DOCTYPE svg PUBLIC "-//W3C//DTD SVG 1.1//EN"
 "http://www.w3.org/Graphics/SVG/1.1/DTD/svg11.dtd">
<!-- Generated by graphviz version 2.34.0 (20130907.0111)
 -->
<!-- Title: idAASCallback Pages: 1 -->
<svg width="394pt" height="84pt"
 viewBox="0.00 0.00 394.00 84.00" xmlns="http://www.w3.org/2000/svg" xmlns:xlink="http://www.w3.org/1999/xlink">
<g id="graph0" class="graph" transform="scale(1 1) rotate(0) translate(4 80)">
<title>idAASCallback</title>
<polygon fill="white" stroke="white" points="-4,4 -4,-80 390,-80 390,4 -4,4"/>
<!-- Node1 -->
<g id="node1" class="node"><title>Node1</title>
<polygon fill="#bfbfbf" stroke="black" points="177,-56.5 177,-75.5 259,-75.5 259,-56.5 177,-56.5"/>
<text text-anchor="middle" x="218" y="-63.5" font-family="Arial" font-size="10.00">idAASCallback</text>
</g>
<!-- Node2 -->
<g id="node2" class="node"><title>Node2</title>
<g id="a_node2"><a xlink:href="classid_a_a_s_find_area_out_of_range.html" target="_top" xlink:title="idAASFindAreaOutOfRange">
<polygon fill="white" stroke="black" points="-0.5,-0.5 -0.5,-19.5 136.5,-19.5 136.5,-0.5 -0.5,-0.5"/>
<text text-anchor="middle" x="68" y="-7.5" font-family="Arial" font-size="10.00">idAASFindAreaOutOfRange</text>
</a>
</g>
</g>
<!-- Node1&#45;&gt;Node2 -->
<g id="edge1" class="edge"><title>Node1&#45;&gt;Node2</title>
<path fill="none" stroke="midnightblue" d="M179.449,-53.172C149.617,-43.0039 109.77,-28.5852 86.5768,-19.5164"/>
<polygon fill="midnightblue" stroke="midnightblue" points="178.549,-56.5623 189.143,-56.4435 180.787,-49.9298 178.549,-56.5623"/>
</g>
<!-- Node1&#45;&gt;Node2 -->
<g id="edge2" class="edge"><title>Node1&#45;&gt;Node2</title>
<path fill="none" stroke="midnightblue" d="M189.79,-52.772C163.135,-42.6287 123.571,-28.4669 96.7367,-19.5164"/>
<polygon fill="midnightblue" stroke="midnightblue" points="188.731,-56.1146 199.321,-56.4435 191.248,-49.5826 188.731,-56.1146"/>
</g>
<!-- Node3 -->
<g id="node3" class="node"><title>Node3</title>
<g id="a_node3"><a xlink:href="classid_a_a_s_find_attack_position.html" target="_top" xlink:title="idAASFindAttackPosition">
<polygon fill="white" stroke="black" points="154.5,-0.5 154.5,-19.5 281.5,-19.5 281.5,-0.5 154.5,-0.5"/>
<text text-anchor="middle" x="218" y="-7.5" font-family="Arial" font-size="10.00">idAASFindAttackPosition</text>
</a>
</g>
</g>
<!-- Node1&#45;&gt;Node3 -->
<g id="edge3" class="edge"><title>Node1&#45;&gt;Node3</title>
<path fill="none" stroke="midnightblue" d="M211.528,-46.1005C210.896,-37.1357 211.343,-26.8579 212.869,-19.7511"/>
<polygon fill="midnightblue" stroke="midnightblue" points="208.066,-46.6216 212.834,-56.083 215.007,-45.7134 208.066,-46.6216"/>
</g>
<!-- Node1&#45;&gt;Node3 -->
<g id="edge4" class="edge"><title>Node1&#45;&gt;Node3</title>
<path fill="none" stroke="midnightblue" d="M224.472,-46.1005C225.104,-37.1357 224.657,-26.8579 223.131,-19.7511"/>
<polygon fill="midnightblue" stroke="midnightblue" points="220.993,-45.7134 223.166,-56.083 227.934,-46.6216 220.993,-45.7134"/>
</g>
<!-- Node4 -->
<g id="node4" class="node"><title>Node4</title>
<g id="a_node4"><a xlink:href="classid_a_a_s_find_cover.html" target="_top" xlink:title="idAASFindCover">
<polygon fill="white" stroke="black" points="299.5,-0.5 299.5,-19.5 386.5,-19.5 386.5,-0.5 299.5,-0.5"/>
<text text-anchor="middle" x="343" y="-7.5" font-family="Arial" font-size="10.00">idAASFindCover</text>
</a>
</g>
</g>
<!-- Node1&#45;&gt;Node4 -->
<g id="edge5" class="edge"><title>Node1&#45;&gt;Node4</title>
<path fill="none" stroke="midnightblue" d="M242.015,-52.096C263.957,-42.0073 296.015,-28.2697 318.206,-19.5164"/>
<polygon fill="midnightblue" stroke="midnightblue" points="240.294,-49.0372 232.718,-56.4435 243.259,-55.3782 240.294,-49.0372"/>
</g>
<!-- Node1&#45;&gt;Node4 -->
<g id="edge6" class="edge"><title>Node1&#45;&gt;Node4</title>
<path fill="none" stroke="midnightblue" d="M252.393,-52.6377C277.35,-42.504 309.702,-28.4274 328.366,-19.5164"/>
<polygon fill="midnightblue" stroke="midnightblue" points="250.876,-49.4751 242.895,-56.4435 253.48,-55.9729 250.876,-49.4751"/>
</g>
</g>
</svg>
