<?xml version="1.0" encoding="UTF-8" standalone="no"?>
<!DOCTYPE svg PUBLIC "-//W3C//DTD SVG 1.1//EN"
 "http://www.w3.org/Graphics/SVG/1.1/DTD/svg11.dtd">
<!-- Generated by graphviz version 2.34.0 (20130907.0111)
 -->
<!-- Title: idReachability_Fly Pages: 1 -->
<svg width="149pt" height="166pt"
 viewBox="0.00 0.00 149.00 166.00" xmlns="http://www.w3.org/2000/svg" xmlns:xlink="http://www.w3.org/1999/xlink">
<g id="graph0" class="graph" transform="scale(1 1) rotate(0) translate(4 162)">
<title>idReachability_Fly</title>
<polygon fill="white" stroke="white" points="-4,4 -4,-162 145,-162 145,4 -4,4"/>
<!-- Node1 -->
<g id="node1" class="node"><title>Node1</title>
<polygon fill="#bfbfbf" stroke="black" points="0,-0.5 0,-19.5 96,-19.5 96,-0.5 0,-0.5"/>
<text text-anchor="middle" x="48" y="-7.5" font-family="Arial" font-size="10.00">idReachability_Fly</text>
</g>
<!-- Node2 -->
<g id="node2" class="node"><title>Node2</title>
<g id="a_node2"><a xlink:href="classid_reachability.html" target="_top" xlink:title="idReachability">
<polygon fill="white" stroke="black" points="9.5,-59.5 9.5,-78.5 86.5,-78.5 86.5,-59.5 9.5,-59.5"/>
<text text-anchor="middle" x="48" y="-66.5" font-family="Arial" font-size="10.00">idReachability</text>
</a>
</g>
</g>
<!-- Node2&#45;&gt;Node1 -->
<g id="edge1" class="edge"><title>Node2&#45;&gt;Node1</title>
<path fill="none" stroke="midnightblue" d="M48,-48.9331C48,-39.0243 48,-27.4007 48,-19.6571"/>
<polygon fill="midnightblue" stroke="midnightblue" points="44.5001,-49.0937 48,-59.0938 51.5001,-49.0938 44.5001,-49.0937"/>
</g>
<!-- Node2&#45;&gt;Node2 -->
<g id="edge2" class="edge"><title>Node2&#45;&gt;Node2</title>
<path fill="none" stroke="#9a32cd" stroke-dasharray="5,2" d="M96.8716,-73.4488C101.251,-72.5182 104,-71.0352 104,-69 104,-65.6602 96.5967,-63.8076 86.7352,-63.4423"/>
<polygon fill="#9a32cd" stroke="#9a32cd" points="96.2953,-69.9909 86.7352,-74.5577 97.0566,-76.9494 96.2953,-69.9909"/>
<text text-anchor="middle" x="122.5" y="-72" font-family="Arial" font-size="10.00"> next</text>
<text text-anchor="middle" x="122.5" y="-61" font-family="Arial" font-size="10.00">rev_next</text>
</g>
<!-- Node3 -->
<g id="node3" class="node"><title>Node3</title>
<g id="a_node3"><a xlink:href="classid_vec3.html" target="_top" xlink:title="idVec3">
<polygon fill="white" stroke="black" points="24.5,-138.5 24.5,-157.5 71.5,-157.5 71.5,-138.5 24.5,-138.5"/>
<text text-anchor="middle" x="48" y="-145.5" font-family="Arial" font-size="10.00">idVec3</text>
</a>
</g>
</g>
<!-- Node3&#45;&gt;Node2 -->
<g id="edge3" class="edge"><title>Node3&#45;&gt;Node2</title>
<path fill="none" stroke="#9a32cd" stroke-dasharray="5,2" d="M48,-128.315C48,-112.592 48,-90.8079 48,-78.8094"/>
<polygon fill="#9a32cd" stroke="#9a32cd" points="44.5001,-128.465 48,-138.465 51.5001,-128.465 44.5001,-128.465"/>
<text text-anchor="middle" x="58" y="-112" font-family="Arial" font-size="10.00"> end</text>
<text text-anchor="middle" x="58" y="-101" font-family="Arial" font-size="10.00">start</text>
</g>
</g>
</svg>
