<?xml version="1.0" encoding="UTF-8" standalone="no"?>
<!DOCTYPE svg PUBLIC "-//W3C//DTD SVG 1.1//EN"
 "http://www.w3.org/Graphics/SVG/1.1/DTD/svg11.dtd">
<!-- Generated by graphviz version 2.34.0 (20130907.0111)
 -->
<!-- Title: idGuiScript Pages: 1 -->
<svg width="218pt" height="106pt"
 viewBox="0.00 0.00 218.00 106.00" xmlns="http://www.w3.org/2000/svg" xmlns:xlink="http://www.w3.org/1999/xlink">
<g id="graph0" class="graph" transform="scale(1 1) rotate(0) translate(4 102)">
<title>idGuiScript</title>
<polygon fill="white" stroke="white" points="-4,4 -4,-102 214,-102 214,4 -4,4"/>
<!-- Node1 -->
<g id="node1" class="node"><title>Node1</title>
<polygon fill="#bfbfbf" stroke="black" points="80.5,-0.5 80.5,-19.5 145.5,-19.5 145.5,-0.5 80.5,-0.5"/>
<text text-anchor="middle" x="113" y="-7.5" font-family="Arial" font-size="10.00">idGuiScript</text>
</g>
<!-- Node2 -->
<g id="node2" class="node"><title>Node2</title>
<g id="a_node2"><a xlink:href="classid_list.html" target="_top" xlink:title="idList\&lt; idGSWinVar \&gt;">
<polygon fill="white" stroke="black" points="0,-78.5 0,-97.5 112,-97.5 112,-78.5 0,-78.5"/>
<text text-anchor="middle" x="56" y="-85.5" font-family="Arial" font-size="10.00">idList&lt; idGSWinVar &gt;</text>
</a>
</g>
</g>
<!-- Node2&#45;&gt;Node1 -->
<g id="edge1" class="edge"><title>Node2&#45;&gt;Node1</title>
<path fill="none" stroke="#9a32cd" stroke-dasharray="5,2" d="M68.7458,-70.0056C80.473,-54.3693 97.3894,-31.8142 106.538,-19.6165"/>
<polygon fill="#9a32cd" stroke="#9a32cd" points="65.7387,-68.1818 62.5386,-78.2818 71.3387,-72.3818 65.7387,-68.1818"/>
<text text-anchor="middle" x="107.5" y="-46.5" font-family="Arial" font-size="10.00"> parms</text>
</g>
<!-- Node3 -->
<g id="node3" class="node"><title>Node3</title>
<g id="a_node3"><a xlink:href="classid_gui_script_list.html" target="_top" xlink:title="idGuiScriptList">
<polygon fill="white" stroke="black" points="130,-78.5 130,-97.5 210,-97.5 210,-78.5 130,-78.5"/>
<text text-anchor="middle" x="170" y="-85.5" font-family="Arial" font-size="10.00">idGuiScriptList</text>
</a>
</g>
</g>
<!-- Node3&#45;&gt;Node1 -->
<g id="edge2" class="edge"><title>Node3&#45;&gt;Node1</title>
<path fill="none" stroke="#9a32cd" stroke-dasharray="5,2" d="M157.254,-70.0056C145.527,-54.3693 128.611,-31.8142 119.462,-19.6165"/>
<polygon fill="#9a32cd" stroke="#9a32cd" points="154.661,-72.3818 163.461,-78.2818 160.261,-68.1818 154.661,-72.3818"/>
<text text-anchor="middle" x="166.5" y="-52" font-family="Arial" font-size="10.00"> elseList</text>
<text text-anchor="middle" x="166.5" y="-41" font-family="Arial" font-size="10.00">ifList</text>
</g>
</g>
</svg>
