<?xml version="1.0" encoding="UTF-8" standalone="no"?>
<!DOCTYPE svg PUBLIC "-//W3C//DTD SVG 1.1//EN"
 "http://www.w3.org/Graphics/SVG/1.1/DTD/svg11.dtd">
<!-- Generated by graphviz version 2.34.0 (20130907.0111)
 -->
<!-- Title: rvGEStateModifier Pages: 1 -->
<!--zoomable 1196 -->
<svg id="main" version="1.1" xmlns="http://www.w3.org/2000/svg" xmlns:xlink="http://www.w3.org/1999/xlink" xml:space="preserve" onload="init(evt)">
<style type="text/css"><![CDATA[
.edge:hover path { stroke: red; }
.edge:hover polygon { stroke: red; fill: red; }
]]></style>
<script type="text/javascript"><![CDATA[
var edges = document.getElementsByTagName('g');
if (edges && edges.length) {
  for (var i=0;i<edges.length;i++) {
    if (edges[i].id.substr(0,4)=='edge') {
      edges[i].setAttribute('class','edge');
    }
  }
}
]]></script>
        <defs>
                <circle id="rim" cx="0" cy="0" r="7"/>
                <circle id="rim2" cx="0" cy="0" r="3.5"/>
                <g id="zoomPlus">
                        <use xlink:href="#rim" fill="#404040">
                                <set attributeName="fill" to="#808080" begin="zoomplus.mouseover" end="zoomplus.mouseout"/>
                        </use>
                        <path d="M-4,0h8M0,-4v8" fill="none" stroke="white" stroke-width="1.5" pointer-events="none"/>
                </g>
                <g id="zoomMin">
                        <use xlink:href="#rim" fill="#404040">
                                <set attributeName="fill" to="#808080" begin="zoomminus.mouseover" end="zoomminus.mouseout"/>
                        </use>
                        <path d="M-4,0h8" fill="none" stroke="white" stroke-width="1.5" pointer-events="none"/>
                </g>
                <g id="dirArrow">
                        <path fill="none" stroke="white" stroke-width="1.5" d="M0,-3.0v7 M-2.5,-0.5L0,-3.0L2.5,-0.5"/>
                </g>
               <g id="resetDef">
                       <use xlink:href="#rim2" fill="#404040">
                               <set attributeName="fill" to="#808080" begin="reset.mouseover" end="reset.mouseout"/>
                       </use>
               </g>
        </defs>

<script type="text/javascript">
var viewWidth = 1256;
var viewHeight = 1196;
var sectionId = 'dynsection-1';
</script>
<script xlink:href="svgpan.js"/>
<svg id="graph" class="graph">
<g id="viewport">
<title>rvGEStateModifier</title>
<polygon fill="white" stroke="white" points="-4,4 -4,-1192 1252,-1192 1252,4 -4,4"/>
<!-- Node1 -->
<g id="node1" class="node"><title>Node1</title>
<polygon fill="#bfbfbf" stroke="black" points="1152.5,-89.5 1152.5,-108.5 1247.5,-108.5 1247.5,-89.5 1152.5,-89.5"/>
<text text-anchor="middle" x="1200" y="-96.5" font-family="Arial" font-size="10.00">rvGEStateModifier</text>
</g>
<!-- Node2 -->
<g id="node2" class="node"><title>Node2</title>
<g id="a_node2"><a xlink:href="classrv_g_e_modifier.html" target="_top" xlink:title="rvGEModifier">
<polygon fill="white" stroke="black" points="1042.5,-361.5 1042.5,-380.5 1113.5,-380.5 1113.5,-361.5 1042.5,-361.5"/>
<text text-anchor="middle" x="1078" y="-368.5" font-family="Arial" font-size="10.00">rvGEModifier</text>
</a>
</g>
</g>
<!-- Node2&#45;&gt;Node1 -->
<g id="edge1" class="edge"><title>Node2&#45;&gt;Node1</title>
<path fill="none" stroke="midnightblue" d="M1087.39,-351.972C1111,-298.463 1177.38,-148.006 1194.78,-108.565"/>
<polygon fill="midnightblue" stroke="midnightblue" points="1084.11,-350.757 1083.27,-361.319 1090.51,-353.583 1084.11,-350.757"/>
</g>
<!-- Node3 -->
<g id="node3" class="node"><title>Node3</title>
<g id="a_node3"><a xlink:href="classid_str.html" target="_top" xlink:title="idStr">
<polygon fill="white" stroke="black" points="145.5,-918.5 145.5,-937.5 182.5,-937.5 182.5,-918.5 145.5,-918.5"/>
<text text-anchor="middle" x="164" y="-925.5" font-family="Arial" font-size="10.00">idStr</text>
</a>
</g>
</g>
<!-- Node3&#45;&gt;Node2 -->
<g id="edge2" class="edge"><title>Node3&#45;&gt;Node2</title>
<path fill="none" stroke="#9a32cd" stroke-dasharray="5,2" d="M165.749,-948.034C169.13,-1007.19 187.742,-1177 290,-1177 290,-1177 290,-1177 902,-1177 1073.47,-1177 1077.27,-471.55 1077.05,-380.613"/>
<polygon fill="#9a32cd" stroke="#9a32cd" points="169.231,-947.582 165.255,-937.761 162.239,-947.918 169.231,-947.582"/>
<text text-anchor="middle" x="641" y="-1180" font-family="Arial" font-size="10.00"> mName</text>
</g>
<!-- Node4 -->
<g id="node4" class="node"><title>Node4</title>
<g id="a_node4"><a xlink:href="classid_window.html" target="_top" xlink:title="idWindow">
<polygon fill="white" stroke="black" points="704.5,-569.5 704.5,-588.5 763.5,-588.5 763.5,-569.5 704.5,-569.5"/>
<text text-anchor="middle" x="734" y="-576.5" font-family="Arial" font-size="10.00">idWindow</text>
</a>
</g>
</g>
<!-- Node3&#45;&gt;Node4 -->
<g id="edge11" class="edge"><title>Node3&#45;&gt;Node4</title>
<path fill="none" stroke="#9a32cd" stroke-dasharray="5,2" d="M193.156,-932.337C198.725,-933.03 204.537,-933.637 210,-934 264.103,-937.591 277.778,-934.077 332,-934 410.667,-933.889 626.9,-984.92 686,-933 712.724,-909.523 729.306,-643.635 732.452,-588.84"/>
<polygon fill="#9a32cd" stroke="#9a32cd" points="193.282,-928.822 182.901,-930.941 192.338,-935.758 193.282,-928.822"/>
<text text-anchor="middle" x="387" y="-967" font-family="Arial" font-size="10.00"> comment</text>
<text text-anchor="middle" x="387" y="-956" font-family="Arial" font-size="10.00">cmd</text>
<text text-anchor="middle" x="387" y="-945" font-family="Arial" font-size="10.00">name</text>
</g>
<!-- Node12 -->
<g id="node12" class="node"><title>Node12</title>
<g id="a_node12"><a xlink:href="classid_win_str.html" target="_top" xlink:title="idWinStr">
<polygon fill="white" stroke="black" points="264,-745.5 264,-764.5 318,-764.5 318,-745.5 264,-745.5"/>
<text text-anchor="middle" x="291" y="-752.5" font-family="Arial" font-size="10.00">idWinStr</text>
</a>
</g>
</g>
<!-- Node3&#45;&gt;Node12 -->
<g id="edge16" class="edge"><title>Node3&#45;&gt;Node12</title>
<path fill="none" stroke="#9a32cd" stroke-dasharray="5,2" d="M177.798,-910.287C203.938,-874.11 262.7,-792.784 282.969,-764.731"/>
<polygon fill="#9a32cd" stroke="#9a32cd" points="174.918,-908.297 171.899,-918.452 180.592,-912.397 174.918,-908.297"/>
<text text-anchor="middle" x="221" y="-865" font-family="Arial" font-size="10.00"> data</text>
</g>
<!-- Node18 -->
<g id="node18" class="node"><title>Node18</title>
<g id="a_node18"><a xlink:href="classid_win_background.html" target="_top" xlink:title="idWinBackground">
<polygon fill="white" stroke="black" points="463.5,-785.5 463.5,-804.5 556.5,-804.5 556.5,-785.5 463.5,-785.5"/>
<text text-anchor="middle" x="510" y="-792.5" font-family="Arial" font-size="10.00">idWinBackground</text>
</a>
</g>
</g>
<!-- Node3&#45;&gt;Node18 -->
<g id="edge26" class="edge"><title>Node3&#45;&gt;Node18</title>
<path fill="none" stroke="#9a32cd" stroke-dasharray="5,2" d="M192.836,-925.649C257.979,-920.03 415.508,-905.715 424,-898 452.259,-872.325 415.897,-841.864 442,-814 447.786,-807.823 455.418,-803.604 463.452,-800.733"/>
<polygon fill="#9a32cd" stroke="#9a32cd" points="192.169,-922.193 182.504,-926.534 192.766,-929.168 192.169,-922.193"/>
<text text-anchor="middle" x="291" y="-923" font-family="Arial" font-size="10.00"> data</text>
</g>
<!-- Node4&#45;&gt;Node2 -->
<g id="edge3" class="edge"><title>Node4&#45;&gt;Node2</title>
<path fill="none" stroke="#9a32cd" stroke-dasharray="5,2" d="M759.587,-564.047C825.736,-523.816 1006.19,-414.068 1061,-380.732"/>
<polygon fill="#9a32cd" stroke="#9a32cd" points="757.762,-561.06 751.037,-569.247 761.399,-567.041 757.762,-561.06"/>
<text text-anchor="middle" x="901" y="-512" font-family="Arial" font-size="10.00"> mWindow</text>
</g>
<!-- Node4&#45;&gt;Node4 -->
<g id="edge13" class="edge"><title>Node4&#45;&gt;Node4</title>
<path fill="none" stroke="#9a32cd" stroke-dasharray="5,2" d="M721.109,-598.766C722.122,-603.497 726.419,-607 734,-607 746.441,-607 750.038,-597.565 744.789,-588.757"/>
<polygon fill="#9a32cd" stroke="#9a32cd" points="724.581,-599.263 723.211,-588.757 717.73,-597.824 724.581,-599.263"/>
<text text-anchor="middle" x="734" y="-643" font-family="Arial" font-size="10.00"> captureChild</text>
<text text-anchor="middle" x="734" y="-632" font-family="Arial" font-size="10.00">overChild</text>
<text text-anchor="middle" x="734" y="-621" font-family="Arial" font-size="10.00">parent</text>
<text text-anchor="middle" x="734" y="-610" font-family="Arial" font-size="10.00">focusedChild</text>
</g>
<!-- Node35 -->
<g id="node35" class="node"><title>Node35</title>
<g id="a_node35"><a xlink:href="classrv_g_e_window_wrapper.html" target="_top" xlink:title="rvGEWindowWrapper">
<polygon fill="white" stroke="black" points="846.5,-287.5 846.5,-306.5 955.5,-306.5 955.5,-287.5 846.5,-287.5"/>
<text text-anchor="middle" x="901" y="-294.5" font-family="Arial" font-size="10.00">rvGEWindowWrapper</text>
</a>
</g>
</g>
<!-- Node4&#45;&gt;Node35 -->
<g id="edge48" class="edge"><title>Node4&#45;&gt;Node35</title>
<path fill="none" stroke="#9a32cd" stroke-dasharray="5,2" d="M736.467,-559.186C739.804,-524.671 750.313,-452.307 782,-401 808.546,-358.018 858.348,-322.846 883.931,-306.643"/>
<polygon fill="#9a32cd" stroke="#9a32cd" points="732.963,-559.092 735.591,-569.355 739.937,-559.693 732.963,-559.092"/>
<text text-anchor="middle" x="805" y="-404" font-family="Arial" font-size="10.00"> mWindow</text>
</g>
<!-- Node5 -->
<g id="node5" class="node"><title>Node5</title>
<g id="a_node5"><a xlink:href="classid_device_context.html" target="_top" xlink:title="idDeviceContext">
<polygon fill="white" stroke="black" points="467,-899.5 467,-918.5 553,-918.5 553,-899.5 467,-899.5"/>
<text text-anchor="middle" x="510" y="-906.5" font-family="Arial" font-size="10.00">idDeviceContext</text>
</a>
</g>
</g>
<!-- Node5&#45;&gt;Node4 -->
<g id="edge4" class="edge"><title>Node5&#45;&gt;Node4</title>
<path fill="none" stroke="#9a32cd" stroke-dasharray="5,2" d="M563.134,-918.334C602.146,-922.104 654.068,-919.782 686,-889 730.383,-846.216 733.021,-636.468 733.04,-588.696"/>
<polygon fill="#9a32cd" stroke="#9a32cd" points="563.338,-914.835 553.009,-917.193 562.554,-921.791 563.338,-914.835"/>
<text text-anchor="middle" x="641" y="-922" font-family="Arial" font-size="10.00"> dc</text>
</g>
<!-- Node6 -->
<g id="node6" class="node"><title>Node6</title>
<g id="a_node6"><a xlink:href="classid_vec4.html" target="_top" xlink:title="idVec4">
<polygon fill="white" stroke="black" points="267.5,-688.5 267.5,-707.5 314.5,-707.5 314.5,-688.5 267.5,-688.5"/>
<text text-anchor="middle" x="291" y="-695.5" font-family="Arial" font-size="10.00">idVec4</text>
</a>
</g>
</g>
<!-- Node6&#45;&gt;Node5 -->
<g id="edge5" class="edge"><title>Node6&#45;&gt;Node5</title>
<path fill="none" stroke="#9a32cd" stroke-dasharray="5,2" d="M311.301,-714.472C318.22,-720.842 325.828,-728.418 332,-736 341.577,-747.764 340.015,-753.58 350,-765 378.055,-797.088 400.721,-790.296 424,-826 440.138,-850.752 421.129,-869.084 442,-890 448.747,-896.761 457.71,-901.159 466.879,-904.008"/>
<polygon fill="#9a32cd" stroke="#9a32cd" points="313.415,-711.667 303.623,-707.62 308.754,-716.89 313.415,-711.667"/>
<text text-anchor="middle" x="387" y="-917" font-family="Arial" font-size="10.00"> colorRed</text>
<text text-anchor="middle" x="387" y="-906" font-family="Arial" font-size="10.00">colorNone</text>
<text text-anchor="middle" x="387" y="-895" font-family="Arial" font-size="10.00">colorYellow</text>
<text text-anchor="middle" x="387" y="-884" font-family="Arial" font-size="10.00">colorPurple</text>
<text text-anchor="middle" x="387" y="-873" font-family="Arial" font-size="10.00">colorBlue</text>
<text text-anchor="middle" x="387" y="-862" font-family="Arial" font-size="10.00">colorWhite</text>
<text text-anchor="middle" x="387" y="-851" font-family="Arial" font-size="10.00">colorGreen</text>
<text text-anchor="middle" x="387" y="-840" font-family="Arial" font-size="10.00">colorOrange</text>
<text text-anchor="middle" x="387" y="-829" font-family="Arial" font-size="10.00">colorBlack</text>
</g>
<!-- Node7 -->
<g id="node7" class="node"><title>Node7</title>
<g id="a_node7"><a xlink:href="classid_win_vec4.html" target="_top" xlink:title="idWinVec4">
<polygon fill="white" stroke="black" points="478,-662.5 478,-681.5 542,-681.5 542,-662.5 478,-662.5"/>
<text text-anchor="middle" x="510" y="-669.5" font-family="Arial" font-size="10.00">idWinVec4</text>
</a>
</g>
</g>
<!-- Node6&#45;&gt;Node7 -->
<g id="edge9" class="edge"><title>Node6&#45;&gt;Node7</title>
<path fill="none" stroke="#9a32cd" stroke-dasharray="5,2" d="M324.236,-686.428C332.531,-683.886 341.513,-681.506 350,-680 393.951,-672.202 445.727,-671.059 477.964,-671.278"/>
<polygon fill="#9a32cd" stroke="#9a32cd" points="322.978,-683.156 314.538,-689.561 325.13,-689.817 322.978,-683.156"/>
<text text-anchor="middle" x="387" y="-683" font-family="Arial" font-size="10.00"> data</text>
</g>
<!-- Node7&#45;&gt;Node4 -->
<g id="edge6" class="edge"><title>Node7&#45;&gt;Node4</title>
<path fill="none" stroke="#9a32cd" stroke-dasharray="5,2" d="M551.974,-662.294C560.72,-659.696 569.791,-656.592 578,-653 586.589,-649.242 587.362,-645.646 596,-642 634.037,-625.946 649.335,-637.979 686,-619 701.035,-611.218 715.414,-597.805 724.22,-588.676"/>
<polygon fill="#9a32cd" stroke="#9a32cd" points="550.982,-658.938 542.301,-665.012 552.875,-665.677 550.982,-658.938"/>
<text text-anchor="middle" x="641" y="-689" font-family="Arial" font-size="10.00"> foreColor</text>
<text text-anchor="middle" x="641" y="-678" font-family="Arial" font-size="10.00">matColor</text>
<text text-anchor="middle" x="641" y="-667" font-family="Arial" font-size="10.00">hoverColor</text>
<text text-anchor="middle" x="641" y="-656" font-family="Arial" font-size="10.00">borderColor</text>
<text text-anchor="middle" x="641" y="-645" font-family="Arial" font-size="10.00">backColor</text>
</g>
<!-- Node8 -->
<g id="node8" class="node"><title>Node8</title>
<g id="a_node8"><a xlink:href="classid_win_var.html" target="_top" xlink:title="idWinVar">
<polygon fill="white" stroke="black" points="136,-155.5 136,-174.5 192,-174.5 192,-155.5 136,-155.5"/>
<text text-anchor="middle" x="164" y="-162.5" font-family="Arial" font-size="10.00">idWinVar</text>
</a>
</g>
</g>
<!-- Node8&#45;&gt;Node7 -->
<g id="edge7" class="edge"><title>Node8&#45;&gt;Node7</title>
<path fill="none" stroke="midnightblue" d="M170.605,-184.187C182.416,-223.304 211.94,-314.526 250,-385 319.626,-513.924 322.132,-568.733 442,-653 452.485,-660.371 465.774,-664.895 477.747,-667.666"/>
<polygon fill="midnightblue" stroke="midnightblue" points="173.958,-183.182 167.751,-174.596 167.248,-185.179 173.958,-183.182"/>
</g>
<!-- Node8&#45;&gt;Node12 -->
<g id="edge15" class="edge"><title>Node8&#45;&gt;Node12</title>
<path fill="none" stroke="midnightblue" d="M166.031,-184.805C169.369,-244.234 181.369,-426.061 210,-574 222.539,-638.793 215.963,-660.46 250,-717 256.817,-728.325 267.908,-738.482 276.684,-745.44"/>
<polygon fill="midnightblue" stroke="midnightblue" points="169.514,-184.393 165.476,-174.598 162.524,-184.773 169.514,-184.393"/>
</g>
<!-- Node13 -->
<g id="node13" class="node"><title>Node13</title>
<g id="a_node13"><a xlink:href="classid_win_rectangle.html" target="_top" xlink:title="idWinRectangle">
<polygon fill="white" stroke="black" points="467.5,-356.5 467.5,-375.5 552.5,-375.5 552.5,-356.5 467.5,-356.5"/>
<text text-anchor="middle" x="510" y="-363.5" font-family="Arial" font-size="10.00">idWinRectangle</text>
</a>
</g>
</g>
<!-- Node8&#45;&gt;Node13 -->
<g id="edge18" class="edge"><title>Node8&#45;&gt;Node13</title>
<path fill="none" stroke="midnightblue" d="M184.45,-180.854C228.003,-215.638 337.745,-299.336 442,-347 450.137,-350.72 459.168,-353.877 467.897,-356.486"/>
<polygon fill="midnightblue" stroke="midnightblue" points="186.629,-178.115 176.643,-174.575 182.242,-183.57 186.629,-178.115"/>
</g>
<!-- Node16 -->
<g id="node16" class="node"><title>Node16</title>
<g id="a_node16"><a xlink:href="classid_win_float.html" target="_top" xlink:title="idWinFloat">
<polygon fill="white" stroke="black" points="355.5,-81.5 355.5,-100.5 418.5,-100.5 418.5,-81.5 355.5,-81.5"/>
<text text-anchor="middle" x="387" y="-88.5" font-family="Arial" font-size="10.00">idWinFloat</text>
</a>
</g>
</g>
<!-- Node8&#45;&gt;Node16 -->
<g id="edge22" class="edge"><title>Node8&#45;&gt;Node16</title>
<path fill="none" stroke="midnightblue" d="M201.767,-152.689C245.465,-138.057 317.46,-113.95 357.278,-100.617"/>
<polygon fill="midnightblue" stroke="midnightblue" points="200.47,-149.432 192.099,-155.926 202.693,-156.07 200.47,-149.432"/>
</g>
<!-- Node27 -->
<g id="node27" class="node"><title>Node27</title>
<g id="a_node27"><a xlink:href="classid_win_bool.html" target="_top" xlink:title="idWinBool">
<polygon fill="white" stroke="black" points="356.5,-134.5 356.5,-153.5 417.5,-153.5 417.5,-134.5 356.5,-134.5"/>
<text text-anchor="middle" x="387" y="-141.5" font-family="Arial" font-size="10.00">idWinBool</text>
</a>
</g>
</g>
<!-- Node8&#45;&gt;Node27 -->
<g id="edge36" class="edge"><title>Node8&#45;&gt;Node27</title>
<path fill="none" stroke="midnightblue" d="M202.231,-161.462C245.583,-157.343 316.325,-150.621 356.209,-146.831"/>
<polygon fill="midnightblue" stroke="midnightblue" points="201.723,-157.995 192.099,-162.425 202.385,-164.963 201.723,-157.995"/>
</g>
<!-- Node9 -->
<g id="node9" class="node"><title>Node9</title>
<g id="a_node9"><a xlink:href="classid_dict.html" target="_top" xlink:title="idDict">
<polygon fill="white" stroke="black" points="12.5,-28.5 12.5,-47.5 53.5,-47.5 53.5,-28.5 12.5,-28.5"/>
<text text-anchor="middle" x="33" y="-35.5" font-family="Arial" font-size="10.00">idDict</text>
</a>
</g>
</g>
<!-- Node9&#45;&gt;Node1 -->
<g id="edge51" class="edge"><title>Node9&#45;&gt;Node1</title>
<path fill="none" stroke="#9a32cd" stroke-dasharray="5,2" d="M62.7403,-24.3918C88.4251,-13.4875 127.392,-0 163,-0 163,-0 163,-0 1079,-0 1134.64,-0 1178.44,-64.1047 1193.42,-89.1456"/>
<polygon fill="#9a32cd" stroke="#9a32cd" points="61.3321,-21.1876 53.5814,-28.411 64.145,-27.5975 61.3321,-21.1876"/>
<text text-anchor="middle" x="641" y="-14" font-family="Arial" font-size="10.00"> mDict</text>
<text text-anchor="middle" x="641" y="-3" font-family="Arial" font-size="10.00">mUndoDict</text>
</g>
<!-- Node9&#45;&gt;Node8 -->
<g id="edge8" class="edge"><title>Node9&#45;&gt;Node8</title>
<path fill="none" stroke="#9a32cd" stroke-dasharray="5,2" d="M50.9969,-54.7334C78.3619,-81.6742 131.326,-133.817 153.192,-155.344"/>
<polygon fill="#9a32cd" stroke="#9a32cd" points="53.2776,-52.0671 43.696,-47.5456 48.3666,-57.0554 53.2776,-52.0671"/>
<text text-anchor="middle" x="101" y="-124" font-family="Arial" font-size="10.00"> guiDict</text>
</g>
<!-- Node9&#45;&gt;Node35 -->
<g id="edge50" class="edge"><title>Node9&#45;&gt;Node35</title>
<path fill="none" stroke="#9a32cd" stroke-dasharray="5,2" d="M63.6911,-38C89.8375,-38 128.947,-38 163,-38 163,-38 163,-38 735,-38 855.758,-38 891.995,-240.748 898.742,-287.475"/>
<polygon fill="#9a32cd" stroke="#9a32cd" points="63.6694,-34.5001 53.6693,-38 63.6693,-41.5001 63.6694,-34.5001"/>
<text text-anchor="middle" x="387" y="-63" font-family="Arial" font-size="10.00"> mScripts</text>
<text text-anchor="middle" x="387" y="-52" font-family="Arial" font-size="10.00">mState</text>
<text text-anchor="middle" x="387" y="-41" font-family="Arial" font-size="10.00">mVariables</text>
</g>
<!-- Node10 -->
<g id="node10" class="node"><title>Node10</title>
<g id="a_node10"><a xlink:href="classid_list.html" target="_top" xlink:title="idList\&lt; float \&gt;">
<polygon fill="white" stroke="black" points="472,-861.5 472,-880.5 548,-880.5 548,-861.5 472,-861.5"/>
<text text-anchor="middle" x="510" y="-868.5" font-family="Arial" font-size="10.00">idList&lt; float &gt;</text>
</a>
</g>
</g>
<!-- Node10&#45;&gt;Node4 -->
<g id="edge10" class="edge"><title>Node10&#45;&gt;Node4</title>
<path fill="none" stroke="#9a32cd" stroke-dasharray="5,2" d="M558.54,-869.442C604.074,-866.918 668.388,-860.306 686,-843 723.191,-806.456 731.282,-631.739 732.724,-588.631"/>
<polygon fill="#9a32cd" stroke="#9a32cd" points="558.083,-865.961 548.272,-869.961 558.436,-872.952 558.083,-865.961"/>
<text text-anchor="middle" x="641" y="-880" font-family="Arial" font-size="10.00"> saveRegs</text>
<text text-anchor="middle" x="641" y="-869" font-family="Arial" font-size="10.00">expressionRegisters</text>
</g>
<!-- Node11 -->
<g id="node11" class="node"><title>Node11</title>
<g id="a_node11"><a xlink:href="classid_list.html" target="_top" xlink:title="idList\&lt; idWindow * \&gt;">
<polygon fill="white" stroke="black" points="456.5,-823.5 456.5,-842.5 563.5,-842.5 563.5,-823.5 456.5,-823.5"/>
<text text-anchor="middle" x="510" y="-830.5" font-family="Arial" font-size="10.00">idList&lt; idWindow * &gt;</text>
</a>
</g>
</g>
<!-- Node11&#45;&gt;Node4 -->
<g id="edge12" class="edge"><title>Node11&#45;&gt;Node4</title>
<path fill="none" stroke="#9a32cd" stroke-dasharray="5,2" d="M573.845,-830.714C617.304,-827.794 670.062,-821.144 686,-806 718.312,-775.298 729.895,-627.786 732.43,-588.584"/>
<polygon fill="#9a32cd" stroke="#9a32cd" points="573.362,-827.237 563.597,-831.347 573.793,-834.224 573.362,-827.237"/>
<text text-anchor="middle" x="641" y="-831" font-family="Arial" font-size="10.00"> children</text>
</g>
<!-- Node12&#45;&gt;Node4 -->
<g id="edge14" class="edge"><title>Node12&#45;&gt;Node4</title>
<path fill="none" stroke="#9a32cd" stroke-dasharray="5,2" d="M328.241,-755.796C420.371,-757.491 658.235,-759.693 686,-738 733.86,-700.606 734.755,-616.839 733.59,-588.545"/>
<polygon fill="#9a32cd" stroke="#9a32cd" points="328.07,-752.292 318.005,-755.598 327.935,-759.291 328.07,-752.292"/>
<text text-anchor="middle" x="510" y="-759" font-family="Arial" font-size="10.00"> text</text>
</g>
<!-- Node12&#45;&gt;Node18 -->
<g id="edge25" class="edge"><title>Node12&#45;&gt;Node18</title>
<path fill="none" stroke="midnightblue" d="M328.288,-761.535C354.812,-766.327 391.649,-773.014 424,-779 436.698,-781.35 450.458,-783.926 463.132,-786.312"/>
<polygon fill="midnightblue" stroke="midnightblue" points="328.768,-758.066 318.306,-759.733 327.525,-764.954 328.768,-758.066"/>
</g>
<!-- Node13&#45;&gt;Node4 -->
<g id="edge17" class="edge"><title>Node13&#45;&gt;Node4</title>
<path fill="none" stroke="#9a32cd" stroke-dasharray="5,2" d="M562.862,-362.342C607.668,-360.343 667.972,-360.81 686,-376 716.361,-401.582 729.211,-532.535 732.258,-569.357"/>
<polygon fill="#9a32cd" stroke="#9a32cd" points="562.515,-358.855 552.701,-362.849 562.863,-365.847 562.515,-358.855"/>
<text text-anchor="middle" x="641" y="-379" font-family="Arial" font-size="10.00"> rect</text>
</g>
<!-- Node14 -->
<g id="node14" class="node"><title>Node14</title>
<g id="a_node14"><a xlink:href="classid_rectangle.html" target="_top" xlink:title="idRectangle">
<polygon fill="white" stroke="black" points="257,-356.5 257,-375.5 325,-375.5 325,-356.5 257,-356.5"/>
<text text-anchor="middle" x="291" y="-363.5" font-family="Arial" font-size="10.00">idRectangle</text>
</a>
</g>
</g>
<!-- Node14&#45;&gt;Node4 -->
<g id="edge39" class="edge"><title>Node14&#45;&gt;Node4</title>
<path fill="none" stroke="#9a32cd" stroke-dasharray="5,2" d="M306.836,-383.573C331.82,-412.048 385.158,-468.18 442,-499 465.433,-511.706 635.494,-554.763 704.261,-571.889"/>
<polygon fill="#9a32cd" stroke="#9a32cd" points="309.205,-380.963 300.02,-375.683 303.908,-385.539 309.205,-380.963"/>
<text text-anchor="middle" x="510" y="-563" font-family="Arial" font-size="10.00"> drawRect</text>
<text text-anchor="middle" x="510" y="-552" font-family="Arial" font-size="10.00">clientRect</text>
<text text-anchor="middle" x="510" y="-541" font-family="Arial" font-size="10.00">textRect</text>
</g>
<!-- Node14&#45;&gt;Node13 -->
<g id="edge19" class="edge"><title>Node14&#45;&gt;Node13</title>
<path fill="none" stroke="#9a32cd" stroke-dasharray="5,2" d="M335.779,-366C374.173,-366 429.608,-366 467.354,-366"/>
<polygon fill="#9a32cd" stroke="#9a32cd" points="335.431,-362.5 325.431,-366 335.431,-369.5 335.431,-362.5"/>
<text text-anchor="middle" x="387" y="-369" font-family="Arial" font-size="10.00"> data</text>
</g>
<!-- Node14&#45;&gt;Node35 -->
<g id="edge49" class="edge"><title>Node14&#45;&gt;Node35</title>
<path fill="none" stroke="#9a32cd" stroke-dasharray="5,2" d="M305.736,-348.374C329.801,-318.915 382.698,-260.23 442,-233 540.916,-187.58 579.094,-191.546 686,-212 762.761,-226.687 847.085,-268.513 882.654,-287.463"/>
<polygon fill="#9a32cd" stroke="#9a32cd" points="302.999,-346.194 299.474,-356.185 308.46,-350.572 302.999,-346.194"/>
<text text-anchor="middle" x="641" y="-226" font-family="Arial" font-size="10.00"> mScreenRect</text>
<text text-anchor="middle" x="641" y="-215" font-family="Arial" font-size="10.00">mClientRect</text>
</g>
<!-- Node15 -->
<g id="node15" class="node"><title>Node15</title>
<g id="a_node15"><a xlink:href="classid_list.html" target="_top" xlink:title="idList\&lt; wexpOp_t \&gt;">
<polygon fill="white" stroke="black" points="459.5,-700.5 459.5,-719.5 560.5,-719.5 560.5,-700.5 459.5,-700.5"/>
<text text-anchor="middle" x="510" y="-707.5" font-family="Arial" font-size="10.00">idList&lt; wexpOp_t &gt;</text>
</a>
</g>
</g>
<!-- Node15&#45;&gt;Node4 -->
<g id="edge20" class="edge"><title>Node15&#45;&gt;Node4</title>
<path fill="none" stroke="#9a32cd" stroke-dasharray="5,2" d="M570.815,-712.154C614.155,-712.512 668.148,-710.097 686,-697 722.093,-670.521 730.498,-611.838 732.432,-588.674"/>
<polygon fill="#9a32cd" stroke="#9a32cd" points="570.667,-708.652 560.621,-712.018 570.574,-715.651 570.667,-708.652"/>
<text text-anchor="middle" x="641" y="-726" font-family="Arial" font-size="10.00"> saveOps</text>
<text text-anchor="middle" x="641" y="-715" font-family="Arial" font-size="10.00">ops</text>
</g>
<!-- Node16&#45;&gt;Node4 -->
<g id="edge21" class="edge"><title>Node16&#45;&gt;Node4</title>
<path fill="none" stroke="#9a32cd" stroke-dasharray="5,2" d="M428.686,-82.9548C494.679,-72.5666 623.916,-63.8287 686,-139 714.435,-173.429 729.988,-508.248 732.603,-569.428"/>
<polygon fill="#9a32cd" stroke="#9a32cd" points="427.947,-79.5295 418.657,-84.6236 429.096,-86.4346 427.947,-79.5295"/>
<text text-anchor="middle" x="510" y="-95" font-family="Arial" font-size="10.00"> textScale</text>
<text text-anchor="middle" x="510" y="-84" font-family="Arial" font-size="10.00">rotate</text>
</g>
<!-- Node17 -->
<g id="node17" class="node"><title>Node17</title>
<g id="a_node17"><a xlink:href="classid_list.html" target="_top" xlink:title="idList\&lt; idWinVar * \&gt;">
<polygon fill="white" stroke="black" points="458,-624.5 458,-643.5 562,-643.5 562,-624.5 458,-624.5"/>
<text text-anchor="middle" x="510" y="-631.5" font-family="Arial" font-size="10.00">idList&lt; idWinVar * &gt;</text>
</a>
</g>
</g>
<!-- Node17&#45;&gt;Node4 -->
<g id="edge23" class="edge"><title>Node17&#45;&gt;Node4</title>
<path fill="none" stroke="#9a32cd" stroke-dasharray="5,2" d="M552.908,-621.042C561.402,-617.85 570.136,-614.141 578,-610 586.731,-605.402 586.829,-600.643 596,-597 631.561,-582.876 675.991,-579.365 704.434,-578.724"/>
<polygon fill="#9a32cd" stroke="#9a32cd" points="551.71,-617.754 543.478,-624.423 554.072,-624.343 551.71,-617.754"/>
<text text-anchor="middle" x="641" y="-611" font-family="Arial" font-size="10.00"> definedVars</text>
<text text-anchor="middle" x="641" y="-600" font-family="Arial" font-size="10.00">updateVars</text>
</g>
<!-- Node18&#45;&gt;Node4 -->
<g id="edge24" class="edge"><title>Node18&#45;&gt;Node4</title>
<path fill="none" stroke="#9a32cd" stroke-dasharray="5,2" d="M566.715,-793.67C611.209,-791.435 668.85,-785.525 686,-770 713.595,-745.02 728.275,-624.079 732.025,-588.725"/>
<polygon fill="#9a32cd" stroke="#9a32cd" points="566.414,-790.18 556.583,-794.128 566.731,-797.173 566.414,-790.18"/>
<text text-anchor="middle" x="641" y="-794" font-family="Arial" font-size="10.00"> backGroundName</text>
</g>
<!-- Node19 -->
<g id="node19" class="node"><title>Node19</title>
<g id="a_node19"><a xlink:href="classid_material.html" target="_top" xlink:title="idMaterial">
<polygon fill="white" stroke="black" points="261.5,-644.5 261.5,-663.5 320.5,-663.5 320.5,-644.5 261.5,-644.5"/>
<text text-anchor="middle" x="291" y="-651.5" font-family="Arial" font-size="10.00">idMaterial</text>
</a>
</g>
</g>
<!-- Node19&#45;&gt;Node4 -->
<g id="edge45" class="edge"><title>Node19&#45;&gt;Node4</title>
<path fill="none" stroke="#9a32cd" stroke-dasharray="5,2" d="M326.491,-640.879C356.618,-629.811 401.712,-614.187 442,-604 509.368,-586.966 526.773,-583.023 596,-577 633.324,-573.753 676.578,-575.258 704.338,-576.897"/>
<polygon fill="#9a32cd" stroke="#9a32cd" points="325.036,-637.685 316.876,-644.443 327.469,-644.249 325.036,-637.685"/>
<text text-anchor="middle" x="510" y="-607" font-family="Arial" font-size="10.00"> background</text>
</g>
<!-- Node19&#45;&gt;Node18 -->
<g id="edge27" class="edge"><title>Node19&#45;&gt;Node18</title>
<path fill="none" stroke="#9a32cd" stroke-dasharray="5,2" d="M316.946,-669.061C321.989,-672.253 327.211,-675.667 332,-679 374.395,-708.501 386.553,-714.428 424,-750 432.913,-758.466 431.876,-764.028 442,-771 450.853,-777.097 461.427,-781.822 471.53,-785.403"/>
<polygon fill="#9a32cd" stroke="#9a32cd" points="318.535,-665.928 308.195,-663.621 314.84,-671.873 318.535,-665.928"/>
<text text-anchor="middle" x="387" y="-753" font-family="Arial" font-size="10.00"> mat</text>
</g>
<!-- Node20 -->
<g id="node20" class="node"><title>Node20</title>
<g id="a_node20"><a xlink:href="classid_decl.html" target="_top" xlink:title="idDecl">
<polygon fill="white" stroke="black" points="142,-644.5 142,-663.5 186,-663.5 186,-644.5 142,-644.5"/>
<text text-anchor="middle" x="164" y="-651.5" font-family="Arial" font-size="10.00">idDecl</text>
</a>
</g>
</g>
<!-- Node20&#45;&gt;Node19 -->
<g id="edge28" class="edge"><title>Node20&#45;&gt;Node19</title>
<path fill="none" stroke="midnightblue" d="M196.314,-654C216.211,-654 241.778,-654 261.175,-654"/>
<polygon fill="midnightblue" stroke="midnightblue" points="196.205,-650.5 186.205,-654 196.205,-657.5 196.205,-650.5"/>
</g>
<!-- Node21 -->
<g id="node21" class="node"><title>Node21</title>
<g id="a_node21"><a xlink:href="classid_decl_base.html" target="_top" xlink:title="idDeclBase">
<polygon fill="white" stroke="black" points="0,-644.5 0,-663.5 66,-663.5 66,-644.5 0,-644.5"/>
<text text-anchor="middle" x="33" y="-651.5" font-family="Arial" font-size="10.00">idDeclBase</text>
</a>
</g>
</g>
<!-- Node21&#45;&gt;Node20 -->
<g id="edge29" class="edge"><title>Node21&#45;&gt;Node20</title>
<path fill="none" stroke="#9a32cd" stroke-dasharray="5,2" d="M76.2792,-654C98.1687,-654 123.948,-654 141.678,-654"/>
<polygon fill="#9a32cd" stroke="#9a32cd" points="76.2194,-650.5 66.2194,-654 76.2193,-657.5 76.2194,-650.5"/>
<text text-anchor="middle" x="101" y="-657" font-family="Arial" font-size="10.00"> base</text>
</g>
<!-- Node22 -->
<g id="node22" class="node"><title>Node22</title>
<g id="a_node22"><a xlink:href="classid_list.html" target="_top" xlink:title="idList\&lt; idTimeLineEvent * \&gt;">
<polygon fill="white" stroke="black" points="442.5,-470.5 442.5,-489.5 577.5,-489.5 577.5,-470.5 442.5,-470.5"/>
<text text-anchor="middle" x="510" y="-477.5" font-family="Arial" font-size="10.00">idList&lt; idTimeLineEvent * &gt;</text>
</a>
</g>
</g>
<!-- Node22&#45;&gt;Node4 -->
<g id="edge30" class="edge"><title>Node22&#45;&gt;Node4</title>
<path fill="none" stroke="#9a32cd" stroke-dasharray="5,2" d="M587.992,-474.814C620.497,-476.11 657.364,-482.485 686,-501 711.226,-517.31 724.897,-552.376 730.269,-569.372"/>
<polygon fill="#9a32cd" stroke="#9a32cd" points="587.69,-471.306 577.608,-474.563 587.52,-478.304 587.69,-471.306"/>
<text text-anchor="middle" x="641" y="-504" font-family="Arial" font-size="10.00"> timeLineEvents</text>
</g>
<!-- Node23 -->
<g id="node23" class="node"><title>Node23</title>
<g id="a_node23"><a xlink:href="classid_gui_script_list.html" target="_top" xlink:title="idGuiScriptList">
<polygon fill="white" stroke="black" points="470,-432.5 470,-451.5 550,-451.5 550,-432.5 470,-432.5"/>
<text text-anchor="middle" x="510" y="-439.5" font-family="Arial" font-size="10.00">idGuiScriptList</text>
</a>
</g>
</g>
<!-- Node23&#45;&gt;Node4 -->
<g id="edge31" class="edge"><title>Node23&#45;&gt;Node4</title>
<path fill="none" stroke="#9a32cd" stroke-dasharray="5,2" d="M560.643,-434.181C598.688,-431.004 650.513,-433.103 686,-460 721.936,-487.238 730.433,-546.105 732.411,-569.313"/>
<polygon fill="#9a32cd" stroke="#9a32cd" points="559.911,-430.736 550.303,-435.201 560.598,-437.702 559.911,-430.736"/>
<text text-anchor="middle" x="641" y="-463" font-family="Arial" font-size="10.00"> scripts</text>
</g>
<!-- Node24 -->
<g id="node24" class="node"><title>Node24</title>
<g id="a_node24"><a xlink:href="classid_register_list.html" target="_top" xlink:title="idRegisterList">
<polygon fill="white" stroke="black" points="472,-394.5 472,-413.5 548,-413.5 548,-394.5 472,-394.5"/>
<text text-anchor="middle" x="510" y="-401.5" font-family="Arial" font-size="10.00">idRegisterList</text>
</a>
</g>
</g>
<!-- Node24&#45;&gt;Node4 -->
<g id="edge32" class="edge"><title>Node24&#45;&gt;Node4</title>
<path fill="none" stroke="#9a32cd" stroke-dasharray="5,2" d="M558.215,-394.329C596.825,-389.289 650.633,-389.207 686,-418 733.646,-456.79 734.679,-541.01 733.57,-569.42"/>
<polygon fill="#9a32cd" stroke="#9a32cd" points="557.642,-390.876 548.252,-395.782 558.652,-397.802 557.642,-390.876"/>
<text text-anchor="middle" x="641" y="-421" font-family="Arial" font-size="10.00"> regList</text>
</g>
<!-- Node25 -->
<g id="node25" class="node"><title>Node25</title>
<g id="a_node25"><a xlink:href="classid_user_interface_local.html" target="_top" xlink:title="idUserInterfaceLocal">
<polygon fill="white" stroke="black" points="458,-1129.5 458,-1148.5 562,-1148.5 562,-1129.5 458,-1129.5"/>
<text text-anchor="middle" x="510" y="-1136.5" font-family="Arial" font-size="10.00">idUserInterfaceLocal</text>
</a>
</g>
</g>
<!-- Node25&#45;&gt;Node4 -->
<g id="edge33" class="edge"><title>Node25&#45;&gt;Node4</title>
<path fill="none" stroke="#9a32cd" stroke-dasharray="5,2" d="M572.385,-1137.73C616.474,-1135.41 670.711,-1129.23 686,-1113 723.411,-1073.29 731.721,-658.258 732.853,-588.826"/>
<polygon fill="#9a32cd" stroke="#9a32cd" points="572.116,-1134.23 562.29,-1138.2 572.443,-1141.23 572.116,-1134.23"/>
<text text-anchor="middle" x="641" y="-1138" font-family="Arial" font-size="10.00"> gui</text>
</g>
<!-- Node26 -->
<g id="node26" class="node"><title>Node26</title>
<g id="a_node26"><a xlink:href="classid_user_interface.html" target="_top" xlink:title="idUserInterface">
<polygon fill="white" stroke="black" points="250.5,-1129.5 250.5,-1148.5 331.5,-1148.5 331.5,-1129.5 250.5,-1129.5"/>
<text text-anchor="middle" x="291" y="-1136.5" font-family="Arial" font-size="10.00">idUserInterface</text>
</a>
</g>
</g>
<!-- Node26&#45;&gt;Node25 -->
<g id="edge34" class="edge"><title>Node26&#45;&gt;Node25</title>
<path fill="none" stroke="midnightblue" d="M341.937,-1139C376.672,-1139 422.842,-1139 457.841,-1139"/>
<polygon fill="midnightblue" stroke="midnightblue" points="341.549,-1135.5 331.549,-1139 341.549,-1142.5 341.549,-1135.5"/>
</g>
<!-- Node27&#45;&gt;Node4 -->
<g id="edge35" class="edge"><title>Node27&#45;&gt;Node4</title>
<path fill="none" stroke="#9a32cd" stroke-dasharray="5,2" d="M427.85,-137C492.193,-128.222 618.552,-121.88 686,-192 713.096,-220.169 729.561,-512.607 732.518,-569.455"/>
<polygon fill="#9a32cd" stroke="#9a32cd" points="427.094,-133.573 417.702,-138.475 428.101,-140.5 427.094,-133.573"/>
<text text-anchor="middle" x="510" y="-174" font-family="Arial" font-size="10.00"> noTime</text>
<text text-anchor="middle" x="510" y="-163" font-family="Arial" font-size="10.00">hideCursor</text>
<text text-anchor="middle" x="510" y="-152" font-family="Arial" font-size="10.00">noEvents</text>
<text text-anchor="middle" x="510" y="-141" font-family="Arial" font-size="10.00">visible</text>
</g>
<!-- Node28 -->
<g id="node28" class="node"><title>Node28</title>
<g id="a_node28"><a xlink:href="classid_vec2.html" target="_top" xlink:title="idVec2">
<polygon fill="white" stroke="black" points="486.5,-318.5 486.5,-337.5 533.5,-337.5 533.5,-318.5 486.5,-318.5"/>
<text text-anchor="middle" x="510" y="-325.5" font-family="Arial" font-size="10.00">idVec2</text>
</a>
</g>
</g>
<!-- Node28&#45;&gt;Node4 -->
<g id="edge37" class="edge"><title>Node28&#45;&gt;Node4</title>
<path fill="none" stroke="#9a32cd" stroke-dasharray="5,2" d="M543.517,-318.474C582.282,-309.296 646.743,-301.241 686,-335 722.47,-366.363 731.066,-528.234 732.676,-569.445"/>
<polygon fill="#9a32cd" stroke="#9a32cd" points="542.615,-315.092 533.776,-320.933 544.329,-321.879 542.615,-315.092"/>
<text text-anchor="middle" x="641" y="-349" font-family="Arial" font-size="10.00"> origin</text>
<text text-anchor="middle" x="641" y="-338" font-family="Arial" font-size="10.00">shear</text>
</g>
<!-- Node29 -->
<g id="node29" class="node"><title>Node29</title>
<g id="a_node29"><a xlink:href="classid_list.html" target="_top" xlink:title="idList\&lt; drawWin_t \&gt;">
<polygon fill="white" stroke="black" points="458,-280.5 458,-299.5 562,-299.5 562,-280.5 458,-280.5"/>
<text text-anchor="middle" x="510" y="-287.5" font-family="Arial" font-size="10.00">idList&lt; drawWin_t &gt;</text>
</a>
</g>
</g>
<!-- Node29&#45;&gt;Node4 -->
<g id="edge38" class="edge"><title>Node29&#45;&gt;Node4</title>
<path fill="none" stroke="#9a32cd" stroke-dasharray="5,2" d="M572.055,-283.815C615.665,-280.828 669.431,-280.536 686,-295 728.449,-332.057 732.583,-524.189 732.965,-569.445"/>
<polygon fill="#9a32cd" stroke="#9a32cd" points="571.785,-280.325 562.071,-284.556 572.303,-287.306 571.785,-280.325"/>
<text text-anchor="middle" x="641" y="-298" font-family="Arial" font-size="10.00"> drawWindows</text>
</g>
<!-- Node30 -->
<g id="node30" class="node"><title>Node30</title>
<g id="a_node30"><a xlink:href="classid_list.html" target="_top" xlink:title="idList\&lt; idTransitionData \&gt;">
<polygon fill="white" stroke="black" points="446,-242.5 446,-261.5 574,-261.5 574,-242.5 446,-242.5"/>
<text text-anchor="middle" x="510" y="-249.5" font-family="Arial" font-size="10.00">idList&lt; idTransitionData &gt;</text>
</a>
</g>
</g>
<!-- Node30&#45;&gt;Node4 -->
<g id="edge40" class="edge"><title>Node30&#45;&gt;Node4</title>
<path fill="none" stroke="#9a32cd" stroke-dasharray="5,2" d="M562.581,-241.006C601.534,-235.952 653.64,-236.648 686,-267 731.247,-309.44 733.22,-521.018 733.074,-569.216"/>
<polygon fill="#9a32cd" stroke="#9a32cd" points="561.866,-237.573 552.477,-242.482 562.878,-244.5 561.866,-237.573"/>
<text text-anchor="middle" x="641" y="-270" font-family="Arial" font-size="10.00"> transitions</text>
</g>
<!-- Node31 -->
<g id="node31" class="node"><title>Node31</title>
<g id="a_node31"><a xlink:href="classid_c_var.html" target="_top" xlink:title="idCVar">
<polygon fill="white" stroke="black" points="487,-975.5 487,-994.5 533,-994.5 533,-975.5 487,-975.5"/>
<text text-anchor="middle" x="510" y="-982.5" font-family="Arial" font-size="10.00">idCVar</text>
</a>
</g>
</g>
<!-- Node31&#45;&gt;Node4 -->
<g id="edge41" class="edge"><title>Node31&#45;&gt;Node4</title>
<path fill="none" stroke="#9a32cd" stroke-dasharray="5,2" d="M543.137,-990.852C582.651,-996.012 649.007,-997.708 686,-960 712.895,-932.584 729.461,-645.66 732.494,-588.772"/>
<polygon fill="#9a32cd" stroke="#9a32cd" points="543.627,-987.387 533.228,-989.411 542.62,-994.314 543.627,-987.387"/>
<text text-anchor="middle" x="641" y="-1007" font-family="Arial" font-size="10.00"> gui_debug</text>
<text text-anchor="middle" x="641" y="-996" font-family="Arial" font-size="10.00">gui_edit</text>
</g>
<!-- Node31&#45;&gt;Node31 -->
<g id="edge43" class="edge"><title>Node31&#45;&gt;Node31</title>
<path fill="none" stroke="#9a32cd" stroke-dasharray="5,2" d="M487.307,-1004.03C488.544,-1009.13 496.109,-1013 510,-1013 531.684,-1013 537.952,-1003.57 528.804,-994.757"/>
<polygon fill="#9a32cd" stroke="#9a32cd" points="490.555,-1005.33 491.196,-994.757 484.1,-1002.62 490.555,-1005.33"/>
<text text-anchor="middle" x="510" y="-1027" font-family="Arial" font-size="10.00"> next</text>
<text text-anchor="middle" x="510" y="-1016" font-family="Arial" font-size="10.00">internalVar</text>
</g>
<!-- Node32 -->
<g id="node32" class="node"><title>Node32</title>
<g id="a_node32"><a xlink:href="classid_cmd_args.html" target="_top" xlink:title="idCmdArgs">
<polygon fill="white" stroke="black" points="258.5,-993.5 258.5,-1012.5 323.5,-1012.5 323.5,-993.5 258.5,-993.5"/>
<text text-anchor="middle" x="291" y="-1000.5" font-family="Arial" font-size="10.00">idCmdArgs</text>
</a>
</g>
</g>
<!-- Node32&#45;&gt;Node31 -->
<g id="edge42" class="edge"><title>Node32&#45;&gt;Node31</title>
<path fill="none" stroke="#9a32cd" stroke-dasharray="5,2" d="M333.742,-999.538C379.48,-995.744 451.108,-989.802 486.979,-986.827"/>
<polygon fill="#9a32cd" stroke="#9a32cd" points="333.23,-996.068 323.554,-1000.38 333.809,-1003.04 333.23,-996.068"/>
<text text-anchor="middle" x="387" y="-1001" font-family="Arial" font-size="10.00"> valueCompletion</text>
</g>
<!-- Node33 -->
<g id="node33" class="node"><title>Node33</title>
<g id="a_node33"><a xlink:href="structid_reg_entry.html" target="_top" xlink:title="idRegEntry">
<polygon fill="white" stroke="black" points="477.5,-1091.5 477.5,-1110.5 542.5,-1110.5 542.5,-1091.5 477.5,-1091.5"/>
<text text-anchor="middle" x="510" y="-1098.5" font-family="Arial" font-size="10.00">idRegEntry</text>
</a>
</g>
</g>
<!-- Node33&#45;&gt;Node4 -->
<g id="edge44" class="edge"><title>Node33&#45;&gt;Node4</title>
<path fill="none" stroke="#9a32cd" stroke-dasharray="5,2" d="M552.96,-1100.77C598.855,-1099.56 668.268,-1094.6 686,-1076 720.988,-1039.31 731.283,-654.444 732.794,-588.568"/>
<polygon fill="#9a32cd" stroke="#9a32cd" points="552.621,-1097.28 542.698,-1100.99 552.771,-1104.28 552.621,-1097.28"/>
<text text-anchor="middle" x="641" y="-1101" font-family="Arial" font-size="10.00"> RegisterVars</text>
</g>
<!-- Node34 -->
<g id="node34" class="node"><title>Node34</title>
<g id="a_node34"><a xlink:href="classid_list.html" target="_top" xlink:title="idList\&lt; rvNamedEvent * \&gt;">
<polygon fill="white" stroke="black" points="447,-1053.5 447,-1072.5 573,-1072.5 573,-1053.5 447,-1053.5"/>
<text text-anchor="middle" x="510" y="-1060.5" font-family="Arial" font-size="10.00">idList&lt; rvNamedEvent * &gt;</text>
</a>
</g>
</g>
<!-- Node34&#45;&gt;Node4 -->
<g id="edge46" class="edge"><title>Node34&#45;&gt;Node4</title>
<path fill="none" stroke="#9a32cd" stroke-dasharray="5,2" d="M583.209,-1063.26C619.378,-1059.37 660.736,-1048.07 686,-1019 715.291,-985.295 730.145,-649.886 732.625,-588.59"/>
<polygon fill="#9a32cd" stroke="#9a32cd" points="582.807,-1059.78 573.163,-1064.17 583.438,-1066.75 582.807,-1059.78"/>
<text text-anchor="middle" x="641" y="-1064" font-family="Arial" font-size="10.00"> namedEvents</text>
</g>
<!-- Node35&#45;&gt;Node2 -->
<g id="edge47" class="edge"><title>Node35&#45;&gt;Node2</title>
<path fill="none" stroke="#9a32cd" stroke-dasharray="5,2" d="M933.768,-310.433C968.582,-325.155 1023.56,-348.402 1054.29,-361.397"/>
<polygon fill="#9a32cd" stroke="#9a32cd" points="935.093,-307.194 924.52,-306.523 932.367,-313.641 935.093,-307.194"/>
<text text-anchor="middle" x="999" y="-350" font-family="Arial" font-size="10.00"> mWrapper</text>
</g>
</g>
</svg>
        <g id="navigator" transform="translate(0 0)" fill="#404254">
                <rect fill="#f2f5e9" fill-opacity="0.5" stroke="#606060" stroke-width=".5" x="0" y="0" width="60" height="60"/>
                <use id="zoomplus" xlink:href="#zoomPlus" x="17" y="9" onmousedown="handleZoom(evt,'in')"/>
                <use id="zoomminus" xlink:href="#zoomMin" x="42" y="9" onmousedown="handleZoom(evt,'out')"/>
                <use id="reset" xlink:href="#resetDef" x="30" y="36" onmousedown="handleReset()"/>
                <g id="arrowUp" xlink:href="#dirArrow" transform="translate(30 24)" onmousedown="handlePan(0,-1)">
                  <use xlink:href="#rim" fill="#404040">
                        <set attributeName="fill" to="#808080" begin="arrowUp.mouseover" end="arrowUp.mouseout"/>
                  </use>
                  <path fill="none" stroke="white" stroke-width="1.5" d="M0,-3.0v7 M-2.5,-0.5L0,-3.0L2.5,-0.5"/>
                </g>
                <g id="arrowRight" xlink:href="#dirArrow" transform="rotate(90) translate(36 -43)" onmousedown="handlePan(1,0)">
                  <use xlink:href="#rim" fill="#404040">
                        <set attributeName="fill" to="#808080" begin="arrowRight.mouseover" end="arrowRight.mouseout"/>
                  </use>
                  <path fill="none" stroke="white" stroke-width="1.5" d="M0,-3.0v7 M-2.5,-0.5L0,-3.0L2.5,-0.5"/>
                </g>
                <g id="arrowDown" xlink:href="#dirArrow" transform="rotate(180) translate(-30 -48)" onmousedown="handlePan(0,1)">
                  <use xlink:href="#rim" fill="#404040">
                        <set attributeName="fill" to="#808080" begin="arrowDown.mouseover" end="arrowDown.mouseout"/>
                  </use>
                  <path fill="none" stroke="white" stroke-width="1.5" d="M0,-3.0v7 M-2.5,-0.5L0,-3.0L2.5,-0.5"/>
                </g>
                <g id="arrowLeft" xlink:href="#dirArrow" transform="rotate(270) translate(-36 17)" onmousedown="handlePan(-1,0)">
                  <use xlink:href="#rim" fill="#404040">
                        <set attributeName="fill" to="#808080" begin="arrowLeft.mouseover" end="arrowLeft.mouseout"/>
                  </use>
                  <path fill="none" stroke="white" stroke-width="1.5" d="M0,-3.0v7 M-2.5,-0.5L0,-3.0L2.5,-0.5"/>
                </g>
        </g>
        <svg viewBox="0 0 15 15" width="100%" height="30px" preserveAspectRatio="xMaxYMin meet">
         <g id="arrow_out" transform="scale(0.3 0.3)">
          <a xlink:href="classrv_g_e_state_modifier__coll__graph_org.svg" target="_base">
           <rect id="button" ry="5" rx="5" y="6" x="6" height="38" width="38"
                fill="#f2f5e9" fill-opacity="0.5" stroke="#606060" stroke-width="1.0"/>
           <path id="arrow"
             d="M 11.500037,31.436501 C 11.940474,20.09759 22.043105,11.32322 32.158766,21.979434 L 37.068811,17.246167 C 37.068811,17.246167 37.088388,32 37.088388,32 L 22.160133,31.978069 C 22.160133,31.978069 26.997745,27.140456 26.997745,27.140456 C 18.528582,18.264221 13.291696,25.230495 11.500037,31.436501 z"
             style="fill:#404040;"/>
          </a>
         </g>
        </svg>
</svg>
