<?xml version="1.0" encoding="UTF-8" standalone="no"?>
<!DOCTYPE svg PUBLIC "-//W3C//DTD SVG 1.1//EN"
 "http://www.w3.org/Graphics/SVG/1.1/DTD/svg11.dtd">
<!-- Generated by graphviz version 2.34.0 (20130907.0111)
 -->
<!-- Title: E:/sources/3rd_party/DOOM/neo/sound/OggVorbis/vorbissrc/books Pages: 1 -->
<svg width="334pt" height="111pt"
 viewBox="0.00 0.00 334.00 111.00" xmlns="http://www.w3.org/2000/svg" xmlns:xlink="http://www.w3.org/1999/xlink">
<g id="graph0" class="graph" transform="scale(1 1) rotate(0) translate(4 107)">
<title>E:/sources/3rd_party/DOOM/neo/sound/OggVorbis/vorbissrc/books</title>
<polygon fill="white" stroke="white" points="-4,4 -4,-107 330,-107 330,4 -4,4"/>
<g id="clust1" class="cluster"><title>clusterdir_28576a06346b080f19b2a522017b1886</title>
<g id="a_clust1"><a xlink:href="dir_28576a06346b080f19b2a522017b1886.html" target="_top" xlink:title="vorbissrc">
<polygon fill="#ddddee" stroke="black" points="8,-8 8,-95 318,-95 318,-8 8,-8"/>
<text text-anchor="middle" x="163" y="-83" font-family="Arial" font-size="10.00">vorbissrc</text>
</a>
</g>
</g>
<g id="clust2" class="cluster"><title>clusterdir_88d4c421f4001e7310fdf015b11924ce</title>
<g id="a_clust2"><a xlink:href="dir_88d4c421f4001e7310fdf015b11924ce.html" target="_top">
<polygon fill="#eeeeff" stroke="black" points="16,-16 16,-68 310,-68 310,-16 16,-16"/>
</a>
</g>
</g>
<!-- dir_88d4c421f4001e7310fdf015b11924ce -->
<g id="node1" class="node"><title>dir_88d4c421f4001e7310fdf015b11924ce</title>
<text text-anchor="middle" x="275" y="-39.5" font-family="Arial" font-size="10.00">books</text>
</g>
<!-- dir_d415aa0c74b2077b37d38212e40f45d8 -->
<g id="node2" class="node"><title>dir_d415aa0c74b2077b37d38212e40f45d8</title>
<g id="a_node2"><a xlink:href="dir_d415aa0c74b2077b37d38212e40f45d8.html" target="_top" xlink:title="coupled">
<polygon fill="white" stroke="black" points="230,-60 176,-60 176,-24 230,-24 230,-60"/>
<text text-anchor="middle" x="203" y="-39.5" font-family="Arial" font-size="10.00">coupled</text>
</a>
</g>
</g>
<!-- dir_156672f978ce6ef6e959544f65fe800c -->
<g id="node3" class="node"><title>dir_156672f978ce6ef6e959544f65fe800c</title>
<g id="a_node3"><a xlink:href="dir_156672f978ce6ef6e959544f65fe800c.html" target="_top" xlink:title="floor">
<polygon fill="white" stroke="black" points="158,-60 104,-60 104,-24 158,-24 158,-60"/>
<text text-anchor="middle" x="131" y="-39.5" font-family="Arial" font-size="10.00">floor</text>
</a>
</g>
</g>
<!-- dir_c638471f78c45c822a1c7f20e6354059 -->
<g id="node4" class="node"><title>dir_c638471f78c45c822a1c7f20e6354059</title>
<g id="a_node4"><a xlink:href="dir_c638471f78c45c822a1c7f20e6354059.html" target="_top" xlink:title="uncoupled">
<polygon fill="white" stroke="black" points="85.25,-60 24.75,-60 24.75,-24 85.25,-24 85.25,-60"/>
<text text-anchor="middle" x="55" y="-39.5" font-family="Arial" font-size="10.00">uncoupled</text>
</a>
</g>
</g>
</g>
</svg>
