<?xml version="1.0" encoding="UTF-8" standalone="no"?>
<!DOCTYPE svg PUBLIC "-//W3C//DTD SVG 1.1//EN"
 "http://www.w3.org/Graphics/SVG/1.1/DTD/svg11.dtd">
<!-- Generated by graphviz version 2.34.0 (20130907.0111)
 -->
<!-- Title: E:/sources/3rd_party/DOOM/neo Pages: 1 -->
<!--zoomable 76 -->
<svg id="main" version="1.1" xmlns="http://www.w3.org/2000/svg" xmlns:xlink="http://www.w3.org/1999/xlink" xml:space="preserve" onload="init(evt)">
<style type="text/css"><![CDATA[
.edge:hover path { stroke: red; }
.edge:hover polygon { stroke: red; fill: red; }
]]></style>
<script type="text/javascript"><![CDATA[
var edges = document.getElementsByTagName('g');
if (edges && edges.length) {
  for (var i=0;i<edges.length;i++) {
    if (edges[i].id.substr(0,4)=='edge') {
      edges[i].setAttribute('class','edge');
    }
  }
}
]]></script>
        <defs>
                <circle id="rim" cx="0" cy="0" r="7"/>
                <circle id="rim2" cx="0" cy="0" r="3.5"/>
                <g id="zoomPlus">
                        <use xlink:href="#rim" fill="#404040">
                                <set attributeName="fill" to="#808080" begin="zoomplus.mouseover" end="zoomplus.mouseout"/>
                        </use>
                        <path d="M-4,0h8M0,-4v8" fill="none" stroke="white" stroke-width="1.5" pointer-events="none"/>
                </g>
                <g id="zoomMin">
                        <use xlink:href="#rim" fill="#404040">
                                <set attributeName="fill" to="#808080" begin="zoomminus.mouseover" end="zoomminus.mouseout"/>
                        </use>
                        <path d="M-4,0h8" fill="none" stroke="white" stroke-width="1.5" pointer-events="none"/>
                </g>
                <g id="dirArrow">
                        <path fill="none" stroke="white" stroke-width="1.5" d="M0,-3.0v7 M-2.5,-0.5L0,-3.0L2.5,-0.5"/>
                </g>
               <g id="resetDef">
                       <use xlink:href="#rim2" fill="#404040">
                               <set attributeName="fill" to="#808080" begin="reset.mouseover" end="reset.mouseout"/>
                       </use>
               </g>
        </defs>

<script type="text/javascript">
var viewWidth = 1124;
var viewHeight = 76;
var sectionId = 'dynsection-0';
</script>
<script xlink:href="svgpan.js"/>
<svg id="graph" class="graph">
<g id="viewport">
<title>E:/sources/3rd_party/DOOM/neo</title>
<polygon fill="white" stroke="white" points="-4,4 -4,-72 1120,-72 1120,4 -4,4"/>
<g id="clust1" class="cluster"><title>clusterdir_8091014fa5fed90470e639dad3a50c46</title>
<g id="a_clust1"><a xlink:href="dir_8091014fa5fed90470e639dad3a50c46.html" target="_top">
<polygon fill="#eeeeff" stroke="black" points="8,-8 8,-60 1108,-60 1108,-8 8,-8"/>
</a>
</g>
</g>
<!-- dir_8091014fa5fed90470e639dad3a50c46 -->
<g id="node1" class="node"><title>dir_8091014fa5fed90470e639dad3a50c46</title>
<text text-anchor="middle" x="1073" y="-31.5" font-family="Arial" font-size="10.00">neo</text>
</g>
<!-- dir_7487dfa993f72293b3aba5c593438785 -->
<g id="node2" class="node"><title>dir_7487dfa993f72293b3aba5c593438785</title>
<g id="a_node2"><a xlink:href="dir_7487dfa993f72293b3aba5c593438785.html" target="_top" xlink:title="cm">
<polygon fill="white" stroke="black" points="1028,-52 974,-52 974,-16 1028,-16 1028,-52"/>
<text text-anchor="middle" x="1001" y="-31.5" font-family="Arial" font-size="10.00">cm</text>
</a>
</g>
</g>
<!-- dir_a0f35c45f886668dca7c3bd0cceebeb9 -->
<g id="node3" class="node"><title>dir_a0f35c45f886668dca7c3bd0cceebeb9</title>
<g id="a_node3"><a xlink:href="dir_a0f35c45f886668dca7c3bd0cceebeb9.html" target="_top" xlink:title="curl">
<polygon fill="white" stroke="red" points="956,-52 902,-52 902,-16 956,-16 956,-52"/>
<text text-anchor="middle" x="929" y="-31.5" font-family="Arial" font-size="10.00">curl</text>
</a>
</g>
</g>
<!-- dir_b28e3c5fa2f029b395f5f81b2ed2861c -->
<g id="node4" class="node"><title>dir_b28e3c5fa2f029b395f5f81b2ed2861c</title>
<g id="a_node4"><a xlink:href="dir_b28e3c5fa2f029b395f5f81b2ed2861c.html" target="_top" xlink:title="d3xp">
<polygon fill="white" stroke="red" points="884,-52 830,-52 830,-16 884,-16 884,-52"/>
<text text-anchor="middle" x="857" y="-31.5" font-family="Arial" font-size="10.00">d3xp</text>
</a>
</g>
</g>
<!-- dir_a308588788ae57aa33047d81e6c40df7 -->
<g id="node5" class="node"><title>dir_a308588788ae57aa33047d81e6c40df7</title>
<g id="a_node5"><a xlink:href="dir_a308588788ae57aa33047d81e6c40df7.html" target="_top" xlink:title="framework">
<polygon fill="white" stroke="red" points="811.25,-52 750.75,-52 750.75,-16 811.25,-16 811.25,-52"/>
<text text-anchor="middle" x="781" y="-31.5" font-family="Arial" font-size="10.00">framework</text>
</a>
</g>
</g>
<!-- dir_a3c86a079f20bbbd696ad4831daf8044 -->
<g id="node6" class="node"><title>dir_a3c86a079f20bbbd696ad4831daf8044</title>
<g id="a_node6"><a xlink:href="dir_a3c86a079f20bbbd696ad4831daf8044.html" target="_top" xlink:title="game">
<polygon fill="white" stroke="red" points="732,-52 678,-52 678,-16 732,-16 732,-52"/>
<text text-anchor="middle" x="705" y="-31.5" font-family="Arial" font-size="10.00">game</text>
</a>
</g>
</g>
<!-- dir_3f81bf5ceace0ae6e962cb74afade9ea -->
<g id="node7" class="node"><title>dir_3f81bf5ceace0ae6e962cb74afade9ea</title>
<g id="a_node7"><a xlink:href="dir_3f81bf5ceace0ae6e962cb74afade9ea.html" target="_top" xlink:title="idlib">
<polygon fill="white" stroke="red" points="660,-52 606,-52 606,-16 660,-16 660,-52"/>
<text text-anchor="middle" x="633" y="-31.5" font-family="Arial" font-size="10.00">idlib</text>
</a>
</g>
</g>
<!-- dir_2b75f98abe8ffa4850a1b5a672fa0055 -->
<g id="node8" class="node"><title>dir_2b75f98abe8ffa4850a1b5a672fa0055</title>
<g id="a_node8"><a xlink:href="dir_2b75f98abe8ffa4850a1b5a672fa0055.html" target="_top" xlink:title="MayaImport">
<polygon fill="white" stroke="black" points="588,-52 520,-52 520,-16 588,-16 588,-52"/>
<text text-anchor="middle" x="554" y="-31.5" font-family="Arial" font-size="10.00">MayaImport</text>
</a>
</g>
</g>
<!-- dir_58f9787a3bed7e02d44e8aa72bf800e3 -->
<g id="node9" class="node"><title>dir_58f9787a3bed7e02d44e8aa72bf800e3</title>
<g id="a_node9"><a xlink:href="dir_58f9787a3bed7e02d44e8aa72bf800e3.html" target="_top" xlink:title="openal">
<polygon fill="white" stroke="red" points="502,-52 448,-52 448,-16 502,-16 502,-52"/>
<text text-anchor="middle" x="475" y="-31.5" font-family="Arial" font-size="10.00">openal</text>
</a>
</g>
</g>
<!-- dir_3ba3d57673cc3eabd82844b02635c073 -->
<g id="node10" class="node"><title>dir_3ba3d57673cc3eabd82844b02635c073</title>
<g id="a_node10"><a xlink:href="dir_3ba3d57673cc3eabd82844b02635c073.html" target="_top" xlink:title="renderer">
<polygon fill="white" stroke="red" points="430,-52 376,-52 376,-16 430,-16 430,-52"/>
<text text-anchor="middle" x="403" y="-31.5" font-family="Arial" font-size="10.00">renderer</text>
</a>
</g>
</g>
<!-- dir_641461fa3667d091ba0627491b063dea -->
<g id="node11" class="node"><title>dir_641461fa3667d091ba0627491b063dea</title>
<g id="a_node11"><a xlink:href="dir_641461fa3667d091ba0627491b063dea.html" target="_top" xlink:title="sound">
<polygon fill="white" stroke="red" points="358,-52 304,-52 304,-16 358,-16 358,-52"/>
<text text-anchor="middle" x="331" y="-31.5" font-family="Arial" font-size="10.00">sound</text>
</a>
</g>
</g>
<!-- dir_f9eb2a817c93d7f0383f9e1c4fa98e1b -->
<g id="node12" class="node"><title>dir_f9eb2a817c93d7f0383f9e1c4fa98e1b</title>
<g id="a_node12"><a xlink:href="dir_f9eb2a817c93d7f0383f9e1c4fa98e1b.html" target="_top" xlink:title="sys">
<polygon fill="white" stroke="red" points="286,-52 232,-52 232,-16 286,-16 286,-52"/>
<text text-anchor="middle" x="259" y="-31.5" font-family="Arial" font-size="10.00">sys</text>
</a>
</g>
</g>
<!-- dir_0b76f3d3eec38adbea9691419ec470ac -->
<g id="node13" class="node"><title>dir_0b76f3d3eec38adbea9691419ec470ac</title>
<g id="a_node13"><a xlink:href="dir_0b76f3d3eec38adbea9691419ec470ac.html" target="_top" xlink:title="tools">
<polygon fill="white" stroke="red" points="214,-52 160,-52 160,-16 214,-16 214,-52"/>
<text text-anchor="middle" x="187" y="-31.5" font-family="Arial" font-size="10.00">tools</text>
</a>
</g>
</g>
<!-- dir_b5b137409864853549b2c89ec680897c -->
<g id="node14" class="node"><title>dir_b5b137409864853549b2c89ec680897c</title>
<g id="a_node14"><a xlink:href="dir_b5b137409864853549b2c89ec680897c.html" target="_top" xlink:title="TypeInfo">
<polygon fill="white" stroke="black" points="142,-52 88,-52 88,-16 142,-16 142,-52"/>
<text text-anchor="middle" x="115" y="-31.5" font-family="Arial" font-size="10.00">TypeInfo</text>
</a>
</g>
</g>
<!-- dir_8c9efdd004c18dc1a8abe4af27577564 -->
<g id="node15" class="node"><title>dir_8c9efdd004c18dc1a8abe4af27577564</title>
<g id="a_node15"><a xlink:href="dir_8c9efdd004c18dc1a8abe4af27577564.html" target="_top" xlink:title="ui">
<polygon fill="white" stroke="black" points="70,-52 16,-52 16,-16 70,-16 70,-52"/>
<text text-anchor="middle" x="43" y="-31.5" font-family="Arial" font-size="10.00">ui</text>
</a>
</g>
</g>
</g>
</svg>
        <g id="navigator" transform="translate(0 0)" fill="#404254">
                <rect fill="#f2f5e9" fill-opacity="0.5" stroke="#606060" stroke-width=".5" x="0" y="0" width="60" height="60"/>
                <use id="zoomplus" xlink:href="#zoomPlus" x="17" y="9" onmousedown="handleZoom(evt,'in')"/>
                <use id="zoomminus" xlink:href="#zoomMin" x="42" y="9" onmousedown="handleZoom(evt,'out')"/>
                <use id="reset" xlink:href="#resetDef" x="30" y="36" onmousedown="handleReset()"/>
                <g id="arrowUp" xlink:href="#dirArrow" transform="translate(30 24)" onmousedown="handlePan(0,-1)">
                  <use xlink:href="#rim" fill="#404040">
                        <set attributeName="fill" to="#808080" begin="arrowUp.mouseover" end="arrowUp.mouseout"/>
                  </use>
                  <path fill="none" stroke="white" stroke-width="1.5" d="M0,-3.0v7 M-2.5,-0.5L0,-3.0L2.5,-0.5"/>
                </g>
                <g id="arrowRight" xlink:href="#dirArrow" transform="rotate(90) translate(36 -43)" onmousedown="handlePan(1,0)">
                  <use xlink:href="#rim" fill="#404040">
                        <set attributeName="fill" to="#808080" begin="arrowRight.mouseover" end="arrowRight.mouseout"/>
                  </use>
                  <path fill="none" stroke="white" stroke-width="1.5" d="M0,-3.0v7 M-2.5,-0.5L0,-3.0L2.5,-0.5"/>
                </g>
                <g id="arrowDown" xlink:href="#dirArrow" transform="rotate(180) translate(-30 -48)" onmousedown="handlePan(0,1)">
                  <use xlink:href="#rim" fill="#404040">
                        <set attributeName="fill" to="#808080" begin="arrowDown.mouseover" end="arrowDown.mouseout"/>
                  </use>
                  <path fill="none" stroke="white" stroke-width="1.5" d="M0,-3.0v7 M-2.5,-0.5L0,-3.0L2.5,-0.5"/>
                </g>
                <g id="arrowLeft" xlink:href="#dirArrow" transform="rotate(270) translate(-36 17)" onmousedown="handlePan(-1,0)">
                  <use xlink:href="#rim" fill="#404040">
                        <set attributeName="fill" to="#808080" begin="arrowLeft.mouseover" end="arrowLeft.mouseout"/>
                  </use>
                  <path fill="none" stroke="white" stroke-width="1.5" d="M0,-3.0v7 M-2.5,-0.5L0,-3.0L2.5,-0.5"/>
                </g>
        </g>
        <svg viewBox="0 0 15 15" width="100%" height="30px" preserveAspectRatio="xMaxYMin meet">
         <g id="arrow_out" transform="scale(0.3 0.3)">
          <a xlink:href="dir_8091014fa5fed90470e639dad3a50c46_dep_org.svg" target="_base">
           <rect id="button" ry="5" rx="5" y="6" x="6" height="38" width="38"
                fill="#f2f5e9" fill-opacity="0.5" stroke="#606060" stroke-width="1.0"/>
           <path id="arrow"
             d="M 11.500037,31.436501 C 11.940474,20.09759 22.043105,11.32322 32.158766,21.979434 L 37.068811,17.246167 C 37.068811,17.246167 37.088388,32 37.088388,32 L 22.160133,31.978069 C 22.160133,31.978069 26.997745,27.140456 26.997745,27.140456 C 18.528582,18.264221 13.291696,25.230495 11.500037,31.436501 z"
             style="fill:#404040;"/>
          </a>
         </g>
        </svg>
</svg>
