<?xml version="1.0" encoding="UTF-8" standalone="no"?>
<!DOCTYPE svg PUBLIC "-//W3C//DTD SVG 1.1//EN"
 "http://www.w3.org/Graphics/SVG/1.1/DTD/svg11.dtd">
<!-- Generated by graphviz version 2.34.0 (20130907.0111)
 -->
<!-- Title: E:/sources/3rd_party/DOOM/neo/sound/OggVorbis/vorbissrc Pages: 1 -->
<svg width="256pt" height="111pt"
 viewBox="0.00 0.00 256.00 111.00" xmlns="http://www.w3.org/2000/svg" xmlns:xlink="http://www.w3.org/1999/xlink">
<g id="graph0" class="graph" transform="scale(1 1) rotate(0) translate(4 107)">
<title>E:/sources/3rd_party/DOOM/neo/sound/OggVorbis/vorbissrc</title>
<polygon fill="white" stroke="white" points="-4,4 -4,-107 252,-107 252,4 -4,4"/>
<g id="clust1" class="cluster"><title>clusterdir_f942c505a7c5d4766248a32224d7a8f8</title>
<g id="a_clust1"><a xlink:href="dir_f942c505a7c5d4766248a32224d7a8f8.html" target="_top" xlink:title="OggVorbis">
<polygon fill="#ddddee" stroke="black" points="8,-8 8,-95 240,-95 240,-8 8,-8"/>
<text text-anchor="middle" x="124" y="-83" font-family="Arial" font-size="10.00">OggVorbis</text>
</a>
</g>
</g>
<g id="clust2" class="cluster"><title>clusterdir_28576a06346b080f19b2a522017b1886</title>
<g id="a_clust2"><a xlink:href="dir_28576a06346b080f19b2a522017b1886.html" target="_top">
<polygon fill="#eeeeff" stroke="black" points="16,-16 16,-68 232,-68 232,-16 16,-16"/>
</a>
</g>
</g>
<!-- dir_28576a06346b080f19b2a522017b1886 -->
<g id="node1" class="node"><title>dir_28576a06346b080f19b2a522017b1886</title>
<text text-anchor="middle" x="196" y="-39.5" font-family="Arial" font-size="10.00">vorbissrc</text>
</g>
<!-- dir_88d4c421f4001e7310fdf015b11924ce -->
<g id="node2" class="node"><title>dir_88d4c421f4001e7310fdf015b11924ce</title>
<g id="a_node2"><a xlink:href="dir_88d4c421f4001e7310fdf015b11924ce.html" target="_top" xlink:title="books">
<polygon fill="white" stroke="red" points="150,-60 96,-60 96,-24 150,-24 150,-60"/>
<text text-anchor="middle" x="123" y="-39.5" font-family="Arial" font-size="10.00">books</text>
</a>
</g>
</g>
<!-- dir_fc592013e7ce57ac69130f9d7d3288bd -->
<g id="node3" class="node"><title>dir_fc592013e7ce57ac69130f9d7d3288bd</title>
<g id="a_node3"><a xlink:href="dir_fc592013e7ce57ac69130f9d7d3288bd.html" target="_top" xlink:title="modes">
<polygon fill="white" stroke="black" points="78,-60 24,-60 24,-24 78,-24 78,-60"/>
<text text-anchor="middle" x="51" y="-39.5" font-family="Arial" font-size="10.00">modes</text>
</a>
</g>
</g>
</g>
</svg>
