<?xml version="1.0" encoding="UTF-8" standalone="no"?>
<!DOCTYPE svg PUBLIC "-//W3C//DTD SVG 1.1//EN"
 "http://www.w3.org/Graphics/SVG/1.1/DTD/svg11.dtd">
<!-- Generated by graphviz version 2.34.0 (20130907.0111)
 -->
<!-- Title: E:/sources/3rd_party/DOOM/neo/d3xp Pages: 1 -->
<svg width="472pt" height="111pt"
 viewBox="0.00 0.00 472.00 111.00" xmlns="http://www.w3.org/2000/svg" xmlns:xlink="http://www.w3.org/1999/xlink">
<g id="graph0" class="graph" transform="scale(1 1) rotate(0) translate(4 107)">
<title>E:/sources/3rd_party/DOOM/neo/d3xp</title>
<polygon fill="white" stroke="white" points="-4,4 -4,-107 468,-107 468,4 -4,4"/>
<g id="clust1" class="cluster"><title>clusterdir_8091014fa5fed90470e639dad3a50c46</title>
<g id="a_clust1"><a xlink:href="dir_8091014fa5fed90470e639dad3a50c46.html" target="_top" xlink:title="neo">
<polygon fill="#ddddee" stroke="black" points="8,-8 8,-95 456,-95 456,-8 8,-8"/>
<text text-anchor="middle" x="232" y="-83" font-family="Arial" font-size="10.00">neo</text>
</a>
</g>
</g>
<g id="clust2" class="cluster"><title>clusterdir_b28e3c5fa2f029b395f5f81b2ed2861c</title>
<g id="a_clust2"><a xlink:href="dir_b28e3c5fa2f029b395f5f81b2ed2861c.html" target="_top">
<polygon fill="#eeeeff" stroke="black" points="16,-16 16,-68 448,-68 448,-16 16,-16"/>
</a>
</g>
</g>
<!-- dir_b28e3c5fa2f029b395f5f81b2ed2861c -->
<g id="node1" class="node"><title>dir_b28e3c5fa2f029b395f5f81b2ed2861c</title>
<text text-anchor="middle" x="413" y="-39.5" font-family="Arial" font-size="10.00">d3xp</text>
</g>
<!-- dir_52b52c762e1990298501ea2c40873c0a -->
<g id="node2" class="node"><title>dir_52b52c762e1990298501ea2c40873c0a</title>
<g id="a_node2"><a xlink:href="dir_52b52c762e1990298501ea2c40873c0a.html" target="_top" xlink:title="ai">
<polygon fill="white" stroke="black" points="368,-60 314,-60 314,-24 368,-24 368,-60"/>
<text text-anchor="middle" x="341" y="-39.5" font-family="Arial" font-size="10.00">ai</text>
</a>
</g>
</g>
<!-- dir_87cc967e271968f6a5d0cd7c000b0778 -->
<g id="node3" class="node"><title>dir_87cc967e271968f6a5d0cd7c000b0778</title>
<g id="a_node3"><a xlink:href="dir_87cc967e271968f6a5d0cd7c000b0778.html" target="_top" xlink:title="anim">
<polygon fill="white" stroke="black" points="296,-60 242,-60 242,-24 296,-24 296,-60"/>
<text text-anchor="middle" x="269" y="-39.5" font-family="Arial" font-size="10.00">anim</text>
</a>
</g>
</g>
<!-- dir_11ced23c41d7d6fb46776aa429a91cef -->
<g id="node4" class="node"><title>dir_11ced23c41d7d6fb46776aa429a91cef</title>
<g id="a_node4"><a xlink:href="dir_11ced23c41d7d6fb46776aa429a91cef.html" target="_top" xlink:title="gamesys">
<polygon fill="white" stroke="black" points="224,-60 168,-60 168,-24 224,-24 224,-60"/>
<text text-anchor="middle" x="196" y="-39.5" font-family="Arial" font-size="10.00">gamesys</text>
</a>
</g>
</g>
<!-- dir_460368ced2688cdb4bb6ca7bc8b88b66 -->
<g id="node5" class="node"><title>dir_460368ced2688cdb4bb6ca7bc8b88b66</title>
<g id="a_node5"><a xlink:href="dir_460368ced2688cdb4bb6ca7bc8b88b66.html" target="_top" xlink:title="physics">
<polygon fill="white" stroke="black" points="150,-60 96,-60 96,-24 150,-24 150,-60"/>
<text text-anchor="middle" x="123" y="-39.5" font-family="Arial" font-size="10.00">physics</text>
</a>
</g>
</g>
<!-- dir_1e9ab798b7a2b6196103b87098bfe6c4 -->
<g id="node6" class="node"><title>dir_1e9ab798b7a2b6196103b87098bfe6c4</title>
<g id="a_node6"><a xlink:href="dir_1e9ab798b7a2b6196103b87098bfe6c4.html" target="_top" xlink:title="script">
<polygon fill="white" stroke="black" points="78,-60 24,-60 24,-24 78,-24 78,-60"/>
<text text-anchor="middle" x="51" y="-39.5" font-family="Arial" font-size="10.00">script</text>
</a>
</g>
</g>
</g>
</svg>
