<?xml version="1.0" encoding="UTF-8" standalone="no"?>
<!DOCTYPE svg PUBLIC "-//W3C//DTD SVG 1.1//EN"
 "http://www.w3.org/Graphics/SVG/1.1/DTD/svg11.dtd">
<!-- Generated by graphviz version 2.34.0 (20130907.0111)
 -->
<!-- Title: E:/sources/3rd_party/DOOM/neo/curl/tests Pages: 1 -->
<svg width="254pt" height="111pt"
 viewBox="0.00 0.00 254.00 111.00" xmlns="http://www.w3.org/2000/svg" xmlns:xlink="http://www.w3.org/1999/xlink">
<g id="graph0" class="graph" transform="scale(1 1) rotate(0) translate(4 107)">
<title>E:/sources/3rd_party/DOOM/neo/curl/tests</title>
<polygon fill="white" stroke="white" points="-4,4 -4,-107 250,-107 250,4 -4,4"/>
<g id="clust1" class="cluster"><title>clusterdir_a0f35c45f886668dca7c3bd0cceebeb9</title>
<g id="a_clust1"><a xlink:href="dir_a0f35c45f886668dca7c3bd0cceebeb9.html" target="_top" xlink:title="curl">
<polygon fill="#ddddee" stroke="black" points="8,-8 8,-95 238,-95 238,-8 8,-8"/>
<text text-anchor="middle" x="123" y="-83" font-family="Arial" font-size="10.00">curl</text>
</a>
</g>
</g>
<g id="clust2" class="cluster"><title>clusterdir_39ff47d4f9a9a6294a48d592958ff110</title>
<g id="a_clust2"><a xlink:href="dir_39ff47d4f9a9a6294a48d592958ff110.html" target="_top">
<polygon fill="#eeeeff" stroke="black" points="16,-16 16,-68 230,-68 230,-16 16,-16"/>
</a>
</g>
</g>
<!-- dir_39ff47d4f9a9a6294a48d592958ff110 -->
<g id="node1" class="node"><title>dir_39ff47d4f9a9a6294a48d592958ff110</title>
<text text-anchor="middle" x="195" y="-39.5" font-family="Arial" font-size="10.00">tests</text>
</g>
<!-- dir_d17f7c98f9a1839b2e5fed81b38b1e81 -->
<g id="node2" class="node"><title>dir_d17f7c98f9a1839b2e5fed81b38b1e81</title>
<g id="a_node2"><a xlink:href="dir_d17f7c98f9a1839b2e5fed81b38b1e81.html" target="_top" xlink:title="libtest">
<polygon fill="white" stroke="black" points="150,-60 96,-60 96,-24 150,-24 150,-60"/>
<text text-anchor="middle" x="123" y="-39.5" font-family="Arial" font-size="10.00">libtest</text>
</a>
</g>
</g>
<!-- dir_4b17f5c1091b8df29c90e5e8cce17ccf -->
<g id="node3" class="node"><title>dir_4b17f5c1091b8df29c90e5e8cce17ccf</title>
<g id="a_node3"><a xlink:href="dir_4b17f5c1091b8df29c90e5e8cce17ccf.html" target="_top" xlink:title="server">
<polygon fill="white" stroke="black" points="78,-60 24,-60 24,-24 78,-24 78,-60"/>
<text text-anchor="middle" x="51" y="-39.5" font-family="Arial" font-size="10.00">server</text>
</a>
</g>
</g>
</g>
</svg>
