<?xml version="1.0" encoding="UTF-8" standalone="no"?>
<!DOCTYPE svg PUBLIC "-//W3C//DTD SVG 1.1//EN"
 "http://www.w3.org/Graphics/SVG/1.1/DTD/svg11.dtd">
<!-- Generated by graphviz version 2.34.0 (20130907.0111)
 -->
<!-- Title: E:/sources/3rd_party/DOOM/neo/tools Pages: 1 -->
<svg width="1076pt" height="111pt"
 viewBox="0.00 0.00 1076.00 111.00" xmlns="http://www.w3.org/2000/svg" xmlns:xlink="http://www.w3.org/1999/xlink">
<g id="graph0" class="graph" transform="scale(1 1) rotate(0) translate(4 107)">
<title>E:/sources/3rd_party/DOOM/neo/tools</title>
<polygon fill="white" stroke="white" points="-4,4 -4,-107 1072,-107 1072,4 -4,4"/>
<g id="clust1" class="cluster"><title>clusterdir_8091014fa5fed90470e639dad3a50c46</title>
<g id="a_clust1"><a xlink:href="dir_8091014fa5fed90470e639dad3a50c46.html" target="_top" xlink:title="neo">
<polygon fill="#ddddee" stroke="black" points="8,-8 8,-95 1060,-95 1060,-8 8,-8"/>
<text text-anchor="middle" x="534" y="-83" font-family="Arial" font-size="10.00">neo</text>
</a>
</g>
</g>
<g id="clust2" class="cluster"><title>clusterdir_0b76f3d3eec38adbea9691419ec470ac</title>
<g id="a_clust2"><a xlink:href="dir_0b76f3d3eec38adbea9691419ec470ac.html" target="_top">
<polygon fill="#eeeeff" stroke="black" points="16,-16 16,-68 1052,-68 1052,-16 16,-16"/>
</a>
</g>
</g>
<!-- dir_0b76f3d3eec38adbea9691419ec470ac -->
<g id="node1" class="node"><title>dir_0b76f3d3eec38adbea9691419ec470ac</title>
<text text-anchor="middle" x="1017" y="-39.5" font-family="Arial" font-size="10.00">tools</text>
</g>
<!-- dir_4ab877f397efccb9ec672b79323554e5 -->
<g id="node2" class="node"><title>dir_4ab877f397efccb9ec672b79323554e5</title>
<g id="a_node2"><a xlink:href="dir_4ab877f397efccb9ec672b79323554e5.html" target="_top" xlink:title="af">
<polygon fill="white" stroke="black" points="972,-60 918,-60 918,-24 972,-24 972,-60"/>
<text text-anchor="middle" x="945" y="-39.5" font-family="Arial" font-size="10.00">af</text>
</a>
</g>
</g>
<!-- dir_875c3f48c232caff7298303299ea34f8 -->
<g id="node3" class="node"><title>dir_875c3f48c232caff7298303299ea34f8</title>
<g id="a_node3"><a xlink:href="dir_875c3f48c232caff7298303299ea34f8.html" target="_top" xlink:title="comafx">
<polygon fill="white" stroke="black" points="900,-60 846,-60 846,-24 900,-24 900,-60"/>
<text text-anchor="middle" x="873" y="-39.5" font-family="Arial" font-size="10.00">comafx</text>
</a>
</g>
</g>
<!-- dir_1b757ccd368f887e0e43b7515329281b -->
<g id="node4" class="node"><title>dir_1b757ccd368f887e0e43b7515329281b</title>
<g id="a_node4"><a xlink:href="dir_1b757ccd368f887e0e43b7515329281b.html" target="_top" xlink:title="common">
<polygon fill="white" stroke="red" points="828,-60 774,-60 774,-24 828,-24 828,-60"/>
<text text-anchor="middle" x="801" y="-39.5" font-family="Arial" font-size="10.00">common</text>
</a>
</g>
</g>
<!-- dir_8c9dfac1d2090f57bdf1048ae572c964 -->
<g id="node5" class="node"><title>dir_8c9dfac1d2090f57bdf1048ae572c964</title>
<g id="a_node5"><a xlink:href="dir_8c9dfac1d2090f57bdf1048ae572c964.html" target="_top" xlink:title="compilers">
<polygon fill="white" stroke="red" points="755.25,-60 696.75,-60 696.75,-24 755.25,-24 755.25,-60"/>
<text text-anchor="middle" x="726" y="-39.5" font-family="Arial" font-size="10.00">compilers</text>
</a>
</g>
</g>
<!-- dir_be5a001579215de9ad82c980d1669831 -->
<g id="node6" class="node"><title>dir_be5a001579215de9ad82c980d1669831</title>
<g id="a_node6"><a xlink:href="dir_be5a001579215de9ad82c980d1669831.html" target="_top" xlink:title="debugger">
<polygon fill="white" stroke="black" points="678,-60 622,-60 622,-24 678,-24 678,-60"/>
<text text-anchor="middle" x="650" y="-39.5" font-family="Arial" font-size="10.00">debugger</text>
</a>
</g>
</g>
<!-- dir_c832a6c3ea6a829d2bd004a4831e0da0 -->
<g id="node7" class="node"><title>dir_c832a6c3ea6a829d2bd004a4831e0da0</title>
<g id="a_node7"><a xlink:href="dir_c832a6c3ea6a829d2bd004a4831e0da0.html" target="_top" xlink:title="decl">
<polygon fill="white" stroke="black" points="604,-60 550,-60 550,-24 604,-24 604,-60"/>
<text text-anchor="middle" x="577" y="-39.5" font-family="Arial" font-size="10.00">decl</text>
</a>
</g>
</g>
<!-- dir_33a661637436fc51f4c8ce4c43fbfb3d -->
<g id="node8" class="node"><title>dir_33a661637436fc51f4c8ce4c43fbfb3d</title>
<g id="a_node8"><a xlink:href="dir_33a661637436fc51f4c8ce4c43fbfb3d.html" target="_top" xlink:title="guied">
<polygon fill="white" stroke="black" points="532,-60 478,-60 478,-24 532,-24 532,-60"/>
<text text-anchor="middle" x="505" y="-39.5" font-family="Arial" font-size="10.00">guied</text>
</a>
</g>
</g>
<!-- dir_9a2addc78710c91c52657e64da02641e -->
<g id="node9" class="node"><title>dir_9a2addc78710c91c52657e64da02641e</title>
<g id="a_node9"><a xlink:href="dir_9a2addc78710c91c52657e64da02641e.html" target="_top" xlink:title="materialeditor">
<polygon fill="white" stroke="black" points="459.25,-60 384.75,-60 384.75,-24 459.25,-24 459.25,-60"/>
<text text-anchor="middle" x="422" y="-39.5" font-family="Arial" font-size="10.00">materialeditor</text>
</a>
</g>
</g>
<!-- dir_499a0df94b363bf2090c5ef51df11b33 -->
<g id="node10" class="node"><title>dir_499a0df94b363bf2090c5ef51df11b33</title>
<g id="a_node10"><a xlink:href="dir_499a0df94b363bf2090c5ef51df11b33.html" target="_top" xlink:title="particle">
<polygon fill="white" stroke="black" points="366,-60 312,-60 312,-24 366,-24 366,-60"/>
<text text-anchor="middle" x="339" y="-39.5" font-family="Arial" font-size="10.00">particle</text>
</a>
</g>
</g>
<!-- dir_a9f1a56ece55d0b2e8fff5eef79446ed -->
<g id="node11" class="node"><title>dir_a9f1a56ece55d0b2e8fff5eef79446ed</title>
<g id="a_node11"><a xlink:href="dir_a9f1a56ece55d0b2e8fff5eef79446ed.html" target="_top" xlink:title="pda">
<polygon fill="white" stroke="black" points="294,-60 240,-60 240,-24 294,-24 294,-60"/>
<text text-anchor="middle" x="267" y="-39.5" font-family="Arial" font-size="10.00">pda</text>
</a>
</g>
</g>
<!-- dir_90d1f35ce7d999f6f2d242c5d2b31407 -->
<g id="node12" class="node"><title>dir_90d1f35ce7d999f6f2d242c5d2b31407</title>
<g id="a_node12"><a xlink:href="dir_90d1f35ce7d999f6f2d242c5d2b31407.html" target="_top" xlink:title="radiant">
<polygon fill="white" stroke="black" points="222,-60 168,-60 168,-24 222,-24 222,-60"/>
<text text-anchor="middle" x="195" y="-39.5" font-family="Arial" font-size="10.00">radiant</text>
</a>
</g>
</g>
<!-- dir_4db5e3f8428849f832164c8549a7e77a -->
<g id="node13" class="node"><title>dir_4db5e3f8428849f832164c8549a7e77a</title>
<g id="a_node13"><a xlink:href="dir_4db5e3f8428849f832164c8549a7e77a.html" target="_top" xlink:title="script">
<polygon fill="white" stroke="black" points="150,-60 96,-60 96,-24 150,-24 150,-60"/>
<text text-anchor="middle" x="123" y="-39.5" font-family="Arial" font-size="10.00">script</text>
</a>
</g>
</g>
<!-- dir_d7c1662063f89aa01ac3306296ba09f0 -->
<g id="node14" class="node"><title>dir_d7c1662063f89aa01ac3306296ba09f0</title>
<g id="a_node14"><a xlink:href="dir_d7c1662063f89aa01ac3306296ba09f0.html" target="_top" xlink:title="sound">
<polygon fill="white" stroke="black" points="78,-60 24,-60 24,-24 78,-24 78,-60"/>
<text text-anchor="middle" x="51" y="-39.5" font-family="Arial" font-size="10.00">sound</text>
</a>
</g>
</g>
</g>
</svg>
