<?xml version="1.0" encoding="UTF-8" standalone="no"?>
<!DOCTYPE svg PUBLIC "-//W3C//DTD SVG 1.1//EN"
 "http://www.w3.org/Graphics/SVG/1.1/DTD/svg11.dtd">
<!-- Generated by graphviz version 2.34.0 (20130907.0111)
 -->
<!-- Title: E:/sources/3rd_party/DOOM/neo/tools/compilers Pages: 1 -->
<svg width="418pt" height="111pt"
 viewBox="0.00 0.00 418.00 111.00" xmlns="http://www.w3.org/2000/svg" xmlns:xlink="http://www.w3.org/1999/xlink">
<g id="graph0" class="graph" transform="scale(1 1) rotate(0) translate(4 107)">
<title>E:/sources/3rd_party/DOOM/neo/tools/compilers</title>
<polygon fill="white" stroke="white" points="-4,4 -4,-107 414,-107 414,4 -4,4"/>
<g id="clust1" class="cluster"><title>clusterdir_0b76f3d3eec38adbea9691419ec470ac</title>
<g id="a_clust1"><a xlink:href="dir_0b76f3d3eec38adbea9691419ec470ac.html" target="_top" xlink:title="tools">
<polygon fill="#ddddee" stroke="black" points="8,-8 8,-95 402,-95 402,-8 8,-8"/>
<text text-anchor="middle" x="205" y="-83" font-family="Arial" font-size="10.00">tools</text>
</a>
</g>
</g>
<g id="clust2" class="cluster"><title>clusterdir_8c9dfac1d2090f57bdf1048ae572c964</title>
<g id="a_clust2"><a xlink:href="dir_8c9dfac1d2090f57bdf1048ae572c964.html" target="_top">
<polygon fill="#eeeeff" stroke="black" points="16,-16 16,-68 394,-68 394,-16 16,-16"/>
</a>
</g>
</g>
<!-- dir_8c9dfac1d2090f57bdf1048ae572c964 -->
<g id="node1" class="node"><title>dir_8c9dfac1d2090f57bdf1048ae572c964</title>
<text text-anchor="middle" x="356" y="-39.5" font-family="Arial" font-size="10.00">compilers</text>
</g>
<!-- dir_974621b78a5a45c06552ba3307052911 -->
<g id="node2" class="node"><title>dir_974621b78a5a45c06552ba3307052911</title>
<g id="a_node2"><a xlink:href="dir_974621b78a5a45c06552ba3307052911.html" target="_top" xlink:title="aas">
<polygon fill="white" stroke="black" points="308,-60 254,-60 254,-24 308,-24 308,-60"/>
<text text-anchor="middle" x="281" y="-39.5" font-family="Arial" font-size="10.00">aas</text>
</a>
</g>
</g>
<!-- dir_58993b5de3bcd461c21ee30e2dcd978c -->
<g id="node3" class="node"><title>dir_58993b5de3bcd461c21ee30e2dcd978c</title>
<g id="a_node3"><a xlink:href="dir_58993b5de3bcd461c21ee30e2dcd978c.html" target="_top" xlink:title="dmap">
<polygon fill="white" stroke="black" points="236,-60 182,-60 182,-24 236,-24 236,-60"/>
<text text-anchor="middle" x="209" y="-39.5" font-family="Arial" font-size="10.00">dmap</text>
</a>
</g>
</g>
<!-- dir_c23b4e1134c4f1fbb8e7419fb03d610e -->
<g id="node4" class="node"><title>dir_c23b4e1134c4f1fbb8e7419fb03d610e</title>
<g id="a_node4"><a xlink:href="dir_c23b4e1134c4f1fbb8e7419fb03d610e.html" target="_top" xlink:title="renderbump">
<polygon fill="white" stroke="black" points="164,-60 96,-60 96,-24 164,-24 164,-60"/>
<text text-anchor="middle" x="130" y="-39.5" font-family="Arial" font-size="10.00">renderbump</text>
</a>
</g>
</g>
<!-- dir_aec9eff10f9c7eaa55d657ed0c1f84e7 -->
<g id="node5" class="node"><title>dir_aec9eff10f9c7eaa55d657ed0c1f84e7</title>
<g id="a_node5"><a xlink:href="dir_aec9eff10f9c7eaa55d657ed0c1f84e7.html" target="_top" xlink:title="roqvq">
<polygon fill="white" stroke="black" points="78,-60 24,-60 24,-24 78,-24 78,-60"/>
<text text-anchor="middle" x="51" y="-39.5" font-family="Arial" font-size="10.00">roqvq</text>
</a>
</g>
</g>
</g>
</svg>
