<?xml version="1.0" encoding="UTF-8" standalone="no"?>
<!DOCTYPE svg PUBLIC "-//W3C//DTD SVG 1.1//EN"
 "http://www.w3.org/Graphics/SVG/1.1/DTD/svg11.dtd">
<!-- Generated by graphviz version 2.34.0 (20130907.0111)
 -->
<!-- Title: Graphical Class Hierarchy Pages: 1 -->
<svg width="266pt" height="256pt"
 viewBox="0.00 0.00 266.00 256.00" xmlns="http://www.w3.org/2000/svg" xmlns:xlink="http://www.w3.org/1999/xlink">
<g id="graph0" class="graph" transform="scale(1 1) rotate(0) translate(4 252)">
<title>Graphical Class Hierarchy</title>
<polygon fill="white" stroke="white" points="-4,4 -4,-252 262,-252 262,4 -4,4"/>
<!-- Node1 -->
<g id="node1" class="node"><title>Node1</title>
<g id="a_node1"><a xlink:href="classid_reachability.html" target="_top" xlink:title="idReachability">
<polygon fill="white" stroke="black" points="0.5,-114.5 0.5,-133.5 77.5,-133.5 77.5,-114.5 0.5,-114.5"/>
<text text-anchor="middle" x="39" y="-121.5" font-family="Arial" font-size="10.00">idReachability</text>
</a>
</g>
</g>
<!-- Node2 -->
<g id="node2" class="node"><title>Node2</title>
<g id="a_node2"><a xlink:href="classid_reachability___barrier_jump.html" target="_top" xlink:title="idReachability_BarrierJump">
<polygon fill="white" stroke="black" points="119,-228.5 119,-247.5 253,-247.5 253,-228.5 119,-228.5"/>
<text text-anchor="middle" x="186" y="-235.5" font-family="Arial" font-size="10.00">idReachability_BarrierJump</text>
</a>
</g>
</g>
<!-- Node1&#45;&gt;Node2 -->
<g id="edge1" class="edge"><title>Node1&#45;&gt;Node2</title>
<path fill="none" stroke="midnightblue" d="M49.6044,-142.657C61.7051,-164.29 84.5308,-199.471 114,-219 119.85,-222.877 126.464,-225.965 133.243,-228.424"/>
<polygon fill="midnightblue" stroke="midnightblue" points="52.6417,-140.915 44.814,-133.775 46.4808,-144.238 52.6417,-140.915"/>
</g>
<!-- Node3 -->
<g id="node3" class="node"><title>Node3</title>
<g id="a_node3"><a xlink:href="classid_reachability___fly.html" target="_top" xlink:title="idReachability_Fly">
<polygon fill="white" stroke="black" points="138,-190.5 138,-209.5 234,-209.5 234,-190.5 138,-190.5"/>
<text text-anchor="middle" x="186" y="-197.5" font-family="Arial" font-size="10.00">idReachability_Fly</text>
</a>
</g>
</g>
<!-- Node1&#45;&gt;Node3 -->
<g id="edge2" class="edge"><title>Node1&#45;&gt;Node3</title>
<path fill="none" stroke="midnightblue" d="M57.1625,-140.425C71.3645,-153.184 92.6099,-170.431 114,-181 121.665,-184.787 130.181,-187.893 138.577,-190.416"/>
<polygon fill="midnightblue" stroke="midnightblue" points="59.3917,-137.72 49.6665,-133.516 54.6475,-142.867 59.3917,-137.72"/>
</g>
<!-- Node4 -->
<g id="node4" class="node"><title>Node4</title>
<g id="a_node4"><a xlink:href="classid_reachability___special.html" target="_top" xlink:title="idReachability_Special">
<polygon fill="white" stroke="black" points="128.5,-152.5 128.5,-171.5 243.5,-171.5 243.5,-152.5 128.5,-152.5"/>
<text text-anchor="middle" x="186" y="-159.5" font-family="Arial" font-size="10.00">idReachability_Special</text>
</a>
</g>
</g>
<!-- Node1&#45;&gt;Node4 -->
<g id="edge3" class="edge"><title>Node1&#45;&gt;Node4</title>
<path fill="none" stroke="midnightblue" d="M86.4928,-136.184C106.624,-141.46 129.838,-147.544 148.673,-152.48"/>
<polygon fill="midnightblue" stroke="midnightblue" points="87.1503,-132.738 76.5896,-133.589 85.3757,-139.51 87.1503,-132.738"/>
</g>
<!-- Node5 -->
<g id="node5" class="node"><title>Node5</title>
<g id="a_node5"><a xlink:href="classid_reachability___swim.html" target="_top" xlink:title="idReachability_Swim">
<polygon fill="white" stroke="black" points="132.5,-114.5 132.5,-133.5 239.5,-133.5 239.5,-114.5 132.5,-114.5"/>
<text text-anchor="middle" x="186" y="-121.5" font-family="Arial" font-size="10.00">idReachability_Swim</text>
</a>
</g>
</g>
<!-- Node1&#45;&gt;Node5 -->
<g id="edge4" class="edge"><title>Node1&#45;&gt;Node5</title>
<path fill="none" stroke="midnightblue" d="M87.8345,-124C102.131,-124 117.881,-124 132.462,-124"/>
<polygon fill="midnightblue" stroke="midnightblue" points="87.7186,-120.5 77.7185,-124 87.7185,-127.5 87.7186,-120.5"/>
</g>
<!-- Node6 -->
<g id="node6" class="node"><title>Node6</title>
<g id="a_node6"><a xlink:href="classid_reachability___walk.html" target="_top" xlink:title="idReachability_Walk">
<polygon fill="white" stroke="black" points="133.5,-76.5 133.5,-95.5 238.5,-95.5 238.5,-76.5 133.5,-76.5"/>
<text text-anchor="middle" x="186" y="-83.5" font-family="Arial" font-size="10.00">idReachability_Walk</text>
</a>
</g>
</g>
<!-- Node1&#45;&gt;Node6 -->
<g id="edge5" class="edge"><title>Node1&#45;&gt;Node6</title>
<path fill="none" stroke="midnightblue" d="M86.4928,-111.816C106.624,-106.54 129.838,-100.456 148.673,-95.5201"/>
<polygon fill="midnightblue" stroke="midnightblue" points="85.3757,-108.49 76.5896,-114.411 87.1503,-115.262 85.3757,-108.49"/>
</g>
<!-- Node7 -->
<g id="node7" class="node"><title>Node7</title>
<g id="a_node7"><a xlink:href="classid_reachability___walk_off_ledge.html" target="_top" xlink:title="idReachability_WalkOffLedge">
<polygon fill="white" stroke="black" points="114.5,-38.5 114.5,-57.5 257.5,-57.5 257.5,-38.5 114.5,-38.5"/>
<text text-anchor="middle" x="186" y="-45.5" font-family="Arial" font-size="10.00">idReachability_WalkOffLedge</text>
</a>
</g>
</g>
<!-- Node1&#45;&gt;Node7 -->
<g id="edge6" class="edge"><title>Node1&#45;&gt;Node7</title>
<path fill="none" stroke="midnightblue" d="M57.1625,-107.575C71.3645,-94.8161 92.6099,-77.5688 114,-67 121.665,-63.2129 130.181,-60.1067 138.577,-57.5843"/>
<polygon fill="midnightblue" stroke="midnightblue" points="54.6475,-105.133 49.6665,-114.484 59.3917,-110.28 54.6475,-105.133"/>
</g>
<!-- Node8 -->
<g id="node8" class="node"><title>Node8</title>
<g id="a_node8"><a xlink:href="classid_reachability___water_jump.html" target="_top" xlink:title="idReachability_WaterJump">
<polygon fill="white" stroke="black" points="120,-0.5 120,-19.5 252,-19.5 252,-0.5 120,-0.5"/>
<text text-anchor="middle" x="186" y="-7.5" font-family="Arial" font-size="10.00">idReachability_WaterJump</text>
</a>
</g>
</g>
<!-- Node1&#45;&gt;Node8 -->
<g id="edge7" class="edge"><title>Node1&#45;&gt;Node8</title>
<path fill="none" stroke="midnightblue" d="M49.6044,-105.343C61.7051,-83.7096 84.5308,-48.5292 114,-29 119.85,-25.1232 126.464,-22.0351 133.243,-19.576"/>
<polygon fill="midnightblue" stroke="midnightblue" points="46.4808,-103.762 44.814,-114.225 52.6417,-107.085 46.4808,-103.762"/>
</g>
</g>
</svg>
