<?xml version="1.0" encoding="UTF-8" standalone="no"?>
<!DOCTYPE svg PUBLIC "-//W3C//DTD SVG 1.1//EN"
 "http://www.w3.org/Graphics/SVG/1.1/DTD/svg11.dtd">
<!-- Generated by graphviz version 2.34.0 (20130907.0111)
 -->
<!-- Title: Graphical Class Hierarchy Pages: 1 -->
<svg width="254pt" height="142pt"
 viewBox="0.00 0.00 254.00 142.00" xmlns="http://www.w3.org/2000/svg" xmlns:xlink="http://www.w3.org/1999/xlink">
<g id="graph0" class="graph" transform="scale(1 1) rotate(0) translate(4 138)">
<title>Graphical Class Hierarchy</title>
<polygon fill="white" stroke="white" points="-4,4 -4,-138 250,-138 250,4 -4,4"/>
<!-- Node1 -->
<g id="node1" class="node"><title>Node1</title>
<g id="a_node1"><a xlink:href="classid_audio_hardware.html" target="_top" xlink:title="idAudioHardware">
<polygon fill="white" stroke="black" points="0.5,-57.5 0.5,-76.5 89.5,-76.5 89.5,-57.5 0.5,-57.5"/>
<text text-anchor="middle" x="45" y="-64.5" font-family="Arial" font-size="10.00">idAudioHardware</text>
</a>
</g>
</g>
<!-- Node2 -->
<g id="node2" class="node"><title>Node2</title>
<g id="a_node2"><a xlink:href="classid_audio_hardware_a_l_s_a.html" target="_top" xlink:title="idAudioHardwareALSA">
<polygon fill="white" stroke="black" points="128.5,-114.5 128.5,-133.5 243.5,-133.5 243.5,-114.5 128.5,-114.5"/>
<text text-anchor="middle" x="186" y="-121.5" font-family="Arial" font-size="10.00">idAudioHardwareALSA</text>
</a>
</g>
</g>
<!-- Node1&#45;&gt;Node2 -->
<g id="edge1" class="edge"><title>Node1&#45;&gt;Node2</title>
<path fill="none" stroke="midnightblue" d="M73.7866,-81.3092C88.9941,-88.8566 108.295,-97.9798 126,-105 134.503,-108.372 143.864,-111.599 152.575,-114.406"/>
<polygon fill="midnightblue" stroke="midnightblue" points="74.9491,-77.9764 64.4421,-76.6149 71.8068,-84.2315 74.9491,-77.9764"/>
</g>
<!-- Node3 -->
<g id="node3" class="node"><title>Node3</title>
<g id="a_node3"><a xlink:href="classid_audio_hardware_o_s_s.html" target="_top" xlink:title="idAudioHardwareOSS">
<polygon fill="white" stroke="black" points="131,-76.5 131,-95.5 241,-95.5 241,-76.5 131,-76.5"/>
<text text-anchor="middle" x="186" y="-83.5" font-family="Arial" font-size="10.00">idAudioHardwareOSS</text>
</a>
</g>
</g>
<!-- Node1&#45;&gt;Node3 -->
<g id="edge2" class="edge"><title>Node1&#45;&gt;Node3</title>
<path fill="none" stroke="midnightblue" d="M99.6237,-74.3299C109.845,-75.727 120.55,-77.1903 130.789,-78.5899"/>
<polygon fill="midnightblue" stroke="midnightblue" points="99.981,-70.8462 89.5991,-72.9596 99.0329,-77.7817 99.981,-70.8462"/>
</g>
<!-- Node4 -->
<g id="node4" class="node"><title>Node4</title>
<g id="a_node4"><a xlink:href="classid_audio_hardware_o_s_x.html" target="_top" xlink:title="idAudioHardwareOSX">
<polygon fill="white" stroke="black" points="131.5,-38.5 131.5,-57.5 240.5,-57.5 240.5,-38.5 131.5,-38.5"/>
<text text-anchor="middle" x="186" y="-45.5" font-family="Arial" font-size="10.00">idAudioHardwareOSX</text>
</a>
</g>
</g>
<!-- Node1&#45;&gt;Node4 -->
<g id="edge3" class="edge"><title>Node1&#45;&gt;Node4</title>
<path fill="none" stroke="midnightblue" d="M99.7484,-59.6531C110.098,-58.2384 120.94,-56.7564 131.288,-55.3419"/>
<polygon fill="midnightblue" stroke="midnightblue" points="99.0329,-56.2183 89.5991,-61.0404 99.981,-63.1538 99.0329,-56.2183"/>
</g>
<!-- Node5 -->
<g id="node5" class="node"><title>Node5</title>
<g id="a_node5"><a xlink:href="classid_audio_hardware_w_i_n32.html" target="_top" xlink:title="idAudioHardwareWIN32">
<polygon fill="white" stroke="black" points="126.5,-0.5 126.5,-19.5 245.5,-19.5 245.5,-0.5 126.5,-0.5"/>
<text text-anchor="middle" x="186" y="-7.5" font-family="Arial" font-size="10.00">idAudioHardwareWIN32</text>
</a>
</g>
</g>
<!-- Node1&#45;&gt;Node5 -->
<g id="edge4" class="edge"><title>Node1&#45;&gt;Node5</title>
<path fill="none" stroke="midnightblue" d="M73.7866,-52.6908C88.9941,-45.1434 108.295,-36.0202 126,-29 134.503,-25.6285 143.864,-22.4012 152.575,-19.5941"/>
<polygon fill="midnightblue" stroke="midnightblue" points="71.8068,-49.7685 64.4421,-57.3851 74.9491,-56.0236 71.8068,-49.7685"/>
</g>
</g>
</svg>
