<?xml version="1.0" encoding="UTF-8" standalone="no"?>
<!DOCTYPE svg PUBLIC "-//W3C//DTD SVG 1.1//EN"
 "http://www.w3.org/Graphics/SVG/1.1/DTD/svg11.dtd">
<!-- Generated by graphviz version 2.34.0 (20130907.0111)
 -->
<!-- Title: Graphical Class Hierarchy Pages: 1 -->
<svg width="382pt" height="123pt"
 viewBox="0.00 0.00 382.00 123.00" xmlns="http://www.w3.org/2000/svg" xmlns:xlink="http://www.w3.org/1999/xlink">
<g id="graph0" class="graph" transform="scale(1 1) rotate(0) translate(4 119)">
<title>Graphical Class Hierarchy</title>
<polygon fill="white" stroke="white" points="-4,4 -4,-119 378,-119 378,4 -4,4"/>
<!-- Node1 -->
<g id="node1" class="node"><title>Node1</title>
<g id="a_node1"><a xlink:href="classid_g_l_drawable.html" target="_top" xlink:title="idGLDrawable">
<polygon fill="white" stroke="black" points="0.5,-57.5 0.5,-76.5 77.5,-76.5 77.5,-57.5 0.5,-57.5"/>
<text text-anchor="middle" x="39" y="-64.5" font-family="Arial" font-size="10.00">idGLDrawable</text>
</a>
</g>
</g>
<!-- Node2 -->
<g id="node2" class="node"><title>Node2</title>
<g id="a_node2"><a xlink:href="classid_g_l_drawable_console.html" target="_top" xlink:title="idGLDrawableConsole">
<polygon fill="white" stroke="black" points="114,-95.5 114,-114.5 226,-114.5 226,-95.5 114,-95.5"/>
<text text-anchor="middle" x="170" y="-102.5" font-family="Arial" font-size="10.00">idGLDrawableConsole</text>
</a>
</g>
</g>
<!-- Node1&#45;&gt;Node2 -->
<g id="edge1" class="edge"><title>Node1&#45;&gt;Node2</title>
<path fill="none" stroke="midnightblue" d="M82.554,-79.5353C100.103,-84.7048 120.113,-90.5991 136.458,-95.4141"/>
<polygon fill="midnightblue" stroke="midnightblue" points="83.1336,-76.0574 72.5521,-76.589 81.1556,-82.7721 83.1336,-76.0574"/>
</g>
<!-- Node3 -->
<g id="node3" class="node"><title>Node3</title>
<g id="a_node3"><a xlink:href="classid_g_l_drawable_view.html" target="_top" xlink:title="idGLDrawableView">
<polygon fill="white" stroke="black" points="121,-57.5 121,-76.5 219,-76.5 219,-57.5 121,-57.5"/>
<text text-anchor="middle" x="170" y="-64.5" font-family="Arial" font-size="10.00">idGLDrawableView</text>
</a>
</g>
</g>
<!-- Node1&#45;&gt;Node3 -->
<g id="edge2" class="edge"><title>Node1&#45;&gt;Node3</title>
<path fill="none" stroke="midnightblue" d="M87.7869,-67C98.6116,-67 110.111,-67 120.947,-67"/>
<polygon fill="midnightblue" stroke="midnightblue" points="87.659,-63.5001 77.6589,-67 87.6589,-70.5001 87.659,-63.5001"/>
</g>
<!-- Node4 -->
<g id="node4" class="node"><title>Node4</title>
<g id="a_node4"><a xlink:href="classid_g_l_drawable_world.html" target="_top" xlink:title="idGLDrawableWorld">
<polygon fill="white" stroke="black" points="119,-19.5 119,-38.5 221,-38.5 221,-19.5 119,-19.5"/>
<text text-anchor="middle" x="170" y="-26.5" font-family="Arial" font-size="10.00">idGLDrawableWorld</text>
</a>
</g>
</g>
<!-- Node1&#45;&gt;Node4 -->
<g id="edge3" class="edge"><title>Node1&#45;&gt;Node4</title>
<path fill="none" stroke="midnightblue" d="M82.554,-54.4647C100.103,-49.2952 120.113,-43.4009 136.458,-38.5859"/>
<polygon fill="midnightblue" stroke="midnightblue" points="81.1556,-51.2279 72.5521,-57.411 83.1336,-57.9426 81.1556,-51.2279"/>
</g>
<!-- Node5 -->
<g id="node5" class="node"><title>Node5</title>
<g id="a_node5"><a xlink:href="classid_g_l_drawable_material.html" target="_top" xlink:title="idGLDrawableMaterial">
<polygon fill="white" stroke="black" points="262.5,-38.5 262.5,-57.5 373.5,-57.5 373.5,-38.5 262.5,-38.5"/>
<text text-anchor="middle" x="318" y="-45.5" font-family="Arial" font-size="10.00">idGLDrawableMaterial</text>
</a>
</g>
</g>
<!-- Node4&#45;&gt;Node5 -->
<g id="edge4" class="edge"><title>Node4&#45;&gt;Node5</title>
<path fill="none" stroke="midnightblue" d="M231.383,-36.858C241.667,-38.1964 252.296,-39.5796 262.419,-40.897"/>
<polygon fill="midnightblue" stroke="midnightblue" points="231.613,-33.3586 221.245,-35.5387 230.71,-40.3 231.613,-33.3586"/>
</g>
<!-- Node6 -->
<g id="node6" class="node"><title>Node6</title>
<g id="a_node6"><a xlink:href="classid_g_l_drawable_model.html" target="_top" xlink:title="idGLDrawableModel">
<polygon fill="white" stroke="black" points="266.5,-0.5 266.5,-19.5 369.5,-19.5 369.5,-0.5 266.5,-0.5"/>
<text text-anchor="middle" x="318" y="-7.5" font-family="Arial" font-size="10.00">idGLDrawableModel</text>
</a>
</g>
</g>
<!-- Node4&#45;&gt;Node6 -->
<g id="edge5" class="edge"><title>Node4&#45;&gt;Node6</title>
<path fill="none" stroke="midnightblue" d="M231.287,-21.1544C242.878,-19.646 254.911,-18.0801 266.167,-16.6153"/>
<polygon fill="midnightblue" stroke="midnightblue" points="230.71,-17.7 221.245,-22.4613 231.613,-24.6414 230.71,-17.7"/>
</g>
</g>
</svg>
