<?xml version="1.0" encoding="UTF-8" standalone="no"?>
<!DOCTYPE svg PUBLIC "-//W3C//DTD SVG 1.1//EN"
 "http://www.w3.org/Graphics/SVG/1.1/DTD/svg11.dtd">
<!-- Generated by graphviz version 2.34.0 (20130907.0111)
 -->
<!-- Title: Graphical Class Hierarchy Pages: 1 -->
<svg width="202pt" height="66pt"
 viewBox="0.00 0.00 202.00 66.00" xmlns="http://www.w3.org/2000/svg" xmlns:xlink="http://www.w3.org/1999/xlink">
<g id="graph0" class="graph" transform="scale(1 1) rotate(0) translate(4 62)">
<title>Graphical Class Hierarchy</title>
<polygon fill="white" stroke="white" points="-4,4 -4,-62 198,-62 198,4 -4,4"/>
<!-- Node1 -->
<g id="node1" class="node"><title>Node1</title>
<g id="a_node1"><a xlink:href="classid_list.html" target="_top" xlink:title="idList\&lt; idStr \&gt;">
<polygon fill="white" stroke="black" points="0,-38.5 0,-57.5 78,-57.5 78,-38.5 0,-38.5"/>
<text text-anchor="middle" x="39" y="-45.5" font-family="Arial" font-size="10.00">idList&lt; idStr &gt;</text>
</a>
</g>
</g>
<!-- Node2 -->
<g id="node2" class="node"><title>Node2</title>
<g id="a_node2"><a xlink:href="classid_d_entry.html" target="_top" xlink:title="idDEntry">
<polygon fill="white" stroke="black" points="127,-38.5 127,-57.5 181,-57.5 181,-38.5 127,-38.5"/>
<text text-anchor="middle" x="154" y="-45.5" font-family="Arial" font-size="10.00">idDEntry</text>
</a>
</g>
</g>
<!-- Node1&#45;&gt;Node2 -->
<g id="edge1" class="edge"><title>Node1&#45;&gt;Node2</title>
<path fill="none" stroke="midnightblue" d="M88.6223,-48C101.772,-48 115.503,-48 126.889,-48"/>
<polygon fill="midnightblue" stroke="midnightblue" points="88.2567,-44.5001 78.2566,-48 88.2566,-51.5001 88.2567,-44.5001"/>
</g>
<!-- Node3 -->
<g id="node3" class="node"><title>Node3</title>
<g id="a_node3"><a xlink:href="classid_list_g_u_i_local.html" target="_top" xlink:title="idListGUILocal">
<polygon fill="white" stroke="black" points="114,-0.5 114,-19.5 194,-19.5 194,-0.5 114,-0.5"/>
<text text-anchor="middle" x="154" y="-7.5" font-family="Arial" font-size="10.00">idListGUILocal</text>
</a>
</g>
</g>
<!-- Node1&#45;&gt;Node3 -->
<g id="edge2" class="edge"><title>Node1&#45;&gt;Node3</title>
<path fill="none" stroke="darkgreen" d="M78.1402,-35.1741C93.3025,-30.0753 110.444,-24.3109 124.494,-19.5859"/>
<polygon fill="darkgreen" stroke="darkgreen" points="76.8775,-31.9061 68.5147,-38.411 79.1087,-38.5409 76.8775,-31.9061"/>
</g>
<!-- Node4 -->
<g id="node4" class="node"><title>Node4</title>
<g id="a_node4"><a xlink:href="classid_list_g_u_i.html" target="_top" xlink:title="idListGUI">
<polygon fill="white" stroke="black" points="11,-0.5 11,-19.5 67,-19.5 67,-0.5 11,-0.5"/>
<text text-anchor="middle" x="39" y="-7.5" font-family="Arial" font-size="10.00">idListGUI</text>
</a>
</g>
</g>
<!-- Node4&#45;&gt;Node3 -->
<g id="edge3" class="edge"><title>Node4&#45;&gt;Node3</title>
<path fill="none" stroke="midnightblue" d="M77.3727,-10C89.0466,-10 101.956,-10 113.754,-10"/>
<polygon fill="midnightblue" stroke="midnightblue" points="77.0663,-6.5001 67.0663,-10 77.0663,-13.5001 77.0663,-6.5001"/>
</g>
</g>
</svg>
