<?xml version="1.0" encoding="UTF-8" standalone="no"?>
<!DOCTYPE svg PUBLIC "-//W3C//DTD SVG 1.1//EN"
 "http://www.w3.org/Graphics/SVG/1.1/DTD/svg11.dtd">
<!-- Generated by graphviz version 2.34.0 (20130907.0111)
 -->
<!-- Title: Graphical Class Hierarchy Pages: 1 -->
<svg width="418pt" height="560pt"
 viewBox="0.00 0.00 418.00 560.00" xmlns="http://www.w3.org/2000/svg" xmlns:xlink="http://www.w3.org/1999/xlink">
<g id="graph0" class="graph" transform="scale(1 1) rotate(0) translate(4 556)">
<title>Graphical Class Hierarchy</title>
<polygon fill="white" stroke="white" points="-4,4 -4,-556 414,-556 414,4 -4,4"/>
<!-- Node1 -->
<g id="node1" class="node"><title>Node1</title>
<polygon fill="white" stroke="#bfbfbf" points="15,-513.5 15,-532.5 67,-532.5 67,-513.5 15,-513.5"/>
<text text-anchor="middle" x="41" y="-520.5" font-family="Arial" font-size="10.00">CButton</text>
</g>
<!-- Node2 -->
<g id="node2" class="node"><title>Node2</title>
<g id="a_node2"><a xlink:href="class_c_prop_tree_item_check.html" target="_top" xlink:title="CPropTreeItemCheck">
<polygon fill="white" stroke="black" points="127.5,-494.5 127.5,-513.5 236.5,-513.5 236.5,-494.5 127.5,-494.5"/>
<text text-anchor="middle" x="182" y="-501.5" font-family="Arial" font-size="10.00">CPropTreeItemCheck</text>
</a>
</g>
</g>
<!-- Node1&#45;&gt;Node2 -->
<g id="edge1" class="edge"><title>Node1&#45;&gt;Node2</title>
<path fill="none" stroke="midnightblue" d="M77.1588,-518.194C92.3323,-516.12 110.423,-513.647 127.22,-511.351"/>
<polygon fill="midnightblue" stroke="midnightblue" points="76.6057,-514.737 67.1719,-519.559 77.5538,-521.673 76.6057,-514.737"/>
</g>
<!-- Node3 -->
<g id="node3" class="node"><title>Node3</title>
<g id="a_node3"><a xlink:href="class_c_vector_ctl.html" target="_top" xlink:title="CVectorCtl">
<polygon fill="white" stroke="black" points="150,-532.5 150,-551.5 214,-551.5 214,-532.5 150,-532.5"/>
<text text-anchor="middle" x="182" y="-539.5" font-family="Arial" font-size="10.00">CVectorCtl</text>
</a>
</g>
</g>
<!-- Node1&#45;&gt;Node3 -->
<g id="edge2" class="edge"><title>Node1&#45;&gt;Node3</title>
<path fill="none" stroke="midnightblue" d="M77.2847,-527.823C99.683,-530.885 128.399,-534.81 149.933,-537.753"/>
<polygon fill="midnightblue" stroke="midnightblue" points="77.5538,-524.327 67.1719,-526.441 76.6057,-531.263 77.5538,-524.327"/>
</g>
<!-- Node4 -->
<g id="node4" class="node"><title>Node4</title>
<polygon fill="white" stroke="#bfbfbf" points="5.5,-456.5 5.5,-475.5 76.5,-475.5 76.5,-456.5 5.5,-456.5"/>
<text text-anchor="middle" x="41" y="-463.5" font-family="Arial" font-size="10.00">CComboBox</text>
</g>
<!-- Node5 -->
<g id="node5" class="node"><title>Node5</title>
<g id="a_node5"><a xlink:href="class_c_prop_tree_item_combo.html" target="_top" xlink:title="CPropTreeItemCombo">
<polygon fill="white" stroke="black" points="126,-456.5 126,-475.5 238,-475.5 238,-456.5 126,-456.5"/>
<text text-anchor="middle" x="182" y="-463.5" font-family="Arial" font-size="10.00">CPropTreeItemCombo</text>
</a>
</g>
</g>
<!-- Node4&#45;&gt;Node5 -->
<g id="edge3" class="edge"><title>Node4&#45;&gt;Node5</title>
<path fill="none" stroke="midnightblue" d="M86.8487,-466C99.2999,-466 112.964,-466 125.927,-466"/>
<polygon fill="midnightblue" stroke="midnightblue" points="86.717,-462.5 76.717,-466 86.717,-469.5 86.717,-462.5"/>
</g>
<!-- Node6 -->
<g id="node6" class="node"><title>Node6</title>
<polygon fill="white" stroke="#bfbfbf" points="20.5,-342.5 20.5,-361.5 61.5,-361.5 61.5,-342.5 20.5,-342.5"/>
<text text-anchor="middle" x="41" y="-349.5" font-family="Arial" font-size="10.00">CEdit</text>
</g>
<!-- Node7 -->
<g id="node7" class="node"><title>Node7</title>
<g id="a_node7"><a xlink:href="class_c_prop_tree_item_edit.html" target="_top" xlink:title="CPropTreeItemEdit">
<polygon fill="white" stroke="black" points="133,-342.5 133,-361.5 231,-361.5 231,-342.5 133,-342.5"/>
<text text-anchor="middle" x="182" y="-349.5" font-family="Arial" font-size="10.00">CPropTreeItemEdit</text>
</a>
</g>
</g>
<!-- Node6&#45;&gt;Node7 -->
<g id="edge4" class="edge"><title>Node6&#45;&gt;Node7</title>
<path fill="none" stroke="midnightblue" d="M71.6673,-352C89.4204,-352 112.408,-352 132.721,-352"/>
<polygon fill="midnightblue" stroke="midnightblue" points="71.6205,-348.5 61.6205,-352 71.6205,-355.5 71.6205,-348.5"/>
</g>
<!-- Node8 -->
<g id="node8" class="node"><title>Node8</title>
<g id="a_node8"><a xlink:href="class_c_prop_tree_item_edit_button.html" target="_top" xlink:title="CPropTreeItemEditButton">
<polygon fill="white" stroke="black" points="282.5,-323.5 282.5,-342.5 409.5,-342.5 409.5,-323.5 282.5,-323.5"/>
<text text-anchor="middle" x="346" y="-330.5" font-family="Arial" font-size="10.00">CPropTreeItemEditButton</text>
</a>
</g>
</g>
<!-- Node7&#45;&gt;Node8 -->
<g id="edge5" class="edge"><title>Node7&#45;&gt;Node8</title>
<path fill="none" stroke="midnightblue" d="M241.172,-345.177C254.519,-343.612 268.768,-341.941 282.298,-340.354"/>
<polygon fill="midnightblue" stroke="midnightblue" points="240.691,-341.71 231.167,-346.351 241.506,-348.662 240.691,-341.71"/>
</g>
<!-- Node9 -->
<g id="node9" class="node"><title>Node9</title>
<g id="a_node9"><a xlink:href="class_c_prop_tree_item_file_edit.html" target="_top" xlink:title="CPropTreeItemFileEdit">
<polygon fill="white" stroke="black" points="289,-361.5 289,-380.5 403,-380.5 403,-361.5 289,-361.5"/>
<text text-anchor="middle" x="346" y="-368.5" font-family="Arial" font-size="10.00">CPropTreeItemFileEdit</text>
</a>
</g>
</g>
<!-- Node7&#45;&gt;Node9 -->
<g id="edge6" class="edge"><title>Node7&#45;&gt;Node9</title>
<path fill="none" stroke="midnightblue" d="M241.149,-358.82C256.646,-360.637 273.358,-362.598 288.751,-364.403"/>
<polygon fill="midnightblue" stroke="midnightblue" points="241.506,-355.338 231.167,-357.649 240.691,-362.29 241.506,-355.338"/>
</g>
<!-- Node10 -->
<g id="node10" class="node"><title>Node10</title>
<g id="a_node10"><a xlink:href="class_c_prop_tree_item.html" target="_top" xlink:title="CPropTreeItem">
<polygon fill="white" stroke="black" points="0.5,-399.5 0.5,-418.5 81.5,-418.5 81.5,-399.5 0.5,-399.5"/>
<text text-anchor="middle" x="41" y="-406.5" font-family="Arial" font-size="10.00">CPropTreeItem</text>
</a>
</g>
</g>
<!-- Node10&#45;&gt;Node2 -->
<g id="edge8" class="edge"><title>Node10&#45;&gt;Node2</title>
<path fill="none" stroke="midnightblue" d="M59.9274,-425.65C66.8966,-432.221 74.8974,-439.888 82,-447 98.4391,-463.462 98.199,-472.787 118,-485 124.223,-488.838 131.272,-491.945 138.345,-494.446"/>
<polygon fill="midnightblue" stroke="midnightblue" points="62.0263,-422.82 52.3356,-418.538 57.2405,-427.929 62.0263,-422.82"/>
</g>
<!-- Node10&#45;&gt;Node5 -->
<g id="edge10" class="edge"><title>Node10&#45;&gt;Node5</title>
<path fill="none" stroke="midnightblue" d="M67.9827,-423.375C82.435,-431.016 100.907,-440.207 118,-447 126.812,-450.502 136.532,-453.73 145.645,-456.494"/>
<polygon fill="midnightblue" stroke="midnightblue" points="69.587,-420.264 59.1207,-418.619 66.2764,-426.432 69.587,-420.264"/>
</g>
<!-- Node10&#45;&gt;Node7 -->
<g id="edge11" class="edge"><title>Node10&#45;&gt;Node7</title>
<path fill="none" stroke="midnightblue" d="M67.9827,-394.625C82.435,-386.984 100.907,-377.793 118,-371 126.812,-367.498 136.532,-364.27 145.645,-361.506"/>
<polygon fill="midnightblue" stroke="midnightblue" points="66.2764,-391.568 59.1207,-399.381 69.587,-397.736 66.2764,-391.568"/>
</g>
<!-- Node11 -->
<g id="node11" class="node"><title>Node11</title>
<g id="a_node11"><a xlink:href="class_c_prop_tree_item_button.html" target="_top" xlink:title="CPropTreeItemButton">
<polygon fill="white" stroke="black" points="127,-380.5 127,-399.5 237,-399.5 237,-380.5 127,-380.5"/>
<text text-anchor="middle" x="182" y="-387.5" font-family="Arial" font-size="10.00">CPropTreeItemButton</text>
</a>
</g>
</g>
<!-- Node10&#45;&gt;Node11 -->
<g id="edge7" class="edge"><title>Node10&#45;&gt;Node11</title>
<path fill="none" stroke="midnightblue" d="M91.9921,-402.167C103.328,-400.617 115.418,-398.964 126.915,-397.393"/>
<polygon fill="midnightblue" stroke="midnightblue" points="91.2657,-398.733 81.8318,-403.555 92.2137,-405.669 91.2657,-398.733"/>
</g>
<!-- Node12 -->
<g id="node12" class="node"><title>Node12</title>
<g id="a_node12"><a xlink:href="class_c_prop_tree_item_color.html" target="_top" xlink:title="CPropTreeItemColor">
<polygon fill="white" stroke="black" points="130,-304.5 130,-323.5 234,-323.5 234,-304.5 130,-304.5"/>
<text text-anchor="middle" x="182" y="-311.5" font-family="Arial" font-size="10.00">CPropTreeItemColor</text>
</a>
</g>
</g>
<!-- Node10&#45;&gt;Node12 -->
<g id="edge9" class="edge"><title>Node10&#45;&gt;Node12</title>
<path fill="none" stroke="midnightblue" d="M59.9274,-392.35C66.8966,-385.779 74.8974,-378.112 82,-371 98.4391,-354.538 98.199,-345.213 118,-333 124.223,-329.162 131.272,-326.055 138.345,-323.554"/>
<polygon fill="midnightblue" stroke="midnightblue" points="57.2405,-390.071 52.3356,-399.462 62.0263,-395.18 57.2405,-390.071"/>
</g>
<!-- Node13 -->
<g id="node13" class="node"><title>Node13</title>
<g id="a_node13"><a xlink:href="class_c_prop_tree_item_static.html" target="_top" xlink:title="CPropTreeItemStatic">
<polygon fill="white" stroke="black" points="128.5,-418.5 128.5,-437.5 235.5,-437.5 235.5,-418.5 128.5,-418.5"/>
<text text-anchor="middle" x="182" y="-425.5" font-family="Arial" font-size="10.00">CPropTreeItemStatic</text>
</a>
</g>
</g>
<!-- Node10&#45;&gt;Node13 -->
<g id="edge12" class="edge"><title>Node10&#45;&gt;Node13</title>
<path fill="none" stroke="midnightblue" d="M91.9901,-415.833C103.834,-417.452 116.501,-419.184 128.455,-420.818"/>
<polygon fill="midnightblue" stroke="midnightblue" points="92.2137,-412.331 81.8318,-414.445 91.2657,-419.267 92.2137,-412.331"/>
</g>
<!-- Node14 -->
<g id="node14" class="node"><title>Node14</title>
<polygon fill="white" stroke="#bfbfbf" points="19,-152.5 19,-171.5 63,-171.5 63,-152.5 19,-152.5"/>
<text text-anchor="middle" x="41" y="-159.5" font-family="Arial" font-size="10.00">CWnd</text>
</g>
<!-- Node14&#45;&gt;Node12 -->
<g id="edge16" class="edge"><title>Node14&#45;&gt;Node12</title>
<path fill="none" stroke="midnightblue" d="M47.923,-181.465C57.7488,-210.484 80.1768,-264.894 118,-295 122.916,-298.913 128.628,-302.022 134.566,-304.491"/>
<polygon fill="midnightblue" stroke="midnightblue" points="51.1705,-180.132 44.7684,-171.69 44.5088,-182.282 51.1705,-180.132"/>
</g>
<!-- Node15 -->
<g id="node15" class="node"><title>Node15</title>
<g id="a_node15"><a xlink:href="class_c_cam_wnd.html" target="_top" xlink:title="CCamWnd">
<polygon fill="white" stroke="black" points="150,-76.5 150,-95.5 214,-95.5 214,-76.5 150,-76.5"/>
<text text-anchor="middle" x="182" y="-83.5" font-family="Arial" font-size="10.00">CCamWnd</text>
</a>
</g>
</g>
<!-- Node14&#45;&gt;Node15 -->
<g id="edge13" class="edge"><title>Node14&#45;&gt;Node15</title>
<path fill="none" stroke="midnightblue" d="M60.3002,-145.349C74.9765,-132.751 96.5921,-115.826 118,-105 127.889,-99.9991 139.329,-96.0601 149.724,-93.0963"/>
<polygon fill="midnightblue" stroke="midnightblue" points="57.718,-142.959 52.5149,-152.188 62.3378,-148.218 57.718,-142.959"/>
</g>
<!-- Node16 -->
<g id="node16" class="node"><title>Node16</title>
<g id="a_node16"><a xlink:href="class_c_new_tex_wnd.html" target="_top" xlink:title="CNewTexWnd">
<polygon fill="white" stroke="black" points="143,-38.5 143,-57.5 221,-57.5 221,-38.5 143,-38.5"/>
<text text-anchor="middle" x="182" y="-45.5" font-family="Arial" font-size="10.00">CNewTexWnd</text>
</a>
</g>
</g>
<!-- Node14&#45;&gt;Node16 -->
<g id="edge14" class="edge"><title>Node14&#45;&gt;Node16</title>
<path fill="none" stroke="midnightblue" d="M52.0979,-143.507C64.7511,-122.032 88.411,-87.0042 118,-67 125.382,-62.0092 134.114,-58.2959 142.688,-55.5448"/>
<polygon fill="midnightblue" stroke="midnightblue" points="48.9873,-141.897 47.077,-152.318 55.0691,-145.363 48.9873,-141.897"/>
</g>
<!-- Node17 -->
<g id="node17" class="node"><title>Node17</title>
<g id="a_node17"><a xlink:href="class_c_prop_tree.html" target="_top" xlink:title="CPropTree">
<polygon fill="white" stroke="black" points="151,-0.5 151,-19.5 213,-19.5 213,-0.5 151,-0.5"/>
<text text-anchor="middle" x="182" y="-7.5" font-family="Arial" font-size="10.00">CPropTree</text>
</a>
</g>
</g>
<!-- Node14&#45;&gt;Node17 -->
<g id="edge15" class="edge"><title>Node14&#45;&gt;Node17</title>
<path fill="none" stroke="midnightblue" d="M47.923,-142.535C57.7488,-113.516 80.1768,-59.1063 118,-29 127.385,-21.5297 139.67,-16.991 150.897,-14.2358"/>
<polygon fill="midnightblue" stroke="midnightblue" points="44.5088,-141.718 44.7684,-152.31 51.1705,-143.868 44.5088,-141.718"/>
</g>
<!-- Node18 -->
<g id="node18" class="node"><title>Node18</title>
<g id="a_node18"><a xlink:href="class_c_prop_tree_list.html" target="_top" xlink:title="CPropTreeList">
<polygon fill="white" stroke="black" points="143,-266.5 143,-285.5 221,-285.5 221,-266.5 143,-266.5"/>
<text text-anchor="middle" x="182" y="-273.5" font-family="Arial" font-size="10.00">CPropTreeList</text>
</a>
</g>
</g>
<!-- Node14&#45;&gt;Node18 -->
<g id="edge17" class="edge"><title>Node14&#45;&gt;Node18</title>
<path fill="none" stroke="midnightblue" d="M52.0979,-180.493C64.7511,-201.968 88.411,-236.996 118,-257 125.382,-261.991 134.114,-265.704 142.688,-268.455"/>
<polygon fill="midnightblue" stroke="midnightblue" points="55.0691,-178.637 47.077,-171.682 48.9873,-182.103 55.0691,-178.637"/>
</g>
<!-- Node19 -->
<g id="node19" class="node"><title>Node19</title>
<g id="a_node19"><a xlink:href="class_c_tearoff_container_window.html" target="_top" xlink:title="CTearoffContainerWindow">
<polygon fill="white" stroke="black" points="118,-228.5 118,-247.5 246,-247.5 246,-228.5 118,-228.5"/>
<text text-anchor="middle" x="182" y="-235.5" font-family="Arial" font-size="10.00">CTearoffContainerWindow</text>
</a>
</g>
</g>
<!-- Node14&#45;&gt;Node19 -->
<g id="edge18" class="edge"><title>Node14&#45;&gt;Node19</title>
<path fill="none" stroke="midnightblue" d="M60.3002,-178.651C74.9765,-191.249 96.5921,-208.174 118,-219 125.34,-222.712 133.535,-225.839 141.523,-228.416"/>
<polygon fill="midnightblue" stroke="midnightblue" points="62.3378,-175.782 52.5149,-171.812 57.718,-181.041 62.3378,-175.782"/>
</g>
<!-- Node20 -->
<g id="node20" class="node"><title>Node20</title>
<g id="a_node20"><a xlink:href="class_c_x_y_wnd.html" target="_top" xlink:title="CXYWnd">
<polygon fill="white" stroke="black" points="154,-190.5 154,-209.5 210,-209.5 210,-190.5 154,-190.5"/>
<text text-anchor="middle" x="182" y="-197.5" font-family="Arial" font-size="10.00">CXYWnd</text>
</a>
</g>
</g>
<!-- Node14&#45;&gt;Node20 -->
<g id="edge19" class="edge"><title>Node14&#45;&gt;Node20</title>
<path fill="none" stroke="midnightblue" d="M72.9025,-170.448C97.1982,-177.09 130.709,-186.251 153.952,-192.606"/>
<polygon fill="midnightblue" stroke="midnightblue" points="73.6801,-167.032 63.1111,-167.771 71.8342,-173.785 73.6801,-167.032"/>
</g>
<!-- Node21 -->
<g id="node21" class="node"><title>Node21</title>
<g id="a_node21"><a xlink:href="class_c_z_wnd.html" target="_top" xlink:title="CZWnd">
<polygon fill="white" stroke="black" points="157.5,-152.5 157.5,-171.5 206.5,-171.5 206.5,-152.5 157.5,-152.5"/>
<text text-anchor="middle" x="182" y="-159.5" font-family="Arial" font-size="10.00">CZWnd</text>
</a>
</g>
</g>
<!-- Node14&#45;&gt;Node21 -->
<g id="edge20" class="edge"><title>Node14&#45;&gt;Node21</title>
<path fill="none" stroke="midnightblue" d="M73.3592,-162C98.8372,-162 134.222,-162 157.359,-162"/>
<polygon fill="midnightblue" stroke="midnightblue" points="73.1111,-158.5 63.1111,-162 73.1111,-165.5 73.1111,-158.5"/>
</g>
<!-- Node22 -->
<g id="node22" class="node"><title>Node22</title>
<g id="a_node22"><a xlink:href="classid_g_l_widget.html" target="_top" xlink:title="idGLWidget">
<polygon fill="white" stroke="black" points="148,-114.5 148,-133.5 216,-133.5 216,-114.5 148,-114.5"/>
<text text-anchor="middle" x="182" y="-121.5" font-family="Arial" font-size="10.00">idGLWidget</text>
</a>
</g>
</g>
<!-- Node14&#45;&gt;Node22 -->
<g id="edge21" class="edge"><title>Node14&#45;&gt;Node22</title>
<path fill="none" stroke="midnightblue" d="M73.0246,-153.518C95.2253,-147.449 125.074,-139.289 147.761,-133.087"/>
<polygon fill="midnightblue" stroke="midnightblue" points="71.8342,-150.215 63.1111,-156.229 73.6801,-156.968 71.8342,-150.215"/>
</g>
<!-- Node23 -->
<g id="node23" class="node"><title>Node23</title>
<g id="a_node23"><a xlink:href="classid_g_l_console_widget.html" target="_top" xlink:title="idGLConsoleWidget">
<polygon fill="white" stroke="black" points="294.5,-114.5 294.5,-133.5 397.5,-133.5 397.5,-114.5 294.5,-114.5"/>
<text text-anchor="middle" x="346" y="-121.5" font-family="Arial" font-size="10.00">idGLConsoleWidget</text>
</a>
</g>
</g>
<!-- Node22&#45;&gt;Node23 -->
<g id="edge22" class="edge"><title>Node22&#45;&gt;Node23</title>
<path fill="none" stroke="midnightblue" d="M226.371,-124C247.289,-124 272.512,-124 294.312,-124"/>
<polygon fill="midnightblue" stroke="midnightblue" points="226.174,-120.5 216.174,-124 226.174,-127.5 226.174,-120.5"/>
</g>
</g>
</svg>
