<?xml version="1.0" encoding="UTF-8" standalone="no"?>
<!DOCTYPE svg PUBLIC "-//W3C//DTD SVG 1.1//EN"
 "http://www.w3.org/Graphics/SVG/1.1/DTD/svg11.dtd">
<!-- Generated by graphviz version 2.34.0 (20130907.0111)
 -->
<!-- Title: Graphical Class Hierarchy Pages: 1 -->
<svg width="512pt" height="332pt"
 viewBox="0.00 0.00 512.00 332.00" xmlns="http://www.w3.org/2000/svg" xmlns:xlink="http://www.w3.org/1999/xlink">
<g id="graph0" class="graph" transform="scale(1 1) rotate(0) translate(4 328)">
<title>Graphical Class Hierarchy</title>
<polygon fill="white" stroke="white" points="-4,4 -4,-328 508,-328 508,4 -4,4"/>
<!-- Node1 -->
<g id="node1" class="node"><title>Node1</title>
<polygon fill="white" stroke="#bfbfbf" points="114.5,-266.5 114.5,-285.5 181.5,-285.5 181.5,-266.5 114.5,-266.5"/>
<text text-anchor="middle" x="148" y="-273.5" font-family="Arial" font-size="10.00">CFormView</text>
</g>
<!-- Node2 -->
<g id="node2" class="node"><title>Node2</title>
<g id="a_node2"><a xlink:href="class_console_view.html" target="_top" xlink:title="ConsoleView">
<polygon fill="white" stroke="black" points="252.5,-266.5 252.5,-285.5 325.5,-285.5 325.5,-266.5 252.5,-266.5"/>
<text text-anchor="middle" x="289" y="-273.5" font-family="Arial" font-size="10.00">ConsoleView</text>
</a>
</g>
</g>
<!-- Node1&#45;&gt;Node2 -->
<g id="edge1" class="edge"><title>Node1&#45;&gt;Node2</title>
<path fill="none" stroke="midnightblue" d="M191.676,-276C211.056,-276 233.723,-276 252.198,-276"/>
<polygon fill="midnightblue" stroke="midnightblue" points="191.589,-272.5 181.589,-276 191.589,-279.5 191.589,-272.5"/>
</g>
<!-- Node3 -->
<g id="node3" class="node"><title>Node3</title>
<g id="a_node3"><a xlink:href="class_c_prop_tree_view.html" target="_top" xlink:title="CPropTreeView">
<polygon fill="white" stroke="black" points="247.5,-304.5 247.5,-323.5 330.5,-323.5 330.5,-304.5 247.5,-304.5"/>
<text text-anchor="middle" x="289" y="-311.5" font-family="Arial" font-size="10.00">CPropTreeView</text>
</a>
</g>
</g>
<!-- Node1&#45;&gt;Node3 -->
<g id="edge2" class="edge"><title>Node1&#45;&gt;Node3</title>
<path fill="none" stroke="midnightblue" d="M191.291,-287.562C211.101,-292.977 234.413,-299.35 253.185,-304.482"/>
<polygon fill="midnightblue" stroke="midnightblue" points="192.158,-284.17 181.589,-284.909 190.312,-290.923 192.158,-284.17"/>
</g>
<!-- Node6 -->
<g id="node6" class="node"><title>Node6</title>
<g id="a_node6"><a xlink:href="class_material_edit_view.html" target="_top" xlink:title="MaterialEditView">
<polygon fill="white" stroke="black" points="244.5,-228.5 244.5,-247.5 333.5,-247.5 333.5,-228.5 244.5,-228.5"/>
<text text-anchor="middle" x="289" y="-235.5" font-family="Arial" font-size="10.00">MaterialEditView</text>
</a>
</g>
</g>
<!-- Node1&#45;&gt;Node6 -->
<g id="edge5" class="edge"><title>Node1&#45;&gt;Node6</title>
<path fill="none" stroke="midnightblue" d="M191.291,-264.438C211.101,-259.023 234.413,-252.65 253.185,-247.518"/>
<polygon fill="midnightblue" stroke="midnightblue" points="190.312,-261.077 181.589,-267.091 192.158,-267.83 190.312,-261.077"/>
</g>
<!-- Node4 -->
<g id="node4" class="node"><title>Node4</title>
<g id="a_node4"><a xlink:href="class_material_preview_prop_view.html" target="_top" xlink:title="MaterialPreviewPropView">
<polygon fill="white" stroke="black" points="378.5,-304.5 378.5,-323.5 503.5,-323.5 503.5,-304.5 378.5,-304.5"/>
<text text-anchor="middle" x="441" y="-311.5" font-family="Arial" font-size="10.00">MaterialPreviewPropView</text>
</a>
</g>
</g>
<!-- Node3&#45;&gt;Node4 -->
<g id="edge3" class="edge"><title>Node3&#45;&gt;Node4</title>
<path fill="none" stroke="midnightblue" d="M340.868,-314C352.872,-314 365.799,-314 378.226,-314"/>
<polygon fill="midnightblue" stroke="midnightblue" points="340.592,-310.5 330.592,-314 340.592,-317.5 340.592,-310.5"/>
</g>
<!-- Node5 -->
<g id="node5" class="node"><title>Node5</title>
<g id="a_node5"><a xlink:href="class_material_prop_tree_view.html" target="_top" xlink:title="MaterialPropTreeView">
<polygon fill="white" stroke="black" points="385.5,-190.5 385.5,-209.5 496.5,-209.5 496.5,-190.5 385.5,-190.5"/>
<text text-anchor="middle" x="441" y="-197.5" font-family="Arial" font-size="10.00">MaterialPropTreeView</text>
</a>
</g>
</g>
<!-- Node3&#45;&gt;Node5 -->
<g id="edge4" class="edge"><title>Node3&#45;&gt;Node5</title>
<path fill="none" stroke="midnightblue" d="M331.961,-300.453C335.448,-298.797 338.842,-296.98 342,-295 380.946,-270.578 417.144,-228.614 432.393,-209.72"/>
<polygon fill="midnightblue" stroke="midnightblue" points="330.421,-297.305 322.614,-304.468 333.183,-303.737 330.421,-297.305"/>
</g>
<!-- Node7 -->
<g id="node7" class="node"><title>Node7</title>
<polygon fill="white" stroke="#bfbfbf" points="112.5,-171.5 112.5,-190.5 183.5,-190.5 183.5,-171.5 112.5,-171.5"/>
<text text-anchor="middle" x="148" y="-178.5" font-family="Arial" font-size="10.00">CFrameWnd</text>
</g>
<!-- Node8 -->
<g id="node8" class="node"><title>Node8</title>
<g id="a_node8"><a xlink:href="class_c_main_frame.html" target="_top" xlink:title="CMainFrame">
<polygon fill="white" stroke="black" points="253,-190.5 253,-209.5 325,-209.5 325,-190.5 253,-190.5"/>
<text text-anchor="middle" x="289" y="-197.5" font-family="Arial" font-size="10.00">CMainFrame</text>
</a>
</g>
</g>
<!-- Node7&#45;&gt;Node8 -->
<g id="edge6" class="edge"><title>Node7&#45;&gt;Node8</title>
<path fill="none" stroke="midnightblue" d="M193.705,-187.111C212.823,-189.724 234.822,-192.731 252.76,-195.183"/>
<polygon fill="midnightblue" stroke="midnightblue" points="194.099,-183.632 183.717,-185.745 193.151,-190.568 194.099,-183.632"/>
</g>
<!-- Node9 -->
<g id="node9" class="node"><title>Node9</title>
<g id="a_node9"><a xlink:href="class_m_e_main_frame.html" target="_top" xlink:title="MEMainFrame">
<polygon fill="white" stroke="black" points="249,-152.5 249,-171.5 329,-171.5 329,-152.5 249,-152.5"/>
<text text-anchor="middle" x="289" y="-159.5" font-family="Arial" font-size="10.00">MEMainFrame</text>
</a>
</g>
</g>
<!-- Node7&#45;&gt;Node9 -->
<g id="edge7" class="edge"><title>Node7&#45;&gt;Node9</title>
<path fill="none" stroke="midnightblue" d="M193.82,-174.873C211.533,-172.452 231.704,-169.695 248.823,-167.355"/>
<polygon fill="midnightblue" stroke="midnightblue" points="193.151,-171.432 183.717,-176.255 194.099,-178.368 193.151,-171.432"/>
</g>
<!-- Node10 -->
<g id="node10" class="node"><title>Node10</title>
<polygon fill="white" stroke="#bfbfbf" points="0,-76.5 0,-95.5 60,-95.5 60,-76.5 0,-76.5"/>
<text text-anchor="middle" x="30" y="-83.5" font-family="Arial" font-size="10.00">CListView</text>
</g>
<!-- Node11 -->
<g id="node11" class="node"><title>Node11</title>
<g id="a_node11"><a xlink:href="class_toggle_list_view.html" target="_top" xlink:title="ToggleListView">
<polygon fill="white" stroke="black" points="107,-76.5 107,-95.5 189,-95.5 189,-76.5 107,-76.5"/>
<text text-anchor="middle" x="148" y="-83.5" font-family="Arial" font-size="10.00">ToggleListView</text>
</a>
</g>
</g>
<!-- Node10&#45;&gt;Node11 -->
<g id="edge8" class="edge"><title>Node10&#45;&gt;Node11</title>
<path fill="none" stroke="midnightblue" d="M70.6185,-86C82.2923,-86 95.074,-86 106.785,-86"/>
<polygon fill="midnightblue" stroke="midnightblue" points="70.2717,-82.5001 60.2717,-86 70.2717,-89.5001 70.2717,-82.5001"/>
</g>
<!-- Node12 -->
<g id="node12" class="node"><title>Node12</title>
<g id="a_node12"><a xlink:href="class_stage_view.html" target="_top" xlink:title="StageView">
<polygon fill="white" stroke="black" points="257.5,-76.5 257.5,-95.5 320.5,-95.5 320.5,-76.5 257.5,-76.5"/>
<text text-anchor="middle" x="289" y="-83.5" font-family="Arial" font-size="10.00">StageView</text>
</a>
</g>
</g>
<!-- Node11&#45;&gt;Node12 -->
<g id="edge9" class="edge"><title>Node11&#45;&gt;Node12</title>
<path fill="none" stroke="midnightblue" d="M199.383,-86C218.718,-86 240.193,-86 257.159,-86"/>
<polygon fill="midnightblue" stroke="midnightblue" points="199.205,-82.5001 189.205,-86 199.205,-89.5001 199.205,-82.5001"/>
</g>
<!-- Node13 -->
<g id="node13" class="node"><title>Node13</title>
<polygon fill="white" stroke="#bfbfbf" points="116.5,-38.5 116.5,-57.5 179.5,-57.5 179.5,-38.5 116.5,-38.5"/>
<text text-anchor="middle" x="148" y="-45.5" font-family="Arial" font-size="10.00">CTreeView</text>
</g>
<!-- Node14 -->
<g id="node14" class="node"><title>Node14</title>
<g id="a_node14"><a xlink:href="class_material_tree_view.html" target="_top" xlink:title="MaterialTreeView">
<polygon fill="white" stroke="black" points="243.5,-38.5 243.5,-57.5 334.5,-57.5 334.5,-38.5 243.5,-38.5"/>
<text text-anchor="middle" x="289" y="-45.5" font-family="Arial" font-size="10.00">MaterialTreeView</text>
</a>
</g>
</g>
<!-- Node13&#45;&gt;Node14 -->
<g id="edge10" class="edge"><title>Node13&#45;&gt;Node14</title>
<path fill="none" stroke="midnightblue" d="M189.594,-48C206.446,-48 226.056,-48 243.316,-48"/>
<polygon fill="midnightblue" stroke="midnightblue" points="189.504,-44.5001 179.504,-48 189.504,-51.5001 189.504,-44.5001"/>
</g>
<!-- Node15 -->
<g id="node15" class="node"><title>Node15</title>
<polygon fill="white" stroke="#bfbfbf" points="126,-0.5 126,-19.5 170,-19.5 170,-0.5 126,-0.5"/>
<text text-anchor="middle" x="148" y="-7.5" font-family="Arial" font-size="10.00">CView</text>
</g>
<!-- Node16 -->
<g id="node16" class="node"><title>Node16</title>
<g id="a_node16"><a xlink:href="class_material_preview_view.html" target="_top" xlink:title="MaterialPreviewView">
<polygon fill="white" stroke="black" points="236.5,-0.5 236.5,-19.5 341.5,-19.5 341.5,-0.5 236.5,-0.5"/>
<text text-anchor="middle" x="289" y="-7.5" font-family="Arial" font-size="10.00">MaterialPreviewView</text>
</a>
</g>
</g>
<!-- Node15&#45;&gt;Node16 -->
<g id="edge11" class="edge"><title>Node15&#45;&gt;Node16</title>
<path fill="none" stroke="midnightblue" d="M180.296,-10C196.805,-10 217.487,-10 236.302,-10"/>
<polygon fill="midnightblue" stroke="midnightblue" points="180.111,-6.5001 170.111,-10 180.111,-13.5001 180.111,-6.5001"/>
</g>
<!-- Node17 -->
<g id="node17" class="node"><title>Node17</title>
<g id="a_node17"><a xlink:href="class_material_view.html" target="_top" xlink:title="MaterialView">
<polygon fill="white" stroke="black" points="112,-114.5 112,-133.5 184,-133.5 184,-114.5 112,-114.5"/>
<text text-anchor="middle" x="148" y="-121.5" font-family="Arial" font-size="10.00">MaterialView</text>
</a>
</g>
</g>
<!-- Node17&#45;&gt;Node5 -->
<g id="edge14" class="edge"><title>Node17&#45;&gt;Node5</title>
<path fill="none" stroke="midnightblue" d="M194.265,-123.067C234.095,-123.501 293.179,-127.228 342,-143 375.338,-153.77 409.695,-177.12 427.535,-190.349"/>
<polygon fill="midnightblue" stroke="midnightblue" points="194.085,-119.566 184.07,-123.023 194.055,-126.566 194.085,-119.566"/>
</g>
<!-- Node17&#45;&gt;Node6 -->
<g id="edge12" class="edge"><title>Node17&#45;&gt;Node6</title>
<path fill="none" stroke="midnightblue" d="M173.467,-139.461C182.414,-145.797 192.236,-153.614 200,-162 220.355,-183.987 212.681,-200.185 236,-219 240.787,-222.863 246.431,-225.982 252.204,-228.487"/>
<polygon fill="midnightblue" stroke="midnightblue" points="175.158,-136.378 164.92,-133.651 171.222,-142.167 175.158,-136.378"/>
</g>
<!-- Node17&#45;&gt;Node9 -->
<g id="edge16" class="edge"><title>Node17&#45;&gt;Node9</title>
<path fill="none" stroke="midnightblue" d="M193.795,-136.246C212.955,-141.484 234.994,-147.509 252.936,-152.414"/>
<polygon fill="midnightblue" stroke="midnightblue" points="194.645,-132.85 184.076,-133.589 192.799,-139.602 194.645,-132.85"/>
</g>
<!-- Node17&#45;&gt;Node12 -->
<g id="edge17" class="edge"><title>Node17&#45;&gt;Node12</title>
<path fill="none" stroke="midnightblue" d="M193.92,-111.72C214.597,-106.067 238.606,-99.5034 257.195,-94.4216"/>
<polygon fill="midnightblue" stroke="midnightblue" points="192.799,-108.398 184.076,-114.411 194.645,-115.15 192.799,-108.398"/>
</g>
<!-- Node17&#45;&gt;Node14 -->
<g id="edge15" class="edge"><title>Node17&#45;&gt;Node14</title>
<path fill="none" stroke="midnightblue" d="M190.678,-110.328C193.925,-108.709 197.075,-106.936 200,-105 219.402,-92.1627 216.558,-79.7761 236,-67 241.703,-63.2524 248.243,-60.1221 254.716,-57.5549"/>
<polygon fill="midnightblue" stroke="midnightblue" points="189.078,-107.209 181.374,-114.481 191.932,-113.601 189.078,-107.209"/>
</g>
<!-- Node17&#45;&gt;Node16 -->
<g id="edge13" class="edge"><title>Node17&#45;&gt;Node16</title>
<path fill="none" stroke="midnightblue" d="M193.559,-109.958C195.851,-108.464 198.02,-106.817 200,-105 227.537,-79.7286 208.383,-54.1845 236,-29 240.261,-25.1141 245.381,-22.0061 250.724,-19.5246"/>
<polygon fill="midnightblue" stroke="midnightblue" points="191.384,-107.155 184.249,-114.987 194.711,-113.314 191.384,-107.155"/>
</g>
<!-- Node18 -->
<g id="node18" class="node"><title>Node18</title>
<g id="a_node18"><a xlink:href="class_source_modify_owner.html" target="_top" xlink:title="SourceModifyOwner">
<polygon fill="white" stroke="black" points="96,-228.5 96,-247.5 200,-247.5 200,-228.5 96,-228.5"/>
<text text-anchor="middle" x="148" y="-235.5" font-family="Arial" font-size="10.00">SourceModifyOwner</text>
</a>
</g>
</g>
<!-- Node18&#45;&gt;Node6 -->
<g id="edge18" class="edge"><title>Node18&#45;&gt;Node6</title>
<path fill="none" stroke="#8b1a1a" d="M210.626,-238C221.926,-238 233.506,-238 244.152,-238"/>
<polygon fill="#8b1a1a" stroke="#8b1a1a" points="210.364,-234.5 200.364,-238 210.364,-241.5 210.364,-234.5"/>
</g>
</g>
</svg>
