<?xml version="1.0" encoding="UTF-8" standalone="no"?>
<!DOCTYPE svg PUBLIC "-//W3C//DTD SVG 1.1//EN"
 "http://www.w3.org/Graphics/SVG/1.1/DTD/svg11.dtd">
<!-- Generated by graphviz version 2.34.0 (20130907.0111)
 -->
<!-- Title: Graphical Class Hierarchy Pages: 1 -->
<svg width="144pt" height="66pt"
 viewBox="0.00 0.00 144.00 66.00" xmlns="http://www.w3.org/2000/svg" xmlns:xlink="http://www.w3.org/1999/xlink">
<g id="graph0" class="graph" transform="scale(1 1) rotate(0) translate(4 62)">
<title>Graphical Class Hierarchy</title>
<polygon fill="white" stroke="white" points="-4,4 -4,-62 140,-62 140,4 -4,4"/>
<!-- Node1 -->
<g id="node1" class="node"><title>Node1</title>
<g id="a_node1"><a xlink:href="classid_i_k.html" target="_top" xlink:title="idIK">
<polygon fill="white" stroke="black" points="0.5,-19.5 0.5,-38.5 33.5,-38.5 33.5,-19.5 0.5,-19.5"/>
<text text-anchor="middle" x="17" y="-26.5" font-family="Arial" font-size="10.00">idIK</text>
</a>
</g>
</g>
<!-- Node2 -->
<g id="node2" class="node"><title>Node2</title>
<g id="a_node2"><a xlink:href="classid_i_k___reach.html" target="_top" xlink:title="idIK_Reach">
<polygon fill="white" stroke="black" points="70,-38.5 70,-57.5 136,-57.5 136,-38.5 70,-38.5"/>
<text text-anchor="middle" x="103" y="-45.5" font-family="Arial" font-size="10.00">idIK_Reach</text>
</a>
</g>
</g>
<!-- Node1&#45;&gt;Node2 -->
<g id="edge1" class="edge"><title>Node1&#45;&gt;Node2</title>
<path fill="none" stroke="midnightblue" d="M43.6389,-34.7993C51.9278,-36.6741 61.2243,-38.7769 69.9193,-40.7436"/>
<polygon fill="midnightblue" stroke="midnightblue" points="44.3256,-31.3662 33.7998,-32.5738 42.7812,-38.1938 44.3256,-31.3662"/>
</g>
<!-- Node3 -->
<g id="node3" class="node"><title>Node3</title>
<g id="a_node3"><a xlink:href="classid_i_k___walk.html" target="_top" xlink:title="idIK_Walk">
<polygon fill="white" stroke="black" points="72.5,-0.5 72.5,-19.5 133.5,-19.5 133.5,-0.5 72.5,-0.5"/>
<text text-anchor="middle" x="103" y="-7.5" font-family="Arial" font-size="10.00">idIK_Walk</text>
</a>
</g>
</g>
<!-- Node1&#45;&gt;Node3 -->
<g id="edge2" class="edge"><title>Node1&#45;&gt;Node3</title>
<path fill="none" stroke="midnightblue" d="M43.7371,-23.1785C52.7731,-21.1347 62.9968,-18.8222 72.3293,-16.7112"/>
<polygon fill="midnightblue" stroke="midnightblue" points="42.7812,-19.8062 33.7998,-25.4262 44.3256,-26.6338 42.7812,-19.8062"/>
</g>
</g>
</svg>
