<?xml version="1.0" encoding="UTF-8" standalone="no"?>
<!DOCTYPE svg PUBLIC "-//W3C//DTD SVG 1.1//EN"
 "http://www.w3.org/Graphics/SVG/1.1/DTD/svg11.dtd">
<!-- Generated by graphviz version 2.34.0 (20130907.0111)
 -->
<!-- Title: Graphical Class Hierarchy Pages: 1 -->
<svg width="264pt" height="104pt"
 viewBox="0.00 0.00 264.00 104.00" xmlns="http://www.w3.org/2000/svg" xmlns:xlink="http://www.w3.org/1999/xlink">
<g id="graph0" class="graph" transform="scale(1 1) rotate(0) translate(4 100)">
<title>Graphical Class Hierarchy</title>
<polygon fill="white" stroke="white" points="-4,4 -4,-100 260,-100 260,4 -4,4"/>
<!-- Node1 -->
<g id="node1" class="node"><title>Node1</title>
<g id="a_node1"><a xlink:href="classid_a_a_s_callback.html" target="_top" xlink:title="idAASCallback">
<polygon fill="white" stroke="black" points="0,-38.5 0,-57.5 82,-57.5 82,-38.5 0,-38.5"/>
<text text-anchor="middle" x="41" y="-45.5" font-family="Arial" font-size="10.00">idAASCallback</text>
</a>
</g>
</g>
<!-- Node2 -->
<g id="node2" class="node"><title>Node2</title>
<g id="a_node2"><a xlink:href="classid_a_a_s_find_area_out_of_range.html" target="_top" xlink:title="idAASFindAreaOutOfRange">
<polygon fill="white" stroke="black" points="118.5,-76.5 118.5,-95.5 255.5,-95.5 255.5,-76.5 118.5,-76.5"/>
<text text-anchor="middle" x="187" y="-83.5" font-family="Arial" font-size="10.00">idAASFindAreaOutOfRange</text>
</a>
</g>
</g>
<!-- Node1&#45;&gt;Node2 -->
<g id="edge1" class="edge"><title>Node1&#45;&gt;Node2</title>
<path fill="none" stroke="midnightblue" d="M88.1722,-60.1843C108.164,-65.46 131.219,-71.5438 149.924,-76.4799"/>
<polygon fill="midnightblue" stroke="midnightblue" points="88.8994,-56.7565 78.3373,-57.589 87.1132,-63.5248 88.8994,-56.7565"/>
</g>
<!-- Node3 -->
<g id="node3" class="node"><title>Node3</title>
<g id="a_node3"><a xlink:href="classid_a_a_s_find_attack_position.html" target="_top" xlink:title="idAASFindAttackPosition">
<polygon fill="white" stroke="black" points="123.5,-38.5 123.5,-57.5 250.5,-57.5 250.5,-38.5 123.5,-38.5"/>
<text text-anchor="middle" x="187" y="-45.5" font-family="Arial" font-size="10.00">idAASFindAttackPosition</text>
</a>
</g>
</g>
<!-- Node1&#45;&gt;Node3 -->
<g id="edge2" class="edge"><title>Node1&#45;&gt;Node3</title>
<path fill="none" stroke="midnightblue" d="M92.3238,-48C102.375,-48 113.047,-48 123.451,-48"/>
<polygon fill="midnightblue" stroke="midnightblue" points="92.1121,-44.5001 82.112,-48 92.112,-51.5001 92.1121,-44.5001"/>
</g>
<!-- Node4 -->
<g id="node4" class="node"><title>Node4</title>
<g id="a_node4"><a xlink:href="classid_a_a_s_find_cover.html" target="_top" xlink:title="idAASFindCover">
<polygon fill="white" stroke="black" points="143.5,-0.5 143.5,-19.5 230.5,-19.5 230.5,-0.5 143.5,-0.5"/>
<text text-anchor="middle" x="187" y="-7.5" font-family="Arial" font-size="10.00">idAASFindCover</text>
</a>
</g>
</g>
<!-- Node1&#45;&gt;Node4 -->
<g id="edge3" class="edge"><title>Node1&#45;&gt;Node4</title>
<path fill="none" stroke="midnightblue" d="M88.1722,-35.8157C108.164,-30.54 131.219,-24.4562 149.924,-19.5201"/>
<polygon fill="midnightblue" stroke="midnightblue" points="87.1132,-32.4752 78.3373,-38.411 88.8994,-39.2435 87.1132,-32.4752"/>
</g>
</g>
</svg>
