<?xml version="1.0" encoding="UTF-8" standalone="no"?>
<!DOCTYPE svg PUBLIC "-//W3C//DTD SVG 1.1//EN"
 "http://www.w3.org/Graphics/SVG/1.1/DTD/svg11.dtd">
<!-- Generated by graphviz version 2.34.0 (20130907.0111)
 -->
<!-- Title: Graphical Class Hierarchy Pages: 1 -->
<svg width="384pt" height="104pt"
 viewBox="0.00 0.00 384.00 104.00" xmlns="http://www.w3.org/2000/svg" xmlns:xlink="http://www.w3.org/1999/xlink">
<g id="graph0" class="graph" transform="scale(1 1) rotate(0) translate(4 100)">
<title>Graphical Class Hierarchy</title>
<polygon fill="white" stroke="white" points="-4,4 -4,-100 380,-100 380,4 -4,4"/>
<!-- Node1 -->
<g id="node1" class="node"><title>Node1</title>
<g id="a_node1"><a xlink:href="classid_point_list_interface.html" target="_top" xlink:title="idPointListInterface">
<polygon fill="white" stroke="black" points="0.5,-38.5 0.5,-57.5 99.5,-57.5 99.5,-38.5 0.5,-38.5"/>
<text text-anchor="middle" x="50" y="-45.5" font-family="Arial" font-size="10.00">idPointListInterface</text>
</a>
</g>
</g>
<!-- Node2 -->
<g id="node2" class="node"><title>Node2</title>
<g id="a_node2"><a xlink:href="classid_camera_position.html" target="_top" xlink:title="idCameraPosition">
<polygon fill="white" stroke="black" points="136.5,-38.5 136.5,-57.5 229.5,-57.5 229.5,-38.5 136.5,-38.5"/>
<text text-anchor="middle" x="183" y="-45.5" font-family="Arial" font-size="10.00">idCameraPosition</text>
</a>
</g>
</g>
<!-- Node1&#45;&gt;Node2 -->
<g id="edge1" class="edge"><title>Node1&#45;&gt;Node2</title>
<path fill="none" stroke="midnightblue" d="M109.995,-48C118.792,-48 127.747,-48 136.217,-48"/>
<polygon fill="midnightblue" stroke="midnightblue" points="109.78,-44.5001 99.7796,-48 109.78,-51.5001 109.78,-44.5001"/>
</g>
<!-- Node3 -->
<g id="node3" class="node"><title>Node3</title>
<g id="a_node3"><a xlink:href="classid_fixed_position.html" target="_top" xlink:title="idFixedPosition">
<polygon fill="white" stroke="black" points="279.5,-76.5 279.5,-95.5 362.5,-95.5 362.5,-76.5 279.5,-76.5"/>
<text text-anchor="middle" x="321" y="-83.5" font-family="Arial" font-size="10.00">idFixedPosition</text>
</a>
</g>
</g>
<!-- Node2&#45;&gt;Node3 -->
<g id="edge2" class="edge"><title>Node2&#45;&gt;Node3</title>
<path fill="none" stroke="midnightblue" d="M228.087,-60.3183C246.772,-65.5393 268.218,-71.5316 285.692,-76.4141"/>
<polygon fill="midnightblue" stroke="midnightblue" points="228.892,-56.9092 218.319,-57.589 227.008,-63.651 228.892,-56.9092"/>
</g>
<!-- Node4 -->
<g id="node4" class="node"><title>Node4</title>
<g id="a_node4"><a xlink:href="classid_interpolated_position.html" target="_top" xlink:title="idInterpolatedPosition">
<polygon fill="white" stroke="black" points="266,-38.5 266,-57.5 376,-57.5 376,-38.5 266,-38.5"/>
<text text-anchor="middle" x="321" y="-45.5" font-family="Arial" font-size="10.00">idInterpolatedPosition</text>
</a>
</g>
</g>
<!-- Node2&#45;&gt;Node4 -->
<g id="edge3" class="edge"><title>Node2&#45;&gt;Node4</title>
<path fill="none" stroke="midnightblue" d="M239.908,-48C248.443,-48 257.242,-48 265.741,-48"/>
<polygon fill="midnightblue" stroke="midnightblue" points="239.664,-44.5001 229.664,-48 239.664,-51.5001 239.664,-44.5001"/>
</g>
<!-- Node5 -->
<g id="node5" class="node"><title>Node5</title>
<g id="a_node5"><a xlink:href="classid_spline_position.html" target="_top" xlink:title="idSplinePosition">
<polygon fill="white" stroke="black" points="278,-0.5 278,-19.5 364,-19.5 364,-0.5 278,-0.5"/>
<text text-anchor="middle" x="321" y="-7.5" font-family="Arial" font-size="10.00">idSplinePosition</text>
</a>
</g>
</g>
<!-- Node2&#45;&gt;Node5 -->
<g id="edge4" class="edge"><title>Node2&#45;&gt;Node5</title>
<path fill="none" stroke="midnightblue" d="M228.087,-35.6817C246.772,-30.4607 268.218,-24.4684 285.692,-19.5859"/>
<polygon fill="midnightblue" stroke="midnightblue" points="227.008,-32.349 218.319,-38.411 228.892,-39.0908 227.008,-32.349"/>
</g>
</g>
</svg>
