<?xml version="1.0" encoding="UTF-8" standalone="no"?>
<!DOCTYPE svg PUBLIC "-//W3C//DTD SVG 1.1//EN"
 "http://www.w3.org/Graphics/SVG/1.1/DTD/svg11.dtd">
<!-- Generated by graphviz version 2.34.0 (20130907.0111)
 -->
<!-- Title: Graphical Class Hierarchy Pages: 1 -->
<svg width="192pt" height="104pt"
 viewBox="0.00 0.00 192.00 104.00" xmlns="http://www.w3.org/2000/svg" xmlns:xlink="http://www.w3.org/1999/xlink">
<g id="graph0" class="graph" transform="scale(1 1) rotate(0) translate(4 100)">
<title>Graphical Class Hierarchy</title>
<polygon fill="white" stroke="white" points="-4,4 -4,-100 188,-100 188,4 -4,4"/>
<!-- Node1 -->
<g id="node1" class="node"><title>Node1</title>
<g id="a_node1"><a xlink:href="classid_exception.html" target="_top" xlink:title="idException">
<polygon fill="white" stroke="black" points="0,-38.5 0,-57.5 68,-57.5 68,-38.5 0,-38.5"/>
<text text-anchor="middle" x="34" y="-45.5" font-family="Arial" font-size="10.00">idException</text>
</a>
</g>
</g>
<!-- Node2 -->
<g id="node2" class="node"><title>Node2</title>
<g id="a_node2"><a xlink:href="classid_alloc_error.html" target="_top" xlink:title="idAllocError">
<polygon fill="white" stroke="black" points="110.5,-76.5 110.5,-95.5 177.5,-95.5 177.5,-76.5 110.5,-76.5"/>
<text text-anchor="middle" x="144" y="-83.5" font-family="Arial" font-size="10.00">idAllocError</text>
</a>
</g>
</g>
<!-- Node1&#45;&gt;Node2 -->
<g id="edge1" class="edge"><title>Node1&#45;&gt;Node2</title>
<path fill="none" stroke="midnightblue" d="M71.8672,-60.9718C86.2558,-66.0344 102.455,-71.7341 115.756,-76.4141"/>
<polygon fill="midnightblue" stroke="midnightblue" points="72.8478,-57.6065 62.253,-57.589 70.5244,-64.2097 72.8478,-57.6065"/>
</g>
<!-- Node3 -->
<g id="node3" class="node"><title>Node3</title>
<g id="a_node3"><a xlink:href="classid_compile_error.html" target="_top" xlink:title="idCompileError">
<polygon fill="white" stroke="black" points="104,-38.5 104,-57.5 184,-57.5 184,-38.5 104,-38.5"/>
<text text-anchor="middle" x="144" y="-45.5" font-family="Arial" font-size="10.00">idCompileError</text>
</a>
</g>
</g>
<!-- Node1&#45;&gt;Node3 -->
<g id="edge2" class="edge"><title>Node1&#45;&gt;Node3</title>
<path fill="none" stroke="midnightblue" d="M78.3642,-48C86.8232,-48 95.6447,-48 103.953,-48"/>
<polygon fill="midnightblue" stroke="midnightblue" points="78.2848,-44.5001 68.2848,-48 78.2848,-51.5001 78.2848,-44.5001"/>
</g>
<!-- Node4 -->
<g id="node4" class="node"><title>Node4</title>
<g id="a_node4"><a xlink:href="classid_game_error.html" target="_top" xlink:title="idGameError">
<polygon fill="white" stroke="black" points="108.5,-0.5 108.5,-19.5 179.5,-19.5 179.5,-0.5 108.5,-0.5"/>
<text text-anchor="middle" x="144" y="-7.5" font-family="Arial" font-size="10.00">idGameError</text>
</a>
</g>
</g>
<!-- Node1&#45;&gt;Node4 -->
<g id="edge3" class="edge"><title>Node1&#45;&gt;Node4</title>
<path fill="none" stroke="midnightblue" d="M71.8672,-35.0282C86.2558,-29.9656 102.455,-24.2659 115.756,-19.5859"/>
<polygon fill="midnightblue" stroke="midnightblue" points="70.5244,-31.7903 62.253,-38.411 72.8478,-38.3935 70.5244,-31.7903"/>
</g>
</g>
</svg>
