<?xml version="1.0" encoding="UTF-8" standalone="no"?>
<!DOCTYPE svg PUBLIC "-//W3C//DTD SVG 1.1//EN"
 "http://www.w3.org/Graphics/SVG/1.1/DTD/svg11.dtd">
<!-- Generated by graphviz version 2.34.0 (20130907.0111)
 -->
<!-- Title: Graphical Class Hierarchy Pages: 1 -->
<svg width="220pt" height="104pt"
 viewBox="0.00 0.00 220.00 104.00" xmlns="http://www.w3.org/2000/svg" xmlns:xlink="http://www.w3.org/1999/xlink">
<g id="graph0" class="graph" transform="scale(1 1) rotate(0) translate(4 100)">
<title>Graphical Class Hierarchy</title>
<polygon fill="white" stroke="white" points="-4,4 -4,-100 216,-100 216,4 -4,4"/>
<!-- Node1 -->
<g id="node1" class="node"><title>Node1</title>
<g id="a_node1"><a xlink:href="class_sound_f_x.html" target="_top" xlink:title="SoundFX">
<polygon fill="white" stroke="black" points="0,-38.5 0,-57.5 56,-57.5 56,-38.5 0,-38.5"/>
<text text-anchor="middle" x="28" y="-45.5" font-family="Arial" font-size="10.00">SoundFX</text>
</a>
</g>
</g>
<!-- Node2 -->
<g id="node2" class="node"><title>Node2</title>
<g id="a_node2"><a xlink:href="class_sound_f_x___comb.html" target="_top" xlink:title="SoundFX_Comb">
<polygon fill="white" stroke="black" points="109,-76.5 109,-95.5 195,-95.5 195,-76.5 109,-76.5"/>
<text text-anchor="middle" x="152" y="-83.5" font-family="Arial" font-size="10.00">SoundFX_Comb</text>
</a>
</g>
</g>
<!-- Node1&#45;&gt;Node2 -->
<g id="edge1" class="edge"><title>Node1&#45;&gt;Node2</title>
<path fill="none" stroke="midnightblue" d="M65.8689,-59.4837C83.1999,-64.8819 103.629,-71.2452 120.13,-76.3849"/>
<polygon fill="midnightblue" stroke="midnightblue" points="66.6642,-56.0657 56.0758,-56.4334 64.5825,-62.749 66.6642,-56.0657"/>
</g>
<!-- Node3 -->
<g id="node3" class="node"><title>Node3</title>
<g id="a_node3"><a xlink:href="class_sound_f_x___lowpass.html" target="_top" xlink:title="SoundFX_Lowpass">
<polygon fill="white" stroke="black" points="102.5,-38.5 102.5,-57.5 201.5,-57.5 201.5,-38.5 102.5,-38.5"/>
<text text-anchor="middle" x="152" y="-45.5" font-family="Arial" font-size="10.00">SoundFX_Lowpass</text>
</a>
</g>
</g>
<!-- Node1&#45;&gt;Node3 -->
<g id="edge2" class="edge"><title>Node1&#45;&gt;Node3</title>
<path fill="none" stroke="midnightblue" d="M66.1391,-48C77.5654,-48 90.3177,-48 102.393,-48"/>
<polygon fill="midnightblue" stroke="midnightblue" points="66.0758,-44.5001 56.0758,-48 66.0757,-51.5001 66.0758,-44.5001"/>
</g>
<!-- Node4 -->
<g id="node4" class="node"><title>Node4</title>
<g id="a_node4"><a xlink:href="class_sound_f_x___lowpass_fast.html" target="_top" xlink:title="SoundFX_LowpassFast">
<polygon fill="white" stroke="black" points="92.5,-0.5 92.5,-19.5 211.5,-19.5 211.5,-0.5 92.5,-0.5"/>
<text text-anchor="middle" x="152" y="-7.5" font-family="Arial" font-size="10.00">SoundFX_LowpassFast</text>
</a>
</g>
</g>
<!-- Node1&#45;&gt;Node4 -->
<g id="edge3" class="edge"><title>Node1&#45;&gt;Node4</title>
<path fill="none" stroke="midnightblue" d="M65.8689,-36.5163C83.1999,-31.1181 103.629,-24.7548 120.13,-19.6151"/>
<polygon fill="midnightblue" stroke="midnightblue" points="64.5825,-33.251 56.0758,-39.5666 66.6642,-39.9343 64.5825,-33.251"/>
</g>
</g>
</svg>
