<?xml version="1.0" encoding="UTF-8" standalone="no"?>
<!DOCTYPE svg PUBLIC "-//W3C//DTD SVG 1.1//EN"
 "http://www.w3.org/Graphics/SVG/1.1/DTD/svg11.dtd">
<!-- Generated by graphviz version 2.34.0 (20130907.0111)
 -->
<!-- Title: Graphical Class Hierarchy Pages: 1 -->
<svg width="278pt" height="730pt"
 viewBox="0.00 0.00 278.00 730.00" xmlns="http://www.w3.org/2000/svg" xmlns:xlink="http://www.w3.org/1999/xlink">
<g id="graph0" class="graph" transform="scale(1 1) rotate(0) translate(4 726)">
<title>Graphical Class Hierarchy</title>
<polygon fill="white" stroke="white" points="-4,4 -4,-726 274,-726 274,4 -4,4"/>
<!-- Node1 -->
<g id="node1" class="node"><title>Node1</title>
<g id="a_node1"><a xlink:href="classid_a_f_constraint.html" target="_top" xlink:title="idAFConstraint">
<polygon fill="white" stroke="black" points="0.5,-345.5 0.5,-364.5 81.5,-364.5 81.5,-345.5 0.5,-345.5"/>
<text text-anchor="middle" x="41" y="-352.5" font-family="Arial" font-size="10.00">idAFConstraint</text>
</a>
</g>
</g>
<!-- Node2 -->
<g id="node2" class="node"><title>Node2</title>
<g id="a_node2"><a xlink:href="classid_a_f_constraint___ball_and_socket_joint.html" target="_top" xlink:title="idAFConstraint_BallAndSocket\lJoint">
<polygon fill="white" stroke="black" points="118.5,-692 118.5,-722 269.5,-722 269.5,-692 118.5,-692"/>
<text text-anchor="start" x="126.5" y="-710" font-family="Arial" font-size="10.00">idAFConstraint_BallAndSocket</text>
<text text-anchor="middle" x="194" y="-699" font-family="Arial" font-size="10.00">Joint</text>
</a>
</g>
</g>
<!-- Node1&#45;&gt;Node2 -->
<g id="edge1" class="edge"><title>Node1&#45;&gt;Node2</title>
<path fill="none" stroke="midnightblue" d="M44.1047,-375.063C51.1834,-438.921 76.0676,-635.957 118,-682 121.512,-685.856 125.634,-689.118 130.107,-691.878"/>
<polygon fill="midnightblue" stroke="midnightblue" points="47.545,-374.321 42.9901,-364.755 40.5856,-375.074 47.545,-374.321"/>
</g>
<!-- Node3 -->
<g id="node3" class="node"><title>Node3</title>
<g id="a_node3"><a xlink:href="classid_a_f_constraint___ball_and_socket_joint_friction.html" target="_top" xlink:title="idAFConstraint_BallAndSocket\lJointFriction">
<polygon fill="white" stroke="black" points="118.5,-643 118.5,-673 269.5,-673 269.5,-643 118.5,-643"/>
<text text-anchor="start" x="126.5" y="-661" font-family="Arial" font-size="10.00">idAFConstraint_BallAndSocket</text>
<text text-anchor="middle" x="194" y="-650" font-family="Arial" font-size="10.00">JointFriction</text>
</a>
</g>
</g>
<!-- Node1&#45;&gt;Node3 -->
<g id="edge2" class="edge"><title>Node1&#45;&gt;Node3</title>
<path fill="none" stroke="midnightblue" d="M41.4518,-374.813C41.1687,-425.014 47.4784,-558.497 118,-633 121.68,-636.887 125.979,-640.171 130.623,-642.944"/>
<polygon fill="midnightblue" stroke="midnightblue" points="44.9536,-374.719 41.6107,-364.665 37.9545,-374.609 44.9536,-374.719"/>
</g>
<!-- Node4 -->
<g id="node4" class="node"><title>Node4</title>
<g id="a_node4"><a xlink:href="classid_a_f_constraint___cone_limit.html" target="_top" xlink:title="idAFConstraint_ConeLimit">
<polygon fill="white" stroke="black" points="129,-604.5 129,-623.5 259,-623.5 259,-604.5 129,-604.5"/>
<text text-anchor="middle" x="194" y="-611.5" font-family="Arial" font-size="10.00">idAFConstraint_ConeLimit</text>
</a>
</g>
</g>
<!-- Node1&#45;&gt;Node4 -->
<g id="edge3" class="edge"><title>Node1&#45;&gt;Node4</title>
<path fill="none" stroke="midnightblue" d="M42.1674,-375.149C43.6899,-421.184 54.0994,-534.736 118,-595 122.104,-598.871 126.88,-601.983 131.998,-604.481"/>
<polygon fill="midnightblue" stroke="midnightblue" points="45.6628,-374.894 41.9447,-364.973 38.6645,-375.048 45.6628,-374.894"/>
</g>
<!-- Node5 -->
<g id="node5" class="node"><title>Node5</title>
<g id="a_node5"><a xlink:href="classid_a_f_constraint___contact.html" target="_top" xlink:title="idAFConstraint_Contact">
<polygon fill="white" stroke="black" points="134,-566.5 134,-585.5 254,-585.5 254,-566.5 134,-566.5"/>
<text text-anchor="middle" x="194" y="-573.5" font-family="Arial" font-size="10.00">idAFConstraint_Contact</text>
</a>
</g>
</g>
<!-- Node1&#45;&gt;Node5 -->
<g id="edge4" class="edge"><title>Node1&#45;&gt;Node5</title>
<path fill="none" stroke="midnightblue" d="M43.5384,-374.956C47.7704,-415.549 63.2222,-508.025 118,-557 122.606,-561.118 127.979,-564.37 133.693,-566.934"/>
<polygon fill="midnightblue" stroke="midnightblue" points="47.0014,-374.391 42.6025,-364.753 40.0306,-375.03 47.0014,-374.391"/>
</g>
<!-- Node6 -->
<g id="node6" class="node"><title>Node6</title>
<g id="a_node6"><a xlink:href="classid_a_f_constraint___contact_friction.html" target="_top" xlink:title="idAFConstraint_ContactFriction">
<polygon fill="white" stroke="black" points="118,-528.5 118,-547.5 270,-547.5 270,-528.5 118,-528.5"/>
<text text-anchor="middle" x="194" y="-535.5" font-family="Arial" font-size="10.00">idAFConstraint_ContactFriction</text>
</a>
</g>
</g>
<!-- Node1&#45;&gt;Node6 -->
<g id="edge5" class="edge"><title>Node1&#45;&gt;Node6</title>
<path fill="none" stroke="midnightblue" d="M45.6366,-375.041C52.9705,-409.559 72.8505,-480.16 118,-518 123.164,-522.328 129.172,-525.728 135.497,-528.398"/>
<polygon fill="midnightblue" stroke="midnightblue" points="48.988,-373.947 43.612,-364.818 42.1214,-375.307 48.988,-373.947"/>
</g>
<!-- Node7 -->
<g id="node7" class="node"><title>Node7</title>
<g id="a_node7"><a xlink:href="classid_a_f_constraint___cylindrical_joint.html" target="_top" xlink:title="idAFConstraint_Cylindrical\lJoint">
<polygon fill="white" stroke="black" points="128.5,-479 128.5,-509 259.5,-509 259.5,-479 128.5,-479"/>
<text text-anchor="start" x="136.5" y="-497" font-family="Arial" font-size="10.00">idAFConstraint_Cylindrical</text>
<text text-anchor="middle" x="194" y="-486" font-family="Arial" font-size="10.00">Joint</text>
</a>
</g>
</g>
<!-- Node1&#45;&gt;Node7 -->
<g id="edge6" class="edge"><title>Node1&#45;&gt;Node7</title>
<path fill="none" stroke="midnightblue" d="M49.7521,-373.712C61.1087,-398.902 84.6052,-443.493 118,-469 123.017,-472.832 128.653,-476.095 134.523,-478.868"/>
<polygon fill="midnightblue" stroke="midnightblue" points="52.9482,-372.285 45.7552,-364.506 46.5272,-375.073 52.9482,-372.285"/>
</g>
<!-- Node8 -->
<g id="node8" class="node"><title>Node8</title>
<g id="a_node8"><a xlink:href="classid_a_f_constraint___fixed.html" target="_top" xlink:title="idAFConstraint_Fixed">
<polygon fill="white" stroke="black" points="139,-440.5 139,-459.5 249,-459.5 249,-440.5 139,-440.5"/>
<text text-anchor="middle" x="194" y="-447.5" font-family="Arial" font-size="10.00">idAFConstraint_Fixed</text>
</a>
</g>
</g>
<!-- Node1&#45;&gt;Node8 -->
<g id="edge7" class="edge"><title>Node1&#45;&gt;Node8</title>
<path fill="none" stroke="midnightblue" d="M55.072,-372.793C68.8174,-390.219 92.0275,-416.241 118,-431 124.773,-434.849 132.327,-437.929 139.961,-440.392"/>
<polygon fill="midnightblue" stroke="midnightblue" points="57.6375,-370.386 48.7823,-364.57 52.0773,-374.639 57.6375,-370.386"/>
</g>
<!-- Node9 -->
<g id="node9" class="node"><title>Node9</title>
<g id="a_node9"><a xlink:href="classid_a_f_constraint___hinge.html" target="_top" xlink:title="idAFConstraint_Hinge">
<polygon fill="white" stroke="black" points="138.5,-402.5 138.5,-421.5 249.5,-421.5 249.5,-402.5 138.5,-402.5"/>
<text text-anchor="middle" x="194" y="-409.5" font-family="Arial" font-size="10.00">idAFConstraint_Hinge</text>
</a>
</g>
</g>
<!-- Node1&#45;&gt;Node9 -->
<g id="edge8" class="edge"><title>Node1&#45;&gt;Node9</title>
<path fill="none" stroke="midnightblue" d="M67.299,-369.374C81.7969,-377.169 100.532,-386.507 118,-393 127.695,-396.604 138.343,-399.758 148.493,-402.408"/>
<polygon fill="midnightblue" stroke="midnightblue" points="68.8913,-366.256 58.4395,-364.521 65.528,-372.395 68.8913,-366.256"/>
</g>
<!-- Node10 -->
<g id="node10" class="node"><title>Node10</title>
<g id="a_node10"><a xlink:href="classid_a_f_constraint___hinge_friction.html" target="_top" xlink:title="idAFConstraint_HingeFriction">
<polygon fill="white" stroke="black" points="122.5,-364.5 122.5,-383.5 265.5,-383.5 265.5,-364.5 122.5,-364.5"/>
<text text-anchor="middle" x="194" y="-371.5" font-family="Arial" font-size="10.00">idAFConstraint_HingeFriction</text>
</a>
</g>
</g>
<!-- Node1&#45;&gt;Node10 -->
<g id="edge9" class="edge"><title>Node1&#45;&gt;Node10</title>
<path fill="none" stroke="midnightblue" d="M91.6447,-361.247C101.476,-362.484 111.972,-363.804 122.346,-365.11"/>
<polygon fill="midnightblue" stroke="midnightblue" points="92.0322,-357.768 81.6735,-359.992 91.1583,-364.713 92.0322,-357.768"/>
</g>
<!-- Node11 -->
<g id="node11" class="node"><title>Node11</title>
<g id="a_node11"><a xlink:href="classid_a_f_constraint___hinge_steering.html" target="_top" xlink:title="idAFConstraint_HingeSteering">
<polygon fill="white" stroke="black" points="120.5,-326.5 120.5,-345.5 267.5,-345.5 267.5,-326.5 120.5,-326.5"/>
<text text-anchor="middle" x="194" y="-333.5" font-family="Arial" font-size="10.00">idAFConstraint_HingeSteering</text>
</a>
</g>
</g>
<!-- Node1&#45;&gt;Node11 -->
<g id="edge10" class="edge"><title>Node1&#45;&gt;Node11</title>
<path fill="none" stroke="midnightblue" d="M91.7337,-348.742C100.89,-347.59 110.622,-346.365 120.292,-345.149"/>
<polygon fill="midnightblue" stroke="midnightblue" points="91.1583,-345.287 81.6735,-350.008 92.0322,-352.232 91.1583,-345.287"/>
</g>
<!-- Node12 -->
<g id="node12" class="node"><title>Node12</title>
<g id="a_node12"><a xlink:href="classid_a_f_constraint___line.html" target="_top" xlink:title="idAFConstraint_Line">
<polygon fill="white" stroke="black" points="142,-288.5 142,-307.5 246,-307.5 246,-288.5 142,-288.5"/>
<text text-anchor="middle" x="194" y="-295.5" font-family="Arial" font-size="10.00">idAFConstraint_Line</text>
</a>
</g>
</g>
<!-- Node1&#45;&gt;Node12 -->
<g id="edge11" class="edge"><title>Node1&#45;&gt;Node12</title>
<path fill="none" stroke="midnightblue" d="M67.299,-340.626C81.7969,-332.831 100.532,-323.493 118,-317 127.695,-313.396 138.343,-310.242 148.493,-307.592"/>
<polygon fill="midnightblue" stroke="midnightblue" points="65.528,-337.605 58.4395,-345.479 68.8913,-343.744 65.528,-337.605"/>
</g>
<!-- Node13 -->
<g id="node13" class="node"><title>Node13</title>
<g id="a_node13"><a xlink:href="classid_a_f_constraint___plane.html" target="_top" xlink:title="idAFConstraint_Plane">
<polygon fill="white" stroke="black" points="138.5,-250.5 138.5,-269.5 249.5,-269.5 249.5,-250.5 138.5,-250.5"/>
<text text-anchor="middle" x="194" y="-257.5" font-family="Arial" font-size="10.00">idAFConstraint_Plane</text>
</a>
</g>
</g>
<!-- Node1&#45;&gt;Node13 -->
<g id="edge12" class="edge"><title>Node1&#45;&gt;Node13</title>
<path fill="none" stroke="midnightblue" d="M55.072,-337.207C68.8174,-319.781 92.0275,-293.759 118,-279 124.773,-275.151 132.327,-272.071 139.961,-269.608"/>
<polygon fill="midnightblue" stroke="midnightblue" points="52.0773,-335.361 48.7823,-345.43 57.6375,-339.614 52.0773,-335.361"/>
</g>
<!-- Node14 -->
<g id="node14" class="node"><title>Node14</title>
<g id="a_node14"><a xlink:href="classid_a_f_constraint___pyramid_limit.html" target="_top" xlink:title="idAFConstraint_PyramidLimit">
<polygon fill="white" stroke="black" points="122.5,-212.5 122.5,-231.5 265.5,-231.5 265.5,-212.5 122.5,-212.5"/>
<text text-anchor="middle" x="194" y="-219.5" font-family="Arial" font-size="10.00">idAFConstraint_PyramidLimit</text>
</a>
</g>
</g>
<!-- Node1&#45;&gt;Node14 -->
<g id="edge13" class="edge"><title>Node1&#45;&gt;Node14</title>
<path fill="none" stroke="midnightblue" d="M49.488,-335.928C60.5407,-310.325 83.689,-265.26 118,-241 123.484,-237.123 129.686,-234.035 136.118,-231.577"/>
<polygon fill="midnightblue" stroke="midnightblue" points="46.2007,-334.719 45.6109,-345.297 52.6688,-337.396 46.2007,-334.719"/>
</g>
<!-- Node15 -->
<g id="node15" class="node"><title>Node15</title>
<g id="a_node15"><a xlink:href="classid_a_f_constraint___slider.html" target="_top" xlink:title="idAFConstraint_Slider">
<polygon fill="white" stroke="black" points="138.5,-174.5 138.5,-193.5 249.5,-193.5 249.5,-174.5 138.5,-174.5"/>
<text text-anchor="middle" x="194" y="-181.5" font-family="Arial" font-size="10.00">idAFConstraint_Slider</text>
</a>
</g>
</g>
<!-- Node1&#45;&gt;Node15 -->
<g id="edge14" class="edge"><title>Node1&#45;&gt;Node15</title>
<path fill="none" stroke="midnightblue" d="M46.2252,-335.342C54.287,-302.721 75.0277,-237.582 118,-203 123.965,-198.2 130.991,-194.595 138.312,-191.892"/>
<polygon fill="midnightblue" stroke="midnightblue" points="42.7376,-334.888 43.8868,-345.42 49.5564,-336.47 42.7376,-334.888"/>
</g>
<!-- Node16 -->
<g id="node16" class="node"><title>Node16</title>
<g id="a_node16"><a xlink:href="classid_a_f_constraint___spring.html" target="_top" xlink:title="idAFConstraint_Spring">
<polygon fill="white" stroke="black" points="137,-136.5 137,-155.5 251,-155.5 251,-136.5 137,-136.5"/>
<text text-anchor="middle" x="194" y="-143.5" font-family="Arial" font-size="10.00">idAFConstraint_Spring</text>
</a>
</g>
</g>
<!-- Node1&#45;&gt;Node16 -->
<g id="edge15" class="edge"><title>Node1&#45;&gt;Node16</title>
<path fill="none" stroke="midnightblue" d="M44.0288,-335.417C49.1043,-296.79 65.9406,-210.586 118,-165 123.457,-160.222 129.949,-156.614 136.796,-153.895"/>
<polygon fill="midnightblue" stroke="midnightblue" points="40.5494,-335.037 42.847,-345.38 47.5006,-335.862 40.5494,-335.037"/>
</g>
<!-- Node17 -->
<g id="node17" class="node"><title>Node17</title>
<g id="a_node17"><a xlink:href="classid_a_f_constraint___suspension.html" target="_top" xlink:title="idAFConstraint_Suspension">
<polygon fill="white" stroke="black" points="125.5,-98.5 125.5,-117.5 262.5,-117.5 262.5,-98.5 125.5,-98.5"/>
<text text-anchor="middle" x="194" y="-105.5" font-family="Arial" font-size="10.00">idAFConstraint_Suspension</text>
</a>
</g>
</g>
<!-- Node1&#45;&gt;Node17 -->
<g id="edge16" class="edge"><title>Node1&#45;&gt;Node17</title>
<path fill="none" stroke="midnightblue" d="M42.5555,-334.945C44.9102,-290.604 56.9758,-183.688 118,-127 122.133,-123.16 126.929,-120.069 132.059,-117.584"/>
<polygon fill="midnightblue" stroke="midnightblue" points="39.0548,-334.891 42.1354,-345.028 46.0487,-335.183 39.0548,-334.891"/>
</g>
<!-- Node18 -->
<g id="node18" class="node"><title>Node18</title>
<g id="a_node18"><a xlink:href="classid_a_f_constraint___universal_joint.html" target="_top" xlink:title="idAFConstraint_Universal\lJoint">
<polygon fill="white" stroke="black" points="131.5,-49 131.5,-79 256.5,-79 256.5,-49 131.5,-49"/>
<text text-anchor="start" x="139.5" y="-67" font-family="Arial" font-size="10.00">idAFConstraint_Universal</text>
<text text-anchor="middle" x="194" y="-56" font-family="Arial" font-size="10.00">Joint</text>
</a>
</g>
</g>
<!-- Node1&#45;&gt;Node18 -->
<g id="edge17" class="edge"><title>Node1&#45;&gt;Node18</title>
<path fill="none" stroke="midnightblue" d="M41.7452,-335.389C42.2013,-286.83 50.1956,-159.816 118,-89 121.892,-84.9354 126.461,-81.5315 131.39,-78.6809"/>
<polygon fill="midnightblue" stroke="midnightblue" points="38.2452,-335.489 41.7539,-345.486 45.2452,-335.483 38.2452,-335.489"/>
</g>
<!-- Node19 -->
<g id="node19" class="node"><title>Node19</title>
<g id="a_node19"><a xlink:href="classid_a_f_constraint___universal_joint_friction.html" target="_top" xlink:title="idAFConstraint_Universal\lJointFriction">
<polygon fill="white" stroke="black" points="131.5,-0 131.5,-30 256.5,-30 256.5,-0 131.5,-0"/>
<text text-anchor="start" x="139.5" y="-18" font-family="Arial" font-size="10.00">idAFConstraint_Universal</text>
<text text-anchor="middle" x="194" y="-7" font-family="Arial" font-size="10.00">JointFriction</text>
</a>
</g>
</g>
<!-- Node1&#45;&gt;Node19 -->
<g id="edge18" class="edge"><title>Node1&#45;&gt;Node19</title>
<path fill="none" stroke="midnightblue" d="M44.2581,-335.258C51.7174,-273.296 77.4297,-84.1743 118,-40 121.806,-35.8554 126.317,-32.3971 131.21,-29.5116"/>
<polygon fill="midnightblue" stroke="midnightblue" points="40.771,-334.944 43.0782,-345.285 47.723,-335.762 40.771,-334.944"/>
</g>
</g>
</svg>
