<?xml version="1.0" encoding="UTF-8" standalone="no"?>
<!DOCTYPE svg PUBLIC "-//W3C//DTD SVG 1.1//EN"
 "http://www.w3.org/Graphics/SVG/1.1/DTD/svg11.dtd">
<!-- Generated by graphviz version 2.34.0 (20130907.0111)
 -->
<!-- Title: Graphical Class Hierarchy Pages: 1 -->
<svg width="698pt" height="85pt"
 viewBox="0.00 0.00 698.00 85.00" xmlns="http://www.w3.org/2000/svg" xmlns:xlink="http://www.w3.org/1999/xlink">
<g id="graph0" class="graph" transform="scale(1 1) rotate(0) translate(4 81)">
<title>Graphical Class Hierarchy</title>
<polygon fill="white" stroke="white" points="-4,4 -4,-81 694,-81 694,4 -4,4"/>
<!-- Node1 -->
<g id="node1" class="node"><title>Node1</title>
<g id="a_node1"><a xlink:href="classid_s_i_m_d_processor.html" target="_top" xlink:title="idSIMDProcessor">
<polygon fill="white" stroke="black" points="0,-38.5 0,-57.5 92,-57.5 92,-38.5 0,-38.5"/>
<text text-anchor="middle" x="46" y="-45.5" font-family="Arial" font-size="10.00">idSIMDProcessor</text>
</a>
</g>
</g>
<!-- Node2 -->
<g id="node2" class="node"><title>Node2</title>
<g id="a_node2"><a xlink:href="classid_s_i_m_d___generic.html" target="_top" xlink:title="idSIMD_Generic">
<polygon fill="white" stroke="black" points="128.5,-38.5 128.5,-57.5 215.5,-57.5 215.5,-38.5 128.5,-38.5"/>
<text text-anchor="middle" x="172" y="-45.5" font-family="Arial" font-size="10.00">idSIMD_Generic</text>
</a>
</g>
</g>
<!-- Node1&#45;&gt;Node2 -->
<g id="edge1" class="edge"><title>Node1&#45;&gt;Node2</title>
<path fill="none" stroke="midnightblue" d="M102.217,-48C110.927,-48 119.817,-48 128.189,-48"/>
<polygon fill="midnightblue" stroke="midnightblue" points="102.118,-44.5001 92.1176,-48 102.118,-51.5001 102.118,-44.5001"/>
</g>
<!-- Node3 -->
<g id="node3" class="node"><title>Node3</title>
<g id="a_node3"><a xlink:href="classid_s_i_m_d___alti_vec.html" target="_top" xlink:title="idSIMD_AltiVec">
<polygon fill="white" stroke="black" points="252.5,-57.5 252.5,-76.5 337.5,-76.5 337.5,-57.5 252.5,-57.5"/>
<text text-anchor="middle" x="295" y="-64.5" font-family="Arial" font-size="10.00">idSIMD_AltiVec</text>
</a>
</g>
</g>
<!-- Node2&#45;&gt;Node3 -->
<g id="edge2" class="edge"><title>Node2&#45;&gt;Node3</title>
<path fill="none" stroke="midnightblue" d="M225.554,-56.2523C234.443,-57.648 243.564,-59.0803 252.132,-60.4257"/>
<polygon fill="midnightblue" stroke="midnightblue" points="226.082,-52.7924 215.66,-54.6987 224.996,-59.7076 226.082,-52.7924"/>
</g>
<!-- Node4 -->
<g id="node4" class="node"><title>Node4</title>
<g id="a_node4"><a xlink:href="classid_s_i_m_d___m_m_x.html" target="_top" xlink:title="idSIMD_MMX">
<polygon fill="white" stroke="black" points="257.5,-19.5 257.5,-38.5 332.5,-38.5 332.5,-19.5 257.5,-19.5"/>
<text text-anchor="middle" x="295" y="-26.5" font-family="Arial" font-size="10.00">idSIMD_MMX</text>
</a>
</g>
</g>
<!-- Node2&#45;&gt;Node4 -->
<g id="edge3" class="edge"><title>Node2&#45;&gt;Node4</title>
<path fill="none" stroke="midnightblue" d="M225.736,-39.7192C236.395,-38.0454 247.382,-36.3202 257.342,-34.7562"/>
<polygon fill="midnightblue" stroke="midnightblue" points="224.996,-36.2924 215.66,-41.3013 226.082,-43.2076 224.996,-36.2924"/>
</g>
<!-- Node5 -->
<g id="node5" class="node"><title>Node5</title>
<g id="a_node5"><a xlink:href="classid_s_i_m_d__3_d_now.html" target="_top" xlink:title="idSIMD_3DNow">
<polygon fill="white" stroke="black" points="374,-38.5 374,-57.5 458,-57.5 458,-38.5 374,-38.5"/>
<text text-anchor="middle" x="416" y="-45.5" font-family="Arial" font-size="10.00">idSIMD_3DNow</text>
</a>
</g>
</g>
<!-- Node4&#45;&gt;Node5 -->
<g id="edge4" class="edge"><title>Node4&#45;&gt;Node5</title>
<path fill="none" stroke="midnightblue" d="M342.679,-36.4529C352.907,-38.086 363.666,-39.8039 373.668,-41.4008"/>
<polygon fill="midnightblue" stroke="midnightblue" points="343.102,-32.9762 332.675,-34.8557 341.998,-39.8886 343.102,-32.9762"/>
</g>
<!-- Node6 -->
<g id="node6" class="node"><title>Node6</title>
<g id="a_node6"><a xlink:href="classid_s_i_m_d___s_s_e.html" target="_top" xlink:title="idSIMD_SSE">
<polygon fill="white" stroke="black" points="379,-0.5 379,-19.5 453,-19.5 453,-0.5 379,-0.5"/>
<text text-anchor="middle" x="416" y="-7.5" font-family="Arial" font-size="10.00">idSIMD_SSE</text>
</a>
</g>
</g>
<!-- Node4&#45;&gt;Node6 -->
<g id="edge5" class="edge"><title>Node4&#45;&gt;Node6</title>
<path fill="none" stroke="midnightblue" d="M342.891,-21.5132C354.78,-19.615 367.373,-17.6044 378.651,-15.8037"/>
<polygon fill="midnightblue" stroke="midnightblue" points="341.998,-18.1114 332.675,-23.1443 343.102,-25.0238 341.998,-18.1114"/>
</g>
<!-- Node7 -->
<g id="node7" class="node"><title>Node7</title>
<g id="a_node7"><a xlink:href="classid_s_i_m_d___s_s_e2.html" target="_top" xlink:title="idSIMD_SSE2">
<polygon fill="white" stroke="black" points="494.5,-0.5 494.5,-19.5 573.5,-19.5 573.5,-0.5 494.5,-0.5"/>
<text text-anchor="middle" x="534" y="-7.5" font-family="Arial" font-size="10.00">idSIMD_SSE2</text>
</a>
</g>
</g>
<!-- Node6&#45;&gt;Node7 -->
<g id="edge6" class="edge"><title>Node6&#45;&gt;Node7</title>
<path fill="none" stroke="midnightblue" d="M463.118,-10C473.393,-10 484.188,-10 494.137,-10"/>
<polygon fill="midnightblue" stroke="midnightblue" points="463.067,-6.5001 453.067,-10 463.067,-13.5001 463.067,-6.5001"/>
</g>
<!-- Node8 -->
<g id="node8" class="node"><title>Node8</title>
<g id="a_node8"><a xlink:href="classid_s_i_m_d___s_s_e3.html" target="_top" xlink:title="idSIMD_SSE3">
<polygon fill="white" stroke="black" points="610.5,-0.5 610.5,-19.5 689.5,-19.5 689.5,-0.5 610.5,-0.5"/>
<text text-anchor="middle" x="650" y="-7.5" font-family="Arial" font-size="10.00">idSIMD_SSE3</text>
</a>
</g>
</g>
<!-- Node7&#45;&gt;Node8 -->
<g id="edge7" class="edge"><title>Node7&#45;&gt;Node8</title>
<path fill="none" stroke="midnightblue" d="M583.854,-10C592.744,-10 601.904,-10 610.445,-10"/>
<polygon fill="midnightblue" stroke="midnightblue" points="583.595,-6.5001 573.595,-10 583.595,-13.5001 583.595,-6.5001"/>
</g>
</g>
</svg>
