<?xml version="1.0" encoding="UTF-8" standalone="no"?>
<!DOCTYPE svg PUBLIC "-//W3C//DTD SVG 1.1//EN"
 "http://www.w3.org/Graphics/SVG/1.1/DTD/svg11.dtd">
<!-- Generated by graphviz version 2.34.0 (20130907.0111)
 -->
<!-- Title: Graphical Class Hierarchy Pages: 1 -->
<svg width="204pt" height="66pt"
 viewBox="0.00 0.00 204.00 66.00" xmlns="http://www.w3.org/2000/svg" xmlns:xlink="http://www.w3.org/1999/xlink">
<g id="graph0" class="graph" transform="scale(1 1) rotate(0) translate(4 62)">
<title>Graphical Class Hierarchy</title>
<polygon fill="white" stroke="white" points="-4,4 -4,-62 200,-62 200,4 -4,4"/>
<!-- Node1 -->
<g id="node1" class="node"><title>Node1</title>
<g id="a_node1"><a xlink:href="classid_cinematic.html" target="_top" xlink:title="idCinematic">
<polygon fill="white" stroke="black" points="0,-19.5 0,-38.5 68,-38.5 68,-19.5 0,-19.5"/>
<text text-anchor="middle" x="34" y="-26.5" font-family="Arial" font-size="10.00">idCinematic</text>
</a>
</g>
</g>
<!-- Node2 -->
<g id="node2" class="node"><title>Node2</title>
<g id="a_node2"><a xlink:href="classid_cinematic_local.html" target="_top" xlink:title="idCinematicLocal">
<polygon fill="white" stroke="black" points="104.5,-38.5 104.5,-57.5 195.5,-57.5 195.5,-38.5 104.5,-38.5"/>
<text text-anchor="middle" x="150" y="-45.5" font-family="Arial" font-size="10.00">idCinematicLocal</text>
</a>
</g>
</g>
<!-- Node1&#45;&gt;Node2 -->
<g id="edge1" class="edge"><title>Node1&#45;&gt;Node2</title>
<path fill="none" stroke="midnightblue" d="M78.4069,-36.2345C86.9295,-37.6549 95.8828,-39.1471 104.442,-40.5737"/>
<polygon fill="midnightblue" stroke="midnightblue" points="78.7193,-32.7384 68.28,-34.5467 77.5685,-39.6431 78.7193,-32.7384"/>
</g>
<!-- Node3 -->
<g id="node3" class="node"><title>Node3</title>
<g id="a_node3"><a xlink:href="classid_snd_window.html" target="_top" xlink:title="idSndWindow">
<polygon fill="white" stroke="black" points="112,-0.5 112,-19.5 188,-19.5 188,-0.5 112,-0.5"/>
<text text-anchor="middle" x="150" y="-7.5" font-family="Arial" font-size="10.00">idSndWindow</text>
</a>
</g>
</g>
<!-- Node1&#45;&gt;Node3 -->
<g id="edge2" class="edge"><title>Node1&#45;&gt;Node3</title>
<path fill="none" stroke="midnightblue" d="M78.2044,-21.7993C89.2947,-19.9509 101.126,-17.9789 111.879,-16.1868"/>
<polygon fill="midnightblue" stroke="midnightblue" points="77.5685,-18.3569 68.28,-23.4533 78.7193,-25.2616 77.5685,-18.3569"/>
</g>
</g>
</svg>
