<?xml version="1.0" encoding="UTF-8" standalone="no"?>
<!DOCTYPE svg PUBLIC "-//W3C//DTD SVG 1.1//EN"
 "http://www.w3.org/Graphics/SVG/1.1/DTD/svg11.dtd">
<!-- Generated by graphviz version 2.34.0 (20130907.0111)
 -->
<!-- Title: Graphical Class Hierarchy Pages: 1 -->
<svg width="230pt" height="332pt"
 viewBox="0.00 0.00 230.00 332.00" xmlns="http://www.w3.org/2000/svg" xmlns:xlink="http://www.w3.org/1999/xlink">
<g id="graph0" class="graph" transform="scale(1 1) rotate(0) translate(4 328)">
<title>Graphical Class Hierarchy</title>
<polygon fill="white" stroke="white" points="-4,4 -4,-328 226,-328 226,4 -4,4"/>
<!-- Node1 -->
<g id="node1" class="node"><title>Node1</title>
<g id="a_node1"><a xlink:href="classrv_g_e_modifier.html" target="_top" xlink:title="rvGEModifier">
<polygon fill="white" stroke="black" points="0.5,-152.5 0.5,-171.5 71.5,-171.5 71.5,-152.5 0.5,-152.5"/>
<text text-anchor="middle" x="36" y="-159.5" font-family="Arial" font-size="10.00">rvGEModifier</text>
</a>
</g>
</g>
<!-- Node2 -->
<g id="node2" class="node"><title>Node2</title>
<g id="a_node2"><a xlink:href="classrv_g_e_delete_modifier.html" target="_top" xlink:title="rvGEDeleteModifier">
<polygon fill="white" stroke="black" points="115.5,-304.5 115.5,-323.5 214.5,-323.5 214.5,-304.5 115.5,-304.5"/>
<text text-anchor="middle" x="165" y="-311.5" font-family="Arial" font-size="10.00">rvGEDeleteModifier</text>
</a>
</g>
</g>
<!-- Node1&#45;&gt;Node2 -->
<g id="edge1" class="edge"><title>Node1&#45;&gt;Node2</title>
<path fill="none" stroke="midnightblue" d="M42.2963,-181.293C51.1677,-210.089 71.7254,-264.212 108,-295 112.54,-298.853 117.897,-301.936 123.468,-304.399"/>
<polygon fill="midnightblue" stroke="midnightblue" points="45.6272,-180.213 39.46,-171.598 38.9088,-182.179 45.6272,-180.213"/>
</g>
<!-- Node3 -->
<g id="node3" class="node"><title>Node3</title>
<g id="a_node3"><a xlink:href="classrv_g_e_hide_modifier.html" target="_top" xlink:title="rvGEHideModifier">
<polygon fill="white" stroke="black" points="119.5,-266.5 119.5,-285.5 210.5,-285.5 210.5,-266.5 119.5,-266.5"/>
<text text-anchor="middle" x="165" y="-273.5" font-family="Arial" font-size="10.00">rvGEHideModifier</text>
</a>
</g>
</g>
<!-- Node1&#45;&gt;Node3 -->
<g id="edge2" class="edge"><title>Node1&#45;&gt;Node3</title>
<path fill="none" stroke="midnightblue" d="M46.4076,-180.625C58.0908,-201.974 79.9524,-236.634 108,-257 113.317,-260.861 119.475,-263.978 125.722,-266.484"/>
<polygon fill="midnightblue" stroke="midnightblue" points="49.4029,-178.801 41.6385,-171.593 43.2128,-182.07 49.4029,-178.801"/>
</g>
<!-- Node4 -->
<g id="node4" class="node"><title>Node4</title>
<g id="a_node4"><a xlink:href="classrv_g_e_insert_modifier.html" target="_top" xlink:title="rvGEInsertModifier">
<polygon fill="white" stroke="black" points="117.5,-228.5 117.5,-247.5 212.5,-247.5 212.5,-228.5 117.5,-228.5"/>
<text text-anchor="middle" x="165" y="-235.5" font-family="Arial" font-size="10.00">rvGEInsertModifier</text>
</a>
</g>
</g>
<!-- Node1&#45;&gt;Node4 -->
<g id="edge3" class="edge"><title>Node1&#45;&gt;Node4</title>
<path fill="none" stroke="midnightblue" d="M54.3924,-178.873C68.0473,-191.363 88.0306,-208.045 108,-219 114.751,-222.704 122.353,-225.868 129.727,-228.491"/>
<polygon fill="midnightblue" stroke="midnightblue" points="56.4552,-176.009 46.7648,-171.726 51.6691,-181.118 56.4552,-176.009"/>
</g>
<!-- Node5 -->
<g id="node5" class="node"><title>Node5</title>
<g id="a_node5"><a xlink:href="classrv_g_e_key_value_modifier.html" target="_top" xlink:title="rvGEKeyValueModifier">
<polygon fill="white" stroke="black" points="108.5,-190.5 108.5,-209.5 221.5,-209.5 221.5,-190.5 108.5,-190.5"/>
<text text-anchor="middle" x="165" y="-197.5" font-family="Arial" font-size="10.00">rvGEKeyValueModifier</text>
</a>
</g>
</g>
<!-- Node1&#45;&gt;Node5 -->
<g id="edge4" class="edge"><title>Node1&#45;&gt;Node5</title>
<path fill="none" stroke="midnightblue" d="M78.8943,-174.535C96.1712,-179.705 115.871,-185.599 131.963,-190.414"/>
<polygon fill="midnightblue" stroke="midnightblue" points="79.6311,-171.103 69.0475,-171.589 77.6245,-177.809 79.6311,-171.103"/>
</g>
<!-- Node6 -->
<g id="node6" class="node"><title>Node6</title>
<g id="a_node6"><a xlink:href="classrv_g_e_modifier_group.html" target="_top" xlink:title="rvGEModifierGroup">
<polygon fill="white" stroke="black" points="116,-152.5 116,-171.5 214,-171.5 214,-152.5 116,-152.5"/>
<text text-anchor="middle" x="165" y="-159.5" font-family="Arial" font-size="10.00">rvGEModifierGroup</text>
</a>
</g>
</g>
<!-- Node1&#45;&gt;Node6 -->
<g id="edge5" class="edge"><title>Node1&#45;&gt;Node6</title>
<path fill="none" stroke="midnightblue" d="M81.8627,-162C92.7655,-162 104.472,-162 115.534,-162"/>
<polygon fill="midnightblue" stroke="midnightblue" points="81.7033,-158.5 71.7033,-162 81.7033,-165.5 81.7033,-158.5"/>
</g>
<!-- Node7 -->
<g id="node7" class="node"><title>Node7</title>
<g id="a_node7"><a xlink:href="classrv_g_e_move_modifier.html" target="_top" xlink:title="rvGEMoveModifier">
<polygon fill="white" stroke="black" points="118,-114.5 118,-133.5 212,-133.5 212,-114.5 118,-114.5"/>
<text text-anchor="middle" x="165" y="-121.5" font-family="Arial" font-size="10.00">rvGEMoveModifier</text>
</a>
</g>
</g>
<!-- Node1&#45;&gt;Node7 -->
<g id="edge6" class="edge"><title>Node1&#45;&gt;Node7</title>
<path fill="none" stroke="midnightblue" d="M78.8943,-149.465C96.1712,-144.295 115.871,-138.401 131.963,-133.586"/>
<polygon fill="midnightblue" stroke="midnightblue" points="77.6245,-146.191 69.0475,-152.411 79.6311,-152.897 77.6245,-146.191"/>
</g>
<!-- Node8 -->
<g id="node8" class="node"><title>Node8</title>
<g id="a_node8"><a xlink:href="classrv_g_e_size_modifier.html" target="_top" xlink:title="rvGESizeModifier">
<polygon fill="white" stroke="black" points="119.5,-76.5 119.5,-95.5 210.5,-95.5 210.5,-76.5 119.5,-76.5"/>
<text text-anchor="middle" x="165" y="-83.5" font-family="Arial" font-size="10.00">rvGESizeModifier</text>
</a>
</g>
</g>
<!-- Node1&#45;&gt;Node8 -->
<g id="edge7" class="edge"><title>Node1&#45;&gt;Node8</title>
<path fill="none" stroke="midnightblue" d="M54.3924,-145.127C68.0473,-132.637 88.0306,-115.955 108,-105 114.751,-101.296 122.353,-98.1322 129.727,-95.5091"/>
<polygon fill="midnightblue" stroke="midnightblue" points="51.6691,-142.882 46.7648,-152.274 56.4552,-147.991 51.6691,-142.882"/>
</g>
<!-- Node9 -->
<g id="node9" class="node"><title>Node9</title>
<g id="a_node9"><a xlink:href="classrv_g_e_state_modifier.html" target="_top" xlink:title="rvGEStateModifier">
<polygon fill="white" stroke="black" points="117.5,-38.5 117.5,-57.5 212.5,-57.5 212.5,-38.5 117.5,-38.5"/>
<text text-anchor="middle" x="165" y="-45.5" font-family="Arial" font-size="10.00">rvGEStateModifier</text>
</a>
</g>
</g>
<!-- Node1&#45;&gt;Node9 -->
<g id="edge8" class="edge"><title>Node1&#45;&gt;Node9</title>
<path fill="none" stroke="midnightblue" d="M46.4076,-143.375C58.0908,-122.026 79.9524,-87.3658 108,-67 113.317,-63.1394 119.475,-60.0216 125.722,-57.5164"/>
<polygon fill="midnightblue" stroke="midnightblue" points="43.2128,-141.93 41.6385,-152.407 49.4029,-145.199 43.2128,-141.93"/>
</g>
<!-- Node10 -->
<g id="node10" class="node"><title>Node10</title>
<g id="a_node10"><a xlink:href="classrv_g_e_z_order_modifier.html" target="_top" xlink:title="rvGEZOrderModifier">
<polygon fill="white" stroke="black" points="114.5,-0.5 114.5,-19.5 215.5,-19.5 215.5,-0.5 114.5,-0.5"/>
<text text-anchor="middle" x="165" y="-7.5" font-family="Arial" font-size="10.00">rvGEZOrderModifier</text>
</a>
</g>
</g>
<!-- Node1&#45;&gt;Node10 -->
<g id="edge9" class="edge"><title>Node1&#45;&gt;Node10</title>
<path fill="none" stroke="midnightblue" d="M42.2963,-142.707C51.1677,-113.911 71.7254,-59.7885 108,-29 112.54,-25.1468 117.897,-22.0643 123.468,-19.601"/>
<polygon fill="midnightblue" stroke="midnightblue" points="38.9088,-141.821 39.46,-152.402 45.6272,-143.787 38.9088,-141.821"/>
</g>
</g>
</svg>
