<?xml version="1.0" encoding="UTF-8" standalone="no"?>
<!DOCTYPE svg PUBLIC "-//W3C//DTD SVG 1.1//EN"
 "http://www.w3.org/Graphics/SVG/1.1/DTD/svg11.dtd">
<!-- Generated by graphviz version 2.34.0 (20130907.0111)
 -->
<!-- Title: Graphical Class Hierarchy Pages: 1 -->
<svg width="456pt" height="408pt"
 viewBox="0.00 0.00 456.00 408.00" xmlns="http://www.w3.org/2000/svg" xmlns:xlink="http://www.w3.org/1999/xlink">
<g id="graph0" class="graph" transform="scale(1 1) rotate(0) translate(4 404)">
<title>Graphical Class Hierarchy</title>
<polygon fill="white" stroke="white" points="-4,4 -4,-404 452,-404 452,4 -4,4"/>
<!-- Node1 -->
<g id="node1" class="node"><title>Node1</title>
<g id="a_node1"><a xlink:href="class_material_modifier.html" target="_top" xlink:title="MaterialModifier">
<polygon fill="white" stroke="black" points="0.5,-190.5 0.5,-209.5 85.5,-209.5 85.5,-190.5 0.5,-190.5"/>
<text text-anchor="middle" x="43" y="-197.5" font-family="Arial" font-size="10.00">MaterialModifier</text>
</a>
</g>
</g>
<!-- Node2 -->
<g id="node2" class="node"><title>Node2</title>
<g id="a_node2"><a xlink:href="class_add_material_folder_modifier.html" target="_top" xlink:title="AddMaterialFolderModifier">
<polygon fill="white" stroke="black" points="131.5,-380.5 131.5,-399.5 260.5,-399.5 260.5,-380.5 131.5,-380.5"/>
<text text-anchor="middle" x="196" y="-387.5" font-family="Arial" font-size="10.00">AddMaterialFolderModifier</text>
</a>
</g>
</g>
<!-- Node1&#45;&gt;Node2 -->
<g id="edge1" class="edge"><title>Node1&#45;&gt;Node2</title>
<path fill="none" stroke="midnightblue" d="M47.3705,-220.062C54.4755,-255.932 74.4329,-331.037 122,-371 126.612,-374.875 131.924,-377.971 137.535,-380.443"/>
<polygon fill="midnightblue" stroke="midnightblue" points="50.7502,-219.089 45.4965,-209.888 43.8661,-220.357 50.7502,-219.089"/>
</g>
<!-- Node3 -->
<g id="node3" class="node"><title>Node3</title>
<g id="a_node3"><a xlink:href="class_add_material_modifier.html" target="_top" xlink:title="AddMaterialModifier">
<polygon fill="white" stroke="black" points="145,-342.5 145,-361.5 247,-361.5 247,-342.5 145,-342.5"/>
<text text-anchor="middle" x="196" y="-349.5" font-family="Arial" font-size="10.00">AddMaterialModifier</text>
</a>
</g>
</g>
<!-- Node1&#45;&gt;Node3 -->
<g id="edge2" class="edge"><title>Node1&#45;&gt;Node3</title>
<path fill="none" stroke="midnightblue" d="M50.0811,-219.656C60.1684,-248.922 83.1904,-303.649 122,-333 128.685,-338.056 136.59,-341.771 144.687,-344.5"/>
<polygon fill="midnightblue" stroke="midnightblue" points="53.2873,-218.201 46.8424,-209.791 46.6366,-220.384 53.2873,-218.201"/>
</g>
<!-- Node4 -->
<g id="node4" class="node"><title>Node4</title>
<g id="a_node4"><a xlink:href="class_attribute_material_modifier.html" target="_top" xlink:title="AttributeMaterialModifier">
<polygon fill="white" stroke="black" points="135,-304.5 135,-323.5 257,-323.5 257,-304.5 135,-304.5"/>
<text text-anchor="middle" x="196" y="-311.5" font-family="Arial" font-size="10.00">AttributeMaterialModifier</text>
</a>
</g>
</g>
<!-- Node1&#45;&gt;Node4 -->
<g id="edge3" class="edge"><title>Node1&#45;&gt;Node4</title>
<path fill="none" stroke="midnightblue" d="M54.3522,-218.687C67.3273,-240.349 91.5992,-275.557 122,-295 128.068,-298.881 134.898,-301.971 141.883,-304.431"/>
<polygon fill="midnightblue" stroke="midnightblue" points="57.2427,-216.694 49.2041,-209.792 51.1843,-220.2 57.2427,-216.694"/>
</g>
<!-- Node7 -->
<g id="node7" class="node"><title>Node7</title>
<g id="a_node7"><a xlink:href="class_delete_material_folder_modifier.html" target="_top" xlink:title="DeleteMaterialFolderModifier">
<polygon fill="white" stroke="black" points="126,-266.5 126,-285.5 266,-285.5 266,-266.5 126,-266.5"/>
<text text-anchor="middle" x="196" y="-273.5" font-family="Arial" font-size="10.00">DeleteMaterialFolderModifier</text>
</a>
</g>
</g>
<!-- Node1&#45;&gt;Node7 -->
<g id="edge6" class="edge"><title>Node1&#45;&gt;Node7</title>
<path fill="none" stroke="midnightblue" d="M62.2262,-216.422C77.2732,-229.179 99.7044,-246.426 122,-257 130.046,-260.816 138.968,-263.945 147.734,-266.484"/>
<polygon fill="midnightblue" stroke="midnightblue" points="64.1209,-213.432 54.2769,-209.514 59.5293,-218.716 64.1209,-213.432"/>
</g>
<!-- Node8 -->
<g id="node8" class="node"><title>Node8</title>
<g id="a_node8"><a xlink:href="class_delete_material_modifier.html" target="_top" xlink:title="DeleteMaterialModifier">
<polygon fill="white" stroke="black" points="139.5,-228.5 139.5,-247.5 252.5,-247.5 252.5,-228.5 139.5,-228.5"/>
<text text-anchor="middle" x="196" y="-235.5" font-family="Arial" font-size="10.00">DeleteMaterialModifier</text>
</a>
</g>
</g>
<!-- Node1&#45;&gt;Node8 -->
<g id="edge7" class="edge"><title>Node1&#45;&gt;Node8</title>
<path fill="none" stroke="midnightblue" d="M91.8431,-212.04C112.939,-217.349 137.377,-223.499 157.17,-228.48"/>
<polygon fill="midnightblue" stroke="midnightblue" points="92.6555,-208.635 82.1037,-209.589 90.9471,-215.424 92.6555,-208.635"/>
</g>
<!-- Node9 -->
<g id="node9" class="node"><title>Node9</title>
<g id="a_node9"><a xlink:href="class_move_material_modifier.html" target="_top" xlink:title="MoveMaterialModifier">
<polygon fill="white" stroke="black" points="142.5,-190.5 142.5,-209.5 249.5,-209.5 249.5,-190.5 142.5,-190.5"/>
<text text-anchor="middle" x="196" y="-197.5" font-family="Arial" font-size="10.00">MoveMaterialModifier</text>
</a>
</g>
</g>
<!-- Node1&#45;&gt;Node9 -->
<g id="edge8" class="edge"><title>Node1&#45;&gt;Node9</title>
<path fill="none" stroke="midnightblue" d="M95.8215,-200C110.868,-200 127.311,-200 142.405,-200"/>
<polygon fill="midnightblue" stroke="midnightblue" points="95.6612,-196.5 85.6611,-200 95.6611,-203.5 95.6612,-196.5"/>
</g>
<!-- Node10 -->
<g id="node10" class="node"><title>Node10</title>
<g id="a_node10"><a xlink:href="class_rename_material_folder_modifier.html" target="_top" xlink:title="RenameMaterialFolderModifier">
<polygon fill="white" stroke="black" points="122,-152.5 122,-171.5 270,-171.5 270,-152.5 122,-152.5"/>
<text text-anchor="middle" x="196" y="-159.5" font-family="Arial" font-size="10.00">RenameMaterialFolderModifier</text>
</a>
</g>
</g>
<!-- Node1&#45;&gt;Node10 -->
<g id="edge9" class="edge"><title>Node1&#45;&gt;Node10</title>
<path fill="none" stroke="midnightblue" d="M91.8431,-187.96C112.939,-182.651 137.377,-176.501 157.17,-171.52"/>
<polygon fill="midnightblue" stroke="midnightblue" points="90.9471,-184.576 82.1037,-190.411 92.6555,-191.365 90.9471,-184.576"/>
</g>
<!-- Node11 -->
<g id="node11" class="node"><title>Node11</title>
<g id="a_node11"><a xlink:href="class_rename_material_modifier.html" target="_top" xlink:title="RenameMaterialModifier">
<polygon fill="white" stroke="black" points="135.5,-114.5 135.5,-133.5 256.5,-133.5 256.5,-114.5 135.5,-114.5"/>
<text text-anchor="middle" x="196" y="-121.5" font-family="Arial" font-size="10.00">RenameMaterialModifier</text>
</a>
</g>
</g>
<!-- Node1&#45;&gt;Node11 -->
<g id="edge10" class="edge"><title>Node1&#45;&gt;Node11</title>
<path fill="none" stroke="midnightblue" d="M62.2262,-183.578C77.2732,-170.821 99.7044,-153.574 122,-143 130.046,-139.184 138.968,-136.055 147.734,-133.516"/>
<polygon fill="midnightblue" stroke="midnightblue" points="59.5293,-181.284 54.2769,-190.486 64.1209,-186.568 59.5293,-181.284"/>
</g>
<!-- Node12 -->
<g id="node12" class="node"><title>Node12</title>
<g id="a_node12"><a xlink:href="class_stage_delete_modifier.html" target="_top" xlink:title="StageDeleteModifier">
<polygon fill="white" stroke="black" points="144,-76.5 144,-95.5 248,-95.5 248,-76.5 144,-76.5"/>
<text text-anchor="middle" x="196" y="-83.5" font-family="Arial" font-size="10.00">StageDeleteModifier</text>
</a>
</g>
</g>
<!-- Node1&#45;&gt;Node12 -->
<g id="edge11" class="edge"><title>Node1&#45;&gt;Node12</title>
<path fill="none" stroke="midnightblue" d="M54.3522,-181.313C67.3273,-159.651 91.5992,-124.443 122,-105 128.62,-100.767 136.146,-97.4738 143.791,-94.9134"/>
<polygon fill="midnightblue" stroke="midnightblue" points="51.1843,-179.8 49.2041,-190.208 57.2427,-183.306 51.1843,-179.8"/>
</g>
<!-- Node13 -->
<g id="node13" class="node"><title>Node13</title>
<g id="a_node13"><a xlink:href="class_stage_insert_modifier.html" target="_top" xlink:title="StageInsertModifier">
<polygon fill="white" stroke="black" points="146,-38.5 146,-57.5 246,-57.5 246,-38.5 146,-38.5"/>
<text text-anchor="middle" x="196" y="-45.5" font-family="Arial" font-size="10.00">StageInsertModifier</text>
</a>
</g>
</g>
<!-- Node1&#45;&gt;Node13 -->
<g id="edge12" class="edge"><title>Node1&#45;&gt;Node13</title>
<path fill="none" stroke="midnightblue" d="M50.0811,-180.344C60.1684,-151.078 83.1904,-96.3508 122,-67 128.998,-61.7074 137.334,-57.8837 145.827,-55.1226"/>
<polygon fill="midnightblue" stroke="midnightblue" points="46.6366,-179.616 46.8424,-190.209 53.2873,-181.799 46.6366,-179.616"/>
</g>
<!-- Node14 -->
<g id="node14" class="node"><title>Node14</title>
<g id="a_node14"><a xlink:href="class_stage_move_modifier.html" target="_top" xlink:title="StageMoveModifier">
<polygon fill="white" stroke="black" points="147,-0.5 147,-19.5 245,-19.5 245,-0.5 147,-0.5"/>
<text text-anchor="middle" x="196" y="-7.5" font-family="Arial" font-size="10.00">StageMoveModifier</text>
</a>
</g>
</g>
<!-- Node1&#45;&gt;Node14 -->
<g id="edge13" class="edge"><title>Node1&#45;&gt;Node14</title>
<path fill="none" stroke="midnightblue" d="M47.3705,-179.938C54.4755,-144.068 74.4329,-68.9626 122,-29 129.119,-23.019 137.904,-18.8941 146.884,-16.0559"/>
<polygon fill="midnightblue" stroke="midnightblue" points="43.8661,-179.643 45.4965,-190.112 50.7502,-180.911 43.8661,-179.643"/>
</g>
<!-- Node5 -->
<g id="node5" class="node"><title>Node5</title>
<g id="a_node5"><a xlink:href="class_attribute_material_modifier_bool.html" target="_top" xlink:title="AttributeMaterialModifierBool">
<polygon fill="white" stroke="black" points="306.5,-326.5 306.5,-345.5 447.5,-345.5 447.5,-326.5 306.5,-326.5"/>
<text text-anchor="middle" x="377" y="-333.5" font-family="Arial" font-size="10.00">AttributeMaterialModifierBool</text>
</a>
</g>
</g>
<!-- Node4&#45;&gt;Node5 -->
<g id="edge4" class="edge"><title>Node4&#45;&gt;Node5</title>
<path fill="none" stroke="midnightblue" d="M267.292,-322.639C280.173,-324.222 293.611,-325.874 306.47,-327.454"/>
<polygon fill="midnightblue" stroke="midnightblue" points="267.455,-319.133 257.102,-321.387 266.601,-326.081 267.455,-319.133"/>
</g>
<!-- Node6 -->
<g id="node6" class="node"><title>Node6</title>
<g id="a_node6"><a xlink:href="class_attribute_material_modifier_string.html" target="_top" xlink:title="AttributeMaterialModifier\lString">
<polygon fill="white" stroke="black" points="316,-277 316,-307 438,-307 438,-277 316,-277"/>
<text text-anchor="start" x="324" y="-295" font-family="Arial" font-size="10.00">AttributeMaterialModifier</text>
<text text-anchor="middle" x="377" y="-284" font-family="Arial" font-size="10.00">String</text>
</a>
</g>
</g>
<!-- Node4&#45;&gt;Node6 -->
<g id="edge5" class="edge"><title>Node4&#45;&gt;Node6</title>
<path fill="none" stroke="midnightblue" d="M267.454,-305.341C283.426,-303.378 300.247,-301.31 315.752,-299.405"/>
<polygon fill="midnightblue" stroke="midnightblue" points="266.601,-301.919 257.102,-306.613 267.455,-308.867 266.601,-301.919"/>
</g>
</g>
</svg>
