<?xml version="1.0" encoding="UTF-8" standalone="no"?>
<!DOCTYPE svg PUBLIC "-//W3C//DTD SVG 1.1//EN"
 "http://www.w3.org/Graphics/SVG/1.1/DTD/svg11.dtd">
<!-- Generated by graphviz version 2.34.0 (20130907.0111)
 -->
<!-- Title: Graphical Class Hierarchy Pages: 1 -->
<svg width="184pt" height="66pt"
 viewBox="0.00 0.00 184.00 66.00" xmlns="http://www.w3.org/2000/svg" xmlns:xlink="http://www.w3.org/1999/xlink">
<g id="graph0" class="graph" transform="scale(1 1) rotate(0) translate(4 62)">
<title>Graphical Class Hierarchy</title>
<polygon fill="white" stroke="white" points="-4,4 -4,-62 180,-62 180,4 -4,4"/>
<!-- Node1 -->
<g id="node1" class="node"><title>Node1</title>
<g id="a_node1"><a xlink:href="classid_l_c_p.html" target="_top" xlink:title="idLCP">
<polygon fill="white" stroke="black" points="0.5,-19.5 0.5,-38.5 43.5,-38.5 43.5,-19.5 0.5,-19.5"/>
<text text-anchor="middle" x="22" y="-26.5" font-family="Arial" font-size="10.00">idLCP</text>
</a>
</g>
</g>
<!-- Node2 -->
<g id="node2" class="node"><title>Node2</title>
<g id="a_node2"><a xlink:href="classid_l_c_p___square.html" target="_top" xlink:title="idLCP_Square">
<polygon fill="white" stroke="black" points="88.5,-38.5 88.5,-57.5 167.5,-57.5 167.5,-38.5 88.5,-38.5"/>
<text text-anchor="middle" x="128" y="-45.5" font-family="Arial" font-size="10.00">idLCP_Square</text>
</a>
</g>
</g>
<!-- Node1&#45;&gt;Node2 -->
<g id="edge1" class="edge"><title>Node1&#45;&gt;Node2</title>
<path fill="none" stroke="midnightblue" d="M53.4714,-34.5669C64.3994,-36.5634 76.868,-38.8413 88.3943,-40.947"/>
<polygon fill="midnightblue" stroke="midnightblue" points="54.0133,-31.108 43.5471,-32.7538 52.7552,-37.9941 54.0133,-31.108"/>
</g>
<!-- Node3 -->
<g id="node3" class="node"><title>Node3</title>
<g id="a_node3"><a xlink:href="classid_l_c_p___symmetric.html" target="_top" xlink:title="idLCP_Symmetric">
<polygon fill="white" stroke="black" points="80.5,-0.5 80.5,-19.5 175.5,-19.5 175.5,-0.5 80.5,-0.5"/>
<text text-anchor="middle" x="128" y="-7.5" font-family="Arial" font-size="10.00">idLCP_Symmetric</text>
</a>
</g>
</g>
<!-- Node1&#45;&gt;Node3 -->
<g id="edge2" class="edge"><title>Node1&#45;&gt;Node3</title>
<path fill="none" stroke="midnightblue" d="M53.5778,-23.4137C61.9411,-21.8858 71.2002,-20.1942 80.2455,-18.5417"/>
<polygon fill="midnightblue" stroke="midnightblue" points="52.7552,-20.0059 43.5471,-25.2462 54.0133,-26.892 52.7552,-20.0059"/>
</g>
</g>
</svg>
