<?xml version="1.0" encoding="UTF-8" standalone="no"?>
<!DOCTYPE svg PUBLIC "-//W3C//DTD SVG 1.1//EN"
 "http://www.w3.org/Graphics/SVG/1.1/DTD/svg11.dtd">
<!-- Generated by graphviz version 2.34.0 (20130907.0111)
 -->
<!-- Title: Graphical Class Hierarchy Pages: 1 -->
<svg width="302pt" height="142pt"
 viewBox="0.00 0.00 302.00 142.00" xmlns="http://www.w3.org/2000/svg" xmlns:xlink="http://www.w3.org/1999/xlink">
<g id="graph0" class="graph" transform="scale(1 1) rotate(0) translate(4 138)">
<title>Graphical Class Hierarchy</title>
<polygon fill="white" stroke="white" points="-4,4 -4,-138 298,-138 298,4 -4,4"/>
<!-- Node1 -->
<g id="node1" class="node"><title>Node1</title>
<g id="a_node1"><a xlink:href="class_s_s_d_entity.html" target="_top" xlink:title="SSDEntity">
<polygon fill="white" stroke="black" points="0,-57.5 0,-76.5 62,-76.5 62,-57.5 0,-57.5"/>
<text text-anchor="middle" x="31" y="-64.5" font-family="Arial" font-size="10.00">SSDEntity</text>
</a>
</g>
</g>
<!-- Node2 -->
<g id="node2" class="node"><title>Node2</title>
<g id="a_node2"><a xlink:href="class_s_s_d_explosion.html" target="_top" xlink:title="SSDExplosion">
<polygon fill="white" stroke="black" points="98,-114.5 98,-133.5 178,-133.5 178,-114.5 98,-114.5"/>
<text text-anchor="middle" x="138" y="-121.5" font-family="Arial" font-size="10.00">SSDExplosion</text>
</a>
</g>
</g>
<!-- Node1&#45;&gt;Node2 -->
<g id="edge1" class="edge"><title>Node1&#45;&gt;Node2</title>
<path fill="none" stroke="midnightblue" d="M56.6162,-81.7124C68.9312,-88.9341 84.1327,-97.6412 98,-105 103.988,-108.177 110.585,-111.469 116.624,-114.402"/>
<polygon fill="midnightblue" stroke="midnightblue" points="58.2222,-78.5961 47.8314,-76.5264 54.6636,-84.6241 58.2222,-78.5961"/>
</g>
<!-- Node3 -->
<g id="node3" class="node"><title>Node3</title>
<g id="a_node3"><a xlink:href="class_s_s_d_mover.html" target="_top" xlink:title="SSDMover">
<polygon fill="white" stroke="black" points="107,-76.5 107,-95.5 169,-95.5 169,-76.5 107,-76.5"/>
<text text-anchor="middle" x="138" y="-83.5" font-family="Arial" font-size="10.00">SSDMover</text>
</a>
</g>
</g>
<!-- Node1&#45;&gt;Node3 -->
<g id="edge2" class="edge"><title>Node1&#45;&gt;Node3</title>
<path fill="none" stroke="midnightblue" d="M71.9898,-74.2362C83.5793,-76.3334 96.0324,-78.5868 106.907,-80.5546"/>
<polygon fill="midnightblue" stroke="midnightblue" points="72.5522,-70.7813 62.0888,-72.4446 71.3057,-77.6694 72.5522,-70.7813"/>
</g>
<!-- Node7 -->
<g id="node7" class="node"><title>Node7</title>
<g id="a_node7"><a xlink:href="class_s_s_d_points.html" target="_top" xlink:title="SSDPoints">
<polygon fill="white" stroke="black" points="105.5,-38.5 105.5,-57.5 170.5,-57.5 170.5,-38.5 105.5,-38.5"/>
<text text-anchor="middle" x="138" y="-45.5" font-family="Arial" font-size="10.00">SSDPoints</text>
</a>
</g>
</g>
<!-- Node1&#45;&gt;Node7 -->
<g id="edge6" class="edge"><title>Node1&#45;&gt;Node7</title>
<path fill="none" stroke="midnightblue" d="M71.9777,-59.7659C83.0539,-57.7617 94.9199,-55.6145 105.443,-53.7103"/>
<polygon fill="midnightblue" stroke="midnightblue" points="71.3057,-56.3306 62.0888,-61.5554 72.5522,-63.2187 71.3057,-56.3306"/>
</g>
<!-- Node8 -->
<g id="node8" class="node"><title>Node8</title>
<g id="a_node8"><a xlink:href="class_s_s_d_projectile.html" target="_top" xlink:title="SSDProjectile">
<polygon fill="white" stroke="black" points="99.5,-0.5 99.5,-19.5 176.5,-19.5 176.5,-0.5 99.5,-0.5"/>
<text text-anchor="middle" x="138" y="-7.5" font-family="Arial" font-size="10.00">SSDProjectile</text>
</a>
</g>
</g>
<!-- Node1&#45;&gt;Node8 -->
<g id="edge7" class="edge"><title>Node1&#45;&gt;Node8</title>
<path fill="none" stroke="midnightblue" d="M56.6162,-52.2876C68.9312,-45.0659 84.1327,-36.3588 98,-29 103.988,-25.8226 110.585,-22.531 116.624,-19.5982"/>
<polygon fill="midnightblue" stroke="midnightblue" points="54.6636,-49.3759 47.8314,-57.4736 58.2222,-55.4039 54.6636,-49.3759"/>
</g>
<!-- Node4 -->
<g id="node4" class="node"><title>Node4</title>
<g id="a_node4"><a xlink:href="class_s_s_d_asteroid.html" target="_top" xlink:title="SSDAsteroid">
<polygon fill="white" stroke="black" points="217.5,-114.5 217.5,-133.5 290.5,-133.5 290.5,-114.5 217.5,-114.5"/>
<text text-anchor="middle" x="254" y="-121.5" font-family="Arial" font-size="10.00">SSDAsteroid</text>
</a>
</g>
</g>
<!-- Node3&#45;&gt;Node4 -->
<g id="edge3" class="edge"><title>Node3&#45;&gt;Node4</title>
<path fill="none" stroke="midnightblue" d="M177.478,-98.8259C192.774,-103.925 210.067,-109.689 224.242,-114.414"/>
<polygon fill="midnightblue" stroke="midnightblue" points="178.361,-95.431 167.767,-95.589 176.147,-102.072 178.361,-95.431"/>
</g>
<!-- Node5 -->
<g id="node5" class="node"><title>Node5</title>
<g id="a_node5"><a xlink:href="class_s_s_d_astronaut.html" target="_top" xlink:title="SSDAstronaut">
<polygon fill="white" stroke="black" points="214.5,-76.5 214.5,-95.5 293.5,-95.5 293.5,-76.5 214.5,-76.5"/>
<text text-anchor="middle" x="254" y="-83.5" font-family="Arial" font-size="10.00">SSDAstronaut</text>
</a>
</g>
</g>
<!-- Node3&#45;&gt;Node5 -->
<g id="edge4" class="edge"><title>Node3&#45;&gt;Node5</title>
<path fill="none" stroke="midnightblue" d="M179.381,-86C190.773,-86 203.135,-86 214.418,-86"/>
<polygon fill="midnightblue" stroke="midnightblue" points="179.251,-82.5001 169.251,-86 179.251,-89.5001 179.251,-82.5001"/>
</g>
<!-- Node6 -->
<g id="node6" class="node"><title>Node6</title>
<g id="a_node6"><a xlink:href="class_s_s_d_powerup.html" target="_top" xlink:title="SSDPowerup">
<polygon fill="white" stroke="black" points="217,-38.5 217,-57.5 291,-57.5 291,-38.5 217,-38.5"/>
<text text-anchor="middle" x="254" y="-45.5" font-family="Arial" font-size="10.00">SSDPowerup</text>
</a>
</g>
</g>
<!-- Node3&#45;&gt;Node6 -->
<g id="edge5" class="edge"><title>Node3&#45;&gt;Node6</title>
<path fill="none" stroke="midnightblue" d="M177.478,-73.1741C192.774,-68.0753 210.067,-62.3109 224.242,-57.5859"/>
<polygon fill="midnightblue" stroke="midnightblue" points="176.147,-69.9283 167.767,-76.411 178.361,-76.569 176.147,-69.9283"/>
</g>
</g>
</svg>
