<?xml version="1.0" encoding="UTF-8" standalone="no"?>
<!DOCTYPE svg PUBLIC "-//W3C//DTD SVG 1.1//EN"
 "http://www.w3.org/Graphics/SVG/1.1/DTD/svg11.dtd">
<!-- Generated by graphviz version 2.34.0 (20130907.0111)
 -->
<!-- Title: Graphical Class Hierarchy Pages: 1 -->
<svg width="390pt" height="294pt"
 viewBox="0.00 0.00 390.00 294.00" xmlns="http://www.w3.org/2000/svg" xmlns:xlink="http://www.w3.org/1999/xlink">
<g id="graph0" class="graph" transform="scale(1 1) rotate(0) translate(4 290)">
<title>Graphical Class Hierarchy</title>
<polygon fill="white" stroke="white" points="-4,4 -4,-290 386,-290 386,4 -4,4"/>
<!-- Node1 -->
<g id="node1" class="node"><title>Node1</title>
<g id="a_node1"><a xlink:href="classid_render_model.html" target="_top" xlink:title="idRenderModel">
<polygon fill="white" stroke="black" points="0.5,-133.5 0.5,-152.5 81.5,-152.5 81.5,-133.5 0.5,-133.5"/>
<text text-anchor="middle" x="41" y="-140.5" font-family="Arial" font-size="10.00">idRenderModel</text>
</a>
</g>
</g>
<!-- Node2 -->
<g id="node2" class="node"><title>Node2</title>
<g id="a_node2"><a xlink:href="classid_render_model_static.html" target="_top" xlink:title="idRenderModelStatic">
<polygon fill="white" stroke="black" points="118.5,-133.5 118.5,-152.5 225.5,-152.5 225.5,-133.5 118.5,-133.5"/>
<text text-anchor="middle" x="172" y="-140.5" font-family="Arial" font-size="10.00">idRenderModelStatic</text>
</a>
</g>
</g>
<!-- Node1&#45;&gt;Node2 -->
<g id="edge1" class="edge"><title>Node1&#45;&gt;Node2</title>
<path fill="none" stroke="midnightblue" d="M92.0401,-143C100.654,-143 109.631,-143 118.313,-143"/>
<polygon fill="midnightblue" stroke="midnightblue" points="91.7569,-139.5 81.7569,-143 91.7568,-146.5 91.7569,-139.5"/>
</g>
<!-- Node3 -->
<g id="node3" class="node"><title>Node3</title>
<g id="a_node3"><a xlink:href="classid_render_model_beam.html" target="_top" xlink:title="idRenderModelBeam">
<polygon fill="white" stroke="black" points="268.5,-266.5 268.5,-285.5 375.5,-285.5 375.5,-266.5 268.5,-266.5"/>
<text text-anchor="middle" x="322" y="-273.5" font-family="Arial" font-size="10.00">idRenderModelBeam</text>
</a>
</g>
</g>
<!-- Node2&#45;&gt;Node3 -->
<g id="edge2" class="edge"><title>Node2&#45;&gt;Node3</title>
<path fill="none" stroke="midnightblue" d="M182.68,-161.408C196.824,-186.57 225.474,-231.486 262,-257 267.47,-260.821 273.75,-263.905 280.129,-266.386"/>
<polygon fill="midnightblue" stroke="midnightblue" points="185.693,-159.623 177.83,-152.523 179.549,-162.977 185.693,-159.623"/>
</g>
<!-- Node4 -->
<g id="node4" class="node"><title>Node4</title>
<g id="a_node4"><a xlink:href="classid_render_model_lightning.html" target="_top" xlink:title="idRenderModelLightning">
<polygon fill="white" stroke="black" points="262,-228.5 262,-247.5 382,-247.5 382,-228.5 262,-228.5"/>
<text text-anchor="middle" x="322" y="-235.5" font-family="Arial" font-size="10.00">idRenderModelLightning</text>
</a>
</g>
</g>
<!-- Node2&#45;&gt;Node4 -->
<g id="edge3" class="edge"><title>Node2&#45;&gt;Node4</title>
<path fill="none" stroke="midnightblue" d="M188.965,-160.137C205.702,-177.201 233.489,-203.084 262,-219 268.671,-222.724 276.18,-225.844 283.549,-228.409"/>
<polygon fill="midnightblue" stroke="midnightblue" points="191.131,-157.34 181.681,-152.551 186.082,-162.188 191.131,-157.34"/>
</g>
<!-- Node5 -->
<g id="node5" class="node"><title>Node5</title>
<g id="a_node5"><a xlink:href="classid_render_model_liquid.html" target="_top" xlink:title="idRenderModelLiquid">
<polygon fill="white" stroke="black" points="268.5,-190.5 268.5,-209.5 375.5,-209.5 375.5,-190.5 268.5,-190.5"/>
<text text-anchor="middle" x="322" y="-197.5" font-family="Arial" font-size="10.00">idRenderModelLiquid</text>
</a>
</g>
</g>
<!-- Node2&#45;&gt;Node5 -->
<g id="edge4" class="edge"><title>Node2&#45;&gt;Node5</title>
<path fill="none" stroke="midnightblue" d="M203.45,-156.824C220.511,-164.36 242.266,-173.627 262,-181 270.871,-184.314 280.615,-187.595 289.583,-190.474"/>
<polygon fill="midnightblue" stroke="midnightblue" points="204.557,-153.485 193.998,-152.613 201.709,-159.879 204.557,-153.485"/>
</g>
<!-- Node6 -->
<g id="node6" class="node"><title>Node6</title>
<g id="a_node6"><a xlink:href="classid_render_model_m_d3.html" target="_top" xlink:title="idRenderModelMD3">
<polygon fill="white" stroke="black" points="271.5,-152.5 271.5,-171.5 372.5,-171.5 372.5,-152.5 271.5,-152.5"/>
<text text-anchor="middle" x="322" y="-159.5" font-family="Arial" font-size="10.00">idRenderModelMD3</text>
</a>
</g>
</g>
<!-- Node2&#45;&gt;Node6 -->
<g id="edge5" class="edge"><title>Node2&#45;&gt;Node6</title>
<path fill="none" stroke="midnightblue" d="M235.809,-151.063C247.58,-152.574 259.737,-154.135 271.052,-155.588"/>
<polygon fill="midnightblue" stroke="midnightblue" points="235.96,-147.554 225.596,-149.752 235.069,-154.497 235.96,-147.554"/>
</g>
<!-- Node7 -->
<g id="node7" class="node"><title>Node7</title>
<g id="a_node7"><a xlink:href="classid_render_model_m_d5.html" target="_top" xlink:title="idRenderModelMD5">
<polygon fill="white" stroke="black" points="271.5,-114.5 271.5,-133.5 372.5,-133.5 372.5,-114.5 271.5,-114.5"/>
<text text-anchor="middle" x="322" y="-121.5" font-family="Arial" font-size="10.00">idRenderModelMD5</text>
</a>
</g>
</g>
<!-- Node2&#45;&gt;Node7 -->
<g id="edge6" class="edge"><title>Node2&#45;&gt;Node7</title>
<path fill="none" stroke="midnightblue" d="M235.809,-134.937C247.58,-133.426 259.737,-131.865 271.052,-130.412"/>
<polygon fill="midnightblue" stroke="midnightblue" points="235.069,-131.503 225.596,-136.248 235.96,-138.446 235.069,-131.503"/>
</g>
<!-- Node8 -->
<g id="node8" class="node"><title>Node8</title>
<g id="a_node8"><a xlink:href="classid_render_model_prt.html" target="_top" xlink:title="idRenderModelPrt">
<polygon fill="white" stroke="black" points="275,-76.5 275,-95.5 369,-95.5 369,-76.5 275,-76.5"/>
<text text-anchor="middle" x="322" y="-83.5" font-family="Arial" font-size="10.00">idRenderModelPrt</text>
</a>
</g>
</g>
<!-- Node2&#45;&gt;Node8 -->
<g id="edge7" class="edge"><title>Node2&#45;&gt;Node8</title>
<path fill="none" stroke="midnightblue" d="M203.45,-129.176C220.511,-121.64 242.266,-112.373 262,-105 270.871,-101.686 280.615,-98.4051 289.583,-95.5263"/>
<polygon fill="midnightblue" stroke="midnightblue" points="201.709,-126.121 193.998,-133.387 204.557,-132.515 201.709,-126.121"/>
</g>
<!-- Node9 -->
<g id="node9" class="node"><title>Node9</title>
<g id="a_node9"><a xlink:href="classid_render_model_sprite.html" target="_top" xlink:title="idRenderModelSprite">
<polygon fill="white" stroke="black" points="268.5,-38.5 268.5,-57.5 375.5,-57.5 375.5,-38.5 268.5,-38.5"/>
<text text-anchor="middle" x="322" y="-45.5" font-family="Arial" font-size="10.00">idRenderModelSprite</text>
</a>
</g>
</g>
<!-- Node2&#45;&gt;Node9 -->
<g id="edge8" class="edge"><title>Node2&#45;&gt;Node9</title>
<path fill="none" stroke="midnightblue" d="M188.965,-125.863C205.702,-108.799 233.489,-82.9162 262,-67 268.671,-63.2757 276.18,-60.1558 283.549,-57.5915"/>
<polygon fill="midnightblue" stroke="midnightblue" points="186.082,-123.812 181.681,-133.449 191.131,-128.66 186.082,-123.812"/>
</g>
<!-- Node10 -->
<g id="node10" class="node"><title>Node10</title>
<g id="a_node10"><a xlink:href="classid_render_model_trail.html" target="_top" xlink:title="idRenderModelTrail">
<polygon fill="white" stroke="black" points="272.5,-0.5 272.5,-19.5 371.5,-19.5 371.5,-0.5 272.5,-0.5"/>
<text text-anchor="middle" x="322" y="-7.5" font-family="Arial" font-size="10.00">idRenderModelTrail</text>
</a>
</g>
</g>
<!-- Node2&#45;&gt;Node10 -->
<g id="edge9" class="edge"><title>Node2&#45;&gt;Node10</title>
<path fill="none" stroke="midnightblue" d="M182.68,-124.592C196.824,-99.4298 225.474,-54.5144 262,-29 267.47,-25.1793 273.75,-22.0948 280.129,-19.6141"/>
<polygon fill="midnightblue" stroke="midnightblue" points="179.549,-123.023 177.83,-133.477 185.693,-126.377 179.549,-123.023"/>
</g>
</g>
</svg>
