<?xml version="1.0" encoding="UTF-8" standalone="no"?>
<!DOCTYPE svg PUBLIC "-//W3C//DTD SVG 1.1//EN"
 "http://www.w3.org/Graphics/SVG/1.1/DTD/svg11.dtd">
<!-- Generated by graphviz version 2.34.0 (20130907.0111)
 -->
<!-- Title: Graphical Class Hierarchy Pages: 1 -->
<svg width="138pt" height="66pt"
 viewBox="0.00 0.00 138.00 66.00" xmlns="http://www.w3.org/2000/svg" xmlns:xlink="http://www.w3.org/1999/xlink">
<g id="graph0" class="graph" transform="scale(1 1) rotate(0) translate(4 62)">
<title>Graphical Class Hierarchy</title>
<polygon fill="white" stroke="white" points="-4,4 -4,-62 134,-62 134,4 -4,4"/>
<!-- Node1 -->
<g id="node1" class="node"><title>Node1</title>
<g id="a_node1"><a xlink:href="classid_str.html" target="_top" xlink:title="idStr">
<polygon fill="white" stroke="black" points="0.5,-19.5 0.5,-38.5 37.5,-38.5 37.5,-19.5 0.5,-19.5"/>
<text text-anchor="middle" x="19" y="-26.5" font-family="Arial" font-size="10.00">idStr</text>
</a>
</g>
</g>
<!-- Node2 -->
<g id="node2" class="node"><title>Node2</title>
<g id="a_node2"><a xlink:href="classid_pool_str.html" target="_top" xlink:title="idPoolStr">
<polygon fill="white" stroke="black" points="74,-38.5 74,-57.5 130,-57.5 130,-38.5 74,-38.5"/>
<text text-anchor="middle" x="102" y="-45.5" font-family="Arial" font-size="10.00">idPoolStr</text>
</a>
</g>
</g>
<!-- Node1&#45;&gt;Node2 -->
<g id="edge1" class="edge"><title>Node1&#45;&gt;Node2</title>
<path fill="none" stroke="midnightblue" d="M47.4416,-35.4369C55.9792,-37.4396 65.3837,-39.6456 73.898,-41.6427"/>
<polygon fill="midnightblue" stroke="midnightblue" points="48.1109,-31.999 37.5758,-33.1227 46.5122,-38.814 48.1109,-31.999"/>
</g>
<!-- Node3 -->
<g id="node3" class="node"><title>Node3</title>
<g id="a_node3"><a xlink:href="classid_token.html" target="_top" xlink:title="idToken">
<polygon fill="white" stroke="black" points="77,-0.5 77,-19.5 127,-19.5 127,-0.5 77,-0.5"/>
<text text-anchor="middle" x="102" y="-7.5" font-family="Arial" font-size="10.00">idToken</text>
</a>
</g>
</g>
<!-- Node1&#45;&gt;Node3 -->
<g id="edge2" class="edge"><title>Node1&#45;&gt;Node3</title>
<path fill="none" stroke="midnightblue" d="M47.3528,-22.5839C56.8613,-20.3535 67.4543,-17.8687 76.699,-15.7002"/>
<polygon fill="midnightblue" stroke="midnightblue" points="46.5122,-19.186 37.5758,-24.8773 48.1109,-26.001 46.5122,-19.186"/>
</g>
</g>
</svg>
