<?xml version="1.0" encoding="UTF-8" standalone="no"?>
<!DOCTYPE svg PUBLIC "-//W3C//DTD SVG 1.1//EN"
 "http://www.w3.org/Graphics/SVG/1.1/DTD/svg11.dtd">
<!-- Generated by graphviz version 2.34.0 (20130907.0111)
 -->
<!-- Title: Graphical Class Hierarchy Pages: 1 -->
<svg width="360pt" height="2206pt"
 viewBox="0.00 0.00 360.00 2206.00" xmlns="http://www.w3.org/2000/svg" xmlns:xlink="http://www.w3.org/1999/xlink">
<g id="graph0" class="graph" transform="scale(1 1) rotate(0) translate(4 2202)">
<title>Graphical Class Hierarchy</title>
<polygon fill="white" stroke="white" points="-4,4 -4,-2202 356,-2202 356,4 -4,4"/>
<!-- Node1 -->
<g id="node1" class="node"><title>Node1</title>
<polygon fill="white" stroke="#bfbfbf" points="0,-1095.5 0,-1114.5 50,-1114.5 50,-1095.5 0,-1095.5"/>
<text text-anchor="middle" x="25" y="-1102.5" font-family="Arial" font-size="10.00">CDialog</text>
</g>
<!-- Node2 -->
<g id="node2" class="node"><title>Node2</title>
<g id="a_node2"><a xlink:href="class_c_about_dlg.html" target="_top" xlink:title="CAboutDlg">
<polygon fill="white" stroke="black" points="124.5,-2178.5 124.5,-2197.5 187.5,-2197.5 187.5,-2178.5 124.5,-2178.5"/>
<text text-anchor="middle" x="156" y="-2185.5" font-family="Arial" font-size="10.00">CAboutDlg</text>
</a>
</g>
</g>
<!-- Node1&#45;&gt;Node2 -->
<g id="edge1" class="edge"><title>Node1&#45;&gt;Node2</title>
<path fill="none" stroke="midnightblue" d="M26.4709,-1125.08C29.9038,-1268 51.9098,-2126.78 86,-2169 95.2101,-2180.41 110.59,-2185.34 124.494,-2187.33"/>
<polygon fill="midnightblue" stroke="midnightblue" points="29.9623,-1124.67 26.2255,-1114.76 22.9642,-1124.84 29.9623,-1124.67"/>
</g>
<!-- Node3 -->
<g id="node3" class="node"><title>Node3</title>
<g id="a_node3"><a xlink:href="class_c_camera_target_dlg.html" target="_top" xlink:title="CCameraTargetDlg">
<polygon fill="white" stroke="black" points="107,-2140.5 107,-2159.5 205,-2159.5 205,-2140.5 107,-2140.5"/>
<text text-anchor="middle" x="156" y="-2147.5" font-family="Arial" font-size="10.00">CCameraTargetDlg</text>
</a>
</g>
</g>
<!-- Node1&#45;&gt;Node3 -->
<g id="edge2" class="edge"><title>Node1&#45;&gt;Node3</title>
<path fill="none" stroke="midnightblue" d="M25.7975,-1124.75C24.5825,-1260.28 20.3644,-2049.88 86,-2131 91.3925,-2137.66 98.8908,-2142.12 106.968,-2145.07"/>
<polygon fill="midnightblue" stroke="midnightblue" points="29.2987,-1124.63 25.8943,-1114.6 22.299,-1124.57 29.2987,-1124.63"/>
</g>
<!-- Node4 -->
<g id="node4" class="node"><title>Node4</title>
<g id="a_node4"><a xlink:href="class_c_cap_dialog.html" target="_top" xlink:title="CCapDialog">
<polygon fill="white" stroke="black" points="122,-2102.5 122,-2121.5 190,-2121.5 190,-2102.5 122,-2102.5"/>
<text text-anchor="middle" x="156" y="-2109.5" font-family="Arial" font-size="10.00">CCapDialog</text>
</a>
</g>
</g>
<!-- Node1&#45;&gt;Node4 -->
<g id="edge3" class="edge"><title>Node1&#45;&gt;Node4</title>
<path fill="none" stroke="midnightblue" d="M25.8442,-1124.83C24.976,-1257.64 22.8287,-2015.1 86,-2093 94.6086,-2103.62 108.559,-2108.62 121.671,-2110.87"/>
<polygon fill="midnightblue" stroke="midnightblue" points="29.3461,-1124.57 25.9175,-1114.54 22.3462,-1124.52 29.3461,-1124.57"/>
</g>
<!-- Node5 -->
<g id="node5" class="node"><title>Node5</title>
<g id="a_node5"><a xlink:href="class_c_commands_dlg.html" target="_top" xlink:title="CCommandsDlg">
<polygon fill="white" stroke="black" points="112.5,-2064.5 112.5,-2083.5 199.5,-2083.5 199.5,-2064.5 112.5,-2064.5"/>
<text text-anchor="middle" x="156" y="-2071.5" font-family="Arial" font-size="10.00">CCommandsDlg</text>
</a>
</g>
</g>
<!-- Node1&#45;&gt;Node5 -->
<g id="edge4" class="edge"><title>Node1&#45;&gt;Node5</title>
<path fill="none" stroke="midnightblue" d="M25.8953,-1124.87C25.3857,-1254.81 25.2852,-1980.31 86,-2055 92.5837,-2063.1 102.276,-2067.93 112.328,-2070.76"/>
<polygon fill="midnightblue" stroke="midnightblue" points="29.3956,-1124.78 25.9409,-1114.77 22.3957,-1124.75 29.3956,-1124.78"/>
</g>
<!-- Node6 -->
<g id="node6" class="node"><title>Node6</title>
<g id="a_node6"><a xlink:href="class_c_comments_dlg.html" target="_top" xlink:title="CCommentsDlg">
<polygon fill="white" stroke="black" points="113.5,-2026.5 113.5,-2045.5 198.5,-2045.5 198.5,-2026.5 113.5,-2026.5"/>
<text text-anchor="middle" x="156" y="-2033.5" font-family="Arial" font-size="10.00">CCommentsDlg</text>
</a>
</g>
</g>
<!-- Node1&#45;&gt;Node6 -->
<g id="edge5" class="edge"><title>Node1&#45;&gt;Node6</title>
<path fill="none" stroke="midnightblue" d="M25.9508,-1124.85C25.8117,-1251.68 27.7295,-1945.51 86,-2017 92.8298,-2025.38 102.987,-2030.26 113.42,-2033.05"/>
<polygon fill="midnightblue" stroke="midnightblue" points="29.451,-1124.67 25.9682,-1114.67 22.4511,-1124.66 29.451,-1124.67"/>
</g>
<!-- Node7 -->
<g id="node7" class="node"><title>Node7</title>
<g id="a_node7"><a xlink:href="class_c_console_dlg.html" target="_top" xlink:title="CConsoleDlg">
<polygon fill="white" stroke="black" points="119.5,-1988.5 119.5,-2007.5 192.5,-2007.5 192.5,-1988.5 119.5,-1988.5"/>
<text text-anchor="middle" x="156" y="-1995.5" font-family="Arial" font-size="10.00">CConsoleDlg</text>
</a>
</g>
</g>
<!-- Node1&#45;&gt;Node7 -->
<g id="edge6" class="edge"><title>Node1&#45;&gt;Node7</title>
<path fill="none" stroke="midnightblue" d="M26.011,-1124.78C26.2536,-1248.3 30.1639,-1910.7 86,-1979 94.1,-1988.91 106.852,-1993.92 119.201,-1996.37"/>
<polygon fill="midnightblue" stroke="midnightblue" points="29.5107,-1124.54 25.9973,-1114.55 22.5108,-1124.55 29.5107,-1124.54"/>
</g>
<!-- Node8 -->
<g id="node8" class="node"><title>Node8</title>
<g id="a_node8"><a xlink:href="class_c_curve_dlg.html" target="_top" xlink:title="CCurveDlg">
<polygon fill="white" stroke="black" points="125,-1950.5 125,-1969.5 187,-1969.5 187,-1950.5 125,-1950.5"/>
<text text-anchor="middle" x="156" y="-1957.5" font-family="Arial" font-size="10.00">CCurveDlg</text>
</a>
</g>
</g>
<!-- Node1&#45;&gt;Node8 -->
<g id="edge7" class="edge"><title>Node1&#45;&gt;Node8</title>
<path fill="none" stroke="midnightblue" d="M26.0778,-1125.03C26.7236,-1246 32.6441,-1875.94 86,-1941 95.376,-1952.43 110.945,-1957.34 124.923,-1959.32"/>
<polygon fill="midnightblue" stroke="midnightblue" points="29.5762,-1124.66 26.0293,-1114.68 22.5763,-1124.7 29.5762,-1124.66"/>
</g>
<!-- Node9 -->
<g id="node9" class="node"><title>Node9</title>
<g id="a_node9"><a xlink:href="class_c_dialog_color_picker.html" target="_top" xlink:title="CDialogColorPicker">
<polygon fill="white" stroke="black" points="105.5,-1912.5 105.5,-1931.5 206.5,-1931.5 206.5,-1912.5 105.5,-1912.5"/>
<text text-anchor="middle" x="156" y="-1919.5" font-family="Arial" font-size="10.00">CDialogColorPicker</text>
</a>
</g>
</g>
<!-- Node1&#45;&gt;Node9 -->
<g id="edge8" class="edge"><title>Node1&#45;&gt;Node9</title>
<path fill="none" stroke="midnightblue" d="M26.1486,-1124.84C27.2009,-1242.07 35.056,-1841.09 86,-1903 91.053,-1909.14 97.892,-1913.4 105.308,-1916.33"/>
<polygon fill="midnightblue" stroke="midnightblue" points="29.6458,-1124.48 26.0628,-1114.51 22.6461,-1124.54 29.6458,-1124.48"/>
</g>
<!-- Node10 -->
<g id="node10" class="node"><title>Node10</title>
<g id="a_node10"><a xlink:href="class_c_dialog_info.html" target="_top" xlink:title="CDialogInfo">
<polygon fill="white" stroke="black" points="123.5,-1874.5 123.5,-1893.5 188.5,-1893.5 188.5,-1874.5 123.5,-1874.5"/>
<text text-anchor="middle" x="156" y="-1881.5" font-family="Arial" font-size="10.00">CDialogInfo</text>
</a>
</g>
</g>
<!-- Node1&#45;&gt;Node10 -->
<g id="edge9" class="edge"><title>Node1&#45;&gt;Node10</title>
<path fill="none" stroke="midnightblue" d="M26.2246,-1124.61C27.6945,-1237.94 37.4596,-1806.24 86,-1865 95.021,-1875.92 109.691,-1880.88 123.189,-1883.03"/>
<polygon fill="midnightblue" stroke="midnightblue" points="29.724,-1124.53 26.1012,-1114.58 22.7246,-1124.62 29.724,-1124.53"/>
</g>
<!-- Node11 -->
<g id="node11" class="node"><title>Node11</title>
<g id="a_node11"><a xlink:href="class_c_dialog_particle_editor.html" target="_top" xlink:title="CDialogParticleEditor">
<polygon fill="white" stroke="black" points="101.5,-1836.5 101.5,-1855.5 210.5,-1855.5 210.5,-1836.5 101.5,-1836.5"/>
<text text-anchor="middle" x="156" y="-1843.5" font-family="Arial" font-size="10.00">CDialogParticleEditor</text>
</a>
</g>
</g>
<!-- Node1&#45;&gt;Node11 -->
<g id="edge10" class="edge"><title>Node1&#45;&gt;Node11</title>
<path fill="none" stroke="midnightblue" d="M26.3114,-1124.64C28.2273,-1234.66 39.8997,-1771.43 86,-1827 90.1251,-1831.97 95.4214,-1835.71 101.243,-1838.51"/>
<polygon fill="midnightblue" stroke="midnightblue" points="29.8104,-1124.55 26.1436,-1114.61 22.8114,-1124.66 29.8104,-1124.55"/>
</g>
<!-- Node12 -->
<g id="node12" class="node"><title>Node12</title>
<g id="a_node12"><a xlink:href="class_c_dialog_p_d_a_add.html" target="_top" xlink:title="CDialogPDAAdd">
<polygon fill="white" stroke="black" points="112,-1798.5 112,-1817.5 200,-1817.5 200,-1798.5 112,-1798.5"/>
<text text-anchor="middle" x="156" y="-1805.5" font-family="Arial" font-size="10.00">CDialogPDAAdd</text>
</a>
</g>
</g>
<!-- Node1&#45;&gt;Node12 -->
<g id="edge11" class="edge"><title>Node1&#45;&gt;Node12</title>
<path fill="none" stroke="midnightblue" d="M26.4138,-1124.94C28.8117,-1232.08 42.3708,-1736.65 86,-1789 92.523,-1796.83 101.947,-1801.59 111.743,-1804.45"/>
<polygon fill="midnightblue" stroke="midnightblue" points="29.9111,-1124.77 26.1952,-1114.85 22.9127,-1124.92 29.9111,-1124.77"/>
</g>
<!-- Node13 -->
<g id="node13" class="node"><title>Node13</title>
<g id="a_node13"><a xlink:href="class_c_dialog_p_d_a_edit_email.html" target="_top" xlink:title="CDialogPDAEditEmail">
<polygon fill="white" stroke="black" points="99.5,-1760.5 99.5,-1779.5 212.5,-1779.5 212.5,-1760.5 99.5,-1760.5"/>
<text text-anchor="middle" x="156" y="-1767.5" font-family="Arial" font-size="10.00">CDialogPDAEditEmail</text>
</a>
</g>
</g>
<!-- Node1&#45;&gt;Node13 -->
<g id="edge12" class="edge"><title>Node1&#45;&gt;Node13</title>
<path fill="none" stroke="midnightblue" d="M26.5183,-1124.79C29.3943,-1228.01 44.7781,-1701.8 86,-1751 89.6705,-1755.38 94.2497,-1758.8 99.2926,-1761.46"/>
<polygon fill="midnightblue" stroke="midnightblue" points="30.0169,-1124.69 26.2469,-1114.78 23.0195,-1124.88 30.0169,-1124.69"/>
</g>
<!-- Node14 -->
<g id="node14" class="node"><title>Node14</title>
<g id="a_node14"><a xlink:href="class_c_dialog_p_d_a_editor.html" target="_top" xlink:title="CDialogPDAEditor">
<polygon fill="white" stroke="black" points="108,-1722.5 108,-1741.5 204,-1741.5 204,-1722.5 108,-1722.5"/>
<text text-anchor="middle" x="156" y="-1729.5" font-family="Arial" font-size="10.00">CDialogPDAEditor</text>
</a>
</g>
</g>
<!-- Node1&#45;&gt;Node14 -->
<g id="edge13" class="edge"><title>Node1&#45;&gt;Node14</title>
<path fill="none" stroke="midnightblue" d="M26.6416,-1124.85C30.034,-1224.47 47.2096,-1666.97 86,-1713 91.6847,-1719.75 99.5236,-1724.21 107.885,-1727.14"/>
<polygon fill="midnightblue" stroke="midnightblue" points="30.1338,-1124.55 26.303,-1114.68 23.1377,-1124.79 30.1338,-1124.55"/>
</g>
<!-- Node15 -->
<g id="node15" class="node"><title>Node15</title>
<g id="a_node15"><a xlink:href="class_c_dialog_sound.html" target="_top" xlink:title="CDialogSound">
<polygon fill="white" stroke="black" points="117,-1684.5 117,-1703.5 195,-1703.5 195,-1684.5 117,-1684.5"/>
<text text-anchor="middle" x="156" y="-1691.5" font-family="Arial" font-size="10.00">CDialogSound</text>
</a>
</g>
</g>
<!-- Node1&#45;&gt;Node15 -->
<g id="edge14" class="edge"><title>Node1&#45;&gt;Node15</title>
<path fill="none" stroke="midnightblue" d="M26.7768,-1124.79C30.703,-1220.46 49.6208,-1632.11 86,-1675 93.716,-1684.1 105.348,-1689.04 116.874,-1691.67"/>
<polygon fill="midnightblue" stroke="midnightblue" points="30.2628,-1124.37 26.3636,-1114.52 23.2685,-1124.65 30.2628,-1124.37"/>
</g>
<!-- Node16 -->
<g id="node16" class="node"><title>Node16</title>
<g id="a_node16"><a xlink:href="class_c_dialog_sound_group.html" target="_top" xlink:title="CDialogSoundGroup">
<polygon fill="white" stroke="black" points="104,-1646.5 104,-1665.5 208,-1665.5 208,-1646.5 104,-1646.5"/>
<text text-anchor="middle" x="156" y="-1653.5" font-family="Arial" font-size="10.00">CDialogSoundGroup</text>
</a>
</g>
</g>
<!-- Node1&#45;&gt;Node16 -->
<g id="edge15" class="edge"><title>Node1&#45;&gt;Node16</title>
<path fill="none" stroke="midnightblue" d="M26.9392,-1124.91C31.4464,-1216.82 52.0495,-1597.28 86,-1637 90.7629,-1642.57 96.9953,-1646.59 103.767,-1649.46"/>
<polygon fill="midnightblue" stroke="midnightblue" points="30.4269,-1124.57 26.4494,-1114.75 23.4351,-1124.91 30.4269,-1124.57"/>
</g>
<!-- Node17 -->
<g id="node17" class="node"><title>Node17</title>
<g id="a_node17"><a xlink:href="class_c_dialog_textures.html" target="_top" xlink:title="CDialogTextures">
<polygon fill="white" stroke="black" points="112,-1608.5 112,-1627.5 200,-1627.5 200,-1608.5 112,-1608.5"/>
<text text-anchor="middle" x="156" y="-1615.5" font-family="Arial" font-size="10.00">CDialogTextures</text>
</a>
</g>
</g>
<!-- Node1&#45;&gt;Node17 -->
<g id="edge16" class="edge"><title>Node1&#45;&gt;Node17</title>
<path fill="none" stroke="midnightblue" d="M25.5814,-1124.92C24.247,-1208.05 23.3675,-1526.35 86,-1599 92.6526,-1606.72 102.123,-1611.44 111.923,-1614.29"/>
<polygon fill="midnightblue" stroke="midnightblue" points="29.0829,-1124.86 25.7662,-1114.8 22.0841,-1124.74 29.0829,-1124.86"/>
</g>
<!-- Node18 -->
<g id="node18" class="node"><title>Node18</title>
<g id="a_node18"><a xlink:href="class_c_dialog_thick.html" target="_top" xlink:title="CDialogThick">
<polygon fill="white" stroke="black" points="119,-1570.5 119,-1589.5 193,-1589.5 193,-1570.5 119,-1570.5"/>
<text text-anchor="middle" x="156" y="-1577.5" font-family="Arial" font-size="10.00">CDialogThick</text>
</a>
</g>
</g>
<!-- Node1&#45;&gt;Node18 -->
<g id="edge17" class="edge"><title>Node1&#45;&gt;Node18</title>
<path fill="none" stroke="midnightblue" d="M25.8069,-1124.88C25.449,-1203.9 28.1477,-1494.57 86,-1561 94.2414,-1570.46 106.72,-1575.42 118.81,-1577.95"/>
<polygon fill="midnightblue" stroke="midnightblue" points="29.3072,-1124.84 25.8756,-1114.82 22.3073,-1124.79 29.3072,-1124.84"/>
</g>
<!-- Node19 -->
<g id="node19" class="node"><title>Node19</title>
<g id="a_node19"><a xlink:href="class_c_dlg_camera.html" target="_top" xlink:title="CDlgCamera">
<polygon fill="white" stroke="black" points="120.5,-1532.5 120.5,-1551.5 191.5,-1551.5 191.5,-1532.5 120.5,-1532.5"/>
<text text-anchor="middle" x="156" y="-1539.5" font-family="Arial" font-size="10.00">CDlgCamera</text>
</a>
</g>
</g>
<!-- Node1&#45;&gt;Node19 -->
<g id="edge18" class="edge"><title>Node1&#45;&gt;Node19</title>
<path fill="none" stroke="midnightblue" d="M26.0736,-1125.11C26.7601,-1200.18 32.9751,-1462.83 86,-1523 94.6253,-1532.79 107.783,-1537.74 120.304,-1540.18"/>
<polygon fill="midnightblue" stroke="midnightblue" points="29.5711,-1124.71 26.0046,-1114.73 22.5713,-1124.75 29.5711,-1124.71"/>
</g>
<!-- Node20 -->
<g id="node20" class="node"><title>Node20</title>
<g id="a_node20"><a xlink:href="class_c_dlg_event.html" target="_top" xlink:title="CDlgEvent">
<polygon fill="white" stroke="black" points="125,-1494.5 125,-1513.5 187,-1513.5 187,-1494.5 125,-1494.5"/>
<text text-anchor="middle" x="156" y="-1501.5" font-family="Arial" font-size="10.00">CDlgEvent</text>
</a>
</g>
</g>
<!-- Node1&#45;&gt;Node20 -->
<g id="edge19" class="edge"><title>Node1&#45;&gt;Node20</title>
<path fill="none" stroke="midnightblue" d="M26.3813,-1124.62C28.1404,-1194.64 37.621,-1430.87 86,-1485 95.7702,-1495.93 111.193,-1500.82 124.983,-1502.92"/>
<polygon fill="midnightblue" stroke="midnightblue" points="29.8785,-1124.45 26.1539,-1114.54 22.8802,-1124.61 29.8785,-1124.45"/>
</g>
<!-- Node21 -->
<g id="node21" class="node"><title>Node21</title>
<g id="a_node21"><a xlink:href="class_c_edit_view_dlg.html" target="_top" xlink:title="CEditViewDlg">
<polygon fill="white" stroke="black" points="118,-1456.5 118,-1475.5 194,-1475.5 194,-1456.5 118,-1456.5"/>
<text text-anchor="middle" x="156" y="-1463.5" font-family="Arial" font-size="10.00">CEditViewDlg</text>
</a>
</g>
</g>
<!-- Node1&#45;&gt;Node21 -->
<g id="edge20" class="edge"><title>Node1&#45;&gt;Node21</title>
<path fill="none" stroke="midnightblue" d="M26.7659,-1124.74C29.7058,-1190.25 42.3882,-1399.03 86,-1447 94.1914,-1456.01 106.223,-1460.91 117.954,-1463.52"/>
<polygon fill="midnightblue" stroke="midnightblue" points="30.2548,-1124.4 26.3372,-1114.55 23.261,-1124.69 30.2548,-1124.4"/>
</g>
<!-- Node22 -->
<g id="node22" class="node"><title>Node22</title>
<g id="a_node22"><a xlink:href="class_c_entity_dlg.html" target="_top" xlink:title="CEntityDlg">
<polygon fill="white" stroke="black" points="124.5,-1418.5 124.5,-1437.5 187.5,-1437.5 187.5,-1418.5 124.5,-1418.5"/>
<text text-anchor="middle" x="156" y="-1425.5" font-family="Arial" font-size="10.00">CEntityDlg</text>
</a>
</g>
</g>
<!-- Node1&#45;&gt;Node22 -->
<g id="edge21" class="edge"><title>Node1&#45;&gt;Node22</title>
<path fill="none" stroke="midnightblue" d="M27.2501,-1124.88C31.4662,-1185.62 47.1361,-1367.15 86,-1409 95.8084,-1419.56 110.895,-1424.45 124.463,-1426.64"/>
<polygon fill="midnightblue" stroke="midnightblue" points="30.7298,-1124.46 26.5745,-1114.71 23.7452,-1124.92 30.7298,-1124.46"/>
</g>
<!-- Node23 -->
<g id="node23" class="node"><title>Node23</title>
<g id="a_node23"><a xlink:href="class_c_entity_list_dlg.html" target="_top" xlink:title="CEntityListDlg">
<polygon fill="white" stroke="black" points="116.5,-1380.5 116.5,-1399.5 195.5,-1399.5 195.5,-1380.5 116.5,-1380.5"/>
<text text-anchor="middle" x="156" y="-1387.5" font-family="Arial" font-size="10.00">CEntityListDlg</text>
</a>
</g>
</g>
<!-- Node1&#45;&gt;Node23 -->
<g id="edge22" class="edge"><title>Node1&#45;&gt;Node23</title>
<path fill="none" stroke="midnightblue" d="M27.8611,-1124.89C33.4465,-1180.38 51.8272,-1335.19 86,-1371 93.9772,-1379.36 105.265,-1384.15 116.404,-1386.87"/>
<polygon fill="midnightblue" stroke="midnightblue" points="31.3152,-1124.25 26.8623,-1114.63 24.3482,-1124.92 31.3152,-1124.25"/>
</g>
<!-- Node24 -->
<g id="node24" class="node"><title>Node24</title>
<g id="a_node24"><a xlink:href="class_c_ent_key_find_replace.html" target="_top" xlink:title="CEntKeyFindReplace">
<polygon fill="white" stroke="black" points="101,-1342.5 101,-1361.5 211,-1361.5 211,-1342.5 101,-1342.5"/>
<text text-anchor="middle" x="156" y="-1349.5" font-family="Arial" font-size="10.00">CEntKeyFindReplace</text>
</a>
</g>
</g>
<!-- Node1&#45;&gt;Node24 -->
<g id="edge23" class="edge"><title>Node1&#45;&gt;Node24</title>
<path fill="none" stroke="midnightblue" d="M28.6321,-1124.63C35.6726,-1174.29 56.4322,-1303.09 86,-1333 90.1931,-1337.24 95.2396,-1340.56 100.672,-1343.15"/>
<polygon fill="midnightblue" stroke="midnightblue" points="32.0752,-1123.98 27.2389,-1114.55 25.1411,-1124.94 32.0752,-1123.98"/>
</g>
<!-- Node25 -->
<g id="node25" class="node"><title>Node25</title>
<g id="a_node25"><a xlink:href="class_c_find_texture_dlg.html" target="_top" xlink:title="CFindTextureDlg">
<polygon fill="white" stroke="black" points="111.5,-1304.5 111.5,-1323.5 200.5,-1323.5 200.5,-1304.5 111.5,-1304.5"/>
<text text-anchor="middle" x="156" y="-1311.5" font-family="Arial" font-size="10.00">CFindTextureDlg</text>
</a>
</g>
</g>
<!-- Node1&#45;&gt;Node25 -->
<g id="edge24" class="edge"><title>Node1&#45;&gt;Node25</title>
<path fill="none" stroke="midnightblue" d="M26.3512,-1124.88C28.1413,-1163.39 37.6892,-1248.45 86,-1295 92.9791,-1301.72 102.111,-1306.11 111.436,-1308.97"/>
<polygon fill="midnightblue" stroke="midnightblue" points="29.8373,-1124.4 26.0104,-1114.52 22.8411,-1124.63 29.8373,-1124.4"/>
</g>
<!-- Node26 -->
<g id="node26" class="node"><title>Node26</title>
<g id="a_node26"><a xlink:href="class_c_get_string.html" target="_top" xlink:title="CGetString">
<polygon fill="white" stroke="black" points="123.5,-1266.5 123.5,-1285.5 188.5,-1285.5 188.5,-1266.5 123.5,-1266.5"/>
<text text-anchor="middle" x="156" y="-1273.5" font-family="Arial" font-size="10.00">CGetString</text>
</a>
</g>
</g>
<!-- Node1&#45;&gt;Node26 -->
<g id="edge25" class="edge"><title>Node1&#45;&gt;Node26</title>
<path fill="none" stroke="midnightblue" d="M28.1941,-1124.94C32.8469,-1157.43 46.727,-1221.73 86,-1257 96.1686,-1266.13 110.338,-1270.92 123.193,-1273.42"/>
<polygon fill="midnightblue" stroke="midnightblue" points="31.6468,-1124.34 26.9067,-1114.87 24.7033,-1125.23 31.6468,-1124.34"/>
</g>
<!-- Node27 -->
<g id="node27" class="node"><title>Node27</title>
<g id="a_node27"><a xlink:href="class_c_light_dlg.html" target="_top" xlink:title="CLightDlg">
<polygon fill="white" stroke="black" points="126.5,-1228.5 126.5,-1247.5 185.5,-1247.5 185.5,-1228.5 126.5,-1228.5"/>
<text text-anchor="middle" x="156" y="-1235.5" font-family="Arial" font-size="10.00">CLightDlg</text>
</a>
</g>
</g>
<!-- Node1&#45;&gt;Node27 -->
<g id="edge26" class="edge"><title>Node1&#45;&gt;Node27</title>
<path fill="none" stroke="midnightblue" d="M30.9469,-1124.27C38.4962,-1149.76 55.3524,-1194.34 86,-1219 97.4233,-1228.19 112.976,-1232.95 126.424,-1235.4"/>
<polygon fill="midnightblue" stroke="midnightblue" points="34.3171,-1123.32 28.2683,-1114.62 27.5725,-1125.19 34.3171,-1123.32"/>
</g>
<!-- Node28 -->
<g id="node28" class="node"><title>Node28</title>
<g id="a_node28"><a xlink:href="class_c_map_info.html" target="_top" xlink:title="CMapInfo">
<polygon fill="white" stroke="black" points="127.5,-1190.5 127.5,-1209.5 184.5,-1209.5 184.5,-1190.5 127.5,-1190.5"/>
<text text-anchor="middle" x="156" y="-1197.5" font-family="Arial" font-size="10.00">CMapInfo</text>
</a>
</g>
</g>
<!-- Node1&#45;&gt;Node28 -->
<g id="edge27" class="edge"><title>Node1&#45;&gt;Node28</title>
<path fill="none" stroke="midnightblue" d="M36.0801,-1123.71C46.3863,-1141.08 63.9829,-1166.4 86,-1181 98.3221,-1189.17 114.098,-1193.85 127.454,-1196.52"/>
<polygon fill="midnightblue" stroke="midnightblue" points="38.856,-1121.51 30.8762,-1114.54 32.768,-1124.97 38.856,-1121.51"/>
</g>
<!-- Node29 -->
<g id="node29" class="node"><title>Node29</title>
<g id="a_node29"><a xlink:href="class_c_media_preview_dlg.html" target="_top" xlink:title="CMediaPreviewDlg">
<polygon fill="white" stroke="black" points="107.5,-1152.5 107.5,-1171.5 204.5,-1171.5 204.5,-1152.5 107.5,-1152.5"/>
<text text-anchor="middle" x="156" y="-1159.5" font-family="Arial" font-size="10.00">CMediaPreviewDlg</text>
</a>
</g>
</g>
<!-- Node1&#45;&gt;Node29 -->
<g id="edge28" class="edge"><title>Node1&#45;&gt;Node29</title>
<path fill="none" stroke="midnightblue" d="M46.9343,-1120.42C58.086,-1128.07 72.2988,-1136.94 86,-1143 94.408,-1146.72 103.721,-1149.88 112.712,-1152.49"/>
<polygon fill="midnightblue" stroke="midnightblue" points="48.9058,-1117.53 38.7154,-1114.63 44.8736,-1123.25 48.9058,-1117.53"/>
</g>
<!-- Node30 -->
<g id="node30" class="node"><title>Node30</title>
<g id="a_node30"><a xlink:href="class_c_new_proj_dlg.html" target="_top" xlink:title="CNewProjDlg">
<polygon fill="white" stroke="black" points="119,-1114.5 119,-1133.5 193,-1133.5 193,-1114.5 119,-1114.5"/>
<text text-anchor="middle" x="156" y="-1121.5" font-family="Arial" font-size="10.00">CNewProjDlg</text>
</a>
</g>
</g>
<!-- Node1&#45;&gt;Node30 -->
<g id="edge29" class="edge"><title>Node1&#45;&gt;Node30</title>
<path fill="none" stroke="midnightblue" d="M60.3325,-1110.06C78.3267,-1112.71 100.364,-1115.95 118.648,-1118.65"/>
<polygon fill="midnightblue" stroke="midnightblue" points="60.6672,-1106.57 50.2639,-1108.57 59.6471,-1113.49 60.6672,-1106.57"/>
</g>
<!-- Node31 -->
<g id="node31" class="node"><title>Node31</title>
<g id="a_node31"><a xlink:href="class_c_patch_density_dlg.html" target="_top" xlink:title="CPatchDensityDlg">
<polygon fill="white" stroke="black" points="108,-1076.5 108,-1095.5 204,-1095.5 204,-1076.5 108,-1076.5"/>
<text text-anchor="middle" x="156" y="-1083.5" font-family="Arial" font-size="10.00">CPatchDensityDlg</text>
</a>
</g>
</g>
<!-- Node1&#45;&gt;Node31 -->
<g id="edge30" class="edge"><title>Node1&#45;&gt;Node31</title>
<path fill="none" stroke="midnightblue" d="M60.3439,-1099.94C74.9112,-1097.8 92.1267,-1095.26 107.855,-1092.94"/>
<polygon fill="midnightblue" stroke="midnightblue" points="59.6471,-1096.51 50.2639,-1101.43 60.6672,-1103.43 59.6471,-1096.51"/>
</g>
<!-- Node32 -->
<g id="node32" class="node"><title>Node32</title>
<g id="a_node32"><a xlink:href="class_c_patch_dialog.html" target="_top" xlink:title="CPatchDialog">
<polygon fill="white" stroke="black" points="118,-1038.5 118,-1057.5 194,-1057.5 194,-1038.5 118,-1038.5"/>
<text text-anchor="middle" x="156" y="-1045.5" font-family="Arial" font-size="10.00">CPatchDialog</text>
</a>
</g>
</g>
<!-- Node1&#45;&gt;Node32 -->
<g id="edge31" class="edge"><title>Node1&#45;&gt;Node32</title>
<path fill="none" stroke="midnightblue" d="M46.9343,-1089.58C58.086,-1081.93 72.2988,-1073.06 86,-1067 95.9987,-1062.58 107.277,-1058.95 117.773,-1056.09"/>
<polygon fill="midnightblue" stroke="midnightblue" points="44.8736,-1086.75 38.7154,-1095.37 48.9058,-1092.47 44.8736,-1086.75"/>
</g>
<!-- Node33 -->
<g id="node33" class="node"><title>Node33</title>
<g id="a_node33"><a xlink:href="class_c_prefs_dlg.html" target="_top" xlink:title="CPrefsDlg">
<polygon fill="white" stroke="black" points="126,-1000.5 126,-1019.5 186,-1019.5 186,-1000.5 126,-1000.5"/>
<text text-anchor="middle" x="156" y="-1007.5" font-family="Arial" font-size="10.00">CPrefsDlg</text>
</a>
</g>
</g>
<!-- Node1&#45;&gt;Node33 -->
<g id="edge32" class="edge"><title>Node1&#45;&gt;Node33</title>
<path fill="none" stroke="midnightblue" d="M36.0801,-1086.29C46.3863,-1068.92 63.9829,-1043.6 86,-1029 97.8044,-1021.17 112.778,-1016.55 125.758,-1013.83"/>
<polygon fill="midnightblue" stroke="midnightblue" points="32.768,-1085.03 30.8762,-1095.46 38.856,-1088.49 32.768,-1085.03"/>
</g>
<!-- Node34 -->
<g id="node34" class="node"><title>Node34</title>
<g id="a_node34"><a xlink:href="class_c_preview_dlg.html" target="_top" xlink:title="CPreviewDlg">
<polygon fill="white" stroke="black" points="120.5,-962.5 120.5,-981.5 191.5,-981.5 191.5,-962.5 120.5,-962.5"/>
<text text-anchor="middle" x="156" y="-969.5" font-family="Arial" font-size="10.00">CPreviewDlg</text>
</a>
</g>
</g>
<!-- Node1&#45;&gt;Node34 -->
<g id="edge33" class="edge"><title>Node1&#45;&gt;Node34</title>
<path fill="none" stroke="midnightblue" d="M30.9469,-1085.73C38.4962,-1060.24 55.3524,-1015.66 86,-991 95.7776,-983.133 108.58,-978.517 120.499,-975.81"/>
<polygon fill="midnightblue" stroke="midnightblue" points="27.5725,-1084.81 28.2683,-1095.38 34.3171,-1086.68 27.5725,-1084.81"/>
</g>
<!-- Node35 -->
<g id="node35" class="node"><title>Node35</title>
<g id="a_node35"><a xlink:href="class_c_rotate_dlg.html" target="_top" xlink:title="CRotateDlg">
<polygon fill="white" stroke="black" points="123,-924.5 123,-943.5 189,-943.5 189,-924.5 123,-924.5"/>
<text text-anchor="middle" x="156" y="-931.5" font-family="Arial" font-size="10.00">CRotateDlg</text>
</a>
</g>
</g>
<!-- Node1&#45;&gt;Node35 -->
<g id="edge34" class="edge"><title>Node1&#45;&gt;Node35</title>
<path fill="none" stroke="midnightblue" d="M28.1941,-1085.06C32.8469,-1052.57 46.727,-988.271 86,-953 96.0761,-943.951 110.081,-939.163 122.842,-936.648"/>
<polygon fill="midnightblue" stroke="midnightblue" points="24.7033,-1084.77 26.9067,-1095.13 31.6468,-1085.66 24.7033,-1084.77"/>
</g>
<!-- Node36 -->
<g id="node36" class="node"><title>Node36</title>
<g id="a_node36"><a xlink:href="class_c_scale_dialog.html" target="_top" xlink:title="CScaleDialog">
<polygon fill="white" stroke="black" points="118.5,-886.5 118.5,-905.5 193.5,-905.5 193.5,-886.5 118.5,-886.5"/>
<text text-anchor="middle" x="156" y="-893.5" font-family="Arial" font-size="10.00">CScaleDialog</text>
</a>
</g>
</g>
<!-- Node1&#45;&gt;Node36 -->
<g id="edge35" class="edge"><title>Node1&#45;&gt;Node36</title>
<path fill="none" stroke="midnightblue" d="M26.3512,-1085.12C28.1413,-1046.61 37.6892,-961.547 86,-915 94.6792,-906.638 106.687,-901.885 118.256,-899.206"/>
<polygon fill="midnightblue" stroke="midnightblue" points="22.8411,-1085.37 26.0104,-1095.48 29.8373,-1085.6 22.8411,-1085.37"/>
</g>
<!-- Node37 -->
<g id="node37" class="node"><title>Node37</title>
<g id="a_node37"><a xlink:href="class_c_surface_dlg.html" target="_top" xlink:title="CSurfaceDlg">
<polygon fill="white" stroke="black" points="120.5,-848.5 120.5,-867.5 191.5,-867.5 191.5,-848.5 120.5,-848.5"/>
<text text-anchor="middle" x="156" y="-855.5" font-family="Arial" font-size="10.00">CSurfaceDlg</text>
</a>
</g>
</g>
<!-- Node1&#45;&gt;Node37 -->
<g id="edge36" class="edge"><title>Node1&#45;&gt;Node37</title>
<path fill="none" stroke="midnightblue" d="M28.6321,-1085.37C35.6726,-1035.71 56.4322,-906.906 86,-877 94.9978,-867.899 107.925,-863.046 120.163,-860.496"/>
<polygon fill="midnightblue" stroke="midnightblue" points="25.1411,-1085.06 27.2389,-1095.45 32.0752,-1086.02 25.1411,-1085.06"/>
</g>
<!-- Node38 -->
<g id="node38" class="node"><title>Node38</title>
<g id="a_node38"><a xlink:href="class_c_tabs_dlg.html" target="_top" xlink:title="CTabsDlg">
<polygon fill="white" stroke="black" points="126.5,-810.5 126.5,-829.5 185.5,-829.5 185.5,-810.5 126.5,-810.5"/>
<text text-anchor="middle" x="156" y="-817.5" font-family="Arial" font-size="10.00">CTabsDlg</text>
</a>
</g>
</g>
<!-- Node1&#45;&gt;Node38 -->
<g id="edge37" class="edge"><title>Node1&#45;&gt;Node38</title>
<path fill="none" stroke="midnightblue" d="M27.8611,-1085.11C33.4465,-1029.62 51.8272,-874.813 86,-839 96.3789,-828.123 112.361,-823.284 126.332,-821.204"/>
<polygon fill="midnightblue" stroke="midnightblue" points="24.3482,-1085.08 26.8623,-1095.37 31.3152,-1085.75 24.3482,-1085.08"/>
</g>
<!-- Node40 -->
<g id="node40" class="node"><title>Node40</title>
<g id="a_node40"><a xlink:href="class_c_wait_dlg.html" target="_top" xlink:title="CWaitDlg">
<polygon fill="white" stroke="black" points="127,-772.5 127,-791.5 185,-791.5 185,-772.5 127,-772.5"/>
<text text-anchor="middle" x="156" y="-779.5" font-family="Arial" font-size="10.00">CWaitDlg</text>
</a>
</g>
</g>
<!-- Node1&#45;&gt;Node40 -->
<g id="edge39" class="edge"><title>Node1&#45;&gt;Node40</title>
<path fill="none" stroke="midnightblue" d="M27.2501,-1085.12C31.4662,-1024.38 47.1361,-842.845 86,-801 96.4003,-789.802 112.735,-784.978 126.901,-782.989"/>
<polygon fill="midnightblue" stroke="midnightblue" points="23.7452,-1085.08 26.5745,-1095.29 30.7298,-1085.54 23.7452,-1085.08"/>
</g>
<!-- Node41 -->
<g id="node41" class="node"><title>Node41</title>
<g id="a_node41"><a xlink:href="class_dialog_a_f.html" target="_top" xlink:title="DialogAF">
<polygon fill="white" stroke="black" points="128,-734.5 128,-753.5 184,-753.5 184,-734.5 128,-734.5"/>
<text text-anchor="middle" x="156" y="-741.5" font-family="Arial" font-size="10.00">DialogAF</text>
</a>
</g>
</g>
<!-- Node1&#45;&gt;Node41 -->
<g id="edge40" class="edge"><title>Node1&#45;&gt;Node41</title>
<path fill="none" stroke="midnightblue" d="M26.7659,-1085.26C29.7058,-1019.75 42.3882,-810.967 86,-763 96.5318,-751.417 113.412,-746.633 127.839,-744.761"/>
<polygon fill="midnightblue" stroke="midnightblue" points="23.261,-1085.31 26.3372,-1095.45 30.2548,-1085.6 23.261,-1085.31"/>
</g>
<!-- Node42 -->
<g id="node42" class="node"><title>Node42</title>
<g id="a_node42"><a xlink:href="class_dialog_a_f_body.html" target="_top" xlink:title="DialogAFBody">
<polygon fill="white" stroke="black" points="116.5,-696.5 116.5,-715.5 195.5,-715.5 195.5,-696.5 116.5,-696.5"/>
<text text-anchor="middle" x="156" y="-703.5" font-family="Arial" font-size="10.00">DialogAFBody</text>
</a>
</g>
</g>
<!-- Node1&#45;&gt;Node42 -->
<g id="edge41" class="edge"><title>Node1&#45;&gt;Node42</title>
<path fill="none" stroke="midnightblue" d="M26.3813,-1085.38C28.1404,-1015.36 37.621,-779.131 86,-725 93.783,-716.292 105.153,-711.417 116.427,-708.734"/>
<polygon fill="midnightblue" stroke="midnightblue" points="22.8802,-1085.39 26.1539,-1095.46 29.8785,-1085.55 22.8802,-1085.39"/>
</g>
<!-- Node43 -->
<g id="node43" class="node"><title>Node43</title>
<g id="a_node43"><a xlink:href="class_dialog_a_f_constraint.html" target="_top" xlink:title="DialogAFConstraint">
<polygon fill="white" stroke="black" points="105.5,-658.5 105.5,-677.5 206.5,-677.5 206.5,-658.5 105.5,-658.5"/>
<text text-anchor="middle" x="156" y="-665.5" font-family="Arial" font-size="10.00">DialogAFConstraint</text>
</a>
</g>
</g>
<!-- Node1&#45;&gt;Node43 -->
<g id="edge42" class="edge"><title>Node1&#45;&gt;Node43</title>
<path fill="none" stroke="midnightblue" d="M26.0736,-1084.89C26.7601,-1009.82 32.9751,-747.174 86,-687 91.1752,-681.127 97.982,-676.994 105.304,-674.1"/>
<polygon fill="midnightblue" stroke="midnightblue" points="22.5713,-1085.25 26.0046,-1095.27 29.5711,-1085.29 22.5713,-1085.25"/>
</g>
<!-- Node44 -->
<g id="node44" class="node"><title>Node44</title>
<g id="a_node44"><a xlink:href="class_dialog_a_f_constraint_ball_and_socket.html" target="_top" xlink:title="DialogAFConstraintBallAnd\lSocket">
<polygon fill="white" stroke="black" points="89,-609 89,-639 223,-639 223,-609 89,-609"/>
<text text-anchor="start" x="97" y="-627" font-family="Arial" font-size="10.00">DialogAFConstraintBallAnd</text>
<text text-anchor="middle" x="156" y="-616" font-family="Arial" font-size="10.00">Socket</text>
</a>
</g>
</g>
<!-- Node1&#45;&gt;Node44 -->
<g id="edge43" class="edge"><title>Node1&#45;&gt;Node44</title>
<path fill="none" stroke="midnightblue" d="M25.9593,-1085.24C26.1851,-1006.72 30.813,-717.664 86,-649 89.1129,-645.127 92.8788,-641.854 97.0264,-639.087"/>
<polygon fill="midnightblue" stroke="midnightblue" points="22.4594,-1085.25 25.9525,-1095.25 29.4594,-1085.25 22.4594,-1085.25"/>
</g>
<!-- Node45 -->
<g id="node45" class="node"><title>Node45</title>
<g id="a_node45"><a xlink:href="class_dialog_a_f_constraint_fixed.html" target="_top" xlink:title="DialogAFConstraintFixed">
<polygon fill="white" stroke="black" points="93.5,-570.5 93.5,-589.5 218.5,-589.5 218.5,-570.5 93.5,-570.5"/>
<text text-anchor="middle" x="156" y="-577.5" font-family="Arial" font-size="10.00">DialogAFConstraintFixed</text>
</a>
</g>
</g>
<!-- Node1&#45;&gt;Node45 -->
<g id="edge44" class="edge"><title>Node1&#45;&gt;Node45</title>
<path fill="none" stroke="midnightblue" d="M25.5501,-1085.21C24.0474,-1001.18 22.4537,-674.916 86,-600 89.6305,-595.72 94.1167,-592.326 99.0456,-589.64"/>
<polygon fill="midnightblue" stroke="midnightblue" points="22.0547,-1085.48 25.7547,-1095.4 29.0533,-1085.33 22.0547,-1085.48"/>
</g>
<!-- Node46 -->
<g id="node46" class="node"><title>Node46</title>
<g id="a_node46"><a xlink:href="class_dialog_a_f_constraint_hinge.html" target="_top" xlink:title="DialogAFConstraintHinge">
<polygon fill="white" stroke="black" points="93.5,-532.5 93.5,-551.5 218.5,-551.5 218.5,-532.5 93.5,-532.5"/>
<text text-anchor="middle" x="156" y="-539.5" font-family="Arial" font-size="10.00">DialogAFConstraintHinge</text>
</a>
</g>
</g>
<!-- Node1&#45;&gt;Node46 -->
<g id="edge45" class="edge"><title>Node1&#45;&gt;Node46</title>
<path fill="none" stroke="midnightblue" d="M26.8801,-1085.24C31.1891,-992.329 51.2692,-601.738 86,-561 89.2244,-557.218 93.1258,-554.154 97.4138,-551.676"/>
<polygon fill="midnightblue" stroke="midnightblue" points="23.3726,-1085.33 26.4139,-1095.48 30.3653,-1085.65 23.3726,-1085.33"/>
</g>
<!-- Node47 -->
<g id="node47" class="node"><title>Node47</title>
<g id="a_node47"><a xlink:href="class_dialog_a_f_constraint_slider.html" target="_top" xlink:title="DialogAFConstraintSlider">
<polygon fill="white" stroke="black" points="93.5,-494.5 93.5,-513.5 218.5,-513.5 218.5,-494.5 93.5,-494.5"/>
<text text-anchor="middle" x="156" y="-501.5" font-family="Arial" font-size="10.00">DialogAFConstraintSlider</text>
</a>
</g>
</g>
<!-- Node1&#45;&gt;Node47 -->
<g id="edge46" class="edge"><title>Node1&#45;&gt;Node47</title>
<path fill="none" stroke="midnightblue" d="M26.7362,-1085.09C30.4995,-987.972 48.8725,-566.864 86,-523 89.2109,-519.206 93.103,-516.135 97.385,-513.651"/>
<polygon fill="midnightblue" stroke="midnightblue" points="23.2313,-1085.15 26.3494,-1095.28 30.2262,-1085.42 23.2313,-1085.15"/>
</g>
<!-- Node48 -->
<g id="node48" class="node"><title>Node48</title>
<g id="a_node48"><a xlink:href="class_dialog_a_f_constraint_spring.html" target="_top" xlink:title="DialogAFConstraintSpring">
<polygon fill="white" stroke="black" points="92,-456.5 92,-475.5 220,-475.5 220,-456.5 92,-456.5"/>
<text text-anchor="middle" x="156" y="-463.5" font-family="Arial" font-size="10.00">DialogAFConstraintSpring</text>
</a>
</g>
</g>
<!-- Node1&#45;&gt;Node48 -->
<g id="edge47" class="edge"><title>Node1&#45;&gt;Node48</title>
<path fill="none" stroke="midnightblue" d="M26.6043,-1085.07C29.8386,-984.092 46.4556,-532.017 86,-485 89.199,-481.196 93.083,-478.118 97.3596,-475.63"/>
<polygon fill="midnightblue" stroke="midnightblue" points="23.1039,-1085.03 26.2894,-1095.13 30.1004,-1085.25 23.1039,-1085.03"/>
</g>
<!-- Node49 -->
<g id="node49" class="node"><title>Node49</title>
<g id="a_node49"><a xlink:href="class_dialog_a_f_constraint_universal.html" target="_top" xlink:title="DialogAFConstraintUniversal">
<polygon fill="white" stroke="black" points="86,-418.5 86,-437.5 226,-437.5 226,-418.5 86,-418.5"/>
<text text-anchor="middle" x="156" y="-425.5" font-family="Arial" font-size="10.00">DialogAFConstraintUniversal</text>
</a>
</g>
</g>
<!-- Node1&#45;&gt;Node49 -->
<g id="edge48" class="edge"><title>Node1&#45;&gt;Node49</title>
<path fill="none" stroke="midnightblue" d="M26.4925,-1084.84C29.2371,-979.713 44.061,-497.146 86,-447 89.1885,-443.188 93.0652,-440.103 97.3371,-437.611"/>
<polygon fill="midnightblue" stroke="midnightblue" points="22.9888,-1084.95 26.234,-1095.03 29.9866,-1085.13 22.9888,-1084.95"/>
</g>
<!-- Node50 -->
<g id="node50" class="node"><title>Node50</title>
<g id="a_node50"><a xlink:href="class_dialog_a_f_name.html" target="_top" xlink:title="DialogAFName">
<polygon fill="white" stroke="black" points="115,-380.5 115,-399.5 197,-399.5 197,-380.5 115,-380.5"/>
<text text-anchor="middle" x="156" y="-387.5" font-family="Arial" font-size="10.00">DialogAFName</text>
</a>
</g>
</g>
<!-- Node1&#45;&gt;Node50 -->
<g id="edge49" class="edge"><title>Node1&#45;&gt;Node50</title>
<path fill="none" stroke="midnightblue" d="M26.375,-1085.4C28.6034,-977.864 41.5575,-462.406 86,-409 93.2324,-400.309 104.042,-395.396 114.971,-392.673"/>
<polygon fill="midnightblue" stroke="midnightblue" points="22.874,-1085.42 26.1731,-1095.49 29.8726,-1085.56 22.874,-1085.42"/>
</g>
<!-- Node51 -->
<g id="node51" class="node"><title>Node51</title>
<g id="a_node51"><a xlink:href="class_dialog_a_f_properties.html" target="_top" xlink:title="DialogAFProperties">
<polygon fill="white" stroke="black" points="105.5,-342.5 105.5,-361.5 206.5,-361.5 206.5,-342.5 105.5,-342.5"/>
<text text-anchor="middle" x="156" y="-349.5" font-family="Arial" font-size="10.00">DialogAFProperties</text>
</a>
</g>
</g>
<!-- Node1&#45;&gt;Node51 -->
<g id="edge50" class="edge"><title>Node1&#45;&gt;Node51</title>
<path fill="none" stroke="midnightblue" d="M26.2828,-1085.38C28.055,-974.336 39.1276,-427.581 86,-371 91.073,-364.876 97.9219,-360.627 105.342,-357.698"/>
<polygon fill="midnightblue" stroke="midnightblue" points="22.7816,-1085.44 26.1284,-1095.49 29.7807,-1085.55 22.7816,-1085.44"/>
</g>
<!-- Node52 -->
<g id="node52" class="node"><title>Node52</title>
<g id="a_node52"><a xlink:href="class_dialog_a_f_view.html" target="_top" xlink:title="DialogAFView">
<polygon fill="white" stroke="black" points="117.5,-304.5 117.5,-323.5 194.5,-323.5 194.5,-304.5 117.5,-304.5"/>
<text text-anchor="middle" x="156" y="-311.5" font-family="Arial" font-size="10.00">DialogAFView</text>
</a>
</g>
</g>
<!-- Node1&#45;&gt;Node52 -->
<g id="edge51" class="edge"><title>Node1&#45;&gt;Node52</title>
<path fill="none" stroke="midnightblue" d="M26.2027,-1085.09C27.5491,-969.962 36.7343,-392.712 86,-333 93.7492,-323.608 105.677,-318.622 117.449,-316.045"/>
<polygon fill="midnightblue" stroke="midnightblue" points="22.701,-1085.23 26.0904,-1095.27 29.7005,-1085.31 22.701,-1085.23"/>
</g>
<!-- Node53 -->
<g id="node53" class="node"><title>Node53</title>
<g id="a_node53"><a xlink:href="class_dialog_decl_browser.html" target="_top" xlink:title="DialogDeclBrowser">
<polygon fill="white" stroke="black" points="107,-266.5 107,-285.5 205,-285.5 205,-266.5 107,-266.5"/>
<text text-anchor="middle" x="156" y="-273.5" font-family="Arial" font-size="10.00">DialogDeclBrowser</text>
</a>
</g>
</g>
<!-- Node1&#45;&gt;Node53 -->
<g id="edge52" class="edge"><title>Node1&#45;&gt;Node53</title>
<path fill="none" stroke="midnightblue" d="M26.1247,-1085.22C27.0433,-967.103 34.2768,-357.923 86,-295 91.3652,-288.473 98.7485,-284.073 106.699,-281.13"/>
<polygon fill="midnightblue" stroke="midnightblue" points="22.624,-1085.32 26.0526,-1095.35 29.6238,-1085.37 22.624,-1085.32"/>
</g>
<!-- Node54 -->
<g id="node54" class="node"><title>Node54</title>
<g id="a_node54"><a xlink:href="class_dialog_decl_editor.html" target="_top" xlink:title="DialogDeclEditor">
<polygon fill="white" stroke="black" points="111.5,-228.5 111.5,-247.5 200.5,-247.5 200.5,-228.5 111.5,-228.5"/>
<text text-anchor="middle" x="156" y="-235.5" font-family="Arial" font-size="10.00">DialogDeclEditor</text>
</a>
</g>
</g>
<!-- Node1&#45;&gt;Node54 -->
<g id="edge53" class="edge"><title>Node1&#45;&gt;Node54</title>
<path fill="none" stroke="midnightblue" d="M26.0542,-1085.43C26.5612,-964.614 31.8042,-323.153 86,-257 92.378,-249.215 101.628,-244.454 111.293,-241.583"/>
<polygon fill="midnightblue" stroke="midnightblue" points="22.5543,-1085.45 26.0185,-1095.46 29.5542,-1085.47 22.5543,-1085.45"/>
</g>
<!-- Node55 -->
<g id="node55" class="node"><title>Node55</title>
<g id="a_node55"><a xlink:href="class_dialog_decl_new.html" target="_top" xlink:title="DialogDeclNew">
<polygon fill="white" stroke="black" points="115,-190.5 115,-209.5 197,-209.5 197,-190.5 115,-190.5"/>
<text text-anchor="middle" x="156" y="-197.5" font-family="Arial" font-size="10.00">DialogDeclNew</text>
</a>
</g>
</g>
<!-- Node1&#45;&gt;Node55 -->
<g id="edge54" class="edge"><title>Node1&#45;&gt;Node55</title>
<path fill="none" stroke="midnightblue" d="M25.9917,-1084.95C26.1166,-959.738 29.4328,-288.261 86,-219 93.1522,-210.243 103.938,-205.311 114.871,-202.591"/>
<polygon fill="midnightblue" stroke="midnightblue" points="22.4917,-1085.32 25.9879,-1095.32 29.4917,-1085.32 22.4917,-1085.32"/>
</g>
<!-- Node56 -->
<g id="node56" class="node"><title>Node56</title>
<g id="a_node56"><a xlink:href="class_dialog_entity_def_editor.html" target="_top" xlink:title="DialogEntityDefEditor">
<polygon fill="white" stroke="black" points="101.5,-152.5 101.5,-171.5 210.5,-171.5 210.5,-152.5 101.5,-152.5"/>
<text text-anchor="middle" x="156" y="-159.5" font-family="Arial" font-size="10.00">DialogEntityDefEditor</text>
</a>
</g>
</g>
<!-- Node1&#45;&gt;Node56 -->
<g id="edge55" class="edge"><title>Node1&#45;&gt;Node56</title>
<path fill="none" stroke="midnightblue" d="M25.9331,-1085.29C25.6744,-957.865 26.9353,-253.524 86,-181 90.1585,-175.894 95.5526,-172.088 101.492,-169.262"/>
<polygon fill="midnightblue" stroke="midnightblue" points="22.4336,-1085.51 25.9601,-1095.5 29.4335,-1085.49 22.4336,-1085.51"/>
</g>
<!-- Node57 -->
<g id="node57" class="node"><title>Node57</title>
<g id="a_node57"><a xlink:href="class_dialog_go_to_line.html" target="_top" xlink:title="DialogGoToLine">
<polygon fill="white" stroke="black" points="113.5,-114.5 113.5,-133.5 198.5,-133.5 198.5,-114.5 113.5,-114.5"/>
<text text-anchor="middle" x="156" y="-121.5" font-family="Arial" font-size="10.00">DialogGoToLine</text>
</a>
</g>
</g>
<!-- Node1&#45;&gt;Node57 -->
<g id="edge56" class="edge"><title>Node1&#45;&gt;Node57</title>
<path fill="none" stroke="midnightblue" d="M25.8794,-1085.29C25.2552,-954.835 24.4869,-218.728 86,-143 92.8155,-134.61 102.968,-129.728 113.401,-126.938"/>
<polygon fill="midnightblue" stroke="midnightblue" points="22.38,-1085.43 25.9338,-1095.41 29.3799,-1085.39 22.38,-1085.43"/>
</g>
<!-- Node58 -->
<g id="node58" class="node"><title>Node58</title>
<g id="a_node58"><a xlink:href="class_dialog_name.html" target="_top" xlink:title="DialogName">
<polygon fill="white" stroke="black" points="121.5,-76.5 121.5,-95.5 190.5,-95.5 190.5,-76.5 121.5,-76.5"/>
<text text-anchor="middle" x="156" y="-83.5" font-family="Arial" font-size="10.00">DialogName</text>
</a>
</g>
</g>
<!-- Node1&#45;&gt;Node58 -->
<g id="edge57" class="edge"><title>Node1&#45;&gt;Node58</title>
<path fill="none" stroke="midnightblue" d="M25.8301,-1085.34C24.852,-952.051 22.0286,-183.944 86,-105 94.5266,-94.4777 108.301,-89.4713 121.309,-87.1913"/>
<polygon fill="midnightblue" stroke="midnightblue" points="22.3301,-1085.37 25.9092,-1095.34 29.3299,-1085.31 22.3301,-1085.37"/>
</g>
<!-- Node59 -->
<g id="node59" class="node"><title>Node59</title>
<g id="a_node59"><a xlink:href="class_dialog_script_editor.html" target="_top" xlink:title="DialogScriptEditor">
<polygon fill="white" stroke="black" points="108.5,-38.5 108.5,-57.5 203.5,-57.5 203.5,-38.5 108.5,-38.5"/>
<text text-anchor="middle" x="156" y="-45.5" font-family="Arial" font-size="10.00">DialogScriptEditor</text>
</a>
</g>
</g>
<!-- Node1&#45;&gt;Node59 -->
<g id="edge58" class="edge"><title>Node1&#45;&gt;Node59</title>
<path fill="none" stroke="midnightblue" d="M25.7811,-1085.02C24.4554,-947.908 19.627,-149.092 86,-67 91.7027,-59.9467 99.7638,-55.3711 108.374,-52.4335"/>
<polygon fill="midnightblue" stroke="midnightblue" points="22.2839,-1085.32 25.8862,-1095.29 29.2835,-1085.25 22.2839,-1085.32"/>
</g>
<!-- Node60 -->
<g id="node60" class="node"><title>Node60</title>
<g id="a_node60"><a xlink:href="class_find_dialog.html" target="_top" xlink:title="FindDialog">
<polygon fill="white" stroke="black" points="125,-0.5 125,-19.5 187,-19.5 187,-0.5 125,-0.5"/>
<text text-anchor="middle" x="156" y="-7.5" font-family="Arial" font-size="10.00">FindDialog</text>
</a>
</g>
</g>
<!-- Node1&#45;&gt;Node60 -->
<g id="edge59" class="edge"><title>Node1&#45;&gt;Node60</title>
<path fill="none" stroke="midnightblue" d="M26.4527,-1085.14C29.7972,-941.96 51.5042,-71.7541 86,-29 95.2845,-17.4927 110.847,-12.5781 124.844,-10.6135"/>
<polygon fill="midnightblue" stroke="midnightblue" points="22.9464,-1085.38 26.2143,-1095.46 29.9445,-1085.54 22.9464,-1085.38"/>
</g>
<!-- Node39 -->
<g id="node39" class="node"><title>Node39</title>
<g id="a_node39"><a xlink:href="class_c_inspector_dialog.html" target="_top" xlink:title="CInspectorDialog">
<polygon fill="white" stroke="black" points="262,-810.5 262,-829.5 352,-829.5 352,-810.5 262,-810.5"/>
<text text-anchor="middle" x="307" y="-817.5" font-family="Arial" font-size="10.00">CInspectorDialog</text>
</a>
</g>
</g>
<!-- Node38&#45;&gt;Node39 -->
<g id="edge38" class="edge"><title>Node38&#45;&gt;Node39</title>
<path fill="none" stroke="midnightblue" d="M195.839,-820C216.058,-820 240.862,-820 261.812,-820"/>
<polygon fill="midnightblue" stroke="midnightblue" points="195.729,-816.5 185.729,-820 195.729,-823.5 195.729,-816.5"/>
</g>
</g>
</svg>
