<?xml version="1.0" encoding="UTF-8" standalone="no"?>
<!DOCTYPE svg PUBLIC "-//W3C//DTD SVG 1.1//EN"
 "http://www.w3.org/Graphics/SVG/1.1/DTD/svg11.dtd">
<!-- Generated by graphviz version 2.34.0 (20130907.0111)
 -->
<!-- Title: Graphical Class Hierarchy Pages: 1 -->
<svg width="172pt" height="484pt"
 viewBox="0.00 0.00 172.00 484.00" xmlns="http://www.w3.org/2000/svg" xmlns:xlink="http://www.w3.org/1999/xlink">
<g id="graph0" class="graph" transform="scale(1 1) rotate(0) translate(4 480)">
<title>Graphical Class Hierarchy</title>
<polygon fill="white" stroke="white" points="-4,4 -4,-480 168,-480 168,4 -4,4"/>
<!-- Node1 -->
<g id="node1" class="node"><title>Node1</title>
<g id="a_node1"><a xlink:href="classid_decl.html" target="_top" xlink:title="idDecl">
<polygon fill="white" stroke="black" points="0,-228.5 0,-247.5 44,-247.5 44,-228.5 0,-228.5"/>
<text text-anchor="middle" x="22" y="-235.5" font-family="Arial" font-size="10.00">idDecl</text>
</a>
</g>
</g>
<!-- Node2 -->
<g id="node2" class="node"><title>Node2</title>
<g id="a_node2"><a xlink:href="classid_decl_a_f.html" target="_top" xlink:title="idDeclAF">
<polygon fill="white" stroke="black" points="94,-456.5 94,-475.5 150,-475.5 150,-456.5 94,-456.5"/>
<text text-anchor="middle" x="122" y="-463.5" font-family="Arial" font-size="10.00">idDeclAF</text>
</a>
</g>
</g>
<!-- Node1&#45;&gt;Node2 -->
<g id="edge1" class="edge"><title>Node1&#45;&gt;Node2</title>
<path fill="none" stroke="midnightblue" d="M23.0834,-257.718C24.2778,-297.996 32.3988,-390.663 80,-447 83.7469,-451.434 88.7534,-454.893 93.9783,-457.569"/>
<polygon fill="midnightblue" stroke="midnightblue" points="26.581,-257.548 22.902,-247.613 19.5822,-257.674 26.581,-257.548"/>
</g>
<!-- Node3 -->
<g id="node3" class="node"><title>Node3</title>
<g id="a_node3"><a xlink:href="classid_decl_audio.html" target="_top" xlink:title="idDeclAudio">
<polygon fill="white" stroke="black" points="88,-418.5 88,-437.5 156,-437.5 156,-418.5 88,-418.5"/>
<text text-anchor="middle" x="122" y="-425.5" font-family="Arial" font-size="10.00">idDeclAudio</text>
</a>
</g>
</g>
<!-- Node1&#45;&gt;Node3 -->
<g id="edge2" class="edge"><title>Node1&#45;&gt;Node3</title>
<path fill="none" stroke="midnightblue" d="M24.5903,-258.127C28.3454,-292.961 40.6578,-364.976 80,-409 83.3457,-412.744 87.581,-415.803 92.0521,-418.286"/>
<polygon fill="midnightblue" stroke="midnightblue" points="28.0429,-257.46 23.6182,-247.833 21.0739,-258.118 28.0429,-257.46"/>
</g>
<!-- Node4 -->
<g id="node4" class="node"><title>Node4</title>
<g id="a_node4"><a xlink:href="classid_decl_email.html" target="_top" xlink:title="idDeclEmail">
<polygon fill="white" stroke="black" points="88,-380.5 88,-399.5 156,-399.5 156,-380.5 88,-380.5"/>
<text text-anchor="middle" x="122" y="-387.5" font-family="Arial" font-size="10.00">idDeclEmail</text>
</a>
</g>
</g>
<!-- Node1&#45;&gt;Node4 -->
<g id="edge3" class="edge"><title>Node1&#45;&gt;Node4</title>
<path fill="none" stroke="midnightblue" d="M26.7479,-257.585C33.0971,-285.933 48.4771,-338.547 80,-371 83.6077,-374.714 88.0803,-377.776 92.7321,-380.275"/>
<polygon fill="midnightblue" stroke="midnightblue" points="30.1504,-256.757 24.6802,-247.683 23.2982,-258.187 30.1504,-256.757"/>
</g>
<!-- Node5 -->
<g id="node5" class="node"><title>Node5</title>
<g id="a_node5"><a xlink:href="classid_decl_entity_def.html" target="_top" xlink:title="idDeclEntityDef">
<polygon fill="white" stroke="black" points="80.5,-342.5 80.5,-361.5 163.5,-361.5 163.5,-342.5 80.5,-342.5"/>
<text text-anchor="middle" x="122" y="-349.5" font-family="Arial" font-size="10.00">idDeclEntityDef</text>
</a>
</g>
</g>
<!-- Node1&#45;&gt;Node5 -->
<g id="edge4" class="edge"><title>Node1&#45;&gt;Node5</title>
<path fill="none" stroke="midnightblue" d="M30.383,-257.07C39.3446,-278.064 56.2594,-311.661 80,-333 84.0843,-336.671 89.0005,-339.755 93.9883,-342.299"/>
<polygon fill="midnightblue" stroke="midnightblue" points="33.5482,-255.563 26.5273,-247.628 27.0678,-258.209 33.5482,-255.563"/>
</g>
<!-- Node6 -->
<g id="node6" class="node"><title>Node6</title>
<g id="a_node6"><a xlink:href="classid_decl_f_x.html" target="_top" xlink:title="idDeclFX">
<polygon fill="white" stroke="black" points="94.5,-304.5 94.5,-323.5 149.5,-323.5 149.5,-304.5 94.5,-304.5"/>
<text text-anchor="middle" x="122" y="-311.5" font-family="Arial" font-size="10.00">idDeclFX</text>
</a>
</g>
</g>
<!-- Node1&#45;&gt;Node6 -->
<g id="edge5" class="edge"><title>Node1&#45;&gt;Node6</title>
<path fill="none" stroke="midnightblue" d="M37.2934,-255.235C48.0907,-267.471 63.7794,-283.671 80,-295 85.0168,-298.504 90.7827,-301.636 96.3755,-304.299"/>
<polygon fill="midnightblue" stroke="midnightblue" points="39.8246,-252.811 30.6533,-247.506 34.515,-257.372 39.8246,-252.811"/>
</g>
<!-- Node7 -->
<g id="node7" class="node"><title>Node7</title>
<g id="a_node7"><a xlink:href="classid_decl_model_def.html" target="_top" xlink:title="idDeclModelDef">
<polygon fill="white" stroke="black" points="80,-266.5 80,-285.5 164,-285.5 164,-266.5 80,-266.5"/>
<text text-anchor="middle" x="122" y="-273.5" font-family="Arial" font-size="10.00">idDeclModelDef</text>
</a>
</g>
</g>
<!-- Node1&#45;&gt;Node7 -->
<g id="edge6" class="edge"><title>Node1&#45;&gt;Node7</title>
<path fill="none" stroke="midnightblue" d="M53.7781,-249.934C67.4847,-255.249 83.4094,-261.424 96.3179,-266.429"/>
<polygon fill="midnightblue" stroke="midnightblue" points="54.8535,-246.598 44.2645,-246.245 52.3228,-253.124 54.8535,-246.598"/>
</g>
<!-- Node8 -->
<g id="node8" class="node"><title>Node8</title>
<g id="a_node8"><a xlink:href="classid_decl_particle.html" target="_top" xlink:title="idDeclParticle">
<polygon fill="white" stroke="black" points="83.5,-228.5 83.5,-247.5 160.5,-247.5 160.5,-228.5 83.5,-228.5"/>
<text text-anchor="middle" x="122" y="-235.5" font-family="Arial" font-size="10.00">idDeclParticle</text>
</a>
</g>
</g>
<!-- Node1&#45;&gt;Node8 -->
<g id="edge7" class="edge"><title>Node1&#45;&gt;Node8</title>
<path fill="none" stroke="midnightblue" d="M54.4728,-238C63.6134,-238 73.6913,-238 83.1786,-238"/>
<polygon fill="midnightblue" stroke="midnightblue" points="54.2646,-234.5 44.2645,-238 54.2645,-241.5 54.2646,-234.5"/>
</g>
<!-- Node9 -->
<g id="node9" class="node"><title>Node9</title>
<g id="a_node9"><a xlink:href="classid_decl_p_d_a.html" target="_top" xlink:title="idDeclPDA">
<polygon fill="white" stroke="black" points="90,-190.5 90,-209.5 154,-209.5 154,-190.5 90,-190.5"/>
<text text-anchor="middle" x="122" y="-197.5" font-family="Arial" font-size="10.00">idDeclPDA</text>
</a>
</g>
</g>
<!-- Node1&#45;&gt;Node9 -->
<g id="edge8" class="edge"><title>Node1&#45;&gt;Node9</title>
<path fill="none" stroke="midnightblue" d="M53.7781,-226.066C67.4847,-220.751 83.4094,-214.576 96.3179,-209.571"/>
<polygon fill="midnightblue" stroke="midnightblue" points="52.3228,-222.876 44.2645,-229.755 54.8535,-229.402 52.3228,-222.876"/>
</g>
<!-- Node10 -->
<g id="node10" class="node"><title>Node10</title>
<g id="a_node10"><a xlink:href="classid_decl_skin.html" target="_top" xlink:title="idDeclSkin">
<polygon fill="white" stroke="black" points="90.5,-152.5 90.5,-171.5 153.5,-171.5 153.5,-152.5 90.5,-152.5"/>
<text text-anchor="middle" x="122" y="-159.5" font-family="Arial" font-size="10.00">idDeclSkin</text>
</a>
</g>
</g>
<!-- Node1&#45;&gt;Node10 -->
<g id="edge9" class="edge"><title>Node1&#45;&gt;Node10</title>
<path fill="none" stroke="midnightblue" d="M37.2934,-220.765C48.0907,-208.529 63.7794,-192.329 80,-181 85.0168,-177.496 90.7827,-174.364 96.3755,-171.701"/>
<polygon fill="midnightblue" stroke="midnightblue" points="34.515,-218.628 30.6533,-228.494 39.8246,-223.189 34.515,-218.628"/>
</g>
<!-- Node11 -->
<g id="node11" class="node"><title>Node11</title>
<g id="a_node11"><a xlink:href="classid_decl_table.html" target="_top" xlink:title="idDeclTable">
<polygon fill="white" stroke="black" points="88.5,-114.5 88.5,-133.5 155.5,-133.5 155.5,-114.5 88.5,-114.5"/>
<text text-anchor="middle" x="122" y="-121.5" font-family="Arial" font-size="10.00">idDeclTable</text>
</a>
</g>
</g>
<!-- Node1&#45;&gt;Node11 -->
<g id="edge10" class="edge"><title>Node1&#45;&gt;Node11</title>
<path fill="none" stroke="midnightblue" d="M30.383,-218.93C39.3446,-197.936 56.2594,-164.339 80,-143 84.0843,-139.329 89.0005,-136.245 93.9883,-133.701"/>
<polygon fill="midnightblue" stroke="midnightblue" points="27.0678,-217.791 26.5273,-228.372 33.5482,-220.437 27.0678,-217.791"/>
</g>
<!-- Node12 -->
<g id="node12" class="node"><title>Node12</title>
<g id="a_node12"><a xlink:href="classid_decl_video.html" target="_top" xlink:title="idDeclVideo">
<polygon fill="white" stroke="black" points="88,-76.5 88,-95.5 156,-95.5 156,-76.5 88,-76.5"/>
<text text-anchor="middle" x="122" y="-83.5" font-family="Arial" font-size="10.00">idDeclVideo</text>
</a>
</g>
</g>
<!-- Node1&#45;&gt;Node12 -->
<g id="edge11" class="edge"><title>Node1&#45;&gt;Node12</title>
<path fill="none" stroke="midnightblue" d="M26.7479,-218.415C33.0971,-190.067 48.4771,-137.453 80,-105 83.6077,-101.286 88.0803,-98.224 92.7321,-95.7249"/>
<polygon fill="midnightblue" stroke="midnightblue" points="23.2982,-217.813 24.6802,-228.317 30.1504,-219.243 23.2982,-217.813"/>
</g>
<!-- Node13 -->
<g id="node13" class="node"><title>Node13</title>
<g id="a_node13"><a xlink:href="classid_material.html" target="_top" xlink:title="idMaterial">
<polygon fill="white" stroke="black" points="92.5,-38.5 92.5,-57.5 151.5,-57.5 151.5,-38.5 92.5,-38.5"/>
<text text-anchor="middle" x="122" y="-45.5" font-family="Arial" font-size="10.00">idMaterial</text>
</a>
</g>
</g>
<!-- Node1&#45;&gt;Node13 -->
<g id="edge12" class="edge"><title>Node1&#45;&gt;Node13</title>
<path fill="none" stroke="midnightblue" d="M24.5903,-217.873C28.3454,-183.039 40.6578,-111.024 80,-67 83.4502,-63.1392 87.8466,-60.0062 92.4719,-57.4824"/>
<polygon fill="midnightblue" stroke="midnightblue" points="21.0739,-217.882 23.6182,-228.167 28.0429,-218.54 21.0739,-217.882"/>
</g>
<!-- Node14 -->
<g id="node14" class="node"><title>Node14</title>
<g id="a_node14"><a xlink:href="classid_sound_shader.html" target="_top" xlink:title="idSoundShader">
<polygon fill="white" stroke="black" points="80.5,-0.5 80.5,-19.5 163.5,-19.5 163.5,-0.5 80.5,-0.5"/>
<text text-anchor="middle" x="122" y="-7.5" font-family="Arial" font-size="10.00">idSoundShader</text>
</a>
</g>
</g>
<!-- Node1&#45;&gt;Node14 -->
<g id="edge13" class="edge"><title>Node1&#45;&gt;Node14</title>
<path fill="none" stroke="midnightblue" d="M23.0834,-218.282C24.2778,-178.004 32.3988,-85.3369 80,-29 83.2405,-25.1648 87.4233,-22.0597 91.8746,-19.5593"/>
<polygon fill="midnightblue" stroke="midnightblue" points="19.5822,-218.326 22.902,-228.387 26.581,-218.452 19.5822,-218.326"/>
</g>
</g>
</svg>
