<?xml version="1.0" encoding="UTF-8" standalone="no"?>
<!DOCTYPE svg PUBLIC "-//W3C//DTD SVG 1.1//EN"
 "http://www.w3.org/Graphics/SVG/1.1/DTD/svg11.dtd">
<!-- Generated by graphviz version 2.34.0 (20130907.0111)
 -->
<!-- Title: Graphical Class Hierarchy Pages: 1 -->
<svg width="316pt" height="294pt"
 viewBox="0.00 0.00 316.00 294.00" xmlns="http://www.w3.org/2000/svg" xmlns:xlink="http://www.w3.org/1999/xlink">
<g id="graph0" class="graph" transform="scale(1 1) rotate(0) translate(4 290)">
<title>Graphical Class Hierarchy</title>
<polygon fill="white" stroke="white" points="-4,4 -4,-290 312,-290 312,4 -4,4"/>
<!-- Node1 -->
<g id="node1" class="node"><title>Node1</title>
<g id="a_node1"><a xlink:href="classid_win_var.html" target="_top" xlink:title="idWinVar">
<polygon fill="white" stroke="black" points="0,-133.5 0,-152.5 56,-152.5 56,-133.5 0,-133.5"/>
<text text-anchor="middle" x="28" y="-140.5" font-family="Arial" font-size="10.00">idWinVar</text>
</a>
</g>
</g>
<!-- Node2 -->
<g id="node2" class="node"><title>Node2</title>
<g id="a_node2"><a xlink:href="classid_win_bool.html" target="_top" xlink:title="idWinBool">
<polygon fill="white" stroke="black" points="104.5,-266.5 104.5,-285.5 165.5,-285.5 165.5,-266.5 104.5,-266.5"/>
<text text-anchor="middle" x="135" y="-273.5" font-family="Arial" font-size="10.00">idWinBool</text>
</a>
</g>
</g>
<!-- Node1&#45;&gt;Node2 -->
<g id="edge1" class="edge"><title>Node1&#45;&gt;Node2</title>
<path fill="none" stroke="midnightblue" d="M35.3172,-162.288C44.3263,-187.13 63.0509,-230.28 92,-257 95.999,-260.691 100.837,-263.762 105.786,-266.281"/>
<polygon fill="midnightblue" stroke="midnightblue" points="38.5334,-160.88 31.9543,-152.575 31.9187,-163.17 38.5334,-160.88"/>
</g>
<!-- Node3 -->
<g id="node3" class="node"><title>Node3</title>
<g id="a_node3"><a xlink:href="classid_win_float.html" target="_top" xlink:title="idWinFloat">
<polygon fill="white" stroke="black" points="103.5,-228.5 103.5,-247.5 166.5,-247.5 166.5,-228.5 103.5,-228.5"/>
<text text-anchor="middle" x="135" y="-235.5" font-family="Arial" font-size="10.00">idWinFloat</text>
</a>
</g>
</g>
<!-- Node1&#45;&gt;Node3 -->
<g id="edge2" class="edge"><title>Node1&#45;&gt;Node3</title>
<path fill="none" stroke="midnightblue" d="M40.3941,-161.004C51.7745,-177.812 70.6166,-202.685 92,-219 96.7084,-222.592 102.204,-225.695 107.639,-228.292"/>
<polygon fill="midnightblue" stroke="midnightblue" points="43.2885,-159.036 34.8706,-152.602 37.4393,-162.881 43.2885,-159.036"/>
</g>
<!-- Node4 -->
<g id="node4" class="node"><title>Node4</title>
<g id="a_node4"><a xlink:href="classid_win_int.html" target="_top" xlink:title="idWinInt">
<polygon fill="white" stroke="black" points="109,-190.5 109,-209.5 161,-209.5 161,-190.5 109,-190.5"/>
<text text-anchor="middle" x="135" y="-197.5" font-family="Arial" font-size="10.00">idWinInt</text>
</a>
</g>
</g>
<!-- Node1&#45;&gt;Node4 -->
<g id="edge3" class="edge"><title>Node1&#45;&gt;Node4</title>
<path fill="none" stroke="midnightblue" d="M52.4457,-158.044C64.142,-165.315 78.6168,-173.968 92,-181 98.2345,-184.276 105.146,-187.545 111.532,-190.424"/>
<polygon fill="midnightblue" stroke="midnightblue" points="54.0636,-154.927 43.7352,-152.566 50.337,-160.853 54.0636,-154.927"/>
</g>
<!-- Node5 -->
<g id="node5" class="node"><title>Node5</title>
<g id="a_node5"><a xlink:href="classid_win_rectangle.html" target="_top" xlink:title="idWinRectangle">
<polygon fill="white" stroke="black" points="92.5,-152.5 92.5,-171.5 177.5,-171.5 177.5,-152.5 92.5,-152.5"/>
<text text-anchor="middle" x="135" y="-159.5" font-family="Arial" font-size="10.00">idWinRectangle</text>
</a>
</g>
</g>
<!-- Node1&#45;&gt;Node5 -->
<g id="edge4" class="edge"><title>Node1&#45;&gt;Node5</title>
<path fill="none" stroke="midnightblue" d="M66.0609,-149.706C74.5734,-151.247 83.6804,-152.895 92.3716,-154.467"/>
<polygon fill="midnightblue" stroke="midnightblue" points="66.5035,-146.23 56.0401,-147.893 65.2571,-153.118 66.5035,-146.23"/>
</g>
<!-- Node6 -->
<g id="node6" class="node"><title>Node6</title>
<g id="a_node6"><a xlink:href="classid_win_str.html" target="_top" xlink:title="idWinStr">
<polygon fill="white" stroke="black" points="108,-114.5 108,-133.5 162,-133.5 162,-114.5 108,-114.5"/>
<text text-anchor="middle" x="135" y="-121.5" font-family="Arial" font-size="10.00">idWinStr</text>
</a>
</g>
</g>
<!-- Node1&#45;&gt;Node6 -->
<g id="edge5" class="edge"><title>Node1&#45;&gt;Node6</title>
<path fill="none" stroke="midnightblue" d="M66.1812,-136.272C79.9258,-133.785 95.2057,-131.02 107.777,-128.745"/>
<polygon fill="midnightblue" stroke="midnightblue" points="65.2571,-132.882 56.0401,-138.107 66.5035,-139.77 65.2571,-132.882"/>
</g>
<!-- Node8 -->
<g id="node8" class="node"><title>Node8</title>
<g id="a_node8"><a xlink:href="classid_win_vec2.html" target="_top" xlink:title="idWinVec2">
<polygon fill="white" stroke="black" points="103,-76.5 103,-95.5 167,-95.5 167,-76.5 103,-76.5"/>
<text text-anchor="middle" x="135" y="-83.5" font-family="Arial" font-size="10.00">idWinVec2</text>
</a>
</g>
</g>
<!-- Node1&#45;&gt;Node8 -->
<g id="edge7" class="edge"><title>Node1&#45;&gt;Node8</title>
<path fill="none" stroke="midnightblue" d="M52.4457,-127.956C64.142,-120.685 78.6168,-112.032 92,-105 98.2345,-101.724 105.146,-98.4553 111.532,-95.5758"/>
<polygon fill="midnightblue" stroke="midnightblue" points="50.337,-125.147 43.7352,-133.434 54.0636,-131.073 50.337,-125.147"/>
</g>
<!-- Node9 -->
<g id="node9" class="node"><title>Node9</title>
<g id="a_node9"><a xlink:href="classid_win_vec3.html" target="_top" xlink:title="idWinVec3">
<polygon fill="white" stroke="black" points="103,-38.5 103,-57.5 167,-57.5 167,-38.5 103,-38.5"/>
<text text-anchor="middle" x="135" y="-45.5" font-family="Arial" font-size="10.00">idWinVec3</text>
</a>
</g>
</g>
<!-- Node1&#45;&gt;Node9 -->
<g id="edge8" class="edge"><title>Node1&#45;&gt;Node9</title>
<path fill="none" stroke="midnightblue" d="M40.3941,-124.996C51.7745,-108.188 70.6166,-83.3147 92,-67 96.7084,-63.4077 102.204,-60.3046 107.639,-57.7081"/>
<polygon fill="midnightblue" stroke="midnightblue" points="37.4393,-123.119 34.8706,-133.398 43.2885,-126.964 37.4393,-123.119"/>
</g>
<!-- Node10 -->
<g id="node10" class="node"><title>Node10</title>
<g id="a_node10"><a xlink:href="classid_win_vec4.html" target="_top" xlink:title="idWinVec4">
<polygon fill="white" stroke="black" points="103,-0.5 103,-19.5 167,-19.5 167,-0.5 103,-0.5"/>
<text text-anchor="middle" x="135" y="-7.5" font-family="Arial" font-size="10.00">idWinVec4</text>
</a>
</g>
</g>
<!-- Node1&#45;&gt;Node10 -->
<g id="edge9" class="edge"><title>Node1&#45;&gt;Node10</title>
<path fill="none" stroke="midnightblue" d="M35.3172,-123.712C44.3263,-98.8697 63.0509,-55.7203 92,-29 95.999,-25.3089 100.837,-22.2381 105.786,-19.7185"/>
<polygon fill="midnightblue" stroke="midnightblue" points="31.9187,-122.83 31.9543,-133.425 38.5334,-125.12 31.9187,-122.83"/>
</g>
<!-- Node7 -->
<g id="node7" class="node"><title>Node7</title>
<g id="a_node7"><a xlink:href="classid_win_background.html" target="_top" xlink:title="idWinBackground">
<polygon fill="white" stroke="black" points="214.5,-114.5 214.5,-133.5 307.5,-133.5 307.5,-114.5 214.5,-114.5"/>
<text text-anchor="middle" x="261" y="-121.5" font-family="Arial" font-size="10.00">idWinBackground</text>
</a>
</g>
</g>
<!-- Node6&#45;&gt;Node7 -->
<g id="edge6" class="edge"><title>Node6&#45;&gt;Node7</title>
<path fill="none" stroke="midnightblue" d="M172.347,-124C185.446,-124 200.4,-124 214.201,-124"/>
<polygon fill="midnightblue" stroke="midnightblue" points="172.297,-120.5 162.297,-124 172.297,-127.5 172.297,-120.5"/>
</g>
</g>
</svg>
