<?xml version="1.0" encoding="UTF-8" standalone="no"?>
<!DOCTYPE svg PUBLIC "-//W3C//DTD SVG 1.1//EN"
 "http://www.w3.org/Graphics/SVG/1.1/DTD/svg11.dtd">
<!-- Generated by graphviz version 2.34.0 (20130907.0111)
 -->
<!-- Title: my_coef_controller Pages: 1 -->
<svg width="341pt" height="232pt"
 viewBox="0.00 0.00 341.00 232.00" xmlns="http://www.w3.org/2000/svg" xmlns:xlink="http://www.w3.org/1999/xlink">
<g id="graph0" class="graph" transform="scale(1 1) rotate(0) translate(4 228)">
<title>my_coef_controller</title>
<polygon fill="white" stroke="white" points="-4,4 -4,-228 337,-228 337,4 -4,4"/>
<!-- Node1 -->
<g id="node1" class="node"><title>Node1</title>
<polygon fill="#bfbfbf" stroke="black" points="97,-0.5 97,-19.5 195,-19.5 195,-0.5 97,-0.5"/>
<text text-anchor="middle" x="146" y="-7.5" font-family="Arial" font-size="10.00">my_coef_controller</text>
</g>
<!-- Node2 -->
<g id="node2" class="node"><title>Node2</title>
<g id="a_node2"><a xlink:href="structjvirt__barray__control.html" target="_top" xlink:title="jvirt_barray_control">
<polygon fill="white" stroke="black" points="4,-136.5 4,-155.5 102,-155.5 102,-136.5 4,-136.5"/>
<text text-anchor="middle" x="53" y="-143.5" font-family="Arial" font-size="10.00">jvirt_barray_control</text>
</a>
</g>
</g>
<!-- Node2&#45;&gt;Node1 -->
<g id="edge1" class="edge"><title>Node2&#45;&gt;Node1</title>
<path fill="none" stroke="#9a32cd" stroke-dasharray="5,2" d="M37.2606,-128.914C23.4476,-112.773 7.37678,-87.5653 20,-68 37.1165,-41.4703 69.8947,-27.1558 97.7283,-19.5073"/>
<polygon fill="#9a32cd" stroke="#9a32cd" points="34.7968,-131.407 44.1141,-136.451 39.9756,-126.698 34.7968,-131.407"/>
<text text-anchor="middle" x="50" y="-75.5" font-family="Arial" font-size="10.00"> whole_image</text>
</g>
<!-- Node2&#45;&gt;Node2 -->
<g id="edge2" class="edge"><title>Node2&#45;&gt;Node2</title>
<path fill="none" stroke="#9a32cd" stroke-dasharray="5,2" d="M112.323,-150.861C117.065,-149.799 120,-148.179 120,-146 120,-142.514 112.486,-140.457 102.08,-139.831"/>
<polygon fill="#9a32cd" stroke="#9a32cd" points="111.556,-147.431 102.08,-152.169 112.443,-154.374 111.556,-147.431"/>
<text text-anchor="middle" x="131" y="-143.5" font-family="Arial" font-size="10.00"> next</text>
</g>
<!-- Node4 -->
<g id="node4" class="node"><title>Node4</title>
<g id="a_node4"><a xlink:href="structjpeg__d__coef__controller.html" target="_top" xlink:title="jpeg_d_coef_controller">
<polygon fill="white" stroke="black" points="89.5,-68.5 89.5,-87.5 202.5,-87.5 202.5,-68.5 89.5,-68.5"/>
<text text-anchor="middle" x="146" y="-75.5" font-family="Arial" font-size="10.00">jpeg_d_coef_controller</text>
</a>
</g>
</g>
<!-- Node2&#45;&gt;Node4 -->
<g id="edge5" class="edge"><title>Node2&#45;&gt;Node4</title>
<path fill="none" stroke="#9a32cd" stroke-dasharray="5,2" d="M73.4951,-130.455C91.9711,-117.343 118.52,-98.5016 133.839,-87.6305"/>
<polygon fill="#9a32cd" stroke="#9a32cd" points="71.2876,-127.73 65.1581,-136.372 75.3388,-133.438 71.2876,-127.73"/>
<text text-anchor="middle" x="135" y="-109.5" font-family="Arial" font-size="10.00"> coef_arrays</text>
</g>
<!-- Node3 -->
<g id="node3" class="node"><title>Node3</title>
<g id="a_node3"><a xlink:href="structbacking__store__struct.html" target="_top" xlink:title="backing_store_struct">
<polygon fill="white" stroke="black" points="-0.5,-204.5 -0.5,-223.5 106.5,-223.5 106.5,-204.5 -0.5,-204.5"/>
<text text-anchor="middle" x="53" y="-211.5" font-family="Arial" font-size="10.00">backing_store_struct</text>
</a>
</g>
</g>
<!-- Node3&#45;&gt;Node2 -->
<g id="edge3" class="edge"><title>Node3&#45;&gt;Node2</title>
<path fill="none" stroke="#9a32cd" stroke-dasharray="5,2" d="M53,-194.041C53,-181.472 53,-165.563 53,-155.841"/>
<polygon fill="#9a32cd" stroke="#9a32cd" points="49.5001,-194.372 53,-204.372 56.5001,-194.372 49.5001,-194.372"/>
<text text-anchor="middle" x="73" y="-177.5" font-family="Arial" font-size="10.00"> b_s_info</text>
</g>
<!-- Node4&#45;&gt;Node1 -->
<g id="edge4" class="edge"><title>Node4&#45;&gt;Node1</title>
<path fill="none" stroke="#9a32cd" stroke-dasharray="5,2" d="M146,-58.0413C146,-45.4724 146,-29.5631 146,-19.8411"/>
<polygon fill="#9a32cd" stroke="#9a32cd" points="142.5,-58.3716 146,-68.3717 149.5,-58.3717 142.5,-58.3716"/>
<text text-anchor="middle" x="155.5" y="-41.5" font-family="Arial" font-size="10.00"> pub</text>
</g>
<!-- Node5 -->
<g id="node5" class="node"><title>Node5</title>
<g id="a_node5"><a xlink:href="structjpeg__c__coef__controller.html" target="_top" xlink:title="jpeg_c_coef_controller">
<polygon fill="white" stroke="black" points="220.5,-68.5 220.5,-87.5 333.5,-87.5 333.5,-68.5 220.5,-68.5"/>
<text text-anchor="middle" x="277" y="-75.5" font-family="Arial" font-size="10.00">jpeg_c_coef_controller</text>
</a>
</g>
</g>
<!-- Node5&#45;&gt;Node1 -->
<g id="edge6" class="edge"><title>Node5&#45;&gt;Node1</title>
<path fill="none" stroke="#9a32cd" stroke-dasharray="5,2" d="M250.923,-63.8621C224.846,-50.7239 185.492,-30.8969 163.13,-19.6305"/>
<polygon fill="#9a32cd" stroke="#9a32cd" points="249.369,-66.9979 259.874,-68.3717 252.518,-60.7465 249.369,-66.9979"/>
<text text-anchor="middle" x="233.5" y="-41.5" font-family="Arial" font-size="10.00"> pub</text>
</g>
</g>
</svg>
