<?xml version="1.0" encoding="UTF-8" standalone="no"?>
<!DOCTYPE svg PUBLIC "-//W3C//DTD SVG 1.1//EN"
 "http://www.w3.org/Graphics/SVG/1.1/DTD/svg11.dtd">
<!-- Generated by graphviz version 2.34.0 (20130907.0111)
 -->
<!-- Title: vorbis_residue_template Pages: 1 -->
<svg width="491pt" height="244pt"
 viewBox="0.00 0.00 491.00 244.00" xmlns="http://www.w3.org/2000/svg" xmlns:xlink="http://www.w3.org/1999/xlink">
<g id="graph0" class="graph" transform="scale(1 1) rotate(0) translate(4 240)">
<title>vorbis_residue_template</title>
<polygon fill="white" stroke="white" points="-4,4 -4,-240 487,-240 487,4 -4,4"/>
<!-- Node1 -->
<g id="node1" class="node"><title>Node1</title>
<polygon fill="#bfbfbf" stroke="black" points="246.5,-0.5 246.5,-19.5 367.5,-19.5 367.5,-0.5 246.5,-0.5"/>
<text text-anchor="middle" x="307" y="-7.5" font-family="Arial" font-size="10.00">vorbis_residue_template</text>
</g>
<!-- Node2 -->
<g id="node2" class="node"><title>Node2</title>
<g id="a_node2"><a xlink:href="structstatic__codebook.html" target="_top" xlink:title="static_codebook">
<polygon fill="white" stroke="black" points="163,-148.5 163,-167.5 251,-167.5 251,-148.5 163,-148.5"/>
<text text-anchor="middle" x="207" y="-155.5" font-family="Arial" font-size="10.00">static_codebook</text>
</a>
</g>
</g>
<!-- Node2&#45;&gt;Node1 -->
<g id="edge1" class="edge"><title>Node2&#45;&gt;Node1</title>
<path fill="none" stroke="#9a32cd" stroke-dasharray="5,2" d="M190.32,-141.154C175.178,-124.78 157.045,-98.7575 170,-78 190.257,-45.5439 231.295,-28.381 263.2,-19.5875"/>
<polygon fill="#9a32cd" stroke="#9a32cd" points="187.868,-143.653 197.364,-148.352 192.872,-138.757 187.868,-143.653"/>
<text text-anchor="middle" x="214" y="-92" font-family="Arial" font-size="10.00"> book_aux</text>
<text text-anchor="middle" x="214" y="-81" font-family="Arial" font-size="10.00">book_aux_managed</text>
</g>
<!-- Node6 -->
<g id="node6" class="node"><title>Node6</title>
<g id="a_node6"><a xlink:href="structstatic__bookblock.html" target="_top" xlink:title="static_bookblock">
<polygon fill="white" stroke="black" points="267,-79.5 267,-98.5 357,-98.5 357,-79.5 267,-79.5"/>
<text text-anchor="middle" x="312" y="-86.5" font-family="Arial" font-size="10.00">static_bookblock</text>
</a>
</g>
</g>
<!-- Node2&#45;&gt;Node6 -->
<g id="edge6" class="edge"><title>Node2&#45;&gt;Node6</title>
<path fill="none" stroke="#9a32cd" stroke-dasharray="5,2" d="M229.343,-142.743C250.362,-129.331 281.141,-109.691 298.602,-98.5494"/>
<polygon fill="#9a32cd" stroke="#9a32cd" points="227.274,-139.911 220.727,-148.241 231.04,-145.812 227.274,-139.911"/>
<text text-anchor="middle" x="281" y="-121.5" font-family="Arial" font-size="10.00"> books</text>
</g>
<!-- Node3 -->
<g id="node3" class="node"><title>Node3</title>
<g id="a_node3"><a xlink:href="structencode__aux__threshmatch.html" target="_top" xlink:title="encode_aux_threshmatch">
<polygon fill="white" stroke="black" points="0,-216.5 0,-235.5 128,-235.5 128,-216.5 0,-216.5"/>
<text text-anchor="middle" x="64" y="-223.5" font-family="Arial" font-size="10.00">encode_aux_threshmatch</text>
</a>
</g>
</g>
<!-- Node3&#45;&gt;Node2 -->
<g id="edge2" class="edge"><title>Node3&#45;&gt;Node2</title>
<path fill="none" stroke="#9a32cd" stroke-dasharray="5,2" d="M92.0917,-212.035C120.554,-198.898 163.783,-178.946 188.301,-167.63"/>
<polygon fill="#9a32cd" stroke="#9a32cd" points="90.3076,-209.003 82.6948,-216.372 93.2411,-215.359 90.3076,-209.003"/>
<text text-anchor="middle" x="175" y="-189.5" font-family="Arial" font-size="10.00"> thresh_tree</text>
</g>
<!-- Node4 -->
<g id="node4" class="node"><title>Node4</title>
<g id="a_node4"><a xlink:href="structencode__aux__pigeonhole.html" target="_top" xlink:title="encode_aux_pigeonhole">
<polygon fill="white" stroke="black" points="146.5,-216.5 146.5,-235.5 267.5,-235.5 267.5,-216.5 146.5,-216.5"/>
<text text-anchor="middle" x="207" y="-223.5" font-family="Arial" font-size="10.00">encode_aux_pigeonhole</text>
</a>
</g>
</g>
<!-- Node4&#45;&gt;Node2 -->
<g id="edge3" class="edge"><title>Node4&#45;&gt;Node2</title>
<path fill="none" stroke="#9a32cd" stroke-dasharray="5,2" d="M207,-206.041C207,-193.472 207,-177.563 207,-167.841"/>
<polygon fill="#9a32cd" stroke="#9a32cd" points="203.5,-206.372 207,-216.372 210.5,-206.372 203.5,-206.372"/>
<text text-anchor="middle" x="234" y="-189.5" font-family="Arial" font-size="10.00"> pigeon_tree</text>
</g>
<!-- Node5 -->
<g id="node5" class="node"><title>Node5</title>
<g id="a_node5"><a xlink:href="structencode__aux__nearestmatch.html" target="_top" xlink:title="encode_aux_nearestmatch">
<polygon fill="white" stroke="black" points="286,-216.5 286,-235.5 420,-235.5 420,-216.5 286,-216.5"/>
<text text-anchor="middle" x="353" y="-223.5" font-family="Arial" font-size="10.00">encode_aux_nearestmatch</text>
</a>
</g>
</g>
<!-- Node5&#45;&gt;Node2 -->
<g id="edge4" class="edge"><title>Node5&#45;&gt;Node2</title>
<path fill="none" stroke="#9a32cd" stroke-dasharray="5,2" d="M324.699,-212.206C295.645,-199.072 251.233,-178.996 226.092,-167.63"/>
<polygon fill="#9a32cd" stroke="#9a32cd" points="323.359,-215.442 333.913,-216.372 326.243,-209.063 323.359,-215.442"/>
<text text-anchor="middle" x="323" y="-189.5" font-family="Arial" font-size="10.00"> nearest_tree</text>
</g>
<!-- Node6&#45;&gt;Node1 -->
<g id="edge5" class="edge"><title>Node6&#45;&gt;Node1</title>
<path fill="none" stroke="#9a32cd" stroke-dasharray="5,2" d="M308.973,-69.0291C308.583,-66.0154 308.238,-62.9274 308,-60 306.855,-45.922 306.774,-29.4983 306.859,-19.6904"/>
<polygon fill="#9a32cd" stroke="#9a32cd" points="305.55,-69.8165 310.464,-79.2033 312.476,-68.8014 305.55,-69.8165"/>
<text text-anchor="middle" x="358.5" y="-52" font-family="Arial" font-size="10.00"> books_base_managed</text>
<text text-anchor="middle" x="358.5" y="-41" font-family="Arial" font-size="10.00">books_base</text>
</g>
<!-- Node7 -->
<g id="node7" class="node"><title>Node7</title>
<g id="a_node7"><a xlink:href="structvorbis__info__residue0.html" target="_top" xlink:title="vorbis_info_residue0">
<polygon fill="white" stroke="black" points="379,-79.5 379,-98.5 483,-98.5 483,-79.5 379,-79.5"/>
<text text-anchor="middle" x="431" y="-86.5" font-family="Arial" font-size="10.00">vorbis_info_residue0</text>
</a>
</g>
</g>
<!-- Node7&#45;&gt;Node1 -->
<g id="edge7" class="edge"><title>Node7&#45;&gt;Node1</title>
<path fill="none" stroke="#9a32cd" stroke-dasharray="5,2" d="M427.004,-69.1984C423.823,-58.6131 418.308,-45.9602 409,-38 397.376,-28.0584 382.483,-21.7297 367.69,-17.7146"/>
<polygon fill="#9a32cd" stroke="#9a32cd" points="423.688,-70.362 429.534,-79.1977 430.474,-68.6446 423.688,-70.362"/>
<text text-anchor="middle" x="432.5" y="-46.5" font-family="Arial" font-size="10.00"> res</text>
</g>
</g>
</svg>
