<?xml version="1.0" encoding="UTF-8" standalone="no"?>
<!DOCTYPE svg PUBLIC "-//W3C//DTD SVG 1.1//EN"
 "http://www.w3.org/Graphics/SVG/1.1/DTD/svg11.dtd">
<!-- Generated by graphviz version 2.34.0 (20130907.0111)
 -->
<!-- Title: trmCache_s Pages: 1 -->
<svg width="488pt" height="234pt"
 viewBox="0.00 0.00 488.00 234.00" xmlns="http://www.w3.org/2000/svg" xmlns:xlink="http://www.w3.org/1999/xlink">
<g id="graph0" class="graph" transform="scale(1 1) rotate(0) translate(4 230)">
<title>trmCache_s</title>
<polygon fill="white" stroke="white" points="-4,4 -4,-230 484,-230 484,4 -4,4"/>
<!-- Node1 -->
<g id="node1" class="node"><title>Node1</title>
<polygon fill="#bfbfbf" stroke="black" points="62.5,-0.5 62.5,-19.5 131.5,-19.5 131.5,-0.5 62.5,-0.5"/>
<text text-anchor="middle" x="97" y="-7.5" font-family="Arial" font-size="10.00">trmCache_s</text>
</g>
<!-- Node2 -->
<g id="node2" class="node"><title>Node2</title>
<g id="a_node2"><a xlink:href="classid_mat3.html" target="_top" xlink:title="idMat3">
<polygon fill="white" stroke="black" points="0,-68.5 0,-87.5 46,-87.5 46,-68.5 0,-68.5"/>
<text text-anchor="middle" x="23" y="-75.5" font-family="Arial" font-size="10.00">idMat3</text>
</a>
</g>
</g>
<!-- Node2&#45;&gt;Node1 -->
<g id="edge1" class="edge"><title>Node2&#45;&gt;Node1</title>
<path fill="none" stroke="#9a32cd" stroke-dasharray="5,2" d="M19.3138,-58.3373C18.9497,-51.3837 19.8616,-43.7836 24,-38 32.8855,-25.5822 48.1501,-18.8664 62.4309,-15.2382"/>
<polygon fill="#9a32cd" stroke="#9a32cd" points="15.8618,-58.9301 20.656,-68.3782 22.8001,-58.0026 15.8618,-58.9301"/>
<text text-anchor="middle" x="53.5" y="-41.5" font-family="Arial" font-size="10.00"> inertiaTensor</text>
</g>
<!-- Node3 -->
<g id="node3" class="node"><title>Node3</title>
<g id="a_node3"><a xlink:href="classid_trace_model.html" target="_top" xlink:title="idTraceModel">
<polygon fill="white" stroke="black" points="232,-68.5 232,-87.5 306,-87.5 306,-68.5 232,-68.5"/>
<text text-anchor="middle" x="269" y="-75.5" font-family="Arial" font-size="10.00">idTraceModel</text>
</a>
</g>
</g>
<!-- Node3&#45;&gt;Node1 -->
<g id="edge2" class="edge"><title>Node3&#45;&gt;Node1</title>
<path fill="none" stroke="#9a32cd" stroke-dasharray="5,2" d="M236.961,-64.7059C202.667,-51.5466 149.165,-31.0166 119.219,-19.5259"/>
<polygon fill="#9a32cd" stroke="#9a32cd" points="235.924,-68.0568 246.514,-68.3717 238.432,-61.5214 235.924,-68.0568"/>
<text text-anchor="middle" x="208" y="-41.5" font-family="Arial" font-size="10.00"> trm</text>
</g>
<!-- Node4 -->
<g id="node4" class="node"><title>Node4</title>
<g id="a_node4"><a xlink:href="structtrace_model_edge__t.html" target="_top" xlink:title="traceModelEdge_t">
<polygon fill="white" stroke="black" points="221.5,-137.5 221.5,-156.5 316.5,-156.5 316.5,-137.5 221.5,-137.5"/>
<text text-anchor="middle" x="269" y="-144.5" font-family="Arial" font-size="10.00">traceModelEdge_t</text>
</a>
</g>
</g>
<!-- Node4&#45;&gt;Node3 -->
<g id="edge3" class="edge"><title>Node4&#45;&gt;Node3</title>
<path fill="none" stroke="#9a32cd" stroke-dasharray="5,2" d="M269,-127.018C269,-114.034 269,-97.4419 269,-87.5494"/>
<polygon fill="#9a32cd" stroke="#9a32cd" points="265.5,-127.241 269,-137.241 272.5,-127.241 265.5,-127.241"/>
<text text-anchor="middle" x="284" y="-109.5" font-family="Arial" font-size="10.00"> edges</text>
</g>
<!-- Node5 -->
<g id="node5" class="node"><title>Node5</title>
<g id="a_node5"><a xlink:href="classid_vec3.html" target="_top" xlink:title="idVec3">
<polygon fill="white" stroke="black" points="184.5,-206.5 184.5,-225.5 231.5,-225.5 231.5,-206.5 184.5,-206.5"/>
<text text-anchor="middle" x="208" y="-213.5" font-family="Arial" font-size="10.00">idVec3</text>
</a>
</g>
</g>
<!-- Node5&#45;&gt;Node1 -->
<g id="edge10" class="edge"><title>Node5&#45;&gt;Node1</title>
<path fill="none" stroke="#9a32cd" stroke-dasharray="5,2" d="M191.955,-199.058C188.574,-195.501 185.095,-191.689 182,-188 157.259,-158.512 148.387,-152.342 131,-118 113.568,-83.5678 102.762,-38.3899 98.7605,-19.6861"/>
<polygon fill="#9a32cd" stroke="#9a32cd" points="189.524,-201.578 199.015,-206.286 194.531,-196.687 189.524,-201.578"/>
<text text-anchor="middle" x="163" y="-109.5" font-family="Arial" font-size="10.00"> centerOfMass</text>
</g>
<!-- Node5&#45;&gt;Node3 -->
<g id="edge9" class="edge"><title>Node5&#45;&gt;Node3</title>
<path fill="none" stroke="#9a32cd" stroke-dasharray="5,2" d="M195.66,-197.634C185.551,-181.09 174.488,-155.836 185,-136 197.708,-112.018 225.525,-96.2626 245.673,-87.5144"/>
<polygon fill="#9a32cd" stroke="#9a32cd" points="192.914,-199.829 201.332,-206.262 198.763,-195.983 192.914,-199.829"/>
<text text-anchor="middle" x="198.5" y="-150" font-family="Arial" font-size="10.00"> offset</text>
<text text-anchor="middle" x="198.5" y="-139" font-family="Arial" font-size="10.00">verts</text>
</g>
<!-- Node5&#45;&gt;Node4 -->
<g id="edge4" class="edge"><title>Node5&#45;&gt;Node4</title>
<path fill="none" stroke="#9a32cd" stroke-dasharray="5,2" d="M222.827,-198.715C234.937,-185.414 251.573,-167.141 261.216,-156.549"/>
<polygon fill="#9a32cd" stroke="#9a32cd" points="220.119,-196.49 215.975,-206.241 225.295,-201.203 220.119,-196.49"/>
<text text-anchor="middle" x="259.5" y="-179.5" font-family="Arial" font-size="10.00"> normal</text>
</g>
<!-- Node6 -->
<g id="node6" class="node"><title>Node6</title>
<g id="a_node6"><a xlink:href="structtrace_model_poly__t.html" target="_top" xlink:title="traceModelPoly_t">
<polygon fill="white" stroke="black" points="335,-137.5 335,-156.5 427,-156.5 427,-137.5 335,-137.5"/>
<text text-anchor="middle" x="381" y="-144.5" font-family="Arial" font-size="10.00">traceModelPoly_t</text>
</a>
</g>
</g>
<!-- Node5&#45;&gt;Node6 -->
<g id="edge7" class="edge"><title>Node5&#45;&gt;Node6</title>
<path fill="none" stroke="#9a32cd" stroke-dasharray="5,2" d="M240.532,-202.944C252.907,-198.321 267.124,-192.963 280,-188 307.628,-177.35 339.356,-164.718 359.764,-156.541"/>
<polygon fill="#9a32cd" stroke="#9a32cd" points="239.211,-199.702 231.063,-206.474 241.656,-206.261 239.211,-199.702"/>
<text text-anchor="middle" x="327.5" y="-179.5" font-family="Arial" font-size="10.00"> normal</text>
</g>
<!-- Node6&#45;&gt;Node3 -->
<g id="edge5" class="edge"><title>Node6&#45;&gt;Node3</title>
<path fill="none" stroke="#9a32cd" stroke-dasharray="5,2" d="M357.769,-132.103C335.337,-118.684 302.083,-98.7908 283.292,-87.5494"/>
<polygon fill="#9a32cd" stroke="#9a32cd" points="355.979,-135.111 366.358,-137.241 359.573,-129.104 355.979,-135.111"/>
<text text-anchor="middle" x="345.5" y="-109.5" font-family="Arial" font-size="10.00"> polys</text>
</g>
<!-- Node7 -->
<g id="node7" class="node"><title>Node7</title>
<g id="a_node7"><a xlink:href="classid_bounds.html" target="_top" xlink:title="idBounds">
<polygon fill="white" stroke="black" points="401.5,-206.5 401.5,-225.5 458.5,-225.5 458.5,-206.5 401.5,-206.5"/>
<text text-anchor="middle" x="430" y="-213.5" font-family="Arial" font-size="10.00">idBounds</text>
</a>
</g>
</g>
<!-- Node7&#45;&gt;Node3 -->
<g id="edge8" class="edge"><title>Node7&#45;&gt;Node3</title>
<path fill="none" stroke="#9a32cd" stroke-dasharray="5,2" d="M444.169,-198.111C446.155,-194.927 447.894,-191.494 449,-188 454.633,-170.206 436.763,-136.823 436,-136 402.156,-99.4919 343.989,-86.3651 306.015,-81.6464"/>
<polygon fill="#9a32cd" stroke="#9a32cd" points="441.285,-196.126 438.234,-206.272 446.946,-200.243 441.285,-196.126"/>
<text text-anchor="middle" x="462.5" y="-144.5" font-family="Arial" font-size="10.00"> bounds</text>
</g>
<!-- Node7&#45;&gt;Node6 -->
<g id="edge6" class="edge"><title>Node7&#45;&gt;Node6</title>
<path fill="none" stroke="#9a32cd" stroke-dasharray="5,2" d="M417.535,-197.957C407.86,-184.727 394.853,-166.941 387.253,-156.549"/>
<polygon fill="#9a32cd" stroke="#9a32cd" points="414.866,-200.235 423.594,-206.241 420.516,-196.103 414.866,-200.235"/>
<text text-anchor="middle" x="427.5" y="-179.5" font-family="Arial" font-size="10.00"> bounds</text>
</g>
</g>
</svg>
