<?xml version="1.0" encoding="UTF-8" standalone="no"?>
<!DOCTYPE svg PUBLIC "-//W3C//DTD SVG 1.1//EN"
 "http://www.w3.org/Graphics/SVG/1.1/DTD/svg11.dtd">
<!-- Generated by graphviz version 2.34.0 (20130907.0111)
 -->
<!-- Title: cm_nodeBlock_s Pages: 1 -->
<svg width="319pt" height="428pt"
 viewBox="0.00 0.00 319.00 428.00" xmlns="http://www.w3.org/2000/svg" xmlns:xlink="http://www.w3.org/1999/xlink">
<g id="graph0" class="graph" transform="scale(1 1) rotate(0) translate(4 424)">
<title>cm_nodeBlock_s</title>
<polygon fill="white" stroke="white" points="-4,4 -4,-424 315,-424 315,4 -4,4"/>
<!-- Node1 -->
<g id="node1" class="node"><title>Node1</title>
<polygon fill="#bfbfbf" stroke="black" points="80,-0.5 80,-19.5 172,-19.5 172,-0.5 80,-0.5"/>
<text text-anchor="middle" x="126" y="-7.5" font-family="Arial" font-size="10.00">cm_nodeBlock_s</text>
</g>
<!-- Node1&#45;&gt;Node1 -->
<g id="edge1" class="edge"><title>Node1&#45;&gt;Node1</title>
<path fill="none" stroke="#9a32cd" stroke-dasharray="5,2" d="M182.274,-14.9508C187.034,-13.8915 190,-12.2412 190,-10 190,-6.41406 182.406,-4.34094 172.024,-3.78064"/>
<polygon fill="#9a32cd" stroke="#9a32cd" points="181.519,-11.5175 172.024,-16.2194 182.378,-18.4645 181.519,-11.5175"/>
<text text-anchor="middle" x="201" y="-7.5" font-family="Arial" font-size="10.00"> next</text>
</g>
<!-- Node2 -->
<g id="node2" class="node"><title>Node2</title>
<g id="a_node2"><a xlink:href="structcm__node__s.html" target="_top" xlink:title="cm_node_s">
<polygon fill="white" stroke="black" points="92.5,-69.5 92.5,-88.5 159.5,-88.5 159.5,-69.5 92.5,-69.5"/>
<text text-anchor="middle" x="126" y="-76.5" font-family="Arial" font-size="10.00">cm_node_s</text>
</a>
</g>
</g>
<!-- Node2&#45;&gt;Node1 -->
<g id="edge2" class="edge"><title>Node2&#45;&gt;Node1</title>
<path fill="none" stroke="#9a32cd" stroke-dasharray="5,2" d="M126,-59.0183C126,-46.034 126,-29.4419 126,-19.5494"/>
<polygon fill="#9a32cd" stroke="#9a32cd" points="122.5,-59.2409 126,-69.2409 129.5,-59.241 122.5,-59.2409"/>
<text text-anchor="middle" x="148.5" y="-41.5" font-family="Arial" font-size="10.00"> nextNode</text>
</g>
<!-- Node2&#45;&gt;Node2 -->
<g id="edge11" class="edge"><title>Node2&#45;&gt;Node2</title>
<path fill="none" stroke="#9a32cd" stroke-dasharray="5,2" d="M169.866,-84.2033C174.226,-83.1624 177,-81.428 177,-79 177,-75.0156 169.529,-72.8989 159.841,-72.6499"/>
<polygon fill="#9a32cd" stroke="#9a32cd" points="169.378,-80.7362 159.841,-85.3501 170.174,-87.6909 169.378,-80.7362"/>
<text text-anchor="middle" x="194" y="-82" font-family="Arial" font-size="10.00"> parent</text>
<text text-anchor="middle" x="194" y="-71" font-family="Arial" font-size="10.00">children</text>
</g>
<!-- Node3 -->
<g id="node3" class="node"><title>Node3</title>
<g id="a_node3"><a xlink:href="structcm__polygon_ref__s.html" target="_top" xlink:title="cm_polygonRef_s">
<polygon fill="white" stroke="black" points="142,-138.5 142,-157.5 236,-157.5 236,-138.5 142,-138.5"/>
<text text-anchor="middle" x="189" y="-145.5" font-family="Arial" font-size="10.00">cm_polygonRef_s</text>
</a>
</g>
</g>
<!-- Node3&#45;&gt;Node2 -->
<g id="edge3" class="edge"><title>Node3&#45;&gt;Node2</title>
<path fill="none" stroke="#9a32cd" stroke-dasharray="5,2" d="M173.687,-130.715C161.18,-117.414 143.999,-99.1413 134.039,-88.5494"/>
<polygon fill="#9a32cd" stroke="#9a32cd" points="171.364,-133.353 180.764,-138.241 176.463,-128.558 171.364,-133.353"/>
<text text-anchor="middle" x="184.5" y="-111.5" font-family="Arial" font-size="10.00"> polygons</text>
</g>
<!-- Node3&#45;&gt;Node3 -->
<g id="edge10" class="edge"><title>Node3&#45;&gt;Node3</title>
<path fill="none" stroke="#9a32cd" stroke-dasharray="5,2" d="M246.287,-152.921C251.043,-151.861 254,-150.22 254,-148 254,-144.447 246.43,-142.379 236.035,-141.797"/>
<polygon fill="#9a32cd" stroke="#9a32cd" points="245.524,-149.489 236.035,-154.203 246.393,-156.435 245.524,-149.489"/>
<text text-anchor="middle" x="265" y="-145.5" font-family="Arial" font-size="10.00"> next</text>
</g>
<!-- Node4 -->
<g id="node4" class="node"><title>Node4</title>
<g id="a_node4"><a xlink:href="structcm__polygon__s.html" target="_top" xlink:title="cm_polygon_s">
<polygon fill="white" stroke="black" points="145,-206.5 145,-225.5 225,-225.5 225,-206.5 145,-206.5"/>
<text text-anchor="middle" x="185" y="-213.5" font-family="Arial" font-size="10.00">cm_polygon_s</text>
</a>
</g>
</g>
<!-- Node4&#45;&gt;Node3 -->
<g id="edge4" class="edge"><title>Node4&#45;&gt;Node3</title>
<path fill="none" stroke="#9a32cd" stroke-dasharray="5,2" d="M186.149,-196.041C186.911,-183.472 187.875,-167.563 188.464,-157.841"/>
<polygon fill="#9a32cd" stroke="#9a32cd" points="182.634,-196.178 185.523,-206.372 189.622,-196.602 182.634,-196.178"/>
<text text-anchor="middle" x="191.5" y="-179.5" font-family="Arial" font-size="10.00"> p</text>
</g>
<!-- Node5 -->
<g id="node5" class="node"><title>Node5</title>
<g id="a_node5"><a xlink:href="classid_plane.html" target="_top" xlink:title="idPlane">
<polygon fill="white" stroke="black" points="8.5,-274.5 8.5,-293.5 57.5,-293.5 57.5,-274.5 8.5,-274.5"/>
<text text-anchor="middle" x="33" y="-281.5" font-family="Arial" font-size="10.00">idPlane</text>
</a>
</g>
</g>
<!-- Node5&#45;&gt;Node4 -->
<g id="edge5" class="edge"><title>Node5&#45;&gt;Node4</title>
<path fill="none" stroke="#9a32cd" stroke-dasharray="5,2" d="M66.7461,-270.839C78.6114,-266.386 91.9794,-261.168 104,-256 126.511,-246.321 151.876,-233.846 168.128,-225.644"/>
<polygon fill="#9a32cd" stroke="#9a32cd" points="65.354,-267.622 57.1952,-274.381 67.7883,-274.185 65.354,-267.622"/>
<text text-anchor="middle" x="141.5" y="-247.5" font-family="Arial" font-size="10.00"> plane</text>
</g>
<!-- Node11 -->
<g id="node11" class="node"><title>Node11</title>
<g id="a_node11"><a xlink:href="structcm__brush__s.html" target="_top" xlink:title="cm_brush_s">
<polygon fill="white" stroke="black" points="12,-206.5 12,-225.5 82,-225.5 82,-206.5 12,-206.5"/>
<text text-anchor="middle" x="47" y="-213.5" font-family="Arial" font-size="10.00">cm_brush_s</text>
</a>
</g>
</g>
<!-- Node5&#45;&gt;Node11 -->
<g id="edge14" class="edge"><title>Node5&#45;&gt;Node11</title>
<path fill="none" stroke="#9a32cd" stroke-dasharray="5,2" d="M16.0623,-267.007C10.7442,-260.028 7.15188,-251.696 11,-244 14.9131,-236.174 22.2929,-230.028 29.357,-225.589"/>
<polygon fill="#9a32cd" stroke="#9a32cd" points="13.4696,-269.358 22.7556,-274.459 18.6774,-264.681 13.4696,-269.358"/>
<text text-anchor="middle" x="27" y="-247.5" font-family="Arial" font-size="10.00"> planes</text>
</g>
<!-- Node6 -->
<g id="node6" class="node"><title>Node6</title>
<g id="a_node6"><a xlink:href="classid_bounds.html" target="_top" xlink:title="idBounds">
<polygon fill="white" stroke="black" points="237.5,-274.5 237.5,-293.5 294.5,-293.5 294.5,-274.5 237.5,-274.5"/>
<text text-anchor="middle" x="266" y="-281.5" font-family="Arial" font-size="10.00">idBounds</text>
</a>
</g>
</g>
<!-- Node6&#45;&gt;Node4 -->
<g id="edge6" class="edge"><title>Node6&#45;&gt;Node4</title>
<path fill="none" stroke="#9a32cd" stroke-dasharray="5,2" d="M274.771,-264.858C276.865,-257.776 277.396,-249.947 273,-244 261.981,-229.093 242.879,-222.152 225.283,-219.018"/>
<polygon fill="#9a32cd" stroke="#9a32cd" points="271.422,-263.809 270.975,-274.394 277.925,-266.398 271.422,-263.809"/>
<text text-anchor="middle" x="293.5" y="-247.5" font-family="Arial" font-size="10.00"> bounds</text>
</g>
<!-- Node6&#45;&gt;Node11 -->
<g id="edge15" class="edge"><title>Node6&#45;&gt;Node11</title>
<path fill="none" stroke="#9a32cd" stroke-dasharray="5,2" d="M247.691,-268.091C235.478,-258.431 220.359,-247.092 213,-244 189.985,-234.329 123.65,-225.531 82.1373,-220.755"/>
<polygon fill="#9a32cd" stroke="#9a32cd" points="245.559,-270.867 255.551,-274.388 249.936,-265.404 245.559,-270.867"/>
<text text-anchor="middle" x="248.5" y="-247.5" font-family="Arial" font-size="10.00"> bounds</text>
</g>
<!-- Node7 -->
<g id="node7" class="node"><title>Node7</title>
<g id="a_node7"><a xlink:href="classid_material.html" target="_top" xlink:title="idMaterial">
<polygon fill="white" stroke="black" points="122.5,-274.5 122.5,-293.5 181.5,-293.5 181.5,-274.5 122.5,-274.5"/>
<text text-anchor="middle" x="152" y="-281.5" font-family="Arial" font-size="10.00">idMaterial</text>
</a>
</g>
</g>
<!-- Node7&#45;&gt;Node4 -->
<g id="edge7" class="edge"><title>Node7&#45;&gt;Node4</title>
<path fill="none" stroke="#9a32cd" stroke-dasharray="5,2" d="M160.907,-265.186C167.274,-252.452 175.57,-235.861 180.579,-225.841"/>
<polygon fill="#9a32cd" stroke="#9a32cd" points="157.656,-263.862 156.314,-274.372 163.917,-266.993 157.656,-263.862"/>
<text text-anchor="middle" x="190" y="-247.5" font-family="Arial" font-size="10.00"> material</text>
</g>
<!-- Node7&#45;&gt;Node11 -->
<g id="edge16" class="edge"><title>Node7&#45;&gt;Node11</title>
<path fill="none" stroke="#9a32cd" stroke-dasharray="5,2" d="M112.327,-277.536C96.4688,-273.688 78.9385,-267.14 66,-256 56.7537,-248.039 51.6012,-234.536 49.0639,-225.693"/>
<polygon fill="#9a32cd" stroke="#9a32cd" points="111.931,-281.03 122.442,-279.695 113.393,-274.185 111.931,-281.03"/>
<text text-anchor="middle" x="85" y="-247.5" font-family="Arial" font-size="10.00"> material</text>
</g>
<!-- Node8 -->
<g id="node8" class="node"><title>Node8</title>
<g id="a_node8"><a xlink:href="classid_decl.html" target="_top" xlink:title="idDecl">
<polygon fill="white" stroke="black" points="130,-332.5 130,-351.5 174,-351.5 174,-332.5 130,-332.5"/>
<text text-anchor="middle" x="152" y="-339.5" font-family="Arial" font-size="10.00">idDecl</text>
</a>
</g>
</g>
<!-- Node8&#45;&gt;Node7 -->
<g id="edge8" class="edge"><title>Node8&#45;&gt;Node7</title>
<path fill="none" stroke="midnightblue" d="M152,-321.953C152,-312.287 152,-301.031 152,-293.505"/>
<polygon fill="midnightblue" stroke="midnightblue" points="148.5,-322.25 152,-332.25 155.5,-322.25 148.5,-322.25"/>
</g>
<!-- Node9 -->
<g id="node9" class="node"><title>Node9</title>
<g id="a_node9"><a xlink:href="classid_decl_base.html" target="_top" xlink:title="idDeclBase">
<polygon fill="white" stroke="black" points="119,-400.5 119,-419.5 185,-419.5 185,-400.5 119,-400.5"/>
<text text-anchor="middle" x="152" y="-407.5" font-family="Arial" font-size="10.00">idDeclBase</text>
</a>
</g>
</g>
<!-- Node9&#45;&gt;Node8 -->
<g id="edge9" class="edge"><title>Node9&#45;&gt;Node8</title>
<path fill="none" stroke="#9a32cd" stroke-dasharray="5,2" d="M152,-390.041C152,-377.472 152,-361.563 152,-351.841"/>
<polygon fill="#9a32cd" stroke="#9a32cd" points="148.5,-390.372 152,-400.372 155.5,-390.372 148.5,-390.372"/>
<text text-anchor="middle" x="164.5" y="-373.5" font-family="Arial" font-size="10.00"> base</text>
</g>
<!-- Node10 -->
<g id="node10" class="node"><title>Node10</title>
<g id="a_node10"><a xlink:href="structcm__brush_ref__s.html" target="_top" xlink:title="cm_brushRef_s">
<polygon fill="white" stroke="black" points="0,-138.5 0,-157.5 84,-157.5 84,-138.5 0,-138.5"/>
<text text-anchor="middle" x="42" y="-145.5" font-family="Arial" font-size="10.00">cm_brushRef_s</text>
</a>
</g>
</g>
<!-- Node10&#45;&gt;Node2 -->
<g id="edge12" class="edge"><title>Node10&#45;&gt;Node2</title>
<path fill="none" stroke="#9a32cd" stroke-dasharray="5,2" d="M61.0168,-131.832C77.7887,-118.454 101.626,-99.4411 115.281,-88.5494"/>
<polygon fill="#9a32cd" stroke="#9a32cd" points="58.6168,-129.269 52.9815,-138.241 62.9818,-134.742 58.6168,-129.269"/>
<text text-anchor="middle" x="108" y="-111.5" font-family="Arial" font-size="10.00"> brushes</text>
</g>
<!-- Node10&#45;&gt;Node10 -->
<g id="edge17" class="edge"><title>Node10&#45;&gt;Node10</title>
<path fill="none" stroke="#9a32cd" stroke-dasharray="5,2" d="M94.2545,-153.066C99.0093,-152.013 102,-150.324 102,-148 102,-144.281 94.3438,-142.189 84.0557,-141.725"/>
<polygon fill="#9a32cd" stroke="#9a32cd" points="93.5739,-149.622 84.0557,-154.275 94.3983,-156.573 93.5739,-149.622"/>
<text text-anchor="middle" x="113" y="-145.5" font-family="Arial" font-size="10.00"> next</text>
</g>
<!-- Node11&#45;&gt;Node10 -->
<g id="edge13" class="edge"><title>Node11&#45;&gt;Node10</title>
<path fill="none" stroke="#9a32cd" stroke-dasharray="5,2" d="M45.5637,-196.041C44.6115,-183.472 43.4063,-167.563 42.6698,-157.841"/>
<polygon fill="#9a32cd" stroke="#9a32cd" points="42.1008,-196.665 46.3463,-206.372 49.0808,-196.136 42.1008,-196.665"/>
<text text-anchor="middle" x="49.5" y="-179.5" font-family="Arial" font-size="10.00"> b</text>
</g>
</g>
</svg>
