<?xml version="1.0" encoding="UTF-8" standalone="no"?>
<!DOCTYPE svg PUBLIC "-//W3C//DTD SVG 1.1//EN"
 "http://www.w3.org/Graphics/SVG/1.1/DTD/svg11.dtd">
<!-- Generated by graphviz version 2.34.0 (20130907.0111)
 -->
<!-- Title: networkServer_t Pages: 1 -->
<svg width="130pt" height="96pt"
 viewBox="0.00 0.00 130.00 96.00" xmlns="http://www.w3.org/2000/svg" xmlns:xlink="http://www.w3.org/1999/xlink">
<g id="graph0" class="graph" transform="scale(1 1) rotate(0) translate(4 92)">
<title>networkServer_t</title>
<polygon fill="white" stroke="white" points="-4,4 -4,-92 126,-92 126,4 -4,4"/>
<!-- Node1 -->
<g id="node1" class="node"><title>Node1</title>
<polygon fill="#bfbfbf" stroke="black" points="15,-0.5 15,-19.5 101,-19.5 101,-0.5 15,-0.5"/>
<text text-anchor="middle" x="58" y="-7.5" font-family="Arial" font-size="10.00">networkServer_t</text>
</g>
<!-- Node2 -->
<g id="node2" class="node"><title>Node2</title>
<g id="a_node2"><a xlink:href="structnetadr__t.html" target="_top" xlink:title="netadr_t">
<polygon fill="white" stroke="black" points="0,-68.5 0,-87.5 52,-87.5 52,-68.5 0,-68.5"/>
<text text-anchor="middle" x="26" y="-75.5" font-family="Arial" font-size="10.00">netadr_t</text>
</a>
</g>
</g>
<!-- Node2&#45;&gt;Node1 -->
<g id="edge1" class="edge"><title>Node2&#45;&gt;Node1</title>
<path fill="none" stroke="#9a32cd" stroke-dasharray="5,2" d="M34.6371,-59.1859C40.811,-46.4523 48.8554,-29.8607 53.7134,-19.8411"/>
<polygon fill="#9a32cd" stroke="#9a32cd" points="31.3969,-57.8465 30.1834,-68.3717 37.6956,-60.9005 31.3969,-57.8465"/>
<text text-anchor="middle" x="53.5" y="-41.5" font-family="Arial" font-size="10.00"> adr</text>
</g>
<!-- Node3 -->
<g id="node3" class="node"><title>Node3</title>
<g id="a_node3"><a xlink:href="classid_dict.html" target="_top" xlink:title="idDict">
<polygon fill="white" stroke="black" points="70.5,-68.5 70.5,-87.5 111.5,-87.5 111.5,-68.5 70.5,-68.5"/>
<text text-anchor="middle" x="91" y="-75.5" font-family="Arial" font-size="10.00">idDict</text>
</a>
</g>
</g>
<!-- Node3&#45;&gt;Node1 -->
<g id="edge2" class="edge"><title>Node3&#45;&gt;Node1</title>
<path fill="none" stroke="#9a32cd" stroke-dasharray="5,2" d="M82.093,-59.1859C75.7261,-46.4523 67.4304,-29.8607 62.4206,-19.8411"/>
<polygon fill="#9a32cd" stroke="#9a32cd" points="79.0831,-60.9926 86.6858,-68.3717 85.3441,-57.8621 79.0831,-60.9926"/>
<text text-anchor="middle" x="100" y="-41.5" font-family="Arial" font-size="10.00"> serverInfo</text>
</g>
</g>
</svg>
