<?xml version="1.0" encoding="UTF-8" standalone="no"?>
<!DOCTYPE svg PUBLIC "-//W3C//DTD SVG 1.1//EN"
 "http://www.w3.org/Graphics/SVG/1.1/DTD/svg11.dtd">
<!-- Generated by graphviz version 2.34.0 (20130907.0111)
 -->
<!-- Title: st_lwObject Pages: 1 -->
<!--zoomable 710 -->
<svg id="main" version="1.1" xmlns="http://www.w3.org/2000/svg" xmlns:xlink="http://www.w3.org/1999/xlink" xml:space="preserve" onload="init(evt)">
<style type="text/css"><![CDATA[
.edge:hover path { stroke: red; }
.edge:hover polygon { stroke: red; fill: red; }
]]></style>
<script type="text/javascript"><![CDATA[
var edges = document.getElementsByTagName('g');
if (edges && edges.length) {
  for (var i=0;i<edges.length;i++) {
    if (edges[i].id.substr(0,4)=='edge') {
      edges[i].setAttribute('class','edge');
    }
  }
}
]]></script>
        <defs>
                <circle id="rim" cx="0" cy="0" r="7"/>
                <circle id="rim2" cx="0" cy="0" r="3.5"/>
                <g id="zoomPlus">
                        <use xlink:href="#rim" fill="#404040">
                                <set attributeName="fill" to="#808080" begin="zoomplus.mouseover" end="zoomplus.mouseout"/>
                        </use>
                        <path d="M-4,0h8M0,-4v8" fill="none" stroke="white" stroke-width="1.5" pointer-events="none"/>
                </g>
                <g id="zoomMin">
                        <use xlink:href="#rim" fill="#404040">
                                <set attributeName="fill" to="#808080" begin="zoomminus.mouseover" end="zoomminus.mouseout"/>
                        </use>
                        <path d="M-4,0h8" fill="none" stroke="white" stroke-width="1.5" pointer-events="none"/>
                </g>
                <g id="dirArrow">
                        <path fill="none" stroke="white" stroke-width="1.5" d="M0,-3.0v7 M-2.5,-0.5L0,-3.0L2.5,-0.5"/>
                </g>
               <g id="resetDef">
                       <use xlink:href="#rim2" fill="#404040">
                               <set attributeName="fill" to="#808080" begin="reset.mouseover" end="reset.mouseout"/>
                       </use>
               </g>
        </defs>

<script type="text/javascript">
var viewWidth = 1602;
var viewHeight = 710;
var sectionId = 'dynsection-0';
</script>
<script xlink:href="svgpan.js"/>
<svg id="graph" class="graph">
<g id="viewport">
<title>st_lwObject</title>
<polygon fill="white" stroke="white" points="-4,4 -4,-706 1598,-706 1598,4 -4,4"/>
<!-- Node1 -->
<g id="node1" class="node"><title>Node1</title>
<polygon fill="#bfbfbf" stroke="black" points="1526,-261.5 1526,-280.5 1594,-280.5 1594,-261.5 1526,-261.5"/>
<text text-anchor="middle" x="1560" y="-268.5" font-family="Arial" font-size="10.00">st_lwObject</text>
</g>
<!-- Node2 -->
<g id="node2" class="node"><title>Node2</title>
<g id="a_node2"><a xlink:href="structst__lw_surface.html" target="_top" xlink:title="st_lwSurface">
<polygon fill="white" stroke="black" points="861,-407.5 861,-426.5 933,-426.5 933,-407.5 861,-407.5"/>
<text text-anchor="middle" x="897" y="-414.5" font-family="Arial" font-size="10.00">st_lwSurface</text>
</a>
</g>
</g>
<!-- Node2&#45;&gt;Node1 -->
<g id="edge1" class="edge"><title>Node2&#45;&gt;Node1</title>
<path fill="none" stroke="#9a32cd" stroke-dasharray="5,2" d="M942.317,-405C977.053,-396.647 1026.75,-387 1071,-387 1071,-387 1071,-387 1425,-387 1489.62,-387 1538.39,-308.942 1553.83,-280.89"/>
<polygon fill="#9a32cd" stroke="#9a32cd" points="941.358,-401.632 932.488,-407.425 943.035,-408.428 941.358,-401.632"/>
<text text-anchor="middle" x="1269" y="-390" font-family="Arial" font-size="10.00"> surf</text>
</g>
<!-- Node2&#45;&gt;Node2 -->
<g id="edge15" class="edge"><title>Node2&#45;&gt;Node2</title>
<path fill="none" stroke="#9a32cd" stroke-dasharray="5,2" d="M881.075,-436.4C882.138,-441.315 887.447,-445 897,-445 912.285,-445 916.704,-435.565 910.255,-426.757"/>
<polygon fill="#9a32cd" stroke="#9a32cd" points="884.449,-437.328 883.745,-426.757 877.703,-435.46 884.449,-437.328"/>
<text text-anchor="middle" x="897" y="-459" font-family="Arial" font-size="10.00"> prev</text>
<text text-anchor="middle" x="897" y="-448" font-family="Arial" font-size="10.00">next</text>
</g>
<!-- Node22 -->
<g id="node22" class="node"><title>Node22</title>
<g id="a_node22"><a xlink:href="structst__lw_polygon.html" target="_top" xlink:title="st_lwPolygon">
<polygon fill="white" stroke="black" points="1035,-573.5 1035,-592.5 1109,-592.5 1109,-573.5 1035,-573.5"/>
<text text-anchor="middle" x="1072" y="-580.5" font-family="Arial" font-size="10.00">st_lwPolygon</text>
</a>
</g>
</g>
<!-- Node2&#45;&gt;Node22 -->
<g id="edge36" class="edge"><title>Node2&#45;&gt;Node22</title>
<path fill="none" stroke="#9a32cd" stroke-dasharray="5,2" d="M915.363,-433.66C951.217,-468.063 1032.46,-546.022 1060.92,-573.331"/>
<polygon fill="#9a32cd" stroke="#9a32cd" points="917.688,-431.041 908.049,-426.642 912.841,-436.091 917.688,-431.041"/>
<text text-anchor="middle" x="985" y="-532" font-family="Arial" font-size="10.00"> surf</text>
</g>
<!-- Node3 -->
<g id="node3" class="node"><title>Node3</title>
<g id="a_node3"><a xlink:href="structst__lw_r_map.html" target="_top" xlink:title="st_lwRMap">
<polygon fill="white" stroke="black" points="689.5,-469.5 689.5,-488.5 754.5,-488.5 754.5,-469.5 689.5,-469.5"/>
<text text-anchor="middle" x="722" y="-476.5" font-family="Arial" font-size="10.00">st_lwRMap</text>
</a>
</g>
</g>
<!-- Node3&#45;&gt;Node2 -->
<g id="edge2" class="edge"><title>Node3&#45;&gt;Node2</title>
<path fill="none" stroke="#9a32cd" stroke-dasharray="5,2" d="M764.816,-473.939C787.658,-470.227 816.081,-464.033 840,-454 856.548,-447.058 873.452,-435.079 884.295,-426.635"/>
<polygon fill="#9a32cd" stroke="#9a32cd" points="764.108,-470.507 754.75,-475.475 765.164,-477.427 764.108,-470.507"/>
<text text-anchor="middle" x="810" y="-485" font-family="Arial" font-size="10.00"> transparency</text>
<text text-anchor="middle" x="810" y="-474" font-family="Arial" font-size="10.00">reflection</text>
</g>
<!-- Node4 -->
<g id="node4" class="node"><title>Node4</title>
<g id="a_node4"><a xlink:href="structst__lw_t_param.html" target="_top" xlink:title="st_lwTParam">
<polygon fill="white" stroke="black" points="498.5,-505.5 498.5,-524.5 571.5,-524.5 571.5,-505.5 498.5,-505.5"/>
<text text-anchor="middle" x="535" y="-512.5" font-family="Arial" font-size="10.00">st_lwTParam</text>
</a>
</g>
</g>
<!-- Node4&#45;&gt;Node2 -->
<g id="edge23" class="edge"><title>Node4&#45;&gt;Node2</title>
<path fill="none" stroke="#9a32cd" stroke-dasharray="5,2" d="M581.63,-524.169C644.366,-534.275 758.713,-543.512 840,-497 868.106,-480.918 885.445,-444.301 892.438,-426.743"/>
<polygon fill="#9a32cd" stroke="#9a32cd" points="582.09,-520.698 571.647,-522.483 580.924,-527.6 582.09,-520.698"/>
<text text-anchor="middle" x="722" y="-601" font-family="Arial" font-size="10.00"> bump</text>
<text text-anchor="middle" x="722" y="-590" font-family="Arial" font-size="10.00">glossiness</text>
<text text-anchor="middle" x="722" y="-579" font-family="Arial" font-size="10.00">luminosity</text>
<text text-anchor="middle" x="722" y="-568" font-family="Arial" font-size="10.00">translucency</text>
<text text-anchor="middle" x="722" y="-557" font-family="Arial" font-size="10.00">specularity</text>
<text text-anchor="middle" x="722" y="-546" font-family="Arial" font-size="10.00">diffuse</text>
<text text-anchor="middle" x="722" y="-535" font-family="Arial" font-size="10.00">eta</text>
</g>
<!-- Node4&#45;&gt;Node3 -->
<g id="edge3" class="edge"><title>Node4&#45;&gt;Node3</title>
<path fill="none" stroke="#9a32cd" stroke-dasharray="5,2" d="M578.037,-502.833C582.065,-501.815 586.101,-500.851 590,-500 623.643,-492.655 662.668,-486.727 689.315,-483.066"/>
<polygon fill="#9a32cd" stroke="#9a32cd" points="576.899,-499.513 568.119,-505.442 578.681,-506.282 576.899,-499.513"/>
<text text-anchor="middle" x="627" y="-503" font-family="Arial" font-size="10.00"> val</text>
</g>
<!-- Node5 -->
<g id="node5" class="node"><title>Node5</title>
<g id="a_node5"><a xlink:href="structst__lw_texture.html" target="_top" xlink:title="st_lwTexture">
<polygon fill="white" stroke="black" points="340.5,-505.5 340.5,-524.5 411.5,-524.5 411.5,-505.5 340.5,-505.5"/>
<text text-anchor="middle" x="376" y="-512.5" font-family="Arial" font-size="10.00">st_lwTexture</text>
</a>
</g>
</g>
<!-- Node5&#45;&gt;Node4 -->
<g id="edge4" class="edge"><title>Node5&#45;&gt;Node4</title>
<path fill="none" stroke="#9a32cd" stroke-dasharray="5,2" d="M421.893,-515C446.182,-515 475.763,-515 498.439,-515"/>
<polygon fill="#9a32cd" stroke="#9a32cd" points="421.843,-511.5 411.843,-515 421.843,-518.5 421.843,-511.5"/>
<text text-anchor="middle" x="455" y="-518" font-family="Arial" font-size="10.00"> tex</text>
</g>
<!-- Node5&#45;&gt;Node5 -->
<g id="edge11" class="edge"><title>Node5&#45;&gt;Node5</title>
<path fill="none" stroke="#9a32cd" stroke-dasharray="5,2" d="M361.636,-534.766C362.764,-539.497 367.552,-543 376,-543 389.863,-543 393.871,-533.565 388.022,-524.757"/>
<polygon fill="#9a32cd" stroke="#9a32cd" points="365.107,-535.292 363.978,-524.757 358.292,-533.697 365.107,-535.292"/>
<text text-anchor="middle" x="376" y="-557" font-family="Arial" font-size="10.00"> prev</text>
<text text-anchor="middle" x="376" y="-546" font-family="Arial" font-size="10.00">next</text>
</g>
<!-- Node14 -->
<g id="node14" class="node"><title>Node14</title>
<g id="a_node14"><a xlink:href="structst__lw_c_param.html" target="_top" xlink:title="st_lwCParam">
<polygon fill="white" stroke="black" points="590,-438.5 590,-457.5 664,-457.5 664,-438.5 590,-438.5"/>
<text text-anchor="middle" x="627" y="-445.5" font-family="Arial" font-size="10.00">st_lwCParam</text>
</a>
</g>
</g>
<!-- Node5&#45;&gt;Node14 -->
<g id="edge19" class="edge"><title>Node5&#45;&gt;Node14</title>
<path fill="none" stroke="#9a32cd" stroke-dasharray="5,2" d="M420.226,-502.703C423.531,-501.782 426.818,-500.872 430,-500 485.682,-484.735 550.46,-467.688 589.828,-457.406"/>
<polygon fill="#9a32cd" stroke="#9a32cd" points="419.022,-499.405 410.338,-505.474 420.912,-506.145 419.022,-499.405"/>
<text text-anchor="middle" x="455" y="-503" font-family="Arial" font-size="10.00"> tex</text>
</g>
<!-- Node6 -->
<g id="node6" class="node"><title>Node6</title>
<g id="a_node6"><a xlink:href="structst__lw_procedural.html" target="_top" xlink:title="st_lwProcedural">
<polygon fill="white" stroke="black" points="160,-583.5 160,-602.5 246,-602.5 246,-583.5 160,-583.5"/>
<text text-anchor="middle" x="203" y="-590.5" font-family="Arial" font-size="10.00">st_lwProcedural</text>
</a>
</g>
</g>
<!-- Node6&#45;&gt;Node5 -->
<g id="edge5" class="edge"><title>Node6&#45;&gt;Node5</title>
<path fill="none" stroke="#9a32cd" stroke-dasharray="5,2" d="M256.044,-582.272C277.239,-576.719 301.519,-568.793 322,-558 338.982,-549.051 355.695,-534.209 365.679,-524.516"/>
<polygon fill="#9a32cd" stroke="#9a32cd" points="255.08,-578.905 246.233,-584.734 256.784,-585.694 255.08,-578.905"/>
<text text-anchor="middle" x="293" y="-582" font-family="Arial" font-size="10.00"> proc</text>
</g>
<!-- Node7 -->
<g id="node7" class="node"><title>Node7</title>
<g id="a_node7"><a xlink:href="structst__lw_image_map.html" target="_top" xlink:title="st_lwImageMap">
<polygon fill="white" stroke="black" points="161,-469.5 161,-488.5 245,-488.5 245,-469.5 161,-469.5"/>
<text text-anchor="middle" x="203" y="-476.5" font-family="Arial" font-size="10.00">st_lwImageMap</text>
</a>
</g>
</g>
<!-- Node7&#45;&gt;Node5 -->
<g id="edge6" class="edge"><title>Node7&#45;&gt;Node5</title>
<path fill="none" stroke="#9a32cd" stroke-dasharray="5,2" d="M255.092,-486.95C275.937,-490.489 300.216,-494.992 322,-500 328.897,-501.585 336.235,-503.508 343.183,-505.439"/>
<polygon fill="#9a32cd" stroke="#9a32cd" points="255.601,-483.486 245.161,-485.291 254.448,-490.391 255.601,-483.486"/>
<text text-anchor="middle" x="293" y="-503" font-family="Arial" font-size="10.00"> imap</text>
</g>
<!-- Node8 -->
<g id="node8" class="node"><title>Node8</title>
<g id="a_node8"><a xlink:href="structst__lw_e_param.html" target="_top" xlink:title="st_lwEParam">
<polygon fill="white" stroke="black" points="2,-384.5 2,-403.5 76,-403.5 76,-384.5 2,-384.5"/>
<text text-anchor="middle" x="39" y="-391.5" font-family="Arial" font-size="10.00">st_lwEParam</text>
</a>
</g>
</g>
<!-- Node8&#45;&gt;Node2 -->
<g id="edge22" class="edge"><title>Node8&#45;&gt;Node2</title>
<path fill="none" stroke="#9a32cd" stroke-dasharray="5,2" d="M86.1142,-394C118.531,-394 162.917,-394 202,-394 202,-394 202,-394 723,-394 771.024,-394 825.898,-402.817 860.73,-409.533"/>
<polygon fill="#9a32cd" stroke="#9a32cd" points="86.0319,-390.5 76.0318,-394 86.0318,-397.5 86.0319,-390.5"/>
<text text-anchor="middle" x="455" y="-441" font-family="Arial" font-size="10.00"> color_filter</text>
<text text-anchor="middle" x="455" y="-430" font-family="Arial" font-size="10.00">dif_sharp</text>
<text text-anchor="middle" x="455" y="-419" font-family="Arial" font-size="10.00">add_trans</text>
<text text-anchor="middle" x="455" y="-408" font-family="Arial" font-size="10.00">glow</text>
<text text-anchor="middle" x="455" y="-397" font-family="Arial" font-size="10.00">color_hilite</text>
</g>
<!-- Node8&#45;&gt;Node5 -->
<g id="edge10" class="edge"><title>Node8&#45;&gt;Node5</title>
<path fill="none" stroke="#9a32cd" stroke-dasharray="5,2" d="M86.069,-405.855C142.049,-420.331 230.931,-443.564 246,-449 280.981,-461.62 289.022,-466.814 322,-484 334.856,-490.7 349.011,-499.03 359.456,-505.368"/>
<polygon fill="#9a32cd" stroke="#9a32cd" points="86.922,-402.461 76.3645,-403.349 85.1712,-409.239 86.922,-402.461"/>
<text text-anchor="middle" x="203" y="-452" font-family="Arial" font-size="10.00"> opacity</text>
</g>
<!-- Node8&#45;&gt;Node7 -->
<g id="edge7" class="edge"><title>Node8&#45;&gt;Node7</title>
<path fill="none" stroke="#9a32cd" stroke-dasharray="5,2" d="M53.074,-411.689C63.383,-424.418 78.8463,-441.036 96,-451 115.75,-462.473 140.276,-469.342 160.76,-473.403"/>
<polygon fill="#9a32cd" stroke="#9a32cd" points="55.7056,-409.371 46.8031,-403.627 50.1804,-413.669 55.7056,-409.371"/>
<text text-anchor="middle" x="119" y="-504" font-family="Arial" font-size="10.00"> amplitude</text>
<text text-anchor="middle" x="119" y="-493" font-family="Arial" font-size="10.00">wrapw</text>
<text text-anchor="middle" x="119" y="-482" font-family="Arial" font-size="10.00">stck</text>
<text text-anchor="middle" x="119" y="-471" font-family="Arial" font-size="10.00">wraph</text>
</g>
<!-- Node13 -->
<g id="node13" class="node"><title>Node13</title>
<g id="a_node13"><a xlink:href="structst__lw_line.html" target="_top" xlink:title="st_lwLine">
<polygon fill="white" stroke="black" points="264.5,-345.5 264.5,-364.5 321.5,-364.5 321.5,-345.5 264.5,-345.5"/>
<text text-anchor="middle" x="293" y="-352.5" font-family="Arial" font-size="10.00">st_lwLine</text>
</a>
</g>
</g>
<!-- Node8&#45;&gt;Node13 -->
<g id="edge17" class="edge"><title>Node8&#45;&gt;Node13</title>
<path fill="none" stroke="#9a32cd" stroke-dasharray="5,2" d="M66.1064,-380.081C75.3071,-375.792 85.8822,-371.536 96,-369 154.571,-354.319 225.845,-353.246 264.258,-353.983"/>
<polygon fill="#9a32cd" stroke="#9a32cd" points="64.5371,-376.952 57.0927,-384.491 67.6134,-383.24 64.5371,-376.952"/>
<text text-anchor="middle" x="119" y="-372" font-family="Arial" font-size="10.00"> size</text>
</g>
<!-- Node27 -->
<g id="node27" class="node"><title>Node27</title>
<g id="a_node27"><a xlink:href="structst__lw_clip.html" target="_top" xlink:title="st_lwClip">
<polygon fill="white" stroke="black" points="869,-131.5 869,-150.5 925,-150.5 925,-131.5 869,-131.5"/>
<text text-anchor="middle" x="897" y="-138.5" font-family="Arial" font-size="10.00">st_lwClip</text>
</a>
</g>
</g>
<!-- Node8&#45;&gt;Node27 -->
<g id="edge50" class="edge"><title>Node8&#45;&gt;Node27</title>
<path fill="none" stroke="#9a32cd" stroke-dasharray="5,2" d="M40.0749,-374.2C41.4843,-300.738 56.8785,-48 202,-48 202,-48 202,-48 723,-48 778.1,-48 792.817,-60.5426 840,-89 859.314,-100.649 877.671,-119.757 887.826,-131.281"/>
<polygon fill="#9a32cd" stroke="#9a32cd" points="36.573,-374.343 39.9511,-384.385 43.5725,-374.428 36.573,-374.343"/>
<text text-anchor="middle" x="455" y="-95" font-family="Arial" font-size="10.00"> brightness</text>
<text text-anchor="middle" x="455" y="-84" font-family="Arial" font-size="10.00">gamma</text>
<text text-anchor="middle" x="455" y="-73" font-family="Arial" font-size="10.00">hue</text>
<text text-anchor="middle" x="455" y="-62" font-family="Arial" font-size="10.00">contrast</text>
<text text-anchor="middle" x="455" y="-51" font-family="Arial" font-size="10.00">saturation</text>
</g>
<!-- Node9 -->
<g id="node9" class="node"><title>Node9</title>
<g id="a_node9"><a xlink:href="structst__lw_t_map.html" target="_top" xlink:title="st_lwTMap">
<polygon fill="white" stroke="black" points="171.5,-545.5 171.5,-564.5 234.5,-564.5 234.5,-545.5 171.5,-545.5"/>
<text text-anchor="middle" x="203" y="-552.5" font-family="Arial" font-size="10.00">st_lwTMap</text>
</a>
</g>
</g>
<!-- Node9&#45;&gt;Node5 -->
<g id="edge8" class="edge"><title>Node9&#45;&gt;Node5</title>
<path fill="none" stroke="#9a32cd" stroke-dasharray="5,2" d="M244.763,-547.673C267.592,-543.329 296.51,-537.425 322,-531 329.549,-529.097 337.627,-526.797 345.144,-524.541"/>
<polygon fill="#9a32cd" stroke="#9a32cd" points="243.919,-544.27 234.737,-549.555 245.211,-551.15 243.919,-544.27"/>
<text text-anchor="middle" x="293" y="-546" font-family="Arial" font-size="10.00"> tmap</text>
</g>
<!-- Node10 -->
<g id="node10" class="node"><title>Node10</title>
<g id="a_node10"><a xlink:href="structst__lw_v_param.html" target="_top" xlink:title="st_lwVParam">
<polygon fill="white" stroke="black" points="2,-586.5 2,-605.5 76,-605.5 76,-586.5 2,-586.5"/>
<text text-anchor="middle" x="39" y="-593.5" font-family="Arial" font-size="10.00">st_lwVParam</text>
</a>
</g>
</g>
<!-- Node10&#45;&gt;Node9 -->
<g id="edge9" class="edge"><title>Node10&#45;&gt;Node9</title>
<path fill="none" stroke="#9a32cd" stroke-dasharray="5,2" d="M86.1113,-584.33C113.48,-577.403 147.417,-568.814 171.476,-562.725"/>
<polygon fill="#9a32cd" stroke="#9a32cd" points="85.1916,-580.952 76.356,-586.799 86.9091,-587.738 85.1916,-580.952"/>
<text text-anchor="middle" x="119" y="-617" font-family="Arial" font-size="10.00"> size</text>
<text text-anchor="middle" x="119" y="-606" font-family="Arial" font-size="10.00">center</text>
<text text-anchor="middle" x="119" y="-595" font-family="Arial" font-size="10.00">falloff</text>
<text text-anchor="middle" x="119" y="-584" font-family="Arial" font-size="10.00">rotate</text>
</g>
<!-- Node11 -->
<g id="node11" class="node"><title>Node11</title>
<g id="a_node11"><a xlink:href="structst__lw_gradient.html" target="_top" xlink:title="st_lwGradient">
<polygon fill="white" stroke="black" points="165,-507.5 165,-526.5 241,-526.5 241,-507.5 165,-507.5"/>
<text text-anchor="middle" x="203" y="-514.5" font-family="Arial" font-size="10.00">st_lwGradient</text>
</a>
</g>
</g>
<!-- Node11&#45;&gt;Node5 -->
<g id="edge12" class="edge"><title>Node11&#45;&gt;Node5</title>
<path fill="none" stroke="#9a32cd" stroke-dasharray="5,2" d="M251.153,-516.448C279.376,-516.118 314.63,-515.706 340.299,-515.406"/>
<polygon fill="#9a32cd" stroke="#9a32cd" points="251.063,-512.949 241.104,-516.566 251.145,-519.949 251.063,-512.949"/>
<text text-anchor="middle" x="293" y="-519" font-family="Arial" font-size="10.00"> grad</text>
</g>
<!-- Node12 -->
<g id="node12" class="node"><title>Node12</title>
<g id="a_node12"><a xlink:href="structst__lw_grad_key.html" target="_top" xlink:title="st_lwGradKey">
<polygon fill="white" stroke="black" points="0.5,-508.5 0.5,-527.5 77.5,-527.5 77.5,-508.5 0.5,-508.5"/>
<text text-anchor="middle" x="39" y="-515.5" font-family="Arial" font-size="10.00">st_lwGradKey</text>
</a>
</g>
</g>
<!-- Node12&#45;&gt;Node11 -->
<g id="edge13" class="edge"><title>Node12&#45;&gt;Node11</title>
<path fill="none" stroke="#9a32cd" stroke-dasharray="5,2" d="M88.062,-518.165C105.098,-518.179 124.403,-518.147 142,-518 149.397,-517.938 157.306,-517.834 164.874,-517.715"/>
<polygon fill="#9a32cd" stroke="#9a32cd" points="87.7888,-514.664 77.7837,-518.15 87.7786,-521.664 87.7888,-514.664"/>
<text text-anchor="middle" x="119" y="-521" font-family="Arial" font-size="10.00"> key</text>
</g>
<!-- Node12&#45;&gt;Node12 -->
<g id="edge14" class="edge"><title>Node12&#45;&gt;Node12</title>
<path fill="none" stroke="#9a32cd" stroke-dasharray="5,2" d="M24.2675,-537.766C25.4246,-542.497 30.3354,-546 39,-546 53.2188,-546 57.3289,-536.565 51.3303,-527.757"/>
<polygon fill="#9a32cd" stroke="#9a32cd" points="27.7393,-538.298 26.6697,-527.757 20.9326,-536.664 27.7393,-538.298"/>
<text text-anchor="middle" x="39" y="-560" font-family="Arial" font-size="10.00"> prev</text>
<text text-anchor="middle" x="39" y="-549" font-family="Arial" font-size="10.00">next</text>
</g>
<!-- Node13&#45;&gt;Node2 -->
<g id="edge16" class="edge"><title>Node13&#45;&gt;Node2</title>
<path fill="none" stroke="#9a32cd" stroke-dasharray="5,2" d="M331.655,-350.021C422.037,-339.486 657.305,-320.507 840,-380 857.506,-385.701 874.735,-398.459 885.36,-407.391"/>
<polygon fill="#9a32cd" stroke="#9a32cd" points="331.124,-346.559 321.613,-351.227 331.959,-353.509 331.124,-346.559"/>
<text text-anchor="middle" x="535" y="-342" font-family="Arial" font-size="10.00"> line</text>
</g>
<!-- Node14&#45;&gt;Node2 -->
<g id="edge18" class="edge"><title>Node14&#45;&gt;Node2</title>
<path fill="none" stroke="#9a32cd" stroke-dasharray="5,2" d="M674.292,-442.645C727.317,-436.512 813.02,-426.598 860.854,-421.065"/>
<polygon fill="#9a32cd" stroke="#9a32cd" points="673.675,-439.193 664.144,-443.819 674.48,-446.147 673.675,-439.193"/>
<text text-anchor="middle" x="722" y="-444" font-family="Arial" font-size="10.00"> color</text>
</g>
<!-- Node15 -->
<g id="node15" class="node"><title>Node15</title>
<g id="a_node15"><a xlink:href="structst__lw_plugin.html" target="_top" xlink:title="st_lwPlugin">
<polygon fill="white" stroke="black" points="689,-190.5 689,-209.5 755,-209.5 755,-190.5 689,-190.5"/>
<text text-anchor="middle" x="722" y="-197.5" font-family="Arial" font-size="10.00">st_lwPlugin</text>
</a>
</g>
</g>
<!-- Node15&#45;&gt;Node2 -->
<g id="edge20" class="edge"><title>Node15&#45;&gt;Node2</title>
<path fill="none" stroke="#9a32cd" stroke-dasharray="5,2" d="M739.208,-216.853C749.975,-227.269 764.868,-240.268 780,-249 804.471,-263.121 820.479,-249.576 840,-270 859.236,-290.126 848.411,-303.863 858,-330 868.559,-358.781 883.834,-391.666 891.399,-407.499"/>
<polygon fill="#9a32cd" stroke="#9a32cd" points="741.395,-214.091 731.844,-209.505 736.451,-219.046 741.395,-214.091"/>
<text text-anchor="middle" x="810" y="-273" font-family="Arial" font-size="10.00"> shader</text>
</g>
<!-- Node15&#45;&gt;Node15 -->
<g id="edge21" class="edge"><title>Node15&#45;&gt;Node15</title>
<path fill="none" stroke="#9a32cd" stroke-dasharray="5,2" d="M705.705,-219.4C706.793,-224.315 712.225,-228 722,-228 737.641,-228 742.162,-218.565 735.563,-209.757"/>
<polygon fill="#9a32cd" stroke="#9a32cd" points="709.078,-220.332 708.437,-209.757 702.343,-218.424 709.078,-220.332"/>
<text text-anchor="middle" x="722" y="-242" font-family="Arial" font-size="10.00"> prev</text>
<text text-anchor="middle" x="722" y="-231" font-family="Arial" font-size="10.00">next</text>
</g>
<!-- Node24 -->
<g id="node24" class="node"><title>Node24</title>
<g id="a_node24"><a xlink:href="structst__lw_envelope.html" target="_top" xlink:title="st_lwEnvelope">
<polygon fill="white" stroke="black" points="858,-261.5 858,-280.5 936,-280.5 936,-261.5 858,-261.5"/>
<text text-anchor="middle" x="897" y="-268.5" font-family="Arial" font-size="10.00">st_lwEnvelope</text>
</a>
</g>
</g>
<!-- Node15&#45;&gt;Node24 -->
<g id="edge41" class="edge"><title>Node15&#45;&gt;Node24</title>
<path fill="none" stroke="#9a32cd" stroke-dasharray="5,2" d="M764.911,-211.193C787.59,-217.847 815.829,-227.111 840,-238 854.816,-244.675 870.683,-254.282 881.73,-261.41"/>
<polygon fill="#9a32cd" stroke="#9a32cd" points="765.817,-207.812 755.239,-208.414 763.883,-214.54 765.817,-207.812"/>
<text text-anchor="middle" x="810" y="-241" font-family="Arial" font-size="10.00"> cfilter</text>
</g>
<!-- Node15&#45;&gt;Node27 -->
<g id="edge49" class="edge"><title>Node15&#45;&gt;Node27</title>
<path fill="none" stroke="#9a32cd" stroke-dasharray="5,2" d="M765.097,-191.636C787.689,-186.545 815.789,-179.236 840,-170 853.912,-164.693 868.847,-156.84 879.792,-150.644"/>
<polygon fill="#9a32cd" stroke="#9a32cd" points="764.157,-188.259 755.138,-193.818 765.655,-195.097 764.157,-188.259"/>
<text text-anchor="middle" x="810" y="-202" font-family="Arial" font-size="10.00"> ifilter</text>
<text text-anchor="middle" x="810" y="-191" font-family="Arial" font-size="10.00">pfilter</text>
</g>
<!-- Node16 -->
<g id="node16" class="node"><title>Node16</title>
<g id="a_node16"><a xlink:href="structst__lw_layer.html" target="_top" xlink:title="st_lwLayer">
<polygon fill="white" stroke="black" points="1392.5,-601.5 1392.5,-620.5 1455.5,-620.5 1455.5,-601.5 1392.5,-601.5"/>
<text text-anchor="middle" x="1424" y="-608.5" font-family="Arial" font-size="10.00">st_lwLayer</text>
</a>
</g>
</g>
<!-- Node16&#45;&gt;Node1 -->
<g id="edge24" class="edge"><title>Node16&#45;&gt;Node1</title>
<path fill="none" stroke="#9a32cd" stroke-dasharray="5,2" d="M1432.58,-591.869C1447.2,-554.968 1480.29,-471.383 1508,-401 1525.68,-356.109 1546.69,-302.455 1555.17,-280.788"/>
<polygon fill="#9a32cd" stroke="#9a32cd" points="1429.24,-590.789 1428.81,-601.375 1435.75,-593.367 1429.24,-590.789"/>
<text text-anchor="middle" x="1493" y="-479" font-family="Arial" font-size="10.00"> layer</text>
</g>
<!-- Node16&#45;&gt;Node16 -->
<g id="edge31" class="edge"><title>Node16&#45;&gt;Node16</title>
<path fill="none" stroke="#9a32cd" stroke-dasharray="5,2" d="M1411.48,-630.766C1412.46,-635.497 1416.64,-639 1424,-639 1436.09,-639 1439.58,-629.565 1434.48,-620.757"/>
<polygon fill="#9a32cd" stroke="#9a32cd" points="1414.95,-631.255 1413.52,-620.757 1408.09,-629.856 1414.95,-631.255"/>
<text text-anchor="middle" x="1424" y="-653" font-family="Arial" font-size="10.00"> prev</text>
<text text-anchor="middle" x="1424" y="-642" font-family="Arial" font-size="10.00">next</text>
</g>
<!-- Node17 -->
<g id="node17" class="node"><title>Node17</title>
<g id="a_node17"><a xlink:href="structst__lw_point_list.html" target="_top" xlink:title="st_lwPointList">
<polygon fill="white" stroke="black" points="1128.5,-619.5 1128.5,-638.5 1205.5,-638.5 1205.5,-619.5 1128.5,-619.5"/>
<text text-anchor="middle" x="1167" y="-626.5" font-family="Arial" font-size="10.00">st_lwPointList</text>
</a>
</g>
</g>
<!-- Node17&#45;&gt;Node16 -->
<g id="edge25" class="edge"><title>Node17&#45;&gt;Node16</title>
<path fill="none" stroke="#9a32cd" stroke-dasharray="5,2" d="M1215.83,-625.768C1256.77,-622.982 1317.26,-618.817 1370,-615 1377.27,-614.474 1385.1,-613.891 1392.45,-613.338"/>
<polygon fill="#9a32cd" stroke="#9a32cd" points="1215.35,-622.293 1205.61,-626.463 1215.82,-629.277 1215.35,-622.293"/>
<text text-anchor="middle" x="1269" y="-628" font-family="Arial" font-size="10.00"> point</text>
</g>
<!-- Node18 -->
<g id="node18" class="node"><title>Node18</title>
<g id="a_node18"><a xlink:href="structst__lw_point.html" target="_top" xlink:title="st_lwPoint">
<polygon fill="white" stroke="black" points="954,-619.5 954,-638.5 1016,-638.5 1016,-619.5 954,-619.5"/>
<text text-anchor="middle" x="985" y="-626.5" font-family="Arial" font-size="10.00">st_lwPoint</text>
</a>
</g>
</g>
<!-- Node18&#45;&gt;Node17 -->
<g id="edge26" class="edge"><title>Node18&#45;&gt;Node17</title>
<path fill="none" stroke="#9a32cd" stroke-dasharray="5,2" d="M1026.42,-629C1056.91,-629 1098.44,-629 1128.26,-629"/>
<polygon fill="#9a32cd" stroke="#9a32cd" points="1026.13,-625.5 1016.13,-629 1026.13,-632.5 1026.13,-625.5"/>
<text text-anchor="middle" x="1072" y="-632" font-family="Arial" font-size="10.00"> pt</text>
</g>
<!-- Node19 -->
<g id="node19" class="node"><title>Node19</title>
<g id="a_node19"><a xlink:href="structst__lw_v_map_pt.html" target="_top" xlink:title="st_lwVMapPt">
<polygon fill="white" stroke="black" points="685,-620.5 685,-639.5 759,-639.5 759,-620.5 685,-620.5"/>
<text text-anchor="middle" x="722" y="-627.5" font-family="Arial" font-size="10.00">st_lwVMapPt</text>
</a>
</g>
</g>
<!-- Node19&#45;&gt;Node18 -->
<g id="edge27" class="edge"><title>Node19&#45;&gt;Node18</title>
<path fill="none" stroke="#9a32cd" stroke-dasharray="5,2" d="M769.197,-629.823C822.385,-629.619 908.236,-629.29 953.622,-629.116"/>
<polygon fill="#9a32cd" stroke="#9a32cd" points="769.003,-626.324 759.017,-629.862 769.03,-633.324 769.003,-626.324"/>
<text text-anchor="middle" x="810" y="-632" font-family="Arial" font-size="10.00"> vm</text>
</g>
<!-- Node23 -->
<g id="node23" class="node"><title>Node23</title>
<g id="a_node23"><a xlink:href="structst__lw_pol_vert.html" target="_top" xlink:title="st_lwPolVert">
<polygon fill="white" stroke="black" points="861.5,-579.5 861.5,-598.5 932.5,-598.5 932.5,-579.5 861.5,-579.5"/>
<text text-anchor="middle" x="897" y="-586.5" font-family="Arial" font-size="10.00">st_lwPolVert</text>
</a>
</g>
</g>
<!-- Node19&#45;&gt;Node23 -->
<g id="edge35" class="edge"><title>Node19&#45;&gt;Node23</title>
<path fill="none" stroke="#9a32cd" stroke-dasharray="5,2" d="M747.392,-615.097C762.007,-606.227 778.119,-596.58 780,-596 806.51,-587.827 838.007,-586.414 861.486,-586.857"/>
<polygon fill="#9a32cd" stroke="#9a32cd" points="745.349,-612.243 738.626,-620.431 748.988,-618.223 745.349,-612.243"/>
<text text-anchor="middle" x="810" y="-599" font-family="Arial" font-size="10.00"> vm</text>
</g>
<!-- Node20 -->
<g id="node20" class="node"><title>Node20</title>
<g id="a_node20"><a xlink:href="structst__lw_v_map.html" target="_top" xlink:title="st_lwVMap">
<polygon fill="white" stroke="black" points="502.5,-642.5 502.5,-661.5 567.5,-661.5 567.5,-642.5 502.5,-642.5"/>
<text text-anchor="middle" x="535" y="-649.5" font-family="Arial" font-size="10.00">st_lwVMap</text>
</a>
</g>
</g>
<!-- Node20&#45;&gt;Node16 -->
<g id="edge30" class="edge"><title>Node20&#45;&gt;Node16</title>
<path fill="none" stroke="#9a32cd" stroke-dasharray="5,2" d="M577.714,-657.677C615.151,-662.277 671.642,-668 721,-668 721,-668 721,-668 1270,-668 1323.57,-668 1381.44,-636.932 1408.05,-620.669"/>
<polygon fill="#9a32cd" stroke="#9a32cd" points="578.04,-654.19 567.682,-656.414 577.166,-661.135 578.04,-654.19"/>
<text text-anchor="middle" x="985" y="-671" font-family="Arial" font-size="10.00"> vmap</text>
</g>
<!-- Node20&#45;&gt;Node19 -->
<g id="edge28" class="edge"><title>Node20&#45;&gt;Node19</title>
<path fill="none" stroke="#9a32cd" stroke-dasharray="5,2" d="M577.789,-644.754C581.909,-644.124 586.033,-643.527 590,-643 621.945,-638.758 658.441,-635.245 684.783,-632.945"/>
<polygon fill="#9a32cd" stroke="#9a32cd" points="576.969,-641.34 567.642,-646.366 578.068,-648.253 576.969,-641.34"/>
<text text-anchor="middle" x="627" y="-646" font-family="Arial" font-size="10.00"> vmap</text>
</g>
<!-- Node20&#45;&gt;Node20 -->
<g id="edge29" class="edge"><title>Node20&#45;&gt;Node20</title>
<path fill="none" stroke="#9a32cd" stroke-dasharray="5,2" d="M520.268,-671.766C521.425,-676.497 526.335,-680 535,-680 549.219,-680 553.329,-670.565 547.33,-661.757"/>
<polygon fill="#9a32cd" stroke="#9a32cd" points="523.739,-672.298 522.67,-661.757 516.933,-670.664 523.739,-672.298"/>
<text text-anchor="middle" x="535" y="-694" font-family="Arial" font-size="10.00"> prev</text>
<text text-anchor="middle" x="535" y="-683" font-family="Arial" font-size="10.00">next</text>
</g>
<!-- Node21 -->
<g id="node21" class="node"><title>Node21</title>
<g id="a_node21"><a xlink:href="structst__lw_polygon_list.html" target="_top" xlink:title="st_lwPolygonList">
<polygon fill="white" stroke="black" points="1224,-573.5 1224,-592.5 1314,-592.5 1314,-573.5 1224,-573.5"/>
<text text-anchor="middle" x="1269" y="-580.5" font-family="Arial" font-size="10.00">st_lwPolygonList</text>
</a>
</g>
</g>
<!-- Node21&#45;&gt;Node16 -->
<g id="edge32" class="edge"><title>Node21&#45;&gt;Node16</title>
<path fill="none" stroke="#9a32cd" stroke-dasharray="5,2" d="M1324.2,-592.919C1347.1,-597.11 1372.92,-601.835 1392.42,-605.404"/>
<polygon fill="#9a32cd" stroke="#9a32cd" points="1324.72,-589.456 1314.25,-591.099 1323.46,-596.342 1324.72,-589.456"/>
<text text-anchor="middle" x="1351" y="-604" font-family="Arial" font-size="10.00"> polygon</text>
</g>
<!-- Node22&#45;&gt;Node21 -->
<g id="edge33" class="edge"><title>Node22&#45;&gt;Node21</title>
<path fill="none" stroke="#9a32cd" stroke-dasharray="5,2" d="M1119.53,-583C1151.13,-583 1192.67,-583 1223.77,-583"/>
<polygon fill="#9a32cd" stroke="#9a32cd" points="1119.22,-579.5 1109.22,-583 1119.22,-586.5 1119.22,-579.5"/>
<text text-anchor="middle" x="1167" y="-586" font-family="Arial" font-size="10.00"> pol</text>
</g>
<!-- Node23&#45;&gt;Node22 -->
<g id="edge34" class="edge"><title>Node23&#45;&gt;Node22</title>
<path fill="none" stroke="#9a32cd" stroke-dasharray="5,2" d="M942.763,-587.448C971.446,-586.453 1008.18,-585.179 1034.98,-584.249"/>
<polygon fill="#9a32cd" stroke="#9a32cd" points="942.466,-583.956 932.593,-587.8 942.709,-590.951 942.466,-583.956"/>
<text text-anchor="middle" x="985" y="-589" font-family="Arial" font-size="10.00"> v</text>
</g>
<!-- Node24&#45;&gt;Node1 -->
<g id="edge37" class="edge"><title>Node24&#45;&gt;Node1</title>
<path fill="none" stroke="#9a32cd" stroke-dasharray="5,2" d="M946.459,-271C981.143,-271 1028.95,-271 1071,-271 1071,-271 1071,-271 1425,-271 1459.43,-271 1498.84,-271 1525.96,-271"/>
<polygon fill="#9a32cd" stroke="#9a32cd" points="946.138,-267.5 936.138,-271 946.138,-274.5 946.138,-267.5"/>
<text text-anchor="middle" x="1269" y="-274" font-family="Arial" font-size="10.00"> env</text>
</g>
<!-- Node24&#45;&gt;Node24 -->
<g id="edge40" class="edge"><title>Node24&#45;&gt;Node24</title>
<path fill="none" stroke="#9a32cd" stroke-dasharray="5,2" d="M881.075,-290.4C882.138,-295.315 887.447,-299 897,-299 912.285,-299 916.704,-289.565 910.255,-280.757"/>
<polygon fill="#9a32cd" stroke="#9a32cd" points="884.449,-291.328 883.745,-280.757 877.703,-289.46 884.449,-291.328"/>
<text text-anchor="middle" x="897" y="-313" font-family="Arial" font-size="10.00"> prev</text>
<text text-anchor="middle" x="897" y="-302" font-family="Arial" font-size="10.00">next</text>
</g>
<!-- Node25 -->
<g id="node25" class="node"><title>Node25</title>
<g id="a_node25"><a xlink:href="structst__lw_key.html" target="_top" xlink:title="st_lwKey">
<polygon fill="white" stroke="black" points="694,-268.5 694,-287.5 750,-287.5 750,-268.5 694,-268.5"/>
<text text-anchor="middle" x="722" y="-275.5" font-family="Arial" font-size="10.00">st_lwKey</text>
</a>
</g>
</g>
<!-- Node25&#45;&gt;Node24 -->
<g id="edge38" class="edge"><title>Node25&#45;&gt;Node24</title>
<path fill="none" stroke="#9a32cd" stroke-dasharray="5,2" d="M760.073,-282.382C783.126,-284.414 813.35,-285.823 840,-283 845.834,-282.382 851.953,-281.411 857.916,-280.284"/>
<polygon fill="#9a32cd" stroke="#9a32cd" points="760.313,-278.889 750.024,-281.417 759.644,-285.857 760.313,-278.889"/>
<text text-anchor="middle" x="810" y="-287" font-family="Arial" font-size="10.00"> key</text>
</g>
<!-- Node25&#45;&gt;Node25 -->
<g id="edge39" class="edge"><title>Node25&#45;&gt;Node25</title>
<path fill="none" stroke="#9a32cd" stroke-dasharray="5,2" d="M705.705,-297.4C706.793,-302.315 712.225,-306 722,-306 737.641,-306 742.162,-296.565 735.563,-287.757"/>
<polygon fill="#9a32cd" stroke="#9a32cd" points="709.078,-298.332 708.437,-287.757 702.343,-296.424 709.078,-298.332"/>
<text text-anchor="middle" x="722" y="-320" font-family="Arial" font-size="10.00"> prev</text>
<text text-anchor="middle" x="722" y="-309" font-family="Arial" font-size="10.00">next</text>
</g>
<!-- Node26 -->
<g id="node26" class="node"><title>Node26</title>
<g id="a_node26"><a xlink:href="structst__lw_tag_list.html" target="_top" xlink:title="st_lwTagList">
<polygon fill="white" stroke="black" points="1388.5,-93.5 1388.5,-112.5 1459.5,-112.5 1459.5,-93.5 1388.5,-93.5"/>
<text text-anchor="middle" x="1424" y="-100.5" font-family="Arial" font-size="10.00">st_lwTagList</text>
</a>
</g>
</g>
<!-- Node26&#45;&gt;Node1 -->
<g id="edge42" class="edge"><title>Node26&#45;&gt;Node1</title>
<path fill="none" stroke="#9a32cd" stroke-dasharray="5,2" d="M1469.74,-101.323C1483.34,-102.942 1497.46,-107.046 1508,-116 1553.13,-154.33 1558.56,-233.385 1559.04,-261.121"/>
<polygon fill="#9a32cd" stroke="#9a32cd" points="1469.74,-97.8132 1459.5,-100.53 1469.2,-104.792 1469.74,-97.8132"/>
<text text-anchor="middle" x="1493" y="-119" font-family="Arial" font-size="10.00"> taglist</text>
</g>
<!-- Node27&#45;&gt;Node1 -->
<g id="edge43" class="edge"><title>Node27&#45;&gt;Node1</title>
<path fill="none" stroke="#9a32cd" stroke-dasharray="5,2" d="M935.512,-141C970.554,-141 1024.32,-141 1071,-141 1071,-141 1071,-141 1425,-141 1494.04,-141 1540.96,-230.996 1554.77,-261.229"/>
<polygon fill="#9a32cd" stroke="#9a32cd" points="935.267,-137.5 925.267,-141 935.267,-144.5 935.267,-137.5"/>
<text text-anchor="middle" x="1269" y="-144" font-family="Arial" font-size="10.00"> clip</text>
</g>
<!-- Node27&#45;&gt;Node27 -->
<g id="edge52" class="edge"><title>Node27&#45;&gt;Node27</title>
<path fill="none" stroke="#9a32cd" stroke-dasharray="5,2" d="M881.075,-160.4C882.138,-165.315 887.447,-169 897,-169 912.285,-169 916.704,-159.565 910.255,-150.757"/>
<polygon fill="#9a32cd" stroke="#9a32cd" points="884.449,-161.328 883.745,-150.757 877.703,-159.46 884.449,-161.328"/>
<text text-anchor="middle" x="897" y="-183" font-family="Arial" font-size="10.00"> prev</text>
<text text-anchor="middle" x="897" y="-172" font-family="Arial" font-size="10.00">next</text>
</g>
<!-- Node31 -->
<g id="node31" class="node"><title>Node31</title>
<g id="a_node31"><a xlink:href="structst__lw_clip_x_ref.html" target="_top" xlink:title="st_lwClipXRef">
<polygon fill="white" stroke="black" points="1034.5,-184.5 1034.5,-203.5 1109.5,-203.5 1109.5,-184.5 1034.5,-184.5"/>
<text text-anchor="middle" x="1072" y="-191.5" font-family="Arial" font-size="10.00">st_lwClipXRef</text>
</a>
</g>
</g>
<!-- Node27&#45;&gt;Node31 -->
<g id="edge48" class="edge"><title>Node27&#45;&gt;Node31</title>
<path fill="none" stroke="#9a32cd" stroke-dasharray="5,2" d="M913.456,-157.802C923.848,-167.894 938.448,-179.922 954,-186 979.6,-196.006 1010.74,-197.683 1034.45,-197.034"/>
<polygon fill="#9a32cd" stroke="#9a32cd" points="915.885,-155.281 906.384,-150.592 910.888,-160.182 915.885,-155.281"/>
<text text-anchor="middle" x="985" y="-199" font-family="Arial" font-size="10.00"> clip</text>
</g>
<!-- Node28 -->
<g id="node28" class="node"><title>Node28</title>
<g id="a_node28"><a xlink:href="structst__lw_clip_seq.html" target="_top" xlink:title="st_lwClipSeq">
<polygon fill="white" stroke="black" points="685.5,-114.5 685.5,-133.5 758.5,-133.5 758.5,-114.5 685.5,-114.5"/>
<text text-anchor="middle" x="722" y="-121.5" font-family="Arial" font-size="10.00">st_lwClipSeq</text>
</a>
</g>
</g>
<!-- Node28&#45;&gt;Node27 -->
<g id="edge44" class="edge"><title>Node28&#45;&gt;Node27</title>
<path fill="none" stroke="#9a32cd" stroke-dasharray="5,2" d="M768.769,-121.548C790.462,-121.111 816.675,-121.632 840,-125 849.607,-126.387 859.884,-128.984 868.977,-131.688"/>
<polygon fill="#9a32cd" stroke="#9a32cd" points="768.415,-118.057 758.516,-121.832 768.608,-125.054 768.415,-118.057"/>
<text text-anchor="middle" x="810" y="-128" font-family="Arial" font-size="10.00"> seq</text>
</g>
<!-- Node29 -->
<g id="node29" class="node"><title>Node29</title>
<g id="a_node29"><a xlink:href="structst__lw_clip_still.html" target="_top" xlink:title="st_lwClipStill">
<polygon fill="white" stroke="black" points="686,-76.5 686,-95.5 758,-95.5 758,-76.5 686,-76.5"/>
<text text-anchor="middle" x="722" y="-83.5" font-family="Arial" font-size="10.00">st_lwClipStill</text>
</a>
</g>
</g>
<!-- Node29&#45;&gt;Node27 -->
<g id="edge45" class="edge"><title>Node29&#45;&gt;Node27</title>
<path fill="none" stroke="#9a32cd" stroke-dasharray="5,2" d="M768.334,-90.1965C790.464,-93.2262 817.171,-98.3648 840,-107 855.957,-113.036 872.441,-123.672 883.355,-131.444"/>
<polygon fill="#9a32cd" stroke="#9a32cd" points="768.559,-86.6971 758.198,-88.9102 767.678,-93.6414 768.559,-86.6971"/>
<text text-anchor="middle" x="810" y="-110" font-family="Arial" font-size="10.00"> still</text>
</g>
<!-- Node30 -->
<g id="node30" class="node"><title>Node30</title>
<g id="a_node30"><a xlink:href="structst__lw_clip_anim.html" target="_top" xlink:title="st_lwClipAnim">
<polygon fill="white" stroke="black" points="683,-0.5 683,-19.5 761,-19.5 761,-0.5 683,-0.5"/>
<text text-anchor="middle" x="722" y="-7.5" font-family="Arial" font-size="10.00">st_lwClipAnim</text>
</a>
</g>
</g>
<!-- Node30&#45;&gt;Node27 -->
<g id="edge46" class="edge"><title>Node30&#45;&gt;Node27</title>
<path fill="none" stroke="#9a32cd" stroke-dasharray="5,2" d="M771.257,-5.05891C793.996,-5.15241 820.371,-9.01121 840,-23 877.487,-49.7155 890.735,-108.26 894.613,-131.356"/>
<polygon fill="#9a32cd" stroke="#9a32cd" points="771.032,-1.56256 761.102,-5.25805 771.169,-8.56121 771.032,-1.56256"/>
<text text-anchor="middle" x="810" y="-26" font-family="Arial" font-size="10.00"> anim</text>
</g>
<!-- Node31&#45;&gt;Node27 -->
<g id="edge47" class="edge"><title>Node31&#45;&gt;Node27</title>
<path fill="none" stroke="#9a32cd" stroke-dasharray="5,2" d="M1034.7,-181.161C1028.48,-179.047 1022.07,-176.921 1016,-175 985.105,-165.22 949.298,-155.067 925.304,-148.433"/>
<polygon fill="#9a32cd" stroke="#9a32cd" points="1033.64,-184.499 1044.24,-184.442 1035.92,-177.879 1033.64,-184.499"/>
<text text-anchor="middle" x="985" y="-178" font-family="Arial" font-size="10.00"> xref</text>
</g>
<!-- Node32 -->
<g id="node32" class="node"><title>Node32</title>
<g id="a_node32"><a xlink:href="structst__lw_clip_cycle.html" target="_top" xlink:title="st_lwClipCycle">
<polygon fill="white" stroke="black" points="682,-152.5 682,-171.5 762,-171.5 762,-152.5 682,-152.5"/>
<text text-anchor="middle" x="722" y="-159.5" font-family="Arial" font-size="10.00">st_lwClipCycle</text>
</a>
</g>
</g>
<!-- Node32&#45;&gt;Node27 -->
<g id="edge51" class="edge"><title>Node32&#45;&gt;Node27</title>
<path fill="none" stroke="#9a32cd" stroke-dasharray="5,2" d="M772.525,-155.988C803.792,-152.193 843,-147.434 868.74,-144.309"/>
<polygon fill="#9a32cd" stroke="#9a32cd" points="771.762,-152.555 762.256,-157.235 772.605,-159.504 771.762,-152.555"/>
<text text-anchor="middle" x="810" y="-158" font-family="Arial" font-size="10.00"> cycle</text>
</g>
</g>
</svg>
        <g id="navigator" transform="translate(0 0)" fill="#404254">
                <rect fill="#f2f5e9" fill-opacity="0.5" stroke="#606060" stroke-width=".5" x="0" y="0" width="60" height="60"/>
                <use id="zoomplus" xlink:href="#zoomPlus" x="17" y="9" onmousedown="handleZoom(evt,'in')"/>
                <use id="zoomminus" xlink:href="#zoomMin" x="42" y="9" onmousedown="handleZoom(evt,'out')"/>
                <use id="reset" xlink:href="#resetDef" x="30" y="36" onmousedown="handleReset()"/>
                <g id="arrowUp" xlink:href="#dirArrow" transform="translate(30 24)" onmousedown="handlePan(0,-1)">
                  <use xlink:href="#rim" fill="#404040">
                        <set attributeName="fill" to="#808080" begin="arrowUp.mouseover" end="arrowUp.mouseout"/>
                  </use>
                  <path fill="none" stroke="white" stroke-width="1.5" d="M0,-3.0v7 M-2.5,-0.5L0,-3.0L2.5,-0.5"/>
                </g>
                <g id="arrowRight" xlink:href="#dirArrow" transform="rotate(90) translate(36 -43)" onmousedown="handlePan(1,0)">
                  <use xlink:href="#rim" fill="#404040">
                        <set attributeName="fill" to="#808080" begin="arrowRight.mouseover" end="arrowRight.mouseout"/>
                  </use>
                  <path fill="none" stroke="white" stroke-width="1.5" d="M0,-3.0v7 M-2.5,-0.5L0,-3.0L2.5,-0.5"/>
                </g>
                <g id="arrowDown" xlink:href="#dirArrow" transform="rotate(180) translate(-30 -48)" onmousedown="handlePan(0,1)">
                  <use xlink:href="#rim" fill="#404040">
                        <set attributeName="fill" to="#808080" begin="arrowDown.mouseover" end="arrowDown.mouseout"/>
                  </use>
                  <path fill="none" stroke="white" stroke-width="1.5" d="M0,-3.0v7 M-2.5,-0.5L0,-3.0L2.5,-0.5"/>
                </g>
                <g id="arrowLeft" xlink:href="#dirArrow" transform="rotate(270) translate(-36 17)" onmousedown="handlePan(-1,0)">
                  <use xlink:href="#rim" fill="#404040">
                        <set attributeName="fill" to="#808080" begin="arrowLeft.mouseover" end="arrowLeft.mouseout"/>
                  </use>
                  <path fill="none" stroke="white" stroke-width="1.5" d="M0,-3.0v7 M-2.5,-0.5L0,-3.0L2.5,-0.5"/>
                </g>
        </g>
        <svg viewBox="0 0 15 15" width="100%" height="30px" preserveAspectRatio="xMaxYMin meet">
         <g id="arrow_out" transform="scale(0.3 0.3)">
          <a xlink:href="structst__lw_object__coll__graph_org.svg" target="_base">
           <rect id="button" ry="5" rx="5" y="6" x="6" height="38" width="38"
                fill="#f2f5e9" fill-opacity="0.5" stroke="#606060" stroke-width="1.0"/>
           <path id="arrow"
             d="M 11.500037,31.436501 C 11.940474,20.09759 22.043105,11.32322 32.158766,21.979434 L 37.068811,17.246167 C 37.068811,17.246167 37.088388,32 37.088388,32 L 22.160133,31.978069 C 22.160133,31.978069 26.997745,27.140456 26.997745,27.140456 C 18.528582,18.264221 13.291696,25.230495 11.500037,31.436501 z"
             style="fill:#404040;"/>
          </a>
         </g>
        </svg>
</svg>
