<?xml version="1.0" encoding="UTF-8" standalone="no"?>
<!DOCTYPE svg PUBLIC "-//W3C//DTD SVG 1.1//EN"
 "http://www.w3.org/Graphics/SVG/1.1/DTD/svg11.dtd">
<!-- Generated by graphviz version 2.34.0 (20130907.0111)
 -->
<!-- Title: opcode_s Pages: 1 -->
<!--zoomable 254 -->
<svg id="main" version="1.1" xmlns="http://www.w3.org/2000/svg" xmlns:xlink="http://www.w3.org/1999/xlink" xml:space="preserve" onload="init(evt)">
<style type="text/css"><![CDATA[
.edge:hover path { stroke: red; }
.edge:hover polygon { stroke: red; fill: red; }
]]></style>
<script type="text/javascript"><![CDATA[
var edges = document.getElementsByTagName('g');
if (edges && edges.length) {
  for (var i=0;i<edges.length;i++) {
    if (edges[i].id.substr(0,4)=='edge') {
      edges[i].setAttribute('class','edge');
    }
  }
}
]]></script>
        <defs>
                <circle id="rim" cx="0" cy="0" r="7"/>
                <circle id="rim2" cx="0" cy="0" r="3.5"/>
                <g id="zoomPlus">
                        <use xlink:href="#rim" fill="#404040">
                                <set attributeName="fill" to="#808080" begin="zoomplus.mouseover" end="zoomplus.mouseout"/>
                        </use>
                        <path d="M-4,0h8M0,-4v8" fill="none" stroke="white" stroke-width="1.5" pointer-events="none"/>
                </g>
                <g id="zoomMin">
                        <use xlink:href="#rim" fill="#404040">
                                <set attributeName="fill" to="#808080" begin="zoomminus.mouseover" end="zoomminus.mouseout"/>
                        </use>
                        <path d="M-4,0h8" fill="none" stroke="white" stroke-width="1.5" pointer-events="none"/>
                </g>
                <g id="dirArrow">
                        <path fill="none" stroke="white" stroke-width="1.5" d="M0,-3.0v7 M-2.5,-0.5L0,-3.0L2.5,-0.5"/>
                </g>
               <g id="resetDef">
                       <use xlink:href="#rim2" fill="#404040">
                               <set attributeName="fill" to="#808080" begin="reset.mouseover" end="reset.mouseout"/>
                       </use>
               </g>
        </defs>

<script type="text/javascript">
var viewWidth = 562;
var viewHeight = 254;
var sectionId = 'dynsection-0';
</script>
<script xlink:href="svgpan.js"/>
<svg id="graph" class="graph">
<g id="viewport">
<title>opcode_s</title>
<polygon fill="white" stroke="white" points="-4,4 -4,-250 558,-250 558,4 -4,4"/>
<!-- Node1 -->
<g id="node1" class="node"><title>Node1</title>
<polygon fill="#bfbfbf" stroke="black" points="-0.5,-136.5 -0.5,-155.5 58.5,-155.5 58.5,-136.5 -0.5,-136.5"/>
<text text-anchor="middle" x="29" y="-143.5" font-family="Arial" font-size="10.00">opcode_s</text>
</g>
<!-- Node2 -->
<g id="node2" class="node"><title>Node2</title>
<g id="a_node2"><a xlink:href="classid_var_def.html" target="_top" xlink:title="idVarDef">
<polygon fill="white" stroke="black" points="120.5,-226.5 120.5,-245.5 173.5,-245.5 173.5,-226.5 120.5,-226.5"/>
<text text-anchor="middle" x="147" y="-233.5" font-family="Arial" font-size="10.00">idVarDef</text>
</a>
</g>
</g>
<!-- Node2&#45;&gt;Node1 -->
<g id="edge1" class="edge"><title>Node2&#45;&gt;Node1</title>
<path fill="none" stroke="#9a32cd" stroke-dasharray="5,2" d="M111.044,-223.131C101.469,-219.11 91.449,-214.066 83,-208 62.0901,-192.987 43.6181,-168.489 34.6862,-155.581"/>
<polygon fill="#9a32cd" stroke="#9a32cd" points="109.807,-226.406 120.394,-226.812 112.371,-219.892 109.807,-226.406"/>
<text text-anchor="middle" x="99.5" y="-199.5" font-family="Arial" font-size="10.00"> type_a</text>
<text text-anchor="middle" x="99.5" y="-188.5" font-family="Arial" font-size="10.00">type_b</text>
<text text-anchor="middle" x="99.5" y="-177.5" font-family="Arial" font-size="10.00">type_c</text>
</g>
<!-- Node2&#45;&gt;Node2 -->
<g id="edge12" class="edge"><title>Node2&#45;&gt;Node2</title>
<path fill="none" stroke="#9a32cd" stroke-dasharray="5,2" d="M183.677,-243.111C188.104,-241.827 191,-239.456 191,-236 191,-230.328 183.201,-227.581 173.635,-227.758"/>
<polygon fill="#9a32cd" stroke="#9a32cd" points="183.181,-239.645 173.635,-244.242 183.964,-246.601 183.181,-239.645"/>
<text text-anchor="middle" x="206" y="-233.5" font-family="Arial" font-size="10.00"> scope</text>
</g>
<!-- Node4 -->
<g id="node4" class="node"><title>Node4</title>
<g id="a_node4"><a xlink:href="classfunction__t.html" target="_top" xlink:title="function_t">
<polygon fill="white" stroke="black" points="210.5,-68.5 210.5,-87.5 269.5,-87.5 269.5,-68.5 210.5,-68.5"/>
<text text-anchor="middle" x="240" y="-75.5" font-family="Arial" font-size="10.00">function_t</text>
</a>
</g>
</g>
<!-- Node2&#45;&gt;Node4 -->
<g id="edge7" class="edge"><title>Node2&#45;&gt;Node4</title>
<path fill="none" stroke="#9a32cd" stroke-dasharray="5,2" d="M152.163,-216.705C159.314,-192.036 172.331,-149.623 181,-136 193.693,-116.054 214.733,-98.0084 227.957,-87.7856"/>
<polygon fill="#9a32cd" stroke="#9a32cd" points="148.792,-215.764 149.407,-226.341 155.522,-217.689 148.792,-215.764"/>
<text text-anchor="middle" x="189" y="-143.5" font-family="Arial" font-size="10.00"> def</text>
</g>
<!-- Node6 -->
<g id="node6" class="node"><title>Node6</title>
<g id="a_node6"><a xlink:href="classid_type_def.html" target="_top" xlink:title="idTypeDef">
<polygon fill="white" stroke="black" points="76.5,-136.5 76.5,-155.5 135.5,-155.5 135.5,-136.5 76.5,-136.5"/>
<text text-anchor="middle" x="106" y="-143.5" font-family="Arial" font-size="10.00">idTypeDef</text>
</a>
</g>
</g>
<!-- Node2&#45;&gt;Node6 -->
<g id="edge6" class="edge"><title>Node2&#45;&gt;Node6</title>
<path fill="none" stroke="#9a32cd" stroke-dasharray="5,2" d="M138.625,-217.025C129.928,-198.357 116.685,-169.933 110.065,-155.724"/>
<polygon fill="#9a32cd" stroke="#9a32cd" points="135.523,-218.654 142.919,-226.241 141.868,-215.698 135.523,-218.654"/>
<text text-anchor="middle" x="142" y="-188.5" font-family="Arial" font-size="10.00"> def</text>
</g>
<!-- Node3 -->
<g id="node3" class="node"><title>Node3</title>
<g id="a_node3"><a xlink:href="unionvar_eval__s.html" target="_top" xlink:title="varEval_s">
<polygon fill="white" stroke="black" points="379.5,-0.5 379.5,-19.5 436.5,-19.5 436.5,-0.5 379.5,-0.5"/>
<text text-anchor="middle" x="408" y="-7.5" font-family="Arial" font-size="10.00">varEval_s</text>
</a>
</g>
</g>
<!-- Node3&#45;&gt;Node2 -->
<g id="edge2" class="edge"><title>Node3&#45;&gt;Node2</title>
<path fill="none" stroke="#9a32cd" stroke-dasharray="5,2" d="M404.362,-29.6195C397.224,-64.4392 380.542,-137.563 363,-156 311.255,-210.383 219.02,-227.496 173.671,-232.751"/>
<polygon fill="#9a32cd" stroke="#9a32cd" points="407.801,-30.2708 406.334,-19.7782 400.938,-28.8959 407.801,-30.2708"/>
<text text-anchor="middle" x="397.5" y="-109.5" font-family="Arial" font-size="10.00"> value</text>
</g>
<!-- Node3&#45;&gt;Node3 -->
<g id="edge9" class="edge"><title>Node3&#45;&gt;Node3</title>
<path fill="none" stroke="#9a32cd" stroke-dasharray="5,2" d="M446.76,-15.4023C451.153,-14.3906 454,-12.5898 454,-10 454,-5.75 446.333,-3.625 436.75,-3.625"/>
<polygon fill="#9a32cd" stroke="#9a32cd" points="446.365,-11.9241 436.75,-16.375 447.042,-18.8913 446.365,-11.9241"/>
<text text-anchor="middle" x="470.5" y="-7.5" font-family="Arial" font-size="10.00"> evalPtr</text>
</g>
<!-- Node4&#45;&gt;Node3 -->
<g id="edge3" class="edge"><title>Node4&#45;&gt;Node3</title>
<path fill="none" stroke="#9a32cd" stroke-dasharray="5,2" d="M264.356,-63.4612C279.494,-55.3909 299.528,-45.3255 318,-38 338.017,-30.0619 361.319,-23.1315 379.197,-18.2801"/>
<polygon fill="#9a32cd" stroke="#9a32cd" points="262.308,-60.5895 255.18,-68.4275 265.64,-66.7456 262.308,-60.5895"/>
<text text-anchor="middle" x="343" y="-41.5" font-family="Arial" font-size="10.00"> functionPtr</text>
</g>
<!-- Node5 -->
<g id="node5" class="node"><title>Node5</title>
<g id="a_node5"><a xlink:href="classid_list.html" target="_top" xlink:title="idList\&lt; int \&gt;">
<polygon fill="white" stroke="black" points="206,-136.5 206,-155.5 274,-155.5 274,-136.5 206,-136.5"/>
<text text-anchor="middle" x="240" y="-143.5" font-family="Arial" font-size="10.00">idList&lt; int &gt;</text>
</a>
</g>
</g>
<!-- Node5&#45;&gt;Node4 -->
<g id="edge4" class="edge"><title>Node5&#45;&gt;Node4</title>
<path fill="none" stroke="#9a32cd" stroke-dasharray="5,2" d="M240,-126.041C240,-113.472 240,-97.5631 240,-87.8411"/>
<polygon fill="#9a32cd" stroke="#9a32cd" points="236.5,-126.372 240,-136.372 243.5,-126.372 236.5,-126.372"/>
<text text-anchor="middle" x="262.5" y="-109.5" font-family="Arial" font-size="10.00"> parmSize</text>
</g>
<!-- Node6&#45;&gt;Node4 -->
<g id="edge5" class="edge"><title>Node6&#45;&gt;Node4</title>
<path fill="none" stroke="#9a32cd" stroke-dasharray="5,2" d="M115.799,-127.507C120.901,-119.867 127.795,-111.429 136,-106 158.246,-91.2798 188.09,-84.5801 210.102,-81.5336"/>
<polygon fill="#9a32cd" stroke="#9a32cd" points="112.729,-125.819 110.496,-136.176 118.7,-129.471 112.729,-125.819"/>
<text text-anchor="middle" x="147" y="-109.5" font-family="Arial" font-size="10.00"> type</text>
</g>
<!-- Node7 -->
<g id="node7" class="node"><title>Node7</title>
<g id="a_node7"><a xlink:href="classid_event_def.html" target="_top" xlink:title="idEventDef">
<polygon fill="white" stroke="black" points="292,-136.5 292,-155.5 354,-155.5 354,-136.5 292,-136.5"/>
<text text-anchor="middle" x="323" y="-143.5" font-family="Arial" font-size="10.00">idEventDef</text>
</a>
</g>
</g>
<!-- Node7&#45;&gt;Node4 -->
<g id="edge8" class="edge"><title>Node7&#45;&gt;Node4</title>
<path fill="none" stroke="#9a32cd" stroke-dasharray="5,2" d="M310.737,-128.441C304.718,-121.014 297.041,-112.485 289,-106 279.928,-98.6828 268.594,-92.2929 259.112,-87.5687"/>
<polygon fill="#9a32cd" stroke="#9a32cd" points="308.067,-130.71 316.962,-136.467 313.598,-126.42 308.067,-130.71"/>
<text text-anchor="middle" x="320.5" y="-109.5" font-family="Arial" font-size="10.00"> eventdef</text>
</g>
<!-- Node8 -->
<g id="node8" class="node"><title>Node8</title>
<g id="a_node8"><a xlink:href="classid_vec3.html" target="_top" xlink:title="idVec3">
<polygon fill="white" stroke="black" points="410.5,-68.5 410.5,-87.5 457.5,-87.5 457.5,-68.5 410.5,-68.5"/>
<text text-anchor="middle" x="434" y="-75.5" font-family="Arial" font-size="10.00">idVec3</text>
</a>
</g>
</g>
<!-- Node8&#45;&gt;Node3 -->
<g id="edge10" class="edge"><title>Node8&#45;&gt;Node3</title>
<path fill="none" stroke="#9a32cd" stroke-dasharray="5,2" d="M426.833,-58.8066C421.837,-46.1244 415.391,-29.7615 411.483,-19.8411"/>
<polygon fill="#9a32cd" stroke="#9a32cd" points="423.679,-60.3504 430.601,-68.3717 430.192,-57.7847 423.679,-60.3504"/>
<text text-anchor="middle" x="444" y="-41.5" font-family="Arial" font-size="10.00"> vectorPtr</text>
</g>
<!-- Node9 -->
<g id="node9" class="node"><title>Node9</title>
<g id="a_node9"><a xlink:href="classid_script_object.html" target="_top" xlink:title="idScriptObject">
<polygon fill="white" stroke="black" points="476,-68.5 476,-87.5 554,-87.5 554,-68.5 476,-68.5"/>
<text text-anchor="middle" x="515" y="-75.5" font-family="Arial" font-size="10.00">idScriptObject</text>
</a>
</g>
</g>
<!-- Node9&#45;&gt;Node3 -->
<g id="edge11" class="edge"><title>Node9&#45;&gt;Node3</title>
<path fill="none" stroke="#9a32cd" stroke-dasharray="5,2" d="M499.123,-61.5637C490.642,-53.8474 479.756,-44.743 469,-38 457.225,-30.6182 443.086,-24.2242 431.386,-19.514"/>
<polygon fill="#9a32cd" stroke="#9a32cd" points="496.743,-64.1303 506.433,-68.414 501.529,-59.0224 496.743,-64.1303"/>
<text text-anchor="middle" x="512.5" y="-41.5" font-family="Arial" font-size="10.00"> objectPtrPtr</text>
</g>
</g>
</svg>
        <g id="navigator" transform="translate(0 0)" fill="#404254">
                <rect fill="#f2f5e9" fill-opacity="0.5" stroke="#606060" stroke-width=".5" x="0" y="0" width="60" height="60"/>
                <use id="zoomplus" xlink:href="#zoomPlus" x="17" y="9" onmousedown="handleZoom(evt,'in')"/>
                <use id="zoomminus" xlink:href="#zoomMin" x="42" y="9" onmousedown="handleZoom(evt,'out')"/>
                <use id="reset" xlink:href="#resetDef" x="30" y="36" onmousedown="handleReset()"/>
                <g id="arrowUp" xlink:href="#dirArrow" transform="translate(30 24)" onmousedown="handlePan(0,-1)">
                  <use xlink:href="#rim" fill="#404040">
                        <set attributeName="fill" to="#808080" begin="arrowUp.mouseover" end="arrowUp.mouseout"/>
                  </use>
                  <path fill="none" stroke="white" stroke-width="1.5" d="M0,-3.0v7 M-2.5,-0.5L0,-3.0L2.5,-0.5"/>
                </g>
                <g id="arrowRight" xlink:href="#dirArrow" transform="rotate(90) translate(36 -43)" onmousedown="handlePan(1,0)">
                  <use xlink:href="#rim" fill="#404040">
                        <set attributeName="fill" to="#808080" begin="arrowRight.mouseover" end="arrowRight.mouseout"/>
                  </use>
                  <path fill="none" stroke="white" stroke-width="1.5" d="M0,-3.0v7 M-2.5,-0.5L0,-3.0L2.5,-0.5"/>
                </g>
                <g id="arrowDown" xlink:href="#dirArrow" transform="rotate(180) translate(-30 -48)" onmousedown="handlePan(0,1)">
                  <use xlink:href="#rim" fill="#404040">
                        <set attributeName="fill" to="#808080" begin="arrowDown.mouseover" end="arrowDown.mouseout"/>
                  </use>
                  <path fill="none" stroke="white" stroke-width="1.5" d="M0,-3.0v7 M-2.5,-0.5L0,-3.0L2.5,-0.5"/>
                </g>
                <g id="arrowLeft" xlink:href="#dirArrow" transform="rotate(270) translate(-36 17)" onmousedown="handlePan(-1,0)">
                  <use xlink:href="#rim" fill="#404040">
                        <set attributeName="fill" to="#808080" begin="arrowLeft.mouseover" end="arrowLeft.mouseout"/>
                  </use>
                  <path fill="none" stroke="white" stroke-width="1.5" d="M0,-3.0v7 M-2.5,-0.5L0,-3.0L2.5,-0.5"/>
                </g>
        </g>
        <svg viewBox="0 0 15 15" width="100%" height="30px" preserveAspectRatio="xMaxYMin meet">
         <g id="arrow_out" transform="scale(0.3 0.3)">
          <a xlink:href="structopcode__s__coll__graph_org.svg" target="_base">
           <rect id="button" ry="5" rx="5" y="6" x="6" height="38" width="38"
                fill="#f2f5e9" fill-opacity="0.5" stroke="#606060" stroke-width="1.0"/>
           <path id="arrow"
             d="M 11.500037,31.436501 C 11.940474,20.09759 22.043105,11.32322 32.158766,21.979434 L 37.068811,17.246167 C 37.068811,17.246167 37.088388,32 37.088388,32 L 22.160133,31.978069 C 22.160133,31.978069 26.997745,27.140456 26.997745,27.140456 C 18.528582,18.264221 13.291696,25.230495 11.500037,31.436501 z"
             style="fill:#404040;"/>
          </a>
         </g>
        </svg>
</svg>
