<?xml version="1.0" encoding="UTF-8" standalone="no"?>
<!DOCTYPE svg PUBLIC "-//W3C//DTD SVG 1.1//EN"
 "http://www.w3.org/Graphics/SVG/1.1/DTD/svg11.dtd">
<!-- Generated by graphviz version 2.34.0 (20130907.0111)
 -->
<!-- Title: define_s Pages: 1 -->
<svg width="118pt" height="166pt"
 viewBox="0.00 0.00 118.00 166.00" xmlns="http://www.w3.org/2000/svg" xmlns:xlink="http://www.w3.org/1999/xlink">
<g id="graph0" class="graph" transform="scale(1 1) rotate(0) translate(4 162)">
<title>define_s</title>
<polygon fill="white" stroke="white" points="-4,4 -4,-162 114,-162 114,4 -4,4"/>
<!-- Node1 -->
<g id="node1" class="node"><title>Node1</title>
<polygon fill="#bfbfbf" stroke="black" points="-0.5,-1.5 -0.5,-20.5 52.5,-20.5 52.5,-1.5 -0.5,-1.5"/>
<text text-anchor="middle" x="26" y="-8.5" font-family="Arial" font-size="10.00">define_s</text>
</g>
<!-- Node1&#45;&gt;Node1 -->
<g id="edge3" class="edge"><title>Node1&#45;&gt;Node1</title>
<path fill="none" stroke="#9a32cd" stroke-dasharray="5,2" d="M62.6769,-17.4645C67.104,-16.2969 70,-14.1421 70,-11 70,-5.84375 62.2012,-3.34619 52.6354,-3.50732"/>
<polygon fill="#9a32cd" stroke="#9a32cd" points="62.2268,-13.9921 52.6354,-18.4927 62.94,-20.9557 62.2268,-13.9921"/>
<text text-anchor="middle" x="90" y="-14" font-family="Arial" font-size="10.00"> next</text>
<text text-anchor="middle" x="90" y="-3" font-family="Arial" font-size="10.00">hashnext</text>
</g>
<!-- Node2 -->
<g id="node2" class="node"><title>Node2</title>
<g id="a_node2"><a xlink:href="classid_token.html" target="_top" xlink:title="idToken">
<polygon fill="white" stroke="black" points="1,-80.5 1,-99.5 51,-99.5 51,-80.5 1,-80.5"/>
<text text-anchor="middle" x="26" y="-87.5" font-family="Arial" font-size="10.00">idToken</text>
</a>
</g>
</g>
<!-- Node2&#45;&gt;Node1 -->
<g id="edge1" class="edge"><title>Node2&#45;&gt;Node1</title>
<path fill="none" stroke="#9a32cd" stroke-dasharray="5,2" d="M26,-70.3145C26,-54.5917 26,-32.8079 26,-20.8094"/>
<polygon fill="#9a32cd" stroke="#9a32cd" points="22.5001,-70.4654 26,-80.4655 29.5001,-70.4655 22.5001,-70.4654"/>
<text text-anchor="middle" x="42.5" y="-54" font-family="Arial" font-size="10.00"> tokens</text>
<text text-anchor="middle" x="42.5" y="-43" font-family="Arial" font-size="10.00">parms</text>
</g>
<!-- Node3 -->
<g id="node3" class="node"><title>Node3</title>
<g id="a_node3"><a xlink:href="classid_str.html" target="_top" xlink:title="idStr">
<polygon fill="white" stroke="black" points="7.5,-138.5 7.5,-157.5 44.5,-157.5 44.5,-138.5 7.5,-138.5"/>
<text text-anchor="middle" x="26" y="-145.5" font-family="Arial" font-size="10.00">idStr</text>
</a>
</g>
</g>
<!-- Node3&#45;&gt;Node2 -->
<g id="edge2" class="edge"><title>Node3&#45;&gt;Node2</title>
<path fill="none" stroke="midnightblue" d="M26,-127.953C26,-118.287 26,-107.031 26,-99.5052"/>
<polygon fill="midnightblue" stroke="midnightblue" points="22.5001,-128.25 26,-138.25 29.5001,-128.25 22.5001,-128.25"/>
</g>
</g>
</svg>
