<?xml version="1.0" encoding="UTF-8" standalone="no"?>
<!DOCTYPE svg PUBLIC "-//W3C//DTD SVG 1.1//EN"
 "http://www.w3.org/Graphics/SVG/1.1/DTD/svg11.dtd">
<!-- Generated by graphviz version 2.34.0 (20130907.0111)
 -->
<!-- Title: connectdata Pages: 1 -->
<svg width="972pt" height="909pt"
 viewBox="0.00 0.00 972.00 909.00" xmlns="http://www.w3.org/2000/svg" xmlns:xlink="http://www.w3.org/1999/xlink">
<g id="graph0" class="graph" transform="scale(1 1) rotate(0) translate(4 905)">
<title>connectdata</title>
<polygon fill="white" stroke="white" points="-4,4 -4,-905 968,-905 968,4 -4,4"/>
<!-- Node1 -->
<g id="node1" class="node"><title>Node1</title>
<polygon fill="#bfbfbf" stroke="black" points="552,-618.5 552,-637.5 622,-637.5 622,-618.5 552,-618.5"/>
<text text-anchor="middle" x="587" y="-625.5" font-family="Arial" font-size="10.00">connectdata</text>
</g>
<!-- Node12 -->
<g id="node12" class="node"><title>Node12</title>
<g id="a_node12"><a xlink:href="struct_url_state.html" target="_top" xlink:title="UrlState">
<polygon fill="white" stroke="black" points="757,-417.5 757,-436.5 809,-436.5 809,-417.5 757,-417.5"/>
<text text-anchor="middle" x="783" y="-424.5" font-family="Arial" font-size="10.00">UrlState</text>
</a>
</g>
</g>
<!-- Node1&#45;&gt;Node12 -->
<g id="edge15" class="edge"><title>Node1&#45;&gt;Node12</title>
<path fill="none" stroke="#9a32cd" stroke-dasharray="5,2" d="M604.381,-611.028C643.633,-570.36 742.079,-468.361 772.737,-436.597"/>
<polygon fill="#9a32cd" stroke="#9a32cd" points="601.783,-608.679 597.357,-618.305 606.82,-613.541 601.783,-608.679"/>
<text text-anchor="middle" x="690" y="-566" font-family="Arial" font-size="10.00"> connects</text>
</g>
<!-- Node2 -->
<g id="node2" class="node"><title>Node2</title>
<g id="a_node2"><a xlink:href="structntlmdata.html" target="_top" xlink:title="ntlmdata">
<polygon fill="white" stroke="black" points="349,-715.5 349,-734.5 403,-734.5 403,-715.5 349,-715.5"/>
<text text-anchor="middle" x="376" y="-722.5" font-family="Arial" font-size="10.00">ntlmdata</text>
</a>
</g>
</g>
<!-- Node2&#45;&gt;Node1 -->
<g id="edge1" class="edge"><title>Node2&#45;&gt;Node1</title>
<path fill="none" stroke="#9a32cd" stroke-dasharray="5,2" d="M413.021,-720.117C443.947,-714.807 488.949,-704.356 524,-685 546.527,-672.56 567.384,-650.284 578.22,-637.576"/>
<polygon fill="#9a32cd" stroke="#9a32cd" points="412.417,-716.669 403.107,-721.726 413.539,-723.579 412.417,-716.669"/>
<text text-anchor="middle" x="491" y="-725" font-family="Arial" font-size="10.00"> proxyntlm</text>
<text text-anchor="middle" x="491" y="-714" font-family="Arial" font-size="10.00">ntlm</text>
</g>
<!-- Node3 -->
<g id="node3" class="node"><title>Node3</title>
<g id="a_node3"><a xlink:href="struct_curl__async.html" target="_top" xlink:title="Curl_async">
<polygon fill="white" stroke="black" points="343.5,-677.5 343.5,-696.5 408.5,-696.5 408.5,-677.5 343.5,-677.5"/>
<text text-anchor="middle" x="376" y="-684.5" font-family="Arial" font-size="10.00">Curl_async</text>
</a>
</g>
</g>
<!-- Node3&#45;&gt;Node1 -->
<g id="edge2" class="edge"><title>Node3&#45;&gt;Node1</title>
<path fill="none" stroke="#9a32cd" stroke-dasharray="5,2" d="M418.596,-678.672C448.257,-672.352 488.931,-662.907 524,-652 537.336,-647.852 551.916,-642.264 563.585,-637.523"/>
<polygon fill="#9a32cd" stroke="#9a32cd" points="417.657,-675.292 408.591,-680.774 419.097,-682.143 417.657,-675.292"/>
<text text-anchor="middle" x="491" y="-673" font-family="Arial" font-size="10.00"> async</text>
</g>
<!-- Node4 -->
<g id="node4" class="node"><title>Node4</title>
<g id="a_node4"><a xlink:href="struct_curl__dns__entry.html" target="_top" xlink:title="Curl_dns_entry">
<polygon fill="white" stroke="black" points="126,-732.5 126,-751.5 208,-751.5 208,-732.5 126,-732.5"/>
<text text-anchor="middle" x="167" y="-739.5" font-family="Arial" font-size="10.00">Curl_dns_entry</text>
</a>
</g>
</g>
<!-- Node4&#45;&gt;Node1 -->
<g id="edge45" class="edge"><title>Node4&#45;&gt;Node1</title>
<path fill="none" stroke="#9a32cd" stroke-dasharray="5,2" d="M208.74,-754.227C279.232,-772.79 425.815,-799.71 524,-737 560.879,-713.446 578.068,-659.684 583.751,-637.67"/>
<polygon fill="#9a32cd" stroke="#9a32cd" points="209.474,-750.8 198.906,-751.561 207.642,-757.556 209.474,-750.8"/>
<text text-anchor="middle" x="376" y="-780" font-family="Arial" font-size="10.00"> connect_addr</text>
</g>
<!-- Node4&#45;&gt;Node3 -->
<g id="edge3" class="edge"><title>Node4&#45;&gt;Node3</title>
<path fill="none" stroke="#9a32cd" stroke-dasharray="5,2" d="M218.301,-733.215C241.621,-728.536 269.529,-722.067 294,-714 302.314,-711.259 303.793,-709.048 312,-706 322.067,-702.262 333.235,-698.707 343.338,-695.705"/>
<polygon fill="#9a32cd" stroke="#9a32cd" points="217.418,-729.822 208.275,-735.174 218.761,-736.692 217.418,-729.822"/>
<text text-anchor="middle" x="264" y="-733" font-family="Arial" font-size="10.00"> dns</text>
</g>
<!-- Node5 -->
<g id="node5" class="node"><title>Node5</title>
<g id="a_node5"><a xlink:href="structssl__config__data.html" target="_top" xlink:title="ssl_config_data">
<polygon fill="white" stroke="black" points="334,-417.5 334,-436.5 418,-436.5 418,-417.5 334,-417.5"/>
<text text-anchor="middle" x="376" y="-424.5" font-family="Arial" font-size="10.00">ssl_config_data</text>
</a>
</g>
</g>
<!-- Node5&#45;&gt;Node1 -->
<g id="edge4" class="edge"><title>Node5&#45;&gt;Node1</title>
<path fill="none" stroke="#9a32cd" stroke-dasharray="5,2" d="M428.324,-432.501C464.813,-437.377 509.772,-445.66 524,-458 549.631,-480.23 576.148,-585.972 583.809,-618.474"/>
<polygon fill="#9a32cd" stroke="#9a32cd" points="428.654,-429.014 418.29,-431.215 427.764,-435.958 428.654,-429.014"/>
<text text-anchor="middle" x="491" y="-461" font-family="Arial" font-size="10.00"> ssl_config</text>
</g>
<!-- Node13 -->
<g id="node13" class="node"><title>Node13</title>
<g id="a_node13"><a xlink:href="structcurl__ssl__session.html" target="_top" xlink:title="curl_ssl_session">
<polygon fill="white" stroke="black" points="542.5,-417.5 542.5,-436.5 631.5,-436.5 631.5,-417.5 542.5,-417.5"/>
<text text-anchor="middle" x="587" y="-424.5" font-family="Arial" font-size="10.00">curl_ssl_session</text>
</a>
</g>
</g>
<!-- Node5&#45;&gt;Node13 -->
<g id="edge14" class="edge"><title>Node5&#45;&gt;Node13</title>
<path fill="none" stroke="#9a32cd" stroke-dasharray="5,2" d="M428.29,-424.813C438.148,-424.474 448.393,-424.178 458,-424 487.328,-423.457 494.675,-423.291 524,-424 529.925,-424.143 536.166,-424.363 542.314,-424.621"/>
<polygon fill="#9a32cd" stroke="#9a32cd" points="428.065,-421.319 418.199,-425.179 428.319,-428.314 428.065,-421.319"/>
<text text-anchor="middle" x="491" y="-427" font-family="Arial" font-size="10.00"> ssl_config</text>
</g>
<!-- Node18 -->
<g id="node18" class="node"><title>Node18</title>
<g id="a_node18"><a xlink:href="struct_user_defined.html" target="_top" xlink:title="UserDefined">
<polygon fill="white" stroke="black" points="748.5,-138.5 748.5,-157.5 817.5,-157.5 817.5,-138.5 748.5,-138.5"/>
<text text-anchor="middle" x="783" y="-145.5" font-family="Arial" font-size="10.00">UserDefined</text>
</a>
</g>
</g>
<!-- Node5&#45;&gt;Node18 -->
<g id="edge23" class="edge"><title>Node5&#45;&gt;Node18</title>
<path fill="none" stroke="#9a32cd" stroke-dasharray="5,2" d="M398.64,-411.195C437.477,-382.647 515.751,-324.211 524,-311 543.991,-278.982 516.791,-256.095 542,-228 569.939,-196.863 689.196,-167.767 748.393,-154.916"/>
<polygon fill="#9a32cd" stroke="#9a32cd" points="396.11,-408.71 390.116,-417.446 400.249,-414.354 396.11,-408.71"/>
<text text-anchor="middle" x="587" y="-231" font-family="Arial" font-size="10.00"> ssl</text>
</g>
<!-- Node6 -->
<g id="node6" class="node"><title>Node6</title>
<g id="a_node6"><a xlink:href="struct_curl__transfer__keeper.html" target="_top" xlink:title="Curl_transfer_keeper">
<polygon fill="white" stroke="black" points="323,-493.5 323,-512.5 429,-512.5 429,-493.5 323,-493.5"/>
<text text-anchor="middle" x="376" y="-500.5" font-family="Arial" font-size="10.00">Curl_transfer_keeper</text>
</a>
</g>
</g>
<!-- Node6&#45;&gt;Node1 -->
<g id="edge5" class="edge"><title>Node6&#45;&gt;Node1</title>
<path fill="none" stroke="#9a32cd" stroke-dasharray="5,2" d="M439.273,-501.212C467.205,-503.167 499.338,-509.49 524,-526 558.269,-548.941 576.725,-597.851 583.244,-618.494"/>
<polygon fill="#9a32cd" stroke="#9a32cd" points="439.365,-497.712 429.194,-500.679 438.995,-504.703 439.365,-497.712"/>
<text text-anchor="middle" x="491" y="-529" font-family="Arial" font-size="10.00"> keep</text>
</g>
<!-- Node7 -->
<g id="node7" class="node"><title>Node7</title>
<g id="a_node7"><a xlink:href="structtimeval.html" target="_top" xlink:title="timeval">
<polygon fill="white" stroke="black" points="143.5,-415.5 143.5,-434.5 190.5,-434.5 190.5,-415.5 143.5,-415.5"/>
<text text-anchor="middle" x="167" y="-422.5" font-family="Arial" font-size="10.00">timeval</text>
</a>
</g>
</g>
<!-- Node7&#45;&gt;Node1 -->
<g id="edge44" class="edge"><title>Node7&#45;&gt;Node1</title>
<path fill="none" stroke="#9a32cd" stroke-dasharray="5,2" d="M176.641,-443.594C187.194,-464.152 207.027,-496.651 234,-514 312.74,-564.644 349.674,-533.381 440,-558 477.968,-568.348 488.713,-568.579 524,-586 542.419,-595.093 561.719,-608.961 573.797,-618.245"/>
<polygon fill="#9a32cd" stroke="#9a32cd" points="179.764,-442.014 172.216,-434.58 173.481,-445.099 179.764,-442.014"/>
<text text-anchor="middle" x="376" y="-572" font-family="Arial" font-size="10.00"> created</text>
<text text-anchor="middle" x="376" y="-561" font-family="Arial" font-size="10.00">now</text>
</g>
<!-- Node7&#45;&gt;Node6 -->
<g id="edge6" class="edge"><title>Node7&#45;&gt;Node6</title>
<path fill="none" stroke="#9a32cd" stroke-dasharray="5,2" d="M198.887,-438.663C227.822,-451.22 272.424,-469.961 312,-484 321.367,-487.323 331.644,-490.582 341.13,-493.436"/>
<polygon fill="#9a32cd" stroke="#9a32cd" points="200.269,-435.447 189.704,-434.657 197.47,-441.863 200.269,-435.447"/>
<text text-anchor="middle" x="264" y="-502" font-family="Arial" font-size="10.00"> start</text>
<text text-anchor="middle" x="264" y="-491" font-family="Arial" font-size="10.00">start100</text>
<text text-anchor="middle" x="264" y="-480" font-family="Arial" font-size="10.00">now</text>
</g>
<!-- Node7&#45;&gt;Node12 -->
<g id="edge16" class="edge"><title>Node7&#45;&gt;Node12</title>
<path fill="none" stroke="#9a32cd" stroke-dasharray="5,2" d="M200.904,-419.999C230.028,-415.841 273.728,-410.251 312,-408 453.977,-399.648 490.06,-399.046 632,-408 676.143,-410.785 727.161,-418.135 756.879,-422.834"/>
<polygon fill="#9a32cd" stroke="#9a32cd" points="200.263,-416.556 190.871,-421.458 201.271,-423.483 200.263,-416.556"/>
<text text-anchor="middle" x="491" y="-406" font-family="Arial" font-size="10.00"> keeps_speed</text>
</g>
<!-- Node21 -->
<g id="node21" class="node"><title>Node21</title>
<g id="a_node21"><a xlink:href="struct_progress.html" target="_top" xlink:title="Progress">
<polygon fill="white" stroke="black" points="463,-290.5 463,-309.5 519,-309.5 519,-290.5 463,-290.5"/>
<text text-anchor="middle" x="491" y="-297.5" font-family="Arial" font-size="10.00">Progress</text>
</a>
</g>
</g>
<!-- Node7&#45;&gt;Node21 -->
<g id="edge30" class="edge"><title>Node7&#45;&gt;Node21</title>
<path fill="none" stroke="#9a32cd" stroke-dasharray="5,2" d="M176.953,-406.53C187.583,-386.832 207.294,-356.516 234,-342 314.818,-298.07 351.047,-345.426 440,-322 448.466,-319.771 449.99,-317.532 458,-314 461.218,-312.581 464.621,-311.086 467.959,-309.623"/>
<polygon fill="#9a32cd" stroke="#9a32cd" points="173.812,-404.983 172.352,-415.477 180.038,-408.184 173.812,-404.983"/>
<text text-anchor="middle" x="264" y="-367" font-family="Arial" font-size="10.00"> t_startsingle</text>
<text text-anchor="middle" x="264" y="-356" font-family="Arial" font-size="10.00">start</text>
<text text-anchor="middle" x="264" y="-345" font-family="Arial" font-size="10.00">speeder_time</text>
</g>
<!-- Node8 -->
<g id="node8" class="node"><title>Node8</title>
<g id="a_node8"><a xlink:href="struct_session_handle.html" target="_top" xlink:title="SessionHandle">
<polygon fill="white" stroke="black" points="882,-302.5 882,-321.5 964,-321.5 964,-302.5 882,-302.5"/>
<text text-anchor="middle" x="923" y="-309.5" font-family="Arial" font-size="10.00">SessionHandle</text>
</a>
</g>
</g>
<!-- Node8&#45;&gt;Node1 -->
<g id="edge7" class="edge"><title>Node8&#45;&gt;Node1</title>
<path fill="none" stroke="#9a32cd" stroke-dasharray="5,2" d="M913.961,-331.01C892.168,-380.146 827.004,-512.113 730,-578 696.812,-600.542 652.37,-614.028 622.103,-621.213"/>
<polygon fill="#9a32cd" stroke="#9a32cd" points="917.279,-332.157 918.053,-321.591 910.859,-329.368 917.279,-332.157"/>
<text text-anchor="middle" x="783" y="-567" font-family="Arial" font-size="10.00"> data</text>
</g>
<!-- Node9 -->
<g id="node9" class="node"><title>Node9</title>
<g id="a_node9"><a xlink:href="struct_cookie_info.html" target="_top" xlink:title="CookieInfo">
<polygon fill="white" stroke="black" points="556,-286.5 556,-305.5 618,-305.5 618,-286.5 556,-286.5"/>
<text text-anchor="middle" x="587" y="-293.5" font-family="Arial" font-size="10.00">CookieInfo</text>
</a>
</g>
</g>
<!-- Node9&#45;&gt;Node8 -->
<g id="edge8" class="edge"><title>Node9&#45;&gt;Node8</title>
<path fill="none" stroke="#9a32cd" stroke-dasharray="5,2" d="M628.493,-300.27C635.652,-300.925 643.04,-301.536 650,-302 732.276,-307.489 828.767,-310.141 881.866,-311.274"/>
<polygon fill="#9a32cd" stroke="#9a32cd" points="628.531,-296.758 618.244,-299.292 627.866,-303.726 628.531,-296.758"/>
<text text-anchor="middle" x="783" y="-313" font-family="Arial" font-size="10.00"> cookies</text>
</g>
<!-- Node22 -->
<g id="node22" class="node"><title>Node22</title>
<g id="a_node22"><a xlink:href="struct_curl__share.html" target="_top" xlink:title="Curl_share">
<polygon fill="white" stroke="black" points="751.5,-256.5 751.5,-275.5 814.5,-275.5 814.5,-256.5 751.5,-256.5"/>
<text text-anchor="middle" x="783" y="-263.5" font-family="Arial" font-size="10.00">Curl_share</text>
</a>
</g>
</g>
<!-- Node9&#45;&gt;Node22 -->
<g id="edge32" class="edge"><title>Node9&#45;&gt;Node22</title>
<path fill="none" stroke="#9a32cd" stroke-dasharray="5,2" d="M628.626,-289.718C665.187,-284.064 718.111,-275.88 751.26,-270.754"/>
<polygon fill="#9a32cd" stroke="#9a32cd" points="627.66,-286.325 618.313,-291.313 628.73,-293.243 627.66,-286.325"/>
<text text-anchor="middle" x="690" y="-290" font-family="Arial" font-size="10.00"> cookies</text>
</g>
<!-- Node10 -->
<g id="node10" class="node"><title>Node10</title>
<g id="a_node10"><a xlink:href="struct_cookie.html" target="_top" xlink:title="Cookie">
<polygon fill="white" stroke="black" points="352.5,-264.5 352.5,-283.5 399.5,-283.5 399.5,-264.5 352.5,-264.5"/>
<text text-anchor="middle" x="376" y="-271.5" font-family="Arial" font-size="10.00">Cookie</text>
</a>
</g>
</g>
<!-- Node10&#45;&gt;Node9 -->
<g id="edge9" class="edge"><title>Node10&#45;&gt;Node9</title>
<path fill="none" stroke="#9a32cd" stroke-dasharray="5,2" d="M409.944,-270.347C439.931,-267.83 485.296,-266.052 524,-273 538.464,-275.596 553.964,-281.346 565.848,-286.447"/>
<polygon fill="#9a32cd" stroke="#9a32cd" points="409.271,-266.894 399.633,-271.293 409.911,-273.865 409.271,-266.894"/>
<text text-anchor="middle" x="491" y="-276" font-family="Arial" font-size="10.00"> cookies</text>
</g>
<!-- Node10&#45;&gt;Node10 -->
<g id="edge10" class="edge"><title>Node10&#45;&gt;Node10</title>
<path fill="none" stroke="#9a32cd" stroke-dasharray="5,2" d="M355.26,-293.4C356.645,-298.315 363.559,-302 376,-302 395.906,-302 401.66,-292.565 393.262,-283.757"/>
<polygon fill="#9a32cd" stroke="#9a32cd" points="358.638,-294.351 358.738,-283.757 352.053,-291.977 358.638,-294.351"/>
<text text-anchor="middle" x="376" y="-305" font-family="Arial" font-size="10.00"> next</text>
</g>
<!-- Node11 -->
<g id="node11" class="node"><title>Node11</title>
<g id="a_node11"><a xlink:href="struct_pure_info.html" target="_top" xlink:title="PureInfo">
<polygon fill="white" stroke="black" points="757,-379.5 757,-398.5 809,-398.5 809,-379.5 757,-379.5"/>
<text text-anchor="middle" x="783" y="-386.5" font-family="Arial" font-size="10.00">PureInfo</text>
</a>
</g>
</g>
<!-- Node11&#45;&gt;Node8 -->
<g id="edge11" class="edge"><title>Node11&#45;&gt;Node8</title>
<path fill="none" stroke="#9a32cd" stroke-dasharray="5,2" d="M819.388,-382.023C833.819,-378.269 850.298,-372.771 864,-365 884.408,-353.426 903.575,-333.479 913.956,-321.636"/>
<polygon fill="#9a32cd" stroke="#9a32cd" points="818.209,-378.707 809.31,-384.456 819.852,-385.511 818.209,-378.707"/>
<text text-anchor="middle" x="850" y="-380" font-family="Arial" font-size="10.00"> info</text>
</g>
<!-- Node12&#45;&gt;Node8 -->
<g id="edge12" class="edge"><title>Node12&#45;&gt;Node8</title>
<path fill="none" stroke="#9a32cd" stroke-dasharray="5,2" d="M818.755,-416.402C833.694,-410.735 850.73,-402.686 864,-392 889.119,-371.772 908.624,-338.109 917.214,-321.653"/>
<polygon fill="#9a32cd" stroke="#9a32cd" points="817.537,-413.121 809.302,-419.787 819.897,-419.711 817.537,-413.121"/>
<text text-anchor="middle" x="850" y="-412" font-family="Arial" font-size="10.00"> state</text>
</g>
<!-- Node13&#45;&gt;Node12 -->
<g id="edge13" class="edge"><title>Node13&#45;&gt;Node12</title>
<path fill="none" stroke="#9a32cd" stroke-dasharray="5,2" d="M641.842,-427C679.492,-427 728.037,-427 756.996,-427"/>
<polygon fill="#9a32cd" stroke="#9a32cd" points="641.537,-423.5 631.537,-427 641.537,-430.5 641.537,-423.5"/>
<text text-anchor="middle" x="690" y="-430" font-family="Arial" font-size="10.00"> session</text>
</g>
<!-- Node14 -->
<g id="node14" class="node"><title>Node14</title>
<g id="a_node14"><a xlink:href="structdigestdata.html" target="_top" xlink:title="digestdata">
<polygon fill="white" stroke="black" points="556,-455.5 556,-474.5 618,-474.5 618,-455.5 556,-455.5"/>
<text text-anchor="middle" x="587" y="-462.5" font-family="Arial" font-size="10.00">digestdata</text>
</a>
</g>
</g>
<!-- Node14&#45;&gt;Node12 -->
<g id="edge17" class="edge"><title>Node14&#45;&gt;Node12</title>
<path fill="none" stroke="#9a32cd" stroke-dasharray="5,2" d="M628.136,-459.812C656.711,-455.8 695.926,-449.645 730,-442 738.801,-440.025 748.314,-437.422 756.767,-434.94"/>
<polygon fill="#9a32cd" stroke="#9a32cd" points="627.548,-456.36 618.119,-461.192 628.503,-463.295 627.548,-456.36"/>
<text text-anchor="middle" x="690" y="-460" font-family="Arial" font-size="10.00"> digest</text>
</g>
<!-- Node15 -->
<g id="node15" class="node"><title>Node15</title>
<g id="a_node15"><a xlink:href="struct__curl__hash.html" target="_top" xlink:title="_curl_hash">
<polygon fill="white" stroke="black" points="555,-248.5 555,-267.5 619,-267.5 619,-248.5 555,-248.5"/>
<text text-anchor="middle" x="587" y="-255.5" font-family="Arial" font-size="10.00">_curl_hash</text>
</a>
</g>
</g>
<!-- Node15&#45;&gt;Node8 -->
<g id="edge18" class="edge"><title>Node15&#45;&gt;Node8</title>
<path fill="none" stroke="#9a32cd" stroke-dasharray="5,2" d="M624.945,-245.506C671.239,-231.858 752.455,-214.603 818,-236 858.604,-249.255 896.512,-285.037 913.144,-302.353"/>
<polygon fill="#9a32cd" stroke="#9a32cd" points="623.883,-242.171 615.338,-248.435 625.924,-248.866 623.883,-242.171"/>
<text text-anchor="middle" x="783" y="-239" font-family="Arial" font-size="10.00"> hostcache</text>
</g>
<!-- Node15&#45;&gt;Node22 -->
<g id="edge33" class="edge"><title>Node15&#45;&gt;Node22</title>
<path fill="none" stroke="#9a32cd" stroke-dasharray="5,2" d="M629.41,-256.911C657.763,-256.503 696.2,-256.616 730,-259 736.906,-259.487 744.294,-260.302 751.27,-261.207"/>
<polygon fill="#9a32cd" stroke="#9a32cd" points="629.007,-253.417 619.069,-257.088 629.127,-260.416 629.007,-253.417"/>
<text text-anchor="middle" x="690" y="-262" font-family="Arial" font-size="10.00"> hostcache</text>
</g>
<!-- Node16 -->
<g id="node16" class="node"><title>Node16</title>
<g id="a_node16"><a xlink:href="struct__curl__llist.html" target="_top" xlink:title="_curl_llist">
<polygon fill="white" stroke="black" points="347,-226.5 347,-245.5 405,-245.5 405,-226.5 347,-226.5"/>
<text text-anchor="middle" x="376" y="-233.5" font-family="Arial" font-size="10.00">_curl_llist</text>
</a>
</g>
</g>
<!-- Node16&#45;&gt;Node15 -->
<g id="edge19" class="edge"><title>Node16&#45;&gt;Node15</title>
<path fill="none" stroke="#9a32cd" stroke-dasharray="5,2" d="M415.38,-240.04C455.498,-244.263 517.682,-250.809 554.862,-254.722"/>
<polygon fill="#9a32cd" stroke="#9a32cd" points="415.498,-236.533 405.187,-238.967 414.765,-243.495 415.498,-236.533"/>
<text text-anchor="middle" x="491" y="-254" font-family="Arial" font-size="10.00"> table</text>
</g>
<!-- Node17 -->
<g id="node17" class="node"><title>Node17</title>
<g id="a_node17"><a xlink:href="struct__curl__llist__element.html" target="_top" xlink:title="_curl_llist_element">
<polygon fill="white" stroke="black" points="118,-226.5 118,-245.5 216,-245.5 216,-226.5 118,-226.5"/>
<text text-anchor="middle" x="167" y="-233.5" font-family="Arial" font-size="10.00">_curl_llist_element</text>
</a>
</g>
</g>
<!-- Node17&#45;&gt;Node16 -->
<g id="edge20" class="edge"><title>Node17&#45;&gt;Node16</title>
<path fill="none" stroke="#9a32cd" stroke-dasharray="5,2" d="M226.057,-236C265.564,-236 316.093,-236 346.975,-236"/>
<polygon fill="#9a32cd" stroke="#9a32cd" points="226.01,-232.5 216.01,-236 226.01,-239.5 226.01,-232.5"/>
<text text-anchor="middle" x="264" y="-250" font-family="Arial" font-size="10.00"> head</text>
<text text-anchor="middle" x="264" y="-239" font-family="Arial" font-size="10.00">tail</text>
</g>
<!-- Node17&#45;&gt;Node17 -->
<g id="edge21" class="edge"><title>Node17&#45;&gt;Node17</title>
<path fill="none" stroke="#9a32cd" stroke-dasharray="5,2" d="M152.636,-255.766C153.764,-260.497 158.552,-264 167,-264 180.863,-264 184.871,-254.565 179.022,-245.757"/>
<polygon fill="#9a32cd" stroke="#9a32cd" points="156.107,-256.292 154.978,-245.757 149.292,-254.697 156.107,-256.292"/>
<text text-anchor="middle" x="167" y="-278" font-family="Arial" font-size="10.00"> prev</text>
<text text-anchor="middle" x="167" y="-267" font-family="Arial" font-size="10.00">next</text>
</g>
<!-- Node18&#45;&gt;Node8 -->
<g id="edge22" class="edge"><title>Node18&#45;&gt;Node8</title>
<path fill="none" stroke="#9a32cd" stroke-dasharray="5,2" d="M813.685,-162.415C830.056,-171.477 849.868,-184.402 864,-200 893.11,-232.13 911.887,-281.558 918.9,-302.306"/>
<polygon fill="#9a32cd" stroke="#9a32cd" points="814.984,-159.142 804.512,-157.535 811.696,-165.322 814.984,-159.142"/>
<text text-anchor="middle" x="850" y="-203" font-family="Arial" font-size="10.00"> set</text>
</g>
<!-- Node19 -->
<g id="node19" class="node"><title>Node19</title>
<g id="a_node19"><a xlink:href="structcurl__httppost.html" target="_top" xlink:title="curl_httppost">
<polygon fill="white" stroke="black" points="550.5,-21.5 550.5,-40.5 623.5,-40.5 623.5,-21.5 550.5,-21.5"/>
<text text-anchor="middle" x="587" y="-28.5" font-family="Arial" font-size="10.00">curl_httppost</text>
</a>
</g>
</g>
<!-- Node19&#45;&gt;Node18 -->
<g id="edge24" class="edge"><title>Node19&#45;&gt;Node18</title>
<path fill="none" stroke="#9a32cd" stroke-dasharray="5,2" d="M629.751,-43.7586C659.366,-54.0012 699.166,-70.2619 730,-92 748.651,-105.149 765.713,-125.908 774.902,-138.116"/>
<polygon fill="#9a32cd" stroke="#9a32cd" points="630.72,-40.3917 620.126,-40.5165 628.485,-47.0255 630.72,-40.3917"/>
<text text-anchor="middle" x="690" y="-95" font-family="Arial" font-size="10.00"> httppost</text>
</g>
<!-- Node19&#45;&gt;Node19 -->
<g id="edge25" class="edge"><title>Node19&#45;&gt;Node19</title>
<path fill="none" stroke="#9a32cd" stroke-dasharray="5,2" d="M569.223,-50.4C570.41,-55.3146 576.336,-59 587,-59 604.063,-59 608.995,-49.5653 601.796,-40.7571"/>
<polygon fill="#9a32cd" stroke="#9a32cd" points="572.594,-51.3447 572.204,-40.7571 565.907,-49.2775 572.594,-51.3447"/>
<text text-anchor="middle" x="587" y="-73" font-family="Arial" font-size="10.00"> next</text>
<text text-anchor="middle" x="587" y="-62" font-family="Arial" font-size="10.00">more</text>
</g>
<!-- Node20 -->
<g id="node20" class="node"><title>Node20</title>
<g id="a_node20"><a xlink:href="structcurl__slist.html" target="_top" xlink:title="curl_slist">
<polygon fill="white" stroke="black" points="348,-21.5 348,-40.5 404,-40.5 404,-21.5 348,-21.5"/>
<text text-anchor="middle" x="376" y="-28.5" font-family="Arial" font-size="10.00">curl_slist</text>
</a>
</g>
</g>
<!-- Node20&#45;&gt;Node18 -->
<g id="edge28" class="edge"><title>Node20&#45;&gt;Node18</title>
<path fill="none" stroke="#9a32cd" stroke-dasharray="5,2" d="M410.691,-44.2368C443.794,-56.9587 495.903,-76.2308 542,-90 614.699,-111.715 701.599,-131.129 748.31,-141.043"/>
<polygon fill="#9a32cd" stroke="#9a32cd" points="411.645,-40.8532 401.055,-40.5122 409.121,-47.3824 411.645,-40.8532"/>
<text text-anchor="middle" x="587" y="-172" font-family="Arial" font-size="10.00"> headers</text>
<text text-anchor="middle" x="587" y="-161" font-family="Arial" font-size="10.00">prequote</text>
<text text-anchor="middle" x="587" y="-150" font-family="Arial" font-size="10.00">telnet_options</text>
<text text-anchor="middle" x="587" y="-139" font-family="Arial" font-size="10.00">postquote</text>
<text text-anchor="middle" x="587" y="-128" font-family="Arial" font-size="10.00">quote</text>
<text text-anchor="middle" x="587" y="-117" font-family="Arial" font-size="10.00">http200aliases</text>
</g>
<!-- Node20&#45;&gt;Node19 -->
<g id="edge26" class="edge"><title>Node20&#45;&gt;Node19</title>
<path fill="none" stroke="#9a32cd" stroke-dasharray="5,2" d="M414.59,-31C453.081,-31 512.473,-31 550.272,-31"/>
<polygon fill="#9a32cd" stroke="#9a32cd" points="414.323,-27.5001 404.323,-31 414.323,-34.5001 414.323,-27.5001"/>
<text text-anchor="middle" x="491" y="-34" font-family="Arial" font-size="10.00"> contentheader</text>
</g>
<!-- Node20&#45;&gt;Node20 -->
<g id="edge27" class="edge"><title>Node20&#45;&gt;Node20</title>
<path fill="none" stroke="#9a32cd" stroke-dasharray="5,2" d="M355.26,-50.4C356.645,-55.3146 363.559,-59 376,-59 395.906,-59 401.66,-49.5653 393.262,-40.7571"/>
<polygon fill="#9a32cd" stroke="#9a32cd" points="358.638,-51.3514 358.738,-40.7571 352.053,-48.9768 358.638,-51.3514"/>
<text text-anchor="middle" x="376" y="-62" font-family="Arial" font-size="10.00"> next</text>
</g>
<!-- Node23 -->
<g id="node23" class="node"><title>Node23</title>
<g id="a_node23"><a xlink:href="struct_dynamic_static.html" target="_top" xlink:title="DynamicStatic">
<polygon fill="white" stroke="black" points="650,-0.5 650,-19.5 730,-19.5 730,-0.5 650,-0.5"/>
<text text-anchor="middle" x="690" y="-7.5" font-family="Arial" font-size="10.00">DynamicStatic</text>
</a>
</g>
</g>
<!-- Node20&#45;&gt;Node23 -->
<g id="edge35" class="edge"><title>Node20&#45;&gt;Node23</title>
<path fill="none" stroke="#9a32cd" stroke-dasharray="5,2" d="M414.262,-23.0064C427.954,-20.3588 443.623,-17.6658 458,-16 524.95,-8.24311 603.511,-8.08315 649.611,-8.88977"/>
<polygon fill="#9a32cd" stroke="#9a32cd" points="413.354,-19.6183 404.231,-25.0045 414.722,-26.4835 413.354,-19.6183"/>
<text text-anchor="middle" x="491" y="-19" font-family="Arial" font-size="10.00"> cookielist</text>
</g>
<!-- Node21&#45;&gt;Node8 -->
<g id="edge29" class="edge"><title>Node21&#45;&gt;Node8</title>
<path fill="none" stroke="#9a32cd" stroke-dasharray="5,2" d="M529.1,-312.211C533.414,-313.308 537.78,-314.276 542,-315 683.117,-339.221 721.689,-340.753 864,-325 870.872,-324.239 878.12,-322.986 885.076,-321.551"/>
<polygon fill="#9a32cd" stroke="#9a32cd" points="529.794,-308.771 519.222,-309.471 527.923,-315.516 529.794,-308.771"/>
<text text-anchor="middle" x="690" y="-339" font-family="Arial" font-size="10.00"> progress</text>
</g>
<!-- Node22&#45;&gt;Node8 -->
<g id="edge31" class="edge"><title>Node22&#45;&gt;Node8</title>
<path fill="none" stroke="#9a32cd" stroke-dasharray="5,2" d="M824.597,-275.396C837.331,-278.679 851.359,-282.644 864,-287 876.855,-291.43 890.864,-297.433 901.894,-302.447"/>
<polygon fill="#9a32cd" stroke="#9a32cd" points="825.264,-271.955 814.713,-272.916 823.56,-278.745 825.264,-271.955"/>
<text text-anchor="middle" x="850" y="-290" font-family="Arial" font-size="10.00"> share</text>
</g>
<!-- Node23&#45;&gt;Node8 -->
<g id="edge34" class="edge"><title>Node23&#45;&gt;Node8</title>
<path fill="none" stroke="#9a32cd" stroke-dasharray="5,2" d="M714.214,-25.4776C751.434,-51.5049 824.3,-107.649 864,-173 891.56,-218.366 911.882,-279.188 919.115,-302.427"/>
<polygon fill="#9a32cd" stroke="#9a32cd" points="715.783,-22.3086 705.561,-19.522 711.814,-28.0748 715.783,-22.3086"/>
<text text-anchor="middle" x="783" y="-115" font-family="Arial" font-size="10.00"> change</text>
</g>
<!-- Node24 -->
<g id="node24" class="node"><title>Node24</title>
<g id="a_node24"><a xlink:href="structconnectdata_1_1dynamically__allocated__data.html" target="_top" xlink:title="connectdata::dynamically\l_allocated_data">
<polygon fill="white" stroke="black" points="312,-628 312,-658 440,-658 440,-628 312,-628"/>
<text text-anchor="start" x="320" y="-646" font-family="Arial" font-size="10.00">connectdata::dynamically</text>
<text text-anchor="middle" x="376" y="-635" font-family="Arial" font-size="10.00">_allocated_data</text>
</a>
</g>
</g>
<!-- Node24&#45;&gt;Node1 -->
<g id="edge36" class="edge"><title>Node24&#45;&gt;Node1</title>
<path fill="none" stroke="#9a32cd" stroke-dasharray="5,2" d="M450.329,-637.737C484.833,-635.261 524.326,-632.426 551.77,-630.457"/>
<polygon fill="#9a32cd" stroke="#9a32cd" points="449.998,-634.252 440.274,-638.459 450.499,-641.234 449.998,-634.252"/>
<text text-anchor="middle" x="491" y="-640" font-family="Arial" font-size="10.00"> allocptr</text>
</g>
<!-- Node25 -->
<g id="node25" class="node"><title>Node25</title>
<g id="a_node25"><a xlink:href="struct_h_t_t_p.html" target="_top" xlink:title="HTTP">
<polygon fill="white" stroke="black" points="355.5,-589.5 355.5,-608.5 396.5,-608.5 396.5,-589.5 355.5,-589.5"/>
<text text-anchor="middle" x="376" y="-596.5" font-family="Arial" font-size="10.00">HTTP</text>
</a>
</g>
</g>
<!-- Node25&#45;&gt;Node1 -->
<g id="edge37" class="edge"><title>Node25&#45;&gt;Node1</title>
<path fill="none" stroke="#9a32cd" stroke-dasharray="5,2" d="M407.095,-593.941C437.155,-589.918 484.455,-586.397 524,-596 541.656,-600.288 559.908,-610.537 571.995,-618.29"/>
<polygon fill="#9a32cd" stroke="#9a32cd" points="406.242,-590.528 396.846,-595.423 407.244,-597.456 406.242,-590.528"/>
<text text-anchor="middle" x="491" y="-621" font-family="Arial" font-size="10.00"> https</text>
<text text-anchor="middle" x="491" y="-610" font-family="Arial" font-size="10.00">http</text>
<text text-anchor="middle" x="491" y="-599" font-family="Arial" font-size="10.00">gopher</text>
</g>
<!-- Node26 -->
<g id="node26" class="node"><title>Node26</title>
<g id="a_node26"><a xlink:href="struct_form.html" target="_top" xlink:title="Form">
<polygon fill="white" stroke="black" points="147.5,-568.5 147.5,-587.5 186.5,-587.5 186.5,-568.5 147.5,-568.5"/>
<text text-anchor="middle" x="167" y="-575.5" font-family="Arial" font-size="10.00">Form</text>
</a>
</g>
</g>
<!-- Node26&#45;&gt;Node25 -->
<g id="edge38" class="edge"><title>Node26&#45;&gt;Node25</title>
<path fill="none" stroke="#9a32cd" stroke-dasharray="5,2" d="M196.757,-580.917C239.449,-585.248 318.495,-593.268 355.252,-596.997"/>
<polygon fill="#9a32cd" stroke="#9a32cd" points="197.037,-577.428 186.735,-579.901 196.331,-584.392 197.037,-577.428"/>
<text text-anchor="middle" x="264" y="-594" font-family="Arial" font-size="10.00"> form</text>
</g>
<!-- Node27 -->
<g id="node27" class="node"><title>Node27</title>
<g id="a_node27"><a xlink:href="struct_form_data.html" target="_top" xlink:title="FormData">
<polygon fill="white" stroke="black" points="0.5,-653.5 0.5,-672.5 59.5,-672.5 59.5,-653.5 0.5,-653.5"/>
<text text-anchor="middle" x="30" y="-660.5" font-family="Arial" font-size="10.00">FormData</text>
</a>
</g>
</g>
<!-- Node27&#45;&gt;Node25 -->
<g id="edge41" class="edge"><title>Node27&#45;&gt;Node25</title>
<path fill="none" stroke="#9a32cd" stroke-dasharray="5,2" d="M69.4826,-675.162C125.406,-690.236 229.481,-708.153 294,-657 308.959,-645.14 297.593,-630.525 312,-618 324.07,-607.506 341.78,-602.808 355.351,-600.704"/>
<polygon fill="#9a32cd" stroke="#9a32cd" points="70.1949,-671.726 59.6213,-672.397 68.3054,-678.467 70.1949,-671.726"/>
<text text-anchor="middle" x="167" y="-694" font-family="Arial" font-size="10.00"> sendit</text>
</g>
<!-- Node27&#45;&gt;Node26 -->
<g id="edge39" class="edge"><title>Node27&#45;&gt;Node26</title>
<path fill="none" stroke="#9a32cd" stroke-dasharray="5,2" d="M49.5507,-646.538C66.4908,-632.106 92.68,-611.261 118,-597 127.215,-591.81 138.133,-587.368 147.226,-584.087"/>
<polygon fill="#9a32cd" stroke="#9a32cd" points="46.858,-644.239 41.5888,-653.431 51.4399,-649.532 46.858,-644.239"/>
<text text-anchor="middle" x="89" y="-627" font-family="Arial" font-size="10.00"> data</text>
</g>
<!-- Node27&#45;&gt;Node27 -->
<g id="edge40" class="edge"><title>Node27&#45;&gt;Node27</title>
<path fill="none" stroke="#9a32cd" stroke-dasharray="5,2" d="M19.3189,-682.766C20.1578,-687.497 23.7182,-691 30,-691 40.3086,-691 43.2884,-681.565 38.9395,-672.757"/>
<polygon fill="#9a32cd" stroke="#9a32cd" points="22.7944,-683.209 21.0605,-672.757 15.898,-682.009 22.7944,-683.209"/>
<text text-anchor="middle" x="30" y="-694" font-family="Arial" font-size="10.00"> next</text>
</g>
<!-- Node28 -->
<g id="node28" class="node"><title>Node28</title>
<g id="a_node28"><a xlink:href="struct_h_t_t_p_1_1back.html" target="_top" xlink:title="HTTP::back">
<polygon fill="white" stroke="black" points="133,-644.5 133,-663.5 201,-663.5 201,-644.5 133,-644.5"/>
<text text-anchor="middle" x="167" y="-651.5" font-family="Arial" font-size="10.00">HTTP::back</text>
</a>
</g>
</g>
<!-- Node28&#45;&gt;Node25 -->
<g id="edge42" class="edge"><title>Node28&#45;&gt;Node25</title>
<path fill="none" stroke="#9a32cd" stroke-dasharray="5,2" d="M211.222,-646.609C235.812,-641.857 266.998,-634.901 294,-626 302.314,-623.259 303.793,-621.048 312,-618 326.351,-612.671 342.939,-607.715 355.491,-604.202"/>
<polygon fill="#9a32cd" stroke="#9a32cd" points="210.299,-643.222 201.118,-648.51 211.593,-650.101 210.299,-643.222"/>
<text text-anchor="middle" x="264" y="-645" font-family="Arial" font-size="10.00"> backup</text>
</g>
<!-- Node29 -->
<g id="node29" class="node"><title>Node29</title>
<g id="a_node29"><a xlink:href="struct_curl__chunker.html" target="_top" xlink:title="Curl_chunker">
<polygon fill="white" stroke="black" points="130,-606.5 130,-625.5 204,-625.5 204,-606.5 130,-606.5"/>
<text text-anchor="middle" x="167" y="-613.5" font-family="Arial" font-size="10.00">Curl_chunker</text>
</a>
</g>
</g>
<!-- Node29&#45;&gt;Node25 -->
<g id="edge43" class="edge"><title>Node29&#45;&gt;Node25</title>
<path fill="none" stroke="#9a32cd" stroke-dasharray="5,2" d="M214.278,-612.199C258.522,-608.566 323.111,-603.261 355.275,-600.62"/>
<polygon fill="#9a32cd" stroke="#9a32cd" points="213.737,-608.732 204.057,-613.039 214.31,-615.708 213.737,-608.732"/>
<text text-anchor="middle" x="264" y="-614" font-family="Arial" font-size="10.00"> chunk</text>
</g>
<!-- Node30 -->
<g id="node30" class="node"><title>Node30</title>
<g id="a_node30"><a xlink:href="struct_connect_bits.html" target="_top" xlink:title="ConnectBits">
<polygon fill="white" stroke="black" points="341,-455.5 341,-474.5 411,-474.5 411,-455.5 341,-455.5"/>
<text text-anchor="middle" x="376" y="-462.5" font-family="Arial" font-size="10.00">ConnectBits</text>
</a>
</g>
</g>
<!-- Node30&#45;&gt;Node1 -->
<g id="edge46" class="edge"><title>Node30&#45;&gt;Node1</title>
<path fill="none" stroke="#9a32cd" stroke-dasharray="5,2" d="M421.224,-467.963C458.525,-471.27 508.279,-477.837 524,-490 567.001,-523.27 580.998,-592.964 584.781,-618.425"/>
<polygon fill="#9a32cd" stroke="#9a32cd" points="421.328,-464.459 411.072,-467.114 420.745,-471.435 421.328,-464.459"/>
<text text-anchor="middle" x="491" y="-493" font-family="Arial" font-size="10.00"> bits</text>
</g>
<!-- Node31 -->
<g id="node31" class="node"><title>Node31</title>
<g id="a_node31"><a xlink:href="struct_f_i_l_e_p_r_o_t_o.html" target="_top" xlink:title="FILEPROTO">
<polygon fill="white" stroke="black" points="340.5,-876.5 340.5,-895.5 411.5,-895.5 411.5,-876.5 340.5,-876.5"/>
<text text-anchor="middle" x="376" y="-883.5" font-family="Arial" font-size="10.00">FILEPROTO</text>
</a>
</g>
</g>
<!-- Node31&#45;&gt;Node1 -->
<g id="edge47" class="edge"><title>Node31&#45;&gt;Node1</title>
<path fill="none" stroke="#9a32cd" stroke-dasharray="5,2" d="M421.875,-891.34C454.139,-892.595 496.615,-888.568 524,-864 559.002,-832.599 579.922,-678.184 584.862,-637.721"/>
<polygon fill="#9a32cd" stroke="#9a32cd" points="421.973,-887.84 411.791,-890.766 421.576,-894.829 421.973,-887.84"/>
<text text-anchor="middle" x="491" y="-893" font-family="Arial" font-size="10.00"> file</text>
</g>
<!-- Node32 -->
<g id="node32" class="node"><title>Node32</title>
<g id="a_node32"><a xlink:href="struct_f_t_p.html" target="_top" xlink:title="FTP">
<polygon fill="white" stroke="black" points="358.5,-838.5 358.5,-857.5 393.5,-857.5 393.5,-838.5 358.5,-838.5"/>
<text text-anchor="middle" x="376" y="-845.5" font-family="Arial" font-size="10.00">FTP</text>
</a>
</g>
</g>
<!-- Node32&#45;&gt;Node1 -->
<g id="edge48" class="edge"><title>Node32&#45;&gt;Node1</title>
<path fill="none" stroke="#9a32cd" stroke-dasharray="5,2" d="M403.938,-851.841C436.338,-854.87 490.535,-854.645 524,-826 582.835,-775.64 586.576,-670.212 586.266,-637.734"/>
<polygon fill="#9a32cd" stroke="#9a32cd" points="404.171,-848.345 393.847,-850.725 403.401,-855.303 404.171,-848.345"/>
<text text-anchor="middle" x="491" y="-855" font-family="Arial" font-size="10.00"> ftp</text>
</g>
<!-- Node33 -->
<g id="node33" class="node"><title>Node33</title>
<g id="a_node33"><a xlink:href="structssl__connect__data.html" target="_top" xlink:title="ssl_connect_data">
<polygon fill="white" stroke="black" points="329.5,-800.5 329.5,-819.5 422.5,-819.5 422.5,-800.5 329.5,-800.5"/>
<text text-anchor="middle" x="376" y="-807.5" font-family="Arial" font-size="10.00">ssl_connect_data</text>
</a>
</g>
</g>
<!-- Node33&#45;&gt;Node1 -->
<g id="edge49" class="edge"><title>Node33&#45;&gt;Node1</title>
<path fill="none" stroke="#9a32cd" stroke-dasharray="5,2" d="M432.854,-813.096C462.845,-811.895 498.733,-805.498 524,-785 571.792,-746.228 582.896,-665.419 585.343,-637.63"/>
<polygon fill="#9a32cd" stroke="#9a32cd" points="432.441,-809.604 422.519,-813.319 432.592,-816.602 432.441,-809.604"/>
<text text-anchor="middle" x="491" y="-814" font-family="Arial" font-size="10.00"> ssl</text>
</g>
</g>
</svg>
