<?xml version="1.0" encoding="UTF-8" standalone="no"?>
<!DOCTYPE svg PUBLIC "-//W3C//DTD SVG 1.1//EN"
 "http://www.w3.org/Graphics/SVG/1.1/DTD/svg11.dtd">
<!-- Generated by graphviz version 2.34.0 (20130907.0111)
 -->
<!-- Title: maObject_t Pages: 1 -->
<svg width="402pt" height="268pt"
 viewBox="0.00 0.00 402.11 268.00" xmlns="http://www.w3.org/2000/svg" xmlns:xlink="http://www.w3.org/1999/xlink">
<g id="graph0" class="graph" transform="scale(1 1) rotate(0) translate(4 264)">
<title>maObject_t</title>
<polygon fill="white" stroke="white" points="-4,4 -4,-264 398.112,-264 398.112,4 -4,4"/>
<!-- Node1 -->
<g id="node1" class="node"><title>Node1</title>
<polygon fill="#bfbfbf" stroke="black" points="140.612,-0.5 140.612,-19.5 207.612,-19.5 207.612,-0.5 140.612,-0.5"/>
<text text-anchor="middle" x="174.112" y="-7.5" font-family="Arial" font-size="10.00">maObject_t</text>
</g>
<!-- Node2 -->
<g id="node2" class="node"><title>Node2</title>
<g id="a_node2"><a xlink:href="structma_mesh__t.html" target="_top" xlink:title="maMesh_t">
<polygon fill="white" stroke="black" points="143.112,-68.5 143.112,-87.5 205.112,-87.5 205.112,-68.5 143.112,-68.5"/>
<text text-anchor="middle" x="174.112" y="-75.5" font-family="Arial" font-size="10.00">maMesh_t</text>
</a>
</g>
</g>
<!-- Node2&#45;&gt;Node1 -->
<g id="edge1" class="edge"><title>Node2&#45;&gt;Node1</title>
<path fill="none" stroke="#9a32cd" stroke-dasharray="5,2" d="M174.112,-58.0413C174.112,-45.4724 174.112,-29.5631 174.112,-19.8411"/>
<polygon fill="#9a32cd" stroke="#9a32cd" points="170.612,-58.3716 174.112,-68.3717 177.612,-58.3717 170.612,-58.3716"/>
<text text-anchor="middle" x="188.112" y="-41.5" font-family="Arial" font-size="10.00"> mesh</text>
</g>
<!-- Node3 -->
<g id="node3" class="node"><title>Node3</title>
<g id="a_node3"><a xlink:href="structma_face__t.html" target="_top" xlink:title="maFace_t">
<polygon fill="white" stroke="black" points="54.1119,-143.5 54.1119,-162.5 114.112,-162.5 114.112,-143.5 54.1119,-143.5"/>
<text text-anchor="middle" x="84.1119" y="-150.5" font-family="Arial" font-size="10.00">maFace_t</text>
</a>
</g>
</g>
<!-- Node3&#45;&gt;Node2 -->
<g id="edge2" class="edge"><title>Node3&#45;&gt;Node2</title>
<path fill="none" stroke="#9a32cd" stroke-dasharray="5,2" d="M102.995,-136.684C121.35,-121.796 148.57,-99.717 163.448,-87.6495"/>
<polygon fill="#9a32cd" stroke="#9a32cd" points="100.351,-134.322 94.7895,-143.339 104.761,-139.758 100.351,-134.322"/>
<text text-anchor="middle" x="153.612" y="-109.5" font-family="Arial" font-size="10.00"> faces</text>
</g>
<!-- Node4 -->
<g id="node4" class="node"><title>Node4</title>
<g id="a_node4"><a xlink:href="classid_vec3.html" target="_top" xlink:title="idVec3">
<polygon fill="white" stroke="black" points="60.6119,-240.5 60.6119,-259.5 107.612,-259.5 107.612,-240.5 60.6119,-240.5"/>
<text text-anchor="middle" x="84.1119" y="-247.5" font-family="Arial" font-size="10.00">idVec3</text>
</a>
</g>
</g>
<!-- Node4&#45;&gt;Node2 -->
<g id="edge8" class="edge"><title>Node4&#45;&gt;Node2</title>
<path fill="none" stroke="#9a32cd" stroke-dasharray="5,2" d="M61.7821,-234.629C31.0211,-213.021 -17.904,-170.971 7.11191,-136 38.0359,-92.7695 103.75,-81.9551 142.894,-79.4746"/>
<polygon fill="#9a32cd" stroke="#9a32cd" points="60.0349,-237.673 70.272,-240.403 63.9718,-231.885 60.0349,-237.673"/>
<text text-anchor="middle" x="26.1119" y="-161.5" font-family="Arial" font-size="10.00"> normals</text>
<text text-anchor="middle" x="26.1119" y="-150.5" font-family="Arial" font-size="10.00">vertexes</text>
<text text-anchor="middle" x="26.1119" y="-139.5" font-family="Arial" font-size="10.00">edges</text>
</g>
<!-- Node4&#45;&gt;Node3 -->
<g id="edge3" class="edge"><title>Node4&#45;&gt;Node3</title>
<path fill="none" stroke="#9a32cd" stroke-dasharray="5,2" d="M84.1119,-230.227C84.1119,-209.793 84.1119,-178.001 84.1119,-162.746"/>
<polygon fill="#9a32cd" stroke="#9a32cd" points="80.612,-230.233 84.1119,-240.233 87.612,-230.233 80.612,-230.233"/>
<text text-anchor="middle" x="116.612" y="-202.5" font-family="Arial" font-size="10.00"> vertexNormals</text>
</g>
<!-- Node5 -->
<g id="node5" class="node"><title>Node5</title>
<g id="a_node5"><a xlink:href="structma_transform__s.html" target="_top" xlink:title="maTransform_s">
<polygon fill="white" stroke="black" points="132.612,-143.5 132.612,-162.5 215.612,-162.5 215.612,-143.5 132.612,-143.5"/>
<text text-anchor="middle" x="174.112" y="-150.5" font-family="Arial" font-size="10.00">maTransform_s</text>
</a>
</g>
</g>
<!-- Node4&#45;&gt;Node5 -->
<g id="edge6" class="edge"><title>Node4&#45;&gt;Node5</title>
<path fill="none" stroke="#9a32cd" stroke-dasharray="5,2" d="M117.483,-241.764C129.442,-237.704 142.164,-231.473 151.112,-222 167.03,-205.149 171.959,-176.888 173.464,-162.693"/>
<polygon fill="#9a32cd" stroke="#9a32cd" points="116.294,-238.467 107.718,-244.688 118.301,-245.173 116.294,-238.467"/>
<text text-anchor="middle" x="188.112" y="-213.5" font-family="Arial" font-size="10.00"> scale</text>
<text text-anchor="middle" x="188.112" y="-202.5" font-family="Arial" font-size="10.00">rotate</text>
<text text-anchor="middle" x="188.112" y="-191.5" font-family="Arial" font-size="10.00">translate</text>
</g>
<!-- Node5&#45;&gt;Node2 -->
<g id="edge4" class="edge"><title>Node5&#45;&gt;Node2</title>
<path fill="none" stroke="#9a32cd" stroke-dasharray="5,2" d="M174.112,-133.328C174.112,-118.637 174.112,-98.8394 174.112,-87.6495"/>
<polygon fill="#9a32cd" stroke="#9a32cd" points="170.612,-133.339 174.112,-143.339 177.612,-133.339 170.612,-133.339"/>
<text text-anchor="middle" x="196.112" y="-109.5" font-family="Arial" font-size="10.00"> transform</text>
</g>
<!-- Node5&#45;&gt;Node5 -->
<g id="edge5" class="edge"><title>Node5&#45;&gt;Node5</title>
<path fill="none" stroke="#9a32cd" stroke-dasharray="5,2" d="M225.962,-158.832C230.366,-157.586 233.112,-155.642 233.112,-153 233.112,-148.664 225.717,-146.208 215.737,-145.632"/>
<polygon fill="#9a32cd" stroke="#9a32cd" points="225.106,-155.421 215.737,-160.368 226.146,-162.344 225.106,-155.421"/>
<text text-anchor="middle" x="248.612" y="-150.5" font-family="Arial" font-size="10.00"> parent</text>
</g>
<!-- Node6 -->
<g id="node6" class="node"><title>Node6</title>
<g id="a_node6"><a xlink:href="classid_vec2.html" target="_top" xlink:title="idVec2">
<polygon fill="white" stroke="black" points="282.612,-143.5 282.612,-162.5 329.612,-162.5 329.612,-143.5 282.612,-143.5"/>
<text text-anchor="middle" x="306.112" y="-150.5" font-family="Arial" font-size="10.00">idVec2</text>
</a>
</g>
</g>
<!-- Node6&#45;&gt;Node2 -->
<g id="edge7" class="edge"><title>Node6&#45;&gt;Node2</title>
<path fill="none" stroke="#9a32cd" stroke-dasharray="5,2" d="M281.937,-138.631C255.12,-123.8 212.634,-100.304 189.823,-87.6889"/>
<polygon fill="#9a32cd" stroke="#9a32cd" points="280.267,-141.706 290.711,-143.483 283.654,-135.581 280.267,-141.706"/>
<text text-anchor="middle" x="265.612" y="-109.5" font-family="Arial" font-size="10.00"> tvertexes</text>
</g>
<!-- Node7 -->
<g id="node7" class="node"><title>Node7</title>
<g id="a_node7"><a xlink:href="classid_vec4.html" target="_top" xlink:title="idVec4">
<polygon fill="white" stroke="black" points="347.612,-143.5 347.612,-162.5 394.612,-162.5 394.612,-143.5 347.612,-143.5"/>
<text text-anchor="middle" x="371.112" y="-150.5" font-family="Arial" font-size="10.00">idVec4</text>
</a>
</g>
</g>
<!-- Node7&#45;&gt;Node2 -->
<g id="edge9" class="edge"><title>Node7&#45;&gt;Node2</title>
<path fill="none" stroke="#9a32cd" stroke-dasharray="5,2" d="M350.557,-137.909C334.882,-127.738 312.428,-114.374 291.112,-106 262.978,-94.9478 229.179,-87.7537 205.158,-83.5928"/>
<polygon fill="#9a32cd" stroke="#9a32cd" points="348.674,-140.86 358.943,-143.467 352.541,-135.025 348.674,-140.86"/>
<text text-anchor="middle" x="350.612" y="-109.5" font-family="Arial" font-size="10.00"> vertTransforms</text>
</g>
</g>
</svg>
