<?xml version="1.0" encoding="UTF-8" standalone="no"?>
<!DOCTYPE svg PUBLIC "-//W3C//DTD SVG 1.1//EN"
 "http://www.w3.org/Graphics/SVG/1.1/DTD/svg11.dtd">
<!-- Generated by graphviz version 2.34.0 (20130907.0111)
 -->
<!-- Title: st_lwPolVert Pages: 1 -->
<svg width="116pt" height="166pt"
 viewBox="0.00 0.00 116.00 166.00" xmlns="http://www.w3.org/2000/svg" xmlns:xlink="http://www.w3.org/1999/xlink">
<g id="graph0" class="graph" transform="scale(1 1) rotate(0) translate(4 162)">
<title>st_lwPolVert</title>
<polygon fill="white" stroke="white" points="-4,4 -4,-162 112,-162 112,4 -4,4"/>
<!-- Node1 -->
<g id="node1" class="node"><title>Node1</title>
<polygon fill="#bfbfbf" stroke="black" points="1.5,-0.5 1.5,-19.5 72.5,-19.5 72.5,-0.5 1.5,-0.5"/>
<text text-anchor="middle" x="37" y="-7.5" font-family="Arial" font-size="10.00">st_lwPolVert</text>
</g>
<!-- Node2 -->
<g id="node2" class="node"><title>Node2</title>
<g id="a_node2"><a xlink:href="structst__lw_v_map_pt.html" target="_top" xlink:title="st_lwVMapPt">
<polygon fill="white" stroke="black" points="0,-68.5 0,-87.5 74,-87.5 74,-68.5 0,-68.5"/>
<text text-anchor="middle" x="37" y="-75.5" font-family="Arial" font-size="10.00">st_lwVMapPt</text>
</a>
</g>
</g>
<!-- Node2&#45;&gt;Node1 -->
<g id="edge1" class="edge"><title>Node2&#45;&gt;Node1</title>
<path fill="none" stroke="#9a32cd" stroke-dasharray="5,2" d="M37,-58.0413C37,-45.4724 37,-29.5631 37,-19.8411"/>
<polygon fill="#9a32cd" stroke="#9a32cd" points="33.5001,-58.3716 37,-68.3717 40.5001,-58.3717 33.5001,-58.3716"/>
<text text-anchor="middle" x="45" y="-41.5" font-family="Arial" font-size="10.00"> vm</text>
</g>
<!-- Node3 -->
<g id="node3" class="node"><title>Node3</title>
<g id="a_node3"><a xlink:href="structst__lw_v_map.html" target="_top" xlink:title="st_lwVMap">
<polygon fill="white" stroke="black" points="4.5,-137.5 4.5,-156.5 69.5,-156.5 69.5,-137.5 4.5,-137.5"/>
<text text-anchor="middle" x="37" y="-144.5" font-family="Arial" font-size="10.00">st_lwVMap</text>
</a>
</g>
</g>
<!-- Node3&#45;&gt;Node2 -->
<g id="edge2" class="edge"><title>Node3&#45;&gt;Node2</title>
<path fill="none" stroke="#9a32cd" stroke-dasharray="5,2" d="M37,-127.018C37,-114.034 37,-97.4419 37,-87.5494"/>
<polygon fill="#9a32cd" stroke="#9a32cd" points="33.5001,-127.241 37,-137.241 40.5001,-127.241 33.5001,-127.241"/>
<text text-anchor="middle" x="50" y="-109.5" font-family="Arial" font-size="10.00"> vmap</text>
</g>
<!-- Node3&#45;&gt;Node3 -->
<g id="edge3" class="edge"><title>Node3&#45;&gt;Node3</title>
<path fill="none" stroke="#9a32cd" stroke-dasharray="5,2" d="M79.791,-152.255C84.1888,-151.22 87,-149.468 87,-147 87,-142.949 79.4296,-140.829 69.7005,-140.639"/>
<polygon fill="#9a32cd" stroke="#9a32cd" points="79.2595,-148.792 69.7005,-153.361 80.0224,-155.75 79.2595,-148.792"/>
<text text-anchor="middle" x="97.5" y="-150" font-family="Arial" font-size="10.00"> prev</text>
<text text-anchor="middle" x="97.5" y="-139" font-family="Arial" font-size="10.00">next</text>
</g>
</g>
</svg>
