<?xml version="1.0" encoding="UTF-8" standalone="no"?>
<!DOCTYPE svg PUBLIC "-//W3C//DTD SVG 1.1//EN"
 "http://www.w3.org/Graphics/SVG/1.1/DTD/svg11.dtd">
<!-- Generated by graphviz version 2.34.0 (20130907.0111)
 -->
<!-- Title: huff_entropy_decoder Pages: 1 -->
<svg width="423pt" height="174pt"
 viewBox="0.00 0.00 423.00 174.00" xmlns="http://www.w3.org/2000/svg" xmlns:xlink="http://www.w3.org/1999/xlink">
<g id="graph0" class="graph" transform="scale(1 1) rotate(0) translate(4 170)">
<title>huff_entropy_decoder</title>
<polygon fill="white" stroke="white" points="-4,4 -4,-170 419,-170 419,4 -4,4"/>
<!-- Node1 -->
<g id="node1" class="node"><title>Node1</title>
<polygon fill="#bfbfbf" stroke="black" points="139.5,-0.5 139.5,-19.5 248.5,-19.5 248.5,-0.5 139.5,-0.5"/>
<text text-anchor="middle" x="194" y="-7.5" font-family="Arial" font-size="10.00">huff_entropy_decoder</text>
</g>
<!-- Node2 -->
<g id="node2" class="node"><title>Node2</title>
<g id="a_node2"><a xlink:href="structd__derived__tbl.html" target="_top" xlink:title="d_derived_tbl">
<polygon fill="white" stroke="black" points="-0.5,-78.5 -0.5,-97.5 72.5,-97.5 72.5,-78.5 -0.5,-78.5"/>
<text text-anchor="middle" x="36" y="-85.5" font-family="Arial" font-size="10.00">d_derived_tbl</text>
</a>
</g>
</g>
<!-- Node2&#45;&gt;Node1 -->
<g id="edge1" class="edge"><title>Node2&#45;&gt;Node1</title>
<path fill="none" stroke="#9a32cd" stroke-dasharray="5,2" d="M49.5456,-70.4557C59.202,-59.7015 73.075,-46.2032 88,-38 103.727,-29.356 122.287,-23.4146 139.446,-19.3583"/>
<polygon fill="#9a32cd" stroke="#9a32cd" points="46.633,-68.4746 42.7657,-78.3384 51.9401,-73.0391 46.633,-68.4746"/>
<text text-anchor="middle" x="123" y="-52" font-family="Arial" font-size="10.00"> ac_derived_tbls</text>
<text text-anchor="middle" x="123" y="-41" font-family="Arial" font-size="10.00">dc_derived_tbls</text>
</g>
<!-- Node3 -->
<g id="node3" class="node"><title>Node3</title>
<g id="a_node3"><a xlink:href="struct_j_h_u_f_f___t_b_l.html" target="_top" xlink:title="JHUFF_TBL">
<polygon fill="white" stroke="black" points="1.5,-146.5 1.5,-165.5 70.5,-165.5 70.5,-146.5 1.5,-146.5"/>
<text text-anchor="middle" x="36" y="-153.5" font-family="Arial" font-size="10.00">JHUFF_TBL</text>
</a>
</g>
</g>
<!-- Node3&#45;&gt;Node2 -->
<g id="edge2" class="edge"><title>Node3&#45;&gt;Node2</title>
<path fill="none" stroke="#9a32cd" stroke-dasharray="5,2" d="M36,-136.041C36,-123.472 36,-107.563 36,-97.8411"/>
<polygon fill="#9a32cd" stroke="#9a32cd" points="32.5001,-136.372 36,-146.372 39.5001,-136.372 32.5001,-136.372"/>
<text text-anchor="middle" x="45.5" y="-119.5" font-family="Arial" font-size="10.00"> pub</text>
</g>
<!-- Node4 -->
<g id="node4" class="node"><title>Node4</title>
<g id="a_node4"><a xlink:href="structbitread__perm__state.html" target="_top" xlink:title="bitread_perm_state">
<polygon fill="white" stroke="black" points="91,-78.5 91,-97.5 191,-97.5 191,-78.5 91,-78.5"/>
<text text-anchor="middle" x="141" y="-85.5" font-family="Arial" font-size="10.00">bitread_perm_state</text>
</a>
</g>
</g>
<!-- Node4&#45;&gt;Node1 -->
<g id="edge3" class="edge"><title>Node4&#45;&gt;Node1</title>
<path fill="none" stroke="#9a32cd" stroke-dasharray="5,2" d="M152.851,-70.0056C163.756,-54.3693 179.485,-31.8142 187.991,-19.6165"/>
<polygon fill="#9a32cd" stroke="#9a32cd" points="149.929,-68.0773 147.08,-78.2818 155.671,-72.0814 149.929,-68.0773"/>
<text text-anchor="middle" x="192" y="-46.5" font-family="Arial" font-size="10.00"> bitstate</text>
</g>
<!-- Node5 -->
<g id="node5" class="node"><title>Node5</title>
<g id="a_node5"><a xlink:href="structsavable__state.html" target="_top" xlink:title="savable_state">
<polygon fill="white" stroke="black" points="209,-78.5 209,-97.5 285,-97.5 285,-78.5 209,-78.5"/>
<text text-anchor="middle" x="247" y="-85.5" font-family="Arial" font-size="10.00">savable_state</text>
</a>
</g>
</g>
<!-- Node5&#45;&gt;Node1 -->
<g id="edge4" class="edge"><title>Node5&#45;&gt;Node1</title>
<path fill="none" stroke="#9a32cd" stroke-dasharray="5,2" d="M235.656,-69.7504C229.375,-60.3029 221.369,-48.4285 214,-38 209.691,-31.9018 204.691,-25.1518 200.768,-19.9264"/>
<polygon fill="#9a32cd" stroke="#9a32cd" points="232.839,-71.8354 241.275,-78.2453 238.677,-67.9738 232.839,-71.8354"/>
<text text-anchor="middle" x="243" y="-46.5" font-family="Arial" font-size="10.00"> saved</text>
</g>
<!-- Node6 -->
<g id="node6" class="node"><title>Node6</title>
<g id="a_node6"><a xlink:href="structjpeg__entropy__decoder.html" target="_top" xlink:title="jpeg_entropy_decoder">
<polygon fill="white" stroke="black" points="303,-78.5 303,-97.5 415,-97.5 415,-78.5 303,-78.5"/>
<text text-anchor="middle" x="359" y="-85.5" font-family="Arial" font-size="10.00">jpeg_entropy_decoder</text>
</a>
</g>
</g>
<!-- Node6&#45;&gt;Node1 -->
<g id="edge5" class="edge"><title>Node6&#45;&gt;Node1</title>
<path fill="none" stroke="#9a32cd" stroke-dasharray="5,2" d="M333.983,-73.7927C314.338,-63.5925 286.188,-49.3498 261,-38 246.365,-31.4052 229.615,-24.6552 216.524,-19.5539"/>
<polygon fill="#9a32cd" stroke="#9a32cd" points="332.408,-76.9191 342.893,-78.4449 335.648,-70.7139 332.408,-76.9191"/>
<text text-anchor="middle" x="314.5" y="-46.5" font-family="Arial" font-size="10.00"> pub</text>
</g>
</g>
</svg>
