<?xml version="1.0" encoding="UTF-8" standalone="no"?>
<!DOCTYPE svg PUBLIC "-//W3C//DTD SVG 1.1//EN"
 "http://www.w3.org/Graphics/SVG/1.1/DTD/svg11.dtd">
<!-- Generated by graphviz version 2.34.0 (20130907.0111)
 -->
<!-- Title: ma_t Pages: 1 -->
<!--zoomable 338 -->
<svg id="main" version="1.1" xmlns="http://www.w3.org/2000/svg" xmlns:xlink="http://www.w3.org/1999/xlink" xml:space="preserve" onload="init(evt)">
<style type="text/css"><![CDATA[
.edge:hover path { stroke: red; }
.edge:hover polygon { stroke: red; fill: red; }
]]></style>
<script type="text/javascript"><![CDATA[
var edges = document.getElementsByTagName('g');
if (edges && edges.length) {
  for (var i=0;i<edges.length;i++) {
    if (edges[i].id.substr(0,4)=='edge') {
      edges[i].setAttribute('class','edge');
    }
  }
}
]]></script>
        <defs>
                <circle id="rim" cx="0" cy="0" r="7"/>
                <circle id="rim2" cx="0" cy="0" r="3.5"/>
                <g id="zoomPlus">
                        <use xlink:href="#rim" fill="#404040">
                                <set attributeName="fill" to="#808080" begin="zoomplus.mouseover" end="zoomplus.mouseout"/>
                        </use>
                        <path d="M-4,0h8M0,-4v8" fill="none" stroke="white" stroke-width="1.5" pointer-events="none"/>
                </g>
                <g id="zoomMin">
                        <use xlink:href="#rim" fill="#404040">
                                <set attributeName="fill" to="#808080" begin="zoomminus.mouseover" end="zoomminus.mouseout"/>
                        </use>
                        <path d="M-4,0h8" fill="none" stroke="white" stroke-width="1.5" pointer-events="none"/>
                </g>
                <g id="dirArrow">
                        <path fill="none" stroke="white" stroke-width="1.5" d="M0,-3.0v7 M-2.5,-0.5L0,-3.0L2.5,-0.5"/>
                </g>
               <g id="resetDef">
                       <use xlink:href="#rim2" fill="#404040">
                               <set attributeName="fill" to="#808080" begin="reset.mouseover" end="reset.mouseout"/>
                       </use>
               </g>
        </defs>

<script type="text/javascript">
var viewWidth = 802;
var viewHeight = 338;
var sectionId = 'dynsection-0';
</script>
<script xlink:href="svgpan.js"/>
<svg id="graph" class="graph">
<g id="viewport">
<title>ma_t</title>
<polygon fill="white" stroke="white" points="-4,4 -4,-334 798,-334 798,4 -4,4"/>
<!-- Node1 -->
<g id="node1" class="node"><title>Node1</title>
<polygon fill="#bfbfbf" stroke="black" points="756,-155.5 756,-174.5 794,-174.5 794,-155.5 756,-155.5"/>
<text text-anchor="middle" x="775" y="-162.5" font-family="Arial" font-size="10.00">ma_t</text>
</g>
<!-- Node2 -->
<g id="node2" class="node"><title>Node2</title>
<g id="a_node2"><a xlink:href="structma_model__s.html" target="_top" xlink:title="maModel_s">
<polygon fill="white" stroke="black" points="590.5,-182.5 590.5,-201.5 657.5,-201.5 657.5,-182.5 590.5,-182.5"/>
<text text-anchor="middle" x="624" y="-189.5" font-family="Arial" font-size="10.00">maModel_s</text>
</a>
</g>
</g>
<!-- Node2&#45;&gt;Node1 -->
<g id="edge1" class="edge"><title>Node2&#45;&gt;Node1</title>
<path fill="none" stroke="#9a32cd" stroke-dasharray="5,2" d="M667.652,-184.271C696.848,-178.981 734.083,-172.233 755.86,-168.287"/>
<polygon fill="#9a32cd" stroke="#9a32cd" points="666.914,-180.848 657.699,-186.075 668.163,-187.736 666.914,-180.848"/>
<text text-anchor="middle" x="707" y="-185" font-family="Arial" font-size="10.00"> model</text>
</g>
<!-- Node3 -->
<g id="node3" class="node"><title>Node3</title>
<g id="a_node3"><a xlink:href="classid_hash_table.html" target="_top" xlink:title="idHashTable\&lt; maMaterialNode\l_s * \&gt;">
<polygon fill="white" stroke="black" points="338.5,-300 338.5,-330 487.5,-330 487.5,-300 338.5,-300"/>
<text text-anchor="start" x="346.5" y="-318" font-family="Arial" font-size="10.00">idHashTable&lt; maMaterialNode</text>
<text text-anchor="middle" x="413" y="-307" font-family="Arial" font-size="10.00">_s * &gt;</text>
</a>
</g>
</g>
<!-- Node3&#45;&gt;Node2 -->
<g id="edge2" class="edge"><title>Node3&#45;&gt;Node2</title>
<path fill="none" stroke="#9a32cd" stroke-dasharray="5,2" d="M489.724,-296.954C517.378,-287.951 547.783,-275.027 572,-257 592.71,-241.583 609.51,-215.711 617.66,-201.708"/>
<polygon fill="#9a32cd" stroke="#9a32cd" points="488.569,-293.648 480.072,-299.976 490.661,-300.328 488.569,-293.648"/>
<text text-anchor="middle" x="539" y="-293" font-family="Arial" font-size="10.00"> materialNodes</text>
</g>
<!-- Node4 -->
<g id="node4" class="node"><title>Node4</title>
<g id="a_node4"><a xlink:href="classid_list.html" target="_top" xlink:title="idList\&lt; maMaterial\l_t * \&gt;">
<polygon fill="white" stroke="black" points="364.5,-251 364.5,-281 461.5,-281 461.5,-251 364.5,-251"/>
<text text-anchor="start" x="372.5" y="-269" font-family="Arial" font-size="10.00">idList&lt; maMaterial</text>
<text text-anchor="middle" x="413" y="-258" font-family="Arial" font-size="10.00">_t * &gt;</text>
</a>
</g>
</g>
<!-- Node4&#45;&gt;Node2 -->
<g id="edge3" class="edge"><title>Node4&#45;&gt;Node2</title>
<path fill="none" stroke="#9a32cd" stroke-dasharray="5,2" d="M471.608,-252.472C502.015,-244.526 539.63,-233.408 572,-220 584.318,-214.898 597.493,-207.613 607.365,-201.753"/>
<polygon fill="#9a32cd" stroke="#9a32cd" points="470.406,-249.167 461.59,-255.043 472.147,-255.947 470.406,-249.167"/>
<text text-anchor="middle" x="539" y="-245" font-family="Arial" font-size="10.00"> materials</text>
</g>
<!-- Node5 -->
<g id="node5" class="node"><title>Node5</title>
<g id="a_node5"><a xlink:href="classid_hash_table.html" target="_top" xlink:title="idHashTable\&lt; maTransform\l_s * \&gt;">
<polygon fill="white" stroke="black" points="345.5,-202 345.5,-232 480.5,-232 480.5,-202 345.5,-202"/>
<text text-anchor="start" x="353.5" y="-220" font-family="Arial" font-size="10.00">idHashTable&lt; maTransform</text>
<text text-anchor="middle" x="413" y="-209" font-family="Arial" font-size="10.00">_s * &gt;</text>
</a>
</g>
</g>
<!-- Node5&#45;&gt;Node2 -->
<g id="edge4" class="edge"><title>Node5&#45;&gt;Node2</title>
<path fill="none" stroke="#9a32cd" stroke-dasharray="5,2" d="M490.747,-207.82C525.141,-203.706 563.859,-199.074 590.47,-195.891"/>
<polygon fill="#9a32cd" stroke="#9a32cd" points="490.217,-204.358 480.704,-209.021 491.048,-211.309 490.217,-204.358"/>
<text text-anchor="middle" x="539" y="-208" font-family="Arial" font-size="10.00"> transforms</text>
</g>
<!-- Node6 -->
<g id="node6" class="node"><title>Node6</title>
<g id="a_node6"><a xlink:href="classid_hash_table.html" target="_top" xlink:title="idHashTable\&lt; maFileNode\l_t * \&gt;">
<polygon fill="white" stroke="black" points="347.5,-153 347.5,-183 478.5,-183 478.5,-153 347.5,-153"/>
<text text-anchor="start" x="355.5" y="-171" font-family="Arial" font-size="10.00">idHashTable&lt; maFileNode</text>
<text text-anchor="middle" x="413" y="-160" font-family="Arial" font-size="10.00">_t * &gt;</text>
</a>
</g>
</g>
<!-- Node6&#45;&gt;Node2 -->
<g id="edge5" class="edge"><title>Node6&#45;&gt;Node2</title>
<path fill="none" stroke="#9a32cd" stroke-dasharray="5,2" d="M488.943,-174.743C515.242,-177.333 544.963,-180.513 572,-184 577.956,-184.768 584.287,-185.682 590.39,-186.613"/>
<polygon fill="#9a32cd" stroke="#9a32cd" points="488.957,-171.228 478.665,-173.743 488.279,-178.195 488.957,-171.228"/>
<text text-anchor="middle" x="539" y="-187" font-family="Arial" font-size="10.00"> fileNodes</text>
</g>
<!-- Node7 -->
<g id="node7" class="node"><title>Node7</title>
<g id="a_node7"><a xlink:href="classid_list.html" target="_top" xlink:title="idList\&lt; maObject_t * \&gt;">
<polygon fill="white" stroke="black" points="355.5,-114.5 355.5,-133.5 470.5,-133.5 470.5,-114.5 355.5,-114.5"/>
<text text-anchor="middle" x="413" y="-121.5" font-family="Arial" font-size="10.00">idList&lt; maObject_t * &gt;</text>
</a>
</g>
</g>
<!-- Node7&#45;&gt;Node2 -->
<g id="edge6" class="edge"><title>Node7&#45;&gt;Node2</title>
<path fill="none" stroke="#9a32cd" stroke-dasharray="5,2" d="M480.76,-135.488C509.449,-141.582 542.983,-150.28 572,-162 585.335,-167.386 599.337,-175.853 609.289,-182.421"/>
<polygon fill="#9a32cd" stroke="#9a32cd" points="481.33,-132.032 470.829,-133.44 479.916,-138.888 481.33,-132.032"/>
<text text-anchor="middle" x="539" y="-165" font-family="Arial" font-size="10.00"> objects</text>
</g>
<!-- Node8 -->
<g id="node8" class="node"><title>Node8</title>
<g id="a_node8"><a xlink:href="structma_object__t.html" target="_top" xlink:title="maObject_t">
<polygon fill="white" stroke="black" points="590.5,-123.5 590.5,-142.5 657.5,-142.5 657.5,-123.5 590.5,-123.5"/>
<text text-anchor="middle" x="624" y="-130.5" font-family="Arial" font-size="10.00">maObject_t</text>
</a>
</g>
</g>
<!-- Node8&#45;&gt;Node1 -->
<g id="edge7" class="edge"><title>Node8&#45;&gt;Node1</title>
<path fill="none" stroke="#9a32cd" stroke-dasharray="5,2" d="M667.629,-141.955C688.799,-146.428 714.758,-151.949 738,-157 743.756,-158.251 750.024,-159.636 755.693,-160.897"/>
<polygon fill="#9a32cd" stroke="#9a32cd" points="668.161,-138.491 657.654,-139.851 666.716,-145.34 668.161,-138.491"/>
<text text-anchor="middle" x="707" y="-160" font-family="Arial" font-size="10.00"> currentObject</text>
</g>
<!-- Node9 -->
<g id="node9" class="node"><title>Node9</title>
<g id="a_node9"><a xlink:href="structma_mesh__t.html" target="_top" xlink:title="maMesh_t">
<polygon fill="white" stroke="black" points="382,-76.5 382,-95.5 444,-95.5 444,-76.5 382,-76.5"/>
<text text-anchor="middle" x="413" y="-83.5" font-family="Arial" font-size="10.00">maMesh_t</text>
</a>
</g>
</g>
<!-- Node9&#45;&gt;Node8 -->
<g id="edge8" class="edge"><title>Node9&#45;&gt;Node8</title>
<path fill="none" stroke="#9a32cd" stroke-dasharray="5,2" d="M454.351,-80.2724C487.131,-77.247 533.994,-76.6824 572,-91 589.603,-97.6316 605.583,-113.003 614.795,-123.195"/>
<polygon fill="#9a32cd" stroke="#9a32cd" points="453.816,-76.8091 444.232,-81.3254 454.54,-83.7715 453.816,-76.8091"/>
<text text-anchor="middle" x="539" y="-94" font-family="Arial" font-size="10.00"> mesh</text>
</g>
<!-- Node10 -->
<g id="node10" class="node"><title>Node10</title>
<g id="a_node10"><a xlink:href="structma_face__t.html" target="_top" xlink:title="maFace_t">
<polygon fill="white" stroke="black" points="162,-143.5 162,-162.5 222,-162.5 222,-143.5 162,-143.5"/>
<text text-anchor="middle" x="192" y="-150.5" font-family="Arial" font-size="10.00">maFace_t</text>
</a>
</g>
</g>
<!-- Node10&#45;&gt;Node9 -->
<g id="edge9" class="edge"><title>Node10&#45;&gt;Node9</title>
<path fill="none" stroke="#9a32cd" stroke-dasharray="5,2" d="M229.847,-140.029C259.024,-129.946 300.901,-115.889 338,-105 352.382,-100.779 368.485,-96.5821 381.988,-93.2108"/>
<polygon fill="#9a32cd" stroke="#9a32cd" points="228.384,-136.832 220.085,-143.418 230.68,-143.445 228.384,-136.832"/>
<text text-anchor="middle" x="286" y="-135" font-family="Arial" font-size="10.00"> faces</text>
</g>
<!-- Node11 -->
<g id="node11" class="node"><title>Node11</title>
<g id="a_node11"><a xlink:href="classid_vec3.html" target="_top" xlink:title="idVec3">
<polygon fill="white" stroke="black" points="0.5,-143.5 0.5,-162.5 47.5,-162.5 47.5,-143.5 0.5,-143.5"/>
<text text-anchor="middle" x="24" y="-150.5" font-family="Arial" font-size="10.00">idVec3</text>
</a>
</g>
</g>
<!-- Node11&#45;&gt;Node9 -->
<g id="edge15" class="edge"><title>Node11&#45;&gt;Node9</title>
<path fill="none" stroke="#9a32cd" stroke-dasharray="5,2" d="M56.807,-165.689C59.8793,-166.595 62.9771,-167.39 66,-168 139.212,-182.776 160.058,-182.529 234,-172 273.407,-166.388 290.191,-173.378 320,-147 335.209,-133.542 322.58,-118.217 338,-105 350.085,-94.6417 367.1,-89.8195 381.768,-87.6193"/>
<polygon fill="#9a32cd" stroke="#9a32cd" points="57.7955,-162.329 47.2022,-162.509 55.5954,-168.975 57.7955,-162.329"/>
<text text-anchor="middle" x="192" y="-204" font-family="Arial" font-size="10.00"> normals</text>
<text text-anchor="middle" x="192" y="-193" font-family="Arial" font-size="10.00">vertexes</text>
<text text-anchor="middle" x="192" y="-182" font-family="Arial" font-size="10.00">edges</text>
</g>
<!-- Node11&#45;&gt;Node10 -->
<g id="edge10" class="edge"><title>Node11&#45;&gt;Node10</title>
<path fill="none" stroke="#9a32cd" stroke-dasharray="5,2" d="M57.8118,-153C88.1295,-153 132.752,-153 161.846,-153"/>
<polygon fill="#9a32cd" stroke="#9a32cd" points="57.7336,-149.5 47.7335,-153 57.7335,-156.5 57.7336,-149.5"/>
<text text-anchor="middle" x="99" y="-156" font-family="Arial" font-size="10.00"> vertexNormals</text>
</g>
<!-- Node12 -->
<g id="node12" class="node"><title>Node12</title>
<g id="a_node12"><a xlink:href="structma_transform__s.html" target="_top" xlink:title="maTransform_s">
<polygon fill="white" stroke="black" points="150.5,-76.5 150.5,-95.5 233.5,-95.5 233.5,-76.5 150.5,-76.5"/>
<text text-anchor="middle" x="192" y="-83.5" font-family="Arial" font-size="10.00">maTransform_s</text>
</a>
</g>
</g>
<!-- Node11&#45;&gt;Node12 -->
<g id="edge13" class="edge"><title>Node11&#45;&gt;Node12</title>
<path fill="none" stroke="#9a32cd" stroke-dasharray="5,2" d="M40.0962,-136.008C47.2875,-128.863 56.4064,-121.054 66,-116 92.2614,-102.166 124.975,-94.6087 150.348,-90.5406"/>
<polygon fill="#9a32cd" stroke="#9a32cd" points="37.4788,-133.681 33.1181,-143.337 42.5485,-138.508 37.4788,-133.681"/>
<text text-anchor="middle" x="99" y="-141" font-family="Arial" font-size="10.00"> scale</text>
<text text-anchor="middle" x="99" y="-130" font-family="Arial" font-size="10.00">rotate</text>
<text text-anchor="middle" x="99" y="-119" font-family="Arial" font-size="10.00">translate</text>
</g>
<!-- Node12&#45;&gt;Node9 -->
<g id="edge11" class="edge"><title>Node12&#45;&gt;Node9</title>
<path fill="none" stroke="#9a32cd" stroke-dasharray="5,2" d="M243.878,-86C286.592,-86 346.184,-86 381.751,-86"/>
<polygon fill="#9a32cd" stroke="#9a32cd" points="243.679,-82.5001 233.679,-86 243.679,-89.5001 243.679,-82.5001"/>
<text text-anchor="middle" x="286" y="-89" font-family="Arial" font-size="10.00"> transform</text>
</g>
<!-- Node12&#45;&gt;Node12 -->
<g id="edge12" class="edge"><title>Node12&#45;&gt;Node12</title>
<path fill="none" stroke="#9a32cd" stroke-dasharray="5,2" d="M174.964,-105.4C176.102,-110.315 181.78,-114 192,-114 208.352,-114 213.078,-104.565 206.18,-95.7571"/>
<polygon fill="#9a32cd" stroke="#9a32cd" points="178.336,-106.339 177.82,-95.7571 171.624,-104.351 178.336,-106.339"/>
<text text-anchor="middle" x="192" y="-117" font-family="Arial" font-size="10.00"> parent</text>
</g>
<!-- Node13 -->
<g id="node13" class="node"><title>Node13</title>
<g id="a_node13"><a xlink:href="classid_vec2.html" target="_top" xlink:title="idVec2">
<polygon fill="white" stroke="black" points="168.5,-38.5 168.5,-57.5 215.5,-57.5 215.5,-38.5 168.5,-38.5"/>
<text text-anchor="middle" x="192" y="-45.5" font-family="Arial" font-size="10.00">idVec2</text>
</a>
</g>
</g>
<!-- Node13&#45;&gt;Node9 -->
<g id="edge14" class="edge"><title>Node13&#45;&gt;Node9</title>
<path fill="none" stroke="#9a32cd" stroke-dasharray="5,2" d="M225.649,-53.6651C267.886,-60.9939 340.89,-73.6613 381.863,-80.7708"/>
<polygon fill="#9a32cd" stroke="#9a32cd" points="226.063,-50.1848 215.612,-51.9235 224.866,-57.0817 226.063,-50.1848"/>
<text text-anchor="middle" x="286" y="-73" font-family="Arial" font-size="10.00"> tvertexes</text>
</g>
<!-- Node14 -->
<g id="node14" class="node"><title>Node14</title>
<g id="a_node14"><a xlink:href="classid_vec4.html" target="_top" xlink:title="idVec4">
<polygon fill="white" stroke="black" points="168.5,-0.5 168.5,-19.5 215.5,-19.5 215.5,-0.5 168.5,-0.5"/>
<text text-anchor="middle" x="192" y="-7.5" font-family="Arial" font-size="10.00">idVec4</text>
</a>
</g>
</g>
<!-- Node14&#45;&gt;Node9 -->
<g id="edge16" class="edge"><title>Node14&#45;&gt;Node9</title>
<path fill="none" stroke="#9a32cd" stroke-dasharray="5,2" d="M225.837,-17.6073C251.73,-23.95 288.588,-33.7442 320,-45 345.68,-54.2019 374.226,-67.4138 392.608,-76.3316"/>
<polygon fill="#9a32cd" stroke="#9a32cd" points="226.343,-14.1292 215.801,-15.1874 224.702,-20.9342 226.343,-14.1292"/>
<text text-anchor="middle" x="286" y="-48" font-family="Arial" font-size="10.00"> vertTransforms</text>
</g>
</g>
</svg>
        <g id="navigator" transform="translate(0 0)" fill="#404254">
                <rect fill="#f2f5e9" fill-opacity="0.5" stroke="#606060" stroke-width=".5" x="0" y="0" width="60" height="60"/>
                <use id="zoomplus" xlink:href="#zoomPlus" x="17" y="9" onmousedown="handleZoom(evt,'in')"/>
                <use id="zoomminus" xlink:href="#zoomMin" x="42" y="9" onmousedown="handleZoom(evt,'out')"/>
                <use id="reset" xlink:href="#resetDef" x="30" y="36" onmousedown="handleReset()"/>
                <g id="arrowUp" xlink:href="#dirArrow" transform="translate(30 24)" onmousedown="handlePan(0,-1)">
                  <use xlink:href="#rim" fill="#404040">
                        <set attributeName="fill" to="#808080" begin="arrowUp.mouseover" end="arrowUp.mouseout"/>
                  </use>
                  <path fill="none" stroke="white" stroke-width="1.5" d="M0,-3.0v7 M-2.5,-0.5L0,-3.0L2.5,-0.5"/>
                </g>
                <g id="arrowRight" xlink:href="#dirArrow" transform="rotate(90) translate(36 -43)" onmousedown="handlePan(1,0)">
                  <use xlink:href="#rim" fill="#404040">
                        <set attributeName="fill" to="#808080" begin="arrowRight.mouseover" end="arrowRight.mouseout"/>
                  </use>
                  <path fill="none" stroke="white" stroke-width="1.5" d="M0,-3.0v7 M-2.5,-0.5L0,-3.0L2.5,-0.5"/>
                </g>
                <g id="arrowDown" xlink:href="#dirArrow" transform="rotate(180) translate(-30 -48)" onmousedown="handlePan(0,1)">
                  <use xlink:href="#rim" fill="#404040">
                        <set attributeName="fill" to="#808080" begin="arrowDown.mouseover" end="arrowDown.mouseout"/>
                  </use>
                  <path fill="none" stroke="white" stroke-width="1.5" d="M0,-3.0v7 M-2.5,-0.5L0,-3.0L2.5,-0.5"/>
                </g>
                <g id="arrowLeft" xlink:href="#dirArrow" transform="rotate(270) translate(-36 17)" onmousedown="handlePan(-1,0)">
                  <use xlink:href="#rim" fill="#404040">
                        <set attributeName="fill" to="#808080" begin="arrowLeft.mouseover" end="arrowLeft.mouseout"/>
                  </use>
                  <path fill="none" stroke="white" stroke-width="1.5" d="M0,-3.0v7 M-2.5,-0.5L0,-3.0L2.5,-0.5"/>
                </g>
        </g>
        <svg viewBox="0 0 15 15" width="100%" height="30px" preserveAspectRatio="xMaxYMin meet">
         <g id="arrow_out" transform="scale(0.3 0.3)">
          <a xlink:href="structma__t__coll__graph_org.svg" target="_base">
           <rect id="button" ry="5" rx="5" y="6" x="6" height="38" width="38"
                fill="#f2f5e9" fill-opacity="0.5" stroke="#606060" stroke-width="1.0"/>
           <path id="arrow"
             d="M 11.500037,31.436501 C 11.940474,20.09759 22.043105,11.32322 32.158766,21.979434 L 37.068811,17.246167 C 37.068811,17.246167 37.088388,32 37.088388,32 L 22.160133,31.978069 C 22.160133,31.978069 26.997745,27.140456 26.997745,27.140456 C 18.528582,18.264221 13.291696,25.230495 11.500037,31.436501 z"
             style="fill:#404040;"/>
          </a>
         </g>
        </svg>
</svg>
