<?xml version="1.0" encoding="UTF-8" standalone="no"?>
<!DOCTYPE svg PUBLIC "-//W3C//DTD SVG 1.1//EN"
 "http://www.w3.org/Graphics/SVG/1.1/DTD/svg11.dtd">
<!-- Generated by graphviz version 2.34.0 (20130907.0111)
 -->
<!-- Title: trace_s Pages: 1 -->
<svg width="211pt" height="300pt"
 viewBox="0.00 0.00 211.00 300.00" xmlns="http://www.w3.org/2000/svg" xmlns:xlink="http://www.w3.org/1999/xlink">
<g id="graph0" class="graph" transform="scale(1 1) rotate(0) translate(4 296)">
<title>trace_s</title>
<polygon fill="white" stroke="white" points="-4,4 -4,-296 207,-296 207,4 -4,4"/>
<!-- Node1 -->
<g id="node1" class="node"><title>Node1</title>
<polygon fill="#bfbfbf" stroke="black" points="78.5,-0.5 78.5,-19.5 127.5,-19.5 127.5,-0.5 78.5,-0.5"/>
<text text-anchor="middle" x="103" y="-7.5" font-family="Arial" font-size="10.00">trace_s</text>
</g>
<!-- Node2 -->
<g id="node2" class="node"><title>Node2</title>
<g id="a_node2"><a xlink:href="structcontact_info__t.html" target="_top" xlink:title="contactInfo_t">
<polygon fill="white" stroke="black" points="67,-68.5 67,-87.5 139,-87.5 139,-68.5 67,-68.5"/>
<text text-anchor="middle" x="103" y="-75.5" font-family="Arial" font-size="10.00">contactInfo_t</text>
</a>
</g>
</g>
<!-- Node2&#45;&gt;Node1 -->
<g id="edge1" class="edge"><title>Node2&#45;&gt;Node1</title>
<path fill="none" stroke="#9a32cd" stroke-dasharray="5,2" d="M103,-58.0413C103,-45.4724 103,-29.5631 103,-19.8411"/>
<polygon fill="#9a32cd" stroke="#9a32cd" points="99.5001,-58.3716 103,-68.3717 106.5,-58.3717 99.5001,-58.3716"/>
<text text-anchor="middle" x="107.5" y="-41.5" font-family="Arial" font-size="10.00"> c</text>
</g>
<!-- Node3 -->
<g id="node3" class="node"><title>Node3</title>
<g id="a_node3"><a xlink:href="classid_vec3.html" target="_top" xlink:title="idVec3">
<polygon fill="white" stroke="black" points="-0.5,-146.5 -0.5,-165.5 46.5,-165.5 46.5,-146.5 -0.5,-146.5"/>
<text text-anchor="middle" x="23" y="-153.5" font-family="Arial" font-size="10.00">idVec3</text>
</a>
</g>
</g>
<!-- Node3&#45;&gt;Node1 -->
<g id="edge7" class="edge"><title>Node3&#45;&gt;Node1</title>
<path fill="none" stroke="#9a32cd" stroke-dasharray="5,2" d="M18.3124,-136.449C14.6882,-118.006 11.9464,-89.4481 23,-68 35.1093,-44.5036 61.8824,-28.5641 81.1231,-19.6442"/>
<polygon fill="#9a32cd" stroke="#9a32cd" points="14.9047,-137.248 20.509,-146.24 21.735,-135.716 14.9047,-137.248"/>
<text text-anchor="middle" x="40.5" y="-75.5" font-family="Arial" font-size="10.00"> endpos</text>
</g>
<!-- Node3&#45;&gt;Node2 -->
<g id="edge2" class="edge"><title>Node3&#45;&gt;Node2</title>
<path fill="none" stroke="#9a32cd" stroke-dasharray="5,2" d="M36.1148,-138.274C44.2308,-128.395 55.1444,-115.921 66,-106 73.396,-99.2405 82.4748,-92.5941 89.7882,-87.5871"/>
<polygon fill="#9a32cd" stroke="#9a32cd" points="33.3138,-136.172 29.7744,-146.158 38.7688,-140.558 33.3138,-136.172"/>
<text text-anchor="middle" x="82.5" y="-120" font-family="Arial" font-size="10.00"> normal</text>
<text text-anchor="middle" x="82.5" y="-109" font-family="Arial" font-size="10.00">point</text>
</g>
<!-- Node4 -->
<g id="node4" class="node"><title>Node4</title>
<g id="a_node4"><a xlink:href="classid_material.html" target="_top" xlink:title="idMaterial">
<polygon fill="white" stroke="black" points="73.5,-146.5 73.5,-165.5 132.5,-165.5 132.5,-146.5 73.5,-146.5"/>
<text text-anchor="middle" x="103" y="-153.5" font-family="Arial" font-size="10.00">idMaterial</text>
</a>
</g>
</g>
<!-- Node4&#45;&gt;Node2 -->
<g id="edge3" class="edge"><title>Node4&#45;&gt;Node2</title>
<path fill="none" stroke="#9a32cd" stroke-dasharray="5,2" d="M103,-136.224C103,-120.697 103,-99.3582 103,-87.6165"/>
<polygon fill="#9a32cd" stroke="#9a32cd" points="99.5001,-136.282 103,-146.282 106.5,-136.282 99.5001,-136.282"/>
<text text-anchor="middle" x="122" y="-114.5" font-family="Arial" font-size="10.00"> material</text>
</g>
<!-- Node5 -->
<g id="node5" class="node"><title>Node5</title>
<g id="a_node5"><a xlink:href="classid_decl.html" target="_top" xlink:title="idDecl">
<polygon fill="white" stroke="black" points="81,-204.5 81,-223.5 125,-223.5 125,-204.5 81,-204.5"/>
<text text-anchor="middle" x="103" y="-211.5" font-family="Arial" font-size="10.00">idDecl</text>
</a>
</g>
</g>
<!-- Node5&#45;&gt;Node4 -->
<g id="edge4" class="edge"><title>Node5&#45;&gt;Node4</title>
<path fill="none" stroke="midnightblue" d="M103,-193.953C103,-184.287 103,-173.031 103,-165.505"/>
<polygon fill="midnightblue" stroke="midnightblue" points="99.5001,-194.25 103,-204.25 106.5,-194.25 99.5001,-194.25"/>
</g>
<!-- Node6 -->
<g id="node6" class="node"><title>Node6</title>
<g id="a_node6"><a xlink:href="classid_decl_base.html" target="_top" xlink:title="idDeclBase">
<polygon fill="white" stroke="black" points="70,-272.5 70,-291.5 136,-291.5 136,-272.5 70,-272.5"/>
<text text-anchor="middle" x="103" y="-279.5" font-family="Arial" font-size="10.00">idDeclBase</text>
</a>
</g>
</g>
<!-- Node6&#45;&gt;Node5 -->
<g id="edge5" class="edge"><title>Node6&#45;&gt;Node5</title>
<path fill="none" stroke="#9a32cd" stroke-dasharray="5,2" d="M103,-262.041C103,-249.472 103,-233.563 103,-223.841"/>
<polygon fill="#9a32cd" stroke="#9a32cd" points="99.5001,-262.372 103,-272.372 106.5,-262.372 99.5001,-262.372"/>
<text text-anchor="middle" x="115.5" y="-245.5" font-family="Arial" font-size="10.00"> base</text>
</g>
<!-- Node7 -->
<g id="node7" class="node"><title>Node7</title>
<g id="a_node7"><a xlink:href="classid_mat3.html" target="_top" xlink:title="idMat3">
<polygon fill="white" stroke="black" points="157,-68.5 157,-87.5 203,-87.5 203,-68.5 157,-68.5"/>
<text text-anchor="middle" x="180" y="-75.5" font-family="Arial" font-size="10.00">idMat3</text>
</a>
</g>
</g>
<!-- Node7&#45;&gt;Node1 -->
<g id="edge6" class="edge"><title>Node7&#45;&gt;Node1</title>
<path fill="none" stroke="#9a32cd" stroke-dasharray="5,2" d="M162.237,-61.7744C147.081,-48.7837 125.814,-30.5551 113.315,-19.8411"/>
<polygon fill="#9a32cd" stroke="#9a32cd" points="160.063,-64.5211 169.934,-68.3717 164.619,-59.2063 160.063,-64.5211"/>
<text text-anchor="middle" x="168.5" y="-41.5" font-family="Arial" font-size="10.00"> endAxis</text>
</g>
</g>
</svg>
