<?xml version="1.0" encoding="UTF-8" standalone="no"?>
<!DOCTYPE svg PUBLIC "-//W3C//DTD SVG 1.1//EN"
 "http://www.w3.org/Graphics/SVG/1.1/DTD/svg11.dtd">
<!-- Generated by graphviz version 2.34.0 (20130907.0111)
 -->
<!-- Title: maTransform_s Pages: 1 -->
<svg width="139pt" height="118pt"
 viewBox="0.00 0.00 139.00 118.00" xmlns="http://www.w3.org/2000/svg" xmlns:xlink="http://www.w3.org/1999/xlink">
<g id="graph0" class="graph" transform="scale(1 1) rotate(0) translate(4 114)">
<title>maTransform_s</title>
<polygon fill="white" stroke="white" points="-4,4 -4,-114 135,-114 135,4 -4,4"/>
<!-- Node1 -->
<g id="node1" class="node"><title>Node1</title>
<polygon fill="#bfbfbf" stroke="black" points="-0.5,-0.5 -0.5,-19.5 82.5,-19.5 82.5,-0.5 -0.5,-0.5"/>
<text text-anchor="middle" x="41" y="-7.5" font-family="Arial" font-size="10.00">maTransform_s</text>
</g>
<!-- Node1&#45;&gt;Node1 -->
<g id="edge1" class="edge"><title>Node1&#45;&gt;Node1</title>
<path fill="none" stroke="#9a32cd" stroke-dasharray="5,2" d="M92.5084,-16.5194C97.1114,-15.1541 100,-12.981 100,-10 100,-5.23047 92.6052,-2.52898 82.6251,-1.89552"/>
<polygon fill="#9a32cd" stroke="#9a32cd" points="91.9446,-13.065 82.6251,-18.1045 93.0532,-19.9767 91.9446,-13.065"/>
<text text-anchor="middle" x="115.5" y="-7.5" font-family="Arial" font-size="10.00"> parent</text>
</g>
<!-- Node2 -->
<g id="node2" class="node"><title>Node2</title>
<g id="a_node2"><a xlink:href="classid_vec3.html" target="_top" xlink:title="idVec3">
<polygon fill="white" stroke="black" points="17.5,-90.5 17.5,-109.5 64.5,-109.5 64.5,-90.5 17.5,-90.5"/>
<text text-anchor="middle" x="41" y="-97.5" font-family="Arial" font-size="10.00">idVec3</text>
</a>
</g>
</g>
<!-- Node2&#45;&gt;Node1 -->
<g id="edge2" class="edge"><title>Node2&#45;&gt;Node1</title>
<path fill="none" stroke="#9a32cd" stroke-dasharray="5,2" d="M41,-79.9784C41,-61.3096 41,-33.6696 41,-19.7241"/>
<polygon fill="#9a32cd" stroke="#9a32cd" points="37.5001,-80.2405 41,-90.2405 44.5001,-80.2405 37.5001,-80.2405"/>
<text text-anchor="middle" x="60" y="-63.5" font-family="Arial" font-size="10.00"> scale</text>
<text text-anchor="middle" x="60" y="-52.5" font-family="Arial" font-size="10.00">rotate</text>
<text text-anchor="middle" x="60" y="-41.5" font-family="Arial" font-size="10.00">translate</text>
</g>
</g>
</svg>
