<?xml version="1.0" encoding="UTF-8" standalone="no"?>
<!DOCTYPE svg PUBLIC "-//W3C//DTD SVG 1.1//EN"
 "http://www.w3.org/Graphics/SVG/1.1/DTD/svg11.dtd">
<!-- Generated by graphviz version 2.34.0 (20130907.0111)
 -->
<!-- Title: polyhedron Pages: 1 -->
<svg width="331pt" height="250pt"
 viewBox="0.00 0.00 331.00 250.00" xmlns="http://www.w3.org/2000/svg" xmlns:xlink="http://www.w3.org/1999/xlink">
<g id="graph0" class="graph" transform="scale(1 1) rotate(0) translate(4 246)">
<title>polyhedron</title>
<polygon fill="white" stroke="white" points="-4,4 -4,-246 327,-246 327,4 -4,4"/>
<!-- Node1 -->
<g id="node1" class="node"><title>Node1</title>
<polygon fill="#bfbfbf" stroke="black" points="145,-0.5 145,-19.5 209,-19.5 209,-0.5 145,-0.5"/>
<text text-anchor="middle" x="177" y="-7.5" font-family="Arial" font-size="10.00">polyhedron</text>
</g>
<!-- Node2 -->
<g id="node2" class="node"><title>Node2</title>
<g id="a_node2"><a xlink:href="struct_my_array.html" target="_top" xlink:title="MyArray\&lt; edge, 15 \&gt;">
<polygon fill="white" stroke="black" points="-0.5,-68.5 -0.5,-87.5 108.5,-87.5 108.5,-68.5 -0.5,-68.5"/>
<text text-anchor="middle" x="54" y="-75.5" font-family="Arial" font-size="10.00">MyArray&lt; edge, 15 &gt;</text>
</a>
</g>
</g>
<!-- Node2&#45;&gt;Node1 -->
<g id="edge1" class="edge"><title>Node2&#45;&gt;Node1</title>
<path fill="none" stroke="#9a32cd" stroke-dasharray="5,2" d="M79.1314,-63.5149C103.616,-50.3767 140.104,-30.7981 160.916,-19.6305"/>
<polygon fill="#9a32cd" stroke="#9a32cd" points="77.2368,-60.5594 70.0801,-68.3717 80.5466,-66.7275 77.2368,-60.5594"/>
<text text-anchor="middle" x="131.5" y="-41.5" font-family="Arial" font-size="10.00"> e</text>
</g>
<!-- Node3 -->
<g id="node3" class="node"><title>Node3</title>
<g id="a_node3"><a xlink:href="structedge.html" target="_top" xlink:title="edge">
<polygon fill="white" stroke="black" points="35,-144.5 35,-163.5 73,-163.5 73,-144.5 35,-144.5"/>
<text text-anchor="middle" x="54" y="-151.5" font-family="Arial" font-size="10.00">edge</text>
</a>
</g>
</g>
<!-- Node3&#45;&gt;Node2 -->
<g id="edge2" class="edge"><title>Node3&#45;&gt;Node2</title>
<path fill="none" stroke="#9a32cd" stroke-dasharray="5,2" d="M54,-134.072C54,-119.18 54,-99.1111 54,-87.7679"/>
<polygon fill="#9a32cd" stroke="#9a32cd" points="50.5001,-134.221 54,-144.221 57.5001,-134.221 50.5001,-134.221"/>
<text text-anchor="middle" x="57.5" y="-113.5" font-family="Arial" font-size="10.00"> v</text>
</g>
<!-- Node4 -->
<g id="node4" class="node"><title>Node4</title>
<g id="a_node4"><a xlink:href="struct_my_array.html" target="_top" xlink:title="MyArray\&lt; poly, 9 \&gt;">
<polygon fill="white" stroke="black" points="126.5,-68.5 126.5,-87.5 227.5,-87.5 227.5,-68.5 126.5,-68.5"/>
<text text-anchor="middle" x="177" y="-75.5" font-family="Arial" font-size="10.00">MyArray&lt; poly, 9 &gt;</text>
</a>
</g>
</g>
<!-- Node4&#45;&gt;Node1 -->
<g id="edge3" class="edge"><title>Node4&#45;&gt;Node1</title>
<path fill="none" stroke="#9a32cd" stroke-dasharray="5,2" d="M177,-58.0413C177,-45.4724 177,-29.5631 177,-19.8411"/>
<polygon fill="#9a32cd" stroke="#9a32cd" points="173.5,-58.3716 177,-68.3717 180.5,-58.3717 173.5,-58.3716"/>
<text text-anchor="middle" x="181.5" y="-41.5" font-family="Arial" font-size="10.00"> p</text>
</g>
<!-- Node5 -->
<g id="node5" class="node"><title>Node5</title>
<g id="a_node5"><a xlink:href="structpoly.html" target="_top" xlink:title="poly">
<polygon fill="white" stroke="black" points="159.5,-144.5 159.5,-163.5 194.5,-163.5 194.5,-144.5 159.5,-144.5"/>
<text text-anchor="middle" x="177" y="-151.5" font-family="Arial" font-size="10.00">poly</text>
</a>
</g>
</g>
<!-- Node5&#45;&gt;Node4 -->
<g id="edge4" class="edge"><title>Node5&#45;&gt;Node4</title>
<path fill="none" stroke="#9a32cd" stroke-dasharray="5,2" d="M177,-134.072C177,-119.18 177,-99.1111 177,-87.7679"/>
<polygon fill="#9a32cd" stroke="#9a32cd" points="173.5,-134.221 177,-144.221 180.5,-134.221 173.5,-134.221"/>
<text text-anchor="middle" x="180.5" y="-113.5" font-family="Arial" font-size="10.00"> v</text>
</g>
<!-- Node6 -->
<g id="node6" class="node"><title>Node6</title>
<g id="a_node6"><a xlink:href="struct_my_array.html" target="_top" xlink:title="MyArray\&lt; int, 4 \&gt;">
<polygon fill="white" stroke="black" points="129.5,-222.5 129.5,-241.5 222.5,-241.5 222.5,-222.5 129.5,-222.5"/>
<text text-anchor="middle" x="176" y="-229.5" font-family="Arial" font-size="10.00">MyArray&lt; int, 4 &gt;</text>
</a>
</g>
</g>
<!-- Node6&#45;&gt;Node5 -->
<g id="edge5" class="edge"><title>Node6&#45;&gt;Node5</title>
<path fill="none" stroke="#9a32cd" stroke-dasharray="5,2" d="M176.247,-212.224C176.451,-196.697 176.732,-175.358 176.887,-163.616"/>
<polygon fill="#9a32cd" stroke="#9a32cd" points="172.747,-212.237 176.115,-222.282 179.746,-212.329 172.747,-212.237"/>
<text text-anchor="middle" x="182" y="-196" font-family="Arial" font-size="10.00"> vi</text>
<text text-anchor="middle" x="182" y="-185" font-family="Arial" font-size="10.00">ni</text>
</g>
<!-- Node7 -->
<g id="node7" class="node"><title>Node7</title>
<g id="a_node7"><a xlink:href="classid_vec4.html" target="_top" xlink:title="idVec4">
<polygon fill="white" stroke="black" points="240.5,-222.5 240.5,-241.5 287.5,-241.5 287.5,-222.5 240.5,-222.5"/>
<text text-anchor="middle" x="264" y="-229.5" font-family="Arial" font-size="10.00">idVec4</text>
</a>
</g>
</g>
<!-- Node7&#45;&gt;Node5 -->
<g id="edge6" class="edge"><title>Node7&#45;&gt;Node5</title>
<path fill="none" stroke="#9a32cd" stroke-dasharray="5,2" d="M235.027,-217.584C228.103,-213.707 220.989,-209.121 215,-204 201.09,-192.107 188.897,-174.401 182.275,-163.848"/>
<polygon fill="#9a32cd" stroke="#9a32cd" points="233.748,-220.865 244.229,-222.414 237.001,-214.667 233.748,-220.865"/>
<text text-anchor="middle" x="228.5" y="-190.5" font-family="Arial" font-size="10.00"> plane</text>
</g>
<!-- Node8 -->
<g id="node8" class="node"><title>Node8</title>
<g id="a_node8"><a xlink:href="struct_my_array.html" target="_top" xlink:title="MyArray\&lt; idVec4, 16 \&gt;">
<polygon fill="white" stroke="black" points="205,-106.5 205,-125.5 323,-125.5 323,-106.5 205,-106.5"/>
<text text-anchor="middle" x="264" y="-113.5" font-family="Arial" font-size="10.00">MyArray&lt; idVec4, 16 &gt;</text>
</a>
</g>
</g>
<!-- Node7&#45;&gt;Node8 -->
<g id="edge8" class="edge"><title>Node7&#45;&gt;Node8</title>
<path fill="none" stroke="#9a32cd" stroke-dasharray="5,2" d="M264,-212.408C264,-187.438 264,-144.079 264,-125.668"/>
<polygon fill="#9a32cd" stroke="#9a32cd" points="260.5,-212.431 264,-222.431 267.5,-212.432 260.5,-212.431"/>
<text text-anchor="middle" x="267.5" y="-190.5" font-family="Arial" font-size="10.00"> v</text>
</g>
<!-- Node8&#45;&gt;Node1 -->
<g id="edge7" class="edge"><title>Node8&#45;&gt;Node1</title>
<path fill="none" stroke="#9a32cd" stroke-dasharray="5,2" d="M254.919,-97.2935C249.881,-88.1658 243.19,-77.0759 236,-68 220.965,-49.0214 199.881,-30.1129 187.411,-19.5506"/>
<polygon fill="#9a32cd" stroke="#9a32cd" points="251.893,-99.0573 259.681,-106.24 258.072,-95.768 251.893,-99.0573"/>
<text text-anchor="middle" x="253.5" y="-75.5" font-family="Arial" font-size="10.00"> v</text>
</g>
</g>
</svg>
