<?xml version="1.0" encoding="UTF-8" standalone="no"?>
<!DOCTYPE svg PUBLIC "-//W3C//DTD SVG 1.1//EN"
 "http://www.w3.org/Graphics/SVG/1.1/DTD/svg11.dtd">
<!-- Generated by graphviz version 2.34.0 (20130907.0111)
 -->
<!-- Title: optVertex_s Pages: 1 -->
<svg width="234pt" height="347pt"
 viewBox="0.00 0.00 234.00 346.50" xmlns="http://www.w3.org/2000/svg" xmlns:xlink="http://www.w3.org/1999/xlink">
<g id="graph0" class="graph" transform="scale(1 1) rotate(0) translate(4 342.5)">
<title>optVertex_s</title>
<polygon fill="white" stroke="white" points="-4,4 -4,-342.5 230,-342.5 230,4 -4,4"/>
<!-- Node1 -->
<g id="node1" class="node"><title>Node1</title>
<polygon fill="#bfbfbf" stroke="black" points="92.5,-161 92.5,-180 161.5,-180 161.5,-161 92.5,-161"/>
<text text-anchor="middle" x="127" y="-168" font-family="Arial" font-size="10.00">optVertex_s</text>
</g>
<!-- Node1&#45;&gt;Node1 -->
<g id="edge12" class="edge"><title>Node1&#45;&gt;Node1</title>
<path fill="none" stroke="#9a32cd" stroke-dasharray="5,2" d="M171.726,-175.703C176.171,-174.662 179,-172.928 179,-170.5 179,-166.516 171.383,-164.399 161.504,-164.15"/>
<polygon fill="#9a32cd" stroke="#9a32cd" points="171.052,-172.257 161.504,-176.85 171.832,-179.213 171.052,-172.257"/>
<text text-anchor="middle" x="202.5" y="-168" font-family="Arial" font-size="10.00"> islandLink</text>
</g>
<!-- Node2 -->
<g id="node2" class="node"><title>Node2</title>
<g id="a_node2"><a xlink:href="structopt_edge__s.html" target="_top" xlink:title="optEdge_s">
<polygon fill="white" stroke="black" points="95.5,-7 95.5,-26 158.5,-26 158.5,-7 95.5,-7"/>
<text text-anchor="middle" x="127" y="-14" font-family="Arial" font-size="10.00">optEdge_s</text>
</a>
</g>
</g>
<!-- Node1&#45;&gt;Node2 -->
<g id="edge7" class="edge"><title>Node1&#45;&gt;Node2</title>
<path fill="none" stroke="#9a32cd" stroke-dasharray="5,2" d="M140.217,-152.855C147.936,-142.04 156.934,-127.253 161,-112.5 169.936,-80.0752 146.343,-42.8501 133.988,-26.2641"/>
<polygon fill="#9a32cd" stroke="#9a32cd" points="137.371,-150.817 134.171,-160.917 142.971,-155.017 137.371,-150.817"/>
<text text-anchor="middle" x="169.5" y="-104.5" font-family="Arial" font-size="10.00"> v2</text>
<text text-anchor="middle" x="169.5" y="-93.5" font-family="Arial" font-size="10.00">v1</text>
</g>
<!-- Node3 -->
<g id="node3" class="node"><title>Node3</title>
<g id="a_node3"><a xlink:href="structopt_tri__s.html" target="_top" xlink:title="optTri_s">
<polygon fill="white" stroke="black" points="-0.5,-92 -0.5,-111 50.5,-111 50.5,-92 -0.5,-92"/>
<text text-anchor="middle" x="25" y="-99" font-family="Arial" font-size="10.00">optTri_s</text>
</a>
</g>
</g>
<!-- Node1&#45;&gt;Node3 -->
<g id="edge5" class="edge"><title>Node1&#45;&gt;Node3</title>
<path fill="none" stroke="#9a32cd" stroke-dasharray="5,2" d="M105.296,-155.243C84.8766,-141.831 54.9772,-122.191 38.0155,-111.049"/>
<polygon fill="#9a32cd" stroke="#9a32cd" points="103.386,-158.176 113.665,-160.741 107.229,-152.325 103.386,-158.176"/>
<text text-anchor="middle" x="89.5" y="-134" font-family="Arial" font-size="10.00"> v</text>
</g>
<!-- Node2&#45;&gt;Node1 -->
<g id="edge1" class="edge"><title>Node2&#45;&gt;Node1</title>
<path fill="none" stroke="#9a32cd" stroke-dasharray="5,2" d="M127,-36.1401C127,-69.2203 127,-136.96 127,-160.892"/>
<polygon fill="#9a32cd" stroke="#9a32cd" points="130.5,-36.0133 127,-26.0133 123.5,-36.0133 130.5,-36.0133"/>
<text text-anchor="middle" x="142" y="-99" font-family="Arial" font-size="10.00"> edges</text>
</g>
<!-- Node2&#45;&gt;Node2 -->
<g id="edge2" class="edge"><title>Node2&#45;&gt;Node2</title>
<path fill="none" stroke="#9a32cd" stroke-dasharray="5,2" d="M168.722,-23.3654C173.154,-22.0353 176,-19.7468 176,-16.5 176,-11.1719 168.336,-8.42456 158.576,-8.25806"/>
<polygon fill="#9a32cd" stroke="#9a32cd" points="168.015,-19.9293 158.576,-24.7419 168.956,-26.8657 168.015,-19.9293"/>
<text text-anchor="middle" x="198" y="-25" font-family="Arial" font-size="10.00"> v1link</text>
<text text-anchor="middle" x="198" y="-14" font-family="Arial" font-size="10.00">v2link</text>
<text text-anchor="middle" x="198" y="-3" font-family="Arial" font-size="10.00">islandLink</text>
</g>
<!-- Node3&#45;&gt;Node2 -->
<g id="edge3" class="edge"><title>Node3&#45;&gt;Node2</title>
<path fill="none" stroke="#9a32cd" stroke-dasharray="5,2" d="M40.2824,-84.8026C50.5555,-74.5786 64.6159,-61.2017 78,-50.5 89.2146,-41.533 102.818,-32.5042 112.843,-26.1631"/>
<polygon fill="#9a32cd" stroke="#9a32cd" points="37.792,-82.3433 33.2387,-91.9099 42.764,-87.2708 37.792,-82.3433"/>
<text text-anchor="middle" x="95.5" y="-64.5" font-family="Arial" font-size="10.00"> backTri</text>
<text text-anchor="middle" x="95.5" y="-53.5" font-family="Arial" font-size="10.00">frontTri</text>
</g>
<!-- Node3&#45;&gt;Node3 -->
<g id="edge6" class="edge"><title>Node3&#45;&gt;Node3</title>
<path fill="none" stroke="#9a32cd" stroke-dasharray="5,2" d="M60.6457,-107.039C65.0834,-106.058 68,-104.211 68,-101.5 68,-97.0508 60.1457,-94.9305 50.604,-95.139"/>
<polygon fill="#9a32cd" stroke="#9a32cd" points="60.2852,-103.557 50.604,-107.861 60.8561,-110.534 60.2852,-103.557"/>
<text text-anchor="middle" x="79" y="-99" font-family="Arial" font-size="10.00"> next</text>
</g>
<!-- Node4 -->
<g id="node4" class="node"><title>Node4</title>
<g id="a_node4"><a xlink:href="classid_vec3.html" target="_top" xlink:title="idVec3">
<polygon fill="white" stroke="black" points="56.5,-319 56.5,-338 103.5,-338 103.5,-319 56.5,-319"/>
<text text-anchor="middle" x="80" y="-326" font-family="Arial" font-size="10.00">idVec3</text>
</a>
</g>
</g>
<!-- Node4&#45;&gt;Node1 -->
<g id="edge8" class="edge"><title>Node4&#45;&gt;Node1</title>
<path fill="none" stroke="#9a32cd" stroke-dasharray="5,2" d="M79.0067,-308.9C78.5273,-288.559 79.5439,-255.289 89,-228.5 95.7299,-209.434 110.279,-190.554 119.294,-180.021"/>
<polygon fill="#9a32cd" stroke="#9a32cd" points="75.513,-309.133 79.3959,-318.991 82.5078,-308.864 75.513,-309.133"/>
<text text-anchor="middle" x="95.5" y="-236" font-family="Arial" font-size="10.00"> pv</text>
</g>
<!-- Node4&#45;&gt;Node3 -->
<g id="edge4" class="edge"><title>Node4&#45;&gt;Node3</title>
<path fill="none" stroke="#9a32cd" stroke-dasharray="5,2" d="M75.5125,-309.142C64.2551,-263.089 35.1431,-143.995 27.091,-111.054"/>
<polygon fill="#9a32cd" stroke="#9a32cd" points="72.1366,-310.072 77.9111,-318.954 78.9364,-308.409 72.1366,-310.072"/>
<text text-anchor="middle" x="72" y="-202" font-family="Arial" font-size="10.00"> midpoint</text>
</g>
<!-- Node5 -->
<g id="node5" class="node"><title>Node5</title>
<g id="a_node5"><a xlink:href="classid_draw_vert.html" target="_top" xlink:title="idDrawVert">
<polygon fill="white" stroke="black" points="111,-229 111,-248 175,-248 175,-229 111,-229"/>
<text text-anchor="middle" x="143" y="-236" font-family="Arial" font-size="10.00">idDrawVert</text>
</a>
</g>
</g>
<!-- Node4&#45;&gt;Node5 -->
<g id="edge11" class="edge"><title>Node4&#45;&gt;Node5</title>
<path fill="none" stroke="#9a32cd" stroke-dasharray="5,2" d="M87.4771,-309.112C93.1383,-296.421 101.69,-279.549 112,-266.5 117.487,-259.556 124.931,-253.004 131.15,-248.094"/>
<polygon fill="#9a32cd" stroke="#9a32cd" points="84.1285,-308.042 83.4264,-318.614 90.5678,-310.788 84.1285,-308.042"/>
<text text-anchor="middle" x="131" y="-292" font-family="Arial" font-size="10.00"> xyz</text>
<text text-anchor="middle" x="131" y="-281" font-family="Arial" font-size="10.00">normal</text>
<text text-anchor="middle" x="131" y="-270" font-family="Arial" font-size="10.00">tangents</text>
</g>
<!-- Node5&#45;&gt;Node1 -->
<g id="edge9" class="edge"><title>Node5&#45;&gt;Node1</title>
<path fill="none" stroke="#9a32cd" stroke-dasharray="5,2" d="M138.497,-218.925C135.436,-206.298 131.524,-190.162 129.143,-180.341"/>
<polygon fill="#9a32cd" stroke="#9a32cd" points="135.151,-219.978 140.908,-228.872 141.954,-218.329 135.151,-219.978"/>
<text text-anchor="middle" x="140.5" y="-202" font-family="Arial" font-size="10.00"> v</text>
</g>
<!-- Node6 -->
<g id="node6" class="node"><title>Node6</title>
<g id="a_node6"><a xlink:href="classid_vec2.html" target="_top" xlink:title="idVec2">
<polygon fill="white" stroke="black" points="150.5,-319 150.5,-338 197.5,-338 197.5,-319 150.5,-319"/>
<text text-anchor="middle" x="174" y="-326" font-family="Arial" font-size="10.00">idVec2</text>
</a>
</g>
</g>
<!-- Node6&#45;&gt;Node5 -->
<g id="edge10" class="edge"><title>Node6&#45;&gt;Node5</title>
<path fill="none" stroke="#9a32cd" stroke-dasharray="5,2" d="M167.576,-309.266C160.999,-290.595 151.055,-262.367 146.073,-248.224"/>
<polygon fill="#9a32cd" stroke="#9a32cd" points="164.29,-310.472 170.914,-318.741 170.893,-308.146 164.29,-310.472"/>
<text text-anchor="middle" x="170" y="-281" font-family="Arial" font-size="10.00"> st</text>
</g>
</g>
</svg>
