<?xml version="1.0" encoding="UTF-8" standalone="no"?>
<!DOCTYPE svg PUBLIC "-//W3C//DTD SVG 1.1//EN"
 "http://www.w3.org/Graphics/SVG/1.1/DTD/svg11.dtd">
<!-- Generated by graphviz version 2.34.0 (20130907.0111)
 -->
<!-- Title: _NMPROPTREE Pages: 1 -->
<svg width="400pt" height="231pt"
 viewBox="0.00 0.00 400.00 230.50" xmlns="http://www.w3.org/2000/svg" xmlns:xlink="http://www.w3.org/1999/xlink">
<g id="graph0" class="graph" transform="scale(1 1) rotate(0) translate(4 226.5)">
<title>_NMPROPTREE</title>
<polygon fill="white" stroke="white" points="-4,4 -4,-226.5 396,-226.5 396,4 -4,4"/>
<!-- Node1 -->
<g id="node1" class="node"><title>Node1</title>
<polygon fill="#bfbfbf" stroke="black" points="0,-68.5 0,-87.5 90,-87.5 90,-68.5 0,-68.5"/>
<text text-anchor="middle" x="45" y="-75.5" font-family="Arial" font-size="10.00">_NMPROPTREE</text>
</g>
<!-- Node2 -->
<g id="node2" class="node"><title>Node2</title>
<g id="a_node2"><a xlink:href="class_c_prop_tree_item.html" target="_top" xlink:title="CPropTreeItem">
<polygon fill="white" stroke="black" points="147.5,-185.5 147.5,-204.5 228.5,-204.5 228.5,-185.5 147.5,-185.5"/>
<text text-anchor="middle" x="188" y="-192.5" font-family="Arial" font-size="10.00">CPropTreeItem</text>
</a>
</g>
</g>
<!-- Node2&#45;&gt;Node1 -->
<g id="edge1" class="edge"><title>Node2&#45;&gt;Node1</title>
<path fill="none" stroke="#9a32cd" stroke-dasharray="5,2" d="M169.158,-178.848C138.824,-154.453 80.1118,-107.237 55.873,-87.744"/>
<polygon fill="#9a32cd" stroke="#9a32cd" points="167.266,-181.817 177.252,-185.356 171.652,-176.362 167.266,-181.817"/>
<text text-anchor="middle" x="144" y="-125.5" font-family="Arial" font-size="10.00"> pItem</text>
</g>
<!-- Node2&#45;&gt;Node2 -->
<g id="edge11" class="edge"><title>Node2&#45;&gt;Node2</title>
<path fill="none" stroke="#9a32cd" stroke-dasharray="5,2" d="M215.895,-206.761C231.547,-209.008 246,-205.088 246,-195 246,-182.818 224.924,-179.63 206.113,-185.436"/>
<polygon fill="#9a32cd" stroke="#9a32cd" points="216.637,-203.34 206.113,-204.564 215.103,-210.17 216.637,-203.34"/>
<text text-anchor="middle" x="271.5" y="-214.5" font-family="Arial" font-size="10.00"> m_pParent</text>
<text text-anchor="middle" x="271.5" y="-203.5" font-family="Arial" font-size="10.00">m_pVis</text>
<text text-anchor="middle" x="271.5" y="-192.5" font-family="Arial" font-size="10.00">m_pSibling</text>
<text text-anchor="middle" x="271.5" y="-181.5" font-family="Arial" font-size="10.00">m_pChild</text>
<text text-anchor="middle" x="271.5" y="-170.5" font-family="Arial" font-size="10.00">m_lParam</text>
</g>
<!-- Node3 -->
<g id="node3" class="node"><title>Node3</title>
<g id="a_node3"><a xlink:href="class_c_prop_tree.html" target="_top" xlink:title="CPropTree">
<polygon fill="white" stroke="black" points="223,-68.5 223,-87.5 285,-87.5 285,-68.5 223,-68.5"/>
<text text-anchor="middle" x="254" y="-75.5" font-family="Arial" font-size="10.00">CPropTree</text>
</a>
</g>
</g>
<!-- Node2&#45;&gt;Node3 -->
<g id="edge7" class="edge"><title>Node2&#45;&gt;Node3</title>
<path fill="none" stroke="#9a32cd" stroke-dasharray="5,2" d="M207.119,-178.683C215.767,-170.891 225.486,-160.794 232,-150 244.268,-129.67 250.266,-101.886 252.669,-87.8651"/>
<polygon fill="#9a32cd" stroke="#9a32cd" points="204.606,-176.227 199.295,-185.395 209.164,-181.54 204.606,-176.227"/>
<text text-anchor="middle" x="280" y="-142" font-family="Arial" font-size="10.00"> m_Root</text>
<text text-anchor="middle" x="280" y="-131" font-family="Arial" font-size="10.00">m_pVisbleList</text>
<text text-anchor="middle" x="280" y="-120" font-family="Arial" font-size="10.00">m_pFocus</text>
<text text-anchor="middle" x="280" y="-109" font-family="Arial" font-size="10.00">s_pFound</text>
</g>
<!-- Node3&#45;&gt;Node2 -->
<g id="edge2" class="edge"><title>Node3&#45;&gt;Node2</title>
<path fill="none" stroke="#9a32cd" stroke-dasharray="5,2" d="M213.185,-87.669C203.721,-91.6646 194.747,-97.4951 189,-106 172.405,-130.56 180.387,-168.433 185.227,-185.337"/>
<polygon fill="#9a32cd" stroke="#9a32cd" points="214.479,-90.9233 222.711,-84.2541 212.117,-84.3339 214.479,-90.9233"/>
<text text-anchor="middle" x="210.5" y="-125.5" font-family="Arial" font-size="10.00"> m_pProp</text>
</g>
<!-- Node5 -->
<g id="node5" class="node"><title>Node5</title>
<g id="a_node5"><a xlink:href="class_c_prop_tree_list.html" target="_top" xlink:title="CPropTreeList">
<polygon fill="white" stroke="black" points="314,-0.5 314,-19.5 392,-19.5 392,-0.5 314,-0.5"/>
<text text-anchor="middle" x="353" y="-7.5" font-family="Arial" font-size="10.00">CPropTreeList</text>
</a>
</g>
</g>
<!-- Node3&#45;&gt;Node5 -->
<g id="edge6" class="edge"><title>Node3&#45;&gt;Node5</title>
<path fill="none" stroke="#9a32cd" stroke-dasharray="5,2" d="M264.276,-59.6922C269.423,-52.2068 276.219,-43.8424 284,-38 294.904,-29.8128 308.608,-23.7765 320.924,-19.5136"/>
<polygon fill="#9a32cd" stroke="#9a32cd" points="261.117,-58.1352 258.688,-68.4477 267.018,-61.9011 261.117,-58.1352"/>
<text text-anchor="middle" x="305.5" y="-41.5" font-family="Arial" font-size="10.00"> m_pProp</text>
</g>
<!-- Node6 -->
<g id="node6" class="node"><title>Node6</title>
<g id="a_node6"><a xlink:href="class_c_prop_tree_info.html" target="_top" xlink:title="CPropTreeInfo">
<polygon fill="white" stroke="black" points="127.5,-0.5 127.5,-19.5 204.5,-19.5 204.5,-0.5 127.5,-0.5"/>
<text text-anchor="middle" x="166" y="-7.5" font-family="Arial" font-size="10.00">CPropTreeInfo</text>
</a>
</g>
</g>
<!-- Node3&#45;&gt;Node6 -->
<g id="edge10" class="edge"><title>Node3&#45;&gt;Node6</title>
<path fill="none" stroke="#9a32cd" stroke-dasharray="5,2" d="M234.128,-62.0961C216.668,-49.0012 191.87,-30.4028 177.507,-19.6305"/>
<polygon fill="#9a32cd" stroke="#9a32cd" points="232.396,-65.1716 242.496,-68.3717 236.596,-59.5716 232.396,-65.1716"/>
<text text-anchor="middle" x="239.5" y="-41.5" font-family="Arial" font-size="10.00"> m_pProp</text>
</g>
<!-- Node4 -->
<g id="node4" class="node"><title>Node4</title>
<polygon fill="white" stroke="#bfbfbf" points="335,-185.5 335,-204.5 379,-204.5 379,-185.5 335,-185.5"/>
<text text-anchor="middle" x="357" y="-192.5" font-family="Arial" font-size="10.00">CWnd</text>
</g>
<!-- Node4&#45;&gt;Node3 -->
<g id="edge3" class="edge"><title>Node4&#45;&gt;Node3</title>
<path fill="none" stroke="midnightblue" d="M352.316,-175.487C346.514,-155.936 334.882,-125.321 315,-106 306.528,-97.7673 295.124,-91.8087 284.468,-87.619"/>
<polygon fill="midnightblue" stroke="midnightblue" points="348.99,-176.595 355.015,-185.31 355.74,-174.74 348.99,-176.595"/>
</g>
<!-- Node4&#45;&gt;Node5 -->
<g id="edge5" class="edge"><title>Node4&#45;&gt;Node5</title>
<path fill="none" stroke="midnightblue" d="M365.29,-176C377.777,-146.195 398.031,-85.1984 379,-38 376.08,-30.7575 370.184,-24.3723 364.745,-19.6319"/>
<polygon fill="midnightblue" stroke="midnightblue" points="362.08,-174.604 361.274,-185.168 368.492,-177.413 362.08,-174.604"/>
</g>
<!-- Node5&#45;&gt;Node3 -->
<g id="edge4" class="edge"><title>Node5&#45;&gt;Node3</title>
<path fill="none" stroke="#9a32cd" stroke-dasharray="5,2" d="M346.224,-28.9548C342.664,-36.3369 337.638,-44.4407 331,-50 317.968,-60.9151 300.234,-67.5299 285.071,-71.4776"/>
<polygon fill="#9a32cd" stroke="#9a32cd" points="349.492,-30.2146 350.185,-19.6425 343.05,-27.475 349.492,-30.2146"/>
<text text-anchor="middle" x="358.5" y="-41.5" font-family="Arial" font-size="10.00"> m_List</text>
</g>
<!-- Node6&#45;&gt;Node3 -->
<g id="edge8" class="edge"><title>Node6&#45;&gt;Node3</title>
<path fill="none" stroke="#9a32cd" stroke-dasharray="5,2" d="M162.154,-29.78C161.77,-36.7489 162.709,-44.3288 167,-50 179.883,-67.0253 203.372,-73.6027 222.699,-76.0169"/>
<polygon fill="#9a32cd" stroke="#9a32cd" points="165.646,-30.0811 163.558,-19.6941 158.713,-29.1163 165.646,-30.0811"/>
<text text-anchor="middle" x="183" y="-41.5" font-family="Arial" font-size="10.00"> m_Info</text>
</g>
<!-- Node7 -->
<g id="node7" class="node"><title>Node7</title>
<polygon fill="white" stroke="#bfbfbf" points="108.5,-68.5 108.5,-87.5 157.5,-87.5 157.5,-68.5 108.5,-68.5"/>
<text text-anchor="middle" x="133" y="-75.5" font-family="Arial" font-size="10.00">CStatic</text>
</g>
<!-- Node7&#45;&gt;Node6 -->
<g id="edge9" class="edge"><title>Node7&#45;&gt;Node6</title>
<path fill="none" stroke="midnightblue" d="M138.407,-58.7838C140.688,-52.0816 143.606,-44.5361 147,-38 150.381,-31.4888 155.131,-24.7388 159.036,-19.6166"/>
<polygon fill="midnightblue" stroke="midnightblue" points="135.059,-57.7654 135.372,-68.3556 141.731,-59.8812 135.059,-57.7654"/>
</g>
</g>
</svg>
