<?xml version="1.0" encoding="UTF-8" standalone="no"?>
<!DOCTYPE svg PUBLIC "-//W3C//DTD SVG 1.1//EN"
 "http://www.w3.org/Graphics/SVG/1.1/DTD/svg11.dtd">
<!-- Generated by graphviz version 2.34.0 (20130907.0111)
 -->
<!-- Title: exportVertex_t Pages: 1 -->
<svg width="125pt" height="96pt"
 viewBox="0.00 0.00 125.00 96.00" xmlns="http://www.w3.org/2000/svg" xmlns:xlink="http://www.w3.org/1999/xlink">
<g id="graph0" class="graph" transform="scale(1 1) rotate(0) translate(4 92)">
<title>exportVertex_t</title>
<polygon fill="white" stroke="white" points="-4,4 -4,-92 121,-92 121,4 -4,4"/>
<!-- Node1 -->
<g id="node1" class="node"><title>Node1</title>
<polygon fill="#bfbfbf" stroke="black" points="18,-0.5 18,-19.5 98,-19.5 98,-0.5 18,-0.5"/>
<text text-anchor="middle" x="58" y="-7.5" font-family="Arial" font-size="10.00">exportVertex_t</text>
</g>
<!-- Node2 -->
<g id="node2" class="node"><title>Node2</title>
<g id="a_node2"><a xlink:href="classid_vec2.html" target="_top" xlink:title="idVec2">
<polygon fill="white" stroke="black" points="-0.5,-68.5 -0.5,-87.5 46.5,-87.5 46.5,-68.5 -0.5,-68.5"/>
<text text-anchor="middle" x="23" y="-75.5" font-family="Arial" font-size="10.00">idVec2</text>
</a>
</g>
</g>
<!-- Node2&#45;&gt;Node1 -->
<g id="edge1" class="edge"><title>Node2&#45;&gt;Node1</title>
<path fill="none" stroke="#9a32cd" stroke-dasharray="5,2" d="M20.2991,-58.1974C20.1437,-51.5154 20.9402,-44.1349 24,-38 27.8351,-30.3105 34.9969,-24.1152 41.762,-19.6083"/>
<polygon fill="#9a32cd" stroke="#9a32cd" points="16.839,-58.797 21.2276,-68.4401 23.8104,-58.1649 16.839,-58.797"/>
<text text-anchor="middle" x="48" y="-41.5" font-family="Arial" font-size="10.00"> texCoords</text>
</g>
<!-- Node3 -->
<g id="node3" class="node"><title>Node3</title>
<g id="a_node3"><a xlink:href="classid_vec3.html" target="_top" xlink:title="idVec3">
<polygon fill="white" stroke="black" points="70.5,-68.5 70.5,-87.5 117.5,-87.5 117.5,-68.5 70.5,-68.5"/>
<text text-anchor="middle" x="94" y="-75.5" font-family="Arial" font-size="10.00">idVec3</text>
</a>
</g>
</g>
<!-- Node3&#45;&gt;Node1 -->
<g id="edge2" class="edge"><title>Node3&#45;&gt;Node1</title>
<path fill="none" stroke="#9a32cd" stroke-dasharray="5,2" d="M84.4889,-59.563C77.5172,-46.7815 68.3418,-29.9599 62.8224,-19.8411"/>
<polygon fill="#9a32cd" stroke="#9a32cd" points="81.4324,-61.2687 89.2936,-68.3717 87.5777,-57.9167 81.4324,-61.2687"/>
<text text-anchor="middle" x="88.5" y="-41.5" font-family="Arial" font-size="10.00"> pos</text>
</g>
</g>
</svg>
