<?xml version="1.0" encoding="UTF-8" standalone="no"?>
<!DOCTYPE svg PUBLIC "-//W3C//DTD SVG 1.1//EN"
 "http://www.w3.org/Graphics/SVG/1.1/DTD/svg11.dtd">
<!-- Generated by graphviz version 2.34.0 (20130907.0111)
 -->
<!-- Title: eyeIsland_t Pages: 1 -->
<svg width="129pt" height="96pt"
 viewBox="0.00 0.00 129.00 96.00" xmlns="http://www.w3.org/2000/svg" xmlns:xlink="http://www.w3.org/1999/xlink">
<g id="graph0" class="graph" transform="scale(1 1) rotate(0) translate(4 92)">
<title>eyeIsland_t</title>
<polygon fill="white" stroke="white" points="-4,4 -4,-92 125,-92 125,4 -4,4"/>
<!-- Node1 -->
<g id="node1" class="node"><title>Node1</title>
<polygon fill="#bfbfbf" stroke="black" points="30,-0.5 30,-19.5 96,-19.5 96,-0.5 30,-0.5"/>
<text text-anchor="middle" x="63" y="-7.5" font-family="Arial" font-size="10.00">eyeIsland_t</text>
</g>
<!-- Node2 -->
<g id="node2" class="node"><title>Node2</title>
<g id="a_node2"><a xlink:href="classid_bounds.html" target="_top" xlink:title="idBounds">
<polygon fill="white" stroke="black" points="-0.5,-68.5 -0.5,-87.5 56.5,-87.5 56.5,-68.5 -0.5,-68.5"/>
<text text-anchor="middle" x="28" y="-75.5" font-family="Arial" font-size="10.00">idBounds</text>
</a>
</g>
</g>
<!-- Node2&#45;&gt;Node1 -->
<g id="edge1" class="edge"><title>Node2&#45;&gt;Node1</title>
<path fill="none" stroke="#9a32cd" stroke-dasharray="5,2" d="M32.7718,-58.1583C34.8288,-51.5639 37.5634,-44.2501 41,-38 44.6126,-31.43 49.8871,-24.8899 54.3659,-19.8923"/>
<polygon fill="#9a32cd" stroke="#9a32cd" points="29.2687,-57.6892 29.9455,-68.2624 36.01,-59.5749 29.2687,-57.6892"/>
<text text-anchor="middle" x="58.5" y="-41.5" font-family="Arial" font-size="10.00"> bounds</text>
</g>
<!-- Node3 -->
<g id="node3" class="node"><title>Node3</title>
<g id="a_node3"><a xlink:href="classid_vec3.html" target="_top" xlink:title="idVec3">
<polygon fill="white" stroke="black" points="74.5,-68.5 74.5,-87.5 121.5,-87.5 121.5,-68.5 74.5,-68.5"/>
<text text-anchor="middle" x="98" y="-75.5" font-family="Arial" font-size="10.00">idVec3</text>
</a>
</g>
</g>
<!-- Node3&#45;&gt;Node1 -->
<g id="edge2" class="edge"><title>Node3&#45;&gt;Node1</title>
<path fill="none" stroke="#9a32cd" stroke-dasharray="5,2" d="M88.5531,-59.1859C81.8005,-46.4523 73.0019,-29.8607 67.6885,-19.8411"/>
<polygon fill="#9a32cd" stroke="#9a32cd" points="85.6472,-61.1768 93.4244,-68.3717 91.8314,-57.8972 85.6472,-61.1768"/>
<text text-anchor="middle" x="92.5" y="-41.5" font-family="Arial" font-size="10.00"> mid</text>
</g>
</g>
</svg>
