<?xml version="1.0" encoding="UTF-8" standalone="no"?>
<!DOCTYPE svg PUBLIC "-//W3C//DTD SVG 1.1//EN"
 "http://www.w3.org/Graphics/SVG/1.1/DTD/svg11.dtd">
<!-- Generated by graphviz version 2.34.0 (20130907.0111)
 -->
<!-- Title: vorbis_look_residue0 Pages: 1 -->
<svg width="428pt" height="254pt"
 viewBox="0.00 0.00 428.00 254.00" xmlns="http://www.w3.org/2000/svg" xmlns:xlink="http://www.w3.org/1999/xlink">
<g id="graph0" class="graph" transform="scale(1 1) rotate(0) translate(4 250)">
<title>vorbis_look_residue0</title>
<polygon fill="white" stroke="white" points="-4,4 -4,-250 424,-250 424,4 -4,4"/>
<!-- Node1 -->
<g id="node1" class="node"><title>Node1</title>
<polygon fill="#bfbfbf" stroke="black" points="88.5,-0.5 88.5,-19.5 195.5,-19.5 195.5,-0.5 88.5,-0.5"/>
<text text-anchor="middle" x="142" y="-7.5" font-family="Arial" font-size="10.00">vorbis_look_residue0</text>
</g>
<!-- Node2 -->
<g id="node2" class="node"><title>Node2</title>
<g id="a_node2"><a xlink:href="structvorbis__info__residue0.html" target="_top" xlink:title="vorbis_info_residue0">
<polygon fill="white" stroke="black" points="55,-90.5 55,-109.5 159,-109.5 159,-90.5 55,-90.5"/>
<text text-anchor="middle" x="107" y="-97.5" font-family="Arial" font-size="10.00">vorbis_info_residue0</text>
</a>
</g>
</g>
<!-- Node2&#45;&gt;Node1 -->
<g id="edge1" class="edge"><title>Node2&#45;&gt;Node1</title>
<path fill="none" stroke="#9a32cd" stroke-dasharray="5,2" d="M114.252,-80.7655C121.678,-62.0946 132.905,-33.8669 138.53,-19.7241"/>
<polygon fill="#9a32cd" stroke="#9a32cd" points="110.927,-79.6549 110.484,-90.2405 117.432,-82.242 110.927,-79.6549"/>
<text text-anchor="middle" x="140.5" y="-52.5" font-family="Arial" font-size="10.00"> info</text>
</g>
<!-- Node3 -->
<g id="node3" class="node"><title>Node3</title>
<g id="a_node3"><a xlink:href="structcodebook.html" target="_top" xlink:title="codebook">
<polygon fill="white" stroke="black" points="177.5,-90.5 177.5,-109.5 236.5,-109.5 236.5,-90.5 177.5,-90.5"/>
<text text-anchor="middle" x="207" y="-97.5" font-family="Arial" font-size="10.00">codebook</text>
</a>
</g>
</g>
<!-- Node3&#45;&gt;Node1 -->
<g id="edge2" class="edge"><title>Node3&#45;&gt;Node1</title>
<path fill="none" stroke="#9a32cd" stroke-dasharray="5,2" d="M194.482,-82.0524C180.716,-63.4151 159.133,-34.1958 148.444,-19.7241"/>
<polygon fill="#9a32cd" stroke="#9a32cd" points="191.773,-84.2763 200.53,-90.2405 197.404,-80.1173 191.773,-84.2763"/>
<text text-anchor="middle" x="210.5" y="-63.5" font-family="Arial" font-size="10.00"> partbooks</text>
<text text-anchor="middle" x="210.5" y="-52.5" font-family="Arial" font-size="10.00">fullbooks</text>
<text text-anchor="middle" x="210.5" y="-41.5" font-family="Arial" font-size="10.00">phrasebook</text>
</g>
<!-- Node4 -->
<g id="node4" class="node"><title>Node4</title>
<g id="a_node4"><a xlink:href="structstatic__codebook.html" target="_top" xlink:title="static_codebook">
<polygon fill="white" stroke="black" points="163,-158.5 163,-177.5 251,-177.5 251,-158.5 163,-158.5"/>
<text text-anchor="middle" x="207" y="-165.5" font-family="Arial" font-size="10.00">static_codebook</text>
</a>
</g>
</g>
<!-- Node4&#45;&gt;Node3 -->
<g id="edge3" class="edge"><title>Node4&#45;&gt;Node3</title>
<path fill="none" stroke="#9a32cd" stroke-dasharray="5,2" d="M207,-148.041C207,-135.472 207,-119.563 207,-109.841"/>
<polygon fill="#9a32cd" stroke="#9a32cd" points="203.5,-148.372 207,-158.372 210.5,-148.372 203.5,-148.372"/>
<text text-anchor="middle" x="211.5" y="-131.5" font-family="Arial" font-size="10.00"> c</text>
</g>
<!-- Node5 -->
<g id="node5" class="node"><title>Node5</title>
<g id="a_node5"><a xlink:href="structencode__aux__threshmatch.html" target="_top" xlink:title="encode_aux_threshmatch">
<polygon fill="white" stroke="black" points="0,-226.5 0,-245.5 128,-245.5 128,-226.5 0,-226.5"/>
<text text-anchor="middle" x="64" y="-233.5" font-family="Arial" font-size="10.00">encode_aux_threshmatch</text>
</a>
</g>
</g>
<!-- Node5&#45;&gt;Node4 -->
<g id="edge4" class="edge"><title>Node5&#45;&gt;Node4</title>
<path fill="none" stroke="#9a32cd" stroke-dasharray="5,2" d="M92.0917,-222.035C120.554,-208.898 163.783,-188.946 188.301,-177.63"/>
<polygon fill="#9a32cd" stroke="#9a32cd" points="90.3076,-219.003 82.6948,-226.372 93.2411,-225.359 90.3076,-219.003"/>
<text text-anchor="middle" x="174" y="-199.5" font-family="Arial" font-size="10.00"> thresh_tree</text>
</g>
<!-- Node6 -->
<g id="node6" class="node"><title>Node6</title>
<g id="a_node6"><a xlink:href="structencode__aux__pigeonhole.html" target="_top" xlink:title="encode_aux_pigeonhole">
<polygon fill="white" stroke="black" points="146.5,-226.5 146.5,-245.5 267.5,-245.5 267.5,-226.5 146.5,-226.5"/>
<text text-anchor="middle" x="207" y="-233.5" font-family="Arial" font-size="10.00">encode_aux_pigeonhole</text>
</a>
</g>
</g>
<!-- Node6&#45;&gt;Node4 -->
<g id="edge5" class="edge"><title>Node6&#45;&gt;Node4</title>
<path fill="none" stroke="#9a32cd" stroke-dasharray="5,2" d="M207,-216.041C207,-203.472 207,-187.563 207,-177.841"/>
<polygon fill="#9a32cd" stroke="#9a32cd" points="203.5,-216.372 207,-226.372 210.5,-216.372 203.5,-216.372"/>
<text text-anchor="middle" x="234" y="-199.5" font-family="Arial" font-size="10.00"> pigeon_tree</text>
</g>
<!-- Node7 -->
<g id="node7" class="node"><title>Node7</title>
<g id="a_node7"><a xlink:href="structencode__aux__nearestmatch.html" target="_top" xlink:title="encode_aux_nearestmatch">
<polygon fill="white" stroke="black" points="286,-226.5 286,-245.5 420,-245.5 420,-226.5 286,-226.5"/>
<text text-anchor="middle" x="353" y="-233.5" font-family="Arial" font-size="10.00">encode_aux_nearestmatch</text>
</a>
</g>
</g>
<!-- Node7&#45;&gt;Node4 -->
<g id="edge6" class="edge"><title>Node7&#45;&gt;Node4</title>
<path fill="none" stroke="#9a32cd" stroke-dasharray="5,2" d="M324.699,-222.206C295.645,-209.072 251.233,-188.996 226.092,-177.63"/>
<polygon fill="#9a32cd" stroke="#9a32cd" points="323.359,-225.442 333.913,-226.372 326.243,-219.063 323.359,-225.442"/>
<text text-anchor="middle" x="322" y="-199.5" font-family="Arial" font-size="10.00"> nearest_tree</text>
</g>
</g>
</svg>
