<?xml version="1.0" encoding="UTF-8" standalone="no"?>
<!DOCTYPE svg PUBLIC "-//W3C//DTD SVG 1.1//EN"
 "http://www.w3.org/Graphics/SVG/1.1/DTD/svg11.dtd">
<!-- Generated by graphviz version 2.34.0 (20130907.0111)
 -->
<!-- Title: cm_trmEdge_s Pages: 1 -->
<svg width="232pt" height="118pt"
 viewBox="0.00 0.00 232.00 118.00" xmlns="http://www.w3.org/2000/svg" xmlns:xlink="http://www.w3.org/1999/xlink">
<g id="graph0" class="graph" transform="scale(1 1) rotate(0) translate(4 114)">
<title>cm_trmEdge_s</title>
<polygon fill="white" stroke="white" points="-4,4 -4,-114 228,-114 228,4 -4,4"/>
<!-- Node1 -->
<g id="node1" class="node"><title>Node1</title>
<polygon fill="#bfbfbf" stroke="black" points="78.5,-0.5 78.5,-19.5 161.5,-19.5 161.5,-0.5 78.5,-0.5"/>
<text text-anchor="middle" x="120" y="-7.5" font-family="Arial" font-size="10.00">cm_trmEdge_s</text>
</g>
<!-- Node2 -->
<g id="node2" class="node"><title>Node2</title>
<g id="a_node2"><a xlink:href="classid_bounds.html" target="_top" xlink:title="idBounds">
<polygon fill="white" stroke="black" points="-0.5,-90.5 -0.5,-109.5 56.5,-109.5 56.5,-90.5 -0.5,-90.5"/>
<text text-anchor="middle" x="28" y="-97.5" font-family="Arial" font-size="10.00">idBounds</text>
</a>
</g>
</g>
<!-- Node2&#45;&gt;Node1 -->
<g id="edge1" class="edge"><title>Node2&#45;&gt;Node1</title>
<path fill="none" stroke="#9a32cd" stroke-dasharray="5,2" d="M29.4894,-80.3336C31.4853,-66.99 36.1433,-49.44 47,-38 55.3716,-29.1786 66.8794,-23.2227 78.2837,-19.2077"/>
<polygon fill="#9a32cd" stroke="#9a32cd" points="26.0053,-79.9969 28.3614,-90.3264 32.9611,-80.7821 26.0053,-79.9969"/>
<text text-anchor="middle" x="81.5" y="-52.5" font-family="Arial" font-size="10.00"> rotationBounds</text>
</g>
<!-- Node3 -->
<g id="node3" class="node"><title>Node3</title>
<g id="a_node3"><a xlink:href="classid_vec3.html" target="_top" xlink:title="idVec3">
<polygon fill="white" stroke="black" points="96.5,-90.5 96.5,-109.5 143.5,-109.5 143.5,-90.5 96.5,-90.5"/>
<text text-anchor="middle" x="120" y="-97.5" font-family="Arial" font-size="10.00">idVec3</text>
</a>
</g>
</g>
<!-- Node3&#45;&gt;Node1 -->
<g id="edge2" class="edge"><title>Node3&#45;&gt;Node1</title>
<path fill="none" stroke="#9a32cd" stroke-dasharray="5,2" d="M120,-79.9784C120,-61.3096 120,-33.6696 120,-19.7241"/>
<polygon fill="#9a32cd" stroke="#9a32cd" points="116.5,-80.2405 120,-90.2405 123.5,-80.2405 116.5,-80.2405"/>
<text text-anchor="middle" x="132.5" y="-63.5" font-family="Arial" font-size="10.00"> end</text>
<text text-anchor="middle" x="132.5" y="-52.5" font-family="Arial" font-size="10.00">cross</text>
<text text-anchor="middle" x="132.5" y="-41.5" font-family="Arial" font-size="10.00">start</text>
</g>
<!-- Node4 -->
<g id="node4" class="node"><title>Node4</title>
<g id="a_node4"><a xlink:href="classid_pluecker.html" target="_top" xlink:title="idPluecker">
<polygon fill="white" stroke="black" points="162,-90.5 162,-109.5 224,-109.5 224,-90.5 162,-90.5"/>
<text text-anchor="middle" x="193" y="-97.5" font-family="Arial" font-size="10.00">idPluecker</text>
</a>
</g>
</g>
<!-- Node4&#45;&gt;Node1 -->
<g id="edge3" class="edge"><title>Node4&#45;&gt;Node1</title>
<path fill="none" stroke="#9a32cd" stroke-dasharray="5,2" d="M181.866,-81.7136C173.437,-69.1131 161.255,-51.8881 149,-38 143.174,-31.3976 135.924,-24.6476 130.131,-19.5482"/>
<polygon fill="#9a32cd" stroke="#9a32cd" points="179.101,-83.8806 187.518,-90.3159 184.952,-80.0366 179.101,-83.8806"/>
<text text-anchor="middle" x="193" y="-58" font-family="Arial" font-size="10.00"> plzaxis</text>
<text text-anchor="middle" x="193" y="-47" font-family="Arial" font-size="10.00">pl</text>
</g>
</g>
</svg>
