<?xml version="1.0" encoding="UTF-8" standalone="no"?>
<!DOCTYPE svg PUBLIC "-//W3C//DTD SVG 1.1//EN"
 "http://www.w3.org/Graphics/SVG/1.1/DTD/svg11.dtd">
<!-- Generated by graphviz version 2.34.0 (20130907.0111)
 -->
<!-- Title: bspbrush_s Pages: 1 -->
<svg width="377pt" height="312pt"
 viewBox="0.00 0.00 377.00 312.00" xmlns="http://www.w3.org/2000/svg" xmlns:xlink="http://www.w3.org/1999/xlink">
<g id="graph0" class="graph" transform="scale(1 1) rotate(0) translate(4 308)">
<title>bspbrush_s</title>
<polygon fill="white" stroke="white" points="-4,4 -4,-308 373,-308 373,4 -4,4"/>
<!-- Node1 -->
<g id="node1" class="node"><title>Node1</title>
<polygon fill="#bfbfbf" stroke="black" points="192.5,-1.5 192.5,-20.5 259.5,-20.5 259.5,-1.5 192.5,-1.5"/>
<text text-anchor="middle" x="226" y="-8.5" font-family="Arial" font-size="10.00">bspbrush_s</text>
</g>
<!-- Node1&#45;&gt;Node1 -->
<g id="edge1" class="edge"><title>Node1&#45;&gt;Node1</title>
<path fill="none" stroke="#9a32cd" stroke-dasharray="5,2" d="M269.866,-16.2033C274.226,-15.1624 277,-13.428 277,-11 277,-7.01563 269.529,-4.89893 259.841,-4.6499"/>
<polygon fill="#9a32cd" stroke="#9a32cd" points="269.378,-12.7362 259.841,-17.3501 270.174,-19.6909 269.378,-12.7362"/>
<text text-anchor="middle" x="294" y="-14" font-family="Arial" font-size="10.00"> original</text>
<text text-anchor="middle" x="294" y="-3" font-family="Arial" font-size="10.00">next</text>
</g>
<!-- Node2 -->
<g id="node2" class="node"><title>Node2</title>
<g id="a_node2"><a xlink:href="structside__s.html" target="_top" xlink:title="side_s">
<polygon fill="white" stroke="black" points="110.5,-70.5 110.5,-89.5 155.5,-89.5 155.5,-70.5 110.5,-70.5"/>
<text text-anchor="middle" x="133" y="-77.5" font-family="Arial" font-size="10.00">side_s</text>
</a>
</g>
</g>
<!-- Node2&#45;&gt;Node1 -->
<g id="edge2" class="edge"><title>Node2&#45;&gt;Node1</title>
<path fill="none" stroke="#9a32cd" stroke-dasharray="5,2" d="M152.249,-64.2443C161.989,-56.86 174.041,-47.846 185,-40 194.251,-33.3767 204.863,-26.1393 212.972,-20.6821"/>
<polygon fill="#9a32cd" stroke="#9a32cd" points="149.887,-61.6439 144.052,-70.4875 154.128,-67.2126 149.887,-61.6439"/>
<text text-anchor="middle" x="198.5" y="-43.5" font-family="Arial" font-size="10.00"> sides</text>
</g>
<!-- Node3 -->
<g id="node3" class="node"><title>Node3</title>
<g id="a_node3"><a xlink:href="classid_winding.html" target="_top" xlink:title="idWinding">
<polygon fill="white" stroke="black" points="-0.5,-148.5 -0.5,-167.5 58.5,-167.5 58.5,-148.5 -0.5,-148.5"/>
<text text-anchor="middle" x="29" y="-155.5" font-family="Arial" font-size="10.00">idWinding</text>
</a>
</g>
</g>
<!-- Node3&#45;&gt;Node2 -->
<g id="edge3" class="edge"><title>Node3&#45;&gt;Node2</title>
<path fill="none" stroke="#9a32cd" stroke-dasharray="5,2" d="M39.947,-139.69C47.1731,-129.384 57.424,-116.667 69,-108 81.3563,-98.7483 97.3563,-91.9983 110.267,-87.5612"/>
<polygon fill="#9a32cd" stroke="#9a32cd" points="36.8469,-138.03 34.2101,-148.292 42.6705,-141.914 36.8469,-138.03"/>
<text text-anchor="middle" x="90.5" y="-122" font-family="Arial" font-size="10.00"> winding</text>
<text text-anchor="middle" x="90.5" y="-111" font-family="Arial" font-size="10.00">visibleHull</text>
</g>
<!-- Node4 -->
<g id="node4" class="node"><title>Node4</title>
<g id="a_node4"><a xlink:href="classid_vec5.html" target="_top" xlink:title="idVec5">
<polygon fill="white" stroke="black" points="5.5,-216.5 5.5,-235.5 52.5,-235.5 52.5,-216.5 5.5,-216.5"/>
<text text-anchor="middle" x="29" y="-223.5" font-family="Arial" font-size="10.00">idVec5</text>
</a>
</g>
</g>
<!-- Node4&#45;&gt;Node3 -->
<g id="edge4" class="edge"><title>Node4&#45;&gt;Node3</title>
<path fill="none" stroke="#9a32cd" stroke-dasharray="5,2" d="M29,-206.041C29,-193.472 29,-177.563 29,-167.841"/>
<polygon fill="#9a32cd" stroke="#9a32cd" points="25.5001,-206.372 29,-216.372 32.5001,-206.372 25.5001,-206.372"/>
<text text-anchor="middle" x="33.5" y="-189.5" font-family="Arial" font-size="10.00"> p</text>
</g>
<!-- Node5 -->
<g id="node5" class="node"><title>Node5</title>
<g id="a_node5"><a xlink:href="structtexture_vectors__t.html" target="_top" xlink:title="textureVectors_t">
<polygon fill="white" stroke="black" points="76.5,-148.5 76.5,-167.5 165.5,-167.5 165.5,-148.5 76.5,-148.5"/>
<text text-anchor="middle" x="121" y="-155.5" font-family="Arial" font-size="10.00">textureVectors_t</text>
</a>
</g>
</g>
<!-- Node5&#45;&gt;Node2 -->
<g id="edge5" class="edge"><title>Node5&#45;&gt;Node2</title>
<path fill="none" stroke="#9a32cd" stroke-dasharray="5,2" d="M116.446,-138.106C114.98,-128.886 114.338,-117.715 117,-108 118.786,-101.484 122.595,-94.9455 126.049,-89.9353"/>
<polygon fill="#9a32cd" stroke="#9a32cd" points="113.065,-139.047 118.476,-148.156 119.927,-137.661 113.065,-139.047"/>
<text text-anchor="middle" x="134" y="-116.5" font-family="Arial" font-size="10.00"> texVec</text>
</g>
<!-- Node6 -->
<g id="node6" class="node"><title>Node6</title>
<g id="a_node6"><a xlink:href="classid_vec4.html" target="_top" xlink:title="idVec4">
<polygon fill="white" stroke="black" points="97.5,-216.5 97.5,-235.5 144.5,-235.5 144.5,-216.5 97.5,-216.5"/>
<text text-anchor="middle" x="121" y="-223.5" font-family="Arial" font-size="10.00">idVec4</text>
</a>
</g>
</g>
<!-- Node6&#45;&gt;Node5 -->
<g id="edge6" class="edge"><title>Node6&#45;&gt;Node5</title>
<path fill="none" stroke="#9a32cd" stroke-dasharray="5,2" d="M121,-206.041C121,-193.472 121,-177.563 121,-167.841"/>
<polygon fill="#9a32cd" stroke="#9a32cd" points="117.5,-206.372 121,-216.372 124.5,-206.372 117.5,-206.372"/>
<text text-anchor="middle" x="124.5" y="-189.5" font-family="Arial" font-size="10.00"> v</text>
</g>
<!-- Node7 -->
<g id="node7" class="node"><title>Node7</title>
<g id="a_node7"><a xlink:href="classid_material.html" target="_top" xlink:title="idMaterial">
<polygon fill="white" stroke="black" points="187.5,-148.5 187.5,-167.5 246.5,-167.5 246.5,-148.5 187.5,-148.5"/>
<text text-anchor="middle" x="217" y="-155.5" font-family="Arial" font-size="10.00">idMaterial</text>
</a>
</g>
</g>
<!-- Node7&#45;&gt;Node1 -->
<g id="edge11" class="edge"><title>Node7&#45;&gt;Node1</title>
<path fill="none" stroke="#9a32cd" stroke-dasharray="5,2" d="M218.164,-138.25C220.127,-106.619 224.023,-43.848 225.455,-20.7743"/>
<polygon fill="#9a32cd" stroke="#9a32cd" points="214.662,-138.166 217.536,-148.364 221.649,-138.6 214.662,-138.166"/>
<text text-anchor="middle" x="256.5" y="-77.5" font-family="Arial" font-size="10.00"> contentShader</text>
</g>
<!-- Node7&#45;&gt;Node2 -->
<g id="edge7" class="edge"><title>Node7&#45;&gt;Node2</title>
<path fill="none" stroke="#9a32cd" stroke-dasharray="5,2" d="M191.951,-143.117C185.811,-139.226 179.445,-134.75 174,-130 159.791,-117.604 146.373,-100.063 138.962,-89.6772"/>
<polygon fill="#9a32cd" stroke="#9a32cd" points="190.279,-146.196 200.65,-148.363 193.894,-140.202 190.279,-146.196"/>
<text text-anchor="middle" x="193" y="-116.5" font-family="Arial" font-size="10.00"> material</text>
</g>
<!-- Node8 -->
<g id="node8" class="node"><title>Node8</title>
<g id="a_node8"><a xlink:href="classid_decl.html" target="_top" xlink:title="idDecl">
<polygon fill="white" stroke="black" points="195,-216.5 195,-235.5 239,-235.5 239,-216.5 195,-216.5"/>
<text text-anchor="middle" x="217" y="-223.5" font-family="Arial" font-size="10.00">idDecl</text>
</a>
</g>
</g>
<!-- Node8&#45;&gt;Node7 -->
<g id="edge8" class="edge"><title>Node8&#45;&gt;Node7</title>
<path fill="none" stroke="midnightblue" d="M217,-206.041C217,-193.472 217,-177.563 217,-167.841"/>
<polygon fill="midnightblue" stroke="midnightblue" points="213.5,-206.372 217,-216.372 220.5,-206.372 213.5,-206.372"/>
</g>
<!-- Node9 -->
<g id="node9" class="node"><title>Node9</title>
<g id="a_node9"><a xlink:href="classid_decl_base.html" target="_top" xlink:title="idDeclBase">
<polygon fill="white" stroke="black" points="184,-284.5 184,-303.5 250,-303.5 250,-284.5 184,-284.5"/>
<text text-anchor="middle" x="217" y="-291.5" font-family="Arial" font-size="10.00">idDeclBase</text>
</a>
</g>
</g>
<!-- Node9&#45;&gt;Node8 -->
<g id="edge9" class="edge"><title>Node9&#45;&gt;Node8</title>
<path fill="none" stroke="#9a32cd" stroke-dasharray="5,2" d="M217,-274.041C217,-261.472 217,-245.563 217,-235.841"/>
<polygon fill="#9a32cd" stroke="#9a32cd" points="213.5,-274.372 217,-284.372 220.5,-274.372 213.5,-274.372"/>
<text text-anchor="middle" x="229.5" y="-257.5" font-family="Arial" font-size="10.00"> base</text>
</g>
<!-- Node10 -->
<g id="node10" class="node"><title>Node10</title>
<g id="a_node10"><a xlink:href="classid_bounds.html" target="_top" xlink:title="idBounds">
<polygon fill="white" stroke="black" points="311.5,-70.5 311.5,-89.5 368.5,-89.5 368.5,-70.5 311.5,-70.5"/>
<text text-anchor="middle" x="340" y="-77.5" font-family="Arial" font-size="10.00">idBounds</text>
</a>
</g>
</g>
<!-- Node10&#45;&gt;Node1 -->
<g id="edge10" class="edge"><title>Node10&#45;&gt;Node1</title>
<path fill="none" stroke="#9a32cd" stroke-dasharray="5,2" d="M316.354,-65.1026C293.521,-51.6837 259.674,-31.7908 240.547,-20.5494"/>
<polygon fill="#9a32cd" stroke="#9a32cd" points="314.702,-68.1914 325.096,-70.2409 318.249,-62.1565 314.702,-68.1914"/>
<text text-anchor="middle" x="311.5" y="-43.5" font-family="Arial" font-size="10.00"> bounds</text>
</g>
</g>
</svg>
