<?xml version="1.0" encoding="UTF-8" standalone="no"?>
<!DOCTYPE svg PUBLIC "-//W3C//DTD SVG 1.1//EN"
 "http://www.w3.org/Graphics/SVG/1.1/DTD/svg11.dtd">
<!-- Generated by graphviz version 2.34.0 (20130907.0111)
 -->
<!-- Title: afTouch_s Pages: 1 -->
<!--zoomable 870 -->
<svg id="main" version="1.1" xmlns="http://www.w3.org/2000/svg" xmlns:xlink="http://www.w3.org/1999/xlink" xml:space="preserve" onload="init(evt)">
<style type="text/css"><![CDATA[
.edge:hover path { stroke: red; }
.edge:hover polygon { stroke: red; fill: red; }
]]></style>
<script type="text/javascript"><![CDATA[
var edges = document.getElementsByTagName('g');
if (edges && edges.length) {
  for (var i=0;i<edges.length;i++) {
    if (edges[i].id.substr(0,4)=='edge') {
      edges[i].setAttribute('class','edge');
    }
  }
}
]]></script>
        <defs>
                <circle id="rim" cx="0" cy="0" r="7"/>
                <circle id="rim2" cx="0" cy="0" r="3.5"/>
                <g id="zoomPlus">
                        <use xlink:href="#rim" fill="#404040">
                                <set attributeName="fill" to="#808080" begin="zoomplus.mouseover" end="zoomplus.mouseout"/>
                        </use>
                        <path d="M-4,0h8M0,-4v8" fill="none" stroke="white" stroke-width="1.5" pointer-events="none"/>
                </g>
                <g id="zoomMin">
                        <use xlink:href="#rim" fill="#404040">
                                <set attributeName="fill" to="#808080" begin="zoomminus.mouseover" end="zoomminus.mouseout"/>
                        </use>
                        <path d="M-4,0h8" fill="none" stroke="white" stroke-width="1.5" pointer-events="none"/>
                </g>
                <g id="dirArrow">
                        <path fill="none" stroke="white" stroke-width="1.5" d="M0,-3.0v7 M-2.5,-0.5L0,-3.0L2.5,-0.5"/>
                </g>
               <g id="resetDef">
                       <use xlink:href="#rim2" fill="#404040">
                               <set attributeName="fill" to="#808080" begin="reset.mouseover" end="reset.mouseout"/>
                       </use>
               </g>
        </defs>

<script type="text/javascript">
var viewWidth = 1160;
var viewHeight = 870;
var sectionId = 'dynsection-0';
</script>
<script xlink:href="svgpan.js"/>
<svg id="graph" class="graph">
<g id="viewport">
<title>afTouch_s</title>
<polygon fill="white" stroke="white" points="-4,4 -4,-866.212 1156,-866.212 1156,4 -4,4"/>
<!-- Node1 -->
<g id="node1" class="node"><title>Node1</title>
<polygon fill="#bfbfbf" stroke="black" points="1090.5,-546.712 1090.5,-565.712 1151.5,-565.712 1151.5,-546.712 1090.5,-546.712"/>
<text text-anchor="middle" x="1121" y="-553.712" font-family="Arial" font-size="10.00">afTouch_s</text>
</g>
<!-- Node2 -->
<g id="node2" class="node"><title>Node2</title>
<g id="a_node2"><a xlink:href="classid_clip_model.html" target="_top" xlink:title="idClipModel">
<polygon fill="white" stroke="black" points="904.5,-842.712 904.5,-861.712 971.5,-861.712 971.5,-842.712 904.5,-842.712"/>
<text text-anchor="middle" x="938" y="-849.712" font-family="Arial" font-size="10.00">idClipModel</text>
</a>
</g>
</g>
<!-- Node2&#45;&gt;Node1 -->
<g id="edge1" class="edge"><title>Node2&#45;&gt;Node1</title>
<path fill="none" stroke="#9a32cd" stroke-dasharray="5,2" d="M968.132,-836.766C969.498,-835.637 970.798,-834.452 972,-833.212 1055.65,-746.863 1105,-603.761 1117.08,-565.733"/>
<polygon fill="#9a32cd" stroke="#9a32cd" points="965.997,-833.988 959.816,-842.593 970.014,-839.72 965.997,-833.988"/>
<text text-anchor="middle" x="1031" y="-811.212" font-family="Arial" font-size="10.00"> touchedClipModel</text>
</g>
<!-- Node3 -->
<g id="node3" class="node"><title>Node3</title>
<g id="a_node3"><a xlink:href="classid_entity.html" target="_top" xlink:title="idEntity">
<polygon fill="white" stroke="black" points="913,-546.712 913,-565.712 963,-565.712 963,-546.712 913,-546.712"/>
<text text-anchor="middle" x="938" y="-553.712" font-family="Arial" font-size="10.00">idEntity</text>
</a>
</g>
</g>
<!-- Node3&#45;&gt;Node1 -->
<g id="edge2" class="edge"><title>Node3&#45;&gt;Node1</title>
<path fill="none" stroke="#9a32cd" stroke-dasharray="5,2" d="M973.371,-556.212C1007.22,-556.212 1058.38,-556.212 1090.45,-556.212"/>
<polygon fill="#9a32cd" stroke="#9a32cd" points="973.035,-552.712 963.035,-556.212 973.035,-559.712 973.035,-552.712"/>
<text text-anchor="middle" x="1031" y="-559.212" font-family="Arial" font-size="10.00"> touchedEnt</text>
</g>
<!-- Node3&#45;&gt;Node3 -->
<g id="edge12" class="edge"><title>Node3&#45;&gt;Node3</title>
<path fill="none" stroke="#9a32cd" stroke-dasharray="5,2" d="M922.075,-575.612C923.138,-580.526 928.447,-584.212 938,-584.212 953.285,-584.212 957.704,-574.777 951.255,-565.969"/>
<polygon fill="#9a32cd" stroke="#9a32cd" points="925.449,-576.54 924.745,-565.969 918.703,-574.672 925.449,-576.54"/>
<text text-anchor="middle" x="938" y="-587.212" font-family="Arial" font-size="10.00"> cameraTarget</text>
</g>
<!-- Node4 -->
<g id="node4" class="node"><title>Node4</title>
<g id="a_node4"><a xlink:href="classid_class.html" target="_top" xlink:title="idClass">
<polygon fill="white" stroke="black" points="709.5,-730.712 709.5,-749.712 758.5,-749.712 758.5,-730.712 709.5,-730.712"/>
<text text-anchor="middle" x="734" y="-737.712" font-family="Arial" font-size="10.00">idClass</text>
</a>
</g>
</g>
<!-- Node4&#45;&gt;Node3 -->
<g id="edge3" class="edge"><title>Node4&#45;&gt;Node3</title>
<path fill="none" stroke="midnightblue" d="M765.549,-727.615C799.073,-717.084 852.557,-699.708 886,-666.212 915.539,-636.626 929.077,-587.213 934.271,-565.854"/>
<polygon fill="midnightblue" stroke="midnightblue" points="764.319,-724.333 755.831,-730.674 766.42,-731.01 764.319,-724.333"/>
</g>
<!-- Node4&#45;&gt;Node3 -->
<g id="edge11" class="edge"><title>Node4&#45;&gt;Node3</title>
<path fill="none" stroke="midnightblue" d="M768.777,-740.153C802.424,-733.973 853.611,-716.653 886,-684.212 919.985,-650.172 932.79,-589.886 936.077,-565.764"/>
<polygon fill="midnightblue" stroke="midnightblue" points="767.847,-736.757 758.515,-741.774 768.939,-743.671 767.847,-736.757"/>
</g>
<!-- Node5 -->
<g id="node5" class="node"><title>Node5</title>
<g id="a_node5"><a xlink:href="classid_type_info.html" target="_top" xlink:title="idTypeInfo">
<polygon fill="white" stroke="black" points="908,-764.712 908,-783.712 968,-783.712 968,-764.712 908,-764.712"/>
<text text-anchor="middle" x="938" y="-771.712" font-family="Arial" font-size="10.00">idTypeInfo</text>
</a>
</g>
</g>
<!-- Node4&#45;&gt;Node5 -->
<g id="edge9" class="edge"><title>Node4&#45;&gt;Node5</title>
<path fill="none" stroke="#9a32cd" stroke-dasharray="5,2" d="M768.583,-734.282C799.759,-730.097 847.081,-727.142 886,-739.212 902,-744.174 917.439,-756.085 927.058,-764.634"/>
<polygon fill="#9a32cd" stroke="#9a32cd" points="768.056,-730.822 758.665,-735.728 769.066,-737.748 768.056,-730.822"/>
<text text-anchor="middle" x="851" y="-742.212" font-family="Arial" font-size="10.00"> CreateInstance</text>
</g>
<!-- Node5&#45;&gt;Node4 -->
<g id="edge4" class="edge"><title>Node5&#45;&gt;Node4</title>
<path fill="none" stroke="#9a32cd" stroke-dasharray="5,2" d="M897.726,-767.601C856.404,-760.646 792.723,-749.928 758.567,-744.179"/>
<polygon fill="#9a32cd" stroke="#9a32cd" points="897.276,-771.075 907.719,-769.283 898.438,-764.172 897.276,-771.075"/>
<text text-anchor="middle" x="851" y="-768.212" font-family="Arial" font-size="10.00"> Type</text>
</g>
<!-- Node5&#45;&gt;Node5 -->
<g id="edge5" class="edge"><title>Node5&#45;&gt;Node5</title>
<path fill="none" stroke="#9a32cd" stroke-dasharray="5,2" d="M922.075,-793.612C923.138,-798.526 928.447,-802.212 938,-802.212 953.285,-802.212 957.704,-792.777 951.255,-783.969"/>
<polygon fill="#9a32cd" stroke="#9a32cd" points="925.449,-794.54 924.745,-783.969 918.703,-792.672 925.449,-794.54"/>
<text text-anchor="middle" x="938" y="-816.212" font-family="Arial" font-size="10.00"> next</text>
<text text-anchor="middle" x="938" y="-805.212" font-family="Arial" font-size="10.00">super</text>
</g>
<!-- Node6 -->
<g id="node6" class="node"><title>Node6</title>
<g id="a_node6"><a xlink:href="classid_hierarchy.html" target="_top" xlink:title="idHierarchy\&lt; idTypeInfo \&gt;">
<polygon fill="white" stroke="black" points="670.5,-788.712 670.5,-807.712 797.5,-807.712 797.5,-788.712 670.5,-788.712"/>
<text text-anchor="middle" x="734" y="-795.712" font-family="Arial" font-size="10.00">idHierarchy&lt; idTypeInfo &gt;</text>
</a>
</g>
</g>
<!-- Node6&#45;&gt;Node5 -->
<g id="edge6" class="edge"><title>Node6&#45;&gt;Node5</title>
<path fill="none" stroke="#9a32cd" stroke-dasharray="5,2" d="M807.797,-794.669C832.695,-792.864 860.652,-790.178 886,-786.212 893.099,-785.101 900.674,-783.533 907.754,-781.896"/>
<polygon fill="#9a32cd" stroke="#9a32cd" points="807.431,-791.186 797.696,-795.366 807.913,-798.169 807.431,-791.186"/>
<text text-anchor="middle" x="851" y="-797.212" font-family="Arial" font-size="10.00"> node</text>
</g>
<!-- Node7 -->
<g id="node7" class="node"><title>Node7</title>
<g id="a_node7"><a xlink:href="structid_event_func.html" target="_top" xlink:title="idEventFunc\&lt; idClass \&gt;">
<polygon fill="white" stroke="black" points="428,-801.712 428,-820.712 548,-820.712 548,-801.712 428,-801.712"/>
<text text-anchor="middle" x="488" y="-808.712" font-family="Arial" font-size="10.00">idEventFunc&lt; idClass &gt;</text>
</a>
</g>
</g>
<!-- Node7&#45;&gt;Node4 -->
<g id="edge10" class="edge"><title>Node7&#45;&gt;Node4</title>
<path fill="none" stroke="#9a32cd" stroke-dasharray="5,2" d="M531.497,-798.846C583.068,-783.84 668.21,-759.065 709.327,-747.1"/>
<polygon fill="#9a32cd" stroke="#9a32cd" points="530.278,-795.556 521.654,-801.71 532.233,-802.277 530.278,-795.556"/>
<text text-anchor="middle" x="609" y="-792.212" font-family="Arial" font-size="10.00"> eventCallbacks</text>
</g>
<!-- Node7&#45;&gt;Node5 -->
<g id="edge7" class="edge"><title>Node7&#45;&gt;Node5</title>
<path fill="none" stroke="#9a32cd" stroke-dasharray="5,2" d="M545.91,-822.515C624.908,-835.658 771.048,-850.66 886,-809.212 901.557,-803.602 916.853,-792.076 926.572,-783.782"/>
<polygon fill="#9a32cd" stroke="#9a32cd" points="546.132,-819.002 535.685,-820.762 544.949,-825.902 546.132,-819.002"/>
<text text-anchor="middle" x="734" y="-840.212" font-family="Arial" font-size="10.00"> eventCallbacks</text>
</g>
<!-- Node8 -->
<g id="node8" class="node"><title>Node8</title>
<g id="a_node8"><a xlink:href="classid_event_def.html" target="_top" xlink:title="idEventDef">
<polygon fill="white" stroke="black" points="234,-801.712 234,-820.712 296,-820.712 296,-801.712 234,-801.712"/>
<text text-anchor="middle" x="265" y="-808.712" font-family="Arial" font-size="10.00">idEventDef</text>
</a>
</g>
</g>
<!-- Node8&#45;&gt;Node7 -->
<g id="edge8" class="edge"><title>Node8&#45;&gt;Node7</title>
<path fill="none" stroke="#9a32cd" stroke-dasharray="5,2" d="M306.282,-811.212C340.209,-811.212 389.214,-811.212 427.636,-811.212"/>
<polygon fill="#9a32cd" stroke="#9a32cd" points="306.266,-807.712 296.266,-811.212 306.266,-814.712 306.266,-807.712"/>
<text text-anchor="middle" x="374" y="-814.212" font-family="Arial" font-size="10.00"> event</text>
</g>
<!-- Node9 -->
<g id="node9" class="node"><title>Node9</title>
<g id="a_node9"><a xlink:href="classid_str.html" target="_top" xlink:title="idStr">
<polygon fill="white" stroke="black" points="715.5,-491.712 715.5,-510.712 752.5,-510.712 752.5,-491.712 715.5,-491.712"/>
<text text-anchor="middle" x="734" y="-498.712" font-family="Arial" font-size="10.00">idStr</text>
</a>
</g>
</g>
<!-- Node9&#45;&gt;Node3 -->
<g id="edge13" class="edge"><title>Node9&#45;&gt;Node3</title>
<path fill="none" stroke="#9a32cd" stroke-dasharray="5,2" d="M762.849,-500.118C794.204,-499.945 845.991,-502.904 886,-521.212 895.733,-525.666 895.317,-530.953 904,-537.212 908.612,-540.536 913.85,-543.771 918.772,-546.602"/>
<polygon fill="#9a32cd" stroke="#9a32cd" points="762.603,-496.621 752.664,-500.289 762.721,-503.62 762.603,-496.621"/>
<text text-anchor="middle" x="851" y="-524.212" font-family="Arial" font-size="10.00"> name</text>
</g>
<!-- Node10 -->
<g id="node10" class="node"><title>Node10</title>
<g id="a_node10"><a xlink:href="structid_entity_1_1entity_flags__s.html" target="_top" xlink:title="idEntity::entityFlags_s">
<polygon fill="white" stroke="black" points="677,-453.712 677,-472.712 791,-472.712 791,-453.712 677,-453.712"/>
<text text-anchor="middle" x="734" y="-460.712" font-family="Arial" font-size="10.00">idEntity::entityFlags_s</text>
</a>
</g>
</g>
<!-- Node10&#45;&gt;Node3 -->
<g id="edge14" class="edge"><title>Node10&#45;&gt;Node3</title>
<path fill="none" stroke="#9a32cd" stroke-dasharray="5,2" d="M801.232,-460.488C830.107,-462.602 862.626,-469.87 886,-489.212 903.554,-503.737 889.26,-519.838 904,-537.212 907.079,-540.841 911.037,-543.932 915.135,-546.5"/>
<polygon fill="#9a32cd" stroke="#9a32cd" points="801.366,-456.991 791.191,-459.944 800.987,-463.98 801.366,-456.991"/>
<text text-anchor="middle" x="851" y="-492.212" font-family="Arial" font-size="10.00"> fl</text>
</g>
<!-- Node11 -->
<g id="node11" class="node"><title>Node11</title>
<g id="a_node11"><a xlink:href="structrender_view__s.html" target="_top" xlink:title="renderView_s">
<polygon fill="white" stroke="black" points="450.5,-136.712 450.5,-155.712 525.5,-155.712 525.5,-136.712 450.5,-136.712"/>
<text text-anchor="middle" x="488" y="-143.712" font-family="Arial" font-size="10.00">renderView_s</text>
</a>
</g>
</g>
<!-- Node11&#45;&gt;Node3 -->
<g id="edge15" class="edge"><title>Node11&#45;&gt;Node3</title>
<path fill="none" stroke="#9a32cd" stroke-dasharray="5,2" d="M536.066,-143.173C600.632,-141.343 717.784,-146.626 798,-200.212 847.507,-233.284 863.011,-246.292 886,-301.212 906.309,-349.73 875.961,-492.712 904,-537.212 906.397,-541.015 909.848,-544.139 913.626,-546.675"/>
<polygon fill="#9a32cd" stroke="#9a32cd" points="535.657,-139.685 525.787,-143.537 535.905,-146.68 535.657,-139.685"/>
<text text-anchor="middle" x="734" y="-203.212" font-family="Arial" font-size="10.00"> renderView</text>
</g>
<!-- Node19 -->
<g id="node19" class="node"><title>Node19</title>
<g id="a_node19"><a xlink:href="structrender_entity__s.html" target="_top" xlink:title="renderEntity_s">
<polygon fill="white" stroke="black" points="694,-220.712 694,-239.712 774,-239.712 774,-220.712 694,-220.712"/>
<text text-anchor="middle" x="734" y="-227.712" font-family="Arial" font-size="10.00">renderEntity_s</text>
</a>
</g>
</g>
<!-- Node11&#45;&gt;Node19 -->
<g id="edge28" class="edge"><title>Node11&#45;&gt;Node19</title>
<path fill="none" stroke="#9a32cd" stroke-dasharray="5,2" d="M535.704,-150.2C569.058,-154.207 614.479,-162.065 652,-177.212 678.959,-188.095 706.473,-208.473 721.479,-220.543"/>
<polygon fill="#9a32cd" stroke="#9a32cd" points="536.092,-146.721 525.762,-149.076 535.305,-153.677 536.092,-146.721"/>
<text text-anchor="middle" x="609" y="-180.212" font-family="Arial" font-size="10.00"> remoteRenderView</text>
</g>
<!-- Node12 -->
<g id="node12" class="node"><title>Node12</title>
<g id="a_node12"><a xlink:href="classid_mat3.html" target="_top" xlink:title="idMat3">
<polygon fill="white" stroke="black" points="242,-201.712 242,-220.712 288,-220.712 288,-201.712 242,-201.712"/>
<text text-anchor="middle" x="265" y="-208.712" font-family="Arial" font-size="10.00">idMat3</text>
</a>
</g>
</g>
<!-- Node12&#45;&gt;Node11 -->
<g id="edge16" class="edge"><title>Node12&#45;&gt;Node11</title>
<path fill="none" stroke="#9a32cd" stroke-dasharray="5,2" d="M298.083,-201.776C339.89,-189.479 412.594,-168.096 454.571,-155.75"/>
<polygon fill="#9a32cd" stroke="#9a32cd" points="297.013,-198.442 288.407,-204.622 298.988,-205.158 297.013,-198.442"/>
<text text-anchor="middle" x="374" y="-192.212" font-family="Arial" font-size="10.00"> viewaxis</text>
</g>
<!-- Node12&#45;&gt;Node19 -->
<g id="edge24" class="edge"><title>Node12&#45;&gt;Node19</title>
<path fill="none" stroke="#9a32cd" stroke-dasharray="5,2" d="M298.348,-212.528C381.683,-215.918 603.494,-224.943 693.861,-228.619"/>
<polygon fill="#9a32cd" stroke="#9a32cd" points="298.344,-209.025 288.21,-212.115 298.06,-216.019 298.344,-209.025"/>
<text text-anchor="middle" x="488" y="-226.212" font-family="Arial" font-size="10.00"> axis</text>
</g>
<!-- Node13 -->
<g id="node13" class="node"><title>Node13</title>
<g id="a_node13"><a xlink:href="classid_vec3.html" target="_top" xlink:title="idVec3">
<polygon fill="white" stroke="black" points="241.5,-356.712 241.5,-375.712 288.5,-375.712 288.5,-356.712 241.5,-356.712"/>
<text text-anchor="middle" x="265" y="-363.712" font-family="Arial" font-size="10.00">idVec3</text>
</a>
</g>
</g>
<!-- Node13&#45;&gt;Node11 -->
<g id="edge17" class="edge"><title>Node13&#45;&gt;Node11</title>
<path fill="none" stroke="#9a32cd" stroke-dasharray="5,2" d="M298.143,-354.859C310.571,-350.52 324.925,-345.569 338,-341.212 369.87,-330.59 388.634,-344.134 410,-318.212 453.549,-265.377 384.513,-218.098 428,-165.212 433.673,-158.313 441.869,-153.89 450.356,-151.063"/>
<polygon fill="#9a32cd" stroke="#9a32cd" points="296.93,-351.575 288.65,-358.185 299.245,-358.181 296.93,-351.575"/>
<text text-anchor="middle" x="374" y="-344.212" font-family="Arial" font-size="10.00"> vieworg</text>
</g>
<!-- Node13&#45;&gt;Node19 -->
<g id="edge32" class="edge"><title>Node13&#45;&gt;Node19</title>
<path fill="none" stroke="#9a32cd" stroke-dasharray="5,2" d="M298.832,-366.044C380.595,-365.132 591.11,-359.611 652,-327.212 690.35,-306.806 717.832,-259.94 728.316,-239.751"/>
<polygon fill="#9a32cd" stroke="#9a32cd" points="298.589,-362.546 288.623,-366.141 298.655,-369.545 298.589,-362.546"/>
<text text-anchor="middle" x="488" y="-365.212" font-family="Arial" font-size="10.00"> origin</text>
</g>
<!-- Node27 -->
<g id="node27" class="node"><title>Node27</title>
<g id="a_node27"><a xlink:href="structref_sound__t.html" target="_top" xlink:title="refSound_t">
<polygon fill="white" stroke="black" points="456.5,-429.712 456.5,-448.712 519.5,-448.712 519.5,-429.712 456.5,-429.712"/>
<text text-anchor="middle" x="488" y="-436.712" font-family="Arial" font-size="10.00">refSound_t</text>
</a>
</g>
</g>
<!-- Node13&#45;&gt;Node27 -->
<g id="edge42" class="edge"><title>Node13&#45;&gt;Node27</title>
<path fill="none" stroke="#9a32cd" stroke-dasharray="5,2" d="M298.416,-377.125C331.097,-388.102 383.004,-405.468 428,-420.212 437.51,-423.328 447.897,-426.688 457.269,-429.703"/>
<polygon fill="#9a32cd" stroke="#9a32cd" points="299.108,-373.666 288.514,-373.797 296.878,-380.301 299.108,-373.666"/>
<text text-anchor="middle" x="374" y="-416.212" font-family="Arial" font-size="10.00"> origin</text>
</g>
<!-- Node14 -->
<g id="node14" class="node"><title>Node14</title>
<g id="a_node14"><a xlink:href="classid_material.html" target="_top" xlink:title="idMaterial">
<polygon fill="white" stroke="black" points="235.5,-95.7119 235.5,-114.712 294.5,-114.712 294.5,-95.7119 235.5,-95.7119"/>
<text text-anchor="middle" x="265" y="-102.712" font-family="Arial" font-size="10.00">idMaterial</text>
</a>
</g>
</g>
<!-- Node14&#45;&gt;Node11 -->
<g id="edge18" class="edge"><title>Node14&#45;&gt;Node11</title>
<path fill="none" stroke="#9a32cd" stroke-dasharray="5,2" d="M304.801,-112.41C345.861,-120.028 410.165,-131.957 450.379,-139.418"/>
<polygon fill="#9a32cd" stroke="#9a32cd" points="305.363,-108.955 294.892,-110.572 304.086,-115.837 305.363,-108.955"/>
<text text-anchor="middle" x="374" y="-135.212" font-family="Arial" font-size="10.00"> globalMaterial</text>
</g>
<!-- Node14&#45;&gt;Node19 -->
<g id="edge34" class="edge"><title>Node14&#45;&gt;Node19</title>
<path fill="none" stroke="#9a32cd" stroke-dasharray="5,2" d="M302.829,-92.547C356.907,-75.6877 460.827,-49.9012 548,-67.2119 597.059,-76.954 616.406,-75.072 652,-110.212 666.452,-124.48 659.521,-134.815 670,-152.212 685.987,-178.753 710.2,-206.095 723.471,-220.293"/>
<polygon fill="#9a32cd" stroke="#9a32cd" points="301.474,-89.3056 293.013,-95.6815 303.603,-95.9739 301.474,-89.3056"/>
<text text-anchor="middle" x="488" y="-81.2119" font-family="Arial" font-size="10.00"> customShader</text>
<text text-anchor="middle" x="488" y="-70.2119" font-family="Arial" font-size="10.00">referenceShader</text>
</g>
<!-- Node15 -->
<g id="node15" class="node"><title>Node15</title>
<g id="a_node15"><a xlink:href="classid_decl.html" target="_top" xlink:title="idDecl">
<polygon fill="white" stroke="black" points="128,-95.7119 128,-114.712 172,-114.712 172,-95.7119 128,-95.7119"/>
<text text-anchor="middle" x="150" y="-102.712" font-family="Arial" font-size="10.00">idDecl</text>
</a>
</g>
</g>
<!-- Node15&#45;&gt;Node14 -->
<g id="edge19" class="edge"><title>Node15&#45;&gt;Node14</title>
<path fill="none" stroke="midnightblue" d="M182.507,-105.212C199.008,-105.212 219.073,-105.212 235.163,-105.212"/>
<polygon fill="midnightblue" stroke="midnightblue" points="182.254,-101.712 172.254,-105.212 182.254,-108.712 182.254,-101.712"/>
</g>
<!-- Node20 -->
<g id="node20" class="node"><title>Node20</title>
<g id="a_node20"><a xlink:href="classid_decl_skin.html" target="_top" xlink:title="idDeclSkin">
<polygon fill="white" stroke="black" points="342.5,-17.7119 342.5,-36.7119 405.5,-36.7119 405.5,-17.7119 342.5,-17.7119"/>
<text text-anchor="middle" x="374" y="-24.7119" font-family="Arial" font-size="10.00">idDeclSkin</text>
</a>
</g>
</g>
<!-- Node15&#45;&gt;Node20 -->
<g id="edge26" class="edge"><title>Node15&#45;&gt;Node20</title>
<path fill="none" stroke="midnightblue" d="M181.773,-94.3998C225.263,-79.1195 304.03,-51.4447 345.603,-36.8379"/>
<polygon fill="midnightblue" stroke="midnightblue" points="180.561,-91.1159 172.286,-97.7329 182.881,-97.7201 180.561,-91.1159"/>
</g>
<!-- Node29 -->
<g id="node29" class="node"><title>Node29</title>
<g id="a_node29"><a xlink:href="classid_sound_shader.html" target="_top" xlink:title="idSoundShader">
<polygon fill="white" stroke="black" points="223.5,-460.712 223.5,-479.712 306.5,-479.712 306.5,-460.712 223.5,-460.712"/>
<text text-anchor="middle" x="265" y="-467.712" font-family="Arial" font-size="10.00">idSoundShader</text>
</a>
</g>
</g>
<!-- Node15&#45;&gt;Node29 -->
<g id="edge40" class="edge"><title>Node15&#45;&gt;Node29</title>
<path fill="none" stroke="midnightblue" d="M151.802,-125.062C154.846,-190.958 167.748,-401.118 210,-451.212 213.652,-455.542 218.355,-458.886 223.46,-461.468"/>
<polygon fill="midnightblue" stroke="midnightblue" points="155.287,-124.656 151.356,-114.818 148.294,-124.961 155.287,-124.656"/>
</g>
<!-- Node16 -->
<g id="node16" class="node"><title>Node16</title>
<g id="a_node16"><a xlink:href="classid_decl_base.html" target="_top" xlink:title="idDeclBase">
<polygon fill="white" stroke="black" points="0,-95.7119 0,-114.712 66,-114.712 66,-95.7119 0,-95.7119"/>
<text text-anchor="middle" x="33" y="-102.712" font-family="Arial" font-size="10.00">idDeclBase</text>
</a>
</g>
</g>
<!-- Node16&#45;&gt;Node15 -->
<g id="edge20" class="edge"><title>Node16&#45;&gt;Node15</title>
<path fill="none" stroke="#9a32cd" stroke-dasharray="5,2" d="M76.0643,-105.212C93.5984,-105.212 113.201,-105.212 127.664,-105.212"/>
<polygon fill="#9a32cd" stroke="#9a32cd" points="76.0339,-101.712 66.0339,-105.212 76.0339,-108.712 76.0339,-101.712"/>
<text text-anchor="middle" x="97" y="-108.212" font-family="Arial" font-size="10.00"> base</text>
</g>
<!-- Node17 -->
<g id="node17" class="node"><title>Node17</title>
<g id="a_node17"><a xlink:href="classid_list.html" target="_top" xlink:title="idList\&lt; idEntityPtr\l\&lt; idEntity \&gt; \&gt;">
<polygon fill="white" stroke="black" points="686.5,-648.212 686.5,-678.212 781.5,-678.212 781.5,-648.212 686.5,-648.212"/>
<text text-anchor="start" x="694.5" y="-666.212" font-family="Arial" font-size="10.00">idList&lt; idEntityPtr</text>
<text text-anchor="middle" x="734" y="-655.212" font-family="Arial" font-size="10.00">&lt; idEntity &gt; &gt;</text>
</a>
</g>
</g>
<!-- Node17&#45;&gt;Node3 -->
<g id="edge21" class="edge"><title>Node17&#45;&gt;Node3</title>
<path fill="none" stroke="#9a32cd" stroke-dasharray="5,2" d="M791.575,-665.751C821.844,-664.506 858.449,-658.585 886,-640.212 913.253,-622.038 928.314,-583.875 934.141,-565.929"/>
<polygon fill="#9a32cd" stroke="#9a32cd" points="791.483,-662.252 781.575,-666.006 791.661,-669.25 791.483,-662.252"/>
<text text-anchor="middle" x="851" y="-667.212" font-family="Arial" font-size="10.00"> targets</text>
</g>
<!-- Node18 -->
<g id="node18" class="node"><title>Node18</title>
<g id="a_node18"><a xlink:href="classid_link_list.html" target="_top" xlink:title="idLinkList\&lt; idEntity \&gt;">
<polygon fill="white" stroke="black" points="679.5,-605.712 679.5,-624.712 788.5,-624.712 788.5,-605.712 679.5,-605.712"/>
<text text-anchor="middle" x="734" y="-612.712" font-family="Arial" font-size="10.00">idLinkList&lt; idEntity &gt;</text>
</a>
</g>
</g>
<!-- Node18&#45;&gt;Node3 -->
<g id="edge22" class="edge"><title>Node18&#45;&gt;Node3</title>
<path fill="none" stroke="#9a32cd" stroke-dasharray="5,2" d="M798.705,-606.492C826.095,-601.636 858.148,-594.451 886,-584.212 898.893,-579.472 912.481,-571.866 922.387,-565.777"/>
<polygon fill="#9a32cd" stroke="#9a32cd" points="798.109,-603.043 788.841,-608.177 799.288,-609.943 798.109,-603.043"/>
<text text-anchor="middle" x="851" y="-628.212" font-family="Arial" font-size="10.00"> spawnNode</text>
<text text-anchor="middle" x="851" y="-617.212" font-family="Arial" font-size="10.00">snapshotNode</text>
<text text-anchor="middle" x="851" y="-606.212" font-family="Arial" font-size="10.00">activeNode</text>
</g>
<!-- Node19&#45;&gt;Node3 -->
<g id="edge23" class="edge"><title>Node19&#45;&gt;Node3</title>
<path fill="none" stroke="#9a32cd" stroke-dasharray="5,2" d="M755.742,-246.188C789.469,-273.471 855.492,-332.596 886,-399.212 911.754,-455.448 869.636,-485.783 904,-537.212 906.498,-540.95 909.997,-544.042 913.789,-546.569"/>
<polygon fill="#9a32cd" stroke="#9a32cd" points="757.909,-243.44 747.904,-239.953 753.551,-248.917 757.909,-243.44"/>
<text text-anchor="middle" x="851" y="-402.212" font-family="Arial" font-size="10.00"> renderEntity</text>
</g>
<!-- Node19&#45;&gt;Node19 -->
<g id="edge33" class="edge"><title>Node19&#45;&gt;Node19</title>
<path fill="none" stroke="#9a32cd" stroke-dasharray="5,2" d="M712.52,-249.612C713.954,-254.526 721.114,-258.212 734,-258.212 754.617,-258.212 760.577,-248.777 751.879,-239.969"/>
<polygon fill="#9a32cd" stroke="#9a32cd" points="715.901,-250.561 716.121,-239.969 709.343,-248.112 715.901,-250.561"/>
<text text-anchor="middle" x="734" y="-261.212" font-family="Arial" font-size="10.00"> callback</text>
</g>
<!-- Node20&#45;&gt;Node19 -->
<g id="edge25" class="edge"><title>Node20&#45;&gt;Node19</title>
<path fill="none" stroke="#9a32cd" stroke-dasharray="5,2" d="M415.661,-14.9817C476.462,0.510379 590.488,18.2645 652,-44.2119 686.141,-78.8877 650.056,-107.824 670,-152.212 682.556,-180.157 707.625,-206.545 722.067,-220.308"/>
<polygon fill="#9a32cd" stroke="#9a32cd" points="414.433,-11.6863 405.663,-17.6317 416.226,-18.4526 414.433,-11.6863"/>
<text text-anchor="middle" x="488" y="-15.2119" font-family="Arial" font-size="10.00"> customSkin</text>
</g>
<!-- Node21 -->
<g id="node21" class="node"><title>Node21</title>
<g id="a_node21"><a xlink:href="classid_joint_mat.html" target="_top" xlink:title="idJointMat">
<polygon fill="white" stroke="black" points="457.5,-391.712 457.5,-410.712 518.5,-410.712 518.5,-391.712 457.5,-391.712"/>
<text text-anchor="middle" x="488" y="-398.712" font-family="Arial" font-size="10.00">idJointMat</text>
</a>
</g>
</g>
<!-- Node21&#45;&gt;Node19 -->
<g id="edge27" class="edge"><title>Node21&#45;&gt;Node19</title>
<path fill="none" stroke="#9a32cd" stroke-dasharray="5,2" d="M528.787,-399.098C570.494,-396.194 632.615,-389.71 652,-376.212 701.48,-341.76 724.028,-266.909 730.743,-240.052"/>
<polygon fill="#9a32cd" stroke="#9a32cd" points="528.411,-395.615 518.661,-399.761 528.869,-402.6 528.411,-395.615"/>
<text text-anchor="middle" x="609" y="-399.212" font-family="Arial" font-size="10.00"> joints</text>
</g>
<!-- Node22 -->
<g id="node22" class="node"><title>Node22</title>
<g id="a_node22"><a xlink:href="classid_sound_emitter.html" target="_top" xlink:title="idSoundEmitter">
<polygon fill="white" stroke="black" points="223.5,-279.712 223.5,-298.712 306.5,-298.712 306.5,-279.712 223.5,-279.712"/>
<text text-anchor="middle" x="265" y="-286.712" font-family="Arial" font-size="10.00">idSoundEmitter</text>
</a>
</g>
</g>
<!-- Node22&#45;&gt;Node19 -->
<g id="edge29" class="edge"><title>Node22&#45;&gt;Node19</title>
<path fill="none" stroke="#9a32cd" stroke-dasharray="5,2" d="M316.726,-282.803C410.569,-270.947 609.388,-245.829 693.789,-235.166"/>
<polygon fill="#9a32cd" stroke="#9a32cd" points="316.109,-279.353 306.626,-284.079 316.986,-286.298 316.109,-279.353"/>
<text text-anchor="middle" x="488" y="-272.212" font-family="Arial" font-size="10.00"> referenceSound</text>
</g>
<!-- Node22&#45;&gt;Node27 -->
<g id="edge41" class="edge"><title>Node22&#45;&gt;Node27</title>
<path fill="none" stroke="#9a32cd" stroke-dasharray="5,2" d="M316.888,-289.286C352.868,-290.468 396.936,-294.579 410,-307.212 446.559,-342.563 394.904,-381.599 428,-420.212 435.143,-428.546 445.96,-433.255 456.39,-435.905"/>
<polygon fill="#9a32cd" stroke="#9a32cd" points="316.594,-285.777 306.506,-289.016 316.412,-292.775 316.594,-285.777"/>
<text text-anchor="middle" x="374" y="-310.212" font-family="Arial" font-size="10.00"> referenceSound</text>
</g>
<!-- Node23 -->
<g id="node23" class="node"><title>Node23</title>
<g id="a_node23"><a xlink:href="classid_render_model.html" target="_top" xlink:title="idRenderModel">
<polygon fill="white" stroke="black" points="447.5,-306.712 447.5,-325.712 528.5,-325.712 528.5,-306.712 447.5,-306.712"/>
<text text-anchor="middle" x="488" y="-313.712" font-family="Arial" font-size="10.00">idRenderModel</text>
</a>
</g>
</g>
<!-- Node23&#45;&gt;Node19 -->
<g id="edge30" class="edge"><title>Node23&#45;&gt;Node19</title>
<path fill="none" stroke="#9a32cd" stroke-dasharray="5,2" d="M539.032,-314.863C572.196,-312.466 616.053,-306.361 652,-291.212 681.201,-278.906 709.383,-253.748 723.543,-239.895"/>
<polygon fill="#9a32cd" stroke="#9a32cd" points="538.424,-311.394 528.664,-315.517 538.865,-318.38 538.424,-311.394"/>
<text text-anchor="middle" x="609" y="-315.212" font-family="Arial" font-size="10.00"> hModel</text>
</g>
<!-- Node24 -->
<g id="node24" class="node"><title>Node24</title>
<g id="a_node24"><a xlink:href="classid_bounds.html" target="_top" xlink:title="idBounds">
<polygon fill="white" stroke="black" points="459.5,-174.712 459.5,-193.712 516.5,-193.712 516.5,-174.712 459.5,-174.712"/>
<text text-anchor="middle" x="488" y="-181.712" font-family="Arial" font-size="10.00">idBounds</text>
</a>
</g>
</g>
<!-- Node24&#45;&gt;Node19 -->
<g id="edge31" class="edge"><title>Node24&#45;&gt;Node19</title>
<path fill="none" stroke="#9a32cd" stroke-dasharray="5,2" d="M526.833,-187.236C560.071,-190.33 609.605,-196.009 652,-205.212 670.409,-209.208 690.659,-215.458 706.307,-220.709"/>
<polygon fill="#9a32cd" stroke="#9a32cd" points="526.917,-183.729 516.644,-186.321 526.29,-190.701 526.917,-183.729"/>
<text text-anchor="middle" x="609" y="-208.212" font-family="Arial" font-size="10.00"> bounds</text>
</g>
<!-- Node25 -->
<g id="node25" class="node"><title>Node25</title>
<g id="a_node25"><a xlink:href="classid_user_interface.html" target="_top" xlink:title="idUserInterface">
<polygon fill="white" stroke="black" points="447.5,-98.7119 447.5,-117.712 528.5,-117.712 528.5,-98.7119 447.5,-98.7119"/>
<text text-anchor="middle" x="488" y="-105.712" font-family="Arial" font-size="10.00">idUserInterface</text>
</a>
</g>
</g>
<!-- Node25&#45;&gt;Node19 -->
<g id="edge35" class="edge"><title>Node25&#45;&gt;Node19</title>
<path fill="none" stroke="#9a32cd" stroke-dasharray="5,2" d="M538.755,-109.813C572.59,-112.791 617.332,-120.55 652,-140.212 687.473,-160.331 715.699,-201.642 727.29,-220.472"/>
<polygon fill="#9a32cd" stroke="#9a32cd" points="538.866,-106.312 528.627,-109.035 538.33,-113.291 538.866,-106.312"/>
<text text-anchor="middle" x="609" y="-143.212" font-family="Arial" font-size="10.00"> gui</text>
</g>
<!-- Node26 -->
<g id="node26" class="node"><title>Node26</title>
<g id="a_node26"><a xlink:href="classid_dict.html" target="_top" xlink:title="idDict">
<polygon fill="white" stroke="black" points="713.5,-567.712 713.5,-586.712 754.5,-586.712 754.5,-567.712 713.5,-567.712"/>
<text text-anchor="middle" x="734" y="-574.712" font-family="Arial" font-size="10.00">idDict</text>
</a>
</g>
</g>
<!-- Node26&#45;&gt;Node3 -->
<g id="edge36" class="edge"><title>Node26&#45;&gt;Node3</title>
<path fill="none" stroke="#9a32cd" stroke-dasharray="5,2" d="M764.725,-574.122C804.897,-569.945 875.747,-562.58 912.831,-558.724"/>
<polygon fill="#9a32cd" stroke="#9a32cd" points="764.321,-570.645 754.736,-575.16 765.045,-577.607 764.321,-570.645"/>
<text text-anchor="middle" x="851" y="-572.212" font-family="Arial" font-size="10.00"> spawnArgs</text>
</g>
<!-- Node27&#45;&gt;Node3 -->
<g id="edge37" class="edge"><title>Node27&#45;&gt;Node3</title>
<path fill="none" stroke="#9a32cd" stroke-dasharray="5,2" d="M530.012,-434.204C589.445,-427.897 702.818,-419.445 798,-433.212 838.362,-439.05 858.048,-429.516 886,-459.212 910.385,-485.118 882.822,-508.624 904,-537.212 906.755,-540.93 910.47,-544.036 914.415,-546.586"/>
<polygon fill="#9a32cd" stroke="#9a32cd" points="529.465,-430.743 519.906,-435.311 530.228,-437.701 529.465,-430.743"/>
<text text-anchor="middle" x="734" y="-436.212" font-family="Arial" font-size="10.00"> refSound</text>
</g>
<!-- Node28 -->
<g id="node28" class="node"><title>Node28</title>
<g id="a_node28"><a xlink:href="structsound_shader_parms__t.html" target="_top" xlink:title="soundShaderParms_t">
<polygon fill="white" stroke="black" points="210,-422.712 210,-441.712 320,-441.712 320,-422.712 210,-422.712"/>
<text text-anchor="middle" x="265" y="-429.712" font-family="Arial" font-size="10.00">soundShaderParms_t</text>
</a>
</g>
</g>
<!-- Node28&#45;&gt;Node27 -->
<g id="edge38" class="edge"><title>Node28&#45;&gt;Node27</title>
<path fill="none" stroke="#9a32cd" stroke-dasharray="5,2" d="M330.097,-433.839C355.04,-434.512 383.857,-435.34 410,-436.212 425.243,-436.72 442.179,-437.371 456.278,-437.936"/>
<polygon fill="#9a32cd" stroke="#9a32cd" points="330.115,-430.338 320.025,-433.57 329.928,-437.336 330.115,-430.338"/>
<text text-anchor="middle" x="374" y="-439.212" font-family="Arial" font-size="10.00"> parms</text>
</g>
<!-- Node29&#45;&gt;Node27 -->
<g id="edge39" class="edge"><title>Node29&#45;&gt;Node27</title>
<path fill="none" stroke="#9a32cd" stroke-dasharray="5,2" d="M316.542,-463.122C359.641,-457.077 420.193,-448.583 456.325,-443.515"/>
<polygon fill="#9a32cd" stroke="#9a32cd" points="315.952,-459.671 306.535,-464.526 316.924,-466.603 315.952,-459.671"/>
<text text-anchor="middle" x="374" y="-463.212" font-family="Arial" font-size="10.00"> shader</text>
</g>
<!-- Node30 -->
<g id="node30" class="node"><title>Node30</title>
<g id="a_node30"><a xlink:href="classid_script_object.html" target="_top" xlink:title="idScriptObject">
<polygon fill="white" stroke="black" points="695,-529.712 695,-548.712 773,-548.712 773,-529.712 695,-529.712"/>
<text text-anchor="middle" x="734" y="-536.712" font-family="Arial" font-size="10.00">idScriptObject</text>
</a>
</g>
</g>
<!-- Node30&#45;&gt;Node3 -->
<g id="edge43" class="edge"><title>Node30&#45;&gt;Node3</title>
<path fill="none" stroke="#9a32cd" stroke-dasharray="5,2" d="M783.24,-535.907C813.032,-534.761 851.942,-534.879 886,-540.212 894.985,-541.619 904.564,-544.293 912.967,-547.058"/>
<polygon fill="#9a32cd" stroke="#9a32cd" points="782.94,-532.417 773.106,-536.359 783.252,-539.41 782.94,-532.417"/>
<text text-anchor="middle" x="851" y="-543.212" font-family="Arial" font-size="10.00"> scriptObject</text>
</g>
<!-- Node31 -->
<g id="node31" class="node"><title>Node31</title>
<g id="a_node31"><a xlink:href="classid_a_f_body.html" target="_top" xlink:title="idAFBody">
<polygon fill="white" stroke="black" points="908.5,-508.712 908.5,-527.712 967.5,-527.712 967.5,-508.712 908.5,-508.712"/>
<text text-anchor="middle" x="938" y="-515.712" font-family="Arial" font-size="10.00">idAFBody</text>
</a>
</g>
</g>
<!-- Node31&#45;&gt;Node1 -->
<g id="edge44" class="edge"><title>Node31&#45;&gt;Node1</title>
<path fill="none" stroke="#9a32cd" stroke-dasharray="5,2" d="M977.595,-523.512C1004.29,-527.513 1040.53,-533.609 1072,-541.212 1078.45,-542.77 1085.3,-544.725 1091.75,-546.704"/>
<polygon fill="#9a32cd" stroke="#9a32cd" points="977.904,-520.02 967.502,-522.031 976.888,-526.946 977.904,-520.02"/>
<text text-anchor="middle" x="1031" y="-544.212" font-family="Arial" font-size="10.00"> touchedByBody</text>
</g>
</g>
</svg>
        <g id="navigator" transform="translate(0 0)" fill="#404254">
                <rect fill="#f2f5e9" fill-opacity="0.5" stroke="#606060" stroke-width=".5" x="0" y="0" width="60" height="60"/>
                <use id="zoomplus" xlink:href="#zoomPlus" x="17" y="9" onmousedown="handleZoom(evt,'in')"/>
                <use id="zoomminus" xlink:href="#zoomMin" x="42" y="9" onmousedown="handleZoom(evt,'out')"/>
                <use id="reset" xlink:href="#resetDef" x="30" y="36" onmousedown="handleReset()"/>
                <g id="arrowUp" xlink:href="#dirArrow" transform="translate(30 24)" onmousedown="handlePan(0,-1)">
                  <use xlink:href="#rim" fill="#404040">
                        <set attributeName="fill" to="#808080" begin="arrowUp.mouseover" end="arrowUp.mouseout"/>
                  </use>
                  <path fill="none" stroke="white" stroke-width="1.5" d="M0,-3.0v7 M-2.5,-0.5L0,-3.0L2.5,-0.5"/>
                </g>
                <g id="arrowRight" xlink:href="#dirArrow" transform="rotate(90) translate(36 -43)" onmousedown="handlePan(1,0)">
                  <use xlink:href="#rim" fill="#404040">
                        <set attributeName="fill" to="#808080" begin="arrowRight.mouseover" end="arrowRight.mouseout"/>
                  </use>
                  <path fill="none" stroke="white" stroke-width="1.5" d="M0,-3.0v7 M-2.5,-0.5L0,-3.0L2.5,-0.5"/>
                </g>
                <g id="arrowDown" xlink:href="#dirArrow" transform="rotate(180) translate(-30 -48)" onmousedown="handlePan(0,1)">
                  <use xlink:href="#rim" fill="#404040">
                        <set attributeName="fill" to="#808080" begin="arrowDown.mouseover" end="arrowDown.mouseout"/>
                  </use>
                  <path fill="none" stroke="white" stroke-width="1.5" d="M0,-3.0v7 M-2.5,-0.5L0,-3.0L2.5,-0.5"/>
                </g>
                <g id="arrowLeft" xlink:href="#dirArrow" transform="rotate(270) translate(-36 17)" onmousedown="handlePan(-1,0)">
                  <use xlink:href="#rim" fill="#404040">
                        <set attributeName="fill" to="#808080" begin="arrowLeft.mouseover" end="arrowLeft.mouseout"/>
                  </use>
                  <path fill="none" stroke="white" stroke-width="1.5" d="M0,-3.0v7 M-2.5,-0.5L0,-3.0L2.5,-0.5"/>
                </g>
        </g>
        <svg viewBox="0 0 15 15" width="100%" height="30px" preserveAspectRatio="xMaxYMin meet">
         <g id="arrow_out" transform="scale(0.3 0.3)">
          <a xlink:href="structaf_touch__s__coll__graph_org.svg" target="_base">
           <rect id="button" ry="5" rx="5" y="6" x="6" height="38" width="38"
                fill="#f2f5e9" fill-opacity="0.5" stroke="#606060" stroke-width="1.0"/>
           <path id="arrow"
             d="M 11.500037,31.436501 C 11.940474,20.09759 22.043105,11.32322 32.158766,21.979434 L 37.068811,17.246167 C 37.068811,17.246167 37.088388,32 37.088388,32 L 22.160133,31.978069 C 22.160133,31.978069 26.997745,27.140456 26.997745,27.140456 C 18.528582,18.264221 13.291696,25.230495 11.500037,31.436501 z"
             style="fill:#404040;"/>
          </a>
         </g>
        </svg>
</svg>
