<?xml version="1.0" encoding="UTF-8" standalone="no"?>
<!DOCTYPE svg PUBLIC "-//W3C//DTD SVG 1.1//EN"
 "http://www.w3.org/Graphics/SVG/1.1/DTD/svg11.dtd">
<!-- Generated by graphviz version 2.34.0 (20130907.0111)
 -->
<!-- Title: master_s Pages: 1 -->
<svg width="189pt" height="166pt"
 viewBox="0.00 0.00 189.00 166.00" xmlns="http://www.w3.org/2000/svg" xmlns:xlink="http://www.w3.org/1999/xlink">
<g id="graph0" class="graph" transform="scale(1 1) rotate(0) translate(4 162)">
<title>master_s</title>
<polygon fill="white" stroke="white" points="-4,4 -4,-162 185,-162 185,4 -4,4"/>
<!-- Node1 -->
<g id="node1" class="node"><title>Node1</title>
<polygon fill="#bfbfbf" stroke="black" points="29.5,-0.5 29.5,-19.5 86.5,-19.5 86.5,-0.5 29.5,-0.5"/>
<text text-anchor="middle" x="58" y="-7.5" font-family="Arial" font-size="10.00">master_s</text>
</g>
<!-- Node2 -->
<g id="node2" class="node"><title>Node2</title>
<g id="a_node2"><a xlink:href="structnetadr__t.html" target="_top" xlink:title="netadr_t">
<polygon fill="white" stroke="black" points="0,-69.5 0,-88.5 52,-88.5 52,-69.5 0,-69.5"/>
<text text-anchor="middle" x="26" y="-76.5" font-family="Arial" font-size="10.00">netadr_t</text>
</a>
</g>
</g>
<!-- Node2&#45;&gt;Node1 -->
<g id="edge1" class="edge"><title>Node2&#45;&gt;Node1</title>
<path fill="none" stroke="#9a32cd" stroke-dasharray="5,2" d="M25.2375,-58.7851C25.6467,-51.9389 26.917,-44.3559 30,-38 33.5366,-30.7089 39.91,-24.3206 45.6836,-19.5907"/>
<polygon fill="#9a32cd" stroke="#9a32cd" points="21.7356,-59.2498 25.194,-69.2643 28.7356,-59.2789 21.7356,-59.2498"/>
<text text-anchor="middle" x="49" y="-41.5" font-family="Arial" font-size="10.00"> address</text>
</g>
<!-- Node3 -->
<g id="node3" class="node"><title>Node3</title>
<g id="a_node3"><a xlink:href="classid_c_var.html" target="_top" xlink:title="idCVar">
<polygon fill="white" stroke="black" points="70,-69.5 70,-88.5 116,-88.5 116,-69.5 70,-69.5"/>
<text text-anchor="middle" x="93" y="-76.5" font-family="Arial" font-size="10.00">idCVar</text>
</a>
</g>
</g>
<!-- Node3&#45;&gt;Node1 -->
<g id="edge2" class="edge"><title>Node3&#45;&gt;Node1</title>
<path fill="none" stroke="#9a32cd" stroke-dasharray="5,2" d="M83.6955,-60.1884C76.8298,-47.0457 67.7904,-29.7416 62.4661,-19.5494"/>
<polygon fill="#9a32cd" stroke="#9a32cd" points="80.6919,-61.998 88.4244,-69.2409 86.8964,-58.7568 80.6919,-61.998"/>
<text text-anchor="middle" x="85" y="-41.5" font-family="Arial" font-size="10.00"> var</text>
</g>
<!-- Node3&#45;&gt;Node3 -->
<g id="edge4" class="edge"><title>Node3&#45;&gt;Node3</title>
<path fill="none" stroke="#9a32cd" stroke-dasharray="5,2" d="M126.411,-84.666C130.964,-83.7213 134,-81.8326 134,-79 134,-74.3516 125.825,-72.2452 116.182,-72.681"/>
<polygon fill="#9a32cd" stroke="#9a32cd" points="125.939,-81.1889 116.182,-85.319 126.385,-88.1747 125.939,-81.1889"/>
<text text-anchor="middle" x="157.5" y="-82" font-family="Arial" font-size="10.00"> next</text>
<text text-anchor="middle" x="157.5" y="-71" font-family="Arial" font-size="10.00">internalVar</text>
</g>
<!-- Node4 -->
<g id="node4" class="node"><title>Node4</title>
<g id="a_node4"><a xlink:href="classid_cmd_args.html" target="_top" xlink:title="idCmdArgs">
<polygon fill="white" stroke="black" points="60.5,-138.5 60.5,-157.5 125.5,-157.5 125.5,-138.5 60.5,-138.5"/>
<text text-anchor="middle" x="93" y="-145.5" font-family="Arial" font-size="10.00">idCmdArgs</text>
</a>
</g>
</g>
<!-- Node4&#45;&gt;Node3 -->
<g id="edge3" class="edge"><title>Node4&#45;&gt;Node3</title>
<path fill="none" stroke="#9a32cd" stroke-dasharray="5,2" d="M93,-128.018C93,-115.034 93,-98.4419 93,-88.5494"/>
<polygon fill="#9a32cd" stroke="#9a32cd" points="89.5001,-128.241 93,-138.241 96.5001,-128.241 89.5001,-128.241"/>
<text text-anchor="middle" x="130" y="-111.5" font-family="Arial" font-size="10.00"> valueCompletion</text>
</g>
</g>
</svg>
