<?xml version="1.0" encoding="UTF-8" standalone="no"?>
<!DOCTYPE svg PUBLIC "-//W3C//DTD SVG 1.1//EN"
 "http://www.w3.org/Graphics/SVG/1.1/DTD/svg11.dtd">
<!-- Generated by graphviz version 2.34.0 (20130907.0111)
 -->
<!-- Title: newShaderStage_t Pages: 1 -->
<svg width="282pt" height="334pt"
 viewBox="0.00 0.00 282.00 334.00" xmlns="http://www.w3.org/2000/svg" xmlns:xlink="http://www.w3.org/1999/xlink">
<g id="graph0" class="graph" transform="scale(1 1) rotate(0) translate(4 330)">
<title>newShaderStage_t</title>
<polygon fill="white" stroke="white" points="-4,4 -4,-330 278,-330 278,4 -4,4"/>
<!-- Node1 -->
<g id="node1" class="node"><title>Node1</title>
<polygon fill="#bfbfbf" stroke="black" points="86,-0.5 86,-19.5 184,-19.5 184,-0.5 86,-0.5"/>
<text text-anchor="middle" x="135" y="-7.5" font-family="Arial" font-size="10.00">newShaderStage_t</text>
</g>
<!-- Node2 -->
<g id="node2" class="node"><title>Node2</title>
<g id="a_node2"><a xlink:href="classid_image.html" target="_top" xlink:title="idImage">
<polygon fill="white" stroke="black" points="0,-85.5 0,-104.5 50,-104.5 50,-85.5 0,-85.5"/>
<text text-anchor="middle" x="25" y="-92.5" font-family="Arial" font-size="10.00">idImage</text>
</a>
</g>
</g>
<!-- Node2&#45;&gt;Node1 -->
<g id="edge1" class="edge"><title>Node2&#45;&gt;Node1</title>
<path fill="none" stroke="#9a32cd" stroke-dasharray="5,2" d="M28.0817,-75.0598C30.9969,-62.9172 36.5559,-47.6729 47,-38 57.6694,-28.1184 71.8731,-21.8503 85.7501,-17.8754"/>
<polygon fill="#9a32cd" stroke="#9a32cd" points="24.6047,-74.5993 26.0834,-85.0904 31.4698,-75.967 24.6047,-74.5993"/>
<text text-anchor="middle" x="101.5" y="-41.5" font-family="Arial" font-size="10.00"> fragmentProgramImages</text>
</g>
<!-- Node2&#45;&gt;Node2 -->
<g id="edge3" class="edge"><title>Node2&#45;&gt;Node2</title>
<path fill="none" stroke="#9a32cd" stroke-dasharray="5,2" d="M60.446,-103.21C64.9957,-101.783 68,-99.0466 68,-95 68,-88.3594 59.9095,-85.2466 50.1756,-85.6616"/>
<polygon fill="#9a32cd" stroke="#9a32cd" points="59.7335,-99.767 50.1756,-104.338 60.4981,-106.725 59.7335,-99.767"/>
<text text-anchor="middle" x="106" y="-114.5" font-family="Arial" font-size="10.00"> cacheUsagePrev</text>
<text text-anchor="middle" x="106" y="-103.5" font-family="Arial" font-size="10.00">cacheUsageNext</text>
<text text-anchor="middle" x="106" y="-92.5" font-family="Arial" font-size="10.00">hashNext</text>
<text text-anchor="middle" x="106" y="-81.5" font-family="Arial" font-size="10.00">partialImage</text>
<text text-anchor="middle" x="106" y="-70.5" font-family="Arial" font-size="10.00">bglNext</text>
</g>
<!-- Node3 -->
<g id="node3" class="node"><title>Node3</title>
<g id="a_node3"><a xlink:href="classid_str.html" target="_top" xlink:title="idStr">
<polygon fill="white" stroke="black" points="15.5,-306.5 15.5,-325.5 52.5,-325.5 52.5,-306.5 15.5,-306.5"/>
<text text-anchor="middle" x="34" y="-313.5" font-family="Arial" font-size="10.00">idStr</text>
</a>
</g>
</g>
<!-- Node3&#45;&gt;Node2 -->
<g id="edge2" class="edge"><title>Node3&#45;&gt;Node2</title>
<path fill="none" stroke="#9a32cd" stroke-dasharray="5,2" d="M31.5785,-295.945C30.2773,-284.886 28.7832,-270.678 28,-258 24.3924,-199.601 24.6667,-129.155 24.8964,-104.791"/>
<polygon fill="#9a32cd" stroke="#9a32cd" points="28.1366,-296.634 32.8268,-306.134 35.0847,-295.783 28.1366,-296.634"/>
<text text-anchor="middle" x="49.5" y="-211.5" font-family="Arial" font-size="10.00"> imgName</text>
</g>
<!-- Node7 -->
<g id="node7" class="node"><title>Node7</title>
<g id="a_node7"><a xlink:href="structurl_download__s.html" target="_top" xlink:title="urlDownload_s">
<polygon fill="white" stroke="black" points="37,-238.5 37,-257.5 117,-257.5 117,-238.5 37,-238.5"/>
<text text-anchor="middle" x="77" y="-245.5" font-family="Arial" font-size="10.00">urlDownload_s</text>
</a>
</g>
</g>
<!-- Node3&#45;&gt;Node7 -->
<g id="edge9" class="edge"><title>Node3&#45;&gt;Node7</title>
<path fill="none" stroke="#9a32cd" stroke-dasharray="5,2" d="M45.1163,-297.938C53.4725,-285.112 64.5827,-268.059 71.2399,-257.841"/>
<polygon fill="#9a32cd" stroke="#9a32cd" points="42.1478,-296.082 39.6215,-306.372 48.0129,-299.904 42.1478,-296.082"/>
<text text-anchor="middle" x="67" y="-279.5" font-family="Arial" font-size="10.00"> url</text>
</g>
<!-- Node4 -->
<g id="node4" class="node"><title>Node4</title>
<g id="a_node4"><a xlink:href="structbackground_download__s.html" target="_top" xlink:title="backgroundDownload_s">
<polygon fill="white" stroke="black" points="66.5,-170.5 66.5,-189.5 185.5,-189.5 185.5,-170.5 66.5,-170.5"/>
<text text-anchor="middle" x="126" y="-177.5" font-family="Arial" font-size="10.00">backgroundDownload_s</text>
</a>
</g>
</g>
<!-- Node4&#45;&gt;Node2 -->
<g id="edge4" class="edge"><title>Node4&#45;&gt;Node2</title>
<path fill="none" stroke="#9a32cd" stroke-dasharray="5,2" d="M107.654,-163.924C86.543,-146.575 52.5958,-118.678 35.5229,-104.648"/>
<polygon fill="#9a32cd" stroke="#9a32cd" points="105.624,-166.785 115.572,-170.43 110.068,-161.377 105.624,-166.785"/>
<text text-anchor="middle" x="99" y="-143.5" font-family="Arial" font-size="10.00"> bgl</text>
</g>
<!-- Node4&#45;&gt;Node4 -->
<g id="edge6" class="edge"><title>Node4&#45;&gt;Node4</title>
<path fill="none" stroke="#9a32cd" stroke-dasharray="5,2" d="M195.677,-184.543C200.239,-183.486 203,-181.971 203,-180 203,-176.846 195.931,-174.862 185.728,-174.049"/>
<polygon fill="#9a32cd" stroke="#9a32cd" points="195.138,-181.084 185.728,-185.951 196.119,-188.015 195.138,-181.084"/>
<text text-anchor="middle" x="214" y="-177.5" font-family="Arial" font-size="10.00"> next</text>
</g>
<!-- Node5 -->
<g id="node5" class="node"><title>Node5</title>
<g id="a_node5"><a xlink:href="classid_file.html" target="_top" xlink:title="idFile">
<polygon fill="white" stroke="black" points="135,-238.5 135,-257.5 175,-257.5 175,-238.5 135,-238.5"/>
<text text-anchor="middle" x="155" y="-245.5" font-family="Arial" font-size="10.00">idFile</text>
</a>
</g>
</g>
<!-- Node5&#45;&gt;Node4 -->
<g id="edge5" class="edge"><title>Node5&#45;&gt;Node4</title>
<path fill="none" stroke="#9a32cd" stroke-dasharray="5,2" d="M147.173,-229.186C141.578,-216.452 134.287,-199.861 129.885,-189.841"/>
<polygon fill="#9a32cd" stroke="#9a32cd" points="143.982,-230.624 151.209,-238.372 150.39,-227.808 143.982,-230.624"/>
<text text-anchor="middle" x="147" y="-211.5" font-family="Arial" font-size="10.00"> f</text>
</g>
<!-- Node6 -->
<g id="node6" class="node"><title>Node6</title>
<g id="a_node6"><a xlink:href="structfile_download__s.html" target="_top" xlink:title="fileDownload_s">
<polygon fill="white" stroke="black" points="193.5,-238.5 193.5,-257.5 274.5,-257.5 274.5,-238.5 193.5,-238.5"/>
<text text-anchor="middle" x="234" y="-245.5" font-family="Arial" font-size="10.00">fileDownload_s</text>
</a>
</g>
</g>
<!-- Node6&#45;&gt;Node4 -->
<g id="edge7" class="edge"><title>Node6&#45;&gt;Node4</title>
<path fill="none" stroke="#9a32cd" stroke-dasharray="5,2" d="M211.072,-232.988C189.587,-219.858 158.154,-200.65 140.123,-189.63"/>
<polygon fill="#9a32cd" stroke="#9a32cd" points="209.523,-236.144 219.881,-238.372 213.173,-230.171 209.523,-236.144"/>
<text text-anchor="middle" x="198" y="-211.5" font-family="Arial" font-size="10.00"> file</text>
</g>
<!-- Node7&#45;&gt;Node4 -->
<g id="edge8" class="edge"><title>Node7&#45;&gt;Node4</title>
<path fill="none" stroke="#9a32cd" stroke-dasharray="5,2" d="M89.391,-230.31C98.9433,-217.444 111.776,-200.158 119.436,-189.841"/>
<polygon fill="#9a32cd" stroke="#9a32cd" points="86.5567,-228.256 83.4059,-238.372 92.1771,-232.429 86.5567,-228.256"/>
<text text-anchor="middle" x="113" y="-211.5" font-family="Arial" font-size="10.00"> url</text>
</g>
<!-- Node8 -->
<g id="node8" class="node"><title>Node8</title>
<g id="a_node8"><a xlink:href="classid_mega_texture.html" target="_top" xlink:title="idMegaTexture">
<polygon fill="white" stroke="black" points="162,-85.5 162,-104.5 242,-104.5 242,-85.5 162,-85.5"/>
<text text-anchor="middle" x="202" y="-92.5" font-family="Arial" font-size="10.00">idMegaTexture</text>
</a>
</g>
</g>
<!-- Node8&#45;&gt;Node1 -->
<g id="edge10" class="edge"><title>Node8&#45;&gt;Node1</title>
<path fill="none" stroke="#9a32cd" stroke-dasharray="5,2" d="M190.178,-77.3096C181.992,-65.9898 170.688,-50.8128 160,-38 154.762,-31.7208 148.512,-24.9708 143.572,-19.7906"/>
<polygon fill="#9a32cd" stroke="#9a32cd" points="187.334,-79.35 196.002,-85.442 193.025,-75.2741 187.334,-79.35"/>
<text text-anchor="middle" x="200" y="-41.5" font-family="Arial" font-size="10.00"> megaTexture</text>
</g>
</g>
</svg>
