<?xml version="1.0" encoding="UTF-8" standalone="no"?>
<!DOCTYPE svg PUBLIC "-//W3C//DTD SVG 1.1//EN"
 "http://www.w3.org/Graphics/SVG/1.1/DTD/svg11.dtd">
<!-- Generated by graphviz version 2.34.0 (20130907.0111)
 -->
<!-- Title: Curl_share Pages: 1 -->
<svg width="230pt" height="244pt"
 viewBox="0.00 0.00 230.00 244.00" xmlns="http://www.w3.org/2000/svg" xmlns:xlink="http://www.w3.org/1999/xlink">
<g id="graph0" class="graph" transform="scale(1 1) rotate(0) translate(4 240)">
<title>Curl_share</title>
<polygon fill="white" stroke="white" points="-4,4 -4,-240 226,-240 226,4 -4,4"/>
<!-- Node1 -->
<g id="node1" class="node"><title>Node1</title>
<polygon fill="#bfbfbf" stroke="black" points="54.5,-0.5 54.5,-19.5 117.5,-19.5 117.5,-0.5 54.5,-0.5"/>
<text text-anchor="middle" x="86" y="-7.5" font-family="Arial" font-size="10.00">Curl_share</text>
</g>
<!-- Node2 -->
<g id="node2" class="node"><title>Node2</title>
<g id="a_node2"><a xlink:href="struct_cookie_info.html" target="_top" xlink:title="CookieInfo">
<polygon fill="white" stroke="black" points="11,-68.5 11,-87.5 73,-87.5 73,-68.5 11,-68.5"/>
<text text-anchor="middle" x="42" y="-75.5" font-family="Arial" font-size="10.00">CookieInfo</text>
</a>
</g>
</g>
<!-- Node2&#45;&gt;Node1 -->
<g id="edge1" class="edge"><title>Node2&#45;&gt;Node1</title>
<path fill="none" stroke="#9a32cd" stroke-dasharray="5,2" d="M49.6102,-58.5969C52.7351,-51.8739 56.6454,-44.3631 61,-38 65.4738,-31.4627 71.4791,-24.9237 76.4826,-19.9184"/>
<polygon fill="#9a32cd" stroke="#9a32cd" points="46.1953,-57.6703 45.395,-68.2349 52.6088,-60.4753 46.1953,-57.6703"/>
<text text-anchor="middle" x="79.5" y="-41.5" font-family="Arial" font-size="10.00"> cookies</text>
</g>
<!-- Node3 -->
<g id="node3" class="node"><title>Node3</title>
<g id="a_node3"><a xlink:href="struct_cookie.html" target="_top" xlink:title="Cookie">
<polygon fill="white" stroke="black" points="-0.5,-136.5 -0.5,-155.5 46.5,-155.5 46.5,-136.5 -0.5,-136.5"/>
<text text-anchor="middle" x="23" y="-143.5" font-family="Arial" font-size="10.00">Cookie</text>
</a>
</g>
</g>
<!-- Node3&#45;&gt;Node2 -->
<g id="edge2" class="edge"><title>Node3&#45;&gt;Node2</title>
<path fill="none" stroke="#9a32cd" stroke-dasharray="5,2" d="M28.3473,-126.425C31.9825,-113.798 36.6275,-97.6623 39.4548,-87.8411"/>
<polygon fill="#9a32cd" stroke="#9a32cd" points="24.887,-125.794 25.4839,-136.372 31.6138,-127.73 24.887,-125.794"/>
<text text-anchor="middle" x="53.5" y="-109.5" font-family="Arial" font-size="10.00"> cookies</text>
</g>
<!-- Node3&#45;&gt;Node3 -->
<g id="edge3" class="edge"><title>Node3&#45;&gt;Node3</title>
<path fill="none" stroke="#9a32cd" stroke-dasharray="5,2" d="M56.605,-151.625C61.0506,-150.667 64,-148.792 64,-146 64,-141.418 56.0573,-139.306 46.5942,-139.664"/>
<polygon fill="#9a32cd" stroke="#9a32cd" points="56.321,-148.136 46.5942,-152.336 56.8171,-155.119 56.321,-148.136"/>
<text text-anchor="middle" x="75" y="-143.5" font-family="Arial" font-size="10.00"> next</text>
</g>
<!-- Node4 -->
<g id="node4" class="node"><title>Node4</title>
<g id="a_node4"><a xlink:href="struct__curl__hash.html" target="_top" xlink:title="_curl_hash">
<polygon fill="white" stroke="black" points="93,-68.5 93,-87.5 157,-87.5 157,-68.5 93,-68.5"/>
<text text-anchor="middle" x="125" y="-75.5" font-family="Arial" font-size="10.00">_curl_hash</text>
</a>
</g>
</g>
<!-- Node4&#45;&gt;Node1 -->
<g id="edge4" class="edge"><title>Node4&#45;&gt;Node1</title>
<path fill="none" stroke="#9a32cd" stroke-dasharray="5,2" d="M114.696,-59.563C107.144,-46.7815 97.2036,-29.9599 91.2243,-19.8411"/>
<polygon fill="#9a32cd" stroke="#9a32cd" points="111.801,-61.5429 119.901,-68.3717 117.827,-57.9818 111.801,-61.5429"/>
<text text-anchor="middle" x="132.5" y="-41.5" font-family="Arial" font-size="10.00"> hostcache</text>
</g>
<!-- Node5 -->
<g id="node5" class="node"><title>Node5</title>
<g id="a_node5"><a xlink:href="struct__curl__llist.html" target="_top" xlink:title="_curl_llist">
<polygon fill="white" stroke="black" points="105,-136.5 105,-155.5 163,-155.5 163,-136.5 105,-136.5"/>
<text text-anchor="middle" x="134" y="-143.5" font-family="Arial" font-size="10.00">_curl_llist</text>
</a>
</g>
</g>
<!-- Node5&#45;&gt;Node4 -->
<g id="edge5" class="edge"><title>Node5&#45;&gt;Node4</title>
<path fill="none" stroke="#9a32cd" stroke-dasharray="5,2" d="M131.467,-126.425C129.745,-113.798 127.545,-97.6623 126.206,-87.8411"/>
<polygon fill="#9a32cd" stroke="#9a32cd" points="128.004,-126.936 132.823,-136.372 134.94,-125.99 128.004,-126.936"/>
<text text-anchor="middle" x="142.5" y="-109.5" font-family="Arial" font-size="10.00"> table</text>
</g>
<!-- Node6 -->
<g id="node6" class="node"><title>Node6</title>
<g id="a_node6"><a xlink:href="struct__curl__llist__element.html" target="_top" xlink:title="_curl_llist_element">
<polygon fill="white" stroke="black" points="85,-215.5 85,-234.5 183,-234.5 183,-215.5 85,-215.5"/>
<text text-anchor="middle" x="134" y="-222.5" font-family="Arial" font-size="10.00">_curl_llist_element</text>
</a>
</g>
</g>
<!-- Node6&#45;&gt;Node5 -->
<g id="edge6" class="edge"><title>Node6&#45;&gt;Node5</title>
<path fill="none" stroke="#9a32cd" stroke-dasharray="5,2" d="M134,-205.315C134,-189.592 134,-167.808 134,-155.809"/>
<polygon fill="#9a32cd" stroke="#9a32cd" points="130.5,-205.465 134,-215.465 137.5,-205.465 130.5,-205.465"/>
<text text-anchor="middle" x="146.5" y="-188" font-family="Arial" font-size="10.00"> head</text>
<text text-anchor="middle" x="146.5" y="-177" font-family="Arial" font-size="10.00">tail</text>
</g>
<!-- Node6&#45;&gt;Node6 -->
<g id="edge7" class="edge"><title>Node6&#45;&gt;Node6</title>
<path fill="none" stroke="#9a32cd" stroke-dasharray="5,2" d="M193.323,-230.719C198.065,-229.47 201,-227.563 201,-225 201,-220.898 193.486,-218.479 183.08,-217.742"/>
<polygon fill="#9a32cd" stroke="#9a32cd" points="192.449,-227.311 183.08,-232.258 193.489,-234.233 192.449,-227.311"/>
<text text-anchor="middle" x="211.5" y="-228" font-family="Arial" font-size="10.00"> prev</text>
<text text-anchor="middle" x="211.5" y="-217" font-family="Arial" font-size="10.00">next</text>
</g>
</g>
</svg>
