<?xml version="1.0" encoding="UTF-8" standalone="no"?>
<!DOCTYPE svg PUBLIC "-//W3C//DTD SVG 1.1//EN"
 "http://www.w3.org/Graphics/SVG/1.1/DTD/svg11.dtd">
<!-- Generated by graphviz version 2.34.0 (20130907.0111)
 -->
<!-- Title: idTransitionData Pages: 1 -->
<svg width="233pt" height="176pt"
 viewBox="0.00 0.00 233.00 176.00" xmlns="http://www.w3.org/2000/svg" xmlns:xlink="http://www.w3.org/1999/xlink">
<g id="graph0" class="graph" transform="scale(1 1) rotate(0) translate(4 172)">
<title>idTransitionData</title>
<polygon fill="white" stroke="white" points="-4,4 -4,-172 229,-172 229,4 -4,4"/>
<!-- Node1 -->
<g id="node1" class="node"><title>Node1</title>
<polygon fill="#bfbfbf" stroke="black" points="71,-0.5 71,-19.5 157,-19.5 157,-0.5 71,-0.5"/>
<text text-anchor="middle" x="114" y="-7.5" font-family="Arial" font-size="10.00">idTransitionData</text>
</g>
<!-- Node2 -->
<g id="node2" class="node"><title>Node2</title>
<g id="a_node2"><a xlink:href="classid_interpolate_accel_decel_linear.html" target="_top" xlink:title="idInterpolateAccelDecelLinear\l\&lt; idVec4 \&gt;">
<polygon fill="white" stroke="black" points="-0.5,-69 -0.5,-99 144.5,-99 144.5,-69 -0.5,-69"/>
<text text-anchor="start" x="7.5" y="-87" font-family="Arial" font-size="10.00">idInterpolateAccelDecelLinear</text>
<text text-anchor="middle" x="72" y="-76" font-family="Arial" font-size="10.00">&lt; idVec4 &gt;</text>
</a>
</g>
</g>
<!-- Node2&#45;&gt;Node1 -->
<g id="edge1" class="edge"><title>Node2&#45;&gt;Node1</title>
<path fill="none" stroke="#9a32cd" stroke-dasharray="5,2" d="M85.4873,-59.8788C93.4661,-46.201 103.111,-29.6662 108.891,-19.7589"/>
<polygon fill="#9a32cd" stroke="#9a32cd" points="82.3134,-58.3737 80.2978,-68.7751 88.3598,-61.9009 82.3134,-58.3737"/>
<text text-anchor="middle" x="112" y="-41.5" font-family="Arial" font-size="10.00"> interp</text>
</g>
<!-- Node3 -->
<g id="node3" class="node"><title>Node3</title>
<g id="a_node3"><a xlink:href="classid_win_var.html" target="_top" xlink:title="idWinVar">
<polygon fill="white" stroke="black" points="163,-74.5 163,-93.5 219,-93.5 219,-74.5 163,-74.5"/>
<text text-anchor="middle" x="191" y="-81.5" font-family="Arial" font-size="10.00">idWinVar</text>
</a>
</g>
</g>
<!-- Node3&#45;&gt;Node1 -->
<g id="edge2" class="edge"><title>Node3&#45;&gt;Node1</title>
<path fill="none" stroke="#9a32cd" stroke-dasharray="5,2" d="M174.414,-67.4913C158.718,-52.8145 135.736,-31.325 123.123,-19.531"/>
<polygon fill="#9a32cd" stroke="#9a32cd" points="172.17,-70.1844 181.865,-74.4579 176.951,-65.0715 172.17,-70.1844"/>
<text text-anchor="middle" x="165" y="-41.5" font-family="Arial" font-size="10.00"> data</text>
</g>
<!-- Node4 -->
<g id="node4" class="node"><title>Node4</title>
<g id="a_node4"><a xlink:href="classid_dict.html" target="_top" xlink:title="idDict">
<polygon fill="white" stroke="black" points="170.5,-148.5 170.5,-167.5 211.5,-167.5 211.5,-148.5 170.5,-148.5"/>
<text text-anchor="middle" x="191" y="-155.5" font-family="Arial" font-size="10.00">idDict</text>
</a>
</g>
</g>
<!-- Node4&#45;&gt;Node3 -->
<g id="edge3" class="edge"><title>Node4&#45;&gt;Node3</title>
<path fill="none" stroke="#9a32cd" stroke-dasharray="5,2" d="M191,-138.156C191,-123.712 191,-104.459 191,-93.531"/>
<polygon fill="#9a32cd" stroke="#9a32cd" points="187.5,-138.458 191,-148.458 194.5,-138.458 187.5,-138.458"/>
<text text-anchor="middle" x="208" y="-121.5" font-family="Arial" font-size="10.00"> guiDict</text>
</g>
</g>
</svg>
