<?xml version="1.0" encoding="UTF-8" standalone="no"?>
<!DOCTYPE svg PUBLIC "-//W3C//DTD SVG 1.1//EN"
 "http://www.w3.org/Graphics/SVG/1.1/DTD/svg11.dtd">
<!-- Generated by graphviz version 2.34.0 (20130907.0111)
 -->
<!-- Title: st_lwRMap Pages: 1 -->
<svg width="487pt" height="336pt"
 viewBox="0.00 0.00 487.00 336.00" xmlns="http://www.w3.org/2000/svg" xmlns:xlink="http://www.w3.org/1999/xlink">
<g id="graph0" class="graph" transform="scale(1 1) rotate(0) translate(4 332)">
<title>st_lwRMap</title>
<polygon fill="white" stroke="white" points="-4,4 -4,-332 483,-332 483,4 -4,4"/>
<!-- Node1 -->
<g id="node1" class="node"><title>Node1</title>
<polygon fill="#bfbfbf" stroke="black" points="184.5,-0.5 184.5,-19.5 249.5,-19.5 249.5,-0.5 184.5,-0.5"/>
<text text-anchor="middle" x="217" y="-7.5" font-family="Arial" font-size="10.00">st_lwRMap</text>
</g>
<!-- Node2 -->
<g id="node2" class="node"><title>Node2</title>
<g id="a_node2"><a xlink:href="structst__lw_t_param.html" target="_top" xlink:title="st_lwTParam">
<polygon fill="white" stroke="black" points="180.5,-68.5 180.5,-87.5 253.5,-87.5 253.5,-68.5 180.5,-68.5"/>
<text text-anchor="middle" x="217" y="-75.5" font-family="Arial" font-size="10.00">st_lwTParam</text>
</a>
</g>
</g>
<!-- Node2&#45;&gt;Node1 -->
<g id="edge1" class="edge"><title>Node2&#45;&gt;Node1</title>
<path fill="none" stroke="#9a32cd" stroke-dasharray="5,2" d="M217,-58.0413C217,-45.4724 217,-29.5631 217,-19.8411"/>
<polygon fill="#9a32cd" stroke="#9a32cd" points="213.5,-58.3716 217,-68.3717 220.5,-58.3717 213.5,-58.3716"/>
<text text-anchor="middle" x="224.5" y="-41.5" font-family="Arial" font-size="10.00"> val</text>
</g>
<!-- Node3 -->
<g id="node3" class="node"><title>Node3</title>
<g id="a_node3"><a xlink:href="structst__lw_texture.html" target="_top" xlink:title="st_lwTexture">
<polygon fill="white" stroke="black" points="181.5,-137.5 181.5,-156.5 252.5,-156.5 252.5,-137.5 181.5,-137.5"/>
<text text-anchor="middle" x="217" y="-144.5" font-family="Arial" font-size="10.00">st_lwTexture</text>
</a>
</g>
</g>
<!-- Node3&#45;&gt;Node2 -->
<g id="edge2" class="edge"><title>Node3&#45;&gt;Node2</title>
<path fill="none" stroke="#9a32cd" stroke-dasharray="5,2" d="M217,-127.018C217,-114.034 217,-97.4419 217,-87.5494"/>
<polygon fill="#9a32cd" stroke="#9a32cd" points="213.5,-127.241 217,-137.241 220.5,-127.241 213.5,-127.241"/>
<text text-anchor="middle" x="225.5" y="-109.5" font-family="Arial" font-size="10.00"> tex</text>
</g>
<!-- Node3&#45;&gt;Node3 -->
<g id="edge9" class="edge"><title>Node3&#45;&gt;Node3</title>
<path fill="none" stroke="#9a32cd" stroke-dasharray="5,2" d="M262.812,-152.151C267.212,-151.104 270,-149.388 270,-147 270,-143.082 262.493,-140.97 252.669,-140.664"/>
<polygon fill="#9a32cd" stroke="#9a32cd" points="262.195,-148.699 252.669,-153.336 263.008,-155.651 262.195,-148.699"/>
<text text-anchor="middle" x="280.5" y="-150" font-family="Arial" font-size="10.00"> prev</text>
<text text-anchor="middle" x="280.5" y="-139" font-family="Arial" font-size="10.00">next</text>
</g>
<!-- Node4 -->
<g id="node4" class="node"><title>Node4</title>
<g id="a_node4"><a xlink:href="structst__lw_procedural.html" target="_top" xlink:title="st_lwProcedural">
<polygon fill="white" stroke="black" points="0,-206.5 0,-225.5 86,-225.5 86,-206.5 0,-206.5"/>
<text text-anchor="middle" x="43" y="-213.5" font-family="Arial" font-size="10.00">st_lwProcedural</text>
</a>
</g>
</g>
<!-- Node4&#45;&gt;Node3 -->
<g id="edge3" class="edge"><title>Node4&#45;&gt;Node3</title>
<path fill="none" stroke="#9a32cd" stroke-dasharray="5,2" d="M56.8262,-198.936C64.6106,-190.878 74.9681,-181.654 86,-176 116.01,-160.619 154.051,-153.679 181.398,-150.552"/>
<polygon fill="#9a32cd" stroke="#9a32cd" points="54.1376,-196.69 49.9697,-206.431 59.3022,-201.415 54.1376,-196.69"/>
<text text-anchor="middle" x="97" y="-179.5" font-family="Arial" font-size="10.00"> proc</text>
</g>
<!-- Node5 -->
<g id="node5" class="node"><title>Node5</title>
<g id="a_node5"><a xlink:href="structst__lw_image_map.html" target="_top" xlink:title="st_lwImageMap">
<polygon fill="white" stroke="black" points="175,-206.5 175,-225.5 259,-225.5 259,-206.5 175,-206.5"/>
<text text-anchor="middle" x="217" y="-213.5" font-family="Arial" font-size="10.00">st_lwImageMap</text>
</a>
</g>
</g>
<!-- Node5&#45;&gt;Node3 -->
<g id="edge4" class="edge"><title>Node5&#45;&gt;Node3</title>
<path fill="none" stroke="#9a32cd" stroke-dasharray="5,2" d="M217,-196.018C217,-183.034 217,-166.442 217,-156.549"/>
<polygon fill="#9a32cd" stroke="#9a32cd" points="213.5,-196.241 217,-206.241 220.5,-196.241 213.5,-196.241"/>
<text text-anchor="middle" x="229.5" y="-179.5" font-family="Arial" font-size="10.00"> imap</text>
</g>
<!-- Node6 -->
<g id="node6" class="node"><title>Node6</title>
<g id="a_node6"><a xlink:href="structst__lw_e_param.html" target="_top" xlink:title="st_lwEParam">
<polygon fill="white" stroke="black" points="149,-307.5 149,-326.5 223,-326.5 223,-307.5 149,-307.5"/>
<text text-anchor="middle" x="186" y="-314.5" font-family="Arial" font-size="10.00">st_lwEParam</text>
</a>
</g>
</g>
<!-- Node6&#45;&gt;Node3 -->
<g id="edge8" class="edge"><title>Node6&#45;&gt;Node3</title>
<path fill="none" stroke="#9a32cd" stroke-dasharray="5,2" d="M168.204,-300.333C146.097,-278.884 113.323,-239.244 131,-206 144.021,-181.513 172.497,-165.498 193.123,-156.624"/>
<polygon fill="#9a32cd" stroke="#9a32cd" points="166.051,-303.111 175.753,-307.367 170.823,-297.99 166.051,-303.111"/>
<text text-anchor="middle" x="148.5" y="-213.5" font-family="Arial" font-size="10.00"> opacity</text>
</g>
<!-- Node6&#45;&gt;Node5 -->
<g id="edge5" class="edge"><title>Node6&#45;&gt;Node5</title>
<path fill="none" stroke="#9a32cd" stroke-dasharray="5,2" d="M191.755,-297.62C198.471,-276.172 209.293,-241.613 214.299,-225.625"/>
<polygon fill="#9a32cd" stroke="#9a32cd" points="188.399,-296.625 188.751,-307.214 195.079,-298.717 188.399,-296.625"/>
<text text-anchor="middle" x="231" y="-280" font-family="Arial" font-size="10.00"> amplitude</text>
<text text-anchor="middle" x="231" y="-269" font-family="Arial" font-size="10.00">wrapw</text>
<text text-anchor="middle" x="231" y="-258" font-family="Arial" font-size="10.00">stck</text>
<text text-anchor="middle" x="231" y="-247" font-family="Arial" font-size="10.00">wraph</text>
</g>
<!-- Node7 -->
<g id="node7" class="node"><title>Node7</title>
<g id="a_node7"><a xlink:href="structst__lw_t_map.html" target="_top" xlink:title="st_lwTMap">
<polygon fill="white" stroke="black" points="277.5,-206.5 277.5,-225.5 340.5,-225.5 340.5,-206.5 277.5,-206.5"/>
<text text-anchor="middle" x="309" y="-213.5" font-family="Arial" font-size="10.00">st_lwTMap</text>
</a>
</g>
</g>
<!-- Node7&#45;&gt;Node3 -->
<g id="edge6" class="edge"><title>Node7&#45;&gt;Node3</title>
<path fill="none" stroke="#9a32cd" stroke-dasharray="5,2" d="M288.676,-200.199C270.283,-186.804 243.832,-167.541 228.739,-156.549"/>
<polygon fill="#9a32cd" stroke="#9a32cd" points="286.829,-203.183 296.973,-206.241 290.949,-197.525 286.829,-203.183"/>
<text text-anchor="middle" x="284.5" y="-179.5" font-family="Arial" font-size="10.00"> tmap</text>
</g>
<!-- Node8 -->
<g id="node8" class="node"><title>Node8</title>
<g id="a_node8"><a xlink:href="structst__lw_v_param.html" target="_top" xlink:title="st_lwVParam">
<polygon fill="white" stroke="black" points="271,-307.5 271,-326.5 345,-326.5 345,-307.5 271,-307.5"/>
<text text-anchor="middle" x="308" y="-314.5" font-family="Arial" font-size="10.00">st_lwVParam</text>
</a>
</g>
</g>
<!-- Node8&#45;&gt;Node7 -->
<g id="edge7" class="edge"><title>Node8&#45;&gt;Node7</title>
<path fill="none" stroke="#9a32cd" stroke-dasharray="5,2" d="M308.192,-297.029C308.409,-275.543 308.753,-241.467 308.913,-225.625"/>
<polygon fill="#9a32cd" stroke="#9a32cd" points="304.69,-297.18 308.089,-307.214 311.69,-297.25 304.69,-297.18"/>
<text text-anchor="middle" x="323" y="-280" font-family="Arial" font-size="10.00"> size</text>
<text text-anchor="middle" x="323" y="-269" font-family="Arial" font-size="10.00">center</text>
<text text-anchor="middle" x="323" y="-258" font-family="Arial" font-size="10.00">falloff</text>
<text text-anchor="middle" x="323" y="-247" font-family="Arial" font-size="10.00">rotate</text>
</g>
<!-- Node9 -->
<g id="node9" class="node"><title>Node9</title>
<g id="a_node9"><a xlink:href="structst__lw_gradient.html" target="_top" xlink:title="st_lwGradient">
<polygon fill="white" stroke="black" points="360,-206.5 360,-225.5 436,-225.5 436,-206.5 360,-206.5"/>
<text text-anchor="middle" x="398" y="-213.5" font-family="Arial" font-size="10.00">st_lwGradient</text>
</a>
</g>
</g>
<!-- Node9&#45;&gt;Node3 -->
<g id="edge10" class="edge"><title>Node9&#45;&gt;Node3</title>
<path fill="none" stroke="#9a32cd" stroke-dasharray="5,2" d="M368.332,-202.53C349.221,-194.631 323.778,-184.367 301,-176 282.097,-169.057 260.544,-161.888 244.003,-156.542"/>
<polygon fill="#9a32cd" stroke="#9a32cd" points="367.124,-205.818 377.701,-206.422 369.809,-199.353 367.124,-205.818"/>
<text text-anchor="middle" x="342" y="-179.5" font-family="Arial" font-size="10.00"> grad</text>
</g>
<!-- Node10 -->
<g id="node10" class="node"><title>Node10</title>
<g id="a_node10"><a xlink:href="structst__lw_grad_key.html" target="_top" xlink:title="st_lwGradKey">
<polygon fill="white" stroke="black" points="363.5,-307.5 363.5,-326.5 440.5,-326.5 440.5,-307.5 363.5,-307.5"/>
<text text-anchor="middle" x="402" y="-314.5" font-family="Arial" font-size="10.00">st_lwGradKey</text>
</a>
</g>
</g>
<!-- Node10&#45;&gt;Node9 -->
<g id="edge11" class="edge"><title>Node10&#45;&gt;Node9</title>
<path fill="none" stroke="#9a32cd" stroke-dasharray="5,2" d="M401.233,-297.029C400.365,-275.543 398.989,-241.467 398.348,-225.625"/>
<polygon fill="#9a32cd" stroke="#9a32cd" points="397.744,-297.364 401.645,-307.214 404.738,-297.081 397.744,-297.364"/>
<text text-anchor="middle" x="409.5" y="-263.5" font-family="Arial" font-size="10.00"> key</text>
</g>
<!-- Node10&#45;&gt;Node10 -->
<g id="edge12" class="edge"><title>Node10&#45;&gt;Node10</title>
<path fill="none" stroke="#9a32cd" stroke-dasharray="5,2" d="M450.872,-324.415C455.251,-322.864 458,-320.392 458,-317 458,-311.434 450.597,-308.346 440.735,-307.737"/>
<polygon fill="#9a32cd" stroke="#9a32cd" points="449.945,-321.026 440.735,-326.263 451.201,-327.912 449.945,-321.026"/>
<text text-anchor="middle" x="468.5" y="-320" font-family="Arial" font-size="10.00"> prev</text>
<text text-anchor="middle" x="468.5" y="-309" font-family="Arial" font-size="10.00">next</text>
</g>
</g>
</svg>
