<?xml version="1.0" encoding="UTF-8" standalone="no"?>
<!DOCTYPE svg PUBLIC "-//W3C//DTD SVG 1.1//EN"
 "http://www.w3.org/Graphics/SVG/1.1/DTD/svg11.dtd">
<!-- Generated by graphviz version 2.34.0 (20130907.0111)
 -->
<!-- Title: Curl_multi Pages: 1 -->
<svg width="1378pt" height="866pt"
 viewBox="0.00 0.00 1378.00 866.00" xmlns="http://www.w3.org/2000/svg" xmlns:xlink="http://www.w3.org/1999/xlink">
<g id="graph0" class="graph" transform="scale(1 1) rotate(0) translate(4 862)">
<title>Curl_multi</title>
<polygon fill="white" stroke="white" points="-4,4 -4,-862 1374,-862 1374,4 -4,4"/>
<!-- Node1 -->
<g id="node1" class="node"><title>Node1</title>
<polygon fill="#bfbfbf" stroke="black" points="1310,-643.5 1310,-662.5 1370,-662.5 1370,-643.5 1310,-643.5"/>
<text text-anchor="middle" x="1340" y="-650.5" font-family="Arial" font-size="10.00">Curl_multi</text>
</g>
<!-- Node2 -->
<g id="node2" class="node"><title>Node2</title>
<g id="a_node2"><a xlink:href="struct__curl__hash.html" target="_top" xlink:title="_curl_hash">
<polygon fill="white" stroke="black" points="330,-729.5 330,-748.5 394,-748.5 394,-729.5 330,-729.5"/>
<text text-anchor="middle" x="362" y="-736.5" font-family="Arial" font-size="10.00">_curl_hash</text>
</a>
</g>
</g>
<!-- Node2&#45;&gt;Node1 -->
<g id="edge1" class="edge"><title>Node2&#45;&gt;Node1</title>
<path fill="none" stroke="#9a32cd" stroke-dasharray="5,2" d="M404.179,-739C444.034,-739 506.156,-739 560,-739 560,-739 560,-739 1208,-739 1263.23,-739 1313.24,-684.923 1331.58,-662.532"/>
<polygon fill="#9a32cd" stroke="#9a32cd" points="404.049,-735.5 394.049,-739 404.049,-742.5 404.049,-735.5"/>
<text text-anchor="middle" x="935" y="-742" font-family="Arial" font-size="10.00"> hostcache</text>
</g>
<!-- Node13 -->
<g id="node13" class="node"><title>Node13</title>
<g id="a_node13"><a xlink:href="struct_session_handle.html" target="_top" xlink:title="SessionHandle">
<polygon fill="white" stroke="black" points="767,-628.5 767,-647.5 849,-647.5 849,-628.5 767,-628.5"/>
<text text-anchor="middle" x="808" y="-635.5" font-family="Arial" font-size="10.00">SessionHandle</text>
</a>
</g>
</g>
<!-- Node2&#45;&gt;Node13 -->
<g id="edge24" class="edge"><title>Node2&#45;&gt;Node13</title>
<path fill="none" stroke="#9a32cd" stroke-dasharray="5,2" d="M404.093,-729.019C410.091,-727.63 416.198,-726.251 422,-725 556.541,-695.995 593.074,-701.683 726,-666 745.112,-660.869 766.229,-653.512 782.108,-647.627"/>
<polygon fill="#9a32cd" stroke="#9a32cd" points="403.113,-725.654 394.178,-731.348 404.713,-732.469 403.113,-725.654"/>
<text text-anchor="middle" x="561" y="-710" font-family="Arial" font-size="10.00"> hostcache</text>
</g>
<!-- Node24 -->
<g id="node24" class="node"><title>Node24</title>
<g id="a_node24"><a xlink:href="struct_curl__share.html" target="_top" xlink:title="Curl_share">
<polygon fill="white" stroke="black" points="529.5,-767.5 529.5,-786.5 592.5,-786.5 592.5,-767.5 529.5,-767.5"/>
<text text-anchor="middle" x="561" y="-774.5" font-family="Arial" font-size="10.00">Curl_share</text>
</a>
</g>
</g>
<!-- Node2&#45;&gt;Node24 -->
<g id="edge36" class="edge"><title>Node2&#45;&gt;Node24</title>
<path fill="none" stroke="#9a32cd" stroke-dasharray="5,2" d="M404.26,-746.959C441.559,-754.153 495.627,-764.583 529.255,-771.07"/>
<polygon fill="#9a32cd" stroke="#9a32cd" points="404.697,-743.479 394.215,-745.021 403.371,-750.352 404.697,-743.479"/>
<text text-anchor="middle" x="462" y="-769" font-family="Arial" font-size="10.00"> hostcache</text>
</g>
<!-- Node3 -->
<g id="node3" class="node"><title>Node3</title>
<g id="a_node3"><a xlink:href="struct__curl__llist.html" target="_top" xlink:title="_curl_llist">
<polygon fill="white" stroke="black" points="160,-729.5 160,-748.5 218,-748.5 218,-729.5 160,-729.5"/>
<text text-anchor="middle" x="189" y="-736.5" font-family="Arial" font-size="10.00">_curl_llist</text>
</a>
</g>
</g>
<!-- Node3&#45;&gt;Node2 -->
<g id="edge2" class="edge"><title>Node3&#45;&gt;Node2</title>
<path fill="none" stroke="#9a32cd" stroke-dasharray="5,2" d="M228.53,-739C259.118,-739 301.336,-739 329.822,-739"/>
<polygon fill="#9a32cd" stroke="#9a32cd" points="228.237,-735.5 218.237,-739 228.237,-742.5 228.237,-735.5"/>
<text text-anchor="middle" x="269" y="-742" font-family="Arial" font-size="10.00"> table</text>
</g>
<!-- Node4 -->
<g id="node4" class="node"><title>Node4</title>
<g id="a_node4"><a xlink:href="struct__curl__llist__element.html" target="_top" xlink:title="_curl_llist_element">
<polygon fill="white" stroke="black" points="0,-729.5 0,-748.5 98,-748.5 98,-729.5 0,-729.5"/>
<text text-anchor="middle" x="49" y="-736.5" font-family="Arial" font-size="10.00">_curl_llist_element</text>
</a>
</g>
</g>
<!-- Node4&#45;&gt;Node3 -->
<g id="edge3" class="edge"><title>Node4&#45;&gt;Node3</title>
<path fill="none" stroke="#9a32cd" stroke-dasharray="5,2" d="M108.547,-739C126.254,-739 144.902,-739 159.678,-739"/>
<polygon fill="#9a32cd" stroke="#9a32cd" points="108.266,-735.5 98.2657,-739 108.266,-742.5 108.266,-735.5"/>
<text text-anchor="middle" x="129" y="-753" font-family="Arial" font-size="10.00"> head</text>
<text text-anchor="middle" x="129" y="-742" font-family="Arial" font-size="10.00">tail</text>
</g>
<!-- Node4&#45;&gt;Node4 -->
<g id="edge4" class="edge"><title>Node4&#45;&gt;Node4</title>
<path fill="none" stroke="#9a32cd" stroke-dasharray="5,2" d="M34.2675,-758.766C35.4246,-763.497 40.3354,-767 49,-767 63.2188,-767 67.3289,-757.565 61.3303,-748.757"/>
<polygon fill="#9a32cd" stroke="#9a32cd" points="37.7393,-759.298 36.6697,-748.757 30.9326,-757.664 37.7393,-759.298"/>
<text text-anchor="middle" x="49" y="-781" font-family="Arial" font-size="10.00"> prev</text>
<text text-anchor="middle" x="49" y="-770" font-family="Arial" font-size="10.00">next</text>
</g>
<!-- Node5 -->
<g id="node5" class="node"><title>Node5</title>
<g id="a_node5"><a xlink:href="struct_curl__one__easy.html" target="_top" xlink:title="Curl_one_easy">
<polygon fill="white" stroke="black" points="1166.5,-413.5 1166.5,-432.5 1247.5,-432.5 1247.5,-413.5 1166.5,-413.5"/>
<text text-anchor="middle" x="1207" y="-420.5" font-family="Arial" font-size="10.00">Curl_one_easy</text>
</a>
</g>
</g>
<!-- Node5&#45;&gt;Node1 -->
<g id="edge5" class="edge"><title>Node5&#45;&gt;Node1</title>
<path fill="none" stroke="#9a32cd" stroke-dasharray="5,2" d="M1218.42,-441.288C1244.8,-487.612 1313.59,-608.378 1333.51,-643.369"/>
<polygon fill="#9a32cd" stroke="#9a32cd" points="1221.45,-439.547 1213.46,-432.59 1215.37,-443.012 1221.45,-439.547"/>
<text text-anchor="middle" x="1279" y="-569" font-family="Arial" font-size="10.00"> easy</text>
</g>
<!-- Node5&#45;&gt;Node5 -->
<g id="edge57" class="edge"><title>Node5&#45;&gt;Node5</title>
<path fill="none" stroke="#9a32cd" stroke-dasharray="5,2" d="M1193.74,-442.766C1194.78,-447.497 1199.2,-451 1207,-451 1219.8,-451 1223.5,-441.565 1218.1,-432.757"/>
<polygon fill="#9a32cd" stroke="#9a32cd" points="1197.21,-443.271 1195.9,-432.757 1190.37,-441.793 1197.21,-443.271"/>
<text text-anchor="middle" x="1207" y="-465" font-family="Arial" font-size="10.00"> prev</text>
<text text-anchor="middle" x="1207" y="-454" font-family="Arial" font-size="10.00">next</text>
</g>
<!-- Node6 -->
<g id="node6" class="node"><title>Node6</title>
<g id="a_node6"><a xlink:href="structconnectdata.html" target="_top" xlink:title="connectdata">
<polygon fill="white" stroke="black" points="1003,-394.5 1003,-413.5 1073,-413.5 1073,-394.5 1003,-394.5"/>
<text text-anchor="middle" x="1038" y="-401.5" font-family="Arial" font-size="10.00">connectdata</text>
</a>
</g>
</g>
<!-- Node6&#45;&gt;Node5 -->
<g id="edge6" class="edge"><title>Node6&#45;&gt;Node5</title>
<path fill="none" stroke="#9a32cd" stroke-dasharray="5,2" d="M1083.74,-405.461C1103.5,-406.47 1126.97,-408.164 1148,-411 1153.91,-411.797 1160.12,-412.849 1166.19,-414"/>
<polygon fill="#9a32cd" stroke="#9a32cd" points="1083.64,-401.952 1073.49,-404.981 1083.31,-408.945 1083.64,-401.952"/>
<text text-anchor="middle" x="1122" y="-414" font-family="Arial" font-size="10.00"> easy_conn</text>
</g>
<!-- Node17 -->
<g id="node17" class="node"><title>Node17</title>
<g id="a_node17"><a xlink:href="struct_url_state.html" target="_top" xlink:title="UrlState">
<polygon fill="white" stroke="black" points="1181,-527.5 1181,-546.5 1233,-546.5 1233,-527.5 1181,-527.5"/>
<text text-anchor="middle" x="1207" y="-534.5" font-family="Arial" font-size="10.00">UrlState</text>
</a>
</g>
</g>
<!-- Node6&#45;&gt;Node17 -->
<g id="edge21" class="edge"><title>Node6&#45;&gt;Node17</title>
<path fill="none" stroke="#9a32cd" stroke-dasharray="5,2" d="M1054.33,-421.423C1061.66,-429.912 1070.45,-440.35 1078,-450 1086.43,-460.786 1085.8,-465.869 1096,-475 1122.3,-498.537 1159.03,-516.991 1182.66,-527.447"/>
<polygon fill="#9a32cd" stroke="#9a32cd" points="1056.8,-418.929 1047.6,-413.684 1051.52,-423.525 1056.8,-418.929"/>
<text text-anchor="middle" x="1122" y="-513" font-family="Arial" font-size="10.00"> connects</text>
</g>
<!-- Node7 -->
<g id="node7" class="node"><title>Node7</title>
<g id="a_node7"><a xlink:href="structntlmdata.html" target="_top" xlink:title="ntlmdata">
<polygon fill="white" stroke="black" points="781,-280.5 781,-299.5 835,-299.5 835,-280.5 781,-280.5"/>
<text text-anchor="middle" x="808" y="-287.5" font-family="Arial" font-size="10.00">ntlmdata</text>
</a>
</g>
</g>
<!-- Node7&#45;&gt;Node6 -->
<g id="edge7" class="edge"><title>Node7&#45;&gt;Node6</title>
<path fill="none" stroke="#9a32cd" stroke-dasharray="5,2" d="M845.362,-281.38C882.224,-274.773 939.458,-270.575 980,-296 1016.1,-318.641 1030.65,-372.307 1035.24,-394.322"/>
<polygon fill="#9a32cd" stroke="#9a32cd" points="844.224,-278.036 835.077,-283.381 845.561,-284.907 844.224,-278.036"/>
<text text-anchor="middle" x="935" y="-310" font-family="Arial" font-size="10.00"> proxyntlm</text>
<text text-anchor="middle" x="935" y="-299" font-family="Arial" font-size="10.00">ntlm</text>
</g>
<!-- Node8 -->
<g id="node8" class="node"><title>Node8</title>
<g id="a_node8"><a xlink:href="struct_curl__async.html" target="_top" xlink:title="Curl_async">
<polygon fill="white" stroke="black" points="775.5,-318.5 775.5,-337.5 840.5,-337.5 840.5,-318.5 775.5,-318.5"/>
<text text-anchor="middle" x="808" y="-325.5" font-family="Arial" font-size="10.00">Curl_async</text>
</a>
</g>
</g>
<!-- Node8&#45;&gt;Node6 -->
<g id="edge8" class="edge"><title>Node8&#45;&gt;Node6</title>
<path fill="none" stroke="#9a32cd" stroke-dasharray="5,2" d="M850.941,-322.811C887.015,-320.243 939.484,-321.147 980,-341 1004.11,-352.812 1022.75,-379.671 1031.51,-394.212"/>
<polygon fill="#9a32cd" stroke="#9a32cd" points="850.44,-319.34 840.765,-323.658 851.021,-326.316 850.44,-319.34"/>
<text text-anchor="middle" x="935" y="-344" font-family="Arial" font-size="10.00"> async</text>
</g>
<!-- Node9 -->
<g id="node9" class="node"><title>Node9</title>
<g id="a_node9"><a xlink:href="struct_curl__dns__entry.html" target="_top" xlink:title="Curl_dns_entry">
<polygon fill="white" stroke="black" points="520,-267.5 520,-286.5 602,-286.5 602,-267.5 520,-267.5"/>
<text text-anchor="middle" x="561" y="-274.5" font-family="Arial" font-size="10.00">Curl_dns_entry</text>
</a>
</g>
</g>
<!-- Node9&#45;&gt;Node6 -->
<g id="edge48" class="edge"><title>Node9&#45;&gt;Node6</title>
<path fill="none" stroke="#9a32cd" stroke-dasharray="5,2" d="M596.521,-264.072C673.905,-237.524 863.576,-186.301 980,-273 982.648,-274.972 1020.35,-364.351 1032.94,-394.321"/>
<polygon fill="#9a32cd" stroke="#9a32cd" points="595.071,-260.872 586.793,-267.484 597.388,-267.477 595.071,-260.872"/>
<text text-anchor="middle" x="808" y="-233" font-family="Arial" font-size="10.00"> connect_addr</text>
</g>
<!-- Node9&#45;&gt;Node8 -->
<g id="edge9" class="edge"><title>Node9&#45;&gt;Node8</title>
<path fill="none" stroke="#9a32cd" stroke-dasharray="5,2" d="M612.241,-287.458C661.173,-297.644 734.044,-312.813 775.377,-321.417"/>
<polygon fill="#9a32cd" stroke="#9a32cd" points="612.686,-283.976 602.182,-285.365 611.259,-290.829 612.686,-283.976"/>
<text text-anchor="middle" x="673" y="-314" font-family="Arial" font-size="10.00"> dns</text>
</g>
<!-- Node10 -->
<g id="node10" class="node"><title>Node10</title>
<g id="a_node10"><a xlink:href="structssl__config__data.html" target="_top" xlink:title="ssl_config_data">
<polygon fill="white" stroke="black" points="320,-560.5 320,-579.5 404,-579.5 404,-560.5 320,-560.5"/>
<text text-anchor="middle" x="362" y="-567.5" font-family="Arial" font-size="10.00">ssl_config_data</text>
</a>
</g>
</g>
<!-- Node10&#45;&gt;Node6 -->
<g id="edge10" class="edge"><title>Node10&#45;&gt;Node6</title>
<path fill="none" stroke="#9a32cd" stroke-dasharray="5,2" d="M401.905,-557.436C470.46,-535.62 617.504,-490.269 744,-461 847.795,-436.983 875.955,-441.909 980,-419 987.395,-417.372 995.278,-415.431 1002.75,-413.496"/>
<polygon fill="#9a32cd" stroke="#9a32cd" points="400.834,-554.104 392.372,-560.479 402.963,-560.772 400.834,-554.104"/>
<text text-anchor="middle" x="673" y="-495" font-family="Arial" font-size="10.00"> ssl_config</text>
</g>
<!-- Node18 -->
<g id="node18" class="node"><title>Node18</title>
<g id="a_node18"><a xlink:href="structcurl__ssl__session.html" target="_top" xlink:title="curl_ssl_session">
<polygon fill="white" stroke="black" points="890.5,-584.5 890.5,-603.5 979.5,-603.5 979.5,-584.5 890.5,-584.5"/>
<text text-anchor="middle" x="935" y="-591.5" font-family="Arial" font-size="10.00">curl_ssl_session</text>
</a>
</g>
</g>
<!-- Node10&#45;&gt;Node18 -->
<g id="edge20" class="edge"><title>Node10&#45;&gt;Node18</title>
<path fill="none" stroke="#9a32cd" stroke-dasharray="5,2" d="M414.49,-569.721C484.883,-569.599 615.086,-570.291 726,-576 782.831,-578.925 848.187,-585.032 890.237,-589.319"/>
<polygon fill="#9a32cd" stroke="#9a32cd" points="414.124,-566.222 404.133,-569.746 414.141,-573.222 414.124,-566.222"/>
<text text-anchor="middle" x="561" y="-575" font-family="Arial" font-size="10.00"> ssl_config</text>
</g>
<!-- Node20 -->
<g id="node20" class="node"><title>Node20</title>
<g id="a_node20"><a xlink:href="struct_user_defined.html" target="_top" xlink:title="UserDefined">
<polygon fill="white" stroke="black" points="526.5,-429.5 526.5,-448.5 595.5,-448.5 595.5,-429.5 526.5,-429.5"/>
<text text-anchor="middle" x="561" y="-436.5" font-family="Arial" font-size="10.00">UserDefined</text>
</a>
</g>
</g>
<!-- Node10&#45;&gt;Node20 -->
<g id="edge26" class="edge"><title>Node10&#45;&gt;Node20</title>
<path fill="none" stroke="#9a32cd" stroke-dasharray="5,2" d="M400.903,-554.357C402.014,-553.306 403.053,-552.189 404,-551 428.063,-520.799 394.484,-493.093 422,-466 436.438,-451.784 490.177,-444.651 526.177,-441.394"/>
<polygon fill="#9a32cd" stroke="#9a32cd" points="398.719,-551.619 392.728,-560.358 402.861,-557.262 398.719,-551.619"/>
<text text-anchor="middle" x="462" y="-469" font-family="Arial" font-size="10.00"> ssl</text>
</g>
<!-- Node11 -->
<g id="node11" class="node"><title>Node11</title>
<g id="a_node11"><a xlink:href="struct_curl__transfer__keeper.html" target="_top" xlink:title="Curl_transfer_keeper">
<polygon fill="white" stroke="black" points="620,-201.5 620,-220.5 726,-220.5 726,-201.5 620,-201.5"/>
<text text-anchor="middle" x="673" y="-208.5" font-family="Arial" font-size="10.00">Curl_transfer_keeper</text>
</a>
</g>
</g>
<!-- Node11&#45;&gt;Node6 -->
<g id="edge11" class="edge"><title>Node11&#45;&gt;Node6</title>
<path fill="none" stroke="#9a32cd" stroke-dasharray="5,2" d="M719.582,-199.327C786.161,-185.285 909.706,-171.098 980,-237 1004.69,-260.15 987.422,-278.848 998,-311 1008.29,-342.266 1024.5,-377.766 1032.38,-394.419"/>
<polygon fill="#9a32cd" stroke="#9a32cd" points="718.809,-195.913 709.793,-201.478 720.312,-202.75 718.809,-195.913"/>
<text text-anchor="middle" x="808" y="-198" font-family="Arial" font-size="10.00"> keep</text>
</g>
<!-- Node12 -->
<g id="node12" class="node"><title>Node12</title>
<g id="a_node12"><a xlink:href="structtimeval.html" target="_top" xlink:title="timeval">
<polygon fill="white" stroke="black" points="338.5,-257.5 338.5,-276.5 385.5,-276.5 385.5,-257.5 338.5,-257.5"/>
<text text-anchor="middle" x="362" y="-264.5" font-family="Arial" font-size="10.00">timeval</text>
</a>
</g>
</g>
<!-- Node12&#45;&gt;Node6 -->
<g id="edge47" class="edge"><title>Node12&#45;&gt;Node6</title>
<path fill="none" stroke="#9a32cd" stroke-dasharray="5,2" d="M390.842,-280.888C400.519,-285.276 411.564,-289.808 422,-293 637.544,-358.925 908.271,-390.952 1002.67,-400.683"/>
<polygon fill="#9a32cd" stroke="#9a32cd" points="392.236,-277.676 381.696,-276.602 389.266,-284.014 392.236,-277.676"/>
<text text-anchor="middle" x="673" y="-376" font-family="Arial" font-size="10.00"> created</text>
<text text-anchor="middle" x="673" y="-365" font-family="Arial" font-size="10.00">now</text>
</g>
<!-- Node12&#45;&gt;Node11 -->
<g id="edge12" class="edge"><title>Node12&#45;&gt;Node11</title>
<path fill="none" stroke="#9a32cd" stroke-dasharray="5,2" d="M395.687,-261.076C449.206,-251.377 555.963,-232.029 619.975,-220.428"/>
<polygon fill="#9a32cd" stroke="#9a32cd" points="394.937,-257.655 385.722,-262.882 396.185,-264.543 394.937,-257.655"/>
<text text-anchor="middle" x="462" y="-281" font-family="Arial" font-size="10.00"> start</text>
<text text-anchor="middle" x="462" y="-270" font-family="Arial" font-size="10.00">start100</text>
<text text-anchor="middle" x="462" y="-259" font-family="Arial" font-size="10.00">now</text>
</g>
<!-- Node12&#45;&gt;Node17 -->
<g id="edge22" class="edge"><title>Node12&#45;&gt;Node17</title>
<path fill="none" stroke="#9a32cd" stroke-dasharray="5,2" d="M375.308,-249.225C399.072,-216.443 454.731,-146.82 520,-114 611.412,-68.0335 901.144,-28.8018 980,-94 987.529,-100.225 1090.68,-417.805 1096,-426 1113.29,-452.638 1125.59,-452.505 1148,-475 1165.89,-492.959 1185.93,-514.773 1197.14,-527.156"/>
<polygon fill="#9a32cd" stroke="#9a32cd" points="372.413,-247.256 369.469,-257.433 378.118,-251.313 372.413,-247.256"/>
<text text-anchor="middle" x="808" y="-67" font-family="Arial" font-size="10.00"> keeps_speed</text>
</g>
<!-- Node23 -->
<g id="node23" class="node"><title>Node23</title>
<g id="a_node23"><a xlink:href="struct_progress.html" target="_top" xlink:title="Progress">
<polygon fill="white" stroke="black" points="533,-386.5 533,-405.5 589,-405.5 589,-386.5 533,-386.5"/>
<text text-anchor="middle" x="561" y="-393.5" font-family="Arial" font-size="10.00">Progress</text>
</a>
</g>
</g>
<!-- Node12&#45;&gt;Node23 -->
<g id="edge33" class="edge"><title>Node12&#45;&gt;Node23</title>
<path fill="none" stroke="#9a32cd" stroke-dasharray="5,2" d="M376.102,-284.968C386.96,-298.635 403.559,-316.921 422,-328 453.712,-347.053 469.014,-334.248 502,-351 520.636,-360.464 539.198,-376.27 550.132,-386.409"/>
<polygon fill="#9a32cd" stroke="#9a32cd" points="378.69,-282.591 369.833,-276.776 373.131,-286.845 378.69,-282.591"/>
<text text-anchor="middle" x="462" y="-376" font-family="Arial" font-size="10.00"> t_startsingle</text>
<text text-anchor="middle" x="462" y="-365" font-family="Arial" font-size="10.00">start</text>
<text text-anchor="middle" x="462" y="-354" font-family="Arial" font-size="10.00">speeder_time</text>
</g>
<!-- Node13&#45;&gt;Node5 -->
<g id="edge53" class="edge"><title>Node13&#45;&gt;Node5</title>
<path fill="none" stroke="#9a32cd" stroke-dasharray="5,2" d="M859.328,-634.399C903.494,-630.179 963.228,-621.549 980,-605 1008.11,-577.267 973.672,-549.101 998,-518 1039.83,-464.53 1118.58,-440.105 1166.27,-429.78"/>
<polygon fill="#9a32cd" stroke="#9a32cd" points="858.961,-630.918 849.318,-635.306 859.593,-637.889 858.961,-630.918"/>
<text text-anchor="middle" x="1038" y="-521" font-family="Arial" font-size="10.00"> easy_handle</text>
</g>
<!-- Node13&#45;&gt;Node6 -->
<g id="edge13" class="edge"><title>Node13&#45;&gt;Node6</title>
<path fill="none" stroke="#9a32cd" stroke-dasharray="5,2" d="M824.345,-620.278C839.433,-603.984 863.936,-580.386 890,-567 926.537,-548.235 951.6,-575.674 980,-546 1010.01,-514.638 979.342,-489.196 998,-450 1004.75,-435.82 1016.98,-422.464 1025.95,-413.835"/>
<polygon fill="#9a32cd" stroke="#9a32cd" points="821.446,-618.268 817.354,-628.041 826.647,-622.952 821.446,-618.268"/>
<text text-anchor="middle" x="935" y="-570" font-family="Arial" font-size="10.00"> data</text>
</g>
<!-- Node14 -->
<g id="node14" class="node"><title>Node14</title>
<g id="a_node14"><a xlink:href="struct_cookie_info.html" target="_top" xlink:title="CookieInfo">
<polygon fill="white" stroke="black" points="331,-809.5 331,-828.5 393,-828.5 393,-809.5 331,-809.5"/>
<text text-anchor="middle" x="362" y="-816.5" font-family="Arial" font-size="10.00">CookieInfo</text>
</a>
</g>
</g>
<!-- Node14&#45;&gt;Node13 -->
<g id="edge14" class="edge"><title>Node14&#45;&gt;Node13</title>
<path fill="none" stroke="#9a32cd" stroke-dasharray="5,2" d="M403.105,-825.554C474.946,-835.016 627.285,-844.472 726,-775 772.774,-742.082 796.865,-672.825 804.374,-647.518"/>
<polygon fill="#9a32cd" stroke="#9a32cd" points="403.492,-822.074 393.106,-824.168 402.53,-829.008 403.492,-822.074"/>
<text text-anchor="middle" x="561" y="-835" font-family="Arial" font-size="10.00"> cookies</text>
</g>
<!-- Node14&#45;&gt;Node24 -->
<g id="edge35" class="edge"><title>Node14&#45;&gt;Node24</title>
<path fill="none" stroke="#9a32cd" stroke-dasharray="5,2" d="M403.389,-810.389C440.727,-802.429 495.404,-790.772 529.291,-783.547"/>
<polygon fill="#9a32cd" stroke="#9a32cd" points="402.4,-807.021 393.35,-812.53 403.86,-813.867 402.4,-807.021"/>
<text text-anchor="middle" x="462" y="-809" font-family="Arial" font-size="10.00"> cookies</text>
</g>
<!-- Node15 -->
<g id="node15" class="node"><title>Node15</title>
<g id="a_node15"><a xlink:href="struct_cookie.html" target="_top" xlink:title="Cookie">
<polygon fill="white" stroke="black" points="165.5,-809.5 165.5,-828.5 212.5,-828.5 212.5,-809.5 165.5,-809.5"/>
<text text-anchor="middle" x="189" y="-816.5" font-family="Arial" font-size="10.00">Cookie</text>
</a>
</g>
</g>
<!-- Node15&#45;&gt;Node14 -->
<g id="edge15" class="edge"><title>Node15&#45;&gt;Node14</title>
<path fill="none" stroke="#9a32cd" stroke-dasharray="5,2" d="M223.075,-819C254.326,-819 300.796,-819 330.998,-819"/>
<polygon fill="#9a32cd" stroke="#9a32cd" points="222.708,-815.5 212.707,-819 222.707,-822.5 222.708,-815.5"/>
<text text-anchor="middle" x="269" y="-822" font-family="Arial" font-size="10.00"> cookies</text>
</g>
<!-- Node15&#45;&gt;Node15 -->
<g id="edge16" class="edge"><title>Node15&#45;&gt;Node15</title>
<path fill="none" stroke="#9a32cd" stroke-dasharray="5,2" d="M177.951,-838.766C178.818,-843.497 182.502,-847 189,-847 199.664,-847 202.747,-837.565 198.248,-828.757"/>
<polygon fill="#9a32cd" stroke="#9a32cd" points="181.425,-839.219 179.752,-828.757 174.536,-837.979 181.425,-839.219"/>
<text text-anchor="middle" x="189" y="-850" font-family="Arial" font-size="10.00"> next</text>
</g>
<!-- Node16 -->
<g id="node16" class="node"><title>Node16</title>
<g id="a_node16"><a xlink:href="struct_pure_info.html" target="_top" xlink:title="PureInfo">
<polygon fill="white" stroke="black" points="535,-644.5 535,-663.5 587,-663.5 587,-644.5 535,-644.5"/>
<text text-anchor="middle" x="561" y="-651.5" font-family="Arial" font-size="10.00">PureInfo</text>
</a>
</g>
</g>
<!-- Node16&#45;&gt;Node13 -->
<g id="edge17" class="edge"><title>Node16&#45;&gt;Node13</title>
<path fill="none" stroke="#9a32cd" stroke-dasharray="5,2" d="M597.459,-651.684C642.445,-648.746 719.825,-643.693 766.912,-640.618"/>
<polygon fill="#9a32cd" stroke="#9a32cd" points="597.047,-648.204 587.297,-652.348 597.503,-655.189 597.047,-648.204"/>
<text text-anchor="middle" x="673" y="-654" font-family="Arial" font-size="10.00"> info</text>
</g>
<!-- Node17&#45;&gt;Node13 -->
<g id="edge18" class="edge"><title>Node17&#45;&gt;Node13</title>
<path fill="none" stroke="#9a32cd" stroke-dasharray="5,2" d="M1186.76,-552.935C1175.91,-561.305 1161.79,-571.206 1148,-578 1077.89,-612.542 1056.99,-616.51 980,-630 935.65,-637.771 883.904,-639.146 849.049,-638.974"/>
<polygon fill="#9a32cd" stroke="#9a32cd" points="1189.03,-555.597 1194.69,-546.639 1184.68,-550.113 1189.03,-555.597"/>
<text text-anchor="middle" x="1038" y="-630" font-family="Arial" font-size="10.00"> state</text>
</g>
<!-- Node18&#45;&gt;Node17 -->
<g id="edge19" class="edge"><title>Node18&#45;&gt;Node17</title>
<path fill="none" stroke="#9a32cd" stroke-dasharray="5,2" d="M980.815,-577.306C990.716,-564.809 985.804,-553.707 998,-546 1027.71,-527.222 1132.34,-531.783 1180.9,-535.058"/>
<polygon fill="#9a32cd" stroke="#9a32cd" points="978.286,-574.883 973.588,-584.379 983.183,-579.886 978.286,-574.883"/>
<text text-anchor="middle" x="1038" y="-549" font-family="Arial" font-size="10.00"> session</text>
</g>
<!-- Node19 -->
<g id="node19" class="node"><title>Node19</title>
<g id="a_node19"><a xlink:href="structdigestdata.html" target="_top" xlink:title="digestdata">
<polygon fill="white" stroke="black" points="1007,-566.5 1007,-585.5 1069,-585.5 1069,-566.5 1007,-566.5"/>
<text text-anchor="middle" x="1038" y="-573.5" font-family="Arial" font-size="10.00">digestdata</text>
</a>
</g>
</g>
<!-- Node19&#45;&gt;Node17 -->
<g id="edge23" class="edge"><title>Node19&#45;&gt;Node17</title>
<path fill="none" stroke="#9a32cd" stroke-dasharray="5,2" d="M1079.08,-566.922C1099.69,-562.225 1125.2,-556.365 1148,-551 1158.79,-548.461 1170.69,-545.598 1180.89,-543.127"/>
<polygon fill="#9a32cd" stroke="#9a32cd" points="1078.07,-563.563 1069.09,-569.195 1079.62,-570.388 1078.07,-563.563"/>
<text text-anchor="middle" x="1122" y="-566" font-family="Arial" font-size="10.00"> digest</text>
</g>
<!-- Node20&#45;&gt;Node13 -->
<g id="edge25" class="edge"><title>Node20&#45;&gt;Node13</title>
<path fill="none" stroke="#9a32cd" stroke-dasharray="5,2" d="M581.766,-455.055C630.701,-494.802 756.343,-596.854 795.302,-628.498"/>
<polygon fill="#9a32cd" stroke="#9a32cd" points="583.786,-452.186 573.817,-448.598 579.372,-457.62 583.786,-452.186"/>
<text text-anchor="middle" x="673" y="-571" font-family="Arial" font-size="10.00"> set</text>
</g>
<!-- Node21 -->
<g id="node21" class="node"><title>Node21</title>
<g id="a_node21"><a xlink:href="structcurl__httppost.html" target="_top" xlink:title="curl_httppost">
<polygon fill="white" stroke="black" points="325.5,-482.5 325.5,-501.5 398.5,-501.5 398.5,-482.5 325.5,-482.5"/>
<text text-anchor="middle" x="362" y="-489.5" font-family="Arial" font-size="10.00">curl_httppost</text>
</a>
</g>
</g>
<!-- Node21&#45;&gt;Node20 -->
<g id="edge27" class="edge"><title>Node21&#45;&gt;Node20</title>
<path fill="none" stroke="#9a32cd" stroke-dasharray="5,2" d="M393.298,-477.045C397.173,-474.363 400.872,-471.342 404,-468 416.225,-454.941 406.783,-441.405 422,-432 456.181,-410.875 504.711,-420.391 534.18,-429.495"/>
<polygon fill="#9a32cd" stroke="#9a32cd" points="391.352,-474.133 384.686,-482.368 395.032,-480.087 391.352,-474.133"/>
<text text-anchor="middle" x="462" y="-435" font-family="Arial" font-size="10.00"> httppost</text>
</g>
<!-- Node21&#45;&gt;Node21 -->
<g id="edge28" class="edge"><title>Node21&#45;&gt;Node21</title>
<path fill="none" stroke="#9a32cd" stroke-dasharray="5,2" d="M344.964,-511.4C346.102,-516.315 351.78,-520 362,-520 378.352,-520 383.078,-510.565 376.18,-501.757"/>
<polygon fill="#9a32cd" stroke="#9a32cd" points="348.336,-512.339 347.82,-501.757 341.624,-510.351 348.336,-512.339"/>
<text text-anchor="middle" x="362" y="-534" font-family="Arial" font-size="10.00"> next</text>
<text text-anchor="middle" x="362" y="-523" font-family="Arial" font-size="10.00">more</text>
</g>
<!-- Node22 -->
<g id="node22" class="node"><title>Node22</title>
<g id="a_node22"><a xlink:href="structcurl__slist.html" target="_top" xlink:title="curl_slist">
<polygon fill="white" stroke="black" points="161,-482.5 161,-501.5 217,-501.5 217,-482.5 161,-482.5"/>
<text text-anchor="middle" x="189" y="-489.5" font-family="Arial" font-size="10.00">curl_slist</text>
</a>
</g>
</g>
<!-- Node22&#45;&gt;Node20 -->
<g id="edge31" class="edge"><title>Node22&#45;&gt;Node20</title>
<path fill="none" stroke="#9a32cd" stroke-dasharray="5,2" d="M207.762,-475.43C231.302,-454.72 275.118,-420.371 320,-407 397.617,-383.877 423.23,-397.178 502,-416 515.064,-419.122 529.08,-424.616 540.061,-429.451"/>
<polygon fill="#9a32cd" stroke="#9a32cd" points="205.133,-473.087 200.042,-482.379 209.816,-478.29 205.133,-473.087"/>
<text text-anchor="middle" x="362" y="-465" font-family="Arial" font-size="10.00"> headers</text>
<text text-anchor="middle" x="362" y="-454" font-family="Arial" font-size="10.00">prequote</text>
<text text-anchor="middle" x="362" y="-443" font-family="Arial" font-size="10.00">telnet_options</text>
<text text-anchor="middle" x="362" y="-432" font-family="Arial" font-size="10.00">postquote</text>
<text text-anchor="middle" x="362" y="-421" font-family="Arial" font-size="10.00">quote</text>
<text text-anchor="middle" x="362" y="-410" font-family="Arial" font-size="10.00">http200aliases</text>
</g>
<!-- Node22&#45;&gt;Node21 -->
<g id="edge29" class="edge"><title>Node22&#45;&gt;Node21</title>
<path fill="none" stroke="#9a32cd" stroke-dasharray="5,2" d="M227.292,-492C256.448,-492 296.712,-492 325.42,-492"/>
<polygon fill="#9a32cd" stroke="#9a32cd" points="227.095,-488.5 217.095,-492 227.095,-495.5 227.095,-488.5"/>
<text text-anchor="middle" x="269" y="-495" font-family="Arial" font-size="10.00"> contentheader</text>
</g>
<!-- Node22&#45;&gt;Node22 -->
<g id="edge30" class="edge"><title>Node22&#45;&gt;Node22</title>
<path fill="none" stroke="#9a32cd" stroke-dasharray="5,2" d="M177.951,-511.766C178.818,-516.497 182.502,-520 189,-520 199.664,-520 202.747,-510.565 198.248,-501.757"/>
<polygon fill="#9a32cd" stroke="#9a32cd" points="181.425,-512.219 179.752,-501.757 174.536,-510.979 181.425,-512.219"/>
<text text-anchor="middle" x="189" y="-523" font-family="Arial" font-size="10.00"> next</text>
</g>
<!-- Node25 -->
<g id="node25" class="node"><title>Node25</title>
<g id="a_node25"><a xlink:href="struct_dynamic_static.html" target="_top" xlink:title="DynamicStatic">
<polygon fill="white" stroke="black" points="422,-603.5 422,-622.5 502,-622.5 502,-603.5 422,-603.5"/>
<text text-anchor="middle" x="462" y="-610.5" font-family="Arial" font-size="10.00">DynamicStatic</text>
</a>
</g>
</g>
<!-- Node22&#45;&gt;Node25 -->
<g id="edge38" class="edge"><title>Node22&#45;&gt;Node25</title>
<path fill="none" stroke="#9a32cd" stroke-dasharray="5,2" d="M206.717,-508.695C229.97,-530.855 274.387,-569.456 320,-589 352.639,-602.985 392.81,-608.835 421.914,-611.274"/>
<polygon fill="#9a32cd" stroke="#9a32cd" points="209.021,-506.053 199.407,-501.6 204.145,-511.077 209.021,-506.053"/>
<text text-anchor="middle" x="269" y="-583" font-family="Arial" font-size="10.00"> cookielist</text>
</g>
<!-- Node23&#45;&gt;Node13 -->
<g id="edge32" class="edge"><title>Node23&#45;&gt;Node13</title>
<path fill="none" stroke="#9a32cd" stroke-dasharray="5,2" d="M599.346,-392.631C637.058,-391.476 694.155,-396.294 726,-431 769.607,-478.523 715.663,-517.06 744,-575 755.213,-597.927 778.143,-617.471 793.028,-628.469"/>
<polygon fill="#9a32cd" stroke="#9a32cd" points="599.089,-389.139 589.261,-393.095 599.411,-396.131 599.089,-389.139"/>
<text text-anchor="middle" x="673" y="-434" font-family="Arial" font-size="10.00"> progress</text>
</g>
<!-- Node24&#45;&gt;Node13 -->
<g id="edge34" class="edge"><title>Node24&#45;&gt;Node13</title>
<path fill="none" stroke="#9a32cd" stroke-dasharray="5,2" d="M602.386,-766.266C636.878,-756.012 686.96,-738.485 726,-714 756.385,-694.943 785.376,-663.458 798.959,-647.665"/>
<polygon fill="#9a32cd" stroke="#9a32cd" points="601.282,-762.942 592.653,-769.09 603.232,-769.665 601.282,-762.942"/>
<text text-anchor="middle" x="673" y="-763" font-family="Arial" font-size="10.00"> share</text>
</g>
<!-- Node25&#45;&gt;Node13 -->
<g id="edge37" class="edge"><title>Node25&#45;&gt;Node13</title>
<path fill="none" stroke="#9a32cd" stroke-dasharray="5,2" d="M512.234,-616.578C580.752,-621.558 703.554,-630.482 766.848,-635.082"/>
<polygon fill="#9a32cd" stroke="#9a32cd" points="512.354,-613.078 502.126,-615.843 511.846,-620.059 512.354,-613.078"/>
<text text-anchor="middle" x="561" y="-626" font-family="Arial" font-size="10.00"> change</text>
</g>
<!-- Node26 -->
<g id="node26" class="node"><title>Node26</title>
<g id="a_node26"><a xlink:href="structconnectdata_1_1dynamically__allocated__data.html" target="_top" xlink:title="connectdata::dynamically\l_allocated_data">
<polygon fill="white" stroke="black" points="744,-137 744,-167 872,-167 872,-137 744,-137"/>
<text text-anchor="start" x="752" y="-155" font-family="Arial" font-size="10.00">connectdata::dynamically</text>
<text text-anchor="middle" x="808" y="-144" font-family="Arial" font-size="10.00">_allocated_data</text>
</a>
</g>
</g>
<!-- Node26&#45;&gt;Node6 -->
<g id="edge39" class="edge"><title>Node26&#45;&gt;Node6</title>
<path fill="none" stroke="#9a32cd" stroke-dasharray="5,2" d="M882.639,-144.981C916.746,-145.909 955.132,-153.602 980,-179 1000.71,-200.153 990.209,-282.439 998,-311 1006.62,-342.586 1023.45,-377.65 1031.91,-394.257"/>
<polygon fill="#9a32cd" stroke="#9a32cd" points="882.239,-141.478 872.211,-144.899 882.183,-148.478 882.239,-141.478"/>
<text text-anchor="middle" x="935" y="-182" font-family="Arial" font-size="10.00"> allocptr</text>
</g>
<!-- Node27 -->
<g id="node27" class="node"><title>Node27</title>
<g id="a_node27"><a xlink:href="struct_h_t_t_p.html" target="_top" xlink:title="HTTP">
<polygon fill="white" stroke="black" points="787.5,-98.5 787.5,-117.5 828.5,-117.5 828.5,-98.5 787.5,-98.5"/>
<text text-anchor="middle" x="808" y="-105.5" font-family="Arial" font-size="10.00">HTTP</text>
</a>
</g>
</g>
<!-- Node27&#45;&gt;Node6 -->
<g id="edge40" class="edge"><title>Node27&#45;&gt;Node6</title>
<path fill="none" stroke="#9a32cd" stroke-dasharray="5,2" d="M838.625,-103.616C882.083,-97.9179 960.121,-90.7066 980,-109 1013.16,-139.517 987.157,-267.257 998,-311 1005.88,-342.778 1023.06,-377.754 1031.74,-394.299"/>
<polygon fill="#9a32cd" stroke="#9a32cd" points="838.068,-100.16 828.633,-104.98 839.014,-107.095 838.068,-100.16"/>
<text text-anchor="middle" x="935" y="-134" font-family="Arial" font-size="10.00"> https</text>
<text text-anchor="middle" x="935" y="-123" font-family="Arial" font-size="10.00">http</text>
<text text-anchor="middle" x="935" y="-112" font-family="Arial" font-size="10.00">gopher</text>
</g>
<!-- Node28 -->
<g id="node28" class="node"><title>Node28</title>
<g id="a_node28"><a xlink:href="struct_form.html" target="_top" xlink:title="Form">
<polygon fill="white" stroke="black" points="541.5,-0.5 541.5,-19.5 580.5,-19.5 580.5,-0.5 541.5,-0.5"/>
<text text-anchor="middle" x="561" y="-7.5" font-family="Arial" font-size="10.00">Form</text>
</a>
</g>
</g>
<!-- Node28&#45;&gt;Node27 -->
<g id="edge41" class="edge"><title>Node28&#45;&gt;Node27</title>
<path fill="none" stroke="#9a32cd" stroke-dasharray="5,2" d="M590.73,-17.0485C624.543,-26.0705 681.692,-43.6286 726,-69 735.037,-74.1747 735.012,-78.7413 744,-84 757.638,-91.9791 774.412,-98.2169 787.222,-102.331"/>
<polygon fill="#9a32cd" stroke="#9a32cd" points="591.177,-13.5484 580.618,-14.4201 589.416,-20.3233 591.177,-13.5484"/>
<text text-anchor="middle" x="673" y="-72" font-family="Arial" font-size="10.00"> form</text>
</g>
<!-- Node29 -->
<g id="node29" class="node"><title>Node29</title>
<g id="a_node29"><a xlink:href="struct_form_data.html" target="_top" xlink:title="FormData">
<polygon fill="white" stroke="black" points="332.5,-23.5 332.5,-42.5 391.5,-42.5 391.5,-23.5 332.5,-23.5"/>
<text text-anchor="middle" x="362" y="-30.5" font-family="Arial" font-size="10.00">FormData</text>
</a>
</g>
</g>
<!-- Node29&#45;&gt;Node27 -->
<g id="edge44" class="edge"><title>Node29&#45;&gt;Node27</title>
<path fill="none" stroke="#9a32cd" stroke-dasharray="5,2" d="M401.959,-40.5291C452.25,-50.1552 542.512,-67.1167 620,-80 680.879,-90.1219 753.193,-100.478 787.313,-105.265"/>
<polygon fill="#9a32cd" stroke="#9a32cd" points="402.334,-37.0372 391.853,-38.5905 401.015,-43.9119 402.334,-37.0372"/>
<text text-anchor="middle" x="561" y="-80" font-family="Arial" font-size="10.00"> sendit</text>
</g>
<!-- Node29&#45;&gt;Node28 -->
<g id="edge42" class="edge"><title>Node29&#45;&gt;Node28</title>
<path fill="none" stroke="#9a32cd" stroke-dasharray="5,2" d="M401.823,-28.4673C443.977,-23.5458 509.533,-15.8921 541.378,-12.1741"/>
<polygon fill="#9a32cd" stroke="#9a32cd" points="401.172,-25.0195 391.645,-29.6556 401.984,-31.9723 401.172,-25.0195"/>
<text text-anchor="middle" x="462" y="-29" font-family="Arial" font-size="10.00"> data</text>
</g>
<!-- Node29&#45;&gt;Node29 -->
<g id="edge43" class="edge"><title>Node29&#45;&gt;Node29</title>
<path fill="none" stroke="#9a32cd" stroke-dasharray="5,2" d="M344.964,-52.4C346.102,-57.3146 351.78,-61 362,-61 378.352,-61 383.078,-51.5653 376.18,-42.7571"/>
<polygon fill="#9a32cd" stroke="#9a32cd" points="348.336,-53.3393 347.82,-42.7571 341.624,-51.3512 348.336,-53.3393"/>
<text text-anchor="middle" x="362" y="-64" font-family="Arial" font-size="10.00"> next</text>
</g>
<!-- Node30 -->
<g id="node30" class="node"><title>Node30</title>
<g id="a_node30"><a xlink:href="struct_h_t_t_p_1_1back.html" target="_top" xlink:title="HTTP::back">
<polygon fill="white" stroke="black" points="527,-161.5 527,-180.5 595,-180.5 595,-161.5 527,-161.5"/>
<text text-anchor="middle" x="561" y="-168.5" font-family="Arial" font-size="10.00">HTTP::back</text>
</a>
</g>
</g>
<!-- Node30&#45;&gt;Node27 -->
<g id="edge45" class="edge"><title>Node30&#45;&gt;Node27</title>
<path fill="none" stroke="#9a32cd" stroke-dasharray="5,2" d="M605.359,-169.409C639.521,-166.75 687.621,-159.829 726,-142 735.444,-137.613 734.83,-131.936 744,-127 757.681,-119.636 774.606,-114.734 787.467,-111.756"/>
<polygon fill="#9a32cd" stroke="#9a32cd" points="604.968,-165.928 595.231,-170.105 605.448,-172.911 604.968,-165.928"/>
<text text-anchor="middle" x="673" y="-171" font-family="Arial" font-size="10.00"> backup</text>
</g>
<!-- Node31 -->
<g id="node31" class="node"><title>Node31</title>
<g id="a_node31"><a xlink:href="struct_curl__chunker.html" target="_top" xlink:title="Curl_chunker">
<polygon fill="white" stroke="black" points="524,-123.5 524,-142.5 598,-142.5 598,-123.5 524,-123.5"/>
<text text-anchor="middle" x="561" y="-130.5" font-family="Arial" font-size="10.00">Curl_chunker</text>
</a>
</g>
</g>
<!-- Node31&#45;&gt;Node27 -->
<g id="edge46" class="edge"><title>Node31&#45;&gt;Node27</title>
<path fill="none" stroke="#9a32cd" stroke-dasharray="5,2" d="M608.128,-128.293C661.949,-122.801 748.494,-113.97 787.19,-110.021"/>
<polygon fill="#9a32cd" stroke="#9a32cd" points="607.744,-124.814 598.151,-129.311 608.454,-131.778 607.744,-124.814"/>
<text text-anchor="middle" x="673" y="-130" font-family="Arial" font-size="10.00"> chunk</text>
</g>
<!-- Node32 -->
<g id="node32" class="node"><title>Node32</title>
<g id="a_node32"><a xlink:href="struct_connect_bits.html" target="_top" xlink:title="ConnectBits">
<polygon fill="white" stroke="black" points="773,-508.5 773,-527.5 843,-527.5 843,-508.5 773,-508.5"/>
<text text-anchor="middle" x="808" y="-515.5" font-family="Arial" font-size="10.00">ConnectBits</text>
</a>
</g>
</g>
<!-- Node32&#45;&gt;Node6 -->
<g id="edge49" class="edge"><title>Node32&#45;&gt;Node6</title>
<path fill="none" stroke="#9a32cd" stroke-dasharray="5,2" d="M853.424,-508.476C902.319,-497.863 974.753,-481.703 980,-478 992.087,-469.469 989.197,-461.89 998,-450 1007.72,-436.873 1020.07,-422.663 1028.25,-413.564"/>
<polygon fill="#9a32cd" stroke="#9a32cd" points="852.414,-505.113 843.381,-510.65 853.895,-511.955 852.414,-505.113"/>
<text text-anchor="middle" x="935" y="-504" font-family="Arial" font-size="10.00"> bits</text>
</g>
<!-- Node33 -->
<g id="node33" class="node"><title>Node33</title>
<g id="a_node33"><a xlink:href="struct_f_i_l_e_p_r_o_t_o.html" target="_top" xlink:title="FILEPROTO">
<polygon fill="white" stroke="black" points="772.5,-470.5 772.5,-489.5 843.5,-489.5 843.5,-470.5 772.5,-470.5"/>
<text text-anchor="middle" x="808" y="-477.5" font-family="Arial" font-size="10.00">FILEPROTO</text>
</a>
</g>
</g>
<!-- Node33&#45;&gt;Node6 -->
<g id="edge50" class="edge"><title>Node33&#45;&gt;Node6</title>
<path fill="none" stroke="#9a32cd" stroke-dasharray="5,2" d="M853.585,-472.71C896.384,-465.337 957.716,-453.677 980,-444 997.52,-436.391 1015.13,-422.938 1026.04,-413.752"/>
<polygon fill="#9a32cd" stroke="#9a32cd" points="852.949,-469.268 843.679,-474.398 854.125,-476.169 852.949,-469.268"/>
<text text-anchor="middle" x="935" y="-470" font-family="Arial" font-size="10.00"> file</text>
</g>
<!-- Node34 -->
<g id="node34" class="node"><title>Node34</title>
<g id="a_node34"><a xlink:href="struct_f_t_p.html" target="_top" xlink:title="FTP">
<polygon fill="white" stroke="black" points="790.5,-394.5 790.5,-413.5 825.5,-413.5 825.5,-394.5 790.5,-394.5"/>
<text text-anchor="middle" x="808" y="-401.5" font-family="Arial" font-size="10.00">FTP</text>
</a>
</g>
</g>
<!-- Node34&#45;&gt;Node6 -->
<g id="edge51" class="edge"><title>Node34&#45;&gt;Node6</title>
<path fill="none" stroke="#9a32cd" stroke-dasharray="5,2" d="M835.944,-404C877.516,-404 957.246,-404 1002.82,-404"/>
<polygon fill="#9a32cd" stroke="#9a32cd" points="835.765,-400.5 825.765,-404 835.765,-407.5 835.765,-400.5"/>
<text text-anchor="middle" x="935" y="-407" font-family="Arial" font-size="10.00"> ftp</text>
</g>
<!-- Node35 -->
<g id="node35" class="node"><title>Node35</title>
<g id="a_node35"><a xlink:href="structssl__connect__data.html" target="_top" xlink:title="ssl_connect_data">
<polygon fill="white" stroke="black" points="761.5,-546.5 761.5,-565.5 854.5,-565.5 854.5,-546.5 761.5,-546.5"/>
<text text-anchor="middle" x="808" y="-553.5" font-family="Arial" font-size="10.00">ssl_connect_data</text>
</a>
</g>
</g>
<!-- Node35&#45;&gt;Node6 -->
<g id="edge52" class="edge"><title>Node35&#45;&gt;Node6</title>
<path fill="none" stroke="#9a32cd" stroke-dasharray="5,2" d="M855.397,-543.942C866.716,-541.008 878.792,-537.885 890,-535 929.982,-524.708 950.338,-540.717 980,-512 1000.61,-492.042 984.423,-475.278 998,-450 1005.53,-435.98 1017.87,-422.392 1026.65,-413.665"/>
<polygon fill="#9a32cd" stroke="#9a32cd" points="854.487,-540.562 845.686,-546.46 856.245,-547.337 854.487,-540.562"/>
<text text-anchor="middle" x="935" y="-538" font-family="Arial" font-size="10.00"> ssl</text>
</g>
<!-- Node36 -->
<g id="node36" class="node"><title>Node36</title>
<g id="a_node36"><a xlink:href="struct_curl__message.html" target="_top" xlink:title="Curl_message">
<polygon fill="white" stroke="black" points="998.5,-82.5 998.5,-101.5 1077.5,-101.5 1077.5,-82.5 998.5,-82.5"/>
<text text-anchor="middle" x="1038" y="-89.5" font-family="Arial" font-size="10.00">Curl_message</text>
</a>
</g>
</g>
<!-- Node36&#45;&gt;Node5 -->
<g id="edge54" class="edge"><title>Node36&#45;&gt;Node5</title>
<path fill="none" stroke="#9a32cd" stroke-dasharray="5,2" d="M1048.34,-110.51C1079.33,-171.938 1178.12,-367.742 1201.16,-413.412"/>
<polygon fill="#9a32cd" stroke="#9a32cd" points="1051.45,-108.901 1043.82,-101.549 1045.2,-112.054 1051.45,-108.901"/>
<text text-anchor="middle" x="1122" y="-310" font-family="Arial" font-size="10.00"> msg</text>
</g>
<!-- Node36&#45;&gt;Node36 -->
<g id="edge56" class="edge"><title>Node36&#45;&gt;Node36</title>
<path fill="none" stroke="#9a32cd" stroke-dasharray="5,2" d="M1022.53,-111.766C1023.75,-116.497 1028.9,-120 1038,-120 1052.93,-120 1057.25,-110.565 1050.95,-101.757"/>
<polygon fill="#9a32cd" stroke="#9a32cd" points="1026,-112.309 1025.05,-101.757 1019.22,-110.599 1026,-112.309"/>
<text text-anchor="middle" x="1038" y="-123" font-family="Arial" font-size="10.00"> next</text>
</g>
<!-- Node37 -->
<g id="node37" class="node"><title>Node37</title>
<g id="a_node37"><a xlink:href="struct_c_u_r_l_msg.html" target="_top" xlink:title="CURLMsg">
<polygon fill="white" stroke="black" points="777.5,-13.5 777.5,-32.5 838.5,-32.5 838.5,-13.5 777.5,-13.5"/>
<text text-anchor="middle" x="808" y="-20.5" font-family="Arial" font-size="10.00">CURLMsg</text>
</a>
</g>
</g>
<!-- Node37&#45;&gt;Node36 -->
<g id="edge55" class="edge"><title>Node37&#45;&gt;Node36</title>
<path fill="none" stroke="#9a32cd" stroke-dasharray="5,2" d="M848.717,-22.7575C884.416,-23.8696 937.598,-28.8792 980,-47 999.246,-55.2247 1017.5,-71.7042 1027.95,-82.2748"/>
<polygon fill="#9a32cd" stroke="#9a32cd" points="848.759,-19.2577 838.683,-22.5333 848.602,-26.256 848.759,-19.2577"/>
<text text-anchor="middle" x="935" y="-50" font-family="Arial" font-size="10.00"> extmsg</text>
</g>
</g>
</svg>
