<?xml version="1.0" encoding="UTF-8" standalone="no"?>
<!DOCTYPE svg PUBLIC "-//W3C//DTD SVG 1.1//EN"
 "http://www.w3.org/Graphics/SVG/1.1/DTD/svg11.dtd">
<!-- Generated by graphviz version 2.34.0 (20130907.0111)
 -->
<!-- Title: commandDef_s Pages: 1 -->
<svg width="132pt" height="106pt"
 viewBox="0.00 0.00 132.00 106.00" xmlns="http://www.w3.org/2000/svg" xmlns:xlink="http://www.w3.org/1999/xlink">
<g id="graph0" class="graph" transform="scale(1 1) rotate(0) translate(4 102)">
<title>commandDef_s</title>
<polygon fill="white" stroke="white" points="-4,4 -4,-102 128,-102 128,4 -4,4"/>
<!-- Node1 -->
<g id="node1" class="node"><title>Node1</title>
<polygon fill="#bfbfbf" stroke="black" points="0,-0.5 0,-19.5 84,-19.5 84,-0.5 0,-0.5"/>
<text text-anchor="middle" x="42" y="-7.5" font-family="Arial" font-size="10.00">commandDef_s</text>
</g>
<!-- Node1&#45;&gt;Node1 -->
<g id="edge2" class="edge"><title>Node1&#45;&gt;Node1</title>
<path fill="none" stroke="#9a32cd" stroke-dasharray="5,2" d="M94.2545,-15.6621C99.0093,-14.485 102,-12.5977 102,-10 102,-5.84375 94.3438,-3.50586 84.0557,-2.98633"/>
<polygon fill="#9a32cd" stroke="#9a32cd" points="93.5091,-12.2302 84.0557,-17.0137 94.4288,-19.1695 93.5091,-12.2302"/>
<text text-anchor="middle" x="113" y="-7.5" font-family="Arial" font-size="10.00"> next</text>
</g>
<!-- Node2 -->
<g id="node2" class="node"><title>Node2</title>
<g id="a_node2"><a xlink:href="classid_cmd_args.html" target="_top" xlink:title="idCmdArgs">
<polygon fill="white" stroke="black" points="9.5,-78.5 9.5,-97.5 74.5,-97.5 74.5,-78.5 9.5,-78.5"/>
<text text-anchor="middle" x="42" y="-85.5" font-family="Arial" font-size="10.00">idCmdArgs</text>
</a>
</g>
</g>
<!-- Node2&#45;&gt;Node1 -->
<g id="edge1" class="edge"><title>Node2&#45;&gt;Node1</title>
<path fill="none" stroke="#9a32cd" stroke-dasharray="5,2" d="M42,-68.2239C42,-52.6974 42,-31.3582 42,-19.6165"/>
<polygon fill="#9a32cd" stroke="#9a32cd" points="38.5001,-68.2818 42,-78.2818 45.5001,-68.2819 38.5001,-68.2818"/>
<text text-anchor="middle" x="73.5" y="-52" font-family="Arial" font-size="10.00"> function</text>
<text text-anchor="middle" x="73.5" y="-41" font-family="Arial" font-size="10.00">argCompletion</text>
</g>
</g>
</svg>
