<?xml version="1.0" encoding="UTF-8" standalone="no"?>
<!DOCTYPE svg PUBLIC "-//W3C//DTD SVG 1.1//EN"
 "http://www.w3.org/Graphics/SVG/1.1/DTD/svg11.dtd">
<!-- Generated by graphviz version 2.34.0 (20130907.0111)
 -->
<!-- Title: renderLight_s Pages: 1 -->
<svg width="405pt" height="298pt"
 viewBox="0.00 0.00 405.00 298.00" xmlns="http://www.w3.org/2000/svg" xmlns:xlink="http://www.w3.org/1999/xlink">
<g id="graph0" class="graph" transform="scale(1 1) rotate(0) translate(4 294)">
<title>renderLight_s</title>
<polygon fill="white" stroke="white" points="-4,4 -4,-294 401,-294 401,4 -4,4"/>
<!-- Node1 -->
<g id="node1" class="node"><title>Node1</title>
<polygon fill="#bfbfbf" stroke="black" points="167.5,-0.5 167.5,-19.5 242.5,-19.5 242.5,-0.5 167.5,-0.5"/>
<text text-anchor="middle" x="205" y="-7.5" font-family="Arial" font-size="10.00">renderLight_s</text>
</g>
<!-- Node2 -->
<g id="node2" class="node"><title>Node2</title>
<g id="a_node2"><a xlink:href="classid_mat3.html" target="_top" xlink:title="idMat3">
<polygon fill="white" stroke="black" points="0,-144.5 0,-163.5 46,-163.5 46,-144.5 0,-144.5"/>
<text text-anchor="middle" x="23" y="-151.5" font-family="Arial" font-size="10.00">idMat3</text>
</a>
</g>
</g>
<!-- Node2&#45;&gt;Node1 -->
<g id="edge1" class="edge"><title>Node2&#45;&gt;Node1</title>
<path fill="none" stroke="#9a32cd" stroke-dasharray="5,2" d="M26.7013,-134.514C32.8661,-108.747 47.7791,-62.4499 79,-38 104.099,-18.3444 140.297,-12.2051 167.46,-10.6249"/>
<polygon fill="#9a32cd" stroke="#9a32cd" points="23.2419,-133.95 24.5147,-144.468 30.0789,-135.452 23.2419,-133.95"/>
<text text-anchor="middle" x="90" y="-79.5" font-family="Arial" font-size="10.00"> axis</text>
</g>
<!-- Node3 -->
<g id="node3" class="node"><title>Node3</title>
<g id="a_node3"><a xlink:href="classid_sound_emitter.html" target="_top" xlink:title="idSoundEmitter">
<polygon fill="white" stroke="black" points="64.5,-144.5 64.5,-163.5 147.5,-163.5 147.5,-144.5 64.5,-144.5"/>
<text text-anchor="middle" x="106" y="-151.5" font-family="Arial" font-size="10.00">idSoundEmitter</text>
</a>
</g>
</g>
<!-- Node3&#45;&gt;Node1 -->
<g id="edge2" class="edge"><title>Node3&#45;&gt;Node1</title>
<path fill="none" stroke="#9a32cd" stroke-dasharray="5,2" d="M104.866,-133.943C104.432,-108.911 107.458,-64.9778 131,-38 140.262,-27.3869 154.05,-20.9433 167.222,-17.032"/>
<polygon fill="#9a32cd" stroke="#9a32cd" points="101.381,-134.414 105.264,-144.272 108.376,-134.144 101.381,-134.414"/>
<text text-anchor="middle" x="166.5" y="-79.5" font-family="Arial" font-size="10.00"> referenceSound</text>
</g>
<!-- Node4 -->
<g id="node4" class="node"><title>Node4</title>
<g id="a_node4"><a xlink:href="classid_render_model.html" target="_top" xlink:title="idRenderModel">
<polygon fill="white" stroke="black" points="165.5,-144.5 165.5,-163.5 246.5,-163.5 246.5,-144.5 165.5,-144.5"/>
<text text-anchor="middle" x="206" y="-151.5" font-family="Arial" font-size="10.00">idRenderModel</text>
</a>
</g>
</g>
<!-- Node4&#45;&gt;Node1 -->
<g id="edge3" class="edge"><title>Node4&#45;&gt;Node1</title>
<path fill="none" stroke="#9a32cd" stroke-dasharray="5,2" d="M205.867,-134.107C205.647,-102.929 205.218,-41.926 205.06,-19.5184"/>
<polygon fill="#9a32cd" stroke="#9a32cd" points="202.367,-134.142 205.937,-144.117 209.367,-134.093 202.367,-134.142"/>
<text text-anchor="middle" x="236.5" y="-79.5" font-family="Arial" font-size="10.00"> prelightModel</text>
</g>
<!-- Node5 -->
<g id="node5" class="node"><title>Node5</title>
<g id="a_node5"><a xlink:href="classid_vec3.html" target="_top" xlink:title="idVec3">
<polygon fill="white" stroke="black" points="265.5,-144.5 265.5,-163.5 312.5,-163.5 312.5,-144.5 265.5,-144.5"/>
<text text-anchor="middle" x="289" y="-151.5" font-family="Arial" font-size="10.00">idVec3</text>
</a>
</g>
</g>
<!-- Node5&#45;&gt;Node1 -->
<g id="edge4" class="edge"><title>Node5&#45;&gt;Node1</title>
<path fill="none" stroke="#9a32cd" stroke-dasharray="5,2" d="M287.517,-134.148C284.914,-105.447 278.66,-52.5809 267,-38 260.181,-29.4728 250.134,-23.5779 240.104,-19.5281"/>
<polygon fill="#9a32cd" stroke="#9a32cd" points="284.059,-134.802 288.389,-144.472 291.035,-134.213 284.059,-134.802"/>
<text text-anchor="middle" x="312" y="-118" font-family="Arial" font-size="10.00"> lightCenter</text>
<text text-anchor="middle" x="312" y="-107" font-family="Arial" font-size="10.00">target</text>
<text text-anchor="middle" x="312" y="-96" font-family="Arial" font-size="10.00">right</text>
<text text-anchor="middle" x="312" y="-85" font-family="Arial" font-size="10.00">end</text>
<text text-anchor="middle" x="312" y="-74" font-family="Arial" font-size="10.00">lightRadius</text>
<text text-anchor="middle" x="312" y="-63" font-family="Arial" font-size="10.00">origin</text>
<text text-anchor="middle" x="312" y="-52" font-family="Arial" font-size="10.00">up</text>
<text text-anchor="middle" x="312" y="-41" font-family="Arial" font-size="10.00">start</text>
</g>
<!-- Node6 -->
<g id="node6" class="node"><title>Node6</title>
<g id="a_node6"><a xlink:href="classid_material.html" target="_top" xlink:title="idMaterial">
<polygon fill="white" stroke="black" points="332.5,-144.5 332.5,-163.5 391.5,-163.5 391.5,-144.5 332.5,-144.5"/>
<text text-anchor="middle" x="362" y="-151.5" font-family="Arial" font-size="10.00">idMaterial</text>
</a>
</g>
</g>
<!-- Node6&#45;&gt;Node1 -->
<g id="edge5" class="edge"><title>Node6&#45;&gt;Node1</title>
<path fill="none" stroke="#9a32cd" stroke-dasharray="5,2" d="M364.249,-134.163C366.152,-108.695 365.321,-63.534 340,-38 326.62,-24.5075 277.783,-17.3598 242.695,-13.8803"/>
<polygon fill="#9a32cd" stroke="#9a32cd" points="360.744,-134.046 363.26,-144.338 367.711,-134.723 360.744,-134.046"/>
<text text-anchor="middle" x="380.5" y="-79.5" font-family="Arial" font-size="10.00"> shader</text>
</g>
<!-- Node7 -->
<g id="node7" class="node"><title>Node7</title>
<g id="a_node7"><a xlink:href="classid_decl.html" target="_top" xlink:title="idDecl">
<polygon fill="white" stroke="black" points="340,-202.5 340,-221.5 384,-221.5 384,-202.5 340,-202.5"/>
<text text-anchor="middle" x="362" y="-209.5" font-family="Arial" font-size="10.00">idDecl</text>
</a>
</g>
</g>
<!-- Node7&#45;&gt;Node6 -->
<g id="edge6" class="edge"><title>Node7&#45;&gt;Node6</title>
<path fill="none" stroke="midnightblue" d="M362,-191.953C362,-182.287 362,-171.031 362,-163.505"/>
<polygon fill="midnightblue" stroke="midnightblue" points="358.5,-192.25 362,-202.25 365.5,-192.25 358.5,-192.25"/>
</g>
<!-- Node8 -->
<g id="node8" class="node"><title>Node8</title>
<g id="a_node8"><a xlink:href="classid_decl_base.html" target="_top" xlink:title="idDeclBase">
<polygon fill="white" stroke="black" points="329,-270.5 329,-289.5 395,-289.5 395,-270.5 329,-270.5"/>
<text text-anchor="middle" x="362" y="-277.5" font-family="Arial" font-size="10.00">idDeclBase</text>
</a>
</g>
</g>
<!-- Node8&#45;&gt;Node7 -->
<g id="edge7" class="edge"><title>Node8&#45;&gt;Node7</title>
<path fill="none" stroke="#9a32cd" stroke-dasharray="5,2" d="M362,-260.041C362,-247.472 362,-231.563 362,-221.841"/>
<polygon fill="#9a32cd" stroke="#9a32cd" points="358.5,-260.372 362,-270.372 365.5,-260.372 358.5,-260.372"/>
<text text-anchor="middle" x="374.5" y="-243.5" font-family="Arial" font-size="10.00"> base</text>
</g>
</g>
</svg>
