<?xml version="1.0" encoding="UTF-8" standalone="no"?>
<!DOCTYPE svg PUBLIC "-//W3C//DTD SVG 1.1//EN"
 "http://www.w3.org/Graphics/SVG/1.1/DTD/svg11.dtd">
<!-- Generated by graphviz version 2.34.0 (20130907.0111)
 -->
<!-- Title: aasPath_s Pages: 1 -->
<svg width="216pt" height="176pt"
 viewBox="0.00 0.00 216.00 176.00" xmlns="http://www.w3.org/2000/svg" xmlns:xlink="http://www.w3.org/1999/xlink">
<g id="graph0" class="graph" transform="scale(1 1) rotate(0) translate(4 172)">
<title>aasPath_s</title>
<polygon fill="white" stroke="white" points="-4,4 -4,-172 212,-172 212,4 -4,4"/>
<!-- Node1 -->
<g id="node1" class="node"><title>Node1</title>
<polygon fill="#bfbfbf" stroke="black" points="-0.5,-0.5 -0.5,-19.5 62.5,-19.5 62.5,-0.5 -0.5,-0.5"/>
<text text-anchor="middle" x="31" y="-7.5" font-family="Arial" font-size="10.00">aasPath_s</text>
</g>
<!-- Node2 -->
<g id="node2" class="node"><title>Node2</title>
<g id="a_node2"><a xlink:href="classid_reachability.html" target="_top" xlink:title="idReachability">
<polygon fill="white" stroke="black" points="76.5,-69.5 76.5,-88.5 153.5,-88.5 153.5,-69.5 76.5,-69.5"/>
<text text-anchor="middle" x="115" y="-76.5" font-family="Arial" font-size="10.00">idReachability</text>
</a>
</g>
</g>
<!-- Node2&#45;&gt;Node1 -->
<g id="edge1" class="edge"><title>Node2&#45;&gt;Node1</title>
<path fill="none" stroke="#9a32cd" stroke-dasharray="5,2" d="M95.9832,-62.8319C79.2113,-49.4543 55.3739,-30.4411 41.7186,-19.5494"/>
<polygon fill="#9a32cd" stroke="#9a32cd" points="94.0182,-65.7415 104.018,-69.2409 98.3832,-60.2691 94.0182,-65.7415"/>
<text text-anchor="middle" x="104.5" y="-41.5" font-family="Arial" font-size="10.00"> reachability</text>
</g>
<!-- Node2&#45;&gt;Node2 -->
<g id="edge2" class="edge"><title>Node2&#45;&gt;Node2</title>
<path fill="none" stroke="#9a32cd" stroke-dasharray="5,2" d="M163.872,-84.042C168.251,-82.9872 171,-81.3066 171,-79 171,-75.2148 163.597,-73.1153 153.735,-72.7013"/>
<polygon fill="#9a32cd" stroke="#9a32cd" points="163.229,-80.5948 153.735,-85.2987 164.09,-87.5416 163.229,-80.5948"/>
<text text-anchor="middle" x="189.5" y="-82" font-family="Arial" font-size="10.00"> next</text>
<text text-anchor="middle" x="189.5" y="-71" font-family="Arial" font-size="10.00">rev_next</text>
</g>
<!-- Node3 -->
<g id="node3" class="node"><title>Node3</title>
<g id="a_node3"><a xlink:href="classid_vec3.html" target="_top" xlink:title="idVec3">
<polygon fill="white" stroke="black" points="7.5,-148.5 7.5,-167.5 54.5,-167.5 54.5,-148.5 7.5,-148.5"/>
<text text-anchor="middle" x="31" y="-155.5" font-family="Arial" font-size="10.00">idVec3</text>
</a>
</g>
</g>
<!-- Node3&#45;&gt;Node1 -->
<g id="edge4" class="edge"><title>Node3&#45;&gt;Node1</title>
<path fill="none" stroke="#9a32cd" stroke-dasharray="5,2" d="M19.3281,-139.611C8.83159,-121.84 -4.07422,-93.3343 2,-68 6.4008,-49.6452 17.7452,-30.532 24.8705,-19.7618"/>
<polygon fill="#9a32cd" stroke="#9a32cd" points="16.4952,-141.681 24.7757,-148.291 22.4242,-137.96 16.4952,-141.681"/>
<text text-anchor="middle" x="35" y="-82" font-family="Arial" font-size="10.00"> moveGoal</text>
<text text-anchor="middle" x="35" y="-71" font-family="Arial" font-size="10.00">secondaryGoal</text>
</g>
<!-- Node3&#45;&gt;Node2 -->
<g id="edge3" class="edge"><title>Node3&#45;&gt;Node2</title>
<path fill="none" stroke="#9a32cd" stroke-dasharray="5,2" d="M48.0293,-141.39C65.4095,-125.458 91.747,-101.315 105.648,-88.5728"/>
<polygon fill="#9a32cd" stroke="#9a32cd" points="45.3169,-139.128 40.3104,-148.465 50.047,-144.288 45.3169,-139.128"/>
<text text-anchor="middle" x="92" y="-122" font-family="Arial" font-size="10.00"> end</text>
<text text-anchor="middle" x="92" y="-111" font-family="Arial" font-size="10.00">start</text>
</g>
</g>
</svg>
