<?xml version="1.0" encoding="UTF-8" standalone="no"?>
<!DOCTYPE svg PUBLIC "-//W3C//DTD SVG 1.1//EN"
 "http://www.w3.org/Graphics/SVG/1.1/DTD/svg11.dtd">
<!-- Generated by graphviz version 2.34.0 (20130907.0111)
 -->
<!-- Title: pathNode_s Pages: 1 -->
<svg width="128pt" height="119pt"
 viewBox="0.00 0.00 128.00 118.50" xmlns="http://www.w3.org/2000/svg" xmlns:xlink="http://www.w3.org/1999/xlink">
<g id="graph0" class="graph" transform="scale(1 1) rotate(0) translate(4 114.5)">
<title>pathNode_s</title>
<polygon fill="white" stroke="white" points="-4,4 -4,-114.5 124,-114.5 124,4 -4,4"/>
<!-- Node1 -->
<g id="node1" class="node"><title>Node1</title>
<polygon fill="#bfbfbf" stroke="black" points="0,-7 0,-26 68,-26 68,-7 0,-7"/>
<text text-anchor="middle" x="34" y="-14" font-family="Arial" font-size="10.00">pathNode_s</text>
</g>
<!-- Node1&#45;&gt;Node1 -->
<g id="edge1" class="edge"><title>Node1&#45;&gt;Node1</title>
<path fill="none" stroke="#9a32cd" stroke-dasharray="5,2" d="M78.1476,-23.4015C82.9245,-22.0769 86,-19.7764 86,-16.5 86,-11.2578 78.1268,-8.51385 68.0085,-8.26813"/>
<polygon fill="#9a32cd" stroke="#9a32cd" points="77.4681,-19.9606 68.0085,-24.7319 78.3789,-26.9011 77.4681,-19.9606"/>
<text text-anchor="middle" x="103" y="-25" font-family="Arial" font-size="10.00"> next</text>
<text text-anchor="middle" x="103" y="-14" font-family="Arial" font-size="10.00">parent</text>
<text text-anchor="middle" x="103" y="-3" font-family="Arial" font-size="10.00">children</text>
</g>
<!-- Node2 -->
<g id="node2" class="node"><title>Node2</title>
<g id="a_node2"><a xlink:href="classid_vec2.html" target="_top" xlink:title="idVec2">
<polygon fill="white" stroke="black" points="10.5,-91 10.5,-110 57.5,-110 57.5,-91 10.5,-91"/>
<text text-anchor="middle" x="34" y="-98" font-family="Arial" font-size="10.00">idVec2</text>
</a>
</g>
</g>
<!-- Node2&#45;&gt;Node1 -->
<g id="edge2" class="edge"><title>Node2&#45;&gt;Node1</title>
<path fill="none" stroke="#9a32cd" stroke-dasharray="5,2" d="M34,-80.2589C34,-63.1762 34,-38.9984 34,-26.2123"/>
<polygon fill="#9a32cd" stroke="#9a32cd" points="30.5001,-80.7245 34,-90.7246 37.5001,-80.7246 30.5001,-80.7245"/>
<text text-anchor="middle" x="46.5" y="-64.5" font-family="Arial" font-size="10.00"> delta</text>
<text text-anchor="middle" x="46.5" y="-53.5" font-family="Arial" font-size="10.00">pos</text>
</g>
</g>
</svg>
