<?xml version="1.0" encoding="UTF-8" standalone="no"?>
<!DOCTYPE svg PUBLIC "-//W3C//DTD SVG 1.1//EN"
 "http://www.w3.org/Graphics/SVG/1.1/DTD/svg11.dtd">
<!-- Generated by graphviz version 2.34.0 (20130907.0111)
 -->
<!-- Title: backgroundDownload_s Pages: 1 -->
<svg width="246pt" height="164pt"
 viewBox="0.00 0.00 246.00 164.00" xmlns="http://www.w3.org/2000/svg" xmlns:xlink="http://www.w3.org/1999/xlink">
<g id="graph0" class="graph" transform="scale(1 1) rotate(0) translate(4 160)">
<title>backgroundDownload_s</title>
<polygon fill="white" stroke="white" points="-4,4 -4,-160 242,-160 242,4 -4,4"/>
<!-- Node1 -->
<g id="node1" class="node"><title>Node1</title>
<polygon fill="#bfbfbf" stroke="black" points="39.5,-0.5 39.5,-19.5 158.5,-19.5 158.5,-0.5 39.5,-0.5"/>
<text text-anchor="middle" x="99" y="-7.5" font-family="Arial" font-size="10.00">backgroundDownload_s</text>
</g>
<!-- Node1&#45;&gt;Node1 -->
<g id="edge2" class="edge"><title>Node1&#45;&gt;Node1</title>
<path fill="none" stroke="#9a32cd" stroke-dasharray="5,2" d="M168.677,-14.5426C173.239,-13.4856 176,-11.9714 176,-10 176,-6.8457 168.931,-4.86195 158.728,-4.04873"/>
<polygon fill="#9a32cd" stroke="#9a32cd" points="168.138,-11.0838 158.728,-15.9513 169.119,-18.0147 168.138,-11.0838"/>
<text text-anchor="middle" x="187" y="-7.5" font-family="Arial" font-size="10.00"> next</text>
</g>
<!-- Node2 -->
<g id="node2" class="node"><title>Node2</title>
<g id="a_node2"><a xlink:href="classid_file.html" target="_top" xlink:title="idFile">
<polygon fill="white" stroke="black" points="0,-68.5 0,-87.5 40,-87.5 40,-68.5 0,-68.5"/>
<text text-anchor="middle" x="20" y="-75.5" font-family="Arial" font-size="10.00">idFile</text>
</a>
</g>
</g>
<!-- Node2&#45;&gt;Node1 -->
<g id="edge1" class="edge"><title>Node2&#45;&gt;Node1</title>
<path fill="none" stroke="#9a32cd" stroke-dasharray="5,2" d="M38.2726,-61.7343C53.9214,-48.6606 75.8938,-30.3039 88.6696,-19.6305"/>
<polygon fill="#9a32cd" stroke="#9a32cd" points="35.7581,-59.2742 30.3279,-68.3717 40.2461,-64.6462 35.7581,-59.2742"/>
<text text-anchor="middle" x="70" y="-41.5" font-family="Arial" font-size="10.00"> f</text>
</g>
<!-- Node3 -->
<g id="node3" class="node"><title>Node3</title>
<g id="a_node3"><a xlink:href="structfile_download__s.html" target="_top" xlink:title="fileDownload_s">
<polygon fill="white" stroke="black" points="58.5,-68.5 58.5,-87.5 139.5,-87.5 139.5,-68.5 58.5,-68.5"/>
<text text-anchor="middle" x="99" y="-75.5" font-family="Arial" font-size="10.00">fileDownload_s</text>
</a>
</g>
</g>
<!-- Node3&#45;&gt;Node1 -->
<g id="edge3" class="edge"><title>Node3&#45;&gt;Node1</title>
<path fill="none" stroke="#9a32cd" stroke-dasharray="5,2" d="M99,-58.0413C99,-45.4724 99,-29.5631 99,-19.8411"/>
<polygon fill="#9a32cd" stroke="#9a32cd" points="95.5001,-58.3716 99,-68.3717 102.5,-58.3717 95.5001,-58.3716"/>
<text text-anchor="middle" x="107" y="-41.5" font-family="Arial" font-size="10.00"> file</text>
</g>
<!-- Node4 -->
<g id="node4" class="node"><title>Node4</title>
<g id="a_node4"><a xlink:href="structurl_download__s.html" target="_top" xlink:title="urlDownload_s">
<polygon fill="white" stroke="black" points="158,-68.5 158,-87.5 238,-87.5 238,-68.5 158,-68.5"/>
<text text-anchor="middle" x="198" y="-75.5" font-family="Arial" font-size="10.00">urlDownload_s</text>
</a>
</g>
</g>
<!-- Node4&#45;&gt;Node1 -->
<g id="edge4" class="edge"><title>Node4&#45;&gt;Node1</title>
<path fill="none" stroke="#9a32cd" stroke-dasharray="5,2" d="M176.717,-62.8113C157.029,-49.6863 128.401,-30.6004 111.946,-19.6305"/>
<polygon fill="#9a32cd" stroke="#9a32cd" points="174.795,-65.7368 185.057,-68.3717 178.678,-59.9124 174.795,-65.7368"/>
<text text-anchor="middle" x="164" y="-41.5" font-family="Arial" font-size="10.00"> url</text>
</g>
<!-- Node5 -->
<g id="node5" class="node"><title>Node5</title>
<g id="a_node5"><a xlink:href="classid_str.html" target="_top" xlink:title="idStr">
<polygon fill="white" stroke="black" points="179.5,-136.5 179.5,-155.5 216.5,-155.5 216.5,-136.5 179.5,-136.5"/>
<text text-anchor="middle" x="198" y="-143.5" font-family="Arial" font-size="10.00">idStr</text>
</a>
</g>
</g>
<!-- Node5&#45;&gt;Node4 -->
<g id="edge5" class="edge"><title>Node5&#45;&gt;Node4</title>
<path fill="none" stroke="#9a32cd" stroke-dasharray="5,2" d="M198,-126.041C198,-113.472 198,-97.5631 198,-87.8411"/>
<polygon fill="#9a32cd" stroke="#9a32cd" points="194.5,-126.372 198,-136.372 201.5,-126.372 194.5,-126.372"/>
<text text-anchor="middle" x="205" y="-109.5" font-family="Arial" font-size="10.00"> url</text>
</g>
</g>
</svg>
