<?xml version="1.0" encoding="UTF-8" standalone="no"?>
<!DOCTYPE svg PUBLIC "-//W3C//DTD SVG 1.1//EN"
 "http://www.w3.org/Graphics/SVG/1.1/DTD/svg11.dtd">
<!-- Generated by graphviz version 2.34.0 (20130907.0111)
 -->
<!-- Title: aseModel_s Pages: 1 -->
<svg width="241pt" height="108pt"
 viewBox="0.00 0.00 241.00 108.00" xmlns="http://www.w3.org/2000/svg" xmlns:xlink="http://www.w3.org/1999/xlink">
<g id="graph0" class="graph" transform="scale(1 1) rotate(0) translate(4 104)">
<title>aseModel_s</title>
<polygon fill="white" stroke="white" points="-4,4 -4,-104 237,-104 237,4 -4,4"/>
<!-- Node1 -->
<g id="node1" class="node"><title>Node1</title>
<polygon fill="#bfbfbf" stroke="black" points="86.5,-0.5 86.5,-19.5 155.5,-19.5 155.5,-0.5 86.5,-0.5"/>
<text text-anchor="middle" x="121" y="-7.5" font-family="Arial" font-size="10.00">aseModel_s</text>
</g>
<!-- Node2 -->
<g id="node2" class="node"><title>Node2</title>
<g id="a_node2"><a xlink:href="classid_list.html" target="_top" xlink:title="idList\&lt; aseObject_t * \&gt;">
<polygon fill="white" stroke="black" points="-0.5,-74.5 -0.5,-93.5 116.5,-93.5 116.5,-74.5 -0.5,-74.5"/>
<text text-anchor="middle" x="58" y="-81.5" font-family="Arial" font-size="10.00">idList&lt; aseObject_t * &gt;</text>
</a>
</g>
</g>
<!-- Node2&#45;&gt;Node1 -->
<g id="edge1" class="edge"><title>Node2&#45;&gt;Node1</title>
<path fill="none" stroke="#9a32cd" stroke-dasharray="5,2" d="M72.2829,-66.6767C85.0995,-52.0292 103.405,-31.1086 113.535,-19.531"/>
<polygon fill="#9a32cd" stroke="#9a32cd" points="69.4254,-64.6273 65.4743,-74.4579 74.6934,-69.2369 69.4254,-64.6273"/>
<text text-anchor="middle" x="114.5" y="-41.5" font-family="Arial" font-size="10.00"> objects</text>
</g>
<!-- Node3 -->
<g id="node3" class="node"><title>Node3</title>
<g id="a_node3"><a xlink:href="classid_list.html" target="_top" xlink:title="idList\&lt; aseMaterial\l_t * \&gt;">
<polygon fill="white" stroke="black" points="134.5,-69 134.5,-99 233.5,-99 233.5,-69 134.5,-69"/>
<text text-anchor="start" x="142.5" y="-87" font-family="Arial" font-size="10.00">idList&lt; aseMaterial</text>
<text text-anchor="middle" x="184" y="-76" font-family="Arial" font-size="10.00">_t * &gt;</text>
</a>
</g>
</g>
<!-- Node3&#45;&gt;Node1 -->
<g id="edge2" class="edge"><title>Node3&#45;&gt;Node1</title>
<path fill="none" stroke="#9a32cd" stroke-dasharray="5,2" d="M164.798,-61.0551C152.64,-47.1605 137.583,-29.952 128.664,-19.7589"/>
<polygon fill="#9a32cd" stroke="#9a32cd" points="162.334,-63.5541 171.553,-68.7751 167.602,-58.9445 162.334,-63.5541"/>
<text text-anchor="middle" x="175.5" y="-41.5" font-family="Arial" font-size="10.00"> materials</text>
</g>
</g>
</svg>
