<?xml version="1.0" encoding="UTF-8" standalone="no"?>
<!DOCTYPE svg PUBLIC "-//W3C//DTD SVG 1.1//EN"
 "http://www.w3.org/Graphics/SVG/1.1/DTD/svg11.dtd">
<!-- Generated by graphviz version 2.34.0 (20130907.0111)
 -->
<!-- Title: Curl_message Pages: 1 -->
<svg width="126pt" height="96pt"
 viewBox="0.00 0.00 126.00 96.00" xmlns="http://www.w3.org/2000/svg" xmlns:xlink="http://www.w3.org/1999/xlink">
<g id="graph0" class="graph" transform="scale(1 1) rotate(0) translate(4 92)">
<title>Curl_message</title>
<polygon fill="white" stroke="white" points="-4,4 -4,-92 122,-92 122,4 -4,4"/>
<!-- Node1 -->
<g id="node1" class="node"><title>Node1</title>
<polygon fill="#bfbfbf" stroke="black" points="-0.5,-0.5 -0.5,-19.5 78.5,-19.5 78.5,-0.5 -0.5,-0.5"/>
<text text-anchor="middle" x="39" y="-7.5" font-family="Arial" font-size="10.00">Curl_message</text>
</g>
<!-- Node1&#45;&gt;Node1 -->
<g id="edge2" class="edge"><title>Node1&#45;&gt;Node1</title>
<path fill="none" stroke="#9a32cd" stroke-dasharray="5,2" d="M88.8612,-15.0141C93.2507,-13.9577 96,-12.2863 96,-10 96,-6.24805 88.5961,-4.15223 78.6905,-3.71255"/>
<polygon fill="#9a32cd" stroke="#9a32cd" points="88.1782,-11.5722 78.6905,-16.2875 89.0479,-18.518 88.1782,-11.5722"/>
<text text-anchor="middle" x="107" y="-7.5" font-family="Arial" font-size="10.00"> next</text>
</g>
<!-- Node2 -->
<g id="node2" class="node"><title>Node2</title>
<g id="a_node2"><a xlink:href="struct_c_u_r_l_msg.html" target="_top" xlink:title="CURLMsg">
<polygon fill="white" stroke="black" points="8.5,-68.5 8.5,-87.5 69.5,-87.5 69.5,-68.5 8.5,-68.5"/>
<text text-anchor="middle" x="39" y="-75.5" font-family="Arial" font-size="10.00">CURLMsg</text>
</a>
</g>
</g>
<!-- Node2&#45;&gt;Node1 -->
<g id="edge1" class="edge"><title>Node2&#45;&gt;Node1</title>
<path fill="none" stroke="#9a32cd" stroke-dasharray="5,2" d="M39,-58.0413C39,-45.4724 39,-29.5631 39,-19.8411"/>
<polygon fill="#9a32cd" stroke="#9a32cd" points="35.5001,-58.3716 39,-68.3717 42.5001,-58.3717 35.5001,-58.3716"/>
<text text-anchor="middle" x="57" y="-41.5" font-family="Arial" font-size="10.00"> extmsg</text>
</g>
</g>
</svg>
