<?xml version="1.0" encoding="UTF-8" standalone="no"?>
<!DOCTYPE svg PUBLIC "-//W3C//DTD SVG 1.1//EN"
 "http://www.w3.org/Graphics/SVG/1.1/DTD/svg11.dtd">
<!-- Generated by graphviz version 2.34.0 (20130907.0111)
 -->
<!-- Title: camera_t Pages: 1 -->
<svg width="135pt" height="172pt"
 viewBox="0.00 0.00 135.00 172.00" xmlns="http://www.w3.org/2000/svg" xmlns:xlink="http://www.w3.org/1999/xlink">
<g id="graph0" class="graph" transform="scale(1 1) rotate(0) translate(4 168)">
<title>camera_t</title>
<polygon fill="white" stroke="white" points="-4,4 -4,-168 131,-168 131,4 -4,4"/>
<!-- Node1 -->
<g id="node1" class="node"><title>Node1</title>
<polygon fill="#bfbfbf" stroke="black" points="32.5,-0.5 32.5,-19.5 89.5,-19.5 89.5,-0.5 32.5,-0.5"/>
<text text-anchor="middle" x="61" y="-7.5" font-family="Arial" font-size="10.00">camera_t</text>
</g>
<!-- Node2 -->
<g id="node2" class="node"><title>Node2</title>
<g id="a_node2"><a xlink:href="classid_angles.html" target="_top" xlink:title="idAngles">
<polygon fill="white" stroke="black" points="0,-144.5 0,-163.5 54,-163.5 54,-144.5 0,-144.5"/>
<text text-anchor="middle" x="27" y="-151.5" font-family="Arial" font-size="10.00">idAngles</text>
</a>
</g>
</g>
<!-- Node2&#45;&gt;Node1 -->
<g id="edge1" class="edge"><title>Node2&#45;&gt;Node1</title>
<path fill="none" stroke="#9a32cd" stroke-dasharray="5,2" d="M26.7292,-134.034C27.0057,-110.66 29.4961,-70.0993 42,-38 44.5798,-31.3773 49.1182,-24.8356 53.1125,-19.8503"/>
<polygon fill="#9a32cd" stroke="#9a32cd" points="23.2294,-134.289 26.741,-144.285 30.2294,-134.281 23.2294,-134.289"/>
<text text-anchor="middle" x="58" y="-79.5" font-family="Arial" font-size="10.00"> angles</text>
</g>
<!-- Node3 -->
<g id="node3" class="node"><title>Node3</title>
<g id="a_node3"><a xlink:href="classid_vec3.html" target="_top" xlink:title="idVec3">
<polygon fill="white" stroke="black" points="72.5,-144.5 72.5,-163.5 119.5,-163.5 119.5,-144.5 72.5,-144.5"/>
<text text-anchor="middle" x="96" y="-151.5" font-family="Arial" font-size="10.00">idVec3</text>
</a>
</g>
</g>
<!-- Node3&#45;&gt;Node1 -->
<g id="edge2" class="edge"><title>Node3&#45;&gt;Node1</title>
<path fill="none" stroke="#9a32cd" stroke-dasharray="5,2" d="M93.9432,-134.339C91.0591,-111.274 84.903,-71.0256 74,-38 71.9124,-31.6764 68.6624,-24.9264 65.9343,-19.7573"/>
<polygon fill="#9a32cd" stroke="#9a32cd" points="90.4871,-134.918 95.132,-144.441 97.4391,-134.1 90.4871,-134.918"/>
<text text-anchor="middle" x="110" y="-118" font-family="Arial" font-size="10.00"> forward</text>
<text text-anchor="middle" x="110" y="-107" font-family="Arial" font-size="10.00">right</text>
<text text-anchor="middle" x="110" y="-96" font-family="Arial" font-size="10.00">vright</text>
<text text-anchor="middle" x="110" y="-85" font-family="Arial" font-size="10.00">origin</text>
<text text-anchor="middle" x="110" y="-74" font-family="Arial" font-size="10.00">vup</text>
<text text-anchor="middle" x="110" y="-63" font-family="Arial" font-size="10.00">up</text>
<text text-anchor="middle" x="110" y="-52" font-family="Arial" font-size="10.00">vpn</text>
<text text-anchor="middle" x="110" y="-41" font-family="Arial" font-size="10.00">color</text>
</g>
</g>
</svg>
