<?xml version="1.0" encoding="UTF-8" standalone="no"?>
<!DOCTYPE svg PUBLIC "-//W3C//DTD SVG 1.1//EN"
 "http://www.w3.org/Graphics/SVG/1.1/DTD/svg11.dtd">
<!-- Generated by graphviz version 2.34.0 (20130907.0111)
 -->
<!-- Title: entity_s Pages: 1 -->
<svg width="900pt" height="935pt"
 viewBox="0.00 0.00 900.00 935.00" xmlns="http://www.w3.org/2000/svg" xmlns:xlink="http://www.w3.org/1999/xlink">
<g id="graph0" class="graph" transform="scale(1 1) rotate(0) translate(4 931)">
<title>entity_s</title>
<polygon fill="white" stroke="white" points="-4,4 -4,-931 896,-931 896,4 -4,4"/>
<!-- Node1 -->
<g id="node1" class="node"><title>Node1</title>
<polygon fill="#bfbfbf" stroke="black" points="534.5,-174.5 534.5,-193.5 585.5,-193.5 585.5,-174.5 534.5,-174.5"/>
<text text-anchor="middle" x="560" y="-181.5" font-family="Arial" font-size="10.00">entity_s</text>
</g>
<!-- Node1&#45;&gt;Node1 -->
<g id="edge2" class="edge"><title>Node1&#45;&gt;Node1</title>
<path fill="none" stroke="#9a32cd" stroke-dasharray="5,2" d="M546.372,-203.766C547.443,-208.497 551.985,-212 560,-212 573.152,-212 576.954,-202.565 571.406,-193.757"/>
<polygon fill="#9a32cd" stroke="#9a32cd" points="549.844,-204.278 548.594,-193.757 543.01,-202.761 549.844,-204.278"/>
<text text-anchor="middle" x="560" y="-226" font-family="Arial" font-size="10.00"> prev</text>
<text text-anchor="middle" x="560" y="-215" font-family="Arial" font-size="10.00">next</text>
</g>
<!-- Node3 -->
<g id="node3" class="node"><title>Node3</title>
<g id="a_node3"><a xlink:href="structbrush__s.html" target="_top" xlink:title="brush_s">
<polygon fill="white" stroke="black" points="683.5,-388.5 683.5,-407.5 734.5,-407.5 734.5,-388.5 683.5,-388.5"/>
<text text-anchor="middle" x="709" y="-395.5" font-family="Arial" font-size="10.00">brush_s</text>
</a>
</g>
</g>
<!-- Node1&#45;&gt;Node3 -->
<g id="edge15" class="edge"><title>Node1&#45;&gt;Node3</title>
<path fill="none" stroke="#9a32cd" stroke-dasharray="5,2" d="M595.567,-174.627C617.574,-170.869 645.347,-170.518 664,-186 695.889,-212.469 705.487,-350.621 707.536,-388.427"/>
<polygon fill="#9a32cd" stroke="#9a32cd" points="594.723,-171.226 585.604,-176.62 596.096,-178.09 594.723,-171.226"/>
<text text-anchor="middle" x="634" y="-200" font-family="Arial" font-size="10.00"> pUndoOwner</text>
<text text-anchor="middle" x="634" y="-189" font-family="Arial" font-size="10.00">owner</text>
</g>
<!-- Node2 -->
<g id="node2" class="node"><title>Node2</title>
<g id="a_node2"><a xlink:href="classid_mat3.html" target="_top" xlink:title="idMat3">
<polygon fill="white" stroke="black" points="339,-128.5 339,-147.5 385,-147.5 385,-128.5 339,-128.5"/>
<text text-anchor="middle" x="362" y="-135.5" font-family="Arial" font-size="10.00">idMat3</text>
</a>
</g>
</g>
<!-- Node2&#45;&gt;Node1 -->
<g id="edge1" class="edge"><title>Node2&#45;&gt;Node1</title>
<path fill="none" stroke="#9a32cd" stroke-dasharray="5,2" d="M395.317,-134.439C427.192,-132.211 476.707,-132.254 516,-148 530.098,-153.65 542.982,-165.782 550.896,-174.398"/>
<polygon fill="#9a32cd" stroke="#9a32cd" points="394.906,-130.961 385.223,-135.262 395.475,-137.938 394.906,-130.961"/>
<text text-anchor="middle" x="474" y="-162" font-family="Arial" font-size="10.00"> rotation</text>
<text text-anchor="middle" x="474" y="-151" font-family="Arial" font-size="10.00">lightRotation</text>
</g>
<!-- Node3&#45;&gt;Node1 -->
<g id="edge3" class="edge"><title>Node3&#45;&gt;Node1</title>
<path fill="none" stroke="#9a32cd" stroke-dasharray="5,2" d="M707.932,-378.061C706.765,-344.809 699.778,-277.678 664,-237 644.921,-215.308 629.544,-225.494 604,-212 593.76,-206.591 582.831,-199.455 574.554,-193.741"/>
<polygon fill="#9a32cd" stroke="#9a32cd" points="704.438,-378.384 708.14,-388.311 711.436,-378.242 704.438,-378.384"/>
<text text-anchor="middle" x="634" y="-240" font-family="Arial" font-size="10.00"> brushes</text>
</g>
<!-- Node3&#45;&gt;Node3 -->
<g id="edge16" class="edge"><title>Node3&#45;&gt;Node3</title>
<path fill="none" stroke="#9a32cd" stroke-dasharray="5,2" d="M696.477,-417.766C697.461,-422.497 701.635,-426 709,-426 721.086,-426 724.58,-416.565 719.481,-407.757"/>
<polygon fill="#9a32cd" stroke="#9a32cd" points="699.95,-418.255 698.519,-407.757 693.091,-416.856 699.95,-418.255"/>
<text text-anchor="middle" x="709" y="-473" font-family="Arial" font-size="10.00"> prev</text>
<text text-anchor="middle" x="709" y="-462" font-family="Arial" font-size="10.00">next</text>
<text text-anchor="middle" x="709" y="-451" font-family="Arial" font-size="10.00">oprev</text>
<text text-anchor="middle" x="709" y="-440" font-family="Arial" font-size="10.00">onext</text>
<text text-anchor="middle" x="709" y="-429" font-family="Arial" font-size="10.00">list</text>
</g>
<!-- Node16 -->
<g id="node16" class="node"><title>Node16</title>
<g id="a_node16"><a xlink:href="structpatch_mesh__t.html" target="_top" xlink:title="patchMesh_t">
<polygon fill="white" stroke="black" points="818.5,-422.5 818.5,-441.5 891.5,-441.5 891.5,-422.5 818.5,-422.5"/>
<text text-anchor="middle" x="855" y="-429.5" font-family="Arial" font-size="10.00">patchMesh_t</text>
</a>
</g>
</g>
<!-- Node3&#45;&gt;Node16 -->
<g id="edge21" class="edge"><title>Node3&#45;&gt;Node16</title>
<path fill="none" stroke="#9a32cd" stroke-dasharray="5,2" d="M744.306,-407.533C747.577,-408.389 750.848,-409.224 754,-410 775.231,-415.227 799.145,-420.51 818.263,-424.588"/>
<polygon fill="#9a32cd" stroke="#9a32cd" points="745.176,-404.143 734.611,-404.944 743.37,-410.906 745.176,-404.143"/>
<text text-anchor="middle" x="777" y="-423" font-family="Arial" font-size="10.00"> pSymbiot</text>
</g>
<!-- Node4 -->
<g id="node4" class="node"><title>Node4</title>
<g id="a_node4"><a xlink:href="structface__s.html" target="_top" xlink:title="face_s">
<polygon fill="white" stroke="black" points="537.5,-566.5 537.5,-585.5 582.5,-585.5 582.5,-566.5 537.5,-566.5"/>
<text text-anchor="middle" x="560" y="-573.5" font-family="Arial" font-size="10.00">face_s</text>
</a>
</g>
</g>
<!-- Node4&#45;&gt;Node3 -->
<g id="edge4" class="edge"><title>Node4&#45;&gt;Node3</title>
<path fill="none" stroke="#9a32cd" stroke-dasharray="5,2" d="M592.105,-567.262C614.888,-559.383 645.024,-545.653 664,-524 694.849,-488.801 704.41,-430.7 707.07,-407.755"/>
<polygon fill="#9a32cd" stroke="#9a32cd" points="590.957,-563.955 582.534,-570.382 593.126,-570.61 590.957,-563.955"/>
<text text-anchor="middle" x="634" y="-565" font-family="Arial" font-size="10.00"> brush_faces</text>
</g>
<!-- Node4&#45;&gt;Node4 -->
<g id="edge5" class="edge"><title>Node4&#45;&gt;Node4</title>
<path fill="none" stroke="#9a32cd" stroke-dasharray="5,2" d="M546.372,-595.766C547.443,-600.497 551.985,-604 560,-604 573.152,-604 576.954,-594.565 571.406,-585.757"/>
<polygon fill="#9a32cd" stroke="#9a32cd" points="549.844,-596.278 548.594,-585.757 543.01,-594.761 549.844,-596.278"/>
<text text-anchor="middle" x="560" y="-618" font-family="Arial" font-size="10.00"> original</text>
<text text-anchor="middle" x="560" y="-607" font-family="Arial" font-size="10.00">next</text>
</g>
<!-- Node5 -->
<g id="node5" class="node"><title>Node5</title>
<g id="a_node5"><a xlink:href="classid_winding.html" target="_top" xlink:title="idWinding">
<polygon fill="white" stroke="black" points="332.5,-541.5 332.5,-560.5 391.5,-560.5 391.5,-541.5 332.5,-541.5"/>
<text text-anchor="middle" x="362" y="-548.5" font-family="Arial" font-size="10.00">idWinding</text>
</a>
</g>
</g>
<!-- Node5&#45;&gt;Node4 -->
<g id="edge6" class="edge"><title>Node5&#45;&gt;Node4</title>
<path fill="none" stroke="#9a32cd" stroke-dasharray="5,2" d="M401.58,-555.921C442.215,-561.104 504.745,-569.08 537.424,-573.248"/>
<polygon fill="#9a32cd" stroke="#9a32cd" points="401.863,-552.429 391.5,-554.635 400.977,-559.372 401.863,-552.429"/>
<text text-anchor="middle" x="474" y="-572" font-family="Arial" font-size="10.00"> face_winding</text>
</g>
<!-- Node6 -->
<g id="node6" class="node"><title>Node6</title>
<g id="a_node6"><a xlink:href="classid_vec5.html" target="_top" xlink:title="idVec5">
<polygon fill="white" stroke="black" points="148.5,-578.5 148.5,-597.5 195.5,-597.5 195.5,-578.5 148.5,-578.5"/>
<text text-anchor="middle" x="172" y="-585.5" font-family="Arial" font-size="10.00">idVec5</text>
</a>
</g>
</g>
<!-- Node6&#45;&gt;Node5 -->
<g id="edge7" class="edge"><title>Node6&#45;&gt;Node5</title>
<path fill="none" stroke="#9a32cd" stroke-dasharray="5,2" d="M205.825,-582.216C229.752,-577.931 262.933,-571.845 292,-566 305.22,-563.342 319.819,-560.198 332.171,-557.478"/>
<polygon fill="#9a32cd" stroke="#9a32cd" points="205.084,-578.793 195.854,-583.994 206.313,-585.684 205.084,-578.793"/>
<text text-anchor="middle" x="263" y="-579" font-family="Arial" font-size="10.00"> p</text>
</g>
<!-- Node7 -->
<g id="node7" class="node"><title>Node7</title>
<g id="a_node7"><a xlink:href="classbrushprimit__texdef__t.html" target="_top" xlink:title="brushprimit_texdef_t">
<polygon fill="white" stroke="black" points="310,-637.5 310,-656.5 414,-656.5 414,-637.5 310,-637.5"/>
<text text-anchor="middle" x="362" y="-644.5" font-family="Arial" font-size="10.00">brushprimit_texdef_t</text>
</a>
</g>
</g>
<!-- Node7&#45;&gt;Node4 -->
<g id="edge8" class="edge"><title>Node7&#45;&gt;Node4</title>
<path fill="none" stroke="#9a32cd" stroke-dasharray="5,2" d="M398.941,-633.981C439.488,-619.293 504.118,-595.881 537.492,-583.791"/>
<polygon fill="#9a32cd" stroke="#9a32cd" points="397.643,-630.728 389.433,-637.425 400.028,-637.309 397.643,-630.728"/>
<text text-anchor="middle" x="474" y="-622" font-family="Arial" font-size="10.00"> brushprimit_texdef</text>
</g>
<!-- Node8 -->
<g id="node8" class="node"><title>Node8</title>
<g id="a_node8"><a xlink:href="classtexdef__t.html" target="_top" xlink:title="texdef_t">
<polygon fill="white" stroke="black" points="146.5,-447.5 146.5,-466.5 197.5,-466.5 197.5,-447.5 146.5,-447.5"/>
<text text-anchor="middle" x="172" y="-454.5" font-family="Arial" font-size="10.00">texdef_t</text>
</a>
</g>
</g>
<!-- Node8&#45;&gt;Node4 -->
<g id="edge9" class="edge"><title>Node8&#45;&gt;Node4</title>
<path fill="none" stroke="#9a32cd" stroke-dasharray="5,2" d="M207.553,-458.402C254.687,-460.84 341.561,-467.211 414,-483 460.689,-493.177 477.427,-488.794 516,-517 534.007,-530.167 547.579,-553.116 554.302,-566.173"/>
<polygon fill="#9a32cd" stroke="#9a32cd" points="207.724,-454.906 197.565,-457.914 207.382,-461.898 207.724,-454.906"/>
<text text-anchor="middle" x="362" y="-486" font-family="Arial" font-size="10.00"> texdef</text>
</g>
<!-- Node20 -->
<g id="node20" class="node"><title>Node20</title>
<g id="a_node20"><a xlink:href="structeclass__s.html" target="_top" xlink:title="eclass_s">
<polygon fill="white" stroke="black" points="334,-290.5 334,-309.5 390,-309.5 390,-290.5 334,-290.5"/>
<text text-anchor="middle" x="362" y="-297.5" font-family="Arial" font-size="10.00">eclass_s</text>
</a>
</g>
</g>
<!-- Node8&#45;&gt;Node20 -->
<g id="edge30" class="edge"><title>Node8&#45;&gt;Node20</title>
<path fill="none" stroke="#9a32cd" stroke-dasharray="5,2" d="M207.622,-449.371C234.15,-441.825 269.851,-427.723 292,-403 309.162,-383.843 296.207,-369.709 310,-348 319.911,-332.4 336.032,-318.403 347.495,-309.605"/>
<polygon fill="#9a32cd" stroke="#9a32cd" points="206.711,-445.991 197.951,-451.95 208.515,-452.755 206.711,-445.991"/>
<text text-anchor="middle" x="263" y="-442" font-family="Arial" font-size="10.00"> texdef</text>
</g>
<!-- Node9 -->
<g id="node9" class="node"><title>Node9</title>
<g id="a_node9"><a xlink:href="classid_plane.html" target="_top" xlink:title="idPlane">
<polygon fill="white" stroke="black" points="337.5,-675.5 337.5,-694.5 386.5,-694.5 386.5,-675.5 337.5,-675.5"/>
<text text-anchor="middle" x="362" y="-682.5" font-family="Arial" font-size="10.00">idPlane</text>
</a>
</g>
</g>
<!-- Node9&#45;&gt;Node4 -->
<g id="edge10" class="edge"><title>Node9&#45;&gt;Node4</title>
<path fill="none" stroke="#9a32cd" stroke-dasharray="5,2" d="M396.564,-679.869C429.498,-673.52 479.897,-660.174 516,-634 533.861,-621.051 547.488,-598.493 554.26,-585.658"/>
<polygon fill="#9a32cd" stroke="#9a32cd" points="395.739,-676.461 386.526,-681.692 396.99,-683.349 395.739,-676.461"/>
<text text-anchor="middle" x="474" y="-685" font-family="Arial" font-size="10.00"> plane</text>
<text text-anchor="middle" x="474" y="-674" font-family="Arial" font-size="10.00">originalPlane</text>
</g>
<!-- Node10 -->
<g id="node10" class="node"><title>Node10</title>
<g id="a_node10"><a xlink:href="classid_vec3.html" target="_top" xlink:title="idVec3">
<polygon fill="white" stroke="black" points="148.5,-721.5 148.5,-740.5 195.5,-740.5 195.5,-721.5 148.5,-721.5"/>
<text text-anchor="middle" x="172" y="-728.5" font-family="Arial" font-size="10.00">idVec3</text>
</a>
</g>
</g>
<!-- Node10&#45;&gt;Node1 -->
<g id="edge39" class="edge"><title>Node10&#45;&gt;Node1</title>
<path fill="none" stroke="#9a32cd" stroke-dasharray="5,2" d="M187.645,-713.726C211.017,-687.147 259.307,-636.142 310,-606 352.043,-581.002 379.514,-604.688 414,-570 431.539,-552.358 419.047,-538.239 432,-517 459.985,-471.112 491.636,-477.909 516,-430 558.646,-346.139 559.89,-227.692 559.279,-193.549"/>
<polygon fill="#9a32cd" stroke="#9a32cd" points="184.864,-711.591 180.961,-721.441 190.155,-716.175 184.864,-711.591"/>
<text text-anchor="middle" x="362" y="-620" font-family="Arial" font-size="10.00"> origin</text>
<text text-anchor="middle" x="362" y="-609" font-family="Arial" font-size="10.00">lightOrigin</text>
</g>
<!-- Node10&#45;&gt;Node3 -->
<g id="edge18" class="edge"><title>Node10&#45;&gt;Node3</title>
<path fill="none" stroke="#9a32cd" stroke-dasharray="5,2" d="M205.351,-742.651C232.788,-751.879 273.406,-764.019 310,-769 402.953,-781.652 438.635,-776.057 516,-723 592.2,-670.742 618.361,-657.339 664,-577 697.194,-518.567 705.537,-435.549 707.464,-407.601"/>
<polygon fill="#9a32cd" stroke="#9a32cd" points="206.465,-739.333 195.87,-739.401 204.195,-745.955 206.465,-739.333"/>
<text text-anchor="middle" x="474" y="-880" font-family="Arial" font-size="10.00"> lightUp</text>
<text text-anchor="middle" x="474" y="-869" font-family="Arial" font-size="10.00">lightTarget</text>
<text text-anchor="middle" x="474" y="-858" font-family="Arial" font-size="10.00">lightCenter</text>
<text text-anchor="middle" x="474" y="-847" font-family="Arial" font-size="10.00">maxs</text>
<text text-anchor="middle" x="474" y="-836" font-family="Arial" font-size="10.00">lightStart</text>
<text text-anchor="middle" x="474" y="-825" font-family="Arial" font-size="10.00">mins</text>
<text text-anchor="middle" x="474" y="-814" font-family="Arial" font-size="10.00">lightColor</text>
<text text-anchor="middle" x="474" y="-803" font-family="Arial" font-size="10.00">lightEnd</text>
<text text-anchor="middle" x="474" y="-792" font-family="Arial" font-size="10.00">lightRadius</text>
<text text-anchor="middle" x="474" y="-781" font-family="Arial" font-size="10.00">lightOffset</text>
<text text-anchor="middle" x="474" y="-770" font-family="Arial" font-size="10.00">...</text>
</g>
<!-- Node10&#45;&gt;Node4 -->
<g id="edge11" class="edge"><title>Node10&#45;&gt;Node4</title>
<path fill="none" stroke="#9a32cd" stroke-dasharray="5,2" d="M205.994,-732.072C282.364,-733.884 468.405,-734.25 516,-697 551.639,-669.107 557.795,-609.366 558.817,-585.825"/>
<polygon fill="#9a32cd" stroke="#9a32cd" points="206.06,-728.573 195.972,-731.811 205.877,-735.57 206.06,-728.573"/>
<text text-anchor="middle" x="362" y="-757" font-family="Arial" font-size="10.00"> planepts</text>
<text text-anchor="middle" x="362" y="-746" font-family="Arial" font-size="10.00">d_color</text>
<text text-anchor="middle" x="362" y="-735" font-family="Arial" font-size="10.00">orgplanepts</text>
</g>
<!-- Node17 -->
<g id="node17" class="node"><title>Node17</title>
<g id="a_node17"><a xlink:href="classid_draw_vert.html" target="_top" xlink:title="idDrawVert">
<polygon fill="white" stroke="black" points="330,-906.5 330,-925.5 394,-925.5 394,-906.5 330,-906.5"/>
<text text-anchor="middle" x="362" y="-913.5" font-family="Arial" font-size="10.00">idDrawVert</text>
</a>
</g>
</g>
<!-- Node10&#45;&gt;Node17 -->
<g id="edge24" class="edge"><title>Node10&#45;&gt;Node17</title>
<path fill="none" stroke="#9a32cd" stroke-dasharray="5,2" d="M186.197,-748.964C198.033,-764.635 216.226,-787.667 234,-806 272.983,-846.21 324.929,-887.98 348.466,-906.352"/>
<polygon fill="#9a32cd" stroke="#9a32cd" points="188.8,-746.6 180.014,-740.68 183.191,-750.787 188.8,-746.6"/>
<text text-anchor="middle" x="263" y="-884" font-family="Arial" font-size="10.00"> xyz</text>
<text text-anchor="middle" x="263" y="-873" font-family="Arial" font-size="10.00">normal</text>
<text text-anchor="middle" x="263" y="-862" font-family="Arial" font-size="10.00">tangents</text>
</g>
<!-- Node10&#45;&gt;Node20 -->
<g id="edge34" class="edge"><title>Node10&#45;&gt;Node20</title>
<path fill="none" stroke="#9a32cd" stroke-dasharray="5,2" d="M180.273,-712.075C189.387,-687.929 205.128,-644.766 216,-607 225.842,-572.811 218.765,-561.151 234,-529 252.045,-490.921 275.078,-492.591 292,-454 311.19,-410.237 287.429,-390.119 310,-348 318.615,-331.924 334.644,-318.208 346.44,-309.605"/>
<polygon fill="#9a32cd" stroke="#9a32cd" points="176.985,-710.874 176.7,-721.465 183.527,-713.364 176.985,-710.874"/>
<text text-anchor="middle" x="263" y="-554" font-family="Arial" font-size="10.00"> maxs</text>
<text text-anchor="middle" x="263" y="-543" font-family="Arial" font-size="10.00">mins</text>
<text text-anchor="middle" x="263" y="-532" font-family="Arial" font-size="10.00">color</text>
</g>
<!-- Node11 -->
<g id="node11" class="node"><title>Node11</title>
<g id="a_node11"><a xlink:href="classid_material.html" target="_top" xlink:title="idMaterial">
<polygon fill="white" stroke="black" points="332.5,-503.5 332.5,-522.5 391.5,-522.5 391.5,-503.5 332.5,-503.5"/>
<text text-anchor="middle" x="362" y="-510.5" font-family="Arial" font-size="10.00">idMaterial</text>
</a>
</g>
</g>
<!-- Node11&#45;&gt;Node4 -->
<g id="edge12" class="edge"><title>Node11&#45;&gt;Node4</title>
<path fill="none" stroke="#9a32cd" stroke-dasharray="5,2" d="M401.94,-516.607C433.709,-520.602 479.193,-528.765 516,-545 528.125,-550.348 540.215,-559.488 548.473,-566.462"/>
<polygon fill="#9a32cd" stroke="#9a32cd" points="402.064,-513.097 391.724,-515.406 401.247,-520.049 402.064,-513.097"/>
<text text-anchor="middle" x="474" y="-548" font-family="Arial" font-size="10.00"> d_texture</text>
</g>
<!-- Node11&#45;&gt;Node16 -->
<g id="edge26" class="edge"><title>Node11&#45;&gt;Node16</title>
<path fill="none" stroke="#9a32cd" stroke-dasharray="5,2" d="M401.819,-512.535C484.149,-511.234 673.818,-506.489 736,-490 775.716,-479.468 817.919,-455.072 839.476,-441.516"/>
<polygon fill="#9a32cd" stroke="#9a32cd" points="401.578,-509.038 391.631,-512.686 401.682,-516.037 401.578,-509.038"/>
<text text-anchor="middle" x="634" y="-508" font-family="Arial" font-size="10.00"> d_texture</text>
</g>
<!-- Node12 -->
<g id="node12" class="node"><title>Node12</title>
<g id="a_node12"><a xlink:href="classid_decl.html" target="_top" xlink:title="idDecl">
<polygon fill="white" stroke="black" points="150,-540.5 150,-559.5 194,-559.5 194,-540.5 150,-540.5"/>
<text text-anchor="middle" x="172" y="-547.5" font-family="Arial" font-size="10.00">idDecl</text>
</a>
</g>
</g>
<!-- Node12&#45;&gt;Node11 -->
<g id="edge13" class="edge"><title>Node12&#45;&gt;Node11</title>
<path fill="none" stroke="midnightblue" d="M204.146,-550.904C228.488,-550.837 262.948,-549.027 292,-541 300.621,-538.618 301.797,-535.566 310,-532 317.625,-528.685 326.035,-525.403 333.788,-522.525"/>
<polygon fill="midnightblue" stroke="midnightblue" points="204.079,-547.404 194.055,-550.834 204.031,-554.404 204.079,-547.404"/>
</g>
<!-- Node13 -->
<g id="node13" class="node"><title>Node13</title>
<g id="a_node13"><a xlink:href="classid_decl_base.html" target="_top" xlink:title="idDeclBase">
<polygon fill="white" stroke="black" points="0,-540.5 0,-559.5 66,-559.5 66,-540.5 0,-540.5"/>
<text text-anchor="middle" x="33" y="-547.5" font-family="Arial" font-size="10.00">idDeclBase</text>
</a>
</g>
</g>
<!-- Node13&#45;&gt;Node12 -->
<g id="edge14" class="edge"><title>Node13&#45;&gt;Node12</title>
<path fill="none" stroke="#9a32cd" stroke-dasharray="5,2" d="M76.1985,-550C100.566,-550 130.168,-550 149.741,-550"/>
<polygon fill="#9a32cd" stroke="#9a32cd" points="76.1204,-546.5 66.1204,-550 76.1204,-553.5 76.1204,-546.5"/>
<text text-anchor="middle" x="97" y="-553" font-family="Arial" font-size="10.00"> base</text>
</g>
<!-- Node14 -->
<g id="node14" class="node"><title>Node14</title>
<g id="a_node14"><a xlink:href="classid_render_model.html" target="_top" xlink:title="idRenderModel">
<polygon fill="white" stroke="black" points="131.5,-395.5 131.5,-414.5 212.5,-414.5 212.5,-395.5 131.5,-395.5"/>
<text text-anchor="middle" x="172" y="-402.5" font-family="Arial" font-size="10.00">idRenderModel</text>
</a>
</g>
</g>
<!-- Node14&#45;&gt;Node3 -->
<g id="edge17" class="edge"><title>Node14&#45;&gt;Node3</title>
<path fill="none" stroke="#9a32cd" stroke-dasharray="5,2" d="M223.099,-404.344C334.891,-402.882 601.324,-399.396 683.464,-398.321"/>
<polygon fill="#9a32cd" stroke="#9a32cd" points="222.728,-400.849 212.775,-404.48 222.82,-407.848 222.728,-400.849"/>
<text text-anchor="middle" x="474" y="-404" font-family="Arial" font-size="10.00"> modelHandle</text>
</g>
<!-- Node14&#45;&gt;Node20 -->
<g id="edge32" class="edge"><title>Node14&#45;&gt;Node20</title>
<path fill="none" stroke="#9a32cd" stroke-dasharray="5,2" d="M205.408,-391.18C229.753,-380.394 263.639,-364.513 292,-348 312.43,-336.105 334.634,-320.043 348.186,-309.851"/>
<polygon fill="#9a32cd" stroke="#9a32cd" points="203.681,-388.116 195.928,-395.336 206.492,-394.527 203.681,-388.116"/>
<text text-anchor="middle" x="263" y="-391" font-family="Arial" font-size="10.00"> entityModel</text>
<text text-anchor="middle" x="263" y="-380" font-family="Arial" font-size="10.00">modelHandle</text>
</g>
<!-- Node15 -->
<g id="node15" class="node"><title>Node15</title>
<g id="a_node15"><a xlink:href="classid_dict.html" target="_top" xlink:title="idDict">
<polygon fill="white" stroke="black" points="151.5,-176.5 151.5,-195.5 192.5,-195.5 192.5,-176.5 151.5,-176.5"/>
<text text-anchor="middle" x="172" y="-183.5" font-family="Arial" font-size="10.00">idDict</text>
</a>
</g>
</g>
<!-- Node15&#45;&gt;Node1 -->
<g id="edge40" class="edge"><title>Node15&#45;&gt;Node1</title>
<path fill="none" stroke="#9a32cd" stroke-dasharray="5,2" d="M203.112,-185.844C277.031,-185.461 466.343,-184.48 534.273,-184.128"/>
<polygon fill="#9a32cd" stroke="#9a32cd" points="202.654,-182.346 192.672,-185.898 202.691,-189.346 202.654,-182.346"/>
<text text-anchor="middle" x="362" y="-189" font-family="Arial" font-size="10.00"> epairs</text>
</g>
<!-- Node15&#45;&gt;Node3 -->
<g id="edge19" class="edge"><title>Node15&#45;&gt;Node3</title>
<path fill="none" stroke="#9a32cd" stroke-dasharray="5,2" d="M202.945,-192.298C283.807,-209.35 501.491,-255.57 516,-262 592.931,-296.095 670.375,-363.381 697.692,-388.364"/>
<polygon fill="#9a32cd" stroke="#9a32cd" points="203.418,-188.821 192.911,-190.184 201.975,-195.671 203.418,-188.821"/>
<text text-anchor="middle" x="474" y="-265" font-family="Arial" font-size="10.00"> epairs</text>
</g>
<!-- Node15&#45;&gt;Node16 -->
<g id="edge25" class="edge"><title>Node15&#45;&gt;Node16</title>
<path fill="none" stroke="#9a32cd" stroke-dasharray="5,2" d="M189.394,-168.94C220.052,-138.967 289.457,-80 361,-80 361,-80 361,-80 710,-80 786.096,-80 841.901,-365.368 852.263,-422.218"/>
<polygon fill="#9a32cd" stroke="#9a32cd" points="186.717,-166.668 182.13,-176.218 191.671,-171.613 186.717,-166.668"/>
<text text-anchor="middle" x="560" y="-83" font-family="Arial" font-size="10.00"> epairs</text>
</g>
<!-- Node15&#45;&gt;Node20 -->
<g id="edge35" class="edge"><title>Node15&#45;&gt;Node20</title>
<path fill="none" stroke="#9a32cd" stroke-dasharray="5,2" d="M202.009,-199.834C226.531,-211.885 262.308,-230.314 292,-249 312.928,-262.171 335.728,-279.705 349.172,-290.405"/>
<polygon fill="#9a32cd" stroke="#9a32cd" points="203.402,-196.619 192.879,-195.386 200.336,-202.912 203.402,-196.619"/>
<text text-anchor="middle" x="263" y="-263" font-family="Arial" font-size="10.00"> defArgs</text>
<text text-anchor="middle" x="263" y="-252" font-family="Arial" font-size="10.00">args</text>
</g>
<!-- Node16&#45;&gt;Node3 -->
<g id="edge20" class="edge"><title>Node16&#45;&gt;Node3</title>
<path fill="none" stroke="#9a32cd" stroke-dasharray="5,2" d="M834.299,-416.41C824.564,-409.672 812.289,-402.531 800,-399 778.524,-392.828 752.958,-393.24 734.573,-394.805"/>
<polygon fill="#9a32cd" stroke="#9a32cd" points="832.313,-419.294 842.452,-422.37 836.444,-413.643 832.313,-419.294"/>
<text text-anchor="middle" x="777" y="-402" font-family="Arial" font-size="10.00"> pPatch</text>
</g>
<!-- Node17&#45;&gt;Node16 -->
<g id="edge22" class="edge"><title>Node17&#45;&gt;Node16</title>
<path fill="none" stroke="#9a32cd" stroke-dasharray="5,2" d="M404.171,-917.822C436.743,-917.406 482.211,-912.547 516,-892 710.753,-773.572 828.389,-496.637 850.275,-441.606"/>
<polygon fill="#9a32cd" stroke="#9a32cd" points="404.082,-914.322 394.079,-917.815 404.077,-921.322 404.082,-914.322"/>
<text text-anchor="middle" x="634" y="-826" font-family="Arial" font-size="10.00"> verts</text>
</g>
<!-- Node18 -->
<g id="node18" class="node"><title>Node18</title>
<g id="a_node18"><a xlink:href="classid_vec2.html" target="_top" xlink:title="idVec2">
<polygon fill="white" stroke="black" points="148.5,-906.5 148.5,-925.5 195.5,-925.5 195.5,-906.5 148.5,-906.5"/>
<text text-anchor="middle" x="172" y="-913.5" font-family="Arial" font-size="10.00">idVec2</text>
</a>
</g>
</g>
<!-- Node18&#45;&gt;Node17 -->
<g id="edge23" class="edge"><title>Node18&#45;&gt;Node17</title>
<path fill="none" stroke="#9a32cd" stroke-dasharray="5,2" d="M205.827,-916C240.732,-916 295.532,-916 329.803,-916"/>
<polygon fill="#9a32cd" stroke="#9a32cd" points="205.677,-912.5 195.677,-916 205.677,-919.5 205.677,-912.5"/>
<text text-anchor="middle" x="263" y="-919" font-family="Arial" font-size="10.00"> st</text>
</g>
<!-- Node19 -->
<g id="node19" class="node"><title>Node19</title>
<g id="a_node19"><a xlink:href="classid_sound_emitter.html" target="_top" xlink:title="idSoundEmitter">
<polygon fill="white" stroke="black" points="320.5,-357.5 320.5,-376.5 403.5,-376.5 403.5,-357.5 320.5,-357.5"/>
<text text-anchor="middle" x="362" y="-364.5" font-family="Arial" font-size="10.00">idSoundEmitter</text>
</a>
</g>
</g>
<!-- Node19&#45;&gt;Node1 -->
<g id="edge27" class="edge"><title>Node19&#45;&gt;Node1</title>
<path fill="none" stroke="#9a32cd" stroke-dasharray="5,2" d="M401.997,-353.639C406.114,-351.885 410.186,-349.997 414,-348 462.933,-322.379 480.506,-319.32 516,-277 537.947,-250.832 551.161,-211.603 556.396,-193.625"/>
<polygon fill="#9a32cd" stroke="#9a32cd" points="400.39,-350.513 392.409,-357.48 402.993,-357.011 400.39,-350.513"/>
<text text-anchor="middle" x="474" y="-341" font-family="Arial" font-size="10.00"> soundEmitter</text>
</g>
<!-- Node20&#45;&gt;Node1 -->
<g id="edge28" class="edge"><title>Node20&#45;&gt;Node1</title>
<path fill="none" stroke="#9a32cd" stroke-dasharray="5,2" d="M373.671,-281.681C385.552,-262.905 406.482,-234.228 432,-218 434.203,-216.599 498.154,-199.827 534.446,-190.376"/>
<polygon fill="#9a32cd" stroke="#9a32cd" points="370.668,-279.883 368.446,-290.242 376.643,-283.53 370.668,-279.883"/>
<text text-anchor="middle" x="474" y="-232" font-family="Arial" font-size="10.00"> md3Class</text>
<text text-anchor="middle" x="474" y="-221" font-family="Arial" font-size="10.00">eclass</text>
</g>
<!-- Node20&#45;&gt;Node20 -->
<g id="edge33" class="edge"><title>Node20&#45;&gt;Node20</title>
<path fill="none" stroke="#9a32cd" stroke-dasharray="5,2" d="M343.853,-319.4C345.065,-324.315 351.114,-328 362,-328 379.418,-328 384.453,-318.565 377.105,-309.757"/>
<polygon fill="#9a32cd" stroke="#9a32cd" points="347.224,-320.347 346.895,-309.757 340.548,-318.24 347.224,-320.347"/>
<text text-anchor="middle" x="362" y="-331" font-family="Arial" font-size="10.00"> next</text>
</g>
<!-- Node21 -->
<g id="node21" class="node"><title>Node21</title>
<g id="a_node21"><a xlink:href="classid_str.html" target="_top" xlink:title="idStr">
<polygon fill="white" stroke="black" points="153.5,-267.5 153.5,-286.5 190.5,-286.5 190.5,-267.5 153.5,-267.5"/>
<text text-anchor="middle" x="172" y="-274.5" font-family="Arial" font-size="10.00">idStr</text>
</a>
</g>
</g>
<!-- Node21&#45;&gt;Node20 -->
<g id="edge29" class="edge"><title>Node21&#45;&gt;Node20</title>
<path fill="none" stroke="#9a32cd" stroke-dasharray="5,2" d="M201.141,-274.878C225.379,-273.611 261.216,-273.079 292,-278 307.395,-280.461 324.065,-285.7 337.163,-290.448"/>
<polygon fill="#9a32cd" stroke="#9a32cd" points="200.652,-271.401 190.88,-275.495 201.072,-278.389 200.652,-271.401"/>
<text text-anchor="middle" x="263" y="-314" font-family="Arial" font-size="10.00"> desc</text>
<text text-anchor="middle" x="263" y="-303" font-family="Arial" font-size="10.00">defMaterial</text>
<text text-anchor="middle" x="263" y="-292" font-family="Arial" font-size="10.00">name</text>
<text text-anchor="middle" x="263" y="-281" font-family="Arial" font-size="10.00">comments</text>
</g>
<!-- Node22 -->
<g id="node22" class="node"><title>Node22</title>
<g id="a_node22"><a xlink:href="classid_list.html" target="_top" xlink:title="idList\&lt; evar_s \&gt;">
<polygon fill="white" stroke="black" points="129,-334.5 129,-353.5 215,-353.5 215,-334.5 129,-334.5"/>
<text text-anchor="middle" x="172" y="-341.5" font-family="Arial" font-size="10.00">idList&lt; evar_s &gt;</text>
</a>
</g>
</g>
<!-- Node22&#45;&gt;Node20 -->
<g id="edge31" class="edge"><title>Node22&#45;&gt;Node20</title>
<path fill="none" stroke="#9a32cd" stroke-dasharray="5,2" d="M225.108,-335.83C246.028,-332.171 270.284,-327.446 292,-322 305.903,-318.513 321.107,-313.769 333.695,-309.579"/>
<polygon fill="#9a32cd" stroke="#9a32cd" points="224.398,-332.401 215.133,-337.539 225.58,-339.3 224.398,-332.401"/>
<text text-anchor="middle" x="263" y="-336" font-family="Arial" font-size="10.00"> vars</text>
</g>
<!-- Node23 -->
<g id="node23" class="node"><title>Node23</title>
<g id="a_node23"><a xlink:href="classid_curve.html" target="_top" xlink:title="idCurve\&lt; idVec3 \&gt;">
<polygon fill="white" stroke="black" points="314,-32.5 314,-51.5 410,-51.5 410,-32.5 314,-32.5"/>
<text text-anchor="middle" x="362" y="-39.5" font-family="Arial" font-size="10.00">idCurve&lt; idVec3 &gt;</text>
</a>
</g>
</g>
<!-- Node23&#45;&gt;Node1 -->
<g id="edge36" class="edge"><title>Node23&#45;&gt;Node1</title>
<path fill="none" stroke="#9a32cd" stroke-dasharray="5,2" d="M402.232,-55.2122C435.299,-67.7796 482.454,-89.2014 516,-119 534.209,-135.174 548.07,-160.739 554.695,-174.492"/>
<polygon fill="#9a32cd" stroke="#9a32cd" points="403.046,-51.7817 392.453,-51.5968 400.619,-58.3474 403.046,-51.7817"/>
<text text-anchor="middle" x="474" y="-122" font-family="Arial" font-size="10.00"> curve</text>
</g>
<!-- Node24 -->
<g id="node24" class="node"><title>Node24</title>
<g id="a_node24"><a xlink:href="classid_list.html" target="_top" xlink:title="idList\&lt; float \&gt;">
<polygon fill="white" stroke="black" points="134,-0.5 134,-19.5 210,-19.5 210,-0.5 134,-0.5"/>
<text text-anchor="middle" x="172" y="-7.5" font-family="Arial" font-size="10.00">idList&lt; float &gt;</text>
</a>
</g>
</g>
<!-- Node24&#45;&gt;Node23 -->
<g id="edge37" class="edge"><title>Node24&#45;&gt;Node23</title>
<path fill="none" stroke="#9a32cd" stroke-dasharray="5,2" d="M220.273,-17.8818C242.11,-21.5387 268.38,-25.9612 292,-30 299.071,-31.2091 306.548,-32.4983 313.868,-33.7664"/>
<polygon fill="#9a32cd" stroke="#9a32cd" points="220.701,-14.4047 210.26,-16.2064 219.546,-21.3087 220.701,-14.4047"/>
<text text-anchor="middle" x="263" y="-33" font-family="Arial" font-size="10.00"> times</text>
</g>
<!-- Node25 -->
<g id="node25" class="node"><title>Node25</title>
<g id="a_node25"><a xlink:href="classid_list.html" target="_top" xlink:title="idList\&lt; idVec3 \&gt;">
<polygon fill="white" stroke="black" points="128,-38.5 128,-57.5 216,-57.5 216,-38.5 128,-38.5"/>
<text text-anchor="middle" x="172" y="-45.5" font-family="Arial" font-size="10.00">idList&lt; idVec3 &gt;</text>
</a>
</g>
</g>
<!-- Node25&#45;&gt;Node23 -->
<g id="edge38" class="edge"><title>Node25&#45;&gt;Node23</title>
<path fill="none" stroke="#9a32cd" stroke-dasharray="5,2" d="M226.375,-46.2965C253.907,-45.4178 287.197,-44.3554 313.784,-43.5069"/>
<polygon fill="#9a32cd" stroke="#9a32cd" points="226.014,-42.8062 216.131,-46.6235 226.238,-49.8026 226.014,-42.8062"/>
<text text-anchor="middle" x="263" y="-49" font-family="Arial" font-size="10.00"> values</text>
</g>
</g>
</svg>
