<?xml version="1.0" encoding="UTF-8" standalone="no"?>
<!DOCTYPE svg PUBLIC "-//W3C//DTD SVG 1.1//EN"
 "http://www.w3.org/Graphics/SVG/1.1/DTD/svg11.dtd">
<!-- Generated by graphviz version 2.34.0 (20130907.0111)
 -->
<!-- Title: my_memory_mgr Pages: 1 -->
<svg width="684pt" height="279pt"
 viewBox="0.00 0.00 684.00 279.00" xmlns="http://www.w3.org/2000/svg" xmlns:xlink="http://www.w3.org/1999/xlink">
<g id="graph0" class="graph" transform="scale(1 1) rotate(0) translate(4 275)">
<title>my_memory_mgr</title>
<polygon fill="white" stroke="white" points="-4,4 -4,-275 680,-275 680,4 -4,4"/>
<!-- Node1 -->
<g id="node1" class="node"><title>Node1</title>
<polygon fill="#bfbfbf" stroke="black" points="584,-142.5 584,-161.5 676,-161.5 676,-142.5 584,-142.5"/>
<text text-anchor="middle" x="630" y="-149.5" font-family="Arial" font-size="10.00">my_memory_mgr</text>
</g>
<!-- Node2 -->
<g id="node2" class="node"><title>Node2</title>
<g id="a_node2"><a xlink:href="structjpeg__memory__mgr.html" target="_top" xlink:title="jpeg_memory_mgr">
<polygon fill="white" stroke="black" points="404.5,-181.5 404.5,-200.5 501.5,-200.5 501.5,-181.5 404.5,-181.5"/>
<text text-anchor="middle" x="453" y="-188.5" font-family="Arial" font-size="10.00">jpeg_memory_mgr</text>
</a>
</g>
</g>
<!-- Node2&#45;&gt;Node1 -->
<g id="edge1" class="edge"><title>Node2&#45;&gt;Node1</title>
<path fill="none" stroke="#9a32cd" stroke-dasharray="5,2" d="M506.679,-179.26C532.149,-173.584 562.323,-166.859 586.329,-161.509"/>
<polygon fill="#9a32cd" stroke="#9a32cd" points="505.809,-175.868 496.81,-181.46 507.332,-182.7 505.809,-175.868"/>
<text text-anchor="middle" x="543" y="-179" font-family="Arial" font-size="10.00"> pub</text>
</g>
<!-- Node3 -->
<g id="node3" class="node"><title>Node3</title>
<g id="a_node3"><a xlink:href="structjvirt__barray__control.html" target="_top" xlink:title="jvirt_barray_control">
<polygon fill="white" stroke="black" points="184,-222.5 184,-241.5 282,-241.5 282,-222.5 184,-222.5"/>
<text text-anchor="middle" x="233" y="-229.5" font-family="Arial" font-size="10.00">jvirt_barray_control</text>
</a>
</g>
</g>
<!-- Node3&#45;&gt;Node1 -->
<g id="edge10" class="edge"><title>Node3&#45;&gt;Node1</title>
<path fill="none" stroke="#9a32cd" stroke-dasharray="5,2" d="M292.432,-234.933C360.994,-236.134 476.653,-231.055 566,-191 584.077,-182.896 603.203,-170.429 615.575,-161.781"/>
<polygon fill="#9a32cd" stroke="#9a32cd" points="292.332,-231.43 282.255,-234.702 292.173,-238.428 292.332,-231.43"/>
<text text-anchor="middle" x="453" y="-233" font-family="Arial" font-size="10.00"> virt_barray_list</text>
</g>
<!-- Node3&#45;&gt;Node2 -->
<g id="edge2" class="edge"><title>Node3&#45;&gt;Node2</title>
<path fill="none" stroke="#9a32cd" stroke-dasharray="5,2" d="M292.215,-221.051C327.291,-214.454 371.403,-206.158 404.387,-199.955"/>
<polygon fill="#9a32cd" stroke="#9a32cd" points="291.292,-217.664 282.111,-222.952 292.586,-224.543 291.292,-217.664"/>
<text text-anchor="middle" x="343" y="-221" font-family="Arial" font-size="10.00"> request_virt_barray</text>
</g>
<!-- Node3&#45;&gt;Node3 -->
<g id="edge3" class="edge"><title>Node3&#45;&gt;Node3</title>
<path fill="none" stroke="#9a32cd" stroke-dasharray="5,2" d="M217.075,-251.4C218.138,-256.315 223.447,-260 233,-260 248.285,-260 252.704,-250.565 246.255,-241.757"/>
<polygon fill="#9a32cd" stroke="#9a32cd" points="220.449,-252.328 219.745,-241.757 213.703,-250.46 220.449,-252.328"/>
<text text-anchor="middle" x="233" y="-263" font-family="Arial" font-size="10.00"> next</text>
</g>
<!-- Node4 -->
<g id="node4" class="node"><title>Node4</title>
<g id="a_node4"><a xlink:href="structbacking__store__struct.html" target="_top" xlink:title="backing_store_struct">
<polygon fill="white" stroke="black" points="0.5,-192.5 0.5,-211.5 107.5,-211.5 107.5,-192.5 0.5,-192.5"/>
<text text-anchor="middle" x="54" y="-199.5" font-family="Arial" font-size="10.00">backing_store_struct</text>
</a>
</g>
</g>
<!-- Node4&#45;&gt;Node3 -->
<g id="edge4" class="edge"><title>Node4&#45;&gt;Node3</title>
<path fill="none" stroke="#9a32cd" stroke-dasharray="5,2" d="M117.75,-212.636C139.464,-216.316 163.444,-220.38 183.805,-223.831"/>
<polygon fill="#9a32cd" stroke="#9a32cd" points="118.071,-209.14 107.627,-210.92 116.901,-216.042 118.071,-209.14"/>
<text text-anchor="middle" x="146" y="-223" font-family="Arial" font-size="10.00"> b_s_info</text>
</g>
<!-- Node5 -->
<g id="node5" class="node"><title>Node5</title>
<g id="a_node5"><a xlink:href="structjvirt__sarray__control.html" target="_top" xlink:title="jvirt_sarray_control">
<polygon fill="white" stroke="black" points="184,-155.5 184,-174.5 282,-174.5 282,-155.5 184,-155.5"/>
<text text-anchor="middle" x="233" y="-162.5" font-family="Arial" font-size="10.00">jvirt_sarray_control</text>
</a>
</g>
</g>
<!-- Node4&#45;&gt;Node5 -->
<g id="edge7" class="edge"><title>Node4&#45;&gt;Node5</title>
<path fill="none" stroke="#9a32cd" stroke-dasharray="5,2" d="M110.415,-190.416C134.803,-185.318 163.106,-179.402 186.265,-174.56"/>
<polygon fill="#9a32cd" stroke="#9a32cd" points="109.654,-186.999 100.582,-192.472 111.087,-193.851 109.654,-186.999"/>
<text text-anchor="middle" x="146" y="-189" font-family="Arial" font-size="10.00"> b_s_info</text>
</g>
<!-- Node5&#45;&gt;Node1 -->
<g id="edge11" class="edge"><title>Node5&#45;&gt;Node1</title>
<path fill="none" stroke="#9a32cd" stroke-dasharray="5,2" d="M292.344,-163.08C371.661,-160.469 511.851,-155.856 583.729,-153.49"/>
<polygon fill="#9a32cd" stroke="#9a32cd" points="291.919,-159.592 282.04,-163.419 292.15,-166.588 291.919,-159.592"/>
<text text-anchor="middle" x="453" y="-162" font-family="Arial" font-size="10.00"> virt_sarray_list</text>
</g>
<!-- Node5&#45;&gt;Node2 -->
<g id="edge5" class="edge"><title>Node5&#45;&gt;Node2</title>
<path fill="none" stroke="#9a32cd" stroke-dasharray="5,2" d="M292.215,-171.943C327.291,-176.126 371.403,-181.388 404.387,-185.321"/>
<polygon fill="#9a32cd" stroke="#9a32cd" points="292.455,-168.447 282.111,-170.738 291.626,-175.398 292.455,-168.447"/>
<text text-anchor="middle" x="343" y="-185" font-family="Arial" font-size="10.00"> request_virt_sarray</text>
</g>
<!-- Node5&#45;&gt;Node5 -->
<g id="edge6" class="edge"><title>Node5&#45;&gt;Node5</title>
<path fill="none" stroke="#9a32cd" stroke-dasharray="5,2" d="M217.075,-184.4C218.138,-189.315 223.447,-193 233,-193 248.285,-193 252.704,-183.565 246.255,-174.757"/>
<polygon fill="#9a32cd" stroke="#9a32cd" points="220.449,-185.328 219.745,-174.757 213.703,-183.46 220.449,-185.328"/>
<text text-anchor="middle" x="233" y="-196" font-family="Arial" font-size="10.00"> next</text>
</g>
<!-- Node6 -->
<g id="node6" class="node"><title>Node6</title>
<g id="a_node6"><a xlink:href="unionsmall__pool__struct.html" target="_top" xlink:title="small_pool_struct">
<polygon fill="white" stroke="black" points="406.5,-67.5 406.5,-86.5 499.5,-86.5 499.5,-67.5 406.5,-67.5"/>
<text text-anchor="middle" x="453" y="-74.5" font-family="Arial" font-size="10.00">small_pool_struct</text>
</a>
</g>
</g>
<!-- Node6&#45;&gt;Node1 -->
<g id="edge8" class="edge"><title>Node6&#45;&gt;Node1</title>
<path fill="none" stroke="#9a32cd" stroke-dasharray="5,2" d="M485.795,-90.6263C520.715,-105.592 575.898,-129.242 606.567,-142.386"/>
<polygon fill="#9a32cd" stroke="#9a32cd" points="487.09,-87.3736 476.52,-86.6514 484.333,-93.8077 487.09,-87.3736"/>
<text text-anchor="middle" x="543" y="-127" font-family="Arial" font-size="10.00"> small_list</text>
</g>
<!-- Node6&#45;&gt;Node6 -->
<g id="edge9" class="edge"><title>Node6&#45;&gt;Node6</title>
<path fill="none" stroke="#9a32cd" stroke-dasharray="5,2" d="M436.334,-96.4C437.447,-101.315 443.002,-105 453,-105 468.996,-105 473.62,-95.5653 466.872,-86.7571"/>
<polygon fill="#9a32cd" stroke="#9a32cd" points="439.707,-97.3361 439.128,-86.7571 432.983,-95.3878 439.707,-97.3361"/>
<text text-anchor="middle" x="453" y="-108" font-family="Arial" font-size="10.00"> next</text>
</g>
<!-- Node7 -->
<g id="node7" class="node"><title>Node7</title>
<g id="a_node7"><a xlink:href="unionlarge__pool__struct.html" target="_top" xlink:title="large_pool_struct">
<polygon fill="white" stroke="black" points="407.5,-0.5 407.5,-19.5 498.5,-19.5 498.5,-0.5 407.5,-0.5"/>
<text text-anchor="middle" x="453" y="-7.5" font-family="Arial" font-size="10.00">large_pool_struct</text>
</a>
</g>
</g>
<!-- Node7&#45;&gt;Node1 -->
<g id="edge12" class="edge"><title>Node7&#45;&gt;Node1</title>
<path fill="none" stroke="#9a32cd" stroke-dasharray="5,2" d="M477.117,-25.2844C500.279,-40.9263 536.616,-66.3655 566,-91 586.3,-108.019 608.109,-130.083 619.998,-142.472"/>
<polygon fill="#9a32cd" stroke="#9a32cd" points="478.891,-22.2602 468.636,-19.598 474.993,-28.0742 478.891,-22.2602"/>
<text text-anchor="middle" x="543" y="-94" font-family="Arial" font-size="10.00"> large_list</text>
</g>
<!-- Node7&#45;&gt;Node7 -->
<g id="edge13" class="edge"><title>Node7&#45;&gt;Node7</title>
<path fill="none" stroke="#9a32cd" stroke-dasharray="5,2" d="M436.334,-29.4C437.447,-34.3146 443.002,-38 453,-38 468.996,-38 473.62,-28.5653 466.872,-19.7571"/>
<polygon fill="#9a32cd" stroke="#9a32cd" points="439.707,-30.3361 439.128,-19.7571 432.983,-28.3878 439.707,-30.3361"/>
<text text-anchor="middle" x="453" y="-41" font-family="Arial" font-size="10.00"> next</text>
</g>
</g>
</svg>
