<?xml version="1.0" encoding="UTF-8" standalone="no"?>
<!DOCTYPE svg PUBLIC "-//W3C//DTD SVG 1.1//EN"
 "http://www.w3.org/Graphics/SVG/1.1/DTD/svg11.dtd">
<!-- Generated by graphviz version 2.34.0 (20130907.0111)
 -->
<!-- Title: _curl_llist Pages: 1 -->
<svg width="145pt" height="108pt"
 viewBox="0.00 0.00 145.00 108.00" xmlns="http://www.w3.org/2000/svg" xmlns:xlink="http://www.w3.org/1999/xlink">
<g id="graph0" class="graph" transform="scale(1 1) rotate(0) translate(4 104)">
<title>_curl_llist</title>
<polygon fill="white" stroke="white" points="-4,4 -4,-104 141,-104 141,4 -4,4"/>
<!-- Node1 -->
<g id="node1" class="node"><title>Node1</title>
<polygon fill="#bfbfbf" stroke="black" points="20,-0.5 20,-19.5 78,-19.5 78,-0.5 20,-0.5"/>
<text text-anchor="middle" x="49" y="-7.5" font-family="Arial" font-size="10.00">_curl_llist</text>
</g>
<!-- Node2 -->
<g id="node2" class="node"><title>Node2</title>
<g id="a_node2"><a xlink:href="struct__curl__llist__element.html" target="_top" xlink:title="_curl_llist_element">
<polygon fill="white" stroke="black" points="0,-79.5 0,-98.5 98,-98.5 98,-79.5 0,-79.5"/>
<text text-anchor="middle" x="49" y="-86.5" font-family="Arial" font-size="10.00">_curl_llist_element</text>
</a>
</g>
</g>
<!-- Node2&#45;&gt;Node1 -->
<g id="edge1" class="edge"><title>Node2&#45;&gt;Node1</title>
<path fill="none" stroke="#9a32cd" stroke-dasharray="5,2" d="M49,-69.3145C49,-53.5917 49,-31.8079 49,-19.8094"/>
<polygon fill="#9a32cd" stroke="#9a32cd" points="45.5001,-69.4654 49,-79.4655 52.5001,-69.4655 45.5001,-69.4654"/>
<text text-anchor="middle" x="61.5" y="-52" font-family="Arial" font-size="10.00"> head</text>
<text text-anchor="middle" x="61.5" y="-41" font-family="Arial" font-size="10.00">tail</text>
</g>
<!-- Node2&#45;&gt;Node2 -->
<g id="edge2" class="edge"><title>Node2&#45;&gt;Node2</title>
<path fill="none" stroke="#9a32cd" stroke-dasharray="5,2" d="M108.323,-94.719C113.065,-93.4698 116,-91.5635 116,-89 116,-84.8984 108.486,-82.4792 98.0804,-81.7422"/>
<polygon fill="#9a32cd" stroke="#9a32cd" points="107.449,-91.3109 98.0804,-96.2578 108.489,-98.2332 107.449,-91.3109"/>
<text text-anchor="middle" x="126.5" y="-92" font-family="Arial" font-size="10.00"> prev</text>
<text text-anchor="middle" x="126.5" y="-81" font-family="Arial" font-size="10.00">next</text>
</g>
</g>
</svg>
