<?xml version="1.0" encoding="UTF-8" standalone="no"?>
<!DOCTYPE svg PUBLIC "-//W3C//DTD SVG 1.1//EN"
 "http://www.w3.org/Graphics/SVG/1.1/DTD/svg11.dtd">
<!-- Generated by graphviz version 2.34.0 (20130907.0111)
 -->
<!-- Title: QEGlobals_t Pages: 1 -->
<svg width="1020pt" height="991pt"
 viewBox="0.00 0.00 1020.00 990.88" xmlns="http://www.w3.org/2000/svg" xmlns:xlink="http://www.w3.org/1999/xlink">
<g id="graph0" class="graph" transform="scale(1 1) rotate(0) translate(4 986.885)">
<title>QEGlobals_t</title>
<polygon fill="white" stroke="white" points="-4,4 -4,-986.885 1016,-986.885 1016,4 -4,4"/>
<!-- Node1 -->
<g id="node1" class="node"><title>Node1</title>
<polygon fill="#bfbfbf" stroke="black" points="939,-250.385 939,-269.385 1011,-269.385 1011,-250.385 939,-250.385"/>
<text text-anchor="middle" x="975" y="-257.385" font-family="Arial" font-size="10.00">QEGlobals_t</text>
</g>
<!-- Node2 -->
<g id="node2" class="node"><title>Node2</title>
<g id="a_node2"><a xlink:href="structentity__s.html" target="_top" xlink:title="entity_s">
<polygon fill="white" stroke="black" points="555.5,-644.385 555.5,-663.385 606.5,-663.385 606.5,-644.385 555.5,-644.385"/>
<text text-anchor="middle" x="581" y="-651.385" font-family="Arial" font-size="10.00">entity_s</text>
</a>
</g>
</g>
<!-- Node2&#45;&gt;Node1 -->
<g id="edge1" class="edge"><title>Node2&#45;&gt;Node1</title>
<path fill="none" stroke="#9a32cd" stroke-dasharray="5,2" d="M605.283,-638.617C673.831,-593.305 873.047,-458.895 920,-396.885 951.483,-355.306 967.081,-292.997 972.118,-269.4"/>
<polygon fill="#9a32cd" stroke="#9a32cd" points="603.288,-635.741 596.866,-644.167 607.141,-641.585 603.288,-635.741"/>
<text text-anchor="middle" x="784" y="-552.885" font-family="Arial" font-size="10.00"> d_project_entity</text>
</g>
<!-- Node2&#45;&gt;Node2 -->
<g id="edge3" class="edge"><title>Node2&#45;&gt;Node2</title>
<path fill="none" stroke="#9a32cd" stroke-dasharray="5,2" d="M562.482,-673.285C563.719,-678.199 569.892,-681.885 581,-681.885 598.773,-681.885 603.911,-672.45 596.413,-663.642"/>
<polygon fill="#9a32cd" stroke="#9a32cd" points="565.854,-674.233 565.587,-663.642 559.191,-672.088 565.854,-674.233"/>
<text text-anchor="middle" x="581" y="-695.885" font-family="Arial" font-size="10.00"> prev</text>
<text text-anchor="middle" x="581" y="-684.885" font-family="Arial" font-size="10.00">next</text>
</g>
<!-- Node4 -->
<g id="node4" class="node"><title>Node4</title>
<g id="a_node4"><a xlink:href="structbrush__s.html" target="_top" xlink:title="brush_s">
<polygon fill="white" stroke="black" points="758.5,-678.385 758.5,-697.385 809.5,-697.385 809.5,-678.385 758.5,-678.385"/>
<text text-anchor="middle" x="784" y="-685.385" font-family="Arial" font-size="10.00">brush_s</text>
</a>
</g>
</g>
<!-- Node2&#45;&gt;Node4 -->
<g id="edge16" class="edge"><title>Node2&#45;&gt;Node4</title>
<path fill="none" stroke="#9a32cd" stroke-dasharray="5,2" d="M616.539,-660.532C626.075,-662.321 636.431,-664.22 646,-665.885 685.159,-672.699 730.752,-679.869 758.218,-684.105"/>
<polygon fill="#9a32cd" stroke="#9a32cd" points="617.066,-657.07 606.59,-658.651 615.766,-663.948 617.066,-657.07"/>
<text text-anchor="middle" x="681" y="-690.885" font-family="Arial" font-size="10.00"> pUndoOwner</text>
<text text-anchor="middle" x="681" y="-679.885" font-family="Arial" font-size="10.00">owner</text>
</g>
<!-- Node3 -->
<g id="node3" class="node"><title>Node3</title>
<g id="a_node3"><a xlink:href="classid_mat3.html" target="_top" xlink:title="idMat3">
<polygon fill="white" stroke="black" points="339,-714.385 339,-733.385 385,-733.385 385,-714.385 339,-714.385"/>
<text text-anchor="middle" x="362" y="-721.385" font-family="Arial" font-size="10.00">idMat3</text>
</a>
</g>
</g>
<!-- Node3&#45;&gt;Node2 -->
<g id="edge2" class="edge"><title>Node3&#45;&gt;Node2</title>
<path fill="none" stroke="#9a32cd" stroke-dasharray="5,2" d="M394.987,-716.534C426.23,-709.021 474.94,-696.417 516,-681.885 531.092,-676.544 547.636,-669.266 560.122,-663.469"/>
<polygon fill="#9a32cd" stroke="#9a32cd" points="394.018,-713.167 385.097,-718.882 395.635,-719.977 394.018,-713.167"/>
<text text-anchor="middle" x="474" y="-719.885" font-family="Arial" font-size="10.00"> rotation</text>
<text text-anchor="middle" x="474" y="-708.885" font-family="Arial" font-size="10.00">lightRotation</text>
</g>
<!-- Node4&#45;&gt;Node1 -->
<g id="edge42" class="edge"><title>Node4&#45;&gt;Node1</title>
<path fill="none" stroke="#9a32cd" stroke-dasharray="5,2" d="M798.254,-669.738C824.868,-632.531 885.23,-544.161 920,-461.885 949.958,-390.997 967.331,-298.987 972.418,-269.453"/>
<polygon fill="#9a32cd" stroke="#9a32cd" points="795.262,-667.903 792.251,-678.061 800.939,-671.998 795.262,-667.903"/>
<text text-anchor="middle" x="886" y="-590.885" font-family="Arial" font-size="10.00"> d_select_order</text>
</g>
<!-- Node4&#45;&gt;Node2 -->
<g id="edge4" class="edge"><title>Node4&#45;&gt;Node2</title>
<path fill="none" stroke="#9a32cd" stroke-dasharray="5,2" d="M759.775,-673.209C747.311,-666.186 731.383,-658.528 716,-654.885 678.647,-646.038 633.778,-648.18 606.599,-650.821"/>
<polygon fill="#9a32cd" stroke="#9a32cd" points="758.17,-676.326 768.565,-678.378 761.719,-670.292 758.17,-676.326"/>
<text text-anchor="middle" x="681" y="-657.885" font-family="Arial" font-size="10.00"> brushes</text>
</g>
<!-- Node4&#45;&gt;Node4 -->
<g id="edge17" class="edge"><title>Node4&#45;&gt;Node4</title>
<path fill="none" stroke="#9a32cd" stroke-dasharray="5,2" d="M765.112,-707.285C766.373,-712.199 772.669,-715.885 784,-715.885 802.129,-715.885 807.369,-706.45 799.721,-697.642"/>
<polygon fill="#9a32cd" stroke="#9a32cd" points="768.484,-708.235 768.279,-697.642 761.833,-706.051 768.484,-708.235"/>
<text text-anchor="middle" x="784" y="-762.885" font-family="Arial" font-size="10.00"> prev</text>
<text text-anchor="middle" x="784" y="-751.885" font-family="Arial" font-size="10.00">next</text>
<text text-anchor="middle" x="784" y="-740.885" font-family="Arial" font-size="10.00">oprev</text>
<text text-anchor="middle" x="784" y="-729.885" font-family="Arial" font-size="10.00">onext</text>
<text text-anchor="middle" x="784" y="-718.885" font-family="Arial" font-size="10.00">list</text>
</g>
<!-- Node17 -->
<g id="node17" class="node"><title>Node17</title>
<g id="a_node17"><a xlink:href="structpatch_mesh__t.html" target="_top" xlink:title="patchMesh_t">
<polygon fill="white" stroke="black" points="938.5,-801.385 938.5,-820.385 1011.5,-820.385 1011.5,-801.385 938.5,-801.385"/>
<text text-anchor="middle" x="975" y="-808.385" font-family="Arial" font-size="10.00">patchMesh_t</text>
</a>
</g>
</g>
<!-- Node4&#45;&gt;Node17 -->
<g id="edge22" class="edge"><title>Node4&#45;&gt;Node17</title>
<path fill="none" stroke="#9a32cd" stroke-dasharray="5,2" d="M819.748,-688.415C849.035,-690.485 890.728,-697.414 920,-718.885 949.12,-740.245 965.209,-782.444 971.223,-801.342"/>
<polygon fill="#9a32cd" stroke="#9a32cd" points="819.743,-684.909 809.566,-687.854 819.358,-691.899 819.743,-684.909"/>
<text text-anchor="middle" x="886" y="-721.885" font-family="Arial" font-size="10.00"> pSymbiot</text>
</g>
<!-- Node5 -->
<g id="node5" class="node"><title>Node5</title>
<g id="a_node5"><a xlink:href="structface__s.html" target="_top" xlink:title="face_s">
<polygon fill="white" stroke="black" points="558.5,-147.385 558.5,-166.385 603.5,-166.385 603.5,-147.385 558.5,-147.385"/>
<text text-anchor="middle" x="581" y="-154.385" font-family="Arial" font-size="10.00">face_s</text>
</a>
</g>
</g>
<!-- Node5&#45;&gt;Node4 -->
<g id="edge5" class="edge"><title>Node5&#45;&gt;Node4</title>
<path fill="none" stroke="#9a32cd" stroke-dasharray="5,2" d="M613.142,-167.685C623.577,-171.279 635.282,-175.282 646,-178.885 677.041,-189.319 695.894,-176.037 716,-201.885 733.848,-224.83 729.896,-434.107 734,-462.885 746.021,-547.185 771.96,-646.967 780.335,-678.109"/>
<polygon fill="#9a32cd" stroke="#9a32cd" points="614.195,-164.346 603.601,-164.392 611.912,-170.963 614.195,-164.346"/>
<text text-anchor="middle" x="681" y="-204.885" font-family="Arial" font-size="10.00"> brush_faces</text>
</g>
<!-- Node5&#45;&gt;Node5 -->
<g id="edge6" class="edge"><title>Node5&#45;&gt;Node5</title>
<path fill="none" stroke="#9a32cd" stroke-dasharray="5,2" d="M562.482,-176.285C563.719,-181.199 569.892,-184.885 581,-184.885 598.773,-184.885 603.911,-175.45 596.413,-166.642"/>
<polygon fill="#9a32cd" stroke="#9a32cd" points="565.854,-177.233 565.587,-166.642 559.191,-175.088 565.854,-177.233"/>
<text text-anchor="middle" x="581" y="-198.885" font-family="Arial" font-size="10.00"> original</text>
<text text-anchor="middle" x="581" y="-187.885" font-family="Arial" font-size="10.00">next</text>
</g>
<!-- Node31 -->
<g id="node31" class="node"><title>Node31</title>
<g id="a_node31"><a xlink:href="structpedge__t.html" target="_top" xlink:title="pedge_t">
<polygon fill="white" stroke="black" points="758.5,-153.385 758.5,-172.385 809.5,-172.385 809.5,-153.385 758.5,-153.385"/>
<text text-anchor="middle" x="784" y="-160.385" font-family="Arial" font-size="10.00">pedge_t</text>
</a>
</g>
</g>
<!-- Node5&#45;&gt;Node31 -->
<g id="edge50" class="edge"><title>Node5&#45;&gt;Node31</title>
<path fill="none" stroke="#9a32cd" stroke-dasharray="5,2" d="M613.924,-156.084C641.084,-155.595 681.121,-155.326 716,-156.885 730,-157.511 745.597,-158.868 758.217,-160.134"/>
<polygon fill="#9a32cd" stroke="#9a32cd" points="613.758,-152.587 603.831,-156.287 613.899,-159.586 613.758,-152.587"/>
<text text-anchor="middle" x="681" y="-170.885" font-family="Arial" font-size="10.00"> f1</text>
<text text-anchor="middle" x="681" y="-159.885" font-family="Arial" font-size="10.00">f2</text>
</g>
<!-- Node6 -->
<g id="node6" class="node"><title>Node6</title>
<g id="a_node6"><a xlink:href="classid_winding.html" target="_top" xlink:title="idWinding">
<polygon fill="white" stroke="black" points="332.5,-126.385 332.5,-145.385 391.5,-145.385 391.5,-126.385 332.5,-126.385"/>
<text text-anchor="middle" x="362" y="-133.385" font-family="Arial" font-size="10.00">idWinding</text>
</a>
</g>
</g>
<!-- Node6&#45;&gt;Node5 -->
<g id="edge7" class="edge"><title>Node6&#45;&gt;Node5</title>
<path fill="none" stroke="#9a32cd" stroke-dasharray="5,2" d="M401.968,-136.333C432.973,-137.072 477.408,-138.984 516,-143.885 530.172,-145.685 545.897,-148.862 558.214,-151.625"/>
<polygon fill="#9a32cd" stroke="#9a32cd" points="401.664,-132.826 391.593,-136.118 401.518,-139.824 401.664,-132.826"/>
<text text-anchor="middle" x="474" y="-146.885" font-family="Arial" font-size="10.00"> face_winding</text>
</g>
<!-- Node7 -->
<g id="node7" class="node"><title>Node7</title>
<g id="a_node7"><a xlink:href="classid_vec5.html" target="_top" xlink:title="idVec5">
<polygon fill="white" stroke="black" points="148.5,-126.385 148.5,-145.385 195.5,-145.385 195.5,-126.385 148.5,-126.385"/>
<text text-anchor="middle" x="172" y="-133.385" font-family="Arial" font-size="10.00">idVec5</text>
</a>
</g>
</g>
<!-- Node7&#45;&gt;Node6 -->
<g id="edge8" class="edge"><title>Node7&#45;&gt;Node6</title>
<path fill="none" stroke="#9a32cd" stroke-dasharray="5,2" d="M206.08,-135.885C241.898,-135.885 298.446,-135.885 332.408,-135.885"/>
<polygon fill="#9a32cd" stroke="#9a32cd" points="205.677,-132.385 195.677,-135.885 205.677,-139.385 205.677,-132.385"/>
<text text-anchor="middle" x="263" y="-138.885" font-family="Arial" font-size="10.00"> p</text>
</g>
<!-- Node8 -->
<g id="node8" class="node"><title>Node8</title>
<g id="a_node8"><a xlink:href="classbrushprimit__texdef__t.html" target="_top" xlink:title="brushprimit_texdef_t">
<polygon fill="white" stroke="black" points="310,-41.3849 310,-60.3849 414,-60.3849 414,-41.3849 310,-41.3849"/>
<text text-anchor="middle" x="362" y="-48.3849" font-family="Arial" font-size="10.00">brushprimit_texdef_t</text>
</a>
</g>
</g>
<!-- Node8&#45;&gt;Node5 -->
<g id="edge9" class="edge"><title>Node8&#45;&gt;Node5</title>
<path fill="none" stroke="#9a32cd" stroke-dasharray="5,2" d="M424.386,-58.2297C459.889,-63.3022 500.523,-70.7681 516,-79.8849 523.376,-84.23 557.299,-127.485 572.544,-147.193"/>
<polygon fill="#9a32cd" stroke="#9a32cd" points="424.436,-54.7034 414.051,-56.7983 423.476,-61.6372 424.436,-54.7034"/>
<text text-anchor="middle" x="474" y="-82.8849" font-family="Arial" font-size="10.00"> brushprimit_texdef</text>
</g>
<!-- Node34 -->
<g id="node34" class="node"><title>Node34</title>
<g id="a_node34"><a xlink:href="classtexturewin__t.html" target="_top" xlink:title="texturewin_t">
<polygon fill="white" stroke="black" points="546.5,-70.3849 546.5,-89.3849 615.5,-89.3849 615.5,-70.3849 546.5,-70.3849"/>
<text text-anchor="middle" x="581" y="-77.3849" font-family="Arial" font-size="10.00">texturewin_t</text>
</a>
</g>
</g>
<!-- Node8&#45;&gt;Node34 -->
<g id="edge57" class="edge"><title>Node8&#45;&gt;Node34</title>
<path fill="none" stroke="#9a32cd" stroke-dasharray="5,2" d="M414.538,-39.834C444.941,-35.5826 483.67,-34.1799 516,-45.8849 525.792,-49.43 525.085,-55.5022 534,-60.8849 539.917,-64.4579 546.629,-67.6533 553.06,-70.3581"/>
<polygon fill="#9a32cd" stroke="#9a32cd" points="413.918,-36.3881 404.568,-41.3702 414.984,-43.3065 413.918,-36.3881"/>
<text text-anchor="middle" x="474" y="-48.8849" font-family="Arial" font-size="10.00"> brushprimit_texdef</text>
</g>
<!-- Node9 -->
<g id="node9" class="node"><title>Node9</title>
<g id="a_node9"><a xlink:href="classtexdef__t.html" target="_top" xlink:title="texdef_t">
<polygon fill="white" stroke="black" points="146.5,-87.3849 146.5,-106.385 197.5,-106.385 197.5,-87.3849 146.5,-87.3849"/>
<text text-anchor="middle" x="172" y="-94.3849" font-family="Arial" font-size="10.00">texdef_t</text>
</a>
</g>
</g>
<!-- Node9&#45;&gt;Node5 -->
<g id="edge10" class="edge"><title>Node9&#45;&gt;Node5</title>
<path fill="none" stroke="#9a32cd" stroke-dasharray="5,2" d="M208.087,-95.6784C255.216,-94.6298 341.439,-94.7239 414,-105.885 460.464,-113.032 471.18,-119.703 516,-133.885 530.183,-138.373 545.909,-144.015 558.223,-148.587"/>
<polygon fill="#9a32cd" stroke="#9a32cd" points="207.718,-92.1865 197.81,-95.9395 207.896,-99.1843 207.718,-92.1865"/>
<text text-anchor="middle" x="362" y="-108.885" font-family="Arial" font-size="10.00"> texdef</text>
</g>
<!-- Node21 -->
<g id="node21" class="node"><title>Node21</title>
<g id="a_node21"><a xlink:href="structeclass__s.html" target="_top" xlink:title="eclass_s">
<polygon fill="white" stroke="black" points="334,-647.385 334,-666.385 390,-666.385 390,-647.385 334,-647.385"/>
<text text-anchor="middle" x="362" y="-654.385" font-family="Arial" font-size="10.00">eclass_s</text>
</a>
</g>
</g>
<!-- Node9&#45;&gt;Node21 -->
<g id="edge31" class="edge"><title>Node9&#45;&gt;Node21</title>
<path fill="none" stroke="#9a32cd" stroke-dasharray="5,2" d="M206.858,-109.956C210.149,-111.992 213.273,-114.295 216,-116.885 228.398,-128.66 225.61,-135.987 234,-150.885 258.648,-194.652 277.493,-199.795 292,-247.885 304.272,-288.566 287.232,-594.008 310,-629.885 315.476,-638.513 324.684,-644.552 333.782,-648.695"/>
<polygon fill="#9a32cd" stroke="#9a32cd" points="208.38,-106.802 197.91,-105.179 205.083,-112.977 208.38,-106.802"/>
<text text-anchor="middle" x="263" y="-250.885" font-family="Arial" font-size="10.00"> texdef</text>
</g>
<!-- Node9&#45;&gt;Node34 -->
<g id="edge56" class="edge"><title>Node9&#45;&gt;Node34</title>
<path fill="none" stroke="#9a32cd" stroke-dasharray="5,2" d="M193.454,-81.1198C219.05,-62.4823 265.011,-32.528 310,-20.8849 398.786,2.09241 438.214,15.6971 516,-32.8849 528.548,-40.7218 522.643,-51.4044 534,-60.8849 538.511,-64.6502 543.871,-67.7557 549.31,-70.2863"/>
<polygon fill="#9a32cd" stroke="#9a32cd" points="191.222,-78.4172 185.284,-87.1915 195.398,-84.0354 191.222,-78.4172"/>
<text text-anchor="middle" x="362" y="-23.8849" font-family="Arial" font-size="10.00"> texdef</text>
</g>
<!-- Node10 -->
<g id="node10" class="node"><title>Node10</title>
<g id="a_node10"><a xlink:href="classid_plane.html" target="_top" xlink:title="idPlane">
<polygon fill="white" stroke="black" points="337.5,-233.385 337.5,-252.385 386.5,-252.385 386.5,-233.385 337.5,-233.385"/>
<text text-anchor="middle" x="362" y="-240.385" font-family="Arial" font-size="10.00">idPlane</text>
</a>
</g>
</g>
<!-- Node10&#45;&gt;Node1 -->
<g id="edge46" class="edge"><title>Node10&#45;&gt;Node1</title>
<path fill="none" stroke="#9a32cd" stroke-dasharray="5,2" d="M396.608,-239.907C489.638,-231.901 749.253,-211.217 834,-221.885 874.48,-226.981 919.791,-240.844 947.608,-250.338"/>
<polygon fill="#9a32cd" stroke="#9a32cd" points="396.274,-236.423 386.614,-240.774 396.879,-243.397 396.274,-236.423"/>
<text text-anchor="middle" x="681" y="-225.885" font-family="Arial" font-size="10.00"> d_move_planes</text>
</g>
<!-- Node10&#45;&gt;Node5 -->
<g id="edge11" class="edge"><title>Node10&#45;&gt;Node5</title>
<path fill="none" stroke="#9a32cd" stroke-dasharray="5,2" d="M396.063,-229.028C402.198,-225.986 408.425,-222.563 414,-218.885 422.934,-212.99 422.591,-207.988 432,-202.885 466.025,-184.431 479.092,-191.55 516,-179.885 530.185,-175.402 545.91,-169.76 558.224,-165.186"/>
<polygon fill="#9a32cd" stroke="#9a32cd" points="394.163,-226.054 386.604,-233.477 397.143,-232.388 394.163,-226.054"/>
<text text-anchor="middle" x="474" y="-216.885" font-family="Arial" font-size="10.00"> plane</text>
<text text-anchor="middle" x="474" y="-205.885" font-family="Arial" font-size="10.00">originalPlane</text>
</g>
<!-- Node11 -->
<g id="node11" class="node"><title>Node11</title>
<g id="a_node11"><a xlink:href="classid_vec3.html" target="_top" xlink:title="idVec3">
<polygon fill="white" stroke="black" points="148.5,-367.385 148.5,-386.385 195.5,-386.385 195.5,-367.385 148.5,-367.385"/>
<text text-anchor="middle" x="172" y="-374.385" font-family="Arial" font-size="10.00">idVec3</text>
</a>
</g>
</g>
<!-- Node11&#45;&gt;Node1 -->
<g id="edge59" class="edge"><title>Node11&#45;&gt;Node1</title>
<path fill="none" stroke="#9a32cd" stroke-dasharray="5,2" d="M203.793,-363.603C213.324,-359.949 223.96,-356.324 234,-353.885 531.942,-281.493 621.782,-352.131 920,-280.885 931.349,-278.174 943.5,-273.608 953.397,-269.424"/>
<polygon fill="#9a32cd" stroke="#9a32cd" points="202.326,-360.419 194.332,-367.373 204.918,-366.922 202.326,-360.419"/>
<text text-anchor="middle" x="581" y="-386.885" font-family="Arial" font-size="10.00"> d_new_brush_top</text>
<text text-anchor="middle" x="581" y="-375.885" font-family="Arial" font-size="10.00">d_vAreaTL</text>
<text text-anchor="middle" x="581" y="-364.885" font-family="Arial" font-size="10.00">d_select_translate</text>
<text text-anchor="middle" x="581" y="-353.885" font-family="Arial" font-size="10.00">d_move_points</text>
<text text-anchor="middle" x="581" y="-342.885" font-family="Arial" font-size="10.00">d_new_brush_bottom</text>
<text text-anchor="middle" x="581" y="-331.885" font-family="Arial" font-size="10.00">d_points</text>
<text text-anchor="middle" x="581" y="-320.885" font-family="Arial" font-size="10.00">d_vAreaBR</text>
</g>
<!-- Node11&#45;&gt;Node2 -->
<g id="edge40" class="edge"><title>Node11&#45;&gt;Node2</title>
<path fill="none" stroke="#9a32cd" stroke-dasharray="5,2" d="M205.01,-389.283C229.412,-399.174 263.55,-413.97 292,-429.885 357.843,-466.718 364.805,-491.579 432,-525.885 467.307,-543.911 484.869,-531.34 516,-555.885 547.277,-580.544 568.176,-624.89 576.255,-644.322"/>
<polygon fill="#9a32cd" stroke="#9a32cd" points="206.103,-385.951 195.519,-385.484 203.502,-392.45 206.103,-385.951"/>
<text text-anchor="middle" x="362" y="-528.885" font-family="Arial" font-size="10.00"> origin</text>
<text text-anchor="middle" x="362" y="-517.885" font-family="Arial" font-size="10.00">lightOrigin</text>
</g>
<!-- Node11&#45;&gt;Node4 -->
<g id="edge19" class="edge"><title>Node11&#45;&gt;Node4</title>
<path fill="none" stroke="#9a32cd" stroke-dasharray="5,2" d="M206.075,-376.153C281.094,-374.978 461.838,-375.01 516,-400.885 520.366,-402.971 727.832,-628.004 773.972,-678.083"/>
<polygon fill="#9a32cd" stroke="#9a32cd" points="205.739,-372.658 195.802,-376.332 205.861,-379.657 205.739,-372.658"/>
<text text-anchor="middle" x="474" y="-513.885" font-family="Arial" font-size="10.00"> lightUp</text>
<text text-anchor="middle" x="474" y="-502.885" font-family="Arial" font-size="10.00">lightTarget</text>
<text text-anchor="middle" x="474" y="-491.885" font-family="Arial" font-size="10.00">lightCenter</text>
<text text-anchor="middle" x="474" y="-480.885" font-family="Arial" font-size="10.00">maxs</text>
<text text-anchor="middle" x="474" y="-469.885" font-family="Arial" font-size="10.00">lightStart</text>
<text text-anchor="middle" x="474" y="-458.885" font-family="Arial" font-size="10.00">mins</text>
<text text-anchor="middle" x="474" y="-447.885" font-family="Arial" font-size="10.00">lightColor</text>
<text text-anchor="middle" x="474" y="-436.885" font-family="Arial" font-size="10.00">lightEnd</text>
<text text-anchor="middle" x="474" y="-425.885" font-family="Arial" font-size="10.00">lightRadius</text>
<text text-anchor="middle" x="474" y="-414.885" font-family="Arial" font-size="10.00">lightOffset</text>
<text text-anchor="middle" x="474" y="-403.885" font-family="Arial" font-size="10.00">...</text>
</g>
<!-- Node11&#45;&gt;Node5 -->
<g id="edge12" class="edge"><title>Node11&#45;&gt;Node5</title>
<path fill="none" stroke="#9a32cd" stroke-dasharray="5,2" d="M173.215,-356.716C174.813,-318.569 184.187,-236.083 234,-195.885 284.1,-155.454 490.358,-155.304 558.234,-156.394"/>
<polygon fill="#9a32cd" stroke="#9a32cd" points="169.708,-356.943 172.933,-367.035 176.705,-357.134 169.708,-356.943"/>
<text text-anchor="middle" x="362" y="-194.885" font-family="Arial" font-size="10.00"> planepts</text>
<text text-anchor="middle" x="362" y="-183.885" font-family="Arial" font-size="10.00">d_color</text>
<text text-anchor="middle" x="362" y="-172.885" font-family="Arial" font-size="10.00">orgplanepts</text>
</g>
<!-- Node18 -->
<g id="node18" class="node"><title>Node18</title>
<g id="a_node18"><a xlink:href="classid_draw_vert.html" target="_top" xlink:title="idDrawVert">
<polygon fill="white" stroke="black" points="330,-839.385 330,-858.385 394,-858.385 394,-839.385 330,-839.385"/>
<text text-anchor="middle" x="362" y="-846.385" font-family="Arial" font-size="10.00">idDrawVert</text>
</a>
</g>
</g>
<!-- Node11&#45;&gt;Node18 -->
<g id="edge25" class="edge"><title>Node11&#45;&gt;Node18</title>
<path fill="none" stroke="#9a32cd" stroke-dasharray="5,2" d="M191.883,-393.842C200.641,-402.791 210.343,-414.477 216,-426.885 238.921,-477.155 203.994,-503.494 234,-549.885 250.606,-575.559 276.32,-560.635 292,-586.885 319.767,-633.371 277.487,-786.585 310,-829.885 314.879,-836.383 322.236,-840.659 329.854,-843.473"/>
<polygon fill="#9a32cd" stroke="#9a32cd" points="194.17,-391.184 184.556,-386.732 189.296,-396.207 194.17,-391.184"/>
<text text-anchor="middle" x="263" y="-611.885" font-family="Arial" font-size="10.00"> xyz</text>
<text text-anchor="middle" x="263" y="-600.885" font-family="Arial" font-size="10.00">normal</text>
<text text-anchor="middle" x="263" y="-589.885" font-family="Arial" font-size="10.00">tangents</text>
</g>
<!-- Node11&#45;&gt;Node21 -->
<g id="edge35" class="edge"><title>Node11&#45;&gt;Node21</title>
<path fill="none" stroke="#9a32cd" stroke-dasharray="5,2" d="M190.934,-393.794C199.621,-402.865 209.543,-414.673 216,-426.885 230.412,-454.143 213.487,-470.865 234,-493.885 252.449,-514.589 274.658,-495.246 292,-516.885 323.804,-556.569 280.413,-588.522 310,-629.885 315.829,-638.033 324.886,-643.936 333.759,-648.103"/>
<polygon fill="#9a32cd" stroke="#9a32cd" points="193.279,-391.189 183.736,-386.585 188.325,-396.134 193.279,-391.189"/>
<text text-anchor="middle" x="263" y="-541.885" font-family="Arial" font-size="10.00"> maxs</text>
<text text-anchor="middle" x="263" y="-530.885" font-family="Arial" font-size="10.00">mins</text>
<text text-anchor="middle" x="263" y="-519.885" font-family="Arial" font-size="10.00">color</text>
</g>
<!-- Node28 -->
<g id="node28" class="node"><title>Node28</title>
<g id="a_node28"><a xlink:href="struct_saved_info__t.html" target="_top" xlink:title="SavedInfo_t">
<polygon fill="white" stroke="black" points="441,-267.385 441,-286.385 507,-286.385 507,-267.385 441,-267.385"/>
<text text-anchor="middle" x="474" y="-274.385" font-family="Arial" font-size="10.00">SavedInfo_t</text>
</a>
</g>
</g>
<!-- Node11&#45;&gt;Node28 -->
<g id="edge45" class="edge"><title>Node11&#45;&gt;Node28</title>
<path fill="none" stroke="#9a32cd" stroke-dasharray="5,2" d="M180.961,-358.046C190.431,-338.257 208.264,-308.079 234,-293.885 300.112,-257.423 392.615,-264.118 440.855,-271.102"/>
<polygon fill="#9a32cd" stroke="#9a32cd" points="177.704,-356.753 176.774,-367.307 184.083,-359.637 177.704,-356.753"/>
<text text-anchor="middle" x="263" y="-296.885" font-family="Arial" font-size="10.00"> colors</text>
</g>
<!-- Node32 -->
<g id="node32" class="node"><title>Node32</title>
<g id="a_node32"><a xlink:href="structqtexture__s.html" target="_top" xlink:title="qtexture_s">
<polygon fill="white" stroke="black" points="650,-384.385 650,-403.385 712,-403.385 712,-384.385 650,-384.385"/>
<text text-anchor="middle" x="681" y="-391.385" font-family="Arial" font-size="10.00">qtexture_s</text>
</a>
</g>
</g>
<!-- Node11&#45;&gt;Node32 -->
<g id="edge53" class="edge"><title>Node11&#45;&gt;Node32</title>
<path fill="none" stroke="#9a32cd" stroke-dasharray="5,2" d="M206.074,-369.339C269.334,-356.595 410.552,-336.379 516,-381.885 526.388,-386.368 523.547,-395.555 534,-399.885 571.617,-415.467 619.454,-409.152 649.91,-402.272"/>
<polygon fill="#9a32cd" stroke="#9a32cd" points="204.974,-365.993 195.9,-371.462 206.404,-372.845 204.974,-365.993"/>
<text text-anchor="middle" x="362" y="-359.885" font-family="Arial" font-size="10.00"> color</text>
</g>
<!-- Node12 -->
<g id="node12" class="node"><title>Node12</title>
<g id="a_node12"><a xlink:href="classid_material.html" target="_top" xlink:title="idMaterial">
<polygon fill="white" stroke="black" points="332.5,-801.385 332.5,-820.385 391.5,-820.385 391.5,-801.385 332.5,-801.385"/>
<text text-anchor="middle" x="362" y="-808.385" font-family="Arial" font-size="10.00">idMaterial</text>
</a>
</g>
</g>
<!-- Node12&#45;&gt;Node5 -->
<g id="edge13" class="edge"><title>Node12&#45;&gt;Node5</title>
<path fill="none" stroke="#9a32cd" stroke-dasharray="5,2" d="M379.839,-793.733C391.436,-780.843 406.122,-762.158 414,-742.885 436.903,-686.854 392.176,-653.47 432,-607.885 457.466,-578.735 491.571,-614.91 516,-584.885 536.235,-560.014 527.947,-328.371 534,-296.885 543.709,-246.386 566.529,-188.88 575.887,-166.502"/>
<polygon fill="#9a32cd" stroke="#9a32cd" points="377.029,-791.614 372.768,-801.314 382.148,-796.389 377.029,-791.614"/>
<text text-anchor="middle" x="474" y="-610.885" font-family="Arial" font-size="10.00"> d_texture</text>
</g>
<!-- Node12&#45;&gt;Node17 -->
<g id="edge27" class="edge"><title>Node12&#45;&gt;Node17</title>
<path fill="none" stroke="#9a32cd" stroke-dasharray="5,2" d="M401.737,-810.885C512.803,-810.885 831.227,-810.885 938.347,-810.885"/>
<polygon fill="#9a32cd" stroke="#9a32cd" points="401.65,-807.385 391.65,-810.885 401.65,-814.385 401.65,-807.385"/>
<text text-anchor="middle" x="681" y="-813.885" font-family="Arial" font-size="10.00"> d_texture</text>
</g>
<!-- Node13 -->
<g id="node13" class="node"><title>Node13</title>
<g id="a_node13"><a xlink:href="classid_decl.html" target="_top" xlink:title="idDecl">
<polygon fill="white" stroke="black" points="150,-821.385 150,-840.385 194,-840.385 194,-821.385 150,-821.385"/>
<text text-anchor="middle" x="172" y="-828.385" font-family="Arial" font-size="10.00">idDecl</text>
</a>
</g>
</g>
<!-- Node13&#45;&gt;Node12 -->
<g id="edge14" class="edge"><title>Node13&#45;&gt;Node12</title>
<path fill="none" stroke="midnightblue" d="M204.41,-829.219C228.442,-827.773 262.378,-825.36 292,-821.885 305.253,-820.33 319.856,-818.081 332.202,-816.02"/>
<polygon fill="midnightblue" stroke="midnightblue" points="203.897,-825.743 194.117,-829.816 204.302,-832.731 203.897,-825.743"/>
</g>
<!-- Node14 -->
<g id="node14" class="node"><title>Node14</title>
<g id="a_node14"><a xlink:href="classid_decl_base.html" target="_top" xlink:title="idDeclBase">
<polygon fill="white" stroke="black" points="0,-821.385 0,-840.385 66,-840.385 66,-821.385 0,-821.385"/>
<text text-anchor="middle" x="33" y="-828.385" font-family="Arial" font-size="10.00">idDeclBase</text>
</a>
</g>
</g>
<!-- Node14&#45;&gt;Node13 -->
<g id="edge15" class="edge"><title>Node14&#45;&gt;Node13</title>
<path fill="none" stroke="#9a32cd" stroke-dasharray="5,2" d="M76.1985,-830.885C100.566,-830.885 130.168,-830.885 149.741,-830.885"/>
<polygon fill="#9a32cd" stroke="#9a32cd" points="76.1204,-827.385 66.1204,-830.885 76.1204,-834.385 76.1204,-827.385"/>
<text text-anchor="middle" x="97" y="-833.885" font-family="Arial" font-size="10.00"> base</text>
</g>
<!-- Node15 -->
<g id="node15" class="node"><title>Node15</title>
<g id="a_node15"><a xlink:href="classid_render_model.html" target="_top" xlink:title="idRenderModel">
<polygon fill="white" stroke="black" points="131.5,-753.385 131.5,-772.385 212.5,-772.385 212.5,-753.385 131.5,-753.385"/>
<text text-anchor="middle" x="172" y="-760.385" font-family="Arial" font-size="10.00">idRenderModel</text>
</a>
</g>
</g>
<!-- Node15&#45;&gt;Node4 -->
<g id="edge18" class="edge"><title>Node15&#45;&gt;Node4</title>
<path fill="none" stroke="#9a32cd" stroke-dasharray="5,2" d="M194.346,-778.323C205.561,-785.486 219.882,-793.216 234,-796.885 258.949,-803.368 266.458,-800.366 292,-796.885 300.227,-795.764 301.942,-793.886 310,-791.885 489.285,-747.369 535.644,-742.842 716,-702.885 729.965,-699.791 745.56,-696.302 758.188,-693.468"/>
<polygon fill="#9a32cd" stroke="#9a32cd" points="195.982,-775.206 185.728,-772.54 192.082,-781.018 195.982,-775.206"/>
<text text-anchor="middle" x="474" y="-764.885" font-family="Arial" font-size="10.00"> modelHandle</text>
</g>
<!-- Node15&#45;&gt;Node21 -->
<g id="edge33" class="edge"><title>Node15&#45;&gt;Node21</title>
<path fill="none" stroke="#9a32cd" stroke-dasharray="5,2" d="M199.991,-748.289C229.521,-732.294 274.929,-707.615 292,-697.885 310.401,-687.397 331.276,-674.909 345.2,-666.494"/>
<polygon fill="#9a32cd" stroke="#9a32cd" points="198.145,-745.308 191.017,-753.147 201.478,-751.464 198.145,-745.308"/>
<text text-anchor="middle" x="263" y="-742.885" font-family="Arial" font-size="10.00"> entityModel</text>
<text text-anchor="middle" x="263" y="-731.885" font-family="Arial" font-size="10.00">modelHandle</text>
</g>
<!-- Node16 -->
<g id="node16" class="node"><title>Node16</title>
<g id="a_node16"><a xlink:href="classid_dict.html" target="_top" xlink:title="idDict">
<polygon fill="white" stroke="black" points="151.5,-910.385 151.5,-929.385 192.5,-929.385 192.5,-910.385 151.5,-910.385"/>
<text text-anchor="middle" x="172" y="-917.385" font-family="Arial" font-size="10.00">idDict</text>
</a>
</g>
</g>
<!-- Node16&#45;&gt;Node2 -->
<g id="edge41" class="edge"><title>Node16&#45;&gt;Node2</title>
<path fill="none" stroke="#9a32cd" stroke-dasharray="5,2" d="M202.784,-917.778C249.708,-913.529 342.823,-901.29 414,-867.885 466.155,-843.407 479.969,-832.841 516,-787.885 548.73,-747.047 569.796,-686.716 577.115,-663.486"/>
<polygon fill="#9a32cd" stroke="#9a32cd" points="202.362,-914.301 192.692,-918.632 202.952,-921.276 202.362,-914.301"/>
<text text-anchor="middle" x="362" y="-903.885" font-family="Arial" font-size="10.00"> epairs</text>
</g>
<!-- Node16&#45;&gt;Node4 -->
<g id="edge20" class="edge"><title>Node16&#45;&gt;Node4</title>
<path fill="none" stroke="#9a32cd" stroke-dasharray="5,2" d="M202.658,-924.242C291.996,-935.61 561.856,-956.835 716,-825.885 757.812,-790.364 775.717,-722.652 781.116,-697.556"/>
<polygon fill="#9a32cd" stroke="#9a32cd" points="203.052,-920.764 192.677,-922.916 202.129,-927.703 203.052,-920.764"/>
<text text-anchor="middle" x="474" y="-930.885" font-family="Arial" font-size="10.00"> epairs</text>
</g>
<!-- Node16&#45;&gt;Node17 -->
<g id="edge26" class="edge"><title>Node16&#45;&gt;Node17</title>
<path fill="none" stroke="#9a32cd" stroke-dasharray="5,2" d="M202.016,-933.172C238.372,-948.578 302.961,-971.885 361,-971.885 361,-971.885 361,-971.885 785,-971.885 878.966,-971.885 949.951,-855.134 968.954,-820.474"/>
<polygon fill="#9a32cd" stroke="#9a32cd" points="203.106,-929.83 192.539,-929.062 200.321,-936.252 203.106,-929.83"/>
<text text-anchor="middle" x="581" y="-974.885" font-family="Arial" font-size="10.00"> epairs</text>
</g>
<!-- Node16&#45;&gt;Node21 -->
<g id="edge36" class="edge"><title>Node16&#45;&gt;Node21</title>
<path fill="none" stroke="#9a32cd" stroke-dasharray="5,2" d="M199.061,-904.579C205.32,-899.887 211.491,-894.256 216,-887.885 231.594,-865.855 221.773,-853.947 234,-829.885 253.571,-791.372 271.191,-789.744 292,-751.885 302.774,-732.282 297.542,-723.463 310,-704.885 320.294,-689.535 336.343,-675.491 347.684,-666.614"/>
<polygon fill="#9a32cd" stroke="#9a32cd" points="196.881,-901.831 190.619,-910.377 200.844,-907.601 196.881,-901.831"/>
<text text-anchor="middle" x="263" y="-843.885" font-family="Arial" font-size="10.00"> defArgs</text>
<text text-anchor="middle" x="263" y="-832.885" font-family="Arial" font-size="10.00">args</text>
</g>
<!-- Node17&#45;&gt;Node4 -->
<g id="edge21" class="edge"><title>Node17&#45;&gt;Node4</title>
<path fill="none" stroke="#9a32cd" stroke-dasharray="5,2" d="M950.546,-795.621C911.088,-769.942 832.539,-718.823 799.831,-697.537"/>
<polygon fill="#9a32cd" stroke="#9a32cd" points="948.948,-798.757 959.238,-801.278 952.766,-792.89 948.948,-798.757"/>
<text text-anchor="middle" x="886" y="-776.885" font-family="Arial" font-size="10.00"> pPatch</text>
</g>
<!-- Node18&#45;&gt;Node17 -->
<g id="edge23" class="edge"><title>Node18&#45;&gt;Node17</title>
<path fill="none" stroke="#9a32cd" stroke-dasharray="5,2" d="M404.093,-850.056C496.737,-852.056 728.736,-853.472 920,-824.885 927.088,-823.825 934.591,-822.209 941.675,-820.445"/>
<polygon fill="#9a32cd" stroke="#9a32cd" points="404.091,-846.555 394.013,-849.824 403.929,-853.553 404.091,-846.555"/>
<text text-anchor="middle" x="681" y="-850.885" font-family="Arial" font-size="10.00"> verts</text>
</g>
<!-- Node19 -->
<g id="node19" class="node"><title>Node19</title>
<g id="a_node19"><a xlink:href="classid_vec2.html" target="_top" xlink:title="idVec2">
<polygon fill="white" stroke="black" points="148.5,-859.385 148.5,-878.385 195.5,-878.385 195.5,-859.385 148.5,-859.385"/>
<text text-anchor="middle" x="172" y="-866.385" font-family="Arial" font-size="10.00">idVec2</text>
</a>
</g>
</g>
<!-- Node19&#45;&gt;Node18 -->
<g id="edge24" class="edge"><title>Node19&#45;&gt;Node18</title>
<path fill="none" stroke="#9a32cd" stroke-dasharray="5,2" d="M205.827,-865.393C240.732,-861.679 295.532,-855.85 329.803,-852.204"/>
<polygon fill="#9a32cd" stroke="#9a32cd" points="205.251,-861.934 195.677,-866.472 205.991,-868.895 205.251,-861.934"/>
<text text-anchor="middle" x="263" y="-863.885" font-family="Arial" font-size="10.00"> st</text>
</g>
<!-- Node20 -->
<g id="node20" class="node"><title>Node20</title>
<g id="a_node20"><a xlink:href="classid_sound_emitter.html" target="_top" xlink:title="idSoundEmitter">
<polygon fill="white" stroke="black" points="320.5,-563.385 320.5,-582.385 403.5,-582.385 403.5,-563.385 320.5,-563.385"/>
<text text-anchor="middle" x="362" y="-570.385" font-family="Arial" font-size="10.00">idSoundEmitter</text>
</a>
</g>
</g>
<!-- Node20&#45;&gt;Node2 -->
<g id="edge28" class="edge"><title>Node20&#45;&gt;Node2</title>
<path fill="none" stroke="#9a32cd" stroke-dasharray="5,2" d="M413.974,-562.565C444.983,-558.804 484.538,-558.637 516,-573.885 546.731,-588.779 567.365,-626.332 575.762,-644.178"/>
<polygon fill="#9a32cd" stroke="#9a32cd" points="413.24,-559.133 403.81,-563.962 414.193,-566.068 413.24,-559.133"/>
<text text-anchor="middle" x="474" y="-576.885" font-family="Arial" font-size="10.00"> soundEmitter</text>
</g>
<!-- Node21&#45;&gt;Node2 -->
<g id="edge29" class="edge"><title>Node21&#45;&gt;Node2</title>
<path fill="none" stroke="#9a32cd" stroke-dasharray="5,2" d="M400.122,-656.372C444.45,-655.759 517.35,-654.751 555.3,-654.226"/>
<polygon fill="#9a32cd" stroke="#9a32cd" points="399.995,-652.873 390.044,-656.511 400.092,-659.872 399.995,-652.873"/>
<text text-anchor="middle" x="474" y="-669.885" font-family="Arial" font-size="10.00"> md3Class</text>
<text text-anchor="middle" x="474" y="-658.885" font-family="Arial" font-size="10.00">eclass</text>
</g>
<!-- Node21&#45;&gt;Node21 -->
<g id="edge34" class="edge"><title>Node21&#45;&gt;Node21</title>
<path fill="none" stroke="#9a32cd" stroke-dasharray="5,2" d="M343.853,-676.285C345.065,-681.199 351.114,-684.885 362,-684.885 379.418,-684.885 384.453,-675.45 377.105,-666.642"/>
<polygon fill="#9a32cd" stroke="#9a32cd" points="347.224,-677.232 346.895,-666.642 340.548,-675.125 347.224,-677.232"/>
<text text-anchor="middle" x="362" y="-687.885" font-family="Arial" font-size="10.00"> next</text>
</g>
<!-- Node22 -->
<g id="node22" class="node"><title>Node22</title>
<g id="a_node22"><a xlink:href="classid_str.html" target="_top" xlink:title="idStr">
<polygon fill="white" stroke="black" points="153.5,-618.385 153.5,-637.385 190.5,-637.385 190.5,-618.385 153.5,-618.385"/>
<text text-anchor="middle" x="172" y="-625.385" font-family="Arial" font-size="10.00">idStr</text>
</a>
</g>
</g>
<!-- Node22&#45;&gt;Node21 -->
<g id="edge30" class="edge"><title>Node22&#45;&gt;Node21</title>
<path fill="none" stroke="#9a32cd" stroke-dasharray="5,2" d="M200.83,-625.195C225.141,-623.537 261.252,-622.75 292,-628.885 310.003,-632.477 329.263,-640.699 342.848,-647.31"/>
<polygon fill="#9a32cd" stroke="#9a32cd" points="200.25,-621.73 190.552,-625.997 200.794,-628.709 200.25,-621.73"/>
<text text-anchor="middle" x="263" y="-664.885" font-family="Arial" font-size="10.00"> desc</text>
<text text-anchor="middle" x="263" y="-653.885" font-family="Arial" font-size="10.00">defMaterial</text>
<text text-anchor="middle" x="263" y="-642.885" font-family="Arial" font-size="10.00">name</text>
<text text-anchor="middle" x="263" y="-631.885" font-family="Arial" font-size="10.00">comments</text>
</g>
<!-- Node23 -->
<g id="node23" class="node"><title>Node23</title>
<g id="a_node23"><a xlink:href="classid_list.html" target="_top" xlink:title="idList\&lt; evar_s \&gt;">
<polygon fill="white" stroke="black" points="129,-685.385 129,-704.385 215,-704.385 215,-685.385 129,-685.385"/>
<text text-anchor="middle" x="172" y="-692.385" font-family="Arial" font-size="10.00">idList&lt; evar_s &gt;</text>
</a>
</g>
</g>
<!-- Node23&#45;&gt;Node21 -->
<g id="edge32" class="edge"><title>Node23&#45;&gt;Node21</title>
<path fill="none" stroke="#9a32cd" stroke-dasharray="5,2" d="M225.155,-685.768C245.987,-681.989 270.17,-677.431 292,-672.885 305.844,-670.002 321.175,-666.48 333.862,-663.475"/>
<polygon fill="#9a32cd" stroke="#9a32cd" points="224.443,-682.34 215.222,-687.557 225.684,-689.229 224.443,-682.34"/>
<text text-anchor="middle" x="263" y="-685.885" font-family="Arial" font-size="10.00"> vars</text>
</g>
<!-- Node24 -->
<g id="node24" class="node"><title>Node24</title>
<g id="a_node24"><a xlink:href="classid_curve.html" target="_top" xlink:title="idCurve\&lt; idVec3 \&gt;">
<polygon fill="white" stroke="black" points="314,-601.385 314,-620.385 410,-620.385 410,-601.385 314,-601.385"/>
<text text-anchor="middle" x="362" y="-608.385" font-family="Arial" font-size="10.00">idCurve&lt; idVec3 &gt;</text>
</a>
</g>
</g>
<!-- Node24&#45;&gt;Node2 -->
<g id="edge37" class="edge"><title>Node24&#45;&gt;Node2</title>
<path fill="none" stroke="#9a32cd" stroke-dasharray="5,2" d="M420.168,-621.327C448.952,-626.685 484.366,-633.428 516,-639.885 529.039,-642.546 543.527,-645.699 555.417,-648.339"/>
<polygon fill="#9a32cd" stroke="#9a32cd" points="420.751,-617.876 410.28,-619.493 419.474,-624.758 420.751,-617.876"/>
<text text-anchor="middle" x="474" y="-642.885" font-family="Arial" font-size="10.00"> curve</text>
</g>
<!-- Node25 -->
<g id="node25" class="node"><title>Node25</title>
<g id="a_node25"><a xlink:href="classid_list.html" target="_top" xlink:title="idList\&lt; float \&gt;">
<polygon fill="white" stroke="black" points="134,-436.385 134,-455.385 210,-455.385 210,-436.385 134,-436.385"/>
<text text-anchor="middle" x="172" y="-443.385" font-family="Arial" font-size="10.00">idList&lt; float &gt;</text>
</a>
</g>
</g>
<!-- Node25&#45;&gt;Node24 -->
<g id="edge38" class="edge"><title>Node25&#45;&gt;Node24</title>
<path fill="none" stroke="#9a32cd" stroke-dasharray="5,2" d="M220.428,-435.58C244.81,-433.203 273.258,-435.412 292,-452.885 337.563,-495.364 271.244,-543.115 310,-591.885 313.057,-595.732 316.976,-598.799 321.281,-601.246"/>
<polygon fill="#9a32cd" stroke="#9a32cd" points="219.757,-432.137 210.267,-436.849 220.624,-439.083 219.757,-432.137"/>
<text text-anchor="middle" x="263" y="-455.885" font-family="Arial" font-size="10.00"> times</text>
</g>
<!-- Node26 -->
<g id="node26" class="node"><title>Node26</title>
<g id="a_node26"><a xlink:href="classid_list.html" target="_top" xlink:title="idList\&lt; idVec3 \&gt;">
<polygon fill="white" stroke="black" points="128,-474.385 128,-493.385 216,-493.385 216,-474.385 128,-474.385"/>
<text text-anchor="middle" x="172" y="-481.385" font-family="Arial" font-size="10.00">idList&lt; idVec3 &gt;</text>
</a>
</g>
</g>
<!-- Node26&#45;&gt;Node24 -->
<g id="edge39" class="edge"><title>Node26&#45;&gt;Node24</title>
<path fill="none" stroke="#9a32cd" stroke-dasharray="5,2" d="M210.613,-471.92C236.458,-466.224 269.956,-464.182 292,-482.885 329.441,-514.65 278.787,-553.983 310,-591.885 313.183,-595.751 317.235,-598.83 321.658,-601.283"/>
<polygon fill="#9a32cd" stroke="#9a32cd" points="209.644,-468.554 200.77,-474.341 211.316,-475.351 209.644,-468.554"/>
<text text-anchor="middle" x="263" y="-485.885" font-family="Arial" font-size="10.00"> values</text>
</g>
<!-- Node27 -->
<g id="node27" class="node"><title>Node27</title>
<g id="a_node27"><a xlink:href="classid_render_world.html" target="_top" xlink:title="idRenderWorld">
<polygon fill="white" stroke="black" points="744,-231.385 744,-250.385 824,-250.385 824,-231.385 744,-231.385"/>
<text text-anchor="middle" x="784" y="-238.385" font-family="Arial" font-size="10.00">idRenderWorld</text>
</a>
</g>
</g>
<!-- Node27&#45;&gt;Node1 -->
<g id="edge43" class="edge"><title>Node27&#45;&gt;Node1</title>
<path fill="none" stroke="#9a32cd" stroke-dasharray="5,2" d="M834.206,-245.449C859.801,-247.867 891.594,-250.939 920,-253.885 926.099,-254.517 932.581,-255.215 938.86,-255.905"/>
<polygon fill="#9a32cd" stroke="#9a32cd" points="834.289,-241.941 824.005,-244.489 833.633,-248.91 834.289,-241.941"/>
<text text-anchor="middle" x="886" y="-256.885" font-family="Arial" font-size="10.00"> rw</text>
</g>
<!-- Node28&#45;&gt;Node1 -->
<g id="edge44" class="edge"><title>Node28&#45;&gt;Node1</title>
<path fill="none" stroke="#9a32cd" stroke-dasharray="5,2" d="M517.196,-276.665C596.277,-276.049 772.15,-273.714 920,-264.885 926.109,-264.52 932.597,-264.018 938.878,-263.472"/>
<polygon fill="#9a32cd" stroke="#9a32cd" points="517.115,-273.165 507.141,-276.738 517.166,-280.165 517.115,-273.165"/>
<text text-anchor="middle" x="681" y="-277.885" font-family="Arial" font-size="10.00"> d_savedinfo</text>
</g>
<!-- Node29 -->
<g id="node29" class="node"><title>Node29</title>
<g id="a_node29"><a xlink:href="classid_point_list_interface.html" target="_top" xlink:title="idPointListInterface">
<polygon fill="white" stroke="black" points="734.5,-67.3849 734.5,-86.3849 833.5,-86.3849 833.5,-67.3849 734.5,-67.3849"/>
<text text-anchor="middle" x="784" y="-74.3849" font-family="Arial" font-size="10.00">idPointListInterface</text>
</a>
</g>
</g>
<!-- Node29&#45;&gt;Node1 -->
<g id="edge47" class="edge"><title>Node29&#45;&gt;Node1</title>
<path fill="none" stroke="#9a32cd" stroke-dasharray="5,2" d="M843.947,-72.9627C869.928,-74.2759 899.209,-80.3132 920,-97.8849 967.776,-138.264 973.48,-222.133 974.01,-250.371"/>
<polygon fill="#9a32cd" stroke="#9a32cd" points="843.899,-69.46 833.803,-72.6735 843.699,-76.4572 843.899,-69.46"/>
<text text-anchor="middle" x="886" y="-100.885" font-family="Arial" font-size="10.00"> selectObject</text>
</g>
<!-- Node30 -->
<g id="node30" class="node"><title>Node30</title>
<g id="a_node30"><a xlink:href="classid_list.html" target="_top" xlink:title="idList\&lt; int \&gt;">
<polygon fill="white" stroke="black" points="547,-32.3849 547,-51.3849 615,-51.3849 615,-32.3849 547,-32.3849"/>
<text text-anchor="middle" x="581" y="-39.3849" font-family="Arial" font-size="10.00">idList&lt; int &gt;</text>
</a>
</g>
</g>
<!-- Node30&#45;&gt;Node29 -->
<g id="edge48" class="edge"><title>Node30&#45;&gt;Node29</title>
<path fill="none" stroke="#9a32cd" stroke-dasharray="5,2" d="M625.165,-49.4012C657.237,-54.9859 701.016,-62.609 734.331,-68.4103"/>
<polygon fill="#9a32cd" stroke="#9a32cd" points="625.643,-45.9319 615.191,-47.6645 624.442,-52.8281 625.643,-45.9319"/>
<text text-anchor="middle" x="681" y="-67.8849" font-family="Arial" font-size="10.00"> selectedPoints</text>
</g>
<!-- Node31&#45;&gt;Node1 -->
<g id="edge49" class="edge"><title>Node31&#45;&gt;Node1</title>
<path fill="none" stroke="#9a32cd" stroke-dasharray="5,2" d="M819.714,-158.97C848.633,-157.433 889.822,-159.401 920,-177.885 947.909,-194.979 964.329,-232.557 970.795,-250.278"/>
<polygon fill="#9a32cd" stroke="#9a32cd" points="819.39,-155.484 809.657,-159.67 819.876,-162.467 819.39,-155.484"/>
<text text-anchor="middle" x="886" y="-180.885" font-family="Arial" font-size="10.00"> d_edges</text>
</g>
<!-- Node32&#45;&gt;Node1 -->
<g id="edge51" class="edge"><title>Node32&#45;&gt;Node1</title>
<path fill="none" stroke="#9a32cd" stroke-dasharray="5,2" d="M722.152,-400.403C772.96,-406.391 860.952,-408.978 920,-367.885 954.413,-343.936 968.015,-291.489 972.319,-269.69"/>
<polygon fill="#9a32cd" stroke="#9a32cd" points="722.565,-396.927 712.201,-399.13 721.676,-403.871 722.565,-396.927"/>
<text text-anchor="middle" x="784" y="-406.885" font-family="Arial" font-size="10.00"> d_qtextures</text>
</g>
<!-- Node32&#45;&gt;Node32 -->
<g id="edge52" class="edge"><title>Node32&#45;&gt;Node32</title>
<path fill="none" stroke="#9a32cd" stroke-dasharray="5,2" d="M662.482,-413.285C663.719,-418.199 669.892,-421.885 681,-421.885 698.773,-421.885 703.911,-412.45 696.413,-403.642"/>
<polygon fill="#9a32cd" stroke="#9a32cd" points="665.854,-414.233 665.587,-403.642 659.191,-412.088 665.854,-414.233"/>
<text text-anchor="middle" x="681" y="-424.885" font-family="Arial" font-size="10.00"> next</text>
</g>
<!-- Node33 -->
<g id="node33" class="node"><title>Node33</title>
<g id="a_node33"><a xlink:href="classid_sound_world.html" target="_top" xlink:title="idSoundWorld">
<polygon fill="white" stroke="black" points="745.5,-29.3849 745.5,-48.3849 822.5,-48.3849 822.5,-29.3849 745.5,-29.3849"/>
<text text-anchor="middle" x="784" y="-36.3849" font-family="Arial" font-size="10.00">idSoundWorld</text>
</a>
</g>
</g>
<!-- Node33&#45;&gt;Node1 -->
<g id="edge54" class="edge"><title>Node33&#45;&gt;Node1</title>
<path fill="none" stroke="#9a32cd" stroke-dasharray="5,2" d="M832.732,-33.7762C861.347,-33.3965 896.601,-38.0413 920,-58.8849 949.544,-85.2025 968.059,-213.59 972.793,-250.152"/>
<polygon fill="#9a32cd" stroke="#9a32cd" points="832.4,-30.2853 822.525,-34.1227 832.638,-37.2813 832.4,-30.2853"/>
<text text-anchor="middle" x="886" y="-61.8849" font-family="Arial" font-size="10.00"> sw</text>
</g>
<!-- Node34&#45;&gt;Node1 -->
<g id="edge55" class="edge"><title>Node34&#45;&gt;Node1</title>
<path fill="none" stroke="#9a32cd" stroke-dasharray="5,2" d="M625.912,-84.9241C706.73,-94.9647 874.895,-119.663 920,-155.885 951.408,-181.107 966.535,-229.527 971.777,-250.173"/>
<polygon fill="#9a32cd" stroke="#9a32cd" points="625.925,-81.3996 615.574,-83.6606 625.076,-88.3479 625.925,-81.3996"/>
<text text-anchor="middle" x="784" y="-123.885" font-family="Arial" font-size="10.00"> d_texturewin</text>
</g>
<!-- Node35 -->
<g id="node35" class="node"><title>Node35</title>
<g id="a_node35"><a xlink:href="struct_m_r_u_m_e_n_u.html" target="_top" xlink:title="MRUMENU">
<polygon fill="white" stroke="black" points="750.5,-345.385 750.5,-364.385 817.5,-364.385 817.5,-345.385 750.5,-345.385"/>
<text text-anchor="middle" x="784" y="-352.385" font-family="Arial" font-size="10.00">MRUMENU</text>
</a>
</g>
</g>
<!-- Node35&#45;&gt;Node1 -->
<g id="edge58" class="edge"><title>Node35&#45;&gt;Node1</title>
<path fill="none" stroke="#9a32cd" stroke-dasharray="5,2" d="M827.898,-355.135C855.937,-353.487 892.348,-347.772 920,-330.885 944.583,-315.872 961.95,-285.194 969.61,-269.54"/>
<polygon fill="#9a32cd" stroke="#9a32cd" points="827.436,-351.652 817.598,-355.583 827.74,-358.645 827.436,-351.652"/>
<text text-anchor="middle" x="886" y="-355.885" font-family="Arial" font-size="10.00"> d_lpMruMenu</text>
</g>
</g>
</svg>
