<?xml version="1.0" encoding="UTF-8" standalone="no"?>
<!DOCTYPE svg PUBLIC "-//W3C//DTD SVG 1.1//EN"
 "http://www.w3.org/Graphics/SVG/1.1/DTD/svg11.dtd">
<!-- Generated by graphviz version 2.34.0 (20130907.0111)
 -->
<!-- Title: pedge_t Pages: 1 -->
<svg width="489pt" height="334pt"
 viewBox="0.00 0.00 489.00 334.00" xmlns="http://www.w3.org/2000/svg" xmlns:xlink="http://www.w3.org/1999/xlink">
<g id="graph0" class="graph" transform="scale(1 1) rotate(0) translate(4 330)">
<title>pedge_t</title>
<polygon fill="white" stroke="white" points="-4,4 -4,-330 485,-330 485,4 -4,4"/>
<!-- Node1 -->
<g id="node1" class="node"><title>Node1</title>
<polygon fill="#bfbfbf" stroke="black" points="235.5,-0.5 235.5,-19.5 286.5,-19.5 286.5,-0.5 235.5,-0.5"/>
<text text-anchor="middle" x="261" y="-7.5" font-family="Arial" font-size="10.00">pedge_t</text>
</g>
<!-- Node2 -->
<g id="node2" class="node"><title>Node2</title>
<g id="a_node2"><a xlink:href="structface__s.html" target="_top" xlink:title="face_s">
<polygon fill="white" stroke="black" points="238.5,-79.5 238.5,-98.5 283.5,-98.5 283.5,-79.5 238.5,-79.5"/>
<text text-anchor="middle" x="261" y="-86.5" font-family="Arial" font-size="10.00">face_s</text>
</a>
</g>
</g>
<!-- Node2&#45;&gt;Node1 -->
<g id="edge1" class="edge"><title>Node2&#45;&gt;Node1</title>
<path fill="none" stroke="#9a32cd" stroke-dasharray="5,2" d="M261,-69.3145C261,-53.5917 261,-31.8079 261,-19.8094"/>
<polygon fill="#9a32cd" stroke="#9a32cd" points="257.5,-69.4654 261,-79.4655 264.5,-69.4655 257.5,-69.4654"/>
<text text-anchor="middle" x="266.5" y="-52" font-family="Arial" font-size="10.00"> f1</text>
<text text-anchor="middle" x="266.5" y="-41" font-family="Arial" font-size="10.00">f2</text>
</g>
<!-- Node2&#45;&gt;Node2 -->
<g id="edge2" class="edge"><title>Node2&#45;&gt;Node2</title>
<path fill="none" stroke="#9a32cd" stroke-dasharray="5,2" d="M293.596,-95.6659C298.038,-94.5545 301,-92.3325 301,-89 301,-83.5313 293.025,-81.0532 283.616,-81.5659"/>
<polygon fill="#9a32cd" stroke="#9a32cd" points="293.318,-92.1768 283.616,-96.4341 293.856,-99.1561 293.318,-92.1768"/>
<text text-anchor="middle" x="318" y="-92" font-family="Arial" font-size="10.00"> original</text>
<text text-anchor="middle" x="318" y="-81" font-family="Arial" font-size="10.00">next</text>
</g>
<!-- Node3 -->
<g id="node3" class="node"><title>Node3</title>
<g id="a_node3"><a xlink:href="classid_winding.html" target="_top" xlink:title="idWinding">
<polygon fill="white" stroke="black" points="-0.5,-170.5 -0.5,-189.5 58.5,-189.5 58.5,-170.5 -0.5,-170.5"/>
<text text-anchor="middle" x="29" y="-177.5" font-family="Arial" font-size="10.00">idWinding</text>
</a>
</g>
</g>
<!-- Node3&#45;&gt;Node2 -->
<g id="edge3" class="edge"><title>Node3&#45;&gt;Node2</title>
<path fill="none" stroke="#9a32cd" stroke-dasharray="5,2" d="M35.1941,-160.594C40.9164,-146.568 50.8497,-128.015 66,-118 93.9606,-99.5171 193.412,-92.9231 238.494,-90.8474"/>
<polygon fill="#9a32cd" stroke="#9a32cd" points="31.8195,-159.628 31.6223,-170.221 38.3824,-162.063 31.8195,-159.628"/>
<text text-anchor="middle" x="95.5" y="-132.5" font-family="Arial" font-size="10.00"> face_winding</text>
</g>
<!-- Node4 -->
<g id="node4" class="node"><title>Node4</title>
<g id="a_node4"><a xlink:href="classid_vec5.html" target="_top" xlink:title="idVec5">
<polygon fill="white" stroke="black" points="5.5,-238.5 5.5,-257.5 52.5,-257.5 52.5,-238.5 5.5,-238.5"/>
<text text-anchor="middle" x="29" y="-245.5" font-family="Arial" font-size="10.00">idVec5</text>
</a>
</g>
</g>
<!-- Node4&#45;&gt;Node3 -->
<g id="edge4" class="edge"><title>Node4&#45;&gt;Node3</title>
<path fill="none" stroke="#9a32cd" stroke-dasharray="5,2" d="M29,-228.041C29,-215.472 29,-199.563 29,-189.841"/>
<polygon fill="#9a32cd" stroke="#9a32cd" points="25.5001,-228.372 29,-238.372 32.5001,-228.372 25.5001,-228.372"/>
<text text-anchor="middle" x="33.5" y="-211.5" font-family="Arial" font-size="10.00"> p</text>
</g>
<!-- Node5 -->
<g id="node5" class="node"><title>Node5</title>
<g id="a_node5"><a xlink:href="classbrushprimit__texdef__t.html" target="_top" xlink:title="brushprimit_texdef_t">
<polygon fill="white" stroke="black" points="77,-170.5 77,-189.5 181,-189.5 181,-170.5 77,-170.5"/>
<text text-anchor="middle" x="129" y="-177.5" font-family="Arial" font-size="10.00">brushprimit_texdef_t</text>
</a>
</g>
</g>
<!-- Node5&#45;&gt;Node2 -->
<g id="edge5" class="edge"><title>Node5&#45;&gt;Node2</title>
<path fill="none" stroke="#9a32cd" stroke-dasharray="5,2" d="M128.037,-160.073C128.412,-146.6 131.229,-129.001 142,-118 155.215,-104.503 207.585,-96.2384 238.27,-92.4551"/>
<polygon fill="#9a32cd" stroke="#9a32cd" points="124.539,-160.234 128.175,-170.186 131.538,-160.139 124.539,-160.234"/>
<text text-anchor="middle" x="183.5" y="-132.5" font-family="Arial" font-size="10.00"> brushprimit_texdef</text>
</g>
<!-- Node6 -->
<g id="node6" class="node"><title>Node6</title>
<g id="a_node6"><a xlink:href="classtexdef__t.html" target="_top" xlink:title="texdef_t">
<polygon fill="white" stroke="black" points="203.5,-170.5 203.5,-189.5 254.5,-189.5 254.5,-170.5 203.5,-170.5"/>
<text text-anchor="middle" x="229" y="-177.5" font-family="Arial" font-size="10.00">texdef_t</text>
</a>
</g>
</g>
<!-- Node6&#45;&gt;Node2 -->
<g id="edge6" class="edge"><title>Node6&#45;&gt;Node2</title>
<path fill="none" stroke="#9a32cd" stroke-dasharray="5,2" d="M228.261,-160.153C228.457,-147.685 230.056,-131.255 236,-118 239.36,-110.508 245.469,-103.608 250.806,-98.5319"/>
<polygon fill="#9a32cd" stroke="#9a32cd" points="224.763,-160.33 228.391,-170.284 231.762,-160.24 224.763,-160.33"/>
<text text-anchor="middle" x="251" y="-132.5" font-family="Arial" font-size="10.00"> texdef</text>
</g>
<!-- Node7 -->
<g id="node7" class="node"><title>Node7</title>
<g id="a_node7"><a xlink:href="classid_plane.html" target="_top" xlink:title="idPlane">
<polygon fill="white" stroke="black" points="272.5,-170.5 272.5,-189.5 321.5,-189.5 321.5,-170.5 272.5,-170.5"/>
<text text-anchor="middle" x="297" y="-177.5" font-family="Arial" font-size="10.00">idPlane</text>
</a>
</g>
</g>
<!-- Node7&#45;&gt;Node2 -->
<g id="edge7" class="edge"><title>Node7&#45;&gt;Node2</title>
<path fill="none" stroke="#9a32cd" stroke-dasharray="5,2" d="M289.778,-161.145C282.111,-142.191 270.315,-113.028 264.494,-98.6386"/>
<polygon fill="#9a32cd" stroke="#9a32cd" points="286.554,-162.508 293.548,-170.466 293.043,-159.884 286.554,-162.508"/>
<text text-anchor="middle" x="314" y="-138" font-family="Arial" font-size="10.00"> plane</text>
<text text-anchor="middle" x="314" y="-127" font-family="Arial" font-size="10.00">originalPlane</text>
</g>
<!-- Node8 -->
<g id="node8" class="node"><title>Node8</title>
<g id="a_node8"><a xlink:href="classid_vec3.html" target="_top" xlink:title="idVec3">
<polygon fill="white" stroke="black" points="343.5,-170.5 343.5,-189.5 390.5,-189.5 390.5,-170.5 343.5,-170.5"/>
<text text-anchor="middle" x="367" y="-177.5" font-family="Arial" font-size="10.00">idVec3</text>
</a>
</g>
</g>
<!-- Node8&#45;&gt;Node2 -->
<g id="edge8" class="edge"><title>Node8&#45;&gt;Node2</title>
<path fill="none" stroke="#9a32cd" stroke-dasharray="5,2" d="M364.614,-160.179C361.973,-146.759 356.456,-129.18 345,-118 328.498,-101.895 302.495,-95.0503 283.791,-92.1428"/>
<polygon fill="#9a32cd" stroke="#9a32cd" points="361.188,-160.921 366.224,-170.243 368.101,-159.816 361.188,-160.921"/>
<text text-anchor="middle" x="388.5" y="-143.5" font-family="Arial" font-size="10.00"> planepts</text>
<text text-anchor="middle" x="388.5" y="-132.5" font-family="Arial" font-size="10.00">d_color</text>
<text text-anchor="middle" x="388.5" y="-121.5" font-family="Arial" font-size="10.00">orgplanepts</text>
</g>
<!-- Node9 -->
<g id="node9" class="node"><title>Node9</title>
<g id="a_node9"><a xlink:href="classid_material.html" target="_top" xlink:title="idMaterial">
<polygon fill="white" stroke="black" points="411.5,-170.5 411.5,-189.5 470.5,-189.5 470.5,-170.5 411.5,-170.5"/>
<text text-anchor="middle" x="441" y="-177.5" font-family="Arial" font-size="10.00">idMaterial</text>
</a>
</g>
</g>
<!-- Node9&#45;&gt;Node2 -->
<g id="edge9" class="edge"><title>Node9&#45;&gt;Node2</title>
<path fill="none" stroke="#9a32cd" stroke-dasharray="5,2" d="M438.829,-160.099C436.225,-146.353 430.513,-128.398 418,-118 397.93,-101.322 322.294,-94.024 283.803,-91.3349"/>
<polygon fill="#9a32cd" stroke="#9a32cd" points="435.428,-161.023 440.366,-170.397 442.352,-159.99 435.428,-161.023"/>
<text text-anchor="middle" x="459" y="-132.5" font-family="Arial" font-size="10.00"> d_texture</text>
</g>
<!-- Node10 -->
<g id="node10" class="node"><title>Node10</title>
<g id="a_node10"><a xlink:href="classid_decl.html" target="_top" xlink:title="idDecl">
<polygon fill="white" stroke="black" points="419,-238.5 419,-257.5 463,-257.5 463,-238.5 419,-238.5"/>
<text text-anchor="middle" x="441" y="-245.5" font-family="Arial" font-size="10.00">idDecl</text>
</a>
</g>
</g>
<!-- Node10&#45;&gt;Node9 -->
<g id="edge10" class="edge"><title>Node10&#45;&gt;Node9</title>
<path fill="none" stroke="midnightblue" d="M441,-228.041C441,-215.472 441,-199.563 441,-189.841"/>
<polygon fill="midnightblue" stroke="midnightblue" points="437.5,-228.372 441,-238.372 444.5,-228.372 437.5,-228.372"/>
</g>
<!-- Node11 -->
<g id="node11" class="node"><title>Node11</title>
<g id="a_node11"><a xlink:href="classid_decl_base.html" target="_top" xlink:title="idDeclBase">
<polygon fill="white" stroke="black" points="408,-306.5 408,-325.5 474,-325.5 474,-306.5 408,-306.5"/>
<text text-anchor="middle" x="441" y="-313.5" font-family="Arial" font-size="10.00">idDeclBase</text>
</a>
</g>
</g>
<!-- Node11&#45;&gt;Node10 -->
<g id="edge11" class="edge"><title>Node11&#45;&gt;Node10</title>
<path fill="none" stroke="#9a32cd" stroke-dasharray="5,2" d="M441,-296.041C441,-283.472 441,-267.563 441,-257.841"/>
<polygon fill="#9a32cd" stroke="#9a32cd" points="437.5,-296.372 441,-306.372 444.5,-296.372 437.5,-296.372"/>
<text text-anchor="middle" x="453.5" y="-279.5" font-family="Arial" font-size="10.00"> base</text>
</g>
</g>
</svg>
