<?xml version="1.0" encoding="UTF-8" standalone="no"?>
<!DOCTYPE svg PUBLIC "-//W3C//DTD SVG 1.1//EN"
 "http://www.w3.org/Graphics/SVG/1.1/DTD/svg11.dtd">
<!-- Generated by graphviz version 2.34.0 (20130907.0111)
 -->
<!-- Title: HTTP Pages: 1 -->
<svg width="278pt" height="164pt"
 viewBox="0.00 0.00 278.00 164.00" xmlns="http://www.w3.org/2000/svg" xmlns:xlink="http://www.w3.org/1999/xlink">
<g id="graph0" class="graph" transform="scale(1 1) rotate(0) translate(4 160)">
<title>HTTP</title>
<polygon fill="white" stroke="white" points="-4,4 -4,-160 274,-160 274,4 -4,4"/>
<!-- Node1 -->
<g id="node1" class="node"><title>Node1</title>
<polygon fill="#bfbfbf" stroke="black" points="100.5,-0.5 100.5,-19.5 141.5,-19.5 141.5,-0.5 100.5,-0.5"/>
<text text-anchor="middle" x="121" y="-7.5" font-family="Arial" font-size="10.00">HTTP</text>
</g>
<!-- Node2 -->
<g id="node2" class="node"><title>Node2</title>
<g id="a_node2"><a xlink:href="struct_form.html" target="_top" xlink:title="Form">
<polygon fill="white" stroke="black" points="52.5,-68.5 52.5,-87.5 91.5,-87.5 91.5,-68.5 52.5,-68.5"/>
<text text-anchor="middle" x="72" y="-75.5" font-family="Arial" font-size="10.00">Form</text>
</a>
</g>
</g>
<!-- Node2&#45;&gt;Node1 -->
<g id="edge1" class="edge"><title>Node2&#45;&gt;Node1</title>
<path fill="none" stroke="#9a32cd" stroke-dasharray="5,2" d="M84.391,-60.3101C93.9433,-47.4437 106.776,-30.1583 114.436,-19.8411"/>
<polygon fill="#9a32cd" stroke="#9a32cd" points="81.5567,-58.2562 78.4059,-68.3717 87.1771,-62.4289 81.5567,-58.2562"/>
<text text-anchor="middle" x="112" y="-41.5" font-family="Arial" font-size="10.00"> form</text>
</g>
<!-- Node3 -->
<g id="node3" class="node"><title>Node3</title>
<g id="a_node3"><a xlink:href="struct_form_data.html" target="_top" xlink:title="FormData">
<polygon fill="white" stroke="black" points="-0.5,-136.5 -0.5,-155.5 58.5,-155.5 58.5,-136.5 -0.5,-136.5"/>
<text text-anchor="middle" x="29" y="-143.5" font-family="Arial" font-size="10.00">FormData</text>
</a>
</g>
</g>
<!-- Node3&#45;&gt;Node1 -->
<g id="edge4" class="edge"><title>Node3&#45;&gt;Node1</title>
<path fill="none" stroke="#9a32cd" stroke-dasharray="5,2" d="M18.4993,-127.182C10.3158,-110.745 2.0239,-86.2039 13,-68 31.9388,-36.5898 74.6021,-21.6017 100.276,-15.1846"/>
<polygon fill="#9a32cd" stroke="#9a32cd" points="15.5661,-129.116 23.4075,-136.241 21.7207,-125.781 15.5661,-129.116"/>
<text text-anchor="middle" x="28" y="-75.5" font-family="Arial" font-size="10.00"> sendit</text>
</g>
<!-- Node3&#45;&gt;Node2 -->
<g id="edge2" class="edge"><title>Node3&#45;&gt;Node2</title>
<path fill="none" stroke="#9a32cd" stroke-dasharray="5,2" d="M40.1163,-127.938C48.4725,-115.112 59.5827,-98.0591 66.2399,-87.8411"/>
<polygon fill="#9a32cd" stroke="#9a32cd" points="37.1478,-126.082 34.6215,-136.372 43.0129,-129.904 37.1478,-126.082"/>
<text text-anchor="middle" x="66" y="-109.5" font-family="Arial" font-size="10.00"> data</text>
</g>
<!-- Node3&#45;&gt;Node3 -->
<g id="edge3" class="edge"><title>Node3&#45;&gt;Node3</title>
<path fill="none" stroke="#9a32cd" stroke-dasharray="5,2" d="M68.8122,-151.354C73.1814,-150.334 76,-148.549 76,-146 76,-141.816 68.4095,-139.692 58.8325,-139.627"/>
<polygon fill="#9a32cd" stroke="#9a32cd" points="68.4252,-147.875 58.8325,-152.373 69.1364,-154.839 68.4252,-147.875"/>
<text text-anchor="middle" x="87" y="-143.5" font-family="Arial" font-size="10.00"> next</text>
</g>
<!-- Node4 -->
<g id="node4" class="node"><title>Node4</title>
<g id="a_node4"><a xlink:href="struct_h_t_t_p_1_1back.html" target="_top" xlink:title="HTTP::back">
<polygon fill="white" stroke="black" points="110,-68.5 110,-87.5 178,-87.5 178,-68.5 110,-68.5"/>
<text text-anchor="middle" x="144" y="-75.5" font-family="Arial" font-size="10.00">HTTP::back</text>
</a>
</g>
</g>
<!-- Node4&#45;&gt;Node1 -->
<g id="edge5" class="edge"><title>Node4&#45;&gt;Node1</title>
<path fill="none" stroke="#9a32cd" stroke-dasharray="5,2" d="M137.66,-58.8066C133.24,-46.1244 127.538,-29.7615 124.081,-19.8411"/>
<polygon fill="#9a32cd" stroke="#9a32cd" points="134.397,-60.0804 140.993,-68.3717 141.007,-57.7768 134.397,-60.0804"/>
<text text-anchor="middle" x="152.5" y="-41.5" font-family="Arial" font-size="10.00"> backup</text>
</g>
<!-- Node5 -->
<g id="node5" class="node"><title>Node5</title>
<g id="a_node5"><a xlink:href="struct_curl__chunker.html" target="_top" xlink:title="Curl_chunker">
<polygon fill="white" stroke="black" points="196,-68.5 196,-87.5 270,-87.5 270,-68.5 196,-68.5"/>
<text text-anchor="middle" x="233" y="-75.5" font-family="Arial" font-size="10.00">Curl_chunker</text>
</a>
</g>
</g>
<!-- Node5&#45;&gt;Node1 -->
<g id="edge6" class="edge"><title>Node5&#45;&gt;Node1</title>
<path fill="none" stroke="#9a32cd" stroke-dasharray="5,2" d="M212.364,-62.5326C201.2,-54.9183 187.059,-45.6097 174,-38 162.58,-31.345 149.33,-24.595 138.935,-19.5087"/>
<polygon fill="#9a32cd" stroke="#9a32cd" points="210.381,-65.4169 220.601,-68.2111 214.354,-59.6536 210.381,-65.4169"/>
<text text-anchor="middle" x="208" y="-41.5" font-family="Arial" font-size="10.00"> chunk</text>
</g>
</g>
</svg>
