<?xml version="1.0" encoding="UTF-8" standalone="no"?>
<!DOCTYPE svg PUBLIC "-//W3C//DTD SVG 1.1//EN"
 "http://www.w3.org/Graphics/SVG/1.1/DTD/svg11.dtd">
<!-- Generated by graphviz version 2.34.0 (20130907.0111)
 -->
<!-- Title: st_lwCParam Pages: 1 -->
<svg width="487pt" height="268pt"
 viewBox="0.00 0.00 487.00 268.00" xmlns="http://www.w3.org/2000/svg" xmlns:xlink="http://www.w3.org/1999/xlink">
<g id="graph0" class="graph" transform="scale(1 1) rotate(0) translate(4 264)">
<title>st_lwCParam</title>
<polygon fill="white" stroke="white" points="-4,4 -4,-264 483,-264 483,4 -4,4"/>
<!-- Node1 -->
<g id="node1" class="node"><title>Node1</title>
<polygon fill="#bfbfbf" stroke="black" points="180,-0.5 180,-19.5 254,-19.5 254,-0.5 180,-0.5"/>
<text text-anchor="middle" x="217" y="-7.5" font-family="Arial" font-size="10.00">st_lwCParam</text>
</g>
<!-- Node2 -->
<g id="node2" class="node"><title>Node2</title>
<g id="a_node2"><a xlink:href="structst__lw_texture.html" target="_top" xlink:title="st_lwTexture">
<polygon fill="white" stroke="black" points="181.5,-69.5 181.5,-88.5 252.5,-88.5 252.5,-69.5 181.5,-69.5"/>
<text text-anchor="middle" x="217" y="-76.5" font-family="Arial" font-size="10.00">st_lwTexture</text>
</a>
</g>
</g>
<!-- Node2&#45;&gt;Node1 -->
<g id="edge1" class="edge"><title>Node2&#45;&gt;Node1</title>
<path fill="none" stroke="#9a32cd" stroke-dasharray="5,2" d="M217,-59.0183C217,-46.034 217,-29.4419 217,-19.5494"/>
<polygon fill="#9a32cd" stroke="#9a32cd" points="213.5,-59.2409 217,-69.2409 220.5,-59.241 213.5,-59.2409"/>
<text text-anchor="middle" x="225.5" y="-41.5" font-family="Arial" font-size="10.00"> tex</text>
</g>
<!-- Node2&#45;&gt;Node2 -->
<g id="edge8" class="edge"><title>Node2&#45;&gt;Node2</title>
<path fill="none" stroke="#9a32cd" stroke-dasharray="5,2" d="M262.812,-84.1507C267.212,-83.1044 270,-81.3875 270,-79 270,-75.082 262.493,-72.97 252.669,-72.6639"/>
<polygon fill="#9a32cd" stroke="#9a32cd" points="262.195,-80.6988 252.669,-85.3361 263.008,-87.6515 262.195,-80.6988"/>
<text text-anchor="middle" x="280.5" y="-82" font-family="Arial" font-size="10.00"> prev</text>
<text text-anchor="middle" x="280.5" y="-71" font-family="Arial" font-size="10.00">next</text>
</g>
<!-- Node3 -->
<g id="node3" class="node"><title>Node3</title>
<g id="a_node3"><a xlink:href="structst__lw_procedural.html" target="_top" xlink:title="st_lwProcedural">
<polygon fill="white" stroke="black" points="0,-138.5 0,-157.5 86,-157.5 86,-138.5 0,-138.5"/>
<text text-anchor="middle" x="43" y="-145.5" font-family="Arial" font-size="10.00">st_lwProcedural</text>
</a>
</g>
</g>
<!-- Node3&#45;&gt;Node2 -->
<g id="edge2" class="edge"><title>Node3&#45;&gt;Node2</title>
<path fill="none" stroke="#9a32cd" stroke-dasharray="5,2" d="M56.8262,-130.936C64.6106,-122.878 74.9681,-113.654 86,-108 116.01,-92.6191 154.051,-85.679 181.398,-82.5523"/>
<polygon fill="#9a32cd" stroke="#9a32cd" points="54.1376,-128.69 49.9697,-138.431 59.3022,-133.415 54.1376,-128.69"/>
<text text-anchor="middle" x="97" y="-111.5" font-family="Arial" font-size="10.00"> proc</text>
</g>
<!-- Node4 -->
<g id="node4" class="node"><title>Node4</title>
<g id="a_node4"><a xlink:href="structst__lw_image_map.html" target="_top" xlink:title="st_lwImageMap">
<polygon fill="white" stroke="black" points="175,-138.5 175,-157.5 259,-157.5 259,-138.5 175,-138.5"/>
<text text-anchor="middle" x="217" y="-145.5" font-family="Arial" font-size="10.00">st_lwImageMap</text>
</a>
</g>
</g>
<!-- Node4&#45;&gt;Node2 -->
<g id="edge3" class="edge"><title>Node4&#45;&gt;Node2</title>
<path fill="none" stroke="#9a32cd" stroke-dasharray="5,2" d="M217,-128.018C217,-115.034 217,-98.4419 217,-88.5494"/>
<polygon fill="#9a32cd" stroke="#9a32cd" points="213.5,-128.241 217,-138.241 220.5,-128.241 213.5,-128.241"/>
<text text-anchor="middle" x="229.5" y="-111.5" font-family="Arial" font-size="10.00"> imap</text>
</g>
<!-- Node5 -->
<g id="node5" class="node"><title>Node5</title>
<g id="a_node5"><a xlink:href="structst__lw_e_param.html" target="_top" xlink:title="st_lwEParam">
<polygon fill="white" stroke="black" points="149,-239.5 149,-258.5 223,-258.5 223,-239.5 149,-239.5"/>
<text text-anchor="middle" x="186" y="-246.5" font-family="Arial" font-size="10.00">st_lwEParam</text>
</a>
</g>
</g>
<!-- Node5&#45;&gt;Node2 -->
<g id="edge7" class="edge"><title>Node5&#45;&gt;Node2</title>
<path fill="none" stroke="#9a32cd" stroke-dasharray="5,2" d="M168.204,-232.333C146.097,-210.884 113.323,-171.244 131,-138 144.021,-113.513 172.497,-97.4982 193.123,-88.6236"/>
<polygon fill="#9a32cd" stroke="#9a32cd" points="166.051,-235.111 175.753,-239.367 170.823,-229.99 166.051,-235.111"/>
<text text-anchor="middle" x="148.5" y="-145.5" font-family="Arial" font-size="10.00"> opacity</text>
</g>
<!-- Node5&#45;&gt;Node4 -->
<g id="edge4" class="edge"><title>Node5&#45;&gt;Node4</title>
<path fill="none" stroke="#9a32cd" stroke-dasharray="5,2" d="M191.755,-229.62C198.471,-208.172 209.293,-173.613 214.299,-157.625"/>
<polygon fill="#9a32cd" stroke="#9a32cd" points="188.399,-228.625 188.751,-239.214 195.079,-230.717 188.399,-228.625"/>
<text text-anchor="middle" x="231" y="-212" font-family="Arial" font-size="10.00"> amplitude</text>
<text text-anchor="middle" x="231" y="-201" font-family="Arial" font-size="10.00">wrapw</text>
<text text-anchor="middle" x="231" y="-190" font-family="Arial" font-size="10.00">stck</text>
<text text-anchor="middle" x="231" y="-179" font-family="Arial" font-size="10.00">wraph</text>
</g>
<!-- Node6 -->
<g id="node6" class="node"><title>Node6</title>
<g id="a_node6"><a xlink:href="structst__lw_t_map.html" target="_top" xlink:title="st_lwTMap">
<polygon fill="white" stroke="black" points="277.5,-138.5 277.5,-157.5 340.5,-157.5 340.5,-138.5 277.5,-138.5"/>
<text text-anchor="middle" x="309" y="-145.5" font-family="Arial" font-size="10.00">st_lwTMap</text>
</a>
</g>
</g>
<!-- Node6&#45;&gt;Node2 -->
<g id="edge5" class="edge"><title>Node6&#45;&gt;Node2</title>
<path fill="none" stroke="#9a32cd" stroke-dasharray="5,2" d="M288.676,-132.199C270.283,-118.804 243.832,-99.541 228.739,-88.5494"/>
<polygon fill="#9a32cd" stroke="#9a32cd" points="286.829,-135.183 296.973,-138.241 290.949,-129.525 286.829,-135.183"/>
<text text-anchor="middle" x="284.5" y="-111.5" font-family="Arial" font-size="10.00"> tmap</text>
</g>
<!-- Node7 -->
<g id="node7" class="node"><title>Node7</title>
<g id="a_node7"><a xlink:href="structst__lw_v_param.html" target="_top" xlink:title="st_lwVParam">
<polygon fill="white" stroke="black" points="271,-239.5 271,-258.5 345,-258.5 345,-239.5 271,-239.5"/>
<text text-anchor="middle" x="308" y="-246.5" font-family="Arial" font-size="10.00">st_lwVParam</text>
</a>
</g>
</g>
<!-- Node7&#45;&gt;Node6 -->
<g id="edge6" class="edge"><title>Node7&#45;&gt;Node6</title>
<path fill="none" stroke="#9a32cd" stroke-dasharray="5,2" d="M308.192,-229.029C308.409,-207.543 308.753,-173.467 308.913,-157.625"/>
<polygon fill="#9a32cd" stroke="#9a32cd" points="304.69,-229.18 308.089,-239.214 311.69,-229.25 304.69,-229.18"/>
<text text-anchor="middle" x="323" y="-212" font-family="Arial" font-size="10.00"> size</text>
<text text-anchor="middle" x="323" y="-201" font-family="Arial" font-size="10.00">center</text>
<text text-anchor="middle" x="323" y="-190" font-family="Arial" font-size="10.00">falloff</text>
<text text-anchor="middle" x="323" y="-179" font-family="Arial" font-size="10.00">rotate</text>
</g>
<!-- Node8 -->
<g id="node8" class="node"><title>Node8</title>
<g id="a_node8"><a xlink:href="structst__lw_gradient.html" target="_top" xlink:title="st_lwGradient">
<polygon fill="white" stroke="black" points="360,-138.5 360,-157.5 436,-157.5 436,-138.5 360,-138.5"/>
<text text-anchor="middle" x="398" y="-145.5" font-family="Arial" font-size="10.00">st_lwGradient</text>
</a>
</g>
</g>
<!-- Node8&#45;&gt;Node2 -->
<g id="edge9" class="edge"><title>Node8&#45;&gt;Node2</title>
<path fill="none" stroke="#9a32cd" stroke-dasharray="5,2" d="M368.332,-134.53C349.221,-126.631 323.778,-116.367 301,-108 282.097,-101.057 260.544,-93.8875 244.003,-88.5417"/>
<polygon fill="#9a32cd" stroke="#9a32cd" points="367.124,-137.818 377.701,-138.422 369.809,-131.353 367.124,-137.818"/>
<text text-anchor="middle" x="342" y="-111.5" font-family="Arial" font-size="10.00"> grad</text>
</g>
<!-- Node9 -->
<g id="node9" class="node"><title>Node9</title>
<g id="a_node9"><a xlink:href="structst__lw_grad_key.html" target="_top" xlink:title="st_lwGradKey">
<polygon fill="white" stroke="black" points="363.5,-239.5 363.5,-258.5 440.5,-258.5 440.5,-239.5 363.5,-239.5"/>
<text text-anchor="middle" x="402" y="-246.5" font-family="Arial" font-size="10.00">st_lwGradKey</text>
</a>
</g>
</g>
<!-- Node9&#45;&gt;Node8 -->
<g id="edge10" class="edge"><title>Node9&#45;&gt;Node8</title>
<path fill="none" stroke="#9a32cd" stroke-dasharray="5,2" d="M401.233,-229.029C400.365,-207.543 398.989,-173.467 398.348,-157.625"/>
<polygon fill="#9a32cd" stroke="#9a32cd" points="397.744,-229.364 401.645,-239.214 404.738,-229.081 397.744,-229.364"/>
<text text-anchor="middle" x="409.5" y="-195.5" font-family="Arial" font-size="10.00"> key</text>
</g>
<!-- Node9&#45;&gt;Node9 -->
<g id="edge11" class="edge"><title>Node9&#45;&gt;Node9</title>
<path fill="none" stroke="#9a32cd" stroke-dasharray="5,2" d="M450.872,-256.415C455.251,-254.864 458,-252.392 458,-249 458,-243.434 450.597,-240.346 440.735,-239.737"/>
<polygon fill="#9a32cd" stroke="#9a32cd" points="449.945,-253.026 440.735,-258.263 451.201,-259.912 449.945,-253.026"/>
<text text-anchor="middle" x="468.5" y="-252" font-family="Arial" font-size="10.00"> prev</text>
<text text-anchor="middle" x="468.5" y="-241" font-family="Arial" font-size="10.00">next</text>
</g>
</g>
</svg>
