<?xml version="1.0" encoding="UTF-8" standalone="no"?>
<!DOCTYPE svg PUBLIC "-//W3C//DTD SVG 1.1//EN"
 "http://www.w3.org/Graphics/SVG/1.1/DTD/svg11.dtd">
<!-- Generated by graphviz version 2.34.0 (20130907.0111)
 -->
<!-- Title: face_s Pages: 1 -->
<svg width="489pt" height="256pt"
 viewBox="0.00 0.00 489.00 256.00" xmlns="http://www.w3.org/2000/svg" xmlns:xlink="http://www.w3.org/1999/xlink">
<g id="graph0" class="graph" transform="scale(1 1) rotate(0) translate(4 252)">
<title>face_s</title>
<polygon fill="white" stroke="white" points="-4,4 -4,-252 485,-252 485,4 -4,4"/>
<!-- Node1 -->
<g id="node1" class="node"><title>Node1</title>
<polygon fill="#bfbfbf" stroke="black" points="238.5,-1.5 238.5,-20.5 283.5,-20.5 283.5,-1.5 238.5,-1.5"/>
<text text-anchor="middle" x="261" y="-8.5" font-family="Arial" font-size="10.00">face_s</text>
</g>
<!-- Node1&#45;&gt;Node1 -->
<g id="edge1" class="edge"><title>Node1&#45;&gt;Node1</title>
<path fill="none" stroke="#9a32cd" stroke-dasharray="5,2" d="M293.596,-18.6657C298.038,-17.3876 301,-14.8324 301,-11 301,-4.71094 293.025,-1.86121 283.616,-2.45081"/>
<polygon fill="#9a32cd" stroke="#9a32cd" points="293.269,-15.1809 283.616,-19.5492 293.886,-22.1536 293.269,-15.1809"/>
<text text-anchor="middle" x="318" y="-14" font-family="Arial" font-size="10.00"> original</text>
<text text-anchor="middle" x="318" y="-3" font-family="Arial" font-size="10.00">next</text>
</g>
<!-- Node2 -->
<g id="node2" class="node"><title>Node2</title>
<g id="a_node2"><a xlink:href="classid_winding.html" target="_top" xlink:title="idWinding">
<polygon fill="white" stroke="black" points="-0.5,-92.5 -0.5,-111.5 58.5,-111.5 58.5,-92.5 -0.5,-92.5"/>
<text text-anchor="middle" x="29" y="-99.5" font-family="Arial" font-size="10.00">idWinding</text>
</a>
</g>
</g>
<!-- Node2&#45;&gt;Node1 -->
<g id="edge2" class="edge"><title>Node2&#45;&gt;Node1</title>
<path fill="none" stroke="#9a32cd" stroke-dasharray="5,2" d="M35.1941,-82.5943C40.9164,-68.5685 50.8497,-50.0148 66,-40 93.9606,-21.5171 193.412,-14.9231 238.494,-12.8474"/>
<polygon fill="#9a32cd" stroke="#9a32cd" points="31.8195,-81.6279 31.6223,-92.2209 38.3824,-84.063 31.8195,-81.6279"/>
<text text-anchor="middle" x="95.5" y="-54.5" font-family="Arial" font-size="10.00"> face_winding</text>
</g>
<!-- Node3 -->
<g id="node3" class="node"><title>Node3</title>
<g id="a_node3"><a xlink:href="classid_vec5.html" target="_top" xlink:title="idVec5">
<polygon fill="white" stroke="black" points="5.5,-160.5 5.5,-179.5 52.5,-179.5 52.5,-160.5 5.5,-160.5"/>
<text text-anchor="middle" x="29" y="-167.5" font-family="Arial" font-size="10.00">idVec5</text>
</a>
</g>
</g>
<!-- Node3&#45;&gt;Node2 -->
<g id="edge3" class="edge"><title>Node3&#45;&gt;Node2</title>
<path fill="none" stroke="#9a32cd" stroke-dasharray="5,2" d="M29,-150.041C29,-137.472 29,-121.563 29,-111.841"/>
<polygon fill="#9a32cd" stroke="#9a32cd" points="25.5001,-150.372 29,-160.372 32.5001,-150.372 25.5001,-150.372"/>
<text text-anchor="middle" x="33.5" y="-133.5" font-family="Arial" font-size="10.00"> p</text>
</g>
<!-- Node4 -->
<g id="node4" class="node"><title>Node4</title>
<g id="a_node4"><a xlink:href="classbrushprimit__texdef__t.html" target="_top" xlink:title="brushprimit_texdef_t">
<polygon fill="white" stroke="black" points="77,-92.5 77,-111.5 181,-111.5 181,-92.5 77,-92.5"/>
<text text-anchor="middle" x="129" y="-99.5" font-family="Arial" font-size="10.00">brushprimit_texdef_t</text>
</a>
</g>
</g>
<!-- Node4&#45;&gt;Node1 -->
<g id="edge4" class="edge"><title>Node4&#45;&gt;Node1</title>
<path fill="none" stroke="#9a32cd" stroke-dasharray="5,2" d="M128.037,-82.0733C128.412,-68.5997 131.229,-51.0011 142,-40 155.215,-26.503 207.585,-18.2384 238.27,-14.4551"/>
<polygon fill="#9a32cd" stroke="#9a32cd" points="124.539,-82.2342 128.175,-92.1855 131.538,-82.1388 124.539,-82.2342"/>
<text text-anchor="middle" x="183.5" y="-54.5" font-family="Arial" font-size="10.00"> brushprimit_texdef</text>
</g>
<!-- Node5 -->
<g id="node5" class="node"><title>Node5</title>
<g id="a_node5"><a xlink:href="classtexdef__t.html" target="_top" xlink:title="texdef_t">
<polygon fill="white" stroke="black" points="203.5,-92.5 203.5,-111.5 254.5,-111.5 254.5,-92.5 203.5,-92.5"/>
<text text-anchor="middle" x="229" y="-99.5" font-family="Arial" font-size="10.00">texdef_t</text>
</a>
</g>
</g>
<!-- Node5&#45;&gt;Node1 -->
<g id="edge5" class="edge"><title>Node5&#45;&gt;Node1</title>
<path fill="none" stroke="#9a32cd" stroke-dasharray="5,2" d="M228.261,-82.1526C228.457,-69.685 230.056,-53.2555 236,-40 239.36,-32.5077 245.469,-25.6077 250.806,-20.5319"/>
<polygon fill="#9a32cd" stroke="#9a32cd" points="224.763,-82.3298 228.391,-92.2839 231.762,-82.2397 224.763,-82.3298"/>
<text text-anchor="middle" x="251" y="-54.5" font-family="Arial" font-size="10.00"> texdef</text>
</g>
<!-- Node6 -->
<g id="node6" class="node"><title>Node6</title>
<g id="a_node6"><a xlink:href="classid_plane.html" target="_top" xlink:title="idPlane">
<polygon fill="white" stroke="black" points="272.5,-92.5 272.5,-111.5 321.5,-111.5 321.5,-92.5 272.5,-92.5"/>
<text text-anchor="middle" x="297" y="-99.5" font-family="Arial" font-size="10.00">idPlane</text>
</a>
</g>
</g>
<!-- Node6&#45;&gt;Node1 -->
<g id="edge6" class="edge"><title>Node6&#45;&gt;Node1</title>
<path fill="none" stroke="#9a32cd" stroke-dasharray="5,2" d="M289.778,-83.145C282.111,-64.1905 270.315,-35.0276 264.494,-20.6386"/>
<polygon fill="#9a32cd" stroke="#9a32cd" points="286.554,-84.5084 293.548,-92.4663 293.043,-81.8835 286.554,-84.5084"/>
<text text-anchor="middle" x="314" y="-60" font-family="Arial" font-size="10.00"> plane</text>
<text text-anchor="middle" x="314" y="-49" font-family="Arial" font-size="10.00">originalPlane</text>
</g>
<!-- Node7 -->
<g id="node7" class="node"><title>Node7</title>
<g id="a_node7"><a xlink:href="classid_vec3.html" target="_top" xlink:title="idVec3">
<polygon fill="white" stroke="black" points="343.5,-92.5 343.5,-111.5 390.5,-111.5 390.5,-92.5 343.5,-92.5"/>
<text text-anchor="middle" x="367" y="-99.5" font-family="Arial" font-size="10.00">idVec3</text>
</a>
</g>
</g>
<!-- Node7&#45;&gt;Node1 -->
<g id="edge7" class="edge"><title>Node7&#45;&gt;Node1</title>
<path fill="none" stroke="#9a32cd" stroke-dasharray="5,2" d="M364.614,-82.1795C361.973,-68.7589 356.456,-51.1801 345,-40 328.498,-23.8953 302.495,-17.0503 283.791,-14.1428"/>
<polygon fill="#9a32cd" stroke="#9a32cd" points="361.188,-82.9212 366.224,-92.243 368.101,-81.8157 361.188,-82.9212"/>
<text text-anchor="middle" x="388.5" y="-65.5" font-family="Arial" font-size="10.00"> planepts</text>
<text text-anchor="middle" x="388.5" y="-54.5" font-family="Arial" font-size="10.00">d_color</text>
<text text-anchor="middle" x="388.5" y="-43.5" font-family="Arial" font-size="10.00">orgplanepts</text>
</g>
<!-- Node8 -->
<g id="node8" class="node"><title>Node8</title>
<g id="a_node8"><a xlink:href="classid_material.html" target="_top" xlink:title="idMaterial">
<polygon fill="white" stroke="black" points="411.5,-92.5 411.5,-111.5 470.5,-111.5 470.5,-92.5 411.5,-92.5"/>
<text text-anchor="middle" x="441" y="-99.5" font-family="Arial" font-size="10.00">idMaterial</text>
</a>
</g>
</g>
<!-- Node8&#45;&gt;Node1 -->
<g id="edge8" class="edge"><title>Node8&#45;&gt;Node1</title>
<path fill="none" stroke="#9a32cd" stroke-dasharray="5,2" d="M438.829,-82.0986C436.225,-68.3527 430.513,-50.3984 418,-40 397.93,-23.322 322.294,-16.024 283.803,-13.3349"/>
<polygon fill="#9a32cd" stroke="#9a32cd" points="435.428,-83.0233 440.366,-92.3971 442.352,-81.99 435.428,-83.0233"/>
<text text-anchor="middle" x="459" y="-54.5" font-family="Arial" font-size="10.00"> d_texture</text>
</g>
<!-- Node9 -->
<g id="node9" class="node"><title>Node9</title>
<g id="a_node9"><a xlink:href="classid_decl.html" target="_top" xlink:title="idDecl">
<polygon fill="white" stroke="black" points="419,-160.5 419,-179.5 463,-179.5 463,-160.5 419,-160.5"/>
<text text-anchor="middle" x="441" y="-167.5" font-family="Arial" font-size="10.00">idDecl</text>
</a>
</g>
</g>
<!-- Node9&#45;&gt;Node8 -->
<g id="edge9" class="edge"><title>Node9&#45;&gt;Node8</title>
<path fill="none" stroke="midnightblue" d="M441,-150.041C441,-137.472 441,-121.563 441,-111.841"/>
<polygon fill="midnightblue" stroke="midnightblue" points="437.5,-150.372 441,-160.372 444.5,-150.372 437.5,-150.372"/>
</g>
<!-- Node10 -->
<g id="node10" class="node"><title>Node10</title>
<g id="a_node10"><a xlink:href="classid_decl_base.html" target="_top" xlink:title="idDeclBase">
<polygon fill="white" stroke="black" points="408,-228.5 408,-247.5 474,-247.5 474,-228.5 408,-228.5"/>
<text text-anchor="middle" x="441" y="-235.5" font-family="Arial" font-size="10.00">idDeclBase</text>
</a>
</g>
</g>
<!-- Node10&#45;&gt;Node9 -->
<g id="edge10" class="edge"><title>Node10&#45;&gt;Node9</title>
<path fill="none" stroke="#9a32cd" stroke-dasharray="5,2" d="M441,-218.041C441,-205.472 441,-189.563 441,-179.841"/>
<polygon fill="#9a32cd" stroke="#9a32cd" points="437.5,-218.372 441,-228.372 444.5,-218.372 437.5,-218.372"/>
<text text-anchor="middle" x="453.5" y="-201.5" font-family="Arial" font-size="10.00"> base</text>
</g>
</g>
</svg>
