<?xml version="1.0" encoding="UTF-8" standalone="no"?>
<!DOCTYPE svg PUBLIC "-//W3C//DTD SVG 1.1//EN"
 "http://www.w3.org/Graphics/SVG/1.1/DTD/svg11.dtd">
<!-- Generated by graphviz version 2.34.0 (20130907.0111)
 -->
<!-- Title: aasTraceStack_s Pages: 1 -->
<svg width="100pt" height="106pt"
 viewBox="0.00 0.00 100.00 106.00" xmlns="http://www.w3.org/2000/svg" xmlns:xlink="http://www.w3.org/1999/xlink">
<g id="graph0" class="graph" transform="scale(1 1) rotate(0) translate(4 102)">
<title>aasTraceStack_s</title>
<polygon fill="white" stroke="white" points="-4,4 -4,-102 96,-102 96,4 -4,4"/>
<!-- Node1 -->
<g id="node1" class="node"><title>Node1</title>
<polygon fill="#bfbfbf" stroke="black" points="0,-0.5 0,-19.5 92,-19.5 92,-0.5 0,-0.5"/>
<text text-anchor="middle" x="46" y="-7.5" font-family="Arial" font-size="10.00">aasTraceStack_s</text>
</g>
<!-- Node2 -->
<g id="node2" class="node"><title>Node2</title>
<g id="a_node2"><a xlink:href="classid_vec3.html" target="_top" xlink:title="idVec3">
<polygon fill="white" stroke="black" points="22.5,-78.5 22.5,-97.5 69.5,-97.5 69.5,-78.5 22.5,-78.5"/>
<text text-anchor="middle" x="46" y="-85.5" font-family="Arial" font-size="10.00">idVec3</text>
</a>
</g>
</g>
<!-- Node2&#45;&gt;Node1 -->
<g id="edge1" class="edge"><title>Node2&#45;&gt;Node1</title>
<path fill="none" stroke="#9a32cd" stroke-dasharray="5,2" d="M46,-68.2239C46,-52.6974 46,-31.3582 46,-19.6165"/>
<polygon fill="#9a32cd" stroke="#9a32cd" points="42.5001,-68.2818 46,-78.2818 49.5001,-68.2819 42.5001,-68.2818"/>
<text text-anchor="middle" x="56" y="-52" font-family="Arial" font-size="10.00"> end</text>
<text text-anchor="middle" x="56" y="-41" font-family="Arial" font-size="10.00">start</text>
</g>
</g>
</svg>
