<?xml version="1.0" encoding="UTF-8" standalone="no"?>
<!DOCTYPE svg PUBLIC "-//W3C//DTD SVG 1.1//EN"
 "http://www.w3.org/Graphics/SVG/1.1/DTD/svg11.dtd">
<!-- Generated by graphviz version 2.34.0 (20130907.0111)
 -->
<!-- Title: shaderStage_t Pages: 1 -->
<svg width="369pt" height="402pt"
 viewBox="0.00 0.00 369.00 402.00" xmlns="http://www.w3.org/2000/svg" xmlns:xlink="http://www.w3.org/1999/xlink">
<g id="graph0" class="graph" transform="scale(1 1) rotate(0) translate(4 398)">
<title>shaderStage_t</title>
<polygon fill="white" stroke="white" points="-4,4 -4,-398 365,-398 365,4 -4,4"/>
<!-- Node1 -->
<g id="node1" class="node"><title>Node1</title>
<polygon fill="#bfbfbf" stroke="black" points="143,-0.5 143,-19.5 223,-19.5 223,-0.5 143,-0.5"/>
<text text-anchor="middle" x="183" y="-7.5" font-family="Arial" font-size="10.00">shaderStage_t</text>
</g>
<!-- Node2 -->
<g id="node2" class="node"><title>Node2</title>
<g id="a_node2"><a xlink:href="structnew_shader_stage__t.html" target="_top" xlink:title="newShaderStage_t">
<polygon fill="white" stroke="black" points="134,-68.5 134,-87.5 232,-87.5 232,-68.5 134,-68.5"/>
<text text-anchor="middle" x="183" y="-75.5" font-family="Arial" font-size="10.00">newShaderStage_t</text>
</a>
</g>
</g>
<!-- Node2&#45;&gt;Node1 -->
<g id="edge1" class="edge"><title>Node2&#45;&gt;Node1</title>
<path fill="none" stroke="#9a32cd" stroke-dasharray="5,2" d="M183,-58.0413C183,-45.4724 183,-29.5631 183,-19.8411"/>
<polygon fill="#9a32cd" stroke="#9a32cd" points="179.5,-58.3716 183,-68.3717 186.5,-58.3717 179.5,-58.3716"/>
<text text-anchor="middle" x="206" y="-41.5" font-family="Arial" font-size="10.00"> newStage</text>
</g>
<!-- Node3 -->
<g id="node3" class="node"><title>Node3</title>
<g id="a_node3"><a xlink:href="classid_image.html" target="_top" xlink:title="idImage">
<polygon fill="white" stroke="black" points="86,-153.5 86,-172.5 136,-172.5 136,-153.5 86,-153.5"/>
<text text-anchor="middle" x="111" y="-160.5" font-family="Arial" font-size="10.00">idImage</text>
</a>
</g>
</g>
<!-- Node3&#45;&gt;Node2 -->
<g id="edge2" class="edge"><title>Node3&#45;&gt;Node2</title>
<path fill="none" stroke="#9a32cd" stroke-dasharray="5,2" d="M124.092,-145.369C133.12,-134.076 145.518,-118.906 157,-106 162.537,-99.7769 169.037,-93.0269 174.153,-87.8327"/>
<polygon fill="#9a32cd" stroke="#9a32cd" points="121.132,-143.47 117.656,-153.478 126.615,-147.822 121.132,-143.47"/>
<text text-anchor="middle" x="211.5" y="-109.5" font-family="Arial" font-size="10.00"> fragmentProgramImages</text>
</g>
<!-- Node3&#45;&gt;Node3 -->
<g id="edge4" class="edge"><title>Node3&#45;&gt;Node3</title>
<path fill="none" stroke="#9a32cd" stroke-dasharray="5,2" d="M146.446,-171.21C150.996,-169.783 154,-167.047 154,-163 154,-156.359 145.91,-153.247 136.176,-153.662"/>
<polygon fill="#9a32cd" stroke="#9a32cd" points="145.733,-167.767 136.176,-172.338 146.498,-174.725 145.733,-167.767"/>
<text text-anchor="middle" x="192" y="-182.5" font-family="Arial" font-size="10.00"> cacheUsagePrev</text>
<text text-anchor="middle" x="192" y="-171.5" font-family="Arial" font-size="10.00">cacheUsageNext</text>
<text text-anchor="middle" x="192" y="-160.5" font-family="Arial" font-size="10.00">hashNext</text>
<text text-anchor="middle" x="192" y="-149.5" font-family="Arial" font-size="10.00">partialImage</text>
<text text-anchor="middle" x="192" y="-138.5" font-family="Arial" font-size="10.00">bglNext</text>
</g>
<!-- Node11 -->
<g id="node11" class="node"><title>Node11</title>
<g id="a_node11"><a xlink:href="structtexture_stage__t.html" target="_top" xlink:title="textureStage_t">
<polygon fill="white" stroke="black" points="36,-68.5 36,-87.5 116,-87.5 116,-68.5 36,-68.5"/>
<text text-anchor="middle" x="76" y="-75.5" font-family="Arial" font-size="10.00">textureStage_t</text>
</a>
</g>
</g>
<!-- Node3&#45;&gt;Node11 -->
<g id="edge14" class="edge"><title>Node3&#45;&gt;Node11</title>
<path fill="none" stroke="#9a32cd" stroke-dasharray="5,2" d="M103.332,-143.816C95.9869,-126.398 85.2211,-100.867 79.6466,-87.6476"/>
<polygon fill="#9a32cd" stroke="#9a32cd" points="100.276,-145.576 107.386,-153.43 106.726,-142.856 100.276,-145.576"/>
<text text-anchor="middle" x="107" y="-109.5" font-family="Arial" font-size="10.00"> image</text>
</g>
<!-- Node4 -->
<g id="node4" class="node"><title>Node4</title>
<g id="a_node4"><a xlink:href="classid_str.html" target="_top" xlink:title="idStr">
<polygon fill="white" stroke="black" points="101.5,-374.5 101.5,-393.5 138.5,-393.5 138.5,-374.5 101.5,-374.5"/>
<text text-anchor="middle" x="120" y="-381.5" font-family="Arial" font-size="10.00">idStr</text>
</a>
</g>
</g>
<!-- Node4&#45;&gt;Node3 -->
<g id="edge3" class="edge"><title>Node4&#45;&gt;Node3</title>
<path fill="none" stroke="#9a32cd" stroke-dasharray="5,2" d="M117.578,-363.945C116.277,-352.886 114.783,-338.678 114,-326 110.392,-267.601 110.667,-197.155 110.896,-172.791"/>
<polygon fill="#9a32cd" stroke="#9a32cd" points="114.137,-364.634 118.827,-374.134 121.085,-363.783 114.137,-364.634"/>
<text text-anchor="middle" x="135.5" y="-279.5" font-family="Arial" font-size="10.00"> imgName</text>
</g>
<!-- Node8 -->
<g id="node8" class="node"><title>Node8</title>
<g id="a_node8"><a xlink:href="structurl_download__s.html" target="_top" xlink:title="urlDownload_s">
<polygon fill="white" stroke="black" points="123,-306.5 123,-325.5 203,-325.5 203,-306.5 123,-306.5"/>
<text text-anchor="middle" x="163" y="-313.5" font-family="Arial" font-size="10.00">urlDownload_s</text>
</a>
</g>
</g>
<!-- Node4&#45;&gt;Node8 -->
<g id="edge10" class="edge"><title>Node4&#45;&gt;Node8</title>
<path fill="none" stroke="#9a32cd" stroke-dasharray="5,2" d="M131.116,-365.938C139.473,-353.112 150.583,-336.059 157.24,-325.841"/>
<polygon fill="#9a32cd" stroke="#9a32cd" points="128.148,-364.082 125.621,-374.372 134.013,-367.904 128.148,-364.082"/>
<text text-anchor="middle" x="153" y="-347.5" font-family="Arial" font-size="10.00"> url</text>
</g>
<!-- Node5 -->
<g id="node5" class="node"><title>Node5</title>
<g id="a_node5"><a xlink:href="structbackground_download__s.html" target="_top" xlink:title="backgroundDownload_s">
<polygon fill="white" stroke="black" points="152.5,-238.5 152.5,-257.5 271.5,-257.5 271.5,-238.5 152.5,-238.5"/>
<text text-anchor="middle" x="212" y="-245.5" font-family="Arial" font-size="10.00">backgroundDownload_s</text>
</a>
</g>
</g>
<!-- Node5&#45;&gt;Node3 -->
<g id="edge5" class="edge"><title>Node5&#45;&gt;Node3</title>
<path fill="none" stroke="#9a32cd" stroke-dasharray="5,2" d="M193.654,-231.924C172.543,-214.575 138.596,-186.678 121.523,-172.648"/>
<polygon fill="#9a32cd" stroke="#9a32cd" points="191.624,-234.785 201.572,-238.43 196.068,-229.377 191.624,-234.785"/>
<text text-anchor="middle" x="185" y="-211.5" font-family="Arial" font-size="10.00"> bgl</text>
</g>
<!-- Node5&#45;&gt;Node5 -->
<g id="edge7" class="edge"><title>Node5&#45;&gt;Node5</title>
<path fill="none" stroke="#9a32cd" stroke-dasharray="5,2" d="M281.677,-252.543C286.239,-251.486 289,-249.971 289,-248 289,-244.846 281.931,-242.862 271.728,-242.049"/>
<polygon fill="#9a32cd" stroke="#9a32cd" points="281.138,-249.084 271.728,-253.951 282.119,-256.015 281.138,-249.084"/>
<text text-anchor="middle" x="300" y="-245.5" font-family="Arial" font-size="10.00"> next</text>
</g>
<!-- Node6 -->
<g id="node6" class="node"><title>Node6</title>
<g id="a_node6"><a xlink:href="classid_file.html" target="_top" xlink:title="idFile">
<polygon fill="white" stroke="black" points="221,-306.5 221,-325.5 261,-325.5 261,-306.5 221,-306.5"/>
<text text-anchor="middle" x="241" y="-313.5" font-family="Arial" font-size="10.00">idFile</text>
</a>
</g>
</g>
<!-- Node6&#45;&gt;Node5 -->
<g id="edge6" class="edge"><title>Node6&#45;&gt;Node5</title>
<path fill="none" stroke="#9a32cd" stroke-dasharray="5,2" d="M233.173,-297.186C227.578,-284.452 220.287,-267.861 215.885,-257.841"/>
<polygon fill="#9a32cd" stroke="#9a32cd" points="229.982,-298.624 237.209,-306.372 236.39,-295.808 229.982,-298.624"/>
<text text-anchor="middle" x="233" y="-279.5" font-family="Arial" font-size="10.00"> f</text>
</g>
<!-- Node7 -->
<g id="node7" class="node"><title>Node7</title>
<g id="a_node7"><a xlink:href="structfile_download__s.html" target="_top" xlink:title="fileDownload_s">
<polygon fill="white" stroke="black" points="279.5,-306.5 279.5,-325.5 360.5,-325.5 360.5,-306.5 279.5,-306.5"/>
<text text-anchor="middle" x="320" y="-313.5" font-family="Arial" font-size="10.00">fileDownload_s</text>
</a>
</g>
</g>
<!-- Node7&#45;&gt;Node5 -->
<g id="edge8" class="edge"><title>Node7&#45;&gt;Node5</title>
<path fill="none" stroke="#9a32cd" stroke-dasharray="5,2" d="M297.072,-300.988C275.587,-287.858 244.154,-268.65 226.123,-257.63"/>
<polygon fill="#9a32cd" stroke="#9a32cd" points="295.523,-304.144 305.881,-306.372 299.173,-298.171 295.523,-304.144"/>
<text text-anchor="middle" x="284" y="-279.5" font-family="Arial" font-size="10.00"> file</text>
</g>
<!-- Node8&#45;&gt;Node5 -->
<g id="edge9" class="edge"><title>Node8&#45;&gt;Node5</title>
<path fill="none" stroke="#9a32cd" stroke-dasharray="5,2" d="M175.391,-298.31C184.943,-285.444 197.776,-268.158 205.436,-257.841"/>
<polygon fill="#9a32cd" stroke="#9a32cd" points="172.557,-296.256 169.406,-306.372 178.177,-300.429 172.557,-296.256"/>
<text text-anchor="middle" x="199" y="-279.5" font-family="Arial" font-size="10.00"> url</text>
</g>
<!-- Node9 -->
<g id="node9" class="node"><title>Node9</title>
<g id="a_node9"><a xlink:href="classid_mega_texture.html" target="_top" xlink:title="idMegaTexture">
<polygon fill="white" stroke="black" points="248,-153.5 248,-172.5 328,-172.5 328,-153.5 248,-153.5"/>
<text text-anchor="middle" x="288" y="-160.5" font-family="Arial" font-size="10.00">idMegaTexture</text>
</a>
</g>
</g>
<!-- Node9&#45;&gt;Node2 -->
<g id="edge11" class="edge"><title>Node9&#45;&gt;Node2</title>
<path fill="none" stroke="#9a32cd" stroke-dasharray="5,2" d="M284.865,-143.117C281.927,-130.999 276.362,-115.76 266,-106 256.624,-97.1689 244.324,-91.2256 232.075,-87.226"/>
<polygon fill="#9a32cd" stroke="#9a32cd" points="281.475,-144.014 286.887,-153.122 288.336,-142.627 281.475,-144.014"/>
<text text-anchor="middle" x="305" y="-109.5" font-family="Arial" font-size="10.00"> megaTexture</text>
</g>
<!-- Node10 -->
<g id="node10" class="node"><title>Node10</title>
<g id="a_node10"><a xlink:href="structcolor_stage__t.html" target="_top" xlink:title="colorStage_t">
<polygon fill="white" stroke="black" points="250.5,-68.5 250.5,-87.5 321.5,-87.5 321.5,-68.5 250.5,-68.5"/>
<text text-anchor="middle" x="286" y="-75.5" font-family="Arial" font-size="10.00">colorStage_t</text>
</a>
</g>
</g>
<!-- Node10&#45;&gt;Node1 -->
<g id="edge12" class="edge"><title>Node10&#45;&gt;Node1</title>
<path fill="none" stroke="#9a32cd" stroke-dasharray="5,2" d="M267.365,-62.2992C257.404,-54.6971 244.793,-45.4719 233,-38 222.5,-31.3472 210.223,-24.7025 200.463,-19.6696"/>
<polygon fill="#9a32cd" stroke="#9a32cd" points="265.298,-65.1256 275.349,-68.4771 269.582,-59.5893 265.298,-65.1256"/>
<text text-anchor="middle" x="262.5" y="-41.5" font-family="Arial" font-size="10.00"> color</text>
</g>
<!-- Node11&#45;&gt;Node1 -->
<g id="edge13" class="edge"><title>Node11&#45;&gt;Node1</title>
<path fill="none" stroke="#9a32cd" stroke-dasharray="5,2" d="M98.716,-62.9883C120.002,-49.8584 151.143,-30.6498 169.008,-19.6305"/>
<polygon fill="#9a32cd" stroke="#9a32cd" points="96.662,-60.1429 89.9884,-68.3717 100.337,-66.1007 96.662,-60.1429"/>
<text text-anchor="middle" x="157" y="-41.5" font-family="Arial" font-size="10.00"> texture</text>
</g>
<!-- Node12 -->
<g id="node12" class="node"><title>Node12</title>
<g id="a_node12"><a xlink:href="classid_cinematic.html" target="_top" xlink:title="idCinematic">
<polygon fill="white" stroke="black" points="0,-153.5 0,-172.5 68,-172.5 68,-153.5 0,-153.5"/>
<text text-anchor="middle" x="34" y="-160.5" font-family="Arial" font-size="10.00">idCinematic</text>
</a>
</g>
</g>
<!-- Node12&#45;&gt;Node11 -->
<g id="edge15" class="edge"><title>Node12&#45;&gt;Node11</title>
<path fill="none" stroke="#9a32cd" stroke-dasharray="5,2" d="M31.9184,-143.206C31.526,-131.753 32.6571,-117.215 39,-106 43.3845,-98.2477 51.0146,-92.1107 58.2112,-87.6594"/>
<polygon fill="#9a32cd" stroke="#9a32cd" points="28.4442,-143.682 32.682,-153.393 35.4246,-143.159 28.4442,-143.682"/>
<text text-anchor="middle" x="62" y="-109.5" font-family="Arial" font-size="10.00"> cinematic</text>
</g>
</g>
</svg>
