<?xml version="1.0" encoding="UTF-8" standalone="no"?>
<!DOCTYPE svg PUBLIC "-//W3C//DTD SVG 1.1//EN"
 "http://www.w3.org/Graphics/SVG/1.1/DTD/svg11.dtd">
<!-- Generated by graphviz version 2.34.0 (20130907.0111)
 -->
<!-- Title: Progress Pages: 1 -->
<svg width="95pt" height="118pt"
 viewBox="0.00 0.00 95.00 118.00" xmlns="http://www.w3.org/2000/svg" xmlns:xlink="http://www.w3.org/1999/xlink">
<g id="graph0" class="graph" transform="scale(1 1) rotate(0) translate(4 114)">
<title>Progress</title>
<polygon fill="white" stroke="white" points="-4,4 -4,-114 91,-114 91,4 -4,4"/>
<!-- Node1 -->
<g id="node1" class="node"><title>Node1</title>
<polygon fill="#bfbfbf" stroke="black" points="0,-0.5 0,-19.5 56,-19.5 56,-0.5 0,-0.5"/>
<text text-anchor="middle" x="28" y="-7.5" font-family="Arial" font-size="10.00">Progress</text>
</g>
<!-- Node2 -->
<g id="node2" class="node"><title>Node2</title>
<g id="a_node2"><a xlink:href="structtimeval.html" target="_top" xlink:title="timeval">
<polygon fill="white" stroke="black" points="4.5,-90.5 4.5,-109.5 51.5,-109.5 51.5,-90.5 4.5,-90.5"/>
<text text-anchor="middle" x="28" y="-97.5" font-family="Arial" font-size="10.00">timeval</text>
</a>
</g>
</g>
<!-- Node2&#45;&gt;Node1 -->
<g id="edge1" class="edge"><title>Node2&#45;&gt;Node1</title>
<path fill="none" stroke="#9a32cd" stroke-dasharray="5,2" d="M28,-79.9784C28,-61.3096 28,-33.6696 28,-19.7241"/>
<polygon fill="#9a32cd" stroke="#9a32cd" points="24.5001,-80.2405 28,-90.2405 31.5001,-80.2405 24.5001,-80.2405"/>
<text text-anchor="middle" x="57.5" y="-63.5" font-family="Arial" font-size="10.00"> t_startsingle</text>
<text text-anchor="middle" x="57.5" y="-52.5" font-family="Arial" font-size="10.00">start</text>
<text text-anchor="middle" x="57.5" y="-41.5" font-family="Arial" font-size="10.00">speeder_time</text>
</g>
</g>
</svg>
