<?xml version="1.0" encoding="UTF-8" standalone="no"?>
<!DOCTYPE svg PUBLIC "-//W3C//DTD SVG 1.1//EN"
 "http://www.w3.org/Graphics/SVG/1.1/DTD/svg11.dtd">
<!-- Generated by graphviz version 2.34.0 (20130907.0111)
 -->
<!-- Title: pack_t Pages: 1 -->
<svg width="312pt" height="174pt"
 viewBox="0.00 0.00 311.57 174.00" xmlns="http://www.w3.org/2000/svg" xmlns:xlink="http://www.w3.org/1999/xlink">
<g id="graph0" class="graph" transform="scale(1 1) rotate(0) translate(4 170)">
<title>pack_t</title>
<polygon fill="white" stroke="white" points="-4,4 -4,-170 307.574,-170 307.574,4 -4,4"/>
<!-- Node1 -->
<g id="node1" class="node"><title>Node1</title>
<polygon fill="#bfbfbf" stroke="black" points="83.5741,-0.5 83.5741,-19.5 129.574,-19.5 129.574,-0.5 83.5741,-0.5"/>
<text text-anchor="middle" x="106.574" y="-7.5" font-family="Arial" font-size="10.00">pack_t</text>
</g>
<!-- Node2 -->
<g id="node2" class="node"><title>Node2</title>
<g id="a_node2"><a xlink:href="classid_str.html" target="_top" xlink:title="idStr">
<polygon fill="white" stroke="black" points="50.0741,-146.5 50.0741,-165.5 87.0741,-165.5 87.0741,-146.5 50.0741,-146.5"/>
<text text-anchor="middle" x="68.5741" y="-153.5" font-family="Arial" font-size="10.00">idStr</text>
</a>
</g>
</g>
<!-- Node2&#45;&gt;Node1 -->
<g id="edge1" class="edge"><title>Node2&#45;&gt;Node1</title>
<path fill="none" stroke="#9a32cd" stroke-dasharray="5,2" d="M42.6718,-141.198C19.1967,-126.732 -9.82869,-102.707 3.57412,-78 20.3576,-47.0608 58.2944,-28.171 83.1444,-18.6509"/>
<polygon fill="#9a32cd" stroke="#9a32cd" points="41.2164,-144.402 51.6147,-146.433 44.7528,-138.361 41.2164,-144.402"/>
<text text-anchor="middle" x="33.0741" y="-85.5" font-family="Arial" font-size="10.00"> pakFilename</text>
</g>
<!-- Node6 -->
<g id="node6" class="node"><title>Node6</title>
<g id="a_node6"><a xlink:href="structfile_in_pack__s.html" target="_top" xlink:title="fileInPack_s">
<polygon fill="white" stroke="black" points="72.0741,-78.5 72.0741,-97.5 141.074,-97.5 141.074,-78.5 72.0741,-78.5"/>
<text text-anchor="middle" x="106.574" y="-85.5" font-family="Arial" font-size="10.00">fileInPack_s</text>
</a>
</g>
</g>
<!-- Node2&#45;&gt;Node6 -->
<g id="edge6" class="edge"><title>Node2&#45;&gt;Node6</title>
<path fill="none" stroke="#9a32cd" stroke-dasharray="5,2" d="M78.6136,-137.563C85.9727,-124.781 95.6578,-107.96 101.484,-97.8411"/>
<polygon fill="#9a32cd" stroke="#9a32cd" points="75.4985,-135.959 73.542,-146.372 81.5648,-139.452 75.4985,-135.959"/>
<text text-anchor="middle" x="105.574" y="-119.5" font-family="Arial" font-size="10.00"> name</text>
</g>
<!-- Node3 -->
<g id="node3" class="node"><title>Node3</title>
<g id="a_node3"><a xlink:href="structaddon_info__t.html" target="_top" xlink:title="addonInfo_t">
<polygon fill="white" stroke="black" points="199.574,-78.5 199.574,-97.5 265.574,-97.5 265.574,-78.5 199.574,-78.5"/>
<text text-anchor="middle" x="232.574" y="-85.5" font-family="Arial" font-size="10.00">addonInfo_t</text>
</a>
</g>
</g>
<!-- Node3&#45;&gt;Node1 -->
<g id="edge2" class="edge"><title>Node3&#45;&gt;Node1</title>
<path fill="none" stroke="#9a32cd" stroke-dasharray="5,2" d="M212.199,-72.6641C197.54,-62.5603 177.159,-48.9369 158.574,-38 147.353,-31.3965 134.353,-24.6465 124.158,-19.5474"/>
<polygon fill="#9a32cd" stroke="#9a32cd" points="210.31,-75.6134 220.519,-78.4448 214.304,-69.8646 210.31,-75.6134"/>
<text text-anchor="middle" x="216.574" y="-46.5" font-family="Arial" font-size="10.00"> addon_info</text>
</g>
<!-- Node4 -->
<g id="node4" class="node"><title>Node4</title>
<g id="a_node4"><a xlink:href="classid_list.html" target="_top" xlink:title="idList\&lt; int \&gt;">
<polygon fill="white" stroke="black" points="128.574,-146.5 128.574,-165.5 196.574,-165.5 196.574,-146.5 128.574,-146.5"/>
<text text-anchor="middle" x="162.574" y="-153.5" font-family="Arial" font-size="10.00">idList&lt; int &gt;</text>
</a>
</g>
</g>
<!-- Node4&#45;&gt;Node3 -->
<g id="edge3" class="edge"><title>Node4&#45;&gt;Node3</title>
<path fill="none" stroke="#9a32cd" stroke-dasharray="5,2" d="M177.739,-138.734C184.564,-131.599 192.816,-123.222 200.574,-116 207.491,-109.561 215.635,-102.699 221.976,-97.5044"/>
<polygon fill="#9a32cd" stroke="#9a32cd" points="174.823,-136.724 170.498,-146.396 179.91,-141.532 174.823,-136.724"/>
<text text-anchor="middle" x="220.574" y="-119.5" font-family="Arial" font-size="10.00"> depends</text>
</g>
<!-- Node5 -->
<g id="node5" class="node"><title>Node5</title>
<g id="a_node5"><a xlink:href="classid_list.html" target="_top" xlink:title="idList\&lt; idDict * \&gt;">
<polygon fill="white" stroke="black" points="215.074,-146.5 215.074,-165.5 304.074,-165.5 304.074,-146.5 215.074,-146.5"/>
<text text-anchor="middle" x="259.574" y="-153.5" font-family="Arial" font-size="10.00">idList&lt; idDict * &gt;</text>
</a>
</g>
</g>
<!-- Node5&#45;&gt;Node3 -->
<g id="edge4" class="edge"><title>Node5&#45;&gt;Node3</title>
<path fill="none" stroke="#9a32cd" stroke-dasharray="5,2" d="M252.131,-136.807C246.943,-124.124 240.249,-107.762 236.191,-97.8411"/>
<polygon fill="#9a32cd" stroke="#9a32cd" points="249.019,-138.441 256.044,-146.372 255.497,-135.791 249.019,-138.441"/>
<text text-anchor="middle" x="272.074" y="-119.5" font-family="Arial" font-size="10.00"> mapDecls</text>
</g>
<!-- Node6&#45;&gt;Node1 -->
<g id="edge5" class="edge"><title>Node6&#45;&gt;Node1</title>
<path fill="none" stroke="#9a32cd" stroke-dasharray="5,2" d="M106.574,-68.2239C106.574,-52.6974 106.574,-31.3582 106.574,-19.6165"/>
<polygon fill="#9a32cd" stroke="#9a32cd" points="103.074,-68.2818 106.574,-78.2818 110.074,-68.2819 103.074,-68.2818"/>
<text text-anchor="middle" x="130.574" y="-52" font-family="Arial" font-size="10.00"> hashTable</text>
<text text-anchor="middle" x="130.574" y="-41" font-family="Arial" font-size="10.00">buildBuffer</text>
</g>
<!-- Node6&#45;&gt;Node6 -->
<g id="edge7" class="edge"><title>Node6&#45;&gt;Node6</title>
<path fill="none" stroke="#9a32cd" stroke-dasharray="5,2" d="M151.3,-93.2033C155.746,-92.1624 158.574,-90.428 158.574,-88 158.574,-84.0156 150.957,-81.8989 141.078,-81.6499"/>
<polygon fill="#9a32cd" stroke="#9a32cd" points="150.626,-89.757 141.078,-94.3501 151.406,-96.7133 150.626,-89.757"/>
<text text-anchor="middle" x="169.574" y="-85.5" font-family="Arial" font-size="10.00"> next</text>
</g>
</g>
</svg>
