<?xml version="1.0" encoding="UTF-8" standalone="no"?>
<!DOCTYPE svg PUBLIC "-//W3C//DTD SVG 1.1//EN"
 "http://www.w3.org/Graphics/SVG/1.1/DTD/svg11.dtd">
<!-- Generated by graphviz version 2.34.0 (20130907.0111)
 -->
<!-- Title: cm_brush_s Pages: 1 -->
<svg width="212pt" height="222pt"
 viewBox="0.00 0.00 212.00 222.00" xmlns="http://www.w3.org/2000/svg" xmlns:xlink="http://www.w3.org/1999/xlink">
<g id="graph0" class="graph" transform="scale(1 1) rotate(0) translate(4 218)">
<title>cm_brush_s</title>
<polygon fill="white" stroke="white" points="-4,4 -4,-218 208,-218 208,4 -4,4"/>
<!-- Node1 -->
<g id="node1" class="node"><title>Node1</title>
<polygon fill="#bfbfbf" stroke="black" points="60,-0.5 60,-19.5 130,-19.5 130,-0.5 60,-0.5"/>
<text text-anchor="middle" x="95" y="-7.5" font-family="Arial" font-size="10.00">cm_brush_s</text>
</g>
<!-- Node2 -->
<g id="node2" class="node"><title>Node2</title>
<g id="a_node2"><a xlink:href="classid_plane.html" target="_top" xlink:title="idPlane">
<polygon fill="white" stroke="black" points="-0.5,-68.5 -0.5,-87.5 48.5,-87.5 48.5,-68.5 -0.5,-68.5"/>
<text text-anchor="middle" x="24" y="-75.5" font-family="Arial" font-size="10.00">idPlane</text>
</a>
</g>
</g>
<!-- Node2&#45;&gt;Node1 -->
<g id="edge1" class="edge"><title>Node2&#45;&gt;Node1</title>
<path fill="none" stroke="#9a32cd" stroke-dasharray="5,2" d="M37.3719,-60.695C43.6338,-53.439 51.3806,-44.9775 59,-38 66.2597,-31.3519 75.094,-24.7074 82.1944,-19.6733"/>
<polygon fill="#9a32cd" stroke="#9a32cd" points="34.565,-58.5946 30.7998,-68.4978 39.9189,-63.1041 34.565,-58.5946"/>
<text text-anchor="middle" x="75" y="-41.5" font-family="Arial" font-size="10.00"> planes</text>
</g>
<!-- Node3 -->
<g id="node3" class="node"><title>Node3</title>
<g id="a_node3"><a xlink:href="classid_bounds.html" target="_top" xlink:title="idBounds">
<polygon fill="white" stroke="black" points="66.5,-68.5 66.5,-87.5 123.5,-87.5 123.5,-68.5 66.5,-68.5"/>
<text text-anchor="middle" x="95" y="-75.5" font-family="Arial" font-size="10.00">idBounds</text>
</a>
</g>
</g>
<!-- Node3&#45;&gt;Node1 -->
<g id="edge2" class="edge"><title>Node3&#45;&gt;Node1</title>
<path fill="none" stroke="#9a32cd" stroke-dasharray="5,2" d="M95,-58.0413C95,-45.4724 95,-29.5631 95,-19.8411"/>
<polygon fill="#9a32cd" stroke="#9a32cd" points="91.5001,-58.3716 95,-68.3717 98.5001,-58.3717 91.5001,-58.3716"/>
<text text-anchor="middle" x="112.5" y="-41.5" font-family="Arial" font-size="10.00"> bounds</text>
</g>
<!-- Node4 -->
<g id="node4" class="node"><title>Node4</title>
<g id="a_node4"><a xlink:href="classid_material.html" target="_top" xlink:title="idMaterial">
<polygon fill="white" stroke="black" points="141.5,-68.5 141.5,-87.5 200.5,-87.5 200.5,-68.5 141.5,-68.5"/>
<text text-anchor="middle" x="171" y="-75.5" font-family="Arial" font-size="10.00">idMaterial</text>
</a>
</g>
</g>
<!-- Node4&#45;&gt;Node1 -->
<g id="edge3" class="edge"><title>Node4&#45;&gt;Node1</title>
<path fill="none" stroke="#9a32cd" stroke-dasharray="5,2" d="M156.857,-60.6209C150.236,-53.3503 142.047,-44.8977 134,-38 126.122,-31.2472 116.551,-24.601 108.862,-19.5923"/>
<polygon fill="#9a32cd" stroke="#9a32cd" points="154.551,-63.2947 163.807,-68.449 159.785,-58.6472 154.551,-63.2947"/>
<text text-anchor="middle" x="164" y="-41.5" font-family="Arial" font-size="10.00"> material</text>
</g>
<!-- Node5 -->
<g id="node5" class="node"><title>Node5</title>
<g id="a_node5"><a xlink:href="classid_decl.html" target="_top" xlink:title="idDecl">
<polygon fill="white" stroke="black" points="149,-126.5 149,-145.5 193,-145.5 193,-126.5 149,-126.5"/>
<text text-anchor="middle" x="171" y="-133.5" font-family="Arial" font-size="10.00">idDecl</text>
</a>
</g>
</g>
<!-- Node5&#45;&gt;Node4 -->
<g id="edge4" class="edge"><title>Node5&#45;&gt;Node4</title>
<path fill="none" stroke="midnightblue" d="M171,-115.953C171,-106.287 171,-95.0312 171,-87.5052"/>
<polygon fill="midnightblue" stroke="midnightblue" points="167.5,-116.25 171,-126.25 174.5,-116.25 167.5,-116.25"/>
</g>
<!-- Node6 -->
<g id="node6" class="node"><title>Node6</title>
<g id="a_node6"><a xlink:href="classid_decl_base.html" target="_top" xlink:title="idDeclBase">
<polygon fill="white" stroke="black" points="138,-194.5 138,-213.5 204,-213.5 204,-194.5 138,-194.5"/>
<text text-anchor="middle" x="171" y="-201.5" font-family="Arial" font-size="10.00">idDeclBase</text>
</a>
</g>
</g>
<!-- Node6&#45;&gt;Node5 -->
<g id="edge5" class="edge"><title>Node6&#45;&gt;Node5</title>
<path fill="none" stroke="#9a32cd" stroke-dasharray="5,2" d="M171,-184.041C171,-171.472 171,-155.563 171,-145.841"/>
<polygon fill="#9a32cd" stroke="#9a32cd" points="167.5,-184.372 171,-194.372 174.5,-184.372 167.5,-184.372"/>
<text text-anchor="middle" x="183.5" y="-167.5" font-family="Arial" font-size="10.00"> base</text>
</g>
</g>
</svg>
