<?xml version="1.0" encoding="UTF-8" standalone="no"?>
<!DOCTYPE svg PUBLIC "-//W3C//DTD SVG 1.1//EN"
 "http://www.w3.org/Graphics/SVG/1.1/DTD/svg11.dtd">
<!-- Generated by graphviz version 2.34.0 (20130907.0111)
 -->
<!-- Title: bspface_s Pages: 1 -->
<svg width="108pt" height="164pt"
 viewBox="0.00 0.00 108.00 164.00" xmlns="http://www.w3.org/2000/svg" xmlns:xlink="http://www.w3.org/1999/xlink">
<g id="graph0" class="graph" transform="scale(1 1) rotate(0) translate(4 160)">
<title>bspface_s</title>
<polygon fill="white" stroke="white" points="-4,4 -4,-160 104,-160 104,4 -4,4"/>
<!-- Node1 -->
<g id="node1" class="node"><title>Node1</title>
<polygon fill="#bfbfbf" stroke="black" points="-0.5,-0.5 -0.5,-19.5 60.5,-19.5 60.5,-0.5 -0.5,-0.5"/>
<text text-anchor="middle" x="30" y="-7.5" font-family="Arial" font-size="10.00">bspface_s</text>
</g>
<!-- Node1&#45;&gt;Node1 -->
<g id="edge3" class="edge"><title>Node1&#45;&gt;Node1</title>
<path fill="none" stroke="#9a32cd" stroke-dasharray="5,2" d="M71.2014,-15.2246C75.3532,-14.1861 78,-12.4446 78,-10 78,-5.88281 70.4922,-3.75989 60.9315,-3.63123"/>
<polygon fill="#9a32cd" stroke="#9a32cd" points="70.4824,-11.7829 60.9315,-16.3688 71.2575,-18.7399 70.4824,-11.7829"/>
<text text-anchor="middle" x="89" y="-7.5" font-family="Arial" font-size="10.00"> next</text>
</g>
<!-- Node2 -->
<g id="node2" class="node"><title>Node2</title>
<g id="a_node2"><a xlink:href="classid_winding.html" target="_top" xlink:title="idWinding">
<polygon fill="white" stroke="black" points="0.5,-68.5 0.5,-87.5 59.5,-87.5 59.5,-68.5 0.5,-68.5"/>
<text text-anchor="middle" x="30" y="-75.5" font-family="Arial" font-size="10.00">idWinding</text>
</a>
</g>
</g>
<!-- Node2&#45;&gt;Node1 -->
<g id="edge1" class="edge"><title>Node2&#45;&gt;Node1</title>
<path fill="none" stroke="#9a32cd" stroke-dasharray="5,2" d="M30,-58.0413C30,-45.4724 30,-29.5631 30,-19.8411"/>
<polygon fill="#9a32cd" stroke="#9a32cd" points="26.5001,-58.3716 30,-68.3717 33.5001,-58.3717 26.5001,-58.3716"/>
<text text-anchor="middle" x="35" y="-41.5" font-family="Arial" font-size="10.00"> w</text>
</g>
<!-- Node3 -->
<g id="node3" class="node"><title>Node3</title>
<g id="a_node3"><a xlink:href="classid_vec5.html" target="_top" xlink:title="idVec5">
<polygon fill="white" stroke="black" points="6.5,-136.5 6.5,-155.5 53.5,-155.5 53.5,-136.5 6.5,-136.5"/>
<text text-anchor="middle" x="30" y="-143.5" font-family="Arial" font-size="10.00">idVec5</text>
</a>
</g>
</g>
<!-- Node3&#45;&gt;Node2 -->
<g id="edge2" class="edge"><title>Node3&#45;&gt;Node2</title>
<path fill="none" stroke="#9a32cd" stroke-dasharray="5,2" d="M30,-126.041C30,-113.472 30,-97.5631 30,-87.8411"/>
<polygon fill="#9a32cd" stroke="#9a32cd" points="26.5001,-126.372 30,-136.372 33.5001,-126.372 26.5001,-126.372"/>
<text text-anchor="middle" x="34.5" y="-109.5" font-family="Arial" font-size="10.00"> p</text>
</g>
</g>
</svg>
