<?xml version="1.0" encoding="UTF-8" standalone="no"?>
<!DOCTYPE svg PUBLIC "-//W3C//DTD SVG 1.1//EN"
 "http://www.w3.org/Graphics/SVG/1.1/DTD/svg11.dtd">
<!-- Generated by graphviz version 2.34.0 (20130907.0111)
 -->
<!-- Title: brush_s Pages: 1 -->
<svg width="906pt" height="718pt"
 viewBox="0.00 0.00 906.00 718.00" xmlns="http://www.w3.org/2000/svg" xmlns:xlink="http://www.w3.org/1999/xlink">
<g id="graph0" class="graph" transform="scale(1 1) rotate(0) translate(4 714)">
<title>brush_s</title>
<polygon fill="white" stroke="white" points="-4,4 -4,-714 902,-714 902,4 -4,4"/>
<!-- Node1 -->
<g id="node1" class="node"><title>Node1</title>
<polygon fill="#bfbfbf" stroke="black" points="652.5,-270.5 652.5,-289.5 703.5,-289.5 703.5,-270.5 652.5,-270.5"/>
<text text-anchor="middle" x="678" y="-277.5" font-family="Arial" font-size="10.00">brush_s</text>
</g>
<!-- Node1&#45;&gt;Node1 -->
<g id="edge30" class="edge"><title>Node1&#45;&gt;Node1</title>
<path fill="none" stroke="#9a32cd" stroke-dasharray="5,2" d="M660.223,-299.4C661.41,-304.315 667.336,-308 678,-308 695.063,-308 699.995,-298.565 692.796,-289.757"/>
<polygon fill="#9a32cd" stroke="#9a32cd" points="663.594,-300.345 663.204,-289.757 656.907,-298.278 663.594,-300.345"/>
<text text-anchor="middle" x="678" y="-355" font-family="Arial" font-size="10.00"> prev</text>
<text text-anchor="middle" x="678" y="-344" font-family="Arial" font-size="10.00">next</text>
<text text-anchor="middle" x="678" y="-333" font-family="Arial" font-size="10.00">oprev</text>
<text text-anchor="middle" x="678" y="-322" font-family="Arial" font-size="10.00">onext</text>
<text text-anchor="middle" x="678" y="-311" font-family="Arial" font-size="10.00">list</text>
</g>
<!-- Node12 -->
<g id="node12" class="node"><title>Node12</title>
<g id="a_node12"><a xlink:href="structentity__s.html" target="_top" xlink:title="entity_s">
<polygon fill="white" stroke="black" points="835.5,-445.5 835.5,-464.5 886.5,-464.5 886.5,-445.5 835.5,-445.5"/>
<text text-anchor="middle" x="861" y="-452.5" font-family="Arial" font-size="10.00">entity_s</text>
</a>
</g>
</g>
<!-- Node1&#45;&gt;Node12 -->
<g id="edge15" class="edge"><title>Node1&#45;&gt;Node12</title>
<path fill="none" stroke="#9a32cd" stroke-dasharray="5,2" d="M693.771,-297.653C706.114,-311.583 724.745,-330.801 744,-344 768.939,-361.095 783.053,-352.312 806,-372 830.659,-393.156 848.341,-428.314 855.907,-445.268"/>
<polygon fill="#9a32cd" stroke="#9a32cd" points="696.138,-295.04 686.95,-289.765 690.844,-299.618 696.138,-295.04"/>
<text text-anchor="middle" x="775" y="-375" font-family="Arial" font-size="10.00"> brushes</text>
</g>
<!-- Node23 -->
<g id="node23" class="node"><title>Node23</title>
<g id="a_node23"><a xlink:href="structpatch_mesh__t.html" target="_top" xlink:title="patchMesh_t">
<polygon fill="white" stroke="black" points="824.5,-210.5 824.5,-229.5 897.5,-229.5 897.5,-210.5 824.5,-210.5"/>
<text text-anchor="middle" x="861" y="-217.5" font-family="Arial" font-size="10.00">patchMesh_t</text>
</a>
</g>
</g>
<!-- Node1&#45;&gt;Node23 -->
<g id="edge35" class="edge"><title>Node1&#45;&gt;Node23</title>
<path fill="none" stroke="#9a32cd" stroke-dasharray="5,2" d="M708.399,-266.318C719.432,-261.454 732.165,-256.159 744,-252 770.509,-242.684 801.183,-234.324 824.328,-228.487"/>
<polygon fill="#9a32cd" stroke="#9a32cd" points="706.898,-263.155 699.207,-270.441 709.763,-269.542 706.898,-263.155"/>
<text text-anchor="middle" x="775" y="-255" font-family="Arial" font-size="10.00"> pSymbiot</text>
</g>
<!-- Node2 -->
<g id="node2" class="node"><title>Node2</title>
<g id="a_node2"><a xlink:href="structface__s.html" target="_top" xlink:title="face_s">
<polygon fill="white" stroke="black" points="467.5,-104.5 467.5,-123.5 512.5,-123.5 512.5,-104.5 467.5,-104.5"/>
<text text-anchor="middle" x="490" y="-111.5" font-family="Arial" font-size="10.00">face_s</text>
</a>
</g>
</g>
<!-- Node2&#45;&gt;Node1 -->
<g id="edge1" class="edge"><title>Node2&#45;&gt;Node1</title>
<path fill="none" stroke="#9a32cd" stroke-dasharray="5,2" d="M522.643,-122.14C550.115,-130.807 588.998,-147.192 612,-175 630.56,-197.439 614.534,-213.326 630,-238 638.253,-251.166 651.811,-262.649 662.25,-270.264"/>
<polygon fill="#9a32cd" stroke="#9a32cd" points="523.313,-118.688 512.73,-119.189 521.315,-125.397 523.313,-118.688"/>
<text text-anchor="middle" x="582" y="-178" font-family="Arial" font-size="10.00"> brush_faces</text>
</g>
<!-- Node2&#45;&gt;Node2 -->
<g id="edge2" class="edge"><title>Node2&#45;&gt;Node2</title>
<path fill="none" stroke="#9a32cd" stroke-dasharray="5,2" d="M472.964,-133.4C474.102,-138.315 479.78,-142 490,-142 506.352,-142 511.078,-132.565 504.18,-123.757"/>
<polygon fill="#9a32cd" stroke="#9a32cd" points="476.336,-134.339 475.82,-123.757 469.624,-132.351 476.336,-134.339"/>
<text text-anchor="middle" x="490" y="-156" font-family="Arial" font-size="10.00"> original</text>
<text text-anchor="middle" x="490" y="-145" font-family="Arial" font-size="10.00">next</text>
</g>
<!-- Node3 -->
<g id="node3" class="node"><title>Node3</title>
<g id="a_node3"><a xlink:href="classid_winding.html" target="_top" xlink:title="idWinding">
<polygon fill="white" stroke="black" points="244.5,-100.5 244.5,-119.5 303.5,-119.5 303.5,-100.5 244.5,-100.5"/>
<text text-anchor="middle" x="274" y="-107.5" font-family="Arial" font-size="10.00">idWinding</text>
</a>
</g>
</g>
<!-- Node3&#45;&gt;Node2 -->
<g id="edge3" class="edge"><title>Node3&#45;&gt;Node2</title>
<path fill="none" stroke="#9a32cd" stroke-dasharray="5,2" d="M314.132,-110.731C359.161,-111.573 431.5,-112.925 467.379,-113.596"/>
<polygon fill="#9a32cd" stroke="#9a32cd" points="313.925,-107.227 303.861,-110.539 313.794,-114.226 313.925,-107.227"/>
<text text-anchor="middle" x="386" y="-116" font-family="Arial" font-size="10.00"> face_winding</text>
</g>
<!-- Node4 -->
<g id="node4" class="node"><title>Node4</title>
<g id="a_node4"><a xlink:href="classid_vec5.html" target="_top" xlink:title="idVec5">
<polygon fill="white" stroke="black" points="128.5,-100.5 128.5,-119.5 175.5,-119.5 175.5,-100.5 128.5,-100.5"/>
<text text-anchor="middle" x="152" y="-107.5" font-family="Arial" font-size="10.00">idVec5</text>
</a>
</g>
</g>
<!-- Node4&#45;&gt;Node3 -->
<g id="edge4" class="edge"><title>Node4&#45;&gt;Node3</title>
<path fill="none" stroke="#9a32cd" stroke-dasharray="5,2" d="M185.761,-110C204.026,-110 226.566,-110 244.159,-110"/>
<polygon fill="#9a32cd" stroke="#9a32cd" points="185.571,-106.5 175.571,-110 185.571,-113.5 185.571,-106.5"/>
<text text-anchor="middle" x="199" y="-113" font-family="Arial" font-size="10.00"> p</text>
</g>
<!-- Node5 -->
<g id="node5" class="node"><title>Node5</title>
<g id="a_node5"><a xlink:href="classbrushprimit__texdef__t.html" target="_top" xlink:title="brushprimit_texdef_t">
<polygon fill="white" stroke="black" points="222,-183.5 222,-202.5 326,-202.5 326,-183.5 222,-183.5"/>
<text text-anchor="middle" x="274" y="-190.5" font-family="Arial" font-size="10.00">brushprimit_texdef_t</text>
</a>
</g>
</g>
<!-- Node5&#45;&gt;Node2 -->
<g id="edge5" class="edge"><title>Node5&#45;&gt;Node2</title>
<path fill="none" stroke="#9a32cd" stroke-dasharray="5,2" d="M336.235,-189.044C365.136,-185.39 399.462,-178.389 428,-165 449.495,-154.915 469.642,-135.36 480.55,-123.612"/>
<polygon fill="#9a32cd" stroke="#9a32cd" points="335.787,-185.572 326.257,-190.202 336.594,-192.526 335.787,-185.572"/>
<text text-anchor="middle" x="386" y="-190" font-family="Arial" font-size="10.00"> brushprimit_texdef</text>
</g>
<!-- Node6 -->
<g id="node6" class="node"><title>Node6</title>
<g id="a_node6"><a xlink:href="classtexdef__t.html" target="_top" xlink:title="texdef_t">
<polygon fill="white" stroke="black" points="248.5,-282.5 248.5,-301.5 299.5,-301.5 299.5,-282.5 248.5,-282.5"/>
<text text-anchor="middle" x="274" y="-289.5" font-family="Arial" font-size="10.00">texdef_t</text>
</a>
</g>
</g>
<!-- Node6&#45;&gt;Node2 -->
<g id="edge6" class="edge"><title>Node6&#45;&gt;Node2</title>
<path fill="none" stroke="#9a32cd" stroke-dasharray="5,2" d="M289.657,-274.61C302.613,-260.252 322.714,-240.301 344,-228 377.837,-208.446 396.477,-225.1 428,-202 431.786,-199.226 467.577,-146.039 482.508,-123.724"/>
<polygon fill="#9a32cd" stroke="#9a32cd" points="286.861,-272.491 282.9,-282.318 292.124,-277.106 286.861,-272.491"/>
<text text-anchor="middle" x="386" y="-231" font-family="Arial" font-size="10.00"> texdef</text>
</g>
<!-- Node15 -->
<g id="node15" class="node"><title>Node15</title>
<g id="a_node15"><a xlink:href="structeclass__s.html" target="_top" xlink:title="eclass_s">
<polygon fill="white" stroke="black" points="650,-466.5 650,-485.5 706,-485.5 706,-466.5 650,-466.5"/>
<text text-anchor="middle" x="678" y="-473.5" font-family="Arial" font-size="10.00">eclass_s</text>
</a>
</g>
</g>
<!-- Node6&#45;&gt;Node15 -->
<g id="edge19" class="edge"><title>Node6&#45;&gt;Node15</title>
<path fill="none" stroke="#9a32cd" stroke-dasharray="5,2" d="M292.29,-308.604C305.763,-321.08 325.268,-338.158 344,-351 386.479,-380.123 398.484,-386.128 446,-406 483.743,-421.785 495.683,-418.666 534,-433 542.2,-436.067 543.763,-438.034 552,-441 585.077,-452.91 624.259,-463.302 649.822,-469.603"/>
<polygon fill="#9a32cd" stroke="#9a32cd" points="294.425,-305.807 284.741,-301.509 289.631,-310.908 294.425,-305.807"/>
<text text-anchor="middle" x="490" y="-436" font-family="Arial" font-size="10.00"> texdef</text>
</g>
<!-- Node7 -->
<g id="node7" class="node"><title>Node7</title>
<g id="a_node7"><a xlink:href="classid_plane.html" target="_top" xlink:title="idPlane">
<polygon fill="white" stroke="black" points="249.5,-138.5 249.5,-157.5 298.5,-157.5 298.5,-138.5 249.5,-138.5"/>
<text text-anchor="middle" x="274" y="-145.5" font-family="Arial" font-size="10.00">idPlane</text>
</a>
</g>
</g>
<!-- Node7&#45;&gt;Node2 -->
<g id="edge7" class="edge"><title>Node7&#45;&gt;Node2</title>
<path fill="none" stroke="#9a32cd" stroke-dasharray="5,2" d="M308.923,-143.631C339.979,-139.511 387.177,-132.946 428,-126 441.088,-123.773 455.681,-120.916 467.311,-118.548"/>
<polygon fill="#9a32cd" stroke="#9a32cd" points="308.106,-140.209 298.648,-144.983 309.02,-147.149 308.106,-140.209"/>
<text text-anchor="middle" x="386" y="-153" font-family="Arial" font-size="10.00"> plane</text>
<text text-anchor="middle" x="386" y="-142" font-family="Arial" font-size="10.00">originalPlane</text>
</g>
<!-- Node8 -->
<g id="node8" class="node"><title>Node8</title>
<g id="a_node8"><a xlink:href="classid_vec3.html" target="_top" xlink:title="idVec3">
<polygon fill="white" stroke="black" points="250.5,-380.5 250.5,-399.5 297.5,-399.5 297.5,-380.5 250.5,-380.5"/>
<text text-anchor="middle" x="274" y="-387.5" font-family="Arial" font-size="10.00">idVec3</text>
</a>
</g>
</g>
<!-- Node8&#45;&gt;Node1 -->
<g id="edge32" class="edge"><title>Node8&#45;&gt;Node1</title>
<path fill="none" stroke="#9a32cd" stroke-dasharray="5,2" d="M307.689,-397.709C342.479,-403.781 396.728,-406.772 428,-376 454.605,-349.82 418.228,-233.939 446,-209 513.115,-148.73 630.431,-239.774 666.287,-270.482"/>
<polygon fill="#9a32cd" stroke="#9a32cd" points="308.045,-394.214 297.564,-395.76 306.722,-401.088 308.045,-394.214"/>
<text text-anchor="middle" x="490" y="-322" font-family="Arial" font-size="10.00"> lightUp</text>
<text text-anchor="middle" x="490" y="-311" font-family="Arial" font-size="10.00">lightTarget</text>
<text text-anchor="middle" x="490" y="-300" font-family="Arial" font-size="10.00">lightCenter</text>
<text text-anchor="middle" x="490" y="-289" font-family="Arial" font-size="10.00">maxs</text>
<text text-anchor="middle" x="490" y="-278" font-family="Arial" font-size="10.00">lightStart</text>
<text text-anchor="middle" x="490" y="-267" font-family="Arial" font-size="10.00">mins</text>
<text text-anchor="middle" x="490" y="-256" font-family="Arial" font-size="10.00">lightColor</text>
<text text-anchor="middle" x="490" y="-245" font-family="Arial" font-size="10.00">lightEnd</text>
<text text-anchor="middle" x="490" y="-234" font-family="Arial" font-size="10.00">lightRadius</text>
<text text-anchor="middle" x="490" y="-223" font-family="Arial" font-size="10.00">lightOffset</text>
<text text-anchor="middle" x="490" y="-212" font-family="Arial" font-size="10.00">...</text>
</g>
<!-- Node8&#45;&gt;Node2 -->
<g id="edge8" class="edge"><title>Node8&#45;&gt;Node2</title>
<path fill="none" stroke="#9a32cd" stroke-dasharray="5,2" d="M296.828,-374.483C310.258,-365.099 327.921,-353.048 344,-343 380.464,-320.212 403.645,-330.436 428,-295 457.8,-251.642 426.871,-227.011 446,-178 454.274,-156.801 470.521,-135.534 480.504,-123.638"/>
<polygon fill="#9a32cd" stroke="#9a32cd" points="294.445,-371.88 288.278,-380.496 298.471,-377.606 294.445,-371.88"/>
<text text-anchor="middle" x="386" y="-368" font-family="Arial" font-size="10.00"> planepts</text>
<text text-anchor="middle" x="386" y="-357" font-family="Arial" font-size="10.00">d_color</text>
<text text-anchor="middle" x="386" y="-346" font-family="Arial" font-size="10.00">orgplanepts</text>
</g>
<!-- Node8&#45;&gt;Node12 -->
<g id="edge28" class="edge"><title>Node8&#45;&gt;Node12</title>
<path fill="none" stroke="#9a32cd" stroke-dasharray="5,2" d="M283.402,-408.864C303.854,-452.114 360.874,-557.783 446,-598 600.011,-670.761 801.472,-506.706 849.43,-464.555"/>
<polygon fill="#9a32cd" stroke="#9a32cd" points="286.457,-407.129 279.094,-399.511 280.099,-410.058 286.457,-407.129"/>
<text text-anchor="middle" x="582" y="-629" font-family="Arial" font-size="10.00"> origin</text>
<text text-anchor="middle" x="582" y="-618" font-family="Arial" font-size="10.00">lightOrigin</text>
</g>
<!-- Node8&#45;&gt;Node15 -->
<g id="edge23" class="edge"><title>Node8&#45;&gt;Node15</title>
<path fill="none" stroke="#9a32cd" stroke-dasharray="5,2" d="M307.028,-402.572C341.048,-415.519 396.623,-435.518 446,-448 492.328,-459.711 504.581,-460.089 552,-466 585.485,-470.174 624.246,-472.96 649.619,-474.508"/>
<polygon fill="#9a32cd" stroke="#9a32cd" points="308.201,-399.273 297.611,-398.958 305.693,-405.808 308.201,-399.273"/>
<text text-anchor="middle" x="490" y="-488" font-family="Arial" font-size="10.00"> maxs</text>
<text text-anchor="middle" x="490" y="-477" font-family="Arial" font-size="10.00">mins</text>
<text text-anchor="middle" x="490" y="-466" font-family="Arial" font-size="10.00">color</text>
</g>
<!-- Node24 -->
<g id="node24" class="node"><title>Node24</title>
<g id="a_node24"><a xlink:href="classid_draw_vert.html" target="_top" xlink:title="idDrawVert">
<polygon fill="white" stroke="black" points="458,-66.5 458,-85.5 522,-85.5 522,-66.5 458,-66.5"/>
<text text-anchor="middle" x="490" y="-73.5" font-family="Arial" font-size="10.00">idDrawVert</text>
</a>
</g>
</g>
<!-- Node8&#45;&gt;Node24 -->
<g id="edge38" class="edge"><title>Node8&#45;&gt;Node24</title>
<path fill="none" stroke="#9a32cd" stroke-dasharray="5,2" d="M288.404,-372.068C299.566,-356.525 315.308,-333.115 326,-311 336.828,-288.603 325.511,-274.644 344,-258 372.448,-232.391 402.294,-267.36 428,-239 471.316,-191.212 407.506,-146.751 446,-95 449.117,-90.8089 453.364,-87.5259 457.979,-84.9588"/>
<polygon fill="#9a32cd" stroke="#9a32cd" points="285.506,-370.101 282.434,-380.241 291.159,-374.23 285.506,-370.101"/>
<text text-anchor="middle" x="386" y="-283" font-family="Arial" font-size="10.00"> xyz</text>
<text text-anchor="middle" x="386" y="-272" font-family="Arial" font-size="10.00">normal</text>
<text text-anchor="middle" x="386" y="-261" font-family="Arial" font-size="10.00">tangents</text>
</g>
<!-- Node9 -->
<g id="node9" class="node"><title>Node9</title>
<g id="a_node9"><a xlink:href="classid_material.html" target="_top" xlink:title="idMaterial">
<polygon fill="white" stroke="black" points="244.5,-0.5 244.5,-19.5 303.5,-19.5 303.5,-0.5 244.5,-0.5"/>
<text text-anchor="middle" x="274" y="-7.5" font-family="Arial" font-size="10.00">idMaterial</text>
</a>
</g>
</g>
<!-- Node9&#45;&gt;Node2 -->
<g id="edge9" class="edge"><title>Node9&#45;&gt;Node2</title>
<path fill="none" stroke="#9a32cd" stroke-dasharray="5,2" d="M313.234,-21.0059C317.794,-23.2307 322.18,-25.8729 326,-29 337.739,-38.6088 332.319,-48.3213 344,-58 363.429,-74.0985 431.843,-96.5588 467.311,-107.497"/>
<polygon fill="#9a32cd" stroke="#9a32cd" points="314.325,-17.6677 303.751,-17.0036 311.603,-24.1167 314.325,-17.6677"/>
<text text-anchor="middle" x="386" y="-98" font-family="Arial" font-size="10.00"> d_texture</text>
</g>
<!-- Node9&#45;&gt;Node23 -->
<g id="edge40" class="edge"><title>Node9&#45;&gt;Node23</title>
<path fill="none" stroke="#9a32cd" stroke-dasharray="5,2" d="M313.729,-16.7044C344.673,-22.0924 389.142,-29.9057 428,-37 475.163,-45.6104 487.799,-44.1965 534,-57 621.676,-81.2974 643.245,-90.1951 726,-128 762.909,-144.861 772.851,-148.596 806,-172 822.805,-183.864 840.24,-200.227 850.601,-210.455"/>
<polygon fill="#9a32cd" stroke="#9a32cd" points="314.233,-13.2395 303.781,-14.9746 313.034,-20.136 314.233,-13.2395"/>
<text text-anchor="middle" x="582" y="-84" font-family="Arial" font-size="10.00"> d_texture</text>
</g>
<!-- Node10 -->
<g id="node10" class="node"><title>Node10</title>
<g id="a_node10"><a xlink:href="classid_decl.html" target="_top" xlink:title="idDecl">
<polygon fill="white" stroke="black" points="130,-0.5 130,-19.5 174,-19.5 174,-0.5 130,-0.5"/>
<text text-anchor="middle" x="152" y="-7.5" font-family="Arial" font-size="10.00">idDecl</text>
</a>
</g>
</g>
<!-- Node10&#45;&gt;Node9 -->
<g id="edge10" class="edge"><title>Node10&#45;&gt;Node9</title>
<path fill="none" stroke="midnightblue" d="M184.221,-10C202.822,-10 226.258,-10 244.38,-10"/>
<polygon fill="midnightblue" stroke="midnightblue" points="184.177,-6.5001 174.177,-10 184.177,-13.5001 184.177,-6.5001"/>
</g>
<!-- Node11 -->
<g id="node11" class="node"><title>Node11</title>
<g id="a_node11"><a xlink:href="classid_decl_base.html" target="_top" xlink:title="idDeclBase">
<polygon fill="white" stroke="black" points="0,-0.5 0,-19.5 66,-19.5 66,-0.5 0,-0.5"/>
<text text-anchor="middle" x="33" y="-7.5" font-family="Arial" font-size="10.00">idDeclBase</text>
</a>
</g>
</g>
<!-- Node11&#45;&gt;Node10 -->
<g id="edge11" class="edge"><title>Node11&#45;&gt;Node10</title>
<path fill="none" stroke="#9a32cd" stroke-dasharray="5,2" d="M76.3842,-10C94.5697,-10 115.009,-10 129.891,-10"/>
<polygon fill="#9a32cd" stroke="#9a32cd" points="76.2805,-6.5001 66.2805,-10 76.2804,-13.5001 76.2805,-6.5001"/>
<text text-anchor="middle" x="97" y="-13" font-family="Arial" font-size="10.00"> base</text>
</g>
<!-- Node12&#45;&gt;Node1 -->
<g id="edge12" class="edge"><title>Node12&#45;&gt;Node1</title>
<path fill="none" stroke="#9a32cd" stroke-dasharray="5,2" d="M857.29,-435.367C852.289,-406.531 838.931,-352.817 806,-322 790.994,-307.957 736.027,-293.255 703.531,-285.518"/>
<polygon fill="#9a32cd" stroke="#9a32cd" points="853.86,-436.086 858.866,-445.424 860.775,-435.002 853.86,-436.086"/>
<text text-anchor="middle" x="775" y="-336" font-family="Arial" font-size="10.00"> pUndoOwner</text>
<text text-anchor="middle" x="775" y="-325" font-family="Arial" font-size="10.00">owner</text>
</g>
<!-- Node12&#45;&gt;Node12 -->
<g id="edge14" class="edge"><title>Node12&#45;&gt;Node12</title>
<path fill="none" stroke="#9a32cd" stroke-dasharray="5,2" d="M845.075,-474.4C846.138,-479.315 851.447,-483 861,-483 876.285,-483 880.704,-473.565 874.255,-464.757"/>
<polygon fill="#9a32cd" stroke="#9a32cd" points="848.449,-475.328 847.745,-464.757 841.703,-473.46 848.449,-475.328"/>
<text text-anchor="middle" x="861" y="-497" font-family="Arial" font-size="10.00"> prev</text>
<text text-anchor="middle" x="861" y="-486" font-family="Arial" font-size="10.00">next</text>
</g>
<!-- Node13 -->
<g id="node13" class="node"><title>Node13</title>
<g id="a_node13"><a xlink:href="classid_mat3.html" target="_top" xlink:title="idMat3">
<polygon fill="white" stroke="black" points="655,-381.5 655,-400.5 701,-400.5 701,-381.5 655,-381.5"/>
<text text-anchor="middle" x="678" y="-388.5" font-family="Arial" font-size="10.00">idMat3</text>
</a>
</g>
</g>
<!-- Node13&#45;&gt;Node12 -->
<g id="edge13" class="edge"><title>Node13&#45;&gt;Node12</title>
<path fill="none" stroke="#9a32cd" stroke-dasharray="5,2" d="M711.578,-387.536C738.198,-386.086 776.167,-387.246 806,-401 827.191,-410.77 844.768,-432.629 853.684,-445.338"/>
<polygon fill="#9a32cd" stroke="#9a32cd" points="711.004,-384.067 701.273,-388.258 711.493,-391.05 711.004,-384.067"/>
<text text-anchor="middle" x="775" y="-415" font-family="Arial" font-size="10.00"> rotation</text>
<text text-anchor="middle" x="775" y="-404" font-family="Arial" font-size="10.00">lightRotation</text>
</g>
<!-- Node14 -->
<g id="node14" class="node"><title>Node14</title>
<g id="a_node14"><a xlink:href="classid_sound_emitter.html" target="_top" xlink:title="idSoundEmitter">
<polygon fill="white" stroke="black" points="636.5,-686.5 636.5,-705.5 719.5,-705.5 719.5,-686.5 636.5,-686.5"/>
<text text-anchor="middle" x="678" y="-693.5" font-family="Arial" font-size="10.00">idSoundEmitter</text>
</a>
</g>
</g>
<!-- Node14&#45;&gt;Node12 -->
<g id="edge16" class="edge"><title>Node14&#45;&gt;Node12</title>
<path fill="none" stroke="#9a32cd" stroke-dasharray="5,2" d="M729.623,-698.212C755.576,-696.622 785.87,-690.136 806,-671 836.887,-641.638 854.628,-502.609 858.955,-464.615"/>
<polygon fill="#9a32cd" stroke="#9a32cd" points="729.407,-694.717 719.551,-698.604 729.68,-701.712 729.407,-694.717"/>
<text text-anchor="middle" x="775" y="-699" font-family="Arial" font-size="10.00"> soundEmitter</text>
</g>
<!-- Node15&#45;&gt;Node12 -->
<g id="edge17" class="edge"><title>Node15&#45;&gt;Node12</title>
<path fill="none" stroke="#9a32cd" stroke-dasharray="5,2" d="M716.112,-471.694C751.754,-467.559 804.592,-461.429 835.337,-457.861"/>
<polygon fill="#9a32cd" stroke="#9a32cd" points="715.627,-468.227 706.098,-472.856 716.434,-475.18 715.627,-468.227"/>
<text text-anchor="middle" x="775" y="-481" font-family="Arial" font-size="10.00"> md3Class</text>
<text text-anchor="middle" x="775" y="-470" font-family="Arial" font-size="10.00">eclass</text>
</g>
<!-- Node15&#45;&gt;Node15 -->
<g id="edge22" class="edge"><title>Node15&#45;&gt;Node15</title>
<path fill="none" stroke="#9a32cd" stroke-dasharray="5,2" d="M660.223,-495.4C661.41,-500.315 667.336,-504 678,-504 695.063,-504 699.995,-494.565 692.796,-485.757"/>
<polygon fill="#9a32cd" stroke="#9a32cd" points="663.594,-496.345 663.204,-485.757 656.907,-494.278 663.594,-496.345"/>
<text text-anchor="middle" x="678" y="-507" font-family="Arial" font-size="10.00"> next</text>
</g>
<!-- Node16 -->
<g id="node16" class="node"><title>Node16</title>
<g id="a_node16"><a xlink:href="classid_str.html" target="_top" xlink:title="idStr">
<polygon fill="white" stroke="black" points="471.5,-531.5 471.5,-550.5 508.5,-550.5 508.5,-531.5 471.5,-531.5"/>
<text text-anchor="middle" x="490" y="-538.5" font-family="Arial" font-size="10.00">idStr</text>
</a>
</g>
</g>
<!-- Node16&#45;&gt;Node15 -->
<g id="edge18" class="edge"><title>Node16&#45;&gt;Node15</title>
<path fill="none" stroke="#9a32cd" stroke-dasharray="5,2" d="M517.768,-528.308C528.317,-523.53 540.614,-518.233 552,-514 585.166,-501.671 624.328,-490.257 649.863,-483.221"/>
<polygon fill="#9a32cd" stroke="#9a32cd" points="516.269,-525.145 508.648,-532.505 519.195,-531.504 516.269,-525.145"/>
<text text-anchor="middle" x="582" y="-550" font-family="Arial" font-size="10.00"> desc</text>
<text text-anchor="middle" x="582" y="-539" font-family="Arial" font-size="10.00">defMaterial</text>
<text text-anchor="middle" x="582" y="-528" font-family="Arial" font-size="10.00">name</text>
<text text-anchor="middle" x="582" y="-517" font-family="Arial" font-size="10.00">comments</text>
</g>
<!-- Node17 -->
<g id="node17" class="node"><title>Node17</title>
<g id="a_node17"><a xlink:href="classid_list.html" target="_top" xlink:title="idList\&lt; evar_s \&gt;">
<polygon fill="white" stroke="black" points="447,-569.5 447,-588.5 533,-588.5 533,-569.5 447,-569.5"/>
<text text-anchor="middle" x="490" y="-576.5" font-family="Arial" font-size="10.00">idList&lt; evar_s &gt;</text>
</a>
</g>
</g>
<!-- Node17&#45;&gt;Node15 -->
<g id="edge20" class="edge"><title>Node17&#45;&gt;Node15</title>
<path fill="none" stroke="#9a32cd" stroke-dasharray="5,2" d="M543.118,-578.14C565.607,-575.773 591.417,-570.232 612,-558 641.828,-540.274 663.33,-503.353 672.326,-485.746"/>
<polygon fill="#9a32cd" stroke="#9a32cd" points="542.708,-574.663 533.049,-579.017 543.315,-581.636 542.708,-574.663"/>
<text text-anchor="middle" x="582" y="-580" font-family="Arial" font-size="10.00"> vars</text>
</g>
<!-- Node18 -->
<g id="node18" class="node"><title>Node18</title>
<g id="a_node18"><a xlink:href="classid_render_model.html" target="_top" xlink:title="idRenderModel">
<polygon fill="white" stroke="black" points="449.5,-377.5 449.5,-396.5 530.5,-396.5 530.5,-377.5 449.5,-377.5"/>
<text text-anchor="middle" x="490" y="-384.5" font-family="Arial" font-size="10.00">idRenderModel</text>
</a>
</g>
</g>
<!-- Node18&#45;&gt;Node1 -->
<g id="edge31" class="edge"><title>Node18&#45;&gt;Node1</title>
<path fill="none" stroke="#9a32cd" stroke-dasharray="5,2" d="M540.543,-384.514C563.648,-381.487 590.682,-375.133 612,-362 641.542,-343.801 663.184,-307.112 672.27,-289.655"/>
<polygon fill="#9a32cd" stroke="#9a32cd" points="540.114,-381.04 530.575,-385.65 540.907,-387.995 540.114,-381.04"/>
<text text-anchor="middle" x="582" y="-385" font-family="Arial" font-size="10.00"> modelHandle</text>
</g>
<!-- Node18&#45;&gt;Node15 -->
<g id="edge21" class="edge"><title>Node18&#45;&gt;Node15</title>
<path fill="none" stroke="#9a32cd" stroke-dasharray="5,2" d="M540.842,-396.047C568.987,-401.943 600.731,-410.163 612,-419 625.147,-429.309 618.027,-440.349 630,-452 636.041,-457.879 643.81,-462.631 651.285,-466.309"/>
<polygon fill="#9a32cd" stroke="#9a32cd" points="541.176,-392.543 530.68,-393.983 539.783,-399.403 541.176,-392.543"/>
<text text-anchor="middle" x="582" y="-433" font-family="Arial" font-size="10.00"> entityModel</text>
<text text-anchor="middle" x="582" y="-422" font-family="Arial" font-size="10.00">modelHandle</text>
</g>
<!-- Node19 -->
<g id="node19" class="node"><title>Node19</title>
<g id="a_node19"><a xlink:href="classid_dict.html" target="_top" xlink:title="idDict">
<polygon fill="white" stroke="black" points="469.5,-339.5 469.5,-358.5 510.5,-358.5 510.5,-339.5 469.5,-339.5"/>
<text text-anchor="middle" x="490" y="-346.5" font-family="Arial" font-size="10.00">idDict</text>
</a>
</g>
</g>
<!-- Node19&#45;&gt;Node1 -->
<g id="edge33" class="edge"><title>Node19&#45;&gt;Node1</title>
<path fill="none" stroke="#9a32cd" stroke-dasharray="5,2" d="M519.724,-336.56C524.951,-333.355 530.005,-329.509 534,-325 548.012,-309.186 534.505,-292.847 552,-281 581.65,-260.922 625.007,-266.31 652.084,-272.678"/>
<polygon fill="#9a32cd" stroke="#9a32cd" points="518.028,-333.498 510.92,-341.354 521.376,-339.645 518.028,-333.498"/>
<text text-anchor="middle" x="582" y="-284" font-family="Arial" font-size="10.00"> epairs</text>
</g>
<!-- Node19&#45;&gt;Node12 -->
<g id="edge29" class="edge"><title>Node19&#45;&gt;Node12</title>
<path fill="none" stroke="#9a32cd" stroke-dasharray="5,2" d="M515.211,-334.443C526.06,-328.736 539.26,-322.874 552,-320 578.013,-314.131 591.378,-303.094 612,-320 643.546,-345.862 601.095,-381.216 630,-410 658.686,-438.567 781.755,-449.913 835.137,-453.549"/>
<polygon fill="#9a32cd" stroke="#9a32cd" points="513.412,-331.438 506.353,-339.338 516.798,-337.565 513.412,-331.438"/>
<text text-anchor="middle" x="678" y="-444" font-family="Arial" font-size="10.00"> epairs</text>
</g>
<!-- Node19&#45;&gt;Node15 -->
<g id="edge24" class="edge"><title>Node19&#45;&gt;Node15</title>
<path fill="none" stroke="#9a32cd" stroke-dasharray="5,2" d="M519.203,-335.304C546.23,-324.391 586.565,-314.207 612,-336 651.619,-369.946 599.419,-409.73 630,-452 634.941,-458.829 642.4,-463.849 649.93,-467.479"/>
<polygon fill="#9a32cd" stroke="#9a32cd" points="517.707,-332.138 509.9,-339.3 520.47,-338.569 517.707,-332.138"/>
<text text-anchor="middle" x="582" y="-350" font-family="Arial" font-size="10.00"> defArgs</text>
<text text-anchor="middle" x="582" y="-339" font-family="Arial" font-size="10.00">args</text>
</g>
<!-- Node19&#45;&gt;Node23 -->
<g id="edge39" class="edge"><title>Node19&#45;&gt;Node23</title>
<path fill="none" stroke="#9a32cd" stroke-dasharray="5,2" d="M520.589,-343.06C525.606,-340.911 530.361,-337.985 534,-334 556.243,-309.643 527.625,-284.223 552,-262 627.774,-192.918 760.73,-203.244 824.249,-213.16"/>
<polygon fill="#9a32cd" stroke="#9a32cd" points="519.223,-339.826 510.842,-346.308 521.436,-346.467 519.223,-339.826"/>
<text text-anchor="middle" x="678" y="-222" font-family="Arial" font-size="10.00"> epairs</text>
</g>
<!-- Node20 -->
<g id="node20" class="node"><title>Node20</title>
<g id="a_node20"><a xlink:href="classid_curve.html" target="_top" xlink:title="idCurve\&lt; idVec3 \&gt;">
<polygon fill="white" stroke="black" points="630,-648.5 630,-667.5 726,-667.5 726,-648.5 630,-648.5"/>
<text text-anchor="middle" x="678" y="-655.5" font-family="Arial" font-size="10.00">idCurve&lt; idVec3 &gt;</text>
</a>
</g>
</g>
<!-- Node20&#45;&gt;Node12 -->
<g id="edge25" class="edge"><title>Node20&#45;&gt;Node12</title>
<path fill="none" stroke="#9a32cd" stroke-dasharray="5,2" d="M736.386,-658.196C760.534,-655.403 787.306,-648.114 806,-631 855.978,-585.247 860.213,-494.573 860.192,-464.756"/>
<polygon fill="#9a32cd" stroke="#9a32cd" points="735.865,-654.729 726.229,-659.134 736.508,-661.7 735.865,-654.729"/>
<text text-anchor="middle" x="775" y="-659" font-family="Arial" font-size="10.00"> curve</text>
</g>
<!-- Node21 -->
<g id="node21" class="node"><title>Node21</title>
<g id="a_node21"><a xlink:href="classid_list.html" target="_top" xlink:title="idList\&lt; float \&gt;">
<polygon fill="white" stroke="black" points="452,-652.5 452,-671.5 528,-671.5 528,-652.5 452,-652.5"/>
<text text-anchor="middle" x="490" y="-659.5" font-family="Arial" font-size="10.00">idList&lt; float &gt;</text>
</a>
</g>
</g>
<!-- Node21&#45;&gt;Node20 -->
<g id="edge26" class="edge"><title>Node21&#45;&gt;Node20</title>
<path fill="none" stroke="#9a32cd" stroke-dasharray="5,2" d="M538.556,-660.977C566.611,-660.374 601.981,-659.613 629.948,-659.012"/>
<polygon fill="#9a32cd" stroke="#9a32cd" points="538.115,-657.486 528.193,-661.2 538.266,-664.484 538.115,-657.486"/>
<text text-anchor="middle" x="582" y="-663" font-family="Arial" font-size="10.00"> times</text>
</g>
<!-- Node22 -->
<g id="node22" class="node"><title>Node22</title>
<g id="a_node22"><a xlink:href="classid_list.html" target="_top" xlink:title="idList\&lt; idVec3 \&gt;">
<polygon fill="white" stroke="black" points="446,-690.5 446,-709.5 534,-709.5 534,-690.5 446,-690.5"/>
<text text-anchor="middle" x="490" y="-697.5" font-family="Arial" font-size="10.00">idList&lt; idVec3 &gt;</text>
</a>
</g>
</g>
<!-- Node22&#45;&gt;Node20 -->
<g id="edge27" class="edge"><title>Node22&#45;&gt;Node20</title>
<path fill="none" stroke="#9a32cd" stroke-dasharray="5,2" d="M544.318,-689.607C565.447,-685.326 589.922,-680.164 612,-675 621.768,-672.715 632.308,-670.047 642,-667.511"/>
<polygon fill="#9a32cd" stroke="#9a32cd" points="543.354,-686.231 534.24,-691.634 544.734,-693.093 543.354,-686.231"/>
<text text-anchor="middle" x="582" y="-690" font-family="Arial" font-size="10.00"> values</text>
</g>
<!-- Node23&#45;&gt;Node1 -->
<g id="edge34" class="edge"><title>Node23&#45;&gt;Node1</title>
<path fill="none" stroke="#9a32cd" stroke-dasharray="5,2" d="M844.45,-237.195C834.479,-247.051 820.684,-258.685 806,-265 772.755,-279.297 730.358,-281.469 703.942,-281.16"/>
<polygon fill="#9a32cd" stroke="#9a32cd" points="847.151,-239.436 851.571,-229.807 842.111,-234.578 847.151,-239.436"/>
<text text-anchor="middle" x="775" y="-282" font-family="Arial" font-size="10.00"> pPatch</text>
</g>
<!-- Node24&#45;&gt;Node23 -->
<g id="edge36" class="edge"><title>Node24&#45;&gt;Node23</title>
<path fill="none" stroke="#9a32cd" stroke-dasharray="5,2" d="M525.218,-89.3532C598.893,-118.104 771.054,-185.289 835.27,-210.349"/>
<polygon fill="#9a32cd" stroke="#9a32cd" points="526.085,-85.9347 515.497,-85.5598 523.54,-92.4558 526.085,-85.9347"/>
<text text-anchor="middle" x="678" y="-169" font-family="Arial" font-size="10.00"> verts</text>
</g>
<!-- Node25 -->
<g id="node25" class="node"><title>Node25</title>
<g id="a_node25"><a xlink:href="classid_vec2.html" target="_top" xlink:title="idVec2">
<polygon fill="white" stroke="black" points="250.5,-38.5 250.5,-57.5 297.5,-57.5 297.5,-38.5 250.5,-38.5"/>
<text text-anchor="middle" x="274" y="-45.5" font-family="Arial" font-size="10.00">idVec2</text>
</a>
</g>
</g>
<!-- Node25&#45;&gt;Node24 -->
<g id="edge37" class="edge"><title>Node25&#45;&gt;Node24</title>
<path fill="none" stroke="#9a32cd" stroke-dasharray="5,2" d="M307.969,-43.5207C339.271,-40.2633 387.437,-37.8487 428,-47 444.472,-50.7161 461.713,-59.4274 473.647,-66.3384"/>
<polygon fill="#9a32cd" stroke="#9a32cd" points="307.182,-40.0873 297.64,-44.6905 307.97,-47.0428 307.182,-40.0873"/>
<text text-anchor="middle" x="386" y="-50" font-family="Arial" font-size="10.00"> st</text>
</g>
</g>
</svg>
