<?xml version="1.0" encoding="UTF-8" standalone="no"?>
<!DOCTYPE svg PUBLIC "-//W3C//DTD SVG 1.1//EN"
 "http://www.w3.org/Graphics/SVG/1.1/DTD/svg11.dtd">
<!-- Generated by graphviz version 2.34.0 (20130907.0111)
 -->
<!-- Title: DynamicStatic Pages: 1 -->
<svg width="116pt" height="96pt"
 viewBox="0.00 0.00 116.00 96.00" xmlns="http://www.w3.org/2000/svg" xmlns:xlink="http://www.w3.org/1999/xlink">
<g id="graph0" class="graph" transform="scale(1 1) rotate(0) translate(4 92)">
<title>DynamicStatic</title>
<polygon fill="white" stroke="white" points="-4,4 -4,-92 112,-92 112,4 -4,4"/>
<!-- Node1 -->
<g id="node1" class="node"><title>Node1</title>
<polygon fill="#bfbfbf" stroke="black" points="0,-0.5 0,-19.5 80,-19.5 80,-0.5 0,-0.5"/>
<text text-anchor="middle" x="40" y="-7.5" font-family="Arial" font-size="10.00">DynamicStatic</text>
</g>
<!-- Node2 -->
<g id="node2" class="node"><title>Node2</title>
<g id="a_node2"><a xlink:href="structcurl__slist.html" target="_top" xlink:title="curl_slist">
<polygon fill="white" stroke="black" points="12,-68.5 12,-87.5 68,-87.5 68,-68.5 12,-68.5"/>
<text text-anchor="middle" x="40" y="-75.5" font-family="Arial" font-size="10.00">curl_slist</text>
</a>
</g>
</g>
<!-- Node2&#45;&gt;Node1 -->
<g id="edge1" class="edge"><title>Node2&#45;&gt;Node1</title>
<path fill="none" stroke="#9a32cd" stroke-dasharray="5,2" d="M40,-58.0413C40,-45.4724 40,-29.5631 40,-19.8411"/>
<polygon fill="#9a32cd" stroke="#9a32cd" points="36.5001,-58.3716 40,-68.3717 43.5001,-58.3717 36.5001,-58.3716"/>
<text text-anchor="middle" x="62.5" y="-41.5" font-family="Arial" font-size="10.00"> cookielist</text>
</g>
<!-- Node2&#45;&gt;Node2 -->
<g id="edge2" class="edge"><title>Node2&#45;&gt;Node2</title>
<path fill="none" stroke="#9a32cd" stroke-dasharray="5,2" d="M78.5533,-83.4491C83.0634,-82.4467 86,-80.6303 86,-78 86,-73.6836 78.0919,-71.5591 68.2994,-71.6266"/>
<polygon fill="#9a32cd" stroke="#9a32cd" points="77.9447,-79.9897 68.2994,-84.3734 78.5733,-86.9614 77.9447,-79.9897"/>
<text text-anchor="middle" x="97" y="-75.5" font-family="Arial" font-size="10.00"> next</text>
</g>
</g>
</svg>
