<?xml version="1.0" encoding="UTF-8" standalone="no"?>
<!DOCTYPE svg PUBLIC "-//W3C//DTD SVG 1.1//EN"
 "http://www.w3.org/Graphics/SVG/1.1/DTD/svg11.dtd">
<!-- Generated by graphviz version 2.34.0 (20130907.0111)
 -->
<!-- Title: bitrate_manager_state Pages: 1 -->
<svg width="180pt" height="96pt"
 viewBox="0.00 0.00 180.00 96.00" xmlns="http://www.w3.org/2000/svg" xmlns:xlink="http://www.w3.org/1999/xlink">
<g id="graph0" class="graph" transform="scale(1 1) rotate(0) translate(4 92)">
<title>bitrate_manager_state</title>
<polygon fill="white" stroke="white" points="-4,4 -4,-92 176,-92 176,4 -4,4"/>
<!-- Node1 -->
<g id="node1" class="node"><title>Node1</title>
<polygon fill="#bfbfbf" stroke="black" points="22.5,-0.5 22.5,-19.5 135.5,-19.5 135.5,-0.5 22.5,-0.5"/>
<text text-anchor="middle" x="79" y="-7.5" font-family="Arial" font-size="10.00">bitrate_manager_state</text>
</g>
<!-- Node2 -->
<g id="node2" class="node"><title>Node2</title>
<g id="a_node2"><a xlink:href="structogg__packet.html" target="_top" xlink:title="ogg_packet">
<polygon fill="white" stroke="black" points="-0.5,-68.5 -0.5,-87.5 66.5,-87.5 66.5,-68.5 -0.5,-68.5"/>
<text text-anchor="middle" x="33" y="-75.5" font-family="Arial" font-size="10.00">ogg_packet</text>
</a>
</g>
</g>
<!-- Node2&#45;&gt;Node1 -->
<g id="edge1" class="edge"><title>Node2&#45;&gt;Node1</title>
<path fill="none" stroke="#9a32cd" stroke-dasharray="5,2" d="M44.8919,-59.9377C53.8311,-47.112 65.7164,-30.0591 72.838,-19.8411"/>
<polygon fill="#9a32cd" stroke="#9a32cd" points="41.8603,-58.1664 39.0137,-68.3717 47.6031,-62.1689 41.8603,-58.1664"/>
<text text-anchor="middle" x="80" y="-41.5" font-family="Arial" font-size="10.00"> packets</text>
</g>
<!-- Node3 -->
<g id="node3" class="node"><title>Node3</title>
<g id="a_node3"><a xlink:href="structoggpack__buffer.html" target="_top" xlink:title="oggpack_buffer">
<polygon fill="white" stroke="black" points="85,-68.5 85,-87.5 167,-87.5 167,-68.5 85,-68.5"/>
<text text-anchor="middle" x="126" y="-75.5" font-family="Arial" font-size="10.00">oggpack_buffer</text>
</a>
</g>
</g>
<!-- Node3&#45;&gt;Node1 -->
<g id="edge2" class="edge"><title>Node3&#45;&gt;Node1</title>
<path fill="none" stroke="#9a32cd" stroke-dasharray="5,2" d="M116.486,-59.2263C112.587,-52.4022 107.852,-44.6585 103,-38 98.2722,-31.5122 92.2722,-24.7622 87.4541,-19.6341"/>
<polygon fill="#9a32cd" stroke="#9a32cd" points="113.619,-61.2736 121.519,-68.333 119.745,-57.8876 113.619,-61.2736"/>
<text text-anchor="middle" x="141.5" y="-41.5" font-family="Arial" font-size="10.00"> packetbuffers</text>
</g>
</g>
</svg>
