<?xml version="1.0" encoding="UTF-8" standalone="no"?>
<!DOCTYPE svg PUBLIC "-//W3C//DTD SVG 1.1//EN"
 "http://www.w3.org/Graphics/SVG/1.1/DTD/svg11.dtd">
<!-- Generated by graphviz version 2.34.0 (20130907.0111)
 -->
<!-- Title: activeSmokeStage_t Pages: 1 -->
<!--zoomable 398 -->
<svg id="main" version="1.1" xmlns="http://www.w3.org/2000/svg" xmlns:xlink="http://www.w3.org/1999/xlink" xml:space="preserve" onload="init(evt)">
<style type="text/css"><![CDATA[
.edge:hover path { stroke: red; }
.edge:hover polygon { stroke: red; fill: red; }
]]></style>
<script type="text/javascript"><![CDATA[
var edges = document.getElementsByTagName('g');
if (edges && edges.length) {
  for (var i=0;i<edges.length;i++) {
    if (edges[i].id.substr(0,4)=='edge') {
      edges[i].setAttribute('class','edge');
    }
  }
}
]]></script>
        <defs>
                <circle id="rim" cx="0" cy="0" r="7"/>
                <circle id="rim2" cx="0" cy="0" r="3.5"/>
                <g id="zoomPlus">
                        <use xlink:href="#rim" fill="#404040">
                                <set attributeName="fill" to="#808080" begin="zoomplus.mouseover" end="zoomplus.mouseout"/>
                        </use>
                        <path d="M-4,0h8M0,-4v8" fill="none" stroke="white" stroke-width="1.5" pointer-events="none"/>
                </g>
                <g id="zoomMin">
                        <use xlink:href="#rim" fill="#404040">
                                <set attributeName="fill" to="#808080" begin="zoomminus.mouseover" end="zoomminus.mouseout"/>
                        </use>
                        <path d="M-4,0h8" fill="none" stroke="white" stroke-width="1.5" pointer-events="none"/>
                </g>
                <g id="dirArrow">
                        <path fill="none" stroke="white" stroke-width="1.5" d="M0,-3.0v7 M-2.5,-0.5L0,-3.0L2.5,-0.5"/>
                </g>
               <g id="resetDef">
                       <use xlink:href="#rim2" fill="#404040">
                               <set attributeName="fill" to="#808080" begin="reset.mouseover" end="reset.mouseout"/>
                       </use>
               </g>
        </defs>

<script type="text/javascript">
var viewWidth = 522;
var viewHeight = 398;
var sectionId = 'dynsection-0';
</script>
<script xlink:href="svgpan.js"/>
<svg id="graph" class="graph">
<g id="viewport">
<title>activeSmokeStage_t</title>
<polygon fill="white" stroke="white" points="-4,4 -4,-394 518,-394 518,4 -4,4"/>
<!-- Node1 -->
<g id="node1" class="node"><title>Node1</title>
<polygon fill="#bfbfbf" stroke="black" points="173,-0.5 173,-19.5 279,-19.5 279,-0.5 173,-0.5"/>
<text text-anchor="middle" x="226" y="-7.5" font-family="Arial" font-size="10.00">activeSmokeStage_t</text>
</g>
<!-- Node2 -->
<g id="node2" class="node"><title>Node2</title>
<g id="a_node2"><a xlink:href="structsingle_smoke__s.html" target="_top" xlink:title="singleSmoke_s">
<polygon fill="white" stroke="black" points="69.5,-68.5 69.5,-87.5 152.5,-87.5 152.5,-68.5 69.5,-68.5"/>
<text text-anchor="middle" x="111" y="-75.5" font-family="Arial" font-size="10.00">singleSmoke_s</text>
</a>
</g>
</g>
<!-- Node2&#45;&gt;Node1 -->
<g id="edge1" class="edge"><title>Node2&#45;&gt;Node1</title>
<path fill="none" stroke="#9a32cd" stroke-dasharray="5,2" d="M134.801,-63.3401C157.691,-50.2036 191.589,-30.7487 210.962,-19.6305"/>
<polygon fill="#9a32cd" stroke="#9a32cd" points="132.965,-60.3584 126.034,-68.3717 136.45,-66.4296 132.965,-60.3584"/>
<text text-anchor="middle" x="198" y="-41.5" font-family="Arial" font-size="10.00"> smokes</text>
</g>
<!-- Node2&#45;&gt;Node2 -->
<g id="edge4" class="edge"><title>Node2&#45;&gt;Node2</title>
<path fill="none" stroke="#9a32cd" stroke-dasharray="5,2" d="M162.85,-82.9574C167.254,-81.8984 170,-80.2459 170,-78 170,-74.3145 162.605,-72.2269 152.625,-71.7374"/>
<polygon fill="#9a32cd" stroke="#9a32cd" points="162.101,-79.5245 152.625,-84.2626 162.988,-86.4682 162.101,-79.5245"/>
<text text-anchor="middle" x="181" y="-75.5" font-family="Arial" font-size="10.00"> next</text>
</g>
<!-- Node3 -->
<g id="node3" class="node"><title>Node3</title>
<g id="a_node3"><a xlink:href="classid_mat3.html" target="_top" xlink:title="idMat3">
<polygon fill="white" stroke="black" points="0,-168.5 0,-187.5 46,-187.5 46,-168.5 0,-168.5"/>
<text text-anchor="middle" x="23" y="-175.5" font-family="Arial" font-size="10.00">idMat3</text>
</a>
</g>
</g>
<!-- Node3&#45;&gt;Node2 -->
<g id="edge2" class="edge"><title>Node3&#45;&gt;Node2</title>
<path fill="none" stroke="#9a32cd" stroke-dasharray="5,2" d="M30.6524,-158.708C37.8026,-143.261 49.6697,-121.278 65,-106 72.6085,-98.4174 82.7667,-92.1628 91.6016,-87.5896"/>
<polygon fill="#9a32cd" stroke="#9a32cd" points="27.3014,-157.633 26.4712,-168.195 33.7069,-160.456 27.3014,-157.633"/>
<text text-anchor="middle" x="76" y="-125.5" font-family="Arial" font-size="10.00"> axis</text>
</g>
<!-- Node4 -->
<g id="node4" class="node"><title>Node4</title>
<g id="a_node4"><a xlink:href="classid_random.html" target="_top" xlink:title="idRandom">
<polygon fill="white" stroke="black" points="64,-168.5 64,-187.5 124,-187.5 124,-168.5 64,-168.5"/>
<text text-anchor="middle" x="94" y="-175.5" font-family="Arial" font-size="10.00">idRandom</text>
</a>
</g>
</g>
<!-- Node4&#45;&gt;Node2 -->
<g id="edge3" class="edge"><title>Node4&#45;&gt;Node2</title>
<path fill="none" stroke="#9a32cd" stroke-dasharray="5,2" d="M91.6726,-158.291C90.4779,-143.752 90.1481,-123.228 95,-106 96.8316,-99.4966 100.643,-92.9586 104.086,-87.9454"/>
<polygon fill="#9a32cd" stroke="#9a32cd" points="88.2177,-158.907 92.7336,-168.492 95.1802,-158.183 88.2177,-158.907"/>
<text text-anchor="middle" x="113" y="-125.5" font-family="Arial" font-size="10.00"> random</text>
</g>
<!-- Node5 -->
<g id="node5" class="node"><title>Node5</title>
<g id="a_node5"><a xlink:href="classid_vec3.html" target="_top" xlink:title="idVec3">
<polygon fill="white" stroke="black" points="145.5,-168.5 145.5,-187.5 192.5,-187.5 192.5,-168.5 145.5,-168.5"/>
<text text-anchor="middle" x="169" y="-175.5" font-family="Arial" font-size="10.00">idVec3</text>
</a>
</g>
</g>
<!-- Node5&#45;&gt;Node2 -->
<g id="edge5" class="edge"><title>Node5&#45;&gt;Node2</title>
<path fill="none" stroke="#9a32cd" stroke-dasharray="5,2" d="M158.931,-159.026C157.271,-156.019 155.577,-152.927 154,-150 143.53,-130.576 142.714,-124.7 131,-106 127.036,-99.6722 122.036,-92.9222 118.027,-87.7541"/>
<polygon fill="#9a32cd" stroke="#9a32cd" points="156.021,-160.995 163.943,-168.031 162.138,-157.591 156.021,-160.995"/>
<text text-anchor="middle" x="167.5" y="-125.5" font-family="Arial" font-size="10.00"> origin</text>
</g>
<!-- Node6 -->
<g id="node6" class="node"><title>Node6</title>
<g id="a_node6"><a xlink:href="classid_particle_stage.html" target="_top" xlink:title="idParticleStage">
<polygon fill="white" stroke="black" points="249.5,-68.5 249.5,-87.5 332.5,-87.5 332.5,-68.5 249.5,-68.5"/>
<text text-anchor="middle" x="291" y="-75.5" font-family="Arial" font-size="10.00">idParticleStage</text>
</a>
</g>
</g>
<!-- Node5&#45;&gt;Node6 -->
<g id="edge12" class="edge"><title>Node5&#45;&gt;Node6</title>
<path fill="none" stroke="#9a32cd" stroke-dasharray="5,2" d="M177.153,-158.953C185.201,-142.998 198.916,-120.125 217,-106 227.67,-97.6661 241.154,-91.74 253.68,-87.6059"/>
<polygon fill="#9a32cd" stroke="#9a32cd" points="173.851,-157.746 172.695,-168.277 180.166,-160.766 173.851,-157.746"/>
<text text-anchor="middle" x="230.5" y="-125.5" font-family="Arial" font-size="10.00"> offset</text>
</g>
<!-- Node6&#45;&gt;Node1 -->
<g id="edge6" class="edge"><title>Node6&#45;&gt;Node1</title>
<path fill="none" stroke="#9a32cd" stroke-dasharray="5,2" d="M275.289,-61.0474C262.549,-48.1111 245.063,-30.3567 234.707,-19.8411"/>
<polygon fill="#9a32cd" stroke="#9a32cd" points="272.992,-63.7027 282.502,-68.3717 277.979,-58.7909 272.992,-63.7027"/>
<text text-anchor="middle" x="279" y="-41.5" font-family="Arial" font-size="10.00"> stage</text>
</g>
<!-- Node7 -->
<g id="node7" class="node"><title>Node7</title>
<g id="a_node7"><a xlink:href="classid_particle_parm.html" target="_top" xlink:title="idParticleParm">
<polygon fill="white" stroke="black" points="213,-168.5 213,-187.5 293,-187.5 293,-168.5 213,-168.5"/>
<text text-anchor="middle" x="253" y="-175.5" font-family="Arial" font-size="10.00">idParticleParm</text>
</a>
</g>
</g>
<!-- Node7&#45;&gt;Node6 -->
<g id="edge7" class="edge"><title>Node7&#45;&gt;Node6</title>
<path fill="none" stroke="#9a32cd" stroke-dasharray="5,2" d="M248.845,-157.986C246.578,-143.011 245.697,-122.056 254,-106 258.091,-98.0888 265.684,-91.9319 272.933,-87.5086"/>
<polygon fill="#9a32cd" stroke="#9a32cd" points="245.454,-158.898 250.72,-168.092 252.337,-157.621 245.454,-158.898"/>
<text text-anchor="middle" x="284.5" y="-142" font-family="Arial" font-size="10.00"> speed</text>
<text text-anchor="middle" x="284.5" y="-131" font-family="Arial" font-size="10.00">size</text>
<text text-anchor="middle" x="284.5" y="-120" font-family="Arial" font-size="10.00">aspect</text>
<text text-anchor="middle" x="284.5" y="-109" font-family="Arial" font-size="10.00">rotationSpeed</text>
</g>
<!-- Node8 -->
<g id="node8" class="node"><title>Node8</title>
<g id="a_node8"><a xlink:href="classid_decl_table.html" target="_top" xlink:title="idDeclTable">
<polygon fill="white" stroke="black" points="228.5,-244.5 228.5,-263.5 295.5,-263.5 295.5,-244.5 228.5,-244.5"/>
<text text-anchor="middle" x="262" y="-251.5" font-family="Arial" font-size="10.00">idDeclTable</text>
</a>
</g>
</g>
<!-- Node8&#45;&gt;Node7 -->
<g id="edge8" class="edge"><title>Node8&#45;&gt;Node7</title>
<path fill="none" stroke="#9a32cd" stroke-dasharray="5,2" d="M259.698,-234.072C257.887,-219.18 255.446,-199.111 254.066,-187.768"/>
<polygon fill="#9a32cd" stroke="#9a32cd" points="256.25,-234.716 260.932,-244.221 263.199,-233.871 256.25,-234.716"/>
<text text-anchor="middle" x="271.5" y="-213.5" font-family="Arial" font-size="10.00"> table</text>
</g>
<!-- Node9 -->
<g id="node9" class="node"><title>Node9</title>
<g id="a_node9"><a xlink:href="classid_decl.html" target="_top" xlink:title="idDecl">
<polygon fill="white" stroke="black" points="281,-302.5 281,-321.5 325,-321.5 325,-302.5 281,-302.5"/>
<text text-anchor="middle" x="303" y="-309.5" font-family="Arial" font-size="10.00">idDecl</text>
</a>
</g>
</g>
<!-- Node9&#45;&gt;Node8 -->
<g id="edge9" class="edge"><title>Node9&#45;&gt;Node8</title>
<path fill="none" stroke="midnightblue" d="M290.648,-294.129C283.248,-284.022 274.156,-271.604 268.227,-263.505"/>
<polygon fill="midnightblue" stroke="midnightblue" points="287.862,-296.249 296.594,-302.25 293.51,-292.114 287.862,-296.249"/>
</g>
<!-- Node13 -->
<g id="node13" class="node"><title>Node13</title>
<g id="a_node13"><a xlink:href="classid_material.html" target="_top" xlink:title="idMaterial">
<polygon fill="white" stroke="black" points="298.5,-206.5 298.5,-225.5 357.5,-225.5 357.5,-206.5 298.5,-206.5"/>
<text text-anchor="middle" x="328" y="-213.5" font-family="Arial" font-size="10.00">idMaterial</text>
</a>
</g>
</g>
<!-- Node9&#45;&gt;Node13 -->
<g id="edge15" class="edge"><title>Node9&#45;&gt;Node13</title>
<path fill="none" stroke="midnightblue" d="M307.94,-292.424C313.318,-272.206 321.684,-240.748 325.698,-225.654"/>
<polygon fill="midnightblue" stroke="midnightblue" points="304.495,-291.762 305.307,-302.325 311.26,-293.561 304.495,-291.762"/>
</g>
<!-- Node10 -->
<g id="node10" class="node"><title>Node10</title>
<g id="a_node10"><a xlink:href="classid_decl_base.html" target="_top" xlink:title="idDeclBase">
<polygon fill="white" stroke="black" points="270,-370.5 270,-389.5 336,-389.5 336,-370.5 270,-370.5"/>
<text text-anchor="middle" x="303" y="-377.5" font-family="Arial" font-size="10.00">idDeclBase</text>
</a>
</g>
</g>
<!-- Node10&#45;&gt;Node9 -->
<g id="edge10" class="edge"><title>Node10&#45;&gt;Node9</title>
<path fill="none" stroke="#9a32cd" stroke-dasharray="5,2" d="M303,-360.041C303,-347.472 303,-331.563 303,-321.841"/>
<polygon fill="#9a32cd" stroke="#9a32cd" points="299.5,-360.372 303,-370.372 306.5,-360.372 299.5,-360.372"/>
<text text-anchor="middle" x="315.5" y="-343.5" font-family="Arial" font-size="10.00"> base</text>
</g>
<!-- Node11 -->
<g id="node11" class="node"><title>Node11</title>
<g id="a_node11"><a xlink:href="classid_bounds.html" target="_top" xlink:title="idBounds">
<polygon fill="white" stroke="black" points="385.5,-168.5 385.5,-187.5 442.5,-187.5 442.5,-168.5 385.5,-168.5"/>
<text text-anchor="middle" x="414" y="-175.5" font-family="Arial" font-size="10.00">idBounds</text>
</a>
</g>
</g>
<!-- Node11&#45;&gt;Node6 -->
<g id="edge11" class="edge"><title>Node11&#45;&gt;Node6</title>
<path fill="none" stroke="#9a32cd" stroke-dasharray="5,2" d="M400.248,-160.595C386.764,-145.193 365.071,-122.165 343,-106 333.152,-98.7873 321.111,-92.4039 311.096,-87.6571"/>
<polygon fill="#9a32cd" stroke="#9a32cd" points="397.674,-162.97 406.845,-168.275 402.984,-158.409 397.674,-162.97"/>
<text text-anchor="middle" x="408.5" y="-125.5" font-family="Arial" font-size="10.00"> bounds</text>
</g>
<!-- Node12 -->
<g id="node12" class="node"><title>Node12</title>
<g id="a_node12"><a xlink:href="classid_vec4.html" target="_top" xlink:title="idVec4">
<polygon fill="white" stroke="black" points="460.5,-168.5 460.5,-187.5 507.5,-187.5 507.5,-168.5 460.5,-168.5"/>
<text text-anchor="middle" x="484" y="-175.5" font-family="Arial" font-size="10.00">idVec4</text>
</a>
</g>
</g>
<!-- Node12&#45;&gt;Node6 -->
<g id="edge13" class="edge"><title>Node12&#45;&gt;Node6</title>
<path fill="none" stroke="#9a32cd" stroke-dasharray="5,2" d="M475.342,-159.226C466.349,-142.737 450.694,-118.865 430,-106 400.772,-87.8292 361.941,-81.4577 332.752,-79.4145"/>
<polygon fill="#9a32cd" stroke="#9a32cd" points="472.368,-161.094 480.066,-168.374 478.587,-157.882 472.368,-161.094"/>
<text text-anchor="middle" x="492" y="-131" font-family="Arial" font-size="10.00"> fadeColor</text>
<text text-anchor="middle" x="492" y="-120" font-family="Arial" font-size="10.00">color</text>
</g>
<!-- Node13&#45;&gt;Node6 -->
<g id="edge14" class="edge"><title>Node13&#45;&gt;Node6</title>
<path fill="none" stroke="#9a32cd" stroke-dasharray="5,2" d="M329.089,-196.151C329.653,-173.675 328.248,-135.453 315,-106 311.913,-99.1363 306.446,-92.7747 301.51,-87.9526"/>
<polygon fill="#9a32cd" stroke="#9a32cd" points="325.584,-196.203 328.667,-206.339 332.578,-196.493 325.584,-196.203"/>
<text text-anchor="middle" x="349" y="-175.5" font-family="Arial" font-size="10.00"> material</text>
</g>
</g>
</svg>
        <g id="navigator" transform="translate(0 0)" fill="#404254">
                <rect fill="#f2f5e9" fill-opacity="0.5" stroke="#606060" stroke-width=".5" x="0" y="0" width="60" height="60"/>
                <use id="zoomplus" xlink:href="#zoomPlus" x="17" y="9" onmousedown="handleZoom(evt,'in')"/>
                <use id="zoomminus" xlink:href="#zoomMin" x="42" y="9" onmousedown="handleZoom(evt,'out')"/>
                <use id="reset" xlink:href="#resetDef" x="30" y="36" onmousedown="handleReset()"/>
                <g id="arrowUp" xlink:href="#dirArrow" transform="translate(30 24)" onmousedown="handlePan(0,-1)">
                  <use xlink:href="#rim" fill="#404040">
                        <set attributeName="fill" to="#808080" begin="arrowUp.mouseover" end="arrowUp.mouseout"/>
                  </use>
                  <path fill="none" stroke="white" stroke-width="1.5" d="M0,-3.0v7 M-2.5,-0.5L0,-3.0L2.5,-0.5"/>
                </g>
                <g id="arrowRight" xlink:href="#dirArrow" transform="rotate(90) translate(36 -43)" onmousedown="handlePan(1,0)">
                  <use xlink:href="#rim" fill="#404040">
                        <set attributeName="fill" to="#808080" begin="arrowRight.mouseover" end="arrowRight.mouseout"/>
                  </use>
                  <path fill="none" stroke="white" stroke-width="1.5" d="M0,-3.0v7 M-2.5,-0.5L0,-3.0L2.5,-0.5"/>
                </g>
                <g id="arrowDown" xlink:href="#dirArrow" transform="rotate(180) translate(-30 -48)" onmousedown="handlePan(0,1)">
                  <use xlink:href="#rim" fill="#404040">
                        <set attributeName="fill" to="#808080" begin="arrowDown.mouseover" end="arrowDown.mouseout"/>
                  </use>
                  <path fill="none" stroke="white" stroke-width="1.5" d="M0,-3.0v7 M-2.5,-0.5L0,-3.0L2.5,-0.5"/>
                </g>
                <g id="arrowLeft" xlink:href="#dirArrow" transform="rotate(270) translate(-36 17)" onmousedown="handlePan(-1,0)">
                  <use xlink:href="#rim" fill="#404040">
                        <set attributeName="fill" to="#808080" begin="arrowLeft.mouseover" end="arrowLeft.mouseout"/>
                  </use>
                  <path fill="none" stroke="white" stroke-width="1.5" d="M0,-3.0v7 M-2.5,-0.5L0,-3.0L2.5,-0.5"/>
                </g>
        </g>
        <svg viewBox="0 0 15 15" width="100%" height="30px" preserveAspectRatio="xMaxYMin meet">
         <g id="arrow_out" transform="scale(0.3 0.3)">
          <a xlink:href="structactive_smoke_stage__t__coll__graph_org.svg" target="_base">
           <rect id="button" ry="5" rx="5" y="6" x="6" height="38" width="38"
                fill="#f2f5e9" fill-opacity="0.5" stroke="#606060" stroke-width="1.0"/>
           <path id="arrow"
             d="M 11.500037,31.436501 C 11.940474,20.09759 22.043105,11.32322 32.158766,21.979434 L 37.068811,17.246167 C 37.068811,17.246167 37.088388,32 37.088388,32 L 22.160133,31.978069 C 22.160133,31.978069 26.997745,27.140456 26.997745,27.140456 C 18.528582,18.264221 13.291696,25.230495 11.500037,31.436501 z"
             style="fill:#404040;"/>
          </a>
         </g>
        </svg>
</svg>
