<?xml version="1.0" encoding="UTF-8" standalone="no"?>
<!DOCTYPE svg PUBLIC "-//W3C//DTD SVG 1.1//EN"
 "http://www.w3.org/Graphics/SVG/1.1/DTD/svg11.dtd">
<!-- Generated by graphviz version 2.34.0 (20130907.0111)
 -->
<!-- Title: pvsArea_s Pages: 1 -->
<svg width="322pt" height="232pt"
 viewBox="0.00 0.00 322.00 232.00" xmlns="http://www.w3.org/2000/svg" xmlns:xlink="http://www.w3.org/1999/xlink">
<g id="graph0" class="graph" transform="scale(1 1) rotate(0) translate(4 228)">
<title>pvsArea_s</title>
<polygon fill="white" stroke="white" points="-4,4 -4,-228 318,-228 318,4 -4,4"/>
<!-- Node1 -->
<g id="node1" class="node"><title>Node1</title>
<polygon fill="#bfbfbf" stroke="black" points="234,-0.5 234,-19.5 296,-19.5 296,-0.5 234,-0.5"/>
<text text-anchor="middle" x="265" y="-7.5" font-family="Arial" font-size="10.00">pvsArea_s</text>
</g>
<!-- Node2 -->
<g id="node2" class="node"><title>Node2</title>
<g id="a_node2"><a xlink:href="structpvs_portal__s.html" target="_top" xlink:title="pvsPortal_s">
<polygon fill="white" stroke="black" points="142.5,-68.5 142.5,-87.5 209.5,-87.5 209.5,-68.5 142.5,-68.5"/>
<text text-anchor="middle" x="176" y="-75.5" font-family="Arial" font-size="10.00">pvsPortal_s</text>
</a>
</g>
</g>
<!-- Node2&#45;&gt;Node1 -->
<g id="edge1" class="edge"><title>Node2&#45;&gt;Node1</title>
<path fill="none" stroke="#9a32cd" stroke-dasharray="5,2" d="M196.098,-62.0961C213.756,-49.0012 238.836,-30.4028 253.362,-19.6305"/>
<polygon fill="#9a32cd" stroke="#9a32cd" points="193.583,-59.6037 187.635,-68.3717 197.752,-65.2264 193.583,-59.6037"/>
<text text-anchor="middle" x="245.5" y="-41.5" font-family="Arial" font-size="10.00"> portals</text>
</g>
<!-- Node3 -->
<g id="node3" class="node"><title>Node3</title>
<g id="a_node3"><a xlink:href="classid_winding.html" target="_top" xlink:title="idWinding">
<polygon fill="white" stroke="black" points="-0.5,-136.5 -0.5,-155.5 58.5,-155.5 58.5,-136.5 -0.5,-136.5"/>
<text text-anchor="middle" x="29" y="-143.5" font-family="Arial" font-size="10.00">idWinding</text>
</a>
</g>
</g>
<!-- Node3&#45;&gt;Node2 -->
<g id="edge2" class="edge"><title>Node3&#45;&gt;Node2</title>
<path fill="none" stroke="#9a32cd" stroke-dasharray="5,2" d="M57.495,-132.206C86.7478,-119.072 131.464,-98.9957 156.778,-87.6305"/>
<polygon fill="#9a32cd" stroke="#9a32cd" points="55.9068,-129.083 48.2177,-136.372 58.774,-135.469 55.9068,-129.083"/>
<text text-anchor="middle" x="121" y="-109.5" font-family="Arial" font-size="10.00"> w</text>
</g>
<!-- Node4 -->
<g id="node4" class="node"><title>Node4</title>
<g id="a_node4"><a xlink:href="classid_vec5.html" target="_top" xlink:title="idVec5">
<polygon fill="white" stroke="black" points="5.5,-204.5 5.5,-223.5 52.5,-223.5 52.5,-204.5 5.5,-204.5"/>
<text text-anchor="middle" x="29" y="-211.5" font-family="Arial" font-size="10.00">idVec5</text>
</a>
</g>
</g>
<!-- Node4&#45;&gt;Node3 -->
<g id="edge3" class="edge"><title>Node4&#45;&gt;Node3</title>
<path fill="none" stroke="#9a32cd" stroke-dasharray="5,2" d="M29,-194.041C29,-181.472 29,-165.563 29,-155.841"/>
<polygon fill="#9a32cd" stroke="#9a32cd" points="25.5001,-194.372 29,-204.372 32.5001,-194.372 25.5001,-194.372"/>
<text text-anchor="middle" x="33.5" y="-177.5" font-family="Arial" font-size="10.00"> p</text>
</g>
<!-- Node5 -->
<g id="node5" class="node"><title>Node5</title>
<g id="a_node5"><a xlink:href="classid_plane.html" target="_top" xlink:title="idPlane">
<polygon fill="white" stroke="black" points="76.5,-136.5 76.5,-155.5 125.5,-155.5 125.5,-136.5 76.5,-136.5"/>
<text text-anchor="middle" x="101" y="-143.5" font-family="Arial" font-size="10.00">idPlane</text>
</a>
</g>
</g>
<!-- Node5&#45;&gt;Node2 -->
<g id="edge4" class="edge"><title>Node5&#45;&gt;Node2</title>
<path fill="none" stroke="#9a32cd" stroke-dasharray="5,2" d="M118.463,-129.459C126.526,-122.299 136.235,-113.701 145,-106 151.97,-99.8759 159.855,-93.009 165.929,-87.733"/>
<polygon fill="#9a32cd" stroke="#9a32cd" points="115.914,-127.042 110.765,-136.301 120.564,-132.274 115.914,-127.042"/>
<text text-anchor="middle" x="158.5" y="-109.5" font-family="Arial" font-size="10.00"> plane</text>
</g>
<!-- Node6 -->
<g id="node6" class="node"><title>Node6</title>
<g id="a_node6"><a xlink:href="structpvs_passage__s.html" target="_top" xlink:title="pvsPassage_s">
<polygon fill="white" stroke="black" points="144,-136.5 144,-155.5 224,-155.5 224,-136.5 144,-136.5"/>
<text text-anchor="middle" x="184" y="-143.5" font-family="Arial" font-size="10.00">pvsPassage_s</text>
</a>
</g>
</g>
<!-- Node6&#45;&gt;Node2 -->
<g id="edge5" class="edge"><title>Node6&#45;&gt;Node2</title>
<path fill="none" stroke="#9a32cd" stroke-dasharray="5,2" d="M178.55,-126.228C177.925,-123.488 177.377,-120.685 177,-118 175.548,-107.671 175.481,-95.6559 175.658,-87.7211"/>
<polygon fill="#9a32cd" stroke="#9a32cd" points="175.218,-127.323 181.147,-136.104 181.988,-125.542 175.218,-127.323"/>
<text text-anchor="middle" x="200" y="-109.5" font-family="Arial" font-size="10.00"> passages</text>
</g>
<!-- Node7 -->
<g id="node7" class="node"><title>Node7</title>
<g id="a_node7"><a xlink:href="classid_bounds.html" target="_top" xlink:title="idBounds">
<polygon fill="white" stroke="black" points="250.5,-136.5 250.5,-155.5 307.5,-155.5 307.5,-136.5 250.5,-136.5"/>
<text text-anchor="middle" x="279" y="-143.5" font-family="Arial" font-size="10.00">idBounds</text>
</a>
</g>
</g>
<!-- Node7&#45;&gt;Node1 -->
<g id="edge7" class="edge"><title>Node7&#45;&gt;Node1</title>
<path fill="none" stroke="#9a32cd" stroke-dasharray="5,2" d="M279.78,-126.375C279.871,-123.569 279.95,-120.708 280,-118 280.099,-112.668 280.417,-111.317 280,-106 277.479,-73.8728 270.234,-36.1918 266.82,-19.5914"/>
<polygon fill="#9a32cd" stroke="#9a32cd" points="276.278,-126.364 279.396,-136.49 283.273,-126.63 276.278,-126.364"/>
<text text-anchor="middle" x="296.5" y="-75.5" font-family="Arial" font-size="10.00"> bounds</text>
</g>
<!-- Node7&#45;&gt;Node2 -->
<g id="edge6" class="edge"><title>Node7&#45;&gt;Node2</title>
<path fill="none" stroke="#9a32cd" stroke-dasharray="5,2" d="M259.035,-130.467C248.472,-122.939 235.196,-113.73 223,-106 212.826,-99.552 201.076,-92.802 191.87,-87.664"/>
<polygon fill="#9a32cd" stroke="#9a32cd" points="257.024,-133.331 267.187,-136.325 261.109,-127.647 257.024,-133.331"/>
<text text-anchor="middle" x="258.5" y="-109.5" font-family="Arial" font-size="10.00"> bounds</text>
</g>
</g>
</svg>
