<?xml version="1.0" encoding="UTF-8" standalone="no"?>
<!DOCTYPE svg PUBLIC "-//W3C//DTD SVG 1.1//EN"
 "http://www.w3.org/Graphics/SVG/1.1/DTD/svg11.dtd">
<!-- Generated by graphviz version 2.34.0 (20130907.0111)
 -->
<!-- Title: cm_windingList_s Pages: 1 -->
<svg width="230pt" height="232pt"
 viewBox="0.00 0.00 230.00 232.00" xmlns="http://www.w3.org/2000/svg" xmlns:xlink="http://www.w3.org/1999/xlink">
<g id="graph0" class="graph" transform="scale(1 1) rotate(0) translate(4 228)">
<title>cm_windingList_s</title>
<polygon fill="white" stroke="white" points="-4,4 -4,-228 226,-228 226,4 -4,4"/>
<!-- Node1 -->
<g id="node1" class="node"><title>Node1</title>
<polygon fill="#bfbfbf" stroke="black" points="82,-0.5 82,-19.5 176,-19.5 176,-0.5 82,-0.5"/>
<text text-anchor="middle" x="129" y="-7.5" font-family="Arial" font-size="10.00">cm_windingList_s</text>
</g>
<!-- Node2 -->
<g id="node2" class="node"><title>Node2</title>
<g id="a_node2"><a xlink:href="classid_fixed_winding.html" target="_top" xlink:title="idFixedWinding">
<polygon fill="white" stroke="black" points="-0.5,-78.5 -0.5,-97.5 82.5,-97.5 82.5,-78.5 -0.5,-78.5"/>
<text text-anchor="middle" x="41" y="-85.5" font-family="Arial" font-size="10.00">idFixedWinding</text>
</a>
</g>
</g>
<!-- Node2&#45;&gt;Node1 -->
<g id="edge1" class="edge"><title>Node2&#45;&gt;Node1</title>
<path fill="none" stroke="#9a32cd" stroke-dasharray="5,2" d="M58.6819,-71.7293C76.8135,-56.0702 104.371,-32.2701 119.023,-19.6165"/>
<polygon fill="#9a32cd" stroke="#9a32cd" points="56.3753,-69.0967 51.0947,-78.2818 60.9507,-74.3945 56.3753,-69.0967"/>
<text text-anchor="middle" x="101" y="-46.5" font-family="Arial" font-size="10.00"> w</text>
</g>
<!-- Node3 -->
<g id="node3" class="node"><title>Node3</title>
<g id="a_node3"><a xlink:href="classid_winding.html" target="_top" xlink:title="idWinding">
<polygon fill="white" stroke="black" points="69.5,-136.5 69.5,-155.5 128.5,-155.5 128.5,-136.5 69.5,-136.5"/>
<text text-anchor="middle" x="99" y="-143.5" font-family="Arial" font-size="10.00">idWinding</text>
</a>
</g>
</g>
<!-- Node3&#45;&gt;Node2 -->
<g id="edge2" class="edge"><title>Node3&#45;&gt;Node2</title>
<path fill="none" stroke="midnightblue" d="M82.4717,-129.042C71.8421,-118.779 58.451,-105.849 49.809,-97.5052"/>
<polygon fill="midnightblue" stroke="midnightblue" points="80.3124,-131.822 89.9375,-136.25 85.1745,-126.786 80.3124,-131.822"/>
</g>
<!-- Node4 -->
<g id="node4" class="node"><title>Node4</title>
<g id="a_node4"><a xlink:href="classid_vec5.html" target="_top" xlink:title="idVec5">
<polygon fill="white" stroke="black" points="30.5,-204.5 30.5,-223.5 77.5,-223.5 77.5,-204.5 30.5,-204.5"/>
<text text-anchor="middle" x="54" y="-211.5" font-family="Arial" font-size="10.00">idVec5</text>
</a>
</g>
</g>
<!-- Node4&#45;&gt;Node2 -->
<g id="edge4" class="edge"><title>Node4&#45;&gt;Node2</title>
<path fill="none" stroke="#9a32cd" stroke-dasharray="5,2" d="M47.4291,-194.532C43.8572,-183.506 39.8086,-169.135 38,-156 36.7875,-147.194 37.7167,-144.884 38,-136 38.4273,-122.598 39.5383,-107.078 40.2817,-97.6546"/>
<polygon fill="#9a32cd" stroke="#9a32cd" points="44.2084,-195.932 50.7414,-204.273 50.8357,-193.679 44.2084,-195.932"/>
<text text-anchor="middle" x="49" y="-143.5" font-family="Arial" font-size="10.00"> data</text>
</g>
<!-- Node4&#45;&gt;Node3 -->
<g id="edge3" class="edge"><title>Node4&#45;&gt;Node3</title>
<path fill="none" stroke="#9a32cd" stroke-dasharray="5,2" d="M65.6334,-195.938C74.3782,-183.112 86.0051,-166.059 92.972,-155.841"/>
<polygon fill="#9a32cd" stroke="#9a32cd" points="62.6246,-194.138 59.883,-204.372 68.4082,-198.081 62.6246,-194.138"/>
<text text-anchor="middle" x="85.5" y="-177.5" font-family="Arial" font-size="10.00"> p</text>
</g>
<!-- Node5 -->
<g id="node5" class="node"><title>Node5</title>
<g id="a_node5"><a xlink:href="classid_bounds.html" target="_top" xlink:title="idBounds">
<polygon fill="white" stroke="black" points="100.5,-78.5 100.5,-97.5 157.5,-97.5 157.5,-78.5 100.5,-78.5"/>
<text text-anchor="middle" x="129" y="-85.5" font-family="Arial" font-size="10.00">idBounds</text>
</a>
</g>
</g>
<!-- Node5&#45;&gt;Node1 -->
<g id="edge5" class="edge"><title>Node5&#45;&gt;Node1</title>
<path fill="none" stroke="#9a32cd" stroke-dasharray="5,2" d="M129,-68.2239C129,-52.6974 129,-31.3582 129,-19.6165"/>
<polygon fill="#9a32cd" stroke="#9a32cd" points="125.5,-68.2818 129,-78.2818 132.5,-68.2819 125.5,-68.2818"/>
<text text-anchor="middle" x="146.5" y="-46.5" font-family="Arial" font-size="10.00"> bounds</text>
</g>
<!-- Node6 -->
<g id="node6" class="node"><title>Node6</title>
<g id="a_node6"><a xlink:href="classid_vec3.html" target="_top" xlink:title="idVec3">
<polygon fill="white" stroke="black" points="175.5,-78.5 175.5,-97.5 222.5,-97.5 222.5,-78.5 175.5,-78.5"/>
<text text-anchor="middle" x="199" y="-85.5" font-family="Arial" font-size="10.00">idVec3</text>
</a>
</g>
</g>
<!-- Node6&#45;&gt;Node1 -->
<g id="edge6" class="edge"><title>Node6&#45;&gt;Node1</title>
<path fill="none" stroke="#9a32cd" stroke-dasharray="5,2" d="M190.125,-69.3571C184.61,-59.4524 176.885,-47.2617 168,-38 161.159,-30.8689 152.162,-24.4906 144.533,-19.7263"/>
<polygon fill="#9a32cd" stroke="#9a32cd" points="187.092,-71.1083 194.866,-78.3067 193.278,-67.8316 187.092,-71.1083"/>
<text text-anchor="middle" x="200" y="-52" font-family="Arial" font-size="10.00"> origin</text>
<text text-anchor="middle" x="200" y="-41" font-family="Arial" font-size="10.00">normal</text>
</g>
</g>
</svg>
