<?xml version="1.0" encoding="UTF-8" standalone="no"?>
<!DOCTYPE svg PUBLIC "-//W3C//DTD SVG 1.1//EN"
 "http://www.w3.org/Graphics/SVG/1.1/DTD/svg11.dtd">
<!-- Generated by graphviz version 2.34.0 (20130907.0111)
 -->
<!-- Title: cm_traceWork_s Pages: 1 -->
<!--zoomable 933 -->
<svg id="main" version="1.1" xmlns="http://www.w3.org/2000/svg" xmlns:xlink="http://www.w3.org/1999/xlink" xml:space="preserve" onload="init(evt)">
<style type="text/css"><![CDATA[
.edge:hover path { stroke: red; }
.edge:hover polygon { stroke: red; fill: red; }
]]></style>
<script type="text/javascript"><![CDATA[
var edges = document.getElementsByTagName('g');
if (edges && edges.length) {
  for (var i=0;i<edges.length;i++) {
    if (edges[i].id.substr(0,4)=='edge') {
      edges[i].setAttribute('class','edge');
    }
  }
}
]]></script>
        <defs>
                <circle id="rim" cx="0" cy="0" r="7"/>
                <circle id="rim2" cx="0" cy="0" r="3.5"/>
                <g id="zoomPlus">
                        <use xlink:href="#rim" fill="#404040">
                                <set attributeName="fill" to="#808080" begin="zoomplus.mouseover" end="zoomplus.mouseout"/>
                        </use>
                        <path d="M-4,0h8M0,-4v8" fill="none" stroke="white" stroke-width="1.5" pointer-events="none"/>
                </g>
                <g id="zoomMin">
                        <use xlink:href="#rim" fill="#404040">
                                <set attributeName="fill" to="#808080" begin="zoomminus.mouseover" end="zoomminus.mouseout"/>
                        </use>
                        <path d="M-4,0h8" fill="none" stroke="white" stroke-width="1.5" pointer-events="none"/>
                </g>
                <g id="dirArrow">
                        <path fill="none" stroke="white" stroke-width="1.5" d="M0,-3.0v7 M-2.5,-0.5L0,-3.0L2.5,-0.5"/>
                </g>
               <g id="resetDef">
                       <use xlink:href="#rim2" fill="#404040">
                               <set attributeName="fill" to="#808080" begin="reset.mouseover" end="reset.mouseout"/>
                       </use>
               </g>
        </defs>

<script type="text/javascript">
var viewWidth = 1490;
var viewHeight = 933;
var sectionId = 'dynsection-0';
</script>
<script xlink:href="svgpan.js"/>
<svg id="graph" class="graph">
<g id="viewport">
<title>cm_traceWork_s</title>
<polygon fill="white" stroke="white" points="-4,4 -4,-929.249 1486,-929.249 1486,4 -4,4"/>
<!-- Node1 -->
<g id="node1" class="node"><title>Node1</title>
<polygon fill="#bfbfbf" stroke="black" points="1390.5,-594.749 1390.5,-613.749 1481.5,-613.749 1481.5,-594.749 1390.5,-594.749"/>
<text text-anchor="middle" x="1436" y="-601.749" font-family="Arial" font-size="10.00">cm_traceWork_s</text>
</g>
<!-- Node2 -->
<g id="node2" class="node"><title>Node2</title>
<g id="a_node2"><a xlink:href="structcontact_info__t.html" target="_top" xlink:title="contactInfo_t">
<polygon fill="white" stroke="black" points="932,-754.749 932,-773.749 1004,-773.749 1004,-754.749 932,-754.749"/>
<text text-anchor="middle" x="968" y="-761.749" font-family="Arial" font-size="10.00">contactInfo_t</text>
</a>
</g>
</g>
<!-- Node2&#45;&gt;Node1 -->
<g id="edge1" class="edge"><title>Node2&#45;&gt;Node1</title>
<path fill="none" stroke="#9a32cd" stroke-dasharray="5,2" d="M1014,-774.288C1094.82,-789.54 1266.01,-808.822 1372,-727.249 1410.6,-697.543 1427.6,-637.607 1432.98,-614.062"/>
<polygon fill="#9a32cd" stroke="#9a32cd" points="1014.62,-770.844 1004.13,-772.362 1013.28,-777.714 1014.62,-770.844"/>
<text text-anchor="middle" x="1224" y="-789.249" font-family="Arial" font-size="10.00"> contacts</text>
</g>
<!-- Node15 -->
<g id="node15" class="node"><title>Node15</title>
<g id="a_node15"><a xlink:href="structtrace__s.html" target="_top" xlink:title="trace_s">
<polygon fill="white" stroke="black" points="1199.5,-679.749 1199.5,-698.749 1248.5,-698.749 1248.5,-679.749 1199.5,-679.749"/>
<text text-anchor="middle" x="1224" y="-686.749" font-family="Arial" font-size="10.00">trace_s</text>
</a>
</g>
</g>
<!-- Node2&#45;&gt;Node15 -->
<g id="edge24" class="edge"><title>Node2&#45;&gt;Node15</title>
<path fill="none" stroke="#9a32cd" stroke-dasharray="5,2" d="M1014.15,-760.737C1055.9,-756.284 1119.02,-746.454 1170,-725.249 1171.08,-724.8 1193.57,-709.437 1208.9,-698.927"/>
<polygon fill="#9a32cd" stroke="#9a32cd" points="1013.61,-757.273 1004.01,-761.757 1014.31,-764.238 1013.61,-757.273"/>
<text text-anchor="middle" x="1104" y="-759.249" font-family="Arial" font-size="10.00"> c</text>
</g>
<!-- Node3 -->
<g id="node3" class="node"><title>Node3</title>
<g id="a_node3"><a xlink:href="classid_vec3.html" target="_top" xlink:title="idVec3">
<polygon fill="white" stroke="black" points="702.5,-593.749 702.5,-612.749 749.5,-612.749 749.5,-593.749 702.5,-593.749"/>
<text text-anchor="middle" x="726" y="-600.749" font-family="Arial" font-size="10.00">idVec3</text>
</a>
</g>
</g>
<!-- Node3&#45;&gt;Node1 -->
<g id="edge20" class="edge"><title>Node3&#45;&gt;Node1</title>
<path fill="none" stroke="#9a32cd" stroke-dasharray="5,2" d="M759.529,-596.607C765.655,-595.431 772.016,-594.261 778,-593.249 893.086,-573.791 921.572,-564.492 1038,-556.249 1096.52,-552.106 1111.57,-551 1170,-556.249 1250.56,-563.486 1343.26,-582.863 1394.9,-594.666"/>
<polygon fill="#9a32cd" stroke="#9a32cd" points="758.689,-593.205 749.549,-598.564 760.036,-600.074 758.689,-593.205"/>
<text text-anchor="middle" x="1104" y="-625.249" font-family="Arial" font-size="10.00"> polygonRotationOriginCache</text>
<text text-anchor="middle" x="1104" y="-614.249" font-family="Arial" font-size="10.00">origin</text>
<text text-anchor="middle" x="1104" y="-603.249" font-family="Arial" font-size="10.00">end</text>
<text text-anchor="middle" x="1104" y="-592.249" font-family="Arial" font-size="10.00">extents</text>
<text text-anchor="middle" x="1104" y="-581.249" font-family="Arial" font-size="10.00">dir</text>
<text text-anchor="middle" x="1104" y="-570.249" font-family="Arial" font-size="10.00">start</text>
<text text-anchor="middle" x="1104" y="-559.249" font-family="Arial" font-size="10.00">axis</text>
</g>
<!-- Node3&#45;&gt;Node2 -->
<g id="edge2" class="edge"><title>Node3&#45;&gt;Node2</title>
<path fill="none" stroke="#9a32cd" stroke-dasharray="5,2" d="M733.398,-622.529C740.909,-642.029 755.303,-671.478 778,-687.249 822.595,-718.236 853.71,-678.827 898,-710.249 910.994,-719.468 904.173,-730.575 916,-741.249 922.201,-746.845 929.991,-751.277 937.603,-754.696"/>
<polygon fill="#9a32cd" stroke="#9a32cd" points="736.602,-621.095 729.925,-612.869 730.015,-623.464 736.602,-621.095"/>
<text text-anchor="middle" x="838" y="-724.249" font-family="Arial" font-size="10.00"> normal</text>
<text text-anchor="middle" x="838" y="-713.249" font-family="Arial" font-size="10.00">point</text>
</g>
<!-- Node11 -->
<g id="node11" class="node"><title>Node11</title>
<g id="a_node11"><a xlink:href="structcm__trm_vertex__s.html" target="_top" xlink:title="cm_trmVertex_s">
<polygon fill="white" stroke="black" points="923.5,-824.749 923.5,-843.749 1012.5,-843.749 1012.5,-824.749 923.5,-824.749"/>
<text text-anchor="middle" x="968" y="-831.749" font-family="Arial" font-size="10.00">cm_trmVertex_s</text>
</a>
</g>
</g>
<!-- Node3&#45;&gt;Node11 -->
<g id="edge13" class="edge"><title>Node3&#45;&gt;Node11</title>
<path fill="none" stroke="#9a32cd" stroke-dasharray="5,2" d="M734.367,-622.766C748.235,-659.467 776.933,-735.197 778,-736.249 818.462,-776.12 848.361,-752.63 898,-780.249 920.863,-792.97 944.152,-812.974 956.973,-824.731"/>
<polygon fill="#9a32cd" stroke="#9a32cd" points="737.542,-621.266 730.734,-613.148 730.993,-623.739 737.542,-621.266"/>
<text text-anchor="middle" x="838" y="-805.249" font-family="Arial" font-size="10.00"> rotationOrigin</text>
<text text-anchor="middle" x="838" y="-794.249" font-family="Arial" font-size="10.00">endp</text>
<text text-anchor="middle" x="838" y="-783.249" font-family="Arial" font-size="10.00">p</text>
</g>
<!-- Node13 -->
<g id="node13" class="node"><title>Node13</title>
<g id="a_node13"><a xlink:href="structcm__trm_edge__s.html" target="_top" xlink:title="cm_trmEdge_s">
<polygon fill="white" stroke="black" points="926.5,-620.749 926.5,-639.749 1009.5,-639.749 1009.5,-620.749 926.5,-620.749"/>
<text text-anchor="middle" x="968" y="-627.749" font-family="Arial" font-size="10.00">cm_trmEdge_s</text>
</a>
</g>
</g>
<!-- Node3&#45;&gt;Node13 -->
<g id="edge18" class="edge"><title>Node3&#45;&gt;Node13</title>
<path fill="none" stroke="#9a32cd" stroke-dasharray="5,2" d="M759.676,-600.045C794.33,-597.434 850.513,-595.455 898,-604.249 915.245,-607.442 933.793,-614.664 947.311,-620.688"/>
<polygon fill="#9a32cd" stroke="#9a32cd" points="759.328,-596.561 749.646,-600.864 759.898,-603.538 759.328,-596.561"/>
<text text-anchor="middle" x="838" y="-629.249" font-family="Arial" font-size="10.00"> end</text>
<text text-anchor="middle" x="838" y="-618.249" font-family="Arial" font-size="10.00">cross</text>
<text text-anchor="middle" x="838" y="-607.249" font-family="Arial" font-size="10.00">start</text>
</g>
<!-- Node3&#45;&gt;Node15 -->
<g id="edge26" class="edge"><title>Node3&#45;&gt;Node15</title>
<path fill="none" stroke="#9a32cd" stroke-dasharray="5,2" d="M744.221,-619.741C753.495,-627.617 765.566,-636.37 778,-641.249 856.033,-671.866 1118.61,-684.969 1199.24,-688.333"/>
<polygon fill="#9a32cd" stroke="#9a32cd" points="746.347,-616.947 736.559,-612.89 741.681,-622.165 746.347,-616.947"/>
<text text-anchor="middle" x="968" y="-680.249" font-family="Arial" font-size="10.00"> endpos</text>
</g>
<!-- Node21 -->
<g id="node21" class="node"><title>Node21</title>
<g id="a_node21"><a xlink:href="structcm__vertex__s.html" target="_top" xlink:title="cm_vertex_s">
<polygon fill="white" stroke="black" points="932.5,-528.749 932.5,-547.749 1003.5,-547.749 1003.5,-528.749 932.5,-528.749"/>
<text text-anchor="middle" x="968" y="-535.749" font-family="Arial" font-size="10.00">cm_vertex_s</text>
</a>
</g>
</g>
<!-- Node3&#45;&gt;Node21 -->
<g id="edge38" class="edge"><title>Node3&#45;&gt;Node21</title>
<path fill="none" stroke="#9a32cd" stroke-dasharray="5,2" d="M737.316,-585.047C746.166,-571.39 760.285,-553.66 778,-545.249 827.535,-521.73 892.872,-525.917 932.314,-531.671"/>
<polygon fill="#9a32cd" stroke="#9a32cd" points="734.266,-583.325 732.051,-593.686 740.244,-586.968 734.266,-583.325"/>
<text text-anchor="middle" x="838" y="-548.249" font-family="Arial" font-size="10.00"> p</text>
</g>
<!-- Node29 -->
<g id="node29" class="node"><title>Node29</title>
<g id="a_node29"><a xlink:href="structcm__edge__s.html" target="_top" xlink:title="cm_edge_s">
<polygon fill="white" stroke="black" points="934.5,-452.749 934.5,-471.749 1001.5,-471.749 1001.5,-452.749 934.5,-452.749"/>
<text text-anchor="middle" x="968" y="-459.749" font-family="Arial" font-size="10.00">cm_edge_s</text>
</a>
</g>
</g>
<!-- Node3&#45;&gt;Node29 -->
<g id="edge56" class="edge"><title>Node3&#45;&gt;Node29</title>
<path fill="none" stroke="#9a32cd" stroke-dasharray="5,2" d="M732.695,-583.712C739.844,-562.669 754.15,-529.726 778,-511.249 824.09,-475.541 893.564,-465.697 934.194,-463.08"/>
<polygon fill="#9a32cd" stroke="#9a32cd" points="729.281,-582.902 729.597,-593.492 735.954,-585.016 729.281,-582.902"/>
<text text-anchor="middle" x="838" y="-514.249" font-family="Arial" font-size="10.00"> normal</text>
</g>
<!-- Node4 -->
<g id="node4" class="node"><title>Node4</title>
<g id="a_node4"><a xlink:href="classid_material.html" target="_top" xlink:title="idMaterial">
<polygon fill="white" stroke="black" points="210.5,-665.749 210.5,-684.749 269.5,-684.749 269.5,-665.749 210.5,-665.749"/>
<text text-anchor="middle" x="240" y="-672.749" font-family="Arial" font-size="10.00">idMaterial</text>
</a>
</g>
</g>
<!-- Node4&#45;&gt;Node2 -->
<g id="edge3" class="edge"><title>Node4&#45;&gt;Node2</title>
<path fill="none" stroke="#9a32cd" stroke-dasharray="5,2" d="M255.788,-692.165C264.287,-700.668 275.701,-710.214 288,-715.249 303.056,-721.413 794.804,-753.241 931.854,-762.01"/>
<polygon fill="#9a32cd" stroke="#9a32cd" points="258.263,-689.688 248.859,-684.808 253.167,-694.487 258.263,-689.688"/>
<text text-anchor="middle" x="565" y="-743.249" font-family="Arial" font-size="10.00"> material</text>
</g>
<!-- Node20 -->
<g id="node20" class="node"><title>Node20</title>
<g id="a_node20"><a xlink:href="structcm__polygon__s.html" target="_top" xlink:title="cm_polygon_s">
<polygon fill="white" stroke="black" points="384,-336.749 384,-355.749 464,-355.749 464,-336.749 384,-336.749"/>
<text text-anchor="middle" x="424" y="-343.749" font-family="Arial" font-size="10.00">cm_polygon_s</text>
</a>
</g>
</g>
<!-- Node4&#45;&gt;Node20 -->
<g id="edge35" class="edge"><title>Node4&#45;&gt;Node20</title>
<path fill="none" stroke="#9a32cd" stroke-dasharray="5,2" d="M251.416,-656.419C285.389,-595.007 392.24,-401.854 417.574,-356.057"/>
<polygon fill="#9a32cd" stroke="#9a32cd" points="248.225,-654.958 246.447,-665.403 254.35,-658.347 248.225,-654.958"/>
<text text-anchor="middle" x="323" y="-589.249" font-family="Arial" font-size="10.00"> material</text>
</g>
<!-- Node26 -->
<g id="node26" class="node"><title>Node26</title>
<g id="a_node26"><a xlink:href="structcm__brush__s.html" target="_top" xlink:title="cm_brush_s">
<polygon fill="white" stroke="black" points="389,-266.749 389,-285.749 459,-285.749 459,-266.749 389,-266.749"/>
<text text-anchor="middle" x="424" y="-273.749" font-family="Arial" font-size="10.00">cm_brush_s</text>
</a>
</g>
</g>
<!-- Node4&#45;&gt;Node26 -->
<g id="edge49" class="edge"><title>Node4&#45;&gt;Node26</title>
<path fill="none" stroke="#9a32cd" stroke-dasharray="5,2" d="M242.441,-655.511C245.914,-616.054 256.894,-525.307 288,-456.249 309.539,-408.43 330.098,-405.658 358,-361.249 367.096,-346.771 366.125,-341.207 376,-327.249 387.127,-311.522 402.705,-295.532 412.823,-285.751"/>
<polygon fill="#9a32cd" stroke="#9a32cd" points="238.941,-655.375 241.62,-665.626 245.918,-655.942 238.941,-655.375"/>
<text text-anchor="middle" x="323" y="-459.249" font-family="Arial" font-size="10.00"> material</text>
</g>
<!-- Node5 -->
<g id="node5" class="node"><title>Node5</title>
<g id="a_node5"><a xlink:href="classid_decl.html" target="_top" xlink:title="idDecl">
<polygon fill="white" stroke="black" points="128,-665.749 128,-684.749 172,-684.749 172,-665.749 128,-665.749"/>
<text text-anchor="middle" x="150" y="-672.749" font-family="Arial" font-size="10.00">idDecl</text>
</a>
</g>
</g>
<!-- Node5&#45;&gt;Node4 -->
<g id="edge4" class="edge"><title>Node5&#45;&gt;Node4</title>
<path fill="none" stroke="midnightblue" d="M182.477,-675.249C191.534,-675.249 201.363,-675.249 210.246,-675.249"/>
<polygon fill="midnightblue" stroke="midnightblue" points="182.302,-671.749 172.302,-675.249 182.302,-678.749 182.302,-671.749"/>
</g>
<!-- Node6 -->
<g id="node6" class="node"><title>Node6</title>
<g id="a_node6"><a xlink:href="classid_decl_base.html" target="_top" xlink:title="idDeclBase">
<polygon fill="white" stroke="black" points="0,-665.749 0,-684.749 66,-684.749 66,-665.749 0,-665.749"/>
<text text-anchor="middle" x="33" y="-672.749" font-family="Arial" font-size="10.00">idDeclBase</text>
</a>
</g>
</g>
<!-- Node6&#45;&gt;Node5 -->
<g id="edge5" class="edge"><title>Node6&#45;&gt;Node5</title>
<path fill="none" stroke="#9a32cd" stroke-dasharray="5,2" d="M76.0643,-675.249C93.5984,-675.249 113.201,-675.249 127.664,-675.249"/>
<polygon fill="#9a32cd" stroke="#9a32cd" points="76.0339,-671.749 66.0339,-675.249 76.0339,-678.749 76.0339,-671.749"/>
<text text-anchor="middle" x="97" y="-678.249" font-family="Arial" font-size="10.00"> base</text>
</g>
<!-- Node7 -->
<g id="node7" class="node"><title>Node7</title>
<g id="a_node7"><a xlink:href="classid_mat3.html" target="_top" xlink:title="idMat3">
<polygon fill="white" stroke="black" points="945,-712.749 945,-731.749 991,-731.749 991,-712.749 945,-712.749"/>
<text text-anchor="middle" x="968" y="-719.749" font-family="Arial" font-size="10.00">idMat3</text>
</a>
</g>
</g>
<!-- Node7&#45;&gt;Node1 -->
<g id="edge6" class="edge"><title>Node7&#45;&gt;Node1</title>
<path fill="none" stroke="#9a32cd" stroke-dasharray="5,2" d="M1001.25,-724.499C1085.54,-729.786 1310.16,-739.875 1372,-702.249 1406.21,-681.432 1425.19,-634.192 1432.03,-613.855"/>
<polygon fill="#9a32cd" stroke="#9a32cd" points="1001.43,-721.004 991.226,-723.852 1000.98,-727.99 1001.43,-721.004"/>
<text text-anchor="middle" x="1224" y="-732.249" font-family="Arial" font-size="10.00"> matrix</text>
</g>
<!-- Node7&#45;&gt;Node15 -->
<g id="edge25" class="edge"><title>Node7&#45;&gt;Node15</title>
<path fill="none" stroke="#9a32cd" stroke-dasharray="5,2" d="M1001.13,-716.255C1012.72,-714.199 1025.93,-711.982 1038,-710.249 1095.75,-701.956 1164.04,-694.918 1199.29,-691.487"/>
<polygon fill="#9a32cd" stroke="#9a32cd" points="1000.23,-712.86 991.01,-718.079 1001.47,-719.749 1000.23,-712.86"/>
<text text-anchor="middle" x="1104" y="-713.249" font-family="Arial" font-size="10.00"> endAxis</text>
</g>
<!-- Node8 -->
<g id="node8" class="node"><title>Node8</title>
<g id="a_node8"><a xlink:href="structcm__trm_polygon__s.html" target="_top" xlink:title="cm_trmPolygon_s">
<polygon fill="white" stroke="black" points="376.5,-41.7489 376.5,-60.7489 471.5,-60.7489 471.5,-41.7489 376.5,-41.7489"/>
<text text-anchor="middle" x="424" y="-48.7489" font-family="Arial" font-size="10.00">cm_trmPolygon_s</text>
</a>
</g>
</g>
<!-- Node8&#45;&gt;Node1 -->
<g id="edge7" class="edge"><title>Node8&#45;&gt;Node1</title>
<path fill="none" stroke="#9a32cd" stroke-dasharray="5,2" d="M481.767,-51.2489C506.956,-51.2489 536.958,-51.2489 564,-51.2489 564,-51.2489 564,-51.2489 1225,-51.2489 1291.13,-51.2489 1326.11,-26.6347 1372,-74.2489 1409.7,-113.363 1431.19,-525.534 1434.54,-594.49"/>
<polygon fill="#9a32cd" stroke="#9a32cd" points="481.65,-47.749 471.65,-51.2489 481.65,-54.749 481.65,-47.749"/>
<text text-anchor="middle" x="838" y="-54.2489" font-family="Arial" font-size="10.00"> polys</text>
</g>
<!-- Node9 -->
<g id="node9" class="node"><title>Node9</title>
<g id="a_node9"><a xlink:href="classid_plane.html" target="_top" xlink:title="idPlane">
<polygon fill="white" stroke="black" points="215.5,-58.7489 215.5,-77.7489 264.5,-77.7489 264.5,-58.7489 215.5,-58.7489"/>
<text text-anchor="middle" x="240" y="-65.7489" font-family="Arial" font-size="10.00">idPlane</text>
</a>
</g>
</g>
<!-- Node9&#45;&gt;Node1 -->
<g id="edge10" class="edge"><title>Node9&#45;&gt;Node1</title>
<path fill="none" stroke="#9a32cd" stroke-dasharray="5,2" d="M255.879,-51.0394C264.405,-42.2726 275.815,-32.2282 288,-26.2489 342.78,0.632537 361.98,-1.24894 423,-1.24894 423,-1.24894 423,-1.24894 1225,-1.24894 1292.71,-1.24894 1327.95,10.1748 1372,-41.2489 1409.59,-85.1337 1431.25,-522.87 1434.56,-594.391"/>
<polygon fill="#9a32cd" stroke="#9a32cd" points="253.131,-48.8561 248.92,-58.5782 258.274,-53.6041 253.131,-48.8561"/>
<text text-anchor="middle" x="726" y="-15.2489" font-family="Arial" font-size="10.00"> heartPlane1</text>
<text text-anchor="middle" x="726" y="-4.24894" font-family="Arial" font-size="10.00">heartPlane2</text>
</g>
<!-- Node9&#45;&gt;Node8 -->
<g id="edge8" class="edge"><title>Node9&#45;&gt;Node8</title>
<path fill="none" stroke="#9a32cd" stroke-dasharray="5,2" d="M258.597,-52.0069C266.876,-45.4486 277.275,-38.6381 288,-35.2489 324.457,-23.7281 368.834,-33.1956 396.508,-41.7015"/>
<polygon fill="#9a32cd" stroke="#9a32cd" points="256.185,-49.4636 250.813,-58.5961 260.707,-54.8063 256.185,-49.4636"/>
<text text-anchor="middle" x="323" y="-38.2489" font-family="Arial" font-size="10.00"> plane</text>
</g>
<!-- Node9&#45;&gt;Node20 -->
<g id="edge33" class="edge"><title>Node9&#45;&gt;Node20</title>
<path fill="none" stroke="#9a32cd" stroke-dasharray="5,2" d="M242.842,-88.0845C247.705,-136.557 262.308,-259.317 288,-290.249 301.578,-306.596 355.182,-325.525 390.621,-336.66"/>
<polygon fill="#9a32cd" stroke="#9a32cd" points="246.308,-87.5604 241.86,-77.9445 239.341,-88.2355 246.308,-87.5604"/>
<text text-anchor="middle" x="323" y="-327.249" font-family="Arial" font-size="10.00"> plane</text>
</g>
<!-- Node9&#45;&gt;Node26 -->
<g id="edge47" class="edge"><title>Node9&#45;&gt;Node26</title>
<path fill="none" stroke="#9a32cd" stroke-dasharray="5,2" d="M256.302,-85.7365C293.066,-127.753 385.452,-233.337 414.273,-266.275"/>
<polygon fill="#9a32cd" stroke="#9a32cd" points="258.753,-83.2232 249.534,-78.0022 253.485,-87.8328 258.753,-83.2232"/>
<text text-anchor="middle" x="323" y="-199.249" font-family="Arial" font-size="10.00"> planes</text>
</g>
<!-- Node10 -->
<g id="node10" class="node"><title>Node10</title>
<g id="a_node10"><a xlink:href="classid_bounds.html" target="_top" xlink:title="idBounds">
<polygon fill="white" stroke="black" points="211.5,-336.749 211.5,-355.749 268.5,-355.749 268.5,-336.749 211.5,-336.749"/>
<text text-anchor="middle" x="240" y="-343.749" font-family="Arial" font-size="10.00">idBounds</text>
</a>
</g>
</g>
<!-- Node10&#45;&gt;Node1 -->
<g id="edge15" class="edge"><title>Node10&#45;&gt;Node1</title>
<path fill="none" stroke="#9a32cd" stroke-dasharray="5,2" d="M246.697,-327.147C253.456,-307.747 266.59,-278.215 288,-261.249 443.378,-138.122 998.06,-28.5611 1170,-127.249 1359.79,-236.185 1422.84,-536.91 1433.34,-594.607"/>
<polygon fill="#9a32cd" stroke="#9a32cd" points="243.342,-326.146 243.586,-336.738 250.001,-328.306 243.342,-326.146"/>
<text text-anchor="middle" x="726" y="-130.249" font-family="Arial" font-size="10.00"> size</text>
<text text-anchor="middle" x="726" y="-119.249" font-family="Arial" font-size="10.00">bounds</text>
</g>
<!-- Node10&#45;&gt;Node8 -->
<g id="edge9" class="edge"><title>Node10&#45;&gt;Node8</title>
<path fill="none" stroke="#9a32cd" stroke-dasharray="5,2" d="M242.52,-326.698C246.818,-276.009 260.565,-141.959 288,-108.249 309.84,-81.4133 346.576,-67.0036 376.216,-59.391"/>
<polygon fill="#9a32cd" stroke="#9a32cd" points="239.03,-326.437 241.705,-336.688 246.007,-327.006 239.03,-326.437"/>
<text text-anchor="middle" x="323" y="-111.249" font-family="Arial" font-size="10.00"> rotationBounds</text>
</g>
<!-- Node10&#45;&gt;Node11 -->
<g id="edge12" class="edge"><title>Node10&#45;&gt;Node11</title>
<path fill="none" stroke="#9a32cd" stroke-dasharray="5,2" d="M242.162,-366.2C245.666,-419.845 257.807,-565.54 288,-601.249 386.951,-718.275 472.843,-655.048 612,-719.249 688.987,-754.767 697.333,-787.146 778,-813.249 826.059,-828.8 884.182,-833.264 923.173,-834.338"/>
<polygon fill="#9a32cd" stroke="#9a32cd" points="245.639,-365.722 241.526,-355.958 238.652,-366.155 245.639,-365.722"/>
<text text-anchor="middle" x="565" y="-722.249" font-family="Arial" font-size="10.00"> rotationBounds</text>
</g>
<!-- Node10&#45;&gt;Node13 -->
<g id="edge17" class="edge"><title>Node10&#45;&gt;Node13</title>
<path fill="none" stroke="#9a32cd" stroke-dasharray="5,2" d="M246.66,-365.629C253.495,-386.039 266.791,-417.972 288,-438.249 430.612,-574.593 503.512,-563.937 692,-622.249 772.08,-647.023 871.606,-641.589 926.28,-635.722"/>
<polygon fill="#9a32cd" stroke="#9a32cd" points="249.931,-364.365 243.592,-355.876 243.254,-366.465 249.931,-364.365"/>
<text text-anchor="middle" x="565" y="-601.249" font-family="Arial" font-size="10.00"> rotationBounds</text>
</g>
<!-- Node16 -->
<g id="node16" class="node"><title>Node16</title>
<g id="a_node16"><a xlink:href="structcm__model__s.html" target="_top" xlink:title="cm_model_s">
<polygon fill="white" stroke="black" points="1188,-376.749 1188,-395.749 1260,-395.749 1260,-376.749 1188,-376.749"/>
<text text-anchor="middle" x="1224" y="-383.749" font-family="Arial" font-size="10.00">cm_model_s</text>
</a>
</g>
</g>
<!-- Node10&#45;&gt;Node16 -->
<g id="edge58" class="edge"><title>Node10&#45;&gt;Node16</title>
<path fill="none" stroke="#9a32cd" stroke-dasharray="5,2" d="M249.605,-365.432C257.377,-380.333 270.313,-400.114 288,-410.249 340.338,-440.24 362.678,-424.249 423,-424.249 423,-424.249 423,-424.249 969,-424.249 1058.92,-424.249 1081.79,-418.66 1170,-401.249 1177.32,-399.805 1185.1,-397.848 1192.38,-395.825"/>
<polygon fill="#9a32cd" stroke="#9a32cd" points="252.575,-363.536 245.054,-356.073 246.28,-366.597 252.575,-363.536"/>
<text text-anchor="middle" x="652" y="-427.249" font-family="Arial" font-size="10.00"> bounds</text>
</g>
<!-- Node10&#45;&gt;Node20 -->
<g id="edge34" class="edge"><title>Node10&#45;&gt;Node20</title>
<path fill="none" stroke="#9a32cd" stroke-dasharray="5,2" d="M278.962,-346.249C309.718,-346.249 352.89,-346.249 383.937,-346.249"/>
<polygon fill="#9a32cd" stroke="#9a32cd" points="278.642,-342.749 268.642,-346.249 278.642,-349.749 278.642,-342.749"/>
<text text-anchor="middle" x="323" y="-349.249" font-family="Arial" font-size="10.00"> bounds</text>
</g>
<!-- Node10&#45;&gt;Node26 -->
<g id="edge48" class="edge"><title>Node10&#45;&gt;Node26</title>
<path fill="none" stroke="#9a32cd" stroke-dasharray="5,2" d="M248.693,-326.763C256.135,-310.834 269.084,-289.354 288,-279.249 319.12,-262.624 360.308,-264.51 388.97,-268.887"/>
<polygon fill="#9a32cd" stroke="#9a32cd" points="245.346,-325.686 244.59,-336.254 251.771,-328.464 245.346,-325.686"/>
<text text-anchor="middle" x="323" y="-282.249" font-family="Arial" font-size="10.00"> bounds</text>
</g>
<!-- Node11&#45;&gt;Node1 -->
<g id="edge11" class="edge"><title>Node11&#45;&gt;Node1</title>
<path fill="none" stroke="#9a32cd" stroke-dasharray="5,2" d="M1022.85,-841.798C1108.75,-850.569 1276.77,-853.815 1372,-763.249 1416.97,-720.482 1430.5,-641.569 1433.96,-614.035"/>
<polygon fill="#9a32cd" stroke="#9a32cd" points="1023.11,-838.306 1012.79,-840.707 1022.36,-845.265 1023.11,-838.306"/>
<text text-anchor="middle" x="1224" y="-842.249" font-family="Arial" font-size="10.00"> vertices</text>
</g>
<!-- Node12 -->
<g id="node12" class="node"><title>Node12</title>
<g id="a_node12"><a xlink:href="classid_pluecker.html" target="_top" xlink:title="idPluecker">
<polygon fill="white" stroke="black" points="695,-895.749 695,-914.749 757,-914.749 757,-895.749 695,-895.749"/>
<text text-anchor="middle" x="726" y="-902.749" font-family="Arial" font-size="10.00">idPluecker</text>
</a>
</g>
</g>
<!-- Node12&#45;&gt;Node1 -->
<g id="edge21" class="edge"><title>Node12&#45;&gt;Node1</title>
<path fill="none" stroke="#9a32cd" stroke-dasharray="5,2" d="M767.306,-915.633C770.904,-916.287 774.506,-916.843 778,-917.249 830.978,-923.398 844.864,-921.838 898,-917.249 1060.7,-903.197 1103.8,-901.9 1260,-854.249 1312.14,-838.343 1335.73,-844.942 1372,-804.249 1423.84,-746.094 1433.03,-645.409 1434.66,-613.937"/>
<polygon fill="#9a32cd" stroke="#9a32cd" points="767.768,-912.156 757.27,-913.583 766.367,-919.014 767.768,-912.156"/>
<text text-anchor="middle" x="1104" y="-917.249" font-family="Arial" font-size="10.00"> polygonVertexPlueckerCache</text>
<text text-anchor="middle" x="1104" y="-906.249" font-family="Arial" font-size="10.00">polygonEdgePlueckerCache</text>
</g>
<!-- Node12&#45;&gt;Node11 -->
<g id="edge14" class="edge"><title>Node12&#45;&gt;Node11</title>
<path fill="none" stroke="#9a32cd" stroke-dasharray="5,2" d="M767.58,-905.515C803.116,-904.482 855.557,-899.844 898,-883.249 921.262,-874.153 944.057,-855.53 956.747,-844.044"/>
<polygon fill="#9a32cd" stroke="#9a32cd" points="767.051,-902.025 757.124,-905.729 767.194,-909.023 767.051,-902.025"/>
<text text-anchor="middle" x="838" y="-907.249" font-family="Arial" font-size="10.00"> pl</text>
</g>
<!-- Node12&#45;&gt;Node13 -->
<g id="edge19" class="edge"><title>Node12&#45;&gt;Node13</title>
<path fill="none" stroke="#9a32cd" stroke-dasharray="5,2" d="M741.826,-887.931C751.294,-877.791 764.327,-865.416 778,-857.249 826.264,-828.421 862.672,-860.98 898,-817.249 943.802,-760.553 873.624,-713.548 916,-654.249 920.495,-647.959 927.072,-643.266 934.019,-639.783"/>
<polygon fill="#9a32cd" stroke="#9a32cd" points="739.139,-885.685 735.053,-895.46 744.343,-890.366 739.139,-885.685"/>
<text text-anchor="middle" x="838" y="-871.249" font-family="Arial" font-size="10.00"> plzaxis</text>
<text text-anchor="middle" x="838" y="-860.249" font-family="Arial" font-size="10.00">pl</text>
</g>
<!-- Node13&#45;&gt;Node1 -->
<g id="edge16" class="edge"><title>Node13&#45;&gt;Node1</title>
<path fill="none" stroke="#9a32cd" stroke-dasharray="5,2" d="M1019.94,-636.003C1026.02,-636.516 1032.15,-636.953 1038,-637.249 1096.59,-640.213 1111.45,-640.881 1170,-637.249 1247.74,-632.427 1337.57,-619.722 1390.15,-611.557"/>
<polygon fill="#9a32cd" stroke="#9a32cd" points="1020.09,-632.502 1009.81,-635.079 1019.45,-639.473 1020.09,-632.502"/>
<text text-anchor="middle" x="1224" y="-638.249" font-family="Arial" font-size="10.00"> edges</text>
</g>
<!-- Node14 -->
<g id="node14" class="node"><title>Node14</title>
<g id="a_node14"><a xlink:href="classid_rotation.html" target="_top" xlink:title="idRotation">
<polygon fill="white" stroke="black" points="1194,-79.7489 1194,-98.7489 1254,-98.7489 1254,-79.7489 1194,-79.7489"/>
<text text-anchor="middle" x="1224" y="-86.7489" font-family="Arial" font-size="10.00">idRotation</text>
</a>
</g>
</g>
<!-- Node14&#45;&gt;Node1 -->
<g id="edge22" class="edge"><title>Node14&#45;&gt;Node1</title>
<path fill="none" stroke="#9a32cd" stroke-dasharray="5,2" d="M1264.46,-80.5215C1297.65,-75.7034 1344.04,-75.2933 1372,-102.249 1408.99,-137.911 1431,-527.805 1434.5,-594.554"/>
<polygon fill="#9a32cd" stroke="#9a32cd" points="1263.48,-77.1344 1254.18,-82.2115 1264.62,-84.0415 1263.48,-77.1344"/>
<text text-anchor="middle" x="1325" y="-105.249" font-family="Arial" font-size="10.00"> modelVertexRotation</text>
</g>
<!-- Node15&#45;&gt;Node1 -->
<g id="edge23" class="edge"><title>Node15&#45;&gt;Node1</title>
<path fill="none" stroke="#9a32cd" stroke-dasharray="5,2" d="M1258.99,-689.036C1289.95,-687.587 1336.19,-682.204 1372,-664.249 1396.3,-652.064 1417.58,-627.351 1428.07,-613.752"/>
<polygon fill="#9a32cd" stroke="#9a32cd" points="1258.58,-685.548 1248.71,-689.399 1258.83,-692.544 1258.58,-685.548"/>
<text text-anchor="middle" x="1325" y="-690.249" font-family="Arial" font-size="10.00"> trace</text>
</g>
<!-- Node16&#45;&gt;Node1 -->
<g id="edge27" class="edge"><title>Node16&#45;&gt;Node1</title>
<path fill="none" stroke="#9a32cd" stroke-dasharray="5,2" d="M1242.13,-402.958C1269.84,-430.099 1326.03,-485.63 1372,-534.249 1391.99,-555.396 1414.64,-580.977 1426.59,-594.603"/>
<polygon fill="#9a32cd" stroke="#9a32cd" points="1244.4,-400.273 1234.8,-395.784 1239.5,-405.278 1244.4,-400.273"/>
<text text-anchor="middle" x="1325" y="-537.249" font-family="Arial" font-size="10.00"> model</text>
</g>
<!-- Node17 -->
<g id="node17" class="node"><title>Node17</title>
<g id="a_node17"><a xlink:href="classid_str.html" target="_top" xlink:title="idStr">
<polygon fill="white" stroke="black" points="949.5,-490.749 949.5,-509.749 986.5,-509.749 986.5,-490.749 949.5,-490.749"/>
<text text-anchor="middle" x="968" y="-497.749" font-family="Arial" font-size="10.00">idStr</text>
</a>
</g>
</g>
<!-- Node17&#45;&gt;Node16 -->
<g id="edge28" class="edge"><title>Node17&#45;&gt;Node16</title>
<path fill="none" stroke="#9a32cd" stroke-dasharray="5,2" d="M996.905,-496.563C1050.41,-489.411 1162.81,-473.94 1170,-469.249 1197.5,-451.321 1213.56,-413.597 1219.87,-395.856"/>
<polygon fill="#9a32cd" stroke="#9a32cd" points="996.189,-493.128 986.738,-497.917 997.113,-500.066 996.189,-493.128"/>
<text text-anchor="middle" x="1104" y="-493.249" font-family="Arial" font-size="10.00"> name</text>
</g>
<!-- Node18 -->
<g id="node18" class="node"><title>Node18</title>
<g id="a_node18"><a xlink:href="structcm__polygon_ref_block__s.html" target="_top" xlink:title="cm_polygonRefBlock_s">
<polygon fill="white" stroke="black" points="778.5,-337.749 778.5,-356.749 897.5,-356.749 897.5,-337.749 778.5,-337.749"/>
<text text-anchor="middle" x="838" y="-344.749" font-family="Arial" font-size="10.00">cm_polygonRefBlock_s</text>
</a>
</g>
</g>
<!-- Node18&#45;&gt;Node16 -->
<g id="edge29" class="edge"><title>Node18&#45;&gt;Node16</title>
<path fill="none" stroke="#9a32cd" stroke-dasharray="5,2" d="M908.036,-349.108C941.842,-350.419 983.112,-352.615 1020,-356.249 1079.21,-362.082 1147.56,-373.071 1187.92,-380.007"/>
<polygon fill="#9a32cd" stroke="#9a32cd" points="907.92,-345.602 897.798,-348.729 907.661,-352.597 907.92,-345.602"/>
<text text-anchor="middle" x="968" y="-359.249" font-family="Arial" font-size="10.00"> polygonRefBlocks</text>
</g>
<!-- Node18&#45;&gt;Node18 -->
<g id="edge30" class="edge"><title>Node18&#45;&gt;Node18</title>
<path fill="none" stroke="#9a32cd" stroke-dasharray="5,2" d="M817.26,-366.649C818.645,-371.564 825.559,-375.249 838,-375.249 857.906,-375.249 863.66,-365.814 855.262,-357.006"/>
<polygon fill="#9a32cd" stroke="#9a32cd" points="820.638,-367.6 820.738,-357.006 814.053,-365.226 820.638,-367.6"/>
<text text-anchor="middle" x="838" y="-378.249" font-family="Arial" font-size="10.00"> next</text>
</g>
<!-- Node19 -->
<g id="node19" class="node"><title>Node19</title>
<g id="a_node19"><a xlink:href="structcm__polygon_ref__s.html" target="_top" xlink:title="cm_polygonRef_s">
<polygon fill="white" stroke="black" points="518,-336.749 518,-355.749 612,-355.749 612,-336.749 518,-336.749"/>
<text text-anchor="middle" x="565" y="-343.749" font-family="Arial" font-size="10.00">cm_polygonRef_s</text>
</a>
</g>
</g>
<!-- Node19&#45;&gt;Node18 -->
<g id="edge31" class="edge"><title>Node19&#45;&gt;Node18</title>
<path fill="none" stroke="#9a32cd" stroke-dasharray="5,2" d="M622.288,-346.457C667.868,-346.625 731.876,-346.861 778.132,-347.032"/>
<polygon fill="#9a32cd" stroke="#9a32cd" points="622.292,-342.957 612.279,-346.42 622.266,-349.957 622.292,-342.957"/>
<text text-anchor="middle" x="652" y="-349.249" font-family="Arial" font-size="10.00"> nextRef</text>
</g>
<!-- Node19&#45;&gt;Node19 -->
<g id="edge36" class="edge"><title>Node19&#45;&gt;Node19</title>
<path fill="none" stroke="#9a32cd" stroke-dasharray="5,2" d="M552.109,-366.015C553.122,-370.745 557.419,-374.249 565,-374.249 577.441,-374.249 581.038,-364.814 575.789,-356.006"/>
<polygon fill="#9a32cd" stroke="#9a32cd" points="555.581,-366.512 554.211,-356.006 548.73,-365.073 555.581,-366.512"/>
<text text-anchor="middle" x="565" y="-377.249" font-family="Arial" font-size="10.00"> next</text>
</g>
<!-- Node24 -->
<g id="node24" class="node"><title>Node24</title>
<g id="a_node24"><a xlink:href="structcm__node__s.html" target="_top" xlink:title="cm_node_s">
<polygon fill="white" stroke="black" points="692.5,-259.749 692.5,-278.749 759.5,-278.749 759.5,-259.749 692.5,-259.749"/>
<text text-anchor="middle" x="726" y="-266.749" font-family="Arial" font-size="10.00">cm_node_s</text>
</a>
</g>
</g>
<!-- Node19&#45;&gt;Node24 -->
<g id="edge43" class="edge"><title>Node19&#45;&gt;Node24</title>
<path fill="none" stroke="#9a32cd" stroke-dasharray="5,2" d="M594.232,-331.971C605.352,-326.39 618.251,-319.968 630,-314.249 655.598,-301.788 685.276,-287.804 704.555,-278.78"/>
<polygon fill="#9a32cd" stroke="#9a32cd" points="592.35,-329 584.991,-336.621 595.497,-335.253 592.35,-329"/>
<text text-anchor="middle" x="652" y="-317.249" font-family="Arial" font-size="10.00"> polygons</text>
</g>
<!-- Node20&#45;&gt;Node19 -->
<g id="edge32" class="edge"><title>Node20&#45;&gt;Node19</title>
<path fill="none" stroke="#9a32cd" stroke-dasharray="5,2" d="M474.171,-346.249C488.371,-346.249 503.813,-346.249 517.824,-346.249"/>
<polygon fill="#9a32cd" stroke="#9a32cd" points="474.089,-342.749 464.089,-346.249 474.089,-349.749 474.089,-342.749"/>
<text text-anchor="middle" x="495" y="-349.249" font-family="Arial" font-size="10.00"> p</text>
</g>
<!-- Node21&#45;&gt;Node16 -->
<g id="edge37" class="edge"><title>Node21&#45;&gt;Node16</title>
<path fill="none" stroke="#9a32cd" stroke-dasharray="5,2" d="M1013.42,-530.515C1072.62,-520.206 1170,-503.249 1170,-503.249 1205.61,-475.669 1218.02,-418.767 1221.67,-395.989"/>
<polygon fill="#9a32cd" stroke="#9a32cd" points="1012.8,-527.069 1003.55,-532.232 1014.01,-533.965 1012.8,-527.069"/>
<text text-anchor="middle" x="1104" y="-528.249" font-family="Arial" font-size="10.00"> vertices</text>
</g>
<!-- Node22 -->
<g id="node22" class="node"><title>Node22</title>
<g id="a_node22"><a xlink:href="structcm__polygon_block__s.html" target="_top" xlink:title="cm_polygonBlock_s">
<polygon fill="white" stroke="black" points="916,-376.749 916,-395.749 1020,-395.749 1020,-376.749 916,-376.749"/>
<text text-anchor="middle" x="968" y="-383.749" font-family="Arial" font-size="10.00">cm_polygonBlock_s</text>
</a>
</g>
</g>
<!-- Node22&#45;&gt;Node16 -->
<g id="edge39" class="edge"><title>Node22&#45;&gt;Node16</title>
<path fill="none" stroke="#9a32cd" stroke-dasharray="5,2" d="M1030.33,-386.249C1079.68,-386.249 1147.28,-386.249 1187.89,-386.249"/>
<polygon fill="#9a32cd" stroke="#9a32cd" points="1030.1,-382.749 1020.1,-386.249 1030.1,-389.749 1030.1,-382.749"/>
<text text-anchor="middle" x="1104" y="-389.249" font-family="Arial" font-size="10.00"> polygonBlock</text>
</g>
<!-- Node23 -->
<g id="node23" class="node"><title>Node23</title>
<g id="a_node23"><a xlink:href="structcm__node_block__s.html" target="_top" xlink:title="cm_nodeBlock_s">
<polygon fill="white" stroke="black" points="922,-262.749 922,-281.749 1014,-281.749 1014,-262.749 922,-262.749"/>
<text text-anchor="middle" x="968" y="-269.749" font-family="Arial" font-size="10.00">cm_nodeBlock_s</text>
</a>
</g>
</g>
<!-- Node23&#45;&gt;Node16 -->
<g id="edge40" class="edge"><title>Node23&#45;&gt;Node16</title>
<path fill="none" stroke="#9a32cd" stroke-dasharray="5,2" d="M1024.26,-276.583C1066.84,-282.048 1125.71,-294.391 1170,-322.249 1191.98,-336.075 1209.25,-362.099 1217.57,-376.332"/>
<polygon fill="#9a32cd" stroke="#9a32cd" points="1024.42,-273.078 1014.08,-275.367 1023.59,-280.028 1024.42,-273.078"/>
<text text-anchor="middle" x="1104" y="-325.249" font-family="Arial" font-size="10.00"> nodeBlocks</text>
</g>
<!-- Node23&#45;&gt;Node23 -->
<g id="edge41" class="edge"><title>Node23&#45;&gt;Node23</title>
<path fill="none" stroke="#9a32cd" stroke-dasharray="5,2" d="M943.819,-291.278C945.138,-296.377 953.198,-300.249 968,-300.249 991.105,-300.249 997.784,-290.814 988.037,-282.006"/>
<polygon fill="#9a32cd" stroke="#9a32cd" points="947.078,-292.564 947.963,-282.006 940.687,-289.707 947.078,-292.564"/>
<text text-anchor="middle" x="968" y="-303.249" font-family="Arial" font-size="10.00"> next</text>
</g>
<!-- Node24&#45;&gt;Node16 -->
<g id="edge57" class="edge"><title>Node24&#45;&gt;Node16</title>
<path fill="none" stroke="#9a32cd" stroke-dasharray="5,2" d="M753.602,-254.811C828.782,-216.184 1045.42,-120.175 1170,-223.249 1218.38,-263.274 1223.01,-348.052 1223.15,-376.62"/>
<polygon fill="#9a32cd" stroke="#9a32cd" points="751.595,-251.911 744.353,-259.644 754.837,-258.115 751.595,-251.911"/>
<text text-anchor="middle" x="968" y="-194.249" font-family="Arial" font-size="10.00"> node</text>
</g>
<!-- Node24&#45;&gt;Node23 -->
<g id="edge42" class="edge"><title>Node24&#45;&gt;Node23</title>
<path fill="none" stroke="#9a32cd" stroke-dasharray="5,2" d="M769.71,-269.783C812.494,-270.318 878.095,-271.138 921.755,-271.683"/>
<polygon fill="#9a32cd" stroke="#9a32cd" points="769.66,-266.282 759.617,-269.657 769.573,-273.281 769.66,-266.282"/>
<text text-anchor="middle" x="838" y="-274.249" font-family="Arial" font-size="10.00"> nextNode</text>
</g>
<!-- Node24&#45;&gt;Node24 -->
<g id="edge44" class="edge"><title>Node24&#45;&gt;Node24</title>
<path fill="none" stroke="#9a32cd" stroke-dasharray="5,2" d="M712.372,-289.015C713.443,-293.745 717.985,-297.249 726,-297.249 739.152,-297.249 742.954,-287.814 737.406,-279.006"/>
<polygon fill="#9a32cd" stroke="#9a32cd" points="715.844,-289.527 714.594,-279.006 709.01,-288.01 715.844,-289.527"/>
<text text-anchor="middle" x="726" y="-311.249" font-family="Arial" font-size="10.00"> parent</text>
<text text-anchor="middle" x="726" y="-300.249" font-family="Arial" font-size="10.00">children</text>
</g>
<!-- Node25 -->
<g id="node25" class="node"><title>Node25</title>
<g id="a_node25"><a xlink:href="structcm__brush_ref__s.html" target="_top" xlink:title="cm_brushRef_s">
<polygon fill="white" stroke="black" points="523,-259.749 523,-278.749 607,-278.749 607,-259.749 523,-259.749"/>
<text text-anchor="middle" x="565" y="-266.749" font-family="Arial" font-size="10.00">cm_brushRef_s</text>
</a>
</g>
</g>
<!-- Node25&#45;&gt;Node24 -->
<g id="edge45" class="edge"><title>Node25&#45;&gt;Node24</title>
<path fill="none" stroke="#9a32cd" stroke-dasharray="5,2" d="M617.612,-269.249C642.192,-269.249 670.844,-269.249 692.368,-269.249"/>
<polygon fill="#9a32cd" stroke="#9a32cd" points="617.36,-265.749 607.36,-269.249 617.36,-272.749 617.36,-265.749"/>
<text text-anchor="middle" x="652" y="-272.249" font-family="Arial" font-size="10.00"> brushes</text>
</g>
<!-- Node25&#45;&gt;Node25 -->
<g id="edge50" class="edge"><title>Node25&#45;&gt;Node25</title>
<path fill="none" stroke="#9a32cd" stroke-dasharray="5,2" d="M552.109,-289.015C553.122,-293.745 557.419,-297.249 565,-297.249 577.441,-297.249 581.038,-287.814 575.789,-279.006"/>
<polygon fill="#9a32cd" stroke="#9a32cd" points="555.581,-289.512 554.211,-279.006 548.73,-288.073 555.581,-289.512"/>
<text text-anchor="middle" x="565" y="-300.249" font-family="Arial" font-size="10.00"> next</text>
</g>
<!-- Node28 -->
<g id="node28" class="node"><title>Node28</title>
<g id="a_node28"><a xlink:href="structcm__brush_ref_block__s.html" target="_top" xlink:title="cm_brushRefBlock_s">
<polygon fill="white" stroke="black" points="783.5,-131.749 783.5,-150.749 892.5,-150.749 892.5,-131.749 783.5,-131.749"/>
<text text-anchor="middle" x="838" y="-138.749" font-family="Arial" font-size="10.00">cm_brushRefBlock_s</text>
</a>
</g>
</g>
<!-- Node25&#45;&gt;Node28 -->
<g id="edge54" class="edge"><title>Node25&#45;&gt;Node28</title>
<path fill="none" stroke="#9a32cd" stroke-dasharray="5,2" d="M595.66,-255.24C651.168,-229.022 769.403,-173.177 816.764,-150.807"/>
<polygon fill="#9a32cd" stroke="#9a32cd" points="593.916,-252.193 586.369,-259.628 596.906,-258.522 593.916,-252.193"/>
<text text-anchor="middle" x="652" y="-239.249" font-family="Arial" font-size="10.00"> nextRef</text>
</g>
<!-- Node26&#45;&gt;Node25 -->
<g id="edge46" class="edge"><title>Node26&#45;&gt;Node25</title>
<path fill="none" stroke="#9a32cd" stroke-dasharray="5,2" d="M469.346,-274.016C486.522,-273.151 506.066,-272.166 522.918,-271.318"/>
<polygon fill="#9a32cd" stroke="#9a32cd" points="468.815,-270.538 459.003,-274.537 469.167,-277.529 468.815,-270.538"/>
<text text-anchor="middle" x="495" y="-275.249" font-family="Arial" font-size="10.00"> b</text>
</g>
<!-- Node27 -->
<g id="node27" class="node"><title>Node27</title>
<g id="a_node27"><a xlink:href="structcm__brush_block__s.html" target="_top" xlink:title="cm_brushBlock_s">
<polygon fill="white" stroke="black" points="920.5,-224.749 920.5,-243.749 1015.5,-243.749 1015.5,-224.749 920.5,-224.749"/>
<text text-anchor="middle" x="968" y="-231.749" font-family="Arial" font-size="10.00">cm_brushBlock_s</text>
</a>
</g>
</g>
<!-- Node27&#45;&gt;Node16 -->
<g id="edge51" class="edge"><title>Node27&#45;&gt;Node16</title>
<path fill="none" stroke="#9a32cd" stroke-dasharray="5,2" d="M1025.98,-228.368C1069.66,-226.931 1129.19,-231.989 1170,-263.249 1207.66,-292.092 1218.95,-353.073 1221.99,-376.656"/>
<polygon fill="#9a32cd" stroke="#9a32cd" points="1025.62,-224.88 1015.79,-228.829 1025.94,-231.873 1025.62,-224.88"/>
<text text-anchor="middle" x="1104" y="-266.249" font-family="Arial" font-size="10.00"> brushBlock</text>
</g>
<!-- Node28&#45;&gt;Node16 -->
<g id="edge52" class="edge"><title>Node28&#45;&gt;Node16</title>
<path fill="none" stroke="#9a32cd" stroke-dasharray="5,2" d="M897.284,-130.246C970.292,-120.066 1094.9,-115.127 1170,-181.249 1200.28,-207.909 1217.6,-339.562 1221.92,-376.561"/>
<polygon fill="#9a32cd" stroke="#9a32cd" points="896.719,-126.791 887.336,-131.71 897.739,-133.717 896.719,-126.791"/>
<text text-anchor="middle" x="968" y="-130.249" font-family="Arial" font-size="10.00"> brushRefBlocks</text>
</g>
<!-- Node28&#45;&gt;Node28 -->
<g id="edge53" class="edge"><title>Node28&#45;&gt;Node28</title>
<path fill="none" stroke="#9a32cd" stroke-dasharray="5,2" d="M817.26,-160.649C818.645,-165.564 825.559,-169.249 838,-169.249 857.906,-169.249 863.66,-159.814 855.262,-151.006"/>
<polygon fill="#9a32cd" stroke="#9a32cd" points="820.638,-161.6 820.738,-151.006 814.053,-159.226 820.638,-161.6"/>
<text text-anchor="middle" x="838" y="-172.249" font-family="Arial" font-size="10.00"> next</text>
</g>
<!-- Node29&#45;&gt;Node16 -->
<g id="edge55" class="edge"><title>Node29&#45;&gt;Node16</title>
<path fill="none" stroke="#9a32cd" stroke-dasharray="5,2" d="M1011.89,-459.525C1062.37,-455.795 1142.79,-448.056 1170,-435.249 1189.28,-426.178 1206.32,-407.546 1215.6,-396.052"/>
<polygon fill="#9a32cd" stroke="#9a32cd" points="1011.33,-456.057 1001.6,-460.261 1011.82,-463.039 1011.33,-456.057"/>
<text text-anchor="middle" x="1104" y="-460.249" font-family="Arial" font-size="10.00"> edges</text>
</g>
</g>
</svg>
        <g id="navigator" transform="translate(0 0)" fill="#404254">
                <rect fill="#f2f5e9" fill-opacity="0.5" stroke="#606060" stroke-width=".5" x="0" y="0" width="60" height="60"/>
                <use id="zoomplus" xlink:href="#zoomPlus" x="17" y="9" onmousedown="handleZoom(evt,'in')"/>
                <use id="zoomminus" xlink:href="#zoomMin" x="42" y="9" onmousedown="handleZoom(evt,'out')"/>
                <use id="reset" xlink:href="#resetDef" x="30" y="36" onmousedown="handleReset()"/>
                <g id="arrowUp" xlink:href="#dirArrow" transform="translate(30 24)" onmousedown="handlePan(0,-1)">
                  <use xlink:href="#rim" fill="#404040">
                        <set attributeName="fill" to="#808080" begin="arrowUp.mouseover" end="arrowUp.mouseout"/>
                  </use>
                  <path fill="none" stroke="white" stroke-width="1.5" d="M0,-3.0v7 M-2.5,-0.5L0,-3.0L2.5,-0.5"/>
                </g>
                <g id="arrowRight" xlink:href="#dirArrow" transform="rotate(90) translate(36 -43)" onmousedown="handlePan(1,0)">
                  <use xlink:href="#rim" fill="#404040">
                        <set attributeName="fill" to="#808080" begin="arrowRight.mouseover" end="arrowRight.mouseout"/>
                  </use>
                  <path fill="none" stroke="white" stroke-width="1.5" d="M0,-3.0v7 M-2.5,-0.5L0,-3.0L2.5,-0.5"/>
                </g>
                <g id="arrowDown" xlink:href="#dirArrow" transform="rotate(180) translate(-30 -48)" onmousedown="handlePan(0,1)">
                  <use xlink:href="#rim" fill="#404040">
                        <set attributeName="fill" to="#808080" begin="arrowDown.mouseover" end="arrowDown.mouseout"/>
                  </use>
                  <path fill="none" stroke="white" stroke-width="1.5" d="M0,-3.0v7 M-2.5,-0.5L0,-3.0L2.5,-0.5"/>
                </g>
                <g id="arrowLeft" xlink:href="#dirArrow" transform="rotate(270) translate(-36 17)" onmousedown="handlePan(-1,0)">
                  <use xlink:href="#rim" fill="#404040">
                        <set attributeName="fill" to="#808080" begin="arrowLeft.mouseover" end="arrowLeft.mouseout"/>
                  </use>
                  <path fill="none" stroke="white" stroke-width="1.5" d="M0,-3.0v7 M-2.5,-0.5L0,-3.0L2.5,-0.5"/>
                </g>
        </g>
        <svg viewBox="0 0 15 15" width="100%" height="30px" preserveAspectRatio="xMaxYMin meet">
         <g id="arrow_out" transform="scale(0.3 0.3)">
          <a xlink:href="structcm__trace_work__s__coll__graph_org.svg" target="_base">
           <rect id="button" ry="5" rx="5" y="6" x="6" height="38" width="38"
                fill="#f2f5e9" fill-opacity="0.5" stroke="#606060" stroke-width="1.0"/>
           <path id="arrow"
             d="M 11.500037,31.436501 C 11.940474,20.09759 22.043105,11.32322 32.158766,21.979434 L 37.068811,17.246167 C 37.068811,17.246167 37.088388,32 37.088388,32 L 22.160133,31.978069 C 22.160133,31.978069 26.997745,27.140456 26.997745,27.140456 C 18.528582,18.264221 13.291696,25.230495 11.500037,31.436501 z"
             style="fill:#404040;"/>
          </a>
         </g>
        </svg>
</svg>
