<?xml version="1.0" encoding="UTF-8" standalone="no"?>
<!DOCTYPE svg PUBLIC "-//W3C//DTD SVG 1.1//EN"
 "http://www.w3.org/Graphics/SVG/1.1/DTD/svg11.dtd">
<!-- Generated by graphviz version 2.34.0 (20130907.0111)
 -->
<!-- Title: st_lwVMapPt Pages: 1 -->
<svg width="116pt" height="98pt"
 viewBox="0.00 0.00 116.00 98.00" xmlns="http://www.w3.org/2000/svg" xmlns:xlink="http://www.w3.org/1999/xlink">
<g id="graph0" class="graph" transform="scale(1 1) rotate(0) translate(4 94)">
<title>st_lwVMapPt</title>
<polygon fill="white" stroke="white" points="-4,4 -4,-94 112,-94 112,4 -4,4"/>
<!-- Node1 -->
<g id="node1" class="node"><title>Node1</title>
<polygon fill="#bfbfbf" stroke="black" points="0,-0.5 0,-19.5 74,-19.5 74,-0.5 0,-0.5"/>
<text text-anchor="middle" x="37" y="-7.5" font-family="Arial" font-size="10.00">st_lwVMapPt</text>
</g>
<!-- Node2 -->
<g id="node2" class="node"><title>Node2</title>
<g id="a_node2"><a xlink:href="structst__lw_v_map.html" target="_top" xlink:title="st_lwVMap">
<polygon fill="white" stroke="black" points="4.5,-69.5 4.5,-88.5 69.5,-88.5 69.5,-69.5 4.5,-69.5"/>
<text text-anchor="middle" x="37" y="-76.5" font-family="Arial" font-size="10.00">st_lwVMap</text>
</a>
</g>
</g>
<!-- Node2&#45;&gt;Node1 -->
<g id="edge1" class="edge"><title>Node2&#45;&gt;Node1</title>
<path fill="none" stroke="#9a32cd" stroke-dasharray="5,2" d="M37,-59.0183C37,-46.034 37,-29.4419 37,-19.5494"/>
<polygon fill="#9a32cd" stroke="#9a32cd" points="33.5001,-59.2409 37,-69.2409 40.5001,-59.241 33.5001,-59.2409"/>
<text text-anchor="middle" x="50" y="-41.5" font-family="Arial" font-size="10.00"> vmap</text>
</g>
<!-- Node2&#45;&gt;Node2 -->
<g id="edge2" class="edge"><title>Node2&#45;&gt;Node2</title>
<path fill="none" stroke="#9a32cd" stroke-dasharray="5,2" d="M79.791,-84.2548C84.1888,-83.22 87,-81.4684 87,-79 87,-74.9492 79.4296,-72.8289 69.7005,-72.639"/>
<polygon fill="#9a32cd" stroke="#9a32cd" points="79.2595,-80.792 69.7005,-85.361 80.0224,-87.7503 79.2595,-80.792"/>
<text text-anchor="middle" x="97.5" y="-82" font-family="Arial" font-size="10.00"> prev</text>
<text text-anchor="middle" x="97.5" y="-71" font-family="Arial" font-size="10.00">next</text>
</g>
</g>
</svg>
