<?xml version="1.0" encoding="UTF-8" standalone="no"?>
<!DOCTYPE svg PUBLIC "-//W3C//DTD SVG 1.1//EN"
 "http://www.w3.org/Graphics/SVG/1.1/DTD/svg11.dtd">
<!-- Generated by graphviz version 2.34.0 (20130907.0111)
 -->
<!-- Title: contactInfo_t Pages: 1 -->
<svg width="135pt" height="232pt"
 viewBox="0.00 0.00 135.00 232.00" xmlns="http://www.w3.org/2000/svg" xmlns:xlink="http://www.w3.org/1999/xlink">
<g id="graph0" class="graph" transform="scale(1 1) rotate(0) translate(4 228)">
<title>contactInfo_t</title>
<polygon fill="white" stroke="white" points="-4,4 -4,-228 131,-228 131,4 -4,4"/>
<!-- Node1 -->
<g id="node1" class="node"><title>Node1</title>
<polygon fill="#bfbfbf" stroke="black" points="18,-0.5 18,-19.5 90,-19.5 90,-0.5 18,-0.5"/>
<text text-anchor="middle" x="54" y="-7.5" font-family="Arial" font-size="10.00">contactInfo_t</text>
</g>
<!-- Node2 -->
<g id="node2" class="node"><title>Node2</title>
<g id="a_node2"><a xlink:href="classid_vec3.html" target="_top" xlink:title="idVec3">
<polygon fill="white" stroke="black" points="-0.5,-78.5 -0.5,-97.5 46.5,-97.5 46.5,-78.5 -0.5,-78.5"/>
<text text-anchor="middle" x="23" y="-85.5" font-family="Arial" font-size="10.00">idVec3</text>
</a>
</g>
</g>
<!-- Node2&#45;&gt;Node1 -->
<g id="edge1" class="edge"><title>Node2&#45;&gt;Node1</title>
<path fill="none" stroke="#9a32cd" stroke-dasharray="5,2" d="M23.7074,-68.0204C24.6429,-58.6327 26.6737,-47.3419 31,-38 34.2087,-31.0714 39.7052,-24.5202 44.5204,-19.6063"/>
<polygon fill="#9a32cd" stroke="#9a32cd" points="20.1973,-68.0592 23.0288,-78.2686 27.182,-68.5218 20.1973,-68.0592"/>
<text text-anchor="middle" x="47.5" y="-52" font-family="Arial" font-size="10.00"> normal</text>
<text text-anchor="middle" x="47.5" y="-41" font-family="Arial" font-size="10.00">point</text>
</g>
<!-- Node3 -->
<g id="node3" class="node"><title>Node3</title>
<g id="a_node3"><a xlink:href="classid_material.html" target="_top" xlink:title="idMaterial">
<polygon fill="white" stroke="black" points="64.5,-78.5 64.5,-97.5 123.5,-97.5 123.5,-78.5 64.5,-78.5"/>
<text text-anchor="middle" x="94" y="-85.5" font-family="Arial" font-size="10.00">idMaterial</text>
</a>
</g>
</g>
<!-- Node3&#45;&gt;Node1 -->
<g id="edge2" class="edge"><title>Node3&#45;&gt;Node1</title>
<path fill="none" stroke="#9a32cd" stroke-dasharray="5,2" d="M84.5903,-69.1216C76.3841,-53.5297 64.8348,-31.5862 58.535,-19.6165"/>
<polygon fill="#9a32cd" stroke="#9a32cd" points="81.6568,-71.0628 89.4115,-78.2818 87.8512,-67.8025 81.6568,-71.0628"/>
<text text-anchor="middle" x="97" y="-46.5" font-family="Arial" font-size="10.00"> material</text>
</g>
<!-- Node4 -->
<g id="node4" class="node"><title>Node4</title>
<g id="a_node4"><a xlink:href="classid_decl.html" target="_top" xlink:title="idDecl">
<polygon fill="white" stroke="black" points="72,-136.5 72,-155.5 116,-155.5 116,-136.5 72,-136.5"/>
<text text-anchor="middle" x="94" y="-143.5" font-family="Arial" font-size="10.00">idDecl</text>
</a>
</g>
</g>
<!-- Node4&#45;&gt;Node3 -->
<g id="edge3" class="edge"><title>Node4&#45;&gt;Node3</title>
<path fill="none" stroke="midnightblue" d="M94,-125.953C94,-116.287 94,-105.031 94,-97.5052"/>
<polygon fill="midnightblue" stroke="midnightblue" points="90.5001,-126.25 94,-136.25 97.5001,-126.25 90.5001,-126.25"/>
</g>
<!-- Node5 -->
<g id="node5" class="node"><title>Node5</title>
<g id="a_node5"><a xlink:href="classid_decl_base.html" target="_top" xlink:title="idDeclBase">
<polygon fill="white" stroke="black" points="61,-204.5 61,-223.5 127,-223.5 127,-204.5 61,-204.5"/>
<text text-anchor="middle" x="94" y="-211.5" font-family="Arial" font-size="10.00">idDeclBase</text>
</a>
</g>
</g>
<!-- Node5&#45;&gt;Node4 -->
<g id="edge4" class="edge"><title>Node5&#45;&gt;Node4</title>
<path fill="none" stroke="#9a32cd" stroke-dasharray="5,2" d="M94,-194.041C94,-181.472 94,-165.563 94,-155.841"/>
<polygon fill="#9a32cd" stroke="#9a32cd" points="90.5001,-194.372 94,-204.372 97.5001,-194.372 90.5001,-194.372"/>
<text text-anchor="middle" x="106.5" y="-177.5" font-family="Arial" font-size="10.00"> base</text>
</g>
</g>
</svg>
