<?xml version="1.0" encoding="UTF-8" standalone="no"?>
<!DOCTYPE svg PUBLIC "-//W3C//DTD SVG 1.1//EN"
 "http://www.w3.org/Graphics/SVG/1.1/DTD/svg11.dtd">
<!-- Generated by graphviz version 2.34.0 (20130907.0111)
 -->
<!-- Title: st_lwEnvelope Pages: 1 -->
<svg width="226pt" height="100pt"
 viewBox="0.00 0.00 226.00 100.00" xmlns="http://www.w3.org/2000/svg" xmlns:xlink="http://www.w3.org/1999/xlink">
<g id="graph0" class="graph" transform="scale(1 1) rotate(0) translate(4 96)">
<title>st_lwEnvelope</title>
<polygon fill="white" stroke="white" points="-4,4 -4,-96 222,-96 222,4 -4,4"/>
<!-- Node1 -->
<g id="node1" class="node"><title>Node1</title>
<polygon fill="#bfbfbf" stroke="black" points="48,-1.5 48,-20.5 126,-20.5 126,-1.5 48,-1.5"/>
<text text-anchor="middle" x="87" y="-8.5" font-family="Arial" font-size="10.00">st_lwEnvelope</text>
</g>
<!-- Node1&#45;&gt;Node1 -->
<g id="edge3" class="edge"><title>Node1&#45;&gt;Node1</title>
<path fill="none" stroke="#9a32cd" stroke-dasharray="5,2" d="M136.275,-16.1493C141.005,-15.1029 144,-13.3865 144,-11 144,-7.18164 136.332,-5.07856 126.162,-4.69076"/>
<polygon fill="#9a32cd" stroke="#9a32cd" points="135.698,-12.6925 126.162,-17.3092 136.496,-19.6469 135.698,-12.6925"/>
<text text-anchor="middle" x="154.5" y="-14" font-family="Arial" font-size="10.00"> prev</text>
<text text-anchor="middle" x="154.5" y="-3" font-family="Arial" font-size="10.00">next</text>
</g>
<!-- Node2 -->
<g id="node2" class="node"><title>Node2</title>
<g id="a_node2"><a xlink:href="structst__lw_key.html" target="_top" xlink:title="st_lwKey">
<polygon fill="white" stroke="black" points="0,-71.5 0,-90.5 56,-90.5 56,-71.5 0,-71.5"/>
<text text-anchor="middle" x="28" y="-78.5" font-family="Arial" font-size="10.00">st_lwKey</text>
</a>
</g>
</g>
<!-- Node2&#45;&gt;Node1 -->
<g id="edge1" class="edge"><title>Node2&#45;&gt;Node1</title>
<path fill="none" stroke="#9a32cd" stroke-dasharray="5,2" d="M42.0769,-63.7758C53.7819,-50.2853 69.9939,-31.6002 79.4019,-20.7571"/>
<polygon fill="#9a32cd" stroke="#9a32cd" points="39.3823,-61.5408 35.4724,-71.3878 44.6696,-66.1283 39.3823,-61.5408"/>
<text text-anchor="middle" x="71.5" y="-43.5" font-family="Arial" font-size="10.00"> key</text>
</g>
<!-- Node2&#45;&gt;Node2 -->
<g id="edge2" class="edge"><title>Node2&#45;&gt;Node2</title>
<path fill="none" stroke="#9a32cd" stroke-dasharray="5,2" d="M66.5533,-86.4491C71.0634,-85.4467 74,-83.6303 74,-81 74,-76.6836 66.0919,-74.5591 56.2994,-74.6266"/>
<polygon fill="#9a32cd" stroke="#9a32cd" points="65.9447,-82.9897 56.2994,-87.3734 66.5733,-89.9614 65.9447,-82.9897"/>
<text text-anchor="middle" x="84.5" y="-84" font-family="Arial" font-size="10.00"> prev</text>
<text text-anchor="middle" x="84.5" y="-73" font-family="Arial" font-size="10.00">next</text>
</g>
<!-- Node3 -->
<g id="node3" class="node"><title>Node3</title>
<g id="a_node3"><a xlink:href="structst__lw_plugin.html" target="_top" xlink:title="st_lwPlugin">
<polygon fill="white" stroke="black" points="113,-71.5 113,-90.5 179,-90.5 179,-71.5 113,-71.5"/>
<text text-anchor="middle" x="146" y="-78.5" font-family="Arial" font-size="10.00">st_lwPlugin</text>
</a>
</g>
</g>
<!-- Node3&#45;&gt;Node1 -->
<g id="edge4" class="edge"><title>Node3&#45;&gt;Node1</title>
<path fill="none" stroke="#9a32cd" stroke-dasharray="5,2" d="M131.923,-63.7758C120.218,-50.2853 104.006,-31.6002 94.5981,-20.7571"/>
<polygon fill="#9a32cd" stroke="#9a32cd" points="129.33,-66.1283 138.528,-71.3878 134.618,-61.5408 129.33,-66.1283"/>
<text text-anchor="middle" x="133.5" y="-43.5" font-family="Arial" font-size="10.00"> cfilter</text>
</g>
<!-- Node3&#45;&gt;Node3 -->
<g id="edge5" class="edge"><title>Node3&#45;&gt;Node3</title>
<path fill="none" stroke="#9a32cd" stroke-dasharray="5,2" d="M189.647,-86.2548C194.133,-85.22 197,-83.4684 197,-81 197,-76.9492 189.278,-74.8289 179.354,-74.639"/>
<polygon fill="#9a32cd" stroke="#9a32cd" points="188.923,-82.8123 179.354,-87.361 189.671,-89.7722 188.923,-82.8123"/>
<text text-anchor="middle" x="207.5" y="-84" font-family="Arial" font-size="10.00"> prev</text>
<text text-anchor="middle" x="207.5" y="-73" font-family="Arial" font-size="10.00">next</text>
</g>
</g>
</svg>
