<?xml version="1.0" encoding="UTF-8" standalone="no"?>
<!DOCTYPE svg PUBLIC "-//W3C//DTD SVG 1.1//EN"
 "http://www.w3.org/Graphics/SVG/1.1/DTD/svg11.dtd">
<!-- Generated by graphviz version 2.34.0 (20130907.0111)
 -->
<!-- Title: renderView_s Pages: 1 -->
<svg width="211pt" height="222pt"
 viewBox="0.00 0.00 211.00 222.00" xmlns="http://www.w3.org/2000/svg" xmlns:xlink="http://www.w3.org/1999/xlink">
<g id="graph0" class="graph" transform="scale(1 1) rotate(0) translate(4 218)">
<title>renderView_s</title>
<polygon fill="white" stroke="white" points="-4,4 -4,-218 207,-218 207,4 -4,4"/>
<!-- Node1 -->
<g id="node1" class="node"><title>Node1</title>
<polygon fill="#bfbfbf" stroke="black" points="50.5,-0.5 50.5,-19.5 125.5,-19.5 125.5,-0.5 50.5,-0.5"/>
<text text-anchor="middle" x="88" y="-7.5" font-family="Arial" font-size="10.00">renderView_s</text>
</g>
<!-- Node2 -->
<g id="node2" class="node"><title>Node2</title>
<g id="a_node2"><a xlink:href="classid_mat3.html" target="_top" xlink:title="idMat3">
<polygon fill="white" stroke="black" points="0,-68.5 0,-87.5 46,-87.5 46,-68.5 0,-68.5"/>
<text text-anchor="middle" x="23" y="-75.5" font-family="Arial" font-size="10.00">idMat3</text>
</a>
</g>
</g>
<!-- Node2&#45;&gt;Node1 -->
<g id="edge1" class="edge"><title>Node2&#45;&gt;Node1</title>
<path fill="none" stroke="#9a32cd" stroke-dasharray="5,2" d="M30.2689,-58.9205C33.7094,-51.8474 38.3218,-44.0081 44,-38 51.141,-30.4441 60.8447,-24.192 69.3223,-19.6136"/>
<polygon fill="#9a32cd" stroke="#9a32cd" points="26.9071,-57.8702 26.0791,-68.4327 33.3132,-60.6919 26.9071,-57.8702"/>
<text text-anchor="middle" x="64" y="-41.5" font-family="Arial" font-size="10.00"> viewaxis</text>
</g>
<!-- Node3 -->
<g id="node3" class="node"><title>Node3</title>
<g id="a_node3"><a xlink:href="classid_vec3.html" target="_top" xlink:title="idVec3">
<polygon fill="white" stroke="black" points="64.5,-68.5 64.5,-87.5 111.5,-87.5 111.5,-68.5 64.5,-68.5"/>
<text text-anchor="middle" x="88" y="-75.5" font-family="Arial" font-size="10.00">idVec3</text>
</a>
</g>
</g>
<!-- Node3&#45;&gt;Node1 -->
<g id="edge2" class="edge"><title>Node3&#45;&gt;Node1</title>
<path fill="none" stroke="#9a32cd" stroke-dasharray="5,2" d="M88,-58.0413C88,-45.4724 88,-29.5631 88,-19.8411"/>
<polygon fill="#9a32cd" stroke="#9a32cd" points="84.5001,-58.3716 88,-68.3717 91.5001,-58.3717 84.5001,-58.3716"/>
<text text-anchor="middle" x="105.5" y="-41.5" font-family="Arial" font-size="10.00"> vieworg</text>
</g>
<!-- Node4 -->
<g id="node4" class="node"><title>Node4</title>
<g id="a_node4"><a xlink:href="classid_material.html" target="_top" xlink:title="idMaterial">
<polygon fill="white" stroke="black" points="129.5,-68.5 129.5,-87.5 188.5,-87.5 188.5,-68.5 129.5,-68.5"/>
<text text-anchor="middle" x="159" y="-75.5" font-family="Arial" font-size="10.00">idMaterial</text>
</a>
</g>
</g>
<!-- Node4&#45;&gt;Node1 -->
<g id="edge3" class="edge"><title>Node4&#45;&gt;Node1</title>
<path fill="none" stroke="#9a32cd" stroke-dasharray="5,2" d="M146.726,-59.9971C141.126,-52.8093 134.155,-44.5938 127,-38 119.491,-31.0798 110.106,-24.5288 102.424,-19.613"/>
<polygon fill="#9a32cd" stroke="#9a32cd" points="144.194,-62.4549 152.996,-68.3528 149.793,-58.2535 144.194,-62.4549"/>
<text text-anchor="middle" x="171" y="-41.5" font-family="Arial" font-size="10.00"> globalMaterial</text>
</g>
<!-- Node5 -->
<g id="node5" class="node"><title>Node5</title>
<g id="a_node5"><a xlink:href="classid_decl.html" target="_top" xlink:title="idDecl">
<polygon fill="white" stroke="black" points="137,-126.5 137,-145.5 181,-145.5 181,-126.5 137,-126.5"/>
<text text-anchor="middle" x="159" y="-133.5" font-family="Arial" font-size="10.00">idDecl</text>
</a>
</g>
</g>
<!-- Node5&#45;&gt;Node4 -->
<g id="edge4" class="edge"><title>Node5&#45;&gt;Node4</title>
<path fill="none" stroke="midnightblue" d="M159,-115.953C159,-106.287 159,-95.0312 159,-87.5052"/>
<polygon fill="midnightblue" stroke="midnightblue" points="155.5,-116.25 159,-126.25 162.5,-116.25 155.5,-116.25"/>
</g>
<!-- Node6 -->
<g id="node6" class="node"><title>Node6</title>
<g id="a_node6"><a xlink:href="classid_decl_base.html" target="_top" xlink:title="idDeclBase">
<polygon fill="white" stroke="black" points="126,-194.5 126,-213.5 192,-213.5 192,-194.5 126,-194.5"/>
<text text-anchor="middle" x="159" y="-201.5" font-family="Arial" font-size="10.00">idDeclBase</text>
</a>
</g>
</g>
<!-- Node6&#45;&gt;Node5 -->
<g id="edge5" class="edge"><title>Node6&#45;&gt;Node5</title>
<path fill="none" stroke="#9a32cd" stroke-dasharray="5,2" d="M159,-184.041C159,-171.472 159,-155.563 159,-145.841"/>
<polygon fill="#9a32cd" stroke="#9a32cd" points="155.5,-184.372 159,-194.372 162.5,-184.372 155.5,-184.372"/>
<text text-anchor="middle" x="171.5" y="-167.5" font-family="Arial" font-size="10.00"> base</text>
</g>
</g>
</svg>
