<?xml version="1.0" encoding="UTF-8" standalone="no"?>
<!DOCTYPE svg PUBLIC "-//W3C//DTD SVG 1.1//EN"
 "http://www.w3.org/Graphics/SVG/1.1/DTD/svg11.dtd">
<!-- Generated by graphviz version 2.34.0 (20130907.0111)
 -->
<!-- Title: gameImport_t Pages: 1 -->
<!--zoomable 497 -->
<svg id="main" version="1.1" xmlns="http://www.w3.org/2000/svg" xmlns:xlink="http://www.w3.org/1999/xlink" xml:space="preserve" onload="init(evt)">
<style type="text/css"><![CDATA[
.edge:hover path { stroke: red; }
.edge:hover polygon { stroke: red; fill: red; }
]]></style>
<script type="text/javascript"><![CDATA[
var edges = document.getElementsByTagName('g');
if (edges && edges.length) {
  for (var i=0;i<edges.length;i++) {
    if (edges[i].id.substr(0,4)=='edge') {
      edges[i].setAttribute('class','edge');
    }
  }
}
]]></script>
        <defs>
                <circle id="rim" cx="0" cy="0" r="7"/>
                <circle id="rim2" cx="0" cy="0" r="3.5"/>
                <g id="zoomPlus">
                        <use xlink:href="#rim" fill="#404040">
                                <set attributeName="fill" to="#808080" begin="zoomplus.mouseover" end="zoomplus.mouseout"/>
                        </use>
                        <path d="M-4,0h8M0,-4v8" fill="none" stroke="white" stroke-width="1.5" pointer-events="none"/>
                </g>
                <g id="zoomMin">
                        <use xlink:href="#rim" fill="#404040">
                                <set attributeName="fill" to="#808080" begin="zoomminus.mouseover" end="zoomminus.mouseout"/>
                        </use>
                        <path d="M-4,0h8" fill="none" stroke="white" stroke-width="1.5" pointer-events="none"/>
                </g>
                <g id="dirArrow">
                        <path fill="none" stroke="white" stroke-width="1.5" d="M0,-3.0v7 M-2.5,-0.5L0,-3.0L2.5,-0.5"/>
                </g>
               <g id="resetDef">
                       <use xlink:href="#rim2" fill="#404040">
                               <set attributeName="fill" to="#808080" begin="reset.mouseover" end="reset.mouseout"/>
                       </use>
               </g>
        </defs>

<script type="text/javascript">
var viewWidth = 350;
var viewHeight = 497;
var sectionId = 'dynsection-0';
</script>
<script xlink:href="svgpan.js"/>
<svg id="graph" class="graph">
<g id="viewport">
<title>gameImport_t</title>
<polygon fill="white" stroke="white" points="-4,4 -4,-493.306 346,-493.306 346,4 -4,4"/>
<!-- Node1 -->
<g id="node1" class="node"><title>Node1</title>
<polygon fill="#bfbfbf" stroke="black" points="266,-234.806 266,-253.806 342,-253.806 342,-234.806 266,-234.806"/>
<text text-anchor="middle" x="304" y="-241.806" font-family="Arial" font-size="10.00">gameImport_t</text>
</g>
<!-- Node2 -->
<g id="node2" class="node"><title>Node2</title>
<g id="a_node2"><a xlink:href="classid_c_var_system.html" target="_top" xlink:title="idCVarSystem">
<polygon fill="white" stroke="black" points="23,-462.806 23,-481.806 103,-481.806 103,-462.806 23,-462.806"/>
<text text-anchor="middle" x="63" y="-469.806" font-family="Arial" font-size="10.00">idCVarSystem</text>
</a>
</g>
</g>
<!-- Node2&#45;&gt;Node1 -->
<g id="edge1" class="edge"><title>Node2&#45;&gt;Node1</title>
<path fill="none" stroke="#9a32cd" stroke-dasharray="5,2" d="M113.271,-478.73C154.249,-481.198 211.565,-477.566 248,-445.306 277.66,-419.044 296.824,-290.618 301.744,-254.043"/>
<polygon fill="#9a32cd" stroke="#9a32cd" points="113.46,-475.234 103.228,-477.984 112.941,-482.215 113.46,-475.234"/>
<text text-anchor="middle" x="196" y="-481.306" font-family="Arial" font-size="10.00"> cvarSystem</text>
</g>
<!-- Node3 -->
<g id="node3" class="node"><title>Node3</title>
<g id="a_node3"><a xlink:href="classid_a_a_s_file_manager.html" target="_top" xlink:title="idAASFileManager">
<polygon fill="white" stroke="black" points="14,-424.806 14,-443.806 112,-443.806 112,-424.806 14,-424.806"/>
<text text-anchor="middle" x="63" y="-431.806" font-family="Arial" font-size="10.00">idAASFileManager</text>
</a>
</g>
</g>
<!-- Node3&#45;&gt;Node1 -->
<g id="edge2" class="edge"><title>Node3&#45;&gt;Node1</title>
<path fill="none" stroke="#9a32cd" stroke-dasharray="5,2" d="M122.088,-432.629C168.681,-430.123 229.282,-423.874 248,-408.306 296.716,-367.787 302.49,-282.65 303.015,-253.971"/>
<polygon fill="#9a32cd" stroke="#9a32cd" points="121.895,-429.134 112.079,-433.123 122.24,-436.126 121.895,-429.134"/>
<text text-anchor="middle" x="196" y="-433.306" font-family="Arial" font-size="10.00"> AASFileManager</text>
</g>
<!-- Node4 -->
<g id="node4" class="node"><title>Node4</title>
<g id="a_node4"><a xlink:href="classid_render_system.html" target="_top" xlink:title="idRenderSystem">
<polygon fill="white" stroke="black" points="18.5,-386.806 18.5,-405.806 107.5,-405.806 107.5,-386.806 18.5,-386.806"/>
<text text-anchor="middle" x="63" y="-393.806" font-family="Arial" font-size="10.00">idRenderSystem</text>
</a>
</g>
</g>
<!-- Node4&#45;&gt;Node1 -->
<g id="edge3" class="edge"><title>Node4&#45;&gt;Node1</title>
<path fill="none" stroke="#9a32cd" stroke-dasharray="5,2" d="M117.91,-395.736C164.726,-394.203 228.057,-389.303 248,-374.306 288.152,-344.112 299.267,-278.913 302.102,-254.134"/>
<polygon fill="#9a32cd" stroke="#9a32cd" points="117.791,-392.238 107.895,-396.022 117.991,-399.235 117.791,-392.238"/>
<text text-anchor="middle" x="196" y="-396.306" font-family="Arial" font-size="10.00"> renderSystem</text>
</g>
<!-- Node5 -->
<g id="node5" class="node"><title>Node5</title>
<g id="a_node5"><a xlink:href="classid_file_system.html" target="_top" xlink:title="idFileSystem">
<polygon fill="white" stroke="black" points="26,-348.806 26,-367.806 100,-367.806 100,-348.806 26,-348.806"/>
<text text-anchor="middle" x="63" y="-355.806" font-family="Arial" font-size="10.00">idFileSystem</text>
</a>
</g>
</g>
<!-- Node5&#45;&gt;Node1 -->
<g id="edge4" class="edge"><title>Node5&#45;&gt;Node1</title>
<path fill="none" stroke="#9a32cd" stroke-dasharray="5,2" d="M110.459,-361.456C150.077,-361.892 206.966,-356.98 248,-330.306 276.678,-311.664 293.376,-272.25 299.857,-253.98"/>
<polygon fill="#9a32cd" stroke="#9a32cd" points="110.353,-357.952 100.276,-361.222 110.193,-364.951 110.353,-357.952"/>
<text text-anchor="middle" x="196" y="-362.306" font-family="Arial" font-size="10.00"> fileSystem</text>
</g>
<!-- Node6 -->
<g id="node6" class="node"><title>Node6</title>
<g id="a_node6"><a xlink:href="classid_network_system.html" target="_top" xlink:title="idNetworkSystem">
<polygon fill="white" stroke="black" points="16.5,-310.806 16.5,-329.806 109.5,-329.806 109.5,-310.806 16.5,-310.806"/>
<text text-anchor="middle" x="63" y="-317.806" font-family="Arial" font-size="10.00">idNetworkSystem</text>
</a>
</g>
</g>
<!-- Node6&#45;&gt;Node1 -->
<g id="edge5" class="edge"><title>Node6&#45;&gt;Node1</title>
<path fill="none" stroke="#9a32cd" stroke-dasharray="5,2" d="M120.029,-318.342C157.657,-315.258 207.559,-307.673 248,-289.306 266.647,-280.837 284.237,-264.43 294.3,-253.941"/>
<polygon fill="#9a32cd" stroke="#9a32cd" points="119.475,-314.873 109.759,-319.098 119.989,-321.855 119.475,-314.873"/>
<text text-anchor="middle" x="196" y="-318.306" font-family="Arial" font-size="10.00"> networkSystem</text>
</g>
<!-- Node7 -->
<g id="node7" class="node"><title>Node7</title>
<g id="a_node7"><a xlink:href="classid_user_interface_manager.html" target="_top" xlink:title="idUserInterfaceManager">
<polygon fill="white" stroke="black" points="3.5,-272.806 3.5,-291.806 122.5,-291.806 122.5,-272.806 3.5,-272.806"/>
<text text-anchor="middle" x="63" y="-279.806" font-family="Arial" font-size="10.00">idUserInterfaceManager</text>
</a>
</g>
</g>
<!-- Node7&#45;&gt;Node1 -->
<g id="edge6" class="edge"><title>Node7&#45;&gt;Node1</title>
<path fill="none" stroke="#9a32cd" stroke-dasharray="5,2" d="M132.801,-276.047C167.529,-272.296 210.202,-266.783 248,-259.306 255.476,-257.827 263.431,-255.881 270.9,-253.882"/>
<polygon fill="#9a32cd" stroke="#9a32cd" points="132.338,-272.577 122.761,-277.107 133.073,-279.538 132.338,-272.577"/>
<text text-anchor="middle" x="196" y="-277.306" font-family="Arial" font-size="10.00"> uiManager</text>
</g>
<!-- Node8 -->
<g id="node8" class="node"><title>Node8</title>
<g id="a_node8"><a xlink:href="classid_render_model_manager.html" target="_top" xlink:title="idRenderModelManager">
<polygon fill="white" stroke="black" points="3.5,-234.806 3.5,-253.806 122.5,-253.806 122.5,-234.806 3.5,-234.806"/>
<text text-anchor="middle" x="63" y="-241.806" font-family="Arial" font-size="10.00">idRenderModelManager</text>
</a>
</g>
</g>
<!-- Node8&#45;&gt;Node1 -->
<g id="edge7" class="edge"><title>Node8&#45;&gt;Node1</title>
<path fill="none" stroke="#9a32cd" stroke-dasharray="5,2" d="M132.951,-244.306C176.208,-244.306 230.298,-244.306 265.705,-244.306"/>
<polygon fill="#9a32cd" stroke="#9a32cd" points="132.772,-240.806 122.772,-244.306 132.772,-247.806 132.772,-240.806"/>
<text text-anchor="middle" x="196" y="-247.306" font-family="Arial" font-size="10.00"> renderModelManager</text>
</g>
<!-- Node9 -->
<g id="node9" class="node"><title>Node9</title>
<g id="a_node9"><a xlink:href="classid_sound_system.html" target="_top" xlink:title="idSoundSystem">
<polygon fill="white" stroke="black" points="20,-196.806 20,-215.806 106,-215.806 106,-196.806 20,-196.806"/>
<text text-anchor="middle" x="63" y="-203.806" font-family="Arial" font-size="10.00">idSoundSystem</text>
</a>
</g>
</g>
<!-- Node9&#45;&gt;Node1 -->
<g id="edge8" class="edge"><title>Node9&#45;&gt;Node1</title>
<path fill="none" stroke="#9a32cd" stroke-dasharray="5,2" d="M116.348,-210.854C153.342,-214.553 203.978,-220.597 248,-229.306 255.476,-230.785 263.431,-232.731 270.9,-234.73"/>
<polygon fill="#9a32cd" stroke="#9a32cd" points="116.585,-207.361 106.292,-209.873 115.905,-214.328 116.585,-207.361"/>
<text text-anchor="middle" x="196" y="-232.306" font-family="Arial" font-size="10.00"> soundSystem</text>
</g>
<!-- Node10 -->
<g id="node10" class="node"><title>Node10</title>
<g id="a_node10"><a xlink:href="classid_common.html" target="_top" xlink:title="idCommon">
<polygon fill="white" stroke="black" points="31.5,-158.806 31.5,-177.806 94.5,-177.806 94.5,-158.806 31.5,-158.806"/>
<text text-anchor="middle" x="63" y="-165.806" font-family="Arial" font-size="10.00">idCommon</text>
</a>
</g>
</g>
<!-- Node10&#45;&gt;Node1 -->
<g id="edge9" class="edge"><title>Node10&#45;&gt;Node1</title>
<path fill="none" stroke="#9a32cd" stroke-dasharray="5,2" d="M105.051,-168.836C143.575,-170.73 201.996,-177.259 248,-198.306 266.791,-206.903 284.338,-223.692 294.354,-234.435"/>
<polygon fill="#9a32cd" stroke="#9a32cd" points="104.873,-165.326 94.739,-168.416 104.588,-172.32 104.873,-165.326"/>
<text text-anchor="middle" x="196" y="-201.306" font-family="Arial" font-size="10.00"> common</text>
</g>
<!-- Node11 -->
<g id="node11" class="node"><title>Node11</title>
<g id="a_node11"><a xlink:href="classid_decl_manager.html" target="_top" xlink:title="idDeclManager">
<polygon fill="white" stroke="black" points="22.5,-120.806 22.5,-139.806 103.5,-139.806 103.5,-120.806 22.5,-120.806"/>
<text text-anchor="middle" x="63" y="-127.806" font-family="Arial" font-size="10.00">idDeclManager</text>
</a>
</g>
</g>
<!-- Node11&#45;&gt;Node1 -->
<g id="edge10" class="edge"><title>Node11&#45;&gt;Node1</title>
<path fill="none" stroke="#9a32cd" stroke-dasharray="5,2" d="M113.77,-126.382C153.219,-125.705 208.144,-130.405 248,-156.306 277.307,-175.352 293.781,-216.068 300.041,-234.673"/>
<polygon fill="#9a32cd" stroke="#9a32cd" points="113.48,-122.889 103.588,-126.681 113.686,-129.886 113.48,-122.889"/>
<text text-anchor="middle" x="196" y="-159.306" font-family="Arial" font-size="10.00"> declManager</text>
</g>
<!-- Node12 -->
<g id="node12" class="node"><title>Node12</title>
<g id="a_node12"><a xlink:href="classid_cmd_system.html" target="_top" xlink:title="idCmdSystem">
<polygon fill="white" stroke="black" points="24,-82.806 24,-101.806 102,-101.806 102,-82.806 24,-82.806"/>
<text text-anchor="middle" x="63" y="-89.806" font-family="Arial" font-size="10.00">idCmdSystem</text>
</a>
</g>
</g>
<!-- Node12&#45;&gt;Node1 -->
<g id="edge11" class="edge"><title>Node12&#45;&gt;Node1</title>
<path fill="none" stroke="#9a32cd" stroke-dasharray="5,2" d="M112.335,-84.9334C152.557,-81.5241 209.297,-83.3609 248,-112.306 288.956,-142.936 299.612,-209.744 302.212,-234.672"/>
<polygon fill="#9a32cd" stroke="#9a32cd" points="111.838,-81.4653 102.229,-85.9286 112.524,-88.4316 111.838,-81.4653"/>
<text text-anchor="middle" x="196" y="-115.306" font-family="Arial" font-size="10.00"> cmdSystem</text>
</g>
<!-- Node13 -->
<g id="node13" class="node"><title>Node13</title>
<g id="a_node13"><a xlink:href="classid_sys.html" target="_top" xlink:title="idSys">
<polygon fill="white" stroke="black" points="42.5,-44.806 42.5,-63.806 83.5,-63.806 83.5,-44.806 42.5,-44.806"/>
<text text-anchor="middle" x="63" y="-51.806" font-family="Arial" font-size="10.00">idSys</text>
</a>
</g>
</g>
<!-- Node13&#45;&gt;Node1 -->
<g id="edge12" class="edge"><title>Node13&#45;&gt;Node1</title>
<path fill="none" stroke="#9a32cd" stroke-dasharray="5,2" d="M93.5786,-47.3021C133.251,-39.7705 203.809,-33.1569 248,-68.306 301.365,-110.752 304.002,-204.406 303.383,-234.67"/>
<polygon fill="#9a32cd" stroke="#9a32cd" points="92.8215,-43.8844 83.7238,-49.3141 94.2218,-50.7429 92.8215,-43.8844"/>
<text text-anchor="middle" x="196" y="-71.306" font-family="Arial" font-size="10.00"> sys</text>
</g>
<!-- Node14 -->
<g id="node14" class="node"><title>Node14</title>
<g id="a_node14"><a xlink:href="classid_collision_model_manager.html" target="_top" xlink:title="idCollisionModelManager">
<polygon fill="white" stroke="black" points="0.5,-6.80598 0.5,-25.806 125.5,-25.806 125.5,-6.80598 0.5,-6.80598"/>
<text text-anchor="middle" x="63" y="-13.806" font-family="Arial" font-size="10.00">idCollisionModelManager</text>
</a>
</g>
</g>
<!-- Node14&#45;&gt;Node1 -->
<g id="edge13" class="edge"><title>Node14&#45;&gt;Node1</title>
<path fill="none" stroke="#9a32cd" stroke-dasharray="5,2" d="M110.28,-4.8799C151.146,2.27373 209.983,5.00592 248,-26.306 281.293,-53.7268 298.093,-196.269 302.064,-234.733"/>
<polygon fill="#9a32cd" stroke="#9a32cd" points="109.472,-1.47071 100.301,-6.77585 110.779,-8.34768 109.472,-1.47071"/>
<text text-anchor="middle" x="196" y="-29.306" font-family="Arial" font-size="10.00"> collisionModelManager</text>
</g>
</g>
</svg>
        <g id="navigator" transform="translate(0 0)" fill="#404254">
                <rect fill="#f2f5e9" fill-opacity="0.5" stroke="#606060" stroke-width=".5" x="0" y="0" width="60" height="60"/>
                <use id="zoomplus" xlink:href="#zoomPlus" x="17" y="9" onmousedown="handleZoom(evt,'in')"/>
                <use id="zoomminus" xlink:href="#zoomMin" x="42" y="9" onmousedown="handleZoom(evt,'out')"/>
                <use id="reset" xlink:href="#resetDef" x="30" y="36" onmousedown="handleReset()"/>
                <g id="arrowUp" xlink:href="#dirArrow" transform="translate(30 24)" onmousedown="handlePan(0,-1)">
                  <use xlink:href="#rim" fill="#404040">
                        <set attributeName="fill" to="#808080" begin="arrowUp.mouseover" end="arrowUp.mouseout"/>
                  </use>
                  <path fill="none" stroke="white" stroke-width="1.5" d="M0,-3.0v7 M-2.5,-0.5L0,-3.0L2.5,-0.5"/>
                </g>
                <g id="arrowRight" xlink:href="#dirArrow" transform="rotate(90) translate(36 -43)" onmousedown="handlePan(1,0)">
                  <use xlink:href="#rim" fill="#404040">
                        <set attributeName="fill" to="#808080" begin="arrowRight.mouseover" end="arrowRight.mouseout"/>
                  </use>
                  <path fill="none" stroke="white" stroke-width="1.5" d="M0,-3.0v7 M-2.5,-0.5L0,-3.0L2.5,-0.5"/>
                </g>
                <g id="arrowDown" xlink:href="#dirArrow" transform="rotate(180) translate(-30 -48)" onmousedown="handlePan(0,1)">
                  <use xlink:href="#rim" fill="#404040">
                        <set attributeName="fill" to="#808080" begin="arrowDown.mouseover" end="arrowDown.mouseout"/>
                  </use>
                  <path fill="none" stroke="white" stroke-width="1.5" d="M0,-3.0v7 M-2.5,-0.5L0,-3.0L2.5,-0.5"/>
                </g>
                <g id="arrowLeft" xlink:href="#dirArrow" transform="rotate(270) translate(-36 17)" onmousedown="handlePan(-1,0)">
                  <use xlink:href="#rim" fill="#404040">
                        <set attributeName="fill" to="#808080" begin="arrowLeft.mouseover" end="arrowLeft.mouseout"/>
                  </use>
                  <path fill="none" stroke="white" stroke-width="1.5" d="M0,-3.0v7 M-2.5,-0.5L0,-3.0L2.5,-0.5"/>
                </g>
        </g>
        <svg viewBox="0 0 15 15" width="100%" height="30px" preserveAspectRatio="xMaxYMin meet">
         <g id="arrow_out" transform="scale(0.3 0.3)">
          <a xlink:href="structgame_import__t__coll__graph_org.svg" target="_base">
           <rect id="button" ry="5" rx="5" y="6" x="6" height="38" width="38"
                fill="#f2f5e9" fill-opacity="0.5" stroke="#606060" stroke-width="1.0"/>
           <path id="arrow"
             d="M 11.500037,31.436501 C 11.940474,20.09759 22.043105,11.32322 32.158766,21.979434 L 37.068811,17.246167 C 37.068811,17.246167 37.088388,32 37.088388,32 L 22.160133,31.978069 C 22.160133,31.978069 26.997745,27.140456 26.997745,27.140456 C 18.528582,18.264221 13.291696,25.230495 11.500037,31.436501 z"
             style="fill:#404040;"/>
          </a>
         </g>
        </svg>
</svg>
