<?xml version="1.0" encoding="UTF-8" standalone="no"?>
<!DOCTYPE svg PUBLIC "-//W3C//DTD SVG 1.1//EN"
 "http://www.w3.org/Graphics/SVG/1.1/DTD/svg11.dtd">
<!-- Generated by graphviz version 2.34.0 (20130907.0111)
 -->
<!-- Title: debugPolygon_s Pages: 1 -->
<svg width="131pt" height="164pt"
 viewBox="0.00 0.00 131.00 164.00" xmlns="http://www.w3.org/2000/svg" xmlns:xlink="http://www.w3.org/1999/xlink">
<g id="graph0" class="graph" transform="scale(1 1) rotate(0) translate(4 160)">
<title>debugPolygon_s</title>
<polygon fill="white" stroke="white" points="-4,4 -4,-160 127,-160 127,4 -4,4"/>
<!-- Node1 -->
<g id="node1" class="node"><title>Node1</title>
<polygon fill="#bfbfbf" stroke="black" points="25.5,-0.5 25.5,-19.5 114.5,-19.5 114.5,-0.5 25.5,-0.5"/>
<text text-anchor="middle" x="70" y="-7.5" font-family="Arial" font-size="10.00">debugPolygon_s</text>
</g>
<!-- Node2 -->
<g id="node2" class="node"><title>Node2</title>
<g id="a_node2"><a xlink:href="classid_winding.html" target="_top" xlink:title="idWinding">
<polygon fill="white" stroke="black" points="-0.5,-68.5 -0.5,-87.5 58.5,-87.5 58.5,-68.5 -0.5,-68.5"/>
<text text-anchor="middle" x="29" y="-75.5" font-family="Arial" font-size="10.00">idWinding</text>
</a>
</g>
</g>
<!-- Node2&#45;&gt;Node1 -->
<g id="edge1" class="edge"><title>Node2&#45;&gt;Node1</title>
<path fill="none" stroke="#9a32cd" stroke-dasharray="5,2" d="M33.1374,-58.6583C35.1699,-51.8462 38.0524,-44.2594 42,-38 46.3948,-31.0314 52.96,-24.5728 58.6287,-19.7206"/>
<polygon fill="#9a32cd" stroke="#9a32cd" points="29.7274,-57.8654 30.6121,-68.4233 36.5044,-59.6181 29.7274,-57.8654"/>
<text text-anchor="middle" x="60" y="-41.5" font-family="Arial" font-size="10.00"> winding</text>
</g>
<!-- Node3 -->
<g id="node3" class="node"><title>Node3</title>
<g id="a_node3"><a xlink:href="classid_vec5.html" target="_top" xlink:title="idVec5">
<polygon fill="white" stroke="black" points="5.5,-136.5 5.5,-155.5 52.5,-155.5 52.5,-136.5 5.5,-136.5"/>
<text text-anchor="middle" x="29" y="-143.5" font-family="Arial" font-size="10.00">idVec5</text>
</a>
</g>
</g>
<!-- Node3&#45;&gt;Node2 -->
<g id="edge2" class="edge"><title>Node3&#45;&gt;Node2</title>
<path fill="none" stroke="#9a32cd" stroke-dasharray="5,2" d="M29,-126.041C29,-113.472 29,-97.5631 29,-87.8411"/>
<polygon fill="#9a32cd" stroke="#9a32cd" points="25.5001,-126.372 29,-136.372 32.5001,-126.372 25.5001,-126.372"/>
<text text-anchor="middle" x="33.5" y="-109.5" font-family="Arial" font-size="10.00"> p</text>
</g>
<!-- Node4 -->
<g id="node4" class="node"><title>Node4</title>
<g id="a_node4"><a xlink:href="classid_vec4.html" target="_top" xlink:title="idVec4">
<polygon fill="white" stroke="black" points="76.5,-68.5 76.5,-87.5 123.5,-87.5 123.5,-68.5 76.5,-68.5"/>
<text text-anchor="middle" x="100" y="-75.5" font-family="Arial" font-size="10.00">idVec4</text>
</a>
</g>
</g>
<!-- Node4&#45;&gt;Node1 -->
<g id="edge3" class="edge"><title>Node4&#45;&gt;Node1</title>
<path fill="none" stroke="#9a32cd" stroke-dasharray="5,2" d="M91.9027,-59.1859C86.1147,-46.4523 78.5731,-29.8607 74.0187,-19.8411"/>
<polygon fill="#9a32cd" stroke="#9a32cd" points="88.7537,-60.7163 96.078,-68.3717 95.1262,-57.8196 88.7537,-60.7163"/>
<text text-anchor="middle" x="95.5" y="-41.5" font-family="Arial" font-size="10.00"> rgb</text>
</g>
</g>
</svg>
