<?xml version="1.0" encoding="UTF-8" standalone="no"?>
<!DOCTYPE svg PUBLIC "-//W3C//DTD SVG 1.1//EN"
 "http://www.w3.org/Graphics/SVG/1.1/DTD/svg11.dtd">
<!-- Generated by graphviz version 2.34.0 (20130907.0111)
 -->
<!-- Title: matchVert_s Pages: 1 -->
<svg width="120pt" height="96pt"
 viewBox="0.00 0.00 120.00 96.00" xmlns="http://www.w3.org/2000/svg" xmlns:xlink="http://www.w3.org/1999/xlink">
<g id="graph0" class="graph" transform="scale(1 1) rotate(0) translate(4 92)">
<title>matchVert_s</title>
<polygon fill="white" stroke="white" points="-4,4 -4,-92 116,-92 116,4 -4,4"/>
<!-- Node1 -->
<g id="node1" class="node"><title>Node1</title>
<polygon fill="#bfbfbf" stroke="black" points="0,-0.5 0,-19.5 72,-19.5 72,-0.5 0,-0.5"/>
<text text-anchor="middle" x="36" y="-7.5" font-family="Arial" font-size="10.00">matchVert_s</text>
</g>
<!-- Node1&#45;&gt;Node1 -->
<g id="edge1" class="edge"><title>Node1&#45;&gt;Node1</title>
<path fill="none" stroke="#9a32cd" stroke-dasharray="5,2" d="M82.2083,-15.2561C86.9614,-14.2215 90,-12.4695 90,-10 90,-6.04883 82.2211,-3.93433 72.0873,-3.65652"/>
<polygon fill="#9a32cd" stroke="#9a32cd" points="81.6562,-11.7952 72.0873,-16.3435 82.404,-18.7551 81.6562,-11.7952"/>
<text text-anchor="middle" x="101" y="-7.5" font-family="Arial" font-size="10.00"> next</text>
</g>
<!-- Node2 -->
<g id="node2" class="node"><title>Node2</title>
<g id="a_node2"><a xlink:href="classid_vec3.html" target="_top" xlink:title="idVec3">
<polygon fill="white" stroke="black" points="12.5,-68.5 12.5,-87.5 59.5,-87.5 59.5,-68.5 12.5,-68.5"/>
<text text-anchor="middle" x="36" y="-75.5" font-family="Arial" font-size="10.00">idVec3</text>
</a>
</g>
</g>
<!-- Node2&#45;&gt;Node1 -->
<g id="edge2" class="edge"><title>Node2&#45;&gt;Node1</title>
<path fill="none" stroke="#9a32cd" stroke-dasharray="5,2" d="M36,-58.0413C36,-45.4724 36,-29.5631 36,-19.8411"/>
<polygon fill="#9a32cd" stroke="#9a32cd" points="32.5001,-58.3716 36,-68.3717 39.5001,-58.3717 32.5001,-58.3716"/>
<text text-anchor="middle" x="52.5" y="-41.5" font-family="Arial" font-size="10.00"> normal</text>
</g>
</g>
</svg>
