<?xml version="1.0" encoding="UTF-8" standalone="no"?>
<!DOCTYPE svg PUBLIC "-//W3C//DTD SVG 1.1//EN"
 "http://www.w3.org/Graphics/SVG/1.1/DTD/svg11.dtd">
<!-- Generated by graphviz version 2.34.0 (20130907.0111)
 -->
<!-- Title: idGLDrawableView::lightInfo_t Pages: 1 -->
<svg width="420pt" height="368pt"
 viewBox="0.00 0.00 420.00 368.00" xmlns="http://www.w3.org/2000/svg" xmlns:xlink="http://www.w3.org/1999/xlink">
<g id="graph0" class="graph" transform="scale(1 1) rotate(0) translate(4 364)">
<title>idGLDrawableView::lightInfo_t</title>
<polygon fill="white" stroke="white" points="-4,4 -4,-364 416,-364 416,4 -4,4"/>
<!-- Node1 -->
<g id="node1" class="node"><title>Node1</title>
<polygon fill="#bfbfbf" stroke="black" points="99.5,-0.5 99.5,-19.5 244.5,-19.5 244.5,-0.5 99.5,-0.5"/>
<text text-anchor="middle" x="172" y="-7.5" font-family="Arial" font-size="10.00">idGLDrawableView::lightInfo_t</text>
</g>
<!-- Node2 -->
<g id="node2" class="node"><title>Node2</title>
<g id="a_node2"><a xlink:href="classid_vec3.html" target="_top" xlink:title="idVec3">
<polygon fill="white" stroke="black" points="-0.5,-214.5 -0.5,-233.5 46.5,-233.5 46.5,-214.5 -0.5,-214.5"/>
<text text-anchor="middle" x="23" y="-221.5" font-family="Arial" font-size="10.00">idVec3</text>
</a>
</g>
</g>
<!-- Node2&#45;&gt;Node1 -->
<g id="edge1" class="edge"><title>Node2&#45;&gt;Node1</title>
<path fill="none" stroke="#9a32cd" stroke-dasharray="5,2" d="M20.4599,-204.273C18.1537,-180.243 17.4038,-138.078 35,-108 61.4888,-62.722 118.458,-33.1609 149.95,-19.5995"/>
<polygon fill="#9a32cd" stroke="#9a32cd" points="17.0148,-204.95 21.6434,-214.48 23.9682,-204.143 17.0148,-204.95"/>
<text text-anchor="middle" x="83.5" y="-82" font-family="Arial" font-size="10.00"> origin</text>
<text text-anchor="middle" x="83.5" y="-71" font-family="Arial" font-size="10.00">color</text>
</g>
<!-- Node6 -->
<g id="node6" class="node"><title>Node6</title>
<g id="a_node6"><a xlink:href="structrender_light__s.html" target="_top" xlink:title="renderLight_s">
<polygon fill="white" stroke="black" points="134.5,-69.5 134.5,-88.5 209.5,-88.5 209.5,-69.5 134.5,-69.5"/>
<text text-anchor="middle" x="172" y="-76.5" font-family="Arial" font-size="10.00">renderLight_s</text>
</a>
</g>
</g>
<!-- Node2&#45;&gt;Node6 -->
<g id="edge9" class="edge"><title>Node2&#45;&gt;Node6</title>
<path fill="none" stroke="#9a32cd" stroke-dasharray="5,2" d="M29.4655,-204.49C30.3676,-201.662 31.2433,-198.764 32,-196 42.5644,-157.408 22.9165,-136.501 51,-108 62.5395,-96.2889 103.269,-88.5944 134.317,-84.2868"/>
<polygon fill="#9a32cd" stroke="#9a32cd" points="26.1124,-203.481 26.2476,-214.075 32.7484,-205.709 26.1124,-203.481"/>
<text text-anchor="middle" x="76" y="-188" font-family="Arial" font-size="10.00"> lightCenter</text>
<text text-anchor="middle" x="76" y="-177" font-family="Arial" font-size="10.00">target</text>
<text text-anchor="middle" x="76" y="-166" font-family="Arial" font-size="10.00">right</text>
<text text-anchor="middle" x="76" y="-155" font-family="Arial" font-size="10.00">end</text>
<text text-anchor="middle" x="76" y="-144" font-family="Arial" font-size="10.00">lightRadius</text>
<text text-anchor="middle" x="76" y="-133" font-family="Arial" font-size="10.00">origin</text>
<text text-anchor="middle" x="76" y="-122" font-family="Arial" font-size="10.00">up</text>
<text text-anchor="middle" x="76" y="-111" font-family="Arial" font-size="10.00">start</text>
</g>
<!-- Node3 -->
<g id="node3" class="node"><title>Node3</title>
<g id="a_node3"><a xlink:href="classid_material.html" target="_top" xlink:title="idMaterial">
<polygon fill="white" stroke="black" points="349.5,-214.5 349.5,-233.5 408.5,-233.5 408.5,-214.5 349.5,-214.5"/>
<text text-anchor="middle" x="379" y="-221.5" font-family="Arial" font-size="10.00">idMaterial</text>
</a>
</g>
</g>
<!-- Node3&#45;&gt;Node1 -->
<g id="edge2" class="edge"><title>Node3&#45;&gt;Node1</title>
<path fill="none" stroke="#9a32cd" stroke-dasharray="5,2" d="M385.838,-204.656C393.603,-180.446 402.915,-137.456 384,-108 349.882,-54.8699 278.622,-30.4724 228.156,-19.5188"/>
<polygon fill="#9a32cd" stroke="#9a32cd" points="382.448,-203.747 382.485,-214.342 389.063,-206.037 382.448,-203.747"/>
<text text-anchor="middle" x="385.5" y="-76.5" font-family="Arial" font-size="10.00"> shader</text>
</g>
<!-- Node3&#45;&gt;Node6 -->
<g id="edge10" class="edge"><title>Node3&#45;&gt;Node6</title>
<path fill="none" stroke="#9a32cd" stroke-dasharray="5,2" d="M359.994,-207.492C356.612,-204.005 353.406,-200.11 351,-196 330.577,-161.113 357.678,-135.448 328,-108 311.183,-92.4465 250.252,-85.2805 209.703,-82.1709"/>
<polygon fill="#9a32cd" stroke="#9a32cd" points="357.726,-210.161 367.437,-214.396 362.486,-205.029 357.726,-210.161"/>
<text text-anchor="middle" x="367.5" y="-149.5" font-family="Arial" font-size="10.00"> shader</text>
</g>
<!-- Node4 -->
<g id="node4" class="node"><title>Node4</title>
<g id="a_node4"><a xlink:href="classid_decl.html" target="_top" xlink:title="idDecl">
<polygon fill="white" stroke="black" points="357,-272.5 357,-291.5 401,-291.5 401,-272.5 357,-272.5"/>
<text text-anchor="middle" x="379" y="-279.5" font-family="Arial" font-size="10.00">idDecl</text>
</a>
</g>
</g>
<!-- Node4&#45;&gt;Node3 -->
<g id="edge3" class="edge"><title>Node4&#45;&gt;Node3</title>
<path fill="none" stroke="midnightblue" d="M379,-261.953C379,-252.287 379,-241.031 379,-233.505"/>
<polygon fill="midnightblue" stroke="midnightblue" points="375.5,-262.25 379,-272.25 382.5,-262.25 375.5,-262.25"/>
</g>
<!-- Node5 -->
<g id="node5" class="node"><title>Node5</title>
<g id="a_node5"><a xlink:href="classid_decl_base.html" target="_top" xlink:title="idDeclBase">
<polygon fill="white" stroke="black" points="346,-340.5 346,-359.5 412,-359.5 412,-340.5 346,-340.5"/>
<text text-anchor="middle" x="379" y="-347.5" font-family="Arial" font-size="10.00">idDeclBase</text>
</a>
</g>
</g>
<!-- Node5&#45;&gt;Node4 -->
<g id="edge4" class="edge"><title>Node5&#45;&gt;Node4</title>
<path fill="none" stroke="#9a32cd" stroke-dasharray="5,2" d="M379,-330.041C379,-317.472 379,-301.563 379,-291.841"/>
<polygon fill="#9a32cd" stroke="#9a32cd" points="375.5,-330.372 379,-340.372 382.5,-330.372 375.5,-330.372"/>
<text text-anchor="middle" x="391.5" y="-313.5" font-family="Arial" font-size="10.00"> base</text>
</g>
<!-- Node6&#45;&gt;Node1 -->
<g id="edge5" class="edge"><title>Node6&#45;&gt;Node1</title>
<path fill="none" stroke="#9a32cd" stroke-dasharray="5,2" d="M172,-59.0183C172,-46.034 172,-29.4419 172,-19.5494"/>
<polygon fill="#9a32cd" stroke="#9a32cd" points="168.5,-59.2409 172,-69.2409 175.5,-59.241 168.5,-59.2409"/>
<text text-anchor="middle" x="198" y="-41.5" font-family="Arial" font-size="10.00"> renderLight</text>
</g>
<!-- Node7 -->
<g id="node7" class="node"><title>Node7</title>
<g id="a_node7"><a xlink:href="classid_mat3.html" target="_top" xlink:title="idMat3">
<polygon fill="white" stroke="black" points="66,-214.5 66,-233.5 112,-233.5 112,-214.5 66,-214.5"/>
<text text-anchor="middle" x="89" y="-221.5" font-family="Arial" font-size="10.00">idMat3</text>
</a>
</g>
</g>
<!-- Node7&#45;&gt;Node6 -->
<g id="edge6" class="edge"><title>Node7&#45;&gt;Node6</title>
<path fill="none" stroke="#9a32cd" stroke-dasharray="5,2" d="M99.754,-205.423C101.559,-202.314 103.373,-199.084 105,-196 125.134,-157.838 121.916,-143.801 146,-108 150.74,-100.955 157.24,-93.9548 162.555,-88.7161"/>
<polygon fill="#9a32cd" stroke="#9a32cd" points="96.6793,-203.746 94.5591,-214.126 102.69,-207.334 96.6793,-203.746"/>
<text text-anchor="middle" x="157" y="-149.5" font-family="Arial" font-size="10.00"> axis</text>
</g>
<!-- Node8 -->
<g id="node8" class="node"><title>Node8</title>
<g id="a_node8"><a xlink:href="classid_sound_emitter.html" target="_top" xlink:title="idSoundEmitter">
<polygon fill="white" stroke="black" points="130.5,-214.5 130.5,-233.5 213.5,-233.5 213.5,-214.5 130.5,-214.5"/>
<text text-anchor="middle" x="172" y="-221.5" font-family="Arial" font-size="10.00">idSoundEmitter</text>
</a>
</g>
</g>
<!-- Node8&#45;&gt;Node6 -->
<g id="edge7" class="edge"><title>Node8&#45;&gt;Node6</title>
<path fill="none" stroke="#9a32cd" stroke-dasharray="5,2" d="M172,-204.097C172,-172.772 172,-111.309 172,-88.6532"/>
<polygon fill="#9a32cd" stroke="#9a32cd" points="168.5,-204.483 172,-214.483 175.5,-204.483 168.5,-204.483"/>
<text text-anchor="middle" x="207.5" y="-149.5" font-family="Arial" font-size="10.00"> referenceSound</text>
</g>
<!-- Node9 -->
<g id="node9" class="node"><title>Node9</title>
<g id="a_node9"><a xlink:href="classid_render_model.html" target="_top" xlink:title="idRenderModel">
<polygon fill="white" stroke="black" points="231.5,-214.5 231.5,-233.5 312.5,-233.5 312.5,-214.5 231.5,-214.5"/>
<text text-anchor="middle" x="272" y="-221.5" font-family="Arial" font-size="10.00">idRenderModel</text>
</a>
</g>
</g>
<!-- Node9&#45;&gt;Node6 -->
<g id="edge8" class="edge"><title>Node9&#45;&gt;Node6</title>
<path fill="none" stroke="#9a32cd" stroke-dasharray="5,2" d="M268.462,-204.468C262.471,-173.831 250.361,-115.262 244,-108 235.163,-97.9112 222.243,-91.4319 209.779,-87.2815"/>
<polygon fill="#9a32cd" stroke="#9a32cd" points="265.037,-205.191 270.371,-214.345 271.91,-203.862 265.037,-205.191"/>
<text text-anchor="middle" x="297.5" y="-149.5" font-family="Arial" font-size="10.00"> prelightModel</text>
</g>
</g>
</svg>
