<?xml version="1.0" encoding="UTF-8" standalone="no"?>
<!DOCTYPE svg PUBLIC "-//W3C//DTD SVG 1.1//EN"
 "http://www.w3.org/Graphics/SVG/1.1/DTD/svg11.dtd">
<!-- Generated by graphviz version 2.34.0 (20130907.0111)
 -->
<!-- Title: InStruct Pages: 1 -->
<svg width="300pt" height="300pt"
 viewBox="0.00 0.00 299.73 300.00" xmlns="http://www.w3.org/2000/svg" xmlns:xlink="http://www.w3.org/1999/xlink">
<g id="graph0" class="graph" transform="scale(1 1) rotate(0) translate(4 296)">
<title>InStruct</title>
<polygon fill="white" stroke="white" points="-4,4 -4,-296 295.729,-296 295.729,4 -4,4"/>
<!-- Node1 -->
<g id="node1" class="node"><title>Node1</title>
<polygon fill="#bfbfbf" stroke="black" points="87.7291,-0.5 87.7291,-19.5 137.729,-19.5 137.729,-0.5 87.7291,-0.5"/>
<text text-anchor="middle" x="112.729" y="-7.5" font-family="Arial" font-size="10.00">InStruct</text>
</g>
<!-- Node2 -->
<g id="node2" class="node"><title>Node2</title>
<g id="a_node2"><a xlink:href="struct_configurable.html" target="_top" xlink:title="Configurable">
<polygon fill="white" stroke="black" points="77.7291,-68.5 77.7291,-87.5 147.729,-87.5 147.729,-68.5 77.7291,-68.5"/>
<text text-anchor="middle" x="112.729" y="-75.5" font-family="Arial" font-size="10.00">Configurable</text>
</a>
</g>
</g>
<!-- Node2&#45;&gt;Node1 -->
<g id="edge1" class="edge"><title>Node2&#45;&gt;Node1</title>
<path fill="none" stroke="#9a32cd" stroke-dasharray="5,2" d="M112.729,-58.0413C112.729,-45.4724 112.729,-29.5631 112.729,-19.8411"/>
<polygon fill="#9a32cd" stroke="#9a32cd" points="109.229,-58.3716 112.729,-68.3717 116.229,-58.3717 109.229,-58.3716"/>
<text text-anchor="middle" x="127.229" y="-41.5" font-family="Arial" font-size="10.00"> config</text>
</g>
<!-- Node3 -->
<g id="node3" class="node"><title>Node3</title>
<g id="a_node3"><a xlink:href="structcurl__httppost.html" target="_top" xlink:title="curl_httppost">
<polygon fill="white" stroke="black" points="76.2291,-186.5 76.2291,-205.5 149.229,-205.5 149.229,-186.5 76.2291,-186.5"/>
<text text-anchor="middle" x="112.729" y="-193.5" font-family="Arial" font-size="10.00">curl_httppost</text>
</a>
</g>
</g>
<!-- Node3&#45;&gt;Node2 -->
<g id="edge2" class="edge"><title>Node3&#45;&gt;Node2</title>
<path fill="none" stroke="#9a32cd" stroke-dasharray="5,2" d="M112.729,-176.025C112.729,-150.464 112.729,-106.041 112.729,-87.5048"/>
<polygon fill="#9a32cd" stroke="#9a32cd" points="109.229,-176.281 112.729,-186.281 116.229,-176.281 109.229,-176.281"/>
<text text-anchor="middle" x="134.229" y="-131" font-family="Arial" font-size="10.00"> last_post</text>
<text text-anchor="middle" x="134.229" y="-120" font-family="Arial" font-size="10.00">httppost</text>
</g>
<!-- Node3&#45;&gt;Node3 -->
<g id="edge3" class="edge"><title>Node3&#45;&gt;Node3</title>
<path fill="none" stroke="#9a32cd" stroke-dasharray="5,2" d="M151.111,-205.554C160.101,-204.763 166.729,-201.578 166.729,-196 166.729,-188.484 154.697,-185.314 141.067,-186.488"/>
<polygon fill="#9a32cd" stroke="#9a32cd" points="151.081,-202.054 141.067,-205.512 151.052,-209.054 151.081,-202.054"/>
<text text-anchor="middle" x="177.729" y="-199" font-family="Arial" font-size="10.00"> next</text>
<text text-anchor="middle" x="177.729" y="-188" font-family="Arial" font-size="10.00">more</text>
</g>
<!-- Node4 -->
<g id="node4" class="node"><title>Node4</title>
<g id="a_node4"><a xlink:href="structcurl__slist.html" target="_top" xlink:title="curl_slist">
<polygon fill="white" stroke="black" points="5.72911,-272.5 5.72911,-291.5 61.7291,-291.5 61.7291,-272.5 5.72911,-272.5"/>
<text text-anchor="middle" x="33.7291" y="-279.5" font-family="Arial" font-size="10.00">curl_slist</text>
</a>
</g>
</g>
<!-- Node4&#45;&gt;Node2 -->
<g id="edge8" class="edge"><title>Node4&#45;&gt;Node2</title>
<path fill="none" stroke="#9a32cd" stroke-dasharray="5,2" d="M22.5833,-263.839C9.31054,-241.07 -9.28794,-200.024 5.72911,-168 24.0922,-128.841 69.0887,-100.931 94.4956,-87.6836"/>
<polygon fill="#9a32cd" stroke="#9a32cd" points="19.6207,-265.703 27.832,-272.398 25.5881,-262.043 19.6207,-265.703"/>
<text text-anchor="middle" x="36.2291" y="-215.5" font-family="Arial" font-size="10.00"> headers</text>
<text text-anchor="middle" x="36.2291" y="-204.5" font-family="Arial" font-size="10.00">prequote</text>
<text text-anchor="middle" x="36.2291" y="-193.5" font-family="Arial" font-size="10.00">telnet_options</text>
<text text-anchor="middle" x="36.2291" y="-182.5" font-family="Arial" font-size="10.00">postquote</text>
<text text-anchor="middle" x="36.2291" y="-171.5" font-family="Arial" font-size="10.00">quote</text>
</g>
<!-- Node4&#45;&gt;Node3 -->
<g id="edge4" class="edge"><title>Node4&#45;&gt;Node3</title>
<path fill="none" stroke="#9a32cd" stroke-dasharray="5,2" d="M48.7445,-265.034C65.2972,-247.434 91.3223,-219.762 104.498,-205.752"/>
<polygon fill="#9a32cd" stroke="#9a32cd" points="46.1873,-262.644 41.8859,-272.327 51.2865,-267.44 46.1873,-262.644"/>
<text text-anchor="middle" x="101.229" y="-245.5" font-family="Arial" font-size="10.00"> contentheader</text>
</g>
<!-- Node4&#45;&gt;Node4 -->
<g id="edge5" class="edge"><title>Node4&#45;&gt;Node4</title>
<path fill="none" stroke="#9a32cd" stroke-dasharray="5,2" d="M72.2824,-287.449C76.7925,-286.447 79.7291,-284.63 79.7291,-282 79.7291,-277.684 71.821,-275.559 62.0285,-275.627"/>
<polygon fill="#9a32cd" stroke="#9a32cd" points="71.6739,-283.99 62.0285,-288.373 72.3024,-290.961 71.6739,-283.99"/>
<text text-anchor="middle" x="90.7291" y="-279.5" font-family="Arial" font-size="10.00"> next</text>
</g>
<!-- Node5 -->
<g id="node5" class="node"><title>Node5</title>
<g id="a_node5"><a xlink:href="structgetout.html" target="_top" xlink:title="getout">
<polygon fill="white" stroke="black" points="207.729,-186.5 207.729,-205.5 251.729,-205.5 251.729,-186.5 207.729,-186.5"/>
<text text-anchor="middle" x="229.729" y="-193.5" font-family="Arial" font-size="10.00">getout</text>
</a>
</g>
</g>
<!-- Node5&#45;&gt;Node2 -->
<g id="edge6" class="edge"><title>Node5&#45;&gt;Node2</title>
<path fill="none" stroke="#9a32cd" stroke-dasharray="5,2" d="M219.001,-177.634C206.509,-158.413 184.409,-127.337 159.729,-106 151.187,-98.6146 140.326,-92.2204 131.197,-87.5109"/>
<polygon fill="#9a32cd" stroke="#9a32cd" points="216.162,-179.691 224.477,-186.257 222.071,-175.939 216.162,-179.691"/>
<text text-anchor="middle" x="216.229" y="-142" font-family="Arial" font-size="10.00"> url_get</text>
<text text-anchor="middle" x="216.229" y="-131" font-family="Arial" font-size="10.00">url_last</text>
<text text-anchor="middle" x="216.229" y="-120" font-family="Arial" font-size="10.00">url_out</text>
<text text-anchor="middle" x="216.229" y="-109" font-family="Arial" font-size="10.00">url_list</text>
</g>
<!-- Node5&#45;&gt;Node5 -->
<g id="edge7" class="edge"><title>Node5&#45;&gt;Node5</title>
<path fill="none" stroke="#9a32cd" stroke-dasharray="5,2" d="M260.788,-205.095C266.071,-203.846 269.729,-200.815 269.729,-196 269.729,-188.484 260.816,-185.314 250.72,-186.488"/>
<polygon fill="#9a32cd" stroke="#9a32cd" points="260.566,-201.601 250.72,-205.512 260.856,-208.595 260.566,-201.601"/>
<text text-anchor="middle" x="280.729" y="-193.5" font-family="Arial" font-size="10.00"> next</text>
</g>
</g>
</svg>
