<?xml version="1.0" encoding="UTF-8" standalone="no"?>
<!DOCTYPE svg PUBLIC "-//W3C//DTD SVG 1.1//EN"
 "http://www.w3.org/Graphics/SVG/1.1/DTD/svg11.dtd">
<!-- Generated by graphviz version 2.34.0 (20130907.0111)
 -->
<!-- Title: eclass_s Pages: 1 -->
<svg width="455pt" height="128pt"
 viewBox="0.00 0.00 455.00 128.00" xmlns="http://www.w3.org/2000/svg" xmlns:xlink="http://www.w3.org/1999/xlink">
<g id="graph0" class="graph" transform="scale(1 1) rotate(0) translate(4 124)">
<title>eclass_s</title>
<polygon fill="white" stroke="white" points="-4,4 -4,-124 451,-124 451,4 -4,4"/>
<!-- Node1 -->
<g id="node1" class="node"><title>Node1</title>
<polygon fill="#bfbfbf" stroke="black" points="194,-0.5 194,-19.5 250,-19.5 250,-0.5 194,-0.5"/>
<text text-anchor="middle" x="222" y="-7.5" font-family="Arial" font-size="10.00">eclass_s</text>
</g>
<!-- Node1&#45;&gt;Node1 -->
<g id="edge5" class="edge"><title>Node1&#45;&gt;Node1</title>
<path fill="none" stroke="#9a32cd" stroke-dasharray="5,2" d="M260.553,-18.0134C265.063,-16.5392 268,-13.8681 268,-10 268,-3.65234 260.092,-0.528107 250.299,-0.627289"/>
<polygon fill="#9a32cd" stroke="#9a32cd" points="259.753,-14.5888 250.299,-19.3727 260.673,-21.5281 259.753,-14.5888"/>
<text text-anchor="middle" x="279" y="-7.5" font-family="Arial" font-size="10.00"> next</text>
</g>
<!-- Node2 -->
<g id="node2" class="node"><title>Node2</title>
<g id="a_node2"><a xlink:href="classid_str.html" target="_top" xlink:title="idStr">
<polygon fill="white" stroke="black" points="-0.5,-100.5 -0.5,-119.5 36.5,-119.5 36.5,-100.5 -0.5,-100.5"/>
<text text-anchor="middle" x="18" y="-107.5" font-family="Arial" font-size="10.00">idStr</text>
</a>
</g>
</g>
<!-- Node2&#45;&gt;Node1 -->
<g id="edge1" class="edge"><title>Node2&#45;&gt;Node1</title>
<path fill="none" stroke="#9a32cd" stroke-dasharray="5,2" d="M22.6382,-90.2554C27.7329,-73.7911 37.6029,-50.5608 55,-38 76.7282,-22.3122 152.348,-15.27 193.98,-12.5194"/>
<polygon fill="#9a32cd" stroke="#9a32cd" points="19.1362,-89.787 19.8402,-100.358 25.8823,-91.6553 19.1362,-89.787"/>
<text text-anchor="middle" x="79" y="-74" font-family="Arial" font-size="10.00"> desc</text>
<text text-anchor="middle" x="79" y="-63" font-family="Arial" font-size="10.00">defMaterial</text>
<text text-anchor="middle" x="79" y="-52" font-family="Arial" font-size="10.00">name</text>
<text text-anchor="middle" x="79" y="-41" font-family="Arial" font-size="10.00">comments</text>
</g>
<!-- Node3 -->
<g id="node3" class="node"><title>Node3</title>
<g id="a_node3"><a xlink:href="classtexdef__t.html" target="_top" xlink:title="texdef_t">
<polygon fill="white" stroke="black" points="58.5,-100.5 58.5,-119.5 109.5,-119.5 109.5,-100.5 58.5,-100.5"/>
<text text-anchor="middle" x="84" y="-107.5" font-family="Arial" font-size="10.00">texdef_t</text>
</a>
</g>
</g>
<!-- Node3&#45;&gt;Node1 -->
<g id="edge2" class="edge"><title>Node3&#45;&gt;Node1</title>
<path fill="none" stroke="#9a32cd" stroke-dasharray="5,2" d="M96.497,-92.5454C109.231,-76.7364 130.289,-53.0861 153,-38 165.429,-29.7436 180.762,-23.4258 193.815,-18.9851"/>
<polygon fill="#9a32cd" stroke="#9a32cd" points="93.7401,-90.3892 90.3214,-100.417 99.2475,-94.7099 93.7401,-90.3892"/>
<text text-anchor="middle" x="168" y="-57.5" font-family="Arial" font-size="10.00"> texdef</text>
</g>
<!-- Node4 -->
<g id="node4" class="node"><title>Node4</title>
<g id="a_node4"><a xlink:href="classid_list.html" target="_top" xlink:title="idList\&lt; evar_s \&gt;">
<polygon fill="white" stroke="black" points="128,-100.5 128,-119.5 214,-119.5 214,-100.5 128,-100.5"/>
<text text-anchor="middle" x="171" y="-107.5" font-family="Arial" font-size="10.00">idList&lt; evar_s &gt;</text>
</a>
</g>
</g>
<!-- Node4&#45;&gt;Node1 -->
<g id="edge3" class="edge"><title>Node4&#45;&gt;Node1</title>
<path fill="none" stroke="#9a32cd" stroke-dasharray="5,2" d="M180.168,-91.3836C191.191,-70.2011 209.245,-35.5087 217.557,-19.5374"/>
<polygon fill="#9a32cd" stroke="#9a32cd" points="177.038,-89.8167 175.526,-100.303 183.247,-93.0482 177.038,-89.8167"/>
<text text-anchor="middle" x="217.5" y="-57.5" font-family="Arial" font-size="10.00"> vars</text>
</g>
<!-- Node5 -->
<g id="node5" class="node"><title>Node5</title>
<g id="a_node5"><a xlink:href="classid_render_model.html" target="_top" xlink:title="idRenderModel">
<polygon fill="white" stroke="black" points="232.5,-100.5 232.5,-119.5 313.5,-119.5 313.5,-100.5 232.5,-100.5"/>
<text text-anchor="middle" x="273" y="-107.5" font-family="Arial" font-size="10.00">idRenderModel</text>
</a>
</g>
</g>
<!-- Node5&#45;&gt;Node1 -->
<g id="edge4" class="edge"><title>Node5&#45;&gt;Node1</title>
<path fill="none" stroke="#9a32cd" stroke-dasharray="5,2" d="M263.832,-91.3836C252.809,-70.2011 234.755,-35.5087 226.443,-19.5374"/>
<polygon fill="#9a32cd" stroke="#9a32cd" points="260.753,-93.0482 268.474,-100.303 266.962,-89.8167 260.753,-93.0482"/>
<text text-anchor="middle" x="286.5" y="-63" font-family="Arial" font-size="10.00"> entityModel</text>
<text text-anchor="middle" x="286.5" y="-52" font-family="Arial" font-size="10.00">modelHandle</text>
</g>
<!-- Node6 -->
<g id="node6" class="node"><title>Node6</title>
<g id="a_node6"><a xlink:href="classid_vec3.html" target="_top" xlink:title="idVec3">
<polygon fill="white" stroke="black" points="331.5,-100.5 331.5,-119.5 378.5,-119.5 378.5,-100.5 331.5,-100.5"/>
<text text-anchor="middle" x="355" y="-107.5" font-family="Arial" font-size="10.00">idVec3</text>
</a>
</g>
</g>
<!-- Node6&#45;&gt;Node1 -->
<g id="edge6" class="edge"><title>Node6&#45;&gt;Node1</title>
<path fill="none" stroke="#9a32cd" stroke-dasharray="5,2" d="M350.124,-90.1979C344.988,-74.0713 335.328,-51.3807 319,-38 299.53,-22.0451 271.273,-15.4965 250.274,-12.8203"/>
<polygon fill="#9a32cd" stroke="#9a32cd" points="346.851,-91.479 352.983,-100.119 353.577,-89.5405 346.851,-91.479"/>
<text text-anchor="middle" x="362" y="-68.5" font-family="Arial" font-size="10.00"> maxs</text>
<text text-anchor="middle" x="362" y="-57.5" font-family="Arial" font-size="10.00">mins</text>
<text text-anchor="middle" x="362" y="-46.5" font-family="Arial" font-size="10.00">color</text>
</g>
<!-- Node7 -->
<g id="node7" class="node"><title>Node7</title>
<g id="a_node7"><a xlink:href="classid_dict.html" target="_top" xlink:title="idDict">
<polygon fill="white" stroke="black" points="396.5,-100.5 396.5,-119.5 437.5,-119.5 437.5,-100.5 396.5,-100.5"/>
<text text-anchor="middle" x="417" y="-107.5" font-family="Arial" font-size="10.00">idDict</text>
</a>
</g>
</g>
<!-- Node7&#45;&gt;Node1 -->
<g id="edge7" class="edge"><title>Node7&#45;&gt;Node1</title>
<path fill="none" stroke="#9a32cd" stroke-dasharray="5,2" d="M412.335,-90.2922C407.222,-73.8529 397.341,-50.6386 380,-38 359.76,-23.2483 289.87,-15.8928 250.156,-12.8256"/>
<polygon fill="#9a32cd" stroke="#9a32cd" points="409.09,-91.6843 415.146,-100.378 415.833,-89.805 409.09,-91.6843"/>
<text text-anchor="middle" x="428.5" y="-63" font-family="Arial" font-size="10.00"> defArgs</text>
<text text-anchor="middle" x="428.5" y="-52" font-family="Arial" font-size="10.00">args</text>
</g>
</g>
</svg>
