<?xml version="1.0" encoding="UTF-8" standalone="no"?>
<!DOCTYPE svg PUBLIC "-//W3C//DTD SVG 1.1//EN"
 "http://www.w3.org/Graphics/SVG/1.1/DTD/svg11.dtd">
<!-- Generated by graphviz version 2.34.0 (20130907.0111)
 -->
<!-- Title: Curl_one_easy Pages: 1 -->
<svg width="1172pt" height="926pt"
 viewBox="0.00 0.00 1172.00 926.00" xmlns="http://www.w3.org/2000/svg" xmlns:xlink="http://www.w3.org/1999/xlink">
<g id="graph0" class="graph" transform="scale(1 1) rotate(0) translate(4 922)">
<title>Curl_one_easy</title>
<polygon fill="white" stroke="white" points="-4,4 -4,-922 1168,-922 1168,4 -4,4"/>
<!-- Node1 -->
<g id="node1" class="node"><title>Node1</title>
<polygon fill="#bfbfbf" stroke="black" points="1082.5,-243.5 1082.5,-262.5 1163.5,-262.5 1163.5,-243.5 1082.5,-243.5"/>
<text text-anchor="middle" x="1123" y="-250.5" font-family="Arial" font-size="10.00">Curl_one_easy</text>
</g>
<!-- Node1&#45;&gt;Node1 -->
<g id="edge55" class="edge"><title>Node1&#45;&gt;Node1</title>
<path fill="none" stroke="#9a32cd" stroke-dasharray="5,2" d="M1106.7,-272.4C1107.79,-277.315 1113.22,-281 1123,-281 1138.64,-281 1143.16,-271.565 1136.56,-262.757"/>
<polygon fill="#9a32cd" stroke="#9a32cd" points="1110.08,-273.332 1109.44,-262.757 1103.34,-271.424 1110.08,-273.332"/>
<text text-anchor="middle" x="1123" y="-295" font-family="Arial" font-size="10.00"> prev</text>
<text text-anchor="middle" x="1123" y="-284" font-family="Arial" font-size="10.00">next</text>
</g>
<!-- Node2 -->
<g id="node2" class="node"><title>Node2</title>
<g id="a_node2"><a xlink:href="structconnectdata.html" target="_top" xlink:title="connectdata">
<polygon fill="white" stroke="black" points="552,-595.5 552,-614.5 622,-614.5 622,-595.5 552,-595.5"/>
<text text-anchor="middle" x="587" y="-602.5" font-family="Arial" font-size="10.00">connectdata</text>
</a>
</g>
</g>
<!-- Node2&#45;&gt;Node1 -->
<g id="edge1" class="edge"><title>Node2&#45;&gt;Node1</title>
<path fill="none" stroke="#9a32cd" stroke-dasharray="5,2" d="M632.383,-603.629C681.185,-600.288 760.317,-589.317 818,-554 958.936,-467.71 1084.53,-304.039 1114.99,-262.681"/>
<polygon fill="#9a32cd" stroke="#9a32cd" points="631.922,-600.151 622.151,-604.248 632.344,-607.138 631.922,-600.151"/>
<text text-anchor="middle" x="862" y="-546" font-family="Arial" font-size="10.00"> easy_conn</text>
</g>
<!-- Node13 -->
<g id="node13" class="node"><title>Node13</title>
<g id="a_node13"><a xlink:href="struct_url_state.html" target="_top" xlink:title="UrlState">
<polygon fill="white" stroke="black" points="757,-451.5 757,-470.5 809,-470.5 809,-451.5 757,-451.5"/>
<text text-anchor="middle" x="783" y="-458.5" font-family="Arial" font-size="10.00">UrlState</text>
</a>
</g>
</g>
<!-- Node2&#45;&gt;Node13 -->
<g id="edge16" class="edge"><title>Node2&#45;&gt;Node13</title>
<path fill="none" stroke="#9a32cd" stroke-dasharray="5,2" d="M599.877,-587.152C611.13,-571.474 629.347,-549.034 650,-535 681.281,-513.744 697.38,-525.137 730,-506 746.682,-496.213 763.074,-480.792 772.863,-470.787"/>
<polygon fill="#9a32cd" stroke="#9a32cd" points="596.919,-585.277 594.091,-595.487 602.669,-589.269 596.919,-585.277"/>
<text text-anchor="middle" x="690" y="-538" font-family="Arial" font-size="10.00"> connects</text>
</g>
<!-- Node3 -->
<g id="node3" class="node"><title>Node3</title>
<g id="a_node3"><a xlink:href="structntlmdata.html" target="_top" xlink:title="ntlmdata">
<polygon fill="white" stroke="black" points="349,-882.5 349,-901.5 403,-901.5 403,-882.5 349,-882.5"/>
<text text-anchor="middle" x="376" y="-889.5" font-family="Arial" font-size="10.00">ntlmdata</text>
</a>
</g>
</g>
<!-- Node3&#45;&gt;Node2 -->
<g id="edge2" class="edge"><title>Node3&#45;&gt;Node2</title>
<path fill="none" stroke="#9a32cd" stroke-dasharray="5,2" d="M413.439,-897.058C446.503,-899.476 494.467,-897.225 524,-870 562.909,-834.131 581.196,-658.142 585.16,-614.705"/>
<polygon fill="#9a32cd" stroke="#9a32cd" points="413.545,-893.554 403.269,-896.135 412.912,-900.525 413.545,-893.554"/>
<text text-anchor="middle" x="491" y="-910" font-family="Arial" font-size="10.00"> proxyntlm</text>
<text text-anchor="middle" x="491" y="-899" font-family="Arial" font-size="10.00">ntlm</text>
</g>
<!-- Node4 -->
<g id="node4" class="node"><title>Node4</title>
<g id="a_node4"><a xlink:href="struct_curl__async.html" target="_top" xlink:title="Curl_async">
<polygon fill="white" stroke="black" points="343.5,-844.5 343.5,-863.5 408.5,-863.5 408.5,-844.5 343.5,-844.5"/>
<text text-anchor="middle" x="376" y="-851.5" font-family="Arial" font-size="10.00">Curl_async</text>
</a>
</g>
</g>
<!-- Node4&#45;&gt;Node2 -->
<g id="edge3" class="edge"><title>Node4&#45;&gt;Node2</title>
<path fill="none" stroke="#9a32cd" stroke-dasharray="5,2" d="M418.842,-858.134C451.433,-858.97 495.745,-854.522 524,-829 557.088,-799.113 579.253,-653.891 584.696,-614.74"/>
<polygon fill="#9a32cd" stroke="#9a32cd" points="418.849,-854.631 408.707,-857.697 418.547,-861.625 418.849,-854.631"/>
<text text-anchor="middle" x="491" y="-859" font-family="Arial" font-size="10.00"> async</text>
</g>
<!-- Node5 -->
<g id="node5" class="node"><title>Node5</title>
<g id="a_node5"><a xlink:href="struct_curl__dns__entry.html" target="_top" xlink:title="Curl_dns_entry">
<polygon fill="white" stroke="black" points="126,-816.5 126,-835.5 208,-835.5 208,-816.5 126,-816.5"/>
<text text-anchor="middle" x="167" y="-823.5" font-family="Arial" font-size="10.00">Curl_dns_entry</text>
</a>
</g>
</g>
<!-- Node5&#45;&gt;Node2 -->
<g id="edge46" class="edge"><title>Node5&#45;&gt;Node2</title>
<path fill="none" stroke="#9a32cd" stroke-dasharray="5,2" d="M218.226,-825.652C304.984,-824.051 478.054,-816.146 524,-779 576.869,-736.257 584.693,-644.98 585.82,-614.865"/>
<polygon fill="#9a32cd" stroke="#9a32cd" points="218.029,-822.155 208.088,-825.818 218.144,-829.154 218.029,-822.155"/>
<text text-anchor="middle" x="376" y="-824" font-family="Arial" font-size="10.00"> connect_addr</text>
</g>
<!-- Node5&#45;&gt;Node4 -->
<g id="edge4" class="edge"><title>Node5&#45;&gt;Node4</title>
<path fill="none" stroke="#9a32cd" stroke-dasharray="5,2" d="M218.509,-832.832C257.524,-838.11 310.296,-845.248 343.491,-849.738"/>
<polygon fill="#9a32cd" stroke="#9a32cd" points="218.782,-829.337 208.403,-831.465 217.844,-836.274 218.782,-829.337"/>
<text text-anchor="middle" x="264" y="-845" font-family="Arial" font-size="10.00"> dns</text>
</g>
<!-- Node6 -->
<g id="node6" class="node"><title>Node6</title>
<g id="a_node6"><a xlink:href="structssl__config__data.html" target="_top" xlink:title="ssl_config_data">
<polygon fill="white" stroke="black" points="334,-423.5 334,-442.5 418,-442.5 418,-423.5 334,-423.5"/>
<text text-anchor="middle" x="376" y="-430.5" font-family="Arial" font-size="10.00">ssl_config_data</text>
</a>
</g>
</g>
<!-- Node6&#45;&gt;Node2 -->
<g id="edge5" class="edge"><title>Node6&#45;&gt;Node2</title>
<path fill="none" stroke="#9a32cd" stroke-dasharray="5,2" d="M419.533,-445.392C461.475,-457.752 519.908,-475.405 524,-479 538.342,-491.6 533.691,-500.813 542,-518 555.703,-546.344 572.721,-579.427 581.003,-595.4"/>
<polygon fill="#9a32cd" stroke="#9a32cd" points="420.381,-441.993 409.799,-442.531 418.407,-448.709 420.381,-441.993"/>
<text text-anchor="middle" x="491" y="-482" font-family="Arial" font-size="10.00"> ssl_config</text>
</g>
<!-- Node14 -->
<g id="node14" class="node"><title>Node14</title>
<g id="a_node14"><a xlink:href="structcurl__ssl__session.html" target="_top" xlink:title="curl_ssl_session">
<polygon fill="white" stroke="black" points="542.5,-451.5 542.5,-470.5 631.5,-470.5 631.5,-451.5 542.5,-451.5"/>
<text text-anchor="middle" x="587" y="-458.5" font-family="Arial" font-size="10.00">curl_ssl_session</text>
</a>
</g>
</g>
<!-- Node6&#45;&gt;Node14 -->
<g id="edge15" class="edge"><title>Node6&#45;&gt;Node14</title>
<path fill="none" stroke="#9a32cd" stroke-dasharray="5,2" d="M428.199,-435.026C456.575,-436.687 492.405,-439.674 524,-445 533.646,-446.626 543.987,-449.025 553.405,-451.473"/>
<polygon fill="#9a32cd" stroke="#9a32cd" points="428.281,-431.525 418.104,-434.472 427.897,-438.515 428.281,-431.525"/>
<text text-anchor="middle" x="491" y="-448" font-family="Arial" font-size="10.00"> ssl_config</text>
</g>
<!-- Node19 -->
<g id="node19" class="node"><title>Node19</title>
<g id="a_node19"><a xlink:href="struct_user_defined.html" target="_top" xlink:title="UserDefined">
<polygon fill="white" stroke="black" points="748.5,-205.5 748.5,-224.5 817.5,-224.5 817.5,-205.5 748.5,-205.5"/>
<text text-anchor="middle" x="783" y="-212.5" font-family="Arial" font-size="10.00">UserDefined</text>
</a>
</g>
</g>
<!-- Node6&#45;&gt;Node19 -->
<g id="edge24" class="edge"><title>Node6&#45;&gt;Node19</title>
<path fill="none" stroke="#9a32cd" stroke-dasharray="5,2" d="M428.215,-428.402C515.958,-419.431 689.51,-396.548 730,-353 766.423,-313.826 717.547,-277.976 748,-234 750.618,-230.22 754.244,-227.107 758.158,-224.574"/>
<polygon fill="#9a32cd" stroke="#9a32cd" points="427.812,-424.925 418.21,-429.403 428.509,-431.89 427.812,-424.925"/>
<text text-anchor="middle" x="587" y="-417" font-family="Arial" font-size="10.00"> ssl</text>
</g>
<!-- Node7 -->
<g id="node7" class="node"><title>Node7</title>
<g id="a_node7"><a xlink:href="struct_curl__transfer__keeper.html" target="_top" xlink:title="Curl_transfer_keeper">
<polygon fill="white" stroke="black" points="323,-519.5 323,-538.5 429,-538.5 429,-519.5 323,-519.5"/>
<text text-anchor="middle" x="376" y="-526.5" font-family="Arial" font-size="10.00">Curl_transfer_keeper</text>
</a>
</g>
</g>
<!-- Node7&#45;&gt;Node2 -->
<g id="edge6" class="edge"><title>Node7&#45;&gt;Node2</title>
<path fill="none" stroke="#9a32cd" stroke-dasharray="5,2" d="M439.137,-538.778C465.938,-544.259 497.214,-552.389 524,-564 542.944,-572.211 562.427,-586.174 574.375,-595.492"/>
<polygon fill="#9a32cd" stroke="#9a32cd" points="439.591,-535.3 429.103,-536.805 438.24,-542.169 439.591,-535.3"/>
<text text-anchor="middle" x="491" y="-567" font-family="Arial" font-size="10.00"> keep</text>
</g>
<!-- Node8 -->
<g id="node8" class="node"><title>Node8</title>
<g id="a_node8"><a xlink:href="structtimeval.html" target="_top" xlink:title="timeval">
<polygon fill="white" stroke="black" points="143.5,-421.5 143.5,-440.5 190.5,-440.5 190.5,-421.5 143.5,-421.5"/>
<text text-anchor="middle" x="167" y="-428.5" font-family="Arial" font-size="10.00">timeval</text>
</a>
</g>
</g>
<!-- Node8&#45;&gt;Node2 -->
<g id="edge45" class="edge"><title>Node8&#45;&gt;Node2</title>
<path fill="none" stroke="#9a32cd" stroke-dasharray="5,2" d="M200.691,-436.387C263.039,-446.9 396.593,-470.641 440,-488 480.769,-504.304 489.904,-512.334 524,-540 545.556,-557.491 567.11,-582.083 578.244,-595.446"/>
<polygon fill="#9a32cd" stroke="#9a32cd" points="201.058,-432.9 190.617,-434.699 199.901,-439.803 201.058,-432.9"/>
<text text-anchor="middle" x="376" y="-502" font-family="Arial" font-size="10.00"> created</text>
<text text-anchor="middle" x="376" y="-491" font-family="Arial" font-size="10.00">now</text>
</g>
<!-- Node8&#45;&gt;Node7 -->
<g id="edge7" class="edge"><title>Node8&#45;&gt;Node7</title>
<path fill="none" stroke="#9a32cd" stroke-dasharray="5,2" d="M182.175,-448.514C194.461,-462.557 213.458,-481.722 234,-493 261.351,-508.015 295.128,-516.922 322.765,-522.119"/>
<polygon fill="#9a32cd" stroke="#9a32cd" points="184.568,-445.924 175.438,-440.548 179.223,-450.444 184.568,-445.924"/>
<text text-anchor="middle" x="264" y="-541" font-family="Arial" font-size="10.00"> start</text>
<text text-anchor="middle" x="264" y="-530" font-family="Arial" font-size="10.00">start100</text>
<text text-anchor="middle" x="264" y="-519" font-family="Arial" font-size="10.00">now</text>
</g>
<!-- Node8&#45;&gt;Node13 -->
<g id="edge17" class="edge"><title>Node8&#45;&gt;Node13</title>
<path fill="none" stroke="#9a32cd" stroke-dasharray="5,2" d="M200.466,-421.896C276.711,-401.906 472.794,-358.598 632,-393 684.262,-404.293 740.21,-435.371 766.573,-451.304"/>
<polygon fill="#9a32cd" stroke="#9a32cd" points="199.278,-418.59 190.519,-424.551 201.083,-425.354 199.278,-418.59"/>
<text text-anchor="middle" x="491" y="-384" font-family="Arial" font-size="10.00"> keeps_speed</text>
</g>
<!-- Node22 -->
<g id="node22" class="node"><title>Node22</title>
<g id="a_node22"><a xlink:href="struct_progress.html" target="_top" xlink:title="Progress">
<polygon fill="white" stroke="black" points="463,-328.5 463,-347.5 519,-347.5 519,-328.5 463,-328.5"/>
<text text-anchor="middle" x="491" y="-335.5" font-family="Arial" font-size="10.00">Progress</text>
</a>
</g>
</g>
<!-- Node8&#45;&gt;Node22 -->
<g id="edge31" class="edge"><title>Node8&#45;&gt;Node22</title>
<path fill="none" stroke="#9a32cd" stroke-dasharray="5,2" d="M174.816,-412.079C184.185,-389.26 203.443,-351.979 234,-336 273.091,-315.559 405.475,-328.02 462.973,-334.649"/>
<polygon fill="#9a32cd" stroke="#9a32cd" points="171.547,-410.829 171.202,-421.418 178.075,-413.355 171.547,-410.829"/>
<text text-anchor="middle" x="264" y="-361" font-family="Arial" font-size="10.00"> t_startsingle</text>
<text text-anchor="middle" x="264" y="-350" font-family="Arial" font-size="10.00">start</text>
<text text-anchor="middle" x="264" y="-339" font-family="Arial" font-size="10.00">speeder_time</text>
</g>
<!-- Node9 -->
<g id="node9" class="node"><title>Node9</title>
<g id="a_node9"><a xlink:href="struct_session_handle.html" target="_top" xlink:title="SessionHandle">
<polygon fill="white" stroke="black" points="906,-243.5 906,-262.5 988,-262.5 988,-243.5 906,-243.5"/>
<text text-anchor="middle" x="947" y="-250.5" font-family="Arial" font-size="10.00">SessionHandle</text>
</a>
</g>
</g>
<!-- Node9&#45;&gt;Node1 -->
<g id="edge51" class="edge"><title>Node9&#45;&gt;Node1</title>
<path fill="none" stroke="#9a32cd" stroke-dasharray="5,2" d="M998.665,-253C1025.36,-253 1057.63,-253 1082.46,-253"/>
<polygon fill="#9a32cd" stroke="#9a32cd" points="998.356,-249.5 988.356,-253 998.356,-256.5 998.356,-249.5"/>
<text text-anchor="middle" x="1035" y="-256" font-family="Arial" font-size="10.00"> easy_handle</text>
</g>
<!-- Node9&#45;&gt;Node2 -->
<g id="edge8" class="edge"><title>Node9&#45;&gt;Node2</title>
<path fill="none" stroke="#9a32cd" stroke-dasharray="5,2" d="M943.267,-272.501C937.734,-306.42 922.659,-377.308 888,-426 819.769,-521.857 682.667,-575.227 620.26,-595.455"/>
<polygon fill="#9a32cd" stroke="#9a32cd" points="946.744,-272.914 944.792,-262.5 939.824,-271.858 946.744,-272.914"/>
<text text-anchor="middle" x="783" y="-542" font-family="Arial" font-size="10.00"> data</text>
</g>
<!-- Node10 -->
<g id="node10" class="node"><title>Node10</title>
<g id="a_node10"><a xlink:href="struct_cookie_info.html" target="_top" xlink:title="CookieInfo">
<polygon fill="white" stroke="black" points="556,-290.5 556,-309.5 618,-309.5 618,-290.5 556,-290.5"/>
<text text-anchor="middle" x="587" y="-297.5" font-family="Arial" font-size="10.00">CookieInfo</text>
</a>
</g>
</g>
<!-- Node10&#45;&gt;Node9 -->
<g id="edge9" class="edge"><title>Node10&#45;&gt;Node9</title>
<path fill="none" stroke="#9a32cd" stroke-dasharray="5,2" d="M628.187,-297.595C685.998,-293.711 795.82,-284.743 888,-268 895.982,-266.55 904.484,-264.591 912.449,-262.568"/>
<polygon fill="#9a32cd" stroke="#9a32cd" points="627.764,-294.115 618.014,-298.262 628.221,-301.1 627.764,-294.115"/>
<text text-anchor="middle" x="783" y="-290" font-family="Arial" font-size="10.00"> cookies</text>
</g>
<!-- Node23 -->
<g id="node23" class="node"><title>Node23</title>
<g id="a_node23"><a xlink:href="struct_curl__share.html" target="_top" xlink:title="Curl_share">
<polygon fill="white" stroke="black" points="751.5,-167.5 751.5,-186.5 814.5,-186.5 814.5,-167.5 751.5,-167.5"/>
<text text-anchor="middle" x="783" y="-174.5" font-family="Arial" font-size="10.00">Curl_share</text>
</a>
</g>
</g>
<!-- Node10&#45;&gt;Node23 -->
<g id="edge33" class="edge"><title>Node10&#45;&gt;Node23</title>
<path fill="none" stroke="#9a32cd" stroke-dasharray="5,2" d="M615.604,-285.517C621.096,-282.476 626.778,-279.213 632,-276 685.341,-243.183 694.828,-229.09 748,-196 753.167,-192.785 758.903,-189.482 764.17,-186.55"/>
<polygon fill="#9a32cd" stroke="#9a32cd" points="613.771,-282.53 606.655,-290.379 617.113,-288.681 613.771,-282.53"/>
<text text-anchor="middle" x="690" y="-267" font-family="Arial" font-size="10.00"> cookies</text>
</g>
<!-- Node11 -->
<g id="node11" class="node"><title>Node11</title>
<g id="a_node11"><a xlink:href="struct_cookie.html" target="_top" xlink:title="Cookie">
<polygon fill="white" stroke="black" points="352.5,-258.5 352.5,-277.5 399.5,-277.5 399.5,-258.5 352.5,-258.5"/>
<text text-anchor="middle" x="376" y="-265.5" font-family="Arial" font-size="10.00">Cookie</text>
</a>
</g>
</g>
<!-- Node11&#45;&gt;Node10 -->
<g id="edge10" class="edge"><title>Node11&#45;&gt;Node10</title>
<path fill="none" stroke="#9a32cd" stroke-dasharray="5,2" d="M409.815,-273.024C449.876,-279.158 517.068,-289.446 555.869,-295.387"/>
<polygon fill="#9a32cd" stroke="#9a32cd" points="410.179,-269.539 399.765,-271.485 409.12,-276.459 410.179,-269.539"/>
<text text-anchor="middle" x="491" y="-293" font-family="Arial" font-size="10.00"> cookies</text>
</g>
<!-- Node11&#45;&gt;Node11 -->
<g id="edge11" class="edge"><title>Node11&#45;&gt;Node11</title>
<path fill="none" stroke="#9a32cd" stroke-dasharray="5,2" d="M355.26,-287.4C356.645,-292.315 363.559,-296 376,-296 395.906,-296 401.66,-286.565 393.262,-277.757"/>
<polygon fill="#9a32cd" stroke="#9a32cd" points="358.638,-288.351 358.738,-277.757 352.053,-285.977 358.638,-288.351"/>
<text text-anchor="middle" x="376" y="-299" font-family="Arial" font-size="10.00"> next</text>
</g>
<!-- Node12 -->
<g id="node12" class="node"><title>Node12</title>
<g id="a_node12"><a xlink:href="struct_pure_info.html" target="_top" xlink:title="PureInfo">
<polygon fill="white" stroke="black" points="757,-243.5 757,-262.5 809,-262.5 809,-243.5 757,-243.5"/>
<text text-anchor="middle" x="783" y="-250.5" font-family="Arial" font-size="10.00">PureInfo</text>
</a>
</g>
</g>
<!-- Node12&#45;&gt;Node9 -->
<g id="edge12" class="edge"><title>Node12&#45;&gt;Node9</title>
<path fill="none" stroke="#9a32cd" stroke-dasharray="5,2" d="M819.627,-253C845.066,-253 879.319,-253 905.747,-253"/>
<polygon fill="#9a32cd" stroke="#9a32cd" points="819.313,-249.5 809.313,-253 819.312,-256.5 819.313,-249.5"/>
<text text-anchor="middle" x="862" y="-256" font-family="Arial" font-size="10.00"> info</text>
</g>
<!-- Node13&#45;&gt;Node9 -->
<g id="edge13" class="edge"><title>Node13&#45;&gt;Node9</title>
<path fill="none" stroke="#9a32cd" stroke-dasharray="5,2" d="M802.167,-444.473C824.046,-424.03 861.195,-387.558 888,-352 911.022,-321.459 932.136,-281.042 941.254,-262.742"/>
<polygon fill="#9a32cd" stroke="#9a32cd" points="799.547,-442.128 794.582,-451.488 804.3,-447.267 799.547,-442.128"/>
<text text-anchor="middle" x="862" y="-414" font-family="Arial" font-size="10.00"> state</text>
</g>
<!-- Node14&#45;&gt;Node13 -->
<g id="edge14" class="edge"><title>Node14&#45;&gt;Node13</title>
<path fill="none" stroke="#9a32cd" stroke-dasharray="5,2" d="M641.842,-461C679.492,-461 728.037,-461 756.996,-461"/>
<polygon fill="#9a32cd" stroke="#9a32cd" points="641.537,-457.5 631.537,-461 641.537,-464.5 641.537,-457.5"/>
<text text-anchor="middle" x="690" y="-464" font-family="Arial" font-size="10.00"> session</text>
</g>
<!-- Node15 -->
<g id="node15" class="node"><title>Node15</title>
<g id="a_node15"><a xlink:href="structdigestdata.html" target="_top" xlink:title="digestdata">
<polygon fill="white" stroke="black" points="556,-489.5 556,-508.5 618,-508.5 618,-489.5 556,-489.5"/>
<text text-anchor="middle" x="587" y="-496.5" font-family="Arial" font-size="10.00">digestdata</text>
</a>
</g>
</g>
<!-- Node15&#45;&gt;Node13 -->
<g id="edge18" class="edge"><title>Node15&#45;&gt;Node13</title>
<path fill="none" stroke="#9a32cd" stroke-dasharray="5,2" d="M628.136,-493.812C656.711,-489.8 695.926,-483.645 730,-476 738.801,-474.025 748.314,-471.422 756.767,-468.94"/>
<polygon fill="#9a32cd" stroke="#9a32cd" points="627.548,-490.36 618.119,-495.192 628.503,-497.295 627.548,-490.36"/>
<text text-anchor="middle" x="690" y="-494" font-family="Arial" font-size="10.00"> digest</text>
</g>
<!-- Node16 -->
<g id="node16" class="node"><title>Node16</title>
<g id="a_node16"><a xlink:href="struct__curl__hash.html" target="_top" xlink:title="_curl_hash">
<polygon fill="white" stroke="black" points="555,-34.5 555,-53.5 619,-53.5 619,-34.5 555,-34.5"/>
<text text-anchor="middle" x="587" y="-41.5" font-family="Arial" font-size="10.00">_curl_hash</text>
</a>
</g>
</g>
<!-- Node16&#45;&gt;Node9 -->
<g id="edge19" class="edge"><title>Node16&#45;&gt;Node9</title>
<path fill="none" stroke="#9a32cd" stroke-dasharray="5,2" d="M629.561,-46.0846C677.201,-49.852 756.613,-60.4141 818,-90 853.891,-107.298 862.443,-115.435 888,-146 914.566,-177.772 934.451,-223.615 942.313,-243.358"/>
<polygon fill="#9a32cd" stroke="#9a32cd" points="629.546,-42.5744 619.319,-45.3412 629.039,-49.556 629.546,-42.5744"/>
<text text-anchor="middle" x="783" y="-93" font-family="Arial" font-size="10.00"> hostcache</text>
</g>
<!-- Node16&#45;&gt;Node23 -->
<g id="edge34" class="edge"><title>Node16&#45;&gt;Node23</title>
<path fill="none" stroke="#9a32cd" stroke-dasharray="5,2" d="M605.362,-60.5468C617.129,-70.9384 633.492,-83.8672 650,-92 682.976,-108.246 699.286,-92.8014 730,-113 740.845,-120.132 739.856,-125.892 748,-136 756.702,-146.801 766.88,-159.021 773.816,-167.289"/>
<polygon fill="#9a32cd" stroke="#9a32cd" points="607.417,-57.6843 597.669,-53.5334 602.701,-62.8572 607.417,-57.6843"/>
<text text-anchor="middle" x="690" y="-116" font-family="Arial" font-size="10.00"> hostcache</text>
</g>
<!-- Node17 -->
<g id="node17" class="node"><title>Node17</title>
<g id="a_node17"><a xlink:href="struct__curl__llist.html" target="_top" xlink:title="_curl_llist">
<polygon fill="white" stroke="black" points="347,-34.5 347,-53.5 405,-53.5 405,-34.5 347,-34.5"/>
<text text-anchor="middle" x="376" y="-41.5" font-family="Arial" font-size="10.00">_curl_llist</text>
</a>
</g>
</g>
<!-- Node17&#45;&gt;Node16 -->
<g id="edge20" class="edge"><title>Node17&#45;&gt;Node16</title>
<path fill="none" stroke="#9a32cd" stroke-dasharray="5,2" d="M415.38,-44C455.498,-44 517.682,-44 554.862,-44"/>
<polygon fill="#9a32cd" stroke="#9a32cd" points="415.187,-40.5001 405.187,-44 415.187,-47.5001 415.187,-40.5001"/>
<text text-anchor="middle" x="491" y="-47" font-family="Arial" font-size="10.00"> table</text>
</g>
<!-- Node18 -->
<g id="node18" class="node"><title>Node18</title>
<g id="a_node18"><a xlink:href="struct__curl__llist__element.html" target="_top" xlink:title="_curl_llist_element">
<polygon fill="white" stroke="black" points="118,-34.5 118,-53.5 216,-53.5 216,-34.5 118,-34.5"/>
<text text-anchor="middle" x="167" y="-41.5" font-family="Arial" font-size="10.00">_curl_llist_element</text>
</a>
</g>
</g>
<!-- Node18&#45;&gt;Node17 -->
<g id="edge21" class="edge"><title>Node18&#45;&gt;Node17</title>
<path fill="none" stroke="#9a32cd" stroke-dasharray="5,2" d="M226.057,-44C265.564,-44 316.093,-44 346.975,-44"/>
<polygon fill="#9a32cd" stroke="#9a32cd" points="226.01,-40.5001 216.01,-44 226.01,-47.5001 226.01,-40.5001"/>
<text text-anchor="middle" x="264" y="-58" font-family="Arial" font-size="10.00"> head</text>
<text text-anchor="middle" x="264" y="-47" font-family="Arial" font-size="10.00">tail</text>
</g>
<!-- Node18&#45;&gt;Node18 -->
<g id="edge22" class="edge"><title>Node18&#45;&gt;Node18</title>
<path fill="none" stroke="#9a32cd" stroke-dasharray="5,2" d="M152.636,-63.7663C153.764,-68.4965 158.552,-72 167,-72 180.863,-72 184.871,-62.5653 179.022,-53.7571"/>
<polygon fill="#9a32cd" stroke="#9a32cd" points="156.107,-64.2915 154.978,-53.7571 149.292,-62.6966 156.107,-64.2915"/>
<text text-anchor="middle" x="167" y="-86" font-family="Arial" font-size="10.00"> prev</text>
<text text-anchor="middle" x="167" y="-75" font-family="Arial" font-size="10.00">next</text>
</g>
<!-- Node19&#45;&gt;Node9 -->
<g id="edge23" class="edge"><title>Node19&#45;&gt;Node9</title>
<path fill="none" stroke="#9a32cd" stroke-dasharray="5,2" d="M827.754,-224.316C846.361,-228.371 868.276,-233.27 888,-238 895.08,-239.698 902.624,-241.589 909.85,-243.44"/>
<polygon fill="#9a32cd" stroke="#9a32cd" points="828.307,-220.854 817.793,-222.156 826.824,-227.696 828.307,-220.854"/>
<text text-anchor="middle" x="862" y="-241" font-family="Arial" font-size="10.00"> set</text>
</g>
<!-- Node20 -->
<g id="node20" class="node"><title>Node20</title>
<g id="a_node20"><a xlink:href="structcurl__httppost.html" target="_top" xlink:title="curl_httppost">
<polygon fill="white" stroke="black" points="550.5,-110.5 550.5,-129.5 623.5,-129.5 623.5,-110.5 550.5,-110.5"/>
<text text-anchor="middle" x="587" y="-117.5" font-family="Arial" font-size="10.00">curl_httppost</text>
</a>
</g>
</g>
<!-- Node20&#45;&gt;Node19 -->
<g id="edge25" class="edge"><title>Node20&#45;&gt;Node19</title>
<path fill="none" stroke="#9a32cd" stroke-dasharray="5,2" d="M634,-124.587C669.781,-129.014 715.677,-136.856 730,-149 747.061,-163.466 733.361,-179.087 748,-196 751.186,-199.681 755.27,-202.795 759.494,-205.368"/>
<polygon fill="#9a32cd" stroke="#9a32cd" points="634.081,-121.072 623.739,-123.374 633.259,-128.024 634.081,-121.072"/>
<text text-anchor="middle" x="690" y="-152" font-family="Arial" font-size="10.00"> httppost</text>
</g>
<!-- Node20&#45;&gt;Node20 -->
<g id="edge26" class="edge"><title>Node20&#45;&gt;Node20</title>
<path fill="none" stroke="#9a32cd" stroke-dasharray="5,2" d="M569.223,-139.4C570.41,-144.315 576.336,-148 587,-148 604.063,-148 608.995,-138.565 601.796,-129.757"/>
<polygon fill="#9a32cd" stroke="#9a32cd" points="572.594,-140.345 572.204,-129.757 565.907,-138.278 572.594,-140.345"/>
<text text-anchor="middle" x="587" y="-162" font-family="Arial" font-size="10.00"> next</text>
<text text-anchor="middle" x="587" y="-151" font-family="Arial" font-size="10.00">more</text>
</g>
<!-- Node21 -->
<g id="node21" class="node"><title>Node21</title>
<g id="a_node21"><a xlink:href="structcurl__slist.html" target="_top" xlink:title="curl_slist">
<polygon fill="white" stroke="black" points="348,-110.5 348,-129.5 404,-129.5 404,-110.5 348,-110.5"/>
<text text-anchor="middle" x="376" y="-117.5" font-family="Arial" font-size="10.00">curl_slist</text>
</a>
</g>
</g>
<!-- Node21&#45;&gt;Node19 -->
<g id="edge29" class="edge"><title>Node21&#45;&gt;Node19</title>
<path fill="none" stroke="#9a32cd" stroke-dasharray="5,2" d="M408.763,-133.449C441.575,-146.842 494.538,-167.076 542,-179 614.327,-197.172 701.37,-207.425 748.203,-212.023"/>
<polygon fill="#9a32cd" stroke="#9a32cd" points="409.835,-130.105 399.256,-129.529 407.167,-136.577 409.835,-130.105"/>
<text text-anchor="middle" x="587" y="-255" font-family="Arial" font-size="10.00"> headers</text>
<text text-anchor="middle" x="587" y="-244" font-family="Arial" font-size="10.00">prequote</text>
<text text-anchor="middle" x="587" y="-233" font-family="Arial" font-size="10.00">telnet_options</text>
<text text-anchor="middle" x="587" y="-222" font-family="Arial" font-size="10.00">postquote</text>
<text text-anchor="middle" x="587" y="-211" font-family="Arial" font-size="10.00">quote</text>
<text text-anchor="middle" x="587" y="-200" font-family="Arial" font-size="10.00">http200aliases</text>
</g>
<!-- Node21&#45;&gt;Node20 -->
<g id="edge27" class="edge"><title>Node21&#45;&gt;Node20</title>
<path fill="none" stroke="#9a32cd" stroke-dasharray="5,2" d="M414.59,-120C453.081,-120 512.473,-120 550.272,-120"/>
<polygon fill="#9a32cd" stroke="#9a32cd" points="414.323,-116.5 404.323,-120 414.323,-123.5 414.323,-116.5"/>
<text text-anchor="middle" x="491" y="-123" font-family="Arial" font-size="10.00"> contentheader</text>
</g>
<!-- Node21&#45;&gt;Node21 -->
<g id="edge28" class="edge"><title>Node21&#45;&gt;Node21</title>
<path fill="none" stroke="#9a32cd" stroke-dasharray="5,2" d="M355.26,-139.4C356.645,-144.315 363.559,-148 376,-148 395.906,-148 401.66,-138.565 393.262,-129.757"/>
<polygon fill="#9a32cd" stroke="#9a32cd" points="358.638,-140.351 358.738,-129.757 352.053,-137.977 358.638,-140.351"/>
<text text-anchor="middle" x="376" y="-151" font-family="Arial" font-size="10.00"> next</text>
</g>
<!-- Node24 -->
<g id="node24" class="node"><title>Node24</title>
<g id="a_node24"><a xlink:href="struct_dynamic_static.html" target="_top" xlink:title="DynamicStatic">
<polygon fill="white" stroke="black" points="650,-71.5 650,-90.5 730,-90.5 730,-71.5 650,-71.5"/>
<text text-anchor="middle" x="690" y="-78.5" font-family="Arial" font-size="10.00">DynamicStatic</text>
</a>
</g>
</g>
<!-- Node21&#45;&gt;Node24 -->
<g id="edge36" class="edge"><title>Node21&#45;&gt;Node24</title>
<path fill="none" stroke="#9a32cd" stroke-dasharray="5,2" d="M414.319,-112.447C428.017,-109.844 443.675,-107.067 458,-105 525.043,-95.3252 603.576,-88.0126 649.645,-84.1285"/>
<polygon fill="#9a32cd" stroke="#9a32cd" points="413.434,-109.053 404.281,-114.388 414.763,-115.926 413.434,-109.053"/>
<text text-anchor="middle" x="491" y="-108" font-family="Arial" font-size="10.00"> cookielist</text>
</g>
<!-- Node22&#45;&gt;Node9 -->
<g id="edge30" class="edge"><title>Node22&#45;&gt;Node9</title>
<path fill="none" stroke="#9a32cd" stroke-dasharray="5,2" d="M529.422,-335.106C590.208,-330.128 714.07,-318.83 818,-302 849.408,-296.914 858.343,-298.525 888,-287 904.102,-280.743 920.971,-270.357 932.339,-262.707"/>
<polygon fill="#9a32cd" stroke="#9a32cd" points="528.859,-331.64 519.173,-335.934 529.423,-338.617 528.859,-331.64"/>
<text text-anchor="middle" x="690" y="-327" font-family="Arial" font-size="10.00"> progress</text>
</g>
<!-- Node23&#45;&gt;Node9 -->
<g id="edge32" class="edge"><title>Node23&#45;&gt;Node9</title>
<path fill="none" stroke="#9a32cd" stroke-dasharray="5,2" d="M824.154,-187.535C843.93,-193.461 867.803,-201.741 888,-212 905.371,-220.824 923.393,-234.373 934.646,-243.454"/>
<polygon fill="#9a32cd" stroke="#9a32cd" points="825.099,-184.165 814.519,-184.735 823.145,-190.887 825.099,-184.165"/>
<text text-anchor="middle" x="862" y="-215" font-family="Arial" font-size="10.00"> share</text>
</g>
<!-- Node24&#45;&gt;Node9 -->
<g id="edge35" class="edge"><title>Node24&#45;&gt;Node9</title>
<path fill="none" stroke="#9a32cd" stroke-dasharray="5,2" d="M729.078,-94.5723C729.387,-94.7143 729.695,-94.8569 730,-95 803.781,-129.584 825.007,-136.314 888,-188 908.812,-205.076 928.723,-229.831 938.924,-243.33"/>
<polygon fill="#9a32cd" stroke="#9a32cd" points="730.365,-91.3161 719.791,-90.6409 727.636,-97.7623 730.365,-91.3161"/>
<text text-anchor="middle" x="783" y="-141" font-family="Arial" font-size="10.00"> change</text>
</g>
<!-- Node25 -->
<g id="node25" class="node"><title>Node25</title>
<g id="a_node25"><a xlink:href="structconnectdata_1_1dynamically__allocated__data.html" target="_top" xlink:title="connectdata::dynamically\l_allocated_data">
<polygon fill="white" stroke="black" points="312,-748 312,-778 440,-778 440,-748 312,-748"/>
<text text-anchor="start" x="320" y="-766" font-family="Arial" font-size="10.00">connectdata::dynamically</text>
<text text-anchor="middle" x="376" y="-755" font-family="Arial" font-size="10.00">_allocated_data</text>
</a>
</g>
</g>
<!-- Node25&#45;&gt;Node2 -->
<g id="edge37" class="edge"><title>Node25&#45;&gt;Node2</title>
<path fill="none" stroke="#9a32cd" stroke-dasharray="5,2" d="M450.125,-765.859C475.631,-763.489 503.078,-756.767 524,-741 566.69,-708.829 580.822,-640.37 584.714,-614.856"/>
<polygon fill="#9a32cd" stroke="#9a32cd" points="449.812,-762.373 440.09,-766.584 450.317,-769.354 449.812,-762.373"/>
<text text-anchor="middle" x="491" y="-767" font-family="Arial" font-size="10.00"> allocptr</text>
</g>
<!-- Node26 -->
<g id="node26" class="node"><title>Node26</title>
<g id="a_node26"><a xlink:href="struct_h_t_t_p.html" target="_top" xlink:title="HTTP">
<polygon fill="white" stroke="black" points="355.5,-709.5 355.5,-728.5 396.5,-728.5 396.5,-709.5 355.5,-709.5"/>
<text text-anchor="middle" x="376" y="-716.5" font-family="Arial" font-size="10.00">HTTP</text>
</a>
</g>
</g>
<!-- Node26&#45;&gt;Node2 -->
<g id="edge38" class="edge"><title>Node26&#45;&gt;Node2</title>
<path fill="none" stroke="#9a32cd" stroke-dasharray="5,2" d="M406.869,-716.475C438.192,-712.654 487.802,-703.185 524,-680 550.603,-662.961 571.423,-630.796 580.713,-614.695"/>
<polygon fill="#9a32cd" stroke="#9a32cd" points="406.161,-713.032 396.604,-717.605 406.927,-719.99 406.161,-713.032"/>
<text text-anchor="middle" x="491" y="-732" font-family="Arial" font-size="10.00"> https</text>
<text text-anchor="middle" x="491" y="-721" font-family="Arial" font-size="10.00">http</text>
<text text-anchor="middle" x="491" y="-710" font-family="Arial" font-size="10.00">gopher</text>
</g>
<!-- Node27 -->
<g id="node27" class="node"><title>Node27</title>
<g id="a_node27"><a xlink:href="struct_form.html" target="_top" xlink:title="Form">
<polygon fill="white" stroke="black" points="147.5,-768.5 147.5,-787.5 186.5,-787.5 186.5,-768.5 147.5,-768.5"/>
<text text-anchor="middle" x="167" y="-775.5" font-family="Arial" font-size="10.00">Form</text>
</a>
</g>
</g>
<!-- Node27&#45;&gt;Node26 -->
<g id="edge39" class="edge"><title>Node27&#45;&gt;Node26</title>
<path fill="none" stroke="#9a32cd" stroke-dasharray="5,2" d="M196.665,-773.124C222.566,-768.264 261.495,-759.817 294,-748 302.406,-744.944 303.712,-742.363 312,-739 326.248,-733.218 342.842,-728.009 355.421,-724.358"/>
<polygon fill="#9a32cd" stroke="#9a32cd" points="195.964,-769.694 186.753,-774.929 197.218,-776.581 195.964,-769.694"/>
<text text-anchor="middle" x="264" y="-767" font-family="Arial" font-size="10.00"> form</text>
</g>
<!-- Node28 -->
<g id="node28" class="node"><title>Node28</title>
<g id="a_node28"><a xlink:href="struct_form_data.html" target="_top" xlink:title="FormData">
<polygon fill="white" stroke="black" points="0.5,-690.5 0.5,-709.5 59.5,-709.5 59.5,-690.5 0.5,-690.5"/>
<text text-anchor="middle" x="30" y="-697.5" font-family="Arial" font-size="10.00">FormData</text>
</a>
</g>
</g>
<!-- Node28&#45;&gt;Node26 -->
<g id="edge42" class="edge"><title>Node28&#45;&gt;Node26</title>
<path fill="none" stroke="#9a32cd" stroke-dasharray="5,2" d="M63.629,-686.834C79.7111,-681.036 99.5669,-674.893 118,-672 161.029,-665.246 172.893,-665.762 216,-672 219.543,-672.513 313.656,-700.629 355.39,-713.124"/>
<polygon fill="#9a32cd" stroke="#9a32cd" points="62.298,-683.594 54.1497,-690.366 64.7425,-690.154 62.298,-683.594"/>
<text text-anchor="middle" x="167" y="-675" font-family="Arial" font-size="10.00"> sendit</text>
</g>
<!-- Node28&#45;&gt;Node27 -->
<g id="edge40" class="edge"><title>Node28&#45;&gt;Node27</title>
<path fill="none" stroke="#9a32cd" stroke-dasharray="5,2" d="M51.5792,-715.856C68.717,-728.586 94.0953,-746.359 118,-759 127.349,-763.944 138.278,-768.367 147.343,-771.699"/>
<polygon fill="#9a32cd" stroke="#9a32cd" points="53.5139,-712.932 43.4198,-709.713 49.3035,-718.524 53.5139,-712.932"/>
<text text-anchor="middle" x="89" y="-750" font-family="Arial" font-size="10.00"> data</text>
</g>
<!-- Node28&#45;&gt;Node28 -->
<g id="edge41" class="edge"><title>Node28&#45;&gt;Node28</title>
<path fill="none" stroke="#9a32cd" stroke-dasharray="5,2" d="M19.3189,-719.766C20.1578,-724.497 23.7182,-728 30,-728 40.3086,-728 43.2884,-718.565 38.9395,-709.757"/>
<polygon fill="#9a32cd" stroke="#9a32cd" points="22.7944,-720.209 21.0605,-709.757 15.898,-719.009 22.7944,-720.209"/>
<text text-anchor="middle" x="30" y="-731" font-family="Arial" font-size="10.00"> next</text>
</g>
<!-- Node29 -->
<g id="node29" class="node"><title>Node29</title>
<g id="a_node29"><a xlink:href="struct_h_t_t_p_1_1back.html" target="_top" xlink:title="HTTP::back">
<polygon fill="white" stroke="black" points="133,-730.5 133,-749.5 201,-749.5 201,-730.5 133,-730.5"/>
<text text-anchor="middle" x="167" y="-737.5" font-family="Arial" font-size="10.00">HTTP::back</text>
</a>
</g>
</g>
<!-- Node29&#45;&gt;Node26 -->
<g id="edge43" class="edge"><title>Node29&#45;&gt;Node26</title>
<path fill="none" stroke="#9a32cd" stroke-dasharray="5,2" d="M211.443,-735.593C255.709,-731.102 322.383,-724.338 355.25,-721.004"/>
<polygon fill="#9a32cd" stroke="#9a32cd" points="210.854,-732.134 201.258,-736.626 211.56,-739.099 210.854,-732.134"/>
<text text-anchor="middle" x="264" y="-736" font-family="Arial" font-size="10.00"> backup</text>
</g>
<!-- Node30 -->
<g id="node30" class="node"><title>Node30</title>
<g id="a_node30"><a xlink:href="struct_curl__chunker.html" target="_top" xlink:title="Curl_chunker">
<polygon fill="white" stroke="black" points="130,-692.5 130,-711.5 204,-711.5 204,-692.5 130,-692.5"/>
<text text-anchor="middle" x="167" y="-699.5" font-family="Arial" font-size="10.00">Curl_chunker</text>
</a>
</g>
</g>
<!-- Node30&#45;&gt;Node26 -->
<g id="edge44" class="edge"><title>Node30&#45;&gt;Node26</title>
<path fill="none" stroke="#9a32cd" stroke-dasharray="5,2" d="M214.369,-702.65C238.207,-703.286 267.703,-704.537 294,-707 315.09,-708.975 339.069,-712.716 355.43,-715.498"/>
<polygon fill="#9a32cd" stroke="#9a32cd" points="214.267,-699.147 204.186,-702.406 214.1,-706.145 214.267,-699.147"/>
<text text-anchor="middle" x="264" y="-710" font-family="Arial" font-size="10.00"> chunk</text>
</g>
<!-- Node31 -->
<g id="node31" class="node"><title>Node31</title>
<g id="a_node31"><a xlink:href="struct_connect_bits.html" target="_top" xlink:title="ConnectBits">
<polygon fill="white" stroke="black" points="341,-671.5 341,-690.5 411,-690.5 411,-671.5 341,-671.5"/>
<text text-anchor="middle" x="376" y="-678.5" font-family="Arial" font-size="10.00">ConnectBits</text>
</a>
</g>
</g>
<!-- Node31&#45;&gt;Node2 -->
<g id="edge47" class="edge"><title>Node31&#45;&gt;Node2</title>
<path fill="none" stroke="#9a32cd" stroke-dasharray="5,2" d="M421.36,-673.619C451.16,-667.755 490.882,-658.16 524,-644 542.24,-636.201 561.273,-623.425 573.359,-614.634"/>
<polygon fill="#9a32cd" stroke="#9a32cd" points="420.431,-670.232 411.261,-675.538 421.739,-677.109 420.431,-670.232"/>
<text text-anchor="middle" x="491" y="-668" font-family="Arial" font-size="10.00"> bits</text>
</g>
<!-- Node32 -->
<g id="node32" class="node"><title>Node32</title>
<g id="a_node32"><a xlink:href="struct_f_i_l_e_p_r_o_t_o.html" target="_top" xlink:title="FILEPROTO">
<polygon fill="white" stroke="black" points="340.5,-633.5 340.5,-652.5 411.5,-652.5 411.5,-633.5 340.5,-633.5"/>
<text text-anchor="middle" x="376" y="-640.5" font-family="Arial" font-size="10.00">FILEPROTO</text>
</a>
</g>
</g>
<!-- Node32&#45;&gt;Node2 -->
<g id="edge48" class="edge"><title>Node32&#45;&gt;Node2</title>
<path fill="none" stroke="#9a32cd" stroke-dasharray="5,2" d="M421.662,-635.293C450.815,-630.215 489.692,-623.354 524,-617 533.055,-615.323 542.844,-613.454 551.909,-611.701"/>
<polygon fill="#9a32cd" stroke="#9a32cd" points="421.032,-631.85 411.779,-637.011 422.231,-638.747 421.032,-631.85"/>
<text text-anchor="middle" x="491" y="-632" font-family="Arial" font-size="10.00"> file</text>
</g>
<!-- Node33 -->
<g id="node33" class="node"><title>Node33</title>
<g id="a_node33"><a xlink:href="struct_f_t_p.html" target="_top" xlink:title="FTP">
<polygon fill="white" stroke="black" points="358.5,-595.5 358.5,-614.5 393.5,-614.5 393.5,-595.5 358.5,-595.5"/>
<text text-anchor="middle" x="376" y="-602.5" font-family="Arial" font-size="10.00">FTP</text>
</a>
</g>
</g>
<!-- Node33&#45;&gt;Node2 -->
<g id="edge49" class="edge"><title>Node33&#45;&gt;Node2</title>
<path fill="none" stroke="#9a32cd" stroke-dasharray="5,2" d="M403.981,-605C441.77,-605 510.453,-605 551.787,-605"/>
<polygon fill="#9a32cd" stroke="#9a32cd" points="403.75,-601.5 393.75,-605 403.75,-608.5 403.75,-601.5"/>
<text text-anchor="middle" x="491" y="-608" font-family="Arial" font-size="10.00"> ftp</text>
</g>
<!-- Node34 -->
<g id="node34" class="node"><title>Node34</title>
<g id="a_node34"><a xlink:href="structssl__connect__data.html" target="_top" xlink:title="ssl_connect_data">
<polygon fill="white" stroke="black" points="329.5,-557.5 329.5,-576.5 422.5,-576.5 422.5,-557.5 329.5,-557.5"/>
<text text-anchor="middle" x="376" y="-564.5" font-family="Arial" font-size="10.00">ssl_connect_data</text>
</a>
</g>
</g>
<!-- Node34&#45;&gt;Node2 -->
<g id="edge50" class="edge"><title>Node34&#45;&gt;Node2</title>
<path fill="none" stroke="#9a32cd" stroke-dasharray="5,2" d="M432.77,-574.624C460.322,-578.67 494.009,-584.036 524,-590 533.015,-591.793 542.702,-594 551.677,-596.164"/>
<polygon fill="#9a32cd" stroke="#9a32cd" points="432.931,-571.111 422.532,-573.139 431.926,-578.038 432.931,-571.111"/>
<text text-anchor="middle" x="491" y="-593" font-family="Arial" font-size="10.00"> ssl</text>
</g>
<!-- Node35 -->
<g id="node35" class="node"><title>Node35</title>
<g id="a_node35"><a xlink:href="struct_curl__message.html" target="_top" xlink:title="Curl_message">
<polygon fill="white" stroke="black" points="907.5,-88.5 907.5,-107.5 986.5,-107.5 986.5,-88.5 907.5,-88.5"/>
<text text-anchor="middle" x="947" y="-95.5" font-family="Arial" font-size="10.00">Curl_message</text>
</a>
</g>
</g>
<!-- Node35&#45;&gt;Node1 -->
<g id="edge52" class="edge"><title>Node35&#45;&gt;Node1</title>
<path fill="none" stroke="#9a32cd" stroke-dasharray="5,2" d="M966.761,-114.712C1003.13,-147.112 1082.2,-217.542 1111.12,-243.308"/>
<polygon fill="#9a32cd" stroke="#9a32cd" points="968.68,-111.734 958.884,-107.696 964.023,-116.961 968.68,-111.734"/>
<text text-anchor="middle" x="1035" y="-202" font-family="Arial" font-size="10.00"> msg</text>
</g>
<!-- Node35&#45;&gt;Node35 -->
<g id="edge54" class="edge"><title>Node35&#45;&gt;Node35</title>
<path fill="none" stroke="#9a32cd" stroke-dasharray="5,2" d="M931.531,-117.766C932.746,-122.497 937.902,-126 947,-126 961.93,-126 966.245,-116.565 959.947,-107.757"/>
<polygon fill="#9a32cd" stroke="#9a32cd" points="935.003,-118.309 934.053,-107.757 928.216,-116.599 935.003,-118.309"/>
<text text-anchor="middle" x="947" y="-129" font-family="Arial" font-size="10.00"> next</text>
</g>
<!-- Node36 -->
<g id="node36" class="node"><title>Node36</title>
<g id="a_node36"><a xlink:href="struct_c_u_r_l_msg.html" target="_top" xlink:title="CURLMsg">
<polygon fill="white" stroke="black" points="752.5,-0.5 752.5,-19.5 813.5,-19.5 813.5,-0.5 752.5,-0.5"/>
<text text-anchor="middle" x="783" y="-7.5" font-family="Arial" font-size="10.00">CURLMsg</text>
</a>
</g>
</g>
<!-- Node36&#45;&gt;Node35 -->
<g id="edge53" class="edge"><title>Node36&#45;&gt;Node35</title>
<path fill="none" stroke="#9a32cd" stroke-dasharray="5,2" d="M823.814,-11.9412C844.153,-14.3927 868.627,-19.6943 888,-31 912.449,-45.2682 931.716,-73.6382 940.619,-88.4676"/>
<polygon fill="#9a32cd" stroke="#9a32cd" points="823.906,-8.43271 813.603,-10.9024 823.198,-15.3968 823.906,-8.43271"/>
<text text-anchor="middle" x="862" y="-34" font-family="Arial" font-size="10.00"> extmsg</text>
</g>
</g>
</svg>
