<?xml version="1.0" encoding="UTF-8" standalone="no"?>
<!DOCTYPE svg PUBLIC "-//W3C//DTD SVG 1.1//EN"
 "http://www.w3.org/Graphics/SVG/1.1/DTD/svg11.dtd">
<!-- Generated by graphviz version 2.34.0 (20130907.0111)
 -->
<!-- Title: Configurable Pages: 1 -->
<svg width="300pt" height="232pt"
 viewBox="0.00 0.00 299.73 232.00" xmlns="http://www.w3.org/2000/svg" xmlns:xlink="http://www.w3.org/1999/xlink">
<g id="graph0" class="graph" transform="scale(1 1) rotate(0) translate(4 228)">
<title>Configurable</title>
<polygon fill="white" stroke="white" points="-4,4 -4,-228 295.729,-228 295.729,4 -4,4"/>
<!-- Node1 -->
<g id="node1" class="node"><title>Node1</title>
<polygon fill="#bfbfbf" stroke="black" points="77.7291,-0.5 77.7291,-19.5 147.729,-19.5 147.729,-0.5 77.7291,-0.5"/>
<text text-anchor="middle" x="112.729" y="-7.5" font-family="Arial" font-size="10.00">Configurable</text>
</g>
<!-- Node2 -->
<g id="node2" class="node"><title>Node2</title>
<g id="a_node2"><a xlink:href="structcurl__httppost.html" target="_top" xlink:title="curl_httppost">
<polygon fill="white" stroke="black" points="76.2291,-118.5 76.2291,-137.5 149.229,-137.5 149.229,-118.5 76.2291,-118.5"/>
<text text-anchor="middle" x="112.729" y="-125.5" font-family="Arial" font-size="10.00">curl_httppost</text>
</a>
</g>
</g>
<!-- Node2&#45;&gt;Node1 -->
<g id="edge1" class="edge"><title>Node2&#45;&gt;Node1</title>
<path fill="none" stroke="#9a32cd" stroke-dasharray="5,2" d="M112.729,-108.025C112.729,-82.464 112.729,-38.0408 112.729,-19.5048"/>
<polygon fill="#9a32cd" stroke="#9a32cd" points="109.229,-108.281 112.729,-118.281 116.229,-108.281 109.229,-108.281"/>
<text text-anchor="middle" x="134.229" y="-63" font-family="Arial" font-size="10.00"> last_post</text>
<text text-anchor="middle" x="134.229" y="-52" font-family="Arial" font-size="10.00">httppost</text>
</g>
<!-- Node2&#45;&gt;Node2 -->
<g id="edge2" class="edge"><title>Node2&#45;&gt;Node2</title>
<path fill="none" stroke="#9a32cd" stroke-dasharray="5,2" d="M151.111,-137.554C160.101,-136.763 166.729,-133.578 166.729,-128 166.729,-120.484 154.697,-117.314 141.067,-118.488"/>
<polygon fill="#9a32cd" stroke="#9a32cd" points="151.081,-134.054 141.067,-137.512 151.052,-141.054 151.081,-134.054"/>
<text text-anchor="middle" x="177.729" y="-131" font-family="Arial" font-size="10.00"> next</text>
<text text-anchor="middle" x="177.729" y="-120" font-family="Arial" font-size="10.00">more</text>
</g>
<!-- Node3 -->
<g id="node3" class="node"><title>Node3</title>
<g id="a_node3"><a xlink:href="structcurl__slist.html" target="_top" xlink:title="curl_slist">
<polygon fill="white" stroke="black" points="5.72911,-204.5 5.72911,-223.5 61.7291,-223.5 61.7291,-204.5 5.72911,-204.5"/>
<text text-anchor="middle" x="33.7291" y="-211.5" font-family="Arial" font-size="10.00">curl_slist</text>
</a>
</g>
</g>
<!-- Node3&#45;&gt;Node1 -->
<g id="edge7" class="edge"><title>Node3&#45;&gt;Node1</title>
<path fill="none" stroke="#9a32cd" stroke-dasharray="5,2" d="M22.5833,-195.839C9.31054,-173.07 -9.28794,-132.024 5.72911,-100 24.0922,-60.8409 69.0887,-32.9306 94.4956,-19.6836"/>
<polygon fill="#9a32cd" stroke="#9a32cd" points="19.6207,-197.703 27.832,-204.398 25.5881,-194.043 19.6207,-197.703"/>
<text text-anchor="middle" x="36.2291" y="-147.5" font-family="Arial" font-size="10.00"> headers</text>
<text text-anchor="middle" x="36.2291" y="-136.5" font-family="Arial" font-size="10.00">prequote</text>
<text text-anchor="middle" x="36.2291" y="-125.5" font-family="Arial" font-size="10.00">telnet_options</text>
<text text-anchor="middle" x="36.2291" y="-114.5" font-family="Arial" font-size="10.00">postquote</text>
<text text-anchor="middle" x="36.2291" y="-103.5" font-family="Arial" font-size="10.00">quote</text>
</g>
<!-- Node3&#45;&gt;Node2 -->
<g id="edge3" class="edge"><title>Node3&#45;&gt;Node2</title>
<path fill="none" stroke="#9a32cd" stroke-dasharray="5,2" d="M48.7445,-197.034C65.2972,-179.434 91.3223,-151.762 104.498,-137.752"/>
<polygon fill="#9a32cd" stroke="#9a32cd" points="46.1873,-194.644 41.8859,-204.327 51.2865,-199.44 46.1873,-194.644"/>
<text text-anchor="middle" x="101.229" y="-177.5" font-family="Arial" font-size="10.00"> contentheader</text>
</g>
<!-- Node3&#45;&gt;Node3 -->
<g id="edge4" class="edge"><title>Node3&#45;&gt;Node3</title>
<path fill="none" stroke="#9a32cd" stroke-dasharray="5,2" d="M72.2824,-219.449C76.7925,-218.447 79.7291,-216.63 79.7291,-214 79.7291,-209.684 71.821,-207.559 62.0285,-207.627"/>
<polygon fill="#9a32cd" stroke="#9a32cd" points="71.6739,-215.99 62.0285,-220.373 72.3024,-222.961 71.6739,-215.99"/>
<text text-anchor="middle" x="90.7291" y="-211.5" font-family="Arial" font-size="10.00"> next</text>
</g>
<!-- Node4 -->
<g id="node4" class="node"><title>Node4</title>
<g id="a_node4"><a xlink:href="structgetout.html" target="_top" xlink:title="getout">
<polygon fill="white" stroke="black" points="207.729,-118.5 207.729,-137.5 251.729,-137.5 251.729,-118.5 207.729,-118.5"/>
<text text-anchor="middle" x="229.729" y="-125.5" font-family="Arial" font-size="10.00">getout</text>
</a>
</g>
</g>
<!-- Node4&#45;&gt;Node1 -->
<g id="edge5" class="edge"><title>Node4&#45;&gt;Node1</title>
<path fill="none" stroke="#9a32cd" stroke-dasharray="5,2" d="M219.001,-109.634C206.509,-90.4134 184.409,-59.337 159.729,-38 151.187,-30.6146 140.326,-24.2204 131.197,-19.5109"/>
<polygon fill="#9a32cd" stroke="#9a32cd" points="216.162,-111.691 224.477,-118.257 222.071,-107.939 216.162,-111.691"/>
<text text-anchor="middle" x="216.229" y="-74" font-family="Arial" font-size="10.00"> url_get</text>
<text text-anchor="middle" x="216.229" y="-63" font-family="Arial" font-size="10.00">url_last</text>
<text text-anchor="middle" x="216.229" y="-52" font-family="Arial" font-size="10.00">url_out</text>
<text text-anchor="middle" x="216.229" y="-41" font-family="Arial" font-size="10.00">url_list</text>
</g>
<!-- Node4&#45;&gt;Node4 -->
<g id="edge6" class="edge"><title>Node4&#45;&gt;Node4</title>
<path fill="none" stroke="#9a32cd" stroke-dasharray="5,2" d="M260.788,-137.095C266.071,-135.846 269.729,-132.815 269.729,-128 269.729,-120.484 260.816,-117.314 250.72,-118.488"/>
<polygon fill="#9a32cd" stroke="#9a32cd" points="260.566,-133.601 250.72,-137.512 260.856,-140.595 260.566,-133.601"/>
<text text-anchor="middle" x="280.729" y="-125.5" font-family="Arial" font-size="10.00"> next</text>
</g>
</g>
</svg>
