<?xml version="1.0" encoding="UTF-8" standalone="no"?>
<!DOCTYPE svg PUBLIC "-//W3C//DTD SVG 1.1//EN"
 "http://www.w3.org/Graphics/SVG/1.1/DTD/svg11.dtd">
<!-- Generated by graphviz version 2.34.0 (20130907.0111)
 -->
<!-- Title: z_stream_s Pages: 1 -->
<svg width="172pt" height="324pt"
 viewBox="0.00 0.00 172.00 324.00" xmlns="http://www.w3.org/2000/svg" xmlns:xlink="http://www.w3.org/1999/xlink">
<g id="graph0" class="graph" transform="scale(1 1) rotate(0) translate(4 320)">
<title>z_stream_s</title>
<polygon fill="white" stroke="white" points="-4,4 -4,-320 168,-320 168,4 -4,4"/>
<!-- Node1 -->
<g id="node1" class="node"><title>Node1</title>
<polygon fill="#bfbfbf" stroke="black" points="17,-0.5 17,-19.5 85,-19.5 85,-0.5 17,-0.5"/>
<text text-anchor="middle" x="51" y="-7.5" font-family="Arial" font-size="10.00">z_stream_s</text>
</g>
<!-- Node2 -->
<g id="node2" class="node"><title>Node2</title>
<g id="a_node2"><a xlink:href="structinternal__state.html" target="_top" xlink:title="internal_state">
<polygon fill="white" stroke="black" points="13.5,-68.5 13.5,-87.5 88.5,-87.5 88.5,-68.5 13.5,-68.5"/>
<text text-anchor="middle" x="51" y="-75.5" font-family="Arial" font-size="10.00">internal_state</text>
</a>
</g>
</g>
<!-- Node2&#45;&gt;Node1 -->
<g id="edge1" class="edge"><title>Node2&#45;&gt;Node1</title>
<path fill="none" stroke="#9a32cd" stroke-dasharray="5,2" d="M51,-58.0413C51,-45.4724 51,-29.5631 51,-19.8411"/>
<polygon fill="#9a32cd" stroke="#9a32cd" points="47.5001,-58.3716 51,-68.3717 54.5001,-58.3717 47.5001,-58.3716"/>
<text text-anchor="middle" x="63.5" y="-41.5" font-family="Arial" font-size="10.00"> state</text>
</g>
<!-- Node3 -->
<g id="node3" class="node"><title>Node3</title>
<g id="a_node3"><a xlink:href="structinflate__blocks__state.html" target="_top" xlink:title="inflate_blocks_state">
<polygon fill="white" stroke="black" points="-0.5,-136.5 -0.5,-155.5 102.5,-155.5 102.5,-136.5 -0.5,-136.5"/>
<text text-anchor="middle" x="51" y="-143.5" font-family="Arial" font-size="10.00">inflate_blocks_state</text>
</a>
</g>
</g>
<!-- Node3&#45;&gt;Node2 -->
<g id="edge2" class="edge"><title>Node3&#45;&gt;Node2</title>
<path fill="none" stroke="#9a32cd" stroke-dasharray="5,2" d="M51,-126.041C51,-113.472 51,-97.5631 51,-87.8411"/>
<polygon fill="#9a32cd" stroke="#9a32cd" points="47.5001,-126.372 51,-136.372 54.5001,-126.372 47.5001,-126.372"/>
<text text-anchor="middle" x="67" y="-109.5" font-family="Arial" font-size="10.00"> blocks</text>
</g>
<!-- Node4 -->
<g id="node4" class="node"><title>Node4</title>
<g id="a_node4"><a xlink:href="structinflate__codes__state.html" target="_top" xlink:title="inflate_codes_state">
<polygon fill="white" stroke="black" points="63.5,-205.5 63.5,-224.5 164.5,-224.5 164.5,-205.5 63.5,-205.5"/>
<text text-anchor="middle" x="114" y="-212.5" font-family="Arial" font-size="10.00">inflate_codes_state</text>
</a>
</g>
</g>
<!-- Node4&#45;&gt;Node3 -->
<g id="edge3" class="edge"><title>Node4&#45;&gt;Node3</title>
<path fill="none" stroke="#9a32cd" stroke-dasharray="5,2" d="M98.687,-197.715C86.1802,-184.414 68.9986,-166.141 59.039,-155.549"/>
<polygon fill="#9a32cd" stroke="#9a32cd" points="96.3637,-200.353 105.764,-205.241 101.463,-195.558 96.3637,-200.353"/>
<text text-anchor="middle" x="101" y="-177.5" font-family="Arial" font-size="10.00"> codes</text>
</g>
<!-- Node5 -->
<g id="node5" class="node"><title>Node5</title>
<g id="a_node5"><a xlink:href="structinflate__huft__s.html" target="_top" xlink:title="inflate_huft_s">
<polygon fill="white" stroke="black" points="14,-296.5 14,-315.5 88,-315.5 88,-296.5 14,-296.5"/>
<text text-anchor="middle" x="51" y="-303.5" font-family="Arial" font-size="10.00">inflate_huft_s</text>
</a>
</g>
</g>
<!-- Node5&#45;&gt;Node3 -->
<g id="edge5" class="edge"><title>Node5&#45;&gt;Node3</title>
<path fill="none" stroke="#9a32cd" stroke-dasharray="5,2" d="M43.0013,-286.922C35.0714,-266.759 24.8022,-233.144 30,-204 33.1849,-186.143 41.5698,-166.55 46.7295,-155.616"/>
<polygon fill="#9a32cd" stroke="#9a32cd" points="39.8681,-288.502 46.9467,-296.385 46.3291,-285.809 39.8681,-288.502"/>
<text text-anchor="middle" x="42.5" y="-218" font-family="Arial" font-size="10.00"> hufts</text>
<text text-anchor="middle" x="42.5" y="-207" font-family="Arial" font-size="10.00">tb</text>
</g>
<!-- Node5&#45;&gt;Node4 -->
<g id="edge4" class="edge"><title>Node5&#45;&gt;Node4</title>
<path fill="none" stroke="#9a32cd" stroke-dasharray="5,2" d="M62.9011,-288.187C76.288,-269.276 97.511,-239.294 107.885,-224.639"/>
<polygon fill="#9a32cd" stroke="#9a32cd" points="59.9617,-286.282 57.0407,-296.466 65.6751,-290.326 59.9617,-286.282"/>
<text text-anchor="middle" x="104" y="-269.5" font-family="Arial" font-size="10.00"> ltree</text>
<text text-anchor="middle" x="104" y="-258.5" font-family="Arial" font-size="10.00">dtree</text>
<text text-anchor="middle" x="104" y="-247.5" font-family="Arial" font-size="10.00">tree</text>
</g>
</g>
</svg>
