<?xml version="1.0" encoding="UTF-8" standalone="no"?>
<!DOCTYPE svg PUBLIC "-//W3C//DTD SVG 1.1//EN"
 "http://www.w3.org/Graphics/SVG/1.1/DTD/svg11.dtd">
<!-- Generated by graphviz version 2.34.0 (20130907.0111)
 -->
<!-- Title: st_lwLayer Pages: 1 -->
<svg width="693pt" height="758pt"
 viewBox="0.00 0.00 693.00 758.00" xmlns="http://www.w3.org/2000/svg" xmlns:xlink="http://www.w3.org/1999/xlink">
<g id="graph0" class="graph" transform="scale(1 1) rotate(0) translate(4 754)">
<title>st_lwLayer</title>
<polygon fill="white" stroke="white" points="-4,4 -4,-754 689,-754 689,4 -4,4"/>
<!-- Node1 -->
<g id="node1" class="node"><title>Node1</title>
<polygon fill="#bfbfbf" stroke="black" points="553.5,-1.5 553.5,-20.5 616.5,-20.5 616.5,-1.5 553.5,-1.5"/>
<text text-anchor="middle" x="585" y="-8.5" font-family="Arial" font-size="10.00">st_lwLayer</text>
</g>
<!-- Node1&#45;&gt;Node1 -->
<g id="edge7" class="edge"><title>Node1&#45;&gt;Node1</title>
<path fill="none" stroke="#9a32cd" stroke-dasharray="5,2" d="M626.722,-16.3051C631.154,-15.2773 634,-13.5089 634,-11 634,-6.88281 626.336,-4.75989 616.576,-4.63123"/>
<polygon fill="#9a32cd" stroke="#9a32cd" points="626.156,-12.8451 616.576,-17.3688 626.886,-19.807 626.156,-12.8451"/>
<text text-anchor="middle" x="644.5" y="-14" font-family="Arial" font-size="10.00"> prev</text>
<text text-anchor="middle" x="644.5" y="-3" font-family="Arial" font-size="10.00">next</text>
</g>
<!-- Node2 -->
<g id="node2" class="node"><title>Node2</title>
<g id="a_node2"><a xlink:href="structst__lw_point_list.html" target="_top" xlink:title="st_lwPointList">
<polygon fill="white" stroke="black" points="545.5,-108.5 545.5,-127.5 622.5,-127.5 622.5,-108.5 545.5,-108.5"/>
<text text-anchor="middle" x="584" y="-115.5" font-family="Arial" font-size="10.00">st_lwPointList</text>
</a>
</g>
</g>
<!-- Node2&#45;&gt;Node1 -->
<g id="edge1" class="edge"><title>Node2&#45;&gt;Node1</title>
<path fill="none" stroke="#9a32cd" stroke-dasharray="5,2" d="M584.179,-98.2551C584.396,-75.3775 584.756,-37.6526 584.917,-20.7113"/>
<polygon fill="#9a32cd" stroke="#9a32cd" points="580.677,-98.3745 584.082,-108.407 587.677,-98.4412 580.677,-98.3745"/>
<text text-anchor="middle" x="597.5" y="-77.5" font-family="Arial" font-size="10.00"> point</text>
</g>
<!-- Node3 -->
<g id="node3" class="node"><title>Node3</title>
<g id="a_node3"><a xlink:href="structst__lw_point.html" target="_top" xlink:title="st_lwPoint">
<polygon fill="white" stroke="black" points="551,-184.5 551,-203.5 613,-203.5 613,-184.5 551,-184.5"/>
<text text-anchor="middle" x="582" y="-191.5" font-family="Arial" font-size="10.00">st_lwPoint</text>
</a>
</g>
</g>
<!-- Node3&#45;&gt;Node2 -->
<g id="edge2" class="edge"><title>Node3&#45;&gt;Node2</title>
<path fill="none" stroke="#9a32cd" stroke-dasharray="5,2" d="M582.512,-174.072C582.914,-159.18 583.456,-139.111 583.763,-127.768"/>
<polygon fill="#9a32cd" stroke="#9a32cd" points="579.009,-174.13 582.237,-184.221 586.006,-174.319 579.009,-174.13"/>
<text text-anchor="middle" x="590" y="-153.5" font-family="Arial" font-size="10.00"> pt</text>
</g>
<!-- Node4 -->
<g id="node4" class="node"><title>Node4</title>
<g id="a_node4"><a xlink:href="structst__lw_v_map_pt.html" target="_top" xlink:title="st_lwVMapPt">
<polygon fill="white" stroke="black" points="538,-331.5 538,-350.5 612,-350.5 612,-331.5 538,-331.5"/>
<text text-anchor="middle" x="575" y="-338.5" font-family="Arial" font-size="10.00">st_lwVMapPt</text>
</a>
</g>
</g>
<!-- Node4&#45;&gt;Node3 -->
<g id="edge3" class="edge"><title>Node4&#45;&gt;Node3</title>
<path fill="none" stroke="#9a32cd" stroke-dasharray="5,2" d="M575.905,-321.25C577.432,-289.619 580.463,-226.848 581.576,-203.774"/>
<polygon fill="#9a32cd" stroke="#9a32cd" points="572.403,-321.207 575.417,-331.364 579.395,-321.544 572.403,-321.207"/>
<text text-anchor="middle" x="587" y="-270.5" font-family="Arial" font-size="10.00"> vm</text>
</g>
<!-- Node8 -->
<g id="node8" class="node"><title>Node8</title>
<g id="a_node8"><a xlink:href="structst__lw_pol_vert.html" target="_top" xlink:title="st_lwPolVert">
<polygon fill="white" stroke="black" points="482.5,-223.5 482.5,-242.5 553.5,-242.5 553.5,-223.5 482.5,-223.5"/>
<text text-anchor="middle" x="518" y="-230.5" font-family="Arial" font-size="10.00">st_lwPolVert</text>
</a>
</g>
</g>
<!-- Node4&#45;&gt;Node8 -->
<g id="edge11" class="edge"><title>Node4&#45;&gt;Node8</title>
<path fill="none" stroke="#9a32cd" stroke-dasharray="5,2" d="M565.065,-322.331C558.924,-311.341 550.92,-296.894 544,-284 536.227,-269.517 527.459,-252.51 522.349,-242.529"/>
<polygon fill="#9a32cd" stroke="#9a32cd" points="562.154,-324.297 570.097,-331.309 568.26,-320.874 562.154,-324.297"/>
<text text-anchor="middle" x="552" y="-270.5" font-family="Arial" font-size="10.00"> vm</text>
</g>
<!-- Node5 -->
<g id="node5" class="node"><title>Node5</title>
<g id="a_node5"><a xlink:href="structst__lw_v_map.html" target="_top" xlink:title="st_lwVMap">
<polygon fill="white" stroke="black" points="580.5,-437.5 580.5,-456.5 645.5,-456.5 645.5,-437.5 580.5,-437.5"/>
<text text-anchor="middle" x="613" y="-444.5" font-family="Arial" font-size="10.00">st_lwVMap</text>
</a>
</g>
</g>
<!-- Node5&#45;&gt;Node1 -->
<g id="edge6" class="edge"><title>Node5&#45;&gt;Node1</title>
<path fill="none" stroke="#9a32cd" stroke-dasharray="5,2" d="M622.079,-428.193C623.542,-424.864 624.926,-421.37 626,-418 636.426,-385.275 640,-376.346 640,-342 640,-342 640,-342 640,-79 640,-53.1154 615.172,-31.7684 598.879,-20.5463"/>
<polygon fill="#9a32cd" stroke="#9a32cd" points="618.833,-426.868 617.684,-437.401 625.15,-429.884 618.833,-426.868"/>
<text text-anchor="middle" x="653" y="-191.5" font-family="Arial" font-size="10.00"> vmap</text>
</g>
<!-- Node5&#45;&gt;Node4 -->
<g id="edge4" class="edge"><title>Node5&#45;&gt;Node4</title>
<path fill="none" stroke="#9a32cd" stroke-dasharray="5,2" d="M604.294,-428.06C602.793,-424.744 601.3,-421.29 600,-418 590.508,-393.972 581.611,-364.74 577.456,-350.55"/>
<polygon fill="#9a32cd" stroke="#9a32cd" points="601.211,-429.728 608.634,-437.287 607.545,-426.748 601.211,-429.728"/>
<text text-anchor="middle" x="613" y="-405.5" font-family="Arial" font-size="10.00"> vmap</text>
</g>
<!-- Node5&#45;&gt;Node5 -->
<g id="edge5" class="edge"><title>Node5&#45;&gt;Node5</title>
<path fill="none" stroke="#9a32cd" stroke-dasharray="5,2" d="M655.791,-452.873C660.189,-451.717 663,-449.759 663,-447 663,-442.473 655.43,-440.103 645.7,-439.891"/>
<polygon fill="#9a32cd" stroke="#9a32cd" points="655.201,-449.419 645.7,-454.109 656.052,-456.367 655.201,-449.419"/>
<text text-anchor="middle" x="673.5" y="-450" font-family="Arial" font-size="10.00"> prev</text>
<text text-anchor="middle" x="673.5" y="-439" font-family="Arial" font-size="10.00">next</text>
</g>
<!-- Node6 -->
<g id="node6" class="node"><title>Node6</title>
<g id="a_node6"><a xlink:href="structst__lw_polygon_list.html" target="_top" xlink:title="st_lwPolygonList">
<polygon fill="white" stroke="black" points="459,-70.5 459,-89.5 549,-89.5 549,-70.5 459,-70.5"/>
<text text-anchor="middle" x="504" y="-77.5" font-family="Arial" font-size="10.00">st_lwPolygonList</text>
</a>
</g>
</g>
<!-- Node6&#45;&gt;Node1 -->
<g id="edge8" class="edge"><title>Node6&#45;&gt;Node1</title>
<path fill="none" stroke="#9a32cd" stroke-dasharray="5,2" d="M514.833,-61.8705C520.026,-54.5429 526.703,-46.2539 534,-40 543.203,-32.112 554.984,-25.4667 564.905,-20.6322"/>
<polygon fill="#9a32cd" stroke="#9a32cd" points="511.769,-60.1557 509.114,-70.4125 517.586,-64.0501 511.769,-60.1557"/>
<text text-anchor="middle" x="552.5" y="-43.5" font-family="Arial" font-size="10.00"> polygon</text>
</g>
<!-- Node7 -->
<g id="node7" class="node"><title>Node7</title>
<g id="a_node7"><a xlink:href="structst__lw_polygon.html" target="_top" xlink:title="st_lwPolygon">
<polygon fill="white" stroke="black" points="467,-146.5 467,-165.5 541,-165.5 541,-146.5 467,-146.5"/>
<text text-anchor="middle" x="504" y="-153.5" font-family="Arial" font-size="10.00">st_lwPolygon</text>
</a>
</g>
</g>
<!-- Node7&#45;&gt;Node6 -->
<g id="edge9" class="edge"><title>Node7&#45;&gt;Node6</title>
<path fill="none" stroke="#9a32cd" stroke-dasharray="5,2" d="M504,-136.072C504,-121.18 504,-101.111 504,-89.7679"/>
<polygon fill="#9a32cd" stroke="#9a32cd" points="500.5,-136.221 504,-146.221 507.5,-136.221 500.5,-136.221"/>
<text text-anchor="middle" x="512" y="-115.5" font-family="Arial" font-size="10.00"> pol</text>
</g>
<!-- Node8&#45;&gt;Node7 -->
<g id="edge10" class="edge"><title>Node8&#45;&gt;Node7</title>
<path fill="none" stroke="#9a32cd" stroke-dasharray="5,2" d="M514.541,-213.471C511.681,-198.149 507.75,-177.09 505.587,-165.503"/>
<polygon fill="#9a32cd" stroke="#9a32cd" points="511.118,-214.209 516.394,-223.397 518,-212.924 511.118,-214.209"/>
<text text-anchor="middle" x="516.5" y="-191.5" font-family="Arial" font-size="10.00"> v</text>
</g>
<!-- Node9 -->
<g id="node9" class="node"><title>Node9</title>
<g id="a_node9"><a xlink:href="structst__lw_surface.html" target="_top" xlink:title="st_lwSurface">
<polygon fill="white" stroke="black" points="352,-223.5 352,-242.5 424,-242.5 424,-223.5 352,-223.5"/>
<text text-anchor="middle" x="388" y="-230.5" font-family="Arial" font-size="10.00">st_lwSurface</text>
</a>
</g>
</g>
<!-- Node9&#45;&gt;Node7 -->
<g id="edge12" class="edge"><title>Node9&#45;&gt;Node7</title>
<path fill="none" stroke="#9a32cd" stroke-dasharray="5,2" d="M409.712,-217.962C433.564,-202.541 471.1,-178.272 490.849,-165.503"/>
<polygon fill="#9a32cd" stroke="#9a32cd" points="407.804,-215.028 401.307,-223.397 411.605,-220.906 407.804,-215.028"/>
<text text-anchor="middle" x="469.5" y="-191.5" font-family="Arial" font-size="10.00"> surf</text>
</g>
<!-- Node9&#45;&gt;Node9 -->
<g id="edge26" class="edge"><title>Node9&#45;&gt;Node9</title>
<path fill="none" stroke="#9a32cd" stroke-dasharray="5,2" d="M434.208,-238.874C438.961,-237.718 442,-235.76 442,-233 442,-228.584 434.221,-226.221 424.087,-225.91"/>
<polygon fill="#9a32cd" stroke="#9a32cd" points="433.599,-235.422 424.087,-240.09 434.433,-242.373 433.599,-235.422"/>
<text text-anchor="middle" x="452.5" y="-236" font-family="Arial" font-size="10.00"> prev</text>
<text text-anchor="middle" x="452.5" y="-225" font-family="Arial" font-size="10.00">next</text>
</g>
<!-- Node10 -->
<g id="node10" class="node"><title>Node10</title>
<g id="a_node10"><a xlink:href="structst__lw_r_map.html" target="_top" xlink:title="st_lwRMap">
<polygon fill="white" stroke="black" points="369.5,-331.5 369.5,-350.5 434.5,-350.5 434.5,-331.5 369.5,-331.5"/>
<text text-anchor="middle" x="402" y="-338.5" font-family="Arial" font-size="10.00">st_lwRMap</text>
</a>
</g>
</g>
<!-- Node10&#45;&gt;Node9 -->
<g id="edge13" class="edge"><title>Node10&#45;&gt;Node9</title>
<path fill="none" stroke="#9a32cd" stroke-dasharray="5,2" d="M396.663,-321.421C393.813,-310.602 390.576,-296.643 389,-284 387.195,-269.526 387.329,-252.516 387.633,-242.532"/>
<polygon fill="#9a32cd" stroke="#9a32cd" points="393.374,-322.661 399.406,-331.371 400.122,-320.801 393.374,-322.661"/>
<text text-anchor="middle" x="419" y="-276" font-family="Arial" font-size="10.00"> transparency</text>
<text text-anchor="middle" x="419" y="-265" font-family="Arial" font-size="10.00">reflection</text>
</g>
<!-- Node11 -->
<g id="node11" class="node"><title>Node11</title>
<g id="a_node11"><a xlink:href="structst__lw_t_param.html" target="_top" xlink:title="st_lwTParam">
<polygon fill="white" stroke="black" points="161.5,-437.5 161.5,-456.5 234.5,-456.5 234.5,-437.5 161.5,-437.5"/>
<text text-anchor="middle" x="198" y="-444.5" font-family="Arial" font-size="10.00">st_lwTParam</text>
</a>
</g>
</g>
<!-- Node11&#45;&gt;Node9 -->
<g id="edge34" class="edge"><title>Node11&#45;&gt;Node9</title>
<path fill="none" stroke="#9a32cd" stroke-dasharray="5,2" d="M188.736,-428.124C174.971,-398.796 153.53,-339.938 181,-302 220.156,-247.923 303.716,-236.09 351.838,-233.955"/>
<polygon fill="#9a32cd" stroke="#9a32cd" points="185.638,-429.755 193.192,-437.184 191.919,-426.666 185.638,-429.755"/>
<text text-anchor="middle" x="209" y="-371.5" font-family="Arial" font-size="10.00"> bump</text>
<text text-anchor="middle" x="209" y="-360.5" font-family="Arial" font-size="10.00">glossiness</text>
<text text-anchor="middle" x="209" y="-349.5" font-family="Arial" font-size="10.00">luminosity</text>
<text text-anchor="middle" x="209" y="-338.5" font-family="Arial" font-size="10.00">translucency</text>
<text text-anchor="middle" x="209" y="-327.5" font-family="Arial" font-size="10.00">specularity</text>
<text text-anchor="middle" x="209" y="-316.5" font-family="Arial" font-size="10.00">diffuse</text>
<text text-anchor="middle" x="209" y="-305.5" font-family="Arial" font-size="10.00">eta</text>
</g>
<!-- Node11&#45;&gt;Node10 -->
<g id="edge14" class="edge"><title>Node11&#45;&gt;Node10</title>
<path fill="none" stroke="#9a32cd" stroke-dasharray="5,2" d="M236.833,-434.434C270.839,-423.338 320.802,-404.639 360,-380 373.154,-371.732 386.07,-359.195 394.031,-350.808"/>
<polygon fill="#9a32cd" stroke="#9a32cd" points="235.714,-431.117 227.255,-437.496 237.846,-437.785 235.714,-431.117"/>
<text text-anchor="middle" x="334.5" y="-405.5" font-family="Arial" font-size="10.00"> val</text>
</g>
<!-- Node12 -->
<g id="node12" class="node"><title>Node12</title>
<g id="a_node12"><a xlink:href="structst__lw_texture.html" target="_top" xlink:title="st_lwTexture">
<polygon fill="white" stroke="black" points="162.5,-551.5 162.5,-570.5 233.5,-570.5 233.5,-551.5 162.5,-551.5"/>
<text text-anchor="middle" x="198" y="-558.5" font-family="Arial" font-size="10.00">st_lwTexture</text>
</a>
</g>
</g>
<!-- Node12&#45;&gt;Node11 -->
<g id="edge15" class="edge"><title>Node12&#45;&gt;Node11</title>
<path fill="none" stroke="#9a32cd" stroke-dasharray="5,2" d="M198,-541.009C198,-516.477 198,-474.786 198,-456.748"/>
<polygon fill="#9a32cd" stroke="#9a32cd" points="194.5,-541.212 198,-551.212 201.5,-541.212 194.5,-541.212"/>
<text text-anchor="middle" x="206.5" y="-501.5" font-family="Arial" font-size="10.00"> tex</text>
</g>
<!-- Node12&#45;&gt;Node12 -->
<g id="edge22" class="edge"><title>Node12&#45;&gt;Node12</title>
<path fill="none" stroke="#9a32cd" stroke-dasharray="5,2" d="M243.812,-566.757C248.212,-565.587 251,-563.668 251,-561 251,-556.621 243.493,-554.261 233.669,-553.918"/>
<polygon fill="#9a32cd" stroke="#9a32cd" points="243.132,-563.316 233.669,-568.082 244.038,-570.257 243.132,-563.316"/>
<text text-anchor="middle" x="261.5" y="-564" font-family="Arial" font-size="10.00"> prev</text>
<text text-anchor="middle" x="261.5" y="-553" font-family="Arial" font-size="10.00">next</text>
</g>
<!-- Node21 -->
<g id="node21" class="node"><title>Node21</title>
<g id="a_node21"><a xlink:href="structst__lw_c_param.html" target="_top" xlink:title="st_lwCParam">
<polygon fill="white" stroke="black" points="78,-398.5 78,-417.5 152,-417.5 152,-398.5 78,-398.5"/>
<text text-anchor="middle" x="115" y="-405.5" font-family="Arial" font-size="10.00">st_lwCParam</text>
</a>
</g>
</g>
<!-- Node12&#45;&gt;Node21 -->
<g id="edge30" class="edge"><title>Node12&#45;&gt;Node21</title>
<path fill="none" stroke="#9a32cd" stroke-dasharray="5,2" d="M184.871,-543.498C182.143,-539.799 179.378,-535.834 177,-532 151.538,-490.95 127.656,-438.1 118.713,-417.63"/>
<polygon fill="#9a32cd" stroke="#9a32cd" points="182.107,-545.645 190.968,-551.454 187.663,-541.387 182.107,-545.645"/>
<text text-anchor="middle" x="185.5" y="-501.5" font-family="Arial" font-size="10.00"> tex</text>
</g>
<!-- Node13 -->
<g id="node13" class="node"><title>Node13</title>
<g id="a_node13"><a xlink:href="structst__lw_procedural.html" target="_top" xlink:title="st_lwProcedural">
<polygon fill="white" stroke="black" points="0,-628.5 0,-647.5 86,-647.5 86,-628.5 0,-628.5"/>
<text text-anchor="middle" x="43" y="-635.5" font-family="Arial" font-size="10.00">st_lwProcedural</text>
</a>
</g>
</g>
<!-- Node13&#45;&gt;Node12 -->
<g id="edge16" class="edge"><title>Node13&#45;&gt;Node12</title>
<path fill="none" stroke="#9a32cd" stroke-dasharray="5,2" d="M68.2528,-623.403C86.3949,-613.771 111.516,-600.711 134,-590 148.343,-583.167 164.766,-575.995 177.384,-570.621"/>
<polygon fill="#9a32cd" stroke="#9a32cd" points="66.1281,-620.569 58.9528,-628.364 69.4232,-626.745 66.1281,-620.569"/>
<text text-anchor="middle" x="145" y="-597.5" font-family="Arial" font-size="10.00"> proc</text>
</g>
<!-- Node14 -->
<g id="node14" class="node"><title>Node14</title>
<g id="a_node14"><a xlink:href="structst__lw_image_map.html" target="_top" xlink:title="st_lwImageMap">
<polygon fill="white" stroke="black" points="280,-628.5 280,-647.5 364,-647.5 364,-628.5 280,-628.5"/>
<text text-anchor="middle" x="322" y="-635.5" font-family="Arial" font-size="10.00">st_lwImageMap</text>
</a>
</g>
</g>
<!-- Node14&#45;&gt;Node12 -->
<g id="edge17" class="edge"><title>Node14&#45;&gt;Node12</title>
<path fill="none" stroke="#9a32cd" stroke-dasharray="5,2" d="M299.126,-623.165C273.648,-607.755 233.262,-583.328 212.058,-570.503"/>
<polygon fill="#9a32cd" stroke="#9a32cd" points="297.408,-626.216 307.776,-628.397 301.03,-620.226 297.408,-626.216"/>
<text text-anchor="middle" x="287.5" y="-597.5" font-family="Arial" font-size="10.00"> imap</text>
</g>
<!-- Node15 -->
<g id="node15" class="node"><title>Node15</title>
<g id="a_node15"><a xlink:href="structst__lw_e_param.html" target="_top" xlink:title="st_lwEParam">
<polygon fill="white" stroke="black" points="394,-729.5 394,-748.5 468,-748.5 468,-729.5 394,-729.5"/>
<text text-anchor="middle" x="431" y="-736.5" font-family="Arial" font-size="10.00">st_lwEParam</text>
</a>
</g>
</g>
<!-- Node15&#45;&gt;Node9 -->
<g id="edge33" class="edge"><title>Node15&#45;&gt;Node9</title>
<path fill="none" stroke="#9a32cd" stroke-dasharray="5,2" d="M457.137,-724.108C463.162,-720.101 469.203,-715.345 474,-710 497.632,-683.67 510,-674.38 510,-639 510,-639 510,-639 510,-340 510,-301.041 499.469,-287.483 470,-262 457.142,-250.881 439.658,-244.123 424.138,-240.041"/>
<polygon fill="#9a32cd" stroke="#9a32cd" points="455.162,-721.213 448.467,-729.425 458.822,-727.181 455.162,-721.213"/>
<text text-anchor="middle" x="534" y="-523.5" font-family="Arial" font-size="10.00"> color_filter</text>
<text text-anchor="middle" x="534" y="-512.5" font-family="Arial" font-size="10.00">dif_sharp</text>
<text text-anchor="middle" x="534" y="-501.5" font-family="Arial" font-size="10.00">add_trans</text>
<text text-anchor="middle" x="534" y="-490.5" font-family="Arial" font-size="10.00">glow</text>
<text text-anchor="middle" x="534" y="-479.5" font-family="Arial" font-size="10.00">color_hilite</text>
</g>
<!-- Node15&#45;&gt;Node12 -->
<g id="edge21" class="edge"><title>Node15&#45;&gt;Node12</title>
<path fill="none" stroke="#9a32cd" stroke-dasharray="5,2" d="M425.105,-719.746C416.717,-696.132 399.366,-654.85 373,-628 335.234,-589.541 272.863,-573.207 233.677,-566.476"/>
<polygon fill="#9a32cd" stroke="#9a32cd" points="421.799,-720.894 428.329,-729.237 428.427,-718.643 421.799,-720.894"/>
<text text-anchor="middle" x="406.5" y="-635.5" font-family="Arial" font-size="10.00"> opacity</text>
</g>
<!-- Node15&#45;&gt;Node14 -->
<g id="edge18" class="edge"><title>Node15&#45;&gt;Node14</title>
<path fill="none" stroke="#9a32cd" stroke-dasharray="5,2" d="M383.535,-732.832C367.794,-728.881 351.4,-721.987 340,-710 323.525,-692.676 321.54,-662.506 321.648,-647.7"/>
<polygon fill="#9a32cd" stroke="#9a32cd" points="383.213,-736.343 393.726,-735.028 384.687,-729.5 383.213,-736.343"/>
<text text-anchor="middle" x="363" y="-702" font-family="Arial" font-size="10.00"> amplitude</text>
<text text-anchor="middle" x="363" y="-691" font-family="Arial" font-size="10.00">wrapw</text>
<text text-anchor="middle" x="363" y="-680" font-family="Arial" font-size="10.00">stck</text>
<text text-anchor="middle" x="363" y="-669" font-family="Arial" font-size="10.00">wraph</text>
</g>
<!-- Node20 -->
<g id="node20" class="node"><title>Node20</title>
<g id="a_node20"><a xlink:href="structst__lw_line.html" target="_top" xlink:title="st_lwLine">
<polygon fill="white" stroke="black" points="434.5,-590.5 434.5,-609.5 491.5,-609.5 491.5,-590.5 434.5,-590.5"/>
<text text-anchor="middle" x="463" y="-597.5" font-family="Arial" font-size="10.00">st_lwLine</text>
</a>
</g>
</g>
<!-- Node15&#45;&gt;Node20 -->
<g id="edge28" class="edge"><title>Node15&#45;&gt;Node20</title>
<path fill="none" stroke="#9a32cd" stroke-dasharray="5,2" d="M435.338,-719.43C442.35,-689.409 455.904,-631.379 460.999,-609.567"/>
<polygon fill="#9a32cd" stroke="#9a32cd" points="431.868,-718.896 433.002,-729.43 438.685,-720.488 431.868,-718.896"/>
<text text-anchor="middle" x="459" y="-685.5" font-family="Arial" font-size="10.00"> size</text>
</g>
<!-- Node16 -->
<g id="node16" class="node"><title>Node16</title>
<g id="a_node16"><a xlink:href="structst__lw_t_map.html" target="_top" xlink:title="st_lwTMap">
<polygon fill="white" stroke="black" points="104.5,-628.5 104.5,-647.5 167.5,-647.5 167.5,-628.5 104.5,-628.5"/>
<text text-anchor="middle" x="136" y="-635.5" font-family="Arial" font-size="10.00">st_lwTMap</text>
</a>
</g>
</g>
<!-- Node16&#45;&gt;Node12 -->
<g id="edge19" class="edge"><title>Node16&#45;&gt;Node12</title>
<path fill="none" stroke="#9a32cd" stroke-dasharray="5,2" d="M149.508,-620.66C162.275,-605.216 180.927,-582.653 190.971,-570.503"/>
<polygon fill="#9a32cd" stroke="#9a32cd" points="146.786,-618.459 143.112,-628.397 152.181,-622.919 146.786,-618.459"/>
<text text-anchor="middle" x="187.5" y="-597.5" font-family="Arial" font-size="10.00"> tmap</text>
</g>
<!-- Node17 -->
<g id="node17" class="node"><title>Node17</title>
<g id="a_node17"><a xlink:href="structst__lw_v_param.html" target="_top" xlink:title="st_lwVParam">
<polygon fill="white" stroke="black" points="96,-729.5 96,-748.5 170,-748.5 170,-729.5 96,-729.5"/>
<text text-anchor="middle" x="133" y="-736.5" font-family="Arial" font-size="10.00">st_lwVParam</text>
</a>
</g>
</g>
<!-- Node17&#45;&gt;Node16 -->
<g id="edge20" class="edge"><title>Node17&#45;&gt;Node16</title>
<path fill="none" stroke="#9a32cd" stroke-dasharray="5,2" d="M133.575,-719.029C134.226,-697.543 135.259,-663.467 135.739,-647.625"/>
<polygon fill="#9a32cd" stroke="#9a32cd" points="130.071,-719.113 133.266,-729.214 137.068,-719.325 130.071,-719.113"/>
<text text-anchor="middle" x="150" y="-702" font-family="Arial" font-size="10.00"> size</text>
<text text-anchor="middle" x="150" y="-691" font-family="Arial" font-size="10.00">center</text>
<text text-anchor="middle" x="150" y="-680" font-family="Arial" font-size="10.00">falloff</text>
<text text-anchor="middle" x="150" y="-669" font-family="Arial" font-size="10.00">rotate</text>
</g>
<!-- Node18 -->
<g id="node18" class="node"><title>Node18</title>
<g id="a_node18"><a xlink:href="structst__lw_gradient.html" target="_top" xlink:title="st_lwGradient">
<polygon fill="white" stroke="black" points="186,-628.5 186,-647.5 262,-647.5 262,-628.5 186,-628.5"/>
<text text-anchor="middle" x="224" y="-635.5" font-family="Arial" font-size="10.00">st_lwGradient</text>
</a>
</g>
</g>
<!-- Node18&#45;&gt;Node12 -->
<g id="edge23" class="edge"><title>Node18&#45;&gt;Node12</title>
<path fill="none" stroke="#9a32cd" stroke-dasharray="5,2" d="M217.731,-618.916C212.407,-603.559 205.004,-582.203 200.948,-570.503"/>
<polygon fill="#9a32cd" stroke="#9a32cd" points="214.435,-620.095 221.017,-628.397 221.049,-617.802 214.435,-620.095"/>
<text text-anchor="middle" x="226" y="-597.5" font-family="Arial" font-size="10.00"> grad</text>
</g>
<!-- Node19 -->
<g id="node19" class="node"><title>Node19</title>
<g id="a_node19"><a xlink:href="structst__lw_grad_key.html" target="_top" xlink:title="st_lwGradKey">
<polygon fill="white" stroke="black" points="188.5,-729.5 188.5,-748.5 265.5,-748.5 265.5,-729.5 188.5,-729.5"/>
<text text-anchor="middle" x="227" y="-736.5" font-family="Arial" font-size="10.00">st_lwGradKey</text>
</a>
</g>
</g>
<!-- Node19&#45;&gt;Node18 -->
<g id="edge24" class="edge"><title>Node19&#45;&gt;Node18</title>
<path fill="none" stroke="#9a32cd" stroke-dasharray="5,2" d="M226.425,-719.029C225.774,-697.543 224.741,-663.467 224.261,-647.625"/>
<polygon fill="#9a32cd" stroke="#9a32cd" points="222.932,-719.325 226.734,-729.214 229.929,-719.113 222.932,-719.325"/>
<text text-anchor="middle" x="236.5" y="-685.5" font-family="Arial" font-size="10.00"> key</text>
</g>
<!-- Node19&#45;&gt;Node19 -->
<g id="edge25" class="edge"><title>Node19&#45;&gt;Node19</title>
<path fill="none" stroke="#9a32cd" stroke-dasharray="5,2" d="M275.872,-746.415C280.251,-744.864 283,-742.392 283,-739 283,-733.434 275.597,-730.346 265.735,-729.737"/>
<polygon fill="#9a32cd" stroke="#9a32cd" points="274.945,-743.026 265.735,-748.263 276.201,-749.912 274.945,-743.026"/>
<text text-anchor="middle" x="293.5" y="-742" font-family="Arial" font-size="10.00"> prev</text>
<text text-anchor="middle" x="293.5" y="-731" font-family="Arial" font-size="10.00">next</text>
</g>
<!-- Node20&#45;&gt;Node9 -->
<g id="edge27" class="edge"><title>Node20&#45;&gt;Node9</title>
<path fill="none" stroke="#9a32cd" stroke-dasharray="5,2" d="M463,-580.184C463,-561.208 463,-531.07 463,-505 463,-505 463,-505 463,-340 463,-304.779 470.567,-289.845 449,-262 442.007,-252.972 431.429,-246.753 421.035,-242.515"/>
<polygon fill="#9a32cd" stroke="#9a32cd" points="459.5,-580.187 463,-590.188 466.5,-580.188 459.5,-580.187"/>
<text text-anchor="middle" x="472.5" y="-444.5" font-family="Arial" font-size="10.00"> line</text>
</g>
<!-- Node21&#45;&gt;Node9 -->
<g id="edge29" class="edge"><title>Node21&#45;&gt;Node9</title>
<path fill="none" stroke="#9a32cd" stroke-dasharray="5,2" d="M113.389,-388.118C111.738,-354.614 114.121,-286.032 158,-262 190.546,-244.175 295.645,-237.499 351.814,-235.161"/>
<polygon fill="#9a32cd" stroke="#9a32cd" points="109.916,-388.633 114.08,-398.375 116.9,-388.163 109.916,-388.633"/>
<text text-anchor="middle" x="137.5" y="-338.5" font-family="Arial" font-size="10.00"> color</text>
</g>
<!-- Node22 -->
<g id="node22" class="node"><title>Node22</title>
<g id="a_node22"><a xlink:href="structst__lw_plugin.html" target="_top" xlink:title="st_lwPlugin">
<polygon fill="white" stroke="black" points="246,-331.5 246,-350.5 312,-350.5 312,-331.5 246,-331.5"/>
<text text-anchor="middle" x="279" y="-338.5" font-family="Arial" font-size="10.00">st_lwPlugin</text>
</a>
</g>
</g>
<!-- Node22&#45;&gt;Node9 -->
<g id="edge31" class="edge"><title>Node22&#45;&gt;Node9</title>
<path fill="none" stroke="#9a32cd" stroke-dasharray="5,2" d="M292.927,-323.253C306.883,-306.887 329.345,-281.638 351,-262 358.757,-254.965 368.178,-247.854 375.571,-242.559"/>
<polygon fill="#9a32cd" stroke="#9a32cd" points="289.879,-321.439 286.109,-331.34 295.231,-325.951 289.879,-321.439"/>
<text text-anchor="middle" x="367.5" y="-270.5" font-family="Arial" font-size="10.00"> shader</text>
</g>
<!-- Node22&#45;&gt;Node22 -->
<g id="edge32" class="edge"><title>Node22&#45;&gt;Node22</title>
<path fill="none" stroke="#9a32cd" stroke-dasharray="5,2" d="M304.694,-352.937C318,-354.781 330,-350.802 330,-341 330,-328.818 311.468,-325.63 294.927,-331.436"/>
<polygon fill="#9a32cd" stroke="#9a32cd" points="305.47,-349.524 294.927,-350.564 303.818,-356.326 305.47,-349.524"/>
<text text-anchor="middle" x="340.5" y="-344" font-family="Arial" font-size="10.00"> prev</text>
<text text-anchor="middle" x="340.5" y="-333" font-family="Arial" font-size="10.00">next</text>
</g>
</g>
</svg>
