<?xml version="1.0" encoding="UTF-8" standalone="no"?>
<!DOCTYPE svg PUBLIC "-//W3C//DTD SVG 1.1//EN"
 "http://www.w3.org/Graphics/SVG/1.1/DTD/svg11.dtd">
<!-- Generated by graphviz version 2.34.0 (20130907.0111)
 -->
<!-- Title: indent_s Pages: 1 -->
<svg width="100pt" height="96pt"
 viewBox="0.00 0.00 100.00 96.00" xmlns="http://www.w3.org/2000/svg" xmlns:xlink="http://www.w3.org/1999/xlink">
<g id="graph0" class="graph" transform="scale(1 1) rotate(0) translate(4 92)">
<title>indent_s</title>
<polygon fill="white" stroke="white" points="-4,4 -4,-92 96,-92 96,4 -4,4"/>
<!-- Node1 -->
<g id="node1" class="node"><title>Node1</title>
<polygon fill="#bfbfbf" stroke="black" points="-0.5,-0.5 -0.5,-19.5 52.5,-19.5 52.5,-0.5 -0.5,-0.5"/>
<text text-anchor="middle" x="26" y="-7.5" font-family="Arial" font-size="10.00">indent_s</text>
</g>
<!-- Node1&#45;&gt;Node1 -->
<g id="edge2" class="edge"><title>Node1&#45;&gt;Node1</title>
<path fill="none" stroke="#9a32cd" stroke-dasharray="5,2" d="M62.6769,-15.4948C67.104,-14.5024 70,-12.6708 70,-10 70,-5.61719 62.2012,-3.49426 52.6354,-3.63123"/>
<polygon fill="#9a32cd" stroke="#9a32cd" points="62.2942,-12.0148 52.6354,-16.3688 62.9013,-18.9884 62.2942,-12.0148"/>
<text text-anchor="middle" x="81" y="-7.5" font-family="Arial" font-size="10.00"> next</text>
</g>
<!-- Node2 -->
<g id="node2" class="node"><title>Node2</title>
<g id="a_node2"><a xlink:href="classid_lexer.html" target="_top" xlink:title="idLexer">
<polygon fill="white" stroke="black" points="2,-68.5 2,-87.5 50,-87.5 50,-68.5 2,-68.5"/>
<text text-anchor="middle" x="26" y="-75.5" font-family="Arial" font-size="10.00">idLexer</text>
</a>
</g>
</g>
<!-- Node2&#45;&gt;Node1 -->
<g id="edge1" class="edge"><title>Node2&#45;&gt;Node1</title>
<path fill="none" stroke="#9a32cd" stroke-dasharray="5,2" d="M26,-58.0413C26,-45.4724 26,-29.5631 26,-19.8411"/>
<polygon fill="#9a32cd" stroke="#9a32cd" points="22.5001,-58.3716 26,-68.3717 29.5001,-58.3717 22.5001,-58.3716"/>
<text text-anchor="middle" x="40" y="-41.5" font-family="Arial" font-size="10.00"> script</text>
</g>
</g>
</svg>
