<?xml version="1.0" encoding="UTF-8" standalone="no"?>
<!DOCTYPE svg PUBLIC "-//W3C//DTD SVG 1.1//EN"
 "http://www.w3.org/Graphics/SVG/1.1/DTD/svg11.dtd">
<!-- Generated by graphviz version 2.34.0 (20130907.0111)
 -->
<!-- Title: st_lwClipXRef Pages: 1 -->
<!--zoomable 144 -->
<svg id="main" version="1.1" xmlns="http://www.w3.org/2000/svg" xmlns:xlink="http://www.w3.org/1999/xlink" xml:space="preserve" onload="init(evt)">
<style type="text/css"><![CDATA[
.edge:hover path { stroke: red; }
.edge:hover polygon { stroke: red; fill: red; }
]]></style>
<script type="text/javascript"><![CDATA[
var edges = document.getElementsByTagName('g');
if (edges && edges.length) {
  for (var i=0;i<edges.length;i++) {
    if (edges[i].id.substr(0,4)=='edge') {
      edges[i].setAttribute('class','edge');
    }
  }
}
]]></script>
        <defs>
                <circle id="rim" cx="0" cy="0" r="7"/>
                <circle id="rim2" cx="0" cy="0" r="3.5"/>
                <g id="zoomPlus">
                        <use xlink:href="#rim" fill="#404040">
                                <set attributeName="fill" to="#808080" begin="zoomplus.mouseover" end="zoomplus.mouseout"/>
                        </use>
                        <path d="M-4,0h8M0,-4v8" fill="none" stroke="white" stroke-width="1.5" pointer-events="none"/>
                </g>
                <g id="zoomMin">
                        <use xlink:href="#rim" fill="#404040">
                                <set attributeName="fill" to="#808080" begin="zoomminus.mouseover" end="zoomminus.mouseout"/>
                        </use>
                        <path d="M-4,0h8" fill="none" stroke="white" stroke-width="1.5" pointer-events="none"/>
                </g>
                <g id="dirArrow">
                        <path fill="none" stroke="white" stroke-width="1.5" d="M0,-3.0v7 M-2.5,-0.5L0,-3.0L2.5,-0.5"/>
                </g>
               <g id="resetDef">
                       <use xlink:href="#rim2" fill="#404040">
                               <set attributeName="fill" to="#808080" begin="reset.mouseover" end="reset.mouseout"/>
                       </use>
               </g>
        </defs>

<script type="text/javascript">
var viewWidth = 673;
var viewHeight = 144;
var sectionId = 'dynsection-0';
</script>
<script xlink:href="svgpan.js"/>
<svg id="graph" class="graph">
<g id="viewport">
<title>st_lwClipXRef</title>
<polygon fill="white" stroke="white" points="-4,4 -4,-140 669,-140 669,4 -4,4"/>
<!-- Node1 -->
<g id="node1" class="node"><title>Node1</title>
<polygon fill="#bfbfbf" stroke="black" points="-0.5,-115.5 -0.5,-134.5 74.5,-134.5 74.5,-115.5 -0.5,-115.5"/>
<text text-anchor="middle" x="37" y="-122.5" font-family="Arial" font-size="10.00">st_lwClipXRef</text>
</g>
<!-- Node2 -->
<g id="node2" class="node"><title>Node2</title>
<g id="a_node2"><a xlink:href="structst__lw_clip.html" target="_top" xlink:title="st_lwClip">
<polygon fill="white" stroke="black" points="238,-1.5 238,-20.5 294,-20.5 294,-1.5 238,-1.5"/>
<text text-anchor="middle" x="266" y="-8.5" font-family="Arial" font-size="10.00">st_lwClip</text>
</a>
</g>
</g>
<!-- Node1&#45;&gt;Node2 -->
<g id="edge5" class="edge"><title>Node1&#45;&gt;Node2</title>
<path fill="none" stroke="#9a32cd" stroke-dasharray="5,2" d="M31.9939,-105.386C28.1181,-86.3816 25.7996,-57.2874 42,-40 68.0619,-12.1893 183.825,-10.475 237.941,-11.2564"/>
<polygon fill="#9a32cd" stroke="#9a32cd" points="28.618,-106.32 34.3276,-115.245 35.4298,-104.707 28.618,-106.32"/>
<text text-anchor="middle" x="51.5" y="-65.5" font-family="Arial" font-size="10.00"> xref</text>
</g>
<!-- Node2&#45;&gt;Node1 -->
<g id="edge1" class="edge"><title>Node2&#45;&gt;Node1</title>
<path fill="none" stroke="#9a32cd" stroke-dasharray="5,2" d="M227.469,-14.4902C199.214,-17.579 160.606,-24.4986 130,-40 110.494,-49.8796 64.2866,-96.0287 45.3324,-115.402"/>
<polygon fill="#9a32cd" stroke="#9a32cd" points="228.14,-17.9413 237.752,-13.4841 227.459,-10.9745 228.14,-17.9413"/>
<text text-anchor="middle" x="139.5" y="-65.5" font-family="Arial" font-size="10.00"> clip</text>
</g>
<!-- Node2&#45;&gt;Node2 -->
<g id="edge10" class="edge"><title>Node2&#45;&gt;Node2</title>
<path fill="none" stroke="#9a32cd" stroke-dasharray="5,2" d="M295.819,-21.4853C304.897,-21.2328 312,-17.7377 312,-11 312,-1.92188 299.106,1.26965 285.859,-1.42542"/>
<polygon fill="#9a32cd" stroke="#9a32cd" points="296.136,-17.9997 285.859,-20.5746 295.498,-24.9706 296.136,-17.9997"/>
<text text-anchor="middle" x="322.5" y="-14" font-family="Arial" font-size="10.00"> prev</text>
<text text-anchor="middle" x="322.5" y="-3" font-family="Arial" font-size="10.00">next</text>
</g>
<!-- Node3 -->
<g id="node3" class="node"><title>Node3</title>
<g id="a_node3"><a xlink:href="structst__lw_clip_seq.html" target="_top" xlink:title="st_lwClipSeq">
<polygon fill="white" stroke="black" points="92.5,-115.5 92.5,-134.5 165.5,-134.5 165.5,-115.5 92.5,-115.5"/>
<text text-anchor="middle" x="129" y="-122.5" font-family="Arial" font-size="10.00">st_lwClipSeq</text>
</a>
</g>
</g>
<!-- Node3&#45;&gt;Node2 -->
<g id="edge2" class="edge"><title>Node3&#45;&gt;Node2</title>
<path fill="none" stroke="#9a32cd" stroke-dasharray="5,2" d="M142.217,-107.206C157.199,-88.9655 183.061,-59.791 210,-40 220.687,-32.1486 233.906,-25.4215 244.817,-20.5301"/>
<polygon fill="#9a32cd" stroke="#9a32cd" points="139.329,-105.211 135.779,-115.193 144.779,-109.604 139.329,-105.211"/>
<text text-anchor="middle" x="219.5" y="-65.5" font-family="Arial" font-size="10.00"> seq</text>
</g>
<!-- Node4 -->
<g id="node4" class="node"><title>Node4</title>
<g id="a_node4"><a xlink:href="structst__lw_clip_still.html" target="_top" xlink:title="st_lwClipStill">
<polygon fill="white" stroke="black" points="184,-115.5 184,-134.5 256,-134.5 256,-115.5 184,-115.5"/>
<text text-anchor="middle" x="220" y="-122.5" font-family="Arial" font-size="10.00">st_lwClipStill</text>
</a>
</g>
</g>
<!-- Node4&#45;&gt;Node2 -->
<g id="edge3" class="edge"><title>Node4&#45;&gt;Node2</title>
<path fill="none" stroke="#9a32cd" stroke-dasharray="5,2" d="M227.528,-105.671C237.565,-81.2331 254.931,-38.9495 262.407,-20.7476"/>
<polygon fill="#9a32cd" stroke="#9a32cd" points="224.171,-104.632 223.61,-115.212 230.646,-107.291 224.171,-104.632"/>
<text text-anchor="middle" x="263.5" y="-65.5" font-family="Arial" font-size="10.00"> still</text>
</g>
<!-- Node5 -->
<g id="node5" class="node"><title>Node5</title>
<g id="a_node5"><a xlink:href="structst__lw_clip_anim.html" target="_top" xlink:title="st_lwClipAnim">
<polygon fill="white" stroke="black" points="274,-115.5 274,-134.5 352,-134.5 352,-115.5 274,-115.5"/>
<text text-anchor="middle" x="313" y="-122.5" font-family="Arial" font-size="10.00">st_lwClipAnim</text>
</a>
</g>
</g>
<!-- Node5&#45;&gt;Node2 -->
<g id="edge4" class="edge"><title>Node5&#45;&gt;Node2</title>
<path fill="none" stroke="#9a32cd" stroke-dasharray="5,2" d="M305.308,-105.671C295.053,-81.2331 277.309,-38.9495 269.671,-20.7476"/>
<polygon fill="#9a32cd" stroke="#9a32cd" points="302.215,-107.345 309.312,-115.212 308.67,-104.636 302.215,-107.345"/>
<text text-anchor="middle" x="313.5" y="-65.5" font-family="Arial" font-size="10.00"> anim</text>
</g>
<!-- Node6 -->
<g id="node6" class="node"><title>Node6</title>
<g id="a_node6"><a xlink:href="structst__lw_plugin.html" target="_top" xlink:title="st_lwPlugin">
<polygon fill="white" stroke="black" points="370,-115.5 370,-134.5 436,-134.5 436,-115.5 370,-115.5"/>
<text text-anchor="middle" x="403" y="-122.5" font-family="Arial" font-size="10.00">st_lwPlugin</text>
</a>
</g>
</g>
<!-- Node6&#45;&gt;Node2 -->
<g id="edge6" class="edge"><title>Node6&#45;&gt;Node2</title>
<path fill="none" stroke="#9a32cd" stroke-dasharray="5,2" d="M391.647,-106.897C378.616,-88.3564 355.703,-58.8934 330,-40 318.762,-31.7395 304.706,-25.2502 292.631,-20.6077"/>
<polygon fill="#9a32cd" stroke="#9a32cd" points="388.833,-108.982 397.372,-115.255 394.609,-105.027 388.833,-108.982"/>
<text text-anchor="middle" x="396" y="-71" font-family="Arial" font-size="10.00"> ifilter</text>
<text text-anchor="middle" x="396" y="-60" font-family="Arial" font-size="10.00">pfilter</text>
</g>
<!-- Node6&#45;&gt;Node6 -->
<g id="edge7" class="edge"><title>Node6&#45;&gt;Node6</title>
<path fill="none" stroke="#9a32cd" stroke-dasharray="5,2" d="M434.91,-135.5C445.519,-135.492 454,-131.992 454,-125 454,-115.867 439.531,-112.692 424.752,-115.475"/>
<polygon fill="#9a32cd" stroke="#9a32cd" points="435.04,-131.996 424.752,-134.525 434.372,-138.964 435.04,-131.996"/>
<text text-anchor="middle" x="464.5" y="-128" font-family="Arial" font-size="10.00"> prev</text>
<text text-anchor="middle" x="464.5" y="-117" font-family="Arial" font-size="10.00">next</text>
</g>
<!-- Node7 -->
<g id="node7" class="node"><title>Node7</title>
<g id="a_node7"><a xlink:href="structst__lw_e_param.html" target="_top" xlink:title="st_lwEParam">
<polygon fill="white" stroke="black" points="493,-115.5 493,-134.5 567,-134.5 567,-115.5 493,-115.5"/>
<text text-anchor="middle" x="530" y="-122.5" font-family="Arial" font-size="10.00">st_lwEParam</text>
</a>
</g>
</g>
<!-- Node7&#45;&gt;Node2 -->
<g id="edge8" class="edge"><title>Node7&#45;&gt;Node2</title>
<path fill="none" stroke="#9a32cd" stroke-dasharray="5,2" d="M513.125,-108.346C491.434,-89.1338 451.804,-57.0196 412,-40 373.2,-23.4096 324.407,-16.5896 294.213,-13.8271"/>
<polygon fill="#9a32cd" stroke="#9a32cd" points="511.005,-111.147 520.773,-115.249 515.695,-105.95 511.005,-111.147"/>
<text text-anchor="middle" x="523.5" y="-87.5" font-family="Arial" font-size="10.00"> brightness</text>
<text text-anchor="middle" x="523.5" y="-76.5" font-family="Arial" font-size="10.00">gamma</text>
<text text-anchor="middle" x="523.5" y="-65.5" font-family="Arial" font-size="10.00">hue</text>
<text text-anchor="middle" x="523.5" y="-54.5" font-family="Arial" font-size="10.00">contrast</text>
<text text-anchor="middle" x="523.5" y="-43.5" font-family="Arial" font-size="10.00">saturation</text>
</g>
<!-- Node8 -->
<g id="node8" class="node"><title>Node8</title>
<g id="a_node8"><a xlink:href="structst__lw_clip_cycle.html" target="_top" xlink:title="st_lwClipCycle">
<polygon fill="white" stroke="black" points="585,-115.5 585,-134.5 665,-134.5 665,-115.5 585,-115.5"/>
<text text-anchor="middle" x="625" y="-122.5" font-family="Arial" font-size="10.00">st_lwClipCycle</text>
</a>
</g>
</g>
<!-- Node8&#45;&gt;Node2 -->
<g id="edge9" class="edge"><title>Node8&#45;&gt;Node2</title>
<path fill="none" stroke="#9a32cd" stroke-dasharray="5,2" d="M615.554,-106.783C603.614,-86.8984 581.066,-55.0021 552,-40 507.556,-17.0609 357.295,-12.8784 294.232,-12.143"/>
<polygon fill="#9a32cd" stroke="#9a32cd" points="612.522,-108.533 620.544,-115.453 618.589,-105.04 612.522,-108.533"/>
<text text-anchor="middle" x="621.5" y="-65.5" font-family="Arial" font-size="10.00"> cycle</text>
</g>
</g>
</svg>
        <g id="navigator" transform="translate(0 0)" fill="#404254">
                <rect fill="#f2f5e9" fill-opacity="0.5" stroke="#606060" stroke-width=".5" x="0" y="0" width="60" height="60"/>
                <use id="zoomplus" xlink:href="#zoomPlus" x="17" y="9" onmousedown="handleZoom(evt,'in')"/>
                <use id="zoomminus" xlink:href="#zoomMin" x="42" y="9" onmousedown="handleZoom(evt,'out')"/>
                <use id="reset" xlink:href="#resetDef" x="30" y="36" onmousedown="handleReset()"/>
                <g id="arrowUp" xlink:href="#dirArrow" transform="translate(30 24)" onmousedown="handlePan(0,-1)">
                  <use xlink:href="#rim" fill="#404040">
                        <set attributeName="fill" to="#808080" begin="arrowUp.mouseover" end="arrowUp.mouseout"/>
                  </use>
                  <path fill="none" stroke="white" stroke-width="1.5" d="M0,-3.0v7 M-2.5,-0.5L0,-3.0L2.5,-0.5"/>
                </g>
                <g id="arrowRight" xlink:href="#dirArrow" transform="rotate(90) translate(36 -43)" onmousedown="handlePan(1,0)">
                  <use xlink:href="#rim" fill="#404040">
                        <set attributeName="fill" to="#808080" begin="arrowRight.mouseover" end="arrowRight.mouseout"/>
                  </use>
                  <path fill="none" stroke="white" stroke-width="1.5" d="M0,-3.0v7 M-2.5,-0.5L0,-3.0L2.5,-0.5"/>
                </g>
                <g id="arrowDown" xlink:href="#dirArrow" transform="rotate(180) translate(-30 -48)" onmousedown="handlePan(0,1)">
                  <use xlink:href="#rim" fill="#404040">
                        <set attributeName="fill" to="#808080" begin="arrowDown.mouseover" end="arrowDown.mouseout"/>
                  </use>
                  <path fill="none" stroke="white" stroke-width="1.5" d="M0,-3.0v7 M-2.5,-0.5L0,-3.0L2.5,-0.5"/>
                </g>
                <g id="arrowLeft" xlink:href="#dirArrow" transform="rotate(270) translate(-36 17)" onmousedown="handlePan(-1,0)">
                  <use xlink:href="#rim" fill="#404040">
                        <set attributeName="fill" to="#808080" begin="arrowLeft.mouseover" end="arrowLeft.mouseout"/>
                  </use>
                  <path fill="none" stroke="white" stroke-width="1.5" d="M0,-3.0v7 M-2.5,-0.5L0,-3.0L2.5,-0.5"/>
                </g>
        </g>
        <svg viewBox="0 0 15 15" width="100%" height="30px" preserveAspectRatio="xMaxYMin meet">
         <g id="arrow_out" transform="scale(0.3 0.3)">
          <a xlink:href="structst__lw_clip_x_ref__coll__graph_org.svg" target="_base">
           <rect id="button" ry="5" rx="5" y="6" x="6" height="38" width="38"
                fill="#f2f5e9" fill-opacity="0.5" stroke="#606060" stroke-width="1.0"/>
           <path id="arrow"
             d="M 11.500037,31.436501 C 11.940474,20.09759 22.043105,11.32322 32.158766,21.979434 L 37.068811,17.246167 C 37.068811,17.246167 37.088388,32 37.088388,32 L 22.160133,31.978069 C 22.160133,31.978069 26.997745,27.140456 26.997745,27.140456 C 18.528582,18.264221 13.291696,25.230495 11.500037,31.436501 z"
             style="fill:#404040;"/>
          </a>
         </g>
        </svg>
</svg>
