<?xml version="1.0" encoding="UTF-8" standalone="no"?>
<!DOCTYPE svg PUBLIC "-//W3C//DTD SVG 1.1//EN"
 "http://www.w3.org/Graphics/SVG/1.1/DTD/svg11.dtd">
<!-- Generated by graphviz version 2.34.0 (20130907.0111)
 -->
<!-- Title: AFBodyPState_s Pages: 1 -->
<svg width="231pt" height="106pt"
 viewBox="0.00 0.00 231.00 106.00" xmlns="http://www.w3.org/2000/svg" xmlns:xlink="http://www.w3.org/1999/xlink">
<g id="graph0" class="graph" transform="scale(1 1) rotate(0) translate(4 102)">
<title>AFBodyPState_s</title>
<polygon fill="white" stroke="white" points="-4,4 -4,-102 227,-102 227,4 -4,4"/>
<!-- Node1 -->
<g id="node1" class="node"><title>Node1</title>
<polygon fill="#bfbfbf" stroke="black" points="46,-0.5 46,-19.5 138,-19.5 138,-0.5 46,-0.5"/>
<text text-anchor="middle" x="92" y="-7.5" font-family="Arial" font-size="10.00">AFBodyPState_s</text>
</g>
<!-- Node2 -->
<g id="node2" class="node"><title>Node2</title>
<g id="a_node2"><a xlink:href="classid_mat3.html" target="_top" xlink:title="idMat3">
<polygon fill="white" stroke="black" points="0,-78.5 0,-97.5 46,-97.5 46,-78.5 0,-78.5"/>
<text text-anchor="middle" x="23" y="-85.5" font-family="Arial" font-size="10.00">idMat3</text>
</a>
</g>
</g>
<!-- Node2&#45;&gt;Node1 -->
<g id="edge1" class="edge"><title>Node2&#45;&gt;Node1</title>
<path fill="none" stroke="#9a32cd" stroke-dasharray="5,2" d="M26.8185,-68.67C29.6505,-58.6863 34.3766,-46.6433 42,-38 49.113,-29.9355 59.2333,-23.8435 68.5105,-19.5065"/>
<polygon fill="#9a32cd" stroke="#9a32cd" points="23.4056,-67.8927 24.4415,-78.4368 30.2071,-69.5481 23.4056,-67.8927"/>
<text text-anchor="middle" x="65" y="-46.5" font-family="Arial" font-size="10.00"> worldAxis</text>
</g>
<!-- Node3 -->
<g id="node3" class="node"><title>Node3</title>
<g id="a_node3"><a xlink:href="classid_vec3.html" target="_top" xlink:title="idVec3">
<polygon fill="white" stroke="black" points="68.5,-78.5 68.5,-97.5 115.5,-97.5 115.5,-78.5 68.5,-78.5"/>
<text text-anchor="middle" x="92" y="-85.5" font-family="Arial" font-size="10.00">idVec3</text>
</a>
</g>
</g>
<!-- Node3&#45;&gt;Node1 -->
<g id="edge2" class="edge"><title>Node3&#45;&gt;Node1</title>
<path fill="none" stroke="#9a32cd" stroke-dasharray="5,2" d="M92,-68.2239C92,-52.6974 92,-31.3582 92,-19.6165"/>
<polygon fill="#9a32cd" stroke="#9a32cd" points="88.5001,-68.2818 92,-78.2818 95.5001,-68.2819 88.5001,-68.2818"/>
<text text-anchor="middle" x="118" y="-46.5" font-family="Arial" font-size="10.00"> worldOrigin</text>
</g>
<!-- Node4 -->
<g id="node4" class="node"><title>Node4</title>
<g id="a_node4"><a xlink:href="classid_vec6.html" target="_top" xlink:title="idVec6">
<polygon fill="white" stroke="black" points="143.5,-78.5 143.5,-97.5 190.5,-97.5 190.5,-78.5 143.5,-78.5"/>
<text text-anchor="middle" x="167" y="-85.5" font-family="Arial" font-size="10.00">idVec6</text>
</a>
</g>
</g>
<!-- Node4&#45;&gt;Node1 -->
<g id="edge3" class="edge"><title>Node4&#45;&gt;Node1</title>
<path fill="none" stroke="#9a32cd" stroke-dasharray="5,2" d="M162.035,-68.5836C158.585,-58.5726 153.122,-46.531 145,-38 137.31,-29.9224 126.676,-23.8549 116.95,-19.539"/>
<polygon fill="#9a32cd" stroke="#9a32cd" points="158.759,-69.8406 165.021,-78.3874 165.456,-67.8015 158.759,-69.8406"/>
<text text-anchor="middle" x="191" y="-52" font-family="Arial" font-size="10.00"> externalForce</text>
<text text-anchor="middle" x="191" y="-41" font-family="Arial" font-size="10.00">spatialVelocity</text>
</g>
</g>
</svg>
