<?xml version="1.0" encoding="UTF-8" standalone="no"?>
<!DOCTYPE svg PUBLIC "-//W3C//DTD SVG 1.1//EN"
 "http://www.w3.org/Graphics/SVG/1.1/DTD/svg11.dtd">
<!-- Generated by graphviz version 2.34.0 (20130907.0111)
 -->
<!-- Title: glyphInfo_t Pages: 1 -->
<svg width="74pt" height="222pt"
 viewBox="0.00 0.00 74.00 222.00" xmlns="http://www.w3.org/2000/svg" xmlns:xlink="http://www.w3.org/1999/xlink">
<g id="graph0" class="graph" transform="scale(1 1) rotate(0) translate(4 218)">
<title>glyphInfo_t</title>
<polygon fill="white" stroke="white" points="-4,4 -4,-218 70,-218 70,4 -4,4"/>
<!-- Node1 -->
<g id="node1" class="node"><title>Node1</title>
<polygon fill="#bfbfbf" stroke="black" points="1.5,-0.5 1.5,-19.5 64.5,-19.5 64.5,-0.5 1.5,-0.5"/>
<text text-anchor="middle" x="33" y="-7.5" font-family="Arial" font-size="10.00">glyphInfo_t</text>
</g>
<!-- Node2 -->
<g id="node2" class="node"><title>Node2</title>
<g id="a_node2"><a xlink:href="classid_material.html" target="_top" xlink:title="idMaterial">
<polygon fill="white" stroke="black" points="3.5,-68.5 3.5,-87.5 62.5,-87.5 62.5,-68.5 3.5,-68.5"/>
<text text-anchor="middle" x="33" y="-75.5" font-family="Arial" font-size="10.00">idMaterial</text>
</a>
</g>
</g>
<!-- Node2&#45;&gt;Node1 -->
<g id="edge1" class="edge"><title>Node2&#45;&gt;Node1</title>
<path fill="none" stroke="#9a32cd" stroke-dasharray="5,2" d="M33,-58.0413C33,-45.4724 33,-29.5631 33,-19.8411"/>
<polygon fill="#9a32cd" stroke="#9a32cd" points="29.5001,-58.3716 33,-68.3717 36.5001,-58.3717 29.5001,-58.3716"/>
<text text-anchor="middle" x="46.5" y="-41.5" font-family="Arial" font-size="10.00"> glyph</text>
</g>
<!-- Node3 -->
<g id="node3" class="node"><title>Node3</title>
<g id="a_node3"><a xlink:href="classid_decl.html" target="_top" xlink:title="idDecl">
<polygon fill="white" stroke="black" points="11,-126.5 11,-145.5 55,-145.5 55,-126.5 11,-126.5"/>
<text text-anchor="middle" x="33" y="-133.5" font-family="Arial" font-size="10.00">idDecl</text>
</a>
</g>
</g>
<!-- Node3&#45;&gt;Node2 -->
<g id="edge2" class="edge"><title>Node3&#45;&gt;Node2</title>
<path fill="none" stroke="midnightblue" d="M33,-115.953C33,-106.287 33,-95.0312 33,-87.5052"/>
<polygon fill="midnightblue" stroke="midnightblue" points="29.5001,-116.25 33,-126.25 36.5001,-116.25 29.5001,-116.25"/>
</g>
<!-- Node4 -->
<g id="node4" class="node"><title>Node4</title>
<g id="a_node4"><a xlink:href="classid_decl_base.html" target="_top" xlink:title="idDeclBase">
<polygon fill="white" stroke="black" points="0,-194.5 0,-213.5 66,-213.5 66,-194.5 0,-194.5"/>
<text text-anchor="middle" x="33" y="-201.5" font-family="Arial" font-size="10.00">idDeclBase</text>
</a>
</g>
</g>
<!-- Node4&#45;&gt;Node3 -->
<g id="edge3" class="edge"><title>Node4&#45;&gt;Node3</title>
<path fill="none" stroke="#9a32cd" stroke-dasharray="5,2" d="M33,-184.041C33,-171.472 33,-155.563 33,-145.841"/>
<polygon fill="#9a32cd" stroke="#9a32cd" points="29.5001,-184.372 33,-194.372 36.5001,-184.372 29.5001,-184.372"/>
<text text-anchor="middle" x="45.5" y="-167.5" font-family="Arial" font-size="10.00"> base</text>
</g>
</g>
</svg>
