<?xml version="1.0" encoding="UTF-8" standalone="no"?>
<!DOCTYPE svg PUBLIC "-//W3C//DTD SVG 1.1//EN"
 "http://www.w3.org/Graphics/SVG/1.1/DTD/svg11.dtd">
<!-- Generated by graphviz version 2.34.0 (20130907.0111)
 -->
<!-- Title: my_downsampler Pages: 1 -->
<!--zoomable 653 -->
<svg id="main" version="1.1" xmlns="http://www.w3.org/2000/svg" xmlns:xlink="http://www.w3.org/1999/xlink" xml:space="preserve" onload="init(evt)">
<style type="text/css"><![CDATA[
.edge:hover path { stroke: red; }
.edge:hover polygon { stroke: red; fill: red; }
]]></style>
<script type="text/javascript"><![CDATA[
var edges = document.getElementsByTagName('g');
if (edges && edges.length) {
  for (var i=0;i<edges.length;i++) {
    if (edges[i].id.substr(0,4)=='edge') {
      edges[i].setAttribute('class','edge');
    }
  }
}
]]></script>
        <defs>
                <circle id="rim" cx="0" cy="0" r="7"/>
                <circle id="rim2" cx="0" cy="0" r="3.5"/>
                <g id="zoomPlus">
                        <use xlink:href="#rim" fill="#404040">
                                <set attributeName="fill" to="#808080" begin="zoomplus.mouseover" end="zoomplus.mouseout"/>
                        </use>
                        <path d="M-4,0h8M0,-4v8" fill="none" stroke="white" stroke-width="1.5" pointer-events="none"/>
                </g>
                <g id="zoomMin">
                        <use xlink:href="#rim" fill="#404040">
                                <set attributeName="fill" to="#808080" begin="zoomminus.mouseover" end="zoomminus.mouseout"/>
                        </use>
                        <path d="M-4,0h8" fill="none" stroke="white" stroke-width="1.5" pointer-events="none"/>
                </g>
                <g id="dirArrow">
                        <path fill="none" stroke="white" stroke-width="1.5" d="M0,-3.0v7 M-2.5,-0.5L0,-3.0L2.5,-0.5"/>
                </g>
               <g id="resetDef">
                       <use xlink:href="#rim2" fill="#404040">
                               <set attributeName="fill" to="#808080" begin="reset.mouseover" end="reset.mouseout"/>
                       </use>
               </g>
        </defs>

<script type="text/javascript">
var viewWidth = 920;
var viewHeight = 653;
var sectionId = 'dynsection-0';
</script>
<script xlink:href="svgpan.js"/>
<svg id="graph" class="graph">
<g id="viewport">
<title>my_downsampler</title>
<polygon fill="white" stroke="white" points="-4,4 -4,-649 916,-649 916,4 -4,4"/>
<!-- Node1 -->
<g id="node1" class="node"><title>Node1</title>
<polygon fill="#bfbfbf" stroke="black" points="820,-544.5 820,-563.5 912,-563.5 912,-544.5 820,-544.5"/>
<text text-anchor="middle" x="866" y="-551.5" font-family="Arial" font-size="10.00">my_downsampler</text>
</g>
<!-- Node2 -->
<g id="node2" class="node"><title>Node2</title>
<g id="a_node2"><a xlink:href="structjpeg__downsampler.html" target="_top" xlink:title="jpeg_downsampler">
<polygon fill="white" stroke="black" points="413.5,-625.5 413.5,-644.5 510.5,-644.5 510.5,-625.5 413.5,-625.5"/>
<text text-anchor="middle" x="462" y="-632.5" font-family="Arial" font-size="10.00">jpeg_downsampler</text>
</a>
</g>
</g>
<!-- Node2&#45;&gt;Node1 -->
<g id="edge1" class="edge"><title>Node2&#45;&gt;Node1</title>
<path fill="none" stroke="#9a32cd" stroke-dasharray="5,2" d="M520.776,-635.901C548.004,-635.496 580.837,-633.809 610,-629 696.509,-614.735 795.071,-580.332 840.142,-563.54"/>
<polygon fill="#9a32cd" stroke="#9a32cd" points="520.601,-632.403 510.635,-635.998 520.668,-639.403 520.601,-632.403"/>
<text text-anchor="middle" x="685" y="-628" font-family="Arial" font-size="10.00"> pub</text>
</g>
<!-- Node3 -->
<g id="node3" class="node"><title>Node3</title>
<g id="a_node3"><a xlink:href="structjpeg__compress__struct.html" target="_top" xlink:title="jpeg_compress_struct">
<polygon fill="white" stroke="black" points="628.5,-323.5 628.5,-342.5 741.5,-342.5 741.5,-323.5 628.5,-323.5"/>
<text text-anchor="middle" x="685" y="-330.5" font-family="Arial" font-size="10.00">jpeg_compress_struct</text>
</a>
</g>
</g>
<!-- Node2&#45;&gt;Node3 -->
<g id="edge17" class="edge"><title>Node2&#45;&gt;Node3</title>
<path fill="none" stroke="#9a32cd" stroke-dasharray="5,2" d="M516.1,-623.233C555.326,-614.097 603.071,-601.863 610,-595 683.88,-521.826 685.43,-380.926 684.404,-342.745"/>
<polygon fill="#9a32cd" stroke="#9a32cd" points="515.298,-619.826 506.341,-625.485 516.871,-626.647 515.298,-619.826"/>
<text text-anchor="middle" x="574" y="-620" font-family="Arial" font-size="10.00"> downsample</text>
</g>
<!-- Node3&#45;&gt;Node1 -->
<g id="edge2" class="edge"><title>Node3&#45;&gt;Node1</title>
<path fill="none" stroke="#9a32cd" stroke-dasharray="5,2" d="M700.316,-350.674C736.282,-395.08 829.531,-510.208 857.169,-544.332"/>
<polygon fill="#9a32cd" stroke="#9a32cd" points="702.936,-348.349 693.922,-342.781 697.497,-352.755 702.936,-348.349"/>
<text text-anchor="middle" x="781" y="-479" font-family="Arial" font-size="10.00"> methods</text>
</g>
<!-- Node4 -->
<g id="node4" class="node"><title>Node4</title>
<g id="a_node4"><a xlink:href="structjpeg__c__prep__controller.html" target="_top" xlink:title="jpeg_c_prep_controller">
<polygon fill="white" stroke="black" points="405,-579.5 405,-598.5 519,-598.5 519,-579.5 405,-579.5"/>
<text text-anchor="middle" x="462" y="-586.5" font-family="Arial" font-size="10.00">jpeg_c_prep_controller</text>
</a>
</g>
</g>
<!-- Node4&#45;&gt;Node3 -->
<g id="edge3" class="edge"><title>Node4&#45;&gt;Node3</title>
<path fill="none" stroke="#9a32cd" stroke-dasharray="5,2" d="M529.466,-582.95C562.452,-578.673 597.814,-571.744 610,-561 678.051,-501.002 683.864,-377.852 684.091,-342.614"/>
<polygon fill="#9a32cd" stroke="#9a32cd" points="528.833,-579.501 519.334,-584.194 529.686,-586.449 528.833,-579.501"/>
<text text-anchor="middle" x="574" y="-584" font-family="Arial" font-size="10.00"> prep</text>
</g>
<!-- Node5 -->
<g id="node5" class="node"><title>Node5</title>
<g id="a_node5"><a xlink:href="struct_j_q_u_a_n_t___t_b_l.html" target="_top" xlink:title="JQUANT_TBL">
<polygon fill="white" stroke="black" points="194.5,-529.5 194.5,-548.5 271.5,-548.5 271.5,-529.5 194.5,-529.5"/>
<text text-anchor="middle" x="233" y="-536.5" font-family="Arial" font-size="10.00">JQUANT_TBL</text>
</a>
</g>
</g>
<!-- Node5&#45;&gt;Node3 -->
<g id="edge4" class="edge"><title>Node5&#45;&gt;Node3</title>
<path fill="none" stroke="#9a32cd" stroke-dasharray="5,2" d="M281.623,-544.542C370.791,-553.897 558.574,-568.458 610,-532 674.951,-485.954 682.979,-375.94 683.902,-342.684"/>
<polygon fill="#9a32cd" stroke="#9a32cd" points="281.826,-541.044 271.51,-543.459 281.081,-548.004 281.826,-541.044"/>
<text text-anchor="middle" x="462" y="-558" font-family="Arial" font-size="10.00"> quant_tbl_ptrs</text>
</g>
<!-- Node12 -->
<g id="node12" class="node"><title>Node12</title>
<g id="a_node12"><a xlink:href="structjpeg__component__info.html" target="_top" xlink:title="jpeg_component_info">
<polygon fill="white" stroke="black" points="408,-494.5 408,-513.5 516,-513.5 516,-494.5 408,-494.5"/>
<text text-anchor="middle" x="462" y="-501.5" font-family="Arial" font-size="10.00">jpeg_component_info</text>
</a>
</g>
</g>
<!-- Node5&#45;&gt;Node12 -->
<g id="edge15" class="edge"><title>Node5&#45;&gt;Node12</title>
<path fill="none" stroke="#9a32cd" stroke-dasharray="5,2" d="M281.768,-528.4C287.89,-527.18 294.083,-526.012 300,-525 335.842,-518.871 376.444,-513.586 407.907,-509.852"/>
<polygon fill="#9a32cd" stroke="#9a32cd" points="280.688,-525.049 271.595,-530.487 282.095,-531.906 280.688,-525.049"/>
<text text-anchor="middle" x="343" y="-528" font-family="Arial" font-size="10.00"> quant_table</text>
</g>
<!-- Node6 -->
<g id="node6" class="node"><title>Node6</title>
<g id="a_node6"><a xlink:href="struct_j_h_u_f_f___t_b_l.html" target="_top" xlink:title="JHUFF_TBL">
<polygon fill="white" stroke="black" points="427.5,-456.5 427.5,-475.5 496.5,-475.5 496.5,-456.5 427.5,-456.5"/>
<text text-anchor="middle" x="462" y="-463.5" font-family="Arial" font-size="10.00">JHUFF_TBL</text>
</a>
</g>
</g>
<!-- Node6&#45;&gt;Node3 -->
<g id="edge5" class="edge"><title>Node6&#45;&gt;Node3</title>
<path fill="none" stroke="#9a32cd" stroke-dasharray="5,2" d="M506.857,-463.378C537.819,-459.751 579.123,-451.181 610,-431 645.157,-408.022 670.026,-362.375 679.622,-342.555"/>
<polygon fill="#9a32cd" stroke="#9a32cd" points="506.366,-459.91 496.783,-464.428 507.092,-466.872 506.366,-459.91"/>
<text text-anchor="middle" x="574" y="-471" font-family="Arial" font-size="10.00"> ac_huff_tbl_ptrs</text>
<text text-anchor="middle" x="574" y="-460" font-family="Arial" font-size="10.00">dc_huff_tbl_ptrs</text>
</g>
<!-- Node7 -->
<g id="node7" class="node"><title>Node7</title>
<g id="a_node7"><a xlink:href="structjpeg__memory__mgr.html" target="_top" xlink:title="jpeg_memory_mgr">
<polygon fill="white" stroke="black" points="413.5,-418.5 413.5,-437.5 510.5,-437.5 510.5,-418.5 413.5,-418.5"/>
<text text-anchor="middle" x="462" y="-425.5" font-family="Arial" font-size="10.00">jpeg_memory_mgr</text>
</a>
</g>
</g>
<!-- Node7&#45;&gt;Node3 -->
<g id="edge6" class="edge"><title>Node7&#45;&gt;Node3</title>
<path fill="none" stroke="#9a32cd" stroke-dasharray="5,2" d="M520.563,-420.434C548.569,-415.244 582.121,-406.727 610,-393 636.413,-379.995 661.871,-356.068 674.933,-342.694"/>
<polygon fill="#9a32cd" stroke="#9a32cd" points="519.76,-417.021 510.517,-422.199 520.971,-423.916 519.76,-417.021"/>
<text text-anchor="middle" x="574" y="-419" font-family="Arial" font-size="10.00"> mem</text>
</g>
<!-- Node8 -->
<g id="node8" class="node"><title>Node8</title>
<g id="a_node8"><a xlink:href="structjvirt__barray__control.html" target="_top" xlink:title="jvirt_barray_control">
<polygon fill="white" stroke="black" points="184,-445.5 184,-464.5 282,-464.5 282,-445.5 184,-445.5"/>
<text text-anchor="middle" x="233" y="-452.5" font-family="Arial" font-size="10.00">jvirt_barray_control</text>
</a>
</g>
</g>
<!-- Node8&#45;&gt;Node7 -->
<g id="edge7" class="edge"><title>Node8&#45;&gt;Node7</title>
<path fill="none" stroke="#9a32cd" stroke-dasharray="5,2" d="M292.426,-448.051C329.96,-443.586 378.099,-437.86 413.318,-433.671"/>
<polygon fill="#9a32cd" stroke="#9a32cd" points="291.657,-444.617 282.141,-449.274 292.484,-451.568 291.657,-444.617"/>
<text text-anchor="middle" x="343" y="-450" font-family="Arial" font-size="10.00"> request_virt_barray</text>
</g>
<!-- Node8&#45;&gt;Node8 -->
<g id="edge8" class="edge"><title>Node8&#45;&gt;Node8</title>
<path fill="none" stroke="#9a32cd" stroke-dasharray="5,2" d="M217.075,-474.4C218.138,-479.315 223.447,-483 233,-483 248.285,-483 252.704,-473.565 246.255,-464.757"/>
<polygon fill="#9a32cd" stroke="#9a32cd" points="220.449,-475.328 219.745,-464.757 213.703,-473.46 220.449,-475.328"/>
<text text-anchor="middle" x="233" y="-486" font-family="Arial" font-size="10.00"> next</text>
</g>
<!-- Node9 -->
<g id="node9" class="node"><title>Node9</title>
<g id="a_node9"><a xlink:href="structbacking__store__struct.html" target="_top" xlink:title="backing_store_struct">
<polygon fill="white" stroke="black" points="0.5,-415.5 0.5,-434.5 107.5,-434.5 107.5,-415.5 0.5,-415.5"/>
<text text-anchor="middle" x="54" y="-422.5" font-family="Arial" font-size="10.00">backing_store_struct</text>
</a>
</g>
</g>
<!-- Node9&#45;&gt;Node8 -->
<g id="edge9" class="edge"><title>Node9&#45;&gt;Node8</title>
<path fill="none" stroke="#9a32cd" stroke-dasharray="5,2" d="M117.75,-435.636C139.464,-439.316 163.444,-443.38 183.805,-446.831"/>
<polygon fill="#9a32cd" stroke="#9a32cd" points="118.071,-432.14 107.627,-433.92 116.901,-439.042 118.071,-432.14"/>
<text text-anchor="middle" x="146" y="-446" font-family="Arial" font-size="10.00"> b_s_info</text>
</g>
<!-- Node10 -->
<g id="node10" class="node"><title>Node10</title>
<g id="a_node10"><a xlink:href="structjvirt__sarray__control.html" target="_top" xlink:title="jvirt_sarray_control">
<polygon fill="white" stroke="black" points="184,-378.5 184,-397.5 282,-397.5 282,-378.5 184,-378.5"/>
<text text-anchor="middle" x="233" y="-385.5" font-family="Arial" font-size="10.00">jvirt_sarray_control</text>
</a>
</g>
</g>
<!-- Node9&#45;&gt;Node10 -->
<g id="edge12" class="edge"><title>Node9&#45;&gt;Node10</title>
<path fill="none" stroke="#9a32cd" stroke-dasharray="5,2" d="M110.415,-413.416C134.803,-408.318 163.106,-402.402 186.265,-397.56"/>
<polygon fill="#9a32cd" stroke="#9a32cd" points="109.654,-409.999 100.582,-415.472 111.087,-416.851 109.654,-409.999"/>
<text text-anchor="middle" x="146" y="-412" font-family="Arial" font-size="10.00"> b_s_info</text>
</g>
<!-- Node10&#45;&gt;Node7 -->
<g id="edge10" class="edge"><title>Node10&#45;&gt;Node7</title>
<path fill="none" stroke="#9a32cd" stroke-dasharray="5,2" d="M292.426,-398.295C329.96,-404.909 378.099,-413.392 413.318,-419.598"/>
<polygon fill="#9a32cd" stroke="#9a32cd" points="292.597,-394.772 282.141,-396.483 291.382,-401.665 292.597,-394.772"/>
<text text-anchor="middle" x="343" y="-416" font-family="Arial" font-size="10.00"> request_virt_sarray</text>
</g>
<!-- Node10&#45;&gt;Node10 -->
<g id="edge11" class="edge"><title>Node10&#45;&gt;Node10</title>
<path fill="none" stroke="#9a32cd" stroke-dasharray="5,2" d="M217.075,-407.4C218.138,-412.315 223.447,-416 233,-416 248.285,-416 252.704,-406.565 246.255,-397.757"/>
<polygon fill="#9a32cd" stroke="#9a32cd" points="220.449,-408.328 219.745,-397.757 213.703,-406.46 220.449,-408.328"/>
<text text-anchor="middle" x="233" y="-419" font-family="Arial" font-size="10.00"> next</text>
</g>
<!-- Node11 -->
<g id="node11" class="node"><title>Node11</title>
<g id="a_node11"><a xlink:href="structjpeg__comp__master.html" target="_top" xlink:title="jpeg_comp_master">
<polygon fill="white" stroke="black" points="412.5,-380.5 412.5,-399.5 511.5,-399.5 511.5,-380.5 412.5,-380.5"/>
<text text-anchor="middle" x="462" y="-387.5" font-family="Arial" font-size="10.00">jpeg_comp_master</text>
</a>
</g>
</g>
<!-- Node11&#45;&gt;Node3 -->
<g id="edge13" class="edge"><title>Node11&#45;&gt;Node3</title>
<path fill="none" stroke="#9a32cd" stroke-dasharray="5,2" d="M521.916,-380.698C548.998,-375.832 581.389,-369.173 610,-361 627.698,-355.944 647.144,-348.51 661.658,-342.572"/>
<polygon fill="#9a32cd" stroke="#9a32cd" points="521.058,-377.296 511.816,-382.475 522.271,-384.19 521.058,-377.296"/>
<text text-anchor="middle" x="574" y="-381" font-family="Arial" font-size="10.00"> master</text>
</g>
<!-- Node12&#45;&gt;Node3 -->
<g id="edge14" class="edge"><title>Node12&#45;&gt;Node3</title>
<path fill="none" stroke="#9a32cd" stroke-dasharray="5,2" d="M526.23,-507.201C554.216,-505.617 586.123,-499.38 610,-482 658.805,-446.476 677.243,-369.645 682.368,-342.631"/>
<polygon fill="#9a32cd" stroke="#9a32cd" points="525.979,-503.708 516.119,-507.586 526.245,-510.703 525.979,-503.708"/>
<text text-anchor="middle" x="574" y="-520" font-family="Arial" font-size="10.00"> cur_comp_info</text>
<text text-anchor="middle" x="574" y="-509" font-family="Arial" font-size="10.00">comp_info</text>
</g>
<!-- Node13 -->
<g id="node13" class="node"><title>Node13</title>
<g id="a_node13"><a xlink:href="structjpeg__entropy__encoder.html" target="_top" xlink:title="jpeg_entropy_encoder">
<polygon fill="white" stroke="black" points="406,-342.5 406,-361.5 518,-361.5 518,-342.5 406,-342.5"/>
<text text-anchor="middle" x="462" y="-349.5" font-family="Arial" font-size="10.00">jpeg_entropy_encoder</text>
</a>
</g>
</g>
<!-- Node13&#45;&gt;Node3 -->
<g id="edge16" class="edge"><title>Node13&#45;&gt;Node3</title>
<path fill="none" stroke="#9a32cd" stroke-dasharray="5,2" d="M528.295,-346.386C560.1,-343.652 597.942,-340.399 628.356,-337.784"/>
<polygon fill="#9a32cd" stroke="#9a32cd" points="527.861,-342.911 518.198,-347.255 528.461,-349.885 527.861,-342.911"/>
<text text-anchor="middle" x="574" y="-349" font-family="Arial" font-size="10.00"> entropy</text>
</g>
<!-- Node14 -->
<g id="node14" class="node"><title>Node14</title>
<g id="a_node14"><a xlink:href="structjpeg__c__coef__controller.html" target="_top" xlink:title="jpeg_c_coef_controller">
<polygon fill="white" stroke="black" points="405.5,-304.5 405.5,-323.5 518.5,-323.5 518.5,-304.5 405.5,-304.5"/>
<text text-anchor="middle" x="462" y="-311.5" font-family="Arial" font-size="10.00">jpeg_c_coef_controller</text>
</a>
</g>
</g>
<!-- Node14&#45;&gt;Node3 -->
<g id="edge18" class="edge"><title>Node14&#45;&gt;Node3</title>
<path fill="none" stroke="#9a32cd" stroke-dasharray="5,2" d="M528.787,-318.457C554.18,-320.3 583.456,-322.573 610,-325 615.919,-325.541 622.101,-326.146 628.259,-326.775"/>
<polygon fill="#9a32cd" stroke="#9a32cd" points="528.755,-314.946 518.53,-317.721 528.254,-321.928 528.755,-314.946"/>
<text text-anchor="middle" x="574" y="-328" font-family="Arial" font-size="10.00"> coef</text>
</g>
<!-- Node15 -->
<g id="node15" class="node"><title>Node15</title>
<g id="a_node15"><a xlink:href="structjpeg__marker__writer.html" target="_top" xlink:title="jpeg_marker_writer">
<polygon fill="white" stroke="black" points="413,-266.5 413,-285.5 511,-285.5 511,-266.5 413,-266.5"/>
<text text-anchor="middle" x="462" y="-273.5" font-family="Arial" font-size="10.00">jpeg_marker_writer</text>
</a>
</g>
</g>
<!-- Node15&#45;&gt;Node3 -->
<g id="edge19" class="edge"><title>Node15&#45;&gt;Node3</title>
<path fill="none" stroke="#9a32cd" stroke-dasharray="5,2" d="M521.288,-285.189C548.495,-290.065 581.168,-296.764 610,-305 627.698,-310.056 647.144,-317.49 661.658,-323.428"/>
<polygon fill="#9a32cd" stroke="#9a32cd" points="521.601,-281.69 511.147,-283.41 520.392,-288.585 521.601,-281.69"/>
<text text-anchor="middle" x="574" y="-308" font-family="Arial" font-size="10.00"> marker</text>
</g>
<!-- Node16 -->
<g id="node16" class="node"><title>Node16</title>
<g id="a_node16"><a xlink:href="structjpeg__forward__dct.html" target="_top" xlink:title="jpeg_forward_dct">
<polygon fill="white" stroke="black" points="417.5,-228.5 417.5,-247.5 506.5,-247.5 506.5,-228.5 417.5,-228.5"/>
<text text-anchor="middle" x="462" y="-235.5" font-family="Arial" font-size="10.00">jpeg_forward_dct</text>
</a>
</g>
</g>
<!-- Node16&#45;&gt;Node3 -->
<g id="edge20" class="edge"><title>Node16&#45;&gt;Node3</title>
<path fill="none" stroke="#9a32cd" stroke-dasharray="5,2" d="M516.384,-245.341C545.16,-250.69 580.677,-259.595 610,-274 636.25,-286.896 661.772,-310.382 674.888,-323.497"/>
<polygon fill="#9a32cd" stroke="#9a32cd" points="516.964,-241.89 506.508,-243.594 515.745,-248.783 516.964,-241.89"/>
<text text-anchor="middle" x="574" y="-277" font-family="Arial" font-size="10.00"> fdct</text>
</g>
<!-- Node17 -->
<g id="node17" class="node"><title>Node17</title>
<g id="a_node17"><a xlink:href="structjpeg__progress__mgr.html" target="_top" xlink:title="jpeg_progress_mgr">
<polygon fill="white" stroke="black" points="412.5,-190.5 412.5,-209.5 511.5,-209.5 511.5,-190.5 412.5,-190.5"/>
<text text-anchor="middle" x="462" y="-197.5" font-family="Arial" font-size="10.00">jpeg_progress_mgr</text>
</a>
</g>
</g>
<!-- Node17&#45;&gt;Node3 -->
<g id="edge21" class="edge"><title>Node17&#45;&gt;Node3</title>
<path fill="none" stroke="#9a32cd" stroke-dasharray="5,2" d="M521.836,-205.193C550.294,-209.907 583.862,-218.889 610,-236 644.734,-258.739 669.659,-303.518 679.435,-323.26"/>
<polygon fill="#9a32cd" stroke="#9a32cd" points="522.017,-201.681 511.606,-203.643 520.968,-208.602 522.017,-201.681"/>
<text text-anchor="middle" x="574" y="-239" font-family="Arial" font-size="10.00"> progress</text>
</g>
<!-- Node18 -->
<g id="node18" class="node"><title>Node18</title>
<g id="a_node18"><a xlink:href="structjpeg__destination__mgr.html" target="_top" xlink:title="jpeg_destination_mgr">
<polygon fill="white" stroke="black" points="407.5,-152.5 407.5,-171.5 516.5,-171.5 516.5,-152.5 407.5,-152.5"/>
<text text-anchor="middle" x="462" y="-159.5" font-family="Arial" font-size="10.00">jpeg_destination_mgr</text>
</a>
</g>
</g>
<!-- Node18&#45;&gt;Node3 -->
<g id="edge22" class="edge"><title>Node18&#45;&gt;Node3</title>
<path fill="none" stroke="#9a32cd" stroke-dasharray="5,2" d="M526.595,-164.546C554.51,-168.445 586.257,-176.962 610,-195 654.592,-228.879 675.336,-297.592 681.737,-323.141"/>
<polygon fill="#9a32cd" stroke="#9a32cd" points="526.858,-161.052 516.506,-163.31 526.006,-168 526.858,-161.052"/>
<text text-anchor="middle" x="574" y="-198" font-family="Arial" font-size="10.00"> dest</text>
</g>
<!-- Node19 -->
<g id="node19" class="node"><title>Node19</title>
<g id="a_node19"><a xlink:href="structjpeg__c__main__controller.html" target="_top" xlink:title="jpeg_c_main_controller">
<polygon fill="white" stroke="black" points="404,-114.5 404,-133.5 520,-133.5 520,-114.5 404,-114.5"/>
<text text-anchor="middle" x="462" y="-121.5" font-family="Arial" font-size="10.00">jpeg_c_main_controller</text>
</a>
</g>
</g>
<!-- Node19&#45;&gt;Node3 -->
<g id="edge23" class="edge"><title>Node19&#45;&gt;Node3</title>
<path fill="none" stroke="#9a32cd" stroke-dasharray="5,2" d="M530.35,-123.285C557.651,-126.203 587.887,-133.917 610,-152 665.977,-197.774 680.033,-292.679 683.176,-323.27"/>
<polygon fill="#9a32cd" stroke="#9a32cd" points="530.319,-119.769 520.053,-122.391 529.713,-126.743 530.319,-119.769"/>
<text text-anchor="middle" x="574" y="-155" font-family="Arial" font-size="10.00"> main</text>
</g>
<!-- Node20 -->
<g id="node20" class="node"><title>Node20</title>
<g id="a_node20"><a xlink:href="structjpeg__scan__info.html" target="_top" xlink:title="jpeg_scan_info">
<polygon fill="white" stroke="black" points="421.5,-76.5 421.5,-95.5 502.5,-95.5 502.5,-76.5 421.5,-76.5"/>
<text text-anchor="middle" x="462" y="-83.5" font-family="Arial" font-size="10.00">jpeg_scan_info</text>
</a>
</g>
</g>
<!-- Node20&#45;&gt;Node3 -->
<g id="edge24" class="edge"><title>Node20&#45;&gt;Node3</title>
<path fill="none" stroke="#9a32cd" stroke-dasharray="5,2" d="M512.838,-81.8354C544.148,-81.9315 583.484,-87.3873 610,-110 677.352,-167.437 683.692,-287.731 684.06,-323.049"/>
<polygon fill="#9a32cd" stroke="#9a32cd" points="512.503,-78.34 502.557,-81.9913 512.609,-85.3392 512.503,-78.34"/>
<text text-anchor="middle" x="574" y="-113" font-family="Arial" font-size="10.00"> scan_info</text>
</g>
<!-- Node21 -->
<g id="node21" class="node"><title>Node21</title>
<g id="a_node21"><a xlink:href="structjpeg__color__converter.html" target="_top" xlink:title="jpeg_color_converter">
<polygon fill="white" stroke="black" points="409.5,-38.5 409.5,-57.5 514.5,-57.5 514.5,-38.5 409.5,-38.5"/>
<text text-anchor="middle" x="462" y="-45.5" font-family="Arial" font-size="10.00">jpeg_color_converter</text>
</a>
</g>
</g>
<!-- Node21&#45;&gt;Node3 -->
<g id="edge25" class="edge"><title>Node21&#45;&gt;Node3</title>
<path fill="none" stroke="#9a32cd" stroke-dasharray="5,2" d="M524.767,-42.2388C553.81,-42.8664 587.022,-48.8588 610,-69 650.091,-104.141 676.679,-279.91 682.7,-323.303"/>
<polygon fill="#9a32cd" stroke="#9a32cd" points="524.695,-38.7388 514.691,-42.2261 524.687,-45.7388 524.695,-38.7388"/>
<text text-anchor="middle" x="574" y="-72" font-family="Arial" font-size="10.00"> cconvert</text>
</g>
<!-- Node22 -->
<g id="node22" class="node"><title>Node22</title>
<g id="a_node22"><a xlink:href="structjpeg__error__mgr.html" target="_top" xlink:title="jpeg_error_mgr">
<polygon fill="white" stroke="black" points="421.5,-0.5 421.5,-19.5 502.5,-19.5 502.5,-0.5 421.5,-0.5"/>
<text text-anchor="middle" x="462" y="-7.5" font-family="Arial" font-size="10.00">jpeg_error_mgr</text>
</a>
</g>
</g>
<!-- Node22&#45;&gt;Node3 -->
<g id="edge26" class="edge"><title>Node22&#45;&gt;Node3</title>
<path fill="none" stroke="#9a32cd" stroke-dasharray="5,2" d="M512.981,-3.19656C544.53,-1.79677 584.078,-5.78903 610,-29 655.829,-70.0361 678.49,-276.432 683.104,-323.455"/>
<polygon fill="#9a32cd" stroke="#9a32cd" points="512.376,0.272057 502.619,-3.85801 512.822,-6.71372 512.376,0.272057"/>
<text text-anchor="middle" x="574" y="-32" font-family="Arial" font-size="10.00"> err</text>
</g>
</g>
</svg>
        <g id="navigator" transform="translate(0 0)" fill="#404254">
                <rect fill="#f2f5e9" fill-opacity="0.5" stroke="#606060" stroke-width=".5" x="0" y="0" width="60" height="60"/>
                <use id="zoomplus" xlink:href="#zoomPlus" x="17" y="9" onmousedown="handleZoom(evt,'in')"/>
                <use id="zoomminus" xlink:href="#zoomMin" x="42" y="9" onmousedown="handleZoom(evt,'out')"/>
                <use id="reset" xlink:href="#resetDef" x="30" y="36" onmousedown="handleReset()"/>
                <g id="arrowUp" xlink:href="#dirArrow" transform="translate(30 24)" onmousedown="handlePan(0,-1)">
                  <use xlink:href="#rim" fill="#404040">
                        <set attributeName="fill" to="#808080" begin="arrowUp.mouseover" end="arrowUp.mouseout"/>
                  </use>
                  <path fill="none" stroke="white" stroke-width="1.5" d="M0,-3.0v7 M-2.5,-0.5L0,-3.0L2.5,-0.5"/>
                </g>
                <g id="arrowRight" xlink:href="#dirArrow" transform="rotate(90) translate(36 -43)" onmousedown="handlePan(1,0)">
                  <use xlink:href="#rim" fill="#404040">
                        <set attributeName="fill" to="#808080" begin="arrowRight.mouseover" end="arrowRight.mouseout"/>
                  </use>
                  <path fill="none" stroke="white" stroke-width="1.5" d="M0,-3.0v7 M-2.5,-0.5L0,-3.0L2.5,-0.5"/>
                </g>
                <g id="arrowDown" xlink:href="#dirArrow" transform="rotate(180) translate(-30 -48)" onmousedown="handlePan(0,1)">
                  <use xlink:href="#rim" fill="#404040">
                        <set attributeName="fill" to="#808080" begin="arrowDown.mouseover" end="arrowDown.mouseout"/>
                  </use>
                  <path fill="none" stroke="white" stroke-width="1.5" d="M0,-3.0v7 M-2.5,-0.5L0,-3.0L2.5,-0.5"/>
                </g>
                <g id="arrowLeft" xlink:href="#dirArrow" transform="rotate(270) translate(-36 17)" onmousedown="handlePan(-1,0)">
                  <use xlink:href="#rim" fill="#404040">
                        <set attributeName="fill" to="#808080" begin="arrowLeft.mouseover" end="arrowLeft.mouseout"/>
                  </use>
                  <path fill="none" stroke="white" stroke-width="1.5" d="M0,-3.0v7 M-2.5,-0.5L0,-3.0L2.5,-0.5"/>
                </g>
        </g>
        <svg viewBox="0 0 15 15" width="100%" height="30px" preserveAspectRatio="xMaxYMin meet">
         <g id="arrow_out" transform="scale(0.3 0.3)">
          <a xlink:href="structmy__downsampler__coll__graph_org.svg" target="_base">
           <rect id="button" ry="5" rx="5" y="6" x="6" height="38" width="38"
                fill="#f2f5e9" fill-opacity="0.5" stroke="#606060" stroke-width="1.0"/>
           <path id="arrow"
             d="M 11.500037,31.436501 C 11.940474,20.09759 22.043105,11.32322 32.158766,21.979434 L 37.068811,17.246167 C 37.068811,17.246167 37.088388,32 37.088388,32 L 22.160133,31.978069 C 22.160133,31.978069 26.997745,27.140456 26.997745,27.140456 C 18.528582,18.264221 13.291696,25.230495 11.500037,31.436501 z"
             style="fill:#404040;"/>
          </a>
         </g>
        </svg>
</svg>
