<?xml version="1.0" encoding="UTF-8" standalone="no"?>
<!DOCTYPE svg PUBLIC "-//W3C//DTD SVG 1.1//EN"
 "http://www.w3.org/Graphics/SVG/1.1/DTD/svg11.dtd">
<!-- Generated by graphviz version 2.34.0 (20130907.0111)
 -->
<!-- Title: st_lwSurface Pages: 1 -->
<svg width="583pt" height="534pt"
 viewBox="0.00 0.00 583.00 534.00" xmlns="http://www.w3.org/2000/svg" xmlns:xlink="http://www.w3.org/1999/xlink">
<g id="graph0" class="graph" transform="scale(1 1) rotate(0) translate(4 530)">
<title>st_lwSurface</title>
<polygon fill="white" stroke="white" points="-4,4 -4,-530 579,-530 579,4 -4,4"/>
<!-- Node1 -->
<g id="node1" class="node"><title>Node1</title>
<polygon fill="#bfbfbf" stroke="black" points="129,-1.5 129,-20.5 201,-20.5 201,-1.5 129,-1.5"/>
<text text-anchor="middle" x="165" y="-8.5" font-family="Arial" font-size="10.00">st_lwSurface</text>
</g>
<!-- Node1&#45;&gt;Node1 -->
<g id="edge14" class="edge"><title>Node1&#45;&gt;Node1</title>
<path fill="none" stroke="#9a32cd" stroke-dasharray="5,2" d="M211.208,-17.1836C215.961,-15.9665 219,-13.9053 219,-11 219,-6.35156 211.221,-3.86392 201.087,-3.53708"/>
<polygon fill="#9a32cd" stroke="#9a32cd" points="210.569,-13.7365 201.087,-18.4629 211.447,-20.6812 210.569,-13.7365"/>
<text text-anchor="middle" x="229.5" y="-14" font-family="Arial" font-size="10.00"> prev</text>
<text text-anchor="middle" x="229.5" y="-3" font-family="Arial" font-size="10.00">next</text>
</g>
<!-- Node2 -->
<g id="node2" class="node"><title>Node2</title>
<g id="a_node2"><a xlink:href="structst__lw_r_map.html" target="_top" xlink:title="st_lwRMap">
<polygon fill="white" stroke="black" points="101.5,-109.5 101.5,-128.5 166.5,-128.5 166.5,-109.5 101.5,-109.5"/>
<text text-anchor="middle" x="134" y="-116.5" font-family="Arial" font-size="10.00">st_lwRMap</text>
</a>
</g>
</g>
<!-- Node2&#45;&gt;Node1 -->
<g id="edge1" class="edge"><title>Node2&#45;&gt;Node1</title>
<path fill="none" stroke="#9a32cd" stroke-dasharray="5,2" d="M127.772,-99.257C123.434,-82.7895 119.893,-58.6197 129,-40 133.035,-31.7492 140.805,-25.2267 148.097,-20.5602"/>
<polygon fill="#9a32cd" stroke="#9a32cd" points="124.545,-100.682 130.757,-109.264 131.253,-98.681 124.545,-100.682"/>
<text text-anchor="middle" x="159" y="-54" font-family="Arial" font-size="10.00"> transparency</text>
<text text-anchor="middle" x="159" y="-43" font-family="Arial" font-size="10.00">reflection</text>
</g>
<!-- Node3 -->
<g id="node3" class="node"><title>Node3</title>
<g id="a_node3"><a xlink:href="structst__lw_t_param.html" target="_top" xlink:title="st_lwTParam">
<polygon fill="white" stroke="black" points="166.5,-214.5 166.5,-233.5 239.5,-233.5 239.5,-214.5 166.5,-214.5"/>
<text text-anchor="middle" x="203" y="-221.5" font-family="Arial" font-size="10.00">st_lwTParam</text>
</a>
</g>
</g>
<!-- Node3&#45;&gt;Node1 -->
<g id="edge22" class="edge"><title>Node3&#45;&gt;Node1</title>
<path fill="none" stroke="#9a32cd" stroke-dasharray="5,2" d="M203.03,-204.082C202.857,-163.473 201.117,-69.27 189,-40 185.963,-32.6646 180.238,-25.8661 175.14,-20.8053"/>
<polygon fill="#9a32cd" stroke="#9a32cd" points="199.53,-204.227 203.044,-214.222 206.53,-204.217 199.53,-204.227"/>
<text text-anchor="middle" x="231" y="-149.5" font-family="Arial" font-size="10.00"> bump</text>
<text text-anchor="middle" x="231" y="-138.5" font-family="Arial" font-size="10.00">glossiness</text>
<text text-anchor="middle" x="231" y="-127.5" font-family="Arial" font-size="10.00">luminosity</text>
<text text-anchor="middle" x="231" y="-116.5" font-family="Arial" font-size="10.00">translucency</text>
<text text-anchor="middle" x="231" y="-105.5" font-family="Arial" font-size="10.00">specularity</text>
<text text-anchor="middle" x="231" y="-94.5" font-family="Arial" font-size="10.00">diffuse</text>
<text text-anchor="middle" x="231" y="-83.5" font-family="Arial" font-size="10.00">eta</text>
</g>
<!-- Node3&#45;&gt;Node2 -->
<g id="edge2" class="edge"><title>Node3&#45;&gt;Node2</title>
<path fill="none" stroke="#9a32cd" stroke-dasharray="5,2" d="M184.5,-207.541C180.782,-203.966 177.076,-200.023 174,-196 156.974,-173.732 143.382,-143.183 137.363,-128.525"/>
<polygon fill="#9a32cd" stroke="#9a32cd" points="182.186,-210.167 191.953,-214.272 186.878,-204.972 182.186,-210.167"/>
<text text-anchor="middle" x="181.5" y="-183.5" font-family="Arial" font-size="10.00"> val</text>
</g>
<!-- Node4 -->
<g id="node4" class="node"><title>Node4</title>
<g id="a_node4"><a xlink:href="structst__lw_texture.html" target="_top" xlink:title="st_lwTexture">
<polygon fill="white" stroke="black" points="259.5,-327.5 259.5,-346.5 330.5,-346.5 330.5,-327.5 259.5,-327.5"/>
<text text-anchor="middle" x="295" y="-334.5" font-family="Arial" font-size="10.00">st_lwTexture</text>
</a>
</g>
</g>
<!-- Node4&#45;&gt;Node3 -->
<g id="edge3" class="edge"><title>Node4&#45;&gt;Node3</title>
<path fill="none" stroke="#9a32cd" stroke-dasharray="5,2" d="M271.827,-321.563C266.303,-317.548 260.664,-312.925 256,-308 233.546,-284.29 215.095,-249.757 207.173,-233.75"/>
<polygon fill="#9a32cd" stroke="#9a32cd" points="270.025,-324.571 280.255,-327.329 273.978,-318.794 270.025,-324.571"/>
<text text-anchor="middle" x="264.5" y="-277.5" font-family="Arial" font-size="10.00"> tex</text>
</g>
<!-- Node4&#45;&gt;Node4 -->
<g id="edge10" class="edge"><title>Node4&#45;&gt;Node4</title>
<path fill="none" stroke="#9a32cd" stroke-dasharray="5,2" d="M340.812,-342.757C345.212,-341.587 348,-339.668 348,-337 348,-332.621 340.493,-330.261 330.669,-329.918"/>
<polygon fill="#9a32cd" stroke="#9a32cd" points="340.132,-339.316 330.669,-344.082 341.038,-346.257 340.132,-339.316"/>
<text text-anchor="middle" x="358.5" y="-340" font-family="Arial" font-size="10.00"> prev</text>
<text text-anchor="middle" x="358.5" y="-329" font-family="Arial" font-size="10.00">next</text>
</g>
<!-- Node13 -->
<g id="node13" class="node"><title>Node13</title>
<g id="a_node13"><a xlink:href="structst__lw_c_param.html" target="_top" xlink:title="st_lwCParam">
<polygon fill="white" stroke="black" points="258,-176.5 258,-195.5 332,-195.5 332,-176.5 258,-176.5"/>
<text text-anchor="middle" x="295" y="-183.5" font-family="Arial" font-size="10.00">st_lwCParam</text>
</a>
</g>
</g>
<!-- Node4&#45;&gt;Node13 -->
<g id="edge18" class="edge"><title>Node4&#45;&gt;Node13</title>
<path fill="none" stroke="#9a32cd" stroke-dasharray="5,2" d="M295,-317.105C295,-284.552 295,-219.128 295,-195.641"/>
<polygon fill="#9a32cd" stroke="#9a32cd" points="291.5,-317.126 295,-327.126 298.5,-317.126 291.5,-317.126"/>
<text text-anchor="middle" x="303.5" y="-277.5" font-family="Arial" font-size="10.00"> tex</text>
</g>
<!-- Node5 -->
<g id="node5" class="node"><title>Node5</title>
<g id="a_node5"><a xlink:href="structst__lw_procedural.html" target="_top" xlink:title="st_lwProcedural">
<polygon fill="white" stroke="black" points="356,-404.5 356,-423.5 442,-423.5 442,-404.5 356,-404.5"/>
<text text-anchor="middle" x="399" y="-411.5" font-family="Arial" font-size="10.00">st_lwProcedural</text>
</a>
</g>
</g>
<!-- Node5&#45;&gt;Node4 -->
<g id="edge4" class="edge"><title>Node5&#45;&gt;Node4</title>
<path fill="none" stroke="#9a32cd" stroke-dasharray="5,2" d="M378.68,-398.346C357.263,-382.901 324.263,-359.103 306.791,-346.503"/>
<polygon fill="#9a32cd" stroke="#9a32cd" points="376.912,-401.386 387.07,-404.397 381.006,-395.708 376.912,-401.386"/>
<text text-anchor="middle" x="371" y="-373.5" font-family="Arial" font-size="10.00"> proc</text>
</g>
<!-- Node6 -->
<g id="node6" class="node"><title>Node6</title>
<g id="a_node6"><a xlink:href="structst__lw_image_map.html" target="_top" xlink:title="st_lwImageMap">
<polygon fill="white" stroke="black" points="172,-404.5 172,-423.5 256,-423.5 256,-404.5 172,-404.5"/>
<text text-anchor="middle" x="214" y="-411.5" font-family="Arial" font-size="10.00">st_lwImageMap</text>
</a>
</g>
</g>
<!-- Node6&#45;&gt;Node4 -->
<g id="edge5" class="edge"><title>Node6&#45;&gt;Node4</title>
<path fill="none" stroke="#9a32cd" stroke-dasharray="5,2" d="M230.729,-397.511C247.421,-382.055 272.452,-358.878 285.817,-346.503"/>
<polygon fill="#9a32cd" stroke="#9a32cd" points="228.251,-395.034 223.292,-404.397 233.007,-400.171 228.251,-395.034"/>
<text text-anchor="middle" x="277.5" y="-373.5" font-family="Arial" font-size="10.00"> imap</text>
</g>
<!-- Node7 -->
<g id="node7" class="node"><title>Node7</title>
<g id="a_node7"><a xlink:href="structst__lw_e_param.html" target="_top" xlink:title="st_lwEParam">
<polygon fill="white" stroke="black" points="59,-505.5 59,-524.5 133,-524.5 133,-505.5 59,-505.5"/>
<text text-anchor="middle" x="96" y="-512.5" font-family="Arial" font-size="10.00">st_lwEParam</text>
</a>
</g>
</g>
<!-- Node7&#45;&gt;Node1 -->
<g id="edge21" class="edge"><title>Node7&#45;&gt;Node1</title>
<path fill="none" stroke="#9a32cd" stroke-dasharray="5,2" d="M89.1848,-495.932C82.4033,-476.305 73,-443.883 73,-415 73,-415 73,-415 73,-118 73,-77.5263 90.6168,-67.8343 120,-40 128.15,-32.2799 138.752,-25.5589 147.618,-20.6381"/>
<polygon fill="#9a32cd" stroke="#9a32cd" points="85.9203,-497.197 92.6063,-505.416 92.5049,-494.821 85.9203,-497.197"/>
<text text-anchor="middle" x="97" y="-299.5" font-family="Arial" font-size="10.00"> color_filter</text>
<text text-anchor="middle" x="97" y="-288.5" font-family="Arial" font-size="10.00">dif_sharp</text>
<text text-anchor="middle" x="97" y="-277.5" font-family="Arial" font-size="10.00">add_trans</text>
<text text-anchor="middle" x="97" y="-266.5" font-family="Arial" font-size="10.00">glow</text>
<text text-anchor="middle" x="97" y="-255.5" font-family="Arial" font-size="10.00">color_hilite</text>
</g>
<!-- Node7&#45;&gt;Node4 -->
<g id="edge9" class="edge"><title>Node7&#45;&gt;Node4</title>
<path fill="none" stroke="#9a32cd" stroke-dasharray="5,2" d="M96.5857,-495.078C98.3182,-471.013 104.751,-429.525 128,-404 162.533,-366.086 221.641,-349.646 259.482,-342.737"/>
<polygon fill="#9a32cd" stroke="#9a32cd" points="93.0759,-495.18 96.0597,-505.346 100.067,-495.539 93.0759,-495.18"/>
<text text-anchor="middle" x="145.5" y="-411.5" font-family="Arial" font-size="10.00"> opacity</text>
</g>
<!-- Node7&#45;&gt;Node6 -->
<g id="edge6" class="edge"><title>Node7&#45;&gt;Node6</title>
<path fill="none" stroke="#9a32cd" stroke-dasharray="5,2" d="M116.054,-499.237C121.605,-495.039 127.59,-490.408 133,-486 159.673,-464.264 189.849,-437.095 204.712,-423.531"/>
<polygon fill="#9a32cd" stroke="#9a32cd" points="113.745,-496.593 107.831,-505.384 117.936,-502.2 113.745,-496.593"/>
<text text-anchor="middle" x="207" y="-478" font-family="Arial" font-size="10.00"> amplitude</text>
<text text-anchor="middle" x="207" y="-467" font-family="Arial" font-size="10.00">wrapw</text>
<text text-anchor="middle" x="207" y="-456" font-family="Arial" font-size="10.00">stck</text>
<text text-anchor="middle" x="207" y="-445" font-family="Arial" font-size="10.00">wraph</text>
</g>
<!-- Node12 -->
<g id="node12" class="node"><title>Node12</title>
<g id="a_node12"><a xlink:href="structst__lw_line.html" target="_top" xlink:title="st_lwLine">
<polygon fill="white" stroke="black" points="-0.5,-366.5 -0.5,-385.5 56.5,-385.5 56.5,-366.5 -0.5,-366.5"/>
<text text-anchor="middle" x="28" y="-373.5" font-family="Arial" font-size="10.00">st_lwLine</text>
</a>
</g>
</g>
<!-- Node7&#45;&gt;Node12 -->
<g id="edge16" class="edge"><title>Node7&#45;&gt;Node12</title>
<path fill="none" stroke="#9a32cd" stroke-dasharray="5,2" d="M53.9808,-500.913C47.3644,-497.098 41.3007,-492.219 37,-486 15.2915,-454.609 22.1239,-405.317 26.0617,-385.585"/>
<polygon fill="#9a32cd" stroke="#9a32cd" points="52.716,-504.192 63.2321,-505.482 55.8157,-497.915 52.716,-504.192"/>
<text text-anchor="middle" x="48" y="-461.5" font-family="Arial" font-size="10.00"> size</text>
</g>
<!-- Node8 -->
<g id="node8" class="node"><title>Node8</title>
<g id="a_node8"><a xlink:href="structst__lw_t_map.html" target="_top" xlink:title="st_lwTMap">
<polygon fill="white" stroke="black" points="274.5,-404.5 274.5,-423.5 337.5,-423.5 337.5,-404.5 274.5,-404.5"/>
<text text-anchor="middle" x="306" y="-411.5" font-family="Arial" font-size="10.00">st_lwTMap</text>
</a>
</g>
</g>
<!-- Node8&#45;&gt;Node4 -->
<g id="edge7" class="edge"><title>Node8&#45;&gt;Node4</title>
<path fill="none" stroke="#9a32cd" stroke-dasharray="5,2" d="M303.282,-394.471C301.035,-379.149 297.947,-358.09 296.247,-346.503"/>
<polygon fill="#9a32cd" stroke="#9a32cd" points="299.824,-395.01 304.738,-404.397 306.75,-393.994 299.824,-395.01"/>
<text text-anchor="middle" x="314.5" y="-373.5" font-family="Arial" font-size="10.00"> tmap</text>
</g>
<!-- Node9 -->
<g id="node9" class="node"><title>Node9</title>
<g id="a_node9"><a xlink:href="structst__lw_v_param.html" target="_top" xlink:title="st_lwVParam">
<polygon fill="white" stroke="black" points="269,-505.5 269,-524.5 343,-524.5 343,-505.5 269,-505.5"/>
<text text-anchor="middle" x="306" y="-512.5" font-family="Arial" font-size="10.00">st_lwVParam</text>
</a>
</g>
</g>
<!-- Node9&#45;&gt;Node8 -->
<g id="edge8" class="edge"><title>Node9&#45;&gt;Node8</title>
<path fill="none" stroke="#9a32cd" stroke-dasharray="5,2" d="M306,-495.029C306,-473.543 306,-439.467 306,-423.625"/>
<polygon fill="#9a32cd" stroke="#9a32cd" points="302.5,-495.214 306,-505.214 309.5,-495.214 302.5,-495.214"/>
<text text-anchor="middle" x="320" y="-478" font-family="Arial" font-size="10.00"> size</text>
<text text-anchor="middle" x="320" y="-467" font-family="Arial" font-size="10.00">center</text>
<text text-anchor="middle" x="320" y="-456" font-family="Arial" font-size="10.00">falloff</text>
<text text-anchor="middle" x="320" y="-445" font-family="Arial" font-size="10.00">rotate</text>
</g>
<!-- Node10 -->
<g id="node10" class="node"><title>Node10</title>
<g id="a_node10"><a xlink:href="structst__lw_gradient.html" target="_top" xlink:title="st_lwGradient">
<polygon fill="white" stroke="black" points="460,-404.5 460,-423.5 536,-423.5 536,-404.5 460,-404.5"/>
<text text-anchor="middle" x="498" y="-411.5" font-family="Arial" font-size="10.00">st_lwGradient</text>
</a>
</g>
</g>
<!-- Node10&#45;&gt;Node4 -->
<g id="edge11" class="edge"><title>Node10&#45;&gt;Node4</title>
<path fill="none" stroke="#9a32cd" stroke-dasharray="5,2" d="M469.924,-400.308C447.454,-390.372 415.011,-376.521 386,-366 366.11,-358.787 343.36,-351.787 325.582,-346.59"/>
<polygon fill="#9a32cd" stroke="#9a32cd" points="468.642,-403.569 479.201,-404.439 471.489,-397.174 468.642,-403.569"/>
<text text-anchor="middle" x="446" y="-373.5" font-family="Arial" font-size="10.00"> grad</text>
</g>
<!-- Node11 -->
<g id="node11" class="node"><title>Node11</title>
<g id="a_node11"><a xlink:href="structst__lw_grad_key.html" target="_top" xlink:title="st_lwGradKey">
<polygon fill="white" stroke="black" points="459.5,-505.5 459.5,-524.5 536.5,-524.5 536.5,-505.5 459.5,-505.5"/>
<text text-anchor="middle" x="498" y="-512.5" font-family="Arial" font-size="10.00">st_lwGradKey</text>
</a>
</g>
</g>
<!-- Node11&#45;&gt;Node10 -->
<g id="edge12" class="edge"><title>Node11&#45;&gt;Node10</title>
<path fill="none" stroke="#9a32cd" stroke-dasharray="5,2" d="M498,-495.029C498,-473.543 498,-439.467 498,-423.625"/>
<polygon fill="#9a32cd" stroke="#9a32cd" points="494.5,-495.214 498,-505.214 501.5,-495.214 494.5,-495.214"/>
<text text-anchor="middle" x="507.5" y="-461.5" font-family="Arial" font-size="10.00"> key</text>
</g>
<!-- Node11&#45;&gt;Node11 -->
<g id="edge13" class="edge"><title>Node11&#45;&gt;Node11</title>
<path fill="none" stroke="#9a32cd" stroke-dasharray="5,2" d="M546.872,-522.415C551.251,-520.864 554,-518.392 554,-515 554,-509.434 546.597,-506.346 536.735,-505.737"/>
<polygon fill="#9a32cd" stroke="#9a32cd" points="545.945,-519.026 536.735,-524.263 547.201,-525.912 545.945,-519.026"/>
<text text-anchor="middle" x="564.5" y="-518" font-family="Arial" font-size="10.00"> prev</text>
<text text-anchor="middle" x="564.5" y="-507" font-family="Arial" font-size="10.00">next</text>
</g>
<!-- Node12&#45;&gt;Node1 -->
<g id="edge15" class="edge"><title>Node12&#45;&gt;Node1</title>
<path fill="none" stroke="#9a32cd" stroke-dasharray="5,2" d="M27.3644,-356.187C26.7788,-337.212 26,-307.076 26,-281 26,-281 26,-281 26,-118 26,-80.3584 30.5624,-64.6615 59,-40 78.269,-23.2896 106.408,-16.4013 128.853,-13.631"/>
<polygon fill="#9a32cd" stroke="#9a32cd" points="23.8664,-356.307 27.6875,-366.189 30.8627,-356.081 23.8664,-356.307"/>
<text text-anchor="middle" x="35.5" y="-221.5" font-family="Arial" font-size="10.00"> line</text>
</g>
<!-- Node13&#45;&gt;Node1 -->
<g id="edge17" class="edge"><title>Node13&#45;&gt;Node1</title>
<path fill="none" stroke="#9a32cd" stroke-dasharray="5,2" d="M292.527,-166.404C288.904,-144.327 280.574,-107.093 263,-80 244.292,-51.1599 208.64,-31.1298 185.884,-20.6106"/>
<polygon fill="#9a32cd" stroke="#9a32cd" points="289.085,-167.056 294.017,-176.434 296.009,-166.028 289.085,-167.056"/>
<text text-anchor="middle" x="303.5" y="-116.5" font-family="Arial" font-size="10.00"> color</text>
</g>
<!-- Node14 -->
<g id="node14" class="node"><title>Node14</title>
<g id="a_node14"><a xlink:href="structst__lw_plugin.html" target="_top" xlink:title="st_lwPlugin">
<polygon fill="white" stroke="black" points="338,-109.5 338,-128.5 404,-128.5 404,-109.5 338,-109.5"/>
<text text-anchor="middle" x="371" y="-116.5" font-family="Arial" font-size="10.00">st_lwPlugin</text>
</a>
</g>
</g>
<!-- Node14&#45;&gt;Node1 -->
<g id="edge19" class="edge"><title>Node14&#45;&gt;Node1</title>
<path fill="none" stroke="#9a32cd" stroke-dasharray="5,2" d="M361.75,-100.056C351.42,-81.9151 332.955,-54.5428 309,-40 276.127,-20.0428 231.934,-13.8872 201.212,-12.1951"/>
<polygon fill="#9a32cd" stroke="#9a32cd" points="358.785,-101.93 366.636,-109.044 364.935,-98.5867 358.785,-101.93"/>
<text text-anchor="middle" x="350.5" y="-48.5" font-family="Arial" font-size="10.00"> shader</text>
</g>
<!-- Node14&#45;&gt;Node14 -->
<g id="edge20" class="edge"><title>Node14&#45;&gt;Node14</title>
<path fill="none" stroke="#9a32cd" stroke-dasharray="5,2" d="M396.694,-130.937C410,-132.781 422,-128.802 422,-119 422,-106.818 403.468,-103.63 386.927,-109.436"/>
<polygon fill="#9a32cd" stroke="#9a32cd" points="397.47,-127.524 386.927,-128.564 395.818,-134.326 397.47,-127.524"/>
<text text-anchor="middle" x="432.5" y="-122" font-family="Arial" font-size="10.00"> prev</text>
<text text-anchor="middle" x="432.5" y="-111" font-family="Arial" font-size="10.00">next</text>
</g>
</g>
</svg>
