<?xml version="1.0" encoding="UTF-8" standalone="no"?>
<!DOCTYPE svg PUBLIC "-//W3C//DTD SVG 1.1//EN"
 "http://www.w3.org/Graphics/SVG/1.1/DTD/svg11.dtd">
<!-- Generated by graphviz version 2.34.0 (20130907.0111)
 -->
<!-- Title: my_post_controller Pages: 1 -->
<svg width="282pt" height="164pt"
 viewBox="0.00 0.00 282.00 164.00" xmlns="http://www.w3.org/2000/svg" xmlns:xlink="http://www.w3.org/1999/xlink">
<g id="graph0" class="graph" transform="scale(1 1) rotate(0) translate(4 160)">
<title>my_post_controller</title>
<polygon fill="white" stroke="white" points="-4,4 -4,-160 278,-160 278,4 -4,4"/>
<!-- Node1 -->
<g id="node1" class="node"><title>Node1</title>
<polygon fill="#bfbfbf" stroke="black" points="125.5,-0.5 125.5,-19.5 224.5,-19.5 224.5,-0.5 125.5,-0.5"/>
<text text-anchor="middle" x="175" y="-7.5" font-family="Arial" font-size="10.00">my_post_controller</text>
</g>
<!-- Node2 -->
<g id="node2" class="node"><title>Node2</title>
<g id="a_node2"><a xlink:href="structjvirt__sarray__control.html" target="_top" xlink:title="jvirt_sarray_control">
<polygon fill="white" stroke="black" points="4,-68.5 4,-87.5 102,-87.5 102,-68.5 4,-68.5"/>
<text text-anchor="middle" x="53" y="-75.5" font-family="Arial" font-size="10.00">jvirt_sarray_control</text>
</a>
</g>
</g>
<!-- Node2&#45;&gt;Node1 -->
<g id="edge1" class="edge"><title>Node2&#45;&gt;Node1</title>
<path fill="none" stroke="#9a32cd" stroke-dasharray="5,2" d="M77.9271,-63.5149C102.213,-50.3767 138.404,-30.7981 159.047,-19.6305"/>
<polygon fill="#9a32cd" stroke="#9a32cd" points="76.0794,-60.535 68.9494,-68.3717 79.4102,-66.6918 76.0794,-60.535"/>
<text text-anchor="middle" x="155" y="-41.5" font-family="Arial" font-size="10.00"> whole_image</text>
</g>
<!-- Node2&#45;&gt;Node2 -->
<g id="edge2" class="edge"><title>Node2&#45;&gt;Node2</title>
<path fill="none" stroke="#9a32cd" stroke-dasharray="5,2" d="M112.323,-82.8612C117.065,-81.7993 120,-80.179 120,-78 120,-74.5137 112.486,-72.4573 102.08,-71.8308"/>
<polygon fill="#9a32cd" stroke="#9a32cd" points="111.556,-79.4305 102.08,-84.1692 112.443,-86.3741 111.556,-79.4305"/>
<text text-anchor="middle" x="131" y="-75.5" font-family="Arial" font-size="10.00"> next</text>
</g>
<!-- Node3 -->
<g id="node3" class="node"><title>Node3</title>
<g id="a_node3"><a xlink:href="structbacking__store__struct.html" target="_top" xlink:title="backing_store_struct">
<polygon fill="white" stroke="black" points="-0.5,-136.5 -0.5,-155.5 106.5,-155.5 106.5,-136.5 -0.5,-136.5"/>
<text text-anchor="middle" x="53" y="-143.5" font-family="Arial" font-size="10.00">backing_store_struct</text>
</a>
</g>
</g>
<!-- Node3&#45;&gt;Node2 -->
<g id="edge3" class="edge"><title>Node3&#45;&gt;Node2</title>
<path fill="none" stroke="#9a32cd" stroke-dasharray="5,2" d="M53,-126.041C53,-113.472 53,-97.5631 53,-87.8411"/>
<polygon fill="#9a32cd" stroke="#9a32cd" points="49.5001,-126.372 53,-136.372 56.5001,-126.372 49.5001,-126.372"/>
<text text-anchor="middle" x="73" y="-109.5" font-family="Arial" font-size="10.00"> b_s_info</text>
</g>
<!-- Node4 -->
<g id="node4" class="node"><title>Node4</title>
<g id="a_node4"><a xlink:href="structjpeg__d__post__controller.html" target="_top" xlink:title="jpeg_d_post_controller">
<polygon fill="white" stroke="black" points="160,-68.5 160,-87.5 274,-87.5 274,-68.5 160,-68.5"/>
<text text-anchor="middle" x="217" y="-75.5" font-family="Arial" font-size="10.00">jpeg_d_post_controller</text>
</a>
</g>
</g>
<!-- Node4&#45;&gt;Node1 -->
<g id="edge4" class="edge"><title>Node4&#45;&gt;Node1</title>
<path fill="none" stroke="#9a32cd" stroke-dasharray="5,2" d="M205.904,-59.563C197.77,-46.7815 187.065,-29.9599 180.626,-19.8411"/>
<polygon fill="#9a32cd" stroke="#9a32cd" points="203.188,-61.8141 211.509,-68.3717 209.093,-58.0559 203.188,-61.8141"/>
<text text-anchor="middle" x="208.5" y="-41.5" font-family="Arial" font-size="10.00"> pub</text>
</g>
</g>
</svg>
