<?xml version="1.0" encoding="UTF-8" standalone="no"?>
<!DOCTYPE svg PUBLIC "-//W3C//DTD SVG 1.1//EN"
 "http://www.w3.org/Graphics/SVG/1.1/DTD/svg11.dtd">
<!-- Generated by graphviz version 2.34.0 (20130907.0111)
 -->
<!-- Title: challenge_s Pages: 1 -->
<svg width="142pt" height="96pt"
 viewBox="0.00 0.00 142.00 96.00" xmlns="http://www.w3.org/2000/svg" xmlns:xlink="http://www.w3.org/1999/xlink">
<g id="graph0" class="graph" transform="scale(1 1) rotate(0) translate(4 92)">
<title>challenge_s</title>
<polygon fill="white" stroke="white" points="-4,4 -4,-92 138,-92 138,4 -4,4"/>
<!-- Node1 -->
<g id="node1" class="node"><title>Node1</title>
<polygon fill="#bfbfbf" stroke="black" points="29,-0.5 29,-19.5 97,-19.5 97,-0.5 29,-0.5"/>
<text text-anchor="middle" x="63" y="-7.5" font-family="Arial" font-size="10.00">challenge_s</text>
</g>
<!-- Node2 -->
<g id="node2" class="node"><title>Node2</title>
<g id="a_node2"><a xlink:href="classid_str.html" target="_top" xlink:title="idStr">
<polygon fill="white" stroke="black" points="-0.5,-68.5 -0.5,-87.5 36.5,-87.5 36.5,-68.5 -0.5,-68.5"/>
<text text-anchor="middle" x="18" y="-75.5" font-family="Arial" font-size="10.00">idStr</text>
</a>
</g>
</g>
<!-- Node2&#45;&gt;Node1 -->
<g id="edge1" class="edge"><title>Node2&#45;&gt;Node1</title>
<path fill="none" stroke="#9a32cd" stroke-dasharray="5,2" d="M14.8992,-57.9826C14.7028,-51.2786 15.5756,-43.9391 19,-38 23.6558,-29.9252 31.7905,-23.9551 39.8091,-19.7123"/>
<polygon fill="#9a32cd" stroke="#9a32cd" points="11.4574,-58.7234 15.9774,-68.3057 18.4196,-57.9962 11.4574,-58.7234"/>
<text text-anchor="middle" x="52.5" y="-41.5" font-family="Arial" font-size="10.00"> authReplyPrint</text>
</g>
<!-- Node3 -->
<g id="node3" class="node"><title>Node3</title>
<g id="a_node3"><a xlink:href="structnetadr__t.html" target="_top" xlink:title="netadr_t">
<polygon fill="white" stroke="black" points="82,-68.5 82,-87.5 134,-87.5 134,-68.5 82,-68.5"/>
<text text-anchor="middle" x="108" y="-75.5" font-family="Arial" font-size="10.00">netadr_t</text>
</a>
</g>
</g>
<!-- Node3&#45;&gt;Node1 -->
<g id="edge2" class="edge"><title>Node3&#45;&gt;Node1</title>
<path fill="none" stroke="#9a32cd" stroke-dasharray="5,2" d="M98.9248,-59.2492C95.1978,-52.428 90.6649,-44.6804 86,-38 81.4874,-31.5378 75.7374,-24.7878 71.1156,-19.6533"/>
<polygon fill="#9a32cd" stroke="#9a32cd" points="95.9651,-61.1399 103.73,-68.3479 102.155,-57.8708 95.9651,-61.1399"/>
<text text-anchor="middle" x="113" y="-41.5" font-family="Arial" font-size="10.00"> address</text>
</g>
</g>
</svg>
