<?xml version="1.0" encoding="UTF-8" standalone="no"?>
<!DOCTYPE svg PUBLIC "-//W3C//DTD SVG 1.1//EN"
 "http://www.w3.org/Graphics/SVG/1.1/DTD/svg11.dtd">
<!-- Generated by graphviz version 2.34.0 (20130907.0111)
 -->
<!-- Title: triHash_t Pages: 1 -->
<svg width="208pt" height="96pt"
 viewBox="0.00 0.00 208.00 96.00" xmlns="http://www.w3.org/2000/svg" xmlns:xlink="http://www.w3.org/1999/xlink">
<g id="graph0" class="graph" transform="scale(1 1) rotate(0) translate(4 92)">
<title>triHash_t</title>
<polygon fill="white" stroke="white" points="-4,4 -4,-92 204,-92 204,4 -4,4"/>
<!-- Node1 -->
<g id="node1" class="node"><title>Node1</title>
<polygon fill="#bfbfbf" stroke="black" points="72,-0.5 72,-19.5 128,-19.5 128,-0.5 72,-0.5"/>
<text text-anchor="middle" x="100" y="-7.5" font-family="Arial" font-size="10.00">triHash_t</text>
</g>
<!-- Node2 -->
<g id="node2" class="node"><title>Node2</title>
<g id="a_node2"><a xlink:href="structbin_link__t.html" target="_top" xlink:title="binLink_t">
<polygon fill="white" stroke="black" points="0,-68.5 0,-87.5 56,-87.5 56,-68.5 0,-68.5"/>
<text text-anchor="middle" x="28" y="-75.5" font-family="Arial" font-size="10.00">binLink_t</text>
</a>
</g>
</g>
<!-- Node2&#45;&gt;Node1 -->
<g id="edge1" class="edge"><title>Node2&#45;&gt;Node1</title>
<path fill="none" stroke="#9a32cd" stroke-dasharray="5,2" d="M38.0585,-59.9956C42.8954,-52.6917 49.1342,-44.3866 56,-38 63.8747,-30.6749 74.0349,-24.2844 82.6075,-19.562"/>
<polygon fill="#9a32cd" stroke="#9a32cd" points="35.0792,-58.1588 32.7399,-68.4921 41.0126,-61.873 35.0792,-58.1588"/>
<text text-anchor="middle" x="76" y="-41.5" font-family="Arial" font-size="10.00"> binLinks</text>
</g>
<!-- Node3 -->
<g id="node3" class="node"><title>Node3</title>
<g id="a_node3"><a xlink:href="structtri_link__t.html" target="_top" xlink:title="triLink_t">
<polygon fill="white" stroke="black" points="74.5,-68.5 74.5,-87.5 125.5,-87.5 125.5,-68.5 74.5,-68.5"/>
<text text-anchor="middle" x="100" y="-75.5" font-family="Arial" font-size="10.00">triLink_t</text>
</a>
</g>
</g>
<!-- Node3&#45;&gt;Node1 -->
<g id="edge2" class="edge"><title>Node3&#45;&gt;Node1</title>
<path fill="none" stroke="#9a32cd" stroke-dasharray="5,2" d="M100,-58.0413C100,-45.4724 100,-29.5631 100,-19.8411"/>
<polygon fill="#9a32cd" stroke="#9a32cd" points="96.5001,-58.3716 100,-68.3717 103.5,-58.3717 96.5001,-58.3716"/>
<text text-anchor="middle" x="124.5" y="-41.5" font-family="Arial" font-size="10.00"> linkBlocks</text>
</g>
<!-- Node4 -->
<g id="node4" class="node"><title>Node4</title>
<g id="a_node4"><a xlink:href="classid_bounds.html" target="_top" xlink:title="idBounds">
<polygon fill="white" stroke="black" points="143.5,-68.5 143.5,-87.5 200.5,-87.5 200.5,-68.5 143.5,-68.5"/>
<text text-anchor="middle" x="172" y="-75.5" font-family="Arial" font-size="10.00">idBounds</text>
</a>
</g>
</g>
<!-- Node4&#45;&gt;Node1 -->
<g id="edge3" class="edge"><title>Node4&#45;&gt;Node1</title>
<path fill="none" stroke="#9a32cd" stroke-dasharray="5,2" d="M164.4,-58.7653C160.798,-51.669 155.964,-43.8544 150,-38 142.115,-30.2596 131.559,-24.124 122.179,-19.6707"/>
<polygon fill="#9a32cd" stroke="#9a32cd" points="161.437,-60.7019 168.784,-68.3362 167.802,-57.7869 161.437,-60.7019"/>
<text text-anchor="middle" x="177.5" y="-41.5" font-family="Arial" font-size="10.00"> bounds</text>
</g>
</g>
</svg>
