<?xml version="1.0" encoding="UTF-8" standalone="no"?>
<!DOCTYPE svg PUBLIC "-//W3C//DTD SVG 1.1//EN"
 "http://www.w3.org/Graphics/SVG/1.1/DTD/svg11.dtd">
<!-- Generated by graphviz version 2.34.0 (20130907.0111)
 -->
<!-- Title: copyRenderCommand_t Pages: 1 -->
<svg width="296pt" height="334pt"
 viewBox="0.00 0.00 296.00 334.00" xmlns="http://www.w3.org/2000/svg" xmlns:xlink="http://www.w3.org/1999/xlink">
<g id="graph0" class="graph" transform="scale(1 1) rotate(0) translate(4 330)">
<title>copyRenderCommand_t</title>
<polygon fill="white" stroke="white" points="-4,4 -4,-330 292,-330 292,4 -4,4"/>
<!-- Node1 -->
<g id="node1" class="node"><title>Node1</title>
<polygon fill="#bfbfbf" stroke="black" points="-0.5,-0.5 -0.5,-19.5 120.5,-19.5 120.5,-0.5 -0.5,-0.5"/>
<text text-anchor="middle" x="60" y="-7.5" font-family="Arial" font-size="10.00">copyRenderCommand_t</text>
</g>
<!-- Node2 -->
<g id="node2" class="node"><title>Node2</title>
<g id="a_node2"><a xlink:href="classid_image.html" target="_top" xlink:title="idImage">
<polygon fill="white" stroke="black" points="35,-85.5 35,-104.5 85,-104.5 85,-85.5 35,-85.5"/>
<text text-anchor="middle" x="60" y="-92.5" font-family="Arial" font-size="10.00">idImage</text>
</a>
</g>
</g>
<!-- Node2&#45;&gt;Node1 -->
<g id="edge1" class="edge"><title>Node2&#45;&gt;Node1</title>
<path fill="none" stroke="#9a32cd" stroke-dasharray="5,2" d="M60,-75.3206C60,-57.9169 60,-32.7424 60,-19.6476"/>
<polygon fill="#9a32cd" stroke="#9a32cd" points="56.5001,-75.4301 60,-85.4302 63.5001,-75.4302 56.5001,-75.4301"/>
<text text-anchor="middle" x="75" y="-41.5" font-family="Arial" font-size="10.00"> image</text>
</g>
<!-- Node2&#45;&gt;Node2 -->
<g id="edge3" class="edge"><title>Node2&#45;&gt;Node2</title>
<path fill="none" stroke="#9a32cd" stroke-dasharray="5,2" d="M95.446,-103.21C99.9957,-101.783 103,-99.0466 103,-95 103,-88.3594 94.9095,-85.2466 85.1756,-85.6616"/>
<polygon fill="#9a32cd" stroke="#9a32cd" points="94.7335,-99.767 85.1756,-104.338 95.4981,-106.725 94.7335,-99.767"/>
<text text-anchor="middle" x="141" y="-114.5" font-family="Arial" font-size="10.00"> cacheUsagePrev</text>
<text text-anchor="middle" x="141" y="-103.5" font-family="Arial" font-size="10.00">cacheUsageNext</text>
<text text-anchor="middle" x="141" y="-92.5" font-family="Arial" font-size="10.00">hashNext</text>
<text text-anchor="middle" x="141" y="-81.5" font-family="Arial" font-size="10.00">partialImage</text>
<text text-anchor="middle" x="141" y="-70.5" font-family="Arial" font-size="10.00">bglNext</text>
</g>
<!-- Node3 -->
<g id="node3" class="node"><title>Node3</title>
<g id="a_node3"><a xlink:href="classid_str.html" target="_top" xlink:title="idStr">
<polygon fill="white" stroke="black" points="29.5,-306.5 29.5,-325.5 66.5,-325.5 66.5,-306.5 29.5,-306.5"/>
<text text-anchor="middle" x="48" y="-313.5" font-family="Arial" font-size="10.00">idStr</text>
</a>
</g>
</g>
<!-- Node3&#45;&gt;Node2 -->
<g id="edge2" class="edge"><title>Node3&#45;&gt;Node2</title>
<path fill="none" stroke="#9a32cd" stroke-dasharray="5,2" d="M45.4899,-295.95C44.1595,-284.893 42.6658,-270.685 42,-258 38.9149,-199.221 52.7259,-129.013 58.0135,-104.751"/>
<polygon fill="#9a32cd" stroke="#9a32cd" points="42.0509,-296.654 46.7757,-306.137 48.9958,-295.777 42.0509,-296.654"/>
<text text-anchor="middle" x="65.5" y="-211.5" font-family="Arial" font-size="10.00"> imgName</text>
</g>
<!-- Node7 -->
<g id="node7" class="node"><title>Node7</title>
<g id="a_node7"><a xlink:href="structurl_download__s.html" target="_top" xlink:title="urlDownload_s">
<polygon fill="white" stroke="black" points="51,-238.5 51,-257.5 131,-257.5 131,-238.5 51,-238.5"/>
<text text-anchor="middle" x="91" y="-245.5" font-family="Arial" font-size="10.00">urlDownload_s</text>
</a>
</g>
</g>
<!-- Node3&#45;&gt;Node7 -->
<g id="edge9" class="edge"><title>Node3&#45;&gt;Node7</title>
<path fill="none" stroke="#9a32cd" stroke-dasharray="5,2" d="M59.1163,-297.938C67.4725,-285.112 78.5827,-268.059 85.2399,-257.841"/>
<polygon fill="#9a32cd" stroke="#9a32cd" points="56.1478,-296.082 53.6215,-306.372 62.0129,-299.904 56.1478,-296.082"/>
<text text-anchor="middle" x="81" y="-279.5" font-family="Arial" font-size="10.00"> url</text>
</g>
<!-- Node4 -->
<g id="node4" class="node"><title>Node4</title>
<g id="a_node4"><a xlink:href="structbackground_download__s.html" target="_top" xlink:title="backgroundDownload_s">
<polygon fill="white" stroke="black" points="80.5,-170.5 80.5,-189.5 199.5,-189.5 199.5,-170.5 80.5,-170.5"/>
<text text-anchor="middle" x="140" y="-177.5" font-family="Arial" font-size="10.00">backgroundDownload_s</text>
</a>
</g>
</g>
<!-- Node4&#45;&gt;Node2 -->
<g id="edge4" class="edge"><title>Node4&#45;&gt;Node2</title>
<path fill="none" stroke="#9a32cd" stroke-dasharray="5,2" d="M124.795,-163.224C108.032,-145.833 81.6778,-118.491 68.335,-104.648"/>
<polygon fill="#9a32cd" stroke="#9a32cd" points="122.28,-165.659 131.74,-170.43 127.32,-160.801 122.28,-165.659"/>
<text text-anchor="middle" x="120" y="-143.5" font-family="Arial" font-size="10.00"> bgl</text>
</g>
<!-- Node4&#45;&gt;Node4 -->
<g id="edge6" class="edge"><title>Node4&#45;&gt;Node4</title>
<path fill="none" stroke="#9a32cd" stroke-dasharray="5,2" d="M209.677,-184.543C214.239,-183.486 217,-181.971 217,-180 217,-176.846 209.931,-174.862 199.728,-174.049"/>
<polygon fill="#9a32cd" stroke="#9a32cd" points="209.138,-181.084 199.728,-185.951 210.119,-188.015 209.138,-181.084"/>
<text text-anchor="middle" x="228" y="-177.5" font-family="Arial" font-size="10.00"> next</text>
</g>
<!-- Node5 -->
<g id="node5" class="node"><title>Node5</title>
<g id="a_node5"><a xlink:href="classid_file.html" target="_top" xlink:title="idFile">
<polygon fill="white" stroke="black" points="149,-238.5 149,-257.5 189,-257.5 189,-238.5 149,-238.5"/>
<text text-anchor="middle" x="169" y="-245.5" font-family="Arial" font-size="10.00">idFile</text>
</a>
</g>
</g>
<!-- Node5&#45;&gt;Node4 -->
<g id="edge5" class="edge"><title>Node5&#45;&gt;Node4</title>
<path fill="none" stroke="#9a32cd" stroke-dasharray="5,2" d="M161.173,-229.186C155.578,-216.452 148.287,-199.861 143.885,-189.841"/>
<polygon fill="#9a32cd" stroke="#9a32cd" points="157.982,-230.624 165.209,-238.372 164.39,-227.808 157.982,-230.624"/>
<text text-anchor="middle" x="161" y="-211.5" font-family="Arial" font-size="10.00"> f</text>
</g>
<!-- Node6 -->
<g id="node6" class="node"><title>Node6</title>
<g id="a_node6"><a xlink:href="structfile_download__s.html" target="_top" xlink:title="fileDownload_s">
<polygon fill="white" stroke="black" points="207.5,-238.5 207.5,-257.5 288.5,-257.5 288.5,-238.5 207.5,-238.5"/>
<text text-anchor="middle" x="248" y="-245.5" font-family="Arial" font-size="10.00">fileDownload_s</text>
</a>
</g>
</g>
<!-- Node6&#45;&gt;Node4 -->
<g id="edge7" class="edge"><title>Node6&#45;&gt;Node4</title>
<path fill="none" stroke="#9a32cd" stroke-dasharray="5,2" d="M225.072,-232.988C203.587,-219.858 172.154,-200.65 154.123,-189.63"/>
<polygon fill="#9a32cd" stroke="#9a32cd" points="223.523,-236.144 233.881,-238.372 227.173,-230.171 223.523,-236.144"/>
<text text-anchor="middle" x="212" y="-211.5" font-family="Arial" font-size="10.00"> file</text>
</g>
<!-- Node7&#45;&gt;Node4 -->
<g id="edge8" class="edge"><title>Node7&#45;&gt;Node4</title>
<path fill="none" stroke="#9a32cd" stroke-dasharray="5,2" d="M103.391,-230.31C112.943,-217.444 125.776,-200.158 133.436,-189.841"/>
<polygon fill="#9a32cd" stroke="#9a32cd" points="100.557,-228.256 97.4059,-238.372 106.177,-232.429 100.557,-228.256"/>
<text text-anchor="middle" x="127" y="-211.5" font-family="Arial" font-size="10.00"> url</text>
</g>
</g>
</svg>
