<?xml version="1.0" encoding="UTF-8" standalone="no"?>
<!DOCTYPE svg PUBLIC "-//W3C//DTD SVG 1.1//EN"
 "http://www.w3.org/Graphics/SVG/1.1/DTD/svg11.dtd">
<!-- Generated by graphviz version 2.34.0 (20130907.0111)
 -->
<!-- Title: jointTransformData_t Pages: 1 -->
<!--zoomable 463 -->
<svg id="main" version="1.1" xmlns="http://www.w3.org/2000/svg" xmlns:xlink="http://www.w3.org/1999/xlink" xml:space="preserve" onload="init(evt)">
<style type="text/css"><![CDATA[
.edge:hover path { stroke: red; }
.edge:hover polygon { stroke: red; fill: red; }
]]></style>
<script type="text/javascript"><![CDATA[
var edges = document.getElementsByTagName('g');
if (edges && edges.length) {
  for (var i=0;i<edges.length;i++) {
    if (edges[i].id.substr(0,4)=='edge') {
      edges[i].setAttribute('class','edge');
    }
  }
}
]]></script>
        <defs>
                <circle id="rim" cx="0" cy="0" r="7"/>
                <circle id="rim2" cx="0" cy="0" r="3.5"/>
                <g id="zoomPlus">
                        <use xlink:href="#rim" fill="#404040">
                                <set attributeName="fill" to="#808080" begin="zoomplus.mouseover" end="zoomplus.mouseout"/>
                        </use>
                        <path d="M-4,0h8M0,-4v8" fill="none" stroke="white" stroke-width="1.5" pointer-events="none"/>
                </g>
                <g id="zoomMin">
                        <use xlink:href="#rim" fill="#404040">
                                <set attributeName="fill" to="#808080" begin="zoomminus.mouseover" end="zoomminus.mouseout"/>
                        </use>
                        <path d="M-4,0h8" fill="none" stroke="white" stroke-width="1.5" pointer-events="none"/>
                </g>
                <g id="dirArrow">
                        <path fill="none" stroke="white" stroke-width="1.5" d="M0,-3.0v7 M-2.5,-0.5L0,-3.0L2.5,-0.5"/>
                </g>
               <g id="resetDef">
                       <use xlink:href="#rim2" fill="#404040">
                               <set attributeName="fill" to="#808080" begin="reset.mouseover" end="reset.mouseout"/>
                       </use>
               </g>
        </defs>

<script type="text/javascript">
var viewWidth = 834;
var viewHeight = 463;
var sectionId = 'dynsection-0';
</script>
<script xlink:href="svgpan.js"/>
<svg id="graph" class="graph">
<g id="viewport">
<title>jointTransformData_t</title>
<polygon fill="white" stroke="white" points="-4,4 -4,-459 830,-459 830,4 -4,4"/>
<!-- Node1 -->
<g id="node1" class="node"><title>Node1</title>
<polygon fill="#bfbfbf" stroke="black" points="720,-313.5 720,-332.5 826,-332.5 826,-313.5 720,-313.5"/>
<text text-anchor="middle" x="773" y="-320.5" font-family="Arial" font-size="10.00">jointTransformData_t</text>
</g>
<!-- Node2 -->
<g id="node2" class="node"><title>Node2</title>
<g id="a_node2"><a xlink:href="classid_m_d5_joint.html" target="_top" xlink:title="idMD5Joint">
<polygon fill="white" stroke="black" points="583.5,-368.5 583.5,-387.5 648.5,-387.5 648.5,-368.5 583.5,-368.5"/>
<text text-anchor="middle" x="616" y="-375.5" font-family="Arial" font-size="10.00">idMD5Joint</text>
</a>
</g>
</g>
<!-- Node2&#45;&gt;Node1 -->
<g id="edge1" class="edge"><title>Node2&#45;&gt;Node1</title>
<path fill="none" stroke="#9a32cd" stroke-dasharray="5,2" d="M653.469,-365.059C681.538,-355.1 719.697,-341.559 745.051,-332.563"/>
<polygon fill="#9a32cd" stroke="#9a32cd" points="652.253,-361.777 643.999,-368.42 654.594,-368.374 652.253,-361.777"/>
<text text-anchor="middle" x="688" y="-360" font-family="Arial" font-size="10.00"> joints</text>
</g>
<!-- Node2&#45;&gt;Node2 -->
<g id="edge2" class="edge"><title>Node2&#45;&gt;Node2</title>
<path fill="none" stroke="#9a32cd" stroke-dasharray="5,2" d="M602.741,-397.766C603.782,-402.497 608.202,-406 616,-406 628.797,-406 632.496,-396.565 627.097,-387.757"/>
<polygon fill="#9a32cd" stroke="#9a32cd" points="606.212,-398.271 604.903,-387.757 599.37,-396.793 606.212,-398.271"/>
<text text-anchor="middle" x="616" y="-409" font-family="Arial" font-size="10.00"> parent</text>
</g>
<!-- Node3 -->
<g id="node3" class="node"><title>Node3</title>
<g id="a_node3"><a xlink:href="classid_str.html" target="_top" xlink:title="idStr">
<polygon fill="white" stroke="black" points="393.5,-435.5 393.5,-454.5 430.5,-454.5 430.5,-435.5 393.5,-435.5"/>
<text text-anchor="middle" x="412" y="-442.5" font-family="Arial" font-size="10.00">idStr</text>
</a>
</g>
</g>
<!-- Node3&#45;&gt;Node2 -->
<g id="edge3" class="edge"><title>Node3&#45;&gt;Node2</title>
<path fill="none" stroke="#9a32cd" stroke-dasharray="5,2" d="M440.919,-444.637C470.98,-443.335 519.649,-438.548 558,-422 576.824,-413.878 594.923,-398.104 605.5,-387.816"/>
<polygon fill="#9a32cd" stroke="#9a32cd" points="440.617,-441.145 430.739,-444.975 440.849,-448.141 440.617,-441.145"/>
<text text-anchor="middle" x="515" y="-445" font-family="Arial" font-size="10.00"> name</text>
</g>
<!-- Node4 -->
<g id="node4" class="node"><title>Node4</title>
<g id="a_node4"><a xlink:href="structrender_entity__s.html" target="_top" xlink:title="renderEntity_s">
<polygon fill="white" stroke="black" points="576,-235.5 576,-254.5 656,-254.5 656,-235.5 576,-235.5"/>
<text text-anchor="middle" x="616" y="-242.5" font-family="Arial" font-size="10.00">renderEntity_s</text>
</a>
</g>
</g>
<!-- Node4&#45;&gt;Node1 -->
<g id="edge4" class="edge"><title>Node4&#45;&gt;Node1</title>
<path fill="none" stroke="#9a32cd" stroke-dasharray="5,2" d="M645.052,-259.117C676.246,-274.814 725.792,-299.747 752.838,-313.357"/>
<polygon fill="#9a32cd" stroke="#9a32cd" points="646.512,-255.933 636.006,-254.564 643.365,-262.186 646.512,-255.933"/>
<text text-anchor="middle" x="688" y="-289" font-family="Arial" font-size="10.00"> ent</text>
</g>
<!-- Node4&#45;&gt;Node4 -->
<g id="edge19" class="edge"><title>Node4&#45;&gt;Node4</title>
<path fill="none" stroke="#9a32cd" stroke-dasharray="5,2" d="M602.741,-264.766C603.782,-269.497 608.202,-273 616,-273 628.797,-273 632.496,-263.565 627.097,-254.757"/>
<polygon fill="#9a32cd" stroke="#9a32cd" points="606.212,-265.271 604.903,-254.757 599.37,-263.793 606.212,-265.271"/>
<text text-anchor="middle" x="616" y="-276" font-family="Arial" font-size="10.00"> callback</text>
</g>
<!-- Node5 -->
<g id="node5" class="node"><title>Node5</title>
<g id="a_node5"><a xlink:href="classid_mat3.html" target="_top" xlink:title="idMat3">
<polygon fill="white" stroke="black" points="217,-63.5 217,-82.5 263,-82.5 263,-63.5 217,-63.5"/>
<text text-anchor="middle" x="240" y="-70.5" font-family="Arial" font-size="10.00">idMat3</text>
</a>
</g>
</g>
<!-- Node5&#45;&gt;Node4 -->
<g id="edge5" class="edge"><title>Node5&#45;&gt;Node4</title>
<path fill="none" stroke="#9a32cd" stroke-dasharray="5,2" d="M272.863,-64.2486C335.724,-49.0899 476.649,-25.8589 558,-96 601.63,-133.618 611.99,-208.47 614.341,-235.217"/>
<polygon fill="#9a32cd" stroke="#9a32cd" points="271.966,-60.8652 263.114,-66.6877 273.665,-67.6559 271.966,-60.8652"/>
<text text-anchor="middle" x="412" y="-55" font-family="Arial" font-size="10.00"> axis</text>
</g>
<!-- Node10 -->
<g id="node10" class="node"><title>Node10</title>
<g id="a_node10"><a xlink:href="structrender_view__s.html" target="_top" xlink:title="renderView_s">
<polygon fill="white" stroke="black" points="374.5,-93.5 374.5,-112.5 449.5,-112.5 449.5,-93.5 374.5,-93.5"/>
<text text-anchor="middle" x="412" y="-100.5" font-family="Arial" font-size="10.00">renderView_s</text>
</a>
</g>
</g>
<!-- Node5&#45;&gt;Node10 -->
<g id="edge11" class="edge"><title>Node5&#45;&gt;Node10</title>
<path fill="none" stroke="#9a32cd" stroke-dasharray="5,2" d="M273.092,-77.3527C295.309,-80.5036 325.528,-85.0619 352,-90 359.218,-91.3464 366.899,-92.9285 374.252,-94.5167"/>
<polygon fill="#9a32cd" stroke="#9a32cd" points="273.573,-73.8862 263.185,-75.9657 272.603,-80.8186 273.573,-73.8862"/>
<text text-anchor="middle" x="320" y="-93" font-family="Arial" font-size="10.00"> viewaxis</text>
</g>
<!-- Node6 -->
<g id="node6" class="node"><title>Node6</title>
<g id="a_node6"><a xlink:href="classid_decl_skin.html" target="_top" xlink:title="idDeclSkin">
<polygon fill="white" stroke="black" points="288.5,-271.5 288.5,-290.5 351.5,-290.5 351.5,-271.5 288.5,-271.5"/>
<text text-anchor="middle" x="320" y="-278.5" font-family="Arial" font-size="10.00">idDeclSkin</text>
</a>
</g>
</g>
<!-- Node6&#45;&gt;Node4 -->
<g id="edge6" class="edge"><title>Node6&#45;&gt;Node4</title>
<path fill="none" stroke="#9a32cd" stroke-dasharray="5,2" d="M362.05,-279.04C409.497,-276.348 489.808,-270.474 558,-259 565.034,-257.816 572.483,-256.233 579.594,-254.558"/>
<polygon fill="#9a32cd" stroke="#9a32cd" points="361.661,-275.556 351.868,-279.598 362.044,-282.546 361.661,-275.556"/>
<text text-anchor="middle" x="412" y="-281" font-family="Arial" font-size="10.00"> customSkin</text>
</g>
<!-- Node7 -->
<g id="node7" class="node"><title>Node7</title>
<g id="a_node7"><a xlink:href="classid_decl.html" target="_top" xlink:title="idDecl">
<polygon fill="white" stroke="black" points="128,-217.5 128,-236.5 172,-236.5 172,-217.5 128,-217.5"/>
<text text-anchor="middle" x="150" y="-224.5" font-family="Arial" font-size="10.00">idDecl</text>
</a>
</g>
</g>
<!-- Node7&#45;&gt;Node6 -->
<g id="edge7" class="edge"><title>Node7&#45;&gt;Node6</title>
<path fill="none" stroke="midnightblue" d="M182.02,-236.971C212.686,-246.828 259.27,-261.801 289.424,-271.493"/>
<polygon fill="midnightblue" stroke="midnightblue" points="182.869,-233.567 172.277,-233.839 180.727,-240.231 182.869,-233.567"/>
</g>
<!-- Node12 -->
<g id="node12" class="node"><title>Node12</title>
<g id="a_node12"><a xlink:href="classid_material.html" target="_top" xlink:title="idMaterial">
<polygon fill="white" stroke="black" points="210.5,-139.5 210.5,-158.5 269.5,-158.5 269.5,-139.5 210.5,-139.5"/>
<text text-anchor="middle" x="240" y="-146.5" font-family="Arial" font-size="10.00">idMaterial</text>
</a>
</g>
</g>
<!-- Node7&#45;&gt;Node12 -->
<g id="edge14" class="edge"><title>Node7&#45;&gt;Node12</title>
<path fill="none" stroke="midnightblue" d="M169.755,-210.376C187.512,-194.637 213.56,-171.549 228.121,-158.643"/>
<polygon fill="midnightblue" stroke="midnightblue" points="166.952,-208.183 161.791,-217.436 171.596,-213.422 166.952,-208.183"/>
</g>
<!-- Node8 -->
<g id="node8" class="node"><title>Node8</title>
<g id="a_node8"><a xlink:href="classid_decl_base.html" target="_top" xlink:title="idDeclBase">
<polygon fill="white" stroke="black" points="0,-217.5 0,-236.5 66,-236.5 66,-217.5 0,-217.5"/>
<text text-anchor="middle" x="33" y="-224.5" font-family="Arial" font-size="10.00">idDeclBase</text>
</a>
</g>
</g>
<!-- Node8&#45;&gt;Node7 -->
<g id="edge8" class="edge"><title>Node8&#45;&gt;Node7</title>
<path fill="none" stroke="#9a32cd" stroke-dasharray="5,2" d="M76.0643,-227C93.5984,-227 113.201,-227 127.664,-227"/>
<polygon fill="#9a32cd" stroke="#9a32cd" points="76.0339,-223.5 66.0339,-227 76.0339,-230.5 76.0339,-223.5"/>
<text text-anchor="middle" x="97" y="-230" font-family="Arial" font-size="10.00"> base</text>
</g>
<!-- Node9 -->
<g id="node9" class="node"><title>Node9</title>
<g id="a_node9"><a xlink:href="classid_joint_mat.html" target="_top" xlink:title="idJointMat">
<polygon fill="white" stroke="black" points="381.5,-189.5 381.5,-208.5 442.5,-208.5 442.5,-189.5 381.5,-189.5"/>
<text text-anchor="middle" x="412" y="-196.5" font-family="Arial" font-size="10.00">idJointMat</text>
</a>
</g>
</g>
<!-- Node9&#45;&gt;Node4 -->
<g id="edge9" class="edge"><title>Node9&#45;&gt;Node4</title>
<path fill="none" stroke="#9a32cd" stroke-dasharray="5,2" d="M452.959,-201.872C482.427,-204.689 523.26,-210.064 558,-220 571.402,-223.833 585.771,-230.151 596.729,-235.477"/>
<polygon fill="#9a32cd" stroke="#9a32cd" points="452.923,-198.355 442.65,-200.946 452.297,-205.327 452.923,-198.355"/>
<text text-anchor="middle" x="515" y="-223" font-family="Arial" font-size="10.00"> joints</text>
</g>
<!-- Node10&#45;&gt;Node4 -->
<g id="edge10" class="edge"><title>Node10&#45;&gt;Node4</title>
<path fill="none" stroke="#9a32cd" stroke-dasharray="5,2" d="M459.701,-98.955C490.426,-98.7104 529.988,-103.266 558,-124 595.889,-152.045 609.53,-211.697 613.554,-235.195"/>
<polygon fill="#9a32cd" stroke="#9a32cd" points="459.56,-95.4573 449.65,-99.2055 459.734,-102.455 459.56,-95.4573"/>
<text text-anchor="middle" x="515" y="-127" font-family="Arial" font-size="10.00"> remoteRenderView</text>
</g>
<!-- Node11 -->
<g id="node11" class="node"><title>Node11</title>
<g id="a_node11"><a xlink:href="classid_vec3.html" target="_top" xlink:title="idVec3">
<polygon fill="white" stroke="black" points="216.5,-193.5 216.5,-212.5 263.5,-212.5 263.5,-193.5 216.5,-193.5"/>
<text text-anchor="middle" x="240" y="-200.5" font-family="Arial" font-size="10.00">idVec3</text>
</a>
</g>
</g>
<!-- Node11&#45;&gt;Node4 -->
<g id="edge18" class="edge"><title>Node11&#45;&gt;Node4</title>
<path fill="none" stroke="#9a32cd" stroke-dasharray="5,2" d="M273.595,-207.191C318.304,-212.884 401.178,-223.242 472,-231 507.087,-234.844 547.075,-238.715 575.827,-241.41"/>
<polygon fill="#9a32cd" stroke="#9a32cd" points="273.967,-203.71 263.604,-205.915 273.08,-210.654 273.967,-203.71"/>
<text text-anchor="middle" x="412" y="-231" font-family="Arial" font-size="10.00"> origin</text>
</g>
<!-- Node11&#45;&gt;Node10 -->
<g id="edge12" class="edge"><title>Node11&#45;&gt;Node10</title>
<path fill="none" stroke="#9a32cd" stroke-dasharray="5,2" d="M267.525,-188.346C290.193,-175.671 323.556,-156.656 352,-139 360.169,-133.929 361.848,-132.097 370,-127 377.833,-122.103 386.659,-116.897 394.111,-112.589"/>
<polygon fill="#9a32cd" stroke="#9a32cd" points="265.543,-185.444 258.51,-193.367 268.949,-191.559 265.543,-185.444"/>
<text text-anchor="middle" x="320" y="-180" font-family="Arial" font-size="10.00"> vieworg</text>
</g>
<!-- Node12&#45;&gt;Node4 -->
<g id="edge20" class="edge"><title>Node12&#45;&gt;Node4</title>
<path fill="none" stroke="#9a32cd" stroke-dasharray="5,2" d="M279.676,-146.813C322.727,-145.258 394.125,-145.308 454,-158 502.605,-168.303 515.063,-174 558,-199 575.803,-209.366 593.9,-225.033 604.789,-235.141"/>
<polygon fill="#9a32cd" stroke="#9a32cd" points="279.476,-143.318 269.627,-147.224 279.762,-150.312 279.476,-143.318"/>
<text text-anchor="middle" x="412" y="-172" font-family="Arial" font-size="10.00"> customShader</text>
<text text-anchor="middle" x="412" y="-161" font-family="Arial" font-size="10.00">referenceShader</text>
</g>
<!-- Node12&#45;&gt;Node10 -->
<g id="edge13" class="edge"><title>Node12&#45;&gt;Node10</title>
<path fill="none" stroke="#9a32cd" stroke-dasharray="5,2" d="M265.213,-134.226C272.344,-130.403 280.303,-126.628 288,-124 316.189,-114.377 349.581,-109.033 374.454,-106.147"/>
<polygon fill="#9a32cd" stroke="#9a32cd" points="263.092,-131.404 256.103,-139.366 266.532,-137.5 263.092,-131.404"/>
<text text-anchor="middle" x="320" y="-127" font-family="Arial" font-size="10.00"> globalMaterial</text>
</g>
<!-- Node13 -->
<g id="node13" class="node"><title>Node13</title>
<g id="a_node13"><a xlink:href="classid_sound_emitter.html" target="_top" xlink:title="idSoundEmitter">
<polygon fill="white" stroke="black" points="370.5,-0.5 370.5,-19.5 453.5,-19.5 453.5,-0.5 370.5,-0.5"/>
<text text-anchor="middle" x="412" y="-7.5" font-family="Arial" font-size="10.00">idSoundEmitter</text>
</a>
</g>
</g>
<!-- Node13&#45;&gt;Node4 -->
<g id="edge15" class="edge"><title>Node13&#45;&gt;Node4</title>
<path fill="none" stroke="#9a32cd" stroke-dasharray="5,2" d="M463.773,-4.3102C494.594,-3.72399 532.732,-8.51672 558,-31 589.667,-59.178 609.07,-197.579 613.843,-235.421"/>
<polygon fill="#9a32cd" stroke="#9a32cd" points="463.489,-0.818385 453.63,-4.69743 463.756,-7.81329 463.489,-0.818385"/>
<text text-anchor="middle" x="515" y="-34" font-family="Arial" font-size="10.00"> referenceSound</text>
</g>
<!-- Node14 -->
<g id="node14" class="node"><title>Node14</title>
<g id="a_node14"><a xlink:href="classid_render_model.html" target="_top" xlink:title="idRenderModel">
<polygon fill="white" stroke="black" points="371.5,-397.5 371.5,-416.5 452.5,-416.5 452.5,-397.5 371.5,-397.5"/>
<text text-anchor="middle" x="412" y="-404.5" font-family="Arial" font-size="10.00">idRenderModel</text>
</a>
</g>
</g>
<!-- Node14&#45;&gt;Node4 -->
<g id="edge16" class="edge"><title>Node14&#45;&gt;Node4</title>
<path fill="none" stroke="#9a32cd" stroke-dasharray="5,2" d="M463.176,-404.607C499.083,-401.944 543.529,-396.403 558,-385 579.746,-367.865 604.367,-283.869 612.351,-254.868"/>
<polygon fill="#9a32cd" stroke="#9a32cd" points="462.567,-401.14 452.829,-405.314 463.045,-408.124 462.567,-401.14"/>
<text text-anchor="middle" x="515" y="-406" font-family="Arial" font-size="10.00"> hModel</text>
</g>
<!-- Node15 -->
<g id="node15" class="node"><title>Node15</title>
<g id="a_node15"><a xlink:href="classid_bounds.html" target="_top" xlink:title="idBounds">
<polygon fill="white" stroke="black" points="383.5,-359.5 383.5,-378.5 440.5,-378.5 440.5,-359.5 383.5,-359.5"/>
<text text-anchor="middle" x="412" y="-366.5" font-family="Arial" font-size="10.00">idBounds</text>
</a>
</g>
</g>
<!-- Node15&#45;&gt;Node4 -->
<g id="edge17" class="edge"><title>Node15&#45;&gt;Node4</title>
<path fill="none" stroke="#9a32cd" stroke-dasharray="5,2" d="M450.809,-370.974C482.178,-370.752 526.575,-365.943 558,-344 590.034,-321.632 606.52,-275.064 612.417,-254.787"/>
<polygon fill="#9a32cd" stroke="#9a32cd" points="450.736,-367.474 440.708,-370.892 450.679,-374.473 450.736,-367.474"/>
<text text-anchor="middle" x="515" y="-373" font-family="Arial" font-size="10.00"> bounds</text>
</g>
<!-- Node16 -->
<g id="node16" class="node"><title>Node16</title>
<g id="a_node16"><a xlink:href="classid_user_interface.html" target="_top" xlink:title="idUserInterface">
<polygon fill="white" stroke="black" points="371.5,-321.5 371.5,-340.5 452.5,-340.5 452.5,-321.5 371.5,-321.5"/>
<text text-anchor="middle" x="412" y="-328.5" font-family="Arial" font-size="10.00">idUserInterface</text>
</a>
</g>
</g>
<!-- Node16&#45;&gt;Node4 -->
<g id="edge21" class="edge"><title>Node16&#45;&gt;Node4</title>
<path fill="none" stroke="#9a32cd" stroke-dasharray="5,2" d="M462.762,-330.242C492.009,-327.948 528.844,-321.74 558,-306 580.958,-293.606 599.811,-268.484 608.982,-254.66"/>
<polygon fill="#9a32cd" stroke="#9a32cd" points="462.507,-326.751 452.758,-330.9 462.966,-333.736 462.507,-326.751"/>
<text text-anchor="middle" x="515" y="-332" font-family="Arial" font-size="10.00"> gui</text>
</g>
</g>
</svg>
        <g id="navigator" transform="translate(0 0)" fill="#404254">
                <rect fill="#f2f5e9" fill-opacity="0.5" stroke="#606060" stroke-width=".5" x="0" y="0" width="60" height="60"/>
                <use id="zoomplus" xlink:href="#zoomPlus" x="17" y="9" onmousedown="handleZoom(evt,'in')"/>
                <use id="zoomminus" xlink:href="#zoomMin" x="42" y="9" onmousedown="handleZoom(evt,'out')"/>
                <use id="reset" xlink:href="#resetDef" x="30" y="36" onmousedown="handleReset()"/>
                <g id="arrowUp" xlink:href="#dirArrow" transform="translate(30 24)" onmousedown="handlePan(0,-1)">
                  <use xlink:href="#rim" fill="#404040">
                        <set attributeName="fill" to="#808080" begin="arrowUp.mouseover" end="arrowUp.mouseout"/>
                  </use>
                  <path fill="none" stroke="white" stroke-width="1.5" d="M0,-3.0v7 M-2.5,-0.5L0,-3.0L2.5,-0.5"/>
                </g>
                <g id="arrowRight" xlink:href="#dirArrow" transform="rotate(90) translate(36 -43)" onmousedown="handlePan(1,0)">
                  <use xlink:href="#rim" fill="#404040">
                        <set attributeName="fill" to="#808080" begin="arrowRight.mouseover" end="arrowRight.mouseout"/>
                  </use>
                  <path fill="none" stroke="white" stroke-width="1.5" d="M0,-3.0v7 M-2.5,-0.5L0,-3.0L2.5,-0.5"/>
                </g>
                <g id="arrowDown" xlink:href="#dirArrow" transform="rotate(180) translate(-30 -48)" onmousedown="handlePan(0,1)">
                  <use xlink:href="#rim" fill="#404040">
                        <set attributeName="fill" to="#808080" begin="arrowDown.mouseover" end="arrowDown.mouseout"/>
                  </use>
                  <path fill="none" stroke="white" stroke-width="1.5" d="M0,-3.0v7 M-2.5,-0.5L0,-3.0L2.5,-0.5"/>
                </g>
                <g id="arrowLeft" xlink:href="#dirArrow" transform="rotate(270) translate(-36 17)" onmousedown="handlePan(-1,0)">
                  <use xlink:href="#rim" fill="#404040">
                        <set attributeName="fill" to="#808080" begin="arrowLeft.mouseover" end="arrowLeft.mouseout"/>
                  </use>
                  <path fill="none" stroke="white" stroke-width="1.5" d="M0,-3.0v7 M-2.5,-0.5L0,-3.0L2.5,-0.5"/>
                </g>
        </g>
        <svg viewBox="0 0 15 15" width="100%" height="30px" preserveAspectRatio="xMaxYMin meet">
         <g id="arrow_out" transform="scale(0.3 0.3)">
          <a xlink:href="structjoint_transform_data__t__coll__graph_org.svg" target="_base">
           <rect id="button" ry="5" rx="5" y="6" x="6" height="38" width="38"
                fill="#f2f5e9" fill-opacity="0.5" stroke="#606060" stroke-width="1.0"/>
           <path id="arrow"
             d="M 11.500037,31.436501 C 11.940474,20.09759 22.043105,11.32322 32.158766,21.979434 L 37.068811,17.246167 C 37.068811,17.246167 37.088388,32 37.088388,32 L 22.160133,31.978069 C 22.160133,31.978069 26.997745,27.140456 26.997745,27.140456 C 18.528582,18.264221 13.291696,25.230495 11.500037,31.436501 z"
             style="fill:#404040;"/>
          </a>
         </g>
        </svg>
</svg>
