<?xml version="1.0" encoding="UTF-8" standalone="no"?>
<!DOCTYPE svg PUBLIC "-//W3C//DTD SVG 1.1//EN"
 "http://www.w3.org/Graphics/SVG/1.1/DTD/svg11.dtd">
<!-- Generated by graphviz version 2.34.0 (20130907.0111)
 -->
<!-- Title: OggVorbis_File Pages: 1 -->
<!--zoomable 265 -->
<svg id="main" version="1.1" xmlns="http://www.w3.org/2000/svg" xmlns:xlink="http://www.w3.org/1999/xlink" xml:space="preserve" onload="init(evt)">
<style type="text/css"><![CDATA[
.edge:hover path { stroke: red; }
.edge:hover polygon { stroke: red; fill: red; }
]]></style>
<script type="text/javascript"><![CDATA[
var edges = document.getElementsByTagName('g');
if (edges && edges.length) {
  for (var i=0;i<edges.length;i++) {
    if (edges[i].id.substr(0,4)=='edge') {
      edges[i].setAttribute('class','edge');
    }
  }
}
]]></script>
        <defs>
                <circle id="rim" cx="0" cy="0" r="7"/>
                <circle id="rim2" cx="0" cy="0" r="3.5"/>
                <g id="zoomPlus">
                        <use xlink:href="#rim" fill="#404040">
                                <set attributeName="fill" to="#808080" begin="zoomplus.mouseover" end="zoomplus.mouseout"/>
                        </use>
                        <path d="M-4,0h8M0,-4v8" fill="none" stroke="white" stroke-width="1.5" pointer-events="none"/>
                </g>
                <g id="zoomMin">
                        <use xlink:href="#rim" fill="#404040">
                                <set attributeName="fill" to="#808080" begin="zoomminus.mouseover" end="zoomminus.mouseout"/>
                        </use>
                        <path d="M-4,0h8" fill="none" stroke="white" stroke-width="1.5" pointer-events="none"/>
                </g>
                <g id="dirArrow">
                        <path fill="none" stroke="white" stroke-width="1.5" d="M0,-3.0v7 M-2.5,-0.5L0,-3.0L2.5,-0.5"/>
                </g>
               <g id="resetDef">
                       <use xlink:href="#rim2" fill="#404040">
                               <set attributeName="fill" to="#808080" begin="reset.mouseover" end="reset.mouseout"/>
                       </use>
               </g>
        </defs>

<script type="text/javascript">
var viewWidth = 526;
var viewHeight = 265;
var sectionId = 'dynsection-0';
</script>
<script xlink:href="svgpan.js"/>
<svg id="graph" class="graph">
<g id="viewport">
<title>OggVorbis_File</title>
<polygon fill="white" stroke="white" points="-4,4 -4,-261 522,-261 522,4 -4,4"/>
<!-- Node1 -->
<g id="node1" class="node"><title>Node1</title>
<polygon fill="#bfbfbf" stroke="black" points="434.5,-114.5 434.5,-133.5 517.5,-133.5 517.5,-114.5 434.5,-114.5"/>
<text text-anchor="middle" x="476" y="-121.5" font-family="Arial" font-size="10.00">OggVorbis_File</text>
</g>
<!-- Node2 -->
<g id="node2" class="node"><title>Node2</title>
<g id="a_node2"><a xlink:href="structogg__sync__state.html" target="_top" xlink:title="ogg_sync_state">
<polygon fill="white" stroke="black" points="261,-237.5 261,-256.5 347,-256.5 347,-237.5 261,-237.5"/>
<text text-anchor="middle" x="304" y="-244.5" font-family="Arial" font-size="10.00">ogg_sync_state</text>
</a>
</g>
</g>
<!-- Node2&#45;&gt;Node1 -->
<g id="edge1" class="edge"><title>Node2&#45;&gt;Node1</title>
<path fill="none" stroke="#9a32cd" stroke-dasharray="5,2" d="M357.417,-244.463C377.25,-241.36 399.094,-235.15 416,-223 448.008,-199.997 465.692,-153.771 472.143,-133.686"/>
<polygon fill="#9a32cd" stroke="#9a32cd" points="356.715,-241.026 347.266,-245.818 357.641,-247.964 356.715,-241.026"/>
<text text-anchor="middle" x="393" y="-244" font-family="Arial" font-size="10.00"> oy</text>
</g>
<!-- Node3 -->
<g id="node3" class="node"><title>Node3</title>
<g id="a_node3"><a xlink:href="structvorbis__info.html" target="_top" xlink:title="vorbis_info">
<polygon fill="white" stroke="black" points="0,-183.5 0,-202.5 62,-202.5 62,-183.5 0,-183.5"/>
<text text-anchor="middle" x="31" y="-190.5" font-family="Arial" font-size="10.00">vorbis_info</text>
</a>
</g>
</g>
<!-- Node3&#45;&gt;Node1 -->
<g id="edge2" class="edge"><title>Node3&#45;&gt;Node1</title>
<path fill="none" stroke="#9a32cd" stroke-dasharray="5,2" d="M72.4812,-194.992C78.3579,-195.108 84.3341,-195.131 90,-195 206.719,-192.3 237.342,-198.006 352,-176 381.14,-170.407 388.662,-168.535 416,-157 431.571,-150.43 448.293,-140.81 459.944,-133.65"/>
<polygon fill="#9a32cd" stroke="#9a32cd" points="72.1949,-191.483 62.0994,-194.697 71.9958,-198.48 72.1949,-191.483"/>
<text text-anchor="middle" x="227" y="-195" font-family="Arial" font-size="10.00"> vi</text>
</g>
<!-- Node8 -->
<g id="node8" class="node"><title>Node8</title>
<g id="a_node8"><a xlink:href="structvorbis__dsp__state.html" target="_top" xlink:title="vorbis_dsp_state">
<polygon fill="white" stroke="black" points="108.5,-161.5 108.5,-180.5 197.5,-180.5 197.5,-161.5 108.5,-161.5"/>
<text text-anchor="middle" x="153" y="-168.5" font-family="Arial" font-size="10.00">vorbis_dsp_state</text>
</a>
</g>
</g>
<!-- Node3&#45;&gt;Node8 -->
<g id="edge9" class="edge"><title>Node3&#45;&gt;Node8</title>
<path fill="none" stroke="#9a32cd" stroke-dasharray="5,2" d="M72.2794,-185.427C74.8918,-184.942 77.4828,-184.463 80,-184 89.1194,-182.322 98.8925,-180.544 108.205,-178.859"/>
<polygon fill="#9a32cd" stroke="#9a32cd" points="71.398,-182.031 62.2085,-187.304 72.6805,-188.913 71.398,-182.031"/>
<text text-anchor="middle" x="85" y="-187" font-family="Arial" font-size="10.00"> vi</text>
</g>
<!-- Node4 -->
<g id="node4" class="node"><title>Node4</title>
<g id="a_node4"><a xlink:href="structogg__stream__state.html" target="_top" xlink:title="ogg_stream_state">
<polygon fill="white" stroke="black" points="256.5,-76.5 256.5,-95.5 351.5,-95.5 351.5,-76.5 256.5,-76.5"/>
<text text-anchor="middle" x="304" y="-83.5" font-family="Arial" font-size="10.00">ogg_stream_state</text>
</a>
</g>
</g>
<!-- Node4&#45;&gt;Node1 -->
<g id="edge3" class="edge"><title>Node4&#45;&gt;Node1</title>
<path fill="none" stroke="#9a32cd" stroke-dasharray="5,2" d="M361.602,-97.2201C379.079,-100.821 398.366,-104.934 416,-109 423.312,-110.686 431.106,-112.591 438.553,-114.463"/>
<polygon fill="#9a32cd" stroke="#9a32cd" points="362.045,-93.7384 351.546,-95.1632 360.642,-100.596 362.045,-93.7384"/>
<text text-anchor="middle" x="393" y="-112" font-family="Arial" font-size="10.00"> os</text>
</g>
<!-- Node5 -->
<g id="node5" class="node"><title>Node5</title>
<g id="a_node5"><a xlink:href="structvorbis__block.html" target="_top" xlink:title="vorbis_block">
<polygon fill="white" stroke="black" points="269,-114.5 269,-133.5 339,-133.5 339,-114.5 269,-114.5"/>
<text text-anchor="middle" x="304" y="-121.5" font-family="Arial" font-size="10.00">vorbis_block</text>
</a>
</g>
</g>
<!-- Node5&#45;&gt;Node1 -->
<g id="edge4" class="edge"><title>Node5&#45;&gt;Node1</title>
<path fill="none" stroke="#9a32cd" stroke-dasharray="5,2" d="M349.478,-124C375.758,-124 408.786,-124 434.365,-124"/>
<polygon fill="#9a32cd" stroke="#9a32cd" points="349.402,-120.5 339.402,-124 349.402,-127.5 349.402,-120.5"/>
<text text-anchor="middle" x="393" y="-127" font-family="Arial" font-size="10.00"> vb</text>
</g>
<!-- Node6 -->
<g id="node6" class="node"><title>Node6</title>
<g id="a_node6"><a xlink:href="structalloc__chain.html" target="_top" xlink:title="alloc_chain">
<polygon fill="white" stroke="black" points="120.5,-94.5 120.5,-113.5 185.5,-113.5 185.5,-94.5 120.5,-94.5"/>
<text text-anchor="middle" x="153" y="-101.5" font-family="Arial" font-size="10.00">alloc_chain</text>
</a>
</g>
</g>
<!-- Node6&#45;&gt;Node5 -->
<g id="edge5" class="edge"><title>Node6&#45;&gt;Node5</title>
<path fill="none" stroke="#9a32cd" stroke-dasharray="5,2" d="M195.656,-105.1C209.209,-105.826 224.288,-107.024 238,-109 248.087,-110.454 258.92,-112.68 268.794,-114.977"/>
<polygon fill="#9a32cd" stroke="#9a32cd" points="195.791,-101.603 185.638,-104.633 195.464,-108.595 195.791,-101.603"/>
<text text-anchor="middle" x="227" y="-112" font-family="Arial" font-size="10.00"> reap</text>
</g>
<!-- Node6&#45;&gt;Node6 -->
<g id="edge6" class="edge"><title>Node6&#45;&gt;Node6</title>
<path fill="none" stroke="#9a32cd" stroke-dasharray="5,2" d="M140.477,-123.766C141.461,-128.497 145.635,-132 153,-132 165.086,-132 168.58,-122.565 163.481,-113.757"/>
<polygon fill="#9a32cd" stroke="#9a32cd" points="143.95,-124.255 142.519,-113.757 137.091,-122.856 143.95,-124.255"/>
<text text-anchor="middle" x="153" y="-135" font-family="Arial" font-size="10.00"> next</text>
</g>
<!-- Node7 -->
<g id="node7" class="node"><title>Node7</title>
<g id="a_node7"><a xlink:href="structoggpack__buffer.html" target="_top" xlink:title="oggpack_buffer">
<polygon fill="white" stroke="black" points="112,-56.5 112,-75.5 194,-75.5 194,-56.5 112,-56.5"/>
<text text-anchor="middle" x="153" y="-63.5" font-family="Arial" font-size="10.00">oggpack_buffer</text>
</a>
</g>
</g>
<!-- Node7&#45;&gt;Node5 -->
<g id="edge7" class="edge"><title>Node7&#45;&gt;Node5</title>
<path fill="none" stroke="#9a32cd" stroke-dasharray="5,2" d="M204.194,-78.6118C215.586,-82.2688 227.435,-86.7283 238,-92 246.83,-96.406 247.363,-100.227 256,-105 262.317,-108.491 269.409,-111.694 276.132,-114.437"/>
<polygon fill="#9a32cd" stroke="#9a32cd" points="204.93,-75.1771 194.344,-75.6045 202.886,-81.8721 204.93,-75.1771"/>
<text text-anchor="middle" x="227" y="-95" font-family="Arial" font-size="10.00"> opb</text>
</g>
<!-- Node8&#45;&gt;Node1 -->
<g id="edge11" class="edge"><title>Node8&#45;&gt;Node1</title>
<path fill="none" stroke="#9a32cd" stroke-dasharray="5,2" d="M208.061,-166.426C261.254,-161.45 344.64,-152.373 416,-139 423.999,-137.501 432.524,-135.547 440.534,-133.547"/>
<polygon fill="#9a32cd" stroke="#9a32cd" points="207.475,-162.965 197.838,-167.367 208.116,-169.936 207.475,-162.965"/>
<text text-anchor="middle" x="304" y="-164" font-family="Arial" font-size="10.00"> vd</text>
</g>
<!-- Node8&#45;&gt;Node5 -->
<g id="edge8" class="edge"><title>Node8&#45;&gt;Node5</title>
<path fill="none" stroke="#9a32cd" stroke-dasharray="5,2" d="M185.558,-157.506C199.157,-151.741 212.711,-146.079 216,-145 233.126,-139.382 252.595,-134.544 268.767,-130.932"/>
<polygon fill="#9a32cd" stroke="#9a32cd" points="184.095,-154.325 176.262,-161.46 186.834,-160.767 184.095,-154.325"/>
<text text-anchor="middle" x="227" y="-148" font-family="Arial" font-size="10.00"> vd</text>
</g>
<!-- Node9 -->
<g id="node9" class="node"><title>Node9</title>
<g id="a_node9"><a xlink:href="structov__callbacks.html" target="_top" xlink:title="ov_callbacks">
<polygon fill="white" stroke="black" points="268,-38.5 268,-57.5 340,-57.5 340,-38.5 268,-38.5"/>
<text text-anchor="middle" x="304" y="-45.5" font-family="Arial" font-size="10.00">ov_callbacks</text>
</a>
</g>
</g>
<!-- Node9&#45;&gt;Node1 -->
<g id="edge10" class="edge"><title>Node9&#45;&gt;Node1</title>
<path fill="none" stroke="#9a32cd" stroke-dasharray="5,2" d="M349.957,-60.0504C370.579,-66.3136 395.045,-74.8021 416,-85 433.003,-93.2744 450.9,-105.707 462.462,-114.3"/>
<polygon fill="#9a32cd" stroke="#9a32cd" points="350.757,-56.6371 340.175,-57.1568 348.771,-63.3496 350.757,-56.6371"/>
<text text-anchor="middle" x="393" y="-88" font-family="Arial" font-size="10.00"> callbacks</text>
</g>
<!-- Node10 -->
<g id="node10" class="node"><title>Node10</title>
<g id="a_node10"><a xlink:href="structvorbis__comment.html" target="_top" xlink:title="vorbis_comment">
<polygon fill="white" stroke="black" points="260.5,-0.5 260.5,-19.5 347.5,-19.5 347.5,-0.5 260.5,-0.5"/>
<text text-anchor="middle" x="304" y="-7.5" font-family="Arial" font-size="10.00">vorbis_comment</text>
</a>
</g>
</g>
<!-- Node10&#45;&gt;Node1 -->
<g id="edge12" class="edge"><title>Node10&#45;&gt;Node1</title>
<path fill="none" stroke="#9a32cd" stroke-dasharray="5,2" d="M354.408,-22.5746C374.691,-29.2363 397.666,-38.8271 416,-52 440.149,-69.3506 460.063,-98.955 469.355,-114.235"/>
<polygon fill="#9a32cd" stroke="#9a32cd" points="355.288,-19.1826 344.699,-19.5367 353.197,-25.8632 355.288,-19.1826"/>
<text text-anchor="middle" x="393" y="-55" font-family="Arial" font-size="10.00"> vc</text>
</g>
</g>
</svg>
        <g id="navigator" transform="translate(0 0)" fill="#404254">
                <rect fill="#f2f5e9" fill-opacity="0.5" stroke="#606060" stroke-width=".5" x="0" y="0" width="60" height="60"/>
                <use id="zoomplus" xlink:href="#zoomPlus" x="17" y="9" onmousedown="handleZoom(evt,'in')"/>
                <use id="zoomminus" xlink:href="#zoomMin" x="42" y="9" onmousedown="handleZoom(evt,'out')"/>
                <use id="reset" xlink:href="#resetDef" x="30" y="36" onmousedown="handleReset()"/>
                <g id="arrowUp" xlink:href="#dirArrow" transform="translate(30 24)" onmousedown="handlePan(0,-1)">
                  <use xlink:href="#rim" fill="#404040">
                        <set attributeName="fill" to="#808080" begin="arrowUp.mouseover" end="arrowUp.mouseout"/>
                  </use>
                  <path fill="none" stroke="white" stroke-width="1.5" d="M0,-3.0v7 M-2.5,-0.5L0,-3.0L2.5,-0.5"/>
                </g>
                <g id="arrowRight" xlink:href="#dirArrow" transform="rotate(90) translate(36 -43)" onmousedown="handlePan(1,0)">
                  <use xlink:href="#rim" fill="#404040">
                        <set attributeName="fill" to="#808080" begin="arrowRight.mouseover" end="arrowRight.mouseout"/>
                  </use>
                  <path fill="none" stroke="white" stroke-width="1.5" d="M0,-3.0v7 M-2.5,-0.5L0,-3.0L2.5,-0.5"/>
                </g>
                <g id="arrowDown" xlink:href="#dirArrow" transform="rotate(180) translate(-30 -48)" onmousedown="handlePan(0,1)">
                  <use xlink:href="#rim" fill="#404040">
                        <set attributeName="fill" to="#808080" begin="arrowDown.mouseover" end="arrowDown.mouseout"/>
                  </use>
                  <path fill="none" stroke="white" stroke-width="1.5" d="M0,-3.0v7 M-2.5,-0.5L0,-3.0L2.5,-0.5"/>
                </g>
                <g id="arrowLeft" xlink:href="#dirArrow" transform="rotate(270) translate(-36 17)" onmousedown="handlePan(-1,0)">
                  <use xlink:href="#rim" fill="#404040">
                        <set attributeName="fill" to="#808080" begin="arrowLeft.mouseover" end="arrowLeft.mouseout"/>
                  </use>
                  <path fill="none" stroke="white" stroke-width="1.5" d="M0,-3.0v7 M-2.5,-0.5L0,-3.0L2.5,-0.5"/>
                </g>
        </g>
        <svg viewBox="0 0 15 15" width="100%" height="30px" preserveAspectRatio="xMaxYMin meet">
         <g id="arrow_out" transform="scale(0.3 0.3)">
          <a xlink:href="struct_ogg_vorbis___file__coll__graph_org.svg" target="_base">
           <rect id="button" ry="5" rx="5" y="6" x="6" height="38" width="38"
                fill="#f2f5e9" fill-opacity="0.5" stroke="#606060" stroke-width="1.0"/>
           <path id="arrow"
             d="M 11.500037,31.436501 C 11.940474,20.09759 22.043105,11.32322 32.158766,21.979434 L 37.068811,17.246167 C 37.068811,17.246167 37.088388,32 37.088388,32 L 22.160133,31.978069 C 22.160133,31.978069 26.997745,27.140456 26.997745,27.140456 C 18.528582,18.264221 13.291696,25.230495 11.500037,31.436501 z"
             style="fill:#404040;"/>
          </a>
         </g>
        </svg>
</svg>
