<?xml version="1.0" encoding="UTF-8" standalone="no"?>
<!DOCTYPE svg PUBLIC "-//W3C//DTD SVG 1.1//EN"
 "http://www.w3.org/Graphics/SVG/1.1/DTD/svg11.dtd">
<!-- Generated by graphviz version 2.34.0 (20130907.0111)
 -->
<!-- Title: idFXSingleAction Pages: 1 -->
<svg width="181pt" height="118pt"
 viewBox="0.00 0.00 181.00 118.00" xmlns="http://www.w3.org/2000/svg" xmlns:xlink="http://www.w3.org/1999/xlink">
<g id="graph0" class="graph" transform="scale(1 1) rotate(0) translate(4 114)">
<title>idFXSingleAction</title>
<polygon fill="white" stroke="white" points="-4,4 -4,-114 177,-114 177,4 -4,4"/>
<!-- Node1 -->
<g id="node1" class="node"><title>Node1</title>
<polygon fill="#bfbfbf" stroke="black" points="38,-0.5 38,-19.5 128,-19.5 128,-0.5 38,-0.5"/>
<text text-anchor="middle" x="83" y="-7.5" font-family="Arial" font-size="10.00">idFXSingleAction</text>
</g>
<!-- Node2 -->
<g id="node2" class="node"><title>Node2</title>
<g id="a_node2"><a xlink:href="classid_mat3.html" target="_top" xlink:title="idMat3">
<polygon fill="white" stroke="black" points="0,-90.5 0,-109.5 46,-109.5 46,-90.5 0,-90.5"/>
<text text-anchor="middle" x="23" y="-97.5" font-family="Arial" font-size="10.00">idMat3</text>
</a>
</g>
</g>
<!-- Node2&#45;&gt;Node1 -->
<g id="edge1" class="edge"><title>Node2&#45;&gt;Node1</title>
<path fill="none" stroke="#9a32cd" stroke-dasharray="5,2" d="M31.52,-80.925C37.7994,-68.3775 46.9648,-51.5486 57,-38 61.8803,-31.4111 68.255,-24.7674 73.4708,-19.719"/>
<polygon fill="#9a32cd" stroke="#9a32cd" points="28.191,-79.7679 26.9683,-90.292 34.487,-82.8274 28.191,-79.7679"/>
<text text-anchor="middle" x="68" y="-52.5" font-family="Arial" font-size="10.00"> axis</text>
</g>
<!-- Node3 -->
<g id="node3" class="node"><title>Node3</title>
<g id="a_node3"><a xlink:href="classid_str.html" target="_top" xlink:title="idStr">
<polygon fill="white" stroke="black" points="64.5,-90.5 64.5,-109.5 101.5,-109.5 101.5,-90.5 64.5,-90.5"/>
<text text-anchor="middle" x="83" y="-97.5" font-family="Arial" font-size="10.00">idStr</text>
</a>
</g>
</g>
<!-- Node3&#45;&gt;Node1 -->
<g id="edge2" class="edge"><title>Node3&#45;&gt;Node1</title>
<path fill="none" stroke="#9a32cd" stroke-dasharray="5,2" d="M83,-79.9784C83,-61.3096 83,-33.6696 83,-19.7241"/>
<polygon fill="#9a32cd" stroke="#9a32cd" points="79.5001,-80.2405 83,-90.2405 86.5001,-80.2405 79.5001,-80.2405"/>
<text text-anchor="middle" x="95.5" y="-63.5" font-family="Arial" font-size="10.00"> fire</text>
<text text-anchor="middle" x="95.5" y="-52.5" font-family="Arial" font-size="10.00">data</text>
<text text-anchor="middle" x="95.5" y="-41.5" font-family="Arial" font-size="10.00">name</text>
</g>
<!-- Node4 -->
<g id="node4" class="node"><title>Node4</title>
<g id="a_node4"><a xlink:href="classid_vec3.html" target="_top" xlink:title="idVec3">
<polygon fill="white" stroke="black" points="119.5,-90.5 119.5,-109.5 166.5,-109.5 166.5,-90.5 119.5,-90.5"/>
<text text-anchor="middle" x="143" y="-97.5" font-family="Arial" font-size="10.00">idVec3</text>
</a>
</g>
</g>
<!-- Node4&#45;&gt;Node1 -->
<g id="edge3" class="edge"><title>Node4&#45;&gt;Node1</title>
<path fill="none" stroke="#9a32cd" stroke-dasharray="5,2" d="M135.727,-80.7034C130.229,-68.0541 121.94,-51.1946 112,-38 106.867,-31.187 99.9031,-24.6393 94.0857,-19.6985"/>
<polygon fill="#9a32cd" stroke="#9a32cd" points="132.591,-82.2776 139.664,-90.1658 139.053,-79.5885 132.591,-82.2776"/>
<text text-anchor="middle" x="152.5" y="-58" font-family="Arial" font-size="10.00"> offset</text>
<text text-anchor="middle" x="152.5" y="-47" font-family="Arial" font-size="10.00">lightColor</text>
</g>
</g>
</svg>
