<?xml version="1.0" encoding="UTF-8" standalone="no"?>
<!DOCTYPE svg PUBLIC "-//W3C//DTD SVG 1.1//EN"
 "http://www.w3.org/Graphics/SVG/1.1/DTD/svg11.dtd">
<!-- Generated by graphviz version 2.34.0 (20130907.0111)
 -->
<!-- Title: mixer_operations Pages: 1 -->
<svg width="199pt" height="164pt"
 viewBox="0.00 0.00 199.00 164.00" xmlns="http://www.w3.org/2000/svg" xmlns:xlink="http://www.w3.org/1999/xlink">
<g id="graph0" class="graph" transform="scale(1 1) rotate(0) translate(4 160)">
<title>mixer_operations</title>
<polygon fill="white" stroke="white" points="-4,4 -4,-160 195,-160 195,4 -4,4"/>
<!-- Node1 -->
<g id="node1" class="node"><title>Node1</title>
<polygon fill="#bfbfbf" stroke="black" points="59.5,-0.5 59.5,-19.5 150.5,-19.5 150.5,-0.5 59.5,-0.5"/>
<text text-anchor="middle" x="105" y="-7.5" font-family="Arial" font-size="10.00">mixer_operations</text>
</g>
<!-- Node2 -->
<g id="node2" class="node"><title>Node2</title>
<g id="a_node2"><a xlink:href="structoss__mixext__desc.html" target="_top" xlink:title="oss_mixext_desc">
<polygon fill="white" stroke="black" points="58.5,-68.5 58.5,-87.5 151.5,-87.5 151.5,-68.5 58.5,-68.5"/>
<text text-anchor="middle" x="105" y="-75.5" font-family="Arial" font-size="10.00">oss_mixext_desc</text>
</a>
</g>
</g>
<!-- Node2&#45;&gt;Node1 -->
<g id="edge1" class="edge"><title>Node2&#45;&gt;Node1</title>
<path fill="none" stroke="#9a32cd" stroke-dasharray="5,2" d="M105,-58.0413C105,-45.4724 105,-29.5631 105,-19.8411"/>
<polygon fill="#9a32cd" stroke="#9a32cd" points="101.5,-58.3716 105,-68.3717 108.5,-58.3717 101.5,-58.3716"/>
<text text-anchor="middle" x="130.5" y="-41.5" font-family="Arial" font-size="10.00"> extensions</text>
</g>
<!-- Node3 -->
<g id="node3" class="node"><title>Node3</title>
<g id="a_node3"><a xlink:href="structoss__mixer__enuminfo.html" target="_top" xlink:title="oss_mixer_enuminfo">
<polygon fill="white" stroke="black" points="0,-136.5 0,-155.5 106,-155.5 106,-136.5 0,-136.5"/>
<text text-anchor="middle" x="53" y="-143.5" font-family="Arial" font-size="10.00">oss_mixer_enuminfo</text>
</a>
</g>
</g>
<!-- Node3&#45;&gt;Node2 -->
<g id="edge2" class="edge"><title>Node3&#45;&gt;Node2</title>
<path fill="none" stroke="#9a32cd" stroke-dasharray="5,2" d="M66.1496,-128.31C76.2868,-115.444 89.9056,-98.1583 98.0343,-87.8411"/>
<polygon fill="#9a32cd" stroke="#9a32cd" points="63.2376,-126.351 59.7981,-136.372 68.7361,-130.683 63.2376,-126.351"/>
<text text-anchor="middle" x="108" y="-109.5" font-family="Arial" font-size="10.00"> enum_info</text>
</g>
<!-- Node4 -->
<g id="node4" class="node"><title>Node4</title>
<g id="a_node4"><a xlink:href="structoss__mixext.html" target="_top" xlink:title="oss_mixext">
<polygon fill="white" stroke="black" points="124.5,-136.5 124.5,-155.5 191.5,-155.5 191.5,-136.5 124.5,-136.5"/>
<text text-anchor="middle" x="158" y="-143.5" font-family="Arial" font-size="10.00">oss_mixext</text>
</a>
</g>
</g>
<!-- Node4&#45;&gt;Node2 -->
<g id="edge3" class="edge"><title>Node4&#45;&gt;Node2</title>
<path fill="none" stroke="#9a32cd" stroke-dasharray="5,2" d="M149.571,-127.131C145.887,-120.194 141.214,-112.396 136,-106 130.408,-99.1404 122.96,-92.5913 116.766,-87.6614"/>
<polygon fill="#9a32cd" stroke="#9a32cd" points="146.609,-129.033 154.208,-136.415 152.871,-125.905 146.609,-129.033"/>
<text text-anchor="middle" x="152.5" y="-109.5" font-family="Arial" font-size="10.00"> ext</text>
</g>
</g>
</svg>
