<?xml version="1.0" encoding="UTF-8" standalone="no"?>
<!DOCTYPE svg PUBLIC "-//W3C//DTD SVG 1.1//EN"
 "http://www.w3.org/Graphics/SVG/1.1/DTD/svg11.dtd">
<!-- Generated by graphviz version 2.34.0 (20130907.0111)
 -->
<!-- Title: deformInfo_s Pages: 1 -->
<svg width="165pt" height="96pt"
 viewBox="0.00 0.00 165.00 96.00" xmlns="http://www.w3.org/2000/svg" xmlns:xlink="http://www.w3.org/1999/xlink">
<g id="graph0" class="graph" transform="scale(1 1) rotate(0) translate(4 92)">
<title>deformInfo_s</title>
<polygon fill="white" stroke="white" points="-4,4 -4,-92 161,-92 161,4 -4,4"/>
<!-- Node1 -->
<g id="node1" class="node"><title>Node1</title>
<polygon fill="#bfbfbf" stroke="black" points="34.5,-0.5 34.5,-19.5 105.5,-19.5 105.5,-0.5 34.5,-0.5"/>
<text text-anchor="middle" x="70" y="-7.5" font-family="Arial" font-size="10.00">deformInfo_s</text>
</g>
<!-- Node2 -->
<g id="node2" class="node"><title>Node2</title>
<g id="a_node2"><a xlink:href="structsil_edge__t.html" target="_top" xlink:title="silEdge_t">
<polygon fill="white" stroke="black" points="-0.5,-68.5 -0.5,-87.5 56.5,-87.5 56.5,-68.5 -0.5,-68.5"/>
<text text-anchor="middle" x="28" y="-75.5" font-family="Arial" font-size="10.00">silEdge_t</text>
</a>
</g>
</g>
<!-- Node2&#45;&gt;Node1 -->
<g id="edge1" class="edge"><title>Node2&#45;&gt;Node1</title>
<path fill="none" stroke="#9a32cd" stroke-dasharray="5,2" d="M37.3157,-59.4111C41.0737,-52.6108 45.5649,-44.8351 50,-38 54.0643,-31.7363 59.0643,-24.9863 63.0482,-19.8022"/>
<polygon fill="#9a32cd" stroke="#9a32cd" points="34.1041,-57.9921 32.4265,-68.4533 40.2616,-61.3216 34.1041,-57.9921"/>
<text text-anchor="middle" x="70.5" y="-41.5" font-family="Arial" font-size="10.00"> silEdges</text>
</g>
<!-- Node3 -->
<g id="node3" class="node"><title>Node3</title>
<g id="a_node3"><a xlink:href="structdominant_tri__s.html" target="_top" xlink:title="dominantTri_s">
<polygon fill="white" stroke="black" points="74.5,-68.5 74.5,-87.5 151.5,-87.5 151.5,-68.5 74.5,-68.5"/>
<text text-anchor="middle" x="113" y="-75.5" font-family="Arial" font-size="10.00">dominantTri_s</text>
</a>
</g>
</g>
<!-- Node3&#45;&gt;Node1 -->
<g id="edge2" class="edge"><title>Node3&#45;&gt;Node1</title>
<path fill="none" stroke="#9a32cd" stroke-dasharray="5,2" d="M103.768,-59.3561C100.021,-52.5487 95.5151,-44.7826 91,-38 86.7879,-31.6726 81.5379,-24.9226 77.3409,-19.7544"/>
<polygon fill="#9a32cd" stroke="#9a32cd" points="100.817,-61.2593 108.628,-68.4175 106.986,-57.9507 100.817,-61.2593"/>
<text text-anchor="middle" x="127.5" y="-41.5" font-family="Arial" font-size="10.00"> dominantTris</text>
</g>
</g>
</svg>
