<?xml version="1.0" encoding="UTF-8" standalone="no"?>
<!DOCTYPE svg PUBLIC "-//W3C//DTD SVG 1.1//EN"
 "http://www.w3.org/Graphics/SVG/1.1/DTD/svg11.dtd">
<!-- Generated by graphviz version 2.34.0 (20130907.0111)
 -->
<!-- Title: AFCollision_s Pages: 1 -->
<svg width="211pt" height="368pt"
 viewBox="0.00 0.00 211.00 368.00" xmlns="http://www.w3.org/2000/svg" xmlns:xlink="http://www.w3.org/1999/xlink">
<g id="graph0" class="graph" transform="scale(1 1) rotate(0) translate(4 364)">
<title>AFCollision_s</title>
<polygon fill="white" stroke="white" points="-4,4 -4,-364 207,-364 207,4 -4,4"/>
<!-- Node1 -->
<g id="node1" class="node"><title>Node1</title>
<polygon fill="#bfbfbf" stroke="black" points="22.5,-0.5 22.5,-19.5 99.5,-19.5 99.5,-0.5 22.5,-0.5"/>
<text text-anchor="middle" x="61" y="-7.5" font-family="Arial" font-size="10.00">AFCollision_s</text>
</g>
<!-- Node2 -->
<g id="node2" class="node"><title>Node2</title>
<g id="a_node2"><a xlink:href="classid_a_f_body.html" target="_top" xlink:title="idAFBody">
<polygon fill="white" stroke="black" points="1.5,-68.5 1.5,-87.5 60.5,-87.5 60.5,-68.5 1.5,-68.5"/>
<text text-anchor="middle" x="31" y="-75.5" font-family="Arial" font-size="10.00">idAFBody</text>
</a>
</g>
</g>
<!-- Node2&#45;&gt;Node1 -->
<g id="edge1" class="edge"><title>Node2&#45;&gt;Node1</title>
<path fill="none" stroke="#9a32cd" stroke-dasharray="5,2" d="M36.203,-58.3786C38.3003,-51.8047 40.9501,-44.4477 44,-38 47.0318,-31.5906 51.2818,-24.8406 54.7738,-19.693"/>
<polygon fill="#9a32cd" stroke="#9a32cd" points="32.7174,-57.8208 33.2219,-68.4036 39.427,-59.816 32.7174,-57.8208"/>
<text text-anchor="middle" x="56.5" y="-41.5" font-family="Arial" font-size="10.00"> body</text>
</g>
<!-- Node3 -->
<g id="node3" class="node"><title>Node3</title>
<g id="a_node3"><a xlink:href="structtrace__s.html" target="_top" xlink:title="trace_s">
<polygon fill="white" stroke="black" points="78.5,-68.5 78.5,-87.5 127.5,-87.5 127.5,-68.5 78.5,-68.5"/>
<text text-anchor="middle" x="103" y="-75.5" font-family="Arial" font-size="10.00">trace_s</text>
</a>
</g>
</g>
<!-- Node3&#45;&gt;Node1 -->
<g id="edge2" class="edge"><title>Node3&#45;&gt;Node1</title>
<path fill="none" stroke="#9a32cd" stroke-dasharray="5,2" d="M91.9037,-59.563C83.77,-46.7815 73.0654,-29.9599 66.6262,-19.8411"/>
<polygon fill="#9a32cd" stroke="#9a32cd" points="89.1876,-61.8141 97.5092,-68.3717 95.0933,-58.0559 89.1876,-61.8141"/>
<text text-anchor="middle" x="98.5" y="-41.5" font-family="Arial" font-size="10.00"> trace</text>
</g>
<!-- Node4 -->
<g id="node4" class="node"><title>Node4</title>
<g id="a_node4"><a xlink:href="structcontact_info__t.html" target="_top" xlink:title="contactInfo_t">
<polygon fill="white" stroke="black" points="67,-136.5 67,-155.5 139,-155.5 139,-136.5 67,-136.5"/>
<text text-anchor="middle" x="103" y="-143.5" font-family="Arial" font-size="10.00">contactInfo_t</text>
</a>
</g>
</g>
<!-- Node4&#45;&gt;Node3 -->
<g id="edge3" class="edge"><title>Node4&#45;&gt;Node3</title>
<path fill="none" stroke="#9a32cd" stroke-dasharray="5,2" d="M103,-126.041C103,-113.472 103,-97.5631 103,-87.8411"/>
<polygon fill="#9a32cd" stroke="#9a32cd" points="99.5001,-126.372 103,-136.372 106.5,-126.372 99.5001,-126.372"/>
<text text-anchor="middle" x="107.5" y="-109.5" font-family="Arial" font-size="10.00"> c</text>
</g>
<!-- Node5 -->
<g id="node5" class="node"><title>Node5</title>
<g id="a_node5"><a xlink:href="classid_vec3.html" target="_top" xlink:title="idVec3">
<polygon fill="white" stroke="black" points="-0.5,-214.5 -0.5,-233.5 46.5,-233.5 46.5,-214.5 -0.5,-214.5"/>
<text text-anchor="middle" x="23" y="-221.5" font-family="Arial" font-size="10.00">idVec3</text>
</a>
</g>
</g>
<!-- Node5&#45;&gt;Node3 -->
<g id="edge9" class="edge"><title>Node5&#45;&gt;Node3</title>
<path fill="none" stroke="#9a32cd" stroke-dasharray="5,2" d="M18.3124,-204.449C14.6882,-186.006 11.9464,-157.448 23,-136 35.1093,-112.504 61.8824,-96.5641 81.1231,-87.6442"/>
<polygon fill="#9a32cd" stroke="#9a32cd" points="14.9047,-205.248 20.509,-214.24 21.735,-203.716 14.9047,-205.248"/>
<text text-anchor="middle" x="40.5" y="-143.5" font-family="Arial" font-size="10.00"> endpos</text>
</g>
<!-- Node5&#45;&gt;Node4 -->
<g id="edge4" class="edge"><title>Node5&#45;&gt;Node4</title>
<path fill="none" stroke="#9a32cd" stroke-dasharray="5,2" d="M36.1148,-206.274C44.2308,-196.395 55.1444,-183.921 66,-174 73.396,-167.24 82.4748,-160.594 89.7882,-155.587"/>
<polygon fill="#9a32cd" stroke="#9a32cd" points="33.3138,-204.172 29.7744,-214.158 38.7688,-208.558 33.3138,-204.172"/>
<text text-anchor="middle" x="82.5" y="-188" font-family="Arial" font-size="10.00"> normal</text>
<text text-anchor="middle" x="82.5" y="-177" font-family="Arial" font-size="10.00">point</text>
</g>
<!-- Node6 -->
<g id="node6" class="node"><title>Node6</title>
<g id="a_node6"><a xlink:href="classid_material.html" target="_top" xlink:title="idMaterial">
<polygon fill="white" stroke="black" points="73.5,-214.5 73.5,-233.5 132.5,-233.5 132.5,-214.5 73.5,-214.5"/>
<text text-anchor="middle" x="103" y="-221.5" font-family="Arial" font-size="10.00">idMaterial</text>
</a>
</g>
</g>
<!-- Node6&#45;&gt;Node4 -->
<g id="edge5" class="edge"><title>Node6&#45;&gt;Node4</title>
<path fill="none" stroke="#9a32cd" stroke-dasharray="5,2" d="M103,-204.224C103,-188.697 103,-167.358 103,-155.616"/>
<polygon fill="#9a32cd" stroke="#9a32cd" points="99.5001,-204.282 103,-214.282 106.5,-204.282 99.5001,-204.282"/>
<text text-anchor="middle" x="122" y="-182.5" font-family="Arial" font-size="10.00"> material</text>
</g>
<!-- Node7 -->
<g id="node7" class="node"><title>Node7</title>
<g id="a_node7"><a xlink:href="classid_decl.html" target="_top" xlink:title="idDecl">
<polygon fill="white" stroke="black" points="81,-272.5 81,-291.5 125,-291.5 125,-272.5 81,-272.5"/>
<text text-anchor="middle" x="103" y="-279.5" font-family="Arial" font-size="10.00">idDecl</text>
</a>
</g>
</g>
<!-- Node7&#45;&gt;Node6 -->
<g id="edge6" class="edge"><title>Node7&#45;&gt;Node6</title>
<path fill="none" stroke="midnightblue" d="M103,-261.953C103,-252.287 103,-241.031 103,-233.505"/>
<polygon fill="midnightblue" stroke="midnightblue" points="99.5001,-262.25 103,-272.25 106.5,-262.25 99.5001,-262.25"/>
</g>
<!-- Node8 -->
<g id="node8" class="node"><title>Node8</title>
<g id="a_node8"><a xlink:href="classid_decl_base.html" target="_top" xlink:title="idDeclBase">
<polygon fill="white" stroke="black" points="70,-340.5 70,-359.5 136,-359.5 136,-340.5 70,-340.5"/>
<text text-anchor="middle" x="103" y="-347.5" font-family="Arial" font-size="10.00">idDeclBase</text>
</a>
</g>
</g>
<!-- Node8&#45;&gt;Node7 -->
<g id="edge7" class="edge"><title>Node8&#45;&gt;Node7</title>
<path fill="none" stroke="#9a32cd" stroke-dasharray="5,2" d="M103,-330.041C103,-317.472 103,-301.563 103,-291.841"/>
<polygon fill="#9a32cd" stroke="#9a32cd" points="99.5001,-330.372 103,-340.372 106.5,-330.372 99.5001,-330.372"/>
<text text-anchor="middle" x="115.5" y="-313.5" font-family="Arial" font-size="10.00"> base</text>
</g>
<!-- Node9 -->
<g id="node9" class="node"><title>Node9</title>
<g id="a_node9"><a xlink:href="classid_mat3.html" target="_top" xlink:title="idMat3">
<polygon fill="white" stroke="black" points="157,-136.5 157,-155.5 203,-155.5 203,-136.5 157,-136.5"/>
<text text-anchor="middle" x="180" y="-143.5" font-family="Arial" font-size="10.00">idMat3</text>
</a>
</g>
</g>
<!-- Node9&#45;&gt;Node3 -->
<g id="edge8" class="edge"><title>Node9&#45;&gt;Node3</title>
<path fill="none" stroke="#9a32cd" stroke-dasharray="5,2" d="M162.237,-129.774C147.081,-116.784 125.814,-98.5551 113.315,-87.8411"/>
<polygon fill="#9a32cd" stroke="#9a32cd" points="160.063,-132.521 169.934,-136.372 164.619,-127.206 160.063,-132.521"/>
<text text-anchor="middle" x="168.5" y="-109.5" font-family="Arial" font-size="10.00"> endAxis</text>
</g>
</g>
</svg>
