<?xml version="1.0" encoding="UTF-8" standalone="no"?>
<!DOCTYPE svg PUBLIC "-//W3C//DTD SVG 1.1//EN"
 "http://www.w3.org/Graphics/SVG/1.1/DTD/svg11.dtd">
<!-- Generated by graphviz version 2.34.0 (20130907.0111)
 -->
<!-- Title: impactInfo_s Pages: 1 -->
<svg width="151pt" height="106pt"
 viewBox="0.00 0.00 151.00 106.00" xmlns="http://www.w3.org/2000/svg" xmlns:xlink="http://www.w3.org/1999/xlink">
<g id="graph0" class="graph" transform="scale(1 1) rotate(0) translate(4 102)">
<title>impactInfo_s</title>
<polygon fill="white" stroke="white" points="-4,4 -4,-102 147,-102 147,4 -4,4"/>
<!-- Node1 -->
<g id="node1" class="node"><title>Node1</title>
<polygon fill="#bfbfbf" stroke="black" points="33.5,-0.5 33.5,-19.5 104.5,-19.5 104.5,-0.5 33.5,-0.5"/>
<text text-anchor="middle" x="69" y="-7.5" font-family="Arial" font-size="10.00">impactInfo_s</text>
</g>
<!-- Node2 -->
<g id="node2" class="node"><title>Node2</title>
<g id="a_node2"><a xlink:href="classid_mat3.html" target="_top" xlink:title="idMat3">
<polygon fill="white" stroke="black" points="0,-78.5 0,-97.5 46,-97.5 46,-78.5 0,-78.5"/>
<text text-anchor="middle" x="23" y="-85.5" font-family="Arial" font-size="10.00">idMat3</text>
</a>
</g>
</g>
<!-- Node2&#45;&gt;Node1 -->
<g id="edge1" class="edge"><title>Node2&#45;&gt;Node1</title>
<path fill="none" stroke="#9a32cd" stroke-dasharray="5,2" d="M19.26,-68.2047C18.321,-58.5655 18.7856,-46.9944 24,-38 28.7523,-29.8027 37.0702,-23.8096 45.2722,-19.5827"/>
<polygon fill="#9a32cd" stroke="#9a32cd" points="15.8411,-69.0033 20.8065,-78.3626 22.7614,-67.9497 15.8411,-69.0033"/>
<text text-anchor="middle" x="59" y="-46.5" font-family="Arial" font-size="10.00"> invInertiaTensor</text>
</g>
<!-- Node3 -->
<g id="node3" class="node"><title>Node3</title>
<g id="a_node3"><a xlink:href="classid_vec3.html" target="_top" xlink:title="idVec3">
<polygon fill="white" stroke="black" points="92.5,-78.5 92.5,-97.5 139.5,-97.5 139.5,-78.5 92.5,-78.5"/>
<text text-anchor="middle" x="116" y="-85.5" font-family="Arial" font-size="10.00">idVec3</text>
</a>
</g>
</g>
<!-- Node3&#45;&gt;Node1 -->
<g id="edge2" class="edge"><title>Node3&#45;&gt;Node1</title>
<path fill="none" stroke="#9a32cd" stroke-dasharray="5,2" d="M109.393,-68.592C105.573,-59.0731 100.28,-47.4929 94,-38 89.6292,-31.3935 83.6271,-24.8523 78.5995,-19.8632"/>
<polygon fill="#9a32cd" stroke="#9a32cd" points="106.234,-70.1333 113.053,-78.2421 112.779,-67.6508 106.234,-70.1333"/>
<text text-anchor="middle" x="124.5" y="-52" font-family="Arial" font-size="10.00"> position</text>
<text text-anchor="middle" x="124.5" y="-41" font-family="Arial" font-size="10.00">velocity</text>
</g>
</g>
</svg>
