<?xml version="1.0" encoding="UTF-8" standalone="no"?>
<!DOCTYPE svg PUBLIC "-//W3C//DTD SVG 1.1//EN"
 "http://www.w3.org/Graphics/SVG/1.1/DTD/svg11.dtd">
<!-- Generated by graphviz version 2.34.0 (20130907.0111)
 -->
<!-- Title: refSound_t Pages: 1 -->
<svg width="390pt" height="222pt"
 viewBox="0.00 0.00 390.00 222.00" xmlns="http://www.w3.org/2000/svg" xmlns:xlink="http://www.w3.org/1999/xlink">
<g id="graph0" class="graph" transform="scale(1 1) rotate(0) translate(4 218)">
<title>refSound_t</title>
<polygon fill="white" stroke="white" points="-4,4 -4,-218 386,-218 386,4 -4,4"/>
<!-- Node1 -->
<g id="node1" class="node"><title>Node1</title>
<polygon fill="#bfbfbf" stroke="black" points="202.5,-0.5 202.5,-19.5 265.5,-19.5 265.5,-0.5 202.5,-0.5"/>
<text text-anchor="middle" x="234" y="-7.5" font-family="Arial" font-size="10.00">refSound_t</text>
</g>
<!-- Node2 -->
<g id="node2" class="node"><title>Node2</title>
<g id="a_node2"><a xlink:href="structsound_shader_parms__t.html" target="_top" xlink:title="soundShaderParms_t">
<polygon fill="white" stroke="black" points="0,-68.5 0,-87.5 110,-87.5 110,-68.5 0,-68.5"/>
<text text-anchor="middle" x="55" y="-75.5" font-family="Arial" font-size="10.00">soundShaderParms_t</text>
</a>
</g>
</g>
<!-- Node2&#45;&gt;Node1 -->
<g id="edge1" class="edge"><title>Node2&#45;&gt;Node1</title>
<path fill="none" stroke="#9a32cd" stroke-dasharray="5,2" d="M87.8846,-64.875C123.554,-51.723 179.579,-31.066 210.877,-19.5259"/>
<polygon fill="#9a32cd" stroke="#9a32cd" points="86.5728,-61.6282 78.4011,-68.3717 88.9945,-68.196 86.5728,-61.6282"/>
<text text-anchor="middle" x="176.5" y="-41.5" font-family="Arial" font-size="10.00"> parms</text>
</g>
<!-- Node3 -->
<g id="node3" class="node"><title>Node3</title>
<g id="a_node3"><a xlink:href="classid_sound_shader.html" target="_top" xlink:title="idSoundShader">
<polygon fill="white" stroke="black" points="128.5,-68.5 128.5,-87.5 211.5,-87.5 211.5,-68.5 128.5,-68.5"/>
<text text-anchor="middle" x="170" y="-75.5" font-family="Arial" font-size="10.00">idSoundShader</text>
</a>
</g>
</g>
<!-- Node3&#45;&gt;Node1 -->
<g id="edge2" class="edge"><title>Node3&#45;&gt;Node1</title>
<path fill="none" stroke="#9a32cd" stroke-dasharray="5,2" d="M185.469,-61.0474C198.013,-48.1111 215.23,-30.3567 225.427,-19.8411"/>
<polygon fill="#9a32cd" stroke="#9a32cd" points="182.816,-58.7561 178.367,-68.3717 187.841,-63.6291 182.816,-58.7561"/>
<text text-anchor="middle" x="224.5" y="-41.5" font-family="Arial" font-size="10.00"> shader</text>
</g>
<!-- Node4 -->
<g id="node4" class="node"><title>Node4</title>
<g id="a_node4"><a xlink:href="classid_decl.html" target="_top" xlink:title="idDecl">
<polygon fill="white" stroke="black" points="148,-126.5 148,-145.5 192,-145.5 192,-126.5 148,-126.5"/>
<text text-anchor="middle" x="170" y="-133.5" font-family="Arial" font-size="10.00">idDecl</text>
</a>
</g>
</g>
<!-- Node4&#45;&gt;Node3 -->
<g id="edge3" class="edge"><title>Node4&#45;&gt;Node3</title>
<path fill="none" stroke="midnightblue" d="M170,-115.953C170,-106.287 170,-95.0312 170,-87.5052"/>
<polygon fill="midnightblue" stroke="midnightblue" points="166.5,-116.25 170,-126.25 173.5,-116.25 166.5,-116.25"/>
</g>
<!-- Node5 -->
<g id="node5" class="node"><title>Node5</title>
<g id="a_node5"><a xlink:href="classid_decl_base.html" target="_top" xlink:title="idDeclBase">
<polygon fill="white" stroke="black" points="137,-194.5 137,-213.5 203,-213.5 203,-194.5 137,-194.5"/>
<text text-anchor="middle" x="170" y="-201.5" font-family="Arial" font-size="10.00">idDeclBase</text>
</a>
</g>
</g>
<!-- Node5&#45;&gt;Node4 -->
<g id="edge4" class="edge"><title>Node5&#45;&gt;Node4</title>
<path fill="none" stroke="#9a32cd" stroke-dasharray="5,2" d="M170,-184.041C170,-171.472 170,-155.563 170,-145.841"/>
<polygon fill="#9a32cd" stroke="#9a32cd" points="166.5,-184.372 170,-194.372 173.5,-184.372 166.5,-184.372"/>
<text text-anchor="middle" x="182.5" y="-167.5" font-family="Arial" font-size="10.00"> base</text>
</g>
<!-- Node6 -->
<g id="node6" class="node"><title>Node6</title>
<g id="a_node6"><a xlink:href="classid_sound_emitter.html" target="_top" xlink:title="idSoundEmitter">
<polygon fill="white" stroke="black" points="229.5,-68.5 229.5,-87.5 312.5,-87.5 312.5,-68.5 229.5,-68.5"/>
<text text-anchor="middle" x="271" y="-75.5" font-family="Arial" font-size="10.00">idSoundEmitter</text>
</a>
</g>
</g>
<!-- Node6&#45;&gt;Node1 -->
<g id="edge5" class="edge"><title>Node6&#45;&gt;Node1</title>
<path fill="none" stroke="#9a32cd" stroke-dasharray="5,2" d="M261.225,-59.563C254.059,-46.7815 244.629,-29.9599 238.956,-19.8411"/>
<polygon fill="#9a32cd" stroke="#9a32cd" points="258.22,-61.3604 266.163,-68.3717 264.326,-57.9373 258.22,-61.3604"/>
<text text-anchor="middle" x="291.5" y="-41.5" font-family="Arial" font-size="10.00"> referenceSound</text>
</g>
<!-- Node7 -->
<g id="node7" class="node"><title>Node7</title>
<g id="a_node7"><a xlink:href="classid_vec3.html" target="_top" xlink:title="idVec3">
<polygon fill="white" stroke="black" points="335.5,-68.5 335.5,-87.5 382.5,-87.5 382.5,-68.5 335.5,-68.5"/>
<text text-anchor="middle" x="359" y="-75.5" font-family="Arial" font-size="10.00">idVec3</text>
</a>
</g>
</g>
<!-- Node7&#45;&gt;Node1 -->
<g id="edge6" class="edge"><title>Node7&#45;&gt;Node1</title>
<path fill="none" stroke="#9a32cd" stroke-dasharray="5,2" d="M349.891,-59.3179C345.183,-51.7572 338.783,-43.4374 331,-38 311.655,-24.4849 285.738,-17.7156 265.56,-14.3357"/>
<polygon fill="#9a32cd" stroke="#9a32cd" points="346.954,-61.2347 354.924,-68.2147 353.046,-57.7877 346.954,-61.2347"/>
<text text-anchor="middle" x="357.5" y="-41.5" font-family="Arial" font-size="10.00"> origin</text>
</g>
</g>
</svg>
