<?xml version="1.0" encoding="UTF-8" standalone="no"?>
<!DOCTYPE svg PUBLIC "-//W3C//DTD SVG 1.1//EN"
 "http://www.w3.org/Graphics/SVG/1.1/DTD/svg11.dtd">
<!-- Generated by graphviz version 2.34.0 (20130907.0111)
 -->
<!-- Title: internal_state Pages: 1 -->
<svg width="172pt" height="256pt"
 viewBox="0.00 0.00 172.00 256.00" xmlns="http://www.w3.org/2000/svg" xmlns:xlink="http://www.w3.org/1999/xlink">
<g id="graph0" class="graph" transform="scale(1 1) rotate(0) translate(4 252)">
<title>internal_state</title>
<polygon fill="white" stroke="white" points="-4,4 -4,-252 168,-252 168,4 -4,4"/>
<!-- Node1 -->
<g id="node1" class="node"><title>Node1</title>
<polygon fill="#bfbfbf" stroke="black" points="13.5,-0.5 13.5,-19.5 88.5,-19.5 88.5,-0.5 13.5,-0.5"/>
<text text-anchor="middle" x="51" y="-7.5" font-family="Arial" font-size="10.00">internal_state</text>
</g>
<!-- Node2 -->
<g id="node2" class="node"><title>Node2</title>
<g id="a_node2"><a xlink:href="structinflate__blocks__state.html" target="_top" xlink:title="inflate_blocks_state">
<polygon fill="white" stroke="black" points="-0.5,-68.5 -0.5,-87.5 102.5,-87.5 102.5,-68.5 -0.5,-68.5"/>
<text text-anchor="middle" x="51" y="-75.5" font-family="Arial" font-size="10.00">inflate_blocks_state</text>
</a>
</g>
</g>
<!-- Node2&#45;&gt;Node1 -->
<g id="edge1" class="edge"><title>Node2&#45;&gt;Node1</title>
<path fill="none" stroke="#9a32cd" stroke-dasharray="5,2" d="M51,-58.0413C51,-45.4724 51,-29.5631 51,-19.8411"/>
<polygon fill="#9a32cd" stroke="#9a32cd" points="47.5001,-58.3716 51,-68.3717 54.5001,-58.3717 47.5001,-58.3716"/>
<text text-anchor="middle" x="67" y="-41.5" font-family="Arial" font-size="10.00"> blocks</text>
</g>
<!-- Node3 -->
<g id="node3" class="node"><title>Node3</title>
<g id="a_node3"><a xlink:href="structinflate__codes__state.html" target="_top" xlink:title="inflate_codes_state">
<polygon fill="white" stroke="black" points="63.5,-137.5 63.5,-156.5 164.5,-156.5 164.5,-137.5 63.5,-137.5"/>
<text text-anchor="middle" x="114" y="-144.5" font-family="Arial" font-size="10.00">inflate_codes_state</text>
</a>
</g>
</g>
<!-- Node3&#45;&gt;Node2 -->
<g id="edge2" class="edge"><title>Node3&#45;&gt;Node2</title>
<path fill="none" stroke="#9a32cd" stroke-dasharray="5,2" d="M98.687,-129.715C86.1802,-116.414 68.9986,-98.1413 59.039,-87.5494"/>
<polygon fill="#9a32cd" stroke="#9a32cd" points="96.3637,-132.353 105.764,-137.241 101.463,-127.558 96.3637,-132.353"/>
<text text-anchor="middle" x="101" y="-109.5" font-family="Arial" font-size="10.00"> codes</text>
</g>
<!-- Node4 -->
<g id="node4" class="node"><title>Node4</title>
<g id="a_node4"><a xlink:href="structinflate__huft__s.html" target="_top" xlink:title="inflate_huft_s">
<polygon fill="white" stroke="black" points="14,-228.5 14,-247.5 88,-247.5 88,-228.5 14,-228.5"/>
<text text-anchor="middle" x="51" y="-235.5" font-family="Arial" font-size="10.00">inflate_huft_s</text>
</a>
</g>
</g>
<!-- Node4&#45;&gt;Node2 -->
<g id="edge4" class="edge"><title>Node4&#45;&gt;Node2</title>
<path fill="none" stroke="#9a32cd" stroke-dasharray="5,2" d="M43.0013,-218.922C35.0714,-198.759 24.8022,-165.144 30,-136 33.1849,-118.143 41.5698,-98.5503 46.7295,-87.6156"/>
<polygon fill="#9a32cd" stroke="#9a32cd" points="39.8681,-220.502 46.9467,-228.385 46.3291,-217.809 39.8681,-220.502"/>
<text text-anchor="middle" x="42.5" y="-150" font-family="Arial" font-size="10.00"> hufts</text>
<text text-anchor="middle" x="42.5" y="-139" font-family="Arial" font-size="10.00">tb</text>
</g>
<!-- Node4&#45;&gt;Node3 -->
<g id="edge3" class="edge"><title>Node4&#45;&gt;Node3</title>
<path fill="none" stroke="#9a32cd" stroke-dasharray="5,2" d="M62.9011,-220.187C76.288,-201.276 97.511,-171.294 107.885,-156.639"/>
<polygon fill="#9a32cd" stroke="#9a32cd" points="59.9617,-218.282 57.0407,-228.466 65.6751,-222.326 59.9617,-218.282"/>
<text text-anchor="middle" x="104" y="-201.5" font-family="Arial" font-size="10.00"> ltree</text>
<text text-anchor="middle" x="104" y="-190.5" font-family="Arial" font-size="10.00">dtree</text>
<text text-anchor="middle" x="104" y="-179.5" font-family="Arial" font-size="10.00">tree</text>
</g>
</g>
</svg>
