<?xml version="1.0" encoding="UTF-8" standalone="no"?>
<!DOCTYPE svg PUBLIC "-//W3C//DTD SVG 1.1//EN"
 "http://www.w3.org/Graphics/SVG/1.1/DTD/svg11.dtd">
<!-- Generated by graphviz version 2.34.0 (20130907.0111)
 -->
<!-- Title: obstacle_s Pages: 1 -->
<!--zoomable 851 -->
<svg id="main" version="1.1" xmlns="http://www.w3.org/2000/svg" xmlns:xlink="http://www.w3.org/1999/xlink" xml:space="preserve" onload="init(evt)">
<style type="text/css"><![CDATA[
.edge:hover path { stroke: red; }
.edge:hover polygon { stroke: red; fill: red; }
]]></style>
<script type="text/javascript"><![CDATA[
var edges = document.getElementsByTagName('g');
if (edges && edges.length) {
  for (var i=0;i<edges.length;i++) {
    if (edges[i].id.substr(0,4)=='edge') {
      edges[i].setAttribute('class','edge');
    }
  }
}
]]></script>
        <defs>
                <circle id="rim" cx="0" cy="0" r="7"/>
                <circle id="rim2" cx="0" cy="0" r="3.5"/>
                <g id="zoomPlus">
                        <use xlink:href="#rim" fill="#404040">
                                <set attributeName="fill" to="#808080" begin="zoomplus.mouseover" end="zoomplus.mouseout"/>
                        </use>
                        <path d="M-4,0h8M0,-4v8" fill="none" stroke="white" stroke-width="1.5" pointer-events="none"/>
                </g>
                <g id="zoomMin">
                        <use xlink:href="#rim" fill="#404040">
                                <set attributeName="fill" to="#808080" begin="zoomminus.mouseover" end="zoomminus.mouseout"/>
                        </use>
                        <path d="M-4,0h8" fill="none" stroke="white" stroke-width="1.5" pointer-events="none"/>
                </g>
                <g id="dirArrow">
                        <path fill="none" stroke="white" stroke-width="1.5" d="M0,-3.0v7 M-2.5,-0.5L0,-3.0L2.5,-0.5"/>
                </g>
               <g id="resetDef">
                       <use xlink:href="#rim2" fill="#404040">
                               <set attributeName="fill" to="#808080" begin="reset.mouseover" end="reset.mouseout"/>
                       </use>
               </g>
        </defs>

<script type="text/javascript">
var viewWidth = 1120;
var viewHeight = 851;
var sectionId = 'dynsection-0';
</script>
<script xlink:href="svgpan.js"/>
<svg id="graph" class="graph">
<g id="viewport">
<title>obstacle_s</title>
<polygon fill="white" stroke="white" points="-4,4 -4,-846.91 1116,-846.91 1116,4 -4,4"/>
<!-- Node1 -->
<g id="node1" class="node"><title>Node1</title>
<polygon fill="#bfbfbf" stroke="black" points="1048,-493.41 1048,-512.41 1112,-512.41 1112,-493.41 1048,-493.41"/>
<text text-anchor="middle" x="1080" y="-500.41" font-family="Arial" font-size="10.00">obstacle_s</text>
</g>
<!-- Node2 -->
<g id="node2" class="node"><title>Node2</title>
<g id="a_node2"><a xlink:href="classid_entity.html" target="_top" xlink:title="idEntity">
<polygon fill="white" stroke="black" points="915,-531.41 915,-550.41 965,-550.41 965,-531.41 915,-531.41"/>
<text text-anchor="middle" x="940" y="-538.41" font-family="Arial" font-size="10.00">idEntity</text>
</a>
</g>
</g>
<!-- Node2&#45;&gt;Node1 -->
<g id="edge1" class="edge"><title>Node2&#45;&gt;Node1</title>
<path fill="none" stroke="#9a32cd" stroke-dasharray="5,2" d="M975.014,-531.865C991.614,-527.418 1011.87,-521.945 1030,-516.91 1035.8,-515.3 1041.97,-513.558 1047.91,-511.867"/>
<polygon fill="#9a32cd" stroke="#9a32cd" points="973.959,-528.524 965.202,-534.488 975.767,-535.287 973.959,-528.524"/>
<text text-anchor="middle" x="1012" y="-529.91" font-family="Arial" font-size="10.00"> entity</text>
</g>
<!-- Node2&#45;&gt;Node2 -->
<g id="edge11" class="edge"><title>Node2&#45;&gt;Node2</title>
<path fill="none" stroke="#9a32cd" stroke-dasharray="5,2" d="M926.741,-560.676C927.782,-565.407 932.202,-568.91 940,-568.91 952.797,-568.91 956.496,-559.475 951.097,-550.667"/>
<polygon fill="#9a32cd" stroke="#9a32cd" points="930.212,-561.181 928.903,-550.667 923.37,-559.703 930.212,-561.181"/>
<text text-anchor="middle" x="940" y="-571.91" font-family="Arial" font-size="10.00"> cameraTarget</text>
</g>
<!-- Node3 -->
<g id="node3" class="node"><title>Node3</title>
<g id="a_node3"><a xlink:href="classid_class.html" target="_top" xlink:title="idClass">
<polygon fill="white" stroke="black" points="709.5,-732.41 709.5,-751.41 758.5,-751.41 758.5,-732.41 709.5,-732.41"/>
<text text-anchor="middle" x="734" y="-739.41" font-family="Arial" font-size="10.00">idClass</text>
</a>
</g>
</g>
<!-- Node3&#45;&gt;Node2 -->
<g id="edge2" class="edge"><title>Node3&#45;&gt;Node2</title>
<path fill="none" stroke="midnightblue" d="M766.313,-729.349C800.055,-718.983 853.299,-701.773 886,-667.91 919.622,-633.094 932.577,-574.525 936.987,-550.765"/>
<polygon fill="midnightblue" stroke="midnightblue" points="765.045,-726.077 756.512,-732.357 767.099,-732.769 765.045,-726.077"/>
</g>
<!-- Node3&#45;&gt;Node2 -->
<g id="edge10" class="edge"><title>Node3&#45;&gt;Node2</title>
<path fill="none" stroke="midnightblue" d="M769.004,-742.074C802.83,-736.07 854.155,-718.886 886,-685.91 924.023,-646.537 935.614,-576.786 938.307,-550.544"/>
<polygon fill="midnightblue" stroke="midnightblue" points="768.046,-738.679 758.683,-743.637 769.094,-745.6 768.046,-738.679"/>
</g>
<!-- Node4 -->
<g id="node4" class="node"><title>Node4</title>
<g id="a_node4"><a xlink:href="classid_type_info.html" target="_top" xlink:title="idTypeInfo">
<polygon fill="white" stroke="black" points="910,-783.41 910,-802.41 970,-802.41 970,-783.41 910,-783.41"/>
<text text-anchor="middle" x="940" y="-790.41" font-family="Arial" font-size="10.00">idTypeInfo</text>
</a>
</g>
</g>
<!-- Node3&#45;&gt;Node4 -->
<g id="edge8" class="edge"><title>Node3&#45;&gt;Node4</title>
<path fill="none" stroke="#9a32cd" stroke-dasharray="5,2" d="M768.74,-737.127C800.212,-734.063 847.898,-733.052 886,-747.91 904.893,-755.278 921.814,-772.355 931.215,-783.225"/>
<polygon fill="#9a32cd" stroke="#9a32cd" points="768.285,-733.656 758.726,-738.225 769.048,-740.614 768.285,-733.656"/>
<text text-anchor="middle" x="851" y="-750.91" font-family="Arial" font-size="10.00"> CreateInstance</text>
</g>
<!-- Node4&#45;&gt;Node3 -->
<g id="edge3" class="edge"><title>Node4&#45;&gt;Node3</title>
<path fill="none" stroke="#9a32cd" stroke-dasharray="5,2" d="M899.953,-783.148C858.241,-772.72 793.464,-756.526 758.801,-747.86"/>
<polygon fill="#9a32cd" stroke="#9a32cd" points="899.221,-786.573 909.771,-785.603 900.918,-779.782 899.221,-786.573"/>
<text text-anchor="middle" x="851" y="-782.91" font-family="Arial" font-size="10.00"> Type</text>
</g>
<!-- Node4&#45;&gt;Node4 -->
<g id="edge4" class="edge"><title>Node4&#45;&gt;Node4</title>
<path fill="none" stroke="#9a32cd" stroke-dasharray="5,2" d="M926.741,-812.676C927.782,-817.407 932.202,-820.91 940,-820.91 952.797,-820.91 956.496,-811.475 951.097,-802.667"/>
<polygon fill="#9a32cd" stroke="#9a32cd" points="930.212,-813.181 928.903,-802.667 923.37,-811.703 930.212,-813.181"/>
<text text-anchor="middle" x="940" y="-834.91" font-family="Arial" font-size="10.00"> next</text>
<text text-anchor="middle" x="940" y="-823.91" font-family="Arial" font-size="10.00">super</text>
</g>
<!-- Node5 -->
<g id="node5" class="node"><title>Node5</title>
<g id="a_node5"><a xlink:href="classid_hierarchy.html" target="_top" xlink:title="idHierarchy\&lt; idTypeInfo \&gt;">
<polygon fill="white" stroke="black" points="670.5,-790.41 670.5,-809.41 797.5,-809.41 797.5,-790.41 670.5,-790.41"/>
<text text-anchor="middle" x="734" y="-797.41" font-family="Arial" font-size="10.00">idHierarchy&lt; idTypeInfo &gt;</text>
</a>
</g>
</g>
<!-- Node5&#45;&gt;Node4 -->
<g id="edge5" class="edge"><title>Node5&#45;&gt;Node4</title>
<path fill="none" stroke="#9a32cd" stroke-dasharray="5,2" d="M807.847,-797.41C843.033,-796.203 883.271,-794.822 909.796,-793.912"/>
<polygon fill="#9a32cd" stroke="#9a32cd" points="807.467,-793.921 797.593,-797.762 807.707,-800.917 807.467,-793.921"/>
<text text-anchor="middle" x="851" y="-800.91" font-family="Arial" font-size="10.00"> node</text>
</g>
<!-- Node6 -->
<g id="node6" class="node"><title>Node6</title>
<g id="a_node6"><a xlink:href="structid_event_func.html" target="_top" xlink:title="idEventFunc\&lt; idClass \&gt;">
<polygon fill="white" stroke="black" points="428,-810.41 428,-829.41 548,-829.41 548,-810.41 428,-810.41"/>
<text text-anchor="middle" x="488" y="-817.41" font-family="Arial" font-size="10.00">idEventFunc&lt; idClass &gt;</text>
</a>
</g>
</g>
<!-- Node6&#45;&gt;Node3 -->
<g id="edge9" class="edge"><title>Node6&#45;&gt;Node3</title>
<path fill="none" stroke="#9a32cd" stroke-dasharray="5,2" d="M528.663,-807.231C579.928,-790.843 667.564,-762.828 709.41,-749.451"/>
<polygon fill="#9a32cd" stroke="#9a32cd" points="527.379,-803.967 518.919,-810.346 529.51,-810.635 527.379,-803.967"/>
<text text-anchor="middle" x="609" y="-797.91" font-family="Arial" font-size="10.00"> eventCallbacks</text>
</g>
<!-- Node6&#45;&gt;Node4 -->
<g id="edge6" class="edge"><title>Node6&#45;&gt;Node4</title>
<path fill="none" stroke="#9a32cd" stroke-dasharray="5,2" d="M558.454,-826.817C638.456,-832.911 773.354,-837.445 886,-812.91 896.859,-810.545 908.458,-806.371 918.028,-802.446"/>
<polygon fill="#9a32cd" stroke="#9a32cd" points="558.263,-823.291 548.018,-825.99 557.71,-830.269 558.263,-823.291"/>
<text text-anchor="middle" x="734" y="-834.91" font-family="Arial" font-size="10.00"> eventCallbacks</text>
</g>
<!-- Node7 -->
<g id="node7" class="node"><title>Node7</title>
<g id="a_node7"><a xlink:href="classid_event_def.html" target="_top" xlink:title="idEventDef">
<polygon fill="white" stroke="black" points="234,-810.41 234,-829.41 296,-829.41 296,-810.41 234,-810.41"/>
<text text-anchor="middle" x="265" y="-817.41" font-family="Arial" font-size="10.00">idEventDef</text>
</a>
</g>
</g>
<!-- Node7&#45;&gt;Node6 -->
<g id="edge7" class="edge"><title>Node7&#45;&gt;Node6</title>
<path fill="none" stroke="#9a32cd" stroke-dasharray="5,2" d="M306.282,-819.91C340.209,-819.91 389.214,-819.91 427.636,-819.91"/>
<polygon fill="#9a32cd" stroke="#9a32cd" points="306.266,-816.41 296.266,-819.91 306.266,-823.41 306.266,-816.41"/>
<text text-anchor="middle" x="374" y="-822.91" font-family="Arial" font-size="10.00"> event</text>
</g>
<!-- Node8 -->
<g id="node8" class="node"><title>Node8</title>
<g id="a_node8"><a xlink:href="classid_str.html" target="_top" xlink:title="idStr">
<polygon fill="white" stroke="black" points="715.5,-493.41 715.5,-512.41 752.5,-512.41 752.5,-493.41 715.5,-493.41"/>
<text text-anchor="middle" x="734" y="-500.41" font-family="Arial" font-size="10.00">idStr</text>
</a>
</g>
</g>
<!-- Node8&#45;&gt;Node2 -->
<g id="edge12" class="edge"><title>Node8&#45;&gt;Node2</title>
<path fill="none" stroke="#9a32cd" stroke-dasharray="5,2" d="M763.091,-506.125C793.558,-509.859 843.531,-516.703 886,-525.91 895.533,-527.977 905.883,-530.778 914.886,-533.4"/>
<polygon fill="#9a32cd" stroke="#9a32cd" points="763.144,-502.607 752.798,-504.892 762.311,-509.557 763.144,-502.607"/>
<text text-anchor="middle" x="851" y="-528.91" font-family="Arial" font-size="10.00"> name</text>
</g>
<!-- Node9 -->
<g id="node9" class="node"><title>Node9</title>
<g id="a_node9"><a xlink:href="structid_entity_1_1entity_flags__s.html" target="_top" xlink:title="idEntity::entityFlags_s">
<polygon fill="white" stroke="black" points="677,-455.41 677,-474.41 791,-474.41 791,-455.41 677,-455.41"/>
<text text-anchor="middle" x="734" y="-462.41" font-family="Arial" font-size="10.00">idEntity::entityFlags_s</text>
</a>
</g>
</g>
<!-- Node9&#45;&gt;Node2 -->
<g id="edge13" class="edge"><title>Node9&#45;&gt;Node2</title>
<path fill="none" stroke="#9a32cd" stroke-dasharray="5,2" d="M801.281,-469.942C829.125,-474.47 860.82,-482.979 886,-498.91 896.969,-505.85 894.089,-513.528 904,-521.91 908.223,-525.482 913.225,-528.677 918.106,-531.382"/>
<polygon fill="#9a32cd" stroke="#9a32cd" points="801.622,-466.455 791.217,-468.448 800.594,-473.379 801.622,-466.455"/>
<text text-anchor="middle" x="851" y="-501.91" font-family="Arial" font-size="10.00"> fl</text>
</g>
<!-- Node10 -->
<g id="node10" class="node"><title>Node10</title>
<g id="a_node10"><a xlink:href="structrender_view__s.html" target="_top" xlink:title="renderView_s">
<polygon fill="white" stroke="black" points="450.5,-138.41 450.5,-157.41 525.5,-157.41 525.5,-138.41 450.5,-138.41"/>
<text text-anchor="middle" x="488" y="-145.41" font-family="Arial" font-size="10.00">renderView_s</text>
</a>
</g>
</g>
<!-- Node10&#45;&gt;Node2 -->
<g id="edge14" class="edge"><title>Node10&#45;&gt;Node2</title>
<path fill="none" stroke="#9a32cd" stroke-dasharray="5,2" d="M536.066,-144.871C600.632,-143.041 717.784,-148.324 798,-201.91 847.507,-234.982 862.85,-248.058 886,-302.91 904.987,-347.898 877.332,-481.004 904,-521.91 906.719,-526.08 910.677,-529.408 914.962,-532.036"/>
<polygon fill="#9a32cd" stroke="#9a32cd" points="535.657,-141.383 525.787,-145.236 535.905,-148.379 535.657,-141.383"/>
<text text-anchor="middle" x="734" y="-204.91" font-family="Arial" font-size="10.00"> renderView</text>
</g>
<!-- Node18 -->
<g id="node18" class="node"><title>Node18</title>
<g id="a_node18"><a xlink:href="structrender_entity__s.html" target="_top" xlink:title="renderEntity_s">
<polygon fill="white" stroke="black" points="694,-222.41 694,-241.41 774,-241.41 774,-222.41 694,-222.41"/>
<text text-anchor="middle" x="734" y="-229.41" font-family="Arial" font-size="10.00">renderEntity_s</text>
</a>
</g>
</g>
<!-- Node10&#45;&gt;Node18 -->
<g id="edge27" class="edge"><title>Node10&#45;&gt;Node18</title>
<path fill="none" stroke="#9a32cd" stroke-dasharray="5,2" d="M535.704,-151.898C569.058,-155.906 614.479,-163.764 652,-178.91 678.959,-189.793 706.473,-210.171 721.479,-222.241"/>
<polygon fill="#9a32cd" stroke="#9a32cd" points="536.092,-148.42 525.762,-150.774 535.305,-155.375 536.092,-148.42"/>
<text text-anchor="middle" x="609" y="-181.91" font-family="Arial" font-size="10.00"> remoteRenderView</text>
</g>
<!-- Node11 -->
<g id="node11" class="node"><title>Node11</title>
<g id="a_node11"><a xlink:href="classid_mat3.html" target="_top" xlink:title="idMat3">
<polygon fill="white" stroke="black" points="242,-196.41 242,-215.41 288,-215.41 288,-196.41 242,-196.41"/>
<text text-anchor="middle" x="265" y="-203.41" font-family="Arial" font-size="10.00">idMat3</text>
</a>
</g>
</g>
<!-- Node11&#45;&gt;Node10 -->
<g id="edge15" class="edge"><title>Node11&#45;&gt;Node10</title>
<path fill="none" stroke="#9a32cd" stroke-dasharray="5,2" d="M298.31,-197.43C338.886,-186.782 408.305,-168.563 450.68,-157.442"/>
<polygon fill="#9a32cd" stroke="#9a32cd" points="297.191,-194.106 288.407,-200.03 298.968,-200.876 297.191,-194.106"/>
<text text-anchor="middle" x="374" y="-188.91" font-family="Arial" font-size="10.00"> viewaxis</text>
</g>
<!-- Node11&#45;&gt;Node18 -->
<g id="edge23" class="edge"><title>Node11&#45;&gt;Node18</title>
<path fill="none" stroke="#9a32cd" stroke-dasharray="5,2" d="M298.348,-207.711C381.683,-212.351 603.494,-224.7 693.861,-229.731"/>
<polygon fill="#9a32cd" stroke="#9a32cd" points="298.389,-204.208 288.21,-207.147 298,-211.197 298.389,-204.208"/>
<text text-anchor="middle" x="488" y="-224.91" font-family="Arial" font-size="10.00"> axis</text>
</g>
<!-- Node12 -->
<g id="node12" class="node"><title>Node12</title>
<g id="a_node12"><a xlink:href="classid_vec3.html" target="_top" xlink:title="idVec3">
<polygon fill="white" stroke="black" points="241.5,-358.41 241.5,-377.41 288.5,-377.41 288.5,-358.41 241.5,-358.41"/>
<text text-anchor="middle" x="265" y="-365.41" font-family="Arial" font-size="10.00">idVec3</text>
</a>
</g>
</g>
<!-- Node12&#45;&gt;Node10 -->
<g id="edge16" class="edge"><title>Node12&#45;&gt;Node10</title>
<path fill="none" stroke="#9a32cd" stroke-dasharray="5,2" d="M298.143,-356.557C310.571,-352.218 324.925,-347.268 338,-342.91 369.87,-332.289 388.634,-345.832 410,-319.91 453.549,-267.075 384.513,-219.796 428,-166.91 433.673,-160.011 441.869,-155.589 450.356,-152.762"/>
<polygon fill="#9a32cd" stroke="#9a32cd" points="296.93,-353.273 288.65,-359.883 299.245,-359.879 296.93,-353.273"/>
<text text-anchor="middle" x="374" y="-345.91" font-family="Arial" font-size="10.00"> vieworg</text>
</g>
<!-- Node12&#45;&gt;Node18 -->
<g id="edge31" class="edge"><title>Node12&#45;&gt;Node18</title>
<path fill="none" stroke="#9a32cd" stroke-dasharray="5,2" d="M298.832,-367.742C380.595,-366.83 591.11,-361.309 652,-328.91 690.35,-308.504 717.832,-261.638 728.316,-241.449"/>
<polygon fill="#9a32cd" stroke="#9a32cd" points="298.589,-364.244 288.623,-367.839 298.655,-371.244 298.589,-364.244"/>
<text text-anchor="middle" x="488" y="-366.91" font-family="Arial" font-size="10.00"> origin</text>
</g>
<!-- Node26 -->
<g id="node26" class="node"><title>Node26</title>
<g id="a_node26"><a xlink:href="structref_sound__t.html" target="_top" xlink:title="refSound_t">
<polygon fill="white" stroke="black" points="456.5,-431.41 456.5,-450.41 519.5,-450.41 519.5,-431.41 456.5,-431.41"/>
<text text-anchor="middle" x="488" y="-438.41" font-family="Arial" font-size="10.00">refSound_t</text>
</a>
</g>
</g>
<!-- Node12&#45;&gt;Node26 -->
<g id="edge41" class="edge"><title>Node12&#45;&gt;Node26</title>
<path fill="none" stroke="#9a32cd" stroke-dasharray="5,2" d="M298.416,-378.824C331.097,-389.801 383.004,-407.166 428,-421.91 437.51,-425.026 447.897,-428.386 457.269,-431.401"/>
<polygon fill="#9a32cd" stroke="#9a32cd" points="299.108,-375.364 288.514,-375.495 296.878,-381.999 299.108,-375.364"/>
<text text-anchor="middle" x="374" y="-417.91" font-family="Arial" font-size="10.00"> origin</text>
</g>
<!-- Node13 -->
<g id="node13" class="node"><title>Node13</title>
<g id="a_node13"><a xlink:href="classid_material.html" target="_top" xlink:title="idMaterial">
<polygon fill="white" stroke="black" points="235.5,-81.4101 235.5,-100.41 294.5,-100.41 294.5,-81.4101 235.5,-81.4101"/>
<text text-anchor="middle" x="265" y="-88.4101" font-family="Arial" font-size="10.00">idMaterial</text>
</a>
</g>
</g>
<!-- Node13&#45;&gt;Node10 -->
<g id="edge17" class="edge"><title>Node13&#45;&gt;Node10</title>
<path fill="none" stroke="#9a32cd" stroke-dasharray="5,2" d="M304.801,-100.918C345.861,-111.508 410.165,-128.093 450.379,-138.465"/>
<polygon fill="#9a32cd" stroke="#9a32cd" points="305.449,-97.4703 294.892,-98.3619 303.701,-104.248 305.449,-97.4703"/>
<text text-anchor="middle" x="374" y="-130.91" font-family="Arial" font-size="10.00"> globalMaterial</text>
</g>
<!-- Node13&#45;&gt;Node18 -->
<g id="edge33" class="edge"><title>Node13&#45;&gt;Node18</title>
<path fill="none" stroke="#9a32cd" stroke-dasharray="5,2" d="M304.683,-81.2913C359.388,-69.1764 462.251,-51.8821 548,-68.9101 597.059,-78.6522 616.406,-76.7702 652,-111.91 666.452,-126.178 659.521,-136.514 670,-153.91 685.987,-180.451 710.2,-207.794 723.471,-221.991"/>
<polygon fill="#9a32cd" stroke="#9a32cd" points="303.697,-77.9261 294.723,-83.5586 305.251,-84.7515 303.697,-77.9261"/>
<text text-anchor="middle" x="488" y="-82.9101" font-family="Arial" font-size="10.00"> customShader</text>
<text text-anchor="middle" x="488" y="-71.9101" font-family="Arial" font-size="10.00">referenceShader</text>
</g>
<!-- Node14 -->
<g id="node14" class="node"><title>Node14</title>
<g id="a_node14"><a xlink:href="classid_decl.html" target="_top" xlink:title="idDecl">
<polygon fill="white" stroke="black" points="128,-81.4101 128,-100.41 172,-100.41 172,-81.4101 128,-81.4101"/>
<text text-anchor="middle" x="150" y="-88.4101" font-family="Arial" font-size="10.00">idDecl</text>
</a>
</g>
</g>
<!-- Node14&#45;&gt;Node13 -->
<g id="edge18" class="edge"><title>Node14&#45;&gt;Node13</title>
<path fill="none" stroke="midnightblue" d="M182.507,-90.9101C199.008,-90.9101 219.073,-90.9101 235.163,-90.9101"/>
<polygon fill="midnightblue" stroke="midnightblue" points="182.254,-87.4102 172.254,-90.9101 182.254,-94.4102 182.254,-87.4102"/>
</g>
<!-- Node19 -->
<g id="node19" class="node"><title>Node19</title>
<g id="a_node19"><a xlink:href="classid_decl_skin.html" target="_top" xlink:title="idDeclSkin">
<polygon fill="white" stroke="black" points="342.5,-14.4101 342.5,-33.4101 405.5,-33.4101 405.5,-14.4101 342.5,-14.4101"/>
<text text-anchor="middle" x="374" y="-21.4101" font-family="Arial" font-size="10.00">idDeclSkin</text>
</a>
</g>
</g>
<!-- Node14&#45;&gt;Node19 -->
<g id="edge25" class="edge"><title>Node14&#45;&gt;Node19</title>
<path fill="none" stroke="midnightblue" d="M181.99,-80.7685C191.008,-77.8614 200.884,-74.7195 210,-71.9101 255.952,-57.7475 309.469,-42.1604 342.288,-32.7044"/>
<polygon fill="midnightblue" stroke="midnightblue" points="180.695,-77.5091 172.26,-83.9209 182.852,-84.1683 180.695,-77.5091"/>
</g>
<!-- Node28 -->
<g id="node28" class="node"><title>Node28</title>
<g id="a_node28"><a xlink:href="classid_sound_shader.html" target="_top" xlink:title="idSoundShader">
<polygon fill="white" stroke="black" points="223.5,-462.41 223.5,-481.41 306.5,-481.41 306.5,-462.41 223.5,-462.41"/>
<text text-anchor="middle" x="265" y="-469.41" font-family="Arial" font-size="10.00">idSoundShader</text>
</a>
</g>
</g>
<!-- Node14&#45;&gt;Node28 -->
<g id="edge39" class="edge"><title>Node14&#45;&gt;Node28</title>
<path fill="none" stroke="midnightblue" d="M151.638,-110.796C154.201,-178.711 165.853,-400.179 210,-452.91 213.636,-457.254 218.331,-460.605 223.431,-463.19"/>
<polygon fill="midnightblue" stroke="midnightblue" points="155.129,-110.484 151.28,-100.613 148.133,-110.73 155.129,-110.484"/>
</g>
<!-- Node15 -->
<g id="node15" class="node"><title>Node15</title>
<g id="a_node15"><a xlink:href="classid_decl_base.html" target="_top" xlink:title="idDeclBase">
<polygon fill="white" stroke="black" points="0,-81.4101 0,-100.41 66,-100.41 66,-81.4101 0,-81.4101"/>
<text text-anchor="middle" x="33" y="-88.4101" font-family="Arial" font-size="10.00">idDeclBase</text>
</a>
</g>
</g>
<!-- Node15&#45;&gt;Node14 -->
<g id="edge19" class="edge"><title>Node15&#45;&gt;Node14</title>
<path fill="none" stroke="#9a32cd" stroke-dasharray="5,2" d="M76.0643,-90.9101C93.5984,-90.9101 113.201,-90.9101 127.664,-90.9101"/>
<polygon fill="#9a32cd" stroke="#9a32cd" points="76.0339,-87.4102 66.0339,-90.9101 76.0339,-94.4102 76.0339,-87.4102"/>
<text text-anchor="middle" x="97" y="-93.9101" font-family="Arial" font-size="10.00"> base</text>
</g>
<!-- Node16 -->
<g id="node16" class="node"><title>Node16</title>
<g id="a_node16"><a xlink:href="classid_list.html" target="_top" xlink:title="idList\&lt; idEntityPtr\l\&lt; idEntity \&gt; \&gt;">
<polygon fill="white" stroke="black" points="686.5,-649.91 686.5,-679.91 781.5,-679.91 781.5,-649.91 686.5,-649.91"/>
<text text-anchor="start" x="694.5" y="-667.91" font-family="Arial" font-size="10.00">idList&lt; idEntityPtr</text>
<text text-anchor="middle" x="734" y="-656.91" font-family="Arial" font-size="10.00">&lt; idEntity &gt; &gt;</text>
</a>
</g>
</g>
<!-- Node16&#45;&gt;Node2 -->
<g id="edge20" class="edge"><title>Node16&#45;&gt;Node2</title>
<path fill="none" stroke="#9a32cd" stroke-dasharray="5,2" d="M791.705,-667.654C822.177,-666.41 858.934,-660.255 886,-640.91 917.652,-618.288 932.047,-570.839 936.945,-550.5"/>
<polygon fill="#9a32cd" stroke="#9a32cd" points="791.547,-664.157 781.636,-667.9 791.718,-671.155 791.547,-664.157"/>
<text text-anchor="middle" x="851" y="-668.91" font-family="Arial" font-size="10.00"> targets</text>
</g>
<!-- Node17 -->
<g id="node17" class="node"><title>Node17</title>
<g id="a_node17"><a xlink:href="classid_link_list.html" target="_top" xlink:title="idLinkList\&lt; idEntity \&gt;">
<polygon fill="white" stroke="black" points="679.5,-607.41 679.5,-626.41 788.5,-626.41 788.5,-607.41 679.5,-607.41"/>
<text text-anchor="middle" x="734" y="-614.41" font-family="Arial" font-size="10.00">idLinkList&lt; idEntity &gt;</text>
</a>
</g>
</g>
<!-- Node17&#45;&gt;Node2 -->
<g id="edge21" class="edge"><title>Node17&#45;&gt;Node2</title>
<path fill="none" stroke="#9a32cd" stroke-dasharray="5,2" d="M798.501,-607.796C826.253,-602.306 858.641,-593.799 886,-580.91 902.477,-573.147 918.804,-559.73 928.89,-550.595"/>
<polygon fill="#9a32cd" stroke="#9a32cd" points="797.681,-604.389 788.505,-609.684 798.981,-611.267 797.681,-604.389"/>
<text text-anchor="middle" x="851" y="-628.91" font-family="Arial" font-size="10.00"> spawnNode</text>
<text text-anchor="middle" x="851" y="-617.91" font-family="Arial" font-size="10.00">snapshotNode</text>
<text text-anchor="middle" x="851" y="-606.91" font-family="Arial" font-size="10.00">activeNode</text>
</g>
<!-- Node18&#45;&gt;Node2 -->
<g id="edge22" class="edge"><title>Node18&#45;&gt;Node2</title>
<path fill="none" stroke="#9a32cd" stroke-dasharray="5,2" d="M756.037,-248.298C789.7,-275.823 855.027,-334.852 886,-400.91 909.081,-450.137 872.828,-477.364 904,-521.91 906.775,-525.875 910.649,-529.093 914.814,-531.675"/>
<polygon fill="#9a32cd" stroke="#9a32cd" points="757.805,-245.228 747.818,-241.691 753.419,-250.684 757.805,-245.228"/>
<text text-anchor="middle" x="851" y="-403.91" font-family="Arial" font-size="10.00"> renderEntity</text>
</g>
<!-- Node18&#45;&gt;Node18 -->
<g id="edge32" class="edge"><title>Node18&#45;&gt;Node18</title>
<path fill="none" stroke="#9a32cd" stroke-dasharray="5,2" d="M712.52,-251.31C713.954,-256.225 721.114,-259.91 734,-259.91 754.617,-259.91 760.577,-250.475 751.879,-241.667"/>
<polygon fill="#9a32cd" stroke="#9a32cd" points="715.901,-252.26 716.121,-241.667 709.343,-249.811 715.901,-252.26"/>
<text text-anchor="middle" x="734" y="-262.91" font-family="Arial" font-size="10.00"> callback</text>
</g>
<!-- Node19&#45;&gt;Node18 -->
<g id="edge24" class="edge"><title>Node19&#45;&gt;Node18</title>
<path fill="none" stroke="#9a32cd" stroke-dasharray="5,2" d="M415.641,-12.6726C476.417,1.38425 590.41,16.6453 652,-45.9101 686.141,-80.5859 650.056,-109.523 670,-153.91 682.556,-181.855 707.625,-208.243 722.067,-222.006"/>
<polygon fill="#9a32cd" stroke="#9a32cd" points="414.548,-9.33598 405.648,-15.0848 416.19,-16.1405 414.548,-9.33598"/>
<text text-anchor="middle" x="488" y="-12.9101" font-family="Arial" font-size="10.00"> customSkin</text>
</g>
<!-- Node20 -->
<g id="node20" class="node"><title>Node20</title>
<g id="a_node20"><a xlink:href="classid_joint_mat.html" target="_top" xlink:title="idJointMat">
<polygon fill="white" stroke="black" points="457.5,-393.41 457.5,-412.41 518.5,-412.41 518.5,-393.41 457.5,-393.41"/>
<text text-anchor="middle" x="488" y="-400.41" font-family="Arial" font-size="10.00">idJointMat</text>
</a>
</g>
</g>
<!-- Node20&#45;&gt;Node18 -->
<g id="edge26" class="edge"><title>Node20&#45;&gt;Node18</title>
<path fill="none" stroke="#9a32cd" stroke-dasharray="5,2" d="M528.787,-400.796C570.494,-397.892 632.615,-391.408 652,-377.91 701.48,-343.458 724.028,-268.608 730.743,-241.75"/>
<polygon fill="#9a32cd" stroke="#9a32cd" points="528.411,-397.313 518.661,-401.459 528.869,-404.298 528.411,-397.313"/>
<text text-anchor="middle" x="609" y="-400.91" font-family="Arial" font-size="10.00"> joints</text>
</g>
<!-- Node21 -->
<g id="node21" class="node"><title>Node21</title>
<g id="a_node21"><a xlink:href="classid_sound_emitter.html" target="_top" xlink:title="idSoundEmitter">
<polygon fill="white" stroke="black" points="223.5,-281.41 223.5,-300.41 306.5,-300.41 306.5,-281.41 223.5,-281.41"/>
<text text-anchor="middle" x="265" y="-288.41" font-family="Arial" font-size="10.00">idSoundEmitter</text>
</a>
</g>
</g>
<!-- Node21&#45;&gt;Node18 -->
<g id="edge28" class="edge"><title>Node21&#45;&gt;Node18</title>
<path fill="none" stroke="#9a32cd" stroke-dasharray="5,2" d="M316.726,-284.501C410.569,-272.646 609.388,-247.527 693.789,-236.864"/>
<polygon fill="#9a32cd" stroke="#9a32cd" points="316.109,-281.052 306.626,-285.777 316.986,-287.996 316.109,-281.052"/>
<text text-anchor="middle" x="488" y="-273.91" font-family="Arial" font-size="10.00"> referenceSound</text>
</g>
<!-- Node21&#45;&gt;Node26 -->
<g id="edge40" class="edge"><title>Node21&#45;&gt;Node26</title>
<path fill="none" stroke="#9a32cd" stroke-dasharray="5,2" d="M316.888,-290.984C352.868,-292.167 396.936,-296.278 410,-308.91 446.559,-344.261 394.904,-383.297 428,-421.91 435.143,-430.244 445.96,-434.953 456.39,-437.603"/>
<polygon fill="#9a32cd" stroke="#9a32cd" points="316.594,-287.476 306.506,-290.714 316.412,-294.473 316.594,-287.476"/>
<text text-anchor="middle" x="374" y="-311.91" font-family="Arial" font-size="10.00"> referenceSound</text>
</g>
<!-- Node22 -->
<g id="node22" class="node"><title>Node22</title>
<g id="a_node22"><a xlink:href="classid_render_model.html" target="_top" xlink:title="idRenderModel">
<polygon fill="white" stroke="black" points="447.5,-308.41 447.5,-327.41 528.5,-327.41 528.5,-308.41 447.5,-308.41"/>
<text text-anchor="middle" x="488" y="-315.41" font-family="Arial" font-size="10.00">idRenderModel</text>
</a>
</g>
</g>
<!-- Node22&#45;&gt;Node18 -->
<g id="edge29" class="edge"><title>Node22&#45;&gt;Node18</title>
<path fill="none" stroke="#9a32cd" stroke-dasharray="5,2" d="M539.032,-316.561C572.196,-314.164 616.053,-308.059 652,-292.91 681.201,-280.605 709.383,-255.446 723.543,-241.593"/>
<polygon fill="#9a32cd" stroke="#9a32cd" points="538.424,-313.092 528.664,-317.216 538.865,-320.078 538.424,-313.092"/>
<text text-anchor="middle" x="609" y="-316.91" font-family="Arial" font-size="10.00"> hModel</text>
</g>
<!-- Node23 -->
<g id="node23" class="node"><title>Node23</title>
<g id="a_node23"><a xlink:href="classid_bounds.html" target="_top" xlink:title="idBounds">
<polygon fill="white" stroke="black" points="459.5,-176.41 459.5,-195.41 516.5,-195.41 516.5,-176.41 459.5,-176.41"/>
<text text-anchor="middle" x="488" y="-183.41" font-family="Arial" font-size="10.00">idBounds</text>
</a>
</g>
</g>
<!-- Node23&#45;&gt;Node18 -->
<g id="edge30" class="edge"><title>Node23&#45;&gt;Node18</title>
<path fill="none" stroke="#9a32cd" stroke-dasharray="5,2" d="M526.833,-188.934C560.071,-192.029 609.605,-197.708 652,-206.91 670.409,-210.906 690.659,-217.156 706.307,-222.407"/>
<polygon fill="#9a32cd" stroke="#9a32cd" points="526.917,-185.427 516.644,-188.019 526.29,-192.399 526.917,-185.427"/>
<text text-anchor="middle" x="609" y="-209.91" font-family="Arial" font-size="10.00"> bounds</text>
</g>
<!-- Node24 -->
<g id="node24" class="node"><title>Node24</title>
<g id="a_node24"><a xlink:href="classid_user_interface.html" target="_top" xlink:title="idUserInterface">
<polygon fill="white" stroke="black" points="447.5,-100.41 447.5,-119.41 528.5,-119.41 528.5,-100.41 447.5,-100.41"/>
<text text-anchor="middle" x="488" y="-107.41" font-family="Arial" font-size="10.00">idUserInterface</text>
</a>
</g>
</g>
<!-- Node24&#45;&gt;Node18 -->
<g id="edge34" class="edge"><title>Node24&#45;&gt;Node18</title>
<path fill="none" stroke="#9a32cd" stroke-dasharray="5,2" d="M538.755,-111.512C572.59,-114.489 617.332,-122.248 652,-141.91 687.473,-162.029 715.699,-203.34 727.29,-222.17"/>
<polygon fill="#9a32cd" stroke="#9a32cd" points="538.866,-108.01 528.627,-110.733 538.33,-114.989 538.866,-108.01"/>
<text text-anchor="middle" x="609" y="-144.91" font-family="Arial" font-size="10.00"> gui</text>
</g>
<!-- Node25 -->
<g id="node25" class="node"><title>Node25</title>
<g id="a_node25"><a xlink:href="classid_dict.html" target="_top" xlink:title="idDict">
<polygon fill="white" stroke="black" points="713.5,-569.41 713.5,-588.41 754.5,-588.41 754.5,-569.41 713.5,-569.41"/>
<text text-anchor="middle" x="734" y="-576.41" font-family="Arial" font-size="10.00">idDict</text>
</a>
</g>
</g>
<!-- Node25&#45;&gt;Node2 -->
<g id="edge35" class="edge"><title>Node25&#45;&gt;Node2</title>
<path fill="none" stroke="#9a32cd" stroke-dasharray="5,2" d="M764.588,-574.283C795.093,-569.404 843.993,-561.276 886,-552.91 895.438,-551.031 905.769,-548.744 914.783,-546.673"/>
<polygon fill="#9a32cd" stroke="#9a32cd" points="763.934,-570.843 754.607,-575.869 765.032,-577.757 763.934,-570.843"/>
<text text-anchor="middle" x="851" y="-568.91" font-family="Arial" font-size="10.00"> spawnArgs</text>
</g>
<!-- Node26&#45;&gt;Node2 -->
<g id="edge36" class="edge"><title>Node26&#45;&gt;Node2</title>
<path fill="none" stroke="#9a32cd" stroke-dasharray="5,2" d="M529.739,-434.796C589.282,-427.054 703.297,-416.768 798,-434.91 839.339,-442.829 856.919,-439.481 886,-469.91 902.897,-487.591 888.182,-503.258 904,-521.91 907.13,-525.601 911.166,-528.694 915.377,-531.241"/>
<polygon fill="#9a32cd" stroke="#9a32cd" points="529.063,-431.355 519.618,-436.156 529.995,-438.293 529.063,-431.355"/>
<text text-anchor="middle" x="734" y="-437.91" font-family="Arial" font-size="10.00"> refSound</text>
</g>
<!-- Node27 -->
<g id="node27" class="node"><title>Node27</title>
<g id="a_node27"><a xlink:href="structsound_shader_parms__t.html" target="_top" xlink:title="soundShaderParms_t">
<polygon fill="white" stroke="black" points="210,-424.41 210,-443.41 320,-443.41 320,-424.41 210,-424.41"/>
<text text-anchor="middle" x="265" y="-431.41" font-family="Arial" font-size="10.00">soundShaderParms_t</text>
</a>
</g>
</g>
<!-- Node27&#45;&gt;Node26 -->
<g id="edge37" class="edge"><title>Node27&#45;&gt;Node26</title>
<path fill="none" stroke="#9a32cd" stroke-dasharray="5,2" d="M330.097,-435.537C355.04,-436.211 383.857,-437.038 410,-437.91 425.243,-438.419 442.179,-439.069 456.278,-439.634"/>
<polygon fill="#9a32cd" stroke="#9a32cd" points="330.115,-432.037 320.025,-435.268 329.928,-439.034 330.115,-432.037"/>
<text text-anchor="middle" x="374" y="-440.91" font-family="Arial" font-size="10.00"> parms</text>
</g>
<!-- Node28&#45;&gt;Node26 -->
<g id="edge38" class="edge"><title>Node28&#45;&gt;Node26</title>
<path fill="none" stroke="#9a32cd" stroke-dasharray="5,2" d="M316.542,-464.82C359.641,-458.775 420.193,-450.281 456.325,-445.213"/>
<polygon fill="#9a32cd" stroke="#9a32cd" points="315.952,-461.369 306.535,-466.224 316.924,-468.301 315.952,-461.369"/>
<text text-anchor="middle" x="374" y="-464.91" font-family="Arial" font-size="10.00"> shader</text>
</g>
<!-- Node29 -->
<g id="node29" class="node"><title>Node29</title>
<g id="a_node29"><a xlink:href="classid_script_object.html" target="_top" xlink:title="idScriptObject">
<polygon fill="white" stroke="black" points="695,-531.41 695,-550.41 773,-550.41 773,-531.41 695,-531.41"/>
<text text-anchor="middle" x="734" y="-538.41" font-family="Arial" font-size="10.00">idScriptObject</text>
</a>
</g>
</g>
<!-- Node29&#45;&gt;Node2 -->
<g id="edge42" class="edge"><title>Node29&#45;&gt;Node2</title>
<path fill="none" stroke="#9a32cd" stroke-dasharray="5,2" d="M783.513,-540.91C824.895,-540.91 882.655,-540.91 914.86,-540.91"/>
<polygon fill="#9a32cd" stroke="#9a32cd" points="783.371,-537.41 773.371,-540.91 783.371,-544.41 783.371,-537.41"/>
<text text-anchor="middle" x="851" y="-543.91" font-family="Arial" font-size="10.00"> scriptObject</text>
</g>
<!-- Node30 -->
<g id="node30" class="node"><title>Node30</title>
<g id="a_node30"><a xlink:href="classid_vec2.html" target="_top" xlink:title="idVec2">
<polygon fill="white" stroke="black" points="916.5,-493.41 916.5,-512.41 963.5,-512.41 963.5,-493.41 916.5,-493.41"/>
<text text-anchor="middle" x="940" y="-500.41" font-family="Arial" font-size="10.00">idVec2</text>
</a>
</g>
</g>
<!-- Node30&#45;&gt;Node1 -->
<g id="edge43" class="edge"><title>Node30&#45;&gt;Node1</title>
<path fill="none" stroke="#9a32cd" stroke-dasharray="5,2" d="M973.859,-502.91C996.303,-502.91 1025.85,-502.91 1047.91,-502.91"/>
<polygon fill="#9a32cd" stroke="#9a32cd" points="973.788,-499.41 963.788,-502.91 973.788,-506.41 973.788,-499.41"/>
<text text-anchor="middle" x="1012" y="-505.91" font-family="Arial" font-size="10.00"> bounds</text>
</g>
<!-- Node31 -->
<g id="node31" class="node"><title>Node31</title>
<g id="a_node31"><a xlink:href="classid_winding2_d.html" target="_top" xlink:title="idWinding2D">
<polygon fill="white" stroke="black" points="904.5,-455.41 904.5,-474.41 975.5,-474.41 975.5,-455.41 904.5,-455.41"/>
<text text-anchor="middle" x="940" y="-462.41" font-family="Arial" font-size="10.00">idWinding2D</text>
</a>
</g>
</g>
<!-- Node31&#45;&gt;Node1 -->
<g id="edge44" class="edge"><title>Node31&#45;&gt;Node1</title>
<path fill="none" stroke="#9a32cd" stroke-dasharray="5,2" d="M985.767,-476.068C999.949,-479.712 1015.66,-483.865 1030,-487.91 1035.99,-489.601 1042.37,-491.489 1048.48,-493.339"/>
<polygon fill="#9a32cd" stroke="#9a32cd" points="986.309,-472.594 975.754,-473.513 984.578,-479.376 986.309,-472.594"/>
<text text-anchor="middle" x="1012" y="-490.91" font-family="Arial" font-size="10.00"> winding</text>
</g>
</g>
</svg>
        <g id="navigator" transform="translate(0 0)" fill="#404254">
                <rect fill="#f2f5e9" fill-opacity="0.5" stroke="#606060" stroke-width=".5" x="0" y="0" width="60" height="60"/>
                <use id="zoomplus" xlink:href="#zoomPlus" x="17" y="9" onmousedown="handleZoom(evt,'in')"/>
                <use id="zoomminus" xlink:href="#zoomMin" x="42" y="9" onmousedown="handleZoom(evt,'out')"/>
                <use id="reset" xlink:href="#resetDef" x="30" y="36" onmousedown="handleReset()"/>
                <g id="arrowUp" xlink:href="#dirArrow" transform="translate(30 24)" onmousedown="handlePan(0,-1)">
                  <use xlink:href="#rim" fill="#404040">
                        <set attributeName="fill" to="#808080" begin="arrowUp.mouseover" end="arrowUp.mouseout"/>
                  </use>
                  <path fill="none" stroke="white" stroke-width="1.5" d="M0,-3.0v7 M-2.5,-0.5L0,-3.0L2.5,-0.5"/>
                </g>
                <g id="arrowRight" xlink:href="#dirArrow" transform="rotate(90) translate(36 -43)" onmousedown="handlePan(1,0)">
                  <use xlink:href="#rim" fill="#404040">
                        <set attributeName="fill" to="#808080" begin="arrowRight.mouseover" end="arrowRight.mouseout"/>
                  </use>
                  <path fill="none" stroke="white" stroke-width="1.5" d="M0,-3.0v7 M-2.5,-0.5L0,-3.0L2.5,-0.5"/>
                </g>
                <g id="arrowDown" xlink:href="#dirArrow" transform="rotate(180) translate(-30 -48)" onmousedown="handlePan(0,1)">
                  <use xlink:href="#rim" fill="#404040">
                        <set attributeName="fill" to="#808080" begin="arrowDown.mouseover" end="arrowDown.mouseout"/>
                  </use>
                  <path fill="none" stroke="white" stroke-width="1.5" d="M0,-3.0v7 M-2.5,-0.5L0,-3.0L2.5,-0.5"/>
                </g>
                <g id="arrowLeft" xlink:href="#dirArrow" transform="rotate(270) translate(-36 17)" onmousedown="handlePan(-1,0)">
                  <use xlink:href="#rim" fill="#404040">
                        <set attributeName="fill" to="#808080" begin="arrowLeft.mouseover" end="arrowLeft.mouseout"/>
                  </use>
                  <path fill="none" stroke="white" stroke-width="1.5" d="M0,-3.0v7 M-2.5,-0.5L0,-3.0L2.5,-0.5"/>
                </g>
        </g>
        <svg viewBox="0 0 15 15" width="100%" height="30px" preserveAspectRatio="xMaxYMin meet">
         <g id="arrow_out" transform="scale(0.3 0.3)">
          <a xlink:href="structobstacle__s__coll__graph_org.svg" target="_base">
           <rect id="button" ry="5" rx="5" y="6" x="6" height="38" width="38"
                fill="#f2f5e9" fill-opacity="0.5" stroke="#606060" stroke-width="1.0"/>
           <path id="arrow"
             d="M 11.500037,31.436501 C 11.940474,20.09759 22.043105,11.32322 32.158766,21.979434 L 37.068811,17.246167 C 37.068811,17.246167 37.088388,32 37.088388,32 L 22.160133,31.978069 C 22.160133,31.978069 26.997745,27.140456 26.997745,27.140456 C 18.528582,18.264221 13.291696,25.230495 11.500037,31.436501 z"
             style="fill:#404040;"/>
          </a>
         </g>
        </svg>
</svg>
