<?xml version="1.0" encoding="UTF-8" standalone="no"?>
<!DOCTYPE svg PUBLIC "-//W3C//DTD SVG 1.1//EN"
 "http://www.w3.org/Graphics/SVG/1.1/DTD/svg11.dtd">
<!-- Generated by graphviz version 2.34.0 (20130907.0111)
 -->
<!-- Title: poly Pages: 1 -->
<svg width="165pt" height="106pt"
 viewBox="0.00 0.00 165.00 106.00" xmlns="http://www.w3.org/2000/svg" xmlns:xlink="http://www.w3.org/1999/xlink">
<g id="graph0" class="graph" transform="scale(1 1) rotate(0) translate(4 102)">
<title>poly</title>
<polygon fill="white" stroke="white" points="-4,4 -4,-102 161,-102 161,4 -4,4"/>
<!-- Node1 -->
<g id="node1" class="node"><title>Node1</title>
<polygon fill="#bfbfbf" stroke="black" points="72.5,-0.5 72.5,-19.5 107.5,-19.5 107.5,-0.5 72.5,-0.5"/>
<text text-anchor="middle" x="90" y="-7.5" font-family="Arial" font-size="10.00">poly</text>
</g>
<!-- Node2 -->
<g id="node2" class="node"><title>Node2</title>
<g id="a_node2"><a xlink:href="struct_my_array.html" target="_top" xlink:title="MyArray\&lt; int, 4 \&gt;">
<polygon fill="white" stroke="black" points="-0.5,-78.5 -0.5,-97.5 92.5,-97.5 92.5,-78.5 -0.5,-78.5"/>
<text text-anchor="middle" x="46" y="-85.5" font-family="Arial" font-size="10.00">MyArray&lt; int, 4 &gt;</text>
</a>
</g>
</g>
<!-- Node2&#45;&gt;Node1 -->
<g id="edge1" class="edge"><title>Node2&#45;&gt;Node1</title>
<path fill="none" stroke="#9a32cd" stroke-dasharray="5,2" d="M56.0937,-69.5654C65.135,-53.9486 78.0157,-31.7002 85.0115,-19.6165"/>
<polygon fill="#9a32cd" stroke="#9a32cd" points="53.0288,-67.8739 51.0474,-78.2818 59.0868,-71.3812 53.0288,-67.8739"/>
<text text-anchor="middle" x="79" y="-52" font-family="Arial" font-size="10.00"> vi</text>
<text text-anchor="middle" x="79" y="-41" font-family="Arial" font-size="10.00">ni</text>
</g>
<!-- Node3 -->
<g id="node3" class="node"><title>Node3</title>
<g id="a_node3"><a xlink:href="classid_vec4.html" target="_top" xlink:title="idVec4">
<polygon fill="white" stroke="black" points="110.5,-78.5 110.5,-97.5 157.5,-97.5 157.5,-78.5 110.5,-78.5"/>
<text text-anchor="middle" x="134" y="-85.5" font-family="Arial" font-size="10.00">idVec4</text>
</a>
</g>
</g>
<!-- Node3&#45;&gt;Node1 -->
<g id="edge2" class="edge"><title>Node3&#45;&gt;Node1</title>
<path fill="none" stroke="#9a32cd" stroke-dasharray="5,2" d="M123.906,-69.5654C114.865,-53.9486 101.984,-31.7002 94.9885,-19.6165"/>
<polygon fill="#9a32cd" stroke="#9a32cd" points="120.913,-71.3812 128.953,-78.2818 126.971,-67.8739 120.913,-71.3812"/>
<text text-anchor="middle" x="130.5" y="-46.5" font-family="Arial" font-size="10.00"> plane</text>
</g>
</g>
</svg>
