<?xml version="1.0" encoding="UTF-8" standalone="no"?>
<!DOCTYPE svg PUBLIC "-//W3C//DTD SVG 1.1//EN"
 "http://www.w3.org/Graphics/SVG/1.1/DTD/svg11.dtd">
<!-- Generated by graphviz version 2.34.0 (20130907.0111)
 -->
<!-- Title: markerData_t Pages: 1 -->
<svg width="157pt" height="222pt"
 viewBox="0.00 0.00 157.00 222.00" xmlns="http://www.w3.org/2000/svg" xmlns:xlink="http://www.w3.org/1999/xlink">
<g id="graph0" class="graph" transform="scale(1 1) rotate(0) translate(4 218)">
<title>markerData_t</title>
<polygon fill="white" stroke="white" points="-4,4 -4,-218 153,-218 153,4 -4,4"/>
<!-- Node1 -->
<g id="node1" class="node"><title>Node1</title>
<polygon fill="#bfbfbf" stroke="black" points="27.5,-0.5 27.5,-19.5 102.5,-19.5 102.5,-0.5 27.5,-0.5"/>
<text text-anchor="middle" x="65" y="-7.5" font-family="Arial" font-size="10.00">markerData_t</text>
</g>
<!-- Node2 -->
<g id="node2" class="node"><title>Node2</title>
<g id="a_node2"><a xlink:href="classid_rectangle.html" target="_top" xlink:title="idRectangle">
<polygon fill="white" stroke="black" points="0,-68.5 0,-87.5 68,-87.5 68,-68.5 0,-68.5"/>
<text text-anchor="middle" x="34" y="-75.5" font-family="Arial" font-size="10.00">idRectangle</text>
</a>
</g>
</g>
<!-- Node2&#45;&gt;Node1 -->
<g id="edge1" class="edge"><title>Node2&#45;&gt;Node1</title>
<path fill="none" stroke="#9a32cd" stroke-dasharray="5,2" d="M42.3672,-59.1859C48.3482,-46.4523 56.1412,-29.8607 60.8474,-19.8411"/>
<polygon fill="#9a32cd" stroke="#9a32cd" points="39.1362,-57.8324 38.0527,-68.3717 45.4721,-60.8083 39.1362,-57.8324"/>
<text text-anchor="middle" x="63" y="-41.5" font-family="Arial" font-size="10.00"> rect</text>
</g>
<!-- Node3 -->
<g id="node3" class="node"><title>Node3</title>
<g id="a_node3"><a xlink:href="classid_material.html" target="_top" xlink:title="idMaterial">
<polygon fill="white" stroke="black" points="86.5,-68.5 86.5,-87.5 145.5,-87.5 145.5,-68.5 86.5,-68.5"/>
<text text-anchor="middle" x="116" y="-75.5" font-family="Arial" font-size="10.00">idMaterial</text>
</a>
</g>
</g>
<!-- Node3&#45;&gt;Node1 -->
<g id="edge2" class="edge"><title>Node3&#45;&gt;Node1</title>
<path fill="none" stroke="#9a32cd" stroke-dasharray="5,2" d="M103.103,-60.3101C93.1611,-47.4437 79.8042,-30.1583 71.8318,-19.8411"/>
<polygon fill="#9a32cd" stroke="#9a32cd" points="100.449,-62.5989 109.333,-68.3717 105.988,-58.3187 100.449,-62.5989"/>
<text text-anchor="middle" x="105" y="-41.5" font-family="Arial" font-size="10.00"> mat</text>
</g>
<!-- Node4 -->
<g id="node4" class="node"><title>Node4</title>
<g id="a_node4"><a xlink:href="classid_decl.html" target="_top" xlink:title="idDecl">
<polygon fill="white" stroke="black" points="94,-126.5 94,-145.5 138,-145.5 138,-126.5 94,-126.5"/>
<text text-anchor="middle" x="116" y="-133.5" font-family="Arial" font-size="10.00">idDecl</text>
</a>
</g>
</g>
<!-- Node4&#45;&gt;Node3 -->
<g id="edge3" class="edge"><title>Node4&#45;&gt;Node3</title>
<path fill="none" stroke="midnightblue" d="M116,-115.953C116,-106.287 116,-95.0312 116,-87.5052"/>
<polygon fill="midnightblue" stroke="midnightblue" points="112.5,-116.25 116,-126.25 119.5,-116.25 112.5,-116.25"/>
</g>
<!-- Node5 -->
<g id="node5" class="node"><title>Node5</title>
<g id="a_node5"><a xlink:href="classid_decl_base.html" target="_top" xlink:title="idDeclBase">
<polygon fill="white" stroke="black" points="83,-194.5 83,-213.5 149,-213.5 149,-194.5 83,-194.5"/>
<text text-anchor="middle" x="116" y="-201.5" font-family="Arial" font-size="10.00">idDeclBase</text>
</a>
</g>
</g>
<!-- Node5&#45;&gt;Node4 -->
<g id="edge4" class="edge"><title>Node5&#45;&gt;Node4</title>
<path fill="none" stroke="#9a32cd" stroke-dasharray="5,2" d="M116,-184.041C116,-171.472 116,-155.563 116,-145.841"/>
<polygon fill="#9a32cd" stroke="#9a32cd" points="112.5,-184.372 116,-194.372 119.5,-184.372 112.5,-184.372"/>
<text text-anchor="middle" x="128.5" y="-167.5" font-family="Arial" font-size="10.00"> base</text>
</g>
</g>
</svg>
