<?xml version="1.0" encoding="UTF-8" standalone="no"?>
<!DOCTYPE svg PUBLIC "-//W3C//DTD SVG 1.1//EN"
 "http://www.w3.org/Graphics/SVG/1.1/DTD/svg11.dtd">
<!-- Generated by graphviz version 2.34.0 (20130907.0111)
 -->
<!-- Title: working_state Pages: 1 -->
<svg width="888pt" height="651pt"
 viewBox="0.00 0.00 888.00 651.00" xmlns="http://www.w3.org/2000/svg" xmlns:xlink="http://www.w3.org/1999/xlink">
<g id="graph0" class="graph" transform="scale(1 1) rotate(0) translate(4 647)">
<title>working_state</title>
<polygon fill="white" stroke="white" points="-4,4 -4,-647 884,-647 884,4 -4,4"/>
<!-- Node1 -->
<g id="node1" class="node"><title>Node1</title>
<polygon fill="#bfbfbf" stroke="black" points="802.5,-324.5 802.5,-343.5 879.5,-343.5 879.5,-324.5 802.5,-324.5"/>
<text text-anchor="middle" x="841" y="-331.5" font-family="Arial" font-size="10.00">working_state</text>
</g>
<!-- Node2 -->
<g id="node2" class="node"><title>Node2</title>
<g id="a_node2"><a xlink:href="structsavable__state.html" target="_top" xlink:title="savable_state">
<polygon fill="white" stroke="black" points="647,-342.5 647,-361.5 723,-361.5 723,-342.5 647,-342.5"/>
<text text-anchor="middle" x="685" y="-349.5" font-family="Arial" font-size="10.00">savable_state</text>
</a>
</g>
</g>
<!-- Node2&#45;&gt;Node1 -->
<g id="edge1" class="edge"><title>Node2&#45;&gt;Node1</title>
<path fill="none" stroke="#9a32cd" stroke-dasharray="5,2" d="M733.46,-346.453C755.572,-343.868 781.514,-340.836 802.263,-338.411"/>
<polygon fill="#9a32cd" stroke="#9a32cd" points="732.805,-343.005 723.279,-347.643 733.618,-349.958 732.805,-343.005"/>
<text text-anchor="middle" x="772" y="-346" font-family="Arial" font-size="10.00"> cur</text>
</g>
<!-- Node3 -->
<g id="node3" class="node"><title>Node3</title>
<g id="a_node3"><a xlink:href="structjpeg__compress__struct.html" target="_top" xlink:title="jpeg_compress_struct">
<polygon fill="white" stroke="black" points="628.5,-304.5 628.5,-323.5 741.5,-323.5 741.5,-304.5 628.5,-304.5"/>
<text text-anchor="middle" x="685" y="-311.5" font-family="Arial" font-size="10.00">jpeg_compress_struct</text>
</a>
</g>
</g>
<!-- Node3&#45;&gt;Node1 -->
<g id="edge2" class="edge"><title>Node3&#45;&gt;Node1</title>
<path fill="none" stroke="#9a32cd" stroke-dasharray="5,2" d="M751.915,-321.887C762.644,-323.224 773.634,-324.625 784,-326 789.939,-326.788 796.227,-327.654 802.361,-328.517"/>
<polygon fill="#9a32cd" stroke="#9a32cd" points="752.092,-318.383 741.737,-320.628 751.232,-325.33 752.092,-318.383"/>
<text text-anchor="middle" x="772" y="-329" font-family="Arial" font-size="10.00"> cinfo</text>
</g>
<!-- Node4 -->
<g id="node4" class="node"><title>Node4</title>
<g id="a_node4"><a xlink:href="structjpeg__c__prep__controller.html" target="_top" xlink:title="jpeg_c_prep_controller">
<polygon fill="white" stroke="black" points="405,-617.5 405,-636.5 519,-636.5 519,-617.5 405,-617.5"/>
<text text-anchor="middle" x="462" y="-624.5" font-family="Arial" font-size="10.00">jpeg_c_prep_controller</text>
</a>
</g>
</g>
<!-- Node4&#45;&gt;Node3 -->
<g id="edge3" class="edge"><title>Node4&#45;&gt;Node3</title>
<path fill="none" stroke="#9a32cd" stroke-dasharray="5,2" d="M529.202,-632.722C558.137,-631.432 589.977,-624.169 610,-602 650.157,-557.539 591.492,-380.503 628,-333 631.003,-329.093 634.848,-325.983 639.115,-323.508"/>
<polygon fill="#9a32cd" stroke="#9a32cd" points="529.033,-629.225 519.112,-632.944 529.187,-636.223 529.033,-629.225"/>
<text text-anchor="middle" x="574" y="-635" font-family="Arial" font-size="10.00"> prep</text>
</g>
<!-- Node5 -->
<g id="node5" class="node"><title>Node5</title>
<g id="a_node5"><a xlink:href="struct_j_q_u_a_n_t___t_b_l.html" target="_top" xlink:title="JQUANT_TBL">
<polygon fill="white" stroke="black" points="194.5,-567.5 194.5,-586.5 271.5,-586.5 271.5,-567.5 194.5,-567.5"/>
<text text-anchor="middle" x="233" y="-574.5" font-family="Arial" font-size="10.00">JQUANT_TBL</text>
</a>
</g>
</g>
<!-- Node5&#45;&gt;Node3 -->
<g id="edge4" class="edge"><title>Node5&#45;&gt;Node3</title>
<path fill="none" stroke="#9a32cd" stroke-dasharray="5,2" d="M281.571,-580.132C377.399,-585.943 586.572,-595.918 610,-574 649.218,-537.31 595.11,-375.455 628,-333 631.018,-329.104 634.873,-326.002 639.145,-323.531"/>
<polygon fill="#9a32cd" stroke="#9a32cd" points="281.758,-576.637 271.561,-579.515 281.327,-583.624 281.758,-576.637"/>
<text text-anchor="middle" x="462" y="-590" font-family="Arial" font-size="10.00"> quant_tbl_ptrs</text>
</g>
<!-- Node12 -->
<g id="node12" class="node"><title>Node12</title>
<g id="a_node12"><a xlink:href="structjpeg__component__info.html" target="_top" xlink:title="jpeg_component_info">
<polygon fill="white" stroke="black" points="408,-532.5 408,-551.5 516,-551.5 516,-532.5 408,-532.5"/>
<text text-anchor="middle" x="462" y="-539.5" font-family="Arial" font-size="10.00">jpeg_component_info</text>
</a>
</g>
</g>
<!-- Node5&#45;&gt;Node12 -->
<g id="edge15" class="edge"><title>Node5&#45;&gt;Node12</title>
<path fill="none" stroke="#9a32cd" stroke-dasharray="5,2" d="M281.768,-566.4C287.89,-565.18 294.083,-564.012 300,-563 335.842,-556.871 376.444,-551.586 407.907,-547.852"/>
<polygon fill="#9a32cd" stroke="#9a32cd" points="280.688,-563.049 271.595,-568.487 282.095,-569.906 280.688,-563.049"/>
<text text-anchor="middle" x="343" y="-566" font-family="Arial" font-size="10.00"> quant_table</text>
</g>
<!-- Node6 -->
<g id="node6" class="node"><title>Node6</title>
<g id="a_node6"><a xlink:href="struct_j_h_u_f_f___t_b_l.html" target="_top" xlink:title="JHUFF_TBL">
<polygon fill="white" stroke="black" points="427.5,-494.5 427.5,-513.5 496.5,-513.5 496.5,-494.5 427.5,-494.5"/>
<text text-anchor="middle" x="462" y="-501.5" font-family="Arial" font-size="10.00">JHUFF_TBL</text>
</a>
</g>
</g>
<!-- Node6&#45;&gt;Node3 -->
<g id="edge5" class="edge"><title>Node6&#45;&gt;Node3</title>
<path fill="none" stroke="#9a32cd" stroke-dasharray="5,2" d="M506.877,-500.929C544.998,-497.297 596.208,-489.773 610,-475 653.412,-428.498 587.757,-382.27 628,-333 631.182,-329.104 635.198,-326.003 639.612,-323.536"/>
<polygon fill="#9a32cd" stroke="#9a32cd" points="506.164,-497.478 496.514,-501.853 506.785,-504.451 506.164,-497.478"/>
<text text-anchor="middle" x="574" y="-510" font-family="Arial" font-size="10.00"> ac_huff_tbl_ptrs</text>
<text text-anchor="middle" x="574" y="-499" font-family="Arial" font-size="10.00">dc_huff_tbl_ptrs</text>
</g>
<!-- Node7 -->
<g id="node7" class="node"><title>Node7</title>
<g id="a_node7"><a xlink:href="structjpeg__memory__mgr.html" target="_top" xlink:title="jpeg_memory_mgr">
<polygon fill="white" stroke="black" points="413.5,-456.5 413.5,-475.5 510.5,-475.5 510.5,-456.5 413.5,-456.5"/>
<text text-anchor="middle" x="462" y="-463.5" font-family="Arial" font-size="10.00">jpeg_memory_mgr</text>
</a>
</g>
</g>
<!-- Node7&#45;&gt;Node3 -->
<g id="edge6" class="edge"><title>Node7&#45;&gt;Node3</title>
<path fill="none" stroke="#9a32cd" stroke-dasharray="5,2" d="M521.018,-462.925C556.549,-459.793 597.525,-453.516 610,-441 644.352,-406.534 596.487,-370.08 628,-333 631.324,-329.089 635.486,-325.98 640.032,-323.51"/>
<polygon fill="#9a32cd" stroke="#9a32cd" points="520.372,-459.466 510.688,-463.764 520.938,-466.443 520.372,-459.466"/>
<text text-anchor="middle" x="574" y="-463" font-family="Arial" font-size="10.00"> mem</text>
</g>
<!-- Node8 -->
<g id="node8" class="node"><title>Node8</title>
<g id="a_node8"><a xlink:href="structjvirt__barray__control.html" target="_top" xlink:title="jvirt_barray_control">
<polygon fill="white" stroke="black" points="184,-483.5 184,-502.5 282,-502.5 282,-483.5 184,-483.5"/>
<text text-anchor="middle" x="233" y="-490.5" font-family="Arial" font-size="10.00">jvirt_barray_control</text>
</a>
</g>
</g>
<!-- Node8&#45;&gt;Node7 -->
<g id="edge7" class="edge"><title>Node8&#45;&gt;Node7</title>
<path fill="none" stroke="#9a32cd" stroke-dasharray="5,2" d="M292.426,-486.051C329.96,-481.586 378.099,-475.86 413.318,-471.671"/>
<polygon fill="#9a32cd" stroke="#9a32cd" points="291.657,-482.617 282.141,-487.274 292.484,-489.568 291.657,-482.617"/>
<text text-anchor="middle" x="343" y="-488" font-family="Arial" font-size="10.00"> request_virt_barray</text>
</g>
<!-- Node8&#45;&gt;Node8 -->
<g id="edge8" class="edge"><title>Node8&#45;&gt;Node8</title>
<path fill="none" stroke="#9a32cd" stroke-dasharray="5,2" d="M217.075,-512.4C218.138,-517.315 223.447,-521 233,-521 248.285,-521 252.704,-511.565 246.255,-502.757"/>
<polygon fill="#9a32cd" stroke="#9a32cd" points="220.449,-513.328 219.745,-502.757 213.703,-511.46 220.449,-513.328"/>
<text text-anchor="middle" x="233" y="-524" font-family="Arial" font-size="10.00"> next</text>
</g>
<!-- Node9 -->
<g id="node9" class="node"><title>Node9</title>
<g id="a_node9"><a xlink:href="structbacking__store__struct.html" target="_top" xlink:title="backing_store_struct">
<polygon fill="white" stroke="black" points="0.5,-453.5 0.5,-472.5 107.5,-472.5 107.5,-453.5 0.5,-453.5"/>
<text text-anchor="middle" x="54" y="-460.5" font-family="Arial" font-size="10.00">backing_store_struct</text>
</a>
</g>
</g>
<!-- Node9&#45;&gt;Node8 -->
<g id="edge9" class="edge"><title>Node9&#45;&gt;Node8</title>
<path fill="none" stroke="#9a32cd" stroke-dasharray="5,2" d="M117.75,-473.636C139.464,-477.316 163.444,-481.38 183.805,-484.831"/>
<polygon fill="#9a32cd" stroke="#9a32cd" points="118.071,-470.14 107.627,-471.92 116.901,-477.042 118.071,-470.14"/>
<text text-anchor="middle" x="146" y="-484" font-family="Arial" font-size="10.00"> b_s_info</text>
</g>
<!-- Node10 -->
<g id="node10" class="node"><title>Node10</title>
<g id="a_node10"><a xlink:href="structjvirt__sarray__control.html" target="_top" xlink:title="jvirt_sarray_control">
<polygon fill="white" stroke="black" points="184,-416.5 184,-435.5 282,-435.5 282,-416.5 184,-416.5"/>
<text text-anchor="middle" x="233" y="-423.5" font-family="Arial" font-size="10.00">jvirt_sarray_control</text>
</a>
</g>
</g>
<!-- Node9&#45;&gt;Node10 -->
<g id="edge12" class="edge"><title>Node9&#45;&gt;Node10</title>
<path fill="none" stroke="#9a32cd" stroke-dasharray="5,2" d="M110.415,-451.416C134.803,-446.318 163.106,-440.402 186.265,-435.56"/>
<polygon fill="#9a32cd" stroke="#9a32cd" points="109.654,-447.999 100.582,-453.472 111.087,-454.851 109.654,-447.999"/>
<text text-anchor="middle" x="146" y="-450" font-family="Arial" font-size="10.00"> b_s_info</text>
</g>
<!-- Node10&#45;&gt;Node7 -->
<g id="edge10" class="edge"><title>Node10&#45;&gt;Node7</title>
<path fill="none" stroke="#9a32cd" stroke-dasharray="5,2" d="M292.426,-436.295C329.96,-442.909 378.099,-451.392 413.318,-457.598"/>
<polygon fill="#9a32cd" stroke="#9a32cd" points="292.597,-432.772 282.141,-434.483 291.382,-439.665 292.597,-432.772"/>
<text text-anchor="middle" x="343" y="-454" font-family="Arial" font-size="10.00"> request_virt_sarray</text>
</g>
<!-- Node10&#45;&gt;Node10 -->
<g id="edge11" class="edge"><title>Node10&#45;&gt;Node10</title>
<path fill="none" stroke="#9a32cd" stroke-dasharray="5,2" d="M217.075,-445.4C218.138,-450.315 223.447,-454 233,-454 248.285,-454 252.704,-444.565 246.255,-435.757"/>
<polygon fill="#9a32cd" stroke="#9a32cd" points="220.449,-446.328 219.745,-435.757 213.703,-444.46 220.449,-446.328"/>
<text text-anchor="middle" x="233" y="-457" font-family="Arial" font-size="10.00"> next</text>
</g>
<!-- Node11 -->
<g id="node11" class="node"><title>Node11</title>
<g id="a_node11"><a xlink:href="structjpeg__comp__master.html" target="_top" xlink:title="jpeg_comp_master">
<polygon fill="white" stroke="black" points="412.5,-418.5 412.5,-437.5 511.5,-437.5 511.5,-418.5 412.5,-418.5"/>
<text text-anchor="middle" x="462" y="-425.5" font-family="Arial" font-size="10.00">jpeg_comp_master</text>
</a>
</g>
</g>
<!-- Node11&#45;&gt;Node3 -->
<g id="edge13" class="edge"><title>Node11&#45;&gt;Node3</title>
<path fill="none" stroke="#9a32cd" stroke-dasharray="5,2" d="M521.838,-429.342C551.727,-426.932 586.576,-418.92 610,-397 631.575,-376.811 607.667,-354.439 628,-333 631.674,-329.126 636.166,-326.043 640.992,-323.587"/>
<polygon fill="#9a32cd" stroke="#9a32cd" points="521.268,-425.87 511.5,-429.974 521.695,-432.857 521.268,-425.87"/>
<text text-anchor="middle" x="574" y="-431" font-family="Arial" font-size="10.00"> master</text>
</g>
<!-- Node12&#45;&gt;Node3 -->
<g id="edge14" class="edge"><title>Node12&#45;&gt;Node3</title>
<path fill="none" stroke="#9a32cd" stroke-dasharray="5,2" d="M526.434,-548.977C555.88,-548.547 588.949,-542.188 610,-520 638.734,-489.714 602.081,-365.727 628,-333 631.06,-329.137 634.94,-326.054 639.227,-323.596"/>
<polygon fill="#9a32cd" stroke="#9a32cd" points="526.222,-545.475 516.195,-548.898 526.168,-552.475 526.222,-545.475"/>
<text text-anchor="middle" x="574" y="-562" font-family="Arial" font-size="10.00"> cur_comp_info</text>
<text text-anchor="middle" x="574" y="-551" font-family="Arial" font-size="10.00">comp_info</text>
</g>
<!-- Node13 -->
<g id="node13" class="node"><title>Node13</title>
<g id="a_node13"><a xlink:href="structjpeg__entropy__encoder.html" target="_top" xlink:title="jpeg_entropy_encoder">
<polygon fill="white" stroke="black" points="406,-380.5 406,-399.5 518,-399.5 518,-380.5 406,-380.5"/>
<text text-anchor="middle" x="462" y="-387.5" font-family="Arial" font-size="10.00">jpeg_entropy_encoder</text>
</a>
</g>
</g>
<!-- Node13&#45;&gt;Node3 -->
<g id="edge16" class="edge"><title>Node13&#45;&gt;Node3</title>
<path fill="none" stroke="#9a32cd" stroke-dasharray="5,2" d="M528.22,-384.533C555.163,-379.923 585.706,-371.47 610,-356 620.949,-349.028 617.412,-340.51 628,-333 633.443,-329.139 639.732,-326.014 646.087,-323.5"/>
<polygon fill="#9a32cd" stroke="#9a32cd" points="527.43,-381.115 518.091,-386.119 528.512,-388.03 527.43,-381.115"/>
<text text-anchor="middle" x="574" y="-385" font-family="Arial" font-size="10.00"> entropy</text>
</g>
<!-- Node14 -->
<g id="node14" class="node"><title>Node14</title>
<g id="a_node14"><a xlink:href="structjpeg__downsampler.html" target="_top" xlink:title="jpeg_downsampler">
<polygon fill="white" stroke="black" points="413.5,-342.5 413.5,-361.5 510.5,-361.5 510.5,-342.5 413.5,-342.5"/>
<text text-anchor="middle" x="462" y="-349.5" font-family="Arial" font-size="10.00">jpeg_downsampler</text>
</a>
</g>
</g>
<!-- Node14&#45;&gt;Node3 -->
<g id="edge17" class="edge"><title>Node14&#45;&gt;Node3</title>
<path fill="none" stroke="#9a32cd" stroke-dasharray="5,2" d="M520.856,-343.56C547.972,-339.447 580.692,-334.261 610,-329 619.29,-327.333 629.207,-325.417 638.665,-323.524"/>
<polygon fill="#9a32cd" stroke="#9a32cd" points="520.124,-340.13 510.757,-345.081 521.167,-347.052 520.124,-340.13"/>
<text text-anchor="middle" x="574" y="-344" font-family="Arial" font-size="10.00"> downsample</text>
</g>
<!-- Node15 -->
<g id="node15" class="node"><title>Node15</title>
<g id="a_node15"><a xlink:href="structjpeg__c__coef__controller.html" target="_top" xlink:title="jpeg_c_coef_controller">
<polygon fill="white" stroke="black" points="405.5,-304.5 405.5,-323.5 518.5,-323.5 518.5,-304.5 405.5,-304.5"/>
<text text-anchor="middle" x="462" y="-311.5" font-family="Arial" font-size="10.00">jpeg_c_coef_controller</text>
</a>
</g>
</g>
<!-- Node15&#45;&gt;Node3 -->
<g id="edge18" class="edge"><title>Node15&#45;&gt;Node3</title>
<path fill="none" stroke="#9a32cd" stroke-dasharray="5,2" d="M528.823,-314C560.481,-314 598.023,-314 628.25,-314"/>
<polygon fill="#9a32cd" stroke="#9a32cd" points="528.768,-310.5 518.768,-314 528.768,-317.5 528.768,-310.5"/>
<text text-anchor="middle" x="574" y="-317" font-family="Arial" font-size="10.00"> coef</text>
</g>
<!-- Node16 -->
<g id="node16" class="node"><title>Node16</title>
<g id="a_node16"><a xlink:href="structjpeg__marker__writer.html" target="_top" xlink:title="jpeg_marker_writer">
<polygon fill="white" stroke="black" points="413,-266.5 413,-285.5 511,-285.5 511,-266.5 413,-266.5"/>
<text text-anchor="middle" x="462" y="-273.5" font-family="Arial" font-size="10.00">jpeg_marker_writer</text>
</a>
</g>
</g>
<!-- Node16&#45;&gt;Node3 -->
<g id="edge19" class="edge"><title>Node16&#45;&gt;Node3</title>
<path fill="none" stroke="#9a32cd" stroke-dasharray="5,2" d="M521.169,-284.488C548.224,-288.593 580.804,-293.76 610,-299 619.29,-300.667 629.207,-302.583 638.665,-304.476"/>
<polygon fill="#9a32cd" stroke="#9a32cd" points="521.499,-280.998 511.089,-282.969 520.456,-287.92 521.499,-280.998"/>
<text text-anchor="middle" x="574" y="-302" font-family="Arial" font-size="10.00"> marker</text>
</g>
<!-- Node17 -->
<g id="node17" class="node"><title>Node17</title>
<g id="a_node17"><a xlink:href="structjpeg__forward__dct.html" target="_top" xlink:title="jpeg_forward_dct">
<polygon fill="white" stroke="black" points="417.5,-228.5 417.5,-247.5 506.5,-247.5 506.5,-228.5 417.5,-228.5"/>
<text text-anchor="middle" x="462" y="-235.5" font-family="Arial" font-size="10.00">jpeg_forward_dct</text>
</a>
</g>
</g>
<!-- Node17&#45;&gt;Node3 -->
<g id="edge20" class="edge"><title>Node17&#45;&gt;Node3</title>
<path fill="none" stroke="#9a32cd" stroke-dasharray="5,2" d="M516.816,-247.155C545.111,-252.875 580.046,-261.387 610,-273 631.774,-281.441 655.047,-295.213 669.557,-304.437"/>
<polygon fill="#9a32cd" stroke="#9a32cd" points="517.2,-243.664 506.713,-245.174 515.852,-250.533 517.2,-243.664"/>
<text text-anchor="middle" x="574" y="-276" font-family="Arial" font-size="10.00"> fdct</text>
</g>
<!-- Node18 -->
<g id="node18" class="node"><title>Node18</title>
<g id="a_node18"><a xlink:href="structjpeg__progress__mgr.html" target="_top" xlink:title="jpeg_progress_mgr">
<polygon fill="white" stroke="black" points="412.5,-190.5 412.5,-209.5 511.5,-209.5 511.5,-190.5 412.5,-190.5"/>
<text text-anchor="middle" x="462" y="-197.5" font-family="Arial" font-size="10.00">jpeg_progress_mgr</text>
</a>
</g>
</g>
<!-- Node18&#45;&gt;Node3 -->
<g id="edge21" class="edge"><title>Node18&#45;&gt;Node3</title>
<path fill="none" stroke="#9a32cd" stroke-dasharray="5,2" d="M521.677,-207.072C549.808,-212.33 583.141,-221.41 610,-237 640.146,-254.498 665.924,-287.823 677.491,-304.291"/>
<polygon fill="#9a32cd" stroke="#9a32cd" points="522.024,-203.58 511.57,-205.303 520.816,-210.475 522.024,-203.58"/>
<text text-anchor="middle" x="574" y="-240" font-family="Arial" font-size="10.00"> progress</text>
</g>
<!-- Node19 -->
<g id="node19" class="node"><title>Node19</title>
<g id="a_node19"><a xlink:href="structjpeg__destination__mgr.html" target="_top" xlink:title="jpeg_destination_mgr">
<polygon fill="white" stroke="black" points="407.5,-152.5 407.5,-171.5 516.5,-171.5 516.5,-152.5 407.5,-152.5"/>
<text text-anchor="middle" x="462" y="-159.5" font-family="Arial" font-size="10.00">jpeg_destination_mgr</text>
</a>
</g>
</g>
<!-- Node19&#45;&gt;Node3 -->
<g id="edge22" class="edge"><title>Node19&#45;&gt;Node3</title>
<path fill="none" stroke="#9a32cd" stroke-dasharray="5,2" d="M526.7,-166.419C554.349,-170.913 585.854,-179.752 610,-197 649.505,-225.22 672.74,-281.752 680.785,-304.346"/>
<polygon fill="#9a32cd" stroke="#9a32cd" points="527.112,-162.942 516.709,-164.952 526.095,-169.868 527.112,-162.942"/>
<text text-anchor="middle" x="574" y="-200" font-family="Arial" font-size="10.00"> dest</text>
</g>
<!-- Node20 -->
<g id="node20" class="node"><title>Node20</title>
<g id="a_node20"><a xlink:href="structjpeg__c__main__controller.html" target="_top" xlink:title="jpeg_c_main_controller">
<polygon fill="white" stroke="black" points="404,-114.5 404,-133.5 520,-133.5 520,-114.5 404,-114.5"/>
<text text-anchor="middle" x="462" y="-121.5" font-family="Arial" font-size="10.00">jpeg_c_main_controller</text>
</a>
</g>
</g>
<!-- Node20&#45;&gt;Node3 -->
<g id="edge23" class="edge"><title>Node20&#45;&gt;Node3</title>
<path fill="none" stroke="#9a32cd" stroke-dasharray="5,2" d="M530.343,-124.84C557.502,-128.253 587.633,-136.299 610,-154 660.398,-193.883 677.907,-275.999 682.572,-304.222"/>
<polygon fill="#9a32cd" stroke="#9a32cd" points="530.417,-121.328 520.102,-123.748 529.675,-128.288 530.417,-121.328"/>
<text text-anchor="middle" x="574" y="-157" font-family="Arial" font-size="10.00"> main</text>
</g>
<!-- Node21 -->
<g id="node21" class="node"><title>Node21</title>
<g id="a_node21"><a xlink:href="structjpeg__scan__info.html" target="_top" xlink:title="jpeg_scan_info">
<polygon fill="white" stroke="black" points="421.5,-76.5 421.5,-95.5 502.5,-95.5 502.5,-76.5 421.5,-76.5"/>
<text text-anchor="middle" x="462" y="-83.5" font-family="Arial" font-size="10.00">jpeg_scan_info</text>
</a>
</g>
</g>
<!-- Node21&#45;&gt;Node3 -->
<g id="edge24" class="edge"><title>Node21&#45;&gt;Node3</title>
<path fill="none" stroke="#9a32cd" stroke-dasharray="5,2" d="M512.977,-82.8861C544.166,-83.5907 583.316,-89.6449 610,-112 671.553,-163.567 681.911,-270.996 683.65,-304.084"/>
<polygon fill="#9a32cd" stroke="#9a32cd" points="512.752,-79.3851 502.735,-82.8364 512.718,-86.385 512.752,-79.3851"/>
<text text-anchor="middle" x="574" y="-115" font-family="Arial" font-size="10.00"> scan_info</text>
</g>
<!-- Node22 -->
<g id="node22" class="node"><title>Node22</title>
<g id="a_node22"><a xlink:href="structjpeg__color__converter.html" target="_top" xlink:title="jpeg_color_converter">
<polygon fill="white" stroke="black" points="409.5,-38.5 409.5,-57.5 514.5,-57.5 514.5,-38.5 409.5,-38.5"/>
<text text-anchor="middle" x="462" y="-45.5" font-family="Arial" font-size="10.00">jpeg_color_converter</text>
</a>
</g>
</g>
<!-- Node22&#45;&gt;Node3 -->
<g id="edge25" class="edge"><title>Node22&#45;&gt;Node3</title>
<path fill="none" stroke="#9a32cd" stroke-dasharray="5,2" d="M524.621,-42.9221C553.63,-43.8108 586.854,-50.0066 610,-70 683.531,-133.515 685.371,-267.494 684.4,-304.407"/>
<polygon fill="#9a32cd" stroke="#9a32cd" points="524.596,-39.4217 514.56,-42.8151 524.522,-46.4213 524.596,-39.4217"/>
<text text-anchor="middle" x="574" y="-73" font-family="Arial" font-size="10.00"> cconvert</text>
</g>
<!-- Node23 -->
<g id="node23" class="node"><title>Node23</title>
<g id="a_node23"><a xlink:href="structjpeg__error__mgr.html" target="_top" xlink:title="jpeg_error_mgr">
<polygon fill="white" stroke="black" points="421.5,-0.5 421.5,-19.5 502.5,-19.5 502.5,-0.5 421.5,-0.5"/>
<text text-anchor="middle" x="462" y="-7.5" font-family="Arial" font-size="10.00">jpeg_error_mgr</text>
</a>
</g>
</g>
<!-- Node23&#45;&gt;Node3 -->
<g id="edge26" class="edge"><title>Node23&#45;&gt;Node3</title>
<path fill="none" stroke="#9a32cd" stroke-dasharray="5,2" d="M512.863,-3.32912C544.363,-1.98407 583.902,-5.98752 610,-29 653.232,-67.12 677.719,-259.219 682.94,-304.451"/>
<polygon fill="#9a32cd" stroke="#9a32cd" points="512.284,0.141769 502.519,-3.97058 512.717,-6.84481 512.284,0.141769"/>
<text text-anchor="middle" x="574" y="-32" font-family="Arial" font-size="10.00"> err</text>
</g>
</g>
</svg>
