<?xml version="1.0" encoding="UTF-8" standalone="no"?>
<!DOCTYPE svg PUBLIC "-//W3C//DTD SVG 1.1//EN"
 "http://www.w3.org/Graphics/SVG/1.1/DTD/svg11.dtd">
<!-- Generated by graphviz version 2.34.0 (20130907.0111)
 -->
<!-- Title: clipLink_s Pages: 1 -->
<svg width="150pt" height="176pt"
 viewBox="0.00 0.00 149.54 176.00" xmlns="http://www.w3.org/2000/svg" xmlns:xlink="http://www.w3.org/1999/xlink">
<g id="graph0" class="graph" transform="scale(1 1) rotate(0) translate(4 172)">
<title>clipLink_s</title>
<polygon fill="white" stroke="white" points="-4,4 -4,-172 145.545,-172 145.545,4 -4,4"/>
<!-- Node1 -->
<g id="node1" class="node"><title>Node1</title>
<polygon fill="#bfbfbf" stroke="black" points="6.54475,-74.5 6.54475,-93.5 66.5447,-93.5 66.5447,-74.5 6.54475,-74.5"/>
<text text-anchor="middle" x="36.5447" y="-81.5" font-family="Arial" font-size="10.00">clipLink_s</text>
</g>
<!-- Node1&#45;&gt;Node1 -->
<g id="edge5" class="edge"><title>Node1&#45;&gt;Node1</title>
<path fill="none" stroke="#9a32cd" stroke-dasharray="5,2" d="M77.204,-90.2991C81.6662,-89.099 84.5447,-86.9993 84.5447,-84 84.5447,-79.0781 76.7928,-76.5787 67.012,-76.5018"/>
<polygon fill="#9a32cd" stroke="#9a32cd" points="76.5345,-86.8537 67.012,-91.4982 77.3525,-93.8057 76.5345,-86.8537"/>
<text text-anchor="middle" x="113.045" y="-92.5" font-family="Arial" font-size="10.00"> prevInSector</text>
<text text-anchor="middle" x="113.045" y="-81.5" font-family="Arial" font-size="10.00">nextLink</text>
<text text-anchor="middle" x="113.045" y="-70.5" font-family="Arial" font-size="10.00">nextInSector</text>
</g>
<!-- Node3 -->
<g id="node3" class="node"><title>Node3</title>
<g id="a_node3"><a xlink:href="structclip_sector__s.html" target="_top" xlink:title="clipSector_s">
<polygon fill="white" stroke="black" points="1.04475,-0.5 1.04475,-19.5 72.0447,-19.5 72.0447,-0.5 1.04475,-0.5"/>
<text text-anchor="middle" x="36.5447" y="-7.5" font-family="Arial" font-size="10.00">clipSector_s</text>
</a>
</g>
</g>
<!-- Node1&#45;&gt;Node3 -->
<g id="edge4" class="edge"><title>Node1&#45;&gt;Node3</title>
<path fill="none" stroke="#9a32cd" stroke-dasharray="5,2" d="M14.9967,-67.8519C9.58138,-62.8496 4.47944,-56.8004 1.54475,-50 -3.71811,-37.8046 8.40595,-26.8346 19.7968,-19.6589"/>
<polygon fill="#9a32cd" stroke="#9a32cd" points="12.9961,-70.7386 22.9392,-74.3973 17.448,-65.3366 12.9961,-70.7386"/>
<text text-anchor="middle" x="22.5447" y="-41.5" font-family="Arial" font-size="10.00"> clipLinks</text>
</g>
<!-- Node2 -->
<g id="node2" class="node"><title>Node2</title>
<g id="a_node2"><a xlink:href="classid_clip_model.html" target="_top" xlink:title="idClipModel">
<polygon fill="white" stroke="black" points="3.04475,-148.5 3.04475,-167.5 70.0447,-167.5 70.0447,-148.5 3.04475,-148.5"/>
<text text-anchor="middle" x="36.5447" y="-155.5" font-family="Arial" font-size="10.00">idClipModel</text>
</a>
</g>
</g>
<!-- Node2&#45;&gt;Node1 -->
<g id="edge1" class="edge"><title>Node2&#45;&gt;Node1</title>
<path fill="none" stroke="#9a32cd" stroke-dasharray="5,2" d="M36.5447,-138.156C36.5447,-123.712 36.5447,-104.459 36.5447,-93.531"/>
<polygon fill="#9a32cd" stroke="#9a32cd" points="33.0448,-138.458 36.5447,-148.458 40.0448,-138.458 33.0448,-138.458"/>
<text text-anchor="middle" x="59.0447" y="-121.5" font-family="Arial" font-size="10.00"> clipModel</text>
</g>
<!-- Node3&#45;&gt;Node1 -->
<g id="edge2" class="edge"><title>Node3&#45;&gt;Node1</title>
<path fill="none" stroke="#9a32cd" stroke-dasharray="5,2" d="M44.9886,-29.0048C46.0465,-31.9532 46.9609,-35.0197 47.5447,-38 50.0493,-50.7859 44.9791,-65.41 40.9179,-74.4256"/>
<polygon fill="#9a32cd" stroke="#9a32cd" points="48.1978,-27.6069 41.1107,-19.7315 41.7398,-30.3076 48.1978,-27.6069"/>
<text text-anchor="middle" x="63.0447" y="-41.5" font-family="Arial" font-size="10.00"> sector</text>
</g>
<!-- Node3&#45;&gt;Node3 -->
<g id="edge3" class="edge"><title>Node3&#45;&gt;Node3</title>
<path fill="none" stroke="#9a32cd" stroke-dasharray="5,2" d="M82.3563,-15.1507C86.7571,-14.1044 89.5447,-12.3875 89.5447,-10 89.5447,-6.08203 82.0377,-3.97 72.214,-3.66391"/>
<polygon fill="#9a32cd" stroke="#9a32cd" points="81.7401,-11.6988 72.214,-16.3361 82.5528,-18.6515 81.7401,-11.6988"/>
<text text-anchor="middle" x="108.045" y="-7.5" font-family="Arial" font-size="10.00"> children</text>
</g>
</g>
</svg>
