<?xml version="1.0" encoding="UTF-8" standalone="no"?>
<!DOCTYPE svg PUBLIC "-//W3C//DTD SVG 1.1//EN"
 "http://www.w3.org/Graphics/SVG/1.1/DTD/svg11.dtd">
<!-- Generated by graphviz version 2.34.0 (20130907.0111)
 -->
<!-- Title: st_lwTexture Pages: 1 -->
<svg width="487pt" height="200pt"
 viewBox="0.00 0.00 487.00 200.00" xmlns="http://www.w3.org/2000/svg" xmlns:xlink="http://www.w3.org/1999/xlink">
<g id="graph0" class="graph" transform="scale(1 1) rotate(0) translate(4 196)">
<title>st_lwTexture</title>
<polygon fill="white" stroke="white" points="-4,4 -4,-196 483,-196 483,4 -4,4"/>
<!-- Node1 -->
<g id="node1" class="node"><title>Node1</title>
<polygon fill="#bfbfbf" stroke="black" points="181.5,-1.5 181.5,-20.5 252.5,-20.5 252.5,-1.5 181.5,-1.5"/>
<text text-anchor="middle" x="217" y="-8.5" font-family="Arial" font-size="10.00">st_lwTexture</text>
</g>
<!-- Node1&#45;&gt;Node1 -->
<g id="edge7" class="edge"><title>Node1&#45;&gt;Node1</title>
<path fill="none" stroke="#9a32cd" stroke-dasharray="5,2" d="M262.812,-16.1507C267.212,-15.1044 270,-13.3875 270,-11 270,-7.08203 262.493,-4.97 252.669,-4.66391"/>
<polygon fill="#9a32cd" stroke="#9a32cd" points="262.195,-12.6988 252.669,-17.3361 263.008,-19.6515 262.195,-12.6988"/>
<text text-anchor="middle" x="280.5" y="-14" font-family="Arial" font-size="10.00"> prev</text>
<text text-anchor="middle" x="280.5" y="-3" font-family="Arial" font-size="10.00">next</text>
</g>
<!-- Node2 -->
<g id="node2" class="node"><title>Node2</title>
<g id="a_node2"><a xlink:href="structst__lw_procedural.html" target="_top" xlink:title="st_lwProcedural">
<polygon fill="white" stroke="black" points="0,-70.5 0,-89.5 86,-89.5 86,-70.5 0,-70.5"/>
<text text-anchor="middle" x="43" y="-77.5" font-family="Arial" font-size="10.00">st_lwProcedural</text>
</a>
</g>
</g>
<!-- Node2&#45;&gt;Node1 -->
<g id="edge1" class="edge"><title>Node2&#45;&gt;Node1</title>
<path fill="none" stroke="#9a32cd" stroke-dasharray="5,2" d="M56.8262,-62.9363C64.6106,-54.8781 74.9681,-45.6541 86,-40 116.01,-24.6191 154.051,-17.679 181.398,-14.5523"/>
<polygon fill="#9a32cd" stroke="#9a32cd" points="54.1376,-60.6899 49.9697,-70.4306 59.3022,-65.415 54.1376,-60.6899"/>
<text text-anchor="middle" x="97" y="-43.5" font-family="Arial" font-size="10.00"> proc</text>
</g>
<!-- Node3 -->
<g id="node3" class="node"><title>Node3</title>
<g id="a_node3"><a xlink:href="structst__lw_image_map.html" target="_top" xlink:title="st_lwImageMap">
<polygon fill="white" stroke="black" points="175,-70.5 175,-89.5 259,-89.5 259,-70.5 175,-70.5"/>
<text text-anchor="middle" x="217" y="-77.5" font-family="Arial" font-size="10.00">st_lwImageMap</text>
</a>
</g>
</g>
<!-- Node3&#45;&gt;Node1 -->
<g id="edge2" class="edge"><title>Node3&#45;&gt;Node1</title>
<path fill="none" stroke="#9a32cd" stroke-dasharray="5,2" d="M217,-60.0183C217,-47.034 217,-30.4419 217,-20.5494"/>
<polygon fill="#9a32cd" stroke="#9a32cd" points="213.5,-60.2409 217,-70.2409 220.5,-60.241 213.5,-60.2409"/>
<text text-anchor="middle" x="229.5" y="-43.5" font-family="Arial" font-size="10.00"> imap</text>
</g>
<!-- Node4 -->
<g id="node4" class="node"><title>Node4</title>
<g id="a_node4"><a xlink:href="structst__lw_e_param.html" target="_top" xlink:title="st_lwEParam">
<polygon fill="white" stroke="black" points="149,-171.5 149,-190.5 223,-190.5 223,-171.5 149,-171.5"/>
<text text-anchor="middle" x="186" y="-178.5" font-family="Arial" font-size="10.00">st_lwEParam</text>
</a>
</g>
</g>
<!-- Node4&#45;&gt;Node1 -->
<g id="edge6" class="edge"><title>Node4&#45;&gt;Node1</title>
<path fill="none" stroke="#9a32cd" stroke-dasharray="5,2" d="M168.204,-164.333C146.097,-142.884 113.323,-103.244 131,-70 144.021,-45.5132 172.497,-29.4982 193.123,-20.6236"/>
<polygon fill="#9a32cd" stroke="#9a32cd" points="166.051,-167.111 175.753,-171.367 170.823,-161.99 166.051,-167.111"/>
<text text-anchor="middle" x="148.5" y="-77.5" font-family="Arial" font-size="10.00"> opacity</text>
</g>
<!-- Node4&#45;&gt;Node3 -->
<g id="edge3" class="edge"><title>Node4&#45;&gt;Node3</title>
<path fill="none" stroke="#9a32cd" stroke-dasharray="5,2" d="M191.755,-161.62C198.471,-140.172 209.293,-105.613 214.299,-89.6245"/>
<polygon fill="#9a32cd" stroke="#9a32cd" points="188.399,-160.625 188.751,-171.214 195.079,-162.717 188.399,-160.625"/>
<text text-anchor="middle" x="231" y="-144" font-family="Arial" font-size="10.00"> amplitude</text>
<text text-anchor="middle" x="231" y="-133" font-family="Arial" font-size="10.00">wrapw</text>
<text text-anchor="middle" x="231" y="-122" font-family="Arial" font-size="10.00">stck</text>
<text text-anchor="middle" x="231" y="-111" font-family="Arial" font-size="10.00">wraph</text>
</g>
<!-- Node5 -->
<g id="node5" class="node"><title>Node5</title>
<g id="a_node5"><a xlink:href="structst__lw_t_map.html" target="_top" xlink:title="st_lwTMap">
<polygon fill="white" stroke="black" points="277.5,-70.5 277.5,-89.5 340.5,-89.5 340.5,-70.5 277.5,-70.5"/>
<text text-anchor="middle" x="309" y="-77.5" font-family="Arial" font-size="10.00">st_lwTMap</text>
</a>
</g>
</g>
<!-- Node5&#45;&gt;Node1 -->
<g id="edge4" class="edge"><title>Node5&#45;&gt;Node1</title>
<path fill="none" stroke="#9a32cd" stroke-dasharray="5,2" d="M288.676,-64.1986C270.283,-50.8038 243.832,-31.541 228.739,-20.5494"/>
<polygon fill="#9a32cd" stroke="#9a32cd" points="286.829,-67.1832 296.973,-70.2409 290.949,-61.5247 286.829,-67.1832"/>
<text text-anchor="middle" x="284.5" y="-43.5" font-family="Arial" font-size="10.00"> tmap</text>
</g>
<!-- Node6 -->
<g id="node6" class="node"><title>Node6</title>
<g id="a_node6"><a xlink:href="structst__lw_v_param.html" target="_top" xlink:title="st_lwVParam">
<polygon fill="white" stroke="black" points="271,-171.5 271,-190.5 345,-190.5 345,-171.5 271,-171.5"/>
<text text-anchor="middle" x="308" y="-178.5" font-family="Arial" font-size="10.00">st_lwVParam</text>
</a>
</g>
</g>
<!-- Node6&#45;&gt;Node5 -->
<g id="edge5" class="edge"><title>Node6&#45;&gt;Node5</title>
<path fill="none" stroke="#9a32cd" stroke-dasharray="5,2" d="M308.192,-161.029C308.409,-139.543 308.753,-105.467 308.913,-89.6245"/>
<polygon fill="#9a32cd" stroke="#9a32cd" points="304.69,-161.18 308.089,-171.214 311.69,-161.25 304.69,-161.18"/>
<text text-anchor="middle" x="323" y="-144" font-family="Arial" font-size="10.00"> size</text>
<text text-anchor="middle" x="323" y="-133" font-family="Arial" font-size="10.00">center</text>
<text text-anchor="middle" x="323" y="-122" font-family="Arial" font-size="10.00">falloff</text>
<text text-anchor="middle" x="323" y="-111" font-family="Arial" font-size="10.00">rotate</text>
</g>
<!-- Node7 -->
<g id="node7" class="node"><title>Node7</title>
<g id="a_node7"><a xlink:href="structst__lw_gradient.html" target="_top" xlink:title="st_lwGradient">
<polygon fill="white" stroke="black" points="360,-70.5 360,-89.5 436,-89.5 436,-70.5 360,-70.5"/>
<text text-anchor="middle" x="398" y="-77.5" font-family="Arial" font-size="10.00">st_lwGradient</text>
</a>
</g>
</g>
<!-- Node7&#45;&gt;Node1 -->
<g id="edge8" class="edge"><title>Node7&#45;&gt;Node1</title>
<path fill="none" stroke="#9a32cd" stroke-dasharray="5,2" d="M368.332,-66.5297C349.221,-58.6315 323.778,-48.3668 301,-40 282.097,-33.0567 260.544,-25.8875 244.003,-20.5417"/>
<polygon fill="#9a32cd" stroke="#9a32cd" points="367.124,-69.8177 377.701,-70.4217 369.809,-63.3532 367.124,-69.8177"/>
<text text-anchor="middle" x="342" y="-43.5" font-family="Arial" font-size="10.00"> grad</text>
</g>
<!-- Node8 -->
<g id="node8" class="node"><title>Node8</title>
<g id="a_node8"><a xlink:href="structst__lw_grad_key.html" target="_top" xlink:title="st_lwGradKey">
<polygon fill="white" stroke="black" points="363.5,-171.5 363.5,-190.5 440.5,-190.5 440.5,-171.5 363.5,-171.5"/>
<text text-anchor="middle" x="402" y="-178.5" font-family="Arial" font-size="10.00">st_lwGradKey</text>
</a>
</g>
</g>
<!-- Node8&#45;&gt;Node7 -->
<g id="edge9" class="edge"><title>Node8&#45;&gt;Node7</title>
<path fill="none" stroke="#9a32cd" stroke-dasharray="5,2" d="M401.233,-161.029C400.365,-139.543 398.989,-105.467 398.348,-89.6245"/>
<polygon fill="#9a32cd" stroke="#9a32cd" points="397.744,-161.364 401.645,-171.214 404.738,-161.081 397.744,-161.364"/>
<text text-anchor="middle" x="409.5" y="-127.5" font-family="Arial" font-size="10.00"> key</text>
</g>
<!-- Node8&#45;&gt;Node8 -->
<g id="edge10" class="edge"><title>Node8&#45;&gt;Node8</title>
<path fill="none" stroke="#9a32cd" stroke-dasharray="5,2" d="M450.872,-188.415C455.251,-186.864 458,-184.392 458,-181 458,-175.434 450.597,-172.346 440.735,-171.737"/>
<polygon fill="#9a32cd" stroke="#9a32cd" points="449.945,-185.026 440.735,-190.263 451.201,-191.912 449.945,-185.026"/>
<text text-anchor="middle" x="468.5" y="-184" font-family="Arial" font-size="10.00"> prev</text>
<text text-anchor="middle" x="468.5" y="-173" font-family="Arial" font-size="10.00">next</text>
</g>
</g>
</svg>
