<?xml version="1.0" encoding="UTF-8" standalone="no"?>
<!DOCTYPE svg PUBLIC "-//W3C//DTD SVG 1.1//EN"
 "http://www.w3.org/Graphics/SVG/1.1/DTD/svg11.dtd">
<!-- Generated by graphviz version 2.34.0 (20130907.0111)
 -->
<!-- Title: rigidBodyPState_s Pages: 1 -->
<svg width="345pt" height="200pt"
 viewBox="0.00 0.00 345.00 200.00" xmlns="http://www.w3.org/2000/svg" xmlns:xlink="http://www.w3.org/1999/xlink">
<g id="graph0" class="graph" transform="scale(1 1) rotate(0) translate(4 196)">
<title>rigidBodyPState_s</title>
<polygon fill="white" stroke="white" points="-4,4 -4,-196 341,-196 341,4 -4,4"/>
<!-- Node1 -->
<g id="node1" class="node"><title>Node1</title>
<polygon fill="#bfbfbf" stroke="black" points="134,-0.5 134,-19.5 232,-19.5 232,-0.5 134,-0.5"/>
<text text-anchor="middle" x="183" y="-7.5" font-family="Arial" font-size="10.00">rigidBodyPState_s</text>
</g>
<!-- Node2 -->
<g id="node2" class="node"><title>Node2</title>
<g id="a_node2"><a xlink:href="classid_mat3.html" target="_top" xlink:title="idMat3">
<polygon fill="white" stroke="black" points="0,-172.5 0,-191.5 46,-191.5 46,-172.5 0,-172.5"/>
<text text-anchor="middle" x="23" y="-179.5" font-family="Arial" font-size="10.00">idMat3</text>
</a>
</g>
</g>
<!-- Node2&#45;&gt;Node1 -->
<g id="edge1" class="edge"><title>Node2&#45;&gt;Node1</title>
<path fill="none" stroke="#9a32cd" stroke-dasharray="5,2" d="M15.231,-163.018C6.17364,-138.975 -5.15965,-96.1283 15,-68 41.8233,-30.574 94.6122,-17.4213 133.892,-12.955"/>
<polygon fill="#9a32cd" stroke="#9a32cd" points="12.0073,-164.382 18.9931,-172.348 18.4993,-161.764 12.0073,-164.382"/>
<text text-anchor="middle" x="36.5" y="-82.5" font-family="Arial" font-size="10.00"> localAxis</text>
</g>
<!-- Node3 -->
<g id="node3" class="node"><title>Node3</title>
<g id="a_node3"><a xlink:href="structridid_body_i_state__s.html" target="_top" xlink:title="rididBodyIState_s">
<polygon fill="white" stroke="black" points="67.5,-75.5 67.5,-94.5 160.5,-94.5 160.5,-75.5 67.5,-75.5"/>
<text text-anchor="middle" x="114" y="-82.5" font-family="Arial" font-size="10.00">rididBodyIState_s</text>
</a>
</g>
</g>
<!-- Node2&#45;&gt;Node3 -->
<g id="edge3" class="edge"><title>Node2&#45;&gt;Node3</title>
<path fill="none" stroke="#9a32cd" stroke-dasharray="5,2" d="M28.8233,-162.33C33.6452,-149.253 41.5703,-132.033 53,-120 63.6879,-108.748 78.9379,-100.248 91.5159,-94.5609"/>
<polygon fill="#9a32cd" stroke="#9a32cd" points="25.3949,-161.542 25.494,-172.136 32.0232,-163.792 25.3949,-161.542"/>
<text text-anchor="middle" x="77.5" y="-134.5" font-family="Arial" font-size="10.00"> orientation</text>
</g>
<!-- Node3&#45;&gt;Node1 -->
<g id="edge2" class="edge"><title>Node3&#45;&gt;Node1</title>
<path fill="none" stroke="#9a32cd" stroke-dasharray="5,2" d="M129.251,-67.8646C143.305,-52.9963 163.626,-31.4976 174.824,-19.6495"/>
<polygon fill="#9a32cd" stroke="#9a32cd" points="126.512,-65.6677 122.186,-75.3393 131.599,-70.4761 126.512,-65.6677"/>
<text text-anchor="middle" x="160" y="-41.5" font-family="Arial" font-size="10.00"> i</text>
</g>
<!-- Node4 -->
<g id="node4" class="node"><title>Node4</title>
<g id="a_node4"><a xlink:href="classid_vec3.html" target="_top" xlink:title="idVec3">
<polygon fill="white" stroke="black" points="135.5,-172.5 135.5,-191.5 182.5,-191.5 182.5,-172.5 135.5,-172.5"/>
<text text-anchor="middle" x="159" y="-179.5" font-family="Arial" font-size="10.00">idVec3</text>
</a>
</g>
</g>
<!-- Node4&#45;&gt;Node1 -->
<g id="edge5" class="edge"><title>Node4&#45;&gt;Node1</title>
<path fill="none" stroke="#9a32cd" stroke-dasharray="5,2" d="M183.525,-166.123C187.359,-162.647 190.782,-158.594 193,-154 215.4,-107.609 195.037,-42.744 186.421,-19.6126"/>
<polygon fill="#9a32cd" stroke="#9a32cd" points="181.115,-163.561 175.329,-172.436 185.387,-169.106 181.115,-163.561"/>
<text text-anchor="middle" x="236" y="-93.5" font-family="Arial" font-size="10.00"> externalForce</text>
<text text-anchor="middle" x="236" y="-82.5" font-family="Arial" font-size="10.00">localOrigin</text>
<text text-anchor="middle" x="236" y="-71.5" font-family="Arial" font-size="10.00">externalTorque</text>
</g>
<!-- Node4&#45;&gt;Node3 -->
<g id="edge4" class="edge"><title>Node4&#45;&gt;Node3</title>
<path fill="none" stroke="#9a32cd" stroke-dasharray="5,2" d="M126.054,-168.118C120.435,-164.418 115.341,-159.772 112,-154 101.114,-135.192 106.91,-108.291 111.031,-94.6478"/>
<polygon fill="#9a32cd" stroke="#9a32cd" points="124.703,-171.372 135.142,-173.181 128.109,-165.257 124.703,-171.372"/>
<text text-anchor="middle" x="152.5" y="-145.5" font-family="Arial" font-size="10.00"> position</text>
<text text-anchor="middle" x="152.5" y="-134.5" font-family="Arial" font-size="10.00">angularMomentum</text>
<text text-anchor="middle" x="152.5" y="-123.5" font-family="Arial" font-size="10.00">linearMomentum</text>
</g>
<!-- Node5 -->
<g id="node5" class="node"><title>Node5</title>
<g id="a_node5"><a xlink:href="classid_vec6.html" target="_top" xlink:title="idVec6">
<polygon fill="white" stroke="black" points="289.5,-75.5 289.5,-94.5 336.5,-94.5 336.5,-75.5 289.5,-75.5"/>
<text text-anchor="middle" x="313" y="-82.5" font-family="Arial" font-size="10.00">idVec6</text>
</a>
</g>
</g>
<!-- Node5&#45;&gt;Node1 -->
<g id="edge6" class="edge"><title>Node5&#45;&gt;Node1</title>
<path fill="none" stroke="#9a32cd" stroke-dasharray="5,2" d="M288.845,-70.436C262.416,-55.5952 220.841,-32.2491 198.473,-19.6889"/>
<polygon fill="#9a32cd" stroke="#9a32cd" points="287.4,-73.6386 297.833,-75.4831 290.827,-67.535 287.4,-73.6386"/>
<text text-anchor="middle" x="282" y="-41.5" font-family="Arial" font-size="10.00"> pushVelocity</text>
</g>
</g>
</svg>
