<?xml version="1.0" encoding="UTF-8" standalone="no"?>
<!DOCTYPE svg PUBLIC "-//W3C//DTD SVG 1.1//EN"
 "http://www.w3.org/Graphics/SVG/1.1/DTD/svg11.dtd">
<!-- Generated by graphviz version 2.34.0 (20130907.0111)
 -->
<!-- Title: openalSource_t Pages: 1 -->
<svg width="541pt" height="300pt"
 viewBox="0.00 0.00 541.00 300.00" xmlns="http://www.w3.org/2000/svg" xmlns:xlink="http://www.w3.org/1999/xlink">
<g id="graph0" class="graph" transform="scale(1 1) rotate(0) translate(4 296)">
<title>openalSource_t</title>
<polygon fill="white" stroke="white" points="-4,4 -4,-296 537,-296 537,4 -4,4"/>
<!-- Node1 -->
<g id="node1" class="node"><title>Node1</title>
<polygon fill="#bfbfbf" stroke="black" points="224,-0.5 224,-19.5 308,-19.5 308,-0.5 224,-0.5"/>
<text text-anchor="middle" x="266" y="-7.5" font-family="Arial" font-size="10.00">openalSource_t</text>
</g>
<!-- Node2 -->
<g id="node2" class="node"><title>Node2</title>
<g id="a_node2"><a xlink:href="classid_sound_channel.html" target="_top" xlink:title="idSoundChannel">
<polygon fill="white" stroke="black" points="222.5,-68.5 222.5,-87.5 309.5,-87.5 309.5,-68.5 222.5,-68.5"/>
<text text-anchor="middle" x="266" y="-75.5" font-family="Arial" font-size="10.00">idSoundChannel</text>
</a>
</g>
</g>
<!-- Node2&#45;&gt;Node1 -->
<g id="edge1" class="edge"><title>Node2&#45;&gt;Node1</title>
<path fill="none" stroke="#9a32cd" stroke-dasharray="5,2" d="M266,-58.0413C266,-45.4724 266,-29.5631 266,-19.8411"/>
<polygon fill="#9a32cd" stroke="#9a32cd" points="262.5,-58.3716 266,-68.3717 269.5,-58.3717 262.5,-58.3716"/>
<text text-anchor="middle" x="278.5" y="-41.5" font-family="Arial" font-size="10.00"> chan</text>
</g>
<!-- Node3 -->
<g id="node3" class="node"><title>Node3</title>
<g id="a_node3"><a xlink:href="classid_sound_sample.html" target="_top" xlink:title="idSoundSample">
<polygon fill="white" stroke="black" points="15.5,-136.5 15.5,-155.5 100.5,-155.5 100.5,-136.5 15.5,-136.5"/>
<text text-anchor="middle" x="58" y="-143.5" font-family="Arial" font-size="10.00">idSoundSample</text>
</a>
</g>
</g>
<!-- Node3&#45;&gt;Node2 -->
<g id="edge2" class="edge"><title>Node3&#45;&gt;Node2</title>
<path fill="none" stroke="#9a32cd" stroke-dasharray="5,2" d="M77.2379,-130.475C89.2325,-122.103 105.322,-112.067 121,-106 153.717,-93.3404 192.943,-86.4979 222.342,-82.872"/>
<polygon fill="#9a32cd" stroke="#9a32cd" points="75.0026,-127.772 68.9383,-136.459 79.0967,-133.45 75.0026,-127.772"/>
<text text-anchor="middle" x="152" y="-109.5" font-family="Arial" font-size="10.00"> leadinSample</text>
</g>
<!-- Node4 -->
<g id="node4" class="node"><title>Node4</title>
<g id="a_node4"><a xlink:href="classid_str.html" target="_top" xlink:title="idStr">
<polygon fill="white" stroke="black" points="-0.5,-204.5 -0.5,-223.5 36.5,-223.5 36.5,-204.5 -0.5,-204.5"/>
<text text-anchor="middle" x="18" y="-211.5" font-family="Arial" font-size="10.00">idStr</text>
</a>
</g>
</g>
<!-- Node4&#45;&gt;Node3 -->
<g id="edge3" class="edge"><title>Node4&#45;&gt;Node3</title>
<path fill="none" stroke="#9a32cd" stroke-dasharray="5,2" d="M28.5679,-195.563C36.3143,-182.781 46.5091,-165.96 52.6417,-155.841"/>
<polygon fill="#9a32cd" stroke="#9a32cd" points="25.4192,-194.006 23.2293,-204.372 31.4056,-197.634 25.4192,-194.006"/>
<text text-anchor="middle" x="56" y="-177.5" font-family="Arial" font-size="10.00"> name</text>
</g>
<!-- Node5 -->
<g id="node5" class="node"><title>Node5</title>
<g id="a_node5"><a xlink:href="structwaveformatex__s.html" target="_top" xlink:title="waveformatex_s">
<polygon fill="white" stroke="black" points="55,-204.5 55,-223.5 141,-223.5 141,-204.5 55,-204.5"/>
<text text-anchor="middle" x="98" y="-211.5" font-family="Arial" font-size="10.00">waveformatex_s</text>
</a>
</g>
</g>
<!-- Node5&#45;&gt;Node3 -->
<g id="edge4" class="edge"><title>Node5&#45;&gt;Node3</title>
<path fill="none" stroke="#9a32cd" stroke-dasharray="5,2" d="M87.4321,-195.563C79.6857,-182.781 69.4909,-165.96 63.3583,-155.841"/>
<polygon fill="#9a32cd" stroke="#9a32cd" points="84.5944,-197.634 92.7707,-204.372 90.5808,-194.006 84.5944,-197.634"/>
<text text-anchor="middle" x="104.5" y="-177.5" font-family="Arial" font-size="10.00"> objectInfo</text>
</g>
<!-- Node6 -->
<g id="node6" class="node"><title>Node6</title>
<g id="a_node6"><a xlink:href="classid_sound_fade.html" target="_top" xlink:title="idSoundFade">
<polygon fill="white" stroke="black" points="119,-136.5 119,-155.5 193,-155.5 193,-136.5 119,-136.5"/>
<text text-anchor="middle" x="156" y="-143.5" font-family="Arial" font-size="10.00">idSoundFade</text>
</a>
</g>
</g>
<!-- Node6&#45;&gt;Node2 -->
<g id="edge5" class="edge"><title>Node6&#45;&gt;Node2</title>
<path fill="none" stroke="#9a32cd" stroke-dasharray="5,2" d="M172.24,-129.533C180.91,-121.809 192.031,-112.706 203,-106 215.081,-98.6133 229.544,-92.2598 241.563,-87.575"/>
<polygon fill="#9a32cd" stroke="#9a32cd" points="169.766,-127.053 164.765,-136.394 174.499,-132.211 169.766,-127.053"/>
<text text-anchor="middle" x="232.5" y="-109.5" font-family="Arial" font-size="10.00"> channelFade</text>
</g>
<!-- Node7 -->
<g id="node7" class="node"><title>Node7</title>
<g id="a_node7"><a xlink:href="structsound_shader_parms__t.html" target="_top" xlink:title="soundShaderParms_t">
<polygon fill="white" stroke="black" points="211,-136.5 211,-155.5 321,-155.5 321,-136.5 211,-136.5"/>
<text text-anchor="middle" x="266" y="-143.5" font-family="Arial" font-size="10.00">soundShaderParms_t</text>
</a>
</g>
</g>
<!-- Node7&#45;&gt;Node2 -->
<g id="edge6" class="edge"><title>Node7&#45;&gt;Node2</title>
<path fill="none" stroke="#9a32cd" stroke-dasharray="5,2" d="M266,-126.041C266,-113.472 266,-97.5631 266,-87.8411"/>
<polygon fill="#9a32cd" stroke="#9a32cd" points="262.5,-126.372 266,-136.372 269.5,-126.372 262.5,-126.372"/>
<text text-anchor="middle" x="281.5" y="-109.5" font-family="Arial" font-size="10.00"> parms</text>
</g>
<!-- Node8 -->
<g id="node8" class="node"><title>Node8</title>
<g id="a_node8"><a xlink:href="classid_sound_shader.html" target="_top" xlink:title="idSoundShader">
<polygon fill="white" stroke="black" points="339.5,-136.5 339.5,-155.5 422.5,-155.5 422.5,-136.5 339.5,-136.5"/>
<text text-anchor="middle" x="381" y="-143.5" font-family="Arial" font-size="10.00">idSoundShader</text>
</a>
</g>
</g>
<!-- Node8&#45;&gt;Node2 -->
<g id="edge7" class="edge"><title>Node8&#45;&gt;Node2</title>
<path fill="none" stroke="#9a32cd" stroke-dasharray="5,2" d="M357.199,-131.34C334.309,-118.204 300.411,-98.7487 281.038,-87.6305"/>
<polygon fill="#9a32cd" stroke="#9a32cd" points="355.55,-134.43 365.966,-136.372 359.035,-128.358 355.55,-134.43"/>
<text text-anchor="middle" x="364.5" y="-109.5" font-family="Arial" font-size="10.00"> soundShader</text>
</g>
<!-- Node9 -->
<g id="node9" class="node"><title>Node9</title>
<g id="a_node9"><a xlink:href="classid_decl.html" target="_top" xlink:title="idDecl">
<polygon fill="white" stroke="black" points="359,-204.5 359,-223.5 403,-223.5 403,-204.5 359,-204.5"/>
<text text-anchor="middle" x="381" y="-211.5" font-family="Arial" font-size="10.00">idDecl</text>
</a>
</g>
</g>
<!-- Node9&#45;&gt;Node8 -->
<g id="edge8" class="edge"><title>Node9&#45;&gt;Node8</title>
<path fill="none" stroke="midnightblue" d="M381,-194.041C381,-181.472 381,-165.563 381,-155.841"/>
<polygon fill="midnightblue" stroke="midnightblue" points="377.5,-194.372 381,-204.372 384.5,-194.372 377.5,-194.372"/>
</g>
<!-- Node10 -->
<g id="node10" class="node"><title>Node10</title>
<g id="a_node10"><a xlink:href="classid_decl_base.html" target="_top" xlink:title="idDeclBase">
<polygon fill="white" stroke="black" points="348,-272.5 348,-291.5 414,-291.5 414,-272.5 348,-272.5"/>
<text text-anchor="middle" x="381" y="-279.5" font-family="Arial" font-size="10.00">idDeclBase</text>
</a>
</g>
</g>
<!-- Node10&#45;&gt;Node9 -->
<g id="edge9" class="edge"><title>Node10&#45;&gt;Node9</title>
<path fill="none" stroke="#9a32cd" stroke-dasharray="5,2" d="M381,-262.041C381,-249.472 381,-233.563 381,-223.841"/>
<polygon fill="#9a32cd" stroke="#9a32cd" points="377.5,-262.372 381,-272.372 384.5,-262.372 377.5,-262.372"/>
<text text-anchor="middle" x="393.5" y="-245.5" font-family="Arial" font-size="10.00"> base</text>
</g>
<!-- Node11 -->
<g id="node11" class="node"><title>Node11</title>
<g id="a_node11"><a xlink:href="classid_sample_decoder.html" target="_top" xlink:title="idSampleDecoder">
<polygon fill="white" stroke="black" points="440.5,-136.5 440.5,-155.5 533.5,-155.5 533.5,-136.5 440.5,-136.5"/>
<text text-anchor="middle" x="487" y="-143.5" font-family="Arial" font-size="10.00">idSampleDecoder</text>
</a>
</g>
</g>
<!-- Node11&#45;&gt;Node2 -->
<g id="edge10" class="edge"><title>Node11&#45;&gt;Node2</title>
<path fill="none" stroke="#9a32cd" stroke-dasharray="5,2" d="M461.172,-131.77C443.935,-123.391 420.56,-112.876 399,-106 369.818,-96.6933 335.977,-89.8761 309.734,-85.42"/>
<polygon fill="#9a32cd" stroke="#9a32cd" points="460.036,-135.114 470.551,-136.414 463.142,-128.84 460.036,-135.114"/>
<text text-anchor="middle" x="448" y="-109.5" font-family="Arial" font-size="10.00"> decoder</text>
</g>
</g>
</svg>
