<?xml version="1.0" encoding="UTF-8" standalone="no"?>
<!DOCTYPE svg PUBLIC "-//W3C//DTD SVG 1.1//EN"
 "http://www.w3.org/Graphics/SVG/1.1/DTD/svg11.dtd">
<!-- Generated by graphviz version 2.34.0 (20130907.0111)
 -->
<!-- Title: CookieInfo Pages: 1 -->
<svg width="102pt" height="96pt"
 viewBox="0.00 0.00 102.00 96.00" xmlns="http://www.w3.org/2000/svg" xmlns:xlink="http://www.w3.org/1999/xlink">
<g id="graph0" class="graph" transform="scale(1 1) rotate(0) translate(4 92)">
<title>CookieInfo</title>
<polygon fill="white" stroke="white" points="-4,4 -4,-92 98,-92 98,4 -4,4"/>
<!-- Node1 -->
<g id="node1" class="node"><title>Node1</title>
<polygon fill="#bfbfbf" stroke="black" points="0,-0.5 0,-19.5 62,-19.5 62,-0.5 0,-0.5"/>
<text text-anchor="middle" x="31" y="-7.5" font-family="Arial" font-size="10.00">CookieInfo</text>
</g>
<!-- Node2 -->
<g id="node2" class="node"><title>Node2</title>
<g id="a_node2"><a xlink:href="struct_cookie.html" target="_top" xlink:title="Cookie">
<polygon fill="white" stroke="black" points="7.5,-68.5 7.5,-87.5 54.5,-87.5 54.5,-68.5 7.5,-68.5"/>
<text text-anchor="middle" x="31" y="-75.5" font-family="Arial" font-size="10.00">Cookie</text>
</a>
</g>
</g>
<!-- Node2&#45;&gt;Node1 -->
<g id="edge1" class="edge"><title>Node2&#45;&gt;Node1</title>
<path fill="none" stroke="#9a32cd" stroke-dasharray="5,2" d="M31,-58.0413C31,-45.4724 31,-29.5631 31,-19.8411"/>
<polygon fill="#9a32cd" stroke="#9a32cd" points="27.5001,-58.3716 31,-68.3717 34.5001,-58.3717 27.5001,-58.3716"/>
<text text-anchor="middle" x="49.5" y="-41.5" font-family="Arial" font-size="10.00"> cookies</text>
</g>
<!-- Node2&#45;&gt;Node2 -->
<g id="edge2" class="edge"><title>Node2&#45;&gt;Node2</title>
<path fill="none" stroke="#9a32cd" stroke-dasharray="5,2" d="M64.605,-83.6249C69.0506,-82.6671 72,-80.7922 72,-78 72,-73.418 64.0573,-71.3059 54.5942,-71.6639"/>
<polygon fill="#9a32cd" stroke="#9a32cd" points="64.321,-80.1362 54.5942,-84.3361 64.8171,-87.1186 64.321,-80.1362"/>
<text text-anchor="middle" x="83" y="-75.5" font-family="Arial" font-size="10.00"> next</text>
</g>
</g>
</svg>
