<?xml version="1.0" encoding="UTF-8" standalone="no"?>
<!DOCTYPE svg PUBLIC "-//W3C//DTD SVG 1.1//EN"
 "http://www.w3.org/Graphics/SVG/1.1/DTD/svg11.dtd">
<!-- Generated by graphviz version 2.34.0 (20130907.0111)
 -->
<!-- Title: cm_trmPolygon_s Pages: 1 -->
<svg width="157pt" height="96pt"
 viewBox="0.00 0.00 157.00 96.00" xmlns="http://www.w3.org/2000/svg" xmlns:xlink="http://www.w3.org/1999/xlink">
<g id="graph0" class="graph" transform="scale(1 1) rotate(0) translate(4 92)">
<title>cm_trmPolygon_s</title>
<polygon fill="white" stroke="white" points="-4,4 -4,-92 153,-92 153,4 -4,4"/>
<!-- Node1 -->
<g id="node1" class="node"><title>Node1</title>
<polygon fill="#bfbfbf" stroke="black" points="11.5,-0.5 11.5,-19.5 106.5,-19.5 106.5,-0.5 11.5,-0.5"/>
<text text-anchor="middle" x="59" y="-7.5" font-family="Arial" font-size="10.00">cm_trmPolygon_s</text>
</g>
<!-- Node2 -->
<g id="node2" class="node"><title>Node2</title>
<g id="a_node2"><a xlink:href="classid_plane.html" target="_top" xlink:title="idPlane">
<polygon fill="white" stroke="black" points="-0.5,-68.5 -0.5,-87.5 48.5,-87.5 48.5,-68.5 -0.5,-68.5"/>
<text text-anchor="middle" x="24" y="-75.5" font-family="Arial" font-size="10.00">idPlane</text>
</a>
</g>
</g>
<!-- Node2&#45;&gt;Node1 -->
<g id="edge1" class="edge"><title>Node2&#45;&gt;Node1</title>
<path fill="none" stroke="#9a32cd" stroke-dasharray="5,2" d="M33.4469,-59.1859C40.1995,-46.4523 48.9981,-29.8607 54.3115,-19.8411"/>
<polygon fill="#9a32cd" stroke="#9a32cd" points="30.1686,-57.8972 28.5756,-68.3717 36.3528,-61.1768 30.1686,-57.8972"/>
<text text-anchor="middle" x="58.5" y="-41.5" font-family="Arial" font-size="10.00"> plane</text>
</g>
<!-- Node3 -->
<g id="node3" class="node"><title>Node3</title>
<g id="a_node3"><a xlink:href="classid_bounds.html" target="_top" xlink:title="idBounds">
<polygon fill="white" stroke="black" points="66.5,-68.5 66.5,-87.5 123.5,-87.5 123.5,-68.5 66.5,-68.5"/>
<text text-anchor="middle" x="95" y="-75.5" font-family="Arial" font-size="10.00">idBounds</text>
</a>
</g>
</g>
<!-- Node3&#45;&gt;Node1 -->
<g id="edge2" class="edge"><title>Node3&#45;&gt;Node1</title>
<path fill="none" stroke="#9a32cd" stroke-dasharray="5,2" d="M85.4889,-59.563C78.5172,-46.7815 69.3418,-29.9599 63.8224,-19.8411"/>
<polygon fill="#9a32cd" stroke="#9a32cd" points="82.4324,-61.2687 90.2936,-68.3717 88.5777,-57.9167 82.4324,-61.2687"/>
<text text-anchor="middle" x="114.5" y="-41.5" font-family="Arial" font-size="10.00"> rotationBounds</text>
</g>
</g>
</svg>
