<?xml version="1.0" encoding="UTF-8" standalone="no"?>
<!DOCTYPE svg PUBLIC "-//W3C//DTD SVG 1.1//EN"
 "http://www.w3.org/Graphics/SVG/1.1/DTD/svg11.dtd">
<!-- Generated by graphviz version 2.34.0 (20130907.0111)
 -->
<!-- Title: private_state Pages: 1 -->
<svg width="498pt" height="256pt"
 viewBox="0.00 0.00 498.00 256.00" xmlns="http://www.w3.org/2000/svg" xmlns:xlink="http://www.w3.org/1999/xlink">
<g id="graph0" class="graph" transform="scale(1 1) rotate(0) translate(4 252)">
<title>private_state</title>
<polygon fill="white" stroke="white" points="-4,4 -4,-252 494,-252 494,4 -4,4"/>
<!-- Node1 -->
<g id="node1" class="node"><title>Node1</title>
<polygon fill="#bfbfbf" stroke="black" points="418.5,-100.5 418.5,-119.5 489.5,-119.5 489.5,-100.5 418.5,-100.5"/>
<text text-anchor="middle" x="454" y="-107.5" font-family="Arial" font-size="10.00">private_state</text>
</g>
<!-- Node2 -->
<g id="node2" class="node"><title>Node2</title>
<g id="a_node2"><a xlink:href="structbitrate__manager__state.html" target="_top" xlink:title="bitrate_manager_state">
<polygon fill="white" stroke="black" points="213.5,-190.5 213.5,-209.5 326.5,-209.5 326.5,-190.5 213.5,-190.5"/>
<text text-anchor="middle" x="270" y="-197.5" font-family="Arial" font-size="10.00">bitrate_manager_state</text>
</a>
</g>
</g>
<!-- Node2&#45;&gt;Node1 -->
<g id="edge1" class="edge"><title>Node2&#45;&gt;Node1</title>
<path fill="none" stroke="#9a32cd" stroke-dasharray="5,2" d="M316.65,-187.449C342.09,-179.467 373.819,-167.834 400,-153 416.495,-143.654 433.074,-129.194 443.189,-119.663"/>
<polygon fill="#9a32cd" stroke="#9a32cd" points="315.421,-184.165 306.88,-190.434 317.466,-190.86 315.421,-184.165"/>
<text text-anchor="middle" x="373" y="-179" font-family="Arial" font-size="10.00"> bms</text>
</g>
<!-- Node3 -->
<g id="node3" class="node"><title>Node3</title>
<g id="a_node3"><a xlink:href="structogg__packet.html" target="_top" xlink:title="ogg_packet">
<polygon fill="white" stroke="black" points="23.5,-228.5 23.5,-247.5 90.5,-247.5 90.5,-228.5 23.5,-228.5"/>
<text text-anchor="middle" x="57" y="-235.5" font-family="Arial" font-size="10.00">ogg_packet</text>
</a>
</g>
</g>
<!-- Node3&#45;&gt;Node2 -->
<g id="edge2" class="edge"><title>Node3&#45;&gt;Node2</title>
<path fill="none" stroke="#9a32cd" stroke-dasharray="5,2" d="M100.946,-231.074C127.739,-226.67 162.92,-220.735 194,-215 203.141,-213.313 212.89,-211.428 222.232,-209.578"/>
<polygon fill="#9a32cd" stroke="#9a32cd" points="100.053,-227.674 90.7493,-232.743 101.183,-234.582 100.053,-227.674"/>
<text text-anchor="middle" x="163" y="-228" font-family="Arial" font-size="10.00"> packets</text>
</g>
<!-- Node4 -->
<g id="node4" class="node"><title>Node4</title>
<g id="a_node4"><a xlink:href="structoggpack__buffer.html" target="_top" xlink:title="oggpack_buffer">
<polygon fill="white" stroke="black" points="16,-190.5 16,-209.5 98,-209.5 98,-190.5 16,-190.5"/>
<text text-anchor="middle" x="57" y="-197.5" font-family="Arial" font-size="10.00">oggpack_buffer</text>
</a>
</g>
</g>
<!-- Node4&#45;&gt;Node2 -->
<g id="edge3" class="edge"><title>Node4&#45;&gt;Node2</title>
<path fill="none" stroke="#9a32cd" stroke-dasharray="5,2" d="M108.53,-200C140.146,-200 180.9,-200 213.425,-200"/>
<polygon fill="#9a32cd" stroke="#9a32cd" points="108.184,-196.5 98.1841,-200 108.184,-203.5 108.184,-196.5"/>
<text text-anchor="middle" x="163" y="-203" font-family="Arial" font-size="10.00"> packetbuffers</text>
</g>
<!-- Node5 -->
<g id="node5" class="node"><title>Node5</title>
<g id="a_node5"><a xlink:href="structvorbis__look__psy.html" target="_top" xlink:title="vorbis_look_psy">
<polygon fill="white" stroke="black" points="227,-147.5 227,-166.5 313,-166.5 313,-147.5 227,-147.5"/>
<text text-anchor="middle" x="270" y="-154.5" font-family="Arial" font-size="10.00">vorbis_look_psy</text>
</a>
</g>
</g>
<!-- Node5&#45;&gt;Node1 -->
<g id="edge4" class="edge"><title>Node5&#45;&gt;Node1</title>
<path fill="none" stroke="#9a32cd" stroke-dasharray="5,2" d="M320.831,-145.041C344.812,-139.183 373.948,-131.916 400,-125 406.47,-123.282 413.364,-121.383 419.967,-119.529"/>
<polygon fill="#9a32cd" stroke="#9a32cd" points="319.782,-141.694 310.893,-147.46 321.437,-148.495 319.782,-141.694"/>
<text text-anchor="middle" x="373" y="-141" font-family="Arial" font-size="10.00"> psy</text>
</g>
<!-- Node6 -->
<g id="node6" class="node"><title>Node6</title>
<g id="a_node6"><a xlink:href="structvorbis__info__psy.html" target="_top" xlink:title="vorbis_info_psy">
<polygon fill="white" stroke="black" points="15.5,-152.5 15.5,-171.5 98.5,-171.5 98.5,-152.5 15.5,-152.5"/>
<text text-anchor="middle" x="57" y="-159.5" font-family="Arial" font-size="10.00">vorbis_info_psy</text>
</a>
</g>
</g>
<!-- Node6&#45;&gt;Node5 -->
<g id="edge5" class="edge"><title>Node6&#45;&gt;Node5</title>
<path fill="none" stroke="#9a32cd" stroke-dasharray="5,2" d="M109.018,-160.791C145.16,-159.935 193.059,-158.8 226.998,-157.995"/>
<polygon fill="#9a32cd" stroke="#9a32cd" points="108.597,-157.3 98.6829,-161.036 108.763,-164.298 108.597,-157.3"/>
<text text-anchor="middle" x="163" y="-163" font-family="Arial" font-size="10.00"> vi</text>
</g>
<!-- Node7 -->
<g id="node7" class="node"><title>Node7</title>
<g id="a_node7"><a xlink:href="structenvelope__lookup.html" target="_top" xlink:title="envelope_lookup">
<polygon fill="white" stroke="black" points="226,-100.5 226,-119.5 314,-119.5 314,-100.5 226,-100.5"/>
<text text-anchor="middle" x="270" y="-107.5" font-family="Arial" font-size="10.00">envelope_lookup</text>
</a>
</g>
</g>
<!-- Node7&#45;&gt;Node1 -->
<g id="edge6" class="edge"><title>Node7&#45;&gt;Node1</title>
<path fill="none" stroke="#9a32cd" stroke-dasharray="5,2" d="M324.149,-110C354.537,-110 391.778,-110 418.394,-110"/>
<polygon fill="#9a32cd" stroke="#9a32cd" points="324.131,-106.5 314.131,-110 324.131,-113.5 324.131,-106.5"/>
<text text-anchor="middle" x="373" y="-113" font-family="Arial" font-size="10.00"> ve</text>
</g>
<!-- Node8 -->
<g id="node8" class="node"><title>Node8</title>
<g id="a_node8"><a xlink:href="structenvelope__band.html" target="_top" xlink:title="envelope_band">
<polygon fill="white" stroke="black" points="17,-114.5 17,-133.5 97,-133.5 97,-114.5 17,-114.5"/>
<text text-anchor="middle" x="57" y="-121.5" font-family="Arial" font-size="10.00">envelope_band</text>
</a>
</g>
</g>
<!-- Node8&#45;&gt;Node7 -->
<g id="edge7" class="edge"><title>Node8&#45;&gt;Node7</title>
<path fill="none" stroke="#9a32cd" stroke-dasharray="5,2" d="M107.428,-120.72C143.276,-118.342 191.299,-115.156 225.654,-112.876"/>
<polygon fill="#9a32cd" stroke="#9a32cd" points="106.939,-117.245 97.193,-121.4 107.403,-124.23 106.939,-117.245"/>
<text text-anchor="middle" x="163" y="-122" font-family="Arial" font-size="10.00"> band</text>
</g>
<!-- Node9 -->
<g id="node9" class="node"><title>Node9</title>
<g id="a_node9"><a xlink:href="structmdct__lookup.html" target="_top" xlink:title="mdct_lookup">
<polygon fill="white" stroke="black" points="21,-76.5 21,-95.5 93,-95.5 93,-76.5 21,-76.5"/>
<text text-anchor="middle" x="57" y="-83.5" font-family="Arial" font-size="10.00">mdct_lookup</text>
</a>
</g>
</g>
<!-- Node9&#45;&gt;Node7 -->
<g id="edge8" class="edge"><title>Node9&#45;&gt;Node7</title>
<path fill="none" stroke="#9a32cd" stroke-dasharray="5,2" d="M103.366,-90.3268C129.824,-92.9359 163.826,-96.4361 194,-100 204.306,-101.217 215.393,-102.635 225.799,-104.015"/>
<polygon fill="#9a32cd" stroke="#9a32cd" points="103.549,-86.828 93.2552,-89.3368 102.867,-93.7947 103.549,-86.828"/>
<text text-anchor="middle" x="163" y="-103" font-family="Arial" font-size="10.00"> mdct</text>
</g>
<!-- Node10 -->
<g id="node10" class="node"><title>Node10</title>
<g id="a_node10"><a xlink:href="structenvelope__filter__state.html" target="_top" xlink:title="envelope_filter_state">
<polygon fill="white" stroke="black" points="5,-38.5 5,-57.5 109,-57.5 109,-38.5 5,-38.5"/>
<text text-anchor="middle" x="57" y="-45.5" font-family="Arial" font-size="10.00">envelope_filter_state</text>
</a>
</g>
</g>
<!-- Node10&#45;&gt;Node7 -->
<g id="edge9" class="edge"><title>Node10&#45;&gt;Node7</title>
<path fill="none" stroke="#9a32cd" stroke-dasharray="5,2" d="M119.354,-56.05C143.339,-60.5905 170.639,-67.5313 194,-78 203.005,-82.0356 203.218,-86.499 212,-91 219.148,-94.6635 227.153,-97.842 234.852,-100.496"/>
<polygon fill="#9a32cd" stroke="#9a32cd" points="119.76,-52.567 109.299,-54.2478 118.525,-59.4572 119.76,-52.567"/>
<text text-anchor="middle" x="163" y="-81" font-family="Arial" font-size="10.00"> filter</text>
</g>
<!-- Node11 -->
<g id="node11" class="node"><title>Node11</title>
<g id="a_node11"><a xlink:href="structdrft__lookup.html" target="_top" xlink:title="drft_lookup">
<polygon fill="white" stroke="black" points="238,-62.5 238,-81.5 302,-81.5 302,-62.5 238,-62.5"/>
<text text-anchor="middle" x="270" y="-69.5" font-family="Arial" font-size="10.00">drft_lookup</text>
</a>
</g>
</g>
<!-- Node11&#45;&gt;Node1 -->
<g id="edge10" class="edge"><title>Node11&#45;&gt;Node1</title>
<path fill="none" stroke="#9a32cd" stroke-dasharray="5,2" d="M312.23,-78.2793C337.658,-82.4169 370.87,-88.2983 400,-95 406.896,-96.5866 414.234,-98.5092 421.182,-100.441"/>
<polygon fill="#9a32cd" stroke="#9a32cd" points="312.621,-74.7975 302.193,-76.6708 311.513,-81.7093 312.621,-74.7975"/>
<text text-anchor="middle" x="373" y="-98" font-family="Arial" font-size="10.00"> fft_look</text>
</g>
<!-- Node12 -->
<g id="node12" class="node"><title>Node12</title>
<g id="a_node12"><a xlink:href="structvorbis__look__psy__global.html" target="_top" xlink:title="vorbis_look_psy_global">
<polygon fill="white" stroke="black" points="212,-5.5 212,-24.5 328,-24.5 328,-5.5 212,-5.5"/>
<text text-anchor="middle" x="270" y="-12.5" font-family="Arial" font-size="10.00">vorbis_look_psy_global</text>
</a>
</g>
</g>
<!-- Node12&#45;&gt;Node1 -->
<g id="edge11" class="edge"><title>Node12&#45;&gt;Node1</title>
<path fill="none" stroke="#9a32cd" stroke-dasharray="5,2" d="M309.316,-28.0248C335.657,-37.6938 370.98,-52.0963 400,-69 415.682,-78.1341 431.932,-91.3609 442.235,-100.301"/>
<polygon fill="#9a32cd" stroke="#9a32cd" points="310.286,-24.6543 299.692,-24.5555 307.912,-31.2394 310.286,-24.6543"/>
<text text-anchor="middle" x="373" y="-72" font-family="Arial" font-size="10.00"> psy_g_look</text>
</g>
<!-- Node13 -->
<g id="node13" class="node"><title>Node13</title>
<g id="a_node13"><a xlink:href="structvorbis__info__psy__global.html" target="_top" xlink:title="vorbis_info_psy_global">
<polygon fill="white" stroke="black" points="0.5,-0.5 0.5,-19.5 113.5,-19.5 113.5,-0.5 0.5,-0.5"/>
<text text-anchor="middle" x="57" y="-7.5" font-family="Arial" font-size="10.00">vorbis_info_psy_global</text>
</a>
</g>
</g>
<!-- Node13&#45;&gt;Node12 -->
<g id="edge12" class="edge"><title>Node13&#45;&gt;Node12</title>
<path fill="none" stroke="#9a32cd" stroke-dasharray="5,2" d="M123.886,-11.5613C152.088,-12.2296 184.709,-13.0026 211.87,-13.6462"/>
<polygon fill="#9a32cd" stroke="#9a32cd" points="123.794,-8.05821 113.714,-11.3202 123.628,-15.0562 123.794,-8.05821"/>
<text text-anchor="middle" x="163" y="-16" font-family="Arial" font-size="10.00"> gi</text>
</g>
</g>
</svg>
