<?xml version="1.0" encoding="UTF-8" standalone="no"?>
<!DOCTYPE svg PUBLIC "-//W3C//DTD SVG 1.1//EN"
 "http://www.w3.org/Graphics/SVG/1.1/DTD/svg11.dtd">
<!-- Generated by graphviz version 2.34.0 (20130907.0111)
 -->
<!-- Title: my_main_controller Pages: 1 -->
<svg width="258pt" height="96pt"
 viewBox="0.00 0.00 258.00 96.00" xmlns="http://www.w3.org/2000/svg" xmlns:xlink="http://www.w3.org/1999/xlink">
<g id="graph0" class="graph" transform="scale(1 1) rotate(0) translate(4 92)">
<title>my_main_controller</title>
<polygon fill="white" stroke="white" points="-4,4 -4,-92 254,-92 254,4 -4,4"/>
<!-- Node1 -->
<g id="node1" class="node"><title>Node1</title>
<polygon fill="#bfbfbf" stroke="black" points="74.5,-0.5 74.5,-19.5 175.5,-19.5 175.5,-0.5 74.5,-0.5"/>
<text text-anchor="middle" x="125" y="-7.5" font-family="Arial" font-size="10.00">my_main_controller</text>
</g>
<!-- Node2 -->
<g id="node2" class="node"><title>Node2</title>
<g id="a_node2"><a xlink:href="structjpeg__d__main__controller.html" target="_top" xlink:title="jpeg_d_main_controller">
<polygon fill="white" stroke="black" points="0,-68.5 0,-87.5 116,-87.5 116,-68.5 0,-68.5"/>
<text text-anchor="middle" x="58" y="-75.5" font-family="Arial" font-size="10.00">jpeg_d_main_controller</text>
</a>
</g>
</g>
<!-- Node2&#45;&gt;Node1 -->
<g id="edge1" class="edge"><title>Node2&#45;&gt;Node1</title>
<path fill="none" stroke="#9a32cd" stroke-dasharray="5,2" d="M74.1943,-61.0474C87.3266,-48.1111 105.35,-30.3567 116.025,-19.8411"/>
<polygon fill="#9a32cd" stroke="#9a32cd" points="71.4269,-58.8605 66.7591,-68.3717 76.3393,-63.8473 71.4269,-58.8605"/>
<text text-anchor="middle" x="107.5" y="-41.5" font-family="Arial" font-size="10.00"> pub</text>
</g>
<!-- Node3 -->
<g id="node3" class="node"><title>Node3</title>
<g id="a_node3"><a xlink:href="structjpeg__c__main__controller.html" target="_top" xlink:title="jpeg_c_main_controller">
<polygon fill="white" stroke="black" points="134,-68.5 134,-87.5 250,-87.5 250,-68.5 134,-68.5"/>
<text text-anchor="middle" x="192" y="-75.5" font-family="Arial" font-size="10.00">jpeg_c_main_controller</text>
</a>
</g>
</g>
<!-- Node3&#45;&gt;Node1 -->
<g id="edge2" class="edge"><title>Node3&#45;&gt;Node1</title>
<path fill="none" stroke="#9a32cd" stroke-dasharray="5,2" d="M175.806,-61.0474C162.673,-48.1111 144.65,-30.3567 133.975,-19.8411"/>
<polygon fill="#9a32cd" stroke="#9a32cd" points="173.661,-63.8473 183.241,-68.3717 178.573,-58.8605 173.661,-63.8473"/>
<text text-anchor="middle" x="173.5" y="-41.5" font-family="Arial" font-size="10.00"> pub</text>
</g>
</g>
</svg>
