<?xml version="1.0" encoding="UTF-8" standalone="no"?>
<!DOCTYPE svg PUBLIC "-//W3C//DTD SVG 1.1//EN"
 "http://www.w3.org/Graphics/SVG/1.1/DTD/svg11.dtd">
<!-- Generated by graphviz version 2.34.0 (20130907.0111)
 -->
<!-- Title: jpeg_memory_mgr Pages: 1 -->
<svg width="302pt" height="164pt"
 viewBox="0.00 0.00 302.00 164.00" xmlns="http://www.w3.org/2000/svg" xmlns:xlink="http://www.w3.org/1999/xlink">
<g id="graph0" class="graph" transform="scale(1 1) rotate(0) translate(4 160)">
<title>jpeg_memory_mgr</title>
<polygon fill="white" stroke="white" points="-4,4 -4,-160 298,-160 298,4 -4,4"/>
<!-- Node1 -->
<g id="node1" class="node"><title>Node1</title>
<polygon fill="#bfbfbf" stroke="black" points="66.5,-0.5 66.5,-19.5 163.5,-19.5 163.5,-0.5 66.5,-0.5"/>
<text text-anchor="middle" x="115" y="-7.5" font-family="Arial" font-size="10.00">jpeg_memory_mgr</text>
</g>
<!-- Node2 -->
<g id="node2" class="node"><title>Node2</title>
<g id="a_node2"><a xlink:href="structjvirt__barray__control.html" target="_top" xlink:title="jvirt_barray_control">
<polygon fill="white" stroke="black" points="0,-68.5 0,-87.5 98,-87.5 98,-68.5 0,-68.5"/>
<text text-anchor="middle" x="49" y="-75.5" font-family="Arial" font-size="10.00">jvirt_barray_control</text>
</a>
</g>
</g>
<!-- Node2&#45;&gt;Node1 -->
<g id="edge1" class="edge"><title>Node2&#45;&gt;Node1</title>
<path fill="none" stroke="#9a32cd" stroke-dasharray="5,2" d="M63.8794,-60.8697C70.5458,-53.7598 78.5656,-45.3649 86,-38 92.3531,-31.7063 99.7322,-24.842 105.457,-19.6097"/>
<polygon fill="#9a32cd" stroke="#9a32cd" points="61.0414,-58.7818 56.7917,-68.487 66.166,-63.5502 61.0414,-58.7818"/>
<text text-anchor="middle" x="128.5" y="-41.5" font-family="Arial" font-size="10.00"> request_virt_barray</text>
</g>
<!-- Node2&#45;&gt;Node2 -->
<g id="edge2" class="edge"><title>Node2&#45;&gt;Node2</title>
<path fill="none" stroke="#9a32cd" stroke-dasharray="5,2" d="M108.323,-82.8612C113.065,-81.7993 116,-80.179 116,-78 116,-74.5137 108.486,-72.4573 98.0804,-71.8308"/>
<polygon fill="#9a32cd" stroke="#9a32cd" points="107.556,-79.4305 98.0804,-84.1692 108.443,-86.3741 107.556,-79.4305"/>
<text text-anchor="middle" x="127" y="-75.5" font-family="Arial" font-size="10.00"> next</text>
</g>
<!-- Node3 -->
<g id="node3" class="node"><title>Node3</title>
<g id="a_node3"><a xlink:href="structbacking__store__struct.html" target="_top" xlink:title="backing_store_struct">
<polygon fill="white" stroke="black" points="84.5,-136.5 84.5,-155.5 191.5,-155.5 191.5,-136.5 84.5,-136.5"/>
<text text-anchor="middle" x="138" y="-143.5" font-family="Arial" font-size="10.00">backing_store_struct</text>
</a>
</g>
</g>
<!-- Node3&#45;&gt;Node2 -->
<g id="edge3" class="edge"><title>Node3&#45;&gt;Node2</title>
<path fill="none" stroke="#9a32cd" stroke-dasharray="5,2" d="M117.902,-130.096C100.244,-117.001 75.1644,-98.4028 60.6381,-87.6305"/>
<polygon fill="#9a32cd" stroke="#9a32cd" points="116.248,-133.226 126.365,-136.372 120.417,-127.604 116.248,-133.226"/>
<text text-anchor="middle" x="122" y="-109.5" font-family="Arial" font-size="10.00"> b_s_info</text>
</g>
<!-- Node4 -->
<g id="node4" class="node"><title>Node4</title>
<g id="a_node4"><a xlink:href="structjvirt__sarray__control.html" target="_top" xlink:title="jvirt_sarray_control">
<polygon fill="white" stroke="black" points="156,-68.5 156,-87.5 254,-87.5 254,-68.5 156,-68.5"/>
<text text-anchor="middle" x="205" y="-75.5" font-family="Arial" font-size="10.00">jvirt_sarray_control</text>
</a>
</g>
</g>
<!-- Node3&#45;&gt;Node4 -->
<g id="edge6" class="edge"><title>Node3&#45;&gt;Node4</title>
<path fill="none" stroke="#9a32cd" stroke-dasharray="5,2" d="M154.194,-129.047C167.327,-116.111 185.35,-98.3567 196.025,-87.8411"/>
<polygon fill="#9a32cd" stroke="#9a32cd" points="151.427,-126.86 146.759,-136.372 156.339,-131.847 151.427,-126.86"/>
<text text-anchor="middle" x="197" y="-109.5" font-family="Arial" font-size="10.00"> b_s_info</text>
</g>
<!-- Node4&#45;&gt;Node1 -->
<g id="edge4" class="edge"><title>Node4&#45;&gt;Node1</title>
<path fill="none" stroke="#9a32cd" stroke-dasharray="5,2" d="M192.894,-60.2403C186.909,-52.7704 179.214,-44.2641 171,-38 161.044,-30.4078 148.613,-24.1523 137.994,-19.581"/>
<polygon fill="#9a32cd" stroke="#9a32cd" points="190.219,-62.5038 199.063,-68.3369 195.787,-58.2614 190.219,-62.5038"/>
<text text-anchor="middle" x="225.5" y="-41.5" font-family="Arial" font-size="10.00"> request_virt_sarray</text>
</g>
<!-- Node4&#45;&gt;Node4 -->
<g id="edge5" class="edge"><title>Node4&#45;&gt;Node4</title>
<path fill="none" stroke="#9a32cd" stroke-dasharray="5,2" d="M264.323,-82.8612C269.065,-81.7993 272,-80.179 272,-78 272,-74.5137 264.486,-72.4573 254.08,-71.8308"/>
<polygon fill="#9a32cd" stroke="#9a32cd" points="263.556,-79.4305 254.08,-84.1692 264.443,-86.3741 263.556,-79.4305"/>
<text text-anchor="middle" x="283" y="-75.5" font-family="Arial" font-size="10.00"> next</text>
</g>
</g>
</svg>
