<?xml version="1.0" encoding="UTF-8" standalone="no"?>
<!DOCTYPE svg PUBLIC "-//W3C//DTD SVG 1.1//EN"
 "http://www.w3.org/Graphics/SVG/1.1/DTD/svg11.dtd">
<!-- Generated by graphviz version 2.34.0 (20130907.0111)
 -->
<!-- Title: jpeg_marker_reader Pages: 1 -->
<svg width="776pt" height="738pt"
 viewBox="0.00 0.00 776.00 738.05" xmlns="http://www.w3.org/2000/svg" xmlns:xlink="http://www.w3.org/1999/xlink">
<g id="graph0" class="graph" transform="scale(1 1) rotate(0) translate(4 734.051)">
<title>jpeg_marker_reader</title>
<polygon fill="white" stroke="white" points="-4,4 -4,-734.051 772,-734.051 772,4 -4,4"/>
<!-- Node1 -->
<g id="node1" class="node"><title>Node1</title>
<polygon fill="#bfbfbf" stroke="black" points="411,-672.551 411,-691.551 513,-691.551 513,-672.551 411,-672.551"/>
<text text-anchor="middle" x="462" y="-679.551" font-family="Arial" font-size="10.00">jpeg_marker_reader</text>
</g>
<!-- Node2 -->
<g id="node2" class="node"><title>Node2</title>
<g id="a_node2"><a xlink:href="structjpeg__decompress__struct.html" target="_top" xlink:title="jpeg_decompress_struct">
<polygon fill="white" stroke="black" points="644.5,-344.551 644.5,-363.551 767.5,-363.551 767.5,-344.551 644.5,-344.551"/>
<text text-anchor="middle" x="706" y="-351.551" font-family="Arial" font-size="10.00">jpeg_decompress_struct</text>
</a>
</g>
</g>
<!-- Node1&#45;&gt;Node2 -->
<g id="edge20" class="edge"><title>Node1&#45;&gt;Node2</title>
<path fill="none" stroke="#9a32cd" stroke-dasharray="5,2" d="M507.764,-669.907C517.706,-667.268 528.201,-664.526 538,-662.051 576.985,-652.203 597.084,-668.991 626,-641.051 667.904,-600.563 697.282,-408.716 703.688,-363.578"/>
<polygon fill="#9a32cd" stroke="#9a32cd" points="506.813,-666.539 498.053,-672.499 508.618,-673.302 506.813,-666.539"/>
<text text-anchor="middle" x="582" y="-665.051" font-family="Arial" font-size="10.00"> marker</text>
</g>
<!-- Node2&#45;&gt;Node1 -->
<g id="edge1" class="edge"><title>Node2&#45;&gt;Node1</title>
<path fill="none" stroke="#9a32cd" stroke-dasharray="5,2" d="M703.17,-373.842C696.831,-437.657 673.548,-636.111 626,-675.051 590.39,-704.214 534.311,-699.174 498.097,-691.603"/>
<polygon fill="#9a32cd" stroke="#9a32cd" points="706.685,-373.852 704.159,-363.563 699.717,-373.182 706.685,-373.852"/>
<text text-anchor="middle" x="582" y="-722.051" font-family="Arial" font-size="10.00"> process_APPn</text>
<text text-anchor="middle" x="582" y="-711.051" font-family="Arial" font-size="10.00">process_COM</text>
<text text-anchor="middle" x="582" y="-700.051" font-family="Arial" font-size="10.00">read_restart_marker</text>
</g>
<!-- Node3 -->
<g id="node3" class="node"><title>Node3</title>
<g id="a_node3"><a xlink:href="structjpeg__color__quantizer.html" target="_top" xlink:title="jpeg_color_quantizer">
<polygon fill="white" stroke="black" points="409,-619.551 409,-638.551 515,-638.551 515,-619.551 409,-619.551"/>
<text text-anchor="middle" x="462" y="-626.551" font-family="Arial" font-size="10.00">jpeg_color_quantizer</text>
</a>
</g>
</g>
<!-- Node3&#45;&gt;Node2 -->
<g id="edge2" class="edge"><title>Node3&#45;&gt;Node2</title>
<path fill="none" stroke="#9a32cd" stroke-dasharray="5,2" d="M525.383,-627.438C564.763,-625.16 610.946,-619.76 626,-607.051 703.353,-541.746 706.099,-401.837 705.342,-363.779"/>
<polygon fill="#9a32cd" stroke="#9a32cd" points="525.083,-623.949 515.278,-627.965 525.447,-630.94 525.083,-623.949"/>
<text text-anchor="middle" x="582" y="-629.051" font-family="Arial" font-size="10.00"> cquantize</text>
</g>
<!-- Node4 -->
<g id="node4" class="node"><title>Node4</title>
<g id="a_node4"><a xlink:href="struct_j_q_u_a_n_t___t_b_l.html" target="_top" xlink:title="JQUANT_TBL">
<polygon fill="white" stroke="black" points="194.5,-560.551 194.5,-579.551 271.5,-579.551 271.5,-560.551 194.5,-560.551"/>
<text text-anchor="middle" x="233" y="-567.551" font-family="Arial" font-size="10.00">JQUANT_TBL</text>
</a>
</g>
</g>
<!-- Node4&#45;&gt;Node2 -->
<g id="edge3" class="edge"><title>Node4&#45;&gt;Node2</title>
<path fill="none" stroke="#9a32cd" stroke-dasharray="5,2" d="M282.048,-567.822C380.589,-562.869 598.64,-549.803 626,-530.051 683.841,-488.294 700.121,-394.183 703.958,-363.745"/>
<polygon fill="#9a32cd" stroke="#9a32cd" points="281.582,-564.341 271.767,-568.331 281.928,-571.332 281.582,-564.341"/>
<text text-anchor="middle" x="462" y="-563.051" font-family="Arial" font-size="10.00"> quant_tbl_ptrs</text>
</g>
<!-- Node11 -->
<g id="node11" class="node"><title>Node11</title>
<g id="a_node11"><a xlink:href="structjpeg__component__info.html" target="_top" xlink:title="jpeg_component_info">
<polygon fill="white" stroke="black" points="408,-581.551 408,-600.551 516,-600.551 516,-581.551 408,-581.551"/>
<text text-anchor="middle" x="462" y="-588.551" font-family="Arial" font-size="10.00">jpeg_component_info</text>
</a>
</g>
</g>
<!-- Node4&#45;&gt;Node11 -->
<g id="edge14" class="edge"><title>Node4&#45;&gt;Node11</title>
<path fill="none" stroke="#9a32cd" stroke-dasharray="5,2" d="M281.748,-574.468C318.642,-577.881 369.684,-582.603 407.869,-586.136"/>
<polygon fill="#9a32cd" stroke="#9a32cd" points="282.019,-570.978 271.739,-573.542 281.374,-577.949 282.019,-570.978"/>
<text text-anchor="middle" x="343" y="-586.051" font-family="Arial" font-size="10.00"> quant_table</text>
</g>
<!-- Node5 -->
<g id="node5" class="node"><title>Node5</title>
<g id="a_node5"><a xlink:href="struct_j_h_u_f_f___t_b_l.html" target="_top" xlink:title="JHUFF_TBL">
<polygon fill="white" stroke="black" points="427.5,-496.551 427.5,-515.551 496.5,-515.551 496.5,-496.551 427.5,-496.551"/>
<text text-anchor="middle" x="462" y="-503.551" font-family="Arial" font-size="10.00">JHUFF_TBL</text>
</a>
</g>
</g>
<!-- Node5&#45;&gt;Node2 -->
<g id="edge4" class="edge"><title>Node5&#45;&gt;Node2</title>
<path fill="none" stroke="#9a32cd" stroke-dasharray="5,2" d="M507.17,-507.154C542.131,-505.978 590.768,-499.594 626,-476.051 668.8,-447.451 693.553,-386.961 701.843,-363.567"/>
<polygon fill="#9a32cd" stroke="#9a32cd" points="506.717,-503.662 496.79,-507.365 506.859,-510.661 506.717,-503.662"/>
<text text-anchor="middle" x="582" y="-518.051" font-family="Arial" font-size="10.00"> ac_huff_tbl_ptrs</text>
<text text-anchor="middle" x="582" y="-507.051" font-family="Arial" font-size="10.00">dc_huff_tbl_ptrs</text>
</g>
<!-- Node6 -->
<g id="node6" class="node"><title>Node6</title>
<g id="a_node6"><a xlink:href="structjpeg__memory__mgr.html" target="_top" xlink:title="jpeg_memory_mgr">
<polygon fill="white" stroke="black" points="413.5,-420.551 413.5,-439.551 510.5,-439.551 510.5,-420.551 413.5,-420.551"/>
<text text-anchor="middle" x="462" y="-427.551" font-family="Arial" font-size="10.00">jpeg_memory_mgr</text>
</a>
</g>
</g>
<!-- Node6&#45;&gt;Node2 -->
<g id="edge5" class="edge"><title>Node6&#45;&gt;Node2</title>
<path fill="none" stroke="#9a32cd" stroke-dasharray="5,2" d="M520.742,-422.666C552.445,-417.55 592.093,-409.394 626,-397.051 649.771,-388.398 675.092,-373.477 690.483,-363.686"/>
<polygon fill="#9a32cd" stroke="#9a32cd" points="520.089,-419.225 510.746,-424.221 521.165,-426.142 520.089,-419.225"/>
<text text-anchor="middle" x="582" y="-422.051" font-family="Arial" font-size="10.00"> mem</text>
</g>
<!-- Node7 -->
<g id="node7" class="node"><title>Node7</title>
<g id="a_node7"><a xlink:href="structjvirt__barray__control.html" target="_top" xlink:title="jvirt_barray_control">
<polygon fill="white" stroke="black" points="184,-457.551 184,-476.551 282,-476.551 282,-457.551 184,-457.551"/>
<text text-anchor="middle" x="233" y="-464.551" font-family="Arial" font-size="10.00">jvirt_barray_control</text>
</a>
</g>
</g>
<!-- Node7&#45;&gt;Node6 -->
<g id="edge6" class="edge"><title>Node7&#45;&gt;Node6</title>
<path fill="none" stroke="#9a32cd" stroke-dasharray="5,2" d="M283.322,-455.346C288.933,-454.162 294.581,-453.035 300,-452.051 337.889,-445.17 381.146,-439.373 413.274,-435.459"/>
<polygon fill="#9a32cd" stroke="#9a32cd" points="282.349,-451.976 273.321,-457.52 283.836,-458.816 282.349,-451.976"/>
<text text-anchor="middle" x="343" y="-455.051" font-family="Arial" font-size="10.00"> request_virt_barray</text>
</g>
<!-- Node7&#45;&gt;Node7 -->
<g id="edge7" class="edge"><title>Node7&#45;&gt;Node7</title>
<path fill="none" stroke="#9a32cd" stroke-dasharray="5,2" d="M217.075,-486.451C218.138,-491.366 223.447,-495.051 233,-495.051 248.285,-495.051 252.704,-485.616 246.255,-476.808"/>
<polygon fill="#9a32cd" stroke="#9a32cd" points="220.449,-487.379 219.745,-476.808 213.703,-485.511 220.449,-487.379"/>
<text text-anchor="middle" x="233" y="-498.051" font-family="Arial" font-size="10.00"> next</text>
</g>
<!-- Node13 -->
<g id="node13" class="node"><title>Node13</title>
<g id="a_node13"><a xlink:href="structjpeg__d__coef__controller.html" target="_top" xlink:title="jpeg_d_coef_controller">
<polygon fill="white" stroke="black" points="405.5,-458.551 405.5,-477.551 518.5,-477.551 518.5,-458.551 405.5,-458.551"/>
<text text-anchor="middle" x="462" y="-465.551" font-family="Arial" font-size="10.00">jpeg_d_coef_controller</text>
</a>
</g>
</g>
<!-- Node7&#45;&gt;Node13 -->
<g id="edge17" class="edge"><title>Node7&#45;&gt;Node13</title>
<path fill="none" stroke="#9a32cd" stroke-dasharray="5,2" d="M292.162,-467.307C326.972,-467.461 370.977,-467.654 405.333,-467.806"/>
<polygon fill="#9a32cd" stroke="#9a32cd" points="292.156,-463.807 282.141,-467.263 292.125,-470.807 292.156,-463.807"/>
<text text-anchor="middle" x="343" y="-470.051" font-family="Arial" font-size="10.00"> coef_arrays</text>
</g>
<!-- Node8 -->
<g id="node8" class="node"><title>Node8</title>
<g id="a_node8"><a xlink:href="structbacking__store__struct.html" target="_top" xlink:title="backing_store_struct">
<polygon fill="white" stroke="black" points="0.5,-427.551 0.5,-446.551 107.5,-446.551 107.5,-427.551 0.5,-427.551"/>
<text text-anchor="middle" x="54" y="-434.551" font-family="Arial" font-size="10.00">backing_store_struct</text>
</a>
</g>
</g>
<!-- Node8&#45;&gt;Node7 -->
<g id="edge8" class="edge"><title>Node8&#45;&gt;Node7</title>
<path fill="none" stroke="#9a32cd" stroke-dasharray="5,2" d="M117.75,-447.686C139.464,-451.367 163.444,-455.431 183.805,-458.882"/>
<polygon fill="#9a32cd" stroke="#9a32cd" points="118.071,-444.191 107.627,-445.971 116.901,-451.093 118.071,-444.191"/>
<text text-anchor="middle" x="146" y="-458.051" font-family="Arial" font-size="10.00"> b_s_info</text>
</g>
<!-- Node9 -->
<g id="node9" class="node"><title>Node9</title>
<g id="a_node9"><a xlink:href="structjvirt__sarray__control.html" target="_top" xlink:title="jvirt_sarray_control">
<polygon fill="white" stroke="black" points="184,-390.551 184,-409.551 282,-409.551 282,-390.551 184,-390.551"/>
<text text-anchor="middle" x="233" y="-397.551" font-family="Arial" font-size="10.00">jvirt_sarray_control</text>
</a>
</g>
</g>
<!-- Node8&#45;&gt;Node9 -->
<g id="edge11" class="edge"><title>Node8&#45;&gt;Node9</title>
<path fill="none" stroke="#9a32cd" stroke-dasharray="5,2" d="M110.415,-425.467C134.803,-420.369 163.106,-414.453 186.265,-409.611"/>
<polygon fill="#9a32cd" stroke="#9a32cd" points="109.654,-422.05 100.582,-427.523 111.087,-428.902 109.654,-422.05"/>
<text text-anchor="middle" x="146" y="-424.051" font-family="Arial" font-size="10.00"> b_s_info</text>
</g>
<!-- Node9&#45;&gt;Node6 -->
<g id="edge9" class="edge"><title>Node9&#45;&gt;Node6</title>
<path fill="none" stroke="#9a32cd" stroke-dasharray="5,2" d="M292.303,-393.73C320.968,-392.304 355.766,-393.11 386,-401.051 394.851,-403.376 395.623,-407.366 404,-411.051 411.925,-414.537 420.703,-417.76 428.947,-420.524"/>
<polygon fill="#9a32cd" stroke="#9a32cd" points="291.811,-390.253 282.039,-394.347 292.231,-397.24 291.811,-390.253"/>
<text text-anchor="middle" x="343" y="-404.051" font-family="Arial" font-size="10.00"> request_virt_sarray</text>
</g>
<!-- Node9&#45;&gt;Node9 -->
<g id="edge10" class="edge"><title>Node9&#45;&gt;Node9</title>
<path fill="none" stroke="#9a32cd" stroke-dasharray="5,2" d="M217.075,-419.451C218.138,-424.366 223.447,-428.051 233,-428.051 248.285,-428.051 252.704,-418.616 246.255,-409.808"/>
<polygon fill="#9a32cd" stroke="#9a32cd" points="220.449,-420.379 219.745,-409.808 213.703,-418.511 220.449,-420.379"/>
<text text-anchor="middle" x="233" y="-431.051" font-family="Arial" font-size="10.00"> next</text>
</g>
<!-- Node10 -->
<g id="node10" class="node"><title>Node10</title>
<g id="a_node10"><a xlink:href="structjpeg__inverse__dct.html" target="_top" xlink:title="jpeg_inverse_dct">
<polygon fill="white" stroke="black" points="417.5,-382.551 417.5,-401.551 506.5,-401.551 506.5,-382.551 417.5,-382.551"/>
<text text-anchor="middle" x="462" y="-389.551" font-family="Arial" font-size="10.00">jpeg_inverse_dct</text>
</a>
</g>
</g>
<!-- Node10&#45;&gt;Node2 -->
<g id="edge12" class="edge"><title>Node10&#45;&gt;Node2</title>
<path fill="none" stroke="#9a32cd" stroke-dasharray="5,2" d="M516.664,-385.131C548.5,-380.863 589.617,-375.068 626,-369.051 635.917,-367.411 646.504,-365.507 656.601,-363.617"/>
<polygon fill="#9a32cd" stroke="#9a32cd" points="516.122,-381.672 506.672,-386.461 517.046,-388.611 516.122,-381.672"/>
<text text-anchor="middle" x="582" y="-385.051" font-family="Arial" font-size="10.00"> idct</text>
</g>
<!-- Node11&#45;&gt;Node2 -->
<g id="edge13" class="edge"><title>Node11&#45;&gt;Node2</title>
<path fill="none" stroke="#9a32cd" stroke-dasharray="5,2" d="M526.675,-586.158C565.677,-581.961 610.915,-574.551 626,-562.051 690.247,-508.816 702.318,-397.337 704.522,-363.799"/>
<polygon fill="#9a32cd" stroke="#9a32cd" points="525.988,-582.71 516.395,-587.208 526.699,-589.674 525.988,-582.71"/>
<text text-anchor="middle" x="582" y="-598.051" font-family="Arial" font-size="10.00"> cur_comp_info</text>
<text text-anchor="middle" x="582" y="-587.051" font-family="Arial" font-size="10.00">comp_info</text>
</g>
<!-- Node12 -->
<g id="node12" class="node"><title>Node12</title>
<g id="a_node12"><a xlink:href="structjpeg__source__mgr.html" target="_top" xlink:title="jpeg_source_mgr">
<polygon fill="white" stroke="black" points="416.5,-344.551 416.5,-363.551 507.5,-363.551 507.5,-344.551 416.5,-344.551"/>
<text text-anchor="middle" x="462" y="-351.551" font-family="Arial" font-size="10.00">jpeg_source_mgr</text>
</a>
</g>
</g>
<!-- Node12&#45;&gt;Node2 -->
<g id="edge15" class="edge"><title>Node12&#45;&gt;Node2</title>
<path fill="none" stroke="#9a32cd" stroke-dasharray="5,2" d="M517.927,-354.051C555.519,-354.051 605.383,-354.051 644.177,-354.051"/>
<polygon fill="#9a32cd" stroke="#9a32cd" points="517.669,-350.551 507.669,-354.051 517.669,-357.551 517.669,-350.551"/>
<text text-anchor="middle" x="582" y="-357.051" font-family="Arial" font-size="10.00"> src</text>
</g>
<!-- Node13&#45;&gt;Node2 -->
<g id="edge16" class="edge"><title>Node13&#45;&gt;Node2</title>
<path fill="none" stroke="#9a32cd" stroke-dasharray="5,2" d="M528.871,-463.148C559.824,-458.689 596.348,-450.198 626,-434.051 658.571,-416.314 686.311,-380.838 698.449,-363.725"/>
<polygon fill="#9a32cd" stroke="#9a32cd" points="528.057,-459.725 518.605,-464.511 528.978,-466.664 528.057,-459.725"/>
<text text-anchor="middle" x="582" y="-464.051" font-family="Arial" font-size="10.00"> coef</text>
</g>
<!-- Node14 -->
<g id="node14" class="node"><title>Node14</title>
<g id="a_node14"><a xlink:href="structjpeg__color__deconverter.html" target="_top" xlink:title="jpeg_color_deconverter">
<polygon fill="white" stroke="black" points="404,-306.551 404,-325.551 520,-325.551 520,-306.551 404,-306.551"/>
<text text-anchor="middle" x="462" y="-313.551" font-family="Arial" font-size="10.00">jpeg_color_deconverter</text>
</a>
</g>
</g>
<!-- Node14&#45;&gt;Node2 -->
<g id="edge18" class="edge"><title>Node14&#45;&gt;Node2</title>
<path fill="none" stroke="#9a32cd" stroke-dasharray="5,2" d="M530.226,-324.806C559.67,-328.83 594.598,-333.857 626,-339.051 635.917,-340.691 646.504,-342.595 656.601,-344.485"/>
<polygon fill="#9a32cd" stroke="#9a32cd" points="530.434,-321.303 520.055,-323.427 529.493,-328.239 530.434,-321.303"/>
<text text-anchor="middle" x="582" y="-342.051" font-family="Arial" font-size="10.00"> cconvert</text>
</g>
<!-- Node15 -->
<g id="node15" class="node"><title>Node15</title>
<g id="a_node15"><a xlink:href="structjpeg__entropy__decoder.html" target="_top" xlink:title="jpeg_entropy_decoder">
<polygon fill="white" stroke="black" points="406,-268.551 406,-287.551 518,-287.551 518,-268.551 406,-268.551"/>
<text text-anchor="middle" x="462" y="-275.551" font-family="Arial" font-size="10.00">jpeg_entropy_decoder</text>
</a>
</g>
</g>
<!-- Node15&#45;&gt;Node2 -->
<g id="edge19" class="edge"><title>Node15&#45;&gt;Node2</title>
<path fill="none" stroke="#9a32cd" stroke-dasharray="5,2" d="M528.069,-287.276C558.389,-292.669 594.617,-300.697 626,-312.051 649.517,-320.559 674.7,-334.978 690.152,-344.507"/>
<polygon fill="#9a32cd" stroke="#9a32cd" points="528.478,-283.795 518.029,-285.547 527.29,-290.693 528.478,-283.795"/>
<text text-anchor="middle" x="582" y="-315.051" font-family="Arial" font-size="10.00"> entropy</text>
</g>
<!-- Node16 -->
<g id="node16" class="node"><title>Node16</title>
<g id="a_node16"><a xlink:href="structjpeg__d__main__controller.html" target="_top" xlink:title="jpeg_d_main_controller">
<polygon fill="white" stroke="black" points="404,-230.551 404,-249.551 520,-249.551 520,-230.551 404,-230.551"/>
<text text-anchor="middle" x="462" y="-237.551" font-family="Arial" font-size="10.00">jpeg_d_main_controller</text>
</a>
</g>
</g>
<!-- Node16&#45;&gt;Node2 -->
<g id="edge21" class="edge"><title>Node16&#45;&gt;Node2</title>
<path fill="none" stroke="#9a32cd" stroke-dasharray="5,2" d="M530.267,-245.726C560.903,-250.459 596.765,-259.138 626,-275.051 658.369,-292.669 686.207,-327.652 698.409,-344.519"/>
<polygon fill="#9a32cd" stroke="#9a32cd" points="530.491,-242.222 520.095,-244.267 529.497,-249.151 530.491,-242.222"/>
<text text-anchor="middle" x="582" y="-278.051" font-family="Arial" font-size="10.00"> main</text>
</g>
<!-- Node17 -->
<g id="node17" class="node"><title>Node17</title>
<g id="a_node17"><a xlink:href="structjpeg__progress__mgr.html" target="_top" xlink:title="jpeg_progress_mgr">
<polygon fill="white" stroke="black" points="412.5,-192.551 412.5,-211.551 511.5,-211.551 511.5,-192.551 412.5,-192.551"/>
<text text-anchor="middle" x="462" y="-199.551" font-family="Arial" font-size="10.00">jpeg_progress_mgr</text>
</a>
</g>
</g>
<!-- Node17&#45;&gt;Node2 -->
<g id="edge22" class="edge"><title>Node17&#45;&gt;Node2</title>
<path fill="none" stroke="#9a32cd" stroke-dasharray="5,2" d="M521.694,-202.175C554.755,-204.809 595.418,-212.567 626,-233.051 668.314,-261.392 693.196,-320.871 701.685,-344.284"/>
<polygon fill="#9a32cd" stroke="#9a32cd" points="521.906,-198.682 511.697,-201.514 521.444,-205.666 521.906,-198.682"/>
<text text-anchor="middle" x="582" y="-236.051" font-family="Arial" font-size="10.00"> progress</text>
</g>
<!-- Node18 -->
<g id="node18" class="node"><title>Node18</title>
<g id="a_node18"><a xlink:href="structjpeg__upsampler.html" target="_top" xlink:title="jpeg_upsampler">
<polygon fill="white" stroke="black" points="419.5,-154.551 419.5,-173.551 504.5,-173.551 504.5,-154.551 419.5,-154.551"/>
<text text-anchor="middle" x="462" y="-161.551" font-family="Arial" font-size="10.00">jpeg_upsampler</text>
</a>
</g>
</g>
<!-- Node18&#45;&gt;Node2 -->
<g id="edge23" class="edge"><title>Node18&#45;&gt;Node2</title>
<path fill="none" stroke="#9a32cd" stroke-dasharray="5,2" d="M514.94,-160.478C549.556,-160.744 594.339,-166.476 626,-190.051 679.485,-229.876 698.471,-315.463 703.493,-344.322"/>
<polygon fill="#9a32cd" stroke="#9a32cd" points="514.522,-156.981 504.549,-160.558 514.576,-163.981 514.522,-156.981"/>
<text text-anchor="middle" x="582" y="-193.051" font-family="Arial" font-size="10.00"> upsample</text>
</g>
<!-- Node19 -->
<g id="node19" class="node"><title>Node19</title>
<g id="a_node19"><a xlink:href="structjpeg__input__controller.html" target="_top" xlink:title="jpeg_input_controller">
<polygon fill="white" stroke="black" points="409,-116.551 409,-135.551 515,-135.551 515,-116.551 409,-116.551"/>
<text text-anchor="middle" x="462" y="-123.551" font-family="Arial" font-size="10.00">jpeg_input_controller</text>
</a>
</g>
</g>
<!-- Node19&#45;&gt;Node2 -->
<g id="edge24" class="edge"><title>Node19&#45;&gt;Node2</title>
<path fill="none" stroke="#9a32cd" stroke-dasharray="5,2" d="M525.305,-119.584C558.424,-119.453 597.968,-124.971 626,-147.051 691.27,-198.462 702.638,-310.483 704.597,-344.235"/>
<polygon fill="#9a32cd" stroke="#9a32cd" points="525.178,-116.086 515.253,-119.794 525.324,-123.084 525.178,-116.086"/>
<text text-anchor="middle" x="582" y="-150.051" font-family="Arial" font-size="10.00"> inputctl</text>
</g>
<!-- Node20 -->
<g id="node20" class="node"><title>Node20</title>
<g id="a_node20"><a xlink:href="structjpeg__d__post__controller.html" target="_top" xlink:title="jpeg_d_post_controller">
<polygon fill="white" stroke="black" points="405,-78.551 405,-97.551 519,-97.551 519,-78.551 405,-78.551"/>
<text text-anchor="middle" x="462" y="-85.551" font-family="Arial" font-size="10.00">jpeg_d_post_controller</text>
</a>
</g>
</g>
<!-- Node20&#45;&gt;Node2 -->
<g id="edge25" class="edge"><title>Node20&#45;&gt;Node2</title>
<path fill="none" stroke="#9a32cd" stroke-dasharray="5,2" d="M529.347,-79.0939C561.773,-78.3608 599.43,-83.3999 626,-105.051 703.348,-168.08 706.098,-306.671 705.341,-344.403"/>
<polygon fill="#9a32cd" stroke="#9a32cd" points="528.87,-75.6105 519.023,-79.521 529.16,-82.6046 528.87,-75.6105"/>
<text text-anchor="middle" x="582" y="-108.051" font-family="Arial" font-size="10.00"> post</text>
</g>
<!-- Node21 -->
<g id="node21" class="node"><title>Node21</title>
<g id="a_node21"><a xlink:href="structjpeg__decomp__master.html" target="_top" xlink:title="jpeg_decomp_master">
<polygon fill="white" stroke="black" points="407,-40.551 407,-59.551 517,-59.551 517,-40.551 407,-40.551"/>
<text text-anchor="middle" x="462" y="-47.551" font-family="Arial" font-size="10.00">jpeg_decomp_master</text>
</a>
</g>
</g>
<!-- Node21&#45;&gt;Node2 -->
<g id="edge26" class="edge"><title>Node21&#45;&gt;Node2</title>
<path fill="none" stroke="#9a32cd" stroke-dasharray="5,2" d="M526.658,-39.848C559.814,-38.1698 598.966,-42.3788 626,-65.051 670.936,-102.736 698.005,-298.27 703.817,-344.327"/>
<polygon fill="#9a32cd" stroke="#9a32cd" points="526.316,-36.3632 516.581,-40.5439 526.798,-43.3466 526.316,-36.3632"/>
<text text-anchor="middle" x="582" y="-68.051" font-family="Arial" font-size="10.00"> master</text>
</g>
<!-- Node22 -->
<g id="node22" class="node"><title>Node22</title>
<g id="a_node22"><a xlink:href="structjpeg__error__mgr.html" target="_top" xlink:title="jpeg_error_mgr">
<polygon fill="white" stroke="black" points="421.5,-2.55095 421.5,-21.551 502.5,-21.551 502.5,-2.55095 421.5,-2.55095"/>
<text text-anchor="middle" x="462" y="-9.55095" font-family="Arial" font-size="10.00">jpeg_error_mgr</text>
</a>
</g>
</g>
<!-- Node22&#45;&gt;Node2 -->
<g id="edge27" class="edge"><title>Node22&#45;&gt;Node2</title>
<path fill="none" stroke="#9a32cd" stroke-dasharray="5,2" d="M512.966,-1.90333C548.57,2.27918 595.363,1.14189 626,-25.051 676.787,-68.4717 699.697,-294.543 704.169,-344.34"/>
<polygon fill="#9a32cd" stroke="#9a32cd" points="512.218,1.52752 502.776,-3.27845 513.154,-5.40961 512.218,1.52752"/>
<text text-anchor="middle" x="582" y="-28.051" font-family="Arial" font-size="10.00"> err</text>
</g>
</g>
</svg>
