<?xml version="1.0" encoding="UTF-8" standalone="no"?>
<!DOCTYPE svg PUBLIC "-//W3C//DTD SVG 1.1//EN"
 "http://www.w3.org/Graphics/SVG/1.1/DTD/svg11.dtd">
<!-- Generated by graphviz version 2.34.0 (20130907.0111)
 -->
<!-- Title: damageEffect_s Pages: 1 -->
<svg width="287pt" height="242pt"
 viewBox="0.00 0.00 287.00 242.00" xmlns="http://www.w3.org/2000/svg" xmlns:xlink="http://www.w3.org/1999/xlink">
<g id="graph0" class="graph" transform="scale(1 1) rotate(0) translate(4 238)">
<title>damageEffect_s</title>
<polygon fill="white" stroke="white" points="-4,4 -4,-238 283,-238 283,4 -4,4"/>
<!-- Node1 -->
<g id="node1" class="node"><title>Node1</title>
<polygon fill="#bfbfbf" stroke="black" points="116,-0.5 116,-19.5 202,-19.5 202,-0.5 116,-0.5"/>
<text text-anchor="middle" x="159" y="-7.5" font-family="Arial" font-size="10.00">damageEffect_s</text>
</g>
<!-- Node1&#45;&gt;Node1 -->
<g id="edge7" class="edge"><title>Node1&#45;&gt;Node1</title>
<path fill="none" stroke="#9a32cd" stroke-dasharray="5,2" d="M212.254,-15.6304C217.013,-14.4513 220,-12.5745 220,-10 220,-5.88086 212.355,-3.54775 202.036,-3.00068"/>
<polygon fill="#9a32cd" stroke="#9a32cd" points="211.483,-12.2024 202.036,-16.9993 212.412,-19.1404 211.483,-12.2024"/>
<text text-anchor="middle" x="231" y="-7.5" font-family="Arial" font-size="10.00"> next</text>
</g>
<!-- Node2 -->
<g id="node2" class="node"><title>Node2</title>
<g id="a_node2"><a xlink:href="classid_decl_particle.html" target="_top" xlink:title="idDeclParticle">
<polygon fill="white" stroke="black" points="63.5,-78.5 63.5,-97.5 140.5,-97.5 140.5,-78.5 63.5,-78.5"/>
<text text-anchor="middle" x="102" y="-85.5" font-family="Arial" font-size="10.00">idDeclParticle</text>
</a>
</g>
</g>
<!-- Node2&#45;&gt;Node1 -->
<g id="edge1" class="edge"><title>Node2&#45;&gt;Node1</title>
<path fill="none" stroke="#9a32cd" stroke-dasharray="5,2" d="M114.746,-70.0056C126.473,-54.3693 143.389,-31.8142 152.538,-19.6165"/>
<polygon fill="#9a32cd" stroke="#9a32cd" points="111.739,-68.1818 108.539,-78.2818 117.339,-72.3818 111.739,-68.1818"/>
<text text-anchor="middle" x="149" y="-46.5" font-family="Arial" font-size="10.00"> type</text>
</g>
<!-- Node3 -->
<g id="node3" class="node"><title>Node3</title>
<g id="a_node3"><a xlink:href="classid_decl.html" target="_top" xlink:title="idDecl">
<polygon fill="white" stroke="black" points="11,-146.5 11,-165.5 55,-165.5 55,-146.5 11,-146.5"/>
<text text-anchor="middle" x="33" y="-153.5" font-family="Arial" font-size="10.00">idDecl</text>
</a>
</g>
</g>
<!-- Node3&#45;&gt;Node2 -->
<g id="edge2" class="edge"><title>Node3&#45;&gt;Node2</title>
<path fill="none" stroke="midnightblue" d="M49.2963,-139.412C62.8511,-126.447 81.6597,-108.456 92.757,-97.8411"/>
<polygon fill="midnightblue" stroke="midnightblue" points="46.8277,-136.93 42.0205,-146.372 51.6663,-141.989 46.8277,-136.93"/>
</g>
<!-- Node4 -->
<g id="node4" class="node"><title>Node4</title>
<g id="a_node4"><a xlink:href="classid_decl_base.html" target="_top" xlink:title="idDeclBase">
<polygon fill="white" stroke="black" points="0,-214.5 0,-233.5 66,-233.5 66,-214.5 0,-214.5"/>
<text text-anchor="middle" x="33" y="-221.5" font-family="Arial" font-size="10.00">idDeclBase</text>
</a>
</g>
</g>
<!-- Node4&#45;&gt;Node3 -->
<g id="edge3" class="edge"><title>Node4&#45;&gt;Node3</title>
<path fill="none" stroke="#9a32cd" stroke-dasharray="5,2" d="M33,-204.041C33,-191.472 33,-175.563 33,-165.841"/>
<polygon fill="#9a32cd" stroke="#9a32cd" points="29.5001,-204.372 33,-214.372 36.5001,-204.372 29.5001,-204.372"/>
<text text-anchor="middle" x="45.5" y="-187.5" font-family="Arial" font-size="10.00"> base</text>
</g>
<!-- Node5 -->
<g id="node5" class="node"><title>Node5</title>
<g id="a_node5"><a xlink:href="classid_bounds.html" target="_top" xlink:title="idBounds">
<polygon fill="white" stroke="black" points="73.5,-146.5 73.5,-165.5 130.5,-165.5 130.5,-146.5 73.5,-146.5"/>
<text text-anchor="middle" x="102" y="-153.5" font-family="Arial" font-size="10.00">idBounds</text>
</a>
</g>
</g>
<!-- Node5&#45;&gt;Node2 -->
<g id="edge4" class="edge"><title>Node5&#45;&gt;Node2</title>
<path fill="none" stroke="#9a32cd" stroke-dasharray="5,2" d="M102,-136.041C102,-123.472 102,-107.563 102,-97.8411"/>
<polygon fill="#9a32cd" stroke="#9a32cd" points="98.5001,-136.372 102,-146.372 105.5,-136.372 98.5001,-136.372"/>
<text text-anchor="middle" x="119.5" y="-119.5" font-family="Arial" font-size="10.00"> bounds</text>
</g>
<!-- Node6 -->
<g id="node6" class="node"><title>Node6</title>
<g id="a_node6"><a xlink:href="classid_list.html" target="_top" xlink:title="idList\&lt; idParticleStage * \&gt;">
<polygon fill="white" stroke="black" points="148.5,-146.5 148.5,-165.5 279.5,-165.5 279.5,-146.5 148.5,-146.5"/>
<text text-anchor="middle" x="214" y="-153.5" font-family="Arial" font-size="10.00">idList&lt; idParticleStage * &gt;</text>
</a>
</g>
</g>
<!-- Node6&#45;&gt;Node2 -->
<g id="edge5" class="edge"><title>Node6&#45;&gt;Node2</title>
<path fill="none" stroke="#9a32cd" stroke-dasharray="5,2" d="M190.522,-141.165C168.234,-128.031 135.429,-108.699 116.646,-97.6305"/>
<polygon fill="#9a32cd" stroke="#9a32cd" points="188.966,-144.31 199.358,-146.372 192.519,-138.279 188.966,-144.31"/>
<text text-anchor="middle" x="185.5" y="-119.5" font-family="Arial" font-size="10.00"> stages</text>
</g>
<!-- Node7 -->
<g id="node7" class="node"><title>Node7</title>
<g id="a_node7"><a xlink:href="classid_vec3.html" target="_top" xlink:title="idVec3">
<polygon fill="white" stroke="black" points="158.5,-78.5 158.5,-97.5 205.5,-97.5 205.5,-78.5 158.5,-78.5"/>
<text text-anchor="middle" x="182" y="-85.5" font-family="Arial" font-size="10.00">idVec3</text>
</a>
</g>
</g>
<!-- Node7&#45;&gt;Node1 -->
<g id="edge6" class="edge"><title>Node7&#45;&gt;Node1</title>
<path fill="none" stroke="#9a32cd" stroke-dasharray="5,2" d="M176.454,-68.6744C171.745,-53.1127 165.196,-31.4722 161.608,-19.6165"/>
<polygon fill="#9a32cd" stroke="#9a32cd" points="173.115,-69.7244 179.362,-78.2818 179.815,-67.6967 173.115,-69.7244"/>
<text text-anchor="middle" x="201.5" y="-52" font-family="Arial" font-size="10.00"> localNormal</text>
<text text-anchor="middle" x="201.5" y="-41" font-family="Arial" font-size="10.00">localOrigin</text>
</g>
</g>
</svg>
