<?xml version="1.0" encoding="UTF-8" standalone="no"?>
<!DOCTYPE svg PUBLIC "-//W3C//DTD SVG 1.1//EN"
 "http://www.w3.org/Graphics/SVG/1.1/DTD/svg11.dtd">
<!-- Generated by graphviz version 2.34.0 (20130907.0111)
 -->
<!-- Title: UrlState Pages: 1 -->
<!--zoomable 786 -->
<svg id="main" version="1.1" xmlns="http://www.w3.org/2000/svg" xmlns:xlink="http://www.w3.org/1999/xlink" xml:space="preserve" onload="init(evt)">
<style type="text/css"><![CDATA[
.edge:hover path { stroke: red; }
.edge:hover polygon { stroke: red; fill: red; }
]]></style>
<script type="text/javascript"><![CDATA[
var edges = document.getElementsByTagName('g');
if (edges && edges.length) {
  for (var i=0;i<edges.length;i++) {
    if (edges[i].id.substr(0,4)=='edge') {
      edges[i].setAttribute('class','edge');
    }
  }
}
]]></script>
        <defs>
                <circle id="rim" cx="0" cy="0" r="7"/>
                <circle id="rim2" cx="0" cy="0" r="3.5"/>
                <g id="zoomPlus">
                        <use xlink:href="#rim" fill="#404040">
                                <set attributeName="fill" to="#808080" begin="zoomplus.mouseover" end="zoomplus.mouseout"/>
                        </use>
                        <path d="M-4,0h8M0,-4v8" fill="none" stroke="white" stroke-width="1.5" pointer-events="none"/>
                </g>
                <g id="zoomMin">
                        <use xlink:href="#rim" fill="#404040">
                                <set attributeName="fill" to="#808080" begin="zoomminus.mouseover" end="zoomminus.mouseout"/>
                        </use>
                        <path d="M-4,0h8" fill="none" stroke="white" stroke-width="1.5" pointer-events="none"/>
                </g>
                <g id="dirArrow">
                        <path fill="none" stroke="white" stroke-width="1.5" d="M0,-3.0v7 M-2.5,-0.5L0,-3.0L2.5,-0.5"/>
                </g>
               <g id="resetDef">
                       <use xlink:href="#rim2" fill="#404040">
                               <set attributeName="fill" to="#808080" begin="reset.mouseover" end="reset.mouseout"/>
                       </use>
               </g>
        </defs>

<script type="text/javascript">
var viewWidth = 1064;
var viewHeight = 786;
var sectionId = 'dynsection-0';
</script>
<script xlink:href="svgpan.js"/>
<svg id="graph" class="graph">
<g id="viewport">
<title>UrlState</title>
<polygon fill="white" stroke="white" points="-4,4 -4,-782 1060,-782 1060,4 -4,4"/>
<!-- Node1 -->
<g id="node1" class="node"><title>Node1</title>
<polygon fill="#bfbfbf" stroke="black" points="567,-452.5 567,-471.5 619,-471.5 619,-452.5 567,-452.5"/>
<text text-anchor="middle" x="593" y="-459.5" font-family="Arial" font-size="10.00">UrlState</text>
</g>
<!-- Node10 -->
<g id="node10" class="node"><title>Node10</title>
<g id="a_node10"><a xlink:href="struct_session_handle.html" target="_top" xlink:title="SessionHandle">
<polygon fill="white" stroke="black" points="799,-372.5 799,-391.5 881,-391.5 881,-372.5 799,-372.5"/>
<text text-anchor="middle" x="840" y="-379.5" font-family="Arial" font-size="10.00">SessionHandle</text>
</a>
</g>
</g>
<!-- Node1&#45;&gt;Node10 -->
<g id="edge15" class="edge"><title>Node1&#45;&gt;Node10</title>
<path fill="none" stroke="#9a32cd" stroke-dasharray="5,2" d="M610.771,-445.471C621.651,-435.696 636.623,-423.912 652,-417 665.18,-411.076 747.726,-396.895 798.642,-388.515"/>
<polygon fill="#9a32cd" stroke="#9a32cd" points="608.229,-443.057 603.31,-452.441 613.007,-448.172 608.229,-443.057"/>
<text text-anchor="middle" x="705" y="-420" font-family="Arial" font-size="10.00"> state</text>
</g>
<!-- Node2 -->
<g id="node2" class="node"><title>Node2</title>
<g id="a_node2"><a xlink:href="structcurl__ssl__session.html" target="_top" xlink:title="curl_ssl_session">
<polygon fill="white" stroke="black" points="346.5,-479.5 346.5,-498.5 435.5,-498.5 435.5,-479.5 346.5,-479.5"/>
<text text-anchor="middle" x="391" y="-486.5" font-family="Arial" font-size="10.00">curl_ssl_session</text>
</a>
</g>
</g>
<!-- Node2&#45;&gt;Node1 -->
<g id="edge1" class="edge"><title>Node2&#45;&gt;Node1</title>
<path fill="none" stroke="#9a32cd" stroke-dasharray="5,2" d="M424.451,-474.336C428.635,-471.606 432.628,-468.495 436,-465 448.421,-452.127 438.783,-438.405 454,-429 484.245,-410.307 499.627,-419.906 534,-429 551.024,-433.504 568.279,-444.293 579.489,-452.316"/>
<polygon fill="#9a32cd" stroke="#9a32cd" points="422.623,-471.351 415.736,-479.402 426.141,-477.402 422.623,-471.351"/>
<text text-anchor="middle" x="494" y="-432" font-family="Arial" font-size="10.00"> session</text>
</g>
<!-- Node3 -->
<g id="node3" class="node"><title>Node3</title>
<g id="a_node3"><a xlink:href="structssl__config__data.html" target="_top" xlink:title="ssl_config_data">
<polygon fill="white" stroke="black" points="160,-479.5 160,-498.5 244,-498.5 244,-479.5 160,-479.5"/>
<text text-anchor="middle" x="202" y="-486.5" font-family="Arial" font-size="10.00">ssl_config_data</text>
</a>
</g>
</g>
<!-- Node3&#45;&gt;Node2 -->
<g id="edge2" class="edge"><title>Node3&#45;&gt;Node2</title>
<path fill="none" stroke="#9a32cd" stroke-dasharray="5,2" d="M254.349,-489C283.246,-489 318.936,-489 346.454,-489"/>
<polygon fill="#9a32cd" stroke="#9a32cd" points="254.038,-485.5 244.038,-489 254.038,-492.5 254.038,-485.5"/>
<text text-anchor="middle" x="295" y="-492" font-family="Arial" font-size="10.00"> ssl_config</text>
</g>
<!-- Node4 -->
<g id="node4" class="node"><title>Node4</title>
<g id="a_node4"><a xlink:href="structconnectdata.html" target="_top" xlink:title="connectdata">
<polygon fill="white" stroke="black" points="986,-420.5 986,-439.5 1056,-439.5 1056,-420.5 986,-420.5"/>
<text text-anchor="middle" x="1021" y="-427.5" font-family="Arial" font-size="10.00">connectdata</text>
</a>
</g>
</g>
<!-- Node3&#45;&gt;Node4 -->
<g id="edge7" class="edge"><title>Node3&#45;&gt;Node4</title>
<path fill="none" stroke="#9a32cd" stroke-dasharray="5,2" d="M220.638,-505.856C245.976,-528.777 295.241,-568.676 346,-584 411.826,-603.873 520.618,-625.659 758,-572 857.741,-549.454 883.502,-535.59 968,-478 984.65,-466.652 1001.31,-450.145 1011.13,-439.745"/>
<polygon fill="#9a32cd" stroke="#9a32cd" points="222.715,-503.009 212.995,-498.793 217.964,-508.15 222.715,-503.009"/>
<text text-anchor="middle" x="593" y="-607" font-family="Arial" font-size="10.00"> ssl_config</text>
</g>
<!-- Node17 -->
<g id="node17" class="node"><title>Node17</title>
<g id="a_node17"><a xlink:href="struct_user_defined.html" target="_top" xlink:title="UserDefined">
<polygon fill="white" stroke="black" points="558.5,-378.5 558.5,-397.5 627.5,-397.5 627.5,-378.5 558.5,-378.5"/>
<text text-anchor="middle" x="593" y="-385.5" font-family="Arial" font-size="10.00">UserDefined</text>
</a>
</g>
</g>
<!-- Node3&#45;&gt;Node17 -->
<g id="edge21" class="edge"><title>Node3&#45;&gt;Node17</title>
<path fill="none" stroke="#9a32cd" stroke-dasharray="5,2" d="M241.701,-476.364C290.741,-460.636 378.036,-433.586 454,-415 489.333,-406.355 530.285,-398.627 558.346,-393.677"/>
<polygon fill="#9a32cd" stroke="#9a32cd" points="240.573,-473.05 232.127,-479.446 242.718,-479.713 240.573,-473.05"/>
<text text-anchor="middle" x="391" y="-448" font-family="Arial" font-size="10.00"> ssl</text>
</g>
<!-- Node4&#45;&gt;Node1 -->
<g id="edge3" class="edge"><title>Node4&#45;&gt;Node1</title>
<path fill="none" stroke="#9a32cd" stroke-dasharray="5,2" d="M975.583,-437.097C923.59,-445.015 834.811,-457.327 758,-462 708.834,-464.991 651.223,-463.94 619.035,-462.943"/>
<polygon fill="#9a32cd" stroke="#9a32cd" points="976.438,-440.506 985.789,-435.527 975.373,-433.588 976.438,-440.506"/>
<text text-anchor="middle" x="840" y="-464" font-family="Arial" font-size="10.00"> connects</text>
</g>
<!-- Node5 -->
<g id="node5" class="node"><title>Node5</title>
<g id="a_node5"><a xlink:href="structntlmdata.html" target="_top" xlink:title="ntlmdata">
<polygon fill="white" stroke="black" points="813,-670.5 813,-689.5 867,-689.5 867,-670.5 813,-670.5"/>
<text text-anchor="middle" x="840" y="-677.5" font-family="Arial" font-size="10.00">ntlmdata</text>
</a>
</g>
</g>
<!-- Node5&#45;&gt;Node4 -->
<g id="edge4" class="edge"><title>Node5&#45;&gt;Node4</title>
<path fill="none" stroke="#9a32cd" stroke-dasharray="5,2" d="M877.342,-676.298C910.214,-672.206 955.349,-664.487 968,-652 999.131,-621.273 1015.27,-478.152 1019.1,-439.591"/>
<polygon fill="#9a32cd" stroke="#9a32cd" points="876.677,-672.852 867.157,-677.501 877.498,-679.804 876.677,-672.852"/>
<text text-anchor="middle" x="945" y="-683" font-family="Arial" font-size="10.00"> proxyntlm</text>
<text text-anchor="middle" x="945" y="-672" font-family="Arial" font-size="10.00">ntlm</text>
</g>
<!-- Node6 -->
<g id="node6" class="node"><title>Node6</title>
<g id="a_node6"><a xlink:href="struct_curl__async.html" target="_top" xlink:title="Curl_async">
<polygon fill="white" stroke="black" points="807.5,-708.5 807.5,-727.5 872.5,-727.5 872.5,-708.5 807.5,-708.5"/>
<text text-anchor="middle" x="840" y="-715.5" font-family="Arial" font-size="10.00">Curl_async</text>
</a>
</g>
</g>
<!-- Node6&#45;&gt;Node4 -->
<g id="edge5" class="edge"><title>Node6&#45;&gt;Node4</title>
<path fill="none" stroke="#9a32cd" stroke-dasharray="5,2" d="M882.838,-721.679C910.624,-721.716 945.923,-716.757 968,-695 1005.4,-658.142 1017.16,-482.895 1019.52,-439.659"/>
<polygon fill="#9a32cd" stroke="#9a32cd" points="882.677,-718.175 872.599,-721.445 882.517,-725.173 882.677,-718.175"/>
<text text-anchor="middle" x="945" y="-720" font-family="Arial" font-size="10.00"> async</text>
</g>
<!-- Node7 -->
<g id="node7" class="node"><title>Node7</title>
<g id="a_node7"><a xlink:href="struct_curl__dns__entry.html" target="_top" xlink:title="Curl_dns_entry">
<polygon fill="white" stroke="black" points="552,-654.5 552,-673.5 634,-673.5 634,-654.5 552,-654.5"/>
<text text-anchor="middle" x="593" y="-661.5" font-family="Arial" font-size="10.00">Curl_dns_entry</text>
</a>
</g>
</g>
<!-- Node7&#45;&gt;Node4 -->
<g id="edge43" class="edge"><title>Node7&#45;&gt;Node4</title>
<path fill="none" stroke="#9a32cd" stroke-dasharray="5,2" d="M644.343,-659.622C740.729,-650.806 943.957,-629.962 968,-609 1019.96,-563.703 1021.45,-469.865 1020.49,-439.62"/>
<polygon fill="#9a32cd" stroke="#9a32cd" points="643.889,-656.149 634.246,-660.537 644.521,-663.12 643.889,-656.149"/>
<text text-anchor="middle" x="840" y="-649" font-family="Arial" font-size="10.00"> connect_addr</text>
</g>
<!-- Node7&#45;&gt;Node6 -->
<g id="edge6" class="edge"><title>Node7&#45;&gt;Node6</title>
<path fill="none" stroke="#9a32cd" stroke-dasharray="5,2" d="M644.241,-675.073C693.173,-685.858 766.044,-701.92 807.377,-711.03"/>
<polygon fill="#9a32cd" stroke="#9a32cd" points="644.701,-671.591 634.182,-672.857 643.195,-678.427 644.701,-671.591"/>
<text text-anchor="middle" x="705" y="-701" font-family="Arial" font-size="10.00"> dns</text>
</g>
<!-- Node8 -->
<g id="node8" class="node"><title>Node8</title>
<g id="a_node8"><a xlink:href="struct_curl__transfer__keeper.html" target="_top" xlink:title="Curl_transfer_keeper">
<polygon fill="white" stroke="black" points="652,-723.5 652,-742.5 758,-742.5 758,-723.5 652,-723.5"/>
<text text-anchor="middle" x="705" y="-730.5" font-family="Arial" font-size="10.00">Curl_transfer_keeper</text>
</a>
</g>
</g>
<!-- Node8&#45;&gt;Node4 -->
<g id="edge8" class="edge"><title>Node8&#45;&gt;Node4</title>
<path fill="none" stroke="#9a32cd" stroke-dasharray="5,2" d="M740.941,-745.897C796.694,-763.969 905.813,-788.683 968,-732 1012.43,-691.502 1018.94,-487.142 1019.86,-439.802"/>
<polygon fill="#9a32cd" stroke="#9a32cd" points="741.769,-742.483 731.175,-742.621 739.543,-749.12 741.769,-742.483"/>
<text text-anchor="middle" x="840" y="-770" font-family="Arial" font-size="10.00"> keep</text>
</g>
<!-- Node9 -->
<g id="node9" class="node"><title>Node9</title>
<g id="a_node9"><a xlink:href="structtimeval.html" target="_top" xlink:title="timeval">
<polygon fill="white" stroke="black" points="367.5,-555.5 367.5,-574.5 414.5,-574.5 414.5,-555.5 367.5,-555.5"/>
<text text-anchor="middle" x="391" y="-562.5" font-family="Arial" font-size="10.00">timeval</text>
</a>
</g>
</g>
<!-- Node9&#45;&gt;Node1 -->
<g id="edge48" class="edge"><title>Node9&#45;&gt;Node1</title>
<path fill="none" stroke="#9a32cd" stroke-dasharray="5,2" d="M423.968,-554.924C428.399,-552.518 432.593,-549.578 436,-546 451.712,-529.501 437.077,-513.255 454,-498 462.414,-490.415 529.317,-475.278 566.788,-467.262"/>
<polygon fill="#9a32cd" stroke="#9a32cd" points="422.358,-551.811 414.711,-559.145 425.262,-558.18 422.358,-551.811"/>
<text text-anchor="middle" x="494" y="-501" font-family="Arial" font-size="10.00"> keeps_speed</text>
</g>
<!-- Node9&#45;&gt;Node4 -->
<g id="edge42" class="edge"><title>Node9&#45;&gt;Node4</title>
<path fill="none" stroke="#9a32cd" stroke-dasharray="5,2" d="M425.057,-566.873C453.923,-568.008 496.888,-568.485 534,-564 701.81,-543.719 741.011,-520.791 904,-476 932.736,-468.103 940.361,-467.144 968,-456 979.795,-451.244 992.576,-444.871 1002.52,-439.625"/>
<polygon fill="#9a32cd" stroke="#9a32cd" points="424.872,-563.362 414.726,-566.415 424.562,-570.355 424.872,-563.362"/>
<text text-anchor="middle" x="705" y="-560" font-family="Arial" font-size="10.00"> created</text>
<text text-anchor="middle" x="705" y="-549" font-family="Arial" font-size="10.00">now</text>
</g>
<!-- Node9&#45;&gt;Node8 -->
<g id="edge9" class="edge"><title>Node9&#45;&gt;Node8</title>
<path fill="none" stroke="#9a32cd" stroke-dasharray="5,2" d="M409.947,-581.268C438.269,-606.206 495.895,-654.031 552,-683 587.915,-701.544 632.106,-715.16 663.563,-723.46"/>
<polygon fill="#9a32cd" stroke="#9a32cd" points="412.243,-578.626 402.446,-574.592 407.589,-583.855 412.243,-578.626"/>
<text text-anchor="middle" x="494" y="-696" font-family="Arial" font-size="10.00"> start</text>
<text text-anchor="middle" x="494" y="-685" font-family="Arial" font-size="10.00">start100</text>
<text text-anchor="middle" x="494" y="-674" font-family="Arial" font-size="10.00">now</text>
</g>
<!-- Node20 -->
<g id="node20" class="node"><title>Node20</title>
<g id="a_node20"><a xlink:href="struct_progress.html" target="_top" xlink:title="Progress">
<polygon fill="white" stroke="black" points="565,-500.5 565,-519.5 621,-519.5 621,-500.5 565,-500.5"/>
<text text-anchor="middle" x="593" y="-507.5" font-family="Arial" font-size="10.00">Progress</text>
</a>
</g>
</g>
<!-- Node9&#45;&gt;Node20 -->
<g id="edge28" class="edge"><title>Node9&#45;&gt;Node20</title>
<path fill="none" stroke="#9a32cd" stroke-dasharray="5,2" d="M423.723,-552.613C427.948,-550.587 432.148,-548.368 436,-546 444.871,-540.546 444.504,-535.274 454,-531 490.022,-514.789 536.119,-510.708 564.857,-509.882"/>
<polygon fill="#9a32cd" stroke="#9a32cd" points="422.247,-549.439 414.555,-556.725 425.111,-555.826 422.247,-549.439"/>
<text text-anchor="middle" x="494" y="-556" font-family="Arial" font-size="10.00"> t_startsingle</text>
<text text-anchor="middle" x="494" y="-545" font-family="Arial" font-size="10.00">start</text>
<text text-anchor="middle" x="494" y="-534" font-family="Arial" font-size="10.00">speeder_time</text>
</g>
<!-- Node10&#45;&gt;Node4 -->
<g id="edge10" class="edge"><title>Node10&#45;&gt;Node4</title>
<path fill="none" stroke="#9a32cd" stroke-dasharray="5,2" d="M886.471,-394.193C917.37,-402.479 957.595,-413.266 985.787,-420.826"/>
<polygon fill="#9a32cd" stroke="#9a32cd" points="887.358,-390.808 876.793,-391.598 885.545,-397.569 887.358,-390.808"/>
<text text-anchor="middle" x="945" y="-419" font-family="Arial" font-size="10.00"> data</text>
</g>
<!-- Node11 -->
<g id="node11" class="node"><title>Node11</title>
<g id="a_node11"><a xlink:href="struct_cookie_info.html" target="_top" xlink:title="CookieInfo">
<polygon fill="white" stroke="black" points="360,-138.5 360,-157.5 422,-157.5 422,-138.5 360,-138.5"/>
<text text-anchor="middle" x="391" y="-145.5" font-family="Arial" font-size="10.00">CookieInfo</text>
</a>
</g>
</g>
<!-- Node11&#45;&gt;Node10 -->
<g id="edge11" class="edge"><title>Node11&#45;&gt;Node10</title>
<path fill="none" stroke="#9a32cd" stroke-dasharray="5,2" d="M430.444,-162.77C432.402,-164.078 434.27,-165.486 436,-167 447.7,-177.241 441.096,-188.325 454,-197 567.46,-273.278 661.424,-147.23 758,-244 795.475,-281.551 741.525,-321.678 776,-362 781.891,-368.89 790.146,-373.433 798.745,-376.42"/>
<polygon fill="#9a32cd" stroke="#9a32cd" points="431.872,-159.555 421.448,-157.661 428.415,-165.642 431.872,-159.555"/>
<text text-anchor="middle" x="593" y="-226" font-family="Arial" font-size="10.00"> cookies</text>
</g>
<!-- Node21 -->
<g id="node21" class="node"><title>Node21</title>
<g id="a_node21"><a xlink:href="struct_curl__share.html" target="_top" xlink:title="Curl_share">
<polygon fill="white" stroke="black" points="561.5,-161.5 561.5,-180.5 624.5,-180.5 624.5,-161.5 561.5,-161.5"/>
<text text-anchor="middle" x="593" y="-168.5" font-family="Arial" font-size="10.00">Curl_share</text>
</a>
</g>
</g>
<!-- Node11&#45;&gt;Node21 -->
<g id="edge30" class="edge"><title>Node11&#45;&gt;Node21</title>
<path fill="none" stroke="#9a32cd" stroke-dasharray="5,2" d="M432.257,-150.829C460.738,-153.039 499.79,-156.492 534,-161 542.915,-162.175 552.554,-163.723 561.367,-165.25"/>
<polygon fill="#9a32cd" stroke="#9a32cd" points="432.507,-147.338 422.271,-150.071 431.978,-154.318 432.507,-147.338"/>
<text text-anchor="middle" x="494" y="-164" font-family="Arial" font-size="10.00"> cookies</text>
</g>
<!-- Node12 -->
<g id="node12" class="node"><title>Node12</title>
<g id="a_node12"><a xlink:href="struct_cookie.html" target="_top" xlink:title="Cookie">
<polygon fill="white" stroke="black" points="178.5,-118.5 178.5,-137.5 225.5,-137.5 225.5,-118.5 178.5,-118.5"/>
<text text-anchor="middle" x="202" y="-125.5" font-family="Arial" font-size="10.00">Cookie</text>
</a>
</g>
</g>
<!-- Node12&#45;&gt;Node11 -->
<g id="edge12" class="edge"><title>Node12&#45;&gt;Node11</title>
<path fill="none" stroke="#9a32cd" stroke-dasharray="5,2" d="M235.746,-131.502C270.806,-135.252 325.965,-141.151 359.95,-144.786"/>
<polygon fill="#9a32cd" stroke="#9a32cd" points="235.872,-127.996 225.557,-130.412 235.128,-134.956 235.872,-127.996"/>
<text text-anchor="middle" x="295" y="-144" font-family="Arial" font-size="10.00"> cookies</text>
</g>
<!-- Node12&#45;&gt;Node12 -->
<g id="edge13" class="edge"><title>Node12&#45;&gt;Node12</title>
<path fill="none" stroke="#9a32cd" stroke-dasharray="5,2" d="M188.741,-147.766C189.782,-152.497 194.202,-156 202,-156 214.797,-156 218.496,-146.565 213.097,-137.757"/>
<polygon fill="#9a32cd" stroke="#9a32cd" points="192.212,-148.271 190.903,-137.757 185.37,-146.793 192.212,-148.271"/>
<text text-anchor="middle" x="202" y="-159" font-family="Arial" font-size="10.00"> next</text>
</g>
<!-- Node13 -->
<g id="node13" class="node"><title>Node13</title>
<g id="a_node13"><a xlink:href="struct_pure_info.html" target="_top" xlink:title="PureInfo">
<polygon fill="white" stroke="black" points="567,-246.5 567,-265.5 619,-265.5 619,-246.5 567,-246.5"/>
<text text-anchor="middle" x="593" y="-253.5" font-family="Arial" font-size="10.00">PureInfo</text>
</a>
</g>
</g>
<!-- Node13&#45;&gt;Node10 -->
<g id="edge14" class="edge"><title>Node13&#45;&gt;Node10</title>
<path fill="none" stroke="#9a32cd" stroke-dasharray="5,2" d="M629.332,-249.775C666.256,-245.446 723.519,-245.215 758,-277 786.393,-303.173 750.075,-333.381 776,-362 782.009,-368.634 790.205,-373.082 798.697,-376.06"/>
<polygon fill="#9a32cd" stroke="#9a32cd" points="628.482,-246.357 619.033,-251.149 629.408,-253.296 628.482,-246.357"/>
<text text-anchor="middle" x="705" y="-280" font-family="Arial" font-size="10.00"> info</text>
</g>
<!-- Node14 -->
<g id="node14" class="node"><title>Node14</title>
<g id="a_node14"><a xlink:href="struct__curl__hash.html" target="_top" xlink:title="_curl_hash">
<polygon fill="white" stroke="black" points="359,-176.5 359,-195.5 423,-195.5 423,-176.5 359,-176.5"/>
<text text-anchor="middle" x="391" y="-183.5" font-family="Arial" font-size="10.00">_curl_hash</text>
</a>
</g>
</g>
<!-- Node14&#45;&gt;Node10 -->
<g id="edge16" class="edge"><title>Node14&#45;&gt;Node10</title>
<path fill="none" stroke="#9a32cd" stroke-dasharray="5,2" d="M413.48,-201.629C431.172,-214.496 453.447,-230.68 454,-231 495.316,-254.927 507.306,-258.208 552,-275 641.624,-308.673 679.638,-282.993 758,-338 768.913,-345.661 765.128,-354.282 776,-362 782.831,-366.849 790.889,-370.559 798.918,-373.385"/>
<polygon fill="#9a32cd" stroke="#9a32cd" points="415.424,-198.715 405.278,-195.663 411.306,-204.376 415.424,-198.715"/>
<text text-anchor="middle" x="593" y="-298" font-family="Arial" font-size="10.00"> hostcache</text>
</g>
<!-- Node14&#45;&gt;Node21 -->
<g id="edge31" class="edge"><title>Node14&#45;&gt;Node21</title>
<path fill="none" stroke="#9a32cd" stroke-dasharray="5,2" d="M433.492,-182.888C471.561,-180.033 527.078,-175.869 561.298,-173.303"/>
<polygon fill="#9a32cd" stroke="#9a32cd" points="432.96,-179.418 423.25,-183.656 433.484,-186.398 432.96,-179.418"/>
<text text-anchor="middle" x="494" y="-185" font-family="Arial" font-size="10.00"> hostcache</text>
</g>
<!-- Node15 -->
<g id="node15" class="node"><title>Node15</title>
<g id="a_node15"><a xlink:href="struct__curl__llist.html" target="_top" xlink:title="_curl_llist">
<polygon fill="white" stroke="black" points="173,-185.5 173,-204.5 231,-204.5 231,-185.5 173,-185.5"/>
<text text-anchor="middle" x="202" y="-192.5" font-family="Arial" font-size="10.00">_curl_llist</text>
</a>
</g>
</g>
<!-- Node15&#45;&gt;Node14 -->
<g id="edge17" class="edge"><title>Node15&#45;&gt;Node14</title>
<path fill="none" stroke="#9a32cd" stroke-dasharray="5,2" d="M241.61,-192.223C248.403,-191.78 255.407,-191.352 262,-191 295.089,-189.232 333.022,-187.829 358.951,-186.964"/>
<polygon fill="#9a32cd" stroke="#9a32cd" points="240.943,-188.76 231.2,-192.923 241.412,-195.744 240.943,-188.76"/>
<text text-anchor="middle" x="295" y="-194" font-family="Arial" font-size="10.00"> table</text>
</g>
<!-- Node16 -->
<g id="node16" class="node"><title>Node16</title>
<g id="a_node16"><a xlink:href="struct__curl__llist__element.html" target="_top" xlink:title="_curl_llist_element">
<polygon fill="white" stroke="black" points="0,-185.5 0,-204.5 98,-204.5 98,-185.5 0,-185.5"/>
<text text-anchor="middle" x="49" y="-192.5" font-family="Arial" font-size="10.00">_curl_llist_element</text>
</a>
</g>
</g>
<!-- Node16&#45;&gt;Node15 -->
<g id="edge18" class="edge"><title>Node16&#45;&gt;Node15</title>
<path fill="none" stroke="#9a32cd" stroke-dasharray="5,2" d="M108.463,-195C130.471,-195 154.516,-195 172.579,-195"/>
<polygon fill="#9a32cd" stroke="#9a32cd" points="108.193,-191.5 98.1925,-195 108.192,-198.5 108.193,-191.5"/>
<text text-anchor="middle" x="129" y="-209" font-family="Arial" font-size="10.00"> head</text>
<text text-anchor="middle" x="129" y="-198" font-family="Arial" font-size="10.00">tail</text>
</g>
<!-- Node16&#45;&gt;Node16 -->
<g id="edge19" class="edge"><title>Node16&#45;&gt;Node16</title>
<path fill="none" stroke="#9a32cd" stroke-dasharray="5,2" d="M34.2675,-214.766C35.4246,-219.497 40.3354,-223 49,-223 63.2188,-223 67.3289,-213.565 61.3303,-204.757"/>
<polygon fill="#9a32cd" stroke="#9a32cd" points="37.7393,-215.298 36.6697,-204.757 30.9326,-213.664 37.7393,-215.298"/>
<text text-anchor="middle" x="49" y="-237" font-family="Arial" font-size="10.00"> prev</text>
<text text-anchor="middle" x="49" y="-226" font-family="Arial" font-size="10.00">next</text>
</g>
<!-- Node17&#45;&gt;Node10 -->
<g id="edge20" class="edge"><title>Node17&#45;&gt;Node10</title>
<path fill="none" stroke="#9a32cd" stroke-dasharray="5,2" d="M637.965,-383.834C642.699,-383.498 647.447,-383.208 652,-383 702.594,-380.688 760.967,-380.822 798.85,-381.28"/>
<polygon fill="#9a32cd" stroke="#9a32cd" points="637.405,-380.367 627.706,-384.632 637.947,-387.346 637.405,-380.367"/>
<text text-anchor="middle" x="705" y="-386" font-family="Arial" font-size="10.00"> set</text>
</g>
<!-- Node18 -->
<g id="node18" class="node"><title>Node18</title>
<g id="a_node18"><a xlink:href="structcurl__httppost.html" target="_top" xlink:title="curl_httppost">
<polygon fill="white" stroke="black" points="354.5,-252.5 354.5,-271.5 427.5,-271.5 427.5,-252.5 354.5,-252.5"/>
<text text-anchor="middle" x="391" y="-259.5" font-family="Arial" font-size="10.00">curl_httppost</text>
</a>
</g>
</g>
<!-- Node18&#45;&gt;Node17 -->
<g id="edge22" class="edge"><title>Node18&#45;&gt;Node17</title>
<path fill="none" stroke="#9a32cd" stroke-dasharray="5,2" d="M409.026,-278.471C420.82,-289.083 437.341,-302.446 454,-311 486.911,-327.899 504.664,-311.459 534,-334 546.33,-343.474 541.005,-353.005 552,-364 557.612,-369.612 564.789,-374.444 571.511,-378.272"/>
<polygon fill="#9a32cd" stroke="#9a32cd" points="411.387,-275.887 401.673,-271.657 406.629,-281.021 411.387,-275.887"/>
<text text-anchor="middle" x="494" y="-337" font-family="Arial" font-size="10.00"> httppost</text>
</g>
<!-- Node18&#45;&gt;Node18 -->
<g id="edge23" class="edge"><title>Node18&#45;&gt;Node18</title>
<path fill="none" stroke="#9a32cd" stroke-dasharray="5,2" d="M373.223,-281.4C374.41,-286.315 380.336,-290 391,-290 408.063,-290 412.995,-280.565 405.796,-271.757"/>
<polygon fill="#9a32cd" stroke="#9a32cd" points="376.594,-282.345 376.204,-271.757 369.907,-280.278 376.594,-282.345"/>
<text text-anchor="middle" x="391" y="-304" font-family="Arial" font-size="10.00"> next</text>
<text text-anchor="middle" x="391" y="-293" font-family="Arial" font-size="10.00">more</text>
</g>
<!-- Node19 -->
<g id="node19" class="node"><title>Node19</title>
<g id="a_node19"><a xlink:href="structcurl__slist.html" target="_top" xlink:title="curl_slist">
<polygon fill="white" stroke="black" points="174,-252.5 174,-271.5 230,-271.5 230,-252.5 174,-252.5"/>
<text text-anchor="middle" x="202" y="-259.5" font-family="Arial" font-size="10.00">curl_slist</text>
</a>
</g>
</g>
<!-- Node19&#45;&gt;Node17 -->
<g id="edge26" class="edge"><title>Node19&#45;&gt;Node17</title>
<path fill="none" stroke="#9a32cd" stroke-dasharray="5,2" d="M233.455,-275.872C262.119,-288.613 306.435,-307.509 346,-321 420.574,-346.428 510.375,-368.887 558.174,-380.212"/>
<polygon fill="#9a32cd" stroke="#9a32cd" points="234.56,-272.531 224.002,-271.64 231.7,-278.921 234.56,-272.531"/>
<text text-anchor="middle" x="391" y="-407" font-family="Arial" font-size="10.00"> headers</text>
<text text-anchor="middle" x="391" y="-396" font-family="Arial" font-size="10.00">prequote</text>
<text text-anchor="middle" x="391" y="-385" font-family="Arial" font-size="10.00">telnet_options</text>
<text text-anchor="middle" x="391" y="-374" font-family="Arial" font-size="10.00">postquote</text>
<text text-anchor="middle" x="391" y="-363" font-family="Arial" font-size="10.00">quote</text>
<text text-anchor="middle" x="391" y="-352" font-family="Arial" font-size="10.00">http200aliases</text>
</g>
<!-- Node19&#45;&gt;Node18 -->
<g id="edge24" class="edge"><title>Node19&#45;&gt;Node18</title>
<path fill="none" stroke="#9a32cd" stroke-dasharray="5,2" d="M240.411,-262C273.626,-262 321.822,-262 354.459,-262"/>
<polygon fill="#9a32cd" stroke="#9a32cd" points="240.191,-258.5 230.191,-262 240.191,-265.5 240.191,-258.5"/>
<text text-anchor="middle" x="295" y="-265" font-family="Arial" font-size="10.00"> contentheader</text>
</g>
<!-- Node19&#45;&gt;Node19 -->
<g id="edge25" class="edge"><title>Node19&#45;&gt;Node19</title>
<path fill="none" stroke="#9a32cd" stroke-dasharray="5,2" d="M188.741,-281.766C189.782,-286.497 194.202,-290 202,-290 214.797,-290 218.496,-280.565 213.097,-271.757"/>
<polygon fill="#9a32cd" stroke="#9a32cd" points="192.212,-282.271 190.903,-271.757 185.37,-280.793 192.212,-282.271"/>
<text text-anchor="middle" x="202" y="-293" font-family="Arial" font-size="10.00"> next</text>
</g>
<!-- Node22 -->
<g id="node22" class="node"><title>Node22</title>
<g id="a_node22"><a xlink:href="struct_dynamic_static.html" target="_top" xlink:title="DynamicStatic">
<polygon fill="white" stroke="black" points="454,-290.5 454,-309.5 534,-309.5 534,-290.5 454,-290.5"/>
<text text-anchor="middle" x="494" y="-297.5" font-family="Arial" font-size="10.00">DynamicStatic</text>
</a>
</g>
</g>
<!-- Node19&#45;&gt;Node22 -->
<g id="edge33" class="edge"><title>Node19&#45;&gt;Node22</title>
<path fill="none" stroke="#9a32cd" stroke-dasharray="5,2" d="M233.235,-248.493C280.744,-229.519 373.858,-201.646 436,-243 453.248,-254.478 438.976,-271.734 454,-286 455.774,-287.684 457.764,-289.168 459.883,-290.475"/>
<polygon fill="#9a32cd" stroke="#9a32cd" points="231.726,-245.33 223.817,-252.379 234.396,-251.801 231.726,-245.33"/>
<text text-anchor="middle" x="295" y="-241" font-family="Arial" font-size="10.00"> cookielist</text>
</g>
<!-- Node20&#45;&gt;Node10 -->
<g id="edge27" class="edge"><title>Node20&#45;&gt;Node10</title>
<path fill="none" stroke="#9a32cd" stroke-dasharray="5,2" d="M622.938,-496.105C655.89,-480.149 711.22,-452.956 758,-428 780.687,-415.897 806.439,-401.083 822.697,-391.595"/>
<polygon fill="#9a32cd" stroke="#9a32cd" points="621.345,-492.987 613.863,-500.488 624.39,-499.29 621.345,-492.987"/>
<text text-anchor="middle" x="705" y="-485" font-family="Arial" font-size="10.00"> progress</text>
</g>
<!-- Node21&#45;&gt;Node10 -->
<g id="edge29" class="edge"><title>Node21&#45;&gt;Node10</title>
<path fill="none" stroke="#9a32cd" stroke-dasharray="5,2" d="M634.64,-163.52C672.107,-159.189 726.531,-159.836 758,-192 784.567,-219.154 751.982,-332.567 776,-362 781.804,-369.113 790.133,-373.733 798.842,-376.724"/>
<polygon fill="#9a32cd" stroke="#9a32cd" points="634.011,-160.073 624.556,-164.852 634.928,-167.013 634.011,-160.073"/>
<text text-anchor="middle" x="705" y="-195" font-family="Arial" font-size="10.00"> share</text>
</g>
<!-- Node22&#45;&gt;Node10 -->
<g id="edge32" class="edge"><title>Node22&#45;&gt;Node10</title>
<path fill="none" stroke="#9a32cd" stroke-dasharray="5,2" d="M535.463,-312.432C541.003,-314.027 546.631,-315.593 552,-317 639.473,-339.922 743.185,-362.22 798.865,-373.799"/>
<polygon fill="#9a32cd" stroke="#9a32cd" points="536.24,-309.012 525.659,-309.555 534.269,-315.729 536.24,-309.012"/>
<text text-anchor="middle" x="593" y="-340" font-family="Arial" font-size="10.00"> change</text>
</g>
<!-- Node23 -->
<g id="node23" class="node"><title>Node23</title>
<g id="a_node23"><a xlink:href="structconnectdata_1_1dynamically__allocated__data.html" target="_top" xlink:title="connectdata::dynamically\l_allocated_data">
<polygon fill="white" stroke="black" points="776,-323 776,-353 904,-353 904,-323 776,-323"/>
<text text-anchor="start" x="784" y="-341" font-family="Arial" font-size="10.00">connectdata::dynamically</text>
<text text-anchor="middle" x="840" y="-330" font-family="Arial" font-size="10.00">_allocated_data</text>
</a>
</g>
</g>
<!-- Node23&#45;&gt;Node4 -->
<g id="edge34" class="edge"><title>Node23&#45;&gt;Node4</title>
<path fill="none" stroke="#9a32cd" stroke-dasharray="5,2" d="M895.827,-356.621C918.812,-365.392 945.393,-376.831 968,-390 983.156,-398.829 998.895,-411.51 1009.03,-420.215"/>
<polygon fill="#9a32cd" stroke="#9a32cd" points="896.811,-353.253 886.218,-353.029 894.359,-359.809 896.811,-353.253"/>
<text text-anchor="middle" x="945" y="-393" font-family="Arial" font-size="10.00"> allocptr</text>
</g>
<!-- Node24 -->
<g id="node24" class="node"><title>Node24</title>
<g id="a_node24"><a xlink:href="struct_h_t_t_p.html" target="_top" xlink:title="HTTP">
<polygon fill="white" stroke="black" points="819.5,-280.5 819.5,-299.5 860.5,-299.5 860.5,-280.5 819.5,-280.5"/>
<text text-anchor="middle" x="840" y="-287.5" font-family="Arial" font-size="10.00">HTTP</text>
</a>
</g>
</g>
<!-- Node24&#45;&gt;Node4 -->
<g id="edge35" class="edge"><title>Node24&#45;&gt;Node4</title>
<path fill="none" stroke="#9a32cd" stroke-dasharray="5,2" d="M870.817,-293.437C898.713,-298.018 940.15,-308.487 968,-332 996.845,-356.354 1012,-400.862 1017.52,-420.387"/>
<polygon fill="#9a32cd" stroke="#9a32cd" points="871.251,-289.963 860.845,-291.955 870.222,-296.887 871.251,-289.963"/>
<text text-anchor="middle" x="945" y="-357" font-family="Arial" font-size="10.00"> https</text>
<text text-anchor="middle" x="945" y="-346" font-family="Arial" font-size="10.00">http</text>
<text text-anchor="middle" x="945" y="-335" font-family="Arial" font-size="10.00">gopher</text>
</g>
<!-- Node25 -->
<g id="node25" class="node"><title>Node25</title>
<g id="a_node25"><a xlink:href="struct_form.html" target="_top" xlink:title="Form">
<polygon fill="white" stroke="black" points="573.5,-0.5 573.5,-19.5 612.5,-19.5 612.5,-0.5 573.5,-0.5"/>
<text text-anchor="middle" x="593" y="-7.5" font-family="Arial" font-size="10.00">Form</text>
</a>
</g>
</g>
<!-- Node25&#45;&gt;Node24 -->
<g id="edge36" class="edge"><title>Node25&#45;&gt;Node24</title>
<path fill="none" stroke="#9a32cd" stroke-dasharray="5,2" d="M622.64,-4.007C659.665,1.88326 723.474,5.38818 758,-31 794.813,-69.7978 742.521,-229.291 776,-271 786.298,-283.829 804.944,-288.237 819.289,-289.639"/>
<polygon fill="#9a32cd" stroke="#9a32cd" points="621.756,-0.608502 612.512,-5.78497 622.967,-7.50307 621.756,-0.608502"/>
<text text-anchor="middle" x="705" y="-34" font-family="Arial" font-size="10.00"> form</text>
</g>
<!-- Node26 -->
<g id="node26" class="node"><title>Node26</title>
<g id="a_node26"><a xlink:href="struct_form_data.html" target="_top" xlink:title="FormData">
<polygon fill="white" stroke="black" points="361.5,-28.5 361.5,-47.5 420.5,-47.5 420.5,-28.5 361.5,-28.5"/>
<text text-anchor="middle" x="391" y="-35.5" font-family="Arial" font-size="10.00">FormData</text>
</a>
</g>
</g>
<!-- Node26&#45;&gt;Node24 -->
<g id="edge39" class="edge"><title>Node26&#45;&gt;Node24</title>
<path fill="none" stroke="#9a32cd" stroke-dasharray="5,2" d="M430.546,-40.7969C522.239,-47.6252 746.59,-65.433 758,-77 788.406,-107.823 748.601,-237.476 776,-271 786.41,-283.738 805.043,-288.157 819.353,-289.586"/>
<polygon fill="#9a32cd" stroke="#9a32cd" points="430.786,-37.3052 420.555,-40.0573 430.269,-44.2861 430.786,-37.3052"/>
<text text-anchor="middle" x="593" y="-61" font-family="Arial" font-size="10.00"> sendit</text>
</g>
<!-- Node26&#45;&gt;Node25 -->
<g id="edge37" class="edge"><title>Node26&#45;&gt;Node25</title>
<path fill="none" stroke="#9a32cd" stroke-dasharray="5,2" d="M430.722,-32.5789C473.57,-26.5802 540.843,-17.1619 573.279,-12.621"/>
<polygon fill="#9a32cd" stroke="#9a32cd" points="430.073,-29.1355 420.655,-33.9883 431.044,-36.0679 430.073,-29.1355"/>
<text text-anchor="middle" x="494" y="-32" font-family="Arial" font-size="10.00"> data</text>
</g>
<!-- Node26&#45;&gt;Node26 -->
<g id="edge38" class="edge"><title>Node26&#45;&gt;Node26</title>
<path fill="none" stroke="#9a32cd" stroke-dasharray="5,2" d="M373.223,-57.4C374.41,-62.3146 380.336,-66 391,-66 408.063,-66 412.995,-56.5653 405.796,-47.7571"/>
<polygon fill="#9a32cd" stroke="#9a32cd" points="376.594,-58.3447 376.204,-47.7571 369.907,-56.2775 376.594,-58.3447"/>
<text text-anchor="middle" x="391" y="-69" font-family="Arial" font-size="10.00"> next</text>
</g>
<!-- Node27 -->
<g id="node27" class="node"><title>Node27</title>
<g id="a_node27"><a xlink:href="struct_h_t_t_p_1_1back.html" target="_top" xlink:title="HTTP::back">
<polygon fill="white" stroke="black" points="559,-123.5 559,-142.5 627,-142.5 627,-123.5 559,-123.5"/>
<text text-anchor="middle" x="593" y="-130.5" font-family="Arial" font-size="10.00">HTTP::back</text>
</a>
</g>
</g>
<!-- Node27&#45;&gt;Node24 -->
<g id="edge40" class="edge"><title>Node27&#45;&gt;Node24</title>
<path fill="none" stroke="#9a32cd" stroke-dasharray="5,2" d="M637.115,-123.684C674.106,-118.432 726.316,-117.985 758,-148 798.109,-185.996 739.92,-229.159 776,-271 786.668,-283.372 805.076,-287.851 819.248,-289.394"/>
<polygon fill="#9a32cd" stroke="#9a32cd" points="636.442,-120.247 627.114,-125.272 637.54,-127.161 636.442,-120.247"/>
<text text-anchor="middle" x="705" y="-151" font-family="Arial" font-size="10.00"> backup</text>
</g>
<!-- Node28 -->
<g id="node28" class="node"><title>Node28</title>
<g id="a_node28"><a xlink:href="struct_curl__chunker.html" target="_top" xlink:title="Curl_chunker">
<polygon fill="white" stroke="black" points="556,-85.5 556,-104.5 630,-104.5 630,-85.5 556,-85.5"/>
<text text-anchor="middle" x="593" y="-92.5" font-family="Arial" font-size="10.00">Curl_chunker</text>
</a>
</g>
</g>
<!-- Node28&#45;&gt;Node24 -->
<g id="edge41" class="edge"><title>Node28&#45;&gt;Node24</title>
<path fill="none" stroke="#9a32cd" stroke-dasharray="5,2" d="M640.265,-83.6768C677.107,-77.6635 727.41,-76.6596 758,-106 784.619,-131.532 752.429,-242.63 776,-271 786.513,-283.653 805.132,-288.083 819.412,-289.538"/>
<polygon fill="#9a32cd" stroke="#9a32cd" points="639.476,-80.2625 630.258,-85.4846 640.721,-87.151 639.476,-80.2625"/>
<text text-anchor="middle" x="705" y="-109" font-family="Arial" font-size="10.00"> chunk</text>
</g>
<!-- Node29 -->
<g id="node29" class="node"><title>Node29</title>
<g id="a_node29"><a xlink:href="struct_connect_bits.html" target="_top" xlink:title="ConnectBits">
<polygon fill="white" stroke="black" points="805,-242.5 805,-261.5 875,-261.5 875,-242.5 805,-242.5"/>
<text text-anchor="middle" x="840" y="-249.5" font-family="Arial" font-size="10.00">ConnectBits</text>
</a>
</g>
</g>
<!-- Node29&#45;&gt;Node4 -->
<g id="edge44" class="edge"><title>Node29&#45;&gt;Node4</title>
<path fill="none" stroke="#9a32cd" stroke-dasharray="5,2" d="M885.179,-256.4C912.227,-261.26 945.793,-271.486 968,-293 1005.46,-329.289 1016.27,-395.31 1019.09,-420.175"/>
<polygon fill="#9a32cd" stroke="#9a32cd" points="885.599,-252.923 875.169,-254.788 884.486,-259.834 885.599,-252.923"/>
<text text-anchor="middle" x="945" y="-296" font-family="Arial" font-size="10.00"> bits</text>
</g>
<!-- Node30 -->
<g id="node30" class="node"><title>Node30</title>
<g id="a_node30"><a xlink:href="struct_f_i_l_e_p_r_o_t_o.html" target="_top" xlink:title="FILEPROTO">
<polygon fill="white" stroke="black" points="804.5,-204.5 804.5,-223.5 875.5,-223.5 875.5,-204.5 804.5,-204.5"/>
<text text-anchor="middle" x="840" y="-211.5" font-family="Arial" font-size="10.00">FILEPROTO</text>
</a>
</g>
</g>
<!-- Node30&#45;&gt;Node4 -->
<g id="edge45" class="edge"><title>Node30&#45;&gt;Node4</title>
<path fill="none" stroke="#9a32cd" stroke-dasharray="5,2" d="M885.612,-217.164C912.829,-221.386 946.422,-231.049 968,-253 1015.6,-301.422 1020.02,-391.03 1020.14,-420.402"/>
<polygon fill="#9a32cd" stroke="#9a32cd" points="885.91,-213.673 875.531,-215.799 884.97,-220.61 885.91,-213.673"/>
<text text-anchor="middle" x="945" y="-256" font-family="Arial" font-size="10.00"> file</text>
</g>
<!-- Node31 -->
<g id="node31" class="node"><title>Node31</title>
<g id="a_node31"><a xlink:href="struct_f_t_p.html" target="_top" xlink:title="FTP">
<polygon fill="white" stroke="black" points="822.5,-166.5 822.5,-185.5 857.5,-185.5 857.5,-166.5 822.5,-166.5"/>
<text text-anchor="middle" x="840" y="-173.5" font-family="Arial" font-size="10.00">FTP</text>
</a>
</g>
</g>
<!-- Node31&#45;&gt;Node4 -->
<g id="edge46" class="edge"><title>Node31&#45;&gt;Node4</title>
<path fill="none" stroke="#9a32cd" stroke-dasharray="5,2" d="M867.85,-176.068C896.675,-177.646 941.841,-184.717 968,-212 997.688,-242.964 1014.81,-382.319 1018.99,-420.373"/>
<polygon fill="#9a32cd" stroke="#9a32cd" points="867.796,-172.564 857.677,-175.701 867.544,-179.559 867.796,-172.564"/>
<text text-anchor="middle" x="945" y="-215" font-family="Arial" font-size="10.00"> ftp</text>
</g>
<!-- Node32 -->
<g id="node32" class="node"><title>Node32</title>
<g id="a_node32"><a xlink:href="structssl__connect__data.html" target="_top" xlink:title="ssl_connect_data">
<polygon fill="white" stroke="black" points="793.5,-128.5 793.5,-147.5 886.5,-147.5 886.5,-128.5 793.5,-128.5"/>
<text text-anchor="middle" x="840" y="-135.5" font-family="Arial" font-size="10.00">ssl_connect_data</text>
</a>
</g>
</g>
<!-- Node32&#45;&gt;Node4 -->
<g id="edge47" class="edge"><title>Node32&#45;&gt;Node4</title>
<path fill="none" stroke="#9a32cd" stroke-dasharray="5,2" d="M896.821,-139.542C921.849,-143.155 949.774,-151.722 968,-171 1003.21,-208.242 1016.57,-377.869 1019.4,-420.338"/>
<polygon fill="#9a32cd" stroke="#9a32cd" points="897.022,-136.041 886.674,-138.316 896.182,-142.991 897.022,-136.041"/>
<text text-anchor="middle" x="945" y="-174" font-family="Arial" font-size="10.00"> ssl</text>
</g>
<!-- Node33 -->
<g id="node33" class="node"><title>Node33</title>
<g id="a_node33"><a xlink:href="structdigestdata.html" target="_top" xlink:title="digestdata">
<polygon fill="white" stroke="black" points="360,-517.5 360,-536.5 422,-536.5 422,-517.5 360,-517.5"/>
<text text-anchor="middle" x="391" y="-524.5" font-family="Arial" font-size="10.00">digestdata</text>
</a>
</g>
</g>
<!-- Node33&#45;&gt;Node1 -->
<g id="edge49" class="edge"><title>Node33&#45;&gt;Node1</title>
<path fill="none" stroke="#9a32cd" stroke-dasharray="5,2" d="M431.33,-512.111C432.994,-510.844 434.564,-509.476 436,-508 451.024,-492.563 436.207,-475.141 454,-463 487.545,-440.111 537.167,-447.094 566.871,-454.426"/>
<polygon fill="#9a32cd" stroke="#9a32cd" points="429.062,-509.399 422.405,-517.641 432.749,-515.349 429.062,-509.399"/>
<text text-anchor="middle" x="494" y="-466" font-family="Arial" font-size="10.00"> digest</text>
</g>
</g>
</svg>
        <g id="navigator" transform="translate(0 0)" fill="#404254">
                <rect fill="#f2f5e9" fill-opacity="0.5" stroke="#606060" stroke-width=".5" x="0" y="0" width="60" height="60"/>
                <use id="zoomplus" xlink:href="#zoomPlus" x="17" y="9" onmousedown="handleZoom(evt,'in')"/>
                <use id="zoomminus" xlink:href="#zoomMin" x="42" y="9" onmousedown="handleZoom(evt,'out')"/>
                <use id="reset" xlink:href="#resetDef" x="30" y="36" onmousedown="handleReset()"/>
                <g id="arrowUp" xlink:href="#dirArrow" transform="translate(30 24)" onmousedown="handlePan(0,-1)">
                  <use xlink:href="#rim" fill="#404040">
                        <set attributeName="fill" to="#808080" begin="arrowUp.mouseover" end="arrowUp.mouseout"/>
                  </use>
                  <path fill="none" stroke="white" stroke-width="1.5" d="M0,-3.0v7 M-2.5,-0.5L0,-3.0L2.5,-0.5"/>
                </g>
                <g id="arrowRight" xlink:href="#dirArrow" transform="rotate(90) translate(36 -43)" onmousedown="handlePan(1,0)">
                  <use xlink:href="#rim" fill="#404040">
                        <set attributeName="fill" to="#808080" begin="arrowRight.mouseover" end="arrowRight.mouseout"/>
                  </use>
                  <path fill="none" stroke="white" stroke-width="1.5" d="M0,-3.0v7 M-2.5,-0.5L0,-3.0L2.5,-0.5"/>
                </g>
                <g id="arrowDown" xlink:href="#dirArrow" transform="rotate(180) translate(-30 -48)" onmousedown="handlePan(0,1)">
                  <use xlink:href="#rim" fill="#404040">
                        <set attributeName="fill" to="#808080" begin="arrowDown.mouseover" end="arrowDown.mouseout"/>
                  </use>
                  <path fill="none" stroke="white" stroke-width="1.5" d="M0,-3.0v7 M-2.5,-0.5L0,-3.0L2.5,-0.5"/>
                </g>
                <g id="arrowLeft" xlink:href="#dirArrow" transform="rotate(270) translate(-36 17)" onmousedown="handlePan(-1,0)">
                  <use xlink:href="#rim" fill="#404040">
                        <set attributeName="fill" to="#808080" begin="arrowLeft.mouseover" end="arrowLeft.mouseout"/>
                  </use>
                  <path fill="none" stroke="white" stroke-width="1.5" d="M0,-3.0v7 M-2.5,-0.5L0,-3.0L2.5,-0.5"/>
                </g>
        </g>
        <svg viewBox="0 0 15 15" width="100%" height="30px" preserveAspectRatio="xMaxYMin meet">
         <g id="arrow_out" transform="scale(0.3 0.3)">
          <a xlink:href="struct_url_state__coll__graph_org.svg" target="_base">
           <rect id="button" ry="5" rx="5" y="6" x="6" height="38" width="38"
                fill="#f2f5e9" fill-opacity="0.5" stroke="#606060" stroke-width="1.0"/>
           <path id="arrow"
             d="M 11.500037,31.436501 C 11.940474,20.09759 22.043105,11.32322 32.158766,21.979434 L 37.068811,17.246167 C 37.068811,17.246167 37.088388,32 37.088388,32 L 22.160133,31.978069 C 22.160133,31.978069 26.997745,27.140456 26.997745,27.140456 C 18.528582,18.264221 13.291696,25.230495 11.500037,31.436501 z"
             style="fill:#404040;"/>
          </a>
         </g>
        </svg>
</svg>
