<?xml version="1.0" encoding="UTF-8" standalone="no"?>
<!DOCTYPE svg PUBLIC "-//W3C//DTD SVG 1.1//EN"
 "http://www.w3.org/Graphics/SVG/1.1/DTD/svg11.dtd">
<!-- Generated by graphviz version 2.34.0 (20130907.0111)
 -->
<!-- Title: evar_s Pages: 1 -->
<svg width="55pt" height="106pt"
 viewBox="0.00 0.00 55.00 106.00" xmlns="http://www.w3.org/2000/svg" xmlns:xlink="http://www.w3.org/1999/xlink">
<g id="graph0" class="graph" transform="scale(1 1) rotate(0) translate(4 102)">
<title>evar_s</title>
<polygon fill="white" stroke="white" points="-4,4 -4,-102 51,-102 51,4 -4,4"/>
<!-- Node1 -->
<g id="node1" class="node"><title>Node1</title>
<polygon fill="#bfbfbf" stroke="black" points="0,-0.5 0,-19.5 44,-19.5 44,-0.5 0,-0.5"/>
<text text-anchor="middle" x="22" y="-7.5" font-family="Arial" font-size="10.00">evar_s</text>
</g>
<!-- Node2 -->
<g id="node2" class="node"><title>Node2</title>
<g id="a_node2"><a xlink:href="classid_str.html" target="_top" xlink:title="idStr">
<polygon fill="white" stroke="black" points="3.5,-78.5 3.5,-97.5 40.5,-97.5 40.5,-78.5 3.5,-78.5"/>
<text text-anchor="middle" x="22" y="-85.5" font-family="Arial" font-size="10.00">idStr</text>
</a>
</g>
</g>
<!-- Node2&#45;&gt;Node1 -->
<g id="edge1" class="edge"><title>Node2&#45;&gt;Node1</title>
<path fill="none" stroke="#9a32cd" stroke-dasharray="5,2" d="M22,-68.2239C22,-52.6974 22,-31.3582 22,-19.6165"/>
<polygon fill="#9a32cd" stroke="#9a32cd" points="18.5001,-68.2818 22,-78.2818 25.5001,-68.2819 18.5001,-68.2818"/>
<text text-anchor="middle" x="34.5" y="-52" font-family="Arial" font-size="10.00"> desc</text>
<text text-anchor="middle" x="34.5" y="-41" font-family="Arial" font-size="10.00">name</text>
</g>
</g>
</svg>
