<?xml version="1.0" encoding="UTF-8" standalone="no"?>
<!DOCTYPE svg PUBLIC "-//W3C//DTD SVG 1.1//EN"
 "http://www.w3.org/Graphics/SVG/1.1/DTD/svg11.dtd">
<!-- Generated by graphviz version 2.34.0 (20130907.0111)
 -->
<!-- Title: singleSmoke_s Pages: 1 -->
<svg width="197pt" height="96pt"
 viewBox="0.00 0.00 197.00 96.00" xmlns="http://www.w3.org/2000/svg" xmlns:xlink="http://www.w3.org/1999/xlink">
<g id="graph0" class="graph" transform="scale(1 1) rotate(0) translate(4 92)">
<title>singleSmoke_s</title>
<polygon fill="white" stroke="white" points="-4,4 -4,-92 193,-92 193,4 -4,4"/>
<!-- Node1 -->
<g id="node1" class="node"><title>Node1</title>
<polygon fill="#bfbfbf" stroke="black" points="52.5,-0.5 52.5,-19.5 135.5,-19.5 135.5,-0.5 52.5,-0.5"/>
<text text-anchor="middle" x="94" y="-7.5" font-family="Arial" font-size="10.00">singleSmoke_s</text>
</g>
<!-- Node1&#45;&gt;Node1 -->
<g id="edge3" class="edge"><title>Node1&#45;&gt;Node1</title>
<path fill="none" stroke="#9a32cd" stroke-dasharray="5,2" d="M145.85,-14.9574C150.254,-13.8984 153,-12.2459 153,-10 153,-6.31445 145.605,-4.22694 135.625,-3.73745"/>
<polygon fill="#9a32cd" stroke="#9a32cd" points="145.101,-11.5245 135.625,-16.2626 145.988,-18.4682 145.101,-11.5245"/>
<text text-anchor="middle" x="164" y="-7.5" font-family="Arial" font-size="10.00"> next</text>
</g>
<!-- Node2 -->
<g id="node2" class="node"><title>Node2</title>
<g id="a_node2"><a xlink:href="classid_mat3.html" target="_top" xlink:title="idMat3">
<polygon fill="white" stroke="black" points="0,-68.5 0,-87.5 46,-87.5 46,-68.5 0,-68.5"/>
<text text-anchor="middle" x="23" y="-75.5" font-family="Arial" font-size="10.00">idMat3</text>
</a>
</g>
</g>
<!-- Node2&#45;&gt;Node1 -->
<g id="edge1" class="edge"><title>Node2&#45;&gt;Node1</title>
<path fill="none" stroke="#9a32cd" stroke-dasharray="5,2" d="M39.7687,-61.4122C53.7164,-48.4468 73.0701,-30.4559 84.4891,-19.8411"/>
<polygon fill="#9a32cd" stroke="#9a32cd" points="37.2233,-58.9997 32.282,-68.3717 41.9893,-64.1267 37.2233,-58.9997"/>
<text text-anchor="middle" x="76" y="-41.5" font-family="Arial" font-size="10.00"> axis</text>
</g>
<!-- Node3 -->
<g id="node3" class="node"><title>Node3</title>
<g id="a_node3"><a xlink:href="classid_random.html" target="_top" xlink:title="idRandom">
<polygon fill="white" stroke="black" points="64,-68.5 64,-87.5 124,-87.5 124,-68.5 64,-68.5"/>
<text text-anchor="middle" x="94" y="-75.5" font-family="Arial" font-size="10.00">idRandom</text>
</a>
</g>
</g>
<!-- Node3&#45;&gt;Node1 -->
<g id="edge2" class="edge"><title>Node3&#45;&gt;Node1</title>
<path fill="none" stroke="#9a32cd" stroke-dasharray="5,2" d="M94,-58.0413C94,-45.4724 94,-29.5631 94,-19.8411"/>
<polygon fill="#9a32cd" stroke="#9a32cd" points="90.5001,-58.3716 94,-68.3717 97.5001,-58.3717 90.5001,-58.3716"/>
<text text-anchor="middle" x="112" y="-41.5" font-family="Arial" font-size="10.00"> random</text>
</g>
<!-- Node4 -->
<g id="node4" class="node"><title>Node4</title>
<g id="a_node4"><a xlink:href="classid_vec3.html" target="_top" xlink:title="idVec3">
<polygon fill="white" stroke="black" points="142.5,-68.5 142.5,-87.5 189.5,-87.5 189.5,-68.5 142.5,-68.5"/>
<text text-anchor="middle" x="166" y="-75.5" font-family="Arial" font-size="10.00">idVec3</text>
</a>
</g>
</g>
<!-- Node4&#45;&gt;Node1 -->
<g id="edge4" class="edge"><title>Node4&#45;&gt;Node1</title>
<path fill="none" stroke="#9a32cd" stroke-dasharray="5,2" d="M153.763,-59.9565C148.17,-52.7614 141.194,-44.5515 134,-38 126.319,-31.0046 116.694,-24.4512 108.811,-19.553"/>
<polygon fill="#9a32cd" stroke="#9a32cd" points="151.229,-62.4125 160.02,-68.3264 156.836,-58.2213 151.229,-62.4125"/>
<text text-anchor="middle" x="159.5" y="-41.5" font-family="Arial" font-size="10.00"> origin</text>
</g>
</g>
</svg>
