<?xml version="1.0" encoding="UTF-8" standalone="no"?>
<!DOCTYPE svg PUBLIC "-//W3C//DTD SVG 1.1//EN"
 "http://www.w3.org/Graphics/SVG/1.1/DTD/svg11.dtd">
<!-- Generated by graphviz version 2.34.0 (20130907.0111)
 -->
<!-- Title: aasArea_s Pages: 1 -->
<svg width="260pt" height="186pt"
 viewBox="0.00 0.00 259.64 186.00" xmlns="http://www.w3.org/2000/svg" xmlns:xlink="http://www.w3.org/1999/xlink">
<g id="graph0" class="graph" transform="scale(1 1) rotate(0) translate(4 182)">
<title>aasArea_s</title>
<polygon fill="white" stroke="white" points="-4,4 -4,-182 255.64,-182 255.64,4 -4,4"/>
<!-- Node1 -->
<g id="node1" class="node"><title>Node1</title>
<polygon fill="#bfbfbf" stroke="black" points="52.1399,-0.5 52.1399,-19.5 115.14,-19.5 115.14,-0.5 52.1399,-0.5"/>
<text text-anchor="middle" x="83.6399" y="-7.5" font-family="Arial" font-size="10.00">aasArea_s</text>
</g>
<!-- Node2 -->
<g id="node2" class="node"><title>Node2</title>
<g id="a_node2"><a xlink:href="classid_reachability.html" target="_top" xlink:title="idReachability">
<polygon fill="white" stroke="black" points="45.1399,-79.5 45.1399,-98.5 122.14,-98.5 122.14,-79.5 45.1399,-79.5"/>
<text text-anchor="middle" x="83.6399" y="-86.5" font-family="Arial" font-size="10.00">idReachability</text>
</a>
</g>
</g>
<!-- Node2&#45;&gt;Node1 -->
<g id="edge1" class="edge"><title>Node2&#45;&gt;Node1</title>
<path fill="none" stroke="#9a32cd" stroke-dasharray="5,2" d="M83.6399,-69.3145C83.6399,-53.5917 83.6399,-31.8079 83.6399,-19.8094"/>
<polygon fill="#9a32cd" stroke="#9a32cd" points="80.14,-69.4654 83.6399,-79.4655 87.14,-69.4655 80.14,-69.4654"/>
<text text-anchor="middle" x="106.14" y="-52" font-family="Arial" font-size="10.00"> rev_reach</text>
<text text-anchor="middle" x="106.14" y="-41" font-family="Arial" font-size="10.00">reach</text>
</g>
<!-- Node2&#45;&gt;Node2 -->
<g id="edge2" class="edge"><title>Node2&#45;&gt;Node2</title>
<path fill="none" stroke="#9a32cd" stroke-dasharray="5,2" d="M132.512,-94.9317C136.891,-93.6909 139.64,-91.7136 139.64,-89 139.64,-84.5469 132.237,-82.0768 122.375,-81.5897"/>
<polygon fill="#9a32cd" stroke="#9a32cd" points="131.765,-91.5035 122.375,-96.4103 132.776,-98.4302 131.765,-91.5035"/>
<text text-anchor="middle" x="158.14" y="-92" font-family="Arial" font-size="10.00"> next</text>
<text text-anchor="middle" x="158.14" y="-81" font-family="Arial" font-size="10.00">rev_next</text>
</g>
<!-- Node3 -->
<g id="node3" class="node"><title>Node3</title>
<g id="a_node3"><a xlink:href="classid_vec3.html" target="_top" xlink:title="idVec3">
<polygon fill="white" stroke="black" points="2.13992,-158.5 2.13992,-177.5 49.1399,-177.5 49.1399,-158.5 2.13992,-158.5"/>
<text text-anchor="middle" x="25.6399" y="-165.5" font-family="Arial" font-size="10.00">idVec3</text>
</a>
</g>
</g>
<!-- Node3&#45;&gt;Node1 -->
<g id="edge5" class="edge"><title>Node3&#45;&gt;Node1</title>
<path fill="none" stroke="#9a32cd" stroke-dasharray="5,2" d="M14.9888,-149.509C5.21732,-131.051 -6.21795,-101.446 4.63992,-78 17.3362,-50.5847 47.3911,-30.2975 66.5536,-19.5895"/>
<polygon fill="#9a32cd" stroke="#9a32cd" points="11.9829,-151.304 19.9569,-158.28 18.0737,-147.854 11.9829,-151.304"/>
<text text-anchor="middle" x="20.1399" y="-86.5" font-family="Arial" font-size="10.00"> center</text>
</g>
<!-- Node3&#45;&gt;Node2 -->
<g id="edge3" class="edge"><title>Node3&#45;&gt;Node2</title>
<path fill="none" stroke="#9a32cd" stroke-dasharray="5,2" d="M38.3562,-150.118C50.2723,-134.298 67.6154,-111.274 77.0042,-98.8094"/>
<polygon fill="#9a32cd" stroke="#9a32cd" points="35.2895,-148.372 32.0685,-158.465 40.8808,-152.584 35.2895,-148.372"/>
<text text-anchor="middle" x="71.6399" y="-132" font-family="Arial" font-size="10.00"> end</text>
<text text-anchor="middle" x="71.6399" y="-121" font-family="Arial" font-size="10.00">start</text>
</g>
<!-- Node4 -->
<g id="node4" class="node"><title>Node4</title>
<g id="a_node4"><a xlink:href="classid_bounds.html" target="_top" xlink:title="idBounds">
<polygon fill="white" stroke="black" points="195.14,-79.5 195.14,-98.5 252.14,-98.5 252.14,-79.5 195.14,-79.5"/>
<text text-anchor="middle" x="223.64" y="-86.5" font-family="Arial" font-size="10.00">idBounds</text>
</a>
</g>
</g>
<!-- Node4&#45;&gt;Node1 -->
<g id="edge4" class="edge"><title>Node4&#45;&gt;Node1</title>
<path fill="none" stroke="#9a32cd" stroke-dasharray="5,2" d="M199.112,-74.5096C170.324,-58.6763 123.448,-32.8944 99.2268,-19.5728"/>
<polygon fill="#9a32cd" stroke="#9a32cd" points="197.674,-77.713 208.123,-79.4655 201.047,-71.5795 197.674,-77.713"/>
<text text-anchor="middle" x="188.14" y="-46.5" font-family="Arial" font-size="10.00"> bounds</text>
</g>
</g>
</svg>
