<?xml version="1.0" encoding="UTF-8" standalone="no"?>
<!DOCTYPE svg PUBLIC "-//W3C//DTD SVG 1.1//EN"
 "http://www.w3.org/Graphics/SVG/1.1/DTD/svg11.dtd">
<!-- Generated by graphviz version 2.34.0 (20130907.0111)
 -->
<!-- Title: oss_mixext_desc Pages: 1 -->
<svg width="199pt" height="96pt"
 viewBox="0.00 0.00 199.00 96.00" xmlns="http://www.w3.org/2000/svg" xmlns:xlink="http://www.w3.org/1999/xlink">
<g id="graph0" class="graph" transform="scale(1 1) rotate(0) translate(4 92)">
<title>oss_mixext_desc</title>
<polygon fill="white" stroke="white" points="-4,4 -4,-92 195,-92 195,4 -4,4"/>
<!-- Node1 -->
<g id="node1" class="node"><title>Node1</title>
<polygon fill="#bfbfbf" stroke="black" points="58.5,-0.5 58.5,-19.5 151.5,-19.5 151.5,-0.5 58.5,-0.5"/>
<text text-anchor="middle" x="105" y="-7.5" font-family="Arial" font-size="10.00">oss_mixext_desc</text>
</g>
<!-- Node2 -->
<g id="node2" class="node"><title>Node2</title>
<g id="a_node2"><a xlink:href="structoss__mixer__enuminfo.html" target="_top" xlink:title="oss_mixer_enuminfo">
<polygon fill="white" stroke="black" points="0,-68.5 0,-87.5 106,-87.5 106,-68.5 0,-68.5"/>
<text text-anchor="middle" x="53" y="-75.5" font-family="Arial" font-size="10.00">oss_mixer_enuminfo</text>
</a>
</g>
</g>
<!-- Node2&#45;&gt;Node1 -->
<g id="edge1" class="edge"><title>Node2&#45;&gt;Node1</title>
<path fill="none" stroke="#9a32cd" stroke-dasharray="5,2" d="M66.1496,-60.3101C76.2868,-47.4437 89.9056,-30.1583 98.0343,-19.8411"/>
<polygon fill="#9a32cd" stroke="#9a32cd" points="63.2376,-58.3506 59.7981,-68.3717 68.7361,-62.6828 63.2376,-58.3506"/>
<text text-anchor="middle" x="108" y="-41.5" font-family="Arial" font-size="10.00"> enum_info</text>
</g>
<!-- Node3 -->
<g id="node3" class="node"><title>Node3</title>
<g id="a_node3"><a xlink:href="structoss__mixext.html" target="_top" xlink:title="oss_mixext">
<polygon fill="white" stroke="black" points="124.5,-68.5 124.5,-87.5 191.5,-87.5 191.5,-68.5 124.5,-68.5"/>
<text text-anchor="middle" x="158" y="-75.5" font-family="Arial" font-size="10.00">oss_mixext</text>
</a>
</g>
</g>
<!-- Node3&#45;&gt;Node1 -->
<g id="edge2" class="edge"><title>Node3&#45;&gt;Node1</title>
<path fill="none" stroke="#9a32cd" stroke-dasharray="5,2" d="M149.571,-59.1312C145.887,-52.1942 141.214,-44.3964 136,-38 130.408,-31.1404 122.96,-24.5913 116.766,-19.6614"/>
<polygon fill="#9a32cd" stroke="#9a32cd" points="146.609,-61.0333 154.208,-68.4154 152.871,-57.9053 146.609,-61.0333"/>
<text text-anchor="middle" x="152.5" y="-41.5" font-family="Arial" font-size="10.00"> ext</text>
</g>
</g>
</svg>
