<?xml version="1.0" encoding="UTF-8" standalone="no"?>
<!DOCTYPE svg PUBLIC "-//W3C//DTD SVG 1.1//EN"
 "http://www.w3.org/Graphics/SVG/1.1/DTD/svg11.dtd">
<!-- Generated by graphviz version 2.34.0 (20130907.0111)
 -->
<!-- Title: jointConversion_s Pages: 1 -->
<svg width="174pt" height="96pt"
 viewBox="0.00 0.00 174.00 96.00" xmlns="http://www.w3.org/2000/svg" xmlns:xlink="http://www.w3.org/1999/xlink">
<g id="graph0" class="graph" transform="scale(1 1) rotate(0) translate(4 92)">
<title>jointConversion_s</title>
<polygon fill="white" stroke="white" points="-4,4 -4,-92 170,-92 170,4 -4,4"/>
<!-- Node1 -->
<g id="node1" class="node"><title>Node1</title>
<polygon fill="#bfbfbf" stroke="black" points="20,-0.5 20,-19.5 112,-19.5 112,-0.5 20,-0.5"/>
<text text-anchor="middle" x="66" y="-7.5" font-family="Arial" font-size="10.00">jointConversion_s</text>
</g>
<!-- Node2 -->
<g id="node2" class="node"><title>Node2</title>
<g id="a_node2"><a xlink:href="classid_mat3.html" target="_top" xlink:title="idMat3">
<polygon fill="white" stroke="black" points="0,-68.5 0,-87.5 46,-87.5 46,-68.5 0,-68.5"/>
<text text-anchor="middle" x="23" y="-75.5" font-family="Arial" font-size="10.00">idMat3</text>
</a>
</g>
</g>
<!-- Node2&#45;&gt;Node1 -->
<g id="edge1" class="edge"><title>Node2&#45;&gt;Node1</title>
<path fill="none" stroke="#9a32cd" stroke-dasharray="5,2" d="M19.9676,-58.0216C19.7783,-51.3216 20.638,-43.9746 24,-38 28.506,-29.9922 36.4813,-23.9868 44.2803,-19.6985"/>
<polygon fill="#9a32cd" stroke="#9a32cd" points="16.5224,-58.7374 21.0202,-68.3301 23.4862,-58.0263 16.5224,-58.7374"/>
<text text-anchor="middle" x="56" y="-41.5" font-family="Arial" font-size="10.00"> jointBodyAxis</text>
</g>
<!-- Node3 -->
<g id="node3" class="node"><title>Node3</title>
<g id="a_node3"><a xlink:href="classid_vec3.html" target="_top" xlink:title="idVec3">
<polygon fill="white" stroke="black" points="86.5,-68.5 86.5,-87.5 133.5,-87.5 133.5,-68.5 86.5,-68.5"/>
<text text-anchor="middle" x="110" y="-75.5" font-family="Arial" font-size="10.00">idVec3</text>
</a>
</g>
</g>
<!-- Node3&#45;&gt;Node1 -->
<g id="edge2" class="edge"><title>Node3&#45;&gt;Node1</title>
<path fill="none" stroke="#9a32cd" stroke-dasharray="5,2" d="M100.848,-59.3021C97.1112,-52.4878 92.5916,-44.731 88,-38 83.6385,-31.6064 78.1385,-24.8564 73.7289,-19.7048"/>
<polygon fill="#9a32cd" stroke="#9a32cd" points="97.8926,-61.1987 105.68,-68.3823 104.072,-57.9102 97.8926,-61.1987"/>
<text text-anchor="middle" x="131" y="-41.5" font-family="Arial" font-size="10.00"> jointBodyOrigin</text>
</g>
</g>
</svg>
