<?xml version="1.0" encoding="UTF-8" standalone="no"?>
<!DOCTYPE svg PUBLIC "-//W3C//DTD SVG 1.1//EN"
 "http://www.w3.org/Graphics/SVG/1.1/DTD/svg11.dtd">
<!-- Generated by graphviz version 2.34.0 (20130907.0111)
 -->
<!-- Title: clipSector_s Pages: 1 -->
<svg width="218pt" height="109pt"
 viewBox="0.00 0.00 218.00 108.50" xmlns="http://www.w3.org/2000/svg" xmlns:xlink="http://www.w3.org/1999/xlink">
<g id="graph0" class="graph" transform="scale(1 1) rotate(0) translate(4 104.5)">
<title>clipSector_s</title>
<polygon fill="white" stroke="white" points="-4,4 -4,-104.5 214,-104.5 214,4 -4,4"/>
<!-- Node1 -->
<g id="node1" class="node"><title>Node1</title>
<polygon fill="#bfbfbf" stroke="black" points="-0.5,-81 -0.5,-100 70.5,-100 70.5,-81 -0.5,-81"/>
<text text-anchor="middle" x="35" y="-88" font-family="Arial" font-size="10.00">clipSector_s</text>
</g>
<!-- Node1&#45;&gt;Node1 -->
<g id="edge1" class="edge"><title>Node1&#45;&gt;Node1</title>
<path fill="none" stroke="#9a32cd" stroke-dasharray="5,2" d="M80.8116,-95.6507C85.2124,-94.6044 88,-92.8875 88,-90.5 88,-86.582 80.493,-84.47 70.6693,-84.1639"/>
<polygon fill="#9a32cd" stroke="#9a32cd" points="80.1954,-92.1988 70.6693,-96.8361 81.008,-99.1515 80.1954,-92.1988"/>
<text text-anchor="middle" x="106.5" y="-88" font-family="Arial" font-size="10.00"> children</text>
</g>
<!-- Node2 -->
<g id="node2" class="node"><title>Node2</title>
<g id="a_node2"><a xlink:href="structclip_link__s.html" target="_top" xlink:title="clipLink_s">
<polygon fill="white" stroke="black" points="59,-7 59,-26 119,-26 119,-7 59,-7"/>
<text text-anchor="middle" x="89" y="-14" font-family="Arial" font-size="10.00">clipLink_s</text>
</a>
</g>
</g>
<!-- Node1&#45;&gt;Node2 -->
<g id="edge4" class="edge"><title>Node1&#45;&gt;Node2</title>
<path fill="none" stroke="#9a32cd" stroke-dasharray="5,2" d="M29.3428,-70.9891C28.3072,-64.1565 28.483,-56.6 32,-50.5 38.6252,-39.0089 50.9497,-31.156 62.4482,-26.0035"/>
<polygon fill="#9a32cd" stroke="#9a32cd" points="25.9586,-71.8875 31.6616,-80.8165 32.7716,-70.2799 25.9586,-71.8875"/>
<text text-anchor="middle" x="47.5" y="-54" font-family="Arial" font-size="10.00"> sector</text>
</g>
<!-- Node2&#45;&gt;Node1 -->
<g id="edge2" class="edge"><title>Node2&#45;&gt;Node1</title>
<path fill="none" stroke="#9a32cd" stroke-dasharray="5,2" d="M82.2162,-35.5738C78.4789,-44.2125 73.3112,-54.4071 67,-62.5 61.5465,-69.493 54.0233,-75.9528 47.6416,-80.7994"/>
<polygon fill="#9a32cd" stroke="#9a32cd" points="85.5607,-36.6377 86.0461,-26.054 79.0666,-34.025 85.5607,-36.6377"/>
<text text-anchor="middle" x="95" y="-54" font-family="Arial" font-size="10.00"> clipLinks</text>
</g>
<!-- Node2&#45;&gt;Node2 -->
<g id="edge5" class="edge"><title>Node2&#45;&gt;Node2</title>
<path fill="none" stroke="#9a32cd" stroke-dasharray="5,2" d="M129.659,-22.7991C134.121,-21.599 137,-19.4993 137,-16.5 137,-11.5781 129.248,-9.07874 119.467,-9.00183"/>
<polygon fill="#9a32cd" stroke="#9a32cd" points="128.99,-19.3537 119.467,-23.9982 129.808,-26.3057 128.99,-19.3537"/>
<text text-anchor="middle" x="165.5" y="-25" font-family="Arial" font-size="10.00"> prevInSector</text>
<text text-anchor="middle" x="165.5" y="-14" font-family="Arial" font-size="10.00">nextLink</text>
<text text-anchor="middle" x="165.5" y="-3" font-family="Arial" font-size="10.00">nextInSector</text>
</g>
<!-- Node3 -->
<g id="node3" class="node"><title>Node3</title>
<g id="a_node3"><a xlink:href="classid_clip_model.html" target="_top" xlink:title="idClipModel">
<polygon fill="white" stroke="black" points="143.5,-81 143.5,-100 210.5,-100 210.5,-81 143.5,-81"/>
<text text-anchor="middle" x="177" y="-88" font-family="Arial" font-size="10.00">idClipModel</text>
</a>
</g>
</g>
<!-- Node3&#45;&gt;Node2 -->
<g id="edge3" class="edge"><title>Node3&#45;&gt;Node2</title>
<path fill="none" stroke="#9a32cd" stroke-dasharray="5,2" d="M158.537,-74.3935C140.59,-59.7096 113.974,-37.9332 99.4267,-26.031"/>
<polygon fill="#9a32cd" stroke="#9a32cd" points="156.604,-77.3344 166.56,-80.9579 161.036,-71.9166 156.604,-77.3344"/>
<text text-anchor="middle" x="165.5" y="-54" font-family="Arial" font-size="10.00"> clipModel</text>
</g>
</g>
</svg>
