<?xml version="1.0" encoding="UTF-8" standalone="no"?>
<!DOCTYPE svg PUBLIC "-//W3C//DTD SVG 1.1//EN"
 "http://www.w3.org/Graphics/SVG/1.1/DTD/svg11.dtd">
<!-- Generated by graphviz version 2.34.0 (20130907.0111)
 -->
<!-- Title: ve_setup_data_template Pages: 1 -->
<svg width="1204pt" height="499pt"
 viewBox="0.00 0.00 1204.00 498.94" xmlns="http://www.w3.org/2000/svg" xmlns:xlink="http://www.w3.org/1999/xlink">
<g id="graph0" class="graph" transform="scale(1 1) rotate(0) translate(4 494.944)">
<title>ve_setup_data_template</title>
<polygon fill="white" stroke="white" points="-4,4 -4,-494.944 1200,-494.944 1200,4 -4,4"/>
<!-- Node1 -->
<g id="node1" class="node"><title>Node1</title>
<polygon fill="#bfbfbf" stroke="black" points="1074,-194.444 1074,-213.444 1196,-213.444 1196,-194.444 1074,-194.444"/>
<text text-anchor="middle" x="1135" y="-201.444" font-family="Arial" font-size="10.00">ve_setup_data_template</text>
</g>
<!-- Node2 -->
<g id="node2" class="node"><title>Node2</title>
<g id="a_node2"><a xlink:href="structstatic__codebook.html" target="_top" xlink:title="static_codebook">
<polygon fill="white" stroke="black" points="228,-380.444 228,-399.444 316,-399.444 316,-380.444 228,-380.444"/>
<text text-anchor="middle" x="272" y="-387.444" font-family="Arial" font-size="10.00">static_codebook</text>
</a>
</g>
</g>
<!-- Node2&#45;&gt;Node1 -->
<g id="edge1" class="edge"><title>Node2&#45;&gt;Node1</title>
<path fill="none" stroke="#9a32cd" stroke-dasharray="5,2" d="M302.165,-376.223C333.698,-362.667 385.794,-343.944 433,-343.944 433,-343.944 433,-343.944 868,-343.944 951.938,-343.944 984.384,-369.724 1056,-325.944 1099.76,-299.195 1123.31,-237.606 1131.07,-213.689"/>
<polygon fill="#9a32cd" stroke="#9a32cd" points="300.414,-373.17 292.682,-380.412 303.243,-379.573 300.414,-373.17"/>
<text text-anchor="middle" x="685" y="-346.944" font-family="Arial" font-size="10.00"> floor_books</text>
</g>
<!-- Node13 -->
<g id="node13" class="node"><title>Node13</title>
<g id="a_node13"><a xlink:href="structvorbis__residue__template.html" target="_top" xlink:title="vorbis_residue_template">
<polygon fill="white" stroke="black" points="624.5,-427.444 624.5,-446.444 745.5,-446.444 745.5,-427.444 624.5,-427.444"/>
<text text-anchor="middle" x="685" y="-434.444" font-family="Arial" font-size="10.00">vorbis_residue_template</text>
</a>
</g>
</g>
<!-- Node2&#45;&gt;Node13 -->
<g id="edge13" class="edge"><title>Node2&#45;&gt;Node13</title>
<path fill="none" stroke="#9a32cd" stroke-dasharray="5,2" d="M326.394,-390.024C369.579,-390.612 431.884,-392.642 486,-398.944 541.106,-405.36 603.876,-418.398 643.695,-427.399"/>
<polygon fill="#9a32cd" stroke="#9a32cd" points="326.43,-386.524 316.39,-389.909 326.349,-393.524 326.43,-386.524"/>
<text text-anchor="middle" x="434" y="-412.944" font-family="Arial" font-size="10.00"> book_aux</text>
<text text-anchor="middle" x="434" y="-401.944" font-family="Arial" font-size="10.00">book_aux_managed</text>
</g>
<!-- Node14 -->
<g id="node14" class="node"><title>Node14</title>
<g id="a_node14"><a xlink:href="structstatic__bookblock.html" target="_top" xlink:title="static_bookblock">
<polygon fill="white" stroke="black" points="389,-468.444 389,-487.444 479,-487.444 479,-468.444 389,-468.444"/>
<text text-anchor="middle" x="434" y="-475.444" font-family="Arial" font-size="10.00">static_bookblock</text>
</a>
</g>
</g>
<!-- Node2&#45;&gt;Node14 -->
<g id="edge15" class="edge"><title>Node2&#45;&gt;Node14</title>
<path fill="none" stroke="#9a32cd" stroke-dasharray="5,2" d="M294.601,-405.517C316.047,-420.513 350.224,-443.181 382,-458.944 389.025,-462.429 396.856,-465.651 404.232,-468.415"/>
<polygon fill="#9a32cd" stroke="#9a32cd" points="296.42,-402.516 286.234,-399.602 292.379,-408.232 296.42,-402.516"/>
<text text-anchor="middle" x="349" y="-451.944" font-family="Arial" font-size="10.00"> books</text>
</g>
<!-- Node3 -->
<g id="node3" class="node"><title>Node3</title>
<g id="a_node3"><a xlink:href="structencode__aux__threshmatch.html" target="_top" xlink:title="encode_aux_threshmatch">
<polygon fill="white" stroke="black" points="3,-418.444 3,-437.444 131,-437.444 131,-418.444 3,-418.444"/>
<text text-anchor="middle" x="67" y="-425.444" font-family="Arial" font-size="10.00">encode_aux_threshmatch</text>
</a>
</g>
</g>
<!-- Node3&#45;&gt;Node2 -->
<g id="edge2" class="edge"><title>Node3&#45;&gt;Node2</title>
<path fill="none" stroke="#9a32cd" stroke-dasharray="5,2" d="M141.134,-417.253C163.321,-413.7 187.717,-409.48 210,-404.944 217.908,-403.334 226.341,-401.401 234.335,-399.467"/>
<polygon fill="#9a32cd" stroke="#9a32cd" points="140.442,-413.819 131.111,-418.838 141.535,-420.733 140.442,-413.819"/>
<text text-anchor="middle" x="181" y="-416.944" font-family="Arial" font-size="10.00"> thresh_tree</text>
</g>
<!-- Node4 -->
<g id="node4" class="node"><title>Node4</title>
<g id="a_node4"><a xlink:href="structencode__aux__pigeonhole.html" target="_top" xlink:title="encode_aux_pigeonhole">
<polygon fill="white" stroke="black" points="6.5,-380.444 6.5,-399.444 127.5,-399.444 127.5,-380.444 6.5,-380.444"/>
<text text-anchor="middle" x="67" y="-387.444" font-family="Arial" font-size="10.00">encode_aux_pigeonhole</text>
</a>
</g>
</g>
<!-- Node4&#45;&gt;Node2 -->
<g id="edge3" class="edge"><title>Node4&#45;&gt;Node2</title>
<path fill="none" stroke="#9a32cd" stroke-dasharray="5,2" d="M137.923,-389.944C167.825,-389.944 201.788,-389.944 227.919,-389.944"/>
<polygon fill="#9a32cd" stroke="#9a32cd" points="137.535,-386.444 127.535,-389.944 137.535,-393.444 137.535,-386.444"/>
<text text-anchor="middle" x="181" y="-392.944" font-family="Arial" font-size="10.00"> pigeon_tree</text>
</g>
<!-- Node5 -->
<g id="node5" class="node"><title>Node5</title>
<g id="a_node5"><a xlink:href="structencode__aux__nearestmatch.html" target="_top" xlink:title="encode_aux_nearestmatch">
<polygon fill="white" stroke="black" points="0,-342.444 0,-361.444 134,-361.444 134,-342.444 0,-342.444"/>
<text text-anchor="middle" x="67" y="-349.444" font-family="Arial" font-size="10.00">encode_aux_nearestmatch</text>
</a>
</g>
</g>
<!-- Node5&#45;&gt;Node2 -->
<g id="edge4" class="edge"><title>Node5&#45;&gt;Node2</title>
<path fill="none" stroke="#9a32cd" stroke-dasharray="5,2" d="M143.97,-363.09C165.387,-366.547 188.662,-370.6 210,-374.944 217.908,-376.554 226.341,-378.486 234.335,-380.42"/>
<polygon fill="#9a32cd" stroke="#9a32cd" points="144.375,-359.611 133.949,-361.494 143.274,-366.524 144.375,-359.611"/>
<text text-anchor="middle" x="181" y="-377.944" font-family="Arial" font-size="10.00"> nearest_tree</text>
</g>
<!-- Node6 -->
<g id="node6" class="node"><title>Node6</title>
<g id="a_node6"><a xlink:href="structvorbis__info__psy__global.html" target="_top" xlink:title="vorbis_info_psy_global">
<polygon fill="white" stroke="black" points="810.5,-296.444 810.5,-315.444 923.5,-315.444 923.5,-296.444 810.5,-296.444"/>
<text text-anchor="middle" x="867" y="-303.444" font-family="Arial" font-size="10.00">vorbis_info_psy_global</text>
</a>
</g>
</g>
<!-- Node6&#45;&gt;Node1 -->
<g id="edge5" class="edge"><title>Node6&#45;&gt;Node1</title>
<path fill="none" stroke="#9a32cd" stroke-dasharray="5,2" d="M934.229,-311.394C971.757,-311.756 1018.54,-307.467 1056,-288.944 1090.83,-271.72 1117.66,-231.787 1128.62,-213.455"/>
<polygon fill="#9a32cd" stroke="#9a32cd" points="933.977,-307.888 923.906,-311.177 933.83,-314.886 933.977,-307.888"/>
<text text-anchor="middle" x="1002" y="-313.944" font-family="Arial" font-size="10.00"> global_params</text>
</g>
<!-- Node7 -->
<g id="node7" class="node"><title>Node7</title>
<g id="a_node7"><a xlink:href="structvp__adjblock.html" target="_top" xlink:title="vp_adjblock">
<polygon fill="white" stroke="black" points="833.5,-253.444 833.5,-272.444 900.5,-272.444 900.5,-253.444 833.5,-253.444"/>
<text text-anchor="middle" x="867" y="-260.444" font-family="Arial" font-size="10.00">vp_adjblock</text>
</a>
</g>
</g>
<!-- Node7&#45;&gt;Node1 -->
<g id="edge6" class="edge"><title>Node7&#45;&gt;Node1</title>
<path fill="none" stroke="#9a32cd" stroke-dasharray="5,2" d="M910.98,-258.536C949.413,-254.018 1007.06,-245.811 1056,-232.944 1075.28,-227.874 1096.44,-219.843 1111.85,-213.517"/>
<polygon fill="#9a32cd" stroke="#9a32cd" points="910.211,-255.101 900.673,-259.714 911.006,-262.056 910.211,-255.101"/>
<text text-anchor="middle" x="1002" y="-278.944" font-family="Arial" font-size="10.00"> psy_tone_adj_other</text>
<text text-anchor="middle" x="1002" y="-267.944" font-family="Arial" font-size="10.00">psy_tone_adj_impulse</text>
<text text-anchor="middle" x="1002" y="-256.944" font-family="Arial" font-size="10.00">psy_tone_adj_long</text>
</g>
<!-- Node8 -->
<g id="node8" class="node"><title>Node8</title>
<g id="a_node8"><a xlink:href="structnoiseguard.html" target="_top" xlink:title="noiseguard">
<polygon fill="white" stroke="black" points="835,-215.444 835,-234.444 899,-234.444 899,-215.444 835,-215.444"/>
<text text-anchor="middle" x="867" y="-222.444" font-family="Arial" font-size="10.00">noiseguard</text>
</a>
</g>
</g>
<!-- Node8&#45;&gt;Node1 -->
<g id="edge7" class="edge"><title>Node8&#45;&gt;Node1</title>
<path fill="none" stroke="#9a32cd" stroke-dasharray="5,2" d="M909.094,-221.699C953.131,-218.223 1023.47,-212.67 1073.76,-208.699"/>
<polygon fill="#9a32cd" stroke="#9a32cd" points="908.728,-218.217 899.034,-222.494 909.279,-225.196 908.728,-218.217"/>
<text text-anchor="middle" x="1002" y="-221.944" font-family="Arial" font-size="10.00"> psy_noiseguards</text>
</g>
<!-- Node9 -->
<g id="node9" class="node"><title>Node9</title>
<g id="a_node9"><a xlink:href="structadj__stereo.html" target="_top" xlink:title="adj_stereo">
<polygon fill="white" stroke="black" points="836,-177.444 836,-196.444 898,-196.444 898,-177.444 836,-177.444"/>
<text text-anchor="middle" x="867" y="-184.444" font-family="Arial" font-size="10.00">adj_stereo</text>
</a>
</g>
</g>
<!-- Node9&#45;&gt;Node1 -->
<g id="edge8" class="edge"><title>Node9&#45;&gt;Node1</title>
<path fill="none" stroke="#9a32cd" stroke-dasharray="5,2" d="M908.242,-184.875C946.394,-183.453 1005.26,-182.657 1056,-187.944 1068.79,-189.276 1082.58,-191.752 1094.95,-194.365"/>
<polygon fill="#9a32cd" stroke="#9a32cd" points="907.905,-181.386 898.055,-185.288 908.188,-188.38 907.905,-181.386"/>
<text text-anchor="middle" x="1002" y="-190.944" font-family="Arial" font-size="10.00"> stereo_modes</text>
</g>
<!-- Node10 -->
<g id="node10" class="node"><title>Node10</title>
<g id="a_node10"><a xlink:href="structatt3.html" target="_top" xlink:title="att3">
<polygon fill="white" stroke="black" points="850.5,-139.444 850.5,-158.444 883.5,-158.444 883.5,-139.444 850.5,-139.444"/>
<text text-anchor="middle" x="867" y="-146.444" font-family="Arial" font-size="10.00">att3</text>
</a>
</g>
</g>
<!-- Node10&#45;&gt;Node1 -->
<g id="edge9" class="edge"><title>Node10&#45;&gt;Node1</title>
<path fill="none" stroke="#9a32cd" stroke-dasharray="5,2" d="M894.248,-149.144C931.029,-150.004 999.716,-153.737 1056,-168.944 1077.92,-174.867 1101.5,-186.212 1116.93,-194.382"/>
<polygon fill="#9a32cd" stroke="#9a32cd" points="893.967,-145.638 883.906,-148.959 893.842,-152.637 893.967,-145.638"/>
<text text-anchor="middle" x="1002" y="-171.944" font-family="Arial" font-size="10.00"> psy_tone_masteratt</text>
</g>
<!-- Node11 -->
<g id="node11" class="node"><title>Node11</title>
<g id="a_node11"><a xlink:href="structcompandblock.html" target="_top" xlink:title="compandblock">
<polygon fill="white" stroke="black" points="827,-101.444 827,-120.444 907,-120.444 907,-101.444 827,-101.444"/>
<text text-anchor="middle" x="867" y="-108.444" font-family="Arial" font-size="10.00">compandblock</text>
</a>
</g>
</g>
<!-- Node11&#45;&gt;Node1 -->
<g id="edge10" class="edge"><title>Node11&#45;&gt;Node1</title>
<path fill="none" stroke="#9a32cd" stroke-dasharray="5,2" d="M917.279,-110.655C956.458,-112.128 1011.83,-118.088 1056,-137.944 1085.77,-151.326 1113.04,-179.567 1126.03,-194.394"/>
<polygon fill="#9a32cd" stroke="#9a32cd" points="917.281,-107.154 907.184,-110.361 917.078,-114.151 917.281,-107.154"/>
<text text-anchor="middle" x="1002" y="-140.944" font-family="Arial" font-size="10.00"> psy_noise_compand</text>
</g>
<!-- Node12 -->
<g id="node12" class="node"><title>Node12</title>
<g id="a_node12"><a xlink:href="structvorbis__mapping__template.html" target="_top" xlink:title="vorbis_mapping_template">
<polygon fill="white" stroke="black" points="804,-379.444 804,-398.444 930,-398.444 930,-379.444 804,-379.444"/>
<text text-anchor="middle" x="867" y="-386.444" font-family="Arial" font-size="10.00">vorbis_mapping_template</text>
</a>
</g>
</g>
<!-- Node12&#45;&gt;Node1 -->
<g id="edge11" class="edge"><title>Node12&#45;&gt;Node1</title>
<path fill="none" stroke="#9a32cd" stroke-dasharray="5,2" d="M940.571,-392.036C978.217,-390.152 1023.08,-382.081 1056,-357.944 1106.75,-320.728 1126.73,-240.941 1132.27,-213.469"/>
<polygon fill="#9a32cd" stroke="#9a32cd" points="940.027,-388.554 930.16,-392.412 940.28,-395.549 940.027,-388.554"/>
<text text-anchor="middle" x="1002" y="-393.944" font-family="Arial" font-size="10.00"> maps</text>
</g>
<!-- Node13&#45;&gt;Node12 -->
<g id="edge12" class="edge"><title>Node13&#45;&gt;Node12</title>
<path fill="none" stroke="#9a32cd" stroke-dasharray="5,2" d="M731.96,-424.688C762.446,-416.558 801.88,-406.042 830.069,-398.525"/>
<polygon fill="#9a32cd" stroke="#9a32cd" points="730.754,-421.387 721.993,-427.346 732.557,-428.151 730.754,-421.387"/>
<text text-anchor="middle" x="775" y="-417.944" font-family="Arial" font-size="10.00"> res</text>
</g>
<!-- Node14&#45;&gt;Node13 -->
<g id="edge14" class="edge"><title>Node14&#45;&gt;Node13</title>
<path fill="none" stroke="#9a32cd" stroke-dasharray="5,2" d="M489.184,-471.397C522.895,-467.062 567.088,-460.905 606,-453.944 618.006,-451.796 630.974,-449.116 642.825,-446.524"/>
<polygon fill="#9a32cd" stroke="#9a32cd" points="488.554,-467.949 479.076,-472.683 489.438,-474.893 488.554,-467.949"/>
<text text-anchor="middle" x="555" y="-482.944" font-family="Arial" font-size="10.00"> books_base_managed</text>
<text text-anchor="middle" x="555" y="-471.944" font-family="Arial" font-size="10.00">books_base</text>
</g>
<!-- Node15 -->
<g id="node15" class="node"><title>Node15</title>
<g id="a_node15"><a xlink:href="structvorbis__info__residue0.html" target="_top" xlink:title="vorbis_info_residue0">
<polygon fill="white" stroke="black" points="382,-430.444 382,-449.444 486,-449.444 486,-430.444 382,-430.444"/>
<text text-anchor="middle" x="434" y="-437.444" font-family="Arial" font-size="10.00">vorbis_info_residue0</text>
</a>
</g>
</g>
<!-- Node15&#45;&gt;Node13 -->
<g id="edge16" class="edge"><title>Node15&#45;&gt;Node13</title>
<path fill="none" stroke="#9a32cd" stroke-dasharray="5,2" d="M496.473,-439.203C535.517,-438.733 585.793,-438.127 624.458,-437.661"/>
<polygon fill="#9a32cd" stroke="#9a32cd" points="496.248,-435.705 486.291,-439.326 496.333,-442.705 496.248,-435.705"/>
<text text-anchor="middle" x="555" y="-441.944" font-family="Arial" font-size="10.00"> res</text>
</g>
<!-- Node16 -->
<g id="node16" class="node"><title>Node16</title>
<g id="a_node16"><a xlink:href="structvorbis__info__mapping0.html" target="_top" xlink:title="vorbis_info_mapping0">
<polygon fill="white" stroke="black" points="630.5,-379.444 630.5,-398.444 739.5,-398.444 739.5,-379.444 630.5,-379.444"/>
<text text-anchor="middle" x="685" y="-386.444" font-family="Arial" font-size="10.00">vorbis_info_mapping0</text>
</a>
</g>
</g>
<!-- Node16&#45;&gt;Node12 -->
<g id="edge17" class="edge"><title>Node16&#45;&gt;Node12</title>
<path fill="none" stroke="#9a32cd" stroke-dasharray="5,2" d="M749.68,-388.944C767.267,-388.944 786.323,-388.944 803.823,-388.944"/>
<polygon fill="#9a32cd" stroke="#9a32cd" points="749.519,-385.444 739.519,-388.944 749.519,-392.444 749.519,-385.444"/>
<text text-anchor="middle" x="775" y="-391.944" font-family="Arial" font-size="10.00"> map</text>
</g>
<!-- Node17 -->
<g id="node17" class="node"><title>Node17</title>
<g id="a_node17"><a xlink:href="structnoise3.html" target="_top" xlink:title="noise3">
<polygon fill="white" stroke="black" points="844.5,-40.4437 844.5,-59.4437 889.5,-59.4437 889.5,-40.4437 844.5,-40.4437"/>
<text text-anchor="middle" x="867" y="-47.4437" font-family="Arial" font-size="10.00">noise3</text>
</a>
</g>
</g>
<!-- Node17&#45;&gt;Node1 -->
<g id="edge18" class="edge"><title>Node17&#45;&gt;Node1</title>
<path fill="none" stroke="#9a32cd" stroke-dasharray="5,2" d="M899.724,-44.2058C939.556,-38.7713 1008.43,-35.408 1056,-65.9437 1103.94,-96.7151 1125.35,-167.951 1131.79,-194.094"/>
<polygon fill="#9a32cd" stroke="#9a32cd" points="899.151,-40.7524 889.777,-45.6896 900.184,-47.6758 899.151,-40.7524"/>
<text text-anchor="middle" x="1002" y="-101.944" font-family="Arial" font-size="10.00"> psy_noise_bias_trans</text>
<text text-anchor="middle" x="1002" y="-90.9437" font-family="Arial" font-size="10.00">psy_noise_bias_padding</text>
<text text-anchor="middle" x="1002" y="-79.9437" font-family="Arial" font-size="10.00">psy_noise_bias_impulse</text>
<text text-anchor="middle" x="1002" y="-68.9437" font-family="Arial" font-size="10.00">psy_noise_bias_long</text>
</g>
<!-- Node18 -->
<g id="node18" class="node"><title>Node18</title>
<g id="a_node18"><a xlink:href="structvorbis__info__floor1.html" target="_top" xlink:title="vorbis_info_floor1">
<polygon fill="white" stroke="black" points="822,-2.44371 822,-21.4437 912,-21.4437 912,-2.44371 822,-2.44371"/>
<text text-anchor="middle" x="867" y="-9.44371" font-family="Arial" font-size="10.00">vorbis_info_floor1</text>
</a>
</g>
</g>
<!-- Node18&#45;&gt;Node1 -->
<g id="edge19" class="edge"><title>Node18&#45;&gt;Node1</title>
<path fill="none" stroke="#9a32cd" stroke-dasharray="5,2" d="M922.149,-2.02495C962.65,2.31871 1017.46,1.34107 1056,-25.9437 1114.65,-67.4694 1129.7,-163.119 1133.1,-194.08"/>
<polygon fill="#9a32cd" stroke="#9a32cd" points="921.686,1.44466 912.178,-3.23114 922.526,-5.50467 921.686,1.44466"/>
<text text-anchor="middle" x="1002" y="-28.9437" font-family="Arial" font-size="10.00"> floor_params</text>
</g>
</g>
</svg>
