<?xml version="1.0" encoding="UTF-8" standalone="no"?>
<!DOCTYPE svg PUBLIC "-//W3C//DTD SVG 1.1//EN"
 "http://www.w3.org/Graphics/SVG/1.1/DTD/svg11.dtd">
<!-- Generated by graphviz version 2.34.0 (20130907.0111)
 -->
<!-- Title: exitPortal_t Pages: 1 -->
<svg width="74pt" height="164pt"
 viewBox="0.00 0.00 74.00 164.00" xmlns="http://www.w3.org/2000/svg" xmlns:xlink="http://www.w3.org/1999/xlink">
<g id="graph0" class="graph" transform="scale(1 1) rotate(0) translate(4 160)">
<title>exitPortal_t</title>
<polygon fill="white" stroke="white" points="-4,4 -4,-160 70,-160 70,4 -4,4"/>
<!-- Node1 -->
<g id="node1" class="node"><title>Node1</title>
<polygon fill="#bfbfbf" stroke="black" points="0,-0.5 0,-19.5 66,-19.5 66,-0.5 0,-0.5"/>
<text text-anchor="middle" x="33" y="-7.5" font-family="Arial" font-size="10.00">exitPortal_t</text>
</g>
<!-- Node2 -->
<g id="node2" class="node"><title>Node2</title>
<g id="a_node2"><a xlink:href="classid_winding.html" target="_top" xlink:title="idWinding">
<polygon fill="white" stroke="black" points="3.5,-68.5 3.5,-87.5 62.5,-87.5 62.5,-68.5 3.5,-68.5"/>
<text text-anchor="middle" x="33" y="-75.5" font-family="Arial" font-size="10.00">idWinding</text>
</a>
</g>
</g>
<!-- Node2&#45;&gt;Node1 -->
<g id="edge1" class="edge"><title>Node2&#45;&gt;Node1</title>
<path fill="none" stroke="#9a32cd" stroke-dasharray="5,2" d="M33,-58.0413C33,-45.4724 33,-29.5631 33,-19.8411"/>
<polygon fill="#9a32cd" stroke="#9a32cd" points="29.5001,-58.3716 33,-68.3717 36.5001,-58.3717 29.5001,-58.3716"/>
<text text-anchor="middle" x="38" y="-41.5" font-family="Arial" font-size="10.00"> w</text>
</g>
<!-- Node3 -->
<g id="node3" class="node"><title>Node3</title>
<g id="a_node3"><a xlink:href="classid_vec5.html" target="_top" xlink:title="idVec5">
<polygon fill="white" stroke="black" points="9.5,-136.5 9.5,-155.5 56.5,-155.5 56.5,-136.5 9.5,-136.5"/>
<text text-anchor="middle" x="33" y="-143.5" font-family="Arial" font-size="10.00">idVec5</text>
</a>
</g>
</g>
<!-- Node3&#45;&gt;Node2 -->
<g id="edge2" class="edge"><title>Node3&#45;&gt;Node2</title>
<path fill="none" stroke="#9a32cd" stroke-dasharray="5,2" d="M33,-126.041C33,-113.472 33,-97.5631 33,-87.8411"/>
<polygon fill="#9a32cd" stroke="#9a32cd" points="29.5001,-126.372 33,-136.372 36.5001,-126.372 29.5001,-126.372"/>
<text text-anchor="middle" x="37.5" y="-109.5" font-family="Arial" font-size="10.00"> p</text>
</g>
</g>
</svg>
