<?xml version="1.0" encoding="UTF-8" standalone="no"?>
<!DOCTYPE svg PUBLIC "-//W3C//DTD SVG 1.1//EN"
 "http://www.w3.org/Graphics/SVG/1.1/DTD/svg11.dtd">
<!-- Generated by graphviz version 2.34.0 (20130907.0111)
 -->
<!-- Title: st_lwPolygonList Pages: 1 -->
<svg width="571pt" height="672pt"
 viewBox="0.00 0.00 571.00 672.00" xmlns="http://www.w3.org/2000/svg" xmlns:xlink="http://www.w3.org/1999/xlink">
<g id="graph0" class="graph" transform="scale(1 1) rotate(0) translate(4 668)">
<title>st_lwPolygonList</title>
<polygon fill="white" stroke="white" points="-4,4 -4,-668 567,-668 567,4 -4,4"/>
<!-- Node1 -->
<g id="node1" class="node"><title>Node1</title>
<polygon fill="#bfbfbf" stroke="black" points="158,-0.5 158,-19.5 248,-19.5 248,-0.5 158,-0.5"/>
<text text-anchor="middle" x="203" y="-7.5" font-family="Arial" font-size="10.00">st_lwPolygonList</text>
</g>
<!-- Node2 -->
<g id="node2" class="node"><title>Node2</title>
<g id="a_node2"><a xlink:href="structst__lw_polygon.html" target="_top" xlink:title="st_lwPolygon">
<polygon fill="white" stroke="black" points="166,-68.5 166,-87.5 240,-87.5 240,-68.5 166,-68.5"/>
<text text-anchor="middle" x="203" y="-75.5" font-family="Arial" font-size="10.00">st_lwPolygon</text>
</a>
</g>
</g>
<!-- Node2&#45;&gt;Node1 -->
<g id="edge1" class="edge"><title>Node2&#45;&gt;Node1</title>
<path fill="none" stroke="#9a32cd" stroke-dasharray="5,2" d="M203,-58.0413C203,-45.4724 203,-29.5631 203,-19.8411"/>
<polygon fill="#9a32cd" stroke="#9a32cd" points="199.5,-58.3716 203,-68.3717 206.5,-58.3717 199.5,-58.3716"/>
<text text-anchor="middle" x="211" y="-41.5" font-family="Arial" font-size="10.00"> pol</text>
</g>
<!-- Node3 -->
<g id="node3" class="node"><title>Node3</title>
<g id="a_node3"><a xlink:href="structst__lw_pol_vert.html" target="_top" xlink:title="st_lwPolVert">
<polygon fill="white" stroke="black" points="82.5,-137.5 82.5,-156.5 153.5,-156.5 153.5,-137.5 82.5,-137.5"/>
<text text-anchor="middle" x="118" y="-144.5" font-family="Arial" font-size="10.00">st_lwPolVert</text>
</a>
</g>
</g>
<!-- Node3&#45;&gt;Node2 -->
<g id="edge2" class="edge"><title>Node3&#45;&gt;Node2</title>
<path fill="none" stroke="#9a32cd" stroke-dasharray="5,2" d="M137.243,-130.832C154.215,-117.454 178.336,-98.4411 192.154,-87.5494"/>
<polygon fill="#9a32cd" stroke="#9a32cd" points="134.799,-128.302 129.112,-137.241 139.133,-133.799 134.799,-128.302"/>
<text text-anchor="middle" x="172.5" y="-109.5" font-family="Arial" font-size="10.00"> v</text>
</g>
<!-- Node4 -->
<g id="node4" class="node"><title>Node4</title>
<g id="a_node4"><a xlink:href="structst__lw_v_map_pt.html" target="_top" xlink:title="st_lwVMapPt">
<polygon fill="white" stroke="black" points="6,-245.5 6,-264.5 80,-264.5 80,-245.5 6,-245.5"/>
<text text-anchor="middle" x="43" y="-252.5" font-family="Arial" font-size="10.00">st_lwVMapPt</text>
</a>
</g>
</g>
<!-- Node4&#45;&gt;Node3 -->
<g id="edge3" class="edge"><title>Node4&#45;&gt;Node3</title>
<path fill="none" stroke="#9a32cd" stroke-dasharray="5,2" d="M50.8942,-235.623C58.5027,-219.076 71.0442,-194.574 86,-176 91.8334,-168.755 99.6765,-161.859 106.138,-156.723"/>
<polygon fill="#9a32cd" stroke="#9a32cd" points="47.4979,-234.647 46.6309,-245.206 53.8936,-237.492 47.4979,-234.647"/>
<text text-anchor="middle" x="94" y="-184.5" font-family="Arial" font-size="10.00"> vm</text>
</g>
<!-- Node5 -->
<g id="node5" class="node"><title>Node5</title>
<g id="a_node5"><a xlink:href="structst__lw_v_map.html" target="_top" xlink:title="st_lwVMap">
<polygon fill="white" stroke="black" points="10.5,-351.5 10.5,-370.5 75.5,-370.5 75.5,-351.5 10.5,-351.5"/>
<text text-anchor="middle" x="43" y="-358.5" font-family="Arial" font-size="10.00">st_lwVMap</text>
</a>
</g>
</g>
<!-- Node5&#45;&gt;Node4 -->
<g id="edge4" class="edge"><title>Node5&#45;&gt;Node4</title>
<path fill="none" stroke="#9a32cd" stroke-dasharray="5,2" d="M43,-341.434C43,-318.774 43,-281.408 43,-264.628"/>
<polygon fill="#9a32cd" stroke="#9a32cd" points="39.5001,-341.489 43,-351.489 46.5001,-341.489 39.5001,-341.489"/>
<text text-anchor="middle" x="56" y="-319.5" font-family="Arial" font-size="10.00"> vmap</text>
</g>
<!-- Node5&#45;&gt;Node5 -->
<g id="edge5" class="edge"><title>Node5&#45;&gt;Node5</title>
<path fill="none" stroke="#9a32cd" stroke-dasharray="5,2" d="M85.791,-366.873C90.1888,-365.717 93,-363.759 93,-361 93,-356.473 85.4296,-354.103 75.7005,-353.891"/>
<polygon fill="#9a32cd" stroke="#9a32cd" points="85.2006,-363.419 75.7005,-368.109 86.0519,-370.367 85.2006,-363.419"/>
<text text-anchor="middle" x="103.5" y="-364" font-family="Arial" font-size="10.00"> prev</text>
<text text-anchor="middle" x="103.5" y="-353" font-family="Arial" font-size="10.00">next</text>
</g>
<!-- Node6 -->
<g id="node6" class="node"><title>Node6</title>
<g id="a_node6"><a xlink:href="structst__lw_surface.html" target="_top" xlink:title="st_lwSurface">
<polygon fill="white" stroke="black" points="225,-137.5 225,-156.5 297,-156.5 297,-137.5 225,-137.5"/>
<text text-anchor="middle" x="261" y="-144.5" font-family="Arial" font-size="10.00">st_lwSurface</text>
</a>
</g>
</g>
<!-- Node6&#45;&gt;Node2 -->
<g id="edge6" class="edge"><title>Node6&#45;&gt;Node2</title>
<path fill="none" stroke="#9a32cd" stroke-dasharray="5,2" d="M246.575,-129.337C235.09,-116.07 219.484,-98.0414 210.401,-87.5494"/>
<polygon fill="#9a32cd" stroke="#9a32cd" points="244.226,-131.971 253.418,-137.241 249.519,-127.39 244.226,-131.971"/>
<text text-anchor="middle" x="245.5" y="-109.5" font-family="Arial" font-size="10.00"> surf</text>
</g>
<!-- Node6&#45;&gt;Node6 -->
<g id="edge20" class="edge"><title>Node6&#45;&gt;Node6</title>
<path fill="none" stroke="#9a32cd" stroke-dasharray="5,2" d="M307.208,-152.256C311.961,-151.222 315,-149.469 315,-147 315,-143.049 307.221,-140.934 297.087,-140.657"/>
<polygon fill="#9a32cd" stroke="#9a32cd" points="306.656,-148.795 297.087,-153.343 307.404,-155.755 306.656,-148.795"/>
<text text-anchor="middle" x="325.5" y="-150" font-family="Arial" font-size="10.00"> prev</text>
<text text-anchor="middle" x="325.5" y="-139" font-family="Arial" font-size="10.00">next</text>
</g>
<!-- Node7 -->
<g id="node7" class="node"><title>Node7</title>
<g id="a_node7"><a xlink:href="structst__lw_r_map.html" target="_top" xlink:title="st_lwRMap">
<polygon fill="white" stroke="black" points="159.5,-245.5 159.5,-264.5 224.5,-264.5 224.5,-245.5 159.5,-245.5"/>
<text text-anchor="middle" x="192" y="-252.5" font-family="Arial" font-size="10.00">st_lwRMap</text>
</a>
</g>
</g>
<!-- Node7&#45;&gt;Node6 -->
<g id="edge7" class="edge"><title>Node7&#45;&gt;Node6</title>
<path fill="none" stroke="#9a32cd" stroke-dasharray="5,2" d="M184.785,-235.519C179.449,-218.526 174.979,-193.401 187,-176 195.588,-163.568 210.458,-156.65 224.627,-152.803"/>
<polygon fill="#9a32cd" stroke="#9a32cd" points="181.625,-237.083 188.252,-245.35 188.227,-234.755 181.625,-237.083"/>
<text text-anchor="middle" x="217" y="-190" font-family="Arial" font-size="10.00"> transparency</text>
<text text-anchor="middle" x="217" y="-179" font-family="Arial" font-size="10.00">reflection</text>
</g>
<!-- Node8 -->
<g id="node8" class="node"><title>Node8</title>
<g id="a_node8"><a xlink:href="structst__lw_t_param.html" target="_top" xlink:title="st_lwTParam">
<polygon fill="white" stroke="black" points="186.5,-351.5 186.5,-370.5 259.5,-370.5 259.5,-351.5 186.5,-351.5"/>
<text text-anchor="middle" x="223" y="-358.5" font-family="Arial" font-size="10.00">st_lwTParam</text>
</a>
</g>
</g>
<!-- Node8&#45;&gt;Node6 -->
<g id="edge28" class="edge"><title>Node8&#45;&gt;Node6</title>
<path fill="none" stroke="#9a32cd" stroke-dasharray="5,2" d="M230.078,-341.771C231.165,-338.548 232.193,-335.2 233,-332 249.75,-265.577 257.96,-182.982 260.287,-156.552"/>
<polygon fill="#9a32cd" stroke="#9a32cd" points="226.738,-340.712 226.593,-351.306 233.313,-343.115 226.738,-340.712"/>
<text text-anchor="middle" x="282" y="-285.5" font-family="Arial" font-size="10.00"> bump</text>
<text text-anchor="middle" x="282" y="-274.5" font-family="Arial" font-size="10.00">glossiness</text>
<text text-anchor="middle" x="282" y="-263.5" font-family="Arial" font-size="10.00">luminosity</text>
<text text-anchor="middle" x="282" y="-252.5" font-family="Arial" font-size="10.00">translucency</text>
<text text-anchor="middle" x="282" y="-241.5" font-family="Arial" font-size="10.00">specularity</text>
<text text-anchor="middle" x="282" y="-230.5" font-family="Arial" font-size="10.00">diffuse</text>
<text text-anchor="middle" x="282" y="-219.5" font-family="Arial" font-size="10.00">eta</text>
</g>
<!-- Node8&#45;&gt;Node7 -->
<g id="edge8" class="edge"><title>Node8&#45;&gt;Node7</title>
<path fill="none" stroke="#9a32cd" stroke-dasharray="5,2" d="M217.558,-341.743C210.813,-319.116 199.596,-281.485 194.572,-264.628"/>
<polygon fill="#9a32cd" stroke="#9a32cd" points="214.252,-342.906 220.463,-351.489 220.961,-340.906 214.252,-342.906"/>
<text text-anchor="middle" x="221.5" y="-319.5" font-family="Arial" font-size="10.00"> val</text>
</g>
<!-- Node9 -->
<g id="node9" class="node"><title>Node9</title>
<g id="a_node9"><a xlink:href="structst__lw_texture.html" target="_top" xlink:title="st_lwTexture">
<polygon fill="white" stroke="black" points="187.5,-465.5 187.5,-484.5 258.5,-484.5 258.5,-465.5 187.5,-465.5"/>
<text text-anchor="middle" x="223" y="-472.5" font-family="Arial" font-size="10.00">st_lwTexture</text>
</a>
</g>
</g>
<!-- Node9&#45;&gt;Node8 -->
<g id="edge9" class="edge"><title>Node9&#45;&gt;Node8</title>
<path fill="none" stroke="#9a32cd" stroke-dasharray="5,2" d="M223,-455.009C223,-430.477 223,-388.786 223,-370.748"/>
<polygon fill="#9a32cd" stroke="#9a32cd" points="219.5,-455.212 223,-465.212 226.5,-455.212 219.5,-455.212"/>
<text text-anchor="middle" x="231.5" y="-415.5" font-family="Arial" font-size="10.00"> tex</text>
</g>
<!-- Node9&#45;&gt;Node9 -->
<g id="edge16" class="edge"><title>Node9&#45;&gt;Node9</title>
<path fill="none" stroke="#9a32cd" stroke-dasharray="5,2" d="M268.812,-480.757C273.212,-479.587 276,-477.668 276,-475 276,-470.621 268.493,-468.261 258.669,-467.918"/>
<polygon fill="#9a32cd" stroke="#9a32cd" points="268.132,-477.316 258.669,-482.082 269.038,-484.257 268.132,-477.316"/>
<text text-anchor="middle" x="286.5" y="-478" font-family="Arial" font-size="10.00"> prev</text>
<text text-anchor="middle" x="286.5" y="-467" font-family="Arial" font-size="10.00">next</text>
</g>
<!-- Node18 -->
<g id="node18" class="node"><title>Node18</title>
<g id="a_node18"><a xlink:href="structst__lw_c_param.html" target="_top" xlink:title="st_lwCParam">
<polygon fill="white" stroke="black" points="92,-312.5 92,-331.5 166,-331.5 166,-312.5 92,-312.5"/>
<text text-anchor="middle" x="129" y="-319.5" font-family="Arial" font-size="10.00">st_lwCParam</text>
</a>
</g>
</g>
<!-- Node9&#45;&gt;Node18 -->
<g id="edge24" class="edge"><title>Node9&#45;&gt;Node18</title>
<path fill="none" stroke="#9a32cd" stroke-dasharray="5,2" d="M210.068,-457.371C207.328,-453.68 204.509,-449.75 202,-446 174.111,-404.308 144.783,-351.829 133.651,-331.544"/>
<polygon fill="#9a32cd" stroke="#9a32cd" points="207.294,-459.504 216.131,-465.349 212.867,-455.269 207.294,-459.504"/>
<text text-anchor="middle" x="210.5" y="-415.5" font-family="Arial" font-size="10.00"> tex</text>
</g>
<!-- Node10 -->
<g id="node10" class="node"><title>Node10</title>
<g id="a_node10"><a xlink:href="structst__lw_procedural.html" target="_top" xlink:title="st_lwProcedural">
<polygon fill="white" stroke="black" points="87,-542.5 87,-561.5 173,-561.5 173,-542.5 87,-542.5"/>
<text text-anchor="middle" x="130" y="-549.5" font-family="Arial" font-size="10.00">st_lwProcedural</text>
</a>
</g>
</g>
<!-- Node10&#45;&gt;Node9 -->
<g id="edge10" class="edge"><title>Node10&#45;&gt;Node9</title>
<path fill="none" stroke="#9a32cd" stroke-dasharray="5,2" d="M148.687,-535.93C167.848,-520.477 196.972,-496.99 212.456,-484.503"/>
<polygon fill="#9a32cd" stroke="#9a32cd" points="146.255,-533.395 140.668,-542.397 150.65,-538.843 146.255,-533.395"/>
<text text-anchor="middle" x="199" y="-511.5" font-family="Arial" font-size="10.00"> proc</text>
</g>
<!-- Node11 -->
<g id="node11" class="node"><title>Node11</title>
<g id="a_node11"><a xlink:href="structst__lw_image_map.html" target="_top" xlink:title="st_lwImageMap">
<polygon fill="white" stroke="black" points="356,-542.5 356,-561.5 440,-561.5 440,-542.5 356,-542.5"/>
<text text-anchor="middle" x="398" y="-549.5" font-family="Arial" font-size="10.00">st_lwImageMap</text>
</a>
</g>
</g>
<!-- Node11&#45;&gt;Node9 -->
<g id="edge11" class="edge"><title>Node11&#45;&gt;Node9</title>
<path fill="none" stroke="#9a32cd" stroke-dasharray="5,2" d="M376.764,-536.809C360.834,-526.633 338.211,-513.16 317,-504 298.241,-495.899 276.414,-489.241 258.517,-484.452"/>
<polygon fill="#9a32cd" stroke="#9a32cd" points="375.017,-539.847 385.309,-542.361 378.831,-533.977 375.017,-539.847"/>
<text text-anchor="middle" x="368.5" y="-511.5" font-family="Arial" font-size="10.00"> imap</text>
</g>
<!-- Node12 -->
<g id="node12" class="node"><title>Node12</title>
<g id="a_node12"><a xlink:href="structst__lw_e_param.html" target="_top" xlink:title="st_lwEParam">
<polygon fill="white" stroke="black" points="396,-643.5 396,-662.5 470,-662.5 470,-643.5 396,-643.5"/>
<text text-anchor="middle" x="433" y="-650.5" font-family="Arial" font-size="10.00">st_lwEParam</text>
</a>
</g>
</g>
<!-- Node12&#45;&gt;Node6 -->
<g id="edge27" class="edge"><title>Node12&#45;&gt;Node6</title>
<path fill="none" stroke="#9a32cd" stroke-dasharray="5,2" d="M464.201,-638.569C471.002,-634.601 477.731,-629.748 483,-624 506.387,-598.484 515,-587.612 515,-553 515,-553 515,-553 515,-254 515,-160.703 367.247,-148.06 297.122,-147.313"/>
<polygon fill="#9a32cd" stroke="#9a32cd" points="462.214,-635.66 455.012,-643.43 465.488,-641.847 462.214,-635.66"/>
<text text-anchor="middle" x="539" y="-437.5" font-family="Arial" font-size="10.00"> color_filter</text>
<text text-anchor="middle" x="539" y="-426.5" font-family="Arial" font-size="10.00">dif_sharp</text>
<text text-anchor="middle" x="539" y="-415.5" font-family="Arial" font-size="10.00">add_trans</text>
<text text-anchor="middle" x="539" y="-404.5" font-family="Arial" font-size="10.00">glow</text>
<text text-anchor="middle" x="539" y="-393.5" font-family="Arial" font-size="10.00">color_hilite</text>
</g>
<!-- Node12&#45;&gt;Node9 -->
<g id="edge15" class="edge"><title>Node12&#45;&gt;Node9</title>
<path fill="none" stroke="#9a32cd" stroke-dasharray="5,2" d="M410.579,-637.969C403.871,-633.62 396.559,-628.726 390,-624 354.072,-598.111 345.169,-591.341 312,-562 284.458,-537.637 279.554,-529.436 253,-504 246.106,-497.396 238.209,-490.034 232.249,-484.517"/>
<polygon fill="#9a32cd" stroke="#9a32cd" points="408.912,-641.058 419.223,-643.495 412.682,-635.16 408.912,-641.058"/>
<text text-anchor="middle" x="329.5" y="-549.5" font-family="Arial" font-size="10.00"> opacity</text>
</g>
<!-- Node12&#45;&gt;Node11 -->
<g id="edge12" class="edge"><title>Node12&#45;&gt;Node11</title>
<path fill="none" stroke="#9a32cd" stroke-dasharray="5,2" d="M409.976,-636.942C405.967,-633.214 402.339,-628.87 400,-624 390.178,-603.546 393.442,-575.816 396.055,-561.836"/>
<polygon fill="#9a32cd" stroke="#9a32cd" points="407.931,-639.788 417.916,-643.33 412.319,-634.334 407.931,-639.788"/>
<text text-anchor="middle" x="423" y="-616" font-family="Arial" font-size="10.00"> amplitude</text>
<text text-anchor="middle" x="423" y="-605" font-family="Arial" font-size="10.00">wrapw</text>
<text text-anchor="middle" x="423" y="-594" font-family="Arial" font-size="10.00">stck</text>
<text text-anchor="middle" x="423" y="-583" font-family="Arial" font-size="10.00">wraph</text>
</g>
<!-- Node17 -->
<g id="node17" class="node"><title>Node17</title>
<g id="a_node17"><a xlink:href="structst__lw_line.html" target="_top" xlink:title="st_lwLine">
<polygon fill="white" stroke="black" points="439.5,-504.5 439.5,-523.5 496.5,-523.5 496.5,-504.5 439.5,-504.5"/>
<text text-anchor="middle" x="468" y="-511.5" font-family="Arial" font-size="10.00">st_lwLine</text>
</a>
</g>
</g>
<!-- Node12&#45;&gt;Node17 -->
<g id="edge22" class="edge"><title>Node12&#45;&gt;Node17</title>
<path fill="none" stroke="#9a32cd" stroke-dasharray="5,2" d="M442.032,-634.178C443.5,-630.85 444.898,-627.361 446,-624 457.912,-587.679 464.558,-542.338 466.958,-523.657"/>
<polygon fill="#9a32cd" stroke="#9a32cd" points="438.785,-632.854 437.644,-643.388 445.105,-635.865 438.785,-632.854"/>
<text text-anchor="middle" x="468" y="-599.5" font-family="Arial" font-size="10.00"> size</text>
</g>
<!-- Node13 -->
<g id="node13" class="node"><title>Node13</title>
<g id="a_node13"><a xlink:href="structst__lw_t_map.html" target="_top" xlink:title="st_lwTMap">
<polygon fill="white" stroke="black" points="5.5,-542.5 5.5,-561.5 68.5,-561.5 68.5,-542.5 5.5,-542.5"/>
<text text-anchor="middle" x="37" y="-549.5" font-family="Arial" font-size="10.00">st_lwTMap</text>
</a>
</g>
</g>
<!-- Node13&#45;&gt;Node9 -->
<g id="edge13" class="edge"><title>Node13&#45;&gt;Node9</title>
<path fill="none" stroke="#9a32cd" stroke-dasharray="5,2" d="M62.7704,-537.801C82.7386,-527.841 111.25,-514.197 137,-504 155.541,-496.658 176.851,-489.709 193.62,-484.571"/>
<polygon fill="#9a32cd" stroke="#9a32cd" points="61.0633,-534.742 53.7036,-542.363 64.2097,-540.995 61.0633,-534.742"/>
<text text-anchor="middle" x="149.5" y="-511.5" font-family="Arial" font-size="10.00"> tmap</text>
</g>
<!-- Node14 -->
<g id="node14" class="node"><title>Node14</title>
<g id="a_node14"><a xlink:href="structst__lw_v_param.html" target="_top" xlink:title="st_lwVParam">
<polygon fill="white" stroke="black" points="0,-643.5 0,-662.5 74,-662.5 74,-643.5 0,-643.5"/>
<text text-anchor="middle" x="37" y="-650.5" font-family="Arial" font-size="10.00">st_lwVParam</text>
</a>
</g>
</g>
<!-- Node14&#45;&gt;Node13 -->
<g id="edge14" class="edge"><title>Node14&#45;&gt;Node13</title>
<path fill="none" stroke="#9a32cd" stroke-dasharray="5,2" d="M37,-633.029C37,-611.543 37,-577.467 37,-561.625"/>
<polygon fill="#9a32cd" stroke="#9a32cd" points="33.5001,-633.214 37,-643.214 40.5001,-633.214 33.5001,-633.214"/>
<text text-anchor="middle" x="51" y="-616" font-family="Arial" font-size="10.00"> size</text>
<text text-anchor="middle" x="51" y="-605" font-family="Arial" font-size="10.00">center</text>
<text text-anchor="middle" x="51" y="-594" font-family="Arial" font-size="10.00">falloff</text>
<text text-anchor="middle" x="51" y="-583" font-family="Arial" font-size="10.00">rotate</text>
</g>
<!-- Node15 -->
<g id="node15" class="node"><title>Node15</title>
<g id="a_node15"><a xlink:href="structst__lw_gradient.html" target="_top" xlink:title="st_lwGradient">
<polygon fill="white" stroke="black" points="191,-542.5 191,-561.5 267,-561.5 267,-542.5 191,-542.5"/>
<text text-anchor="middle" x="229" y="-549.5" font-family="Arial" font-size="10.00">st_lwGradient</text>
</a>
</g>
</g>
<!-- Node15&#45;&gt;Node9 -->
<g id="edge17" class="edge"><title>Node15&#45;&gt;Node9</title>
<path fill="none" stroke="#9a32cd" stroke-dasharray="5,2" d="M227.482,-532.023C226.259,-516.741 224.598,-495.978 223.68,-484.503"/>
<polygon fill="#9a32cd" stroke="#9a32cd" points="224.025,-532.708 228.312,-542.397 231.003,-532.149 224.025,-532.708"/>
<text text-anchor="middle" x="238" y="-511.5" font-family="Arial" font-size="10.00"> grad</text>
</g>
<!-- Node16 -->
<g id="node16" class="node"><title>Node16</title>
<g id="a_node16"><a xlink:href="structst__lw_grad_key.html" target="_top" xlink:title="st_lwGradKey">
<polygon fill="white" stroke="black" points="190.5,-643.5 190.5,-662.5 267.5,-662.5 267.5,-643.5 190.5,-643.5"/>
<text text-anchor="middle" x="229" y="-650.5" font-family="Arial" font-size="10.00">st_lwGradKey</text>
</a>
</g>
</g>
<!-- Node16&#45;&gt;Node15 -->
<g id="edge18" class="edge"><title>Node16&#45;&gt;Node15</title>
<path fill="none" stroke="#9a32cd" stroke-dasharray="5,2" d="M229,-633.029C229,-611.543 229,-577.467 229,-561.625"/>
<polygon fill="#9a32cd" stroke="#9a32cd" points="225.5,-633.214 229,-643.214 232.5,-633.214 225.5,-633.214"/>
<text text-anchor="middle" x="238.5" y="-599.5" font-family="Arial" font-size="10.00"> key</text>
</g>
<!-- Node16&#45;&gt;Node16 -->
<g id="edge19" class="edge"><title>Node16&#45;&gt;Node16</title>
<path fill="none" stroke="#9a32cd" stroke-dasharray="5,2" d="M277.872,-660.415C282.251,-658.864 285,-656.392 285,-653 285,-647.434 277.597,-644.346 267.735,-643.737"/>
<polygon fill="#9a32cd" stroke="#9a32cd" points="276.945,-657.026 267.735,-662.263 278.201,-663.912 276.945,-657.026"/>
<text text-anchor="middle" x="295.5" y="-656" font-family="Arial" font-size="10.00"> prev</text>
<text text-anchor="middle" x="295.5" y="-645" font-family="Arial" font-size="10.00">next</text>
</g>
<!-- Node17&#45;&gt;Node6 -->
<g id="edge21" class="edge"><title>Node17&#45;&gt;Node6</title>
<path fill="none" stroke="#9a32cd" stroke-dasharray="5,2" d="M468,-494.184C468,-475.208 468,-445.07 468,-419 468,-419 468,-419 468,-254 468,-178.094 356.364,-156.509 297.057,-150.397"/>
<polygon fill="#9a32cd" stroke="#9a32cd" points="464.5,-494.187 468,-504.188 471.5,-494.188 464.5,-494.187"/>
<text text-anchor="middle" x="477.5" y="-358.5" font-family="Arial" font-size="10.00"> line</text>
</g>
<!-- Node18&#45;&gt;Node6 -->
<g id="edge23" class="edge"><title>Node18&#45;&gt;Node6</title>
<path fill="none" stroke="#9a32cd" stroke-dasharray="5,2" d="M123.293,-302.615C117.603,-280.769 111.481,-243.785 125,-216 143.307,-178.376 191.078,-161.275 224.811,-153.705"/>
<polygon fill="#9a32cd" stroke="#9a32cd" points="119.939,-303.615 126.043,-312.275 126.671,-301.698 119.939,-303.615"/>
<text text-anchor="middle" x="137.5" y="-252.5" font-family="Arial" font-size="10.00"> color</text>
</g>
<!-- Node19 -->
<g id="node19" class="node"><title>Node19</title>
<g id="a_node19"><a xlink:href="structst__lw_plugin.html" target="_top" xlink:title="st_lwPlugin">
<polygon fill="white" stroke="black" points="335,-245.5 335,-264.5 401,-264.5 401,-245.5 335,-245.5"/>
<text text-anchor="middle" x="368" y="-252.5" font-family="Arial" font-size="10.00">st_lwPlugin</text>
</a>
</g>
</g>
<!-- Node19&#45;&gt;Node6 -->
<g id="edge25" class="edge"><title>Node19&#45;&gt;Node6</title>
<path fill="none" stroke="#9a32cd" stroke-dasharray="5,2" d="M351.994,-238.143C329.14,-215.503 287.93,-174.678 269.877,-156.794"/>
<polygon fill="#9a32cd" stroke="#9a32cd" points="349.676,-240.774 359.244,-245.326 354.603,-235.801 349.676,-240.774"/>
<text text-anchor="middle" x="328.5" y="-184.5" font-family="Arial" font-size="10.00"> shader</text>
</g>
<!-- Node19&#45;&gt;Node19 -->
<g id="edge26" class="edge"><title>Node19&#45;&gt;Node19</title>
<path fill="none" stroke="#9a32cd" stroke-dasharray="5,2" d="M393.694,-266.937C407,-268.781 419,-264.802 419,-255 419,-242.818 400.468,-239.63 383.927,-245.436"/>
<polygon fill="#9a32cd" stroke="#9a32cd" points="394.47,-263.524 383.927,-264.564 392.818,-270.326 394.47,-263.524"/>
<text text-anchor="middle" x="429.5" y="-258" font-family="Arial" font-size="10.00"> prev</text>
<text text-anchor="middle" x="429.5" y="-247" font-family="Arial" font-size="10.00">next</text>
</g>
</g>
</svg>
