<?xml version="1.0" encoding="UTF-8" standalone="no"?>
<!DOCTYPE svg PUBLIC "-//W3C//DTD SVG 1.1//EN"
 "http://www.w3.org/Graphics/SVG/1.1/DTD/svg11.dtd">
<!-- Generated by graphviz version 2.34.0 (20130907.0111)
 -->
<!-- Title: frameCommand_t Pages: 1 -->
<svg width="547pt" height="368pt"
 viewBox="0.00 0.00 547.00 368.00" xmlns="http://www.w3.org/2000/svg" xmlns:xlink="http://www.w3.org/1999/xlink">
<g id="graph0" class="graph" transform="scale(1 1) rotate(0) translate(4 364)">
<title>frameCommand_t</title>
<polygon fill="white" stroke="white" points="-4,4 -4,-364 543,-364 543,4 -4,4"/>
<!-- Node1 -->
<g id="node1" class="node"><title>Node1</title>
<polygon fill="#bfbfbf" stroke="black" points="61.5,-136.5 61.5,-155.5 154.5,-155.5 154.5,-136.5 61.5,-136.5"/>
<text text-anchor="middle" x="108" y="-143.5" font-family="Arial" font-size="10.00">frameCommand_t</text>
</g>
<!-- Node2 -->
<g id="node2" class="node"><title>Node2</title>
<g id="a_node2"><a xlink:href="classid_str.html" target="_top" xlink:title="idStr">
<polygon fill="white" stroke="black" points="-0.5,-204.5 -0.5,-223.5 36.5,-223.5 36.5,-204.5 -0.5,-204.5"/>
<text text-anchor="middle" x="18" y="-211.5" font-family="Arial" font-size="10.00">idStr</text>
</a>
</g>
</g>
<!-- Node2&#45;&gt;Node1 -->
<g id="edge1" class="edge"><title>Node2&#45;&gt;Node1</title>
<path fill="none" stroke="#9a32cd" stroke-dasharray="5,2" d="M30.5647,-196.286C36.7475,-188.825 44.6577,-180.314 53,-174 62.9236,-166.489 75.2647,-160.204 85.7407,-155.593"/>
<polygon fill="#9a32cd" stroke="#9a32cd" points="27.6329,-194.351 24.1777,-204.366 33.1246,-198.691 27.6329,-194.351"/>
<text text-anchor="middle" x="67" y="-177.5" font-family="Arial" font-size="10.00"> string</text>
</g>
<!-- Node3 -->
<g id="node3" class="node"><title>Node3</title>
<g id="a_node3"><a xlink:href="classid_decl_skin.html" target="_top" xlink:title="idDeclSkin">
<polygon fill="white" stroke="black" points="54.5,-204.5 54.5,-223.5 117.5,-223.5 117.5,-204.5 54.5,-204.5"/>
<text text-anchor="middle" x="86" y="-211.5" font-family="Arial" font-size="10.00">idDeclSkin</text>
</a>
</g>
</g>
<!-- Node3&#45;&gt;Node1 -->
<g id="edge2" class="edge"><title>Node3&#45;&gt;Node1</title>
<path fill="none" stroke="#9a32cd" stroke-dasharray="5,2" d="M84.1214,-194.296C84.0694,-187.715 84.7214,-180.374 87,-174 89.4788,-167.066 94.4833,-160.515 98.9851,-155.602"/>
<polygon fill="#9a32cd" stroke="#9a32cd" points="80.6315,-194.573 84.7104,-204.351 87.6195,-194.163 80.6315,-194.573"/>
<text text-anchor="middle" x="98" y="-177.5" font-family="Arial" font-size="10.00"> skin</text>
</g>
<!-- Node4 -->
<g id="node4" class="node"><title>Node4</title>
<g id="a_node4"><a xlink:href="classid_decl.html" target="_top" xlink:title="idDecl">
<polygon fill="white" stroke="black" points="115,-272.5 115,-291.5 159,-291.5 159,-272.5 115,-272.5"/>
<text text-anchor="middle" x="137" y="-279.5" font-family="Arial" font-size="10.00">idDecl</text>
</a>
</g>
</g>
<!-- Node4&#45;&gt;Node3 -->
<g id="edge3" class="edge"><title>Node4&#45;&gt;Node3</title>
<path fill="none" stroke="midnightblue" d="M124.103,-264.31C114.161,-251.444 100.804,-234.158 92.8318,-223.841"/>
<polygon fill="midnightblue" stroke="midnightblue" points="121.449,-266.599 130.333,-272.372 126.988,-262.319 121.449,-266.599"/>
</g>
<!-- Node14 -->
<g id="node14" class="node"><title>Node14</title>
<g id="a_node14"><a xlink:href="classid_sound_shader.html" target="_top" xlink:title="idSoundShader">
<polygon fill="white" stroke="black" points="135.5,-204.5 135.5,-223.5 218.5,-223.5 218.5,-204.5 135.5,-204.5"/>
<text text-anchor="middle" x="177" y="-211.5" font-family="Arial" font-size="10.00">idSoundShader</text>
</a>
</g>
</g>
<!-- Node4&#45;&gt;Node14 -->
<g id="edge18" class="edge"><title>Node4&#45;&gt;Node14</title>
<path fill="none" stroke="midnightblue" d="M147.568,-263.563C155.314,-250.781 165.509,-233.96 171.642,-223.841"/>
<polygon fill="midnightblue" stroke="midnightblue" points="144.419,-262.006 142.229,-272.372 150.406,-265.634 144.419,-262.006"/>
</g>
<!-- Node5 -->
<g id="node5" class="node"><title>Node5</title>
<g id="a_node5"><a xlink:href="classid_decl_base.html" target="_top" xlink:title="idDeclBase">
<polygon fill="white" stroke="black" points="104,-340.5 104,-359.5 170,-359.5 170,-340.5 104,-340.5"/>
<text text-anchor="middle" x="137" y="-347.5" font-family="Arial" font-size="10.00">idDeclBase</text>
</a>
</g>
</g>
<!-- Node5&#45;&gt;Node4 -->
<g id="edge4" class="edge"><title>Node5&#45;&gt;Node4</title>
<path fill="none" stroke="#9a32cd" stroke-dasharray="5,2" d="M137,-330.041C137,-317.472 137,-301.563 137,-291.841"/>
<polygon fill="#9a32cd" stroke="#9a32cd" points="133.5,-330.372 137,-340.372 140.5,-330.372 133.5,-330.372"/>
<text text-anchor="middle" x="149.5" y="-313.5" font-family="Arial" font-size="10.00"> base</text>
</g>
<!-- Node6 -->
<g id="node6" class="node"><title>Node6</title>
<g id="a_node6"><a xlink:href="classfunction__t.html" target="_top" xlink:title="function_t">
<polygon fill="white" stroke="black" points="254.5,-204.5 254.5,-223.5 313.5,-223.5 313.5,-204.5 254.5,-204.5"/>
<text text-anchor="middle" x="284" y="-211.5" font-family="Arial" font-size="10.00">function_t</text>
</a>
</g>
</g>
<!-- Node6&#45;&gt;Node1 -->
<g id="edge5" class="edge"><title>Node6&#45;&gt;Node1</title>
<path fill="none" stroke="#9a32cd" stroke-dasharray="5,2" d="M251.277,-200.794C239.994,-196.378 227.344,-191.195 216,-186 205.517,-181.2 203.645,-178.429 193,-174 175.702,-166.804 155.767,-160.379 139.552,-155.603"/>
<polygon fill="#9a32cd" stroke="#9a32cd" points="250.185,-204.124 260.774,-204.458 252.705,-197.593 250.185,-204.124"/>
<text text-anchor="middle" x="234.5" y="-177.5" font-family="Arial" font-size="10.00"> function</text>
</g>
<!-- Node10 -->
<g id="node10" class="node"><title>Node10</title>
<g id="a_node10"><a xlink:href="unionvar_eval__s.html" target="_top" xlink:title="varEval_s">
<polygon fill="white" stroke="black" points="368.5,-136.5 368.5,-155.5 425.5,-155.5 425.5,-136.5 368.5,-136.5"/>
<text text-anchor="middle" x="397" y="-143.5" font-family="Arial" font-size="10.00">varEval_s</text>
</a>
</g>
</g>
<!-- Node6&#45;&gt;Node10 -->
<g id="edge10" class="edge"><title>Node6&#45;&gt;Node10</title>
<path fill="none" stroke="#9a32cd" stroke-dasharray="5,2" d="M307.688,-199.165C330.174,-186.031 363.272,-166.699 382.224,-155.63"/>
<polygon fill="#9a32cd" stroke="#9a32cd" points="305.643,-196.306 298.773,-204.372 309.173,-202.35 305.643,-196.306"/>
<text text-anchor="middle" x="376" y="-177.5" font-family="Arial" font-size="10.00"> functionPtr</text>
</g>
<!-- Node7 -->
<g id="node7" class="node"><title>Node7</title>
<g id="a_node7"><a xlink:href="classid_list.html" target="_top" xlink:title="idList\&lt; int \&gt;">
<polygon fill="white" stroke="black" points="189,-272.5 189,-291.5 257,-291.5 257,-272.5 189,-272.5"/>
<text text-anchor="middle" x="223" y="-279.5" font-family="Arial" font-size="10.00">idList&lt; int &gt;</text>
</a>
</g>
</g>
<!-- Node7&#45;&gt;Node6 -->
<g id="edge6" class="edge"><title>Node7&#45;&gt;Node6</title>
<path fill="none" stroke="#9a32cd" stroke-dasharray="5,2" d="M231.073,-262.824C234.707,-255.844 239.439,-248.097 245,-242 251.659,-234.699 260.645,-228.31 268.312,-223.582"/>
<polygon fill="#9a32cd" stroke="#9a32cd" points="227.735,-261.69 226.565,-272.22 234.046,-264.718 227.735,-261.69"/>
<text text-anchor="middle" x="267.5" y="-245.5" font-family="Arial" font-size="10.00"> parmSize</text>
</g>
<!-- Node8 -->
<g id="node8" class="node"><title>Node8</title>
<g id="a_node8"><a xlink:href="classid_type_def.html" target="_top" xlink:title="idTypeDef">
<polygon fill="white" stroke="black" points="259.5,-0.5 259.5,-19.5 318.5,-19.5 318.5,-0.5 259.5,-0.5"/>
<text text-anchor="middle" x="289" y="-7.5" font-family="Arial" font-size="10.00">idTypeDef</text>
</a>
</g>
</g>
<!-- Node8&#45;&gt;Node6 -->
<g id="edge7" class="edge"><title>Node8&#45;&gt;Node6</title>
<path fill="none" stroke="#9a32cd" stroke-dasharray="5,2" d="M287.81,-30.0814C287.167,-41.1493 286.42,-55.3568 286,-68 284.279,-119.834 284.033,-182.138 284.002,-204.499"/>
<polygon fill="#9a32cd" stroke="#9a32cd" points="291.317,-30.0738 288.426,-19.8812 284.33,-29.6524 291.317,-30.0738"/>
<text text-anchor="middle" x="297" y="-109.5" font-family="Arial" font-size="10.00"> type</text>
</g>
<!-- Node9 -->
<g id="node9" class="node"><title>Node9</title>
<g id="a_node9"><a xlink:href="classid_var_def.html" target="_top" xlink:title="idVarDef">
<polygon fill="white" stroke="black" points="295.5,-68.5 295.5,-87.5 348.5,-87.5 348.5,-68.5 295.5,-68.5"/>
<text text-anchor="middle" x="322" y="-75.5" font-family="Arial" font-size="10.00">idVarDef</text>
</a>
</g>
</g>
<!-- Node9&#45;&gt;Node6 -->
<g id="edge15" class="edge"><title>Node9&#45;&gt;Node6</title>
<path fill="none" stroke="#9a32cd" stroke-dasharray="5,2" d="M316.775,-97.4256C308.48,-126.675 292.613,-182.627 286.493,-204.208"/>
<polygon fill="#9a32cd" stroke="#9a32cd" points="320.186,-98.2258 319.547,-87.6503 313.451,-96.316 320.186,-98.2258"/>
<text text-anchor="middle" x="314" y="-143.5" font-family="Arial" font-size="10.00"> def</text>
</g>
<!-- Node9&#45;&gt;Node8 -->
<g id="edge8" class="edge"><title>Node9&#45;&gt;Node8</title>
<path fill="none" stroke="#9a32cd" stroke-dasharray="5,2" d="M313.093,-59.1859C306.726,-46.4523 298.43,-29.8607 293.421,-19.8411"/>
<polygon fill="#9a32cd" stroke="#9a32cd" points="310.083,-60.9926 317.686,-68.3717 316.344,-57.8621 310.083,-60.9926"/>
<text text-anchor="middle" x="317" y="-41.5" font-family="Arial" font-size="10.00"> def</text>
</g>
<!-- Node9&#45;&gt;Node9 -->
<g id="edge14" class="edge"><title>Node9&#45;&gt;Node9</title>
<path fill="none" stroke="#9a32cd" stroke-dasharray="5,2" d="M358.677,-83.4948C363.104,-82.5024 366,-80.6708 366,-78 366,-73.6172 358.201,-71.4943 348.635,-71.6312"/>
<polygon fill="#9a32cd" stroke="#9a32cd" points="358.294,-80.0148 348.635,-84.3688 358.901,-86.9884 358.294,-80.0148"/>
<text text-anchor="middle" x="381" y="-75.5" font-family="Arial" font-size="10.00"> scope</text>
</g>
<!-- Node10&#45;&gt;Node9 -->
<g id="edge9" class="edge"><title>Node10&#45;&gt;Node9</title>
<path fill="none" stroke="#9a32cd" stroke-dasharray="5,2" d="M379.287,-129.412C364.553,-116.447 344.109,-98.4559 332.047,-87.8411"/>
<polygon fill="#9a32cd" stroke="#9a32cd" points="377.376,-132.393 387.195,-136.372 382,-127.138 377.376,-132.393"/>
<text text-anchor="middle" x="379.5" y="-109.5" font-family="Arial" font-size="10.00"> value</text>
</g>
<!-- Node10&#45;&gt;Node10 -->
<g id="edge11" class="edge"><title>Node10&#45;&gt;Node10</title>
<path fill="none" stroke="#9a32cd" stroke-dasharray="5,2" d="M435.76,-151.402C440.153,-150.391 443,-148.59 443,-146 443,-141.75 435.333,-139.625 425.75,-139.625"/>
<polygon fill="#9a32cd" stroke="#9a32cd" points="435.365,-147.924 425.75,-152.375 436.042,-154.891 435.365,-147.924"/>
<text text-anchor="middle" x="459.5" y="-143.5" font-family="Arial" font-size="10.00"> evalPtr</text>
</g>
<!-- Node11 -->
<g id="node11" class="node"><title>Node11</title>
<g id="a_node11"><a xlink:href="classid_vec3.html" target="_top" xlink:title="idVec3">
<polygon fill="white" stroke="black" points="395.5,-204.5 395.5,-223.5 442.5,-223.5 442.5,-204.5 395.5,-204.5"/>
<text text-anchor="middle" x="419" y="-211.5" font-family="Arial" font-size="10.00">idVec3</text>
</a>
</g>
</g>
<!-- Node11&#45;&gt;Node10 -->
<g id="edge12" class="edge"><title>Node11&#45;&gt;Node10</title>
<path fill="none" stroke="#9a32cd" stroke-dasharray="5,2" d="M412.936,-194.807C408.708,-182.124 403.254,-165.762 399.947,-155.841"/>
<polygon fill="#9a32cd" stroke="#9a32cd" points="409.641,-195.992 416.124,-204.372 416.282,-193.778 409.641,-195.992"/>
<text text-anchor="middle" x="431" y="-177.5" font-family="Arial" font-size="10.00"> vectorPtr</text>
</g>
<!-- Node12 -->
<g id="node12" class="node"><title>Node12</title>
<g id="a_node12"><a xlink:href="classid_script_object.html" target="_top" xlink:title="idScriptObject">
<polygon fill="white" stroke="black" points="461,-204.5 461,-223.5 539,-223.5 539,-204.5 461,-204.5"/>
<text text-anchor="middle" x="500" y="-211.5" font-family="Arial" font-size="10.00">idScriptObject</text>
</a>
</g>
</g>
<!-- Node12&#45;&gt;Node10 -->
<g id="edge13" class="edge"><title>Node12&#45;&gt;Node10</title>
<path fill="none" stroke="#9a32cd" stroke-dasharray="5,2" d="M484.631,-197.334C476.574,-189.671 466.265,-180.684 456,-174 444.672,-166.624 431.001,-160.23 419.671,-155.519"/>
<polygon fill="#9a32cd" stroke="#9a32cd" points="482.263,-199.914 491.852,-204.42 487.166,-194.918 482.263,-199.914"/>
<text text-anchor="middle" x="499.5" y="-177.5" font-family="Arial" font-size="10.00"> objectPtrPtr</text>
</g>
<!-- Node13 -->
<g id="node13" class="node"><title>Node13</title>
<g id="a_node13"><a xlink:href="classid_event_def.html" target="_top" xlink:title="idEventDef">
<polygon fill="white" stroke="black" points="275,-272.5 275,-291.5 337,-291.5 337,-272.5 275,-272.5"/>
<text text-anchor="middle" x="306" y="-279.5" font-family="Arial" font-size="10.00">idEventDef</text>
</a>
</g>
</g>
<!-- Node13&#45;&gt;Node6 -->
<g id="edge16" class="edge"><title>Node13&#45;&gt;Node6</title>
<path fill="none" stroke="#9a32cd" stroke-dasharray="5,2" d="M299.936,-262.807C295.708,-250.124 290.254,-233.762 286.947,-223.841"/>
<polygon fill="#9a32cd" stroke="#9a32cd" points="296.641,-263.992 303.124,-272.372 303.282,-261.778 296.641,-263.992"/>
<text text-anchor="middle" x="316.5" y="-245.5" font-family="Arial" font-size="10.00"> eventdef</text>
</g>
<!-- Node14&#45;&gt;Node1 -->
<g id="edge17" class="edge"><title>Node14&#45;&gt;Node1</title>
<path fill="none" stroke="#9a32cd" stroke-dasharray="5,2" d="M149.301,-199.23C143.195,-195.448 137.049,-190.993 132,-186 122.955,-177.056 115.841,-164.058 111.778,-155.567"/>
<polygon fill="#9a32cd" stroke="#9a32cd" points="147.673,-202.331 158.088,-204.274 151.158,-196.26 147.673,-202.331"/>
<text text-anchor="middle" x="162.5" y="-177.5" font-family="Arial" font-size="10.00"> soundShader</text>
</g>
</g>
</svg>
