<?xml version="1.0" encoding="UTF-8" standalone="no"?>
<!DOCTYPE svg PUBLIC "-//W3C//DTD SVG 1.1//EN"
 "http://www.w3.org/Graphics/SVG/1.1/DTD/svg11.dtd">
<!-- Generated by graphviz version 2.34.0 (20130907.0111)
 -->
<!-- Title: idGSWinVar Pages: 1 -->
<svg width="78pt" height="164pt"
 viewBox="0.00 0.00 78.00 164.00" xmlns="http://www.w3.org/2000/svg" xmlns:xlink="http://www.w3.org/1999/xlink">
<g id="graph0" class="graph" transform="scale(1 1) rotate(0) translate(4 160)">
<title>idGSWinVar</title>
<polygon fill="white" stroke="white" points="-4,4 -4,-160 74,-160 74,4 -4,4"/>
<!-- Node1 -->
<g id="node1" class="node"><title>Node1</title>
<polygon fill="#bfbfbf" stroke="black" points="-0.5,-0.5 -0.5,-19.5 70.5,-19.5 70.5,-0.5 -0.5,-0.5"/>
<text text-anchor="middle" x="35" y="-7.5" font-family="Arial" font-size="10.00">idGSWinVar</text>
</g>
<!-- Node2 -->
<g id="node2" class="node"><title>Node2</title>
<g id="a_node2"><a xlink:href="classid_win_var.html" target="_top" xlink:title="idWinVar">
<polygon fill="white" stroke="black" points="7,-68.5 7,-87.5 63,-87.5 63,-68.5 7,-68.5"/>
<text text-anchor="middle" x="35" y="-75.5" font-family="Arial" font-size="10.00">idWinVar</text>
</a>
</g>
</g>
<!-- Node2&#45;&gt;Node1 -->
<g id="edge1" class="edge"><title>Node2&#45;&gt;Node1</title>
<path fill="none" stroke="#9a32cd" stroke-dasharray="5,2" d="M35,-58.0413C35,-45.4724 35,-29.5631 35,-19.8411"/>
<polygon fill="#9a32cd" stroke="#9a32cd" points="31.5001,-58.3716 35,-68.3717 38.5001,-58.3717 31.5001,-58.3716"/>
<text text-anchor="middle" x="43" y="-41.5" font-family="Arial" font-size="10.00"> var</text>
</g>
<!-- Node3 -->
<g id="node3" class="node"><title>Node3</title>
<g id="a_node3"><a xlink:href="classid_dict.html" target="_top" xlink:title="idDict">
<polygon fill="white" stroke="black" points="14.5,-136.5 14.5,-155.5 55.5,-155.5 55.5,-136.5 14.5,-136.5"/>
<text text-anchor="middle" x="35" y="-143.5" font-family="Arial" font-size="10.00">idDict</text>
</a>
</g>
</g>
<!-- Node3&#45;&gt;Node2 -->
<g id="edge2" class="edge"><title>Node3&#45;&gt;Node2</title>
<path fill="none" stroke="#9a32cd" stroke-dasharray="5,2" d="M35,-126.041C35,-113.472 35,-97.5631 35,-87.8411"/>
<polygon fill="#9a32cd" stroke="#9a32cd" points="31.5001,-126.372 35,-136.372 38.5001,-126.372 31.5001,-126.372"/>
<text text-anchor="middle" x="52" y="-109.5" font-family="Arial" font-size="10.00"> guiDict</text>
</g>
</g>
</svg>
