<?xml version="1.0" encoding="UTF-8" standalone="no"?>
<!DOCTYPE svg PUBLIC "-//W3C//DTD SVG 1.1//EN"
 "http://www.w3.org/Graphics/SVG/1.1/DTD/svg11.dtd">
<!-- Generated by graphviz version 2.34.0 (20130907.0111)
 -->
<!-- Title: floorInfo_s Pages: 1 -->
<svg width="109pt" height="96pt"
 viewBox="0.00 0.00 109.00 96.00" xmlns="http://www.w3.org/2000/svg" xmlns:xlink="http://www.w3.org/1999/xlink">
<g id="graph0" class="graph" transform="scale(1 1) rotate(0) translate(4 92)">
<title>floorInfo_s</title>
<polygon fill="white" stroke="white" points="-4,4 -4,-92 105,-92 105,4 -4,4"/>
<!-- Node1 -->
<g id="node1" class="node"><title>Node1</title>
<polygon fill="#bfbfbf" stroke="black" points="18,-0.5 18,-19.5 78,-19.5 78,-0.5 18,-0.5"/>
<text text-anchor="middle" x="48" y="-7.5" font-family="Arial" font-size="10.00">floorInfo_s</text>
</g>
<!-- Node2 -->
<g id="node2" class="node"><title>Node2</title>
<g id="a_node2"><a xlink:href="classid_str.html" target="_top" xlink:title="idStr">
<polygon fill="white" stroke="black" points="-0.5,-68.5 -0.5,-87.5 36.5,-87.5 36.5,-68.5 -0.5,-68.5"/>
<text text-anchor="middle" x="18" y="-75.5" font-family="Arial" font-size="10.00">idStr</text>
</a>
</g>
</g>
<!-- Node2&#45;&gt;Node1 -->
<g id="edge1" class="edge"><title>Node2&#45;&gt;Node1</title>
<path fill="none" stroke="#9a32cd" stroke-dasharray="5,2" d="M25.0716,-58.81C27.7431,-52.2015 30.891,-44.7111 34,-38 36.841,-31.8675 40.341,-25.1175 43.1308,-19.9006"/>
<polygon fill="#9a32cd" stroke="#9a32cd" points="21.769,-57.6439 21.3397,-68.2301 28.2769,-60.2222 21.769,-57.6439"/>
<text text-anchor="middle" x="45" y="-41.5" font-family="Arial" font-size="10.00"> door</text>
</g>
<!-- Node3 -->
<g id="node3" class="node"><title>Node3</title>
<g id="a_node3"><a xlink:href="classid_vec3.html" target="_top" xlink:title="idVec3">
<polygon fill="white" stroke="black" points="54.5,-68.5 54.5,-87.5 101.5,-87.5 101.5,-68.5 54.5,-68.5"/>
<text text-anchor="middle" x="78" y="-75.5" font-family="Arial" font-size="10.00">idVec3</text>
</a>
</g>
</g>
<!-- Node3&#45;&gt;Node1 -->
<g id="edge2" class="edge"><title>Node3&#45;&gt;Node1</title>
<path fill="none" stroke="#9a32cd" stroke-dasharray="5,2" d="M69.9027,-59.1859C64.1147,-46.4523 56.5731,-29.8607 52.0187,-19.8411"/>
<polygon fill="#9a32cd" stroke="#9a32cd" points="66.7537,-60.7163 74.078,-68.3717 73.1262,-57.8196 66.7537,-60.7163"/>
<text text-anchor="middle" x="74.5" y="-41.5" font-family="Arial" font-size="10.00"> pos</text>
</g>
</g>
</svg>
