<?xml version="1.0" encoding="UTF-8" standalone="no"?>
<!DOCTYPE svg PUBLIC "-//W3C//DTD SVG 1.1//EN"
 "http://www.w3.org/Graphics/SVG/1.1/DTD/svg11.dtd">
<!-- Generated by graphviz version 2.34.0 (20130907.0111)
 -->
<!-- Title: cm_polygonRefBlock_s Pages: 1 -->
<svg width="212pt" height="358pt"
 viewBox="0.00 0.00 212.00 358.00" xmlns="http://www.w3.org/2000/svg" xmlns:xlink="http://www.w3.org/1999/xlink">
<g id="graph0" class="graph" transform="scale(1 1) rotate(0) translate(4 354)">
<title>cm_polygonRefBlock_s</title>
<polygon fill="white" stroke="white" points="-4,4 -4,-354 208,-354 208,4 -4,4"/>
<!-- Node1 -->
<g id="node1" class="node"><title>Node1</title>
<polygon fill="#bfbfbf" stroke="black" points="35.5,-0.5 35.5,-19.5 154.5,-19.5 154.5,-0.5 35.5,-0.5"/>
<text text-anchor="middle" x="95" y="-7.5" font-family="Arial" font-size="10.00">cm_polygonRefBlock_s</text>
</g>
<!-- Node1&#45;&gt;Node1 -->
<g id="edge1" class="edge"><title>Node1&#45;&gt;Node1</title>
<path fill="none" stroke="#9a32cd" stroke-dasharray="5,2" d="M164.677,-14.5426C169.239,-13.4856 172,-11.9714 172,-10 172,-6.8457 164.931,-4.86195 154.728,-4.04873"/>
<polygon fill="#9a32cd" stroke="#9a32cd" points="164.138,-11.0838 154.728,-15.9513 165.119,-18.0147 164.138,-11.0838"/>
<text text-anchor="middle" x="183" y="-7.5" font-family="Arial" font-size="10.00"> next</text>
</g>
<!-- Node2 -->
<g id="node2" class="node"><title>Node2</title>
<g id="a_node2"><a xlink:href="structcm__polygon_ref__s.html" target="_top" xlink:title="cm_polygonRef_s">
<polygon fill="white" stroke="black" points="48,-68.5 48,-87.5 142,-87.5 142,-68.5 48,-68.5"/>
<text text-anchor="middle" x="95" y="-75.5" font-family="Arial" font-size="10.00">cm_polygonRef_s</text>
</a>
</g>
</g>
<!-- Node2&#45;&gt;Node1 -->
<g id="edge2" class="edge"><title>Node2&#45;&gt;Node1</title>
<path fill="none" stroke="#9a32cd" stroke-dasharray="5,2" d="M95,-58.0413C95,-45.4724 95,-29.5631 95,-19.8411"/>
<polygon fill="#9a32cd" stroke="#9a32cd" points="91.5001,-58.3716 95,-68.3717 98.5001,-58.3717 91.5001,-58.3716"/>
<text text-anchor="middle" x="113.5" y="-41.5" font-family="Arial" font-size="10.00"> nextRef</text>
</g>
<!-- Node2&#45;&gt;Node2 -->
<g id="edge9" class="edge"><title>Node2&#45;&gt;Node2</title>
<path fill="none" stroke="#9a32cd" stroke-dasharray="5,2" d="M152.287,-82.9212C157.043,-81.8609 160,-80.2205 160,-78 160,-74.4473 152.43,-72.3795 142.035,-71.7966"/>
<polygon fill="#9a32cd" stroke="#9a32cd" points="151.524,-79.4894 142.035,-84.2034 152.393,-86.4353 151.524,-79.4894"/>
<text text-anchor="middle" x="171" y="-75.5" font-family="Arial" font-size="10.00"> next</text>
</g>
<!-- Node3 -->
<g id="node3" class="node"><title>Node3</title>
<g id="a_node3"><a xlink:href="structcm__polygon__s.html" target="_top" xlink:title="cm_polygon_s">
<polygon fill="white" stroke="black" points="55,-136.5 55,-155.5 135,-155.5 135,-136.5 55,-136.5"/>
<text text-anchor="middle" x="95" y="-143.5" font-family="Arial" font-size="10.00">cm_polygon_s</text>
</a>
</g>
</g>
<!-- Node3&#45;&gt;Node2 -->
<g id="edge3" class="edge"><title>Node3&#45;&gt;Node2</title>
<path fill="none" stroke="#9a32cd" stroke-dasharray="5,2" d="M95,-126.041C95,-113.472 95,-97.5631 95,-87.8411"/>
<polygon fill="#9a32cd" stroke="#9a32cd" points="91.5001,-126.372 95,-136.372 98.5001,-126.372 91.5001,-126.372"/>
<text text-anchor="middle" x="99.5" y="-109.5" font-family="Arial" font-size="10.00"> p</text>
</g>
<!-- Node4 -->
<g id="node4" class="node"><title>Node4</title>
<g id="a_node4"><a xlink:href="classid_plane.html" target="_top" xlink:title="idPlane">
<polygon fill="white" stroke="black" points="-0.5,-204.5 -0.5,-223.5 48.5,-223.5 48.5,-204.5 -0.5,-204.5"/>
<text text-anchor="middle" x="24" y="-211.5" font-family="Arial" font-size="10.00">idPlane</text>
</a>
</g>
</g>
<!-- Node4&#45;&gt;Node3 -->
<g id="edge4" class="edge"><title>Node4&#45;&gt;Node3</title>
<path fill="none" stroke="#9a32cd" stroke-dasharray="5,2" d="M39.6558,-197.336C46.9611,-190.131 55.8295,-181.53 64,-174 70.8226,-167.712 78.71,-160.848 84.8215,-155.614"/>
<polygon fill="#9a32cd" stroke="#9a32cd" points="37.0804,-194.961 32.4492,-204.49 42.012,-199.929 37.0804,-194.961"/>
<text text-anchor="middle" x="77.5" y="-177.5" font-family="Arial" font-size="10.00"> plane</text>
</g>
<!-- Node5 -->
<g id="node5" class="node"><title>Node5</title>
<g id="a_node5"><a xlink:href="classid_bounds.html" target="_top" xlink:title="idBounds">
<polygon fill="white" stroke="black" points="66.5,-204.5 66.5,-223.5 123.5,-223.5 123.5,-204.5 66.5,-204.5"/>
<text text-anchor="middle" x="95" y="-211.5" font-family="Arial" font-size="10.00">idBounds</text>
</a>
</g>
</g>
<!-- Node5&#45;&gt;Node3 -->
<g id="edge5" class="edge"><title>Node5&#45;&gt;Node3</title>
<path fill="none" stroke="#9a32cd" stroke-dasharray="5,2" d="M95,-194.041C95,-181.472 95,-165.563 95,-155.841"/>
<polygon fill="#9a32cd" stroke="#9a32cd" points="91.5001,-194.372 95,-204.372 98.5001,-194.372 91.5001,-194.372"/>
<text text-anchor="middle" x="112.5" y="-177.5" font-family="Arial" font-size="10.00"> bounds</text>
</g>
<!-- Node6 -->
<g id="node6" class="node"><title>Node6</title>
<g id="a_node6"><a xlink:href="classid_material.html" target="_top" xlink:title="idMaterial">
<polygon fill="white" stroke="black" points="141.5,-204.5 141.5,-223.5 200.5,-223.5 200.5,-204.5 141.5,-204.5"/>
<text text-anchor="middle" x="171" y="-211.5" font-family="Arial" font-size="10.00">idMaterial</text>
</a>
</g>
</g>
<!-- Node6&#45;&gt;Node3 -->
<g id="edge6" class="edge"><title>Node6&#45;&gt;Node3</title>
<path fill="none" stroke="#9a32cd" stroke-dasharray="5,2" d="M156.857,-196.621C150.236,-189.35 142.047,-180.898 134,-174 126.122,-167.247 116.551,-160.601 108.862,-155.592"/>
<polygon fill="#9a32cd" stroke="#9a32cd" points="154.551,-199.295 163.807,-204.449 159.785,-194.647 154.551,-199.295"/>
<text text-anchor="middle" x="164" y="-177.5" font-family="Arial" font-size="10.00"> material</text>
</g>
<!-- Node7 -->
<g id="node7" class="node"><title>Node7</title>
<g id="a_node7"><a xlink:href="classid_decl.html" target="_top" xlink:title="idDecl">
<polygon fill="white" stroke="black" points="149,-262.5 149,-281.5 193,-281.5 193,-262.5 149,-262.5"/>
<text text-anchor="middle" x="171" y="-269.5" font-family="Arial" font-size="10.00">idDecl</text>
</a>
</g>
</g>
<!-- Node7&#45;&gt;Node6 -->
<g id="edge7" class="edge"><title>Node7&#45;&gt;Node6</title>
<path fill="none" stroke="midnightblue" d="M171,-251.953C171,-242.287 171,-231.031 171,-223.505"/>
<polygon fill="midnightblue" stroke="midnightblue" points="167.5,-252.25 171,-262.25 174.5,-252.25 167.5,-252.25"/>
</g>
<!-- Node8 -->
<g id="node8" class="node"><title>Node8</title>
<g id="a_node8"><a xlink:href="classid_decl_base.html" target="_top" xlink:title="idDeclBase">
<polygon fill="white" stroke="black" points="138,-330.5 138,-349.5 204,-349.5 204,-330.5 138,-330.5"/>
<text text-anchor="middle" x="171" y="-337.5" font-family="Arial" font-size="10.00">idDeclBase</text>
</a>
</g>
</g>
<!-- Node8&#45;&gt;Node7 -->
<g id="edge8" class="edge"><title>Node8&#45;&gt;Node7</title>
<path fill="none" stroke="#9a32cd" stroke-dasharray="5,2" d="M171,-320.041C171,-307.472 171,-291.563 171,-281.841"/>
<polygon fill="#9a32cd" stroke="#9a32cd" points="167.5,-320.372 171,-330.372 174.5,-320.372 167.5,-320.372"/>
<text text-anchor="middle" x="183.5" y="-303.5" font-family="Arial" font-size="10.00"> base</text>
</g>
</g>
</svg>
