<?xml version="1.0" encoding="UTF-8" standalone="no"?>
<!DOCTYPE svg PUBLIC "-//W3C//DTD SVG 1.1//EN"
 "http://www.w3.org/Graphics/SVG/1.1/DTD/svg11.dtd">
<!-- Generated by graphviz version 2.34.0 (20130907.0111)
 -->
<!-- Title: edgeCrossing_s Pages: 1 -->
<svg width="358pt" height="347pt"
 viewBox="0.00 0.00 358.00 346.50" xmlns="http://www.w3.org/2000/svg" xmlns:xlink="http://www.w3.org/1999/xlink">
<g id="graph0" class="graph" transform="scale(1 1) rotate(0) translate(4 342.5)">
<title>edgeCrossing_s</title>
<polygon fill="white" stroke="white" points="-4,4 -4,-342.5 354,-342.5 354,4 -4,4"/>
<!-- Node1 -->
<g id="node1" class="node"><title>Node1</title>
<polygon fill="#bfbfbf" stroke="black" points="224,-92 224,-111 310,-111 310,-92 224,-92"/>
<text text-anchor="middle" x="267" y="-99" font-family="Arial" font-size="10.00">edgeCrossing_s</text>
</g>
<!-- Node1&#45;&gt;Node1 -->
<g id="edge1" class="edge"><title>Node1&#45;&gt;Node1</title>
<path fill="none" stroke="#9a32cd" stroke-dasharray="5,2" d="M320.254,-106.538C325.013,-105.483 328,-103.803 328,-101.5 328,-97.8145 320.355,-95.7269 310.036,-95.2374"/>
<polygon fill="#9a32cd" stroke="#9a32cd" points="319.548,-103.097 310.036,-107.763 320.382,-110.047 319.548,-103.097"/>
<text text-anchor="middle" x="339" y="-99" font-family="Arial" font-size="10.00"> next</text>
</g>
<!-- Node2 -->
<g id="node2" class="node"><title>Node2</title>
<g id="a_node2"><a xlink:href="structopt_vertex__s.html" target="_top" xlink:title="optVertex_s">
<polygon fill="white" stroke="black" points="96.5,-161 96.5,-180 165.5,-180 165.5,-161 96.5,-161"/>
<text text-anchor="middle" x="131" y="-168" font-family="Arial" font-size="10.00">optVertex_s</text>
</a>
</g>
</g>
<!-- Node2&#45;&gt;Node1 -->
<g id="edge2" class="edge"><title>Node2&#45;&gt;Node1</title>
<path fill="none" stroke="#9a32cd" stroke-dasharray="5,2" d="M159.494,-156.807C169.22,-152.383 180.13,-147.318 190,-142.5 211.389,-132.058 235.707,-119.269 251.191,-111.007"/>
<polygon fill="#9a32cd" stroke="#9a32cd" points="157.917,-153.679 150.245,-160.985 160.799,-160.058 157.917,-153.679"/>
<text text-anchor="middle" x="220.5" y="-134" font-family="Arial" font-size="10.00"> ov</text>
</g>
<!-- Node2&#45;&gt;Node2 -->
<g id="edge14" class="edge"><title>Node2&#45;&gt;Node2</title>
<path fill="none" stroke="#9a32cd" stroke-dasharray="5,2" d="M175.726,-175.703C180.171,-174.662 183,-172.928 183,-170.5 183,-166.516 175.383,-164.399 165.504,-164.15"/>
<polygon fill="#9a32cd" stroke="#9a32cd" points="175.052,-172.257 165.504,-176.85 175.832,-179.213 175.052,-172.257"/>
<text text-anchor="middle" x="206.5" y="-168" font-family="Arial" font-size="10.00"> islandLink</text>
</g>
<!-- Node3 -->
<g id="node3" class="node"><title>Node3</title>
<g id="a_node3"><a xlink:href="structopt_edge__s.html" target="_top" xlink:title="optEdge_s">
<polygon fill="white" stroke="black" points="95.5,-7 95.5,-26 158.5,-26 158.5,-7 95.5,-7"/>
<text text-anchor="middle" x="127" y="-14" font-family="Arial" font-size="10.00">optEdge_s</text>
</a>
</g>
</g>
<!-- Node2&#45;&gt;Node3 -->
<g id="edge9" class="edge"><title>Node2&#45;&gt;Node3</title>
<path fill="none" stroke="#9a32cd" stroke-dasharray="5,2" d="M130.506,-150.729C129.633,-117.557 127.851,-49.8297 127.224,-26.0133"/>
<polygon fill="#9a32cd" stroke="#9a32cd" points="127.012,-150.988 130.773,-160.892 134.009,-150.804 127.012,-150.988"/>
<text text-anchor="middle" x="136.5" y="-104.5" font-family="Arial" font-size="10.00"> v2</text>
<text text-anchor="middle" x="136.5" y="-93.5" font-family="Arial" font-size="10.00">v1</text>
</g>
<!-- Node4 -->
<g id="node4" class="node"><title>Node4</title>
<g id="a_node4"><a xlink:href="structopt_tri__s.html" target="_top" xlink:title="optTri_s">
<polygon fill="white" stroke="black" points="-0.5,-92 -0.5,-111 50.5,-111 50.5,-92 -0.5,-92"/>
<text text-anchor="middle" x="25" y="-99" font-family="Arial" font-size="10.00">optTri_s</text>
</a>
</g>
</g>
<!-- Node2&#45;&gt;Node4 -->
<g id="edge7" class="edge"><title>Node2&#45;&gt;Node4</title>
<path fill="none" stroke="#9a32cd" stroke-dasharray="5,2" d="M108.445,-155.243C87.2247,-141.831 56.1528,-122.191 38.5259,-111.049"/>
<polygon fill="#9a32cd" stroke="#9a32cd" points="106.819,-158.356 117.142,-160.741 110.559,-152.439 106.819,-158.356"/>
<text text-anchor="middle" x="91.5" y="-134" font-family="Arial" font-size="10.00"> v</text>
</g>
<!-- Node3&#45;&gt;Node2 -->
<g id="edge3" class="edge"><title>Node3&#45;&gt;Node2</title>
<path fill="none" stroke="#9a32cd" stroke-dasharray="5,2" d="M135.936,-35.6222C137.924,-40.3608 139.795,-45.535 141,-50.5 150.642,-90.2359 150.21,-102.662 141,-142.5 139.559,-148.734 137.059,-155.484 134.919,-160.675"/>
<polygon fill="#9a32cd" stroke="#9a32cd" points="138.964,-33.8276 131.616,-26.1946 132.6,-36.7437 138.964,-33.8276"/>
<text text-anchor="middle" x="164" y="-99" font-family="Arial" font-size="10.00"> edges</text>
</g>
<!-- Node3&#45;&gt;Node3 -->
<g id="edge4" class="edge"><title>Node3&#45;&gt;Node3</title>
<path fill="none" stroke="#9a32cd" stroke-dasharray="5,2" d="M168.722,-23.3654C173.154,-22.0353 176,-19.7468 176,-16.5 176,-11.1719 168.336,-8.42456 158.576,-8.25806"/>
<polygon fill="#9a32cd" stroke="#9a32cd" points="168.015,-19.9293 158.576,-24.7419 168.956,-26.8657 168.015,-19.9293"/>
<text text-anchor="middle" x="198" y="-25" font-family="Arial" font-size="10.00"> v1link</text>
<text text-anchor="middle" x="198" y="-14" font-family="Arial" font-size="10.00">v2link</text>
<text text-anchor="middle" x="198" y="-3" font-family="Arial" font-size="10.00">islandLink</text>
</g>
<!-- Node4&#45;&gt;Node3 -->
<g id="edge5" class="edge"><title>Node4&#45;&gt;Node3</title>
<path fill="none" stroke="#9a32cd" stroke-dasharray="5,2" d="M40.2824,-84.8026C50.5555,-74.5786 64.6159,-61.2017 78,-50.5 89.2146,-41.533 102.818,-32.5042 112.843,-26.1631"/>
<polygon fill="#9a32cd" stroke="#9a32cd" points="37.792,-82.3433 33.2387,-91.9099 42.764,-87.2708 37.792,-82.3433"/>
<text text-anchor="middle" x="95.5" y="-64.5" font-family="Arial" font-size="10.00"> backTri</text>
<text text-anchor="middle" x="95.5" y="-53.5" font-family="Arial" font-size="10.00">frontTri</text>
</g>
<!-- Node4&#45;&gt;Node4 -->
<g id="edge8" class="edge"><title>Node4&#45;&gt;Node4</title>
<path fill="none" stroke="#9a32cd" stroke-dasharray="5,2" d="M60.6457,-107.039C65.0834,-106.058 68,-104.211 68,-101.5 68,-97.0508 60.1457,-94.9305 50.604,-95.139"/>
<polygon fill="#9a32cd" stroke="#9a32cd" points="60.2852,-103.557 50.604,-107.861 60.8561,-110.534 60.2852,-103.557"/>
<text text-anchor="middle" x="79" y="-99" font-family="Arial" font-size="10.00"> next</text>
</g>
<!-- Node5 -->
<g id="node5" class="node"><title>Node5</title>
<g id="a_node5"><a xlink:href="classid_vec3.html" target="_top" xlink:title="idVec3">
<polygon fill="white" stroke="black" points="56.5,-319 56.5,-338 103.5,-338 103.5,-319 56.5,-319"/>
<text text-anchor="middle" x="80" y="-326" font-family="Arial" font-size="10.00">idVec3</text>
</a>
</g>
</g>
<!-- Node5&#45;&gt;Node2 -->
<g id="edge10" class="edge"><title>Node5&#45;&gt;Node2</title>
<path fill="none" stroke="#9a32cd" stroke-dasharray="5,2" d="M78.7669,-308.812C78.0795,-288.395 78.9167,-255.059 89,-228.5 96.3296,-209.194 112.127,-190.679 122.122,-180.232"/>
<polygon fill="#9a32cd" stroke="#9a32cd" points="75.2785,-309.133 79.2729,-318.946 82.2697,-308.784 75.2785,-309.133"/>
<text text-anchor="middle" x="95.5" y="-236" font-family="Arial" font-size="10.00"> pv</text>
</g>
<!-- Node5&#45;&gt;Node4 -->
<g id="edge6" class="edge"><title>Node5&#45;&gt;Node4</title>
<path fill="none" stroke="#9a32cd" stroke-dasharray="5,2" d="M75.5125,-309.142C64.2551,-263.089 35.1431,-143.995 27.091,-111.054"/>
<polygon fill="#9a32cd" stroke="#9a32cd" points="72.1366,-310.072 77.9111,-318.954 78.9364,-308.409 72.1366,-310.072"/>
<text text-anchor="middle" x="72" y="-202" font-family="Arial" font-size="10.00"> midpoint</text>
</g>
<!-- Node6 -->
<g id="node6" class="node"><title>Node6</title>
<g id="a_node6"><a xlink:href="classid_draw_vert.html" target="_top" xlink:title="idDrawVert">
<polygon fill="white" stroke="black" points="111,-229 111,-248 175,-248 175,-229 111,-229"/>
<text text-anchor="middle" x="143" y="-236" font-family="Arial" font-size="10.00">idDrawVert</text>
</a>
</g>
</g>
<!-- Node5&#45;&gt;Node6 -->
<g id="edge13" class="edge"><title>Node5&#45;&gt;Node6</title>
<path fill="none" stroke="#9a32cd" stroke-dasharray="5,2" d="M87.4771,-309.112C93.1383,-296.421 101.69,-279.549 112,-266.5 117.487,-259.556 124.931,-253.004 131.15,-248.094"/>
<polygon fill="#9a32cd" stroke="#9a32cd" points="84.1285,-308.042 83.4264,-318.614 90.5678,-310.788 84.1285,-308.042"/>
<text text-anchor="middle" x="131" y="-292" font-family="Arial" font-size="10.00"> xyz</text>
<text text-anchor="middle" x="131" y="-281" font-family="Arial" font-size="10.00">normal</text>
<text text-anchor="middle" x="131" y="-270" font-family="Arial" font-size="10.00">tangents</text>
</g>
<!-- Node6&#45;&gt;Node2 -->
<g id="edge11" class="edge"><title>Node6&#45;&gt;Node2</title>
<path fill="none" stroke="#9a32cd" stroke-dasharray="5,2" d="M139.623,-218.925C137.327,-206.298 134.393,-190.162 132.607,-180.341"/>
<polygon fill="#9a32cd" stroke="#9a32cd" points="136.199,-219.659 141.431,-228.872 143.086,-218.407 136.199,-219.659"/>
<text text-anchor="middle" x="142.5" y="-202" font-family="Arial" font-size="10.00"> v</text>
</g>
<!-- Node7 -->
<g id="node7" class="node"><title>Node7</title>
<g id="a_node7"><a xlink:href="classid_vec2.html" target="_top" xlink:title="idVec2">
<polygon fill="white" stroke="black" points="150.5,-319 150.5,-338 197.5,-338 197.5,-319 150.5,-319"/>
<text text-anchor="middle" x="174" y="-326" font-family="Arial" font-size="10.00">idVec2</text>
</a>
</g>
</g>
<!-- Node7&#45;&gt;Node6 -->
<g id="edge12" class="edge"><title>Node7&#45;&gt;Node6</title>
<path fill="none" stroke="#9a32cd" stroke-dasharray="5,2" d="M167.576,-309.266C160.999,-290.595 151.055,-262.367 146.073,-248.224"/>
<polygon fill="#9a32cd" stroke="#9a32cd" points="164.29,-310.472 170.914,-318.741 170.893,-308.146 164.29,-310.472"/>
<text text-anchor="middle" x="170" y="-281" font-family="Arial" font-size="10.00"> st</text>
</g>
</g>
</svg>
