<?xml version="1.0" encoding="UTF-8" standalone="no"?>
<!DOCTYPE svg PUBLIC "-//W3C//DTD SVG 1.1//EN"
 "http://www.w3.org/Graphics/SVG/1.1/DTD/svg11.dtd">
<!-- Generated by graphviz version 2.34.0 (20130907.0111)
 -->
<!-- Title: renderEntity_s Pages: 1 -->
<!--zoomable 420 -->
<svg id="main" version="1.1" xmlns="http://www.w3.org/2000/svg" xmlns:xlink="http://www.w3.org/1999/xlink" xml:space="preserve" onload="init(evt)">
<style type="text/css"><![CDATA[
.edge:hover path { stroke: red; }
.edge:hover polygon { stroke: red; fill: red; }
]]></style>
<script type="text/javascript"><![CDATA[
var edges = document.getElementsByTagName('g');
if (edges && edges.length) {
  for (var i=0;i<edges.length;i++) {
    if (edges[i].id.substr(0,4)=='edge') {
      edges[i].setAttribute('class','edge');
    }
  }
}
]]></script>
        <defs>
                <circle id="rim" cx="0" cy="0" r="7"/>
                <circle id="rim2" cx="0" cy="0" r="3.5"/>
                <g id="zoomPlus">
                        <use xlink:href="#rim" fill="#404040">
                                <set attributeName="fill" to="#808080" begin="zoomplus.mouseover" end="zoomplus.mouseout"/>
                        </use>
                        <path d="M-4,0h8M0,-4v8" fill="none" stroke="white" stroke-width="1.5" pointer-events="none"/>
                </g>
                <g id="zoomMin">
                        <use xlink:href="#rim" fill="#404040">
                                <set attributeName="fill" to="#808080" begin="zoomminus.mouseover" end="zoomminus.mouseout"/>
                        </use>
                        <path d="M-4,0h8" fill="none" stroke="white" stroke-width="1.5" pointer-events="none"/>
                </g>
                <g id="dirArrow">
                        <path fill="none" stroke="white" stroke-width="1.5" d="M0,-3.0v7 M-2.5,-0.5L0,-3.0L2.5,-0.5"/>
                </g>
               <g id="resetDef">
                       <use xlink:href="#rim2" fill="#404040">
                               <set attributeName="fill" to="#808080" begin="reset.mouseover" end="reset.mouseout"/>
                       </use>
               </g>
        </defs>

<script type="text/javascript">
var viewWidth = 664;
var viewHeight = 420;
var sectionId = 'dynsection-0';
</script>
<script xlink:href="svgpan.js"/>
<svg id="graph" class="graph">
<g id="viewport">
<title>renderEntity_s</title>
<polygon fill="white" stroke="white" points="-4,4 -4,-416 660,-416 660,4 -4,4"/>
<!-- Node1 -->
<g id="node1" class="node"><title>Node1</title>
<polygon fill="#bfbfbf" stroke="black" points="576,-178.5 576,-197.5 656,-197.5 656,-178.5 576,-178.5"/>
<text text-anchor="middle" x="616" y="-185.5" font-family="Arial" font-size="10.00">renderEntity_s</text>
</g>
<!-- Node1&#45;&gt;Node1 -->
<g id="edge15" class="edge"><title>Node1&#45;&gt;Node1</title>
<path fill="none" stroke="#9a32cd" stroke-dasharray="5,2" d="M597.482,-207.4C598.719,-212.315 604.892,-216 616,-216 633.773,-216 638.911,-206.565 631.413,-197.757"/>
<polygon fill="#9a32cd" stroke="#9a32cd" points="600.854,-208.349 600.587,-197.757 594.191,-206.203 600.854,-208.349"/>
<text text-anchor="middle" x="616" y="-219" font-family="Arial" font-size="10.00"> callback</text>
</g>
<!-- Node2 -->
<g id="node2" class="node"><title>Node2</title>
<g id="a_node2"><a xlink:href="classid_mat3.html" target="_top" xlink:title="idMat3">
<polygon fill="white" stroke="black" points="217,-177.5 217,-196.5 263,-196.5 263,-177.5 217,-177.5"/>
<text text-anchor="middle" x="240" y="-184.5" font-family="Arial" font-size="10.00">idMat3</text>
</a>
</g>
</g>
<!-- Node2&#45;&gt;Node1 -->
<g id="edge1" class="edge"><title>Node2&#45;&gt;Node1</title>
<path fill="none" stroke="#9a32cd" stroke-dasharray="5,2" d="M273.432,-184.431C299.504,-182.5 337.081,-180.02 370,-179 442.749,-176.746 527.624,-181.519 575.967,-184.937"/>
<polygon fill="#9a32cd" stroke="#9a32cd" points="273.061,-180.949 263.353,-185.192 273.588,-187.929 273.061,-180.949"/>
<text text-anchor="middle" x="412" y="-182" font-family="Arial" font-size="10.00"> axis</text>
</g>
<!-- Node7 -->
<g id="node7" class="node"><title>Node7</title>
<g id="a_node7"><a xlink:href="structrender_view__s.html" target="_top" xlink:title="renderView_s">
<polygon fill="white" stroke="black" points="374.5,-199.5 374.5,-218.5 449.5,-218.5 449.5,-199.5 374.5,-199.5"/>
<text text-anchor="middle" x="412" y="-206.5" font-family="Arial" font-size="10.00">renderView_s</text>
</a>
</g>
</g>
<!-- Node2&#45;&gt;Node7 -->
<g id="edge7" class="edge"><title>Node2&#45;&gt;Node7</title>
<path fill="none" stroke="#9a32cd" stroke-dasharray="5,2" d="M273.201,-191.167C302.059,-194.902 344.36,-200.376 374.472,-204.273"/>
<polygon fill="#9a32cd" stroke="#9a32cd" points="273.591,-187.689 263.225,-189.876 272.693,-194.631 273.591,-187.689"/>
<text text-anchor="middle" x="320" y="-204" font-family="Arial" font-size="10.00"> viewaxis</text>
</g>
<!-- Node3 -->
<g id="node3" class="node"><title>Node3</title>
<g id="a_node3"><a xlink:href="classid_decl_skin.html" target="_top" xlink:title="idDeclSkin">
<polygon fill="white" stroke="black" points="288.5,-377.5 288.5,-396.5 351.5,-396.5 351.5,-377.5 288.5,-377.5"/>
<text text-anchor="middle" x="320" y="-384.5" font-family="Arial" font-size="10.00">idDeclSkin</text>
</a>
</g>
</g>
<!-- Node3&#45;&gt;Node1 -->
<g id="edge2" class="edge"><title>Node3&#45;&gt;Node1</title>
<path fill="none" stroke="#9a32cd" stroke-dasharray="5,2" d="M361.929,-395.654C413.525,-404.042 502.204,-409.743 558,-365 611.645,-321.981 615.481,-228.016 615.256,-197.663"/>
<polygon fill="#9a32cd" stroke="#9a32cd" points="362.267,-392.161 351.816,-393.898 361.069,-399.058 362.267,-392.161"/>
<text text-anchor="middle" x="412" y="-404" font-family="Arial" font-size="10.00"> customSkin</text>
</g>
<!-- Node4 -->
<g id="node4" class="node"><title>Node4</title>
<g id="a_node4"><a xlink:href="classid_decl.html" target="_top" xlink:title="idDecl">
<polygon fill="white" stroke="black" points="128,-326.5 128,-345.5 172,-345.5 172,-326.5 128,-326.5"/>
<text text-anchor="middle" x="150" y="-333.5" font-family="Arial" font-size="10.00">idDecl</text>
</a>
</g>
</g>
<!-- Node4&#45;&gt;Node3 -->
<g id="edge3" class="edge"><title>Node4&#45;&gt;Node3</title>
<path fill="none" stroke="midnightblue" d="M181.896,-345.379C212.155,-354.565 257.997,-368.481 288.217,-377.655"/>
<polygon fill="midnightblue" stroke="midnightblue" points="182.863,-342.015 172.277,-342.459 180.829,-348.713 182.863,-342.015"/>
</g>
<!-- Node9 -->
<g id="node9" class="node"><title>Node9</title>
<g id="a_node9"><a xlink:href="classid_material.html" target="_top" xlink:title="idMaterial">
<polygon fill="white" stroke="black" points="210.5,-253.5 210.5,-272.5 269.5,-272.5 269.5,-253.5 210.5,-253.5"/>
<text text-anchor="middle" x="240" y="-260.5" font-family="Arial" font-size="10.00">idMaterial</text>
</a>
</g>
</g>
<!-- Node4&#45;&gt;Node9 -->
<g id="edge10" class="edge"><title>Node4&#45;&gt;Node9</title>
<path fill="none" stroke="midnightblue" d="M170.393,-319.912C187.876,-305.41 212.998,-284.57 227.493,-272.546"/>
<polygon fill="midnightblue" stroke="midnightblue" points="167.966,-317.378 162.504,-326.457 172.436,-322.766 167.966,-317.378"/>
</g>
<!-- Node5 -->
<g id="node5" class="node"><title>Node5</title>
<g id="a_node5"><a xlink:href="classid_decl_base.html" target="_top" xlink:title="idDeclBase">
<polygon fill="white" stroke="black" points="0,-326.5 0,-345.5 66,-345.5 66,-326.5 0,-326.5"/>
<text text-anchor="middle" x="33" y="-333.5" font-family="Arial" font-size="10.00">idDeclBase</text>
</a>
</g>
</g>
<!-- Node5&#45;&gt;Node4 -->
<g id="edge4" class="edge"><title>Node5&#45;&gt;Node4</title>
<path fill="none" stroke="#9a32cd" stroke-dasharray="5,2" d="M76.0643,-336C93.5984,-336 113.201,-336 127.664,-336"/>
<polygon fill="#9a32cd" stroke="#9a32cd" points="76.0339,-332.5 66.0339,-336 76.0339,-339.5 76.0339,-332.5"/>
<text text-anchor="middle" x="97" y="-339" font-family="Arial" font-size="10.00"> base</text>
</g>
<!-- Node6 -->
<g id="node6" class="node"><title>Node6</title>
<g id="a_node6"><a xlink:href="classid_joint_mat.html" target="_top" xlink:title="idJointMat">
<polygon fill="white" stroke="black" points="381.5,-295.5 381.5,-314.5 442.5,-314.5 442.5,-295.5 381.5,-295.5"/>
<text text-anchor="middle" x="412" y="-302.5" font-family="Arial" font-size="10.00">idJointMat</text>
</a>
</g>
</g>
<!-- Node6&#45;&gt;Node1 -->
<g id="edge5" class="edge"><title>Node6&#45;&gt;Node1</title>
<path fill="none" stroke="#9a32cd" stroke-dasharray="5,2" d="M452.718,-302.656C483.726,-299.151 526.66,-290.463 558,-269 584.956,-250.54 603.297,-214.863 610.963,-197.694"/>
<polygon fill="#9a32cd" stroke="#9a32cd" points="452.297,-299.18 442.694,-303.657 452.992,-306.146 452.297,-299.18"/>
<text text-anchor="middle" x="515" y="-302" font-family="Arial" font-size="10.00"> joints</text>
</g>
<!-- Node7&#45;&gt;Node1 -->
<g id="edge6" class="edge"><title>Node7&#45;&gt;Node1</title>
<path fill="none" stroke="#9a32cd" stroke-dasharray="5,2" d="M459.623,-204.153C494.864,-200.489 542.69,-195.517 575.935,-192.061"/>
<polygon fill="#9a32cd" stroke="#9a32cd" points="459.165,-200.682 449.581,-205.197 459.889,-207.644 459.165,-200.682"/>
<text text-anchor="middle" x="515" y="-205" font-family="Arial" font-size="10.00"> remoteRenderView</text>
</g>
<!-- Node8 -->
<g id="node8" class="node"><title>Node8</title>
<g id="a_node8"><a xlink:href="classid_vec3.html" target="_top" xlink:title="idVec3">
<polygon fill="white" stroke="black" points="216.5,-303.5 216.5,-322.5 263.5,-322.5 263.5,-303.5 216.5,-303.5"/>
<text text-anchor="middle" x="240" y="-310.5" font-family="Arial" font-size="10.00">idVec3</text>
</a>
</g>
</g>
<!-- Node8&#45;&gt;Node1 -->
<g id="edge14" class="edge"><title>Node8&#45;&gt;Node1</title>
<path fill="none" stroke="#9a32cd" stroke-dasharray="5,2" d="M273.217,-324.306C334.962,-343.766 471.5,-375.872 558,-314 598.032,-285.366 610.502,-221.793 613.881,-197.6"/>
<polygon fill="#9a32cd" stroke="#9a32cd" points="274.214,-320.95 263.622,-321.192 272.053,-327.608 274.214,-320.95"/>
<text text-anchor="middle" x="412" y="-353" font-family="Arial" font-size="10.00"> origin</text>
</g>
<!-- Node8&#45;&gt;Node7 -->
<g id="edge8" class="edge"><title>Node8&#45;&gt;Node7</title>
<path fill="none" stroke="#9a32cd" stroke-dasharray="5,2" d="M273.011,-299.29C296.188,-288.537 327.599,-272.204 352,-253 361.398,-245.604 360.73,-240.555 370,-233 376.649,-227.581 384.663,-222.604 391.834,-218.604"/>
<polygon fill="#9a32cd" stroke="#9a32cd" points="271.287,-296.229 263.627,-303.549 274.18,-302.603 271.287,-296.229"/>
<text text-anchor="middle" x="320" y="-294" font-family="Arial" font-size="10.00"> vieworg</text>
</g>
<!-- Node9&#45;&gt;Node1 -->
<g id="edge16" class="edge"><title>Node9&#45;&gt;Node1</title>
<path fill="none" stroke="#9a32cd" stroke-dasharray="5,2" d="M279.993,-261.542C340.766,-258.344 461.15,-248.277 558,-217 572.792,-212.223 588.452,-203.998 599.607,-197.524"/>
<polygon fill="#9a32cd" stroke="#9a32cd" points="279.525,-258.061 269.709,-262.047 279.869,-265.052 279.525,-258.061"/>
<text text-anchor="middle" x="412" y="-268" font-family="Arial" font-size="10.00"> customShader</text>
<text text-anchor="middle" x="412" y="-257" font-family="Arial" font-size="10.00">referenceShader</text>
</g>
<!-- Node9&#45;&gt;Node7 -->
<g id="edge9" class="edge"><title>Node9&#45;&gt;Node7</title>
<path fill="none" stroke="#9a32cd" stroke-dasharray="5,2" d="M265.658,-248.356C272.704,-244.596 280.508,-240.822 288,-238 316.231,-227.367 349.62,-219.79 374.481,-215.054"/>
<polygon fill="#9a32cd" stroke="#9a32cd" points="263.658,-245.463 256.62,-253.382 267.06,-251.581 263.658,-245.463"/>
<text text-anchor="middle" x="320" y="-241" font-family="Arial" font-size="10.00"> globalMaterial</text>
</g>
<!-- Node10 -->
<g id="node10" class="node"><title>Node10</title>
<g id="a_node10"><a xlink:href="classid_sound_emitter.html" target="_top" xlink:title="idSoundEmitter">
<polygon fill="white" stroke="black" points="370.5,-114.5 370.5,-133.5 453.5,-133.5 453.5,-114.5 370.5,-114.5"/>
<text text-anchor="middle" x="412" y="-121.5" font-family="Arial" font-size="10.00">idSoundEmitter</text>
</a>
</g>
</g>
<!-- Node10&#45;&gt;Node1 -->
<g id="edge11" class="edge"><title>Node10&#45;&gt;Node1</title>
<path fill="none" stroke="#9a32cd" stroke-dasharray="5,2" d="M463.695,-125.157C492.314,-127.309 528.204,-132.576 558,-145 576.763,-152.824 594.879,-168.271 605.476,-178.363"/>
<polygon fill="#9a32cd" stroke="#9a32cd" points="463.71,-121.65 453.505,-124.497 463.258,-128.636 463.71,-121.65"/>
<text text-anchor="middle" x="515" y="-148" font-family="Arial" font-size="10.00"> referenceSound</text>
</g>
<!-- Node11 -->
<g id="node11" class="node"><title>Node11</title>
<g id="a_node11"><a xlink:href="classid_render_model.html" target="_top" xlink:title="idRenderModel">
<polygon fill="white" stroke="black" points="371.5,-76.5 371.5,-95.5 452.5,-95.5 452.5,-76.5 371.5,-76.5"/>
<text text-anchor="middle" x="412" y="-83.5" font-family="Arial" font-size="10.00">idRenderModel</text>
</a>
</g>
</g>
<!-- Node11&#45;&gt;Node1 -->
<g id="edge12" class="edge"><title>Node11&#45;&gt;Node1</title>
<path fill="none" stroke="#9a32cd" stroke-dasharray="5,2" d="M462.844,-85.5228C492.434,-87.35 529.595,-93.501 558,-111 584.764,-127.488 603.078,-161.6 610.83,-178.326"/>
<polygon fill="#9a32cd" stroke="#9a32cd" points="462.874,-82.0204 452.72,-85.0453 462.544,-89.0126 462.874,-82.0204"/>
<text text-anchor="middle" x="515" y="-114" font-family="Arial" font-size="10.00"> hModel</text>
</g>
<!-- Node12 -->
<g id="node12" class="node"><title>Node12</title>
<g id="a_node12"><a xlink:href="classid_bounds.html" target="_top" xlink:title="idBounds">
<polygon fill="white" stroke="black" points="383.5,-38.5 383.5,-57.5 440.5,-57.5 440.5,-38.5 383.5,-38.5"/>
<text text-anchor="middle" x="412" y="-45.5" font-family="Arial" font-size="10.00">idBounds</text>
</a>
</g>
</g>
<!-- Node12&#45;&gt;Node1 -->
<g id="edge13" class="edge"><title>Node12&#45;&gt;Node1</title>
<path fill="none" stroke="#9a32cd" stroke-dasharray="5,2" d="M450.883,-45.1988C482.487,-44.8279 527.179,-49.0977 558,-72 594.382,-99.0342 608.838,-155.629 613.318,-178.302"/>
<polygon fill="#9a32cd" stroke="#9a32cd" points="450.605,-41.7051 440.706,-45.4822 450.8,-48.7024 450.605,-41.7051"/>
<text text-anchor="middle" x="515" y="-75" font-family="Arial" font-size="10.00"> bounds</text>
</g>
<!-- Node13 -->
<g id="node13" class="node"><title>Node13</title>
<g id="a_node13"><a xlink:href="classid_user_interface.html" target="_top" xlink:title="idUserInterface">
<polygon fill="white" stroke="black" points="371.5,-0.5 371.5,-19.5 452.5,-19.5 452.5,-0.5 371.5,-0.5"/>
<text text-anchor="middle" x="412" y="-7.5" font-family="Arial" font-size="10.00">idUserInterface</text>
</a>
</g>
</g>
<!-- Node13&#45;&gt;Node1 -->
<g id="edge17" class="edge"><title>Node13&#45;&gt;Node1</title>
<path fill="none" stroke="#9a32cd" stroke-dasharray="5,2" d="M462.795,-5.09794C493.41,-4.78002 531.68,-9.57708 558,-31 605.228,-69.441 613.329,-150.462 614.715,-178.338"/>
<polygon fill="#9a32cd" stroke="#9a32cd" points="462.631,-1.60112 452.735,-5.38522 462.83,-8.59827 462.631,-1.60112"/>
<text text-anchor="middle" x="515" y="-34" font-family="Arial" font-size="10.00"> gui</text>
</g>
</g>
</svg>
        <g id="navigator" transform="translate(0 0)" fill="#404254">
                <rect fill="#f2f5e9" fill-opacity="0.5" stroke="#606060" stroke-width=".5" x="0" y="0" width="60" height="60"/>
                <use id="zoomplus" xlink:href="#zoomPlus" x="17" y="9" onmousedown="handleZoom(evt,'in')"/>
                <use id="zoomminus" xlink:href="#zoomMin" x="42" y="9" onmousedown="handleZoom(evt,'out')"/>
                <use id="reset" xlink:href="#resetDef" x="30" y="36" onmousedown="handleReset()"/>
                <g id="arrowUp" xlink:href="#dirArrow" transform="translate(30 24)" onmousedown="handlePan(0,-1)">
                  <use xlink:href="#rim" fill="#404040">
                        <set attributeName="fill" to="#808080" begin="arrowUp.mouseover" end="arrowUp.mouseout"/>
                  </use>
                  <path fill="none" stroke="white" stroke-width="1.5" d="M0,-3.0v7 M-2.5,-0.5L0,-3.0L2.5,-0.5"/>
                </g>
                <g id="arrowRight" xlink:href="#dirArrow" transform="rotate(90) translate(36 -43)" onmousedown="handlePan(1,0)">
                  <use xlink:href="#rim" fill="#404040">
                        <set attributeName="fill" to="#808080" begin="arrowRight.mouseover" end="arrowRight.mouseout"/>
                  </use>
                  <path fill="none" stroke="white" stroke-width="1.5" d="M0,-3.0v7 M-2.5,-0.5L0,-3.0L2.5,-0.5"/>
                </g>
                <g id="arrowDown" xlink:href="#dirArrow" transform="rotate(180) translate(-30 -48)" onmousedown="handlePan(0,1)">
                  <use xlink:href="#rim" fill="#404040">
                        <set attributeName="fill" to="#808080" begin="arrowDown.mouseover" end="arrowDown.mouseout"/>
                  </use>
                  <path fill="none" stroke="white" stroke-width="1.5" d="M0,-3.0v7 M-2.5,-0.5L0,-3.0L2.5,-0.5"/>
                </g>
                <g id="arrowLeft" xlink:href="#dirArrow" transform="rotate(270) translate(-36 17)" onmousedown="handlePan(-1,0)">
                  <use xlink:href="#rim" fill="#404040">
                        <set attributeName="fill" to="#808080" begin="arrowLeft.mouseover" end="arrowLeft.mouseout"/>
                  </use>
                  <path fill="none" stroke="white" stroke-width="1.5" d="M0,-3.0v7 M-2.5,-0.5L0,-3.0L2.5,-0.5"/>
                </g>
        </g>
        <svg viewBox="0 0 15 15" width="100%" height="30px" preserveAspectRatio="xMaxYMin meet">
         <g id="arrow_out" transform="scale(0.3 0.3)">
          <a xlink:href="structrender_entity__s__coll__graph_org.svg" target="_base">
           <rect id="button" ry="5" rx="5" y="6" x="6" height="38" width="38"
                fill="#f2f5e9" fill-opacity="0.5" stroke="#606060" stroke-width="1.0"/>
           <path id="arrow"
             d="M 11.500037,31.436501 C 11.940474,20.09759 22.043105,11.32322 32.158766,21.979434 L 37.068811,17.246167 C 37.068811,17.246167 37.088388,32 37.088388,32 L 22.160133,31.978069 C 22.160133,31.978069 26.997745,27.140456 26.997745,27.140456 C 18.528582,18.264221 13.291696,25.230495 11.500037,31.436501 z"
             style="fill:#404040;"/>
          </a>
         </g>
        </svg>
</svg>
