<?xml version="1.0" encoding="UTF-8" standalone="no"?>
<!DOCTYPE svg PUBLIC "-//W3C//DTD SVG 1.1//EN"
 "http://www.w3.org/Graphics/SVG/1.1/DTD/svg11.dtd">
<!-- Generated by graphviz version 2.34.0 (20130907.0111)
 -->
<!-- Title: cm_node_s Pages: 1 -->
<svg width="319pt" height="360pt"
 viewBox="0.00 0.00 319.00 360.00" xmlns="http://www.w3.org/2000/svg" xmlns:xlink="http://www.w3.org/1999/xlink">
<g id="graph0" class="graph" transform="scale(1 1) rotate(0) translate(4 356)">
<title>cm_node_s</title>
<polygon fill="white" stroke="white" points="-4,4 -4,-356 315,-356 315,4 -4,4"/>
<!-- Node1 -->
<g id="node1" class="node"><title>Node1</title>
<polygon fill="#bfbfbf" stroke="black" points="92.5,-1.5 92.5,-20.5 159.5,-20.5 159.5,-1.5 92.5,-1.5"/>
<text text-anchor="middle" x="126" y="-8.5" font-family="Arial" font-size="10.00">cm_node_s</text>
</g>
<!-- Node1&#45;&gt;Node1 -->
<g id="edge9" class="edge"><title>Node1&#45;&gt;Node1</title>
<path fill="none" stroke="#9a32cd" stroke-dasharray="5,2" d="M169.866,-16.2033C174.226,-15.1624 177,-13.428 177,-11 177,-7.01563 169.529,-4.89893 159.841,-4.6499"/>
<polygon fill="#9a32cd" stroke="#9a32cd" points="169.378,-12.7362 159.841,-17.3501 170.174,-19.6909 169.378,-12.7362"/>
<text text-anchor="middle" x="194" y="-14" font-family="Arial" font-size="10.00"> parent</text>
<text text-anchor="middle" x="194" y="-3" font-family="Arial" font-size="10.00">children</text>
</g>
<!-- Node2 -->
<g id="node2" class="node"><title>Node2</title>
<g id="a_node2"><a xlink:href="structcm__polygon_ref__s.html" target="_top" xlink:title="cm_polygonRef_s">
<polygon fill="white" stroke="black" points="142,-70.5 142,-89.5 236,-89.5 236,-70.5 142,-70.5"/>
<text text-anchor="middle" x="189" y="-77.5" font-family="Arial" font-size="10.00">cm_polygonRef_s</text>
</a>
</g>
</g>
<!-- Node2&#45;&gt;Node1 -->
<g id="edge1" class="edge"><title>Node2&#45;&gt;Node1</title>
<path fill="none" stroke="#9a32cd" stroke-dasharray="5,2" d="M173.687,-62.7148C161.18,-49.4138 143.999,-31.1413 134.039,-20.5494"/>
<polygon fill="#9a32cd" stroke="#9a32cd" points="171.364,-65.3533 180.764,-70.2409 176.463,-60.5581 171.364,-65.3533"/>
<text text-anchor="middle" x="184.5" y="-43.5" font-family="Arial" font-size="10.00"> polygons</text>
</g>
<!-- Node2&#45;&gt;Node2 -->
<g id="edge8" class="edge"><title>Node2&#45;&gt;Node2</title>
<path fill="none" stroke="#9a32cd" stroke-dasharray="5,2" d="M246.287,-84.9212C251.043,-83.8609 254,-82.2205 254,-80 254,-76.4473 246.43,-74.3795 236.035,-73.7966"/>
<polygon fill="#9a32cd" stroke="#9a32cd" points="245.524,-81.4894 236.035,-86.2034 246.393,-88.4353 245.524,-81.4894"/>
<text text-anchor="middle" x="265" y="-77.5" font-family="Arial" font-size="10.00"> next</text>
</g>
<!-- Node3 -->
<g id="node3" class="node"><title>Node3</title>
<g id="a_node3"><a xlink:href="structcm__polygon__s.html" target="_top" xlink:title="cm_polygon_s">
<polygon fill="white" stroke="black" points="145,-138.5 145,-157.5 225,-157.5 225,-138.5 145,-138.5"/>
<text text-anchor="middle" x="185" y="-145.5" font-family="Arial" font-size="10.00">cm_polygon_s</text>
</a>
</g>
</g>
<!-- Node3&#45;&gt;Node2 -->
<g id="edge2" class="edge"><title>Node3&#45;&gt;Node2</title>
<path fill="none" stroke="#9a32cd" stroke-dasharray="5,2" d="M186.149,-128.041C186.911,-115.472 187.875,-99.5631 188.464,-89.8411"/>
<polygon fill="#9a32cd" stroke="#9a32cd" points="182.634,-128.178 185.523,-138.372 189.622,-128.602 182.634,-128.178"/>
<text text-anchor="middle" x="191.5" y="-111.5" font-family="Arial" font-size="10.00"> p</text>
</g>
<!-- Node4 -->
<g id="node4" class="node"><title>Node4</title>
<g id="a_node4"><a xlink:href="classid_plane.html" target="_top" xlink:title="idPlane">
<polygon fill="white" stroke="black" points="8.5,-206.5 8.5,-225.5 57.5,-225.5 57.5,-206.5 8.5,-206.5"/>
<text text-anchor="middle" x="33" y="-213.5" font-family="Arial" font-size="10.00">idPlane</text>
</a>
</g>
</g>
<!-- Node4&#45;&gt;Node3 -->
<g id="edge3" class="edge"><title>Node4&#45;&gt;Node3</title>
<path fill="none" stroke="#9a32cd" stroke-dasharray="5,2" d="M66.7461,-202.839C78.6114,-198.386 91.9794,-193.168 104,-188 126.511,-178.321 151.876,-165.846 168.128,-157.644"/>
<polygon fill="#9a32cd" stroke="#9a32cd" points="65.354,-199.622 57.1952,-206.381 67.7883,-206.185 65.354,-199.622"/>
<text text-anchor="middle" x="141.5" y="-179.5" font-family="Arial" font-size="10.00"> plane</text>
</g>
<!-- Node10 -->
<g id="node10" class="node"><title>Node10</title>
<g id="a_node10"><a xlink:href="structcm__brush__s.html" target="_top" xlink:title="cm_brush_s">
<polygon fill="white" stroke="black" points="12,-138.5 12,-157.5 82,-157.5 82,-138.5 12,-138.5"/>
<text text-anchor="middle" x="47" y="-145.5" font-family="Arial" font-size="10.00">cm_brush_s</text>
</a>
</g>
</g>
<!-- Node4&#45;&gt;Node10 -->
<g id="edge12" class="edge"><title>Node4&#45;&gt;Node10</title>
<path fill="none" stroke="#9a32cd" stroke-dasharray="5,2" d="M16.0623,-199.007C10.7442,-192.028 7.15188,-183.696 11,-176 14.9131,-168.174 22.2929,-162.028 29.357,-157.589"/>
<polygon fill="#9a32cd" stroke="#9a32cd" points="13.4696,-201.358 22.7556,-206.459 18.6774,-196.681 13.4696,-201.358"/>
<text text-anchor="middle" x="27" y="-179.5" font-family="Arial" font-size="10.00"> planes</text>
</g>
<!-- Node5 -->
<g id="node5" class="node"><title>Node5</title>
<g id="a_node5"><a xlink:href="classid_bounds.html" target="_top" xlink:title="idBounds">
<polygon fill="white" stroke="black" points="237.5,-206.5 237.5,-225.5 294.5,-225.5 294.5,-206.5 237.5,-206.5"/>
<text text-anchor="middle" x="266" y="-213.5" font-family="Arial" font-size="10.00">idBounds</text>
</a>
</g>
</g>
<!-- Node5&#45;&gt;Node3 -->
<g id="edge4" class="edge"><title>Node5&#45;&gt;Node3</title>
<path fill="none" stroke="#9a32cd" stroke-dasharray="5,2" d="M274.771,-196.858C276.865,-189.776 277.396,-181.947 273,-176 261.981,-161.093 242.879,-154.152 225.283,-151.018"/>
<polygon fill="#9a32cd" stroke="#9a32cd" points="271.422,-195.809 270.975,-206.394 277.925,-198.398 271.422,-195.809"/>
<text text-anchor="middle" x="293.5" y="-179.5" font-family="Arial" font-size="10.00"> bounds</text>
</g>
<!-- Node5&#45;&gt;Node10 -->
<g id="edge13" class="edge"><title>Node5&#45;&gt;Node10</title>
<path fill="none" stroke="#9a32cd" stroke-dasharray="5,2" d="M247.691,-200.091C235.478,-190.431 220.359,-179.092 213,-176 189.985,-166.329 123.65,-157.531 82.1373,-152.755"/>
<polygon fill="#9a32cd" stroke="#9a32cd" points="245.559,-202.867 255.551,-206.388 249.936,-197.404 245.559,-202.867"/>
<text text-anchor="middle" x="248.5" y="-179.5" font-family="Arial" font-size="10.00"> bounds</text>
</g>
<!-- Node6 -->
<g id="node6" class="node"><title>Node6</title>
<g id="a_node6"><a xlink:href="classid_material.html" target="_top" xlink:title="idMaterial">
<polygon fill="white" stroke="black" points="122.5,-206.5 122.5,-225.5 181.5,-225.5 181.5,-206.5 122.5,-206.5"/>
<text text-anchor="middle" x="152" y="-213.5" font-family="Arial" font-size="10.00">idMaterial</text>
</a>
</g>
</g>
<!-- Node6&#45;&gt;Node3 -->
<g id="edge5" class="edge"><title>Node6&#45;&gt;Node3</title>
<path fill="none" stroke="#9a32cd" stroke-dasharray="5,2" d="M160.907,-197.186C167.274,-184.452 175.57,-167.861 180.579,-157.841"/>
<polygon fill="#9a32cd" stroke="#9a32cd" points="157.656,-195.862 156.314,-206.372 163.917,-198.993 157.656,-195.862"/>
<text text-anchor="middle" x="190" y="-179.5" font-family="Arial" font-size="10.00"> material</text>
</g>
<!-- Node6&#45;&gt;Node10 -->
<g id="edge14" class="edge"><title>Node6&#45;&gt;Node10</title>
<path fill="none" stroke="#9a32cd" stroke-dasharray="5,2" d="M112.327,-209.536C96.4688,-205.688 78.9385,-199.14 66,-188 56.7537,-180.039 51.6012,-166.536 49.0639,-157.693"/>
<polygon fill="#9a32cd" stroke="#9a32cd" points="111.931,-213.03 122.442,-211.695 113.393,-206.185 111.931,-213.03"/>
<text text-anchor="middle" x="85" y="-179.5" font-family="Arial" font-size="10.00"> material</text>
</g>
<!-- Node7 -->
<g id="node7" class="node"><title>Node7</title>
<g id="a_node7"><a xlink:href="classid_decl.html" target="_top" xlink:title="idDecl">
<polygon fill="white" stroke="black" points="130,-264.5 130,-283.5 174,-283.5 174,-264.5 130,-264.5"/>
<text text-anchor="middle" x="152" y="-271.5" font-family="Arial" font-size="10.00">idDecl</text>
</a>
</g>
</g>
<!-- Node7&#45;&gt;Node6 -->
<g id="edge6" class="edge"><title>Node7&#45;&gt;Node6</title>
<path fill="none" stroke="midnightblue" d="M152,-253.953C152,-244.287 152,-233.031 152,-225.505"/>
<polygon fill="midnightblue" stroke="midnightblue" points="148.5,-254.25 152,-264.25 155.5,-254.25 148.5,-254.25"/>
</g>
<!-- Node8 -->
<g id="node8" class="node"><title>Node8</title>
<g id="a_node8"><a xlink:href="classid_decl_base.html" target="_top" xlink:title="idDeclBase">
<polygon fill="white" stroke="black" points="119,-332.5 119,-351.5 185,-351.5 185,-332.5 119,-332.5"/>
<text text-anchor="middle" x="152" y="-339.5" font-family="Arial" font-size="10.00">idDeclBase</text>
</a>
</g>
</g>
<!-- Node8&#45;&gt;Node7 -->
<g id="edge7" class="edge"><title>Node8&#45;&gt;Node7</title>
<path fill="none" stroke="#9a32cd" stroke-dasharray="5,2" d="M152,-322.041C152,-309.472 152,-293.563 152,-283.841"/>
<polygon fill="#9a32cd" stroke="#9a32cd" points="148.5,-322.372 152,-332.372 155.5,-322.372 148.5,-322.372"/>
<text text-anchor="middle" x="164.5" y="-305.5" font-family="Arial" font-size="10.00"> base</text>
</g>
<!-- Node9 -->
<g id="node9" class="node"><title>Node9</title>
<g id="a_node9"><a xlink:href="structcm__brush_ref__s.html" target="_top" xlink:title="cm_brushRef_s">
<polygon fill="white" stroke="black" points="0,-70.5 0,-89.5 84,-89.5 84,-70.5 0,-70.5"/>
<text text-anchor="middle" x="42" y="-77.5" font-family="Arial" font-size="10.00">cm_brushRef_s</text>
</a>
</g>
</g>
<!-- Node9&#45;&gt;Node1 -->
<g id="edge10" class="edge"><title>Node9&#45;&gt;Node1</title>
<path fill="none" stroke="#9a32cd" stroke-dasharray="5,2" d="M61.0168,-63.8319C77.7887,-50.4543 101.626,-31.4411 115.281,-20.5494"/>
<polygon fill="#9a32cd" stroke="#9a32cd" points="58.6168,-61.2691 52.9815,-70.2409 62.9818,-66.7415 58.6168,-61.2691"/>
<text text-anchor="middle" x="108" y="-43.5" font-family="Arial" font-size="10.00"> brushes</text>
</g>
<!-- Node9&#45;&gt;Node9 -->
<g id="edge15" class="edge"><title>Node9&#45;&gt;Node9</title>
<path fill="none" stroke="#9a32cd" stroke-dasharray="5,2" d="M94.2545,-85.0661C99.0093,-84.0129 102,-82.3242 102,-80 102,-76.2813 94.3438,-74.1895 84.0557,-73.7246"/>
<polygon fill="#9a32cd" stroke="#9a32cd" points="93.5739,-81.6222 84.0557,-86.2754 94.3983,-88.5735 93.5739,-81.6222"/>
<text text-anchor="middle" x="113" y="-77.5" font-family="Arial" font-size="10.00"> next</text>
</g>
<!-- Node10&#45;&gt;Node9 -->
<g id="edge11" class="edge"><title>Node10&#45;&gt;Node9</title>
<path fill="none" stroke="#9a32cd" stroke-dasharray="5,2" d="M45.5637,-128.041C44.6115,-115.472 43.4063,-99.5631 42.6698,-89.8411"/>
<polygon fill="#9a32cd" stroke="#9a32cd" points="42.1008,-128.665 46.3463,-138.372 49.0808,-128.136 42.1008,-128.665"/>
<text text-anchor="middle" x="49.5" y="-111.5" font-family="Arial" font-size="10.00"> b</text>
</g>
</g>
</svg>
