<?xml version="1.0" encoding="UTF-8" standalone="no"?>
<!DOCTYPE svg PUBLIC "-//W3C//DTD SVG 1.1//EN"
 "http://www.w3.org/Graphics/SVG/1.1/DTD/svg11.dtd">
<!-- Generated by graphviz version 2.34.0 (20130907.0111)
 -->
<!-- Title: st_lwGradient Pages: 1 -->
<svg width="123pt" height="98pt"
 viewBox="0.00 0.00 123.00 98.00" xmlns="http://www.w3.org/2000/svg" xmlns:xlink="http://www.w3.org/1999/xlink">
<g id="graph0" class="graph" transform="scale(1 1) rotate(0) translate(4 94)">
<title>st_lwGradient</title>
<polygon fill="white" stroke="white" points="-4,4 -4,-94 119,-94 119,4 -4,4"/>
<!-- Node1 -->
<g id="node1" class="node"><title>Node1</title>
<polygon fill="#bfbfbf" stroke="black" points="0,-0.5 0,-19.5 76,-19.5 76,-0.5 0,-0.5"/>
<text text-anchor="middle" x="38" y="-7.5" font-family="Arial" font-size="10.00">st_lwGradient</text>
</g>
<!-- Node2 -->
<g id="node2" class="node"><title>Node2</title>
<g id="a_node2"><a xlink:href="structst__lw_grad_key.html" target="_top" xlink:title="st_lwGradKey">
<polygon fill="white" stroke="black" points="-0.5,-69.5 -0.5,-88.5 76.5,-88.5 76.5,-69.5 -0.5,-69.5"/>
<text text-anchor="middle" x="38" y="-76.5" font-family="Arial" font-size="10.00">st_lwGradKey</text>
</a>
</g>
</g>
<!-- Node2&#45;&gt;Node1 -->
<g id="edge1" class="edge"><title>Node2&#45;&gt;Node1</title>
<path fill="none" stroke="#9a32cd" stroke-dasharray="5,2" d="M38,-59.0183C38,-46.034 38,-29.4419 38,-19.5494"/>
<polygon fill="#9a32cd" stroke="#9a32cd" points="34.5001,-59.2409 38,-69.2409 41.5001,-59.241 34.5001,-59.2409"/>
<text text-anchor="middle" x="47.5" y="-41.5" font-family="Arial" font-size="10.00"> key</text>
</g>
<!-- Node2&#45;&gt;Node2 -->
<g id="edge2" class="edge"><title>Node2&#45;&gt;Node2</title>
<path fill="none" stroke="#9a32cd" stroke-dasharray="5,2" d="M86.8716,-84.042C91.2509,-82.9872 94,-81.3066 94,-79 94,-75.2148 86.5967,-73.1153 76.7352,-72.7013"/>
<polygon fill="#9a32cd" stroke="#9a32cd" points="86.2286,-80.5948 76.7352,-85.2987 87.0899,-87.5416 86.2286,-80.5948"/>
<text text-anchor="middle" x="104.5" y="-82" font-family="Arial" font-size="10.00"> prev</text>
<text text-anchor="middle" x="104.5" y="-71" font-family="Arial" font-size="10.00">next</text>
</g>
</g>
</svg>
