<?xml version="1.0" encoding="UTF-8" standalone="no"?>
<!DOCTYPE svg PUBLIC "-//W3C//DTD SVG 1.1//EN"
 "http://www.w3.org/Graphics/SVG/1.1/DTD/svg11.dtd">
<!-- Generated by graphviz version 2.34.0 (20130907.0111)
 -->
<!-- Title: particleEmitter_s Pages: 1 -->
<svg width="287pt" height="232pt"
 viewBox="0.00 0.00 287.00 232.00" xmlns="http://www.w3.org/2000/svg" xmlns:xlink="http://www.w3.org/1999/xlink">
<g id="graph0" class="graph" transform="scale(1 1) rotate(0) translate(4 228)">
<title>particleEmitter_s</title>
<polygon fill="white" stroke="white" points="-4,4 -4,-228 283,-228 283,4 -4,4"/>
<!-- Node1 -->
<g id="node1" class="node"><title>Node1</title>
<polygon fill="#bfbfbf" stroke="black" points="57,-0.5 57,-19.5 147,-19.5 147,-0.5 57,-0.5"/>
<text text-anchor="middle" x="102" y="-7.5" font-family="Arial" font-size="10.00">particleEmitter_s</text>
</g>
<!-- Node2 -->
<g id="node2" class="node"><title>Node2</title>
<g id="a_node2"><a xlink:href="classid_decl_particle.html" target="_top" xlink:title="idDeclParticle">
<polygon fill="white" stroke="black" points="63.5,-68.5 63.5,-87.5 140.5,-87.5 140.5,-68.5 63.5,-68.5"/>
<text text-anchor="middle" x="102" y="-75.5" font-family="Arial" font-size="10.00">idDeclParticle</text>
</a>
</g>
</g>
<!-- Node2&#45;&gt;Node1 -->
<g id="edge1" class="edge"><title>Node2&#45;&gt;Node1</title>
<path fill="none" stroke="#9a32cd" stroke-dasharray="5,2" d="M102,-58.0413C102,-45.4724 102,-29.5631 102,-19.8411"/>
<polygon fill="#9a32cd" stroke="#9a32cd" points="98.5001,-58.3716 102,-68.3717 105.5,-58.3717 98.5001,-58.3716"/>
<text text-anchor="middle" x="119.5" y="-41.5" font-family="Arial" font-size="10.00"> particle</text>
</g>
<!-- Node3 -->
<g id="node3" class="node"><title>Node3</title>
<g id="a_node3"><a xlink:href="classid_decl.html" target="_top" xlink:title="idDecl">
<polygon fill="white" stroke="black" points="11,-136.5 11,-155.5 55,-155.5 55,-136.5 11,-136.5"/>
<text text-anchor="middle" x="33" y="-143.5" font-family="Arial" font-size="10.00">idDecl</text>
</a>
</g>
</g>
<!-- Node3&#45;&gt;Node2 -->
<g id="edge2" class="edge"><title>Node3&#45;&gt;Node2</title>
<path fill="none" stroke="midnightblue" d="M49.2963,-129.412C62.8511,-116.447 81.6597,-98.4559 92.757,-87.8411"/>
<polygon fill="midnightblue" stroke="midnightblue" points="46.8277,-126.93 42.0205,-136.372 51.6663,-131.989 46.8277,-126.93"/>
</g>
<!-- Node4 -->
<g id="node4" class="node"><title>Node4</title>
<g id="a_node4"><a xlink:href="classid_decl_base.html" target="_top" xlink:title="idDeclBase">
<polygon fill="white" stroke="black" points="0,-204.5 0,-223.5 66,-223.5 66,-204.5 0,-204.5"/>
<text text-anchor="middle" x="33" y="-211.5" font-family="Arial" font-size="10.00">idDeclBase</text>
</a>
</g>
</g>
<!-- Node4&#45;&gt;Node3 -->
<g id="edge3" class="edge"><title>Node4&#45;&gt;Node3</title>
<path fill="none" stroke="#9a32cd" stroke-dasharray="5,2" d="M33,-194.041C33,-181.472 33,-165.563 33,-155.841"/>
<polygon fill="#9a32cd" stroke="#9a32cd" points="29.5001,-194.372 33,-204.372 36.5001,-194.372 29.5001,-194.372"/>
<text text-anchor="middle" x="45.5" y="-177.5" font-family="Arial" font-size="10.00"> base</text>
</g>
<!-- Node5 -->
<g id="node5" class="node"><title>Node5</title>
<g id="a_node5"><a xlink:href="classid_bounds.html" target="_top" xlink:title="idBounds">
<polygon fill="white" stroke="black" points="73.5,-136.5 73.5,-155.5 130.5,-155.5 130.5,-136.5 73.5,-136.5"/>
<text text-anchor="middle" x="102" y="-143.5" font-family="Arial" font-size="10.00">idBounds</text>
</a>
</g>
</g>
<!-- Node5&#45;&gt;Node2 -->
<g id="edge4" class="edge"><title>Node5&#45;&gt;Node2</title>
<path fill="none" stroke="#9a32cd" stroke-dasharray="5,2" d="M102,-126.041C102,-113.472 102,-97.5631 102,-87.8411"/>
<polygon fill="#9a32cd" stroke="#9a32cd" points="98.5001,-126.372 102,-136.372 105.5,-126.372 98.5001,-126.372"/>
<text text-anchor="middle" x="119.5" y="-109.5" font-family="Arial" font-size="10.00"> bounds</text>
</g>
<!-- Node6 -->
<g id="node6" class="node"><title>Node6</title>
<g id="a_node6"><a xlink:href="classid_list.html" target="_top" xlink:title="idList\&lt; idParticleStage * \&gt;">
<polygon fill="white" stroke="black" points="148.5,-136.5 148.5,-155.5 279.5,-155.5 279.5,-136.5 148.5,-136.5"/>
<text text-anchor="middle" x="214" y="-143.5" font-family="Arial" font-size="10.00">idList&lt; idParticleStage * &gt;</text>
</a>
</g>
</g>
<!-- Node6&#45;&gt;Node2 -->
<g id="edge5" class="edge"><title>Node6&#45;&gt;Node2</title>
<path fill="none" stroke="#9a32cd" stroke-dasharray="5,2" d="M190.522,-131.165C168.234,-118.031 135.429,-98.6993 116.646,-87.6305"/>
<polygon fill="#9a32cd" stroke="#9a32cd" points="188.966,-134.31 199.358,-136.372 192.519,-128.279 188.966,-134.31"/>
<text text-anchor="middle" x="185.5" y="-109.5" font-family="Arial" font-size="10.00"> stages</text>
</g>
</g>
</svg>
