<?xml version="1.0" encoding="UTF-8" standalone="no"?>
<!DOCTYPE svg PUBLIC "-//W3C//DTD SVG 1.1//EN"
 "http://www.w3.org/Graphics/SVG/1.1/DTD/svg11.dtd">
<!-- Generated by graphviz version 2.34.0 (20130907.0111)
 -->
<!-- Title: nodetype Pages: 1 -->
<svg width="110pt" height="74pt"
 viewBox="0.00 0.00 110.00 74.00" xmlns="http://www.w3.org/2000/svg" xmlns:xlink="http://www.w3.org/1999/xlink">
<g id="graph0" class="graph" transform="scale(1 1) rotate(0) translate(4 70)">
<title>nodetype</title>
<polygon fill="white" stroke="white" points="-4,4 -4,-70 106,-70 106,4 -4,4"/>
<!-- Node1 -->
<g id="node1" class="node"><title>Node1</title>
<polygon fill="#bfbfbf" stroke="black" points="0,-23.5 0,-42.5 56,-42.5 56,-23.5 0,-23.5"/>
<text text-anchor="middle" x="28" y="-30.5" font-family="Arial" font-size="10.00">nodetype</text>
</g>
<!-- Node1&#45;&gt;Node1 -->
<g id="edge1" class="edge"><title>Node1&#45;&gt;Node1</title>
<path fill="none" stroke="#9a32cd" stroke-dasharray="5,2" d="M66.5533,-36.2054C71.0634,-35.6157 74,-34.5472 74,-33 74,-30.4609 66.0919,-29.2112 56.2994,-29.2509"/>
<polygon fill="#9a32cd" stroke="#9a32cd" points="66.1,-32.7244 56.2994,-36.7491 66.4707,-39.7146 66.1,-32.7244"/>
<text text-anchor="middle" x="88" y="-58" font-family="Arial" font-size="10.00"> head</text>
<text text-anchor="middle" x="88" y="-47" font-family="Arial" font-size="10.00">prev</text>
<text text-anchor="middle" x="88" y="-36" font-family="Arial" font-size="10.00">next</text>
<text text-anchor="middle" x="88" y="-25" font-family="Arial" font-size="10.00">right</text>
<text text-anchor="middle" x="88" y="-14" font-family="Arial" font-size="10.00">left</text>
<text text-anchor="middle" x="88" y="-3" font-family="Arial" font-size="10.00">parent</text>
</g>
</g>
</svg>
