<?xml version="1.0" encoding="UTF-8" standalone="no"?>
<!DOCTYPE svg PUBLIC "-//W3C//DTD SVG 1.1//EN"
 "http://www.w3.org/Graphics/SVG/1.1/DTD/svg11.dtd">
<!-- Generated by graphviz version 2.34.0 (20130907.0111)
 -->
<!-- Title: srfTriangles_s Pages: 1 -->
<!--zoomable 232 -->
<svg id="main" version="1.1" xmlns="http://www.w3.org/2000/svg" xmlns:xlink="http://www.w3.org/1999/xlink" xml:space="preserve" onload="init(evt)">
<style type="text/css"><![CDATA[
.edge:hover path { stroke: red; }
.edge:hover polygon { stroke: red; fill: red; }
]]></style>
<script type="text/javascript"><![CDATA[
var edges = document.getElementsByTagName('g');
if (edges && edges.length) {
  for (var i=0;i<edges.length;i++) {
    if (edges[i].id.substr(0,4)=='edge') {
      edges[i].setAttribute('class','edge');
    }
  }
}
]]></script>
        <defs>
                <circle id="rim" cx="0" cy="0" r="7"/>
                <circle id="rim2" cx="0" cy="0" r="3.5"/>
                <g id="zoomPlus">
                        <use xlink:href="#rim" fill="#404040">
                                <set attributeName="fill" to="#808080" begin="zoomplus.mouseover" end="zoomplus.mouseout"/>
                        </use>
                        <path d="M-4,0h8M0,-4v8" fill="none" stroke="white" stroke-width="1.5" pointer-events="none"/>
                </g>
                <g id="zoomMin">
                        <use xlink:href="#rim" fill="#404040">
                                <set attributeName="fill" to="#808080" begin="zoomminus.mouseover" end="zoomminus.mouseout"/>
                        </use>
                        <path d="M-4,0h8" fill="none" stroke="white" stroke-width="1.5" pointer-events="none"/>
                </g>
                <g id="dirArrow">
                        <path fill="none" stroke="white" stroke-width="1.5" d="M0,-3.0v7 M-2.5,-0.5L0,-3.0L2.5,-0.5"/>
                </g>
               <g id="resetDef">
                       <use xlink:href="#rim2" fill="#404040">
                               <set attributeName="fill" to="#808080" begin="reset.mouseover" end="reset.mouseout"/>
                       </use>
               </g>
        </defs>

<script type="text/javascript">
var viewWidth = 619;
var viewHeight = 232;
var sectionId = 'dynsection-0';
</script>
<script xlink:href="svgpan.js"/>
<svg id="graph" class="graph">
<g id="viewport">
<title>srfTriangles_s</title>
<polygon fill="white" stroke="white" points="-4,4 -4,-228 615,-228 615,4 -4,4"/>
<!-- Node1 -->
<g id="node1" class="node"><title>Node1</title>
<polygon fill="#bfbfbf" stroke="black" points="267.5,-1.5 267.5,-20.5 344.5,-20.5 344.5,-1.5 267.5,-1.5"/>
<text text-anchor="middle" x="306" y="-8.5" font-family="Arial" font-size="10.00">srfTriangles_s</text>
</g>
<!-- Node1&#45;&gt;Node1 -->
<g id="edge5" class="edge"><title>Node1&#45;&gt;Node1</title>
<path fill="none" stroke="#9a32cd" stroke-dasharray="5,2" d="M354.872,-18.4147C359.251,-16.8636 362,-14.392 362,-11 362,-5.43359 354.597,-2.34598 344.735,-1.73715"/>
<polygon fill="#9a32cd" stroke="#9a32cd" points="353.945,-15.0258 344.735,-20.2628 355.201,-21.9123 353.945,-15.0258"/>
<text text-anchor="middle" x="399.5" y="-14" font-family="Arial" font-size="10.00"> ambientSurface</text>
<text text-anchor="middle" x="399.5" y="-3" font-family="Arial" font-size="10.00">nextDeferredFree</text>
</g>
<!-- Node2 -->
<g id="node2" class="node"><title>Node2</title>
<g id="a_node2"><a xlink:href="structvert_cache__s.html" target="_top" xlink:title="vertCache_s">
<polygon fill="white" stroke="black" points="0,-108.5 0,-127.5 70,-127.5 70,-108.5 0,-108.5"/>
<text text-anchor="middle" x="35" y="-115.5" font-family="Arial" font-size="10.00">vertCache_s</text>
</a>
</g>
</g>
<!-- Node2&#45;&gt;Node1 -->
<g id="edge1" class="edge"><title>Node2&#45;&gt;Node1</title>
<path fill="none" stroke="#9a32cd" stroke-dasharray="5,2" d="M42.6868,-98.7586C51.3571,-80.6271 67.2754,-53.6134 90,-40 119.114,-22.5592 213.595,-15.8104 267.462,-13.3344"/>
<polygon fill="#9a32cd" stroke="#9a32cd" points="39.4363,-97.4528 38.5204,-108.008 45.8187,-100.328 39.4363,-97.4528"/>
<text text-anchor="middle" x="121.5" y="-76" font-family="Arial" font-size="10.00"> indexCache</text>
<text text-anchor="middle" x="121.5" y="-65" font-family="Arial" font-size="10.00">ambientCache</text>
<text text-anchor="middle" x="121.5" y="-54" font-family="Arial" font-size="10.00">shadowCache</text>
<text text-anchor="middle" x="121.5" y="-43" font-family="Arial" font-size="10.00">lightingCache</text>
</g>
<!-- Node2&#45;&gt;Node2 -->
<g id="edge2" class="edge"><title>Node2&#45;&gt;Node2</title>
<path fill="none" stroke="#9a32cd" stroke-dasharray="5,2" d="M80.2347,-125.768C84.9673,-124.251 88,-121.662 88,-118 88,-112.141 80.2363,-109.028 70.1678,-108.662"/>
<polygon fill="#9a32cd" stroke="#9a32cd" points="79.5087,-122.339 70.1678,-127.338 80.5879,-129.255 79.5087,-122.339"/>
<text text-anchor="middle" x="98.5" y="-126.5" font-family="Arial" font-size="10.00"> prev</text>
<text text-anchor="middle" x="98.5" y="-115.5" font-family="Arial" font-size="10.00">next</text>
<text text-anchor="middle" x="98.5" y="-104.5" font-family="Arial" font-size="10.00">user</text>
</g>
<!-- Node3 -->
<g id="node3" class="node"><title>Node3</title>
<g id="a_node3"><a xlink:href="classid_plane.html" target="_top" xlink:title="idPlane">
<polygon fill="white" stroke="black" points="127.5,-108.5 127.5,-127.5 176.5,-127.5 176.5,-108.5 127.5,-108.5"/>
<text text-anchor="middle" x="152" y="-115.5" font-family="Arial" font-size="10.00">idPlane</text>
</a>
</g>
</g>
<!-- Node3&#45;&gt;Node1 -->
<g id="edge3" class="edge"><title>Node3&#45;&gt;Node1</title>
<path fill="none" stroke="#9a32cd" stroke-dasharray="5,2" d="M153.466,-98.3982C155.871,-80.78 162.224,-54.8706 179,-40 191.967,-28.5052 235.045,-20.7283 267.461,-16.3435"/>
<polygon fill="#9a32cd" stroke="#9a32cd" points="149.985,-98.0364 152.402,-108.352 156.945,-98.78 149.985,-98.0364"/>
<text text-anchor="middle" x="205" y="-59.5" font-family="Arial" font-size="10.00"> facePlanes</text>
</g>
<!-- Node4 -->
<g id="node4" class="node"><title>Node4</title>
<g id="a_node4"><a xlink:href="structsil_edge__t.html" target="_top" xlink:title="silEdge_t">
<polygon fill="white" stroke="black" points="194.5,-108.5 194.5,-127.5 251.5,-127.5 251.5,-108.5 194.5,-108.5"/>
<text text-anchor="middle" x="223" y="-115.5" font-family="Arial" font-size="10.00">silEdge_t</text>
</a>
</g>
</g>
<!-- Node4&#45;&gt;Node1 -->
<g id="edge4" class="edge"><title>Node4&#45;&gt;Node1</title>
<path fill="none" stroke="#9a32cd" stroke-dasharray="5,2" d="M228.732,-98.7737C234.707,-82.01 245.397,-57.2155 261,-40 268.292,-31.9551 278.422,-25.3776 287.225,-20.624"/>
<polygon fill="#9a32cd" stroke="#9a32cd" points="225.342,-97.8759 225.482,-108.47 231.979,-100.101 225.342,-97.8759"/>
<text text-anchor="middle" x="281.5" y="-59.5" font-family="Arial" font-size="10.00"> silEdges</text>
</g>
<!-- Node5 -->
<g id="node5" class="node"><title>Node5</title>
<g id="a_node5"><a xlink:href="structshadow_cache__s.html" target="_top" xlink:title="shadowCache_s">
<polygon fill="white" stroke="black" points="270,-108.5 270,-127.5 358,-127.5 358,-108.5 270,-108.5"/>
<text text-anchor="middle" x="314" y="-115.5" font-family="Arial" font-size="10.00">shadowCache_s</text>
</a>
</g>
</g>
<!-- Node5&#45;&gt;Node1 -->
<g id="edge6" class="edge"><title>Node5&#45;&gt;Node1</title>
<path fill="none" stroke="#9a32cd" stroke-dasharray="5,2" d="M309.399,-98.4297C308.422,-93.7493 307.528,-88.7144 307,-84 304.469,-61.389 305.032,-34.5369 305.568,-20.9023"/>
<polygon fill="#9a32cd" stroke="#9a32cd" points="306.037,-99.4303 311.691,-108.39 312.859,-97.86 306.037,-99.4303"/>
<text text-anchor="middle" x="345" y="-59.5" font-family="Arial" font-size="10.00"> shadowVertexes</text>
</g>
<!-- Node6 -->
<g id="node6" class="node"><title>Node6</title>
<g id="a_node6"><a xlink:href="classid_vec4.html" target="_top" xlink:title="idVec4">
<polygon fill="white" stroke="black" points="290.5,-204.5 290.5,-223.5 337.5,-223.5 337.5,-204.5 290.5,-204.5"/>
<text text-anchor="middle" x="314" y="-211.5" font-family="Arial" font-size="10.00">idVec4</text>
</a>
</g>
</g>
<!-- Node6&#45;&gt;Node5 -->
<g id="edge7" class="edge"><title>Node6&#45;&gt;Node5</title>
<path fill="none" stroke="#9a32cd" stroke-dasharray="5,2" d="M314,-194.143C314,-173.915 314,-142.678 314,-127.654"/>
<polygon fill="#9a32cd" stroke="#9a32cd" points="310.5,-194.325 314,-204.325 317.5,-194.325 310.5,-194.325"/>
<text text-anchor="middle" x="323.5" y="-166.5" font-family="Arial" font-size="10.00"> xyz</text>
</g>
<!-- Node7 -->
<g id="node7" class="node"><title>Node7</title>
<g id="a_node7"><a xlink:href="classid_bounds.html" target="_top" xlink:title="idBounds">
<polygon fill="white" stroke="black" points="376.5,-108.5 376.5,-127.5 433.5,-127.5 433.5,-108.5 376.5,-108.5"/>
<text text-anchor="middle" x="405" y="-115.5" font-family="Arial" font-size="10.00">idBounds</text>
</a>
</g>
</g>
<!-- Node7&#45;&gt;Node1 -->
<g id="edge8" class="edge"><title>Node7&#45;&gt;Node1</title>
<path fill="none" stroke="#9a32cd" stroke-dasharray="5,2" d="M404.295,-97.9251C402.67,-80.7276 397.709,-55.7843 383,-40 372.914,-29.1774 358.315,-22.5271 344.535,-18.4452"/>
<polygon fill="#9a32cd" stroke="#9a32cd" points="400.833,-98.6306 404.967,-108.386 407.819,-98.1822 400.833,-98.6306"/>
<text text-anchor="middle" x="420.5" y="-59.5" font-family="Arial" font-size="10.00"> bounds</text>
</g>
<!-- Node8 -->
<g id="node8" class="node"><title>Node8</title>
<g id="a_node8"><a xlink:href="classid_draw_vert.html" target="_top" xlink:title="idDrawVert">
<polygon fill="white" stroke="black" points="452,-108.5 452,-127.5 516,-127.5 516,-108.5 452,-108.5"/>
<text text-anchor="middle" x="484" y="-115.5" font-family="Arial" font-size="10.00">idDrawVert</text>
</a>
</g>
</g>
<!-- Node8&#45;&gt;Node1 -->
<g id="edge9" class="edge"><title>Node8&#45;&gt;Node1</title>
<path fill="none" stroke="#9a32cd" stroke-dasharray="5,2" d="M478.861,-98.4175C472.949,-80.62 461.46,-54.4055 442,-40 413.906,-19.2028 374.006,-12.9821 344.687,-11.4975"/>
<polygon fill="#9a32cd" stroke="#9a32cd" points="475.587,-99.6802 481.843,-108.23 482.284,-97.6447 475.587,-99.6802"/>
<text text-anchor="middle" x="486" y="-59.5" font-family="Arial" font-size="10.00"> verts</text>
</g>
<!-- Node9 -->
<g id="node9" class="node"><title>Node9</title>
<g id="a_node9"><a xlink:href="classid_vec2.html" target="_top" xlink:title="idVec2">
<polygon fill="white" stroke="black" points="427.5,-204.5 427.5,-223.5 474.5,-223.5 474.5,-204.5 427.5,-204.5"/>
<text text-anchor="middle" x="451" y="-211.5" font-family="Arial" font-size="10.00">idVec2</text>
</a>
</g>
</g>
<!-- Node9&#45;&gt;Node8 -->
<g id="edge10" class="edge"><title>Node9&#45;&gt;Node8</title>
<path fill="none" stroke="#9a32cd" stroke-dasharray="5,2" d="M457.423,-194.704C464.517,-174.497 475.638,-142.818 480.962,-127.654"/>
<polygon fill="#9a32cd" stroke="#9a32cd" points="454.056,-193.73 454.045,-204.325 460.66,-196.049 454.056,-193.73"/>
<text text-anchor="middle" x="479" y="-166.5" font-family="Arial" font-size="10.00"> st</text>
</g>
<!-- Node10 -->
<g id="node10" class="node"><title>Node10</title>
<g id="a_node10"><a xlink:href="classid_vec3.html" target="_top" xlink:title="idVec3">
<polygon fill="white" stroke="black" points="492.5,-204.5 492.5,-223.5 539.5,-223.5 539.5,-204.5 492.5,-204.5"/>
<text text-anchor="middle" x="516" y="-211.5" font-family="Arial" font-size="10.00">idVec3</text>
</a>
</g>
</g>
<!-- Node10&#45;&gt;Node8 -->
<g id="edge11" class="edge"><title>Node10&#45;&gt;Node8</title>
<path fill="none" stroke="#9a32cd" stroke-dasharray="5,2" d="M509.772,-194.704C502.893,-174.497 492.108,-142.818 486.946,-127.654"/>
<polygon fill="#9a32cd" stroke="#9a32cd" points="506.511,-195.987 513.047,-204.325 513.137,-193.731 506.511,-195.987"/>
<text text-anchor="middle" x="526" y="-177.5" font-family="Arial" font-size="10.00"> xyz</text>
<text text-anchor="middle" x="526" y="-166.5" font-family="Arial" font-size="10.00">normal</text>
<text text-anchor="middle" x="526" y="-155.5" font-family="Arial" font-size="10.00">tangents</text>
</g>
<!-- Node11 -->
<g id="node11" class="node"><title>Node11</title>
<g id="a_node11"><a xlink:href="structdominant_tri__s.html" target="_top" xlink:title="dominantTri_s">
<polygon fill="white" stroke="black" points="534.5,-108.5 534.5,-127.5 611.5,-127.5 611.5,-108.5 534.5,-108.5"/>
<text text-anchor="middle" x="573" y="-115.5" font-family="Arial" font-size="10.00">dominantTri_s</text>
</a>
</g>
</g>
<!-- Node11&#45;&gt;Node1 -->
<g id="edge12" class="edge"><title>Node11&#45;&gt;Node1</title>
<path fill="none" stroke="#9a32cd" stroke-dasharray="5,2" d="M562.197,-99.5235C549.979,-81.404 528.317,-53.8317 502,-40 475.453,-26.0471 394.029,-18.1062 344.875,-14.4642"/>
<polygon fill="#9a32cd" stroke="#9a32cd" points="559.325,-101.526 567.701,-108.014 565.199,-97.7191 559.325,-101.526"/>
<text text-anchor="middle" x="579.5" y="-59.5" font-family="Arial" font-size="10.00"> dominantTris</text>
</g>
</g>
</svg>
        <g id="navigator" transform="translate(0 0)" fill="#404254">
                <rect fill="#f2f5e9" fill-opacity="0.5" stroke="#606060" stroke-width=".5" x="0" y="0" width="60" height="60"/>
                <use id="zoomplus" xlink:href="#zoomPlus" x="17" y="9" onmousedown="handleZoom(evt,'in')"/>
                <use id="zoomminus" xlink:href="#zoomMin" x="42" y="9" onmousedown="handleZoom(evt,'out')"/>
                <use id="reset" xlink:href="#resetDef" x="30" y="36" onmousedown="handleReset()"/>
                <g id="arrowUp" xlink:href="#dirArrow" transform="translate(30 24)" onmousedown="handlePan(0,-1)">
                  <use xlink:href="#rim" fill="#404040">
                        <set attributeName="fill" to="#808080" begin="arrowUp.mouseover" end="arrowUp.mouseout"/>
                  </use>
                  <path fill="none" stroke="white" stroke-width="1.5" d="M0,-3.0v7 M-2.5,-0.5L0,-3.0L2.5,-0.5"/>
                </g>
                <g id="arrowRight" xlink:href="#dirArrow" transform="rotate(90) translate(36 -43)" onmousedown="handlePan(1,0)">
                  <use xlink:href="#rim" fill="#404040">
                        <set attributeName="fill" to="#808080" begin="arrowRight.mouseover" end="arrowRight.mouseout"/>
                  </use>
                  <path fill="none" stroke="white" stroke-width="1.5" d="M0,-3.0v7 M-2.5,-0.5L0,-3.0L2.5,-0.5"/>
                </g>
                <g id="arrowDown" xlink:href="#dirArrow" transform="rotate(180) translate(-30 -48)" onmousedown="handlePan(0,1)">
                  <use xlink:href="#rim" fill="#404040">
                        <set attributeName="fill" to="#808080" begin="arrowDown.mouseover" end="arrowDown.mouseout"/>
                  </use>
                  <path fill="none" stroke="white" stroke-width="1.5" d="M0,-3.0v7 M-2.5,-0.5L0,-3.0L2.5,-0.5"/>
                </g>
                <g id="arrowLeft" xlink:href="#dirArrow" transform="rotate(270) translate(-36 17)" onmousedown="handlePan(-1,0)">
                  <use xlink:href="#rim" fill="#404040">
                        <set attributeName="fill" to="#808080" begin="arrowLeft.mouseover" end="arrowLeft.mouseout"/>
                  </use>
                  <path fill="none" stroke="white" stroke-width="1.5" d="M0,-3.0v7 M-2.5,-0.5L0,-3.0L2.5,-0.5"/>
                </g>
        </g>
        <svg viewBox="0 0 15 15" width="100%" height="30px" preserveAspectRatio="xMaxYMin meet">
         <g id="arrow_out" transform="scale(0.3 0.3)">
          <a xlink:href="structsrf_triangles__s__coll__graph_org.svg" target="_base">
           <rect id="button" ry="5" rx="5" y="6" x="6" height="38" width="38"
                fill="#f2f5e9" fill-opacity="0.5" stroke="#606060" stroke-width="1.0"/>
           <path id="arrow"
             d="M 11.500037,31.436501 C 11.940474,20.09759 22.043105,11.32322 32.158766,21.979434 L 37.068811,17.246167 C 37.068811,17.246167 37.088388,32 37.088388,32 L 22.160133,31.978069 C 22.160133,31.978069 26.997745,27.140456 26.997745,27.140456 C 18.528582,18.264221 13.291696,25.230495 11.500037,31.436501 z"
             style="fill:#404040;"/>
          </a>
         </g>
        </svg>
</svg>
