<?xml version="1.0" encoding="UTF-8" standalone="no"?>
<!DOCTYPE svg PUBLIC "-//W3C//DTD SVG 1.1//EN"
 "http://www.w3.org/Graphics/SVG/1.1/DTD/svg11.dtd">
<!-- Generated by graphviz version 2.34.0 (20130907.0111)
 -->
<!-- Title: aasObstacle_s Pages: 1 -->
<svg width="119pt" height="106pt"
 viewBox="0.00 0.00 119.00 106.00" xmlns="http://www.w3.org/2000/svg" xmlns:xlink="http://www.w3.org/1999/xlink">
<g id="graph0" class="graph" transform="scale(1 1) rotate(0) translate(4 102)">
<title>aasObstacle_s</title>
<polygon fill="white" stroke="white" points="-4,4 -4,-102 115,-102 115,4 -4,4"/>
<!-- Node1 -->
<g id="node1" class="node"><title>Node1</title>
<polygon fill="#bfbfbf" stroke="black" points="0,-0.5 0,-19.5 82,-19.5 82,-0.5 0,-0.5"/>
<text text-anchor="middle" x="41" y="-7.5" font-family="Arial" font-size="10.00">aasObstacle_s</text>
</g>
<!-- Node2 -->
<g id="node2" class="node"><title>Node2</title>
<g id="a_node2"><a xlink:href="classid_bounds.html" target="_top" xlink:title="idBounds">
<polygon fill="white" stroke="black" points="12.5,-78.5 12.5,-97.5 69.5,-97.5 69.5,-78.5 12.5,-78.5"/>
<text text-anchor="middle" x="41" y="-85.5" font-family="Arial" font-size="10.00">idBounds</text>
</a>
</g>
</g>
<!-- Node2&#45;&gt;Node1 -->
<g id="edge1" class="edge"><title>Node2&#45;&gt;Node1</title>
<path fill="none" stroke="#9a32cd" stroke-dasharray="5,2" d="M41,-68.2239C41,-52.6974 41,-31.3582 41,-19.6165"/>
<polygon fill="#9a32cd" stroke="#9a32cd" points="37.5001,-68.2818 41,-78.2818 44.5001,-68.2819 37.5001,-68.2818"/>
<text text-anchor="middle" x="76" y="-52" font-family="Arial" font-size="10.00"> expAbsBounds</text>
<text text-anchor="middle" x="76" y="-41" font-family="Arial" font-size="10.00">absBounds</text>
</g>
</g>
</svg>
