<?xml version="1.0" encoding="UTF-8" standalone="no"?>
<!DOCTYPE svg PUBLIC "-//W3C//DTD SVG 1.1//EN"
 "http://www.w3.org/Graphics/SVG/1.1/DTD/svg11.dtd">
<!-- Generated by graphviz version 2.34.0 (20130907.0111)
 -->
<!-- Title: monsterPState_s Pages: 1 -->
<svg width="111pt" height="128pt"
 viewBox="0.00 0.00 111.00 128.00" xmlns="http://www.w3.org/2000/svg" xmlns:xlink="http://www.w3.org/1999/xlink">
<g id="graph0" class="graph" transform="scale(1 1) rotate(0) translate(4 124)">
<title>monsterPState_s</title>
<polygon fill="white" stroke="white" points="-4,4 -4,-124 107,-124 107,4 -4,4"/>
<!-- Node1 -->
<g id="node1" class="node"><title>Node1</title>
<polygon fill="#bfbfbf" stroke="black" points="0,-0.5 0,-19.5 92,-19.5 92,-0.5 0,-0.5"/>
<text text-anchor="middle" x="46" y="-7.5" font-family="Arial" font-size="10.00">monsterPState_s</text>
</g>
<!-- Node2 -->
<g id="node2" class="node"><title>Node2</title>
<g id="a_node2"><a xlink:href="classid_vec3.html" target="_top" xlink:title="idVec3">
<polygon fill="white" stroke="black" points="22.5,-100.5 22.5,-119.5 69.5,-119.5 69.5,-100.5 22.5,-100.5"/>
<text text-anchor="middle" x="46" y="-107.5" font-family="Arial" font-size="10.00">idVec3</text>
</a>
</g>
</g>
<!-- Node2&#45;&gt;Node1 -->
<g id="edge1" class="edge"><title>Node2&#45;&gt;Node1</title>
<path fill="none" stroke="#9a32cd" stroke-dasharray="5,2" d="M46,-90.2203C46,-68.9514 46,-35.2197 46,-19.5374"/>
<polygon fill="#9a32cd" stroke="#9a32cd" points="42.5001,-90.3031 46,-100.303 49.5001,-90.3032 42.5001,-90.3031"/>
<text text-anchor="middle" x="74.5" y="-74" font-family="Arial" font-size="10.00"> origin</text>
<text text-anchor="middle" x="74.5" y="-63" font-family="Arial" font-size="10.00">localOrigin</text>
<text text-anchor="middle" x="74.5" y="-52" font-family="Arial" font-size="10.00">pushVelocity</text>
<text text-anchor="middle" x="74.5" y="-41" font-family="Arial" font-size="10.00">velocity</text>
</g>
</g>
</svg>
