<?xml version="1.0" encoding="UTF-8" standalone="no"?>
<!DOCTYPE svg PUBLIC "-//W3C//DTD SVG 1.1//EN"
 "http://www.w3.org/Graphics/SVG/1.1/DTD/svg11.dtd">
<!-- Generated by graphviz version 2.34.0 (20130907.0111)
 -->
<!-- Title: side_s Pages: 1 -->
<svg width="254pt" height="242pt"
 viewBox="0.00 0.00 254.00 242.00" xmlns="http://www.w3.org/2000/svg" xmlns:xlink="http://www.w3.org/1999/xlink">
<g id="graph0" class="graph" transform="scale(1 1) rotate(0) translate(4 238)">
<title>side_s</title>
<polygon fill="white" stroke="white" points="-4,4 -4,-238 250,-238 250,4 -4,4"/>
<!-- Node1 -->
<g id="node1" class="node"><title>Node1</title>
<polygon fill="#bfbfbf" stroke="black" points="98.5,-0.5 98.5,-19.5 143.5,-19.5 143.5,-0.5 98.5,-0.5"/>
<text text-anchor="middle" x="121" y="-7.5" font-family="Arial" font-size="10.00">side_s</text>
</g>
<!-- Node2 -->
<g id="node2" class="node"><title>Node2</title>
<g id="a_node2"><a xlink:href="classid_winding.html" target="_top" xlink:title="idWinding">
<polygon fill="white" stroke="black" points="-0.5,-78.5 -0.5,-97.5 58.5,-97.5 58.5,-78.5 -0.5,-78.5"/>
<text text-anchor="middle" x="29" y="-85.5" font-family="Arial" font-size="10.00">idWinding</text>
</a>
</g>
</g>
<!-- Node2&#45;&gt;Node1 -->
<g id="edge1" class="edge"><title>Node2&#45;&gt;Node1</title>
<path fill="none" stroke="#9a32cd" stroke-dasharray="5,2" d="M42.1647,-70.2327C50.5928,-60.154 62.1408,-47.4862 74,-38 82.9653,-30.8287 94.0598,-24.3605 103.218,-19.554"/>
<polygon fill="#9a32cd" stroke="#9a32cd" points="39.2183,-68.3089 35.632,-78.2783 44.6526,-72.7213 39.2183,-68.3089"/>
<text text-anchor="middle" x="95.5" y="-52" font-family="Arial" font-size="10.00"> winding</text>
<text text-anchor="middle" x="95.5" y="-41" font-family="Arial" font-size="10.00">visibleHull</text>
</g>
<!-- Node3 -->
<g id="node3" class="node"><title>Node3</title>
<g id="a_node3"><a xlink:href="classid_vec5.html" target="_top" xlink:title="idVec5">
<polygon fill="white" stroke="black" points="5.5,-146.5 5.5,-165.5 52.5,-165.5 52.5,-146.5 5.5,-146.5"/>
<text text-anchor="middle" x="29" y="-153.5" font-family="Arial" font-size="10.00">idVec5</text>
</a>
</g>
</g>
<!-- Node3&#45;&gt;Node2 -->
<g id="edge2" class="edge"><title>Node3&#45;&gt;Node2</title>
<path fill="none" stroke="#9a32cd" stroke-dasharray="5,2" d="M29,-136.041C29,-123.472 29,-107.563 29,-97.8411"/>
<polygon fill="#9a32cd" stroke="#9a32cd" points="25.5001,-136.372 29,-146.372 32.5001,-136.372 25.5001,-136.372"/>
<text text-anchor="middle" x="33.5" y="-119.5" font-family="Arial" font-size="10.00"> p</text>
</g>
<!-- Node4 -->
<g id="node4" class="node"><title>Node4</title>
<g id="a_node4"><a xlink:href="structtexture_vectors__t.html" target="_top" xlink:title="textureVectors_t">
<polygon fill="white" stroke="black" points="76.5,-78.5 76.5,-97.5 165.5,-97.5 165.5,-78.5 76.5,-78.5"/>
<text text-anchor="middle" x="121" y="-85.5" font-family="Arial" font-size="10.00">textureVectors_t</text>
</a>
</g>
</g>
<!-- Node4&#45;&gt;Node1 -->
<g id="edge3" class="edge"><title>Node4&#45;&gt;Node1</title>
<path fill="none" stroke="#9a32cd" stroke-dasharray="5,2" d="M121,-68.2239C121,-52.6974 121,-31.3582 121,-19.6165"/>
<polygon fill="#9a32cd" stroke="#9a32cd" points="117.5,-68.2818 121,-78.2818 124.5,-68.2819 117.5,-68.2818"/>
<text text-anchor="middle" x="138" y="-46.5" font-family="Arial" font-size="10.00"> texVec</text>
</g>
<!-- Node5 -->
<g id="node5" class="node"><title>Node5</title>
<g id="a_node5"><a xlink:href="classid_vec4.html" target="_top" xlink:title="idVec4">
<polygon fill="white" stroke="black" points="97.5,-146.5 97.5,-165.5 144.5,-165.5 144.5,-146.5 97.5,-146.5"/>
<text text-anchor="middle" x="121" y="-153.5" font-family="Arial" font-size="10.00">idVec4</text>
</a>
</g>
</g>
<!-- Node5&#45;&gt;Node4 -->
<g id="edge4" class="edge"><title>Node5&#45;&gt;Node4</title>
<path fill="none" stroke="#9a32cd" stroke-dasharray="5,2" d="M121,-136.041C121,-123.472 121,-107.563 121,-97.8411"/>
<polygon fill="#9a32cd" stroke="#9a32cd" points="117.5,-136.372 121,-146.372 124.5,-136.372 117.5,-136.372"/>
<text text-anchor="middle" x="124.5" y="-119.5" font-family="Arial" font-size="10.00"> v</text>
</g>
<!-- Node6 -->
<g id="node6" class="node"><title>Node6</title>
<g id="a_node6"><a xlink:href="classid_material.html" target="_top" xlink:title="idMaterial">
<polygon fill="white" stroke="black" points="183.5,-78.5 183.5,-97.5 242.5,-97.5 242.5,-78.5 183.5,-78.5"/>
<text text-anchor="middle" x="213" y="-85.5" font-family="Arial" font-size="10.00">idMaterial</text>
</a>
</g>
</g>
<!-- Node6&#45;&gt;Node1 -->
<g id="edge5" class="edge"><title>Node6&#45;&gt;Node1</title>
<path fill="none" stroke="#9a32cd" stroke-dasharray="5,2" d="M196.874,-71.4371C186.368,-61.5341 172.207,-48.6213 159,-38 150.928,-31.5079 141.428,-24.7579 133.946,-19.6309"/>
<polygon fill="#9a32cd" stroke="#9a32cd" points="194.463,-73.9746 204.119,-78.3354 199.29,-68.905 194.463,-73.9746"/>
<text text-anchor="middle" x="203" y="-46.5" font-family="Arial" font-size="10.00"> material</text>
</g>
<!-- Node7 -->
<g id="node7" class="node"><title>Node7</title>
<g id="a_node7"><a xlink:href="classid_decl.html" target="_top" xlink:title="idDecl">
<polygon fill="white" stroke="black" points="191,-146.5 191,-165.5 235,-165.5 235,-146.5 191,-146.5"/>
<text text-anchor="middle" x="213" y="-153.5" font-family="Arial" font-size="10.00">idDecl</text>
</a>
</g>
</g>
<!-- Node7&#45;&gt;Node6 -->
<g id="edge6" class="edge"><title>Node7&#45;&gt;Node6</title>
<path fill="none" stroke="midnightblue" d="M213,-136.041C213,-123.472 213,-107.563 213,-97.8411"/>
<polygon fill="midnightblue" stroke="midnightblue" points="209.5,-136.372 213,-146.372 216.5,-136.372 209.5,-136.372"/>
</g>
<!-- Node8 -->
<g id="node8" class="node"><title>Node8</title>
<g id="a_node8"><a xlink:href="classid_decl_base.html" target="_top" xlink:title="idDeclBase">
<polygon fill="white" stroke="black" points="180,-214.5 180,-233.5 246,-233.5 246,-214.5 180,-214.5"/>
<text text-anchor="middle" x="213" y="-221.5" font-family="Arial" font-size="10.00">idDeclBase</text>
</a>
</g>
</g>
<!-- Node8&#45;&gt;Node7 -->
<g id="edge7" class="edge"><title>Node8&#45;&gt;Node7</title>
<path fill="none" stroke="#9a32cd" stroke-dasharray="5,2" d="M213,-204.041C213,-191.472 213,-175.563 213,-165.841"/>
<polygon fill="#9a32cd" stroke="#9a32cd" points="209.5,-204.372 213,-214.372 216.5,-204.372 209.5,-204.372"/>
<text text-anchor="middle" x="225.5" y="-187.5" font-family="Arial" font-size="10.00"> base</text>
</g>
</g>
</svg>
