<?xml version="1.0" encoding="UTF-8" standalone="no"?>
<!DOCTYPE svg PUBLIC "-//W3C//DTD SVG 1.1//EN"
 "http://www.w3.org/Graphics/SVG/1.1/DTD/svg11.dtd">
<!-- Generated by graphviz version 2.34.0 (20130907.0111)
 -->
<!-- Title: statement_s Pages: 1 -->
<svg width="574pt" height="254pt"
 viewBox="0.00 0.00 574.00 254.00" xmlns="http://www.w3.org/2000/svg" xmlns:xlink="http://www.w3.org/1999/xlink">
<g id="graph0" class="graph" transform="scale(1 1) rotate(0) translate(4 250)">
<title>statement_s</title>
<polygon fill="white" stroke="white" points="-4,4 -4,-250 570,-250 570,4 -4,4"/>
<!-- Node1 -->
<g id="node1" class="node"><title>Node1</title>
<polygon fill="#bfbfbf" stroke="black" points="-0.5,-136.5 -0.5,-155.5 70.5,-155.5 70.5,-136.5 -0.5,-136.5"/>
<text text-anchor="middle" x="35" y="-143.5" font-family="Arial" font-size="10.00">statement_s</text>
</g>
<!-- Node2 -->
<g id="node2" class="node"><title>Node2</title>
<g id="a_node2"><a xlink:href="classid_var_def.html" target="_top" xlink:title="idVarDef">
<polygon fill="white" stroke="black" points="132.5,-226.5 132.5,-245.5 185.5,-245.5 185.5,-226.5 132.5,-226.5"/>
<text text-anchor="middle" x="159" y="-233.5" font-family="Arial" font-size="10.00">idVarDef</text>
</a>
</g>
</g>
<!-- Node2&#45;&gt;Node1 -->
<g id="edge1" class="edge"><title>Node2&#45;&gt;Node1</title>
<path fill="none" stroke="#9a32cd" stroke-dasharray="5,2" d="M137.597,-220.75C131.555,-216.674 124.994,-212.198 119,-208 92.8695,-189.701 62.717,-167.546 46.5957,-155.614"/>
<polygon fill="#9a32cd" stroke="#9a32cd" points="135.699,-223.691 145.953,-226.357 139.599,-217.879 135.699,-223.691"/>
<text text-anchor="middle" x="123.5" y="-199.5" font-family="Arial" font-size="10.00"> a</text>
<text text-anchor="middle" x="123.5" y="-188.5" font-family="Arial" font-size="10.00">b</text>
<text text-anchor="middle" x="123.5" y="-177.5" font-family="Arial" font-size="10.00">c</text>
</g>
<!-- Node2&#45;&gt;Node2 -->
<g id="edge12" class="edge"><title>Node2&#45;&gt;Node2</title>
<path fill="none" stroke="#9a32cd" stroke-dasharray="5,2" d="M195.677,-243.111C200.104,-241.827 203,-239.456 203,-236 203,-230.328 195.201,-227.581 185.635,-227.758"/>
<polygon fill="#9a32cd" stroke="#9a32cd" points="195.181,-239.645 185.635,-244.242 195.964,-246.601 195.181,-239.645"/>
<text text-anchor="middle" x="218" y="-233.5" font-family="Arial" font-size="10.00"> scope</text>
</g>
<!-- Node4 -->
<g id="node4" class="node"><title>Node4</title>
<g id="a_node4"><a xlink:href="classfunction__t.html" target="_top" xlink:title="function_t">
<polygon fill="white" stroke="black" points="222.5,-68.5 222.5,-87.5 281.5,-87.5 281.5,-68.5 222.5,-68.5"/>
<text text-anchor="middle" x="252" y="-75.5" font-family="Arial" font-size="10.00">function_t</text>
</a>
</g>
</g>
<!-- Node2&#45;&gt;Node4 -->
<g id="edge7" class="edge"><title>Node2&#45;&gt;Node4</title>
<path fill="none" stroke="#9a32cd" stroke-dasharray="5,2" d="M164.163,-216.705C171.314,-192.036 184.331,-149.623 193,-136 205.693,-116.054 226.733,-98.0084 239.957,-87.7856"/>
<polygon fill="#9a32cd" stroke="#9a32cd" points="160.792,-215.764 161.407,-226.341 167.522,-217.689 160.792,-215.764"/>
<text text-anchor="middle" x="201" y="-143.5" font-family="Arial" font-size="10.00"> def</text>
</g>
<!-- Node6 -->
<g id="node6" class="node"><title>Node6</title>
<g id="a_node6"><a xlink:href="classid_type_def.html" target="_top" xlink:title="idTypeDef">
<polygon fill="white" stroke="black" points="88.5,-136.5 88.5,-155.5 147.5,-155.5 147.5,-136.5 88.5,-136.5"/>
<text text-anchor="middle" x="118" y="-143.5" font-family="Arial" font-size="10.00">idTypeDef</text>
</a>
</g>
</g>
<!-- Node2&#45;&gt;Node6 -->
<g id="edge6" class="edge"><title>Node2&#45;&gt;Node6</title>
<path fill="none" stroke="#9a32cd" stroke-dasharray="5,2" d="M150.625,-217.025C141.928,-198.357 128.685,-169.933 122.065,-155.724"/>
<polygon fill="#9a32cd" stroke="#9a32cd" points="147.523,-218.654 154.919,-226.241 153.868,-215.698 147.523,-218.654"/>
<text text-anchor="middle" x="154" y="-188.5" font-family="Arial" font-size="10.00"> def</text>
</g>
<!-- Node3 -->
<g id="node3" class="node"><title>Node3</title>
<g id="a_node3"><a xlink:href="unionvar_eval__s.html" target="_top" xlink:title="varEval_s">
<polygon fill="white" stroke="black" points="391.5,-0.5 391.5,-19.5 448.5,-19.5 448.5,-0.5 391.5,-0.5"/>
<text text-anchor="middle" x="420" y="-7.5" font-family="Arial" font-size="10.00">varEval_s</text>
</a>
</g>
</g>
<!-- Node3&#45;&gt;Node2 -->
<g id="edge2" class="edge"><title>Node3&#45;&gt;Node2</title>
<path fill="none" stroke="#9a32cd" stroke-dasharray="5,2" d="M416.362,-29.6195C409.224,-64.4392 392.542,-137.563 375,-156 323.255,-210.383 231.02,-227.496 185.671,-232.751"/>
<polygon fill="#9a32cd" stroke="#9a32cd" points="419.801,-30.2708 418.334,-19.7782 412.938,-28.8959 419.801,-30.2708"/>
<text text-anchor="middle" x="409.5" y="-109.5" font-family="Arial" font-size="10.00"> value</text>
</g>
<!-- Node3&#45;&gt;Node3 -->
<g id="edge9" class="edge"><title>Node3&#45;&gt;Node3</title>
<path fill="none" stroke="#9a32cd" stroke-dasharray="5,2" d="M458.76,-15.4023C463.153,-14.3906 466,-12.5898 466,-10 466,-5.75 458.333,-3.625 448.75,-3.625"/>
<polygon fill="#9a32cd" stroke="#9a32cd" points="458.365,-11.9241 448.75,-16.375 459.042,-18.8913 458.365,-11.9241"/>
<text text-anchor="middle" x="482.5" y="-7.5" font-family="Arial" font-size="10.00"> evalPtr</text>
</g>
<!-- Node4&#45;&gt;Node3 -->
<g id="edge3" class="edge"><title>Node4&#45;&gt;Node3</title>
<path fill="none" stroke="#9a32cd" stroke-dasharray="5,2" d="M276.356,-63.4612C291.494,-55.3909 311.528,-45.3255 330,-38 350.017,-30.0619 373.319,-23.1315 391.197,-18.2801"/>
<polygon fill="#9a32cd" stroke="#9a32cd" points="274.308,-60.5895 267.18,-68.4275 277.64,-66.7456 274.308,-60.5895"/>
<text text-anchor="middle" x="355" y="-41.5" font-family="Arial" font-size="10.00"> functionPtr</text>
</g>
<!-- Node5 -->
<g id="node5" class="node"><title>Node5</title>
<g id="a_node5"><a xlink:href="classid_list.html" target="_top" xlink:title="idList\&lt; int \&gt;">
<polygon fill="white" stroke="black" points="218,-136.5 218,-155.5 286,-155.5 286,-136.5 218,-136.5"/>
<text text-anchor="middle" x="252" y="-143.5" font-family="Arial" font-size="10.00">idList&lt; int &gt;</text>
</a>
</g>
</g>
<!-- Node5&#45;&gt;Node4 -->
<g id="edge4" class="edge"><title>Node5&#45;&gt;Node4</title>
<path fill="none" stroke="#9a32cd" stroke-dasharray="5,2" d="M252,-126.041C252,-113.472 252,-97.5631 252,-87.8411"/>
<polygon fill="#9a32cd" stroke="#9a32cd" points="248.5,-126.372 252,-136.372 255.5,-126.372 248.5,-126.372"/>
<text text-anchor="middle" x="274.5" y="-109.5" font-family="Arial" font-size="10.00"> parmSize</text>
</g>
<!-- Node6&#45;&gt;Node4 -->
<g id="edge5" class="edge"><title>Node6&#45;&gt;Node4</title>
<path fill="none" stroke="#9a32cd" stroke-dasharray="5,2" d="M127.799,-127.507C132.901,-119.867 139.795,-111.429 148,-106 170.246,-91.2798 200.09,-84.5801 222.102,-81.5336"/>
<polygon fill="#9a32cd" stroke="#9a32cd" points="124.729,-125.819 122.496,-136.176 130.7,-129.471 124.729,-125.819"/>
<text text-anchor="middle" x="159" y="-109.5" font-family="Arial" font-size="10.00"> type</text>
</g>
<!-- Node7 -->
<g id="node7" class="node"><title>Node7</title>
<g id="a_node7"><a xlink:href="classid_event_def.html" target="_top" xlink:title="idEventDef">
<polygon fill="white" stroke="black" points="304,-136.5 304,-155.5 366,-155.5 366,-136.5 304,-136.5"/>
<text text-anchor="middle" x="335" y="-143.5" font-family="Arial" font-size="10.00">idEventDef</text>
</a>
</g>
</g>
<!-- Node7&#45;&gt;Node4 -->
<g id="edge8" class="edge"><title>Node7&#45;&gt;Node4</title>
<path fill="none" stroke="#9a32cd" stroke-dasharray="5,2" d="M322.737,-128.441C316.718,-121.014 309.041,-112.485 301,-106 291.928,-98.6828 280.594,-92.2929 271.112,-87.5687"/>
<polygon fill="#9a32cd" stroke="#9a32cd" points="320.067,-130.71 328.962,-136.467 325.598,-126.42 320.067,-130.71"/>
<text text-anchor="middle" x="332.5" y="-109.5" font-family="Arial" font-size="10.00"> eventdef</text>
</g>
<!-- Node8 -->
<g id="node8" class="node"><title>Node8</title>
<g id="a_node8"><a xlink:href="classid_vec3.html" target="_top" xlink:title="idVec3">
<polygon fill="white" stroke="black" points="422.5,-68.5 422.5,-87.5 469.5,-87.5 469.5,-68.5 422.5,-68.5"/>
<text text-anchor="middle" x="446" y="-75.5" font-family="Arial" font-size="10.00">idVec3</text>
</a>
</g>
</g>
<!-- Node8&#45;&gt;Node3 -->
<g id="edge10" class="edge"><title>Node8&#45;&gt;Node3</title>
<path fill="none" stroke="#9a32cd" stroke-dasharray="5,2" d="M438.833,-58.8066C433.837,-46.1244 427.391,-29.7615 423.483,-19.8411"/>
<polygon fill="#9a32cd" stroke="#9a32cd" points="435.679,-60.3504 442.601,-68.3717 442.192,-57.7847 435.679,-60.3504"/>
<text text-anchor="middle" x="456" y="-41.5" font-family="Arial" font-size="10.00"> vectorPtr</text>
</g>
<!-- Node9 -->
<g id="node9" class="node"><title>Node9</title>
<g id="a_node9"><a xlink:href="classid_script_object.html" target="_top" xlink:title="idScriptObject">
<polygon fill="white" stroke="black" points="488,-68.5 488,-87.5 566,-87.5 566,-68.5 488,-68.5"/>
<text text-anchor="middle" x="527" y="-75.5" font-family="Arial" font-size="10.00">idScriptObject</text>
</a>
</g>
</g>
<!-- Node9&#45;&gt;Node3 -->
<g id="edge11" class="edge"><title>Node9&#45;&gt;Node3</title>
<path fill="none" stroke="#9a32cd" stroke-dasharray="5,2" d="M511.123,-61.5637C502.642,-53.8474 491.756,-44.743 481,-38 469.225,-30.6182 455.086,-24.2242 443.386,-19.514"/>
<polygon fill="#9a32cd" stroke="#9a32cd" points="508.743,-64.1303 518.433,-68.414 513.529,-59.0224 508.743,-64.1303"/>
<text text-anchor="middle" x="524.5" y="-41.5" font-family="Arial" font-size="10.00"> objectPtrPtr</text>
</g>
</g>
</svg>
