<?xml version="1.0" encoding="UTF-8" standalone="no"?>
<!DOCTYPE svg PUBLIC "-//W3C//DTD SVG 1.1//EN"
 "http://www.w3.org/Graphics/SVG/1.1/DTD/svg11.dtd">
<!-- Generated by graphviz version 2.34.0 (20130907.0111)
 -->
<!-- Title: surfaceInteraction_t Pages: 1 -->
<svg width="711pt" height="322pt"
 viewBox="0.00 0.00 711.00 322.00" xmlns="http://www.w3.org/2000/svg" xmlns:xlink="http://www.w3.org/1999/xlink">
<g id="graph0" class="graph" transform="scale(1 1) rotate(0) translate(4 318)">
<title>surfaceInteraction_t</title>
<polygon fill="white" stroke="white" points="-4,4 -4,-318 707,-318 707,4 -4,4"/>
<!-- Node1 -->
<g id="node1" class="node"><title>Node1</title>
<polygon fill="#bfbfbf" stroke="black" points="273.5,-0.5 273.5,-19.5 374.5,-19.5 374.5,-0.5 273.5,-0.5"/>
<text text-anchor="middle" x="324" y="-7.5" font-family="Arial" font-size="10.00">surfaceInteraction_t</text>
</g>
<!-- Node2 -->
<g id="node2" class="node"><title>Node2</title>
<g id="a_node2"><a xlink:href="structsrf_cull_info__t.html" target="_top" xlink:title="srfCullInfo_t">
<polygon fill="white" stroke="black" points="86.5,-91.5 86.5,-110.5 153.5,-110.5 153.5,-91.5 86.5,-91.5"/>
<text text-anchor="middle" x="120" y="-98.5" font-family="Arial" font-size="10.00">srfCullInfo_t</text>
</a>
</g>
</g>
<!-- Node2&#45;&gt;Node1 -->
<g id="edge1" class="edge"><title>Node2&#45;&gt;Node1</title>
<path fill="none" stroke="#9a32cd" stroke-dasharray="5,2" d="M148.73,-87.4659C190.877,-69.0783 268.369,-35.2704 304.499,-19.5079"/>
<polygon fill="#9a32cd" stroke="#9a32cd" points="147.326,-84.2595 139.56,-91.4663 150.126,-90.6755 147.326,-84.2595"/>
<text text-anchor="middle" x="276" y="-52.5" font-family="Arial" font-size="10.00"> cullInfo</text>
</g>
<!-- Node3 -->
<g id="node3" class="node"><title>Node3</title>
<g id="a_node3"><a xlink:href="classid_plane.html" target="_top" xlink:title="idPlane">
<polygon fill="white" stroke="black" points="-0.5,-198.5 -0.5,-217.5 48.5,-217.5 48.5,-198.5 -0.5,-198.5"/>
<text text-anchor="middle" x="24" y="-205.5" font-family="Arial" font-size="10.00">idPlane</text>
</a>
</g>
</g>
<!-- Node3&#45;&gt;Node2 -->
<g id="edge2" class="edge"><title>Node3&#45;&gt;Node2</title>
<path fill="none" stroke="#9a32cd" stroke-dasharray="5,2" d="M12.7198,-189.542C3.37172,-172.639 -6.39909,-147.124 7,-130 16.746,-117.544 56.8066,-109.853 86.4751,-105.757"/>
<polygon fill="#9a32cd" stroke="#9a32cd" points="9.86174,-191.582 17.9966,-198.37 15.8702,-187.991 9.86174,-191.582"/>
<text text-anchor="middle" x="42" y="-149.5" font-family="Arial" font-size="10.00"> localClipPlanes</text>
</g>
<!-- Node4 -->
<g id="node4" class="node"><title>Node4</title>
<g id="a_node4"><a xlink:href="structsrf_triangles__s.html" target="_top" xlink:title="srfTriangles_s">
<polygon fill="white" stroke="black" points="285.5,-91.5 285.5,-110.5 362.5,-110.5 362.5,-91.5 285.5,-91.5"/>
<text text-anchor="middle" x="324" y="-98.5" font-family="Arial" font-size="10.00">srfTriangles_s</text>
</a>
</g>
</g>
<!-- Node3&#45;&gt;Node4 -->
<g id="edge6" class="edge"><title>Node3&#45;&gt;Node4</title>
<path fill="none" stroke="#9a32cd" stroke-dasharray="5,2" d="M52.5495,-193.52C61.2513,-188.36 70.2819,-181.804 77,-174 90.897,-157.857 78.9488,-142.767 96,-130 110.805,-118.915 223.868,-109.193 285.018,-104.679"/>
<polygon fill="#9a32cd" stroke="#9a32cd" points="50.7835,-190.497 43.7112,-198.386 54.1594,-196.629 50.7835,-190.497"/>
<text text-anchor="middle" x="122" y="-149.5" font-family="Arial" font-size="10.00"> facePlanes</text>
</g>
<!-- Node4&#45;&gt;Node1 -->
<g id="edge3" class="edge"><title>Node4&#45;&gt;Node1</title>
<path fill="none" stroke="#9a32cd" stroke-dasharray="5,2" d="M324,-81.3494C324,-62.3833 324,-33.8277 324,-19.6386"/>
<polygon fill="#9a32cd" stroke="#9a32cd" points="320.5,-81.4663 324,-91.4663 327.5,-81.4663 320.5,-81.4663"/>
<text text-anchor="middle" x="350" y="-63.5" font-family="Arial" font-size="10.00"> shadowTris</text>
<text text-anchor="middle" x="350" y="-52.5" font-family="Arial" font-size="10.00">ambientTris</text>
<text text-anchor="middle" x="350" y="-41.5" font-family="Arial" font-size="10.00">lightTris</text>
</g>
<!-- Node4&#45;&gt;Node4 -->
<g id="edge8" class="edge"><title>Node4&#45;&gt;Node4</title>
<path fill="none" stroke="#9a32cd" stroke-dasharray="5,2" d="M372.872,-107.822C377.251,-106.395 380,-104.121 380,-101 380,-95.8789 372.597,-93.0383 362.735,-92.4782"/>
<polygon fill="#9a32cd" stroke="#9a32cd" points="372.018,-104.416 362.735,-109.522 373.176,-111.319 372.018,-104.416"/>
<text text-anchor="middle" x="417.5" y="-104" font-family="Arial" font-size="10.00"> ambientSurface</text>
<text text-anchor="middle" x="417.5" y="-93" font-family="Arial" font-size="10.00">nextDeferredFree</text>
</g>
<!-- Node5 -->
<g id="node5" class="node"><title>Node5</title>
<g id="a_node5"><a xlink:href="structvert_cache__s.html" target="_top" xlink:title="vertCache_s">
<polygon fill="white" stroke="black" points="85,-198.5 85,-217.5 155,-217.5 155,-198.5 85,-198.5"/>
<text text-anchor="middle" x="120" y="-205.5" font-family="Arial" font-size="10.00">vertCache_s</text>
</a>
</g>
</g>
<!-- Node5&#45;&gt;Node4 -->
<g id="edge4" class="edge"><title>Node5&#45;&gt;Node4</title>
<path fill="none" stroke="#9a32cd" stroke-dasharray="5,2" d="M136.093,-191.127C141.3,-185.803 147.014,-179.754 152,-174 168.183,-155.322 165.016,-143.055 186,-130 215.994,-111.339 256.096,-104.824 285.338,-102.688"/>
<polygon fill="#9a32cd" stroke="#9a32cd" points="133.539,-188.732 128.971,-198.291 138.503,-193.667 133.539,-188.732"/>
<text text-anchor="middle" x="217.5" y="-166" font-family="Arial" font-size="10.00"> indexCache</text>
<text text-anchor="middle" x="217.5" y="-155" font-family="Arial" font-size="10.00">ambientCache</text>
<text text-anchor="middle" x="217.5" y="-144" font-family="Arial" font-size="10.00">shadowCache</text>
<text text-anchor="middle" x="217.5" y="-133" font-family="Arial" font-size="10.00">lightingCache</text>
</g>
<!-- Node5&#45;&gt;Node5 -->
<g id="edge5" class="edge"><title>Node5&#45;&gt;Node5</title>
<path fill="none" stroke="#9a32cd" stroke-dasharray="5,2" d="M165.235,-215.768C169.967,-214.251 173,-211.662 173,-208 173,-202.141 165.236,-199.028 155.168,-198.662"/>
<polygon fill="#9a32cd" stroke="#9a32cd" points="164.509,-212.339 155.168,-217.338 165.588,-219.255 164.509,-212.339"/>
<text text-anchor="middle" x="183.5" y="-216.5" font-family="Arial" font-size="10.00"> prev</text>
<text text-anchor="middle" x="183.5" y="-205.5" font-family="Arial" font-size="10.00">next</text>
<text text-anchor="middle" x="183.5" y="-194.5" font-family="Arial" font-size="10.00">user</text>
</g>
<!-- Node6 -->
<g id="node6" class="node"><title>Node6</title>
<g id="a_node6"><a xlink:href="structsil_edge__t.html" target="_top" xlink:title="silEdge_t">
<polygon fill="white" stroke="black" points="212.5,-198.5 212.5,-217.5 269.5,-217.5 269.5,-198.5 212.5,-198.5"/>
<text text-anchor="middle" x="241" y="-205.5" font-family="Arial" font-size="10.00">silEdge_t</text>
</a>
</g>
</g>
<!-- Node6&#45;&gt;Node4 -->
<g id="edge7" class="edge"><title>Node6&#45;&gt;Node4</title>
<path fill="none" stroke="#9a32cd" stroke-dasharray="5,2" d="M246.732,-188.774C252.707,-172.01 263.397,-147.215 279,-130 286.292,-121.955 296.422,-115.378 305.225,-110.624"/>
<polygon fill="#9a32cd" stroke="#9a32cd" points="243.342,-187.876 243.482,-198.47 249.979,-190.101 243.342,-187.876"/>
<text text-anchor="middle" x="299.5" y="-149.5" font-family="Arial" font-size="10.00"> silEdges</text>
</g>
<!-- Node7 -->
<g id="node7" class="node"><title>Node7</title>
<g id="a_node7"><a xlink:href="structshadow_cache__s.html" target="_top" xlink:title="shadowCache_s">
<polygon fill="white" stroke="black" points="288,-198.5 288,-217.5 376,-217.5 376,-198.5 288,-198.5"/>
<text text-anchor="middle" x="332" y="-205.5" font-family="Arial" font-size="10.00">shadowCache_s</text>
</a>
</g>
</g>
<!-- Node7&#45;&gt;Node4 -->
<g id="edge9" class="edge"><title>Node7&#45;&gt;Node4</title>
<path fill="none" stroke="#9a32cd" stroke-dasharray="5,2" d="M327.399,-188.43C326.422,-183.749 325.528,-178.714 325,-174 322.469,-151.389 323.032,-124.537 323.568,-110.902"/>
<polygon fill="#9a32cd" stroke="#9a32cd" points="324.037,-189.43 329.691,-198.39 330.859,-187.86 324.037,-189.43"/>
<text text-anchor="middle" x="363" y="-149.5" font-family="Arial" font-size="10.00"> shadowVertexes</text>
</g>
<!-- Node8 -->
<g id="node8" class="node"><title>Node8</title>
<g id="a_node8"><a xlink:href="classid_vec4.html" target="_top" xlink:title="idVec4">
<polygon fill="white" stroke="black" points="308.5,-294.5 308.5,-313.5 355.5,-313.5 355.5,-294.5 308.5,-294.5"/>
<text text-anchor="middle" x="332" y="-301.5" font-family="Arial" font-size="10.00">idVec4</text>
</a>
</g>
</g>
<!-- Node8&#45;&gt;Node7 -->
<g id="edge10" class="edge"><title>Node8&#45;&gt;Node7</title>
<path fill="none" stroke="#9a32cd" stroke-dasharray="5,2" d="M332,-284.143C332,-263.915 332,-232.678 332,-217.654"/>
<polygon fill="#9a32cd" stroke="#9a32cd" points="328.5,-284.325 332,-294.325 335.5,-284.325 328.5,-284.325"/>
<text text-anchor="middle" x="341.5" y="-256.5" font-family="Arial" font-size="10.00"> xyz</text>
</g>
<!-- Node9 -->
<g id="node9" class="node"><title>Node9</title>
<g id="a_node9"><a xlink:href="classid_bounds.html" target="_top" xlink:title="idBounds">
<polygon fill="white" stroke="black" points="394.5,-198.5 394.5,-217.5 451.5,-217.5 451.5,-198.5 394.5,-198.5"/>
<text text-anchor="middle" x="423" y="-205.5" font-family="Arial" font-size="10.00">idBounds</text>
</a>
</g>
</g>
<!-- Node9&#45;&gt;Node4 -->
<g id="edge11" class="edge"><title>Node9&#45;&gt;Node4</title>
<path fill="none" stroke="#9a32cd" stroke-dasharray="5,2" d="M422.295,-187.925C420.67,-170.728 415.709,-145.784 401,-130 390.914,-119.177 376.315,-112.527 362.535,-108.445"/>
<polygon fill="#9a32cd" stroke="#9a32cd" points="418.833,-188.631 422.967,-198.386 425.819,-188.182 418.833,-188.631"/>
<text text-anchor="middle" x="438.5" y="-149.5" font-family="Arial" font-size="10.00"> bounds</text>
</g>
<!-- Node10 -->
<g id="node10" class="node"><title>Node10</title>
<g id="a_node10"><a xlink:href="classid_draw_vert.html" target="_top" xlink:title="idDrawVert">
<polygon fill="white" stroke="black" points="470,-198.5 470,-217.5 534,-217.5 534,-198.5 470,-198.5"/>
<text text-anchor="middle" x="502" y="-205.5" font-family="Arial" font-size="10.00">idDrawVert</text>
</a>
</g>
</g>
<!-- Node10&#45;&gt;Node4 -->
<g id="edge12" class="edge"><title>Node10&#45;&gt;Node4</title>
<path fill="none" stroke="#9a32cd" stroke-dasharray="5,2" d="M496.861,-188.417C490.949,-170.62 479.46,-144.406 460,-130 431.906,-109.203 392.006,-102.982 362.687,-101.497"/>
<polygon fill="#9a32cd" stroke="#9a32cd" points="493.587,-189.68 499.843,-198.23 500.284,-187.645 493.587,-189.68"/>
<text text-anchor="middle" x="504" y="-149.5" font-family="Arial" font-size="10.00"> verts</text>
</g>
<!-- Node11 -->
<g id="node11" class="node"><title>Node11</title>
<g id="a_node11"><a xlink:href="classid_vec2.html" target="_top" xlink:title="idVec2">
<polygon fill="white" stroke="black" points="445.5,-294.5 445.5,-313.5 492.5,-313.5 492.5,-294.5 445.5,-294.5"/>
<text text-anchor="middle" x="469" y="-301.5" font-family="Arial" font-size="10.00">idVec2</text>
</a>
</g>
</g>
<!-- Node11&#45;&gt;Node10 -->
<g id="edge13" class="edge"><title>Node11&#45;&gt;Node10</title>
<path fill="none" stroke="#9a32cd" stroke-dasharray="5,2" d="M475.423,-284.704C482.517,-264.497 493.638,-232.818 498.962,-217.654"/>
<polygon fill="#9a32cd" stroke="#9a32cd" points="472.056,-283.73 472.045,-294.325 478.66,-286.049 472.056,-283.73"/>
<text text-anchor="middle" x="497" y="-256.5" font-family="Arial" font-size="10.00"> st</text>
</g>
<!-- Node12 -->
<g id="node12" class="node"><title>Node12</title>
<g id="a_node12"><a xlink:href="classid_vec3.html" target="_top" xlink:title="idVec3">
<polygon fill="white" stroke="black" points="510.5,-294.5 510.5,-313.5 557.5,-313.5 557.5,-294.5 510.5,-294.5"/>
<text text-anchor="middle" x="534" y="-301.5" font-family="Arial" font-size="10.00">idVec3</text>
</a>
</g>
</g>
<!-- Node12&#45;&gt;Node10 -->
<g id="edge14" class="edge"><title>Node12&#45;&gt;Node10</title>
<path fill="none" stroke="#9a32cd" stroke-dasharray="5,2" d="M527.772,-284.704C520.893,-264.497 510.108,-232.818 504.946,-217.654"/>
<polygon fill="#9a32cd" stroke="#9a32cd" points="524.511,-285.987 531.047,-294.325 531.137,-283.731 524.511,-285.987"/>
<text text-anchor="middle" x="544" y="-267.5" font-family="Arial" font-size="10.00"> xyz</text>
<text text-anchor="middle" x="544" y="-256.5" font-family="Arial" font-size="10.00">normal</text>
<text text-anchor="middle" x="544" y="-245.5" font-family="Arial" font-size="10.00">tangents</text>
</g>
<!-- Node13 -->
<g id="node13" class="node"><title>Node13</title>
<g id="a_node13"><a xlink:href="structdominant_tri__s.html" target="_top" xlink:title="dominantTri_s">
<polygon fill="white" stroke="black" points="552.5,-198.5 552.5,-217.5 629.5,-217.5 629.5,-198.5 552.5,-198.5"/>
<text text-anchor="middle" x="591" y="-205.5" font-family="Arial" font-size="10.00">dominantTri_s</text>
</a>
</g>
</g>
<!-- Node13&#45;&gt;Node4 -->
<g id="edge15" class="edge"><title>Node13&#45;&gt;Node4</title>
<path fill="none" stroke="#9a32cd" stroke-dasharray="5,2" d="M580.197,-189.523C567.979,-171.404 546.317,-143.832 520,-130 493.453,-116.047 412.029,-108.106 362.875,-104.464"/>
<polygon fill="#9a32cd" stroke="#9a32cd" points="577.325,-191.526 585.701,-198.014 583.199,-187.719 577.325,-191.526"/>
<text text-anchor="middle" x="597.5" y="-149.5" font-family="Arial" font-size="10.00"> dominantTris</text>
</g>
<!-- Node14 -->
<g id="node14" class="node"><title>Node14</title>
<g id="a_node14"><a xlink:href="classid_material.html" target="_top" xlink:title="idMaterial">
<polygon fill="white" stroke="black" points="555.5,-91.5 555.5,-110.5 614.5,-110.5 614.5,-91.5 555.5,-91.5"/>
<text text-anchor="middle" x="585" y="-98.5" font-family="Arial" font-size="10.00">idMaterial</text>
</a>
</g>
</g>
<!-- Node14&#45;&gt;Node1 -->
<g id="edge16" class="edge"><title>Node14&#45;&gt;Node1</title>
<path fill="none" stroke="#9a32cd" stroke-dasharray="5,2" d="M550.264,-88.1553C496.833,-69.9353 395.759,-35.4695 348.95,-19.5079"/>
<polygon fill="#9a32cd" stroke="#9a32cd" points="549.38,-91.5515 559.974,-91.4663 551.639,-84.9261 549.38,-91.5515"/>
<text text-anchor="middle" x="517.5" y="-52.5" font-family="Arial" font-size="10.00"> shader</text>
</g>
<!-- Node15 -->
<g id="node15" class="node"><title>Node15</title>
<g id="a_node15"><a xlink:href="classid_decl.html" target="_top" xlink:title="idDecl">
<polygon fill="white" stroke="black" points="648,-198.5 648,-217.5 692,-217.5 692,-198.5 648,-198.5"/>
<text text-anchor="middle" x="670" y="-205.5" font-family="Arial" font-size="10.00">idDecl</text>
</a>
</g>
</g>
<!-- Node15&#45;&gt;Node14 -->
<g id="edge17" class="edge"><title>Node15&#45;&gt;Node14</title>
<path fill="none" stroke="midnightblue" d="M670.517,-187.881C669.975,-170.847 666.594,-146.181 653,-130 643.309,-118.465 628.105,-111.615 614.528,-107.582"/>
<polygon fill="midnightblue" stroke="midnightblue" points="667.017,-188.26 670.529,-198.256 674.017,-188.252 667.017,-188.26"/>
</g>
<!-- Node16 -->
<g id="node16" class="node"><title>Node16</title>
<g id="a_node16"><a xlink:href="classid_decl_base.html" target="_top" xlink:title="idDeclBase">
<polygon fill="white" stroke="black" points="637,-294.5 637,-313.5 703,-313.5 703,-294.5 637,-294.5"/>
<text text-anchor="middle" x="670" y="-301.5" font-family="Arial" font-size="10.00">idDeclBase</text>
</a>
</g>
</g>
<!-- Node16&#45;&gt;Node15 -->
<g id="edge18" class="edge"><title>Node16&#45;&gt;Node15</title>
<path fill="none" stroke="#9a32cd" stroke-dasharray="5,2" d="M670,-284.143C670,-263.915 670,-232.678 670,-217.654"/>
<polygon fill="#9a32cd" stroke="#9a32cd" points="666.5,-284.325 670,-294.325 673.5,-284.325 666.5,-284.325"/>
<text text-anchor="middle" x="682.5" y="-256.5" font-family="Arial" font-size="10.00"> base</text>
</g>
</g>
</svg>
