<?xml version="1.0" encoding="UTF-8" standalone="no"?>
<!DOCTYPE svg PUBLIC "-//W3C//DTD SVG 1.1//EN"
 "http://www.w3.org/Graphics/SVG/1.1/DTD/svg11.dtd">
<!-- Generated by graphviz version 2.34.0 (20130907.0111)
 -->
<!-- Title: st_lwClip Pages: 1 -->
<svg width="362pt" height="265pt"
 viewBox="0.00 0.00 362.00 265.00" xmlns="http://www.w3.org/2000/svg" xmlns:xlink="http://www.w3.org/1999/xlink">
<g id="graph0" class="graph" transform="scale(1 1) rotate(0) translate(4 261)">
<title>st_lwClip</title>
<polygon fill="white" stroke="white" points="-4,4 -4,-261 358,-261 358,4 -4,4"/>
<!-- Node1 -->
<g id="node1" class="node"><title>Node1</title>
<polygon fill="#bfbfbf" stroke="black" points="166,-138.5 166,-157.5 222,-157.5 222,-138.5 166,-138.5"/>
<text text-anchor="middle" x="194" y="-145.5" font-family="Arial" font-size="10.00">st_lwClip</text>
</g>
<!-- Node1&#45;&gt;Node1 -->
<g id="edge10" class="edge"><title>Node1&#45;&gt;Node1</title>
<path fill="none" stroke="#9a32cd" stroke-dasharray="5,2" d="M183.687,-167.766C184.497,-172.497 187.935,-176 194,-176 203.953,-176 206.83,-166.565 202.631,-157.757"/>
<polygon fill="#9a32cd" stroke="#9a32cd" points="187.164,-168.199 185.369,-157.757 180.26,-167.039 187.164,-168.199"/>
<text text-anchor="middle" x="194" y="-190" font-family="Arial" font-size="10.00"> prev</text>
<text text-anchor="middle" x="194" y="-179" font-family="Arial" font-size="10.00">next</text>
</g>
<!-- Node5 -->
<g id="node5" class="node"><title>Node5</title>
<g id="a_node5"><a xlink:href="structst__lw_clip_x_ref.html" target="_top" xlink:title="st_lwClipXRef">
<polygon fill="white" stroke="black" points="278.5,-138.5 278.5,-157.5 353.5,-157.5 353.5,-138.5 278.5,-138.5"/>
<text text-anchor="middle" x="316" y="-145.5" font-family="Arial" font-size="10.00">st_lwClipXRef</text>
</a>
</g>
</g>
<!-- Node1&#45;&gt;Node5 -->
<g id="edge5" class="edge"><title>Node1&#45;&gt;Node5</title>
<path fill="none" stroke="#9a32cd" stroke-dasharray="5,2" d="M232.445,-148C247.066,-148 263.778,-148 278.324,-148"/>
<polygon fill="#9a32cd" stroke="#9a32cd" points="232.23,-144.5 222.23,-148 232.23,-151.5 232.23,-144.5"/>
<text text-anchor="middle" x="250" y="-151" font-family="Arial" font-size="10.00"> clip</text>
</g>
<!-- Node2 -->
<g id="node2" class="node"><title>Node2</title>
<g id="a_node2"><a xlink:href="structst__lw_clip_seq.html" target="_top" xlink:title="st_lwClipSeq">
<polygon fill="white" stroke="black" points="3.5,-237.5 3.5,-256.5 76.5,-256.5 76.5,-237.5 3.5,-237.5"/>
<text text-anchor="middle" x="40" y="-244.5" font-family="Arial" font-size="10.00">st_lwClipSeq</text>
</a>
</g>
</g>
<!-- Node2&#45;&gt;Node1 -->
<g id="edge1" class="edge"><title>Node2&#45;&gt;Node1</title>
<path fill="none" stroke="#9a32cd" stroke-dasharray="5,2" d="M86.7006,-237.219C106.849,-231.354 129.986,-222.363 148,-209 166.814,-195.044 181.22,-171.005 188.253,-157.651"/>
<polygon fill="#9a32cd" stroke="#9a32cd" points="85.5064,-233.917 76.7835,-239.931 87.3526,-240.669 85.5064,-233.917"/>
<text text-anchor="middle" x="123" y="-236" font-family="Arial" font-size="10.00"> seq</text>
</g>
<!-- Node3 -->
<g id="node3" class="node"><title>Node3</title>
<g id="a_node3"><a xlink:href="structst__lw_clip_still.html" target="_top" xlink:title="st_lwClipStill">
<polygon fill="white" stroke="black" points="4,-199.5 4,-218.5 76,-218.5 76,-199.5 4,-199.5"/>
<text text-anchor="middle" x="40" y="-206.5" font-family="Arial" font-size="10.00">st_lwClipStill</text>
</a>
</g>
</g>
<!-- Node3&#45;&gt;Node1 -->
<g id="edge2" class="edge"><title>Node3&#45;&gt;Node1</title>
<path fill="none" stroke="#9a32cd" stroke-dasharray="5,2" d="M85.989,-198.574C105.511,-193.286 128.353,-186.047 148,-177 159.481,-171.713 171.464,-163.859 180.175,-157.657"/>
<polygon fill="#9a32cd" stroke="#9a32cd" points="84.9035,-195.24 76.1174,-201.161 86.6781,-202.012 84.9035,-195.24"/>
<text text-anchor="middle" x="123" y="-197" font-family="Arial" font-size="10.00"> still</text>
</g>
<!-- Node4 -->
<g id="node4" class="node"><title>Node4</title>
<g id="a_node4"><a xlink:href="structst__lw_clip_anim.html" target="_top" xlink:title="st_lwClipAnim">
<polygon fill="white" stroke="black" points="1,-161.5 1,-180.5 79,-180.5 79,-161.5 1,-161.5"/>
<text text-anchor="middle" x="40" y="-168.5" font-family="Arial" font-size="10.00">st_lwClipAnim</text>
</a>
</g>
</g>
<!-- Node4&#45;&gt;Node1 -->
<g id="edge3" class="edge"><title>Node4&#45;&gt;Node1</title>
<path fill="none" stroke="#9a32cd" stroke-dasharray="5,2" d="M89.4682,-163.666C114.661,-159.854 144.52,-155.336 165.683,-152.134"/>
<polygon fill="#9a32cd" stroke="#9a32cd" points="88.7198,-160.239 79.356,-165.196 89.7671,-167.161 88.7198,-160.239"/>
<text text-anchor="middle" x="123" y="-165" font-family="Arial" font-size="10.00"> anim</text>
</g>
<!-- Node5&#45;&gt;Node1 -->
<g id="edge4" class="edge"><title>Node5&#45;&gt;Node1</title>
<path fill="none" stroke="#9a32cd" stroke-dasharray="5,2" d="M282.54,-135.566C269.381,-131.967 254.01,-129.583 240,-132 232.319,-133.325 224.212,-135.834 217.027,-138.479"/>
<polygon fill="#9a32cd" stroke="#9a32cd" points="281.527,-138.916 292.113,-138.496 283.576,-132.222 281.527,-138.916"/>
<text text-anchor="middle" x="250" y="-135" font-family="Arial" font-size="10.00"> xref</text>
</g>
<!-- Node6 -->
<g id="node6" class="node"><title>Node6</title>
<g id="a_node6"><a xlink:href="structst__lw_plugin.html" target="_top" xlink:title="st_lwPlugin">
<polygon fill="white" stroke="black" points="7,-83.5 7,-102.5 73,-102.5 73,-83.5 7,-83.5"/>
<text text-anchor="middle" x="40" y="-90.5" font-family="Arial" font-size="10.00">st_lwPlugin</text>
</a>
</g>
</g>
<!-- Node6&#45;&gt;Node1 -->
<g id="edge6" class="edge"><title>Node6&#45;&gt;Node1</title>
<path fill="none" stroke="#9a32cd" stroke-dasharray="5,2" d="M81.4388,-105.813C101.571,-112.392 126.205,-120.746 148,-129 155.613,-131.883 163.845,-135.276 171.16,-138.391"/>
<polygon fill="#9a32cd" stroke="#9a32cd" points="82.2475,-102.396 71.6555,-102.639 80.0874,-109.054 82.2475,-102.396"/>
<text text-anchor="middle" x="123" y="-143" font-family="Arial" font-size="10.00"> ifilter</text>
<text text-anchor="middle" x="123" y="-132" font-family="Arial" font-size="10.00">pfilter</text>
</g>
<!-- Node6&#45;&gt;Node6 -->
<g id="edge7" class="edge"><title>Node6&#45;&gt;Node6</title>
<path fill="none" stroke="#9a32cd" stroke-dasharray="5,2" d="M24.8992,-112.766C26.0852,-117.497 31.1188,-121 40,-121 54.5742,-121 58.7871,-111.565 52.6386,-102.757"/>
<polygon fill="#9a32cd" stroke="#9a32cd" points="28.3713,-113.304 27.3614,-102.757 21.5739,-111.631 28.3713,-113.304"/>
<text text-anchor="middle" x="40" y="-135" font-family="Arial" font-size="10.00"> prev</text>
<text text-anchor="middle" x="40" y="-124" font-family="Arial" font-size="10.00">next</text>
</g>
<!-- Node7 -->
<g id="node7" class="node"><title>Node7</title>
<g id="a_node7"><a xlink:href="structst__lw_e_param.html" target="_top" xlink:title="st_lwEParam">
<polygon fill="white" stroke="black" points="3,-38.5 3,-57.5 77,-57.5 77,-38.5 3,-38.5"/>
<text text-anchor="middle" x="40" y="-45.5" font-family="Arial" font-size="10.00">st_lwEParam</text>
</a>
</g>
</g>
<!-- Node7&#45;&gt;Node1 -->
<g id="edge8" class="edge"><title>Node7&#45;&gt;Node1</title>
<path fill="none" stroke="#9a32cd" stroke-dasharray="5,2" d="M87.052,-39.5192C107.27,-38.2346 130.366,-40.3223 148,-52 178.233,-72.021 188.584,-118.078 191.749,-138.243"/>
<polygon fill="#9a32cd" stroke="#9a32cd" points="86.7309,-36.0338 77.0908,-40.4291 87.3677,-43.0048 86.7309,-36.0338"/>
<text text-anchor="middle" x="123" y="-99" font-family="Arial" font-size="10.00"> brightness</text>
<text text-anchor="middle" x="123" y="-88" font-family="Arial" font-size="10.00">gamma</text>
<text text-anchor="middle" x="123" y="-77" font-family="Arial" font-size="10.00">hue</text>
<text text-anchor="middle" x="123" y="-66" font-family="Arial" font-size="10.00">contrast</text>
<text text-anchor="middle" x="123" y="-55" font-family="Arial" font-size="10.00">saturation</text>
</g>
<!-- Node8 -->
<g id="node8" class="node"><title>Node8</title>
<g id="a_node8"><a xlink:href="structst__lw_clip_cycle.html" target="_top" xlink:title="st_lwClipCycle">
<polygon fill="white" stroke="black" points="0,-0.5 0,-19.5 80,-19.5 80,-0.5 0,-0.5"/>
<text text-anchor="middle" x="40" y="-7.5" font-family="Arial" font-size="10.00">st_lwClipCycle</text>
</a>
</g>
</g>
<!-- Node8&#45;&gt;Node1 -->
<g id="edge9" class="edge"><title>Node8&#45;&gt;Node1</title>
<path fill="none" stroke="#9a32cd" stroke-dasharray="5,2" d="M90.3407,-5.89226C110.143,-6.7469 132.013,-11.167 148,-24 184.433,-53.2452 191.377,-114.622 192.694,-138.35"/>
<polygon fill="#9a32cd" stroke="#9a32cd" points="90.2658,-2.39089 80.2159,-5.74468 90.1638,-9.39015 90.2658,-2.39089"/>
<text text-anchor="middle" x="123" y="-27" font-family="Arial" font-size="10.00"> cycle</text>
</g>
</g>
</svg>
