<?xml version="1.0" encoding="UTF-8" standalone="no"?>
<!DOCTYPE svg PUBLIC "-//W3C//DTD SVG 1.1//EN"
 "http://www.w3.org/Graphics/SVG/1.1/DTD/svg11.dtd">
<!-- Generated by graphviz version 2.34.0 (20130907.0111)
 -->
<!-- Title: decalProjectionInfo_s Pages: 1 -->
<svg width="354pt" height="244pt"
 viewBox="0.00 0.00 354.00 244.00" xmlns="http://www.w3.org/2000/svg" xmlns:xlink="http://www.w3.org/1999/xlink">
<g id="graph0" class="graph" transform="scale(1 1) rotate(0) translate(4 240)">
<title>decalProjectionInfo_s</title>
<polygon fill="white" stroke="white" points="-4,4 -4,-240 350,-240 350,4 -4,4"/>
<!-- Node1 -->
<g id="node1" class="node"><title>Node1</title>
<polygon fill="#bfbfbf" stroke="black" points="113.5,-0.5 113.5,-19.5 222.5,-19.5 222.5,-0.5 113.5,-0.5"/>
<text text-anchor="middle" x="168" y="-7.5" font-family="Arial" font-size="10.00">decalProjectionInfo_s</text>
</g>
<!-- Node2 -->
<g id="node2" class="node"><title>Node2</title>
<g id="a_node2"><a xlink:href="classid_plane.html" target="_top" xlink:title="idPlane">
<polygon fill="white" stroke="black" points="-0.5,-90.5 -0.5,-109.5 48.5,-109.5 48.5,-90.5 -0.5,-90.5"/>
<text text-anchor="middle" x="24" y="-97.5" font-family="Arial" font-size="10.00">idPlane</text>
</a>
</g>
</g>
<!-- Node2&#45;&gt;Node1 -->
<g id="edge1" class="edge"><title>Node2&#45;&gt;Node1</title>
<path fill="none" stroke="#9a32cd" stroke-dasharray="5,2" d="M22.9468,-79.9838C23.2771,-66.4655 26.0768,-48.8502 37,-38 47.8734,-27.1994 82.3624,-20.3584 113.223,-16.2653"/>
<polygon fill="#9a32cd" stroke="#9a32cd" points="19.4499,-80.2005 23.1259,-90.1371 26.4488,-80.0769 19.4499,-80.2005"/>
<text text-anchor="middle" x="72" y="-63.5" font-family="Arial" font-size="10.00"> textureAxis</text>
<text text-anchor="middle" x="72" y="-52.5" font-family="Arial" font-size="10.00">boundingPlanes</text>
<text text-anchor="middle" x="72" y="-41.5" font-family="Arial" font-size="10.00">fadePlanes</text>
</g>
<!-- Node3 -->
<g id="node3" class="node"><title>Node3</title>
<g id="a_node3"><a xlink:href="classid_bounds.html" target="_top" xlink:title="idBounds">
<polygon fill="white" stroke="black" points="88.5,-90.5 88.5,-109.5 145.5,-109.5 145.5,-90.5 88.5,-90.5"/>
<text text-anchor="middle" x="117" y="-97.5" font-family="Arial" font-size="10.00">idBounds</text>
</a>
</g>
</g>
<!-- Node3&#45;&gt;Node1 -->
<g id="edge2" class="edge"><title>Node3&#45;&gt;Node1</title>
<path fill="none" stroke="#9a32cd" stroke-dasharray="5,2" d="M112.654,-80.3666C110.718,-67.5374 110.343,-50.6015 118,-38 123.072,-29.6535 131.698,-23.7246 140.372,-19.5916"/>
<polygon fill="#9a32cd" stroke="#9a32cd" points="109.254,-81.2207 114.594,-90.3714 116.126,-79.8879 109.254,-81.2207"/>
<text text-anchor="middle" x="157.5" y="-52.5" font-family="Arial" font-size="10.00"> projectionBounds</text>
</g>
<!-- Node4 -->
<g id="node4" class="node"><title>Node4</title>
<g id="a_node4"><a xlink:href="classid_vec3.html" target="_top" xlink:title="idVec3">
<polygon fill="white" stroke="black" points="195.5,-90.5 195.5,-109.5 242.5,-109.5 242.5,-90.5 195.5,-90.5"/>
<text text-anchor="middle" x="219" y="-97.5" font-family="Arial" font-size="10.00">idVec3</text>
</a>
</g>
</g>
<!-- Node4&#45;&gt;Node1 -->
<g id="edge3" class="edge"><title>Node4&#45;&gt;Node1</title>
<path fill="none" stroke="#9a32cd" stroke-dasharray="5,2" d="M214.718,-80.24C211.258,-67.598 205.541,-50.9336 197,-38 192.375,-30.9967 185.572,-24.5364 179.718,-19.6921"/>
<polygon fill="#9a32cd" stroke="#9a32cd" points="211.368,-81.2693 217.193,-90.1193 218.158,-79.5686 211.368,-81.2693"/>
<text text-anchor="middle" x="247.5" y="-52.5" font-family="Arial" font-size="10.00"> projectionOrigin</text>
</g>
<!-- Node5 -->
<g id="node5" class="node"><title>Node5</title>
<g id="a_node5"><a xlink:href="classid_material.html" target="_top" xlink:title="idMaterial">
<polygon fill="white" stroke="black" points="283.5,-90.5 283.5,-109.5 342.5,-109.5 342.5,-90.5 283.5,-90.5"/>
<text text-anchor="middle" x="313" y="-97.5" font-family="Arial" font-size="10.00">idMaterial</text>
</a>
</g>
</g>
<!-- Node5&#45;&gt;Node1 -->
<g id="edge4" class="edge"><title>Node5&#45;&gt;Node1</title>
<path fill="none" stroke="#9a32cd" stroke-dasharray="5,2" d="M309.816,-80.6264C306.472,-66.8922 299.832,-48.7099 287,-38 269.109,-23.068 244.622,-15.9831 222.511,-12.7587"/>
<polygon fill="#9a32cd" stroke="#9a32cd" points="306.396,-81.3739 311.846,-90.4595 313.251,-79.9583 306.396,-81.3739"/>
<text text-anchor="middle" x="326" y="-52.5" font-family="Arial" font-size="10.00"> material</text>
</g>
<!-- Node6 -->
<g id="node6" class="node"><title>Node6</title>
<g id="a_node6"><a xlink:href="classid_decl.html" target="_top" xlink:title="idDecl">
<polygon fill="white" stroke="black" points="291,-148.5 291,-167.5 335,-167.5 335,-148.5 291,-148.5"/>
<text text-anchor="middle" x="313" y="-155.5" font-family="Arial" font-size="10.00">idDecl</text>
</a>
</g>
</g>
<!-- Node6&#45;&gt;Node5 -->
<g id="edge5" class="edge"><title>Node6&#45;&gt;Node5</title>
<path fill="none" stroke="midnightblue" d="M313,-137.953C313,-128.287 313,-117.031 313,-109.505"/>
<polygon fill="midnightblue" stroke="midnightblue" points="309.5,-138.25 313,-148.25 316.5,-138.25 309.5,-138.25"/>
</g>
<!-- Node7 -->
<g id="node7" class="node"><title>Node7</title>
<g id="a_node7"><a xlink:href="classid_decl_base.html" target="_top" xlink:title="idDeclBase">
<polygon fill="white" stroke="black" points="280,-216.5 280,-235.5 346,-235.5 346,-216.5 280,-216.5"/>
<text text-anchor="middle" x="313" y="-223.5" font-family="Arial" font-size="10.00">idDeclBase</text>
</a>
</g>
</g>
<!-- Node7&#45;&gt;Node6 -->
<g id="edge6" class="edge"><title>Node7&#45;&gt;Node6</title>
<path fill="none" stroke="#9a32cd" stroke-dasharray="5,2" d="M313,-206.041C313,-193.472 313,-177.563 313,-167.841"/>
<polygon fill="#9a32cd" stroke="#9a32cd" points="309.5,-206.372 313,-216.372 316.5,-206.372 309.5,-206.372"/>
<text text-anchor="middle" x="325.5" y="-189.5" font-family="Arial" font-size="10.00"> base</text>
</g>
</g>
</svg>
