<?xml version="1.0" encoding="UTF-8" standalone="no"?>
<!DOCTYPE svg PUBLIC "-//W3C//DTD SVG 1.1//EN"
 "http://www.w3.org/Graphics/SVG/1.1/DTD/svg11.dtd">
<!-- Generated by graphviz version 2.34.0 (20130907.0111)
 -->
<!-- Title: skinMapping_t Pages: 1 -->
<svg width="88pt" height="232pt"
 viewBox="0.00 0.00 88.00 232.00" xmlns="http://www.w3.org/2000/svg" xmlns:xlink="http://www.w3.org/1999/xlink">
<g id="graph0" class="graph" transform="scale(1 1) rotate(0) translate(4 228)">
<title>skinMapping_t</title>
<polygon fill="white" stroke="white" points="-4,4 -4,-228 84,-228 84,4 -4,4"/>
<!-- Node1 -->
<g id="node1" class="node"><title>Node1</title>
<polygon fill="#bfbfbf" stroke="black" points="0,-0.5 0,-19.5 80,-19.5 80,-0.5 0,-0.5"/>
<text text-anchor="middle" x="40" y="-7.5" font-family="Arial" font-size="10.00">skinMapping_t</text>
</g>
<!-- Node2 -->
<g id="node2" class="node"><title>Node2</title>
<g id="a_node2"><a xlink:href="classid_material.html" target="_top" xlink:title="idMaterial">
<polygon fill="white" stroke="black" points="10.5,-78.5 10.5,-97.5 69.5,-97.5 69.5,-78.5 10.5,-78.5"/>
<text text-anchor="middle" x="40" y="-85.5" font-family="Arial" font-size="10.00">idMaterial</text>
</a>
</g>
</g>
<!-- Node2&#45;&gt;Node1 -->
<g id="edge1" class="edge"><title>Node2&#45;&gt;Node1</title>
<path fill="none" stroke="#9a32cd" stroke-dasharray="5,2" d="M40,-68.2239C40,-52.6974 40,-31.3582 40,-19.6165"/>
<polygon fill="#9a32cd" stroke="#9a32cd" points="36.5001,-68.2818 40,-78.2818 43.5001,-68.2819 36.5001,-68.2818"/>
<text text-anchor="middle" x="51" y="-52" font-family="Arial" font-size="10.00"> from</text>
<text text-anchor="middle" x="51" y="-41" font-family="Arial" font-size="10.00">to</text>
</g>
<!-- Node3 -->
<g id="node3" class="node"><title>Node3</title>
<g id="a_node3"><a xlink:href="classid_decl.html" target="_top" xlink:title="idDecl">
<polygon fill="white" stroke="black" points="18,-136.5 18,-155.5 62,-155.5 62,-136.5 18,-136.5"/>
<text text-anchor="middle" x="40" y="-143.5" font-family="Arial" font-size="10.00">idDecl</text>
</a>
</g>
</g>
<!-- Node3&#45;&gt;Node2 -->
<g id="edge2" class="edge"><title>Node3&#45;&gt;Node2</title>
<path fill="none" stroke="midnightblue" d="M40,-125.953C40,-116.287 40,-105.031 40,-97.5052"/>
<polygon fill="midnightblue" stroke="midnightblue" points="36.5001,-126.25 40,-136.25 43.5001,-126.25 36.5001,-126.25"/>
</g>
<!-- Node4 -->
<g id="node4" class="node"><title>Node4</title>
<g id="a_node4"><a xlink:href="classid_decl_base.html" target="_top" xlink:title="idDeclBase">
<polygon fill="white" stroke="black" points="7,-204.5 7,-223.5 73,-223.5 73,-204.5 7,-204.5"/>
<text text-anchor="middle" x="40" y="-211.5" font-family="Arial" font-size="10.00">idDeclBase</text>
</a>
</g>
</g>
<!-- Node4&#45;&gt;Node3 -->
<g id="edge3" class="edge"><title>Node4&#45;&gt;Node3</title>
<path fill="none" stroke="#9a32cd" stroke-dasharray="5,2" d="M40,-194.041C40,-181.472 40,-165.563 40,-155.841"/>
<polygon fill="#9a32cd" stroke="#9a32cd" points="36.5001,-194.372 40,-204.372 43.5001,-194.372 36.5001,-194.372"/>
<text text-anchor="middle" x="52.5" y="-177.5" font-family="Arial" font-size="10.00"> base</text>
</g>
</g>
</svg>
