<?xml version="1.0" encoding="UTF-8" standalone="no"?>
<!DOCTYPE svg PUBLIC "-//W3C//DTD SVG 1.1//EN"
 "http://www.w3.org/Graphics/SVG/1.1/DTD/svg11.dtd">
<!-- Generated by graphviz version 2.34.0 (20130907.0111)
 -->
<!-- Title: _EAXREVERBPROPERTIES Pages: 1 -->
<svg width="150pt" height="106pt"
 viewBox="0.00 0.00 150.00 106.00" xmlns="http://www.w3.org/2000/svg" xmlns:xlink="http://www.w3.org/1999/xlink">
<g id="graph0" class="graph" transform="scale(1 1) rotate(0) translate(4 102)">
<title>_EAXREVERBPROPERTIES</title>
<polygon fill="white" stroke="white" points="-4,4 -4,-102 146,-102 146,4 -4,4"/>
<!-- Node1 -->
<g id="node1" class="node"><title>Node1</title>
<polygon fill="#bfbfbf" stroke="black" points="-0.5,-0.5 -0.5,-19.5 142.5,-19.5 142.5,-0.5 -0.5,-0.5"/>
<text text-anchor="middle" x="71" y="-7.5" font-family="Arial" font-size="10.00">_EAXREVERBPROPERTIES</text>
</g>
<!-- Node2 -->
<g id="node2" class="node"><title>Node2</title>
<g id="a_node2"><a xlink:href="struct___e_a_x_v_e_c_t_o_r.html" target="_top" xlink:title="_EAXVECTOR">
<polygon fill="white" stroke="black" points="31,-78.5 31,-97.5 111,-97.5 111,-78.5 31,-78.5"/>
<text text-anchor="middle" x="71" y="-85.5" font-family="Arial" font-size="10.00">_EAXVECTOR</text>
</a>
</g>
</g>
<!-- Node2&#45;&gt;Node1 -->
<g id="edge1" class="edge"><title>Node2&#45;&gt;Node1</title>
<path fill="none" stroke="#9a32cd" stroke-dasharray="5,2" d="M71,-68.2239C71,-52.6974 71,-31.3582 71,-19.6165"/>
<polygon fill="#9a32cd" stroke="#9a32cd" points="67.5001,-68.2818 71,-78.2818 74.5001,-68.2819 67.5001,-68.2818"/>
<text text-anchor="middle" x="106" y="-52" font-family="Arial" font-size="10.00"> vReverbPan</text>
<text text-anchor="middle" x="106" y="-41" font-family="Arial" font-size="10.00">vReflectionsPan</text>
</g>
</g>
</svg>
