<?xml version="1.0" encoding="UTF-8" standalone="no"?>
<!DOCTYPE svg PUBLIC "-//W3C//DTD SVG 1.1//EN"
 "http://www.w3.org/Graphics/SVG/1.1/DTD/svg11.dtd">
<!-- Generated by graphviz version 2.34.0 (20130907.0111)
 -->
<!-- Title: st_lwPolygon Pages: 1 -->
<svg width="571pt" height="604pt"
 viewBox="0.00 0.00 571.00 604.00" xmlns="http://www.w3.org/2000/svg" xmlns:xlink="http://www.w3.org/1999/xlink">
<g id="graph0" class="graph" transform="scale(1 1) rotate(0) translate(4 600)">
<title>st_lwPolygon</title>
<polygon fill="white" stroke="white" points="-4,4 -4,-600 567,-600 567,4 -4,4"/>
<!-- Node1 -->
<g id="node1" class="node"><title>Node1</title>
<polygon fill="#bfbfbf" stroke="black" points="166,-0.5 166,-19.5 240,-19.5 240,-0.5 166,-0.5"/>
<text text-anchor="middle" x="203" y="-7.5" font-family="Arial" font-size="10.00">st_lwPolygon</text>
</g>
<!-- Node2 -->
<g id="node2" class="node"><title>Node2</title>
<g id="a_node2"><a xlink:href="structst__lw_pol_vert.html" target="_top" xlink:title="st_lwPolVert">
<polygon fill="white" stroke="black" points="82.5,-69.5 82.5,-88.5 153.5,-88.5 153.5,-69.5 82.5,-69.5"/>
<text text-anchor="middle" x="118" y="-76.5" font-family="Arial" font-size="10.00">st_lwPolVert</text>
</a>
</g>
</g>
<!-- Node2&#45;&gt;Node1 -->
<g id="edge1" class="edge"><title>Node2&#45;&gt;Node1</title>
<path fill="none" stroke="#9a32cd" stroke-dasharray="5,2" d="M137.243,-62.8319C154.215,-49.4543 178.336,-30.4411 192.154,-19.5494"/>
<polygon fill="#9a32cd" stroke="#9a32cd" points="134.799,-60.3017 129.112,-69.2409 139.133,-65.7992 134.799,-60.3017"/>
<text text-anchor="middle" x="172.5" y="-41.5" font-family="Arial" font-size="10.00"> v</text>
</g>
<!-- Node3 -->
<g id="node3" class="node"><title>Node3</title>
<g id="a_node3"><a xlink:href="structst__lw_v_map_pt.html" target="_top" xlink:title="st_lwVMapPt">
<polygon fill="white" stroke="black" points="6,-177.5 6,-196.5 80,-196.5 80,-177.5 6,-177.5"/>
<text text-anchor="middle" x="43" y="-184.5" font-family="Arial" font-size="10.00">st_lwVMapPt</text>
</a>
</g>
</g>
<!-- Node3&#45;&gt;Node2 -->
<g id="edge2" class="edge"><title>Node3&#45;&gt;Node2</title>
<path fill="none" stroke="#9a32cd" stroke-dasharray="5,2" d="M50.8942,-167.623C58.5027,-151.076 71.0442,-126.574 86,-108 91.8334,-100.755 99.6765,-93.8591 106.138,-88.7234"/>
<polygon fill="#9a32cd" stroke="#9a32cd" points="47.4979,-166.647 46.6309,-177.206 53.8936,-169.492 47.4979,-166.647"/>
<text text-anchor="middle" x="94" y="-116.5" font-family="Arial" font-size="10.00"> vm</text>
</g>
<!-- Node4 -->
<g id="node4" class="node"><title>Node4</title>
<g id="a_node4"><a xlink:href="structst__lw_v_map.html" target="_top" xlink:title="st_lwVMap">
<polygon fill="white" stroke="black" points="10.5,-283.5 10.5,-302.5 75.5,-302.5 75.5,-283.5 10.5,-283.5"/>
<text text-anchor="middle" x="43" y="-290.5" font-family="Arial" font-size="10.00">st_lwVMap</text>
</a>
</g>
</g>
<!-- Node4&#45;&gt;Node3 -->
<g id="edge3" class="edge"><title>Node4&#45;&gt;Node3</title>
<path fill="none" stroke="#9a32cd" stroke-dasharray="5,2" d="M43,-273.434C43,-250.774 43,-213.408 43,-196.628"/>
<polygon fill="#9a32cd" stroke="#9a32cd" points="39.5001,-273.489 43,-283.489 46.5001,-273.489 39.5001,-273.489"/>
<text text-anchor="middle" x="56" y="-251.5" font-family="Arial" font-size="10.00"> vmap</text>
</g>
<!-- Node4&#45;&gt;Node4 -->
<g id="edge4" class="edge"><title>Node4&#45;&gt;Node4</title>
<path fill="none" stroke="#9a32cd" stroke-dasharray="5,2" d="M85.791,-298.873C90.1888,-297.717 93,-295.759 93,-293 93,-288.473 85.4296,-286.103 75.7005,-285.891"/>
<polygon fill="#9a32cd" stroke="#9a32cd" points="85.2006,-295.419 75.7005,-300.109 86.0519,-302.367 85.2006,-295.419"/>
<text text-anchor="middle" x="103.5" y="-296" font-family="Arial" font-size="10.00"> prev</text>
<text text-anchor="middle" x="103.5" y="-285" font-family="Arial" font-size="10.00">next</text>
</g>
<!-- Node5 -->
<g id="node5" class="node"><title>Node5</title>
<g id="a_node5"><a xlink:href="structst__lw_surface.html" target="_top" xlink:title="st_lwSurface">
<polygon fill="white" stroke="black" points="225,-69.5 225,-88.5 297,-88.5 297,-69.5 225,-69.5"/>
<text text-anchor="middle" x="261" y="-76.5" font-family="Arial" font-size="10.00">st_lwSurface</text>
</a>
</g>
</g>
<!-- Node5&#45;&gt;Node1 -->
<g id="edge5" class="edge"><title>Node5&#45;&gt;Node1</title>
<path fill="none" stroke="#9a32cd" stroke-dasharray="5,2" d="M246.575,-61.337C235.09,-48.0697 219.484,-30.0414 210.401,-19.5494"/>
<polygon fill="#9a32cd" stroke="#9a32cd" points="244.226,-63.971 253.418,-69.2409 249.519,-59.3895 244.226,-63.971"/>
<text text-anchor="middle" x="245.5" y="-41.5" font-family="Arial" font-size="10.00"> surf</text>
</g>
<!-- Node5&#45;&gt;Node5 -->
<g id="edge19" class="edge"><title>Node5&#45;&gt;Node5</title>
<path fill="none" stroke="#9a32cd" stroke-dasharray="5,2" d="M307.208,-84.2561C311.961,-83.2215 315,-81.4695 315,-79 315,-75.0488 307.221,-72.9343 297.087,-72.6565"/>
<polygon fill="#9a32cd" stroke="#9a32cd" points="306.656,-80.7952 297.087,-85.3435 307.404,-87.7551 306.656,-80.7952"/>
<text text-anchor="middle" x="325.5" y="-82" font-family="Arial" font-size="10.00"> prev</text>
<text text-anchor="middle" x="325.5" y="-71" font-family="Arial" font-size="10.00">next</text>
</g>
<!-- Node6 -->
<g id="node6" class="node"><title>Node6</title>
<g id="a_node6"><a xlink:href="structst__lw_r_map.html" target="_top" xlink:title="st_lwRMap">
<polygon fill="white" stroke="black" points="159.5,-177.5 159.5,-196.5 224.5,-196.5 224.5,-177.5 159.5,-177.5"/>
<text text-anchor="middle" x="192" y="-184.5" font-family="Arial" font-size="10.00">st_lwRMap</text>
</a>
</g>
</g>
<!-- Node6&#45;&gt;Node5 -->
<g id="edge6" class="edge"><title>Node6&#45;&gt;Node5</title>
<path fill="none" stroke="#9a32cd" stroke-dasharray="5,2" d="M184.785,-167.519C179.449,-150.526 174.979,-125.401 187,-108 195.588,-95.5682 210.458,-88.6503 224.627,-84.8031"/>
<polygon fill="#9a32cd" stroke="#9a32cd" points="181.625,-169.083 188.252,-177.35 188.227,-166.755 181.625,-169.083"/>
<text text-anchor="middle" x="217" y="-122" font-family="Arial" font-size="10.00"> transparency</text>
<text text-anchor="middle" x="217" y="-111" font-family="Arial" font-size="10.00">reflection</text>
</g>
<!-- Node7 -->
<g id="node7" class="node"><title>Node7</title>
<g id="a_node7"><a xlink:href="structst__lw_t_param.html" target="_top" xlink:title="st_lwTParam">
<polygon fill="white" stroke="black" points="186.5,-283.5 186.5,-302.5 259.5,-302.5 259.5,-283.5 186.5,-283.5"/>
<text text-anchor="middle" x="223" y="-290.5" font-family="Arial" font-size="10.00">st_lwTParam</text>
</a>
</g>
</g>
<!-- Node7&#45;&gt;Node5 -->
<g id="edge27" class="edge"><title>Node7&#45;&gt;Node5</title>
<path fill="none" stroke="#9a32cd" stroke-dasharray="5,2" d="M230.078,-273.771C231.165,-270.548 232.193,-267.2 233,-264 249.75,-197.577 257.96,-114.982 260.287,-88.5516"/>
<polygon fill="#9a32cd" stroke="#9a32cd" points="226.738,-272.712 226.593,-283.306 233.313,-275.115 226.738,-272.712"/>
<text text-anchor="middle" x="282" y="-217.5" font-family="Arial" font-size="10.00"> bump</text>
<text text-anchor="middle" x="282" y="-206.5" font-family="Arial" font-size="10.00">glossiness</text>
<text text-anchor="middle" x="282" y="-195.5" font-family="Arial" font-size="10.00">luminosity</text>
<text text-anchor="middle" x="282" y="-184.5" font-family="Arial" font-size="10.00">translucency</text>
<text text-anchor="middle" x="282" y="-173.5" font-family="Arial" font-size="10.00">specularity</text>
<text text-anchor="middle" x="282" y="-162.5" font-family="Arial" font-size="10.00">diffuse</text>
<text text-anchor="middle" x="282" y="-151.5" font-family="Arial" font-size="10.00">eta</text>
</g>
<!-- Node7&#45;&gt;Node6 -->
<g id="edge7" class="edge"><title>Node7&#45;&gt;Node6</title>
<path fill="none" stroke="#9a32cd" stroke-dasharray="5,2" d="M217.558,-273.743C210.813,-251.116 199.596,-213.485 194.572,-196.628"/>
<polygon fill="#9a32cd" stroke="#9a32cd" points="214.252,-274.906 220.463,-283.489 220.961,-272.906 214.252,-274.906"/>
<text text-anchor="middle" x="221.5" y="-251.5" font-family="Arial" font-size="10.00"> val</text>
</g>
<!-- Node8 -->
<g id="node8" class="node"><title>Node8</title>
<g id="a_node8"><a xlink:href="structst__lw_texture.html" target="_top" xlink:title="st_lwTexture">
<polygon fill="white" stroke="black" points="187.5,-397.5 187.5,-416.5 258.5,-416.5 258.5,-397.5 187.5,-397.5"/>
<text text-anchor="middle" x="223" y="-404.5" font-family="Arial" font-size="10.00">st_lwTexture</text>
</a>
</g>
</g>
<!-- Node8&#45;&gt;Node7 -->
<g id="edge8" class="edge"><title>Node8&#45;&gt;Node7</title>
<path fill="none" stroke="#9a32cd" stroke-dasharray="5,2" d="M223,-387.009C223,-362.477 223,-320.786 223,-302.748"/>
<polygon fill="#9a32cd" stroke="#9a32cd" points="219.5,-387.212 223,-397.212 226.5,-387.212 219.5,-387.212"/>
<text text-anchor="middle" x="231.5" y="-347.5" font-family="Arial" font-size="10.00"> tex</text>
</g>
<!-- Node8&#45;&gt;Node8 -->
<g id="edge15" class="edge"><title>Node8&#45;&gt;Node8</title>
<path fill="none" stroke="#9a32cd" stroke-dasharray="5,2" d="M268.812,-412.757C273.212,-411.587 276,-409.668 276,-407 276,-402.621 268.493,-400.261 258.669,-399.918"/>
<polygon fill="#9a32cd" stroke="#9a32cd" points="268.132,-409.316 258.669,-414.082 269.038,-416.257 268.132,-409.316"/>
<text text-anchor="middle" x="286.5" y="-410" font-family="Arial" font-size="10.00"> prev</text>
<text text-anchor="middle" x="286.5" y="-399" font-family="Arial" font-size="10.00">next</text>
</g>
<!-- Node17 -->
<g id="node17" class="node"><title>Node17</title>
<g id="a_node17"><a xlink:href="structst__lw_c_param.html" target="_top" xlink:title="st_lwCParam">
<polygon fill="white" stroke="black" points="92,-244.5 92,-263.5 166,-263.5 166,-244.5 92,-244.5"/>
<text text-anchor="middle" x="129" y="-251.5" font-family="Arial" font-size="10.00">st_lwCParam</text>
</a>
</g>
</g>
<!-- Node8&#45;&gt;Node17 -->
<g id="edge23" class="edge"><title>Node8&#45;&gt;Node17</title>
<path fill="none" stroke="#9a32cd" stroke-dasharray="5,2" d="M210.068,-389.371C207.328,-385.68 204.509,-381.75 202,-378 174.111,-336.308 144.783,-283.829 133.651,-263.544"/>
<polygon fill="#9a32cd" stroke="#9a32cd" points="207.294,-391.504 216.131,-397.349 212.867,-387.269 207.294,-391.504"/>
<text text-anchor="middle" x="210.5" y="-347.5" font-family="Arial" font-size="10.00"> tex</text>
</g>
<!-- Node9 -->
<g id="node9" class="node"><title>Node9</title>
<g id="a_node9"><a xlink:href="structst__lw_procedural.html" target="_top" xlink:title="st_lwProcedural">
<polygon fill="white" stroke="black" points="87,-474.5 87,-493.5 173,-493.5 173,-474.5 87,-474.5"/>
<text text-anchor="middle" x="130" y="-481.5" font-family="Arial" font-size="10.00">st_lwProcedural</text>
</a>
</g>
</g>
<!-- Node9&#45;&gt;Node8 -->
<g id="edge9" class="edge"><title>Node9&#45;&gt;Node8</title>
<path fill="none" stroke="#9a32cd" stroke-dasharray="5,2" d="M148.687,-467.93C167.848,-452.477 196.972,-428.99 212.456,-416.503"/>
<polygon fill="#9a32cd" stroke="#9a32cd" points="146.255,-465.395 140.668,-474.397 150.65,-470.843 146.255,-465.395"/>
<text text-anchor="middle" x="199" y="-443.5" font-family="Arial" font-size="10.00"> proc</text>
</g>
<!-- Node10 -->
<g id="node10" class="node"><title>Node10</title>
<g id="a_node10"><a xlink:href="structst__lw_image_map.html" target="_top" xlink:title="st_lwImageMap">
<polygon fill="white" stroke="black" points="356,-474.5 356,-493.5 440,-493.5 440,-474.5 356,-474.5"/>
<text text-anchor="middle" x="398" y="-481.5" font-family="Arial" font-size="10.00">st_lwImageMap</text>
</a>
</g>
</g>
<!-- Node10&#45;&gt;Node8 -->
<g id="edge10" class="edge"><title>Node10&#45;&gt;Node8</title>
<path fill="none" stroke="#9a32cd" stroke-dasharray="5,2" d="M376.764,-468.809C360.834,-458.633 338.211,-445.16 317,-436 298.241,-427.899 276.414,-421.241 258.517,-416.452"/>
<polygon fill="#9a32cd" stroke="#9a32cd" points="375.017,-471.847 385.309,-474.361 378.831,-465.977 375.017,-471.847"/>
<text text-anchor="middle" x="368.5" y="-443.5" font-family="Arial" font-size="10.00"> imap</text>
</g>
<!-- Node11 -->
<g id="node11" class="node"><title>Node11</title>
<g id="a_node11"><a xlink:href="structst__lw_e_param.html" target="_top" xlink:title="st_lwEParam">
<polygon fill="white" stroke="black" points="396,-575.5 396,-594.5 470,-594.5 470,-575.5 396,-575.5"/>
<text text-anchor="middle" x="433" y="-582.5" font-family="Arial" font-size="10.00">st_lwEParam</text>
</a>
</g>
</g>
<!-- Node11&#45;&gt;Node5 -->
<g id="edge26" class="edge"><title>Node11&#45;&gt;Node5</title>
<path fill="none" stroke="#9a32cd" stroke-dasharray="5,2" d="M464.201,-570.569C471.002,-566.601 477.731,-561.748 483,-556 506.387,-530.484 515,-519.612 515,-485 515,-485 515,-485 515,-186 515,-92.7034 367.247,-80.0599 297.122,-79.3131"/>
<polygon fill="#9a32cd" stroke="#9a32cd" points="462.214,-567.66 455.012,-575.43 465.488,-573.847 462.214,-567.66"/>
<text text-anchor="middle" x="539" y="-369.5" font-family="Arial" font-size="10.00"> color_filter</text>
<text text-anchor="middle" x="539" y="-358.5" font-family="Arial" font-size="10.00">dif_sharp</text>
<text text-anchor="middle" x="539" y="-347.5" font-family="Arial" font-size="10.00">add_trans</text>
<text text-anchor="middle" x="539" y="-336.5" font-family="Arial" font-size="10.00">glow</text>
<text text-anchor="middle" x="539" y="-325.5" font-family="Arial" font-size="10.00">color_hilite</text>
</g>
<!-- Node11&#45;&gt;Node8 -->
<g id="edge14" class="edge"><title>Node11&#45;&gt;Node8</title>
<path fill="none" stroke="#9a32cd" stroke-dasharray="5,2" d="M410.579,-569.969C403.871,-565.62 396.559,-560.726 390,-556 354.072,-530.111 345.169,-523.341 312,-494 284.458,-469.637 279.554,-461.436 253,-436 246.106,-429.396 238.209,-422.034 232.249,-416.517"/>
<polygon fill="#9a32cd" stroke="#9a32cd" points="408.912,-573.058 419.223,-575.495 412.682,-567.16 408.912,-573.058"/>
<text text-anchor="middle" x="329.5" y="-481.5" font-family="Arial" font-size="10.00"> opacity</text>
</g>
<!-- Node11&#45;&gt;Node10 -->
<g id="edge11" class="edge"><title>Node11&#45;&gt;Node10</title>
<path fill="none" stroke="#9a32cd" stroke-dasharray="5,2" d="M409.976,-568.942C405.967,-565.214 402.339,-560.87 400,-556 390.178,-535.546 393.442,-507.816 396.055,-493.836"/>
<polygon fill="#9a32cd" stroke="#9a32cd" points="407.931,-571.788 417.916,-575.33 412.319,-566.334 407.931,-571.788"/>
<text text-anchor="middle" x="423" y="-548" font-family="Arial" font-size="10.00"> amplitude</text>
<text text-anchor="middle" x="423" y="-537" font-family="Arial" font-size="10.00">wrapw</text>
<text text-anchor="middle" x="423" y="-526" font-family="Arial" font-size="10.00">stck</text>
<text text-anchor="middle" x="423" y="-515" font-family="Arial" font-size="10.00">wraph</text>
</g>
<!-- Node16 -->
<g id="node16" class="node"><title>Node16</title>
<g id="a_node16"><a xlink:href="structst__lw_line.html" target="_top" xlink:title="st_lwLine">
<polygon fill="white" stroke="black" points="439.5,-436.5 439.5,-455.5 496.5,-455.5 496.5,-436.5 439.5,-436.5"/>
<text text-anchor="middle" x="468" y="-443.5" font-family="Arial" font-size="10.00">st_lwLine</text>
</a>
</g>
</g>
<!-- Node11&#45;&gt;Node16 -->
<g id="edge21" class="edge"><title>Node11&#45;&gt;Node16</title>
<path fill="none" stroke="#9a32cd" stroke-dasharray="5,2" d="M442.032,-566.178C443.5,-562.85 444.898,-559.361 446,-556 457.912,-519.679 464.558,-474.338 466.958,-455.657"/>
<polygon fill="#9a32cd" stroke="#9a32cd" points="438.785,-564.854 437.644,-575.388 445.105,-567.865 438.785,-564.854"/>
<text text-anchor="middle" x="468" y="-531.5" font-family="Arial" font-size="10.00"> size</text>
</g>
<!-- Node12 -->
<g id="node12" class="node"><title>Node12</title>
<g id="a_node12"><a xlink:href="structst__lw_t_map.html" target="_top" xlink:title="st_lwTMap">
<polygon fill="white" stroke="black" points="5.5,-474.5 5.5,-493.5 68.5,-493.5 68.5,-474.5 5.5,-474.5"/>
<text text-anchor="middle" x="37" y="-481.5" font-family="Arial" font-size="10.00">st_lwTMap</text>
</a>
</g>
</g>
<!-- Node12&#45;&gt;Node8 -->
<g id="edge12" class="edge"><title>Node12&#45;&gt;Node8</title>
<path fill="none" stroke="#9a32cd" stroke-dasharray="5,2" d="M62.7704,-469.801C82.7386,-459.841 111.25,-446.197 137,-436 155.541,-428.658 176.851,-421.709 193.62,-416.571"/>
<polygon fill="#9a32cd" stroke="#9a32cd" points="61.0633,-466.742 53.7036,-474.363 64.2097,-472.995 61.0633,-466.742"/>
<text text-anchor="middle" x="149.5" y="-443.5" font-family="Arial" font-size="10.00"> tmap</text>
</g>
<!-- Node13 -->
<g id="node13" class="node"><title>Node13</title>
<g id="a_node13"><a xlink:href="structst__lw_v_param.html" target="_top" xlink:title="st_lwVParam">
<polygon fill="white" stroke="black" points="0,-575.5 0,-594.5 74,-594.5 74,-575.5 0,-575.5"/>
<text text-anchor="middle" x="37" y="-582.5" font-family="Arial" font-size="10.00">st_lwVParam</text>
</a>
</g>
</g>
<!-- Node13&#45;&gt;Node12 -->
<g id="edge13" class="edge"><title>Node13&#45;&gt;Node12</title>
<path fill="none" stroke="#9a32cd" stroke-dasharray="5,2" d="M37,-565.029C37,-543.543 37,-509.467 37,-493.625"/>
<polygon fill="#9a32cd" stroke="#9a32cd" points="33.5001,-565.214 37,-575.214 40.5001,-565.214 33.5001,-565.214"/>
<text text-anchor="middle" x="51" y="-548" font-family="Arial" font-size="10.00"> size</text>
<text text-anchor="middle" x="51" y="-537" font-family="Arial" font-size="10.00">center</text>
<text text-anchor="middle" x="51" y="-526" font-family="Arial" font-size="10.00">falloff</text>
<text text-anchor="middle" x="51" y="-515" font-family="Arial" font-size="10.00">rotate</text>
</g>
<!-- Node14 -->
<g id="node14" class="node"><title>Node14</title>
<g id="a_node14"><a xlink:href="structst__lw_gradient.html" target="_top" xlink:title="st_lwGradient">
<polygon fill="white" stroke="black" points="191,-474.5 191,-493.5 267,-493.5 267,-474.5 191,-474.5"/>
<text text-anchor="middle" x="229" y="-481.5" font-family="Arial" font-size="10.00">st_lwGradient</text>
</a>
</g>
</g>
<!-- Node14&#45;&gt;Node8 -->
<g id="edge16" class="edge"><title>Node14&#45;&gt;Node8</title>
<path fill="none" stroke="#9a32cd" stroke-dasharray="5,2" d="M227.482,-464.023C226.259,-448.741 224.598,-427.978 223.68,-416.503"/>
<polygon fill="#9a32cd" stroke="#9a32cd" points="224.025,-464.708 228.312,-474.397 231.003,-464.149 224.025,-464.708"/>
<text text-anchor="middle" x="238" y="-443.5" font-family="Arial" font-size="10.00"> grad</text>
</g>
<!-- Node15 -->
<g id="node15" class="node"><title>Node15</title>
<g id="a_node15"><a xlink:href="structst__lw_grad_key.html" target="_top" xlink:title="st_lwGradKey">
<polygon fill="white" stroke="black" points="190.5,-575.5 190.5,-594.5 267.5,-594.5 267.5,-575.5 190.5,-575.5"/>
<text text-anchor="middle" x="229" y="-582.5" font-family="Arial" font-size="10.00">st_lwGradKey</text>
</a>
</g>
</g>
<!-- Node15&#45;&gt;Node14 -->
<g id="edge17" class="edge"><title>Node15&#45;&gt;Node14</title>
<path fill="none" stroke="#9a32cd" stroke-dasharray="5,2" d="M229,-565.029C229,-543.543 229,-509.467 229,-493.625"/>
<polygon fill="#9a32cd" stroke="#9a32cd" points="225.5,-565.214 229,-575.214 232.5,-565.214 225.5,-565.214"/>
<text text-anchor="middle" x="238.5" y="-531.5" font-family="Arial" font-size="10.00"> key</text>
</g>
<!-- Node15&#45;&gt;Node15 -->
<g id="edge18" class="edge"><title>Node15&#45;&gt;Node15</title>
<path fill="none" stroke="#9a32cd" stroke-dasharray="5,2" d="M277.872,-592.415C282.251,-590.864 285,-588.392 285,-585 285,-579.434 277.597,-576.346 267.735,-575.737"/>
<polygon fill="#9a32cd" stroke="#9a32cd" points="276.945,-589.026 267.735,-594.263 278.201,-595.912 276.945,-589.026"/>
<text text-anchor="middle" x="295.5" y="-588" font-family="Arial" font-size="10.00"> prev</text>
<text text-anchor="middle" x="295.5" y="-577" font-family="Arial" font-size="10.00">next</text>
</g>
<!-- Node16&#45;&gt;Node5 -->
<g id="edge20" class="edge"><title>Node16&#45;&gt;Node5</title>
<path fill="none" stroke="#9a32cd" stroke-dasharray="5,2" d="M468,-426.184C468,-407.208 468,-377.07 468,-351 468,-351 468,-351 468,-186 468,-110.094 356.364,-88.5086 297.057,-82.3969"/>
<polygon fill="#9a32cd" stroke="#9a32cd" points="464.5,-426.187 468,-436.188 471.5,-426.188 464.5,-426.187"/>
<text text-anchor="middle" x="477.5" y="-290.5" font-family="Arial" font-size="10.00"> line</text>
</g>
<!-- Node17&#45;&gt;Node5 -->
<g id="edge22" class="edge"><title>Node17&#45;&gt;Node5</title>
<path fill="none" stroke="#9a32cd" stroke-dasharray="5,2" d="M123.293,-234.615C117.603,-212.769 111.481,-175.785 125,-148 143.307,-110.376 191.078,-93.2747 224.811,-85.7053"/>
<polygon fill="#9a32cd" stroke="#9a32cd" points="119.939,-235.615 126.043,-244.275 126.671,-233.698 119.939,-235.615"/>
<text text-anchor="middle" x="137.5" y="-184.5" font-family="Arial" font-size="10.00"> color</text>
</g>
<!-- Node18 -->
<g id="node18" class="node"><title>Node18</title>
<g id="a_node18"><a xlink:href="structst__lw_plugin.html" target="_top" xlink:title="st_lwPlugin">
<polygon fill="white" stroke="black" points="335,-177.5 335,-196.5 401,-196.5 401,-177.5 335,-177.5"/>
<text text-anchor="middle" x="368" y="-184.5" font-family="Arial" font-size="10.00">st_lwPlugin</text>
</a>
</g>
</g>
<!-- Node18&#45;&gt;Node5 -->
<g id="edge24" class="edge"><title>Node18&#45;&gt;Node5</title>
<path fill="none" stroke="#9a32cd" stroke-dasharray="5,2" d="M351.994,-170.143C329.14,-147.503 287.93,-106.678 269.877,-88.7943"/>
<polygon fill="#9a32cd" stroke="#9a32cd" points="349.676,-172.774 359.244,-177.326 354.603,-167.801 349.676,-172.774"/>
<text text-anchor="middle" x="328.5" y="-116.5" font-family="Arial" font-size="10.00"> shader</text>
</g>
<!-- Node18&#45;&gt;Node18 -->
<g id="edge25" class="edge"><title>Node18&#45;&gt;Node18</title>
<path fill="none" stroke="#9a32cd" stroke-dasharray="5,2" d="M393.694,-198.937C407,-200.781 419,-196.802 419,-187 419,-174.818 400.468,-171.63 383.927,-177.436"/>
<polygon fill="#9a32cd" stroke="#9a32cd" points="394.47,-195.524 383.927,-196.564 392.818,-202.326 394.47,-195.524"/>
<text text-anchor="middle" x="429.5" y="-190" font-family="Arial" font-size="10.00"> prev</text>
<text text-anchor="middle" x="429.5" y="-179" font-family="Arial" font-size="10.00">next</text>
</g>
</g>
</svg>
