<?xml version="1.0" encoding="UTF-8" standalone="no"?>
<!DOCTYPE svg PUBLIC "-//W3C//DTD SVG 1.1//EN"
 "http://www.w3.org/Graphics/SVG/1.1/DTD/svg11.dtd">
<!-- Generated by graphviz version 2.34.0 (20130907.0111)
 -->
<!-- Title: maModel_s Pages: 1 -->
<svg width="328pt" height="224pt"
 viewBox="0.00 0.00 328.00 224.00" xmlns="http://www.w3.org/2000/svg" xmlns:xlink="http://www.w3.org/1999/xlink">
<g id="graph0" class="graph" transform="scale(1 1) rotate(0) translate(4 220)">
<title>maModel_s</title>
<polygon fill="white" stroke="white" points="-4,4 -4,-220 324,-220 324,4 -4,4"/>
<!-- Node1 -->
<g id="node1" class="node"><title>Node1</title>
<polygon fill="#bfbfbf" stroke="black" points="252.5,-93.5 252.5,-112.5 319.5,-112.5 319.5,-93.5 252.5,-93.5"/>
<text text-anchor="middle" x="286" y="-100.5" font-family="Arial" font-size="10.00">maModel_s</text>
</g>
<!-- Node2 -->
<g id="node2" class="node"><title>Node2</title>
<g id="a_node2"><a xlink:href="classid_hash_table.html" target="_top" xlink:title="idHashTable\&lt; maMaterialNode\l_s * \&gt;">
<polygon fill="white" stroke="black" points="0.5,-186 0.5,-216 149.5,-216 149.5,-186 0.5,-186"/>
<text text-anchor="start" x="8.5" y="-204" font-family="Arial" font-size="10.00">idHashTable&lt; maMaterialNode</text>
<text text-anchor="middle" x="75" y="-193" font-family="Arial" font-size="10.00">_s * &gt;</text>
</a>
</g>
</g>
<!-- Node2&#45;&gt;Node1 -->
<g id="edge1" class="edge"><title>Node2&#45;&gt;Node1</title>
<path fill="none" stroke="#9a32cd" stroke-dasharray="5,2" d="M151.814,-183.019C178.81,-174.844 208.753,-163.654 234,-149 250.912,-139.183 267.086,-123.066 276.527,-112.749"/>
<polygon fill="#9a32cd" stroke="#9a32cd" points="150.626,-179.721 142.016,-185.896 152.597,-186.437 150.626,-179.721"/>
<text text-anchor="middle" x="201" y="-179" font-family="Arial" font-size="10.00"> materialNodes</text>
</g>
<!-- Node3 -->
<g id="node3" class="node"><title>Node3</title>
<g id="a_node3"><a xlink:href="classid_list.html" target="_top" xlink:title="idList\&lt; maMaterial\l_t * \&gt;">
<polygon fill="white" stroke="black" points="26.5,-137 26.5,-167 123.5,-167 123.5,-137 26.5,-137"/>
<text text-anchor="start" x="34.5" y="-155" font-family="Arial" font-size="10.00">idList&lt; maMaterial</text>
<text text-anchor="middle" x="75" y="-144" font-family="Arial" font-size="10.00">_t * &gt;</text>
</a>
</g>
</g>
<!-- Node3&#45;&gt;Node1 -->
<g id="edge2" class="edge"><title>Node3&#45;&gt;Node1</title>
<path fill="none" stroke="#9a32cd" stroke-dasharray="5,2" d="M133.475,-140.7C163.546,-134.518 200.896,-126.418 234,-118 240.44,-116.362 247.292,-114.459 253.814,-112.57"/>
<polygon fill="#9a32cd" stroke="#9a32cd" points="132.672,-137.292 123.573,-142.72 134.071,-144.15 132.672,-137.292"/>
<text text-anchor="middle" x="201" y="-137" font-family="Arial" font-size="10.00"> materials</text>
</g>
<!-- Node4 -->
<g id="node4" class="node"><title>Node4</title>
<g id="a_node4"><a xlink:href="classid_hash_table.html" target="_top" xlink:title="idHashTable\&lt; maTransform\l_s * \&gt;">
<polygon fill="white" stroke="black" points="7.5,-88 7.5,-118 142.5,-118 142.5,-88 7.5,-88"/>
<text text-anchor="start" x="15.5" y="-106" font-family="Arial" font-size="10.00">idHashTable&lt; maTransform</text>
<text text-anchor="middle" x="75" y="-95" font-family="Arial" font-size="10.00">_s * &gt;</text>
</a>
</g>
</g>
<!-- Node4&#45;&gt;Node1 -->
<g id="edge3" class="edge"><title>Node4&#45;&gt;Node1</title>
<path fill="none" stroke="#9a32cd" stroke-dasharray="5,2" d="M152.747,-103C187.141,-103 225.859,-103 252.47,-103"/>
<polygon fill="#9a32cd" stroke="#9a32cd" points="152.704,-99.5001 142.704,-103 152.704,-106.5 152.704,-99.5001"/>
<text text-anchor="middle" x="201" y="-106" font-family="Arial" font-size="10.00"> transforms</text>
</g>
<!-- Node5 -->
<g id="node5" class="node"><title>Node5</title>
<g id="a_node5"><a xlink:href="classid_hash_table.html" target="_top" xlink:title="idHashTable\&lt; maFileNode\l_t * \&gt;">
<polygon fill="white" stroke="black" points="9.5,-39 9.5,-69 140.5,-69 140.5,-39 9.5,-39"/>
<text text-anchor="start" x="17.5" y="-57" font-family="Arial" font-size="10.00">idHashTable&lt; maFileNode</text>
<text text-anchor="middle" x="75" y="-46" font-family="Arial" font-size="10.00">_t * &gt;</text>
</a>
</g>
</g>
<!-- Node5&#45;&gt;Node1 -->
<g id="edge4" class="edge"><title>Node5&#45;&gt;Node1</title>
<path fill="none" stroke="#9a32cd" stroke-dasharray="5,2" d="M150.763,-68.9017C177.163,-74.4768 206.994,-81.1328 234,-88 240.44,-89.6376 247.292,-91.5406 253.814,-93.4301"/>
<polygon fill="#9a32cd" stroke="#9a32cd" points="151.331,-65.4448 140.826,-66.8197 149.895,-72.2961 151.331,-65.4448"/>
<text text-anchor="middle" x="201" y="-91" font-family="Arial" font-size="10.00"> fileNodes</text>
</g>
<!-- Node6 -->
<g id="node6" class="node"><title>Node6</title>
<g id="a_node6"><a xlink:href="classid_list.html" target="_top" xlink:title="idList\&lt; maObject_t * \&gt;">
<polygon fill="white" stroke="black" points="17.5,-0.5 17.5,-19.5 132.5,-19.5 132.5,-0.5 17.5,-0.5"/>
<text text-anchor="middle" x="75" y="-7.5" font-family="Arial" font-size="10.00">idList&lt; maObject_t * &gt;</text>
</a>
</g>
</g>
<!-- Node6&#45;&gt;Node1 -->
<g id="edge5" class="edge"><title>Node6&#45;&gt;Node1</title>
<path fill="none" stroke="#9a32cd" stroke-dasharray="5,2" d="M138.649,-21.9292C168.833,-29.4082 204.737,-40.9447 234,-58 250.527,-67.6325 266.56,-83.0942 276.106,-93.1501"/>
<polygon fill="#9a32cd" stroke="#9a32cd" points="139.189,-18.46 128.65,-19.5463 137.566,-25.2693 139.189,-18.46"/>
<text text-anchor="middle" x="201" y="-61" font-family="Arial" font-size="10.00"> objects</text>
</g>
</g>
</svg>
