<?xml version="1.0" encoding="UTF-8" standalone="no"?>
<!DOCTYPE svg PUBLIC "-//W3C//DTD SVG 1.1//EN"
 "http://www.w3.org/Graphics/SVG/1.1/DTD/svg11.dtd">
<!-- Generated by graphviz version 2.34.0 (20130907.0111)
 -->
<!-- Title: aseObject_t Pages: 1 -->
<svg width="300pt" height="256pt"
 viewBox="0.00 0.00 300.00 256.00" xmlns="http://www.w3.org/2000/svg" xmlns:xlink="http://www.w3.org/1999/xlink">
<g id="graph0" class="graph" transform="scale(1 1) rotate(0) translate(4 252)">
<title>aseObject_t</title>
<polygon fill="white" stroke="white" points="-4,4 -4,-252 296,-252 296,4 -4,4"/>
<!-- Node1 -->
<g id="node1" class="node"><title>Node1</title>
<polygon fill="#bfbfbf" stroke="black" points="61.5,-0.5 61.5,-19.5 130.5,-19.5 130.5,-0.5 61.5,-0.5"/>
<text text-anchor="middle" x="96" y="-7.5" font-family="Arial" font-size="10.00">aseObject_t</text>
</g>
<!-- Node2 -->
<g id="node2" class="node"><title>Node2</title>
<g id="a_node2"><a xlink:href="classid_list.html" target="_top" xlink:title="idList\&lt; aseMesh_t * \&gt;">
<polygon fill="white" stroke="black" points="-0.5,-68.5 -0.5,-87.5 112.5,-87.5 112.5,-68.5 -0.5,-68.5"/>
<text text-anchor="middle" x="56" y="-75.5" font-family="Arial" font-size="10.00">idList&lt; aseMesh_t * &gt;</text>
</a>
</g>
</g>
<!-- Node2&#45;&gt;Node1 -->
<g id="edge1" class="edge"><title>Node2&#45;&gt;Node1</title>
<path fill="none" stroke="#9a32cd" stroke-dasharray="5,2" d="M66.5679,-59.563C74.3143,-46.7815 84.5091,-29.9599 90.6417,-19.8411"/>
<polygon fill="#9a32cd" stroke="#9a32cd" points="63.4192,-58.0056 61.2293,-68.3717 69.4056,-61.6337 63.4192,-58.0056"/>
<text text-anchor="middle" x="96.5" y="-41.5" font-family="Arial" font-size="10.00"> frames</text>
</g>
<!-- Node3 -->
<g id="node3" class="node"><title>Node3</title>
<g id="a_node3"><a xlink:href="structase_mesh__t.html" target="_top" xlink:title="aseMesh_t">
<polygon fill="white" stroke="black" points="130.5,-68.5 130.5,-87.5 195.5,-87.5 195.5,-68.5 130.5,-68.5"/>
<text text-anchor="middle" x="163" y="-75.5" font-family="Arial" font-size="10.00">aseMesh_t</text>
</a>
</g>
</g>
<!-- Node3&#45;&gt;Node1 -->
<g id="edge2" class="edge"><title>Node3&#45;&gt;Node1</title>
<path fill="none" stroke="#9a32cd" stroke-dasharray="5,2" d="M146.806,-61.0474C133.673,-48.1111 115.65,-30.3567 104.975,-19.8411"/>
<polygon fill="#9a32cd" stroke="#9a32cd" points="144.661,-63.8473 154.241,-68.3717 149.573,-58.8605 144.661,-63.8473"/>
<text text-anchor="middle" x="149" y="-41.5" font-family="Arial" font-size="10.00"> mesh</text>
</g>
<!-- Node4 -->
<g id="node4" class="node"><title>Node4</title>
<g id="a_node4"><a xlink:href="classid_vec2.html" target="_top" xlink:title="idVec2">
<polygon fill="white" stroke="black" points="79.5,-143.5 79.5,-162.5 126.5,-162.5 126.5,-143.5 79.5,-143.5"/>
<text text-anchor="middle" x="103" y="-150.5" font-family="Arial" font-size="10.00">idVec2</text>
</a>
</g>
</g>
<!-- Node4&#45;&gt;Node3 -->
<g id="edge3" class="edge"><title>Node4&#45;&gt;Node3</title>
<path fill="none" stroke="#9a32cd" stroke-dasharray="5,2" d="M100.05,-133.148C99.6387,-124.217 100.687,-113.82 106,-106 111.784,-97.4862 121.006,-91.5844 130.361,-87.5243"/>
<polygon fill="#9a32cd" stroke="#9a32cd" points="96.5998,-133.801 101.141,-143.373 103.56,-133.058 96.5998,-133.801"/>
<text text-anchor="middle" x="127.5" y="-109.5" font-family="Arial" font-size="10.00"> tvertexes</text>
</g>
<!-- Node5 -->
<g id="node5" class="node"><title>Node5</title>
<g id="a_node5"><a xlink:href="classid_vec3.html" target="_top" xlink:title="idVec3">
<polygon fill="white" stroke="black" points="170.5,-228.5 170.5,-247.5 217.5,-247.5 217.5,-228.5 170.5,-228.5"/>
<text text-anchor="middle" x="194" y="-235.5" font-family="Arial" font-size="10.00">idVec3</text>
</a>
</g>
</g>
<!-- Node5&#45;&gt;Node3 -->
<g id="edge4" class="edge"><title>Node5&#45;&gt;Node3</title>
<path fill="none" stroke="#9a32cd" stroke-dasharray="5,2" d="M186.936,-219.103C181.968,-205.773 175.59,-187.014 172,-170 165.708,-140.175 163.791,-103.9 163.226,-87.6266"/>
<polygon fill="#9a32cd" stroke="#9a32cd" points="183.688,-220.409 190.537,-228.492 190.224,-217.902 183.688,-220.409"/>
<text text-anchor="middle" x="194" y="-161.5" font-family="Arial" font-size="10.00"> transform</text>
<text text-anchor="middle" x="194" y="-150.5" font-family="Arial" font-size="10.00">cvertexes</text>
<text text-anchor="middle" x="194" y="-139.5" font-family="Arial" font-size="10.00">vertexes</text>
</g>
<!-- Node6 -->
<g id="node6" class="node"><title>Node6</title>
<g id="a_node6"><a xlink:href="structase_face__t.html" target="_top" xlink:title="aseFace_t">
<polygon fill="white" stroke="black" points="225,-143.5 225,-162.5 287,-162.5 287,-143.5 225,-143.5"/>
<text text-anchor="middle" x="256" y="-150.5" font-family="Arial" font-size="10.00">aseFace_t</text>
</a>
</g>
</g>
<!-- Node5&#45;&gt;Node6 -->
<g id="edge6" class="edge"><title>Node5&#45;&gt;Node6</title>
<path fill="none" stroke="#9a32cd" stroke-dasharray="5,2" d="M206.494,-220.275C219.508,-202.853 239.386,-176.241 249.54,-162.648"/>
<polygon fill="#9a32cd" stroke="#9a32cd" points="203.582,-218.324 200.402,-228.43 209.19,-222.513 203.582,-218.324"/>
<text text-anchor="middle" x="261" y="-202" font-family="Arial" font-size="10.00"> faceNormal</text>
<text text-anchor="middle" x="261" y="-191" font-family="Arial" font-size="10.00">vertexNormals</text>
</g>
<!-- Node6&#45;&gt;Node3 -->
<g id="edge5" class="edge"><title>Node6&#45;&gt;Node3</title>
<path fill="none" stroke="#9a32cd" stroke-dasharray="5,2" d="M237.002,-137.088C218.033,-122.198 189.533,-99.8267 174.019,-87.6495"/>
<polygon fill="#9a32cd" stroke="#9a32cd" points="234.939,-139.918 244.966,-143.339 239.261,-134.412 234.939,-139.918"/>
<text text-anchor="middle" x="225.5" y="-109.5" font-family="Arial" font-size="10.00"> faces</text>
</g>
</g>
</svg>
