<?xml version="1.0" encoding="UTF-8" standalone="no"?>
<!DOCTYPE svg PUBLIC "-//W3C//DTD SVG 1.1//EN"
 "http://www.w3.org/Graphics/SVG/1.1/DTD/svg11.dtd">
<!-- Generated by graphviz version 2.34.0 (20130907.0111)
 -->
<!-- Title: idFXLocalAction Pages: 1 -->
<svg width="872pt" height="562pt"
 viewBox="0.00 0.00 872.00 562.19" xmlns="http://www.w3.org/2000/svg" xmlns:xlink="http://www.w3.org/1999/xlink">
<g id="graph0" class="graph" transform="scale(1 1) rotate(0) translate(4 558.189)">
<title>idFXLocalAction</title>
<polygon fill="white" stroke="white" points="-4,4 -4,-558.189 868,-558.189 868,4 -4,4"/>
<!-- Node1 -->
<g id="node1" class="node"><title>Node1</title>
<polygon fill="#bfbfbf" stroke="black" points="778,-289.689 778,-308.689 864,-308.689 864,-289.689 778,-289.689"/>
<text text-anchor="middle" x="821" y="-296.689" font-family="Arial" font-size="10.00">idFXLocalAction</text>
</g>
<!-- Node2 -->
<g id="node2" class="node"><title>Node2</title>
<g id="a_node2"><a xlink:href="structrender_entity__s.html" target="_top" xlink:title="renderEntity_s">
<polygon fill="white" stroke="black" points="606,-225.689 606,-244.689 686,-244.689 686,-225.689 606,-225.689"/>
<text text-anchor="middle" x="646" y="-232.689" font-family="Arial" font-size="10.00">renderEntity_s</text>
</a>
</g>
</g>
<!-- Node2&#45;&gt;Node1 -->
<g id="edge1" class="edge"><title>Node2&#45;&gt;Node1</title>
<path fill="none" stroke="#9a32cd" stroke-dasharray="5,2" d="M682.673,-248.386C715.892,-260.675 764.61,-278.697 794.206,-289.646"/>
<polygon fill="#9a32cd" stroke="#9a32cd" points="683.493,-244.957 672.9,-244.77 681.064,-251.522 683.493,-244.957"/>
<text text-anchor="middle" x="732" y="-279.189" font-family="Arial" font-size="10.00"> renderEntity</text>
</g>
<!-- Node2&#45;&gt;Node2 -->
<g id="edge16" class="edge"><title>Node2&#45;&gt;Node2</title>
<path fill="none" stroke="#9a32cd" stroke-dasharray="5,2" d="M630.075,-254.589C631.138,-259.503 636.447,-263.189 646,-263.189 661.285,-263.189 665.704,-253.754 659.255,-244.946"/>
<polygon fill="#9a32cd" stroke="#9a32cd" points="633.449,-255.517 632.745,-244.946 626.703,-253.649 633.449,-255.517"/>
<text text-anchor="middle" x="646" y="-266.189" font-family="Arial" font-size="10.00"> callback</text>
</g>
<!-- Node3 -->
<g id="node3" class="node"><title>Node3</title>
<g id="a_node3"><a xlink:href="classid_mat3.html" target="_top" xlink:title="idMat3">
<polygon fill="white" stroke="black" points="229,-344.689 229,-363.689 275,-363.689 275,-344.689 229,-344.689"/>
<text text-anchor="middle" x="252" y="-351.689" font-family="Arial" font-size="10.00">idMat3</text>
</a>
</g>
</g>
<!-- Node3&#45;&gt;Node2 -->
<g id="edge2" class="edge"><title>Node3&#45;&gt;Node2</title>
<path fill="none" stroke="#9a32cd" stroke-dasharray="5,2" d="M258.915,-373.536C271.377,-413.679 300.159,-502.989 312,-511.189 338.308,-529.406 353.959,-522.212 384,-511.189 495.604,-470.238 512.655,-430.142 588,-338.189 589.676,-336.143 625.909,-270.062 639.719,-244.84"/>
<polygon fill="#9a32cd" stroke="#9a32cd" points="262.215,-372.359 255.924,-363.834 255.526,-374.422 262.215,-372.359"/>
<text text-anchor="middle" x="443" y="-505.189" font-family="Arial" font-size="10.00"> axis</text>
</g>
<!-- Node8 -->
<g id="node8" class="node"><title>Node8</title>
<g id="a_node8"><a xlink:href="structrender_view__s.html" target="_top" xlink:title="renderView_s">
<polygon fill="white" stroke="black" points="405.5,-342.689 405.5,-361.689 480.5,-361.689 480.5,-342.689 405.5,-342.689"/>
<text text-anchor="middle" x="443" y="-349.689" font-family="Arial" font-size="10.00">renderView_s</text>
</a>
</g>
</g>
<!-- Node3&#45;&gt;Node8 -->
<g id="edge8" class="edge"><title>Node3&#45;&gt;Node8</title>
<path fill="none" stroke="#9a32cd" stroke-dasharray="5,2" d="M285.152,-353.848C318.418,-353.496 370.299,-352.947 405.187,-352.578"/>
<polygon fill="#9a32cd" stroke="#9a32cd" points="285.013,-350.35 275.051,-353.955 285.087,-357.349 285.013,-350.35"/>
<text text-anchor="middle" x="348" y="-356.189" font-family="Arial" font-size="10.00"> viewaxis</text>
</g>
<!-- Node15 -->
<g id="node15" class="node"><title>Node15</title>
<g id="a_node15"><a xlink:href="structrender_light__s.html" target="_top" xlink:title="renderLight_s">
<polygon fill="white" stroke="black" points="405.5,-301.689 405.5,-320.689 480.5,-320.689 480.5,-301.689 405.5,-301.689"/>
<text text-anchor="middle" x="443" y="-308.689" font-family="Arial" font-size="10.00">renderLight_s</text>
</a>
</g>
</g>
<!-- Node3&#45;&gt;Node15 -->
<g id="edge20" class="edge"><title>Node3&#45;&gt;Node15</title>
<path fill="none" stroke="#9a32cd" stroke-dasharray="5,2" d="M262.988,-335.902C272.99,-319.697 290.039,-297.112 312,-287.189 341.161,-274.012 352.614,-280.951 384,-287.189 398.002,-289.971 412.861,-296.19 424.034,-301.601"/>
<polygon fill="#9a32cd" stroke="#9a32cd" points="259.951,-334.162 257.929,-344.562 265.995,-337.693 259.951,-334.162"/>
<text text-anchor="middle" x="348" y="-290.189" font-family="Arial" font-size="10.00"> axis</text>
</g>
<!-- Node4 -->
<g id="node4" class="node"><title>Node4</title>
<g id="a_node4"><a xlink:href="classid_decl_skin.html" target="_top" xlink:title="idDeclSkin">
<polygon fill="white" stroke="black" points="316.5,-7.6886 316.5,-26.6886 379.5,-26.6886 379.5,-7.6886 316.5,-7.6886"/>
<text text-anchor="middle" x="348" y="-14.6886" font-family="Arial" font-size="10.00">idDeclSkin</text>
</a>
</g>
</g>
<!-- Node4&#45;&gt;Node2 -->
<g id="edge3" class="edge"><title>Node4&#45;&gt;Node2</title>
<path fill="none" stroke="#9a32cd" stroke-dasharray="5,2" d="M389.523,-7.70222C442.224,2.02368 533.917,9.62591 588,-39.1886 644.559,-90.2383 646.321,-193.787 645.434,-225.645"/>
<polygon fill="#9a32cd" stroke="#9a32cd" points="388.667,-4.30337 379.526,-9.65963 390.012,-11.1729 388.667,-4.30337"/>
<text text-anchor="middle" x="443" y="-9.1886" font-family="Arial" font-size="10.00"> customSkin</text>
</g>
<!-- Node5 -->
<g id="node5" class="node"><title>Node5</title>
<g id="a_node5"><a xlink:href="classid_decl.html" target="_top" xlink:title="idDecl">
<polygon fill="white" stroke="black" points="128,-84.6886 128,-103.689 172,-103.689 172,-84.6886 128,-84.6886"/>
<text text-anchor="middle" x="150" y="-91.6886" font-family="Arial" font-size="10.00">idDecl</text>
</a>
</g>
</g>
<!-- Node5&#45;&gt;Node4 -->
<g id="edge4" class="edge"><title>Node5&#45;&gt;Node4</title>
<path fill="none" stroke="midnightblue" d="M182.112,-81.9661C221.097,-66.6504 287.094,-40.7229 322.621,-26.7662"/>
<polygon fill="midnightblue" stroke="midnightblue" points="180.376,-78.8875 172.349,-85.8017 182.936,-85.4027 180.376,-78.8875"/>
</g>
<!-- Node10 -->
<g id="node10" class="node"><title>Node10</title>
<g id="a_node10"><a xlink:href="classid_material.html" target="_top" xlink:title="idMaterial">
<polygon fill="white" stroke="black" points="222.5,-223.689 222.5,-242.689 281.5,-242.689 281.5,-223.689 222.5,-223.689"/>
<text text-anchor="middle" x="252" y="-230.689" font-family="Arial" font-size="10.00">idMaterial</text>
</a>
</g>
</g>
<!-- Node5&#45;&gt;Node10 -->
<g id="edge11" class="edge"><title>Node5&#45;&gt;Node10</title>
<path fill="none" stroke="midnightblue" d="M163.76,-112.294C175.661,-129.143 193.941,-154.929 210,-177.189 221.703,-193.41 235.468,-212.141 243.7,-223.306"/>
<polygon fill="midnightblue" stroke="midnightblue" points="166.485,-110.084 157.859,-103.931 160.765,-114.12 166.485,-110.084"/>
</g>
<!-- Node6 -->
<g id="node6" class="node"><title>Node6</title>
<g id="a_node6"><a xlink:href="classid_decl_base.html" target="_top" xlink:title="idDeclBase">
<polygon fill="white" stroke="black" points="0,-84.6886 0,-103.689 66,-103.689 66,-84.6886 0,-84.6886"/>
<text text-anchor="middle" x="33" y="-91.6886" font-family="Arial" font-size="10.00">idDeclBase</text>
</a>
</g>
</g>
<!-- Node6&#45;&gt;Node5 -->
<g id="edge5" class="edge"><title>Node6&#45;&gt;Node5</title>
<path fill="none" stroke="#9a32cd" stroke-dasharray="5,2" d="M76.0643,-94.1886C93.5984,-94.1886 113.201,-94.1886 127.664,-94.1886"/>
<polygon fill="#9a32cd" stroke="#9a32cd" points="76.0339,-90.6887 66.0339,-94.1886 76.0339,-97.6887 76.0339,-90.6887"/>
<text text-anchor="middle" x="97" y="-97.1886" font-family="Arial" font-size="10.00"> base</text>
</g>
<!-- Node7 -->
<g id="node7" class="node"><title>Node7</title>
<g id="a_node7"><a xlink:href="classid_joint_mat.html" target="_top" xlink:title="idJointMat">
<polygon fill="white" stroke="black" points="412.5,-263.689 412.5,-282.689 473.5,-282.689 473.5,-263.689 412.5,-263.689"/>
<text text-anchor="middle" x="443" y="-270.689" font-family="Arial" font-size="10.00">idJointMat</text>
</a>
</g>
</g>
<!-- Node7&#45;&gt;Node2 -->
<g id="edge6" class="edge"><title>Node7&#45;&gt;Node2</title>
<path fill="none" stroke="#9a32cd" stroke-dasharray="5,2" d="M483.686,-266.341C512.639,-261.267 552.805,-254.069 588,-247.189 593.756,-246.063 599.83,-244.832 605.782,-243.6"/>
<polygon fill="#9a32cd" stroke="#9a32cd" points="482.805,-262.941 473.556,-268.109 484.009,-269.837 482.805,-262.941"/>
<text text-anchor="middle" x="545" y="-265.189" font-family="Arial" font-size="10.00"> joints</text>
</g>
<!-- Node8&#45;&gt;Node2 -->
<g id="edge7" class="edge"><title>Node8&#45;&gt;Node2</title>
<path fill="none" stroke="#9a32cd" stroke-dasharray="5,2" d="M474.467,-338.025C504.141,-323.837 550.18,-300.774 588,-277.189 604.271,-267.042 621.878,-253.665 633.151,-244.763"/>
<polygon fill="#9a32cd" stroke="#9a32cd" points="472.601,-335.036 465.066,-342.484 475.601,-341.361 472.601,-335.036"/>
<text text-anchor="middle" x="545" y="-326.189" font-family="Arial" font-size="10.00"> remoteRenderView</text>
</g>
<!-- Node9 -->
<g id="node9" class="node"><title>Node9</title>
<g id="a_node9"><a xlink:href="classid_vec3.html" target="_top" xlink:title="idVec3">
<polygon fill="white" stroke="black" points="228.5,-489.689 228.5,-508.689 275.5,-508.689 275.5,-489.689 228.5,-489.689"/>
<text text-anchor="middle" x="252" y="-496.689" font-family="Arial" font-size="10.00">idVec3</text>
</a>
</g>
</g>
<!-- Node9&#45;&gt;Node2 -->
<g id="edge15" class="edge"><title>Node9&#45;&gt;Node2</title>
<path fill="none" stroke="#9a32cd" stroke-dasharray="5,2" d="M275.369,-514.228C285.985,-520.482 299.141,-527.016 312,-530.189 386.431,-548.552 416.01,-552.607 484,-517.189 544.825,-485.503 557.459,-464.596 588,-403.189 607.526,-363.929 591.258,-347.483 606,-306.189 614.322,-282.878 629.635,-258.061 638.393,-244.826"/>
<polygon fill="#9a32cd" stroke="#9a32cd" points="277.108,-511.189 266.765,-508.895 273.421,-517.138 277.108,-511.189"/>
<text text-anchor="middle" x="443" y="-546.189" font-family="Arial" font-size="10.00"> origin</text>
</g>
<!-- Node9&#45;&gt;Node8 -->
<g id="edge9" class="edge"><title>Node9&#45;&gt;Node8</title>
<path fill="none" stroke="#9a32cd" stroke-dasharray="5,2" d="M286.201,-501.764C314.89,-502.237 356.029,-498.513 384,-477.189 422.812,-447.6 436.598,-385.792 440.597,-361.903"/>
<polygon fill="#9a32cd" stroke="#9a32cd" points="285.984,-498.254 275.868,-501.405 285.74,-505.25 285.984,-498.254"/>
<text text-anchor="middle" x="348" y="-503.189" font-family="Arial" font-size="10.00"> vieworg</text>
</g>
<!-- Node9&#45;&gt;Node15 -->
<g id="edge23" class="edge"><title>Node9&#45;&gt;Node15</title>
<path fill="none" stroke="#9a32cd" stroke-dasharray="5,2" d="M257.831,-479.537C265.155,-453.94 281.552,-409.59 312,-385.189 337.825,-364.492 357.951,-386.603 384,-366.189 397.15,-355.883 390.207,-345.023 402,-333.189 406.923,-328.248 413.188,-324.105 419.291,-320.794"/>
<polygon fill="#9a32cd" stroke="#9a32cd" points="254.358,-478.978 255.16,-489.543 261.121,-480.784 254.358,-478.978"/>
<text text-anchor="middle" x="348" y="-465.189" font-family="Arial" font-size="10.00"> lightCenter</text>
<text text-anchor="middle" x="348" y="-454.189" font-family="Arial" font-size="10.00">target</text>
<text text-anchor="middle" x="348" y="-443.189" font-family="Arial" font-size="10.00">right</text>
<text text-anchor="middle" x="348" y="-432.189" font-family="Arial" font-size="10.00">end</text>
<text text-anchor="middle" x="348" y="-421.189" font-family="Arial" font-size="10.00">lightRadius</text>
<text text-anchor="middle" x="348" y="-410.189" font-family="Arial" font-size="10.00">origin</text>
<text text-anchor="middle" x="348" y="-399.189" font-family="Arial" font-size="10.00">up</text>
<text text-anchor="middle" x="348" y="-388.189" font-family="Arial" font-size="10.00">start</text>
</g>
<!-- Node10&#45;&gt;Node2 -->
<g id="edge17" class="edge"><title>Node10&#45;&gt;Node2</title>
<path fill="none" stroke="#9a32cd" stroke-dasharray="5,2" d="M274.089,-217.801C284.876,-210.797 298.544,-203.192 312,-199.189 422.635,-166.277 561.909,-206.048 618.892,-225.575"/>
<polygon fill="#9a32cd" stroke="#9a32cd" points="272.077,-214.936 265.773,-223.451 276.011,-220.726 272.077,-214.936"/>
<text text-anchor="middle" x="443" y="-205.189" font-family="Arial" font-size="10.00"> customShader</text>
<text text-anchor="middle" x="443" y="-194.189" font-family="Arial" font-size="10.00">referenceShader</text>
</g>
<!-- Node10&#45;&gt;Node8 -->
<g id="edge10" class="edge"><title>Node10&#45;&gt;Node8</title>
<path fill="none" stroke="#9a32cd" stroke-dasharray="5,2" d="M265.562,-250.89C276.481,-265.22 293.428,-285.105 312,-298.189 341.669,-319.09 380.661,-333.913 408.177,-342.676"/>
<polygon fill="#9a32cd" stroke="#9a32cd" points="268.34,-248.76 259.583,-242.796 262.71,-252.919 268.34,-248.76"/>
<text text-anchor="middle" x="348" y="-336.189" font-family="Arial" font-size="10.00"> globalMaterial</text>
</g>
<!-- Node10&#45;&gt;Node15 -->
<g id="edge24" class="edge"><title>Node10&#45;&gt;Node15</title>
<path fill="none" stroke="#9a32cd" stroke-dasharray="5,2" d="M291.755,-234.757C319.634,-237.588 356.935,-245.033 384,-264.189 396.076,-272.735 390.892,-282.417 402,-292.189 406.156,-295.845 411.139,-298.947 416.154,-301.518"/>
<polygon fill="#9a32cd" stroke="#9a32cd" points="291.835,-231.252 281.572,-233.884 291.237,-238.226 291.835,-231.252"/>
<text text-anchor="middle" x="348" y="-267.189" font-family="Arial" font-size="10.00"> shader</text>
</g>
<!-- Node11 -->
<g id="node11" class="node"><title>Node11</title>
<g id="a_node11"><a xlink:href="classid_sound_emitter.html" target="_top" xlink:title="idSoundEmitter">
<polygon fill="white" stroke="black" points="210.5,-148.689 210.5,-167.689 293.5,-167.689 293.5,-148.689 210.5,-148.689"/>
<text text-anchor="middle" x="252" y="-155.689" font-family="Arial" font-size="10.00">idSoundEmitter</text>
</a>
</g>
</g>
<!-- Node11&#45;&gt;Node2 -->
<g id="edge12" class="edge"><title>Node11&#45;&gt;Node2</title>
<path fill="none" stroke="#9a32cd" stroke-dasharray="5,2" d="M269.888,-141.332C280.89,-131.51 296.111,-119.955 312,-114.189 383.889,-88.0985 408.014,-100.535 484,-109.189 531.132,-114.556 550.065,-104.707 588,-133.189 620.121,-157.304 636.652,-205.133 642.495,-225.567"/>
<polygon fill="#9a32cd" stroke="#9a32cd" points="267.266,-138.992 262.356,-148.381 272.049,-144.103 267.266,-138.992"/>
<text text-anchor="middle" x="443" y="-112.189" font-family="Arial" font-size="10.00"> referenceSound</text>
</g>
<!-- Node11&#45;&gt;Node15 -->
<g id="edge21" class="edge"><title>Node11&#45;&gt;Node15</title>
<path fill="none" stroke="#9a32cd" stroke-dasharray="5,2" d="M301.754,-170.87C329.67,-180.542 363.182,-196.655 384,-222.189 404.299,-247.085 381.564,-267.404 402,-292.189 405.13,-295.985 409.195,-299.071 413.532,-301.564"/>
<polygon fill="#9a32cd" stroke="#9a32cd" points="302.736,-167.508 292.143,-167.713 300.551,-174.159 302.736,-167.508"/>
<text text-anchor="middle" x="348" y="-225.189" font-family="Arial" font-size="10.00"> referenceSound</text>
</g>
<!-- Node12 -->
<g id="node12" class="node"><title>Node12</title>
<g id="a_node12"><a xlink:href="classid_render_model.html" target="_top" xlink:title="idRenderModel">
<polygon fill="white" stroke="black" points="211.5,-91.6886 211.5,-110.689 292.5,-110.689 292.5,-91.6886 211.5,-91.6886"/>
<text text-anchor="middle" x="252" y="-98.6886" font-family="Arial" font-size="10.00">idRenderModel</text>
</a>
</g>
</g>
<!-- Node12&#45;&gt;Node2 -->
<g id="edge13" class="edge"><title>Node12&#45;&gt;Node2</title>
<path fill="none" stroke="#9a32cd" stroke-dasharray="5,2" d="M289.5,-88.5927C356.874,-67.8818 501.75,-35.5542 588,-106.189 626.833,-137.991 640.024,-201.581 643.738,-225.656"/>
<polygon fill="#9a32cd" stroke="#9a32cd" points="288.234,-85.3221 279.755,-91.675 290.345,-91.9962 288.234,-85.3221"/>
<text text-anchor="middle" x="443" y="-67.1886" font-family="Arial" font-size="10.00"> hModel</text>
</g>
<!-- Node12&#45;&gt;Node15 -->
<g id="edge22" class="edge"><title>Node12&#45;&gt;Node15</title>
<path fill="none" stroke="#9a32cd" stroke-dasharray="5,2" d="M302.46,-110.609C330.792,-118.649 364.49,-133.216 384,-159.189 419.826,-206.882 366.812,-244.023 402,-292.189 404.812,-296.038 408.608,-299.137 412.746,-301.623"/>
<polygon fill="#9a32cd" stroke="#9a32cd" points="303.256,-107.2 292.694,-108.03 301.469,-113.967 303.256,-107.2"/>
<text text-anchor="middle" x="348" y="-162.189" font-family="Arial" font-size="10.00"> prelightModel</text>
</g>
<!-- Node13 -->
<g id="node13" class="node"><title>Node13</title>
<g id="a_node13"><a xlink:href="classid_bounds.html" target="_top" xlink:title="idBounds">
<polygon fill="white" stroke="black" points="414.5,-225.689 414.5,-244.689 471.5,-244.689 471.5,-225.689 414.5,-225.689"/>
<text text-anchor="middle" x="443" y="-232.689" font-family="Arial" font-size="10.00">idBounds</text>
</a>
</g>
</g>
<!-- Node13&#45;&gt;Node2 -->
<g id="edge14" class="edge"><title>Node13&#45;&gt;Node2</title>
<path fill="none" stroke="#9a32cd" stroke-dasharray="5,2" d="M481.921,-235.189C517.316,-235.189 569.911,-235.189 605.733,-235.189"/>
<polygon fill="#9a32cd" stroke="#9a32cd" points="481.527,-231.689 471.527,-235.189 481.527,-238.689 481.527,-231.689"/>
<text text-anchor="middle" x="545" y="-238.189" font-family="Arial" font-size="10.00"> bounds</text>
</g>
<!-- Node14 -->
<g id="node14" class="node"><title>Node14</title>
<g id="a_node14"><a xlink:href="classid_user_interface.html" target="_top" xlink:title="idUserInterface">
<polygon fill="white" stroke="black" points="402.5,-129.689 402.5,-148.689 483.5,-148.689 483.5,-129.689 402.5,-129.689"/>
<text text-anchor="middle" x="443" y="-136.689" font-family="Arial" font-size="10.00">idUserInterface</text>
</a>
</g>
</g>
<!-- Node14&#45;&gt;Node2 -->
<g id="edge18" class="edge"><title>Node14&#45;&gt;Node2</title>
<path fill="none" stroke="#9a32cd" stroke-dasharray="5,2" d="M493.649,-137.313C522.931,-138.337 559.676,-143.484 588,-160.189 614.484,-175.808 632.81,-208.934 640.677,-225.431"/>
<polygon fill="#9a32cd" stroke="#9a32cd" points="493.697,-133.814 483.629,-137.111 493.556,-140.812 493.697,-133.814"/>
<text text-anchor="middle" x="545" y="-163.189" font-family="Arial" font-size="10.00"> gui</text>
</g>
<!-- Node15&#45;&gt;Node1 -->
<g id="edge19" class="edge"><title>Node15&#45;&gt;Node1</title>
<path fill="none" stroke="#9a32cd" stroke-dasharray="5,2" d="M490.797,-314.694C494.585,-314.893 498.356,-315.063 502,-315.189 600.889,-318.595 716.96,-309.415 777.838,-303.585"/>
<polygon fill="#9a32cd" stroke="#9a32cd" points="490.987,-311.2 480.799,-314.11 490.578,-318.188 490.987,-311.2"/>
<text text-anchor="middle" x="646" y="-317.189" font-family="Arial" font-size="10.00"> renderLight</text>
</g>
</g>
</svg>
