<?xml version="1.0" encoding="UTF-8" standalone="no"?>
<!DOCTYPE svg PUBLIC "-//W3C//DTD SVG 1.1//EN"
 "http://www.w3.org/Graphics/SVG/1.1/DTD/svg11.dtd">
<!-- Generated by graphviz version 2.34.0 (20130907.0111)
 -->
<!-- Title: inflate_codes_state Pages: 1 -->
<svg width="108pt" height="118pt"
 viewBox="0.00 0.00 108.00 118.00" xmlns="http://www.w3.org/2000/svg" xmlns:xlink="http://www.w3.org/1999/xlink">
<g id="graph0" class="graph" transform="scale(1 1) rotate(0) translate(4 114)">
<title>inflate_codes_state</title>
<polygon fill="white" stroke="white" points="-4,4 -4,-114 104,-114 104,4 -4,4"/>
<!-- Node1 -->
<g id="node1" class="node"><title>Node1</title>
<polygon fill="#bfbfbf" stroke="black" points="-0.5,-0.5 -0.5,-19.5 100.5,-19.5 100.5,-0.5 -0.5,-0.5"/>
<text text-anchor="middle" x="50" y="-7.5" font-family="Arial" font-size="10.00">inflate_codes_state</text>
</g>
<!-- Node2 -->
<g id="node2" class="node"><title>Node2</title>
<g id="a_node2"><a xlink:href="structinflate__huft__s.html" target="_top" xlink:title="inflate_huft_s">
<polygon fill="white" stroke="black" points="13,-90.5 13,-109.5 87,-109.5 87,-90.5 13,-90.5"/>
<text text-anchor="middle" x="50" y="-97.5" font-family="Arial" font-size="10.00">inflate_huft_s</text>
</a>
</g>
</g>
<!-- Node2&#45;&gt;Node1 -->
<g id="edge1" class="edge"><title>Node2&#45;&gt;Node1</title>
<path fill="none" stroke="#9a32cd" stroke-dasharray="5,2" d="M50,-79.9784C50,-61.3096 50,-33.6696 50,-19.7241"/>
<polygon fill="#9a32cd" stroke="#9a32cd" points="46.5001,-80.2405 50,-90.2405 53.5001,-80.2405 46.5001,-80.2405"/>
<text text-anchor="middle" x="61" y="-63.5" font-family="Arial" font-size="10.00"> ltree</text>
<text text-anchor="middle" x="61" y="-52.5" font-family="Arial" font-size="10.00">dtree</text>
<text text-anchor="middle" x="61" y="-41.5" font-family="Arial" font-size="10.00">tree</text>
</g>
</g>
</svg>
