<?xml version="1.0" encoding="UTF-8" standalone="no"?>
<!DOCTYPE svg PUBLIC "-//W3C//DTD SVG 1.1//EN"
 "http://www.w3.org/Graphics/SVG/1.1/DTD/svg11.dtd">
<!-- Generated by graphviz version 2.34.0 (20130907.0111)
 -->
<!-- Title: _curl_hash Pages: 1 -->
<svg width="145pt" height="176pt"
 viewBox="0.00 0.00 145.00 176.00" xmlns="http://www.w3.org/2000/svg" xmlns:xlink="http://www.w3.org/1999/xlink">
<g id="graph0" class="graph" transform="scale(1 1) rotate(0) translate(4 172)">
<title>_curl_hash</title>
<polygon fill="white" stroke="white" points="-4,4 -4,-172 141,-172 141,4 -4,4"/>
<!-- Node1 -->
<g id="node1" class="node"><title>Node1</title>
<polygon fill="#bfbfbf" stroke="black" points="17,-0.5 17,-19.5 81,-19.5 81,-0.5 17,-0.5"/>
<text text-anchor="middle" x="49" y="-7.5" font-family="Arial" font-size="10.00">_curl_hash</text>
</g>
<!-- Node2 -->
<g id="node2" class="node"><title>Node2</title>
<g id="a_node2"><a xlink:href="struct__curl__llist.html" target="_top" xlink:title="_curl_llist">
<polygon fill="white" stroke="black" points="20,-68.5 20,-87.5 78,-87.5 78,-68.5 20,-68.5"/>
<text text-anchor="middle" x="49" y="-75.5" font-family="Arial" font-size="10.00">_curl_llist</text>
</a>
</g>
</g>
<!-- Node2&#45;&gt;Node1 -->
<g id="edge1" class="edge"><title>Node2&#45;&gt;Node1</title>
<path fill="none" stroke="#9a32cd" stroke-dasharray="5,2" d="M49,-58.0413C49,-45.4724 49,-29.5631 49,-19.8411"/>
<polygon fill="#9a32cd" stroke="#9a32cd" points="45.5001,-58.3716 49,-68.3717 52.5001,-58.3717 45.5001,-58.3716"/>
<text text-anchor="middle" x="61.5" y="-41.5" font-family="Arial" font-size="10.00"> table</text>
</g>
<!-- Node3 -->
<g id="node3" class="node"><title>Node3</title>
<g id="a_node3"><a xlink:href="struct__curl__llist__element.html" target="_top" xlink:title="_curl_llist_element">
<polygon fill="white" stroke="black" points="0,-147.5 0,-166.5 98,-166.5 98,-147.5 0,-147.5"/>
<text text-anchor="middle" x="49" y="-154.5" font-family="Arial" font-size="10.00">_curl_llist_element</text>
</a>
</g>
</g>
<!-- Node3&#45;&gt;Node2 -->
<g id="edge2" class="edge"><title>Node3&#45;&gt;Node2</title>
<path fill="none" stroke="#9a32cd" stroke-dasharray="5,2" d="M49,-137.315C49,-121.592 49,-99.8079 49,-87.8094"/>
<polygon fill="#9a32cd" stroke="#9a32cd" points="45.5001,-137.465 49,-147.465 52.5001,-137.465 45.5001,-137.465"/>
<text text-anchor="middle" x="61.5" y="-120" font-family="Arial" font-size="10.00"> head</text>
<text text-anchor="middle" x="61.5" y="-109" font-family="Arial" font-size="10.00">tail</text>
</g>
<!-- Node3&#45;&gt;Node3 -->
<g id="edge3" class="edge"><title>Node3&#45;&gt;Node3</title>
<path fill="none" stroke="#9a32cd" stroke-dasharray="5,2" d="M108.323,-162.719C113.065,-161.47 116,-159.563 116,-157 116,-152.898 108.486,-150.479 98.0804,-149.742"/>
<polygon fill="#9a32cd" stroke="#9a32cd" points="107.449,-159.311 98.0804,-164.258 108.489,-166.233 107.449,-159.311"/>
<text text-anchor="middle" x="126.5" y="-160" font-family="Arial" font-size="10.00"> prev</text>
<text text-anchor="middle" x="126.5" y="-149" font-family="Arial" font-size="10.00">next</text>
</g>
</g>
</svg>
